<svg xmlns="http://www.w3.org/2000/svg" viewBox="0 0 17 18.59">
    <g fill="fill:#616161">
        <path style="fill: #575757" d="M16.43 1.38h-2.19V.57a.57.57 0 0 0-.57-.57H11.6a.57.57 0 0 0-.6.57v.81H6V.57A.57.57 0 0 0 5.4 0H3.33a.57.57 0 0 0-.57.57v.81H.57A.57.57 0 0 0 0 2v16a.57.57 0 0 0 .57.57h15.86A.57.57 0 0 0 17 18V2a.57.57 0 0 0-.57-.62zm-4.25-.23h.92v1.61h-.92zm-8.27 0h.92v1.61H3.9zM2.76 2.52v.81a.57.57 0 0 0 .57.57H5.4a.57.57 0 0 0 .6-.57v-.81h5v.81a.57.57 0 0 0 .57.57h2.07a.57.57 0 0 0 .57-.57v-.81h1.61v2.3H1.14v-2.3zM1.14 17.44V6h14.72v11.44z"/>
        <path style="fill: #575757" d="M14.26 9.52a.57.57 0 0 0 0-1.15h-2.09v-.8a.57.57 0 1 0-1.14 0v.81h-2.3v-.81a.57.57 0 1 0-1.14 0v.81H5.28v-.81a.57.57 0 1 0-1.14 0v.81h-1.4a.57.57 0 0 0 0 1.15h1.4v1.61h-1.4a.57.57 0 0 0 0 1.15h1.4v1.61h-1.4a.57.57 0 0 0 0 1.15h1.4v.81a.57.57 0 1 0 1.14 0V15h2.3v.81a.57.57 0 1 0 1.14 0V15H11v.81a.57.57 0 1 0 1.14 0V15h2.08a.57.57 0 0 0 0-1.15h-2.05v-1.57h2.08a.57.57 0 0 0 0-1.15h-2.08V9.52zm-9 0h2.3v1.61H5.28zm0 4.37v-1.61h2.3v1.61zm5.75 0H8.73v-1.61H11zm0-2.76H8.73V9.52H11z"/>
    </g>
</svg>
