<svg width="16" height="16" viewBox="0 0 16 16" xmlns="http://www.w3.org/2000/svg"><path d="M.941 15.059H15.06V5.525H.94v9.534zM2.618 2.25v.84c0 .26.211.47.47.47h1.965c.26 0 .47-.21.47-.47v-.84h4.953v.84c0 .26.21.47.47.47h1.965c.26 0 .47-.21.47-.47v-.84h1.678v2.334H.94V2.25h1.677zm.942.37h1.023V.94H3.56V2.62zm7.857 0h1.023V.94h-1.023V2.62zm4.112-1.31h-2.147V.47a.47.47 0 0 0-.47-.47h-1.965a.47.47 0 0 0-.47.47v.84H5.523V.47a.47.47 0 0 0-.47-.47H3.088a.47.47 0 0 0-.47.47v.84H.47A.47.47 0 0 0 0 1.78v13.75c0 .26.21.47.47.47h15.06c.26 0 .47-.21.47-.47V1.78a.47.47 0 0 0-.47-.47z" fill="#3D4A52" fill-rule="evenodd"/></svg>
