<?xml version="1.0" encoding="utf-8"?>
<!-- Generator: Adobe Illustrator 20.1.0, SVG Export Plug-In . SVG Version: 6.00 Build 0)  -->
<svg version="1.1" id="Layer_1" xmlns="http://www.w3.org/2000/svg" xmlns:xlink="http://www.w3.org/1999/xlink" x="0px" y="0px"
	 viewBox="0 0 36 36" style="enable-background:new 0 0 36 36;" xml:space="preserve">
<style type="text/css">
	.st0{fill-rule:evenodd;clip-rule:evenodd;fill:#148aff;}
</style>
<g>
	<defs>
		<rect id="SVGID_1_" width="36" height="36"/>
	</defs>
	<clipPath id="SVGID_2_">
		<use xlink:href="#SVGID_1_"  style="overflow:visible;"/>
	</clipPath>
</g>
<g>
	<defs>
		<rect id="SVGID_3_" width="36" height="36"/>
	</defs>
	<clipPath id="SVGID_4_">
		<use xlink:href="#SVGID_3_"  style="overflow:visible;"/>
	</clipPath>
</g>
<path class="st0" d="M17.5,0C7.8,0,0,7.8,0,17.5S7.8,35,17.5,35S35,27.2,35,17.5S27.4,0,17.5,0 M17.5,32.1
	c-8.1,0-14.6-6.5-14.6-14.6S9.4,2.9,17.5,2.9s14.6,6.5,14.6,14.6S25.8,32.1,17.5,32.1"/>
<path class="st0" d="M24.4,11.4l-9.5,8.9l-2.5-2.5c-0.5-0.5-1.4-0.5-1.9,0c-0.5,0.5-0.5,1.4,0,1.9l3.5,3.5c0.3,0.3,0.6,0.5,1,0.5
	s0.6-0.2,1-0.3l10.5-9.9c0.6-0.5,0.6-1.4,0-1.9C25.6,10.9,24.8,10.8,24.4,11.4"/>
</svg>
