<svg xmlns="http://www.w3.org/2000/svg" viewBox="0 0 36 36"><path d="M17.5 0C7.8 0 0 7.8 0 17.5S7.8 35 17.5 35 35 27.2 35 17.5 27.4 0 17.5 0m0 32.1c-8.1 0-14.6-6.5-14.6-14.6S9.4 2.9 17.5 2.9s14.6 6.5 14.6 14.6-6.3 14.6-14.6 14.6" fill-rule="evenodd" clip-rule="evenodd" fill="#148aff"/><path d="M24.4 11.4l-9.5 8.9-2.5-2.5c-.5-.5-1.4-.5-1.9 0s-.5 1.4 0 1.9l3.5 3.5c.3.3.6.5 1 .5s.6-.2 1-.3l10.5-9.9c.6-.5.6-1.4 0-1.9-.9-.7-1.7-.8-2.1-.2" fill-rule="evenodd" clip-rule="evenodd" fill="#148aff"/></svg>
