<?xml version="1.0" encoding="utf-8"?>
<!-- Generator: Adobe Illustrator 20.1.0, SVG Export Plug-In . SVG Version: 6.00 Build 0)  -->
<svg version="1.1" id="Layer_1" xmlns="http://www.w3.org/2000/svg" xmlns:xlink="http://www.w3.org/1999/xlink" x="0px" y="0px"
	 viewBox="0 0 18.2 18.7" style="enable-background:new 0 0 18.2 18.7;" xml:space="preserve">
<g>
	<path d="M17.6,2.1h-2.7h-2.5V0.6c0-0.3-0.3-0.6-0.6-0.6H5.6C5.3,0,5,0.3,5,0.6v1.5H2.5H0.6C0.3,2.1,0,2.4,0,2.7s0.3,0.6,0.6,0.6
		h1.3v14.9c0,0.3,0.3,0.6,0.6,0.6h12.4c0.3,0,0.6-0.3,0.6-0.6V3.3h2.1c0.3,0,0.6-0.3,0.6-0.6S17.9,2.1,17.6,2.1z M6.2,1.2h5v0.9h-5
		V1.2z M14.3,17.5H3.1V3.3h2.5h6.2h2.5V17.5z"/>
	<path d="M5.6,4.8C5.3,4.8,5,5.1,5,5.4v9.3c0,0.3,0.3,0.6,0.6,0.6s0.6-0.3,0.6-0.6V5.4C6.2,5.1,6,4.8,5.6,4.8z"/>
	<path d="M8.7,4.8c-0.3,0-0.6,0.3-0.6,0.6v9.3c0,0.3,0.3,0.6,0.6,0.6s0.6-0.3,0.6-0.6V5.4C9.3,5.1,9,4.8,8.7,4.8z"/>
	<path d="M11.2,5.4v9.3c0,0.3,0.3,0.6,0.6,0.6s0.6-0.3,0.6-0.6V5.4c0-0.3-0.3-0.6-0.6-0.6S11.2,5.1,11.2,5.4z"/>
</g>
</svg>
