<svg xmlns="http://www.w3.org/2000/svg" xmlns:xlink="http://www.w3.org/1999/xlink" viewBox="0 0 36.94 36.84"><defs><style>.cls-1,.cls-2,.cls-3{fill-rule:evenodd;}.cls-1{fill:url(#linear-gradient);}.cls-2{fill:url(#linear-gradient-2);}.cls-3{fill:url(#linear-gradient-3);}</style><linearGradient id="linear-gradient" x1="17" y1="15.34" x2="20" y2="15.34" gradientUnits="userSpaceOnUse"><stop offset="0" stop-color="#66d5ff"/><stop offset="1" stop-color="#2bc4ff"/></linearGradient><linearGradient id="linear-gradient-2" x1="17" y1="25.34" x2="20" y2="25.34" xlink:href="#linear-gradient"/><linearGradient id="linear-gradient-3" x1="3.41" y1="36.06" x2="30.21" y2="4.13" xlink:href="#linear-gradient"/></defs><title>exclamation_1</title><g id="Layer_2" data-name="Layer 2"><g id="Layer_1-2" data-name="Layer 1"><path class="cls-1" d="M18.57,8.85h.14a1.16,1.16,0,0,1,.35.1,1.62,1.62,0,0,1,.86,1,1.54,1.54,0,0,1,.07.39,1.16,1.16,0,0,1,0,.16v9.67c0,.07,0,.16,0,.24a1.81,1.81,0,0,1-.12.45,1.7,1.7,0,0,1-.33.51,1.46,1.46,0,0,1-.48.34,1.37,1.37,0,0,1-.41.11,1.4,1.4,0,0,1-1.18-.45A1.61,1.61,0,0,1,17.2,21a1.84,1.84,0,0,1-.18-.59c0-.08,0-.16,0-.24V10.51c0-.07,0-.08,0-.16a1.84,1.84,0,0,1,.08-.39,1.61,1.61,0,0,1,.86-1,1.13,1.13,0,0,1,.34-.1h.29"/><path class="cls-2" d="M18.5,23.84a1.5,1.5,0,1,1-1.5,1.5,1.5,1.5,0,0,1,1.5-1.5"/><path class="cls-3" d="M18.56,0A19.5,19.5,0,0,1,21,.17a18.49,18.49,0,0,1,9.14,3.92A18.27,18.27,0,0,1,34,8.28a18,18,0,0,1,3,10,17.65,17.65,0,0,1-.77,5A18.21,18.21,0,0,1,27.9,33.69a18.74,18.74,0,0,1-7.4,2.42,19,19,0,0,1-5.77-.26c-.62-.13-1.23-.28-1.83-.47l-.9-.3-.07,0L5.25,36.79l-.13,0H5a1.51,1.51,0,0,1-.4,0,1.43,1.43,0,0,1-1.07-.92,1.4,1.4,0,0,1-.09-.38,1.05,1.05,0,0,1,0-.14l.2-6.47-.25-.33-.21-.31A17.4,17.4,0,0,1,2,26.35,17.75,17.75,0,0,1,.36,21.68,17.83,17.83,0,0,1,1.78,10.33,18.28,18.28,0,0,1,7.87,3.27,18.67,18.67,0,0,1,16.67.09C17.23,0,17.78,0,18.34,0h.22m-.2,2.85a15.9,15.9,0,0,0-9.21,3A15.61,15.61,0,0,0,5.84,9.19,15.1,15.1,0,0,0,5.14,26a15.35,15.35,0,0,0,1.1,1.55l.07.1s0,.07.06.11a1.34,1.34,0,0,1,.16.46,1.3,1.3,0,0,1,0,.25l-.16,5.06,5.25-1.36.13,0,.13,0a2,2,0,0,1,.4,0,2.83,2.83,0,0,1,.42.14l.15.06.3.1a16.37,16.37,0,0,0,2.15.6,15.9,15.9,0,0,0,11.24-1.9,15.35,15.35,0,0,0,4.47-4,15,15,0,0,0,3-9.87,15.08,15.08,0,0,0-2.57-7.61,15.48,15.48,0,0,0-3.28-3.5A15.73,15.73,0,0,0,20.61,3a14.94,14.94,0,0,0-2.06-.14h-.19"/></g></g></svg>