<?xml version="1.0" encoding="utf-8"?>
<!-- Generator: Adobe Illustrator 20.1.0, SVG Export Plug-In . SVG Version: 6.00 Build 0)  -->
<svg version="1.1" id="Layer_1" xmlns="http://www.w3.org/2000/svg" xmlns:xlink="http://www.w3.org/1999/xlink" x="0px" y="0px"
	 viewBox="0 0 15 15" style="enable-background:new 0 0 15 15;" xml:space="preserve">
<g>
	<g>
		<path d="M3.4,15c-0.2,0-0.4-0.1-0.6-0.2c-0.4-0.3-0.6-0.7-0.4-1.2l1.2-4.4L0.4,6.5C0,6.2-0.1,5.7,0.1,5.2c0.2-0.4,0.6-0.7,1-0.7
			h3.8l1.6-3.9C6.6,0.3,7,0,7.5,0s0.9,0.3,1,0.7l1.6,3.9h3.8c0.5,0,0.9,0.3,1,0.7c0.2,0.4,0,0.9-0.3,1.2l-3.1,2.8l1.2,4.4
			c0.1,0.5-0.1,0.9-0.4,1.2c-0.4,0.3-0.9,0.2-1.3,0l-3.4-2.7l-3.4,2.7C3.9,14.9,3.6,15,3.4,15z M7.5,10.8l4.1,3.2l0.4,0.4l-0.3-0.4
			c0,0,0-0.1,0-0.1l-1.4-5L14,5.7c0,0,0-0.1,0-0.1l0,0c0,0,0-0.1-0.1-0.1H9.4L7.6,1L7.4,1L5.6,5.5H1.1c0,0-0.1,0-0.1,0.1
			c0,0,0,0.1,0,0.1l3.6,3.2l-1.4,5c0,0,0,0.1,0,0.1c0,0,0.1,0,0.1,0L7.5,10.8z"/>
	</g>
</g>
</svg>
