<?xml version="1.0" encoding="utf-8"?>
<!-- Generator: Adobe Illustrator 20.1.0, SVG Export Plug-In . SVG Version: 6.00 Build 0)  -->
<svg version="1.1" id="Layer_1" xmlns="http://www.w3.org/2000/svg" xmlns:xlink="http://www.w3.org/1999/xlink" x="0px" y="0px"
	 viewBox="0 0 15 15" style="enable-background:new 0 0 15 15;" xml:space="preserve">
<style type="text/css">
	.st0{fill:#010101;}
</style>
<g>
	<path class="st0" d="M14.5,5.4C14.4,5.2,14.2,5,13.9,5H9.7L8.1,0.8c-0.2-0.5-0.9-0.5-1.1,0L5.3,5H1.1C0.8,5,0.6,5.2,0.5,5.4
		c-0.1,0.2,0,0.5,0.2,0.7l3.4,3l-1.3,4.7c-0.1,0.2,0,0.5,0.2,0.7c0.2,0.1,0.5,0.1,0.7,0l3.8-2.9l3.8,2.9c0.1,0.1,0.2,0.1,0.4,0.1
		c0.1,0,0.2,0,0.3-0.1c0.2-0.1,0.3-0.4,0.2-0.7L10.9,9l3.4-3C14.5,5.9,14.5,5.7,14.5,5.4z"/>
</g>
</svg>
