<svg width="20" height="20" xmlns="http://www.w3.org/2000/svg" viewBox="0 0 26.42 26.42">
  <g>
    <g>
      <path style="fill: #667485" d="M13.21,0A13.28,13.28,0,0,0,0,13.21,13.28,13.28,0,0,0,13.21,26.42,13.28,13.28,0,0,0,26.42,13.21,13.28,13.28,0,0,0,13.21,0Zm0,21.59a1.15,1.15,0,1,1,1.15-1.15A1.15,1.15,0,0,1,13.21,21.59Zm1.15-7.35v2.53a1.15,1.15,0,0,1-1.15,1.15,1.24,1.24,0,0,1-1.15-1.15V13.21a1.15,1.15,0,0,1,1.15-1.15,2.41,2.41,0,0,0,0-4.82A2.36,2.36,0,0,0,10.8,9.65,1.15,1.15,0,0,1,9.65,10.8,1.24,1.24,0,0,1,8.5,9.65a4.71,4.71,0,0,1,9.42,0A5.08,5.08,0,0,1,14.36,14.24Z"/>
    </g>
  </g>
</svg>
