<svg width="20" height="20" xmlns="http://www.w3.org/2000/svg" viewBox="0 0 26.42 26.42"><path d="M13.21 0A13.28 13.28 0 0 0 0 13.21a13.28 13.28 0 0 0 13.21 13.21 13.28 13.28 0 0 0 13.21-13.21A13.28 13.28 0 0 0 13.21 0zm0 21.59a1.15 1.15 0 1 1 1.15-1.15 1.15 1.15 0 0 1-1.15 1.15zm1.15-7.35v2.53a1.15 1.15 0 0 1-1.15 1.15 1.24 1.24 0 0 1-1.15-1.15v-3.56a1.15 1.15 0 0 1 1.15-1.15 2.41 2.41 0 0 0 0-4.82 2.36 2.36 0 0 0-2.41 2.41 1.15 1.15 0 0 1-1.15 1.15A1.24 1.24 0 0 1 8.5 9.65a4.71 4.71 0 0 1 9.42 0 5.08 5.08 0 0 1-3.56 4.59z" fill="#667485"/></svg>
