<svg xmlns="http://www.w3.org/2000/svg" viewBox="0 0 200 134"><defs><style>.ag_cls-1{fill:#fff;}.ag_cls-2{fill:none;}.ag_cls-3{fill:#121212;}.ag_cls-4{fill:#fbd632;}.ag_cls-5{fill:#2573b9;}.ag_cls-6{fill:#ce2931;}</style></defs><title>Asset 9</title><g id="Layer_2" data-name="Layer 2"><g id="Layer_91" data-name="Layer 91"><rect class="ag_cls-1" x="46.09" y="72.51" width="114.25" height="61.49"/><polygon class="ag_cls-2" points="60.51 81.63 99.8 134 100.2 134 139.49 81.63 60.51 81.63"/><path class="ag_cls-3" d="M183,0H17A17,17,0,0,0,3.91,6.15L38.58,52.38H56.13L78.06,48,59.47,35.59,81.4,39.95,69,21.35l18.6,12.43L83.21,11.84l12.43,18.6L100,8.5l4.36,21.94,12.43-18.6-4.36,21.94L131,21.35,118.6,39.95l21.94-4.36L121.94,48l21.94,4.36h17.55L196.09,6.16A17,17,0,0,0,183,0Z"/><polygon class="ag_cls-4" points="121.94 48.01 140.53 35.59 118.6 39.95 131.03 21.35 112.43 33.78 116.79 11.84 104.36 30.44 100 8.5 95.64 30.44 83.21 11.84 87.57 33.78 68.98 21.35 81.4 39.95 59.47 35.59 78.06 48.01 56.13 52.38 100.86 52.38 101.02 52.38 101.52 52.38 110.3 52.38 143.88 52.38 121.94 48.01"/><polygon class="ag_cls-5" points="139.49 81.63 161.42 52.38 143.88 52.38 110.3 52.38 101.52 52.38 101.02 52.38 100.86 52.38 56.13 52.38 38.58 52.38 60.51 81.63 139.49 81.63"/><path class="ag_cls-6" d="M139.49,81.62,100.21,134H183a17,17,0,0,0,17-17V17a16.93,16.93,0,0,0-3.91-10.84L161.42,52.38Z"/><path class="ag_cls-6" d="M38.58,52.38,3.91,6.15A16.92,16.92,0,0,0,0,17V117a17,17,0,0,0,17,17H99.79L60.51,81.62Z"/></g></g></svg>
