<svg xmlns="http://www.w3.org/2000/svg" viewBox="0 0 200 134"><defs><style>.aw_cls-1{fill:#5882bc;}.aw_cls-2{fill:#f9da32;}.aw_cls-3{fill:#fff;}.aw_cls-4{fill:#ee2e2f;}</style></defs><title>Asset 12</title><g id="Layer_2" data-name="Layer 2"><g id="Layer_89" data-name="Layer 89"><path class="aw_cls-1" d="M0,117a17,17,0,0,0,17,17H183a17,17,0,0,0,17-17v-5H0Z"/><path class="aw_cls-1" d="M183,0H17A17,17,0,0,0,0,17V89.48H200V17A17,17,0,0,0,183,0ZM34.53,35.24,28.84,52,23.09,35.26,6.32,29.56l16.75-5.75L28.77,7,34.52,23.8l16.77,5.7Z"/><rect class="aw_cls-1" y="96.98" width="200" height="7.5"/><rect class="aw_cls-2" y="104.47" width="200" height="7.49"/><rect class="aw_cls-2" y="89.48" width="200" height="7.49"/><path class="aw_cls-3" d="M28.77,7l-5.7,16.77L6.32,29.56l16.77,5.7L28.84,52l5.7-16.77L51.29,29.5,34.52,23.8Zm4.81,27.25-4.75,14L24,34.3l-14-4.75,14-4.79,4.75-14,4.79,14,14,4.75Z"/><polygon class="aw_cls-4" points="28.78 10.79 24.03 24.77 10.07 29.55 24.04 34.3 28.83 48.27 33.58 34.29 47.54 29.5 33.57 24.75 28.78 10.79"/></g></g></svg>
