<svg xmlns="http://www.w3.org/2000/svg" viewBox="0 0 200 134"><defs><style>.ge_cls-1{fill:#fafafa;}.ge_cls-2{fill:#e72e3f;}</style></defs><title>Asset 65</title><g id="Layer_2" data-name="Layer 2"><g id="Layer_36" data-name="Layer 36"><path class="ge_cls-1" d="M183,0H113.43V53.57H200V17A17,17,0,0,0,183,0ZM170.08,31.34c-2.39-.75-8.21-1.16-9.58-1.19a72.44,72.44,0,0,0,1.12,9.59,44,44,0,0,0-9.14,0,65.28,65.28,0,0,0,1.12-9.58c-1.71-.26-7.83.75-9.58,1.16a42.42,42.42,0,0,0,0-9.21c.93.15,8.54,1.45,9.55,1.08a60.84,60.84,0,0,0-1.12-9.55,34.09,34.09,0,0,0,9.14,0,77.17,77.17,0,0,0-1.12,9.62,64.19,64.19,0,0,0,9.62-1.16A47.69,47.69,0,0,0,170.08,31.34Z"/><path class="ge_cls-1" d="M113.43,134H183a17,17,0,0,0,17-17V80.43H113.43Zm39.13-39.62a34.07,34.07,0,0,0,9.14,0,77.12,77.12,0,0,0-1.12,9.62,64.32,64.32,0,0,0,9.62-1.16,47.5,47.5,0,0,0,0,9.21c-2.39-.75-8.21-1.16-9.59-1.19a72.42,72.42,0,0,0,1.12,9.59,44,44,0,0,0-9.14,0,65.29,65.29,0,0,0,1.12-9.59c-1.71-.26-7.83.75-9.58,1.16a42.28,42.28,0,0,0,0-9.21c.93.15,8.54,1.45,9.55,1.08A60.6,60.6,0,0,0,152.55,94.38Z"/><path class="ge_cls-1" d="M0,80.43V117a17,17,0,0,0,17,17H86.57V80.43ZM47.56,120.3a44,44,0,0,0-9.14,0,65.52,65.52,0,0,0,1.12-9.58c-1.72-.26-7.83.75-9.59,1.16a42.28,42.28,0,0,0,0-9.21c.93.15,8.54,1.45,9.55,1.08a61.07,61.07,0,0,0-1.12-9.55,34,34,0,0,0,9.14,0,77.15,77.15,0,0,0-1.12,9.62,64.32,64.32,0,0,0,9.62-1.16,47.5,47.5,0,0,0,0,9.21c-2.39-.75-8.21-1.16-9.59-1.19A72.42,72.42,0,0,0,47.56,120.3Z"/><path class="ge_cls-1" d="M86.57,0H17A17,17,0,0,0,0,17V53.57H86.57Zm-39,39.81a44,44,0,0,0-9.14,0,65.54,65.54,0,0,0,1.12-9.59C37.83,30,31.71,31,30,31.42a42.28,42.28,0,0,0,0-9.21c.93.15,8.54,1.45,9.55,1.08a61.06,61.06,0,0,0-1.12-9.55,34.07,34.07,0,0,0,9.14,0,77.12,77.12,0,0,0-1.12,9.62,64.33,64.33,0,0,0,9.62-1.16,47.5,47.5,0,0,0,0,9.21c-2.39-.75-8.21-1.16-9.59-1.19A72.44,72.44,0,0,0,47.56,39.81Z"/><polygon class="ge_cls-2" points="113.43 53.57 113.43 0 86.57 0 86.57 53.57 0 53.57 0 80.43 86.57 80.43 86.57 134 113.43 134 113.43 80.43 200 80.43 200 53.57 113.43 53.57"/><path class="ge_cls-2" d="M160.49,23.29a77.17,77.17,0,0,1,1.12-9.62,34.09,34.09,0,0,1-9.14,0,60.84,60.84,0,0,1,1.12,9.55c-1,.37-8.62-.93-9.55-1.08a42.42,42.42,0,0,1,0,9.21c1.75-.41,7.87-1.42,9.58-1.16a65.28,65.28,0,0,1-1.12,9.58,44,44,0,0,1,9.14,0,72.44,72.44,0,0,1-1.12-9.59c1.38,0,7.2.45,9.58,1.19a47.69,47.69,0,0,1,0-9.21A64.19,64.19,0,0,1,160.49,23.29Z"/><path class="ge_cls-2" d="M56.06,22.21a64.33,64.33,0,0,1-9.62,1.16,77.12,77.12,0,0,1,1.12-9.62,34.07,34.07,0,0,1-9.14,0,61.06,61.06,0,0,1,1.12,9.55c-1,.37-8.62-.93-9.55-1.08a42.28,42.28,0,0,1,0,9.21c1.75-.41,7.87-1.42,9.59-1.16a65.54,65.54,0,0,1-1.12,9.59,44,44,0,0,1,9.14,0,72.44,72.44,0,0,1-1.12-9.59c1.38,0,7.2.45,9.59,1.19A47.5,47.5,0,0,1,56.06,22.21Z"/><path class="ge_cls-2" d="M56.06,102.69a64.32,64.32,0,0,1-9.62,1.16,77.15,77.15,0,0,1,1.12-9.62,34,34,0,0,1-9.14,0,61.07,61.07,0,0,1,1.12,9.55c-1,.37-8.62-.93-9.55-1.08a42.28,42.28,0,0,1,0,9.21c1.75-.41,7.87-1.42,9.59-1.16a65.52,65.52,0,0,1-1.12,9.58,44,44,0,0,1,9.14,0,72.42,72.42,0,0,1-1.12-9.58c1.38,0,7.2.45,9.59,1.19A47.5,47.5,0,0,1,56.06,102.69Z"/><path class="ge_cls-2" d="M144.12,102.84a42.28,42.28,0,0,1,0,9.21c1.75-.41,7.87-1.42,9.58-1.16a65.29,65.29,0,0,1-1.12,9.59,44,44,0,0,1,9.14,0,72.42,72.42,0,0,1-1.12-9.59c1.38,0,7.2.45,9.59,1.19a47.5,47.5,0,0,1,0-9.21,64.32,64.32,0,0,1-9.62,1.16,77.12,77.12,0,0,1,1.12-9.62,34.07,34.07,0,0,1-9.14,0,60.6,60.6,0,0,1,1.12,9.55C152.66,104.3,145.05,103,144.12,102.84Z"/></g></g></svg>
