<svg xmlns="http://www.w3.org/2000/svg" viewBox="0 0 200 134"><defs><style>.il_cls-1{fill:#fafafa;}.il_cls-2{fill:#2f4fa2;}</style></defs><title>Asset 86</title><g id="Layer_2" data-name="Layer 2"><g id="Layer_14" data-name="Layer 14"><path class="il_cls-1" d="M17,134H183a17,17,0,0,0,16.33-12.31H.67A17,17,0,0,0,17,134Z"/><rect class="il_cls-1" y="33.35" width="200" height="67.31"/><path class="il_cls-1" d="M183,0H17A17,17,0,0,0,.67,12.31H199.33A17,17,0,0,0,183,0Z"/><path class="il_cls-2" d="M0,17V33.35H200V17a17,17,0,0,0-.67-4.69H.67A17,17,0,0,0,0,17Z"/><path class="il_cls-2" d="M0,117a17,17,0,0,0,.67,4.69H199.33A17,17,0,0,0,200,117V100.65H0Z"/><path class="il_cls-2" d="M126,82H74l26-45Zm-42.46-5.5h32.94L100,48Z"/><path class="il_cls-2" d="M100,97,74,52h52ZM83.53,57.49,100,86l16.47-28.53Z"/></g></g></svg>
