<svg xmlns="http://www.w3.org/2000/svg" viewBox="0 0 200 134"><defs><style>.iq_cls-1{fill:#ce2931;}.iq_cls-2{fill:#fafafa;}.iq_cls-3{fill:#121212;}.iq_cls-4{fill:#089e49;}.iq_cls-5{fill:#282a74;}</style></defs><title>Asset 84</title><g id="Layer_2" data-name="Layer 2"><g id="Layer_16" data-name="Layer 16"><path class="iq_cls-1" d="M183,0H17A17,17,0,0,0,0,17V41.32H200V17A17,17,0,0,0,183,0Z"/><path class="iq_cls-2" d="M118,75.18l0,.46.27.06h1.21V74.38l-.37,0A4.61,4.61,0,0,0,118,75.18Z"/><path class="iq_cls-2" d="M0,90.53H200V41.32H0ZM123.45,58.07l.61-.65.84.31a2.52,2.52,0,0,0,1.08.22,2.3,2.3,0,0,0,.88-1.45c-.07-.39.27-.33.48.08a1.54,1.54,0,0,1-.72,2.13,2.21,2.21,0,0,1-1.39,0c-.77-.17-.9-.15-1.24.17a2.82,2.82,0,0,1-3,.51,2.52,2.52,0,0,1-.78-.46c-.19-.21-.09-.23.59-.12A2.68,2.68,0,0,0,123.45,58.07Zm-1.39-4.5c.5-.07.72.27,1.11,1.66.31,1.13.28,1.49-.1,1.22a5.61,5.61,0,0,1-1.33-2.3C121.71,53.74,121.78,53.62,122.06,53.57Zm-57,27.15a1.13,1.13,0,1,1,1.13,1.13A1.13,1.13,0,0,1,65.08,80.72Zm3,5.15c-.87,0-1.57-1-1.57-2.25s.71-2.25,1.57-2.25,1.57,1,1.57,2.25S69,85.87,68.11,85.87ZM94.59,78.7h-30l-.3,1.16a5,5,0,0,1-1.75,3,4.45,4.45,0,0,1-3.45.3A4.53,4.53,0,0,1,57.65,82c-.78-.88-1-1.29-.43-1a5,5,0,0,0,2.86.52c2-.7,2.48-3.5.87-5.28a2.29,2.29,0,0,1-.57-.9c0-.15.34-.42.75-.61a2.32,2.32,0,0,0,1.22-1.25c.38-.71.53-.87.71-.71a9.7,9.7,0,0,1,1.12,2.78c0,.22.31.27,1.73.27h1.73l-.27-.67a8.65,8.65,0,0,0-.54-1.11c-.24-.39-.24-.46,0-.63l1.06-.78a3.31,3.31,0,0,0,.92-.9,5.26,5.26,0,0,1,1.29-1.66A14.61,14.61,0,0,1,70.22,73v1.76H81.35l10.06-.13,0-2.6V70l0-.39-1-1-.76.83,0,1,0,1,0,2.2-9.31.13c-5.47-.08-9.71,0-9.68,0s5-6.44,5.59-7.16c.12-.15.4-.55.63-.9a7.33,7.33,0,0,1,.52-.72,6.85,6.85,0,0,0,.52-.72c.23-.34.5-.72.6-.84s1.73-2.39,3.63-5.06,3.51-4.86,3.58-4.86.17.21.22.48a12.89,12.89,0,0,0,.73,2.81c.29.59.12.81-.64.84-.36,0-1.2,1.07-5.1,6.5-2.57,3.57-4.69,6.55-4.72,6.63a45.29,45.29,0,0,0,5.14.14h5.2l.06-1.32c0,.05,0,.06.07,0a20.89,20.89,0,0,1,4-2.91,7.69,7.69,0,0,1,2.07.31l1.72,1.24,0,4.63Zm8.83-1.08-.11,1-3.41,0-3.41,0V69.38c0-6.52.06-9.36.19-9.45s.55.27,1,.76,1.23,1.26,1.76,1.72c.83.73.91.87.66,1-.85.54-.83.37-.83,6.56v5.82l1.49-1.58c1.47,0,1.42,0,2.1,1.13l0,.05a.93.93,0,0,1,.26.21A3.48,3.48,0,0,1,103.42,77.63Zm29.29,1H114.28l.08-2.3c.09-2.62.35-3.51,1.28-4.36a3.85,3.85,0,0,1,2.92-.88l.88.06.05-1.07c.07-1.36-.05-1.85-.49-2s-.42-.74.22-1.15a13.64,13.64,0,0,0,1.69-1.55,8.33,8.33,0,0,1,1.26-1.18c.07,0,.13,2.59.13,5.77V75l1.21,0,1.18,0,0-5.16c0-5.15,0-6-.27-6.22a.9.9,0,0,0-.43-.28c-.39,0-.12-.72.4-1.06a14,14,0,0,0,1.68-1.54,4.37,4.37,0,0,1,1.26-1.08c.08.05.14,3.7.14,8.1v7.18h1.34v0l0-7.34-.31-8.1.14-.29c-.24-.22.37-.69.37-.81a5.23,5.23,0,0,1,1.2-1.22,11.51,11.51,0,0,0,1.57-1.55c.89-1.29.87-1.49.87,11.25Zm8.87-1.08-.11,1-3.43,0-3.43,0V69.22c0-6.54.06-9.4.19-9.48s.55.28,1,.76,1.24,1.26,1.77,1.73c.83.74.92.87.66,1-.86.54-.83.37-.83,6.59l0,4.07,1.49.66c1.54,0,1.88-.44,2.24-1.08s.31.35.29.28a11.29,11.29,0,0,0,.09,1.95A12.08,12.08,0,0,1,141.58,77.5Z"/><path class="iq_cls-3" d="M0,117a17,17,0,0,0,17,17H183a17,17,0,0,0,17-17V90.53H0Z"/><path class="iq_cls-4" d="M102.88,75.43l0-.05c-.68-1.17-.63-1.13-2.1-1.13l-1.49,1.58V70c0-6.19,0-6,.83-6.56.25-.16.17-.3-.66-1-.52-.46-1.31-1.24-1.76-1.72s-.89-.82-1-.76-.19,2.93-.19,9.45v9.32l3.41,0,3.41,0,.11-1a3.48,3.48,0,0,0-.29-2A.93.93,0,0,0,102.88,75.43Z"/><path class="iq_cls-4" d="M92.85,66.85a7.69,7.69,0,0,0-2.07-.31,20.89,20.89,0,0,0-4,2.91c-.07.1-.07.1-.07,0l-.06,1.32h-5.2a45.29,45.29,0,0,1-5.14-.14c0-.08,2.16-3.06,4.72-6.63,3.9-5.43,4.74-6.49,5.1-6.5.76,0,.93-.25.64-.84A12.89,12.89,0,0,1,86,53.89c-.05-.27-.15-.49-.22-.48s-1.68,2.19-3.58,4.86-3.54,4.94-3.63,5.06-.37.49-.6.84a6.85,6.85,0,0,1-.52.72,7.33,7.33,0,0,0-.52.72c-.23.35-.52.75-.63.9-.55.71-5.43,7-5.59,7.16s4.21-.07,9.68,0l9.31-.13,0-2.2,0-1,0-1,.76-.83,1,1,0,.39v2l0,2.6-10.06.13H70.22V73a14.61,14.61,0,0,0-.14-2.87,5.26,5.26,0,0,0-1.29,1.66,3.31,3.31,0,0,1-.92.9l-1.06.78c-.23.17-.23.24,0,.63a8.65,8.65,0,0,1,.54,1.11l.27.67H65.9c-1.42,0-1.73,0-1.73-.27A9.7,9.7,0,0,0,63,72.78c-.18-.15-.33,0-.71.71a2.32,2.32,0,0,1-1.22,1.25c-.41.19-.75.46-.75.61a2.29,2.29,0,0,0,.57.9c1.61,1.78,1.15,4.58-.87,5.28A5,5,0,0,1,57.22,81c-.52-.29-.35.12.43,1a4.53,4.53,0,0,0,1.43,1.1,4.45,4.45,0,0,0,3.45-.3,5,5,0,0,0,1.75-3l.3-1.16h30v-6l0-4.63Z"/><path class="iq_cls-4" d="M120.78,58.84c-.69-.1-.78-.08-.59.13a2.52,2.52,0,0,0,.78.46,2.82,2.82,0,0,0,3-.51c.34-.33.46-.35,1.24-.17a2.21,2.21,0,0,0,1.39,0,1.54,1.54,0,0,0,.72-2.13c-.21-.41-.55-.47-.48-.08a2.3,2.3,0,0,1-.88,1.45,2.52,2.52,0,0,1-1.08-.22l-.84-.31-.61.65A2.68,2.68,0,0,1,120.78,58.84Z"/><path class="iq_cls-4" d="M123.07,56.45c.38.27.41-.09.1-1.22-.38-1.39-.61-1.73-1.11-1.66-.29,0-.36.17-.33.58A5.61,5.61,0,0,0,123.07,56.45Z"/><path class="iq_cls-4" d="M141.46,73.79c0,.07.07-.94-.29-.28s-.7,1.08-2.24,1.08l-1.49-.66,0-4.07c0-6.22,0-6,.83-6.59.26-.16.17-.3-.66-1-.53-.47-1.32-1.25-1.77-1.73s-.89-.83-1-.76-.19,2.94-.19,9.48v9.36l3.43,0,3.43,0,.11-1a12.08,12.08,0,0,0,0-1.76A11.29,11.29,0,0,1,141.46,73.79Z"/><path class="iq_cls-4" d="M131.84,55.52a11.51,11.51,0,0,1-1.57,1.55,5.23,5.23,0,0,0-1.2,1.22c0,.12-.61.59-.37.81l-.14.29.31,8.1,0,7.34v0H127.5V67.69c0-4.4-.06-8-.14-8.1a4.37,4.37,0,0,0-1.26,1.08,14,14,0,0,1-1.68,1.54c-.52.33-.79,1.06-.4,1.06a.9.9,0,0,1,.43.28c.24.25.27,1.06.27,6.22l0,5.16-1.18,0-1.21,0V69.93c0-3.17-.06-5.77-.13-5.77a8.33,8.33,0,0,0-1.26,1.18,13.64,13.64,0,0,1-1.69,1.55c-.63.41-.74,1-.22,1.15s.55.63.49,2l-.05,1.07-.88-.06a3.85,3.85,0,0,0-2.92.88c-.93.84-1.19,1.74-1.28,4.36l-.08,2.3h18.43V66.78C132.71,54,132.73,54.23,131.84,55.52Zm-12.31,19V75.7h-1.21l-.27-.06,0-.46a4.61,4.61,0,0,1,1.14-.76l.37,0Z"/><ellipse class="iq_cls-5" cx="68.11" cy="83.62" rx="1.57" ry="2.25"/><circle class="iq_cls-4" cx="66.22" cy="80.72" r="1.13"/></g></g></svg>
