<svg xmlns="http://www.w3.org/2000/svg" viewBox="0 0 200 134"><defs><style>.kz_cls-1{fill:#28b4c7;}.kz_cls-2{fill:#ffca1d;}.kz_cls-3{fill:#04b0c7;}</style></defs><title>Asset 93</title><g id="Layer_2" data-name="Layer 2"><g id="Layer_7" data-name="Layer 7"><path class="kz_cls-1" d="M8.78,47.46a3.59,3.59,0,0,1,3,2.2,3.59,3.59,0,0,1,3-2.2,3.59,3.59,0,0,1-3-2.2A3.6,3.6,0,0,1,8.78,47.46Z"/><path class="kz_cls-1" d="M9.81,106.05l-.19.06a3.13,3.13,0,0,1,2.18,1.33A3.13,3.13,0,0,1,14,106.11l-.19-.06a2.78,2.78,0,0,1-2-1.32A2.79,2.79,0,0,1,9.81,106.05Z"/><path class="kz_cls-1" d="M13.22,19.53c-.36-.45-1.42.44-1.42.44s-1.06-.89-1.42-.44.78,2.68,1.42,4.25C12.43,22.21,13.65,20.06,13.22,19.53Z"/><path class="kz_cls-1" d="M10.67,96.56a1.11,1.11,0,0,1,.71-1.08A1.86,1.86,0,0,1,9.06,94c.79.27,2,.29,2-.6,0,0-.06-2.37-.07-3A1.76,1.76,0,0,1,9.41,91c-1,0-.85.64-.69,1.2-.5-.18-1-.5-.83-1.26A1.17,1.17,0,0,1,7,90.46a1.48,1.48,0,0,1,.93-.53,1.17,1.17,0,0,1,.83-1.22c-.19.5-.24,1.29.69,1.29.39,0,.66-.3.66-.8A1.61,1.61,0,0,0,8.4,87.8a1.84,1.84,0,0,0-1.91,1.79,3.43,3.43,0,0,0,.35,1.47c1,2.16,4.27,9,5,10.48.69-1.44,3.94-8.32,5-10.48a3.4,3.4,0,0,0,.35-1.47,1.84,1.84,0,0,0-1.91-1.79,1.61,1.61,0,0,0-1.67,1.41c0,.5.27.8.66.8.93,0,.88-.79.69-1.29a1.17,1.17,0,0,1,.83,1.22,1.48,1.48,0,0,1,.93.53,1.17,1.17,0,0,1-.93.51c.19.76-.32,1.08-.83,1.26.16-.56.26-1.2-.69-1.2a1.76,1.76,0,0,1-1.56-.57c0,.6-.08,3-.08,3,0,.89,1.2.87,2,.6a1.86,1.86,0,0,1-2.31,1.44,1.11,1.11,0,0,1,.71,1.08,2.83,2.83,0,0,1-1.12,2A2.83,2.83,0,0,1,10.67,96.56Z"/><path class="kz_cls-1" d="M11.8,26.56a3.14,3.14,0,0,1-2.18,1.33l.19.06a2.79,2.79,0,0,1,2,1.32,2.78,2.78,0,0,1,2-1.32l.19-.06A3.14,3.14,0,0,1,11.8,26.56Z"/><path class="kz_cls-1" d="M6.49,44.41A1.84,1.84,0,0,0,8.4,46.2a1.61,1.61,0,0,0,1.67-1.41c0-.5-.27-.8-.66-.8-.93,0-.88.79-.69,1.29a1.17,1.17,0,0,1-.83-1.22A1.49,1.49,0,0,1,7,43.54,1.17,1.17,0,0,1,7.89,43c-.19-.76.32-1.08.83-1.26-.16.56-.26,1.2.69,1.2a1.76,1.76,0,0,1,1.56.57c0-.6.07-3,.07-3,0-.89-1.2-.87-2-.6a1.86,1.86,0,0,1,2.31-1.44,1.11,1.11,0,0,1-.7-1.08,2.83,2.83,0,0,1,1.13-2,2.83,2.83,0,0,1,1.12,2,1.11,1.11,0,0,1-.71,1.08A1.86,1.86,0,0,1,14.53,40c-.79-.27-2-.29-2,.6,0,0,.06,2.37.08,3A1.76,1.76,0,0,1,14.19,43c1,0,.85-.64.69-1.2.5.18,1,.5.83,1.26a1.17,1.17,0,0,1,.93.51,1.49,1.49,0,0,1-.93.53,1.17,1.17,0,0,1-.83,1.22c.19-.5.24-1.29-.69-1.29-.39,0-.66.3-.66.8a1.61,1.61,0,0,0,1.67,1.41,1.84,1.84,0,0,0,1.91-1.79,3.41,3.41,0,0,0-.35-1.47c-1-2.16-4.27-9-5-10.48-.69,1.44-3.94,8.32-5,10.48A3.43,3.43,0,0,0,6.49,44.41Z"/><path class="kz_cls-1" d="M10.67,57.47a1.11,1.11,0,0,1,.71-1.08A1.85,1.85,0,0,1,9.06,55c.79.27,2,.29,2-.6,0,0-.06-2.37-.07-3a1.76,1.76,0,0,1-1.56.57c-1,0-.85.64-.69,1.2-.5-.18-1-.5-.83-1.26A1.17,1.17,0,0,1,7,51.38a1.49,1.49,0,0,1,.93-.53,1.17,1.17,0,0,1,.83-1.22c-.19.5-.24,1.29.69,1.29.39,0,.66-.3.66-.8A1.61,1.61,0,0,0,8.4,48.72a1.84,1.84,0,0,0-1.91,1.79A3.43,3.43,0,0,0,6.84,52c1,2.16,4.27,9,5,10.48.69-1.44,3.94-8.32,5-10.48a3.41,3.41,0,0,0,.35-1.47,1.84,1.84,0,0,0-1.91-1.79,1.62,1.62,0,0,0-1.67,1.41c0,.5.27.8.66.8.93,0,.88-.79.69-1.29a1.17,1.17,0,0,1,.83,1.22,1.49,1.49,0,0,1,.93.53,1.17,1.17,0,0,1-.93.51c.19.76-.32,1.08-.83,1.26.16-.56.26-1.2-.69-1.2a1.76,1.76,0,0,1-1.56-.57c0,.6-.08,3-.08,3,0,.89,1.2.87,2,.6a1.86,1.86,0,0,1-2.31,1.44,1.11,1.11,0,0,1,.71,1.08,2.83,2.83,0,0,1-1.12,2A2.83,2.83,0,0,1,10.67,57.47Z"/><path class="kz_cls-1" d="M8.78,86.54a3.59,3.59,0,0,1,3,2.2,3.59,3.59,0,0,1,3-2.2,3.59,3.59,0,0,1-3-2.2A3.59,3.59,0,0,1,8.78,86.54Z"/><path class="kz_cls-1" d="M9.81,67l-.11,0,.11,0a2.78,2.78,0,0,1,2,1.32,2.77,2.77,0,0,1,2-1.32l.11,0-.11,0a2.78,2.78,0,0,1-2-1.32A2.78,2.78,0,0,1,9.81,67Z"/><path class="kz_cls-1" d="M10.38,114.47c.36.45,1.42-.44,1.42-.44s1.06.89,1.42.44-.78-2.68-1.42-4.25C11.16,111.79,9.94,113.94,10.38,114.47Z"/><path class="kz_cls-1" d="M6.49,83.5A1.84,1.84,0,0,0,8.4,85.28a1.62,1.62,0,0,0,1.67-1.41.75.75,0,0,0-.38-.73.62.62,0,0,1-.45.28,1.61,1.61,0,0,1-.58.07,1.31,1.31,0,0,0,.05.88,1.17,1.17,0,0,1-.83-1.22A1.49,1.49,0,0,1,7,82.63a1.16,1.16,0,0,1,.93-.51c-.19-.76.32-1.08.83-1.26-.16.56-.26,1.2.69,1.2a1.76,1.76,0,0,1,1.56.57c0-.6.07-3,.07-3,0-.89-1.2-.87-2-.6a1.86,1.86,0,0,1,2.31-1.44,1.11,1.11,0,0,1-.7-1.08,2.83,2.83,0,0,1,1.13-2,2.83,2.83,0,0,1,1.12,2,1.11,1.11,0,0,1-.71,1.08A1.86,1.86,0,0,1,14.53,79c-.79-.27-2-.29-2,.6,0,0,.06,2.37.08,3a1.76,1.76,0,0,1,1.56-.57c1,0,.85-.64.69-1.2.5.18,1,.5.83,1.26a1.17,1.17,0,0,1,.93.51,1.49,1.49,0,0,1-.93.52,1.17,1.17,0,0,1-.83,1.22c.19-.5.24-1.29-.69-1.29-.39,0-.66.3-.66.8a1.62,1.62,0,0,0,1.67,1.41A1.84,1.84,0,0,0,17.1,83.5,3.41,3.41,0,0,0,16.75,82c-1-2.16-4.27-9-5-10.48C11.11,73,7.85,79.86,6.84,82A3.43,3.43,0,0,0,6.49,83.5Z"/><path class="kz_cls-1" d="M183,0H17A17,17,0,0,0,0,17V117a17,17,0,0,0,17,17H183a17,17,0,0,0,17-17V17A17,17,0,0,0,183,0ZM110.66,72.77A14.44,14.44,0,1,1,125.1,58.33,14.44,14.44,0,0,1,110.66,72.77Zm4.42,7.65A42.75,42.75,0,0,1,113,75.8a1.18,1.18,0,1,1,2.32-.46A42.51,42.51,0,0,1,115.08,80.42Zm-3.22-4.51a42.67,42.67,0,0,1-1.18,4.95,42.6,42.6,0,0,1-1.18-4.95,1.18,1.18,0,1,1,2.36,0Zm-3.46-.11a42.41,42.41,0,0,1-2.12,4.62,42.58,42.58,0,0,1-.19-5.08,1.18,1.18,0,1,1,2.31.46ZM94,64a1.18,1.18,0,1,1,.9,2.18,42.51,42.51,0,0,1-5,.8A42.58,42.58,0,0,1,94,64Zm-5.4-1.25a42.56,42.56,0,0,1,4.62-2.12,1.18,1.18,0,1,1,.46,2.32A42.75,42.75,0,0,1,88.57,62.71Zm6.82,4.4a1.18,1.18,0,1,1,1.31,2,42.63,42.63,0,0,1-4.77,1.77A42.43,42.43,0,0,1,95.39,67.1Zm2,2.81a1.18,1.18,0,1,1,1.67,1.67,42.85,42.85,0,0,1-4.33,2.66A42.46,42.46,0,0,1,97.4,69.92Zm2.52,2.37a1.18,1.18,0,1,1,2,1.31,43,43,0,0,1-3.73,3.46A43,43,0,0,1,99.92,72.28Zm2.93,1.83A1.18,1.18,0,1,1,105,75a43,43,0,0,1-3,4.12A42.64,42.64,0,0,1,102.85,74.11Zm14.1-.65a1.08,1.08,0,0,1,1.55.65,42.72,42.72,0,0,1,.8,5,42.68,42.68,0,0,1-3-4.12A1.08,1.08,0,0,1,117,73.47Zm2.84-1.52a1.08,1.08,0,0,1,1.64.33,42.68,42.68,0,0,1,1.77,4.77,42.61,42.61,0,0,1-3.73-3.46A1.08,1.08,0,0,1,119.79,71.95Zm2.5-.36A1.18,1.18,0,1,1,124,69.92a42.48,42.48,0,0,1,2.66,4.33A42.64,42.64,0,0,1,122.29,71.59Zm2.37-2.52a1.18,1.18,0,1,1,1.31-2,42.51,42.51,0,0,1,3.46,3.73A42.79,42.79,0,0,1,124.65,69.07Zm1.83-2.93a1.18,1.18,0,1,1,.9-2.18,42.57,42.57,0,0,1,4.12,3A42.53,42.53,0,0,1,126.48,66.13Zm1.22-3.23a1.18,1.18,0,1,1,.46-2.32,42.56,42.56,0,0,1,4.62,2.12A42.76,42.76,0,0,1,127.7,62.9Zm.57-3.41a1.18,1.18,0,1,1,0-2.36,42.56,42.56,0,0,1,4.95,1.18A42.59,42.59,0,0,1,128.27,59.49ZM128.16,56a1.18,1.18,0,1,1-.46-2.31,42.6,42.6,0,0,1,5.08.19A42.75,42.75,0,0,1,128.16,56Zm-.78-3.37a1.18,1.18,0,1,1-.9-2.18,42.68,42.68,0,0,1,5-.8A42.73,42.73,0,0,1,127.38,52.67ZM126,49.52a1.18,1.18,0,1,1-1.31-2,42.81,42.81,0,0,1,4.77-1.77A42.64,42.64,0,0,1,126,49.52Zm-2-2.81A1.18,1.18,0,1,1,122.29,45a42.42,42.42,0,0,1,4.33-2.66A42.49,42.49,0,0,1,124,46.7Zm-.75-7.13a42.61,42.61,0,0,1-1.77,4.77,1.18,1.18,0,1,1-2-1.31A42.59,42.59,0,0,1,123.2,39.57Zm-6.88,2a42.6,42.6,0,0,1,3-4.12,42.73,42.73,0,0,1-.8,5,1.18,1.18,0,1,1-2.18-.9ZM113,40.83a42.75,42.75,0,0,1,2.12-4.62,42.5,42.5,0,0,1,.19,5.08,1.18,1.18,0,1,1-2.32-.46Zm-2.27-5.05a42.66,42.66,0,0,1,1.18,4.95,1.18,1.18,0,1,1-2.36,0A42.6,42.6,0,0,1,110.68,35.77Zm-4.4.43a42.41,42.41,0,0,1,2.12,4.62,1.18,1.18,0,1,1-2.31.46A42.57,42.57,0,0,1,106.28,36.2ZM105,41.6a1.18,1.18,0,1,1-2.18.9,42.65,42.65,0,0,1-.8-5A42.93,42.93,0,0,1,105,41.6ZM101.89,43a1.18,1.18,0,1,1-2,1.31,42.94,42.94,0,0,1-1.77-4.77A43,43,0,0,1,101.89,43Zm-2.81,2A1.18,1.18,0,1,1,97.4,46.7a42.47,42.47,0,0,1-2.66-4.33A42.63,42.63,0,0,1,99.07,45ZM96.7,47.55a1.18,1.18,0,1,1-1.31,2,42.56,42.56,0,0,1-3.46-3.73A42.65,42.65,0,0,1,96.7,47.55Zm-1.83,2.93a1.18,1.18,0,1,1-.9,2.18,42.74,42.74,0,0,1-4.12-3A42.66,42.66,0,0,1,94.87,50.49Zm-1.22,3.23A1.18,1.18,0,1,1,93.19,56a42.75,42.75,0,0,1-4.62-2.12A42.59,42.59,0,0,1,93.65,53.72Zm-.57,3.41a1.18,1.18,0,1,1,0,2.36,42.69,42.69,0,0,1-4.95-1.18A42.66,42.66,0,0,1,93.08,57.13ZM18.42,50.36a5,5,0,0,1-.61,2.43s-3.51,7.28-4.87,10.09a3,3,0,0,0-.23,1.34,1.78,1.78,0,0,0,3.56,0c0-1.11-.58-1.61-1.17-1.61s-1,.3-1,.81c0,.36.17.51.42.51.63,0,.45-.84.45-.84a.57.57,0,0,1,.42.78,1.14,1.14,0,0,1,.61.36,1.15,1.15,0,0,1-.61.33.56.56,0,0,1-.47.82.86.86,0,0,0,.06-.52,1.28,1.28,0,0,1-1.69-1.26,1.81,1.81,0,0,1,2.28-1.86,1.06,1.06,0,0,1-.57-.9,2.07,2.07,0,0,0,.57.12,1.9,1.9,0,0,1-.4-1.17c.28.13.53.36.88.21-.55-1.09.13-2.59,1.86-2.94a3.6,3.6,0,0,0-.95,2.34c0,2.59.72,3,.72,4.82a2.65,2.65,0,0,1-1.13,2.1,1.54,1.54,0,0,1,1,.72,1.53,1.53,0,0,1-1,.71,2.65,2.65,0,0,1,1.13,2.1c0,1.8-.72,2.23-.72,4.82A3.6,3.6,0,0,0,17.89,77C16.16,76.62,15.48,75.12,16,74c-.35-.15-.61.09-.88.21a1.9,1.9,0,0,1,.4-1.17,2.07,2.07,0,0,0-.57.12,1.06,1.06,0,0,1,.57-.9,1.81,1.81,0,0,1-2.28-1.86A1.28,1.28,0,0,1,15,69.17a.86.86,0,0,0-.06-.52.56.56,0,0,1,.47.82,1.14,1.14,0,0,1,.61.33,1.14,1.14,0,0,1-.61.36.57.57,0,0,1-.42.78s.18-.84-.45-.84c-.25,0-.42.15-.42.51,0,.51.29.81,1,.81s1.17-.5,1.17-1.61a1.78,1.78,0,0,0-3.56,0,3,3,0,0,0,.23,1.34c1.37,2.82,4.87,10.09,4.87,10.09a5,5,0,0,1,.61,2.43,2.82,2.82,0,0,1-2.86,2.9,2.82,2.82,0,0,1,2.86,2.9,4.94,4.94,0,0,1-.61,2.43S14.3,99.15,12.94,102a3,3,0,0,0-.23,1.34,1.78,1.78,0,0,0,3.56,0c0-1.11-.58-1.61-1.17-1.61s-1,.3-1,.81c0,.36.17.51.42.51.63,0,.45-.84.45-.84a.57.57,0,0,1,.42.78,1.14,1.14,0,0,1,.61.36,1.15,1.15,0,0,1-.61.33.56.56,0,0,1-.47.82.86.86,0,0,0,.06-.52,1.28,1.28,0,0,1-1.69-1.26,1.81,1.81,0,0,1,2.28-1.86,1.06,1.06,0,0,1-.57-.9,2,2,0,0,0,.57.12,1.91,1.91,0,0,1-.4-1.17c.28.13.53.36.88.21-.55-1.09.13-2.59,1.86-2.94a3.6,3.6,0,0,0-.95,2.34c0,2.59.72,3,.72,4.82a2.65,2.65,0,0,1-1.13,2.1,1.53,1.53,0,0,1,1,.72,1.3,1.3,0,0,1-1.17.65A2.46,2.46,0,0,1,17.69,109c0,1.78-.73,2.51-.73,4.51a5.91,5.91,0,0,0,.91,2.53,2.16,2.16,0,0,1-2-2.85.79.79,0,0,0-.69.21,1.19,1.19,0,0,1,.32-1c-.2-.11-.35,0-.67,0a1.46,1.46,0,0,1,.74-1,1.76,1.76,0,0,1-2.35-1.69,1.28,1.28,0,0,1,1.11-1.37,1.11,1.11,0,0,1,.58.18.9.9,0,0,0-.05-.73c.4.11.66.34.47.84a1,1,0,0,1,.72.33.86.86,0,0,1-.72.33c.22.46,0,.72-.39.93,0,0,.23-.93-.36-.93-.27,0-.51.09-.51.48a.85.85,0,0,0,1,.78c.69,0,1.25-.47,1.25-1.58s-.82-1.52-1.9-1.55a1.48,1.48,0,0,0-1.71,1.5c0,1.34,1.93,4.38,1.93,5.57a1.48,1.48,0,0,1-1.59,1.39,2.28,2.28,0,0,1-1.28-.48,2.28,2.28,0,0,1-1.28.48,1.47,1.47,0,0,1-1.59-1.39c0-1.19,1.93-4.23,1.93-5.57a1.48,1.48,0,0,0-1.71-1.5c-1.08,0-1.9.54-1.9,1.55s.56,1.55,1.25,1.58a.85.85,0,0,0,1-.78c0-.39-.24-.48-.51-.48-.59,0-.36.93-.36.93-.36-.21-.61-.47-.39-.93a.86.86,0,0,1-.72-.33,1,1,0,0,1,.72-.33c-.18-.5.07-.73.48-.84a.9.9,0,0,0-.06.73,1.12,1.12,0,0,1,.58-.18,1.28,1.28,0,0,1,1.11,1.37A1.75,1.75,0,0,1,8,111.31a1.45,1.45,0,0,1,.73,1c-.32-.07-.47-.13-.67,0a1.19,1.19,0,0,1,.32,1,.79.79,0,0,0-.69-.21,2.16,2.16,0,0,1-2,2.85,5.91,5.91,0,0,0,.91-2.53c0-2-.73-2.74-.73-4.51a2.46,2.46,0,0,1,1.33-2.23,1.3,1.3,0,0,1-1.17-.65,1.53,1.53,0,0,1,1-.72,2.65,2.65,0,0,1-1.13-2.1c0-1.8.72-2.23.72-4.82a3.6,3.6,0,0,0-.95-2.34c1.73.36,2.42,1.85,1.86,2.94.35.15.61-.09.89-.21A1.93,1.93,0,0,1,8,100a2,2,0,0,0,.57-.12,1.05,1.05,0,0,1-.57.9,1.81,1.81,0,0,1,2.28,1.86,1.28,1.28,0,0,1-1.69,1.26.83.83,0,0,0,.06.52.56.56,0,0,1-.47-.82,1.15,1.15,0,0,1-.61-.33,1.13,1.13,0,0,1,.61-.36.58.58,0,0,1,.42-.78s-.18.84.45.84c.25,0,.42-.15.42-.51,0-.51-.29-.81-1-.81s-1.17.5-1.17,1.61a1.78,1.78,0,0,0,3.56,0,3,3,0,0,0-.22-1.34C9.29,99.15,5.78,91.87,5.78,91.87a4.92,4.92,0,0,1-.61-2.43A2.82,2.82,0,0,1,8,86.54a2.82,2.82,0,0,1-2.86-2.9,4.92,4.92,0,0,1,.61-2.43s3.51-7.28,4.87-10.09a3,3,0,0,0,.22-1.34,1.78,1.78,0,0,0-3.56,0c0,1.11.58,1.61,1.17,1.61s1-.3,1-.81c0-.36-.17-.51-.42-.51-.62,0-.45.84-.45.84a.58.58,0,0,1-.42-.78,1.14,1.14,0,0,1-.61-.36,1.14,1.14,0,0,1,.61-.33.56.56,0,0,1,.47-.82.83.83,0,0,0-.06.52,1.28,1.28,0,0,1,1.69,1.26A1.81,1.81,0,0,1,8,72.29a1.06,1.06,0,0,1,.57.9A2.06,2.06,0,0,0,8,73.07a1.93,1.93,0,0,1,.4,1.17c-.28-.12-.53-.36-.89-.21.55,1.09-.13,2.59-1.86,2.94a3.59,3.59,0,0,0,.95-2.34c0-2.59-.72-3-.72-4.82a2.66,2.66,0,0,1,1.13-2.1,1.53,1.53,0,0,1-1-.71,1.54,1.54,0,0,1,1-.72,2.65,2.65,0,0,1-1.13-2.1c0-1.8.72-2.23.72-4.82A3.59,3.59,0,0,0,5.7,57c1.73.35,2.42,1.85,1.86,2.94.35.15.61-.08.89-.21A1.93,1.93,0,0,1,8,60.93a2.06,2.06,0,0,0,.57-.12,1.06,1.06,0,0,1-.57.9,1.81,1.81,0,0,1,2.28,1.86,1.28,1.28,0,0,1-1.69,1.26.83.83,0,0,0,.06.52.56.56,0,0,1-.47-.82,1.15,1.15,0,0,1-.61-.33,1.13,1.13,0,0,1,.61-.36.58.58,0,0,1,.42-.78s-.18.84.45.84c.25,0,.42-.15.42-.51,0-.51-.29-.81-1-.81s-1.17.5-1.17,1.61a1.78,1.78,0,0,0,3.56,0,3,3,0,0,0-.22-1.34C9.29,60.07,5.78,52.79,5.78,52.79a4.93,4.93,0,0,1-.61-2.43A2.82,2.82,0,0,1,8,47.46a2.82,2.82,0,0,1-2.86-2.9,4.92,4.92,0,0,1,.61-2.43S9.29,34.85,10.66,32a3,3,0,0,0,.22-1.34,1.78,1.78,0,0,0-3.56,0c0,1.11.58,1.61,1.17,1.61s1-.3,1-.81c0-.36-.17-.51-.42-.51-.62,0-.45.84-.45.84a.58.58,0,0,1-.42-.78,1.12,1.12,0,0,1-.61-.36,1.15,1.15,0,0,1,.61-.33.56.56,0,0,1,.47-.82.83.83,0,0,0-.06.52,1.28,1.28,0,0,1,1.69,1.26A1.81,1.81,0,0,1,8,33.21a1.06,1.06,0,0,1,.57.9A2.1,2.1,0,0,0,8,34a1.93,1.93,0,0,1,.4,1.17c-.28-.13-.53-.36-.89-.21.55,1.09-.13,2.59-1.86,2.94a3.6,3.6,0,0,0,.95-2.34c0-2.59-.72-3-.72-4.82a2.65,2.65,0,0,1,1.13-2.1,1.53,1.53,0,0,1-1-.71,1.3,1.3,0,0,1,1.17-.65A2.46,2.46,0,0,1,5.9,25c0-1.78.73-2.51.73-4.51A5.91,5.91,0,0,0,5.72,18a2.16,2.16,0,0,1,2,2.84.79.79,0,0,0,.69-.21,1.19,1.19,0,0,1-.32,1c.2.11.35,0,.67,0a1.45,1.45,0,0,1-.73,1,1.75,1.75,0,0,1,2.34,1.69,1.28,1.28,0,0,1-1.11,1.37,1.12,1.12,0,0,1-.58-.18.9.9,0,0,0,.06.73c-.4-.11-.66-.34-.48-.84a1,1,0,0,1-.72-.33.86.86,0,0,1,.72-.33c-.22-.46,0-.72.39-.93,0,0-.23.93.36.93.27,0,.51-.09.51-.48a.85.85,0,0,0-1-.78c-.69,0-1.25.47-1.25,1.58s.82,1.52,1.9,1.55a1.48,1.48,0,0,0,1.71-1.5c0-1.33-1.93-4.38-1.93-5.57a1.48,1.48,0,0,1,1.59-1.39,2.28,2.28,0,0,1,1.28.48,2.28,2.28,0,0,1,1.28-.48,1.48,1.48,0,0,1,1.59,1.39c0,1.19-1.93,4.24-1.93,5.57a1.48,1.48,0,0,0,1.71,1.5c1.08,0,1.9-.54,1.9-1.55s-.56-1.55-1.25-1.58a.85.85,0,0,0-1,.78c0,.39.24.48.51.48.59,0,.36-.93.36-.93.37.21.62.47.39.93a.85.85,0,0,1,.72.33,1,1,0,0,1-.72.33c.18.5-.07.73-.47.84a.9.9,0,0,0,.05-.73,1.11,1.11,0,0,1-.58.18,1.28,1.28,0,0,1-1.11-1.37,1.76,1.76,0,0,1,2.35-1.69,1.45,1.45,0,0,1-.74-1c.32.07.47.13.67,0a1.19,1.19,0,0,1-.32-1,.79.79,0,0,0,.69.21,2.16,2.16,0,0,1,2-2.84A5.91,5.91,0,0,0,17,20.52c0,2,.73,2.73.73,4.51a2.46,2.46,0,0,1-1.33,2.23,1.3,1.3,0,0,1,1.17.65,1.53,1.53,0,0,1-1,.71,2.65,2.65,0,0,1,1.13,2.1c0,1.8-.72,2.23-.72,4.82a3.6,3.6,0,0,0,.95,2.34C16.16,37.54,15.48,36,16,34.95c-.35-.15-.61.08-.88.21a1.91,1.91,0,0,1,.4-1.17,2.11,2.11,0,0,0-.57.12,1.06,1.06,0,0,1,.57-.9,1.81,1.81,0,0,1-2.28-1.86A1.28,1.28,0,0,1,15,30.08a.86.86,0,0,0-.06-.52.56.56,0,0,1,.47.82,1.15,1.15,0,0,1,.61.33,1.13,1.13,0,0,1-.61.36.57.57,0,0,1-.42.78s.18-.84-.45-.84c-.25,0-.42.16-.42.51,0,.51.29.81,1,.81s1.17-.5,1.17-1.61a1.78,1.78,0,0,0-3.56,0A3,3,0,0,0,12.94,32c1.37,2.81,4.87,10.09,4.87,10.09a4.94,4.94,0,0,1,.61,2.43,2.83,2.83,0,0,1-2.86,2.9A2.82,2.82,0,0,1,18.42,50.36ZM96,90a29.17,29.17,0,0,1-7.87-2.89c-2.12-1.06.61-.72,0-1.11s-3-.27-3.06-.82,1.48-.4,1.44-.75S84.1,84,83.93,83.22c-.1-.45,2.3,0,1.87-.57s-3.31-.29-3.46-1.49c-.08-.61,2.68.19,2.4-.3-.38-.65-.8-.41-2.12-1.17s-3.53-2.5-3.42-3.36c.13-1.06,4.46,2,3.51.9-.32-.37-6.49-5.22-5.57-6.55.41-.59,5.27,4.92,5.42,3.82,0-.35-6.55-8.55-5.24-11.08.34-.67,4.62,8.37,5.38,7.47.21-.25-3.52-8.59-2.85-9.65.5-.79,3.23,6.54,3.6,7,.2.27-.33-3.64-.15-4.91.08-.53.67-.31.67-.31a26.54,26.54,0,0,0,26.47,24s.26.27,0,.46c-.07.06-.29-.26-.51.07a5.69,5.69,0,0,1-1.73,1.56s-.44-1.11-2.54-1.55c-3.92-.81-5.24-.33-5.53-.57a34.15,34.15,0,0,0-4.79-3.8c-1.95-1.21-2-.21-2.82-.92-1.8-1.5-2.34-3.59-4.24-5.8a14.33,14.33,0,0,0-3.38-3l-.17.35s-1.25-.43-1.16.21c.29,2,1.2,1.54,1.16,2.22,0,.43-1.5-.17-1.25.52.37,1,2.11,1.76,2.42,2.19.47.64-1.33-.12-1,.54s2.25,1.16,2.95,1.56-.74.28-.66.58,1.26.69,1.23.91-1.19.24-.87.69,2.14.88,2.17,1.13-.94.27-.61.69c.52.65,1.85.13,2.2.59s-1.31.93-.9,1.17a25.69,25.69,0,0,0,6.79,2.67c2.36.43,4.05,0,3.93.25S99.37,90.67,96,90Zm30,4.27s.18,1.08-.51,1.42a3.71,3.71,0,0,1-2.46-.12s-.36.77-.92,1a1.44,1.44,0,0,1-1.16-.33,3.62,3.62,0,0,1-1.34.91,2.39,2.39,0,0,1-1.42-.11,3,3,0,0,1-1.31.76,1.35,1.35,0,0,1-1.05-.47s-1,.83-1.64.8-.8-.77-.8-.77a2.88,2.88,0,0,1-1.19.49,3.44,3.44,0,0,1-1.49-.3,5.05,5.05,0,0,1-1.56.33.7.7,0,0,1-.65-.51,2.91,2.91,0,0,1-1.38.54c-.6,0-1.08-.26-.95-.73s.58-.59,1.23-1.16,1.38-1.13,1.38-1.13a14.5,14.5,0,0,0,8.69-1.31l1.45.07c.12-.24-.05-.49.29-.58a1.24,1.24,0,0,0,.8-1.23s-.07-.43.47-.33c2.88.54,9.39.45,9.41.73C130.09,94.88,126,94.29,126,94.29Zm17.61-23c1,1.23-5.34,6.28-5.46,6.76-.34,1.35,3.64-2.17,3.78-1.12.11.87-1.87,2.37-3.12,3.24-.8.56-1.6.78-1.71,1-.26.5,1.73-.24,1.68.37-.08,1-2.46,1.14-2.89,1.68s1.37.23,1.27.67c-.17.79-3.15.78-3.19,1.11s1.44.16,1.34.8-2.58.36-3.16.75,3,.45.15,1.36a31.64,31.64,0,0,1-5,1.27c-3.7.64-5.45.66-5.57.45s2.66-.57,3.16-.7a18.16,18.16,0,0,0,2.37-.63,6.33,6.33,0,0,1,2.35-1c.66-.12-.32-.74-.19-1,.21-.53.62.12,1.14-.53.33-.42,0-.68,0-.94s1.51-.31,1.88-.72c.21-.24-.23-.26-.27-.58s1.77-.88,1.85-1.18-.78-.36-.37-.63c.68-.43,2.41-1.11,2.77-1.78s-1.37.2-.9-.44c.31-.43,1.42-1.06,1.74-2.08.12-.4-1.25.22-1.27-.21,0-.68.77-1.62.85-2.6.05-.65-1,.12-1,.12l-.26-.49s-1.12.17-3,2.38-2.49,4.36-4.29,5.87c-2.26.89-4.54,1.17-7.65,4.62-.28.25-1.64,0-5.56.79a22.94,22.94,0,0,0-3.27.88,47.74,47.74,0,0,0-6,3.17c-.12.09,0,.28.29.25a3.5,3.5,0,0,0,.89-.37h1a15.76,15.76,0,0,0-1.26,1.48.31.31,0,0,0,.29.34c2,.12,4.74,0,6.85.14.51,0,1.32-.21,1.43.12a3,3,0,0,1-1.81.64c-3,.09-10,.1-10,.1a1.6,1.6,0,0,1-.74.35c-.35,0-.35-.41-.64-.27s-.28,1-.54.84a1.4,1.4,0,0,1-.35-1.37,7.55,7.55,0,0,1,2.57-2.43c1.26-.7,2.71-1,3.66-1.49,2.81-1.59,3.63-2.8,6.2-3.16,9.9-1.42,22.33-11,23.16-23.94,0,0,.59-.22.67.31.18,1.27-.22,5.42,0,5.15s1.08-2.26,1.9-4.09,1.57-3.48,1.94-3c.76,1-4,10.93-3.82,11.17.75.89,6.13-9.42,6.47-8.75,1.3,2.53-5.84,10.61-5.79,11C138.37,75.9,142.92,70.47,143.63,71.3Z"/><path class="kz_cls-2" d="M14.81,86.54a3.59,3.59,0,0,0-3,2.2A3.21,3.21,0,0,1,12,89.89l-.22,8.7a2.83,2.83,0,0,0,1.12-2,1.11,1.11,0,0,0-.71-1.08A1.86,1.86,0,0,0,14.53,94c-.79.27-2,.29-2-.6,0,0,.06-2.37.08-3a1.76,1.76,0,0,0,1.56.57c1,0,.85.64.69,1.2.5-.18,1-.5.83-1.26a1.17,1.17,0,0,0,.93-.51,1.48,1.48,0,0,0-.93-.53,1.17,1.17,0,0,0-.83-1.22c.19.5.24,1.29-.69,1.29-.39,0-.66-.3-.66-.8a1.61,1.61,0,0,1,1.67-1.41,1.84,1.84,0,0,1,1.91,1.79,3.4,3.4,0,0,1-.35,1.47c-1,2.16-4.27,9-5,10.48a4,4,0,0,1,0,3.18,2.78,2.78,0,0,0,2,1.32l.19.06.55-.11a12.13,12.13,0,0,1,3,.08,1.53,1.53,0,0,0-1-.72,2.65,2.65,0,0,0,1.13-2.1c0-1.8-.72-2.23-.72-4.82a3.6,3.6,0,0,1,.95-2.34c-1.74.36-2.42,1.85-1.86,2.94-.35.15-.61-.09-.88-.21a1.91,1.91,0,0,0,.4,1.17,2,2,0,0,1-.57-.12,1.06,1.06,0,0,0,.57.9,1.81,1.81,0,0,0-2.28,1.86A1.28,1.28,0,0,0,15,103.92a.86.86,0,0,1-.06.52.56.56,0,0,0,.47-.82,1.15,1.15,0,0,0,.61-.33,1.14,1.14,0,0,0-.61-.36.57.57,0,0,0-.42-.78s.18.84-.45.84c-.25,0-.42-.15-.42-.51,0-.51.29-.81,1-.81s1.17.5,1.17,1.61a1.78,1.78,0,0,1-3.56,0,3,3,0,0,1,.23-1.34c1.37-2.82,4.87-10.09,4.87-10.09a4.94,4.94,0,0,0,.61-2.43,2.82,2.82,0,0,0-2.86-2.9c-.13,0-.26,0-.4,0Z"/><path class="kz_cls-2" d="M9.07,106l.55.11.19-.06a2.79,2.79,0,0,0,2-1.32,4,4,0,0,0,0-3.18c-.69-1.44-3.94-8.32-5-10.48a3.43,3.43,0,0,1-.35-1.47A1.84,1.84,0,0,1,8.4,87.8a1.61,1.61,0,0,1,1.67,1.41c0,.5-.27.8-.66.8-.93,0-.88-.79-.69-1.29a1.17,1.17,0,0,0-.83,1.22,1.48,1.48,0,0,0-.93.53,1.17,1.17,0,0,0,.93.51c-.19.76.32,1.08.83,1.26-.16-.56-.26-1.2.69-1.2A1.76,1.76,0,0,0,11,90.46c0,.6.07,3,.07,3,0,.89-1.2.87-2,.6a1.86,1.86,0,0,0,2.31,1.44,1.11,1.11,0,0,0-.7,1.08,2.83,2.83,0,0,0,1.13,2l.22-8.7a3.21,3.21,0,0,0-.22-1.15,3.59,3.59,0,0,0-3-2.2l-.35,0c-.14,0-.27,0-.4,0a2.82,2.82,0,0,0-2.86,2.9,4.92,4.92,0,0,0,.61,2.43S9.29,99.15,10.66,102a3,3,0,0,1,.22,1.34,1.78,1.78,0,0,1-3.56,0c0-1.11.58-1.61,1.17-1.61s1,.3,1,.81c0,.36-.17.51-.42.51-.62,0-.45-.84-.45-.84a.58.58,0,0,0-.42.78,1.13,1.13,0,0,0-.61.36,1.15,1.15,0,0,0,.61.33.56.56,0,0,0,.47.82.83.83,0,0,1-.06-.52,1.28,1.28,0,0,0,1.69-1.26A1.81,1.81,0,0,0,8,100.8a1.05,1.05,0,0,0,.57-.9A2,2,0,0,1,8,100a1.93,1.93,0,0,0,.4-1.17c-.28.13-.53.36-.89.21.55-1.09-.13-2.59-1.86-2.94a3.6,3.6,0,0,1,.95,2.34c0,2.59-.72,3-.72,4.82a2.65,2.65,0,0,0,1.13,2.1,1.53,1.53,0,0,0-1,.72A12.13,12.13,0,0,1,9.07,106Z"/><path class="kz_cls-2" d="M14.52,106l-.55.11a3.13,3.13,0,0,0-2.18,1.33,2.86,2.86,0,0,1,.36,1.48,4,4,0,0,1-.36,1.3c.64,1.57,1.86,3.71,1.42,4.25S11.8,114,11.8,114l.6.75a3.77,3.77,0,0,1-.6.53,2.28,2.28,0,0,0,1.28.48,1.48,1.48,0,0,0,1.59-1.39c0-1.19-1.93-4.23-1.93-5.57a1.48,1.48,0,0,1,1.71-1.5c1.08,0,1.9.54,1.9,1.55s-.56,1.55-1.25,1.58a.85.85,0,0,1-1-.78c0-.39.24-.48.51-.48.59,0,.36.93.36.93.37-.21.62-.47.39-.93a.86.86,0,0,0,.72-.33,1,1,0,0,0-.72-.33c.18-.5-.07-.73-.47-.84a.9.9,0,0,1,.05.73,1.11,1.11,0,0,0-.58-.18,1.28,1.28,0,0,0-1.11,1.37,1.76,1.76,0,0,0,2.35,1.69,1.46,1.46,0,0,0-.74,1c.32-.07.47-.13.67,0a1.19,1.19,0,0,0-.32,1,.79.79,0,0,1,.69-.21,2.16,2.16,0,0,0,2,2.85,5.91,5.91,0,0,1-.91-2.53c0-2,.73-2.74.73-4.51a2.46,2.46,0,0,0-1.33-2.23,1.3,1.3,0,0,0,1.17-.65A12.13,12.13,0,0,0,14.52,106Z"/><path class="kz_cls-2" d="M12.4,114.78l-.6-.75s-1.06.89-1.42.44.78-2.68,1.42-4.25a4,4,0,0,0,.36-1.3,2.86,2.86,0,0,0-.36-1.48,3.13,3.13,0,0,0-2.18-1.33L9.07,106a12.13,12.13,0,0,0-3,.08,1.3,1.3,0,0,0,1.17.65A2.46,2.46,0,0,0,5.9,109c0,1.78.73,2.51.73,4.51A5.91,5.91,0,0,1,5.72,116a2.16,2.16,0,0,0,2-2.85.79.79,0,0,1,.69.21,1.19,1.19,0,0,0-.32-1c.2-.11.35,0,.67,0a1.45,1.45,0,0,0-.73-1,1.75,1.75,0,0,0,2.34-1.69,1.28,1.28,0,0,0-1.11-1.37,1.12,1.12,0,0,0-.58.18.9.9,0,0,1,.06-.73c-.4.11-.66.34-.48.84a1,1,0,0,0-.72.33.86.86,0,0,0,.72.33c-.22.46,0,.72.39.93,0,0-.23-.93.36-.93.27,0,.51.09.51.48a.85.85,0,0,1-1,.78c-.69,0-1.25-.47-1.25-1.58s.82-1.52,1.9-1.55a1.48,1.48,0,0,1,1.71,1.5c0,1.34-1.93,4.38-1.93,5.57a1.47,1.47,0,0,0,1.59,1.39,2.28,2.28,0,0,0,1.28-.48A3.77,3.77,0,0,0,12.4,114.78Z"/><path class="kz_cls-2" d="M14.81,47.46a3.59,3.59,0,0,0-3,2.2A3.21,3.21,0,0,1,12,50.81l-.22,8.71a2.83,2.83,0,0,0,1.12-2,1.11,1.11,0,0,0-.71-1.08A1.86,1.86,0,0,0,14.53,55c-.79.27-2,.29-2-.6,0,0,.06-2.37.08-3a1.76,1.76,0,0,0,1.56.57c1,0,.85.64.69,1.2.5-.18,1-.5.83-1.26a1.17,1.17,0,0,0,.93-.51,1.49,1.49,0,0,0-.93-.53,1.17,1.17,0,0,0-.83-1.22c.19.5.24,1.29-.69,1.29-.39,0-.66-.3-.66-.8a1.62,1.62,0,0,1,1.67-1.41,1.84,1.84,0,0,1,1.91,1.79A3.41,3.41,0,0,1,16.75,52c-1,2.16-4.27,9-5,10.48a4,4,0,0,1,0,3.18,2.78,2.78,0,0,0,2,1.32l.11,0a7.09,7.09,0,0,1,3.65,0,1.54,1.54,0,0,0-1-.72,2.65,2.65,0,0,0,1.13-2.1c0-1.8-.72-2.23-.72-4.82A3.6,3.6,0,0,1,17.89,57c-1.74.35-2.42,1.85-1.86,2.94-.35.15-.61-.08-.88-.21a1.9,1.9,0,0,0,.4,1.17,2.07,2.07,0,0,1-.57-.12,1.06,1.06,0,0,0,.57.9,1.81,1.81,0,0,0-2.28,1.86A1.28,1.28,0,0,0,15,64.84a.86.86,0,0,1-.06.52.56.56,0,0,0,.47-.82A1.15,1.15,0,0,0,16,64.2a1.14,1.14,0,0,0-.61-.36.57.57,0,0,0-.42-.78s.18.84-.45.84c-.25,0-.42-.15-.42-.51,0-.51.29-.81,1-.81s1.17.5,1.17,1.61a1.78,1.78,0,0,1-3.56,0,3,3,0,0,1,.23-1.34c1.37-2.81,4.87-10.09,4.87-10.09a5,5,0,0,0,.61-2.43,2.82,2.82,0,0,0-2.86-2.9c-.13,0-.26,0-.4,0Z"/><path class="kz_cls-2" d="M9.71,67l.11,0a2.78,2.78,0,0,0,2-1.32,4,4,0,0,0,0-3.18C11.11,61,7.85,54.14,6.84,52a3.43,3.43,0,0,1-.35-1.47A1.84,1.84,0,0,1,8.4,48.72a1.61,1.61,0,0,1,1.67,1.41c0,.5-.27.8-.66.8-.93,0-.88-.79-.69-1.29a1.17,1.17,0,0,0-.83,1.22,1.49,1.49,0,0,0-.93.53,1.17,1.17,0,0,0,.93.51c-.19.76.32,1.08.83,1.26-.16-.56-.26-1.2.69-1.2A1.76,1.76,0,0,0,11,51.38c0,.6.07,3,.07,3,0,.89-1.2.87-2,.6a1.85,1.85,0,0,0,2.31,1.44,1.11,1.11,0,0,0-.7,1.08,2.83,2.83,0,0,0,1.13,2L12,50.81a3.21,3.21,0,0,0-.22-1.15,3.59,3.59,0,0,0-3-2.2l-.35,0c-.14,0-.27,0-.4,0a2.82,2.82,0,0,0-2.86,2.9,4.93,4.93,0,0,0,.61,2.43s3.51,7.28,4.87,10.09a3,3,0,0,1,.22,1.34,1.78,1.78,0,0,1-3.56,0c0-1.11.58-1.61,1.17-1.61s1,.3,1,.81c0,.36-.17.51-.42.51-.62,0-.45-.84-.45-.84a.58.58,0,0,0-.42.78,1.13,1.13,0,0,0-.61.36,1.15,1.15,0,0,0,.61.33.56.56,0,0,0,.47.82.83.83,0,0,1-.06-.52,1.28,1.28,0,0,0,1.69-1.26A1.81,1.81,0,0,0,8,61.71a1.06,1.06,0,0,0,.57-.9,2.06,2.06,0,0,1-.57.12,1.93,1.93,0,0,0,.4-1.17c-.28.13-.53.36-.89.21.55-1.09-.13-2.59-1.86-2.94a3.59,3.59,0,0,1,.95,2.34c0,2.59-.72,3-.72,4.82a2.65,2.65,0,0,0,1.13,2.1,1.54,1.54,0,0,0-1,.72A7.1,7.1,0,0,1,9.71,67Z"/><path class="kz_cls-2" d="M8.78,47.46a3.6,3.6,0,0,0,3-2.2,3.21,3.21,0,0,1-.22-1.15l.22-8.71a2.83,2.83,0,0,0-1.13,2,1.11,1.11,0,0,0,.71,1.08A1.86,1.86,0,0,0,9.06,40c.79-.27,2-.29,2,.6,0,0-.06,2.37-.07,3A1.76,1.76,0,0,0,9.41,43c-1,0-.85-.64-.69-1.2-.5.18-1,.5-.83,1.26a1.17,1.17,0,0,0-.93.51,1.49,1.49,0,0,0,.93.53,1.17,1.17,0,0,0,.83,1.22c-.19-.5-.24-1.29.69-1.29.39,0,.66.3.66.8A1.61,1.61,0,0,1,8.4,46.2a1.84,1.84,0,0,1-1.91-1.79,3.43,3.43,0,0,1,.35-1.47c1-2.16,4.27-9,5-10.48a4,4,0,0,1,0-3.18,2.79,2.79,0,0,0-2-1.32l-.19-.06L9.07,28a12.23,12.23,0,0,1-3-.08,1.53,1.53,0,0,0,1,.71,2.65,2.65,0,0,0-1.13,2.1c0,1.8.72,2.23.72,4.82a3.6,3.6,0,0,1-.95,2.34c1.73-.36,2.42-1.85,1.86-2.94.35-.15.61.08.89.21A1.93,1.93,0,0,0,8,34a2.1,2.1,0,0,1,.57.12,1.06,1.06,0,0,0-.57-.9,1.81,1.81,0,0,0,2.28-1.86,1.28,1.28,0,0,0-1.69-1.26.83.83,0,0,1,.06-.52.56.56,0,0,0-.47.82,1.15,1.15,0,0,0-.61.33,1.12,1.12,0,0,0,.61.36.58.58,0,0,0,.42.78S8.47,31,9.09,31c.25,0,.42.16.42.51,0,.51-.29.81-1,.81s-1.17-.5-1.17-1.61a1.78,1.78,0,0,1,3.56,0A3,3,0,0,1,10.66,32C9.29,34.85,5.78,42.13,5.78,42.13a4.92,4.92,0,0,0-.61,2.43A2.82,2.82,0,0,0,8,47.46c.13,0,.26,0,.4,0Z"/><path class="kz_cls-2" d="M18.42,44.56a4.94,4.94,0,0,0-.61-2.43S14.3,34.85,12.94,32a3,3,0,0,1-.23-1.34,1.78,1.78,0,0,1,3.56,0c0,1.11-.58,1.61-1.17,1.61s-1-.3-1-.81c0-.36.17-.51.42-.51.63,0,.45.84.45.84a.57.57,0,0,0,.42-.78,1.13,1.13,0,0,0,.61-.36,1.15,1.15,0,0,0-.61-.33.56.56,0,0,0-.47-.82.86.86,0,0,1,.06.52,1.28,1.28,0,0,0-1.69,1.26,1.81,1.81,0,0,0,2.28,1.86,1.06,1.06,0,0,0-.57.9,2.11,2.11,0,0,1,.57-.12,1.91,1.91,0,0,0-.4,1.17c.28-.13.53-.36.88-.21-.55,1.09.13,2.59,1.86,2.94a3.6,3.6,0,0,1-.95-2.34c0-2.59.72-3,.72-4.82a2.65,2.65,0,0,0-1.13-2.1,1.53,1.53,0,0,0,1-.71,12.23,12.23,0,0,1-3,.08L14,27.89l-.19.06a2.78,2.78,0,0,0-2,1.32,4,4,0,0,0,0,3.18c.69,1.44,3.94,8.32,5,10.48a3.41,3.41,0,0,1,.35,1.47,1.84,1.84,0,0,1-1.91,1.79,1.61,1.61,0,0,1-1.67-1.41c0-.5.27-.8.66-.8.93,0,.88.79.69,1.29a1.17,1.17,0,0,0,.83-1.22,1.49,1.49,0,0,0,.93-.53A1.17,1.17,0,0,0,15.7,43c.19-.76-.32-1.08-.83-1.26.16.56.26,1.2-.69,1.2a1.76,1.76,0,0,0-1.56.57c0-.6-.08-3-.08-3,0-.89,1.2-.87,2-.6a1.86,1.86,0,0,0-2.31-1.44,1.11,1.11,0,0,0,.71-1.08,2.83,2.83,0,0,0-1.12-2l-.22,8.71a3.21,3.21,0,0,0,.22,1.15,3.59,3.59,0,0,0,3,2.2l.35,0c.14,0,.27,0,.4,0A2.83,2.83,0,0,0,18.42,44.56Z"/><path class="kz_cls-2" d="M8.78,86.54a3.59,3.59,0,0,0,3-2.2,3.21,3.21,0,0,1-.22-1.15l.22-8.71a2.83,2.83,0,0,0-1.13,2,1.11,1.11,0,0,0,.71,1.08A1.86,1.86,0,0,0,9.06,79c.79-.27,2-.29,2,.6,0,0-.06,2.37-.07,3a1.76,1.76,0,0,0-1.56-.57c-1,0-.85-.64-.69-1.2-.5.18-1,.5-.83,1.26a1.16,1.16,0,0,0-.93.51,1.49,1.49,0,0,0,.93.52,1.17,1.17,0,0,0,.83,1.22,1.31,1.31,0,0,1-.05-.88c-.06,0-.1,0-.1-.09s.16-.32.45-.39.68-.18.7,0a.26.26,0,0,1,0,.13.75.75,0,0,1,.38.73A1.62,1.62,0,0,1,8.4,85.28,1.84,1.84,0,0,1,6.49,83.5,3.43,3.43,0,0,1,6.84,82c1-2.16,4.27-9,5-10.48a4,4,0,0,1,0-3.19,2.78,2.78,0,0,0-2-1.32l-.11,0a7.1,7.1,0,0,0-3.65,0,1.53,1.53,0,0,0,1,.71,2.66,2.66,0,0,0-1.13,2.1c0,1.8.72,2.23.72,4.82A3.59,3.59,0,0,1,5.7,77c1.73-.35,2.42-1.85,1.86-2.94.35-.15.61.09.89.21A1.93,1.93,0,0,0,8,73.07a2.06,2.06,0,0,1,.57.12,1.06,1.06,0,0,0-.57-.9,1.81,1.81,0,0,0,2.28-1.86,1.28,1.28,0,0,0-1.69-1.26.83.83,0,0,1,.06-.52.56.56,0,0,0-.47.82,1.14,1.14,0,0,0-.61.33,1.14,1.14,0,0,0,.61.36.58.58,0,0,0,.42.78s-.18-.84.45-.84c.25,0,.42.15.42.51,0,.51-.29.81-1,.81s-1.17-.5-1.17-1.61a1.78,1.78,0,0,1,3.56,0,3,3,0,0,1-.22,1.34C9.29,73.93,5.78,81.21,5.78,81.21a4.92,4.92,0,0,0-.61,2.43A2.82,2.82,0,0,0,8,86.54c.13,0,.26,0,.4,0Z"/><path class="kz_cls-2" d="M13.89,67l-.11,0a2.77,2.77,0,0,0-2,1.32,4,4,0,0,0,0,3.19c.69,1.44,3.94,8.32,5,10.48a3.41,3.41,0,0,1,.35,1.47,1.84,1.84,0,0,1-1.91,1.79,1.62,1.62,0,0,1-1.67-1.41c0-.5.27-.8.66-.8.93,0,.88.79.69,1.29a1.17,1.17,0,0,0,.83-1.22,1.49,1.49,0,0,0,.93-.52,1.17,1.17,0,0,0-.93-.51c.19-.76-.32-1.08-.83-1.26.16.56.26,1.2-.69,1.2a1.76,1.76,0,0,0-1.56.57c0-.6-.08-3-.08-3,0-.89,1.2-.87,2-.6a1.86,1.86,0,0,0-2.31-1.44,1.11,1.11,0,0,0,.71-1.08,2.83,2.83,0,0,0-1.12-2l-.22,8.71a3.21,3.21,0,0,0,.22,1.15,3.59,3.59,0,0,0,3,2.2l.35,0c.14,0,.27,0,.4,0a2.82,2.82,0,0,0,2.86-2.9,5,5,0,0,0-.61-2.43s-3.51-7.28-4.87-10.09a3,3,0,0,1-.23-1.34,1.78,1.78,0,0,1,3.56,0c0,1.11-.58,1.61-1.17,1.61s-1-.3-1-.81c0-.36.17-.51.42-.51.63,0,.45.84.45.84a.57.57,0,0,0,.42-.78A1.14,1.14,0,0,0,16,69.8a1.14,1.14,0,0,0-.61-.33.56.56,0,0,0-.47-.82.86.86,0,0,1,.06.52,1.28,1.28,0,0,0-1.69,1.26,1.81,1.81,0,0,0,2.28,1.86,1.06,1.06,0,0,0-.57.9,2.07,2.07,0,0,1,.57-.12,1.9,1.9,0,0,0-.4,1.17c.28-.12.53-.36.88-.21-.55,1.09.13,2.59,1.86,2.94a3.6,3.6,0,0,1-.95-2.34c0-2.59.72-3,.72-4.82a2.65,2.65,0,0,0-1.13-2.1,1.53,1.53,0,0,0,1-.71A7.09,7.09,0,0,0,13.89,67Z"/><path class="kz_cls-2" d="M12.4,19.22l-.6.75s1.06-.89,1.42-.44-.78,2.68-1.42,4.25a4,4,0,0,1,.36,1.3,2.86,2.86,0,0,1-.36,1.48A3.14,3.14,0,0,0,14,27.89l.55.11a12.23,12.23,0,0,0,3-.08,1.3,1.3,0,0,0-1.17-.65A2.46,2.46,0,0,0,17.69,25c0-1.78-.73-2.51-.73-4.51A5.91,5.91,0,0,1,17.87,18a2.16,2.16,0,0,0-2,2.84.79.79,0,0,1-.69-.21,1.19,1.19,0,0,0,.32,1c-.2.11-.35,0-.67,0a1.45,1.45,0,0,0,.74,1,1.76,1.76,0,0,0-2.35,1.69,1.28,1.28,0,0,0,1.11,1.37,1.11,1.11,0,0,0,.58-.18.9.9,0,0,1-.05.73c.4-.11.66-.34.47-.84a1,1,0,0,0,.72-.33.85.85,0,0,0-.72-.33c.22-.46,0-.72-.39-.93,0,0,.23.93-.36.93-.27,0-.51-.09-.51-.48a.85.85,0,0,1,1-.78c.69,0,1.25.47,1.25,1.58s-.82,1.52-1.9,1.55a1.48,1.48,0,0,1-1.71-1.5c0-1.33,1.93-4.38,1.93-5.57a1.48,1.48,0,0,0-1.59-1.39,2.28,2.28,0,0,0-1.28.48A3.77,3.77,0,0,1,12.4,19.22Z"/><path class="kz_cls-2" d="M9.07,28l.55-.11a3.14,3.14,0,0,0,2.18-1.33,2.86,2.86,0,0,0,.36-1.48,4,4,0,0,0-.36-1.3c-.64-1.57-1.86-3.71-1.42-4.25S11.8,20,11.8,20l.6-.75a3.77,3.77,0,0,0-.6-.53,2.28,2.28,0,0,0-1.28-.48A1.48,1.48,0,0,0,8.92,19.6c0,1.19,1.93,4.24,1.93,5.57a1.48,1.48,0,0,1-1.71,1.5c-1.08,0-1.9-.54-1.9-1.55s.56-1.55,1.25-1.58a.85.85,0,0,1,1,.78c0,.39-.24.48-.51.48-.59,0-.36-.93-.36-.93-.36.21-.61.47-.39.93a.86.86,0,0,0-.72.33,1,1,0,0,0,.72.33c-.18.5.07.73.48.84a.9.9,0,0,1-.06-.73,1.12,1.12,0,0,0,.58.18,1.28,1.28,0,0,0,1.11-1.37A1.75,1.75,0,0,0,8,22.69a1.45,1.45,0,0,0,.73-1c-.32.07-.47.13-.67,0a1.19,1.19,0,0,0,.32-1,.79.79,0,0,1-.69.21,2.16,2.16,0,0,0-2-2.84,5.91,5.91,0,0,1,.91,2.53c0,2-.73,2.73-.73,4.51a2.46,2.46,0,0,0,1.33,2.23,1.3,1.3,0,0,0-1.17.65A12.23,12.23,0,0,0,9.07,28Z"/><path class="kz_cls-3" d="M9.24,83.42a.62.62,0,0,0,.45-.28.26.26,0,0,0,0-.13c0-.19-.4-.08-.7,0s-.47.21-.45.39,0,.08.1.09A1.61,1.61,0,0,0,9.24,83.42Z"/><path class="kz_cls-2" d="M97.25,89.48a25.69,25.69,0,0,1-6.79-2.67c-.4-.23,1.25-.71.9-1.17s-1.68.06-2.2-.59c-.33-.42.63-.43.61-.69s-1.84-.67-2.17-1.13.82-.38.87-.69-1.14-.61-1.23-.91,1.31-.22.66-.58-2.59-.88-2.95-1.56,1.45.1,1-.54c-.31-.43-2.06-1.18-2.42-2.19-.25-.69,1.23-.09,1.25-.52,0-.69-.88-.25-1.16-2.22-.09-.65,1.16-.21,1.16-.21l.17-.35a14.33,14.33,0,0,1,3.38,3c1.9,2.21,2.45,4.3,4.24,5.8.85.72.87-.29,2.82.92a34.15,34.15,0,0,1,4.79,3.8c.29.25,1.61-.24,5.53.57,2.1.44,2.54,1.55,2.54,1.55A5.69,5.69,0,0,0,110,87.57c.22-.33.44,0,.51-.07.23-.2,0-.46,0-.46A26.54,26.54,0,0,1,84,63.06s-.59-.22-.67.31c-.18,1.27.34,5.17.15,4.91-.37-.49-3.1-7.82-3.6-7-.67,1.07,3.06,9.4,2.85,9.65-.76.89-5-8.14-5.38-7.47C76,66,82.6,74.16,82.56,74.5c-.15,1.09-5-4.41-5.42-3.82-.92,1.33,5.25,6.18,5.57,6.55,1,1.1-3.38-2-3.51-.9-.11.86,2.1,2.61,3.42,3.36s1.74.52,2.12,1.17c.29.49-2.47-.31-2.4.3.15,1.2,3,.94,3.46,1.49s-2,.13-1.87.57c.17.78,2.61.9,2.64,1.23s-1.54.11-1.44.75,2.48.43,3.06.82-2.14.05,0,1.11A29.17,29.17,0,0,0,96,90c3.32.65,5-.08,5.13-.3S99.61,89.91,97.25,89.48Z"/><path class="kz_cls-2" d="M120,91.82a1.24,1.24,0,0,1-.8,1.23c-.35.09-.18.35-.29.58l-1.45-.07a14.5,14.5,0,0,1-8.69,1.31s-.73.56-1.38,1.13-1.1.7-1.23,1.16.34.71.95.73a2.91,2.91,0,0,0,1.38-.54.7.7,0,0,0,.65.51,5.05,5.05,0,0,0,1.56-.33,3.44,3.44,0,0,0,1.49.3,2.88,2.88,0,0,0,1.19-.49s.17.75.8.77,1.64-.8,1.64-.8a1.35,1.35,0,0,0,1.05.47,3,3,0,0,0,1.31-.76,2.39,2.39,0,0,0,1.42.11,3.62,3.62,0,0,0,1.34-.91,1.44,1.44,0,0,0,1.16.33c.55-.18.92-1,.92-1a3.71,3.71,0,0,0,2.46.12c.69-.33.51-1.42.51-1.42s4.07.59,3.89-2.07c0-.28-6.53-.19-9.41-.73C120,91.39,120,91.82,120,91.82Z"/><path class="kz_cls-2" d="M144,63.85c-.34-.67-5.72,9.64-6.47,8.75-.21-.25,4.58-10.17,3.82-11.17-.37-.49-1.12,1.16-1.94,3s-1.72,3.85-1.9,4.09.21-3.88,0-5.15c-.08-.53-.67-.31-.67-.31C136.05,76,123.63,85.59,113.73,87c-2.57.37-3.39,1.58-6.2,3.16-.95.54-2.4.79-3.66,1.49a7.55,7.55,0,0,0-2.57,2.43,1.4,1.4,0,0,0,.35,1.37c.26.11.25-.7.54-.84s.29.29.64.27a1.6,1.6,0,0,0,.74-.35s7,0,10-.1a3,3,0,0,0,1.81-.64c-.12-.33-.92-.15-1.43-.12-2.11-.15-4.88,0-6.85-.14a.31.31,0,0,1-.29-.34A15.76,15.76,0,0,1,108,91.72h-1a3.5,3.5,0,0,1-.89.37c-.29,0-.41-.16-.29-.25a47.74,47.74,0,0,1,6-3.17,22.94,22.94,0,0,1,3.27-.88c3.92-.81,5.28-.55,5.56-.79,3.11-3.45,5.39-3.73,7.65-4.62,1.8-1.5,2.38-3.66,4.29-5.87s3-2.38,3-2.38l.26.49s1-.77,1-.12c-.08,1-.88,1.92-.85,2.6,0,.43,1.4-.19,1.27.21-.32,1-1.42,1.65-1.74,2.08-.47.64,1.25-.22.9.44s-2.1,1.35-2.77,1.78c-.42.27.45.32.37.63s-1.88,1-1.85,1.18.49.34.27.58c-.38.41-1.86.47-1.88.72s.31.52,0,.94c-.52.65-.93,0-1.14.53-.12.31.85.92.19,1a6.33,6.33,0,0,0-2.35,1,18.16,18.16,0,0,1-2.37.63c-.5.13-3.28.47-3.16.7s1.87.19,5.57-.45a31.64,31.64,0,0,0,5-1.27c2.86-.9-.73-1-.15-1.36s3.07-.2,3.16-.75S134,85.34,134,85s3-.32,3.19-1.11c.1-.45-1.7-.13-1.27-.67s2.82-.66,2.89-1.68c0-.61-1.94.13-1.68-.37.11-.2.91-.42,1.71-1,1.25-.87,3.23-2.37,3.12-3.24-.13-1.06-4.12,2.46-3.78,1.12.12-.48,6.5-5.53,5.46-6.76-.71-.83-5.26,4.6-5.41,3.51C138.18,74.46,145.32,66.38,144,63.85Zm-39.48,29.4c-.25.05-.56.13-.57,0s.13-.27.38-.33.57-.15.58,0S104.78,93.2,104.54,93.25Z"/><path class="kz_cls-3" d="M104.35,92.9c-.25.06-.39.17-.38.33s.32.08.57,0,.41-.19.39-.34S104.59,92.85,104.35,92.9Z"/><path class="kz_cls-2" d="M113.88,42.22a1.08,1.08,0,0,0,1.39-.94,42.5,42.5,0,0,0-.19-5.08A42.75,42.75,0,0,0,113,40.83,1.08,1.08,0,0,0,113.88,42.22Z"/><path class="kz_cls-2" d="M117,43.16a1.08,1.08,0,0,0,1.55-.65,42.73,42.73,0,0,0,.8-5,42.6,42.6,0,0,0-3,4.12A1.08,1.08,0,0,0,117,43.16Z"/><path class="kz_cls-2" d="M119.79,44.67a1.08,1.08,0,0,0,1.64-.33,42.61,42.61,0,0,0,1.77-4.77A42.59,42.59,0,0,0,119.47,43,1.08,1.08,0,0,0,119.79,44.67Z"/><path class="kz_cls-2" d="M122.28,46.71a1.08,1.08,0,0,0,1.68,0,42.49,42.49,0,0,0,2.66-4.33A42.42,42.42,0,0,0,122.29,45,1.08,1.08,0,0,0,122.28,46.71Z"/><path class="kz_cls-2" d="M124.32,49.2a1.08,1.08,0,0,0,1.64.32,42.64,42.64,0,0,0,3.46-3.73,42.81,42.81,0,0,0-4.77,1.77A1.08,1.08,0,0,0,124.32,49.2Z"/><path class="kz_cls-2" d="M125.83,52a1.08,1.08,0,0,0,1.55.64,42.73,42.73,0,0,0,4.12-3,42.68,42.68,0,0,0-5,.8A1.08,1.08,0,0,0,125.83,52Z"/><path class="kz_cls-2" d="M127.7,53.72a1.18,1.18,0,1,0,.46,2.31,42.75,42.75,0,0,0,4.62-2.12A42.6,42.6,0,0,0,127.7,53.72Z"/><path class="kz_cls-2" d="M128.27,57.13a1.18,1.18,0,1,0,0,2.36,42.59,42.59,0,0,0,4.95-1.18A42.56,42.56,0,0,0,128.27,57.13Z"/><path class="kz_cls-2" d="M128.16,60.59a1.18,1.18,0,1,0-.46,2.32,42.76,42.76,0,0,0,5.08-.19A42.56,42.56,0,0,0,128.16,60.59Z"/><path class="kz_cls-2" d="M127.38,64a1.18,1.18,0,1,0-.9,2.18,42.53,42.53,0,0,0,5,.8A42.57,42.57,0,0,0,127.38,64Z"/><path class="kz_cls-2" d="M126,67.1a1.18,1.18,0,1,0-1.31,2,42.79,42.79,0,0,0,4.77,1.77A42.51,42.51,0,0,0,126,67.1Z"/><path class="kz_cls-2" d="M124,69.92a1.18,1.18,0,1,0-1.67,1.67,42.64,42.64,0,0,0,4.33,2.66A42.48,42.48,0,0,0,124,69.92Z"/><path class="kz_cls-2" d="M123.2,77.05a42.68,42.68,0,0,0-1.77-4.77,1.18,1.18,0,1,0-2,1.31A42.61,42.61,0,0,0,123.2,77.05Z"/><path class="kz_cls-2" d="M119.3,79.13a42.72,42.72,0,0,0-.8-5,1.18,1.18,0,1,0-2.18.9A42.68,42.68,0,0,0,119.3,79.13Z"/><path class="kz_cls-2" d="M101.89,73.6a1.18,1.18,0,1,0-2-1.31,43,43,0,0,0-1.77,4.77A43,43,0,0,0,101.89,73.6Z"/><path class="kz_cls-2" d="M99.08,69.91a1.08,1.08,0,0,0-1.68,0,42.46,42.46,0,0,0-2.66,4.33,42.85,42.85,0,0,0,4.33-2.66A1.08,1.08,0,0,0,99.08,69.91Z"/><path class="kz_cls-2" d="M97,67.42a1.08,1.08,0,0,0-1.64-.32,42.43,42.43,0,0,0-3.46,3.73,42.63,42.63,0,0,0,4.77-1.77A1.08,1.08,0,0,0,97,67.42Z"/><path class="kz_cls-2" d="M95.52,64.59A1.08,1.08,0,0,0,94,64a42.58,42.58,0,0,0-4.12,3,42.51,42.51,0,0,0,5-.8A1.08,1.08,0,0,0,95.52,64.59Z"/><path class="kz_cls-2" d="M94.59,61.51a1.08,1.08,0,0,0-1.4-.93,42.56,42.56,0,0,0-4.62,2.12,42.75,42.75,0,0,0,5.08.19A1.08,1.08,0,0,0,94.59,61.51Z"/><path class="kz_cls-2" d="M94.27,58.31a1.08,1.08,0,0,0-1.19-1.18,42.66,42.66,0,0,0-4.95,1.18,42.69,42.69,0,0,0,4.95,1.18A1.08,1.08,0,0,0,94.27,58.31Z"/><path class="kz_cls-2" d="M94.59,55.11a1.08,1.08,0,0,0-.94-1.39,42.59,42.59,0,0,0-5.08.19A42.75,42.75,0,0,0,93.19,56,1.08,1.08,0,0,0,94.59,55.11Z"/><path class="kz_cls-2" d="M95.52,52a1.08,1.08,0,0,0-.65-1.55,42.66,42.66,0,0,0-5-.8,42.74,42.74,0,0,0,4.12,3A1.08,1.08,0,0,0,95.52,52Z"/><path class="kz_cls-2" d="M95.39,49.52a1.18,1.18,0,1,0,1.31-2,42.65,42.65,0,0,0-4.77-1.77A42.56,42.56,0,0,0,95.39,49.52Z"/><path class="kz_cls-2" d="M99.08,46.71a1.08,1.08,0,0,0,0-1.68,42.63,42.63,0,0,0-4.33-2.66A42.47,42.47,0,0,0,97.4,46.7,1.08,1.08,0,0,0,99.08,46.71Z"/><circle class="kz_cls-2" cx="110.66" cy="58.33" r="14.44"/><path class="kz_cls-2" d="M110.68,41.91a1.08,1.08,0,0,0,1.18-1.19,42.66,42.66,0,0,0-1.18-4.95,42.6,42.6,0,0,0-1.18,4.95A1.08,1.08,0,0,0,110.68,41.91Z"/><path class="kz_cls-2" d="M113.88,74.4a1.08,1.08,0,0,0-.93,1.4,42.75,42.75,0,0,0,2.12,4.62,42.51,42.51,0,0,0,.19-5.08A1.08,1.08,0,0,0,113.88,74.4Z"/><path class="kz_cls-2" d="M109.5,75.9a42.6,42.6,0,0,0,1.18,4.95,42.67,42.67,0,0,0,1.18-4.95,1.18,1.18,0,1,0-2.36,0Z"/><path class="kz_cls-2" d="M106.09,75.34a42.58,42.58,0,0,0,.19,5.08,42.41,42.41,0,0,0,2.12-4.62,1.18,1.18,0,1,0-2.31-.46Z"/><path class="kz_cls-2" d="M104.4,73.47a1.08,1.08,0,0,0-1.55.65,42.64,42.64,0,0,0-.8,5A43,43,0,0,0,105,75,1.08,1.08,0,0,0,104.4,73.47Z"/><path class="kz_cls-2" d="M101.56,44.67a1.08,1.08,0,0,0,.32-1.65,43,43,0,0,0-3.73-3.46,42.94,42.94,0,0,0,1.77,4.77A1.08,1.08,0,0,0,101.56,44.67Z"/><path class="kz_cls-2" d="M104.4,43.16A1.08,1.08,0,0,0,105,41.6a42.93,42.93,0,0,0-3-4.12,42.65,42.65,0,0,0,.8,5A1.08,1.08,0,0,0,104.4,43.16Z"/><path class="kz_cls-2" d="M107.48,42.22a1.08,1.08,0,0,0,.92-1.4,42.41,42.41,0,0,0-2.12-4.62,42.57,42.57,0,0,0-.19,5.08A1.08,1.08,0,0,0,107.48,42.22Z"/></g></g></svg>
