<svg xmlns="http://www.w3.org/2000/svg" viewBox="0 0 200 134"><defs><style>.lb_cls-1{fill:#fafafa;}.lb_cls-2{fill:#ef4630;}.lb_cls-3{fill:#209e56;}</style></defs><title>Asset 99</title><g id="Layer_2" data-name="Layer 2"><g id="Layer_1-2" data-name="Layer 1"><path class="lb_cls-1" d="M110.32,74.21a3.2,3.2,0,0,0,3.84-.08c1.77-1.37.89-2.47-.73-2.39a4.87,4.87,0,0,0-2.46.87C109.62,73.53,109.58,73.61,110.32,74.21Z"/><path class="lb_cls-1" d="M106,56.61c-.38.78-.26,1,.92,1.33,2.39.76,3.09.62,3.31-.66.16-.94,0-1.26-.87-1.62A3.23,3.23,0,0,0,108,55.4,2.23,2.23,0,0,0,106,56.61Z"/><path class="lb_cls-1" d="M112.07,62.9c1.07.86,2.37.52,2.52-.67A1.34,1.34,0,0,0,113,60.77a1.48,1.48,0,0,0-1.14.67C111.41,62.19,111.44,62.38,112.07,62.9Z"/><path class="lb_cls-1" d="M106.13,49.8a1.38,1.38,0,0,0,1.27-.72c.4-1.15.3-1.54-.52-1.51l-.36,0c-.81.1-1.17.44-1.27,1.17S105.31,49.8,106.13,49.8Z"/><path class="lb_cls-1" d="M90.72,53.1h0a.25.25,0,0,0,0,0,.13.13,0,0,0,0,0v.06a.25.25,0,0,0,.06.08h0c.34.3,1.55,0,2.69-.79s1.9-2.74.9-2.74h-.09C93.14,49.9,90.75,52.07,90.72,53.1Z"/><path class="lb_cls-1" d="M90.84,48.27h0c.13,0,.36-.13.74-.41a3.29,3.29,0,0,0,1.06-1.19v0a.38.38,0,0,0,0,0v0a.22.22,0,0,0,0,0v0l0-.08v0l0,0a1.12,1.12,0,0,0-.86-.26h-.16c-.74,0-.91.28-.91,1.2a1.87,1.87,0,0,0,.1.89Z"/><path class="lb_cls-1" d="M89.81,74.84h-.26c-.62,0-.56.3,0,2.33.63,2.33,2,2.51,2,.26C91.54,75.77,90.93,74.84,89.81,74.84Z"/><path class="lb_cls-1" d="M111.87,98.91c-1.55-1.8-1.87-2-4.49-2.25a13.34,13.34,0,0,0-3.12-.12h0l0,0h0v.05a1.88,1.88,0,0,0,.37,1.08,3.18,3.18,0,0,1,.64,1.51s0,0,0,0v.08h0l0,0H105c-.23,0-.68-.27-1.29-.86A16.91,16.91,0,0,0,101,96.47a2.22,2.22,0,0,1-1.23-1.56c0-1.1-.73-1.37-2.2-.81A2.24,2.24,0,0,1,95.46,94c-1.24-.73-2.88-.28-4.51,1.24a10.16,10.16,0,0,1-6.35,2.85,6,6,0,0,0-4.6,2,2.4,2.4,0,0,1-.49.51h34.27A6.51,6.51,0,0,1,111.87,98.91Z"/><path class="lb_cls-1" d="M88,68.24a2.28,2.28,0,0,0-1.15-.48,8,8,0,0,0-1.49-.11c-1.78,0-4.2.28-4.49.59h0v0h0v0h0a9.89,9.89,0,0,0,.63,1.57c.58,1.24.78,1.34,2.17,1.08a12.76,12.76,0,0,0,3-1c.94-.5,1.45-.93,1.52-1.29a.42.42,0,0,0,0-.16.41.41,0,0,0-.12-.22Z"/><path class="lb_cls-1" d="M117.66,76.34c.74.1,1.45.21,1.59.25h0a4.32,4.32,0,0,0,1.21-1.1c1-1.15,1-1.19.2-1.83a2.83,2.83,0,0,0-1.24-.64h-.09c-.86.11-2.9,1.72-3,2.4a.39.39,0,0,0,0,.06C116.32,75.89,116.84,76.22,117.66,76.34Z"/><path class="lb_cls-1" d="M85.64,56.48l-.15,0a2.18,2.18,0,0,0-1.29.38l0,0,0,0-.05.1c-.16.35.06.9.66,1.74.94,1.32,1.13,1.41,2.27,1l1.24-.48-.83-1.43C86.84,56.81,86.38,56.46,85.64,56.48Z"/><path class="lb_cls-1" d="M102.72,54.85c-.58.77-.84,1.24-.78,1.49v0h0v0l0,0h0c.13.15.46.17,1,.11a1.32,1.32,0,0,0,1.28-1c.16-1-.14-1.47-.61-1.41A1.57,1.57,0,0,0,102.72,54.85Z"/><path class="lb_cls-1" d="M96.29,50.32h0a5.55,5.55,0,0,0,2-.27c1.54-.39,1.86-.66,1.86-1.51s-.23-1-.79-1a5.65,5.65,0,0,0-1.89.72C96.22,49,95.75,49.73,96.29,50.32Z"/><path class="lb_cls-1" d="M99.95,54.35a6.36,6.36,0,0,0-1.66.52l-1.17.52,1,.35,1.17.39h0a4,4,0,0,0,.91-.43c.86-.51.71-1.35-.25-1.35Z"/><path class="lb_cls-1" d="M100,64.77a1.7,1.7,0,0,0,.8,2.68c1.12.57,1.7,0,1.33-1.21a5.05,5.05,0,0,0-.92-1.66c-.28-.31-.45-.47-.61-.45S100.22,64.35,100,64.77Z"/><path class="lb_cls-1" d="M102.69,48.89c1,0,1.27-.17,1.16-.8a1,1,0,0,0-1.16-.8h0a1,1,0,0,0-1.13.8.64.64,0,0,0,.1.58C101.79,48.83,102.12,48.89,102.69,48.89Z"/><path class="lb_cls-1" d="M99.89,35.22c.93,2.07,3.21,4.44,4.57,4.76l3.22.71c1.69.36,3.17,1.16,5.57,3l3.27,2.53-2.27-.13a6.51,6.51,0,0,0-2.24.11h0v0l0,0c.32.66,4.41,3.57,5.91,4.18l1.5.61-2.27,0a7.69,7.69,0,0,1-3.31-.64c-1.4-.88-3.56-.87-3.87,0-.18.51.27,1,1.64,1.6a19.8,19.8,0,0,1,4.23,3.2,35.37,35.37,0,0,0,6.4,4.54c2.47,1.37,3.59,2.18,3.34,2.51s-1.57.19-4-.22c-2.17-.37-3.45-.4-3.71-.11a.88.88,0,0,0-.25.46.42.42,0,0,0,0,.12.43.43,0,0,0,0,.16c.22.43,1.1.8,2.69,1.14,1.3.28,3.64.92,5.21,1.42,3.91,1.27,3.13,1.93-2.55,2.15-4.21.17-5.72.59-5.22,1.49v0h0l0,0a3.61,3.61,0,0,0,1.83.36,5.82,5.82,0,0,1,4.54,2.1A38.29,38.29,0,0,0,128,74.9l3.21,2.63-1.46.31c-1.14.24-2,0-3.73-1-2.22-1.24-2.32-1.25-3.72-.52-2.46,1.3-1.9,2.09,3.44,4.94s8.23,5.24,7.81,6.46c-.36,1-1.89,1-3.39-.17-.68-.51-2.35-1.58-3.71-2.39-2.43-1.43-2.57-1.46-7.41-1.35-4.51.1-5.12,0-7.1-1-2.62-1.37-3.21-1.4-4.28-.22-.69.76-.83,1.51-.82,4.44,0,4.9.66,6.2,4.91,9.73a22.35,22.35,0,0,1,3.51,3.34h0v.08a.7.7,0,0,1-.42.39H200V33.41H99.08Z"/><path class="lb_cls-1" d="M78.73,100.41c0-.75,2.2-2.82,3.27-3.08a10,10,0,0,0,6.27-4c4.12-5.15,4.43-8.29,1-10.08-1.48-.77-1.49-.78-5.7,1.14-2.32,1.05-5.15,2.2-6.29,2.54-2.84.84-6.16.8-6.83-.08-.27-.36-.41-.76-.32-.91h0a44.41,44.41,0,0,1,4.61-1.54c6.33-1.89,9.69-4.28,7.68-5.46-1.3-.77-2.87-.53-4.48.68S70.62,83,68.84,83A2.82,2.82,0,0,1,67,82.32c-.38-.42-.59-.66-.59-.78v0h0a2.71,2.71,0,0,1,1.09.08c1,.16,1.65-.27,4-2.6a25,25,0,0,1,5.84-4.34c2.55-1.3,3-1.72,3-2.64a3.15,3.15,0,0,0-.82-1.91c-.79-.78-.88-.76-2.82.61a7.68,7.68,0,0,1-3,1.42A3.91,3.91,0,0,1,71.38,71v-.06h0v0h0a.38.38,0,0,1,.22-.05,11.18,11.18,0,0,0,2.76-2.26c2.58-2.58,3.2-3,5.19-3.4a5.32,5.32,0,0,0,3-2.26c1.5-1.93,1.51-2,.87-3.44-.52-1.18-.82-1.42-1.51-1.19-3.08,1.06-5.2,1.13-5.2.17a.36.36,0,0,1,0-.06c.22-.68,3.48-2.88,6-4,1.55-.71,2.26-1.32,2.43-2.06a4.18,4.18,0,0,1,3.45-2.44c1.09,0,1.36-.44.89-1.42-.31-.64-.7-.77-1.63-.56a1.83,1.83,0,0,1-1.16,0l0,0h0v0h0a.12.12,0,0,1,0,0v0l0-.05c.28-.62,2.41-2.18,3.84-2.77S93.85,42.7,94,42.05c0,0,0,0,0-.05a.12.12,0,0,0,0,0c0-.26-.3-.34-.66-.19a16.63,16.63,0,0,1-1.75.57l-1.1.29,1-1.25a20.21,20.21,0,0,1,3.18-2.78A13.74,13.74,0,0,0,98,35.24l1.1-1.83H0v67.18H78.77A.55.55,0,0,1,78.73,100.41Z"/><path class="lb_cls-1" d="M90.3,55.71h-.08c-.8,0-1.29.15-1.49.47s-.08,1,.37,1.87.55.82,1.13.33a9.18,9.18,0,0,0,1.2-1.26C92.28,56,92,55.71,90.3,55.71Z"/><path class="lb_cls-1" d="M94.5,76.29a2.84,2.84,0,0,0-.58-.06.2.2,0,0,0-.12.05l0,0c-.06.15.1.51.46,1.28s.67,1,.95,1h.13l.1,0,0,0,0,0,0-.05a1.71,1.71,0,0,0,.1-1.18A1.36,1.36,0,0,0,94.5,76.29Z"/><path class="lb_cls-1" d="M94.19,65.78l0,0,0-.05,0,0v0l0,0,0,0v0s0,0,0-.07a1.24,1.24,0,0,0-.55-.87,2.28,2.28,0,0,0-1.5-.66.36.36,0,0,0-.33.39v0a2.53,2.53,0,0,0,.91,1.1C93.45,65.92,94,66,94.19,65.78Z"/><path class="lb_cls-1" d="M103.44,65.83c-.19,0-.34.25-.34.7,0,.94.34,1.48.93,1.48h.09a1.23,1.23,0,0,0,.14-1C104.16,66.25,103.75,65.79,103.44,65.83Z"/><path class="lb_cls-1" d="M98,63.17l0,0,0,0,0,0,0,0-.1-.05a.56.56,0,0,0-.19,0h-.1c-.75,0-1,.68-.74,1.57s1.16.64,1.32-.59A1.12,1.12,0,0,0,98,63.17Z"/><path class="lb_cls-1" d="M100.6,76.11h0a5.9,5.9,0,0,0-2.52-.61.77.77,0,0,0-.22,0h-.06a7,7,0,0,0,.37,1.78L98.66,79l1-1.3a7.28,7.28,0,0,0,1-1.59h0Z"/><path class="lb_cls-2" d="M113.77,100.59H0V117a17,17,0,0,0,17,17H183a17,17,0,0,0,17-17V100.59H113.77Z"/><path class="lb_cls-2" d="M183,0H17A17,17,0,0,0,0,17V33.41H200V17A17,17,0,0,0,183,0Z"/><path class="lb_cls-3" d="M94.72,38.61a20.21,20.21,0,0,0-3.18,2.78l-1,1.25,1.1-.29a16.63,16.63,0,0,0,1.75-.57c.36-.15.66-.07.66.19a.12.12,0,0,1,0,0s0,0,0,.05c-.16.65-2.05,2.13-3.55,2.75S86.89,47,86.62,47.58l0,.05v0a.12.12,0,0,0,0,0h0v0h0l0,0a1.83,1.83,0,0,0,1.16,0c.94-.21,1.32-.08,1.63.56.47,1,.2,1.42-.89,1.42a4.18,4.18,0,0,0-3.45,2.44c-.17.75-.89,1.36-2.43,2.06-2.52,1.15-5.78,3.35-6,4a.36.36,0,0,0,0,.06c0,1,2.12.89,5.2-.17.69-.24,1,0,1.51,1.19.64,1.47.63,1.5-.87,3.44a5.32,5.32,0,0,1-3,2.26c-2,.42-2.61.82-5.19,3.4a11.18,11.18,0,0,1-2.76,2.26.38.38,0,0,0-.22.05h0v0h0V71a3.91,3.91,0,0,0,2.34,1.13,7.68,7.68,0,0,0,3-1.42c1.94-1.37,2-1.39,2.82-.61A3.15,3.15,0,0,1,80.39,72c0,.92-.49,1.34-3,2.64A25,25,0,0,0,71.51,79c-2.33,2.33-3,2.76-4,2.6a2.71,2.71,0,0,0-1.09-.08h0v0c0,.12.21.36.59.78a2.82,2.82,0,0,0,1.84.72c1.78,0,7.42-2.1,9.15-3.41s3.18-1.45,4.48-.68c2,1.19-1.35,3.57-7.68,5.46A44.41,44.41,0,0,0,70.18,86h0c-.09.15,0,.54.32.91.66.88,4,.92,6.83.08,1.13-.34,4-1.48,6.29-2.54,4.21-1.91,4.22-1.91,5.7-1.14,3.42,1.79,3.11,4.92-1,10.08a10,10,0,0,1-6.27,4c-1.07.26-3.27,2.33-3.27,3.08a.55.55,0,0,0,0,.18h.74a2.4,2.4,0,0,0,.49-.51,6,6,0,0,1,4.6-2A10.16,10.16,0,0,0,91,95.21c1.63-1.52,3.27-2,4.51-1.24a2.24,2.24,0,0,0,2.14.13c1.47-.56,2.2-.29,2.2.81A2.22,2.22,0,0,0,101,96.47a16.91,16.91,0,0,1,2.69,2.11c.61.59,1.05.86,1.29.86h.09l0,0h0v-.08s0,0,0,0a3.18,3.18,0,0,0-.64-1.51,1.88,1.88,0,0,1-.37-1.08v-.05h0l0,0h0a13.34,13.34,0,0,1,3.12.12c2.63.3,2.95.46,4.49,2.25a6.51,6.51,0,0,0,1.9,1.68h1.05a.7.7,0,0,0,.42-.39v-.08h0a22.35,22.35,0,0,0-3.51-3.34c-4.24-3.54-4.89-4.83-4.91-9.73,0-2.93.13-3.68.82-4.44,1.07-1.18,1.66-1.15,4.28.22,2,1,2.6,1.12,7.1,1,4.84-.11,5-.08,7.41,1.35,1.36.8,3,1.87,3.71,2.39,1.5,1.13,3,1.21,3.39.17.43-1.22-2.43-3.6-7.81-6.46s-5.9-3.64-3.44-4.94c1.4-.73,1.5-.72,3.72.52,1.78,1,2.59,1.21,3.73,1l1.46-.31L128,74.9a38.29,38.29,0,0,1-3.8-3.42,5.82,5.82,0,0,0-4.54-2.1,3.61,3.61,0,0,1-1.83-.36l0,0h0v0c-.5-.89,1-1.32,5.22-1.49,5.68-.22,6.46-.88,2.55-2.15-1.56-.5-3.91-1.14-5.21-1.42-1.59-.34-2.47-.71-2.69-1.14a.43.43,0,0,1,0-.16.42.42,0,0,1,0-.12.88.88,0,0,1,.25-.46c.26-.29,1.54-.26,3.71.11,2.43.41,3.76.5,4,.22s-.87-1.14-3.34-2.51a35.37,35.37,0,0,1-6.4-4.54,19.8,19.8,0,0,0-4.23-3.2c-1.37-.65-1.82-1.09-1.64-1.6.31-.89,2.47-.9,3.87,0a7.69,7.69,0,0,0,3.31.64l2.27,0-1.5-.61c-1.51-.61-5.6-3.52-5.91-4.18l0,0v0h0a6.51,6.51,0,0,1,2.24-.11l2.27.13-3.27-2.53c-2.4-1.85-3.88-2.65-5.57-3L104.46,40c-1.36-.32-3.64-2.69-4.57-4.76l-.81-1.81L98,35.24A13.74,13.74,0,0,1,94.72,38.61Zm-6.64,30c-.07.36-.58.79-1.52,1.29a12.76,12.76,0,0,1-3,1c-1.4.27-1.59.17-2.17-1.08a9.89,9.89,0,0,1-.63-1.57h0v0h0v0h0c.29-.3,2.71-.58,4.49-.59a8,8,0,0,1,1.49.11,2.28,2.28,0,0,1,1.15.48.41.41,0,0,1,.12.22A.42.42,0,0,1,88.08,68.61ZM87,59.74c-1.14.44-1.33.35-2.27-1-.59-.83-.82-1.39-.66-1.74l.05-.1,0,0,0,0a2.18,2.18,0,0,1,1.29-.38l.15,0c.74,0,1.2.33,1.79,1.35l.83,1.43Zm29.31,15.69c.13-.68,2.16-2.3,3-2.4h.09a2.83,2.83,0,0,1,1.24.64c.79.63.78.68-.2,1.83a4.32,4.32,0,0,1-1.21,1.1h0c-.13,0-.85-.15-1.59-.25s-1.34-.44-1.34-.85A.39.39,0,0,1,116.33,75.43Zm-4.42-14a1.48,1.48,0,0,1,1.14-.67,1.34,1.34,0,0,1,1.55,1.45c-.15,1.19-1.45,1.54-2.52.67C111.44,62.38,111.41,62.19,111.91,61.45Zm1.52,10.3c1.63-.07,2.51,1,.73,2.39a3.2,3.2,0,0,1-3.84.08c-.75-.6-.71-.69.65-1.6A4.87,4.87,0,0,1,113.43,71.74ZM108,55.4a3.23,3.23,0,0,1,1.41.26c.86.36,1,.67.87,1.62-.22,1.28-.92,1.42-3.31.66-1.17-.37-1.29-.55-.92-1.33A2.23,2.23,0,0,1,108,55.4Zm-2.72-6.62c.1-.73.46-1.07,1.27-1.17l.36,0c.82,0,.92.36.52,1.51a1.38,1.38,0,0,1-1.27.72C105.31,49.8,105.14,49.6,105.24,48.77Zm-10.92,1h.09c1,0,.38,1.88-.9,2.74s-2.35,1.09-2.69.79h0a.25.25,0,0,1-.06-.08v-.06a.13.13,0,0,1,0,0,.25.25,0,0,1,0,0h0C90.75,52.07,93.14,49.9,94.32,49.8Zm-2.7-3.64h.16a1.12,1.12,0,0,1,.86.26l0,0v0l0,.08v0a.22.22,0,0,1,0,0v0a.38.38,0,0,1,0,0v0a3.29,3.29,0,0,1-1.06,1.19c-.38.28-.61.43-.74.41h0l0,0a1.87,1.87,0,0,1-.1-.89C90.71,46.43,90.88,46.18,91.63,46.15Zm-2.09,31c-.55-2-.61-2.3,0-2.33h.26c1.12,0,1.74.92,1.74,2.59C91.54,79.69,90.17,79.51,89.54,77.18Zm1.89-20a9.18,9.18,0,0,1-1.2,1.26c-.58.49-.76.43-1.13-.33s-.58-1.51-.37-1.87.69-.46,1.49-.47h.08C92,55.71,92.28,56,91.43,57.13ZM92,64.37v0a.36.36,0,0,1,.33-.39,2.28,2.28,0,0,1,1.5.66,1.24,1.24,0,0,1,.55.88s0,0,0,.07v0l0,0,0,0v0l0,0,0,.05,0,0c-.24.18-.74.14-1.32-.31A2.53,2.53,0,0,1,92,64.37Zm3.55,14.09,0,.05,0,0,0,0-.1,0h-.12c-.28,0-.63-.38-.95-1s-.52-1.13-.46-1.28l0,0a.2.2,0,0,1,.13-.05,2.84,2.84,0,0,1,.58.06,1.36,1.36,0,0,1,1.1,1A1.71,1.71,0,0,1,95.51,78.46Zm1.24-13.89c-.31-.89,0-1.53.74-1.57h.1a.56.56,0,0,1,.19,0l.1.05,0,0,0,0,0,0,0,0a1.12,1.12,0,0,1,.12.82C97.91,65.21,97.1,65.57,96.75,64.57Zm3.86,11.56h0a7.28,7.28,0,0,1-1,1.59l-1,1.3-.51-1.68a7,7,0,0,1-.37-1.78h.06a.77.77,0,0,1,.22,0,5.9,5.9,0,0,1,2.52.61h0ZM104.12,68H104c-.59,0-.93-.53-.93-1.48,0-.45.15-.67.34-.7s.72.42.82,1.19A1.23,1.23,0,0,1,104.12,68Zm.15-12.42a1.32,1.32,0,0,1-1.28,1c-.54.07-.88,0-1-.11h0l0,0v0h0v0c-.06-.26.2-.73.78-1.49a1.57,1.57,0,0,1,.94-.71C104.14,54.08,104.44,54.6,104.28,55.56Zm-2.74-7.46a1,1,0,0,1,1.13-.8h0a1,1,0,0,1,1.16.8c.11.62-.15.8-1.16.8-.57,0-.9-.06-1.06-.22A.64.64,0,0,1,101.53,48.09Zm-.36,16.48a5.05,5.05,0,0,1,.92,1.66c.36,1.26-.21,1.79-1.33,1.21a1.7,1.7,0,0,1-.8-2.68c.27-.42.43-.63.6-.65S100.89,64.26,101.17,64.57Zm-.91-8.88a4,4,0,0,1-.91.43h0l-1.17-.39-1-.35,1.17-.52a6.36,6.36,0,0,1,1.66-.52H100C101,54.35,101.12,55.19,100.26,55.7Zm-.82-8.14c.56,0,.79.29.79,1s-.33,1.12-1.86,1.51a5.55,5.55,0,0,1-2,.27h0c-.53-.59-.07-1.34,1.26-2A5.65,5.65,0,0,1,99.43,47.56Z"/></g></g></svg>
