<svg xmlns="http://www.w3.org/2000/svg" viewBox="0 0 200 134"><defs><style>.lc_cls-1{fill:#6ecaf3;}.lc_cls-2{fill:#fff;}.lc_cls-3{fill:#121212;}.lc_cls-4{fill:#fbd632;}</style></defs><title>Asset 69</title><g id="Layer_2" data-name="Layer 2"><g id="Layer_33" data-name="Layer 33"><path class="lc_cls-1" d="M183,0H17A17,17,0,0,0,0,17V117a17,17,0,0,0,17,17H183a17,17,0,0,0,17-17V17A17,17,0,0,0,183,0ZM144.72,122.5H55.28l.18-.22h-.18L100,11.73l44.72,110.55h-.18Z"/><polygon class="lc_cls-2" points="100 11.73 55.28 122.28 55.46 122.28 67.15 107.83 100 26.63 132.84 107.82 144.54 122.28 144.72 122.28 100 11.73"/><polygon class="lc_cls-3" points="132.84 107.82 100 26.63 67.15 107.83 100 67.23 132.84 107.82"/><polygon class="lc_cls-4" points="100 67.23 67.15 107.83 55.46 122.28 55.28 122.5 144.72 122.5 144.54 122.28 132.84 107.82 100 67.23"/></g></g></svg>
