<svg xmlns="http://www.w3.org/2000/svg" viewBox="0 0 200 134"><defs><style>.mr_cls-1{fill:#fbd632;}.mr_cls-2{fill:#2ab34b;}</style></defs><title>Asset 16</title><g id="Layer_2" data-name="Layer 2"><g id="Layer_85" data-name="Layer 85"><path class="mr_cls-1" d="M100,81A42,42,0,0,1,58,39.21a43.41,43.41,0,1,0,84,0A42,42,0,0,1,100,81Z"/><path class="mr_cls-2" d="M183,0H17A17,17,0,0,0,0,17V117a17,17,0,0,0,17,17H183a17,17,0,0,0,17-17V17A17,17,0,0,0,183,0ZM109.88,52.59,100,45.41l-9.88,7.18L93.9,41,84,33.8H96.23L100,22.19l3.77,11.61H116L106.1,41ZM100,93.6A43.43,43.43,0,0,1,58,39.21a42,42,0,0,0,84,0,43.43,43.43,0,0,1-42,54.4Z"/><polygon class="mr_cls-1" points="115.98 33.8 103.77 33.8 100 22.19 96.23 33.8 84.02 33.8 93.9 40.98 90.12 52.59 100 45.41 109.88 52.59 106.1 40.98 115.98 33.8"/></g></g></svg>
