<svg xmlns="http://www.w3.org/2000/svg" viewBox="0 0 200 134"><defs><style>.mv_cls-1{fill:#d32a40;}.mv_cls-2{fill:#fff;}.mv_cls-3{fill:#067f40;}</style></defs><title>Asset 12</title><g id="Layer_2" data-name="Layer 2"><g id="Layer_89" data-name="Layer 89"><path class="mv_cls-1" d="M183,0H17A17,17,0,0,0,0,17V117a17,17,0,0,0,17,17H183a17,17,0,0,0,17-17V17A17,17,0,0,0,183,0ZM167.31,100.66H32.69V33.35H167.31Z"/><path class="mv_cls-2" d="M108.41,89.43a22.46,22.46,0,0,0,4.21-.4,22.43,22.43,0,0,1,0-44.07,22.43,22.43,0,1,0-4.21,44.47Z"/><path class="mv_cls-3" d="M32.69,33.35v67.31H167.31V33.35Zm75.72,56.09A22.44,22.44,0,1,1,112.62,45a22.43,22.43,0,0,0,0,44.07A22.46,22.46,0,0,1,108.41,89.43Z"/></g></g></svg>
