<svg xmlns="http://www.w3.org/2000/svg" viewBox="0 0 200 134"><defs><style>.ni_cls-1{fill:#5f81c0;}.ni_cls-2{fill:#fafafa;}.ni_cls-3{fill:#fed208;}.ni_cls-4{fill:#70cddd;}.ni_cls-5{fill:#a65fa6;}.ni_cls-6{fill:#54429a;}.ni_cls-7{fill:#385daa;}.ni_cls-8{fill:#049f9f;}.ni_cls-9{fill:#f6eb16;}.ni_cls-10{fill:#f15822;}.ni_cls-11{fill:#ee2524;}.ni_cls-12{fill:#5167b0;}.ni_cls-13{fill:#6da842;}.ni_cls-14{fill:#febd11;}.ni_cls-15{fill:#ed2224;}</style></defs><title>Asset 32</title><g id="Layer_2" data-name="Layer 2"><g id="Layer_69" data-name="Layer 69"><path class="ni_cls-1" d="M0,117a17,17,0,0,0,17,17H183a17,17,0,0,0,17-17V89H0Z"/><path class="ni_cls-1" d="M183,0H17A17,17,0,0,0,0,17V45H200V17A17,17,0,0,0,183,0Z"/><polygon class="ni_cls-2" points="117.24 68.83 117.13 69.8 118.33 69.45 117.24 68.83"/><polygon class="ni_cls-2" points="113.71 78.71 114.28 77.92 113.06 77.64 113.71 78.71"/><polygon class="ni_cls-2" points="117.15 60.01 115.9 60.03 116.28 60.92 117.15 60.01"/><polygon class="ni_cls-2" points="113.51 54.24 112.33 54.65 112.99 55.37 113.51 54.24"/><path class="ni_cls-2" d="M115.62,57.58a.57.57,0,0,0,.16-.87c-.14-.24-.16-.27-.33-.17l-.84.5C114.94,57.55,115.23,57.81,115.62,57.58Z"/><polygon class="ni_cls-2" points="85.42 75.41 84.17 75.51 84.62 76.37 85.42 75.41"/><path class="ni_cls-2" d="M81.66,67.07c-.41,0-.58.29-.58.66s0,.31.19.31h1C82.24,67.45,82.12,67.07,81.66,67.07Z"/><path class="ni_cls-2" d="M92.15,82.09c.19-.37,0-.65-.32-.83s-.27-.14-.37,0l-.46.87C91.55,82.42,91.94,82.49,92.15,82.09Z"/><path class="ni_cls-2" d="M111,79.18c-.21.18-.23.2-.1.35l.65.73c.44-.42.63-.76.33-1.1A.57.57,0,0,0,111,79.18Z"/><polygon class="ni_cls-2" points="97.08 84.85 98.04 84.96 97.69 83.76 97.08 84.85"/><polygon class="ni_cls-2" points="93.17 49.63 93.14 50.88 94.04 50.52 93.17 49.63"/><path class="ni_cls-2" d="M98.34,50.27a.19.19,0,0,0,.22.19,1.14,1.14,0,0,0,1.25-1.3A1.18,1.18,0,0,0,98.41,48c-.2,0-.24,0-.22.23Z"/><path class="ni_cls-2" d="M85.18,56.93l.2-.28c.24-.35.24-.65,0-.85a.53.53,0,0,0-.73.09c-.24.3-.33.41-.21.49Z"/><path class="ni_cls-2" d="M85.32,57l.81.57c.12.08.2.1.38-.15s.33-.7-.07-1-.77.07-1,.39Z"/><path class="ni_cls-2" d="M81.94,61.83l1,.25c0-.06,0-.13.06-.2.11-.44,0-.78-.43-.9s-.68.22-.78.62C81.76,61.78,81.78,61.79,81.94,61.83Z"/><path class="ni_cls-2" d="M0,89H200V45H0ZM81,68.83h-.08V67.72c0-.7.25-1.11.75-1.11s.64.37.7.77l1-.82a.52.52,0,0,0,.24-.4h.08v.68l-1.3,1v.23h.95c.12,0,.26-.06.26-.37h.08v1.15H83.6c0-.29-.13-.36-.25-.36l-2.1,0C81.12,68.47,81,68.53,81,68.83Zm1.44,3.36a.63.63,0,1,1,.63.6A.61.61,0,0,1,82.43,72.19Zm1.74,5.64-.49-.95.07,0c.18.31.25.27.51,0l.25-.3-.51-1a3.14,3.14,0,0,0-.68.1c-.12.06-.09.21,0,.33l-.07,0-.38-.74.07,0c.14.22.46.18.9.14L86,75.19l0,.07-1.61,2c-.12.15-.3.34-.18.54ZM86.8,80.7,86,79.83l.06-.05c.2.23.35.19.44.1L88,78.51l-2.49.8,0,0,1-2.31-1.45,1.3c-.09.08-.15.22.08.47l-.06.05L84.41,78l.06-.05c.23.26.37.21.46.13l1.56-1.4c.09-.08.15-.22-.07-.47l.06-.05.55.62-.93,2.13,2.19-.72.56.62-.06.05c-.21-.23-.35-.19-.44-.1L86.8,80.2c-.09.08-.15.22.06.45ZM87,74.88,99.88,52.7l12.87,22.18Zm2,7.69-1.75-1.44.05-.06c.24.19.37.13.45,0l1.34-1.63c.08-.09.11-.24-.12-.43L89,79l1.72,1.41-.38.46-.07-.06a.47.47,0,0,0-.1-.63l-.52-.43a.16.16,0,0,0-.25,0l-.57.7.46.38c.22.18.45.27.66,0l.07.06-.62.76-.07-.06c.21-.25.07-.46-.14-.64l-.45-.38-.66.8c0,.06-.08.14,0,.2l.43.35a.77.77,0,0,0,1,.14l.09.07Zm3,1.75L91.42,84l-.28-1.61-.21-.1-.44.84c-.06.11-.06.26.21.4l0,.07-1-.54,0-.07c.26.14.38,0,.43-.06l1-1.86c.06-.11.06-.26-.19-.39l0-.07,1,.52c.61.33.87.74.64,1.17a.75.75,0,0,1-1,.27l.25,1.29a.51.51,0,0,0,.24.39Zm1.32.56-1.15-.49,0-.07c.32.14.43,0,.48-.07l.82-1.94c0-.11,0-.26-.28-.39l0-.07,1.15.49,0,.07c-.32-.13-.43,0-.48.08l-.82,1.94c0,.11,0,.26.28.39Zm1.59.59a1.36,1.36,0,0,1-1-1.8,1.39,1.39,0,0,1,1.79-1c.55.17.65.56.88.27l.08,0-.23.91-.1,0a.92.92,0,0,0-.64-1c-.66-.2-1.11.25-1.33,1a1.08,1.08,0,0,0,.6,1.45,1.28,1.28,0,0,0,1.06-.12l0,.1A1.47,1.47,0,0,1,94.92,85.48Zm4.07.68L97.93,86V86c.36,0,.36-.05.25-.44l-.11-.37L97,85a3.12,3.12,0,0,0-.3.62c0,.14.12.19.26.21v.08l-.82-.1v-.08c.26,0,.4-.28.62-.66l1.08-1.91h.08l.74,2.45c.05.18.11.44.35.46Zm2.73,0a1.36,1.36,0,0,1-1.51-1.37,1.39,1.39,0,0,1,1.36-1.51c.57,0,.8.31.92,0h.09l.08.94h-.1a.92.92,0,0,0-.94-.73c-.69,0-1,.6-.93,1.36,0,.59.36,1.21,1,1.17a1.29,1.29,0,0,0,1-.46l.07.08A1.47,1.47,0,0,1,101.72,86.14Zm4-.93-2.2.53,0-.08c.3-.07.33-.22.3-.34l-.49-2c0-.12-.12-.23-.42-.16l0-.08,2.16-.52.14.58-.09,0a.47.47,0,0,0-.56-.3l-.66.16a.16.16,0,0,0-.14.2l.21.88.57-.14c.27-.06.49-.19.41-.51l.09,0,.23,1-.09,0c-.08-.32-.33-.34-.6-.28l-.57.14.24,1c0,.07.06.15.14.13l.54-.13a.77.77,0,0,0,.73-.73l.11,0Zm2.86-1.11-2.61-1.41.74,1.77c0,.11.16.21.47.08l0,.07-.92.39,0-.07c.31-.13.32-.28.28-.39l-.83-2,0,0a.39.39,0,0,0-.42,0l0-.07.66-.28,2.27,1.23-.65-1.55c0-.11-.16-.21-.47-.08l0-.07.92-.39,0,.07c-.32.13-.32.28-.28.39l1,2.3Zm1.54-1,0-.06c.25-.18.22-.33.15-.42l-1.33-1.83c-.24.18-.52.35-.52.57a.88.88,0,0,0,.11.39l-.08.06-.4-.59,1.91-1.39.44.56-.08.06c-.4-.39-.56-.26-.8-.09l-.24.18,1.33,1.83c.07.1.2.17.45,0l0,.06Zm3.36-2.54-1.6-.3-.17.16.63.71c.08.09.21.15.44-.05l.05.06-.86.77-.05-.06c.22-.2.18-.34.1-.43l-1.4-1.57c-.08-.09-.22-.15-.44,0l-.05-.06.83-.74c.52-.46,1-.56,1.32-.19a.75.75,0,0,1-.1,1l1.3.21a.51.51,0,0,0,.45-.09l.05.06Zm1.72-2-.06,0c.2-.3.13-.34-.27-.43l-.38-.09-.64.89a3.28,3.28,0,0,0,.39.56c.11.08.23,0,.31-.13l.06,0-.49.67L114,80c.13-.22,0-.49-.28-.87l-1.14-1.87,0-.07,2.5.54c.18,0,.44.12.57-.08l.06,0Zm.77-1.07-.07,0c.16-.26.08-.38,0-.45L114,75.89c-.11-.06-.25-.08-.41.18l-.07,0,.61-1,.07,0c-.16.26-.08.38,0,.45l1.79,1.1c.1.06.22-.05.36-.27.28-.45.48-.76.12-1.26l.06-.09.52.55Zm.65-3.92a.6.6,0,1,1,.63-.6A.61.61,0,0,1,116.57,73.55Zm2.33-3.88-2.45.74c-.18.05-.44.11-.46.35h-.08l.13-1.06h.08c0,.36.05.36.44.25l.37-.11.13-1.09a3.27,3.27,0,0,0-.62-.3c-.14,0-.19.12-.21.26h-.08l.1-.82h.08c0,.26.28.4.66.62l1.91,1.08Zm.17-4.57h.08l0,1.17h-.08c0-.3-.13-.37-.25-.37l-1.41,0c-.65,0-.9.19-.91.71,0,.79.58.8,1,.8l1.32,0c.12,0,.26-.06.26-.39h.08l0,1H119c0-.33-.13-.4-.25-.4l-1.32,0c-.47,0-.84-.05-1.06-.53a1.46,1.46,0,0,1-.1-.54c0-.76.37-1.07,1.14-1.06l1.38,0C118.94,65.47,119.08,65.41,119.08,65.1Zm-.31-1.82c.08.5-.17.88.15.93v.09l-.87.18,0-.1a.93.93,0,0,0,.56-1c-.11-.69-.74-.89-1.46-.78a1.1,1.1,0,0,0-1.05,1.24,1.19,1.19,0,0,0,.17.45c.08.11.1.11.22.09l.62-.1c.24,0,.37-.08.31-.42h.08l.17,1.06h-.08c0-.27-.18-.27-.42-.23l-.79.13a2.51,2.51,0,0,1-.46-1,1.45,1.45,0,1,1,2.85-.51Zm-1-3.37L116,61.78c-.13.14-.32.32-.22.53l-.07,0-.43-1,.07,0c.16.32.23.29.51,0l.27-.28-.44-1a3.12,3.12,0,0,0-.69.05c-.13.06-.1.2,0,.33l-.07,0-.33-.76.07,0c.13.23.45.21.89.2l2.19,0Zm-2.46-4.18.07,0,.56,1c.35.6.36,1.08-.06,1.33a.75.75,0,0,1-1-.29l-.46,1.24a.52.52,0,0,0,0,.46l-.07,0-.34-.58.61-1.52-.13-.2-.81.48c-.11.06-.19.19,0,.45l-.07,0-.59-1,.07,0c.15.25.3.24.4.18l1.81-1.07C115.36,56.1,115.44,56,115.29,55.72Zm-1.23-1.78-1,2.33c-.08.17-.2.4,0,.57l-.06.05-.72-.79.06-.05c.25.25.31.2.48-.17l.16-.35-.74-.81a3.07,3.07,0,0,0-.63.27c-.1.09,0,.22.06.33l-.06.05-.56-.61.06-.05c.19.18.49.05.91-.09l2.07-.73Zm-2.27-2c.44.37.38.77.71.59l.07.06-.57.75-.08-.06a.92.92,0,0,0-.2-1.18c-.53-.44-1.12-.21-1.6.37a1.08,1.08,0,0,0,0,1.57,1.28,1.28,0,0,0,1,.31v.11a1.46,1.46,0,0,1-1.17-.3,1.36,1.36,0,0,1-.18-2A1.39,1.39,0,0,1,111.79,51.92Zm-2.71-1.74,1.09.67,0,.07c-.3-.19-.42-.1-.48,0l-1,1.79c-.06.1-.07.25.23.44l0,.07-1.09-.66,0-.07c.3.19.43.11.48,0l1-1.79c.06-.1.07-.25-.23-.44Zm-4,1.07c.32.13.43,0,.47-.08l.82-2v-.05c-.06-.19-.08-.23-.27-.32l0-.07.66.28.71,2.48.65-1.55c0-.11,0-.26-.28-.39l0-.07.92.39,0,.07c-.32-.13-.43,0-.47.08l-1,2.3-.06,0-.82-2.85-.74,1.77c0,.11,0,.26.27.39l0,.07-.92-.39Zm-4.72-3.41,2.22.15,0,.6h-.09a.47.47,0,0,0-.45-.46l-.67,0a.17.17,0,0,0-.2.15l-.06.9.59,0c.28,0,.52,0,.54-.37h.09l-.07,1h-.09c0-.33-.21-.42-.49-.44l-.59,0-.07,1c0,.07,0,.16.1.17l.55,0a.77.77,0,0,0,.91-.47h.12l-.24.69-2.26-.15v-.08c.31,0,.38-.11.39-.23l.14-2.1c0-.12,0-.26-.35-.28Zm-1.88,0c1.07-.08,1.75.32,1.83,1.26s-.46,1.42-1.58,1.51l-1.11.09v-.08c.3,0,.36-.16.35-.28l-.16-2.1c0-.12-.08-.25-.39-.23v-.08ZM93,51.24,93,49l.08,0,1.81,1.8c.13.13.31.33.52.23l0,.07-1,.39,0-.07c.32-.15.29-.22,0-.51l-.27-.28-1,.4a3.18,3.18,0,0,0,0,.69c.05.13.2.11.33.06l0,.07-.77.3,0-.07C93,52,93,51.68,93,51.24Zm-2.9-.81c.49-.3.85-.11.79-.47l.07,0,.52.79-.09.05a.92.92,0,0,0-1.18-.19c-.59.36-.56,1-.17,1.63a1.08,1.08,0,0,0,1.48.53,1.29,1.29,0,0,0,.62-.87l.1,0a1.48,1.48,0,0,1-.66,1,1.36,1.36,0,0,1-2-.49A1.39,1.39,0,0,1,90.06,50.43ZM88.49,51.6l.05.06c-.27.22-.23.37-.15.46l1.33,1.63c.08.09.21.16.48-.06l.05.06-1,.79-.05-.06c.27-.22.23-.37.15-.46l-1.33-1.63c-.08-.09-.21-.16-.48.06l-.05-.06Zm-2.17,2,.06.05c-.21.22-.16.36-.07.45l1.53,1.45c.09.08.23,0,.41-.19.37-.39.63-.65.38-1.21l.07-.08.39.65-1.55,1.64-.06-.06c.21-.22.15-.36.07-.44L86,54.44c-.09-.08-.23-.13-.44.09l-.06-.05Zm-2,2.34c.37-.53.8-.84,1.24-.53a.61.61,0,0,1,.18.81.76.76,0,0,1,1-.17c.41.29.37.79,0,1.33L86,58.49l-.07,0c.2-.28.12-.41,0-.48l-1.72-1.21c-.1-.07-.24-.1-.44.18l-.07,0Zm-1.62,2.88.07,0c-.14.27-.06.39.05.45l1.24.67c.58.31.89.25,1.14-.21.37-.69-.15-1-.5-1.16L83.55,58c-.11-.06-.26-.06-.41.23l-.07,0,.46-.86.07,0c-.16.29-.07.41,0,.47l1.16.63c.42.22.72.44.7,1a1.48,1.48,0,0,1-.16.53.94.94,0,0,1-1.49.41l-1.21-.65c-.11-.06-.25-.07-.4.2l-.07,0Zm-1,2.63c.16-.63.51-1.06,1-.94s.68.72.55,1.24c0,.12-.07.23-.11.35l.87.22c.12,0,.26,0,.34-.3l.08,0L84.1,63.2l-.08,0c.07-.3,0-.39-.16-.42l-2-.52c-.12,0-.26,0-.33.27l-.08,0Zm.19,1.8,0,.09a.47.47,0,0,0-.51.38l-.13.66a.16.16,0,0,0,.12.21l.88.18.12-.58c.05-.28,0-.52-.29-.59l0-.09,1,.19,0,.08c-.32-.06-.45.16-.5.43l-.11.58,1,.2c.07,0,.17,0,.18-.08l.11-.54a.77.77,0,0,0-.36-1l0-.12.66.32-.44,2.22-.08,0c.06-.3-.06-.39-.18-.41L81.24,65c-.12,0-.26,0-.32.31l-.08,0,.43-2.18Z"/><path class="ni_cls-3" d="M99.88,52.7,87,74.88h25.74Zm-8.3,15.9h0l2.92-5.05h0l.36-.63.36-.63,0-.06h0l.34-.57h0l.36-.63.36-.63h0l.36-.63h0l.19-.3,3.07-5.33,2.88,5h0l.36.63.36.63.36.63.36.63.36.63.36.63.36.63h0l2.92,5.05h0l3.26,5.65H88.32Z"/><path class="ni_cls-4" d="M97.06,59.13a4.79,4.79,0,0,1,2.86-.7h0a5.07,5.07,0,0,1,2.88.7l-2.88-5-3.07,5.33,0,0Z"/><path class="ni_cls-4" d="M94.74,67.24a.19.19,0,0,1,.16-.06c.33,0,.49.72.87,1.42h.31a5.37,5.37,0,0,1,.66-1.36.19.19,0,0,1,.16-.06c.33,0,.49.72.88,1.42h1a4.9,4.9,0,0,1,.63-1.3.19.19,0,0,1,.16-.06c.32,0,.49.68.85,1.37h.74a4.88,4.88,0,0,1,.63-1.3.19.19,0,0,1,.16-.06c.32,0,.49.68.85,1.37h.74a4.9,4.9,0,0,1,.63-1.3.19.19,0,0,1,.16-.06c.32,0,.49.68.85,1.37h3.07l-2.92-5.05a16,16,0,0,0-5.42-.92,15.69,15.69,0,0,0-5.42.92l-2.92,5.05h2.5A5.44,5.44,0,0,1,94.74,67.24Zm4.59-3a1,1,0,0,1,.34-.12,1.28,1.28,0,0,1,.34,0c.16,0,.17.06.26.14a2.7,2.7,0,0,1,.18.24,1,1,0,0,1,.13.18c0,.06.08.16.13.24a1,1,0,0,1,.05.28.6.6,0,0,1-.05.24.64.64,0,0,1-.31,0c-.08-.06-.23,0-.29-.08s-.19-.15-.26-.22-.05-.1-.1-.16-.09-.1-.13-.18.09-.11.18-.14a.22.22,0,0,0,.08-.18c0-.12-.07-.1-.21-.12l-.41,0S99.28,64.25,99.33,64.2Z"/><polygon class="ni_cls-5" points="95.25 62.22 95.21 62.29 95.25 62.22 95.25 62.22"/><path class="ni_cls-5" d="M105.34,63.54h0l-.36-.63a23.24,23.24,0,0,0-5.07-.74,21.55,21.55,0,0,0-5.07.74l.36-.63-.36.63-.36.63h0a15.69,15.69,0,0,1,5.42-.92A16,16,0,0,1,105.34,63.54Z"/><polygon class="ni_cls-6" points="103.55 60.4 103.91 61.03 104.27 61.66 103.91 61.03 103.55 60.4 103.19 59.77 102.82 59.15 102.82 59.15 103.18 59.77 103.55 60.4"/><path class="ni_cls-6" d="M99.92,62.17a23.24,23.24,0,0,1,5.07.74l-.36-.63-.36-.63.36.63a21.83,21.83,0,0,0-4.71-.62,25.88,25.88,0,0,0-4.68.55l0,.06-.36.63A21.55,21.55,0,0,1,99.92,62.17Z"/><path class="ni_cls-7" d="M99.92,61.67a21.83,21.83,0,0,1,4.71.62l-.36-.63-.36-.63h0l.36.63a20.2,20.2,0,0,0-4.35-.51,17.54,17.54,0,0,0-4.35.51h0l-.34.57h0A25.88,25.88,0,0,1,99.92,61.67Z"/><path class="ni_cls-8" d="M99.92,61.15a20.2,20.2,0,0,1,4.35.51l-.36-.63h0a23.34,23.34,0,0,0-4-.32,21.11,21.11,0,0,0-4,.32l.36-.63h0l-.36.63-.36.63h0A17.54,17.54,0,0,1,99.92,61.15Z"/><path class="ni_cls-9" d="M99.92,58.44a5,5,0,0,1,2.9.71h0a5.07,5.07,0,0,0-2.88-.7Z"/><path class="ni_cls-9" d="M99.9,60.13a19.72,19.72,0,0,0-3.6.27h0l-.36.63a21.11,21.11,0,0,1,4-.32,23.34,23.34,0,0,1,4,.32h0l-.36-.63A19.92,19.92,0,0,0,99.9,60.13Z"/><polygon class="ni_cls-9" points="103.18 59.77 103.55 60.4 103.18 59.77 102.82 59.15 102.82 59.15 103.18 59.77"/><path class="ni_cls-10" d="M99.9,60.13a19.92,19.92,0,0,1,3.64.27l-.36-.63-.36-.63a5,5,0,0,0-2.9-.71h0a4.79,4.79,0,0,0-2.86.7l-.18.29.18-.29a4.8,4.8,0,0,1,2.86-.7,5,5,0,0,1,2.9.71l.36.63a10.73,10.73,0,0,0-3.2-.32,16.08,16.08,0,0,0-3.32.32l-.36.63h0A19.72,19.72,0,0,1,99.9,60.13Z"/><path class="ni_cls-11" d="M100,59.46a10.73,10.73,0,0,1,3.2.32l-.36-.63a5,5,0,0,0-2.9-.71,4.8,4.8,0,0,0-2.86.7l-.18.29,0,0-.19.3h0A16.08,16.08,0,0,1,100,59.46Z"/><path class="ni_cls-12" d="M108.26,68.59h-3.07a2.57,2.57,0,0,0,1,1.14l.84.41a8.55,8.55,0,0,0,1,.4l-.14,0,1.62.73-2.43,0,.06,0-2.43,0,.06,0L95,71.15h0l-4.71-.05a7.32,7.32,0,0,0,3-1.31,3.45,3.45,0,0,0,.87-1.2h-2.5l-3.26,5.65h23.2Z"/><path class="ni_cls-12" d="M96.09,68.59h-.31c.05.09.11.18.17.27Z"/><path class="ni_cls-12" d="M98.8,68.59h-1a3,3,0,0,0,.57.77A4.35,4.35,0,0,0,98.8,68.59Z"/><path class="ni_cls-12" d="M103.55,68.59h-.74a3.46,3.46,0,0,0,.4.6A4.61,4.61,0,0,0,103.55,68.59Z"/><path class="ni_cls-12" d="M101.18,68.59h-.74a3.5,3.5,0,0,0,.4.6A4.44,4.44,0,0,0,101.18,68.59Z"/><path class="ni_cls-13" d="M104.86,69.19c-.36-.93-.86-1.69-.69-1.9a4.9,4.9,0,0,0-.63,1.3,4.61,4.61,0,0,1-.34.6,2.12,2.12,0,0,0,.65.55l.83.41a8.58,8.58,0,0,0,1,.41l-.15,0,1.56.7,2.43,0-1.62-.73-1-.14C104,69.08,105.71,69.74,104.86,69.19Z"/><path class="ni_cls-13" d="M106.23,69.74l.84.41Z"/><path class="ni_cls-14" d="M104.33,67.23a.19.19,0,0,0-.16.06c-.17.21.33,1,.69,1.9.84.54-.84-.11,2,1.2l1,.14.14,0a8.55,8.55,0,0,1-1-.4l-.84-.41a2.57,2.57,0,0,1-1-1.14C104.82,67.91,104.65,67.23,104.33,67.23Z"/><path class="ni_cls-13" d="M104.49,70.39c-2.85-1.31-1.16-.65-2-1.2-.36-.93-.86-1.69-.68-1.9a4.88,4.88,0,0,0-.63,1.3,4.44,4.44,0,0,1-.34.6,2.11,2.11,0,0,0,.65.55l.84.41a8.44,8.44,0,0,0,1,.4l-.14,0,1.56.7,2.43,0-.06,0-1.56-.7Z"/><path class="ni_cls-13" d="M103.86,69.74l.83.41Z"/><path class="ni_cls-14" d="M102.49,69.19c.84.54-.84-.11,2,1.2l1,.14.15,0a8.58,8.58,0,0,1-1-.41l-.83-.41a2.12,2.12,0,0,1-.65-.55,3.46,3.46,0,0,1-.4-.6c-.36-.68-.53-1.37-.85-1.37a.19.19,0,0,0-.16.06C101.63,67.5,102.13,68.27,102.49,69.19Z"/><path class="ni_cls-13" d="M103.13,70.53l-1-.14c-2.85-1.31-1.16-.65-2-1.2-.36-.93-.86-1.69-.69-1.9a4.9,4.9,0,0,0-.63,1.3,4.35,4.35,0,0,1-.45.77,2,2,0,0,0,.45.32l.84.42a9,9,0,0,0,1,.4l-.14,0,1.62.73-2.05,0,.05,0L95,71.15h0l9.8.11-.06,0Z"/><path class="ni_cls-13" d="M102.33,70.15l-.84-.41Z"/><path class="ni_cls-14" d="M100.12,69.19c.84.54-.84-.11,2,1.2l1,.14.14,0a8.44,8.44,0,0,1-1-.4l-.84-.41a2.11,2.11,0,0,1-.65-.55,3.5,3.5,0,0,1-.4-.6c-.36-.68-.53-1.37-.85-1.37a.19.19,0,0,0-.16.06C99.26,67.5,99.76,68.27,100.12,69.19Z"/><path class="ni_cls-13" d="M96.79,69.68l.84.42a9.17,9.17,0,0,0,.95.4l-.14,0,1.57.71,2.05,0-1.62-.73-1-.14c-2.85-1.31-1.16-.65-2-1.2-.36-.93-.86-1.69-.68-1.9a5.37,5.37,0,0,0-.66,1.36l-.14.27A2.31,2.31,0,0,0,96.79,69.68Z"/><path class="ni_cls-13" d="M98.8,69.68l.84.42Z"/><path class="ni_cls-14" d="M97.43,69.14c.84.54-.84-.11,2,1.2l1,.14.14,0a9,9,0,0,1-1-.4l-.84-.42a2,2,0,0,1-.45-.32,3,3,0,0,1-.57-.77c-.38-.7-.55-1.42-.88-1.42a.19.19,0,0,0-.16.06C96.57,67.45,97.07,68.21,97.43,69.14Z"/><path class="ni_cls-13" d="M100,71.19l-1.57-.71-1-.14c-2.85-1.31-1.16-.65-2-1.2-.36-.93-.86-1.69-.69-1.9a5.44,5.44,0,0,0-.66,1.36,3.45,3.45,0,0,1-.87,1.2,7.32,7.32,0,0,1-3,1.31l4.71.05,5.1.06Z"/><path class="ni_cls-13" d="M96.79,69.68l.84.42Z"/><path class="ni_cls-14" d="M95.43,69.14c.84.54-.84-.11,2,1.2l1,.14.14,0a9.17,9.17,0,0,1-.95-.4l-.84-.42a2.31,2.31,0,0,1-.85-.82c-.06-.09-.12-.18-.17-.27-.38-.7-.55-1.42-.87-1.42a.19.19,0,0,0-.16.06C94.57,67.45,95.07,68.21,95.43,69.14Z"/><path class="ni_cls-15" d="M99.87,64.42a.22.22,0,0,1-.08.18c-.09,0-.15.05-.18.14s0,.13.13.18.05.1.1.16.11.21.26.22.2,0,.29.08a.64.64,0,0,0,.31,0,.6.6,0,0,0,.05-.24,1,1,0,0,0-.05-.28c-.05-.09-.09-.18-.13-.24a1,1,0,0,0-.13-.18,2.7,2.7,0,0,0-.18-.24c-.09-.08-.1-.13-.26-.14a1.28,1.28,0,0,0-.34,0,1,1,0,0,0-.34.12c0,.06-.06.12-.08.12l.41,0C99.8,64.32,99.85,64.3,99.87,64.42Z"/><path class="ni_cls-3" d="M117.44,65.44c-.77,0-1.12.29-1.14,1.06a1.46,1.46,0,0,0,.1.54c.22.48.59.53,1.06.53l1.32,0c.12,0,.26.07.25.4h.08l0-1h-.08c0,.33-.14.39-.26.39l-1.32,0c-.4,0-1,0-1-.8,0-.52.26-.72.91-.71l1.41,0c.12,0,.25.07.25.37h.08l0-1.17h-.08c0,.31-.14.37-.26.37Z"/><path class="ni_cls-3" d="M117.11,62.09a1.41,1.41,0,0,0-1.19,1.7,2.51,2.51,0,0,0,.46,1l.79-.12c.24,0,.37,0,.42.23h.08l-.17-1.06h-.08c.05.35-.08.39-.31.42l-.62.1c-.12,0-.14,0-.22-.09a1.19,1.19,0,0,1-.17-.45,1.1,1.1,0,0,1,1.05-1.24c.72-.12,1.35.09,1.46.78a.93.93,0,0,1-.56,1l0,.1.87-.18v-.09c-.32-.05-.07-.43-.15-.93A1.41,1.41,0,0,0,117.11,62.09Z"/><path class="ni_cls-3" d="M109.76,52.11a1.36,1.36,0,0,0,.18,2,1.46,1.46,0,0,0,1.17.3v-.11a1.28,1.28,0,0,1-1-.31,1.08,1.08,0,0,1,0-1.57c.48-.58,1.07-.82,1.6-.37a.92.92,0,0,1,.2,1.18l.08.06.57-.75-.07-.06c-.32.17-.26-.23-.71-.59A1.39,1.39,0,0,0,109.76,52.11Z"/><path class="ni_cls-3" d="M109.27,50.68l-1,1.79c-.06.1-.18.18-.48,0l0,.07,1.09.66,0-.07c-.3-.19-.29-.33-.23-.44l1-1.79c.06-.1.18-.18.48,0l0-.07-1.09-.67,0,.07C109.34,50.43,109.33,50.58,109.27,50.68Z"/><path class="ni_cls-3" d="M106,51.63c-.31-.13-.32-.28-.27-.39l.74-1.77.82,2.85.06,0,1-2.3c0-.11.16-.21.47-.08l0-.07-.92-.39,0,.07c.32.13.32.28.28.39l-.65,1.55L106.75,49l-.66-.28,0,.07c.19.08.21.13.27.32v.05l-.82,2c0,.11-.16.21-.47.08l0,.07.92.39Z"/><path class="ni_cls-3" d="M100.67,48.2l-.14,2.1c0,.12-.08.25-.39.23v.08l2.26.15.24-.69h-.12a.77.77,0,0,1-.91.47l-.55,0c-.08,0-.1-.1-.1-.17l.07-1,.59,0c.28,0,.51.12.49.44h.09l.07-1h-.09c0,.33-.27.38-.54.37l-.59,0,.06-.9a.17.17,0,0,1,.2-.15l.67,0a.47.47,0,0,1,.45.46h.09l0-.6-2.22-.15v.08C100.62,47.94,100.68,48.08,100.67,48.2Z"/><path class="ni_cls-3" d="M91.57,52.9a1.48,1.48,0,0,0,.66-1l-.1,0a1.29,1.29,0,0,1-.62.87A1.08,1.08,0,0,1,90,52.19c-.39-.64-.43-1.28.17-1.63a.92.92,0,0,1,1.18.19l.09-.05-.52-.79-.07,0c.06.36-.3.18-.79.47a1.39,1.39,0,0,0-.47,2A1.36,1.36,0,0,0,91.57,52.9Z"/><path class="ni_cls-3" d="M88.06,52.39,89.39,54c.08.09.12.24-.15.46l.05.06,1-.79-.05-.06c-.27.22-.4.16-.48.06l-1.33-1.63c-.08-.09-.11-.24.15-.46l-.05-.06-1,.79.05.06C87.85,52.24,88,52.3,88.06,52.39Z"/><path class="ni_cls-3" d="M86,54.44l1.53,1.45c.09.08.14.22-.07.44l.06.06,1.55-1.64-.39-.65-.07.08c.26.56,0,.82-.38,1.21-.18.19-.32.27-.41.19l-1.53-1.45c-.09-.08-.14-.22.07-.45l-.06-.05-.8.85.06.05C85.79,54.31,85.93,54.36,86,54.44Z"/><path class="ni_cls-3" d="M82.63,59.71l1.21.65a.94.94,0,0,0,1.49-.41,1.48,1.48,0,0,0,.16-.53c0-.52-.28-.74-.7-1l-1.16-.63c-.11-.06-.2-.18,0-.47l-.07,0-.46.86.07,0c.16-.29.3-.28.41-.23l1.16.63c.35.19.87.47.5,1.16-.25.46-.56.52-1.14.21l-1.24-.67c-.11-.06-.2-.18-.05-.45l-.07,0-.55,1,.07,0C82.38,59.64,82.53,59.65,82.63,59.71Z"/><path class="ni_cls-3" d="M80.92,65.36c.06-.3.2-.34.32-.31l2.06.41c.12,0,.24.11.18.41l.08,0L84,63.66l-.66-.32,0,.12a.77.77,0,0,1,.36,1l-.11.54c0,.08-.11.09-.18.08l-1-.2.11-.58c.05-.28.18-.5.5-.43l0-.08-1-.19,0,.09c.32.06.35.31.29.59l-.12.58-.88-.18a.16.16,0,0,1-.12-.21l.13-.66a.47.47,0,0,1,.51-.38l0-.09-.59-.12-.43,2.18Z"/><path class="ni_cls-3" d="M83.6,68.86h.08V67.7h-.08c0,.3-.14.37-.26.37h-.95v-.23l1.3-1v-.68h-.08a.52.52,0,0,1-.24.4l-1,.82c-.05-.39-.25-.76-.7-.77s-.74.41-.75,1.11v1.11H81c0-.29.14-.36.26-.35l2.1,0C83.47,68.5,83.6,68.56,83.6,68.86ZM81.27,68c-.2,0-.2,0-.19-.31s.17-.67.58-.66.57.38.59,1Z"/><path class="ni_cls-3" d="M81.82,62.24l2,.52c.12,0,.23.12.16.42l.08,0,.29-1.13-.08,0c-.07.3-.22.33-.34.3l-.87-.22c0-.12.08-.23.11-.35.13-.52.05-1.09-.55-1.24s-.83.31-1,.94l-.26,1,.08,0C81.56,62.24,81.71,62.21,81.82,62.24Zm0-.64c.1-.39.32-.73.78-.62s.54.46.43.9c0,.06,0,.13-.06.2l-1-.25C81.78,61.79,81.76,61.78,81.8,61.61Z"/><path class="ni_cls-3" d="M84.19,56.75,85.91,58c.1.07.17.2,0,.48l.07,0,.76-1.08c.38-.54.42-1,0-1.33a.76.76,0,0,0-1,.17.61.61,0,0,0-.18-.81c-.44-.31-.87,0-1.24.53l-.65.92.07,0C83.95,56.66,84.09,56.68,84.19,56.75Zm2.24-.29c.4.28.32.62.07,1s-.26.24-.38.15L85.32,57l.12-.17C85.66,56.53,86,56.17,86.44,56.46Zm-1.83-.57a.53.53,0,0,1,.73-.09c.28.2.28.5,0,.85l-.2.28-.78-.55C84.28,56.29,84.37,56.19,84.61,55.89Z"/><path class="ni_cls-3" d="M97.76,48.25l.16,2.1c0,.12,0,.26-.35.28v.08l1.11-.09c1.12-.09,1.64-.66,1.58-1.51s-.76-1.34-1.83-1.26l-1.08.08V48C97.67,48,97.75,48.13,97.76,48.25Zm.65-.23a1.18,1.18,0,0,1,1.4,1.14,1.14,1.14,0,0,1-1.25,1.3.19.19,0,0,1-.22-.19l-.16-2C98.17,48,98.21,48,98.41,48Z"/><path class="ni_cls-3" d="M115.25,56.16l-1.81,1.07c-.11.06-.25.08-.4-.18l-.07,0,.59,1,.07,0c-.16-.26-.07-.38,0-.45l.81-.48.13.2L114,58.83l.34.58.07,0a.52.52,0,0,1,0-.46l.46-1.24a.75.75,0,0,0,1,.29c.42-.25.42-.73.06-1.33l-.56-1-.07,0C115.44,56,115.36,56.1,115.25,56.16Zm.2.38c.17-.1.19-.07.33.17a.57.57,0,0,1-.16.87c-.39.23-.69,0-1-.54Z"/><path class="ni_cls-3" d="M111,54.7l-.06.05.56.61.06-.05c-.1-.11-.16-.24-.06-.33a3.07,3.07,0,0,1,.63-.27l.74.81-.16.35c-.17.37-.22.42-.48.17l-.06.05.72.79.06-.05c-.17-.17,0-.4,0-.57l1-2.33-.05-.06-2.07.73C111.52,54.76,111.22,54.88,111,54.7Zm2.48-.46L113,55.37l-.65-.72Z"/><path class="ni_cls-3" d="M114.64,59.66l-.07,0,.33.76.07,0c-.06-.13-.08-.28,0-.33a3.12,3.12,0,0,1,.69-.05l.44,1-.27.28c-.28.3-.35.33-.51,0l-.07,0,.43,1,.07,0c-.11-.21.09-.39.22-.53l1.73-1.88,0-.08-2.19,0C115.09,59.87,114.77,59.89,114.64,59.66Zm2.5.35-.86.91L115.9,60Z"/><path class="ni_cls-3" d="M116.35,67.88h-.08l-.1.82h.08c0-.14.07-.28.21-.26a3.27,3.27,0,0,1,.62.3l-.13,1.09-.37.11c-.39.12-.47.11-.44-.25h-.08l-.12,1.06H116c0-.23.28-.29.46-.35l2.45-.74v-.08L117,68.5C116.63,68.29,116.34,68.14,116.35,67.88Zm.89,1,1.09.62-1.2.35Z"/><path class="ni_cls-3" d="M93.53,51.89l0-.07c-.13.05-.28.07-.33-.06a3.18,3.18,0,0,1,0-.69l1-.4.27.28c.29.29.32.36,0,.51l0,.07,1-.39,0-.07c-.21.1-.39-.1-.52-.23L93.08,49,93,49l0,2.19c0,.44,0,.77-.23.88l0,.07Zm-.36-2.26.88.89-.9.36Z"/><path class="ni_cls-3" d="M116.53,75.09c.37.5.16.81-.12,1.26-.14.22-.26.33-.36.27l-1.79-1.1c-.1-.06-.18-.19,0-.45l-.07,0-.61,1,.07,0c.16-.26.31-.24.41-.18l1.79,1.1c.1.06.19.19,0,.45l.07,0,1.18-1.92-.52-.55Z"/><path class="ni_cls-3" d="M110.53,82.33l-1.33-1.83.24-.18c.24-.17.4-.3.8.09l.08-.06-.44-.56L108,81.17l.4.59.08-.06a.88.88,0,0,1-.11-.39c0-.21.27-.39.52-.57l1.33,1.83c.07.1.1.24-.15.42l0,.06.94-.69,0-.06C110.74,82.5,110.61,82.43,110.53,82.33Z"/><path class="ni_cls-3" d="M107.92,81.39l0-.07-.92.39,0,.07c.32-.13.43,0,.47.08l.65,1.55-2.27-1.23-.66.28,0,.07a.39.39,0,0,1,.42,0l0,0,.83,2c0,.11,0,.26-.28.39l0,.07.92-.39,0-.07c-.32.13-.43,0-.47-.08l-.74-1.77,2.61,1.41.06,0-1-2.3C107.59,81.67,107.6,81.52,107.92,81.39Z"/><path class="ni_cls-3" d="M104.87,85.23l-.54.13c-.08,0-.13-.06-.14-.13l-.24-1,.57-.14c.27-.07.52,0,.6.28l.09,0-.23-1-.09,0c.08.32-.14.45-.41.51l-.57.14-.21-.88a.16.16,0,0,1,.14-.2l.66-.16a.47.47,0,0,1,.56.3l.09,0-.14-.58-2.16.52,0,.08c.3-.07.39,0,.42.16l.49,2c0,.12,0,.27-.3.34l0,.08,2.2-.53,0-.73-.11,0A.77.77,0,0,1,104.87,85.23Z"/><path class="ni_cls-3" d="M101.75,86c-.69,0-1-.59-1-1.17,0-.75.23-1.32.93-1.36a.92.92,0,0,1,.94.73h.1l-.08-.94h-.09c-.12.35-.35,0-.92,0a1.39,1.39,0,0,0-1.36,1.51,1.36,1.36,0,0,0,1.51,1.38,1.47,1.47,0,0,0,1.06-.57l-.07-.08A1.29,1.29,0,0,1,101.75,86Z"/><path class="ni_cls-3" d="M95,85.31a1.08,1.08,0,0,1-.6-1.45c.22-.72.66-1.17,1.33-1a.92.92,0,0,1,.64,1l.1,0,.23-.91-.08,0c-.23.29-.33-.11-.88-.27a1.39,1.39,0,0,0-1.79,1,1.36,1.36,0,0,0,1,1.8,1.47,1.47,0,0,0,1.19-.19l0-.1A1.28,1.28,0,0,1,95,85.31Z"/><path class="ni_cls-3" d="M93.08,84.42l.82-1.94c0-.11.16-.21.48-.08l0-.07-1.15-.49,0,.07c.32.13.33.28.28.39l-.82,1.94c0,.11-.16.21-.48.07l0,.07,1.15.49,0-.07C93,84.67,93,84.53,93.08,84.42Z"/><path class="ni_cls-3" d="M88.48,81.92l-.43-.35c-.07-.05,0-.14,0-.2l.66-.8.45.38c.22.18.35.39.14.64l.07.06L90,80.9,90,80.84c-.21.25-.44.16-.66,0l-.46-.38.57-.7a.16.16,0,0,1,.25,0l.52.43a.47.47,0,0,1,.1.63l.07.06.38-.46L89,79,89,79c.24.2.2.34.12.43l-1.34,1.63c-.08.09-.21.16-.45,0l-.05.06L89,82.57l.6-.43-.09-.07A.77.77,0,0,1,88.48,81.92Z"/><path class="ni_cls-3" d="M86.8,80.2l1.56-1.41c.09-.08.23-.12.44.1l.06-.05-.56-.62-2.19.72L87,76.81l-.55-.62-.06.05c.22.25.16.38.07.47l-1.56,1.4c-.09.08-.23.13-.46-.13l-.06.05.67.74.06-.05c-.23-.25-.17-.39-.08-.47L86.51,77l-1,2.31,0,0,2.49-.8-1.53,1.37c-.09.08-.23.12-.44-.1l-.06.05.78.87.06-.05C86.65,80.42,86.71,80.28,86.8,80.2Z"/><path class="ni_cls-3" d="M91.56,82.56a.75.75,0,0,0,1-.27c.23-.43,0-.85-.64-1.17l-1-.52,0,.07c.26.14.25.29.19.39l-1,1.86c-.06.11-.17.2-.43.06l0,.07,1,.54,0-.07c-.27-.14-.26-.29-.21-.4l.44-.84.21.1L91.42,84l.59.32,0-.07a.51.51,0,0,1-.24-.39ZM91,82.16l.46-.87c.09-.17.12-.16.37,0s.52.46.32.83S91.55,82.42,91,82.16Z"/><path class="ni_cls-3" d="M98.65,85.63l-.74-2.45h-.08l-1.08,1.91c-.22.38-.36.67-.62.66v.08l.82.1v-.08c-.14,0-.28-.07-.26-.21A3.12,3.12,0,0,1,97,85l1.09.13.11.37c.11.39.11.47-.25.44V86l1.06.13v-.08C98.77,86.07,98.71,85.81,98.65,85.63Zm-1.57-.78.62-1.09L98,85Z"/><path class="ni_cls-3" d="M84.42,77.25l1.61-2,0-.07-2.19.18c-.44,0-.76.08-.9-.14l-.07,0,.38.74.07,0c-.07-.13-.1-.27,0-.33a3.14,3.14,0,0,1,.68-.1l.51,1-.25.3c-.26.31-.33.35-.51,0l-.07,0,.49.95.07,0C84.12,77.59,84.3,77.4,84.42,77.25Zm-.24-1.74,1.24-.1-.8,1Z"/><path class="ni_cls-3" d="M113.44,80.1l-1.3-.21a.75.75,0,0,0,.1-1c-.33-.37-.8-.27-1.32.19l-.83.74.05.06c.22-.2.36-.14.44,0l1.4,1.57c.08.09.12.23-.1.43l.05.06.86-.77-.05-.06c-.23.21-.36.15-.44.05l-.63-.71.17-.16,1.6.3.5-.45-.05-.06A.51.51,0,0,1,113.44,80.1Zm-1.87.16-.65-.73c-.13-.15-.1-.17.1-.35a.57.57,0,0,1,.88,0C112.2,79.51,112,79.85,111.57,80.27Z"/><path class="ni_cls-3" d="M115.16,77.71l-2.5-.54,0,.07,1.14,1.87c.23.38.41.65.28.87l.06,0,.49-.67-.06,0c-.08.12-.2.21-.31.13a3.28,3.28,0,0,1-.39-.56l.64-.89.38.09c.4.09.46.13.27.43l.06,0,.63-.87-.06,0C115.6,77.83,115.34,77.75,115.16,77.71Zm-1.45,1-.65-1.07,1.22.28Z"/><ellipse class="ni_cls-3" cx="83.05" cy="72.19" rx="0.63" ry="0.6"/><ellipse class="ni_cls-3" cx="116.57" cy="72.95" rx="0.63" ry="0.6"/></g></g></svg>
