<svg xmlns="http://www.w3.org/2000/svg" viewBox="0 0 200 134"><defs><style>.tp_cls-1{fill:#dc2c2c;}.tp_cls-2{fill:#ffcb33;}.tp_cls-3{fill:#121212;}.tp_cls-4{fill:#fff;}</style></defs><title>Asset 51</title><g id="Layer_2" data-name="Layer 2"><g id="Layer_50" data-name="Layer 50"><path class="tp_cls-1" d="M183,0H17A16.91,16.91,0,0,0,6.82,3.41L134,67,6.8,130.58A16.91,16.91,0,0,0,17,134H183a17,17,0,0,0,17-17V17A17,17,0,0,0,183,0Z"/><path class="tp_cls-2" d="M6.82,3.41q-.64.48-1.24,1L89,67,5.57,129.55q.59.54,1.23,1L134,67Z"/><path class="tp_cls-3" d="M5.58,4.43A16.94,16.94,0,0,0,0,17V117a16.94,16.94,0,0,0,5.57,12.55L89,67ZM29.43,89.3,26.28,73l-17.22-2,15.28-8.17-3.09-16.3,12.6,11.23,15.31-8.11L41.67,64.82,54.22,76.1,37,74.21Z"/><polygon class="tp_cls-4" points="41.67 64.82 49.16 49.71 33.85 57.82 21.25 46.59 24.34 62.89 9.05 71.06 26.28 73.02 29.43 89.3 36.99 74.21 54.22 76.1 41.67 64.82"/></g></g></svg>
