<svg xmlns="http://www.w3.org/2000/svg" viewBox="0 0 18.2 18.7"><path d="M17.6 2.1h-5.2V.6c0-.3-.3-.6-.6-.6H5.6c-.3 0-.6.3-.6.6v1.5H.6c-.3 0-.6.3-.6.6s.3.6.6.6h1.3v14.9c0 .3.3.6.6.6h12.4c.3 0 .6-.3.6-.6V3.3h2.1c.3 0 .6-.3.6-.6s-.3-.6-.6-.6zM6.2 1.2h5v.9h-5v-.9zm8.1 16.3H3.1V3.3h11.2v14.2z"/><path d="M5.6 4.8c-.3 0-.6.3-.6.6v9.3c0 .3.3.6.6.6s.6-.3.6-.6V5.4c0-.3-.2-.6-.6-.6zM8.7 4.8c-.3 0-.6.3-.6.6v9.3c0 .3.3.6.6.6s.6-.3.6-.6V5.4c0-.3-.3-.6-.6-.6zM11.2 5.4v9.3c0 .3.3.6.6.6s.6-.3.6-.6V5.4c0-.3-.3-.6-.6-.6s-.6.3-.6.6z"/></svg>
