<svg xmlns="http://www.w3.org/2000/svg" viewBox="0 0 200 134"><defs><style>.ao_cls-1{fill:#ce2931;}.ao_cls-2{fill:#f9da32;}.ao_cls-3{fill:#010101;}.ao_cls-4{fill:#121212;}</style></defs><title>Asset 7</title><g id="Layer_2" data-name="Layer 2"><g id="Layer_94" data-name="Layer 94"><path class="ao_cls-1" d="M183,0H17A17,17,0,0,0,0,17V67H86.56a18.66,18.66,0,0,1,1.69-4.62c.06,1.21,1,2.8,2.43,4.62h35.87a26.47,26.47,0,0,0-23.79-26.26l.65-6.06a32.92,32.92,0,0,1,6,1.21l.84-2.77a35.39,35.39,0,0,1,6.41,2.65l-1.36,2.54a32.78,32.78,0,0,1,5.32,3.52l1.81-2.2a35.37,35.37,0,0,1,4.91,4.91l-2.17,1.78a32.47,32.47,0,0,1,3.58,5.3l2.44-1.3a35.38,35.38,0,0,1,2.65,6.41l-2.62.79a32.17,32.17,0,0,1,1.26,6.28l2.71-.27q.17,1.73.17,3.47H200V17A17,17,0,0,0,183,0ZM111.65,51l-7.2,5.23,2.75,8.46L100,59.43l-7.2,5.23,2.75-8.46L88.35,51h8.9L100,42.5,102.75,51Z"/><polygon class="ao_cls-2" points="100 42.5 97.25 50.96 88.35 50.96 95.55 56.19 92.8 64.66 100 59.43 107.2 64.66 104.45 56.19 111.65 50.96 102.75 50.96 100 42.5"/><path class="ao_cls-2" d="M109.49,98.28l.79,2.59q1.65-.5,3.24-1.16l-.68-2.65A32.38,32.38,0,0,1,109.49,98.28Z"/><path class="ao_cls-2" d="M125.26,87.73a33,33,0,0,1-2.94,3.13l2.28,1.58a35.32,35.32,0,0,0,2.76-3Z"/><path class="ao_cls-2" d="M133.87,77.27l-2.6-.79a32.55,32.55,0,0,1-2.45,5.92l2.4,1.28A35.38,35.38,0,0,0,133.87,77.27Z"/><path class="ao_cls-2" d="M83.31,98.21a35.43,35.43,0,0,0,6.41,2.65l.8-2.64a32.45,32.45,0,0,1-5.88-2.51Z"/><path class="ao_cls-2" d="M100,99.69a31.81,31.81,0,0,1-3.2-.17l-.27,2.71a35.5,35.5,0,0,0,6.94,0l-.27-2.7C102.15,99.63,101.08,99.69,100,99.69Z"/><path class="ao_cls-2" d="M138.38,106.43a19.81,19.81,0,0,0-4.06-4.48c-1.7-1.51-4-3.17-5.79-4.86L125.22,101c-.14.16-.09.54.09.57a10.77,10.77,0,0,1,6.36,3.21c2,2,2.81,4.46,4.11,5.36C138.19,111.79,139.93,108.94,138.38,106.43Zm-8.7-6.16a.46.46,0,1,1,.46-.46A.46.46,0,0,1,129.68,100.26ZM133,103.2a.46.46,0,1,1,.46-.46A.46.46,0,0,1,133,103.2Zm3,3a.46.46,0,1,1,.46-.46A.46.46,0,0,1,136,106.2Z"/><circle class="ao_cls-3" cx="129.68" cy="99.81" r="0.46"/><circle class="ao_cls-3" cx="133.04" cy="102.74" r="0.46"/><circle class="ao_cls-3" cx="136" cy="105.75" r="0.46"/><path class="ao_cls-2" d="M135.22,63.53l-2.71.27a32.17,32.17,0,0,0-1.26-6.28l2.62-.79a35.38,35.38,0,0,0-2.65-6.41l-2.44,1.3a32.47,32.47,0,0,0-3.58-5.3l2.17-1.78a35.37,35.37,0,0,0-4.91-4.91l-1.81,2.2a32.78,32.78,0,0,0-5.32-3.52l1.36-2.54a35.39,35.39,0,0,0-6.41-2.65l-.84,2.77a32.92,32.92,0,0,0-6-1.21l-.65,6.06A26.47,26.47,0,0,1,126.55,67h0a26.49,26.49,0,0,1-9.4,20.26l5.18,3.59a32.42,32.42,0,0,0,6.5-8.45,32.48,32.48,0,0,0,3.7-12.2l2.71.27q.17-1.73.17-3.47T135.22,63.53Z"/><path class="ao_cls-2" d="M112.07,94.14l-3.44-2a26.12,26.12,0,0,1-25.38-4.68l-3.88,4.73a34.1,34.1,0,0,0,5.27,3.56,32.45,32.45,0,0,0,5.88,2.51A31.92,31.92,0,0,0,100,99.69c1.08,0,2.15-.06,3.2-.16a32.62,32.62,0,0,0,9.62-2.46Z"/><path class="ao_cls-4" d="M135.39,67q0,1.74-.17,3.47l-2.71-.27a32.59,32.59,0,0,1-1.24,6.28l2.6.79a35.38,35.38,0,0,1-2.65,6.41l-2.4-1.28a32.66,32.66,0,0,1-3.56,5.32l2.1,1.73a35.32,35.32,0,0,1-2.76,3l-2.28-1.58-5.18-3.59A26.49,26.49,0,0,0,126.55,67H90.68c3.91,4.84,12,11.41,20.07,17.47,6.42,4.83,12.83,9.33,17.1,12.39l-3,3.58c-7.87-5.23-13.84-8.86-20.29-12.61-3.23-1.88-6.59-3.78-10.37-5.93s-9.28-7-7.6-14.9H0v50a17,17,0,0,0,17,17H183a17,17,0,0,0,17-17V67Zm-25.12,33.87-.79-2.59a32.48,32.48,0,0,1-6.29,1.25l.27,2.7a35.5,35.5,0,0,1-6.94,0l.27-2.71a31.61,31.61,0,0,1-6.27-1.29l-.8,2.64a35.43,35.43,0,0,1-6.41-2.65l1.33-2.49a34.1,34.1,0,0,1-5.27-3.56l3.88-4.73a26.12,26.12,0,0,0,25.38,4.68l3.44,2,.75,2.92.68,2.65Q111.92,100.37,110.27,100.87Zm25.51,9.25c-1.3-.9-2.12-3.34-4.11-5.36a10.77,10.77,0,0,0-6.36-3.21c-.18,0-.23-.41-.09-.57l3.31-3.88c1.74,1.69,4.09,3.35,5.79,4.86a19.81,19.81,0,0,1,4.06,4.48C139.93,108.94,138.19,111.79,135.78,110.12Z"/><path class="ao_cls-2" d="M94.15,81.9c3.78,2.15,7.13,4.05,10.37,5.93,6.45,3.74,12.41,7.37,20.29,12.61l3-3.58c-4.27-3.05-10.68-7.56-17.1-12.39C102.67,78.41,94.59,71.84,90.68,67c-1.47-1.82-2.37-3.41-2.43-4.62A18.66,18.66,0,0,0,86.56,67C84.88,74.89,90.39,79.76,94.15,81.9Z"/></g></g></svg>
