<svg xmlns="http://www.w3.org/2000/svg" viewBox="0 0 200 134"><defs><style>.az_cls-1{fill:#289dc8;}.az_cls-2{fill:#23ae77;}.az_cls-3{fill:#fff;}.az_cls-4{fill:#e92f49;}</style></defs><title>Asset 15</title><g id="Layer_2" data-name="Layer 2"><g id="Layer_86" data-name="Layer 86"><path class="az_cls-1" d="M183,0H17A17,17,0,0,0,0,17V44.5H200V17A17,17,0,0,0,183,0Z"/><path class="az_cls-2" d="M0,117a17,17,0,0,0,17,17H183a17,17,0,0,0,17-17V89.5H0Z"/><path class="az_cls-3" d="M91,85.9a18.83,18.83,0,0,0,13.5-5.68,15.75,15.75,0,1,1,0-26.43A18.9,18.9,0,1,0,91,85.9Z"/><path class="az_cls-4" d="M0,44.5v45H200v-45ZM91,85.9a18.9,18.9,0,1,1,13.5-32.11,15.75,15.75,0,1,0,0,26.43A18.83,18.83,0,0,1,91,85.9Zm26.28-11.73-5.16-2.35-2,5.31-.73-1.94-1.26-3.37L103,74.15,105.3,69,100,67l5.31-2L103,59.84l5.16,2.35,1.26-3.35.74-2,2,5.31,5.17-2.34L114.94,65l5.31,2-5.31,2Z"/><polygon class="az_cls-3" points="108.13 62.18 102.97 59.84 105.31 65 100 66.99 105.31 68.99 102.96 74.15 108.12 71.81 109.39 75.18 110.11 77.12 112.11 71.82 117.28 74.16 114.94 69 120.25 67.01 114.94 65.01 117.29 59.85 112.12 62.19 110.13 56.88 109.39 58.83 108.13 62.18"/></g></g></svg>
