<svg xmlns="http://www.w3.org/2000/svg" viewBox="0 0 200 134"><defs><style>.bb_cls-1{fill:#263678;}.bb_cls-2{fill:#ffcb33;}.bb_cls-3{fill:#121212;}</style></defs><title>Asset 18</title><g id="Layer_2" data-name="Layer 2"><g id="Layer_83" data-name="Layer 83"><path class="bb_cls-1" d="M17,0A17,17,0,0,0,0,17V117a17,17,0,0,0,17,17H66.23V0Z"/><path class="bb_cls-1" d="M183,0H133.77V134H183a17,17,0,0,0,17-17V17A17,17,0,0,0,183,0Z"/><path class="bb_cls-2" d="M66.23,0V134h67.55V0Zm49.49,83.6c-2.77,0-9.48-1.63-12.25-1.63,0,4.29.05,13.47,0,17.76H96.53c-.05-4.29.05-13.48,0-17.76-2.77,0-9.48,1.63-12.25,1.63,0-15.36-5.92-28.3-13-39.27-.43-.55-.15-.79.33-.66a26.94,26.94,0,0,1,14.69,7.57c.44.54-2.35-.59-2.6-.63-2.07-.62.62,2.92.77,3.85,2.13,6.79,4,13.37,4.66,21.18,0,.54.09.94.35,1l7.1-1.06V50.38a20.44,20.44,0,0,0-5.75.89c4.79-4.78,7-11,9.22-17,2.2,6,4.43,12.22,9.22,17a20.43,20.43,0,0,0-5.75-.89V75.55l7.1,1.06c.26,0,.34-.42.34-1,.68-7.81,2.54-14.39,4.66-21.18.15-.93,2.84-4.47.77-3.85-.25,0-3,1.17-2.6.63a27,27,0,0,1,14.68-7.57c.47-.12.76.11.33.66C121.64,55.3,115.67,68.24,115.72,83.6Z"/><path class="bb_cls-3" d="M128.43,43.66a27,27,0,0,0-14.68,7.57c-.44.54,2.35-.59,2.6-.63,2.07-.62-.62,2.92-.77,3.85-2.12,6.79-4,13.37-4.66,21.18,0,.54-.08.94-.34,1l-7.1-1.06V50.38a20.43,20.43,0,0,1,5.75.89c-4.79-4.78-7-11-9.22-17-2.2,6-4.43,12.22-9.22,17a20.44,20.44,0,0,1,5.75-.89V75.55l-7.1,1.06c-.26,0-.34-.42-.35-1-.68-7.81-2.54-14.39-4.66-21.18-.15-.93-2.84-4.47-.77-3.85.25,0,3,1.17,2.6.63a26.94,26.94,0,0,0-14.69-7.57c-.47-.12-.75.11-.33.66,7.12,11,13.08,23.92,13,39.27,2.77,0,9.48-1.63,12.25-1.63.05,4.29-.05,13.47,0,17.76h6.93c.05-4.29,0-13.48,0-17.76,2.77,0,9.48,1.63,12.25,1.63,0-15.36,5.92-28.3,13-39.27C129.18,43.78,128.9,43.54,128.43,43.66Z"/></g></g></svg>
