<svg id="Layer_1" xmlns="http://www.w3.org/2000/svg" viewBox="0 0 200 134"><style>.st0{fill:#73af00}.st1{fill:#ff4b55}.st2{fill:#f5f5f5}</style><path class="st0" d="M185 0H15C7 0 .4 6.4 0 14.5v105c.4 7.8 6.5 14.1 14.2 14.5h171.6c7.9-.4 14.2-7.1 14.2-15.3V15.3C200 6.9 193.3 0 185 0z"/><path class="st1" d="M15.7 0L100 56.4 184.3 0zM184.3 134L100 77.6 15.7 134z"/><path class="st2" d="M185 0h-.8l-64.1 42.9c-5.4-4.8-12.5-7.7-20.2-7.7-7.7 0-14.8 2.9-20.2 7.7L15.8 0H15C8.2 0 2.5 4.6.6 10.9l69.7 46.7c-.9 3-1.4 6.1-1.4 9.3 0 3.2.5 6.4 1.4 9.3L.6 123c1.8 6.1 7.1 10.6 13.6 10.9h1.5L79.8 91c5.4 4.8 12.5 7.7 20.2 7.7 7.7 0 14.8-2.9 20.2-7.7l64.1 42.9h1.5c6.5-.3 11.8-4.9 13.6-11l-69.7-46.7c.9-3 1.4-6.1 1.4-9.3 0-3.2-.5-6.4-1.4-9.3L199.4 11c-1.9-6.4-7.6-11-14.4-11z"/><path class="st1" d="M97.8 56.8l-4.7.2 2.4-4.1-2.4-4.1 4.7.1 2.2-4.2 2.2 4.2 4.7-.1-2.4 4.1 2.4 4.1-4.7-.2L100 61z"/><path class="st0" d="M100 45.8l1.9 3.6 4-.1-2.1 3.5 2.1 3.5-4-.1-1.9 3.6-1.9-3.6-4 .1 2.1-3.5-2.2-3.4 4 .1 2-3.7m0-2.2l-.9 1.7-1.6 3.1-3.4-.1h-1.9l1 1.7 1.8 3-1.8 3-1 1.7h1.9l3.4-.1 1.6 3.1.9 1.7.9-1.7 1.6-3.1 3.4.1h1.9l-1-1.7-1.8-3 1.8-3 1-1.7h-1.9l-3.4.1-1.6-3.1-.9-1.7z"/><path class="st1" d="M84.9 80.2l-4.6.1 2.4-4.1-2.4-4 4.6.1 2.3-4.2 2.2 4.2 4.7-.1-2.5 4 2.5 4.1-4.7-.1-2.2 4.2z"/><path class="st0" d="M87.2 69.2l1.9 3.6 4-.1-2.1 3.5 2.1 3.5-4-.1-1.9 3.6-1.9-3.6-4 .1 2.1-3.5-2.1-3.5 4 .1 1.9-3.6m0-2.2l-.9 1.7-1.6 3.1-3.4-.1h-1.9l1 1.7 1.8 3-1.8 3-1 1.7h1.9l3.4-.1 1.6 3.1.9 1.7.9-1.7 1.6-3.1 3.4.1H95l-1-1.7-1.8-3 1.8-3 1-1.7h-1.9l-3.4.1-1.6-3.1-.9-1.7z"/><path class="st1" d="M110.6 80.2l-4.7.1 2.5-4.1-2.5-4 4.7.1 2.3-4.2 2.2 4.2 4.7-.1-2.5 4 2.5 4.1-4.7-.1-2.2 4.2z"/><path class="st0" d="M112.9 69.2l1.9 3.6 4-.1-2.1 3.5 2.1 3.5-4-.1-1.9 3.6-1.9-3.6-4 .1 2.1-3.5-2.1-3.5 4 .1 1.9-3.6m0-2.2l-.9 1.7-1.6 3.1-3.4-.1h-1.9l1 1.7 1.8 3-1.8 3-1 1.7h1.9l3.4-.1 1.6 3.1.9 1.7.9-1.7 1.6-3.1 3.4.1h1.9l-1-1.7-1.8-3 1.8-3 1-1.7h-1.9l-3.4.1-1.6-3.1-.9-1.7z"/></svg>