<svg id="Layer_1" xmlns="http://www.w3.org/2000/svg" viewBox="0 0 200 134"><style>.st0{fill:#ffe15a}.st1{fill:#f5f5f5}.st2{fill:#464655}.st3{fill:#ff4b55}</style><path class="st0" d="M185 134H15c-8.3 0-15-6.9-15-15.3V15.3C0 6.9 6.7 0 15 0h170c8.3 0 15 6.9 15 15.3v103.4c0 8.4-6.7 15.3-15 15.3z"/><path class="st1" d="M200 84.6L6.4 2.7C2.6 5.5 0 10.1 0 15.3v9.4l200 84.6V84.6z"/><path class="st2" d="M200 118.7v-9.4L0 24.7v24.7l193.6 81.9c3.8-2.8 6.4-7.4 6.4-12.6z"/><path class="st3" d="M119.4 60.7c0-.1 0-.6-.1-1.5 0-.5-.1-1-.3-1.6-.1-.6-.3-1.4-.6-2.2-.5-1.6-1.3-3.5-2.7-5.3-.2-.2-.4-.5-.5-.7.8-.9 1.5-2 2.3-3.3 0 0-3.9.2-8.4-1.8-1.5-.8-3-1.4-4.8-1.8l-.8-3.4c-.2-.7-.8-1.2-1.5-1.2h-1.1v-1.6h5.5l-1.6-3.2 1.6-3.2h-5.5v-1.6h-1.6V38h-1.1c-.7 0-1.4.5-1.5 1.2l-.8 3.3c-1.1.2-2.1.5-3.2 1-.8.3-1.7.8-2.5 1.3-4.1 1.6-7.5 1.4-7.5 1.4.7 1.3 1.5 2.3 2.3 3.3-.2.2-.3.4-.5.6-1.1 1.5-1.9 3.2-2.6 5-.6 1.7-1 3.9-1.1 5.6v1.6c0 .5 0 1 .1 1.5.1 1 .3 1.9.5 2.9.5 1.9 1.2 3.7 2.2 5.4 2 3.4 5 6.1 8.4 7.7 1.7.8 3.4 1.4 5.4 1.7 1 .2 1.7.2 2.5.3h1.4c.4 0 .9 0 1.3-.1 3.4-.4 6.6-1.8 9-3.5 2.4-1.8 4.2-4 5.4-6.1 1.2-2.1 1.8-4.2 2.2-5.8.2-.8.3-1.6.4-2.3.1-.7.1-1.3.1-1.7-.3-1.1-.3-1.6-.3-1.6zM90.6 72.2c-1.1-.9-2.1-1.9-3-3.1-.9-1.2-1.6-2.5-2.1-3.9s-.8-3.1-.9-4.4c0-1.9 0-3.2.4-4.8.4-1.5.9-3 1.7-4.4 0-.1.1-.1.2-.2 3.6 2.9 7.4 2.7 10.1 1.3v3.2c.9 0 1.6 1.8 1.6 4.1 0 2.2-.7 4.1-1.6 4.1v1.6c3 4.1 1.6 7.5-.2 9.5-.8-.2-1.7-.4-2.5-.8-1.4-.7-2.6-1.4-3.7-2.2zm24.9-11.6s0 .4-.1 1.2c0 .4-.1.9-.2 1.3-.1.5-.2 1-.5 1.7-.4 1.3-1.1 2.8-2.2 4.2-1.1 1.4-2.6 2.9-4.4 4-1.4.9-3.1 1.4-4.8 1.8-1.8-2-3-5.4-.1-9.3v-1.6c-.9 0-1.6-1.8-1.6-4.1 0-2.2.7-4.1 1.6-4.1v-3.2c2.7 1.4 6.5 1.6 10.1-1.3.1.1.1.2.2.3 1 1.7 1.4 3.4 1.7 4.7.1.7.2 1.3.3 1.8.1.5.1 1 .1 1.4-.1.7-.1 1.1-.1 1.2z"/><path class="st3" d="M100 85c-5.9 0-11.2-2.3-15.1-6.1-.7-.7-1.9-.6-2.5.2l-6.1 7.2c-.6.8-.1 2 .9 2H81l5.1 2.6c.7.4 1.6.1 2-.6l1.6-2.5c3.2 1.3 6.6 2.1 10.3 2.1s7.1-.7 10.3-2.1l1.6 2.5c.4.7 1.3.9 2 .6l5.1-2.6h3.8c1 0 1.5-1.2.9-2l-6.1-7.2c-.6-.8-1.8-.9-2.5-.2-3.9 3.7-9.2 6.1-15.1 6.1zM77.8 78.5h-7.9l1.6-14.6s-5.5-2.8-5-11.2c.1-1 .9-1.8 1.9-1.8h1.4c.9 0 1.7.7 1.9 1.6.3 2 1.4 5.4 4.6 6.5l1.5 19.5zM122.2 78.5h7.9l-1.6-14.6s5.5-2.8 5-11.2c-.1-1-.9-1.8-1.9-1.8h-1.4c-.9 0-1.7.7-1.9 1.6-.3 2-1.4 5.4-4.6 6.5l-1.5 19.5z"/><g><path class="st0" d="M78.6 80.1h-9.5c-.4 0-.8-.4-.8-.8s.4-.8.8-.8h9.5c.4 0 .8.4.8.8s-.4.8-.8.8zM130.9 80.1h-9.5c-.4 0-.8-.4-.8-.8s.4-.8.8-.8h9.5c.4 0 .8.4.8.8s-.3.8-.8.8z"/></g></svg>