<svg xmlns="http://www.w3.org/2000/svg" viewBox="0 0 200 134"><style>.st0{fill:#41479b}.st1{fill:#f5f5f5}.st2{fill:#ffe15a}.st3{fill:#464655}.st4{fill:#ff4b55}</style><path class="st0" d="M199.7 12.2c-.1-.5-.2-1-.4-1.5-.1-.5-.3-.9-.5-1.4-.3-.7-.6-1.3-1-2-.4-.6-.8-1.2-1.3-1.8-.5-.6-1-1.1-1.5-1.6l-.4-.4L5.4 130.4c2.6 2.2 6 3.6 9.6 3.6h170c8.3 0 15-6.9 15-15.3V15.3c0-1-.1-2.1-.3-3.1z"/><path class="st1" d="M194 3c-.4-.3-.8-.6-1.2-.8C190.5.8 187.9 0 185 0H87.8L0 58.8v59.9c0 4.7 2.1 8.9 5.4 11.7L194.6 3.6 194 3z"/><path class="st2" d="M15 0c-2.8 0-5.5.8-7.8 2.2-.4.3-.8.5-1.2.8s-.7.7-1.1 1c-.5.5-1 1-1.5 1.6-.4.5-.9 1.1-1.2 1.8-.4.6-.7 1.3-1 2-.2.4-.4.9-.5 1.4-.1.5-.3 1-.4 1.5-.2 1-.3 2-.3 3.1v43.5L87.8 0H15z"/><path class="st3" d="M79 56.3c-1.6-10.7-9.8-19.1-20.2-20.7l-3.6-7.4-3.6 7.4c-10.4 1.6-18.7 10-20.2 20.7L24.2 60l7.2 3.7c1.6 10.7 9.8 19.1 20.2 20.7l3.6 7.4 3.6-7.4c10.4-1.6 18.7-10 20.2-20.7l7.2-3.7-7.2-3.7zM55.2 81.1c-11.4 0-20.7-9.5-20.7-21.2s9.3-21.2 20.7-21.2 20.7 9.5 20.7 21.2-9.3 21.2-20.7 21.2z"/><path class="st4" d="M55.2 46.4l3.7 7 7.8-.2-4.1 6.7 4.1 6.8-7.8-.2-3.7 7-3.7-7-7.8.2 4-6.8-4-6.7 7.8.2z"/></svg>
