<svg xmlns="http://www.w3.org/2000/svg" viewBox="0 0 200 134"><defs><style>.br_cls-1{fill:#1d9253;}.br_cls-2{fill:#f6c931;}.br_cls-3{fill:#2f4ca0;}.br_cls-4{fill:#fffef0;}.br_cls-5{fill:#fff;}.br_cls-6{fill:#319e48;}.br_cls-7{fill:#f7fcfd;}</style></defs><title>Asset 28</title><g id="Layer_2" data-name="Layer 2"><g id="Layer_73" data-name="Layer 73"><path class="br_cls-1" d="M183,0H17A17,17,0,0,0,0,17V117a17,17,0,0,0,17,17H183a17,17,0,0,0,17-17V17A17,17,0,0,0,183,0ZM100.38,119.94,18.16,67.2,99.89,14.06l82,53Z"/><path class="br_cls-2" d="M18.16,67.2l82.22,52.75,81.46-52.87-82-53ZM135.88,67h0s0,.08,0,.12a34.51,34.51,0,0,1-.71,6.92h0a33.59,33.59,0,0,1-1.56,5.35h0A34.47,34.47,0,0,1,68.42,57h0a33.63,33.63,0,0,1,2.29-5.63h0A34.47,34.47,0,0,1,135.88,67Z"/><path class="br_cls-3" d="M70.69,51.41C96.46,49.72,116.87,58,135.16,74a34.51,34.51,0,0,0,.71-6.92s0-.08,0-.12h0A34.47,34.47,0,0,0,70.69,51.41Zm41.21,4.38.51-1,.45,1,1.07.19-.8.75.15,1.09-.94-.54-1,.48.22-1.08-.75-.8Z"/><path class="br_cls-3" d="M68.42,57a34.47,34.47,0,0,0,65.17,22.33A82.48,82.48,0,0,0,68.42,57Zm41.82,8.43.4-.77.36.79.84.15-.63.59.12.86-.74-.43-.77.38.17-.85-.59-.63ZM72.78,79.86l-.71-.41-.74.36.16-.82-.57-.6.81-.09.38-.74.34.76.81.15-.6.56Zm.52-17.39L72.19,63l.25-1.23-.85-.9,1.22-.14.58-1.1.51,1.14L75.1,61l-.91.85.17,1.24Zm4.49,14.82-1.07-.62-1.1.55L75.86,76l-.85-.9L76.22,75l.58-1.1L77.31,75l1.21.22-.9.85Zm2.36-3.18-.46.23.1-.51-.36-.38.51-.06.24-.46.21.48.5.09-.38.35.07.52Zm2.55,9.52L82,83.21l-.74.37.16-.82-.57-.6.81-.09.38-.74.34.76.81.15-.61.56Zm1.41-3.76-.71-.41-.74.37.16-.82-.57-.6.81-.09.38-.74.34.76.81.15L84,79Zm6,7.75L89,87l-1.1.55.25-1.23-.85-.9,1.22-.14.58-1.1.51,1.14,1.21.22-.9.85Zm-.17-18.44.17,1.24L89,69.79l-1.1.55.25-1.23-.85-.9,1.22-.14L89.1,67l.51,1.14,1.21.22Zm9.38,7.6-.71-.41-.74.37L98,75.9l-.57-.6.82-.09.38-.74.34.76.81.15-.61.56Zm2-5.34.58-1.1.51,1.14,1.21.22-.91.85.17,1.24-1.07-.62-1.1.55.24-1.23-.85-.9Zm-.93,7,.61-.07.29-.55.25.56.6.11-.45.42.08.62-.53-.31-.55.27.12-.61Zm2.3,15.88-.45-.26-.46.23.1-.52-.36-.38.51-.06.24-.46.21.48.51.09-.38.35Zm.61-10.22-.92-.53-1,.47.21-1.06-.74-.78,1.05-.12.5-1,.44,1,1,.19-.78.73Zm3-7.35-.71-.41-.74.37.16-.82-.57-.6.81-.09.39-.74.34.76.81.15-.61.56Zm3.81,10-.53-.31-.55.27.12-.61-.42-.45.61-.07.29-.55.25.57.6.11-.45.42Zm3.18,6.66-1.07-.62-1.11.55.25-1.23-.85-.9,1.22-.14.57-1.1.51,1.14,1.21.22-.9.85Zm1.71-6.66-.53-.31-.55.27.12-.61-.42-.45.61-.07.29-.55.25.56.6.11-.45.42Zm5.22,7-.63-.38-.65.34L119,93l-.5-.55.72-.09.34-.68.3.7.71.13L120,93Zm6.65-10.65-.58-.31-.6.27.13-.61-.46-.45.66-.07.31-.55.28.57.66.11-.49.42Zm3.09-4.28.29-.55.25.57.6.11-.45.42.08.62-.53-.31-.55.27.12-.61-.42-.45Zm-4.62-.08.49-.94.43,1,1,.18-.77.72.14,1.05-.91-.52-.94.46.21-1-.72-.76Zm-.4,5.78.38-.74.34.76.81.15-.61.56.12.83-.71-.41-.74.37.16-.82-.57-.6Zm-2.79,1,.29-.57.26.59.62.11-.46.44.09.64-.55-.32-.57.28.13-.63-.44-.46Zm-2.77,0,.32-.61.28.63.67.12-.5.47.1.69-.59-.34-.61.3.14-.68-.47-.5ZM119,89.26l.37-.68.33.7.78.13-.59.52.11.76-.69-.38-.71.34.16-.75-.55-.55Z"/><polygon class="br_cls-4" points="89.61 85.31 89.1 84.17 88.52 85.27 87.31 85.41 88.16 86.31 87.91 87.54 89.01 86.99 90.08 87.61 89.91 86.37 90.82 85.53 89.61 85.31"/><polygon class="br_cls-4" points="112.7 91.15 112.19 90.01 111.62 91.12 110.4 91.26 111.25 92.16 111.01 93.39 112.11 92.84 113.18 93.46 113.01 92.22 113.91 91.37 112.7 91.15"/><polygon class="br_cls-4" points="102.82 82.13 102.38 81.14 101.88 82.1 100.83 82.22 101.56 83 101.35 84.06 102.3 83.58 103.23 84.12 103.08 83.05 103.86 82.31 102.82 82.13"/><polygon class="br_cls-4" points="124.71 80.7 125.64 80.23 126.55 80.76 126.4 79.7 127.17 78.99 126.15 78.8 125.72 77.84 125.23 78.77 124.19 78.89 124.92 79.66 124.71 80.7"/><polygon class="br_cls-4" points="100.63 73.7 101.73 73.15 102.8 73.76 102.63 72.53 103.54 71.68 102.33 71.46 101.82 70.32 101.24 71.43 100.02 71.57 100.88 72.47 100.63 73.7"/><polygon class="br_cls-4" points="75.1 61 73.89 60.78 73.38 59.65 72.81 60.75 71.59 60.89 72.44 61.79 72.19 63.02 73.3 62.47 74.36 63.09 74.19 61.85 75.1 61"/><polygon class="br_cls-4" points="77.31 74.98 76.8 73.84 76.22 74.95 75.01 75.09 75.86 75.99 75.61 77.22 76.72 76.67 77.78 77.29 77.61 76.05 78.52 75.2 77.31 74.98"/><polygon class="br_cls-4" points="111.35 57.8 112.33 57.31 113.27 57.86 113.12 56.76 113.92 56.02 112.85 55.82 112.4 54.82 111.89 55.79 110.82 55.92 111.57 56.71 111.35 57.8"/><polygon class="br_cls-4" points="109.81 67.05 110.58 66.67 111.32 67.1 111.2 66.24 111.83 65.65 110.99 65.5 110.64 64.7 110.24 65.47 109.39 65.57 109.98 66.2 109.81 67.05"/><polygon class="br_cls-4" points="126.49 81.98 126.21 81.42 125.9 81.97 125.24 82.04 125.7 82.49 125.57 83.1 126.17 82.83 126.75 83.13 126.65 82.51 127.15 82.09 126.49 81.98"/><polygon class="br_cls-4" points="72.46 78.32 72.12 77.56 71.74 78.3 70.92 78.39 71.49 79 71.33 79.81 72.06 79.45 72.78 79.86 72.67 79.03 73.27 78.47 72.46 78.32"/><polygon class="br_cls-4" points="83.78 78.32 83.44 77.56 83.06 78.3 82.24 78.39 82.81 79 82.64 79.81 83.38 79.45 84.1 79.86 83.98 79.03 84.59 78.47 83.78 78.32"/><polygon class="br_cls-4" points="82.37 82.09 82.03 81.33 81.65 82.06 80.83 82.16 81.4 82.76 81.24 83.58 81.98 83.21 82.69 83.62 82.57 82.8 83.18 82.23 82.37 82.09"/><polygon class="br_cls-4" points="105.87 75.23 105.53 74.47 105.14 75.21 104.33 75.3 104.9 75.91 104.74 76.72 105.47 76.36 106.19 76.77 106.07 75.94 106.68 75.38 105.87 75.23"/><polygon class="br_cls-4" points="98.97 75.23 98.64 74.47 98.25 75.21 97.44 75.3 98.01 75.9 97.84 76.72 98.58 76.36 99.29 76.77 99.18 75.94 99.78 75.38 98.97 75.23"/><polygon class="br_cls-4" points="80.9 73.49 80.39 73.4 80.18 72.93 79.94 73.39 79.43 73.45 79.78 73.82 79.68 74.34 80.14 74.11 80.59 74.37 80.52 73.85 80.9 73.49"/><polygon class="br_cls-4" points="124.42 86.06 125.16 85.7 125.87 86.11 125.75 85.28 126.36 84.72 125.55 84.57 125.21 83.81 124.83 84.55 124.01 84.64 124.58 85.25 124.42 86.06"/><polygon class="br_cls-4" points="118.93 86.83 119.54 86.52 120.13 86.86 120.03 86.18 120.53 85.71 119.87 85.59 119.59 84.96 119.27 85.57 118.59 85.65 119.06 86.15 118.93 86.83"/><polygon class="br_cls-4" points="121.72 86.76 122.28 86.48 122.84 86.8 122.75 86.16 123.21 85.72 122.59 85.61 122.33 85.02 122.03 85.59 121.4 85.67 121.84 86.13 121.72 86.76"/><polygon class="br_cls-4" points="129.54 79.97 130.08 79.7 130.61 80.01 130.53 79.39 130.98 78.97 130.38 78.87 130.13 78.3 129.84 78.85 129.24 78.92 129.66 79.37 129.54 79.97"/><polygon class="br_cls-4" points="118.65 90.65 119.37 90.32 120.06 90.69 119.95 89.93 120.53 89.42 119.75 89.28 119.42 88.58 119.05 89.26 118.26 89.35 118.81 89.9 118.65 90.65"/><polygon class="br_cls-4" points="119.82 92.37 119.52 91.68 119.18 92.35 118.46 92.44 118.96 92.99 118.82 93.74 119.47 93.41 120.1 93.79 120 93.03 120.53 92.51 119.82 92.37"/><polygon class="br_cls-4" points="114.65 85.66 114.4 85.09 114.11 85.64 113.51 85.71 113.93 86.16 113.81 86.76 114.36 86.49 114.89 86.8 114.8 86.18 115.25 85.76 114.65 85.66"/><polygon class="br_cls-4" points="109.76 85.66 109.51 85.09 109.22 85.64 108.61 85.71 109.04 86.16 108.92 86.76 109.47 86.49 110 86.8 109.91 86.18 110.36 85.76 109.76 85.66"/><polygon class="br_cls-4" points="101.17 79.23 101.69 79.54 101.61 78.92 102.06 78.5 101.46 78.4 101.21 77.83 100.92 78.38 100.32 78.45 100.74 78.9 100.62 79.5 101.17 79.23"/><polygon class="br_cls-4" points="102.42 93.36 102.21 92.89 101.97 93.35 101.45 93.41 101.81 93.79 101.71 94.3 102.17 94.07 102.62 94.33 102.55 93.81 102.93 93.46 102.42 93.36"/><polygon class="br_cls-4" points="89.1 66.96 88.53 68.07 87.31 68.21 88.16 69.11 87.91 70.33 89.01 69.79 90.08 70.4 89.91 69.17 90.82 68.32 89.61 68.1 89.1 66.96"/><path class="br_cls-5" d="M70.69,51.41h0A33.63,33.63,0,0,0,68.38,57h0a82.48,82.48,0,0,1,65.17,22.33h0A33.59,33.59,0,0,0,135.17,74h0C116.87,58,96.46,49.72,70.69,51.41Zm4.47,3.93a2,2,0,0,1-2.66-.07A2,2,0,0,1,72,53.83a2.42,2.42,0,0,1,.2-1,1.8,1.8,0,0,1,.37-.51,1.46,1.46,0,0,1,.5-.33,2.06,2.06,0,0,1,.82-.13,1.76,1.76,0,0,1,1.32.56,2.33,2.33,0,0,1-.07,2.88Zm3.83.48L78.45,55a5.3,5.3,0,0,0-.39-.56.57.57,0,0,0-.23-.16,1.2,1.2,0,0,0-.38,0h-.15l0,1.58h-.76l0-3.79,1.6,0a2.71,2.71,0,0,1,.88.11.86.86,0,0,1,.44.37,1.09,1.09,0,0,1,.16.6,1,1,0,0,1-.26.7,1.2,1.2,0,0,1-.75.34,1.75,1.75,0,0,1,.4.32,4.09,4.09,0,0,1,.43.62l.45.74Zm4.73-.75a1.66,1.66,0,0,1-.44.65,1.31,1.31,0,0,1-.55.27,2.28,2.28,0,0,1-.68,0L80.63,56l.19-3.78,1.39.07a2.73,2.73,0,0,1,.71.11,1.26,1.26,0,0,1,.55.38,1.66,1.66,0,0,1,.33.63,2.75,2.75,0,0,1,.08.9A2.46,2.46,0,0,1,83.72,55.07Zm4-1.75-2-.19-.08.84,1.88.18-.06.64-1.89-.18-.1,1,2.1.2-.06.64-2.86-.27L85,52.42l2.79.26Zm4.34,3.85-.7-.1.43-2.95L90.63,57l-.73-.11-.31-3.06-.43,2.95-.7-.1L89,52.89l1.13.17.3,2.66,1-2.46,1.13.17Zm5.49-1.51-1.43-.33-.14.59,1.33.31-.1.45-1.33-.31-.17.72,1.48.34-.1.45-2-.46.61-2.66,2,.45Zm5.23,1.43a1.24,1.24,0,0,1-.26.54,1,1,0,0,1-.4.29,1.09,1.09,0,0,1-.42.08,4.25,4.25,0,0,1-.78-.13l-.48-.12-.33,1.39L99.36,59l.88-3.68,1.19.29a4.37,4.37,0,0,1,.87.27,1,1,0,0,1,.44.49A1.17,1.17,0,0,1,102.78,57.08Zm3.9,1.38a1,1,0,0,1-.47.58,1.2,1.2,0,0,1-.82.08,1.74,1.74,0,0,1,.28.44,4.19,4.19,0,0,1,.21.72l.19.85-.86-.3-.25-1a5.4,5.4,0,0,0-.2-.66.57.57,0,0,0-.16-.22,1.21,1.21,0,0,0-.35-.17l-.14-.05-.52,1.49-.72-.25,1.25-3.57,1.51.53a2.71,2.71,0,0,1,.79.39.87.87,0,0,1,.29.49A1.13,1.13,0,0,1,106.68,58.47Zm4.12,2.48a2,2,0,0,1-.9,1.22,1.76,1.76,0,0,1-1.42.1,1.78,1.78,0,0,1-1.12-.89,2,2,0,0,1-.05-1.51,2.42,2.42,0,0,1,.45-.88,1.76,1.76,0,0,1,.49-.39,1.46,1.46,0,0,1,.57-.18,2.05,2.05,0,0,1,.82.1,1.76,1.76,0,0,1,1.12.89A2,2,0,0,1,110.79,60.94Zm3.11,3.27a2.06,2.06,0,0,1-.8,0,2.55,2.55,0,0,1-.9-.27,2.08,2.08,0,0,1-.8-.69,1.6,1.6,0,0,1-.26-.94,2.33,2.33,0,0,1,.26-1,2.18,2.18,0,0,1,.7-.82,1.66,1.66,0,0,1,1-.29,1.94,1.94,0,0,1,.89.25,1.79,1.79,0,0,1,.84.77,1.34,1.34,0,0,1,.08,1l-.74-.22a.81.81,0,0,0-.07-.53.9.9,0,0,0-.41-.4,1,1,0,0,0-.85-.08,1.33,1.33,0,0,0-.69.7,1.48,1.48,0,0,0-.2,1,1,1,0,0,0,.54.66,1.31,1.31,0,0,0,.47.14,1.65,1.65,0,0,0,.47,0l.22-.43-.78-.4.29-.57,1.46.76Zm2.62.16a1.27,1.27,0,0,0-.32-.21l-.14-.07-.72,1.4-.68-.35,1.73-3.36,1.43.74a2.68,2.68,0,0,1,.73.5.85.85,0,0,1,.22.52,1.09,1.09,0,0,1-.12.61,1,1,0,0,1-.54.51,1.2,1.2,0,0,1-.82,0,1.75,1.75,0,0,1,.21.47,4.47,4.47,0,0,1,.11.75l.07.87-.81-.42-.11-1a5.13,5.13,0,0,0-.1-.68A.59.59,0,0,0,116.53,64.37ZM120,66.25l-.53.88,1.8,1.1-.33.54-2.45-1.5,2-3.23,2.39,1.46-.33.55L120.72,65l-.44.72,1.62,1-.33.54ZM124.81,70a1.12,1.12,0,0,1-.47.42,1.07,1.07,0,0,1-.65.09,2.18,2.18,0,0,1-.77-.32,1.66,1.66,0,0,1-.76-.86,1.44,1.44,0,0,1,.12-1.07l.67.33a.93.93,0,0,0-.06.61.82.82,0,0,0,.38.44.85.85,0,0,0,.55.16.46.46,0,0,0,.35-.21.33.33,0,0,0,.05-.24.61.61,0,0,0-.15-.29c-.06-.07-.2-.23-.43-.46a2.11,2.11,0,0,1-.53-.77,1,1,0,0,1,.1-.83,1,1,0,0,1,.42-.37,1,1,0,0,1,.6-.08,1.88,1.88,0,0,1,.7.28,1.58,1.58,0,0,1,.74.83,1.1,1.1,0,0,1-.12.91l-.67-.37a.64.64,0,0,0,0-.47.76.76,0,0,0-.34-.36.87.87,0,0,0-.51-.16.27.27,0,0,0-.23.14.3.3,0,0,0,0,.25,2,2,0,0,0,.46.59,3.55,3.55,0,0,1,.55.67,1,1,0,0,1,.15.55A1.11,1.11,0,0,1,124.81,70Zm4.54,1.31a1.79,1.79,0,0,1,.58-.23,1.49,1.49,0,0,1,.59,0,2.08,2.08,0,0,1,.76.33,1.78,1.78,0,0,1,.81,1.18,2,2,0,0,1-.39,1.48,2,2,0,0,1-1.21.91,1.76,1.76,0,0,1-1.39-.32,1.79,1.79,0,0,1-.82-1.18,2,2,0,0,1,.38-1.46A2.39,2.39,0,0,1,129.36,71.35Zm-2.56-2.58a1,1,0,0,1,.61-.05,1.89,1.89,0,0,1,.69.31,1.59,1.59,0,0,1,.71.86,1.1,1.1,0,0,1-.15.9l-.65-.4a.64.64,0,0,0,.06-.47.75.75,0,0,0-.33-.38.86.86,0,0,0-.51-.18.27.27,0,0,0-.23.13.29.29,0,0,0,0,.25,2,2,0,0,0,.44.6,3.6,3.6,0,0,1,.53.69,1,1,0,0,1,.13.55,1.18,1.18,0,0,1-.7,1,1.08,1.08,0,0,1-.66.06,2.16,2.16,0,0,1-.76-.35,1.64,1.64,0,0,1-.73-.89,1.46,1.46,0,0,1,.16-1.06l.65.36a.92.92,0,0,0-.08.61.82.82,0,0,0,.36.46.84.84,0,0,0,.54.18.47.47,0,0,0,.36-.2.36.36,0,0,0,.06-.23.63.63,0,0,0-.13-.29c-.06-.08-.2-.24-.41-.48a2.06,2.06,0,0,1-.5-.79,1,1,0,0,1,.14-.83A1,1,0,0,1,126.79,68.77Z"/><path class="br_cls-6" d="M126.22,69.95a2.06,2.06,0,0,0,.5.79c.22.24.36.4.41.48a.63.63,0,0,1,.13.29.36.36,0,0,1-.06.23.47.47,0,0,1-.36.2.84.84,0,0,1-.54-.18.82.82,0,0,1-.36-.46.92.92,0,0,1,.08-.61l-.65-.36a1.46,1.46,0,0,0-.16,1.06,1.64,1.64,0,0,0,.73.89,2.16,2.16,0,0,0,.76.35,1.08,1.08,0,0,0,.66-.06,1.18,1.18,0,0,0,.7-1,1,1,0,0,0-.13-.55,3.6,3.6,0,0,0-.53-.69,2,2,0,0,1-.44-.6.29.29,0,0,1,0-.25.27.27,0,0,1,.23-.13.86.86,0,0,1,.51.18.75.75,0,0,1,.33.38.64.64,0,0,1-.06.47l.65.4a1.1,1.1,0,0,0,.15-.9,1.59,1.59,0,0,0-.71-.86,1.89,1.89,0,0,0-.69-.31,1,1,0,0,0-.61.05,1,1,0,0,0-.43.36A1,1,0,0,0,126.22,69.95Z"/><path class="br_cls-6" d="M124.29,68.23a2,2,0,0,1-.46-.59.3.3,0,0,1,0-.25.27.27,0,0,1,.23-.14.87.87,0,0,1,.51.16.76.76,0,0,1,.34.36.64.64,0,0,1,0,.47l.67.37a1.1,1.1,0,0,0,.12-.91,1.58,1.58,0,0,0-.74-.83,1.88,1.88,0,0,0-.7-.28,1,1,0,0,0-.6.08,1,1,0,0,0-.42.37,1,1,0,0,0-.1.83,2.11,2.11,0,0,0,.53.77c.23.24.37.39.43.46a.61.61,0,0,1,.15.29.33.33,0,0,1-.05.24.46.46,0,0,1-.35.21.85.85,0,0,1-.55-.16.82.82,0,0,1-.38-.44.93.93,0,0,1,.06-.61l-.67-.33a1.44,1.44,0,0,0-.12,1.07,1.66,1.66,0,0,0,.76.86,2.18,2.18,0,0,0,.77.32,1.07,1.07,0,0,0,.65-.09,1.18,1.18,0,0,0,.66-1,1,1,0,0,0-.15-.55A3.55,3.55,0,0,0,124.29,68.23Z"/><polygon class="br_cls-6" points="121.9 66.7 120.28 65.7 120.72 64.99 122.46 66.05 122.79 65.51 120.4 64.04 118.44 67.28 120.89 68.78 121.22 68.23 119.42 67.13 119.95 66.25 121.57 67.24 121.9 66.7"/><path class="br_cls-6" d="M112.85,62.68l.78.4-.22.43a1.65,1.65,0,0,1-.47,0,1.31,1.31,0,0,1-.47-.14,1,1,0,0,1-.54-.66,1.48,1.48,0,0,1,.2-1,1.33,1.33,0,0,1,.69-.7,1,1,0,0,1,.85.08.9.9,0,0,1,.41.4.81.81,0,0,1,.07.53l.74.22a1.34,1.34,0,0,0-.08-1,1.79,1.79,0,0,0-.84-.77,1.94,1.94,0,0,0-.89-.25,1.66,1.66,0,0,0-1,.29,2.18,2.18,0,0,0-.7.82,2.33,2.33,0,0,0-.26,1,1.6,1.6,0,0,0,.26.94,2.08,2.08,0,0,0,.8.69,2.55,2.55,0,0,0,.9.27,2.06,2.06,0,0,0,.8,0l.69-1.34-1.46-.76Z"/><polygon class="br_cls-6" points="90.44 55.71 90.14 53.06 89.01 52.89 88.46 56.64 89.16 56.74 89.59 53.79 89.9 56.85 90.63 56.96 91.8 54.12 91.37 57.07 92.06 57.17 92.61 53.42 91.48 53.26 90.44 55.71"/><polygon class="br_cls-6" points="84.65 56.2 87.51 56.46 87.56 55.83 85.47 55.63 85.56 54.6 87.45 54.78 87.51 54.15 85.62 53.97 85.7 53.13 87.73 53.32 87.78 52.69 85 52.42 84.65 56.2"/><path class="br_cls-6" d="M73.91,51.9a2.06,2.06,0,0,0-.82.13,1.46,1.46,0,0,0-.5.33,1.8,1.8,0,0,0-.37.51,2.42,2.42,0,0,0-.2,1,2,2,0,0,0,.46,1.43,2,2,0,0,0,2.66.07,2.33,2.33,0,0,0,.07-2.88A1.76,1.76,0,0,0,73.91,51.9Zm.67,3a1,1,0,0,1-1.5,0,1.78,1.78,0,0,1,0-2,1,1,0,0,1,1.51,0,1.44,1.44,0,0,1,.26,1A1.46,1.46,0,0,1,74.59,54.86Z"/><path class="br_cls-7" d="M73.9,52.56a1,1,0,0,0-.77.31,1.78,1.78,0,0,0,0,2,1,1,0,0,0,1.5,0,1.46,1.46,0,0,0,.32-1,1.44,1.44,0,0,0-.26-1A1,1,0,0,0,73.9,52.56Z"/><path class="br_cls-6" d="M79,54.47a1.75,1.75,0,0,0-.4-.32,1.2,1.2,0,0,0,.75-.34,1,1,0,0,0,.26-.7,1.09,1.09,0,0,0-.16-.6.86.86,0,0,0-.44-.37,2.71,2.71,0,0,0-.88-.11l-1.6,0,0,3.79h.76l0-1.58h.15a1.2,1.2,0,0,1,.38,0,.57.57,0,0,1,.23.16,5.3,5.3,0,0,1,.39.56l.54.83h.91l-.45-.74A4.09,4.09,0,0,0,79,54.47Zm-1.16-.85h-.56v-1h.59l.56,0a.46.46,0,0,1,.28.15.44.44,0,0,1,.1.31.51.51,0,0,1-.08.28.42.42,0,0,1-.22.16A2.85,2.85,0,0,1,77.86,53.62Z"/><path class="br_cls-5" d="M78.84,53.14a.44.44,0,0,0-.1-.31.46.46,0,0,0-.28-.15l-.56,0h-.59v1h.56a2.85,2.85,0,0,0,.69,0,.42.42,0,0,0,.22-.16A.51.51,0,0,0,78.84,53.14Z"/><path class="br_cls-6" d="M83.47,52.74a1.26,1.26,0,0,0-.55-.38,2.73,2.73,0,0,0-.71-.11l-1.39-.07L80.63,56l1.43.07a2.28,2.28,0,0,0,.68,0,1.31,1.31,0,0,0,.55-.27,1.66,1.66,0,0,0,.44-.65,2.46,2.46,0,0,0,.16-.8,2.75,2.75,0,0,0-.08-.9A1.66,1.66,0,0,0,83.47,52.74ZM83,54.89a.8.8,0,0,1-.22.35.69.69,0,0,1-.31.14,2,2,0,0,1-.46,0l-.57,0,.13-2.51.34,0a3.41,3.41,0,0,1,.62.07.75.75,0,0,1,.35.2.86.86,0,0,1,.2.38,2.32,2.32,0,0,1,0,.68A2.56,2.56,0,0,1,83,54.89Z"/><path class="br_cls-5" d="M82.86,53.15a.75.75,0,0,0-.35-.2,3.41,3.41,0,0,0-.62-.07l-.34,0-.13,2.51.57,0a2,2,0,0,0,.46,0,.69.69,0,0,0,.31-.14.8.8,0,0,0,.22-.35,2.56,2.56,0,0,0,.11-.69,2.32,2.32,0,0,0,0-.68A.86.86,0,0,0,82.86,53.15Z"/><path class="br_cls-6" d="M102.3,55.83a4.37,4.37,0,0,0-.87-.27l-1.19-.29L99.36,59l.74.18.33-1.39.48.12a4.25,4.25,0,0,0,.78.13,1.09,1.09,0,0,0,.42-.08,1,1,0,0,0,.4-.29,1.24,1.24,0,0,0,.26-.54,1.17,1.17,0,0,0,0-.77A1,1,0,0,0,102.3,55.83ZM102,56.91a.48.48,0,0,1-.15.27.5.5,0,0,1-.27.13,2,2,0,0,1-.6-.08l-.41-.1.25-1,.36.09a3.62,3.62,0,0,1,.53.15.53.53,0,0,1,.26.24A.48.48,0,0,1,102,56.91Z"/><path class="br_cls-5" d="M101.72,56.31a3.62,3.62,0,0,0-.53-.15l-.36-.09-.25,1,.41.1a2,2,0,0,0,.6.08.5.5,0,0,0,.27-.12.55.55,0,0,0,.12-.63A.53.53,0,0,0,101.72,56.31Z"/><path class="br_cls-6" d="M106.43,57.36a2.71,2.71,0,0,0-.79-.39l-1.51-.53L102.87,60l.72.25.52-1.49.14.05a1.21,1.21,0,0,1,.35.17.57.57,0,0,1,.16.22,5.4,5.4,0,0,1,.2.66l.25,1,.86.3-.19-.85a4.19,4.19,0,0,0-.21-.72,1.74,1.74,0,0,0-.28-.44,1.2,1.2,0,0,0,.82-.08,1,1,0,0,0,.47-.58,1.13,1.13,0,0,0,0-.62A.87.87,0,0,0,106.43,57.36Zm-.5.89a.5.5,0,0,1-.17.24.41.41,0,0,1-.25.08,2.91,2.91,0,0,1-.66-.19l-.53-.19.32-.91.56.2.52.2a.46.46,0,0,1,.22.24A.45.45,0,0,1,105.92,58.25Z"/><path class="br_cls-5" d="M105.71,57.69l-.52-.2-.56-.2-.32.91.53.19a2.91,2.91,0,0,0,.66.19.41.41,0,0,0,.25-.08.5.5,0,0,0,.17-.24.45.45,0,0,0,0-.32A.46.46,0,0,0,105.71,57.69Z"/><path class="br_cls-6" d="M109.63,58.52a2.05,2.05,0,0,0-.82-.1,1.46,1.46,0,0,0-.57.18,1.76,1.76,0,0,0-.49.39,2.42,2.42,0,0,0-.45.88,2,2,0,0,0,.05,1.51,1.78,1.78,0,0,0,1.13.89,1.76,1.76,0,0,0,1.42-.1,2.33,2.33,0,0,0,.85-2.75A1.76,1.76,0,0,0,109.63,58.52Zm.42,2.17a1.45,1.45,0,0,1-.57.86,1,1,0,0,1-.81.09,1,1,0,0,1-.62-.54,1.78,1.78,0,0,1,.57-1.87,1,1,0,0,1,1.45.45A1.42,1.42,0,0,1,110.05,60.69Z"/><path class="br_cls-5" d="M109.44,59.15a1,1,0,0,0-.82.08A1.78,1.78,0,0,0,108,61.1a1,1,0,0,0,.62.54,1,1,0,0,0,.81-.09,1.45,1.45,0,0,0,.57-.86,1.42,1.42,0,0,0,0-1A1,1,0,0,0,109.44,59.15Z"/><path class="br_cls-6" d="M116.88,66.28l.81.42-.07-.87a4.47,4.47,0,0,0-.11-.75,1.75,1.75,0,0,0-.21-.47,1.2,1.2,0,0,0,.82,0,1,1,0,0,0,.54-.51,1.09,1.09,0,0,0,.13-.61.85.85,0,0,0-.22-.52,2.68,2.68,0,0,0-.73-.5l-1.43-.74-1.73,3.36.68.35.72-1.4.14.07a1.27,1.27,0,0,1,.32.21.59.59,0,0,1,.13.25,5.13,5.13,0,0,1,.1.68Zm-.53-2.73.44-.85.53.27.49.27a.44.44,0,0,1,.14.59.51.51,0,0,1-.2.22.41.41,0,0,1-.26,0,2.87,2.87,0,0,1-.63-.27Z"/><path class="br_cls-5" d="M117.48,64.08a.41.41,0,0,0,.26,0,.51.51,0,0,0,.2-.22.44.44,0,0,0-.14-.59l-.49-.27-.53-.27-.44.85.5.26A2.87,2.87,0,0,0,117.48,64.08Z"/><path class="br_cls-6" d="M128.29,73.51a1.79,1.79,0,0,0,.82,1.18,1.76,1.76,0,0,0,1.39.32,2,2,0,0,0,1.21-.91,2,2,0,0,0,.39-1.48,1.78,1.78,0,0,0-.81-1.18,2.08,2.08,0,0,0-.76-.33,1.49,1.49,0,0,0-.59,0,1.79,1.79,0,0,0-.58.23,2.39,2.39,0,0,0-.69.71A2,2,0,0,0,128.29,73.51Zm1-1a1.41,1.41,0,0,1,.78-.65,1.05,1.05,0,0,1,1.26.85,1.8,1.8,0,0,1-1.1,1.62,1,1,0,0,1-.8-.15,1,1,0,0,1-.44-.7A1.42,1.42,0,0,1,129.34,72.47Z"/><path class="br_cls-5" d="M130.28,74.29a1.8,1.8,0,0,0,1.1-1.62,1.05,1.05,0,0,0-1.26-.85A1.78,1.78,0,0,0,129,73.45a1,1,0,0,0,.44.7A1,1,0,0,0,130.28,74.29Z"/><polygon class="br_cls-6" points="95.09 57.41 97.1 57.88 97.2 57.43 95.72 57.09 95.89 56.37 97.22 56.67 97.32 56.22 95.99 55.92 96.13 55.33 97.56 55.66 97.66 55.21 95.69 54.75 95.09 57.41"/></g></g></svg>
