<svg xmlns="http://www.w3.org/2000/svg" viewBox="0 0 200 134"><defs><style>.cd_cls-1{fill:#1e9554;}.cd_cls-2{fill:#fade4b;}.cd_cls-3{fill:#dc2c2c;}</style></defs><title>Asset 48</title><g id="Layer_2" data-name="Layer 2"><g id="Layer_53" data-name="Layer 53"><path class="cd_cls-1" d="M17,0A17,17,0,0,0,0,17V117a16.93,16.93,0,0,0,4.68,11.7L133.38,0Z"/><path class="cd_cls-2" d="M183,0H133.38L4.68,128.7A16.94,16.94,0,0,0,17,134H66.62L195.32,5.3A16.94,16.94,0,0,0,183,0Z"/><path class="cd_cls-3" d="M183,134a17,17,0,0,0,17-17V17a16.93,16.93,0,0,0-4.68-11.7L66.62,134Z"/></g></g></svg>
