<svg xmlns="http://www.w3.org/2000/svg" viewBox="0 0 200 134"><defs><style>.cg_cls-1{fill:#2cacdd;}.cg_cls-2{fill:#f6da2f;}.cg_cls-3{fill:#ce2930;}.cg_cls-4{fill:#f6da31;}</style></defs><title>Asset 40</title><g id="Layer_2" data-name="Layer 2"><g id="Layer_61" data-name="Layer 61"><path class="cg_cls-1" d="M17,134H183a17,17,0,0,0,17-17V33.82L13.05,133.52A17,17,0,0,0,17,134Z"/><path class="cg_cls-1" d="M183,0H17A17,17,0,0,0,0,17v83.18L186.94.48A17,17,0,0,0,183,0ZM45.82,52.2,30.91,41.37,16,52.2,21.7,34.67,6.79,23.84H25.22L30.91,6.32l5.7,17.52H55L40.13,34.67Z"/><path class="cg_cls-2" d="M0,100.18v6.72L193.54,3.68a16.91,16.91,0,0,0-6.6-3.2Z"/><path class="cg_cls-2" d="M13.05,133.52,200,33.82V27.1L6.46,130.33A16.93,16.93,0,0,0,13.05,133.52Z"/><path class="cg_cls-3" d="M0,117a17,17,0,0,0,6.46,13.33L200,27.1V17a17,17,0,0,0-6.46-13.32L0,106.9Z"/><polygon class="cg_cls-4" points="36.61 23.84 30.91 6.32 25.22 23.84 6.79 23.84 21.7 34.67 16.01 52.2 30.91 41.37 45.82 52.2 40.13 34.67 55.03 23.84 36.61 23.84"/></g></g></svg>
