<svg id="Layer_1" xmlns="http://www.w3.org/2000/svg" viewBox="0 0 200 134"><style>.st0{fill:#41479b}.st1{fill:#f5f5f5}.st2{fill:#ff4b55}</style><path class="st0" d="M185 134H15c-8.3 0-15-6.9-15-15.3V15.3C0 6.9 6.7 0 15 0h170c8.3 0 15 6.9 15 15.3v103.4c0 8.4-6.7 15.3-15 15.3z"/><path class="st1" d="M3.4 67h6l31.9-21.4V67h17.2V45.6L90.6 67h6c1.9 0 3.4-1.6 3.4-3.5v-2.8L72.6 42.3H100V24.7H72.6L100 6.3V3.5c0-1.9-1.5-3.5-3.4-3.5h-6l-32 21.4V0H41.4v21.4L10.5.7C6.9 1.9 3.9 4.4 2 7.7l25.4 17H0v17.6h27.4L0 60.7v2.8C0 65.4 1.5 67 3.4 67z"/><path class="st2" d="M100 28.2H55.2V0H44.8v28.2H0v10.6h44.8V67h10.4V38.8H100z"/><path class="st2" d="M3.2 5.8l28.4 18.8h6.3L5.7 3.3c-.9.7-1.8 1.6-2.5 2.5zM65 24.7L99.5 1.8C98.9.8 97.8 0 96.6 0h-.7L58.6 24.7H65zM35 42.3L.5 65.2c.6 1.1 1.7 1.8 3 1.8h.7l37.2-24.7H35zM99.9 63.8L67.7 42.3h-6.3L98 66.7c1.1-.6 1.8-1.7 1.9-2.9z"/><g><path class="st1" d="M147.3 24.7l1.3 3.9h4c.3 0 .4.4.2.6l-3.2 2.4 1.2 3.9c.1.3-.2.6-.5.4l-3.3-2.4-3.3 2.4c-.3.2-.6-.1-.5-.4l1.2-3.9-3.2-2.4c-.2-.2-.1-.6.2-.6h4l1.3-3.9c.1-.3.5-.3.6 0zM130.3 29.5l2.7 3 3.7-1.6c.3-.1.6.2.4.5l-2 3.6 2.7 3.1c.2.2 0 .6-.3.5l-3.9-.8-2 3.5c-.2.3-.6.2-.6-.1l-.4-4.1-3.9-.9c-.3-.1-.3-.5-.1-.6l3.6-1.7-.4-4.1c-.1-.4.3-.6.5-.3zM116.7 40.9l3.7 1.6 2.7-3c.2-.2.6-.1.6.3l-.4 4.1 3.6 1.7c.3.1.2.6-.1.6l-3.9.9-.4 4.1c0 .3-.4.4-.6.1l-2-3.5-3.9.8c-.3.1-.5-.3-.3-.5l2.7-3.1-2-3.6c-.3-.3 0-.6.3-.5zM108.8 57h4l1.3-3.9c.1-.3.5-.3.6 0L116 57h4c.3 0 .4.4.2.6L117 60l1.2 3.9c.1.3-.2.6-.5.4l-3.3-2.4-3.3 2.4c-.3.2-.6-.1-.5-.4l1.2-3.9-3.2-2.4c-.3-.2-.1-.6.2-.6zM108 75l3.6-1.7-.4-4.1c0-.3.3-.5.6-.3l2.7 3 3.7-1.6c.3-.1.6.2.4.5l-2 3.6 2.7 3.1c.2.2 0 .6-.3.5l-3.9-.8-2 3.5c-.2.3-.6.2-.6-.1l-.4-4.1-3.9-.9c-.5 0-.5-.5-.2-.6zM114.4 91.8l2.7-3.1-2-3.6c-.2-.3.1-.6.4-.5l3.7 1.6 2.7-3c.2-.2.6-.1.6.3l-.4 4.1 3.6 1.7c.3.1.2.6-.1.6l-3.9.9-.4 4.1c0 .3-.4.4-.6.1l-2-3.5-3.9.8c-.4.1-.6-.3-.4-.5zM126.9 104.5l1.2-3.9-3.2-2.4c-.2-.2-.1-.6.2-.6h4l1.3-3.9c.1-.3.5-.3.6 0l1.3 3.9h4c.3 0 .4.4.2.6l-3.2 2.4 1.2 3.9c.1.3-.2.6-.5.4l-3.3-2.4-3.3 2.4c-.2.1-.6-.1-.5-.4zM143.4 110.8l-.4-4.1-3.9-.9c-.3-.1-.3-.5-.1-.6l3.6-1.7-.4-4.1c0-.3.3-.5.6-.3l2.7 3 3.7-1.6c.3-.1.6.2.4.5l-2 3.6 2.7 3.1c.2.2 0 .6-.3.5l-3.9-.8-2 3.5c-.2.3-.7.2-.7-.1zM161 109.8l-2-3.5-3.9.8c-.3.1-.5-.3-.3-.5l2.7-3.1-2-3.6c-.2-.3.1-.6.4-.5l3.7 1.6 2.7-3c.2-.2.6-.1.6.3l-.4 4.1 3.6 1.7c.3.1.2.6-.1.6l-3.9.9-.4 4.1c-.1.3-.5.3-.7.1zM176.7 101.5l-3.3-2.4-3.3 2.4c-.3.2-.6-.1-.5-.4l1.2-3.9-3.2-2.4c-.2-.2-.1-.6.2-.6h4l1.3-3.9c.1-.3.5-.3.6 0l1.3 3.9h4c.3 0 .4.4.2.6l-3.2 2.4 1.2 3.9c0 .3-.3.6-.5.4zM187.7 87.4l-3.9-.8-2 3.5c-.2.3-.6.2-.6-.1l-.4-4.1-3.9-.9c-.3-.1-.3-.5-.1-.6l3.6-1.7-.4-4.1c0-.3.3-.5.6-.3l2.7 3 3.7-1.6c.3-.1.6.2.4.5l-2 3.6 2.7 3.1c.1.2-.1.6-.4.5zM192.1 70l-3.9.9-.4 4.1c0 .3-.4.4-.6.1l-2-3.5-3.9.8c-.3.1-.5-.3-.3-.5l2.7-3.1-2-3.6c-.2-.3.1-.6.4-.5l3.7 1.6 2.7-3c.2-.2.6-.1.6.3l-.4 4.1 3.6 1.7c.2.1.1.5-.2.6zM189.3 52.2l-3.2 2.4 1.2 3.9c.1.3-.2.6-.5.4l-3.3-2.4-3.3 2.4c-.3.2-.6-.1-.5-.4l1.2-3.9-3.2-2.4c-.2-.2-.1-.6.2-.6h4l1.3-3.9c.1-.3.5-.3.6 0l1.3 3.9h4c.3 0 .4.4.2.6zM179.6 37.1l-2 3.6 2.7 3.1c.2.2 0 .6-.3.5l-3.9-.8-2 3.5c-.2.3-.6.2-.6-.1l-.4-4.1-3.9-.9c-.3-.1-.3-.5-.1-.6l3.6-1.7-.4-4.1c0-.3.3-.5.6-.3l2.7 3 3.7-1.6c.2-.1.4.3.3.5zM164.7 27.4l-.4 4.1 3.6 1.7c.3.1.2.6-.1.6l-3.9.9-.4 4.1c0 .3-.4.4-.6.1l-2-3.5-3.9.8c-.3.1-.5-.3-.3-.5l2.7-3.1-2-3.6c-.2-.3.1-.6.4-.5l3.7 1.6 2.7-3c.2-.2.6 0 .5.3z"/><path class="st1" d="M147.3 24.7l1.3 3.9h4c.3 0 .4.4.2.6l-3.2 2.4 1.2 3.9c.1.3-.2.6-.5.4l-3.3-2.4-3.3 2.4c-.3.2-.6-.1-.5-.4l1.2-3.9-3.2-2.4c-.2-.2-.1-.6.2-.6h4l1.3-3.9c.1-.3.5-.3.6 0z"/></g></svg>