<svg xmlns="http://www.w3.org/2000/svg" viewBox="0 0 200 134"><defs><style>.cn_cls-1{fill:#dd342c;}.cn_cls-2{fill:#ffde00;}</style></defs><title>Asset 38</title><g id="Layer_2" data-name="Layer 2"><g id="Layer_63" data-name="Layer 63"><path class="cn_cls-1" d="M183,0H17A17,17,0,0,0,0,17V117a17,17,0,0,0,17,17H183a17,17,0,0,0,17-17V17A17,17,0,0,0,183,0ZM44.61,49.7,32.76,41.08,20.9,49.7l4.53-13.94L13.57,27.14H28.23l4.53-13.94,4.53,13.94H51.94L40.08,35.76ZM67.74,66.79l-2.51-4L60.76,64l3-3.69L61,55.92l3.63,1.48.91.34L68.68,54v0l.08-.09-.23,5,4.32,1.77L68.1,61.91Zm.58-51.89-.43,4.87-2.51-4.19-4.76,1.1L63.82,13,61.3,8.79l4.5,1.91L69,7l-.43,4.87,4.5,1.91Zm8.55,5.73,3.4,3.51L84.65,22l-2.28,4.32,3.4,3.51L81,29l-2.28,4.32L78,28.44l-4.81-.84,4.39-2.15ZM84,52.12l-4.05-2.73-3.85,3,1.34-4.7L73.36,45l4.88-.18,1.34-4.7,1.68,4.59,4.88-.17-3.85,3Z"/><polygon class="cn_cls-2" points="37.28 27.14 32.76 13.21 28.23 27.14 13.57 27.14 25.43 35.76 20.9 49.7 32.76 41.08 44.61 49.7 40.08 35.76 51.94 27.14 37.28 27.14"/><polygon class="cn_cls-2" points="69.01 7.02 65.8 10.7 61.3 8.79 63.82 12.98 60.61 16.66 65.37 15.57 67.89 19.76 68.31 14.89 73.07 13.8 68.58 11.88 69.01 7.02"/><polygon class="cn_cls-2" points="77.98 28.44 78.67 33.28 80.96 28.96 85.77 29.8 82.37 26.29 84.65 21.97 80.27 24.12 76.86 20.62 77.56 25.45 73.17 27.61 77.98 28.44"/><polygon class="cn_cls-2" points="86.14 44.52 81.26 44.7 79.58 40.11 78.24 44.8 73.36 44.98 77.41 47.71 76.07 52.41 79.92 49.39 83.97 52.12 82.3 47.53 86.14 44.52"/><polygon class="cn_cls-2" points="68.75 53.98 68.67 54.08 68.68 54.03 65.54 57.74 64.64 57.4 61 55.91 63.71 60.28 60.76 63.97 65.23 62.74 67.74 66.79 68.1 61.91 72.84 60.75 68.52 58.98 68.75 53.98"/></g></g></svg>
