<svg xmlns="http://www.w3.org/2000/svg" viewBox="0 0 200 134"><style>.st0{fill:#41479b}.st1{fill:#ffe15a}.st2{fill:#f5f5f5}</style><path class="st0" d="M185.1 0H14.9C6.7 0 0 6.9 0 15.3v103.4c0 8.5 6.7 15.3 15 15.3h170c8.3 0 15-6.9 15-15.3V15.3C200 6.9 193.3 0 185.1 0z"/><path class="st1" d="M0 91.7h200v17.6H0z"/><path class="st2" d="M46.5 33l-3.4 10.4-10.7.1c-1 0-1.5 1.3-.6 2l8.6 6.5-3.2 10.5c-.3 1 .8 1.8 1.6 1.2l8.7-6.4 8.7 6.4c.8.6 2-.2 1.6-1.2L54.6 52l8.6-6.5c.8-.6.4-2-.6-2l-10.7-.1L48.5 33c-.3-1-1.7-1-2 0zM22 13.8l-2 6h-6.2c-.6 0-.8.8-.4 1.1l5 3.8-1.9 6.1c-.2.6.5 1.1 1 .7l5-3.7 5 3.7c.5.4 1.1-.1 1-.7l-1.9-6.1 5-3.8c.5-.4.2-1.1-.4-1.1H25l-2-6c0-.6-.8-.6-1 0z"/></svg>
