<svg xmlns="http://www.w3.org/2000/svg" viewBox="0 0 200 134"><defs><style>.et_cls-1{fill:#e2432d;}.et_cls-2{fill:#f8e132;}.et_cls-3{fill:#166c48;}.et_cls-4{fill:#2caedb;}.et_cls-5{fill:#f8dd11;}.et_cls-6{fill:none;stroke:#010101;stroke-linecap:round;stroke-linejoin:round;stroke-width:0;}</style></defs><title>Asset 57</title><g id="Layer_2" data-name="Layer 2"><g id="Layer_44" data-name="Layer 44"><path class="et_cls-1" d="M100,100.62a33.53,33.53,0,0,1-25-11.2H0V117a17,17,0,0,0,17,17H183a17,17,0,0,0,17-17V89.41H125A33.53,33.53,0,0,1,100,100.62Z"/><path class="et_cls-2" d="M133.62,67A33.49,33.49,0,0,1,125,89.41h75V44.59H125A33.49,33.49,0,0,1,133.62,67Z"/><path class="et_cls-2" d="M66.38,67a33.49,33.49,0,0,1,8.57-22.41H0V89.41H74.95A33.49,33.49,0,0,1,66.38,67Z"/><path class="et_cls-3" d="M183,0H17A17,17,0,0,0,0,17V44.59H74.95a33.6,33.6,0,0,1,50.1,0h75V17A17,17,0,0,0,183,0Z"/><path class="et_cls-4" d="M74.95,89.41A33.6,33.6,0,1,0,66.38,67,33.53,33.53,0,0,0,74.95,89.41ZM114.63,85l1.18,3.63L100,77.17l-11.56,8.4,1.18-3.63,16.81-12.21.73,2.24-5.24,3.81ZM97.38,75.26l-5.24-3.81-4.86,15-3.09,2.24,6-18.58-11.57-8.4h3.81L99.28,73.88Zm-9.1-4.45-13.86,4.5ZM100,93.89v0Zm11.72-23.08,13.86,4.5Zm-2-.74,4.42,13.6-3.08-2.24-6.42-19.76H107l2,6.16,12.72-9.24h3.81Zm6-24.83L107.24,57Zm-17-1.61L100,40l6,18.58h14.3l-3.09,2.24H96.47l.73-2.24h6.48ZM92.75,57,84.19,45.24ZM94,58.59,98.38,45l1.18,3.63L93.14,68.37,91.23,67l2-6.16H77.51l-3.08-2.24Z"/><polygon class="et_cls-5" points="109.04 67.83 107.04 61.67 104.68 61.67 111.1 81.42 114.19 83.67 109.77 70.07 125.58 58.59 121.76 58.59 109.04 67.83"/><polygon class="et_cls-5" points="78.66 61.67 90.23 70.07 84.19 88.65 87.28 86.41 92.14 71.45 97.38 75.26 99.28 73.88 82.48 61.67 78.66 61.67"/><polygon class="et_cls-5" points="97.2 58.59 96.47 60.83 117.25 60.83 120.33 58.59 106.04 58.59 100 40 98.82 43.63 103.68 58.59 97.2 58.59"/><polygon class="et_cls-5" points="106.42 69.73 89.61 81.94 88.43 85.57 100 77.17 115.81 88.65 114.63 85.03 101.91 75.78 107.15 71.97 106.42 69.73"/><polygon class="et_cls-5" points="93.23 60.83 91.23 66.99 93.14 68.37 99.56 48.61 98.38 44.99 93.96 58.59 74.42 58.59 77.51 60.83 93.23 60.83"/><line class="et_cls-6" x1="100" y1="93.89" x2="100" y2="79.33"/><line class="et_cls-6" x1="107.24" y1="57.03" x2="115.81" y2="45.24"/><line class="et_cls-6" x1="111.72" y1="70.81" x2="125.58" y2="75.31"/><line class="et_cls-6" x1="88.28" y1="70.81" x2="74.42" y2="75.31"/><line class="et_cls-6" x1="92.75" y1="57.03" x2="84.19" y2="45.24"/></g></g></svg>
