<svg id="Layer_1" xmlns="http://www.w3.org/2000/svg" viewBox="0 0 200 134"><style>.st0{fill:#82afff}.st1{fill:#f5f5f5}</style><path class="st0" d="M185 134H15c-8.3 0-15-6.9-15-15.3V15.3C0 6.9 6.7 0 15 0h170c8.3 0 15 6.9 15 15.3v103.4c0 8.4-6.7 15.3-15 15.3z"/><path class="st1" d="M99.5 19.3l-2.7 8.1-8.4.1c-.5 0-.7.6-.3.9l6.8 5.1-2.5 8.2c-.1.4.4.8.7.5l6.8-5 6.8 5c.4.3.9-.1.7-.5l-2.5-8.2 6.8-5.1c.4-.3.2-.9-.3-.9l-8.4-.1-2.7-8.1c0-.5-.6-.5-.8 0zM99.5 92l-2.7 8.1-8.4.1c-.5 0-.7.6-.3.9l6.8 5.1-2.5 8.2c-.1.4.4.8.7.5l6.8-5 6.8 5c.4.3.9-.1.7-.5l-2.5-8.2 6.8-5.1c.4-.3.2-.9-.3-.9l-8.4-.1-2.7-8.1c0-.4-.6-.4-.8 0zM146.7 66.5l-8-2.7-.1-8.6c0-.5-.6-.7-.9-.3l-5 6.9-8-2.6c-.4-.1-.8.4-.5.8l4.9 7-4.9 7c-.3.4.1.9.5.8l8-2.6 5 6.9c.3.4.9.2.9-.3l.1-8.6 8-2.7c.4-.2.4-.8 0-1zM53.3 66.5l8-2.7.1-8.6c0-.5.6-.7.9-.3l5 6.9 8-2.6c.4-.1.8.4.5.8l-4.9 7 4.9 7c.3.4-.1.9-.5.8l-8-2.6-5 6.9c-.3.4-.9.2-.9-.3l-.1-8.6-8-2.7c-.4-.2-.4-.8 0-1z"/></svg>