<svg id="Layer_1" xmlns="http://www.w3.org/2000/svg" viewBox="0 0 200 134"><style>.st0{fill:#ff4b55}.st1{fill:#ffe15a}.st2{fill:#73af00}</style><path class="st0" d="M185 134H15c-8.3 0-15-6.9-15-15.3V15.3C0 6.9 6.7 0 15 0h170c8.3 0 15 6.9 15 15.3v103.4c0 8.4-6.7 15.3-15 15.3z"/><path class="st1" d="M179.3 21.2v91.7H20.7V21.2h158.6"/><path class="st2" d="M20.7 21.2L100 67l-79.3 45.8zM179.3 21.2L100 67l79.3 45.8z"/><ellipse class="st0" cx="100" cy="67" rx="13.8" ry="14.1"/><path class="st1" d="M100.9 56.7l2.2 6.6 6.8.1c.9 0 1.2 1.2.5 1.7l-5.5 4.1 2.1 6.6c.3.9-.7 1.6-1.4 1l-5.5-4.1-5.5 4.1c-.7.5-1.7-.2-1.4-1l2.1-6.6-5.7-4.2c-.7-.5-.3-1.7.5-1.7l6.8-.1 2.2-6.6c.3-.8 1.5-.8 1.8.1zM100.5 4.7l1.3 3.9h4c.5 0 .7.7.3 1l-3.2 2.4 1.2 3.9c.2.5-.4.9-.8.6l-3.3-2.4-3.3 2.4c-.4.3-1-.1-.8-.6l1.2-3.9-3.2-2.4c-.4-.3-.2-1 .3-1h4l1.3-3.9c.2-.5.8-.5 1 0zM145.9 4.7l1.3 3.9h4c.5 0 .7.7.3 1l-3.2 2.4 1.2 3.9c.2.5-.4.9-.8.6l-3.3-2.4-3.3 2.4c-.4.3-1-.1-.8-.6l1.2-3.9-3.2-2.4c-.4-.3-.2-1 .3-1h4l1.3-3.9c.1-.5.8-.5 1 0zM55.1 4.7l1.3 3.9h4c.5 0 .7.7.3 1L57.5 12l1.2 3.9c.2.5-.4.9-.8.6l-3.3-2.4-3.3 2.4c-.4.3-1-.1-.8-.6l1.2-3.9-3.2-2.4c-.4-.3-.2-1 .3-1h4l1.3-3.9c.2-.5.9-.5 1 0zM100.5 117.3l1.3 3.9h4c.5 0 .7.7.3 1l-3.2 2.4 1.2 3.9c.2.5-.4.9-.8.6l-3.3-2.4-3.3 2.4c-.4.3-1-.1-.8-.6l1.2-3.9-3.2-2.4c-.4-.3-.2-1 .3-1h4l1.3-3.9c.2-.5.8-.5 1 0zM145.9 117.3l1.3 3.9h4c.5 0 .7.7.3 1l-3.2 2.4 1.2 3.9c.2.5-.4.9-.8.6l-3.3-2.4-3.3 2.4c-.4.3-1-.1-.8-.6l1.2-3.9-3.2-2.4c-.4-.3-.2-1 .3-1h4l1.3-3.9c.1-.5.8-.5 1 0zM55.1 117.3l1.3 3.9h4c.5 0 .7.7.3 1l-3.2 2.4 1.2 3.9c.2.5-.4.9-.8.6l-3.3-2.4-3.3 2.4c-.4.3-1-.1-.8-.6l1.2-3.9-3.2-2.4c-.4-.3-.2-1 .3-1h4l1.3-3.9c.2-.5.9-.5 1 0zM46.1 58.2h-8.6V67c0 4.9 3.9 8.8 8.6 8.8s8.6-3.9 8.6-8.8-3.8-8.8-8.6-8.8z"/><path class="st0" d="M54.7 75.8l-4.7-.9-3.9-7.9 7.7 4z"/></svg>