<svg xmlns="http://www.w3.org/2000/svg" viewBox="0 0 200 134"><defs><style>.gl_cls-1{fill:#d02a3e;}.gl_cls-2{fill:#fafafa;}</style></defs><title>Asset 70</title><g id="Layer_2" data-name="Layer 2"><g id="Layer_31" data-name="Layer 31"><path class="gl_cls-1" d="M77.63,111.75A44.75,44.75,0,0,1,32.88,67H0v50a17,17,0,0,0,17,17H183a17,17,0,0,0,17-17V67H122.38A44.75,44.75,0,0,1,77.63,111.75Z"/><path class="gl_cls-2" d="M183,0H17A17,17,0,0,0,0,17V67H32.88a44.75,44.75,0,1,1,89.5,0H200V17A17,17,0,0,0,183,0Z"/><path class="gl_cls-1" d="M77.63,22.25A44.75,44.75,0,0,0,32.88,67h89.5A44.75,44.75,0,0,0,77.63,22.25Z"/><path class="gl_cls-2" d="M77.63,111.75A44.75,44.75,0,0,0,122.38,67H32.88A44.75,44.75,0,0,0,77.63,111.75Z"/></g></g></svg>
