<svg xmlns="http://www.w3.org/2000/svg" viewBox="0 0 200 134"><defs><style>.gq_cls-1{fill:#409b46;}.gq_cls-2{fill:#fff;}.gq_cls-3{fill:#e22e2d;}.gq_cls-4{fill:#cdcccc;}.gq_cls-5{fill:#010101;}.gq_cls-6{fill:#672d11;}.gq_cls-7{fill:#089346;}.gq_cls-8{fill:#ffd107;}.gq_cls-9{fill:#2b72ba;}</style></defs><title>Asset 55</title><g id="Layer_2" data-name="Layer 2"><g id="Layer_46" data-name="Layer 46"><path class="gq_cls-1" d="M183,0H17A16.93,16.93,0,0,0,4.7,5.29L44.26,44.85H200V17A17,17,0,0,0,183,0Z"/><path class="gq_cls-2" d="M87.73,75.54a1.81,1.81,0,0,1-.31.19A1.36,1.36,0,0,0,87.73,75.54Z"/><path class="gq_cls-2" d="M114.73,75.54l-.11.08a.62.62,0,0,1,.1.12A1.8,1.8,0,0,1,114.73,75.54Z"/><path class="gq_cls-2" d="M66.41,67,44.26,89.15H200V44.85H44.26Zm44.7-16.21,1.22.35,1-.73.28,1.14,1.19.42-.94.79.19,1.16-1.22-.35-1,.73-.28-1.14-1.2-.42.94-.79Zm-5-1.75,1.28.11.81-.9.53,1.06,1.27.19-.74,1,.45,1.09-1.28-.11-.81.9-.53-1.06-1.26-.19.74-1Zm-5.4-.55,1.28,0,.68-1,.68,1,1.28,0-.6,1,.6,1-1.28,0-.68,1-.68-1-1.28,0,.6-1Zm-5.23,0,1.28,0,.68-1,.68,1,1.28,0-.6,1,.6,1-1.28,0-.68,1-.68-1-1.28,0,.6-1Zm-3.67,1,.53-1.06.81.9,1.28-.11L94,50.26l.74,1-1.26.19-.53,1.06-.81-.9-1.28.11.45-1.09-.74-1Zm-1.65,4.47h20V75.54A3.27,3.27,0,0,1,106.85,79H102.4c-1.16,0-2.22,1.73-2.22,1.73S99.06,79,97.95,79H93.5a3.27,3.27,0,0,1-3.34-3.46ZM86.8,51.29l.28-1.14,1,.73,1.22-.35-.19,1.16.94.79-1.2.42L88.58,54l-1-.73-1.22.35.2-1.15-.94-.79ZM83.26,71.22c1,.76,5.59,3.46,4.47,4.33l-.79,3.67a6.29,6.29,0,0,0,4.14,1.52c4.47,0,6.71-1.73,6.71-.87h0V83a31.8,31.8,0,0,0,4.47,0V79.87h0c0-.87,2.24.87,6.71.87a6.28,6.28,0,0,0,4.14-1.52l-.79-3.67a1,1,0,0,0,.59.25,1.93,1.93,0,0,1-.41-.25C111.37,74.68,116,72,117,71.22v4.33c0,.71-.75,1.41-1.65,1.64a8.71,8.71,0,0,1,.36,2.69,2.16,2.16,0,0,1-.3,1l.11.07-.19.11h0c-.81,1.24-2.91,2.24-6.31,2.24h-4.47v2.6c0,.86-8.94.86-8.94,0v-2.6H91.08c-4.47,0-6.71-1.73-6.71-3.46a8.67,8.67,0,0,1,.37-2.73,2,2,0,0,1-1.49-1.6Z"/><path class="gq_cls-3" d="M4.7,128.71A16.94,16.94,0,0,0,17,134H183a17,17,0,0,0,17-17V89.15H44.26Z"/><path class="gq_cls-4" d="M93.5,79h4.45c1.11,0,2.22,1.73,2.22,1.73S101.24,79,102.4,79h4.45a3.27,3.27,0,0,0,3.34-3.46V53.91h-20V75.54A3.27,3.27,0,0,0,93.5,79ZM91.77,62.7c.09-.06.14-.29.27-.34s.25,0,.49,0-.31-.27-.09-.27a.37.37,0,0,0,.31-.2h.54v0c0,.08,0,0,0-.1a.73.73,0,0,1,.22-.3c.16,0,.4,0,.58,0s.31.17.31,0c.23,0,.24-.18.31-.27s.27-.22.45-.1,0,0,.27,0,.22.09.36,0a2.12,2.12,0,0,0,.09-.4,1,1,0,0,1,0-.43c.12-.12.34.1.54.07s.22-.14.13-.27a.84.84,0,0,1,0-.44c.07-.15.17-.15.36-.23s0-.24,0-.4c.21,0,.21,0,.22-.2a1.13,1.13,0,0,1,.27-.3c.11-.1.23-.09.31-.23s.07-.19.27-.23a1.18,1.18,0,0,0,.36-.13,3.78,3.78,0,0,1,.31-.37,5.32,5.32,0,0,1,1,.07,2.47,2.47,0,0,1,.4-.34,1.11,1.11,0,0,1,.54-.1,1.17,1.17,0,0,0,.58.07.39.39,0,0,1,.45-.1c.18.09.29.09.36.23s.08.25.36.27a.72.72,0,0,1,.49.17c.28.09.27,0,.27.23.2,0,.22,0,.22.13a1.32,1.32,0,0,1,.36.17.47.47,0,0,0,.4.17c.19-.06.25-.06.27-.23s.17-.15.22-.27.19-.13.45-.13.22.14.18.3c.14,0,.2,0,.22.13a.17.17,0,0,1,0,.27.49.49,0,0,1,.22.3c-.08.09,0,.23,0,.33a3.31,3.31,0,0,0,.45.17,1.58,1.58,0,0,0,.54.17.87.87,0,0,1,.54.07c.11.12.12.27.22.33s.31.11.4.2.19.17.4.2a4.37,4.37,0,0,1,.31.34c.05.11.07.3.13.44v.47c0,.17,0,.28,0,.47a.52.52,0,0,0-.09.27,1.63,1.63,0,0,1-.27.37,1.59,1.59,0,0,1-.22.4c0,.17,0,.25,0,.43a1,1,0,0,1-.4.27c-.15.13-.23.18-.27.37s-.08.1-.27.1-.42,0-.62,0-.25,0-.36-.07a1.14,1.14,0,0,0-.62,0,.66.66,0,0,0-.4-.1,4.81,4.81,0,0,1-.54,0,.55.55,0,0,0-.45-.13,2.17,2.17,0,0,1-.58,0,.38.38,0,0,1-.31-.23,1,1,0,0,0-.4-.13l-.44,0A2.71,2.71,0,0,0,101,65.46c0,.74-.12,7.26,2.2,11.19.32.56-.24.9-.6.9s-.68-.78-.68-.87,0,1-.46,1-.64-.83-.64-.83-.37.55-.73.64-.46-.74-.46-.64-.18.55-.55.46-.8-.3-.64-.74a23.76,23.76,0,0,0,1.46-11.14c0-.64-.42-1-.87-1.47s-1.11-.31-1.69-.43l0-.62a2.26,2.26,0,0,1,1.73.28,8.29,8.29,0,0,1,.78.78l0-1.56h-.14a2.18,2.18,0,0,1-.49,0,1.16,1.16,0,0,0-.49-.13,1.7,1.7,0,0,1-.54.17c-.18.08-.29.1-.36.23a1.86,1.86,0,0,1-.49.23c-.12.09-.24.1-.31.27a1.07,1.07,0,0,0-.09.4.42.42,0,0,1-.09.4,1.9,1.9,0,0,1-.4.23.56.56,0,0,1-.4-.07,5.33,5.33,0,0,0-.54-.1.83.83,0,0,1-.45-.17,1.17,1.17,0,0,0-.62-.23c-.28,0-.4,0-.45.2.16,0,0,.1,0,.13a1.37,1.37,0,0,1-.45.17c-.07.05-.06,0-.18-.07a2.28,2.28,0,0,0-.45-.17,3.68,3.68,0,0,0-.31-.33,2.22,2.22,0,0,0-.31-.27c-.06-.07-.22-.07-.31-.13S91.73,62.83,91.77,62.7Z"/><path class="gq_cls-4" d="M101.55,63.31l.07-.05-.07-.05c-.2,0-.31,0-.4-.07a3.49,3.49,0,0,0-.45-.3h0v1.44A4.77,4.77,0,0,1,101.55,63.31Z"/><path class="gq_cls-4" d="M84.75,77.14A6.75,6.75,0,0,1,85.24,76a.74.74,0,0,1,.26-.45c1-.77,1.11.53,1.92.19a1.81,1.81,0,0,0,.31-.19c1.12-.87-3.49-3.57-4.47-4.33v4.33A2,2,0,0,0,84.75,77.14Z"/><path class="gq_cls-4" d="M85.28,75.93l0,.07s0,.06,0,.09S85.26,76,85.28,75.93Z"/><path class="gq_cls-4" d="M85.5,75.54c-.08.13-.15.25-.22.38s0,.11-.05.16a4.23,4.23,0,0,0,1.71,3.13l.79-3.67a1.36,1.36,0,0,1-.31.19C86.6,76.07,86.5,74.77,85.5,75.54Z"/><path class="gq_cls-4" d="M114.82,76.09s0-.06,0-.09l0-.07S114.8,76,114.82,76.09Z"/><path class="gq_cls-4" d="M114.55,75.54a.49.49,0,0,1,.06.08l.11-.08a1.8,1.8,0,0,0,0,.19.82.82,0,0,1,.09.26,6.79,6.79,0,0,1,.51,1.19c.89-.23,1.65-.93,1.65-1.64V71.22c-1,.76-5.59,3.46-4.47,4.33a1.93,1.93,0,0,0,.41.25C113.49,75.78,113.68,74.87,114.55,75.54Z"/><path class="gq_cls-4" d="M114.82,76.09c0-.05,0-.11-.05-.16s-.13-.26-.22-.38c-.88-.68-1.07.24-1.65.25a1,1,0,0,1-.59-.25l.79,3.67A4.21,4.21,0,0,0,114.82,76.09Z"/><polygon class="gq_cls-4" points="97.79 79.87 97.79 79.87 97.79 79.87 97.79 79.87"/><path class="gq_cls-4" d="M97.79,83V79.87c0,.69-1.39,1.91-2,2.82A7.18,7.18,0,0,0,97.79,83Z"/><path class="gq_cls-4" d="M102.26,79.87V83a7.18,7.18,0,0,0,2-.34C103.65,81.78,102.26,80.56,102.26,79.87Z"/><polygon class="gq_cls-4" points="102.26 79.87 102.26 79.87 102.26 79.87 102.26 79.87"/><path class="gq_cls-4" d="M98.89,84.59a.51.51,0,0,0,.09-.32.58.58,0,0,0-.05-.26.27.27,0,0,0-.14-.14.7.7,0,0,0-.21,0h-.43v.86h.44A.37.37,0,0,0,98.89,84.59Z"/><path class="gq_cls-4" d="M100.2,84.31c-.05-.2-.09-.37-.12-.5a4.15,4.15,0,0,1-.09.46L99.8,85h.57Z"/><path class="gq_cls-4" d="M95.55,83.33v2.6c0,.86,8.94.86,8.94,0v-2.6a1.34,1.34,0,0,0-.26-.64,7.18,7.18,0,0,1-2,.34,31.8,31.8,0,0,1-4.47,0,7.18,7.18,0,0,1-2-.34A1.34,1.34,0,0,0,95.55,83.33Zm5.38,2.34.87-1.55c.06-.11.12-.21.17-.29H101v-.29h1.21v.29l-.95,1.67-.1.17h1.08V86h-1.34Zm-1-2.12h.24L100.9,86h-.26l-.2-.73h-.71l-.19.73h-.24Zm-2,0h.64a1.08,1.08,0,0,1,.26,0,.43.43,0,0,1,.21.11.57.57,0,0,1,.13.23,1,1,0,0,1,.05.33.94.94,0,0,1-.14.52.54.54,0,0,1-.49.21h-.44v1h-.22Z"/><path class="gq_cls-4" d="M94.14,82.75a.88.88,0,0,0,.12-.3,2,2,0,0,0,0-.47,1.51,1.51,0,0,0-.09-.58.55.55,0,0,0-.21-.27.64.64,0,0,0-.29,0h-.36v1.84h.36a.61.61,0,0,0,.26,0A.38.38,0,0,0,94.14,82.75Z"/><path class="gq_cls-4" d="M90.83,82.75a.88.88,0,0,0,.13-.3A2,2,0,0,0,91,82a1.54,1.54,0,0,0-.07-.58.54.54,0,0,0-.2-.28.63.63,0,0,0-.29-.06h-.36L90,82.91h.36a.62.62,0,0,0,.26,0A.39.39,0,0,0,90.83,82.75Z"/><path class="gq_cls-4" d="M92.26,81.54q-.08-.31-.12-.5c0,.15-.05.31-.09.46l-.19.71h.57Z"/><path class="gq_cls-4" d="M85.23,76.09s0-.06,0-.09a6.75,6.75,0,0,0-.49,1.15,8.67,8.67,0,0,0-.37,2.73c0,1.73,2.24,3.46,6.71,3.46h4.47a1.34,1.34,0,0,1,.26-.64c.58-.91,2-2.14,2-2.82h0c0-.87-2.24.87-6.71.87a6.29,6.29,0,0,1-4.14-1.52A4.23,4.23,0,0,1,85.23,76.09Zm7.91,4.7h.58a1,1,0,0,1,.3,0,.52.52,0,0,1,.25.17,1,1,0,0,1,.2.41,2.13,2.13,0,0,1,.07.57,2.43,2.43,0,0,1,0,.49,1.43,1.43,0,0,1-.12.35.79.79,0,0,1-.16.22.55.55,0,0,1-.2.12.83.83,0,0,1-.27,0h-.61Zm-1.11,0h.24L93,83.2H92.7l-.2-.73H91.8l-.19.73h-.24Zm-2.13,0h.58a1,1,0,0,1,.3,0A.52.52,0,0,1,91,81a1,1,0,0,1,.19.42,2.19,2.19,0,0,1,0,.57,2.47,2.47,0,0,1-.06.49,1.56,1.56,0,0,1-.13.35.81.81,0,0,1-.16.21.56.56,0,0,1-.21.12.86.86,0,0,1-.27,0h-.61Zm-.52-.11L88.85,83l-.22,0,.53-2.37ZM87.83,80l-.31,2,1.09-1.67.19.08-1.39,2.13-.2-.09.31-2-1.09,1.67-.19-.08,1.39-2.13Zm-1-.85-1.2,1a2.49,2.49,0,0,0-.37.35.4.4,0,0,0-.1.24.26.26,0,0,0,.1.2.42.42,0,0,0,.39.09,1.8,1.8,0,0,0,.6-.37l1.2-1,.16.13-1.2,1a3.31,3.31,0,0,1-.54.38,1,1,0,0,1-.45.13.57.57,0,0,1-.39-.13.42.42,0,0,1-.18-.31.58.58,0,0,1,.14-.36,2.86,2.86,0,0,1,.47-.47l1.2-1Z"/><path class="gq_cls-4" d="M85.5,75.54a.74.74,0,0,0-.26.45l0-.07C85.35,75.8,85.41,75.67,85.5,75.54Z"/><path class="gq_cls-4" d="M114.62,75.62a.49.49,0,0,0-.06-.08c.08.13.15.26.22.38l0,.07a.82.82,0,0,0-.09-.26A.62.62,0,0,0,114.62,75.62Z"/><path class="gq_cls-4" d="M114.43,80.49l-.58-.41-.42-.31a4,4,0,0,1,.24.38l.33.6Z"/><path class="gq_cls-4" d="M104.49,83.33H109c3.4,0,5.5-1,6.31-2.24l-.62-.44-.52.32.35.62-.18.11-1.13-2.06.18-.11,2,1.39a2.16,2.16,0,0,0,.3-1,8.71,8.71,0,0,0-.36-2.69,6.79,6.79,0,0,0-.51-1.19s0,.06,0,.09a4.21,4.21,0,0,1-1.71,3.13A6.28,6.28,0,0,1,109,80.74c-4.47,0-6.71-1.73-6.71-.87h0c0,.69,1.39,1.91,2,2.82A1.34,1.34,0,0,1,104.49,83.33Zm8.35-3.46L114,81.8l-.2.08L112.65,80Zm-1.18.65a.58.58,0,0,1,.32-.25.65.65,0,0,1,.47,0,1.12,1.12,0,0,1,.43.35l-.18.13a.86.86,0,0,0-.31-.26.43.43,0,0,0-.31,0,.39.39,0,0,0-.25.21.55.55,0,0,0,0,.35,1.47,1.47,0,0,0,.14.4,1.9,1.9,0,0,0,.27.42.73.73,0,0,0,.32.22.5.5,0,0,0,.31,0,.34.34,0,0,0,.23-.23.71.71,0,0,0,0-.43h.24a.94.94,0,0,1,0,.57.51.51,0,0,1-.33.31.73.73,0,0,1-.48,0,1.09,1.09,0,0,1-.43-.3,2.09,2.09,0,0,1-.34-.5,1.6,1.6,0,0,1-.17-.57A.69.69,0,0,1,111.67,80.53Zm-.53.15.75,2-.21.05-.75-2Zm-.32.14,0,.25-.56,0,.2,1.88-.22,0-.2-1.88-.55,0,0-.25Zm-1.62,1.55a.34.34,0,0,0-.15-.13l-.3-.1a1.35,1.35,0,0,1-.33-.13.51.51,0,0,1-.18-.2.6.6,0,0,1-.06-.27.64.64,0,0,1,.07-.3.48.48,0,0,1,.21-.21.66.66,0,0,1,.31-.07.69.69,0,0,1,.33.08.51.51,0,0,1,.22.22.76.76,0,0,1,.08.34l-.21,0a.49.49,0,0,0-.12-.31.39.39,0,0,0-.29-.1.4.4,0,0,0-.3.1.31.31,0,0,0-.09.23.27.27,0,0,0,.06.19.78.78,0,0,0,.34.15,1.85,1.85,0,0,1,.37.14.55.55,0,0,1,.22.22.63.63,0,0,1,.07.3.7.7,0,0,1-.08.32.58.58,0,0,1-.22.24.65.65,0,0,1-.33.08.8.8,0,0,1-.38-.08.6.6,0,0,1-.24-.25.85.85,0,0,1-.09-.38l.21,0a.69.69,0,0,0,.07.26.41.41,0,0,0,.17.17.53.53,0,0,0,.26.06.51.51,0,0,0,.22,0,.34.34,0,0,0,.15-.13.37.37,0,0,0,0-.18A.32.32,0,0,0,109.2,82.37Zm-2.8-1.45h.22l-.07,1.23a1.48,1.48,0,0,0,0,.41.36.36,0,0,0,.13.21.4.4,0,0,0,.24.08.42.42,0,0,0,.36-.13,1,1,0,0,0,.13-.54L107.5,81h.22l-.07,1.23a1.85,1.85,0,0,1-.09.51.59.59,0,0,1-.62.4.66.66,0,0,1-.38-.12.55.55,0,0,1-.2-.31,1.82,1.82,0,0,1,0-.54Zm-1.45,1.44a.64.64,0,0,0,.07.34.21.21,0,0,0,.18.09.23.23,0,0,0,.15,0,.25.25,0,0,0,.08-.13,1.21,1.21,0,0,0,0-.27V80.86h.22v1.46a1.23,1.23,0,0,1-.05.42.43.43,0,0,1-.16.22.44.44,0,0,1-.26.08.4.4,0,0,1-.34-.16.81.81,0,0,1-.11-.48Z"/><polygon class="gq_cls-5" points="114 81.8 112.85 79.88 112.65 79.96 113.8 81.88 114 81.8"/><path class="gq_cls-5" d="M112.09,82a1.09,1.09,0,0,0,.43.3.73.73,0,0,0,.48,0,.51.51,0,0,0,.33-.31.94.94,0,0,0,0-.57h-.24a.71.71,0,0,1,0,.43.34.34,0,0,1-.23.23.5.5,0,0,1-.31,0,.73.73,0,0,1-.32-.22,1.9,1.9,0,0,1-.27-.42,1.47,1.47,0,0,1-.14-.4.55.55,0,0,1,0-.35.39.39,0,0,1,.25-.21.43.43,0,0,1,.31,0,.86.86,0,0,1,.31.26l.18-.13a1.12,1.12,0,0,0-.43-.35.65.65,0,0,0-.47,0,.58.58,0,0,0-.32.25.69.69,0,0,0-.1.44,1.6,1.6,0,0,0,.17.57A2.09,2.09,0,0,0,112.09,82Z"/><polygon class="gq_cls-5" points="111.89 82.73 111.14 80.68 110.93 80.73 111.67 82.78 111.89 82.73"/><polygon class="gq_cls-5" points="110.06 81.13 110.26 83.01 110.48 82.99 110.28 81.11 110.84 81.07 110.81 80.82 109.48 80.92 109.51 81.17 110.06 81.13"/><path class="gq_cls-5" d="M109,82.86a.51.51,0,0,1-.22,0,.53.53,0,0,1-.26-.06.41.41,0,0,1-.17-.17.69.69,0,0,1-.07-.26l-.21,0a.85.85,0,0,0,.09.38.6.6,0,0,0,.24.25.8.8,0,0,0,.38.08.65.65,0,0,0,.33-.08.58.58,0,0,0,.22-.24.7.7,0,0,0,.08-.32.63.63,0,0,0-.07-.3.55.55,0,0,0-.22-.22,1.85,1.85,0,0,0-.37-.14.78.78,0,0,1-.34-.15.27.27,0,0,1-.06-.19.31.31,0,0,1,.09-.23.4.4,0,0,1,.3-.1.39.39,0,0,1,.29.1.49.49,0,0,1,.12.31l.21,0a.76.76,0,0,0-.08-.34.51.51,0,0,0-.22-.22.69.69,0,0,0-.33-.08.66.66,0,0,0-.31.07.48.48,0,0,0-.21.21.64.64,0,0,0-.07.3.6.6,0,0,0,.06.27.51.51,0,0,0,.18.2,1.35,1.35,0,0,0,.33.13l.3.1a.34.34,0,0,1,.15.13.32.32,0,0,1,0,.17.37.37,0,0,1,0,.18A.34.34,0,0,1,109,82.86Z"/><path class="gq_cls-5" d="M106.56,83a.66.66,0,0,0,.38.12.59.59,0,0,0,.63-.4,1.85,1.85,0,0,0,.09-.51l.07-1.23h-.22l-.07,1.23a1,1,0,0,1-.13.54.42.42,0,0,1-.36.13.4.4,0,0,1-.24-.08.36.36,0,0,1-.13-.21,1.48,1.48,0,0,1,0-.41l.07-1.23h-.22l-.07,1.23a1.82,1.82,0,0,0,0,.54A.55.55,0,0,0,106.56,83Z"/><path class="gq_cls-5" d="M105.2,83a.44.44,0,0,0,.26-.08.43.43,0,0,0,.16-.22,1.23,1.23,0,0,0,.05-.42V80.86h-.22v1.47a1.21,1.21,0,0,1,0,.27.25.25,0,0,1-.08.13.23.23,0,0,1-.15,0,.21.21,0,0,1-.18-.09.64.64,0,0,1-.07-.34l-.2,0a.81.81,0,0,0,.11.48A.4.4,0,0,0,105.2,83Z"/><path class="gq_cls-5" d="M102.28,85.68H101.2l.1-.17.95-1.67v-.29H101v.29H102c-.05.08-.11.18-.17.29l-.87,1.55V86h1.34Z"/><polygon class="gq_cls-5" points="88.85 83.04 89.38 80.66 89.16 80.63 88.63 83 88.85 83.04"/><polygon class="gq_cls-5" points="86.42 82.15 87.51 80.48 87.2 82.5 87.41 82.58 88.8 80.46 88.61 80.38 87.52 82.05 87.83 80.03 87.62 79.94 86.23 82.07 86.42 82.15"/><path class="gq_cls-5" d="M85,80.51a.58.58,0,0,0-.14.36.42.42,0,0,0,.18.31.57.57,0,0,0,.39.13,1,1,0,0,0,.45-.13,3.31,3.31,0,0,0,.54-.38l1.2-1-.16-.13-1.2,1a1.8,1.8,0,0,1-.6.37.42.42,0,0,1-.39-.09.26.26,0,0,1-.1-.2.4.4,0,0,1,.1-.24,2.49,2.49,0,0,1,.37-.35l1.2-1-.16-.13-1.2,1A2.86,2.86,0,0,0,85,80.51Z"/><path class="gq_cls-5" d="M90.7,83.16A.56.56,0,0,0,90.9,83a.81.81,0,0,0,.16-.21,1.56,1.56,0,0,0,.13-.35,2.47,2.47,0,0,0,.06-.49,2.19,2.19,0,0,0,0-.57A1,1,0,0,0,91,81a.52.52,0,0,0-.24-.18,1,1,0,0,0-.3,0H89.9l-.08,2.41h.61A.86.86,0,0,0,90.7,83.16ZM90,82.91l.06-1.84h.36a.63.63,0,0,1,.29.06.54.54,0,0,1,.2.28A1.54,1.54,0,0,1,91,82a2,2,0,0,1-.06.46.88.88,0,0,1-.13.3.39.39,0,0,1-.16.12.62.62,0,0,1-.26,0Z"/><path class="gq_cls-5" d="M91.8,82.47h.71l.2.73H93l-.69-2.41H92l-.65,2.41h.24Zm.25-1c0-.15.07-.31.09-.46q0,.2.12.5l.18.67h-.57Z"/><path class="gq_cls-5" d="M94,83.16a.55.55,0,0,0,.2-.12.79.79,0,0,0,.16-.22,1.43,1.43,0,0,0,.12-.35,2.43,2.43,0,0,0,0-.49,2.13,2.13,0,0,0-.07-.57,1,1,0,0,0-.2-.41.52.52,0,0,0-.25-.17,1,1,0,0,0-.3,0h-.58V83.2h.61A.83.83,0,0,0,94,83.16Zm-.66-.24V81.07h.36a.64.64,0,0,1,.29,0,.55.55,0,0,1,.21.27,1.51,1.51,0,0,1,.09.58,2,2,0,0,1,0,.47.88.88,0,0,1-.12.3.38.38,0,0,1-.15.12.61.61,0,0,1-.26,0Z"/><path class="gq_cls-5" d="M98.15,85h.44a.54.54,0,0,0,.49-.21.94.94,0,0,0,.14-.52,1,1,0,0,0-.05-.33.57.57,0,0,0-.13-.23.43.43,0,0,0-.21-.11,1.08,1.08,0,0,0-.26,0h-.64V86h.22Zm0-1.15h.43a.7.7,0,0,1,.21,0,.27.27,0,0,1,.14.14.58.58,0,0,1,.05.26.51.51,0,0,1-.09.32.37.37,0,0,1-.31.11h-.44Z"/><path class="gq_cls-5" d="M99.74,85.24h.71l.2.73h.26l-.69-2.41H100L99.31,86h.24Zm.25-1a4.15,4.15,0,0,0,.09-.46c0,.13.07.3.12.5l.18.67H99.8Z"/><path class="gq_cls-5" d="M113.35,79.52l-.18.11,1.13,2.06.18-.11-.35-.62.52-.32.63.44h0l.19-.11-.11-.07Zm.65,1.23-.33-.6a4,4,0,0,0-.24-.38l.42.31.58.41Z"/><path class="gq_cls-6" d="M101.86,63.44a1.07,1.07,0,0,0-.24-.18l-.07.05a4.77,4.77,0,0,0-.87,1V62.82a.7.7,0,0,1-.34-.32c0-.16,0-.2-.18-.2a.53.53,0,0,1-.35.13l0,1.56a8.29,8.29,0,0,0-.78-.78,2.26,2.26,0,0,0-1.73-.28l0,.62c.58.12,1.32-.12,1.69.43s.87.83.87,1.47A23.76,23.76,0,0,1,98.4,76.6c-.17.43.27.64.64.74s.55-.37.55-.46.09.74.46.64.73-.64.73-.64.18.83.64.83.46-1,.46-1,.32.87.68.87.93-.34.6-.9c-2.32-3.94-2.2-10.46-2.2-11.19a2.71,2.71,0,0,1,1.45-1.91l-.14,0A1.05,1.05,0,0,1,101.86,63.44Z"/><path class="gq_cls-7" d="M92.21,63.3a2.22,2.22,0,0,1,.31.27,3.68,3.68,0,0,1,.31.33,2.28,2.28,0,0,1,.45.17c.12,0,.11.12.18.07a1.37,1.37,0,0,0,.45-.17c.08,0,.21-.1,0-.13,0-.19.17-.2.45-.2a1.17,1.17,0,0,1,.63.23.83.83,0,0,0,.45.17,5.33,5.33,0,0,1,.54.1.56.56,0,0,0,.4.07,1.9,1.9,0,0,0,.4-.23.42.42,0,0,0,.09-.4,1.07,1.07,0,0,1,.09-.4c.07-.16.19-.18.31-.27a1.86,1.86,0,0,0,.49-.23c.07-.14.18-.16.36-.23a1.7,1.7,0,0,0,.54-.17,1.16,1.16,0,0,1,.49.13,2.18,2.18,0,0,0,.49,0h.14a.53.53,0,0,0,.35-.13c.22,0,.18,0,.18.2a.7.7,0,0,0,.34.32h0a3.49,3.49,0,0,1,.45.3c.09.08.2.07.4.07l.07.05a1.07,1.07,0,0,1,.24.18,1.05,1.05,0,0,0,.4.1l.14,0,.44,0a1,1,0,0,1,.4.13.38.38,0,0,0,.31.23,2.17,2.17,0,0,0,.58,0,.55.55,0,0,1,.45.13,4.81,4.81,0,0,0,.54,0,.66.66,0,0,1,.4.1,1.14,1.14,0,0,1,.63,0c.11.08.18.07.36.07s.4,0,.63,0,.18,0,.27-.1.12-.24.27-.37a1,1,0,0,0,.4-.27c0-.18,0-.26,0-.43a1.59,1.59,0,0,0,.22-.4,1.63,1.63,0,0,0,.27-.37.52.52,0,0,1,.09-.27c0-.19,0-.3,0-.47V61c-.06-.14-.08-.33-.13-.44a4.37,4.37,0,0,0-.31-.34c-.21,0-.25-.12-.4-.2s-.29-.13-.4-.2-.11-.21-.22-.33a.87.87,0,0,0-.54-.07,1.58,1.58,0,0,1-.54-.17,3.31,3.31,0,0,1-.45-.17c0-.1-.08-.24,0-.33a.49.49,0,0,0-.22-.3.17.17,0,0,0,0-.27c0-.12-.08-.11-.22-.13,0-.16,0-.23-.18-.3s-.33,0-.45.13-.08.23-.22.27-.08.17-.27.23a.47.47,0,0,1-.4-.17,1.32,1.32,0,0,0-.36-.17c0-.15,0-.13-.22-.13,0-.19,0-.14-.27-.23a.72.72,0,0,0-.49-.17c-.28,0-.25-.08-.36-.27s-.17-.15-.36-.23a.39.39,0,0,0-.45.1,1.17,1.17,0,0,1-.58-.07,1.11,1.11,0,0,0-.54.1,2.47,2.47,0,0,0-.4.34,5.32,5.32,0,0,0-1-.07,3.78,3.78,0,0,0-.31.37,1.18,1.18,0,0,1-.36.13c-.2,0-.2.1-.27.23s-.21.14-.31.23a1.13,1.13,0,0,0-.27.3c0,.16,0,.2-.22.2-.05.16,0,.27,0,.4s-.29.09-.36.23a.84.84,0,0,0,0,.44c.09.13-.08.12-.13.27s-.41-.19-.54-.07a1,1,0,0,0,0,.43,2.12,2.12,0,0,1-.09.4c-.14.06-.21,0-.36,0s-.12.09-.27,0-.23.08-.45.1-.08.26-.31.27c0,.21-.19-.1-.31,0s-.42,0-.58,0a.73.73,0,0,0-.22.3c0,.15,0,.18,0,.1v0h-.54a.37.37,0,0,1-.31.2c-.23,0,.32.27.09.27s-.31-.1-.49,0-.18.27-.27.34.08.35.13.47S92.15,63.23,92.21,63.3Z"/><polygon class="gq_cls-8" points="102 50.59 102.68 51.58 103.36 50.59 104.64 50.55 104.04 49.51 104.64 48.48 103.36 48.44 102.68 47.45 102 48.44 100.72 48.48 101.32 49.51 100.72 50.55 102 50.59"/><polygon class="gq_cls-8" points="96.77 50.59 97.45 51.58 98.13 50.59 99.41 50.55 98.81 49.51 99.41 48.48 98.13 48.44 97.45 47.45 96.77 48.44 95.49 48.48 96.09 49.51 95.49 50.55 96.77 50.59"/><polygon class="gq_cls-8" points="90.84 51.67 92.12 51.56 92.93 52.46 93.47 51.4 94.73 51.21 93.98 50.26 94.44 49.16 93.16 49.27 92.35 48.37 91.81 49.43 90.55 49.63 91.29 50.58 90.84 51.67"/><polygon class="gq_cls-8" points="107.09 51.27 107.62 52.33 108.44 51.43 109.72 51.54 109.26 50.45 110.01 49.5 108.74 49.3 108.21 48.24 107.4 49.14 106.12 49.03 106.57 50.13 105.83 51.08 107.09 51.27"/><polygon class="gq_cls-8" points="111.56 53.16 111.84 54.3 112.84 53.57 114.06 53.92 113.87 52.76 114.81 51.97 113.61 51.54 113.33 50.4 112.33 51.13 111.11 50.79 111.3 51.94 110.36 52.73 111.56 53.16"/><polygon class="gq_cls-8" points="86.35 53.66 87.58 53.31 88.58 54.04 88.86 52.9 90.06 52.48 89.11 51.68 89.31 50.53 88.08 50.88 87.08 50.15 86.8 51.29 85.61 51.71 86.55 52.5 86.35 53.66"/><path class="gq_cls-9" d="M66.41,67,44.26,44.85,4.7,5.29A16.92,16.92,0,0,0,0,17V117a16.92,16.92,0,0,0,4.7,11.71L44.26,89.15Z"/></g></g></svg>
