<svg xmlns="http://www.w3.org/2000/svg" viewBox="0 0 200 134"><defs><style>.hk_cls-1{fill:#ed2f31;}.hk_cls-2{fill:#fff;}.hk_cls-3{fill:#ed2224;}</style></defs><title>Asset 78</title><g id="Layer_2" data-name="Layer 2"><g id="Layer_22" data-name="Layer 22"><path class="hk_cls-1" d="M183,0H17A17,17,0,0,0,0,17V117a17,17,0,0,0,17,17H183a17,17,0,0,0,17-17V17A17,17,0,0,0,183,0ZM130.06,64.22c-3.35,4.22-11.08,5-15.45.32-3.18-3.39-10.23-4.76-13.89,1.12-.07.21-.13.42-.19.64a.88.88,0,0,1,.3.38h.83a20.33,20.33,0,0,1,13.75,37.49c1.71-3.25,1.13-7.72-3.48-9.44-5-1.88-8.16-9-5.08-14.59,2.24-4.08,1.37-11.2-5.36-12.87-.22,0-.44,0-.66,0a.87.87,0,0,1-.28.39c.1.27.18.53.26.8A20.33,20.33,0,0,1,69.41,93.14c3.62.63,7.69-1.31,7.9-6.22.23-5.38,6-10.54,12.31-9.34,4.57.88,11.07-2.16,10.58-9.07-.06-.21-.14-.41-.22-.62a.86.86,0,0,1-.46-.15c-.22.18-.45.34-.68.5A20.33,20.33,0,0,1,65.69,46c.53,3.64,3.63,6.91,8.36,5.59,5.19-1.44,11.89,2.48,12.69,8.82.58,4.62,5.48,9.87,11.9,7.26.18-.12.35-.27.52-.4a.83.83,0,0,1-.05-.26.85.85,0,0,1,0-.25c-.22-.15-.45-.3-.66-.46a20.33,20.33,0,0,1,10.88-38.42c-3.3,1.62-5.45,5.58-2.73,9.68,3,4.49,1.31,12.08-4.47,14.79-4.21,2-7.69,8.26-3.23,13.56.17.13.36.25.55.38a.87.87,0,0,1,.48-.17c.07-.26.14-.52.23-.77a20.33,20.33,0,0,1,39.91-1.52C137.54,61.19,133.12,60.37,130.06,64.22Z"/><path class="hk_cls-2" d="M95.48,45.7,96,46c-3.65,5.43-3.52,15,3,19.89-4.46-5.3-1-11.58,3.23-13.56,5.78-2.72,7.44-10.3,4.47-14.79-2.71-4.09-.56-8.05,2.73-9.68A20.33,20.33,0,0,0,98.49,66.3C91.46,60.93,92,50.69,95.48,45.7Zm1.3-6.13,1.83,1.61,2.1-1.24-1,2.23,1.82,1.61-2.42-.23-1,2.23-.53-2.38-2.43-.23,2.1-1.24Z"/><polygon class="hk_cls-3" points="97.64 43.42 98.17 45.8 99.14 43.56 101.56 43.8 99.74 42.18 100.71 39.95 98.61 41.19 96.79 39.57 97.32 41.95 95.22 43.19 97.64 43.42"/><path class="hk_cls-3" d="M99.5,66.28c-.18-.12-.37-.25-.55-.38C92.46,61,92.32,51.44,96,46l-.49-.31c-3.5,5-4,15.23,3,20.6.21.16.44.3.66.46A.88.88,0,0,1,99.5,66.28Z"/><path class="hk_cls-2" d="M121.7,48.12a20.33,20.33,0,0,0-21.5,17.22c2.93-8.34,12.83-11,18.66-9.22l-.15.57c-6.29-1.8-15.34,1.29-18,9,3.66-5.88,10.71-4.51,13.89-1.12,4.37,4.66,12.1,3.9,15.45-.32,3.06-3.85,7.49-3,10-.39A20.34,20.34,0,0,0,121.7,48.12Zm.85,13.2L122,58.94l-2.43-.23,2.1-1.24-.53-2.38L123,56.71l2.1-1.24-1,2.24,1.82,1.61-2.42-.23Z"/><polygon class="hk_cls-3" points="124.12 57.7 125.09 55.47 122.99 56.71 121.17 55.09 121.7 57.47 119.6 58.71 122.02 58.94 122.55 61.32 123.52 59.08 125.94 59.32 124.12 57.7"/><path class="hk_cls-3" d="M118.71,56.69l.15-.57c-5.83-1.79-15.73.88-18.66,9.22-.09.25-.15.51-.23.77h0a.88.88,0,0,1,.53.19c.06-.21.12-.43.19-.64C103.38,58,112.42,54.89,118.71,56.69Z"/><path class="hk_cls-2" d="M78.35,64.71l.45-.37c4,5.16,13.17,8,19.84,3.32C92.21,70.27,87.31,65,86.73,60.4c-.79-6.34-7.5-10.26-12.69-8.82-4.73,1.31-7.83-2-8.36-5.59A20.33,20.33,0,0,0,98.85,68.24C91.58,73.25,82,69.58,78.35,64.71Zm-5.43-3.13L75,60.34,74.49,58l1.83,1.61,2.1-1.24-1,2.23,1.82,1.61L76.85,62l-1,2.23-.53-2.38Z"/><polygon class="hk_cls-3" points="76.85 61.95 79.27 62.19 77.44 60.57 78.42 58.34 76.32 59.58 74.49 57.96 75.02 60.34 72.92 61.58 75.35 61.81 75.87 64.19 76.85 61.95"/><path class="hk_cls-3" d="M99.16,67.26c-.17.13-.35.28-.52.4C92,72.31,82.83,69.49,78.8,64.34l-.45.37c3.66,4.87,13.23,8.54,20.5,3.53.23-.16.45-.32.68-.5A.87.87,0,0,1,99.16,67.26Z"/><path class="hk_cls-2" d="M116.17,81.58l-.58,0c-.23-6.54-6-14.19-14.09-14.35,6.72,1.66,7.6,8.79,5.36,12.87-3.08,5.6,0,12.71,5.08,14.59,4.6,1.72,5.19,6.19,3.48,9.44a20.33,20.33,0,0,0-13.75-37.49C110.49,66.9,116.07,75.48,116.17,81.58Zm2.55,5.72-2.42-.23-1,2.23-.53-2.38-2.43-.23,2.1-1.24-.53-2.38,1.83,1.61,2.1-1.24-1,2.24Z"/><polygon class="hk_cls-3" points="115.77 84.69 113.94 83.08 114.47 85.45 112.37 86.69 114.8 86.92 115.32 89.3 116.3 87.07 118.72 87.3 116.89 85.69 117.86 83.45 115.77 84.69"/><path class="hk_cls-3" d="M100.89,67a.87.87,0,0,1-.06.29c.22,0,.44,0,.66,0,8.13.16,13.86,7.8,14.09,14.35l.58,0c-.1-6.09-5.68-14.68-14.51-14.9h-.83A.89.89,0,0,1,100.89,67Z"/><path class="hk_cls-2" d="M91.13,86.88l-.22-.54c6.15-2.24,11.65-10.05,9.29-17.83.49,6.91-6,9.94-10.58,9.07-6.27-1.2-12.08,4-12.31,9.34-.21,4.91-4.28,6.85-7.9,6.22a20.33,20.33,0,0,0,31.41-24.66C103.34,76.94,96.89,84.9,91.13,86.88Zm-4.66,4.19-.53-2.38-2.43-.23,2.1-1.24-.53-2.38,1.83,1.61L89,85.23l-1,2.23,1.82,1.61-2.42-.23Z"/><polygon class="hk_cls-3" points="88.05 87.46 89.02 85.23 86.92 86.46 85.09 84.85 85.62 87.23 83.52 88.47 85.95 88.7 86.48 91.08 87.45 88.84 89.87 89.08 88.05 87.46"/><path class="hk_cls-3" d="M100,67.89h0c.07.21.15.41.22.62,2.36,7.78-3.14,15.59-9.29,17.83l.22.54c5.76-2,12.2-9.94,9.69-18.41-.08-.27-.16-.53-.26-.8A.88.88,0,0,1,100,67.89Z"/><path class="hk_cls-3" d="M100,66.11h0a.87.87,0,0,0-.48.17.88.88,0,0,0-.34.47.85.85,0,0,0,0,.25.83.83,0,0,0,.05.26.93.93,0,0,0,.83.63h0a.88.88,0,0,0,.56-.21.94.94,0,0,0,.33-.68.89.89,0,0,0-.06-.32,1,1,0,0,0-.83-.57Z"/></g></g></svg>
