<svg xmlns="http://www.w3.org/2000/svg" viewBox="0 0 200 134"><defs><style>.je_cls-1{fill:#fafafa;}.je_cls-2{fill:#de2c3c;}.je_cls-3{fill:#e71d2f;}.je_cls-4{fill:#f8dd11;}.je_cls-5{fill:#ed2026;}.je_cls-6{fill:#2857a7;}</style></defs><title>Asset 92</title><g id="Layer_2" data-name="Layer 2"><g id="Layer_8" data-name="Layer 8"><path class="je_cls-1" d="M13.71,133.68A17.05,17.05,0,0,0,17,134H183a17.06,17.06,0,0,0,3.29-.32L100,75.65Z"/><path class="je_cls-1" d="M198.35,124.28A16.89,16.89,0,0,0,200,117V17a16.88,16.88,0,0,0-1.65-7.28L113,67Z"/><path class="je_cls-1" d="M1.66,9.72A16.9,16.9,0,0,0,0,17V117a16.89,16.89,0,0,0,1.66,7.28L87,67Z"/><path class="je_cls-1" d="M186.29.32A17.06,17.06,0,0,0,183,0H17a17.05,17.05,0,0,0-3.29.32l86.29,58ZM88.19,21.46h0a25.59,25.59,0,0,0-4.49-11.08c2.24,0,3.25,1.15,3.27,2.38a2.12,2.12,0,0,1,3.43-.63,2.18,2.18,0,0,0,1.66,4,2.4,2.4,0,0,0,1.79-2.07,1.23,1.23,0,1,1,.51-.08,2.62,2.62,0,0,0,2.86,1.24,2.31,2.31,0,0,0,1.66-2.31,2.3,2.3,0,0,0-3-2.38c0-1.64,2.62-2.95,3.41-1.59A4.37,4.37,0,0,1,100,3.61a4.37,4.37,0,0,1,.75,5.33c.79-1.36,3.37,0,3.41,1.59a2.3,2.3,0,0,0-3,2.38,2.31,2.31,0,0,0,1.66,2.31A2.62,2.62,0,0,0,105.64,14a1.18,1.18,0,0,1-.5-.36,1.2,1.2,0,1,1,1,.44,2.39,2.39,0,0,0,1.79,2.07,2.18,2.18,0,0,0,1.66-4,2.12,2.12,0,0,1,3.44.63c0-1.24,1-2.43,3.27-2.38a25.59,25.59,0,0,0-4.47,11C114.55,33,112.84,47.08,100,55,87.22,47.09,85.49,33,88.19,21.46Z"/><path class="je_cls-2" d="M186.29.32,100,58.35,13.71.32A17,17,0,0,0,1.66,9.72L87,67,1.66,124.28a17,17,0,0,0,12.06,9.4l86.29-58,86.29,58a17,17,0,0,0,12.05-9.4L113,67,198.35,9.72A17,17,0,0,0,186.29.32Z"/><path class="je_cls-3" d="M111.84,21.4v.06a25.58,25.58,0,0,0-23.64,0C85.49,33,87.22,47.09,100,55,112.84,47.08,114.55,33,111.84,21.4ZM88.48,28.76a.63.63,0,0,1,.45-.83h0a1,1,0,0,1,.93-.11c-.23-.1-.48-.26-.7-.18h-.08c-.18.13-.64-.17-.8.15a.61.61,0,0,1,.76-.63c.52-.31,1.14.11,1.61.65a3.17,3.17,0,0,0,2.46.73c.43,0,1,0,1-.23-.51-.63-1.25-.35-1.64-.75.39.18.8-.13.21-.14a2.94,2.94,0,0,1-2-.78c.23.12.37,0,.62.06-1.1-.29-1.12-.9-1.6-1a.78.78,0,0,1,.76,0c-.67-.29-1.19-1.42-1.63-1.37a.38.38,0,0,1-.19,0c-.21,0-.57-.23-.75,0a.62.62,0,0,1,.8-.55c.24-.11.55,0,.9.39-.51-.42-.19-.86-.63-.9a.27.27,0,0,1-.17-.08c-.21,0-.55-.3-.77,0a.61.61,0,0,1,.9-.42.81.81,0,0,1,.77.34c-.06-.43-.35-.45-.57-.62a.26.26,0,0,1,0-.06c-.21,0-.51-.28-.71,0a.6.6,0,0,1,.95-.39.91.91,0,0,1,.91.64c.31,1,.37,1.55,1.06,2.08s1,1.4,2.29,1.52a1.62,1.62,0,0,1,.05-.16h0a.55.55,0,0,1-.29-.39c-.28-1.18-.77-.86-.78-1.78h0a2.14,2.14,0,0,1-.43-.79c-.17-.6.07-.61.76-.34a2.36,2.36,0,0,1,2.59,0c.69-.27.92-.26.75.34a2.1,2.1,0,0,1-.42.78v0a1.22,1.22,0,0,1-.09.51,3,3,0,0,0,2.86,1.2c1.29-.22,2.1.12,3.27-.22a9.16,9.16,0,0,1,3.78-.3c1.18.14,2.71-.08,2.71-.6s-.88-.71-2.55-.47c-2.87.42-6.2.58-6.17-1.1s3.13-1.67,4.39-1.32a7,7,0,0,0,3.34.11,6.38,6.38,0,0,1-3.84.44c-1.07-.16-3.15-.05-3.15.74s2.91,1,5.29.49,3.57.26,3.57,1.22-1.52,1.91-2.71,1.41a4.2,4.2,0,0,0,2.59.55,8.9,8.9,0,0,0,1.6-.14c.38-.09.59,0,.55.28a.82.82,0,0,0,.4.77.43.43,0,0,1-.47,0,1.68,1.68,0,0,1,.7,1.36.91.91,0,0,0-.71-.49c.62.36.34,1,.73,1.34a1,1,0,0,1-.59-.29c.19.32-.07.78-.62,1,.06-.07-.09-.36.08-.51-.23.38-.59.58-1.34.6.15,0,.15-.37.44-.44a1.38,1.38,0,0,0-1,.58.44.44,0,0,1-.33.2c-.18.12-.57.13-.57.44a.63.63,0,0,1,.24-.86.92.92,0,0,1,.46-.38,1.73,1.73,0,0,1-.37.12v0c-.11.19-.65.11-.67.47a.63.63,0,0,1,.25-.84.35.35,0,0,1,.16-.17s0,0-.06-.05c-.21,0-.47,0-.54.22a.61.61,0,0,1,.68-.74c.33-.08.69.25,1.5.2.21,0,.49-.05.49-.53,0-.7-.48-1.21-2-.93a8,8,0,0,1-2.89.08,1.31,1.31,0,0,0,.25,1.11c.25.25.49.42.32.74s-.26.55-.75.45a2.65,2.65,0,0,0-1.84.27.67.67,0,0,1,.25-.48,2.11,2.11,0,0,1-1.49.47c.32,0,.25-.41.48-.45a1.5,1.5,0,0,0-.86.31.92.92,0,0,1-.5.21h0c-.11.19-.65.11-.67.47a.63.63,0,0,1,.26-.84.53.53,0,0,1,.48-.15c-.18-.19-.56.17-.81.11s-.53,0-.58.31a.63.63,0,0,1,.48-.83,1.75,1.75,0,0,1,.76-.1,1.13,1.13,0,0,1-.59-.1c-.21,0-.52-.05-.61.21a.61.61,0,0,1,.71-.71c.36-.2.91.5,2,.45a4.4,4.4,0,0,0,1.38-.09c.48-.4,0-.4-.67-.54s-.82,0-1.61-.94a1.6,1.6,0,0,0-.78.06c-.33.19-.85-.14-1.45.25s-1-.16-1.34.14a1.47,1.47,0,0,1-1.1.38.83.83,0,0,1-.19.63c-.44.66-.87.9-1.21.8.19-.07.23-.36.2-.58-.31.74-1.34.81-1.66,1a.78.78,0,0,0,.14-.73c-.05.93-2.54.18-2.91.6,0-.18.39-.42.63-.52-.62.14-1.15-.45-1.63-.23a.8.8,0,0,1,.58-.33c-.5.07-.64-.26-1.12-.26-.15.16-.65,0-.7.38a.62.62,0,0,1,.5-.84,1.07,1.07,0,0,1,.63,0,.84.84,0,0,0-.9-.08h0v0C89.06,28.55,88.54,28.41,88.48,28.76Zm2.45,10.4a.71.71,0,0,1,.52-.3c-.45.06-.58-.24-1-.23-.13.14-.58,0-.63.34a.55.55,0,0,1,.49-.75,1,1,0,0,1,.53,0,.77.77,0,0,0-.81-.07h0c-.12.16-.59,0-.64.35a.56.56,0,0,1,.4-.75h0a.86.86,0,0,1,.83-.09c-.21-.09-.44-.23-.63-.16h-.07c-.16.11-.57-.16-.72.13a.55.55,0,0,1,.69-.56c.46-.28,1,.1,1.45.59a2.86,2.86,0,0,0,2.21.66c.39,0,.88,0,.93-.21-.46-.57-1.13-.31-1.47-.67.35.16.72-.12.19-.12a2.65,2.65,0,0,1-1.83-.71c.21.11.33,0,.56,0-1-.26-1-.81-1.44-.92a.71.71,0,0,1,.69,0c-.6-.26-1.07-1.28-1.47-1.23a.33.33,0,0,1-.19,0c-.19,0-.5-.19-.65,0a.56.56,0,0,1,.72-.5c.21-.09.49,0,.81.36-.45-.38-.17-.77-.57-.81a.25.25,0,0,1-.16-.08c-.19,0-.49-.26-.69,0a.54.54,0,0,1,.8-.37.71.71,0,0,1,.71.29c-.05-.38-.31-.4-.51-.56a.33.33,0,0,1-.05-.06c-.19,0-.45-.23-.63,0a.54.54,0,0,1,.84-.35.82.82,0,0,1,.83.57c.28.91.33,1.4,1,1.87s.88,1.26,2.07,1.37A1,1,0,0,1,94,36h0a.49.49,0,0,1-.26-.35c-.25-1.06-.7-.78-.7-1.6v0a1.92,1.92,0,0,1-.38-.71c-.15-.54.07-.55.68-.3a2.12,2.12,0,0,1,2.33,0c.61-.24.83-.23.68.3a1.87,1.87,0,0,1-.37.71v0a1.07,1.07,0,0,1-.08.46,2.66,2.66,0,0,0,2.58,1.08c1.16-.2,1.88.11,2.94-.2a8.21,8.21,0,0,1,3.41-.27c1.06.12,2.44-.08,2.44-.54s-.79-.64-2.3-.42c-2.58.38-5.58.52-5.55-1s2.81-1.51,3.95-1.18a6.34,6.34,0,0,0,3,.1,5.76,5.76,0,0,1-3.45.39c-1-.15-2.84,0-2.84.67s2.62.91,4.76.45,3.21.23,3.21,1.1A1.88,1.88,0,0,1,105.58,36a3.76,3.76,0,0,0,2.33.5,8.14,8.14,0,0,0,1.45-.12c.35-.09.53,0,.49.25a.74.74,0,0,0,.36.69.39.39,0,0,1-.42,0,1.52,1.52,0,0,1,.63,1.22.82.82,0,0,0-.64-.44c.55.32.31.94.65,1.21a.92.92,0,0,1-.53-.26c.17.29-.06.7-.56.88.05-.06-.08-.32.07-.46-.2.34-.53.53-1.2.54.13,0,.13-.33.39-.39a1.25,1.25,0,0,0-.94.52.4.4,0,0,1-.3.18c-.16.11-.51.11-.51.39a.57.57,0,0,1,.21-.77.83.83,0,0,1,.41-.35,1.54,1.54,0,0,1-.33.11v0c-.1.17-.59.1-.6.42a.57.57,0,0,1,.22-.75.31.31,0,0,1,.15-.15s0,0-.06,0c-.19,0-.42,0-.48.2a.55.55,0,0,1,.61-.67c.3-.07.62.22,1.36.18.19,0,.45,0,.45-.48,0-.63-.43-1.09-1.8-.84a7.19,7.19,0,0,1-2.61.07,1.17,1.17,0,0,0,.22,1c.22.22.45.38.28.67s-.23.49-.68.41a2.39,2.39,0,0,0-1.65.25.59.59,0,0,1,.22-.43,1.9,1.9,0,0,1-1.35.42c.28,0,.22-.37.43-.41a1.36,1.36,0,0,0-.77.28.79.79,0,0,1-.45.18h0c-.1.17-.59.1-.6.42a.57.57,0,0,1,.23-.76.48.48,0,0,1,.43-.13c-.16-.18-.5.15-.73.1s-.48,0-.52.28a.56.56,0,0,1,.46-.75,1.62,1.62,0,0,1,.66-.09A1,1,0,0,1,100,39c-.19,0-.47,0-.55.18a.55.55,0,0,1,.64-.64c.32-.18.82.45,1.79.41a4.07,4.07,0,0,0,1.25-.09c.43-.36,0-.36-.6-.48s-.74,0-1.45-.85a1.46,1.46,0,0,0-.7.06c-.29.17-.76-.12-1.31.22s-.89-.15-1.21.12a1.33,1.33,0,0,1-1,.35.76.76,0,0,1-.17.57c-.4.59-.79.81-1.09.72.17-.06.21-.32.19-.52-.29.67-1.21.73-1.49.9a.71.71,0,0,0,.12-.65c0,.84-2.28.16-2.62.54,0-.17.35-.38.57-.47C91.84,39.5,91.36,39,90.93,39.17Zm9,8.55c-.14,0-.36,0-.39.23a.45.45,0,0,1,.3-.59.89.89,0,0,1,.52-.09.69.69,0,0,1-.39-.07c-.14,0-.35,0-.41.15-.09-.27.22-.6.46-.52.24-.17.6.36,1.33.32.36,0,.81,0,.92-.07.32-.29,0-.29-.45-.39s-.54,0-1.07-.69c-.18,0-.37-.05-.52,0s-.57-.1-1,.18-.66-.12-.89.1a.92.92,0,0,1-.73.28.65.65,0,0,1-.12.46c-.3.48-.58.66-.8.58.13-.05.16-.26.14-.42-.21.54-.89.59-1.11.73a.62.62,0,0,0,.09-.53c0,.68-1.69.13-1.94.44,0-.13.26-.31.42-.38-.41.1-.77-.33-1.09-.17a.52.52,0,0,1,.38-.24c-.33.05-.43-.19-.75-.19-.1.12-.43,0-.47.27a.44.44,0,0,1,.33-.59.59.59,0,0,1,.42,0,.52.52,0,0,0-.6-.06h0c-.09.13-.44,0-.48.28a.45.45,0,0,1,.29-.59v0a.59.59,0,0,1,.62-.08c-.15-.07-.32-.19-.46-.13h-.05c-.12.09-.42-.12-.53.11a.41.41,0,0,1,.49-.45c.35-.25.77.07,1.09.47a2,2,0,0,0,1.63.53c.29,0,.65,0,.69-.17-.34-.46-.83-.25-1.09-.54.26.13.54-.1.14-.1a1.87,1.87,0,0,1-1.35-.57c.15.09.25,0,.41,0-.73-.21-.74-.66-1.06-.75a.48.48,0,0,1,.51,0c-.44-.21-.79-1-1.09-1a.21.21,0,0,1-.14,0c-.14,0-.37-.16-.48,0a.41.41,0,0,1,.52-.39c.16-.09.37,0,.62.28-.34-.31-.12-.63-.42-.66a.17.17,0,0,1-.12-.07c-.14,0-.37-.21-.51,0a.39.39,0,0,1,.59-.3.5.5,0,0,1,.53.24c0-.31-.23-.33-.38-.45l0,0c-.14,0-.34-.19-.47,0,0-.3.43-.49.62-.28a.61.61,0,0,1,.62.47c.21.74.24,1.13.71,1.52s.65,1,1.53,1.11c0,0,0-.08,0-.11h0a.4.4,0,0,1-.19-.28c-.19-.86-.52-.63-.52-1.3v0a1.6,1.6,0,0,1-.28-.58c-.11-.43,0-.44.51-.25a1.46,1.46,0,0,1,1.72,0c.45-.2.61-.19.5.25a1.59,1.59,0,0,1-.28.57v0a1,1,0,0,1-.06.37,1.89,1.89,0,0,0,1.91.88c.86-.16,1.39.09,2.17-.16a5.6,5.6,0,0,1,2.52-.22c.79.1,1.81-.06,1.81-.44s-.58-.52-1.7-.34c-1.91.31-4.13.42-4.11-.8s2.08-1.22,2.92-1a4.28,4.28,0,0,0,2.23.08,3.93,3.93,0,0,1-2.56.32c-.71-.12-2.1,0-2.1.54s1.93.74,3.52.36,2.37.19,2.37.89a1.38,1.38,0,0,1-1.81,1,2.6,2.6,0,0,0,1.72.4,5.26,5.26,0,0,0,1.07-.1c.26-.07.39,0,.37.2a.63.63,0,0,0,.26.56.27.27,0,0,1-.31,0,1.27,1.27,0,0,1,.47,1,.61.61,0,0,0-.48-.36c.41.26.23.76.48,1a.65.65,0,0,1-.39-.21c.13.23,0,.57-.41.71,0,0-.06-.26.05-.37a.9.9,0,0,1-.89.44c.1,0,.1-.27.29-.32a.91.91,0,0,0-.7.42.28.28,0,0,1-.22.15c-.12.09-.38.09-.38.32a.48.48,0,0,1,.16-.62.61.61,0,0,1,.31-.29,1,1,0,0,1-.25.09s0,0,0,0-.43.08-.44.34a.48.48,0,0,1,.17-.61.25.25,0,0,1,.11-.12s0,0,0,0-.31,0-.36.16a.43.43,0,0,1,.42-.54h0c.22-.08.46.18,1,.15.14,0,.33,0,.33-.39,0-.51-.32-.89-1.33-.68a4.86,4.86,0,0,1-1.93.06,1,1,0,0,0,.16.81c.17.18.33.31.21.54s-.17.4-.5.33a1.63,1.63,0,0,0-1.22.2.5.5,0,0,1,.16-.35,1.33,1.33,0,0,1-1,.34c.21,0,.16-.3.32-.33a.94.94,0,0,0-.57.23.54.54,0,0,1-.33.14h0c-.08.14-.43.08-.45.34a.48.48,0,0,1,.17-.61.34.34,0,0,1,.32-.11C100.4,47.5,100.14,47.76,100,47.72Z"/><path class="je_cls-4" d="M111.83,21.46V21.4a25.59,25.59,0,0,1,4.47-11c-2.24,0-3.25,1.15-3.27,2.38a2.12,2.12,0,0,0-3.44-.63,2.18,2.18,0,0,1-1.66,4,2.39,2.39,0,0,1-1.79-2.07,1.21,1.21,0,1,0-1-.44,1.18,1.18,0,0,0,.5.36,2.62,2.62,0,0,1-2.86,1.24,2.31,2.31,0,0,1-1.66-2.31,2.3,2.3,0,0,1,3-2.38c0-1.64-2.62-2.95-3.41-1.59A4.37,4.37,0,0,0,100,3.61a4.37,4.37,0,0,0-.75,5.33c-.79-1.36-3.37,0-3.41,1.59a2.3,2.3,0,0,1,3,2.38,2.31,2.31,0,0,1-1.66,2.31A2.62,2.62,0,0,1,94.36,14a1.19,1.19,0,1,0-.51.08,2.4,2.4,0,0,1-1.79,2.07,2.18,2.18,0,0,1-1.66-4,2.12,2.12,0,0,0-3.43.63c0-1.24-1-2.43-3.27-2.38a25.59,25.59,0,0,1,4.49,11.08h0a25.58,25.58,0,0,1,23.64,0Z"/><path class="je_cls-4" d="M89.12,27.95c.16.06.16.29.08.41h0a.84.84,0,0,1,.9.08,1.07,1.07,0,0,0-.63,0l.14,0c.17.06.17.31.08.43h0c.48,0,.63.33,1.13.26a.8.8,0,0,0-.58.33c.48-.22,1,.37,1.63.23-.24.1-.63.34-.63.52.37-.42,2.85.33,2.91-.6a.78.78,0,0,1-.14.73c.32-.19,1.35-.26,1.66-1,0,.22,0,.51-.2.58.33.11.76-.14,1.21-.8a.83.83,0,0,0,.19-.63,1.47,1.47,0,0,0,1.1-.38c.36-.3.74.25,1.34-.14s1.12-.05,1.45-.25a1.6,1.6,0,0,1,.78-.06l-.07-.08c0-.77,2.39-1.62,3.7.14,0,0,0,0,0,.05a8,8,0,0,0,2.89-.08c1.53-.28,2,.23,2,.93,0,.48-.28.52-.49.53-.81.05-1.18-.28-1.5-.2l.07,0c.16.08.12.33,0,.44a.35.35,0,0,1-.22.07s0,0,.06.05a.35.35,0,0,0-.16.17.4.4,0,0,1,.3,0c.16,0,.19.25.13.38a1.73,1.73,0,0,0,.37-.12.92.92,0,0,0-.46.38.4.4,0,0,1,.27,0c.17,0,.22.28.14.41s-.05,0-.08.06a.44.44,0,0,0,.33-.2,1.38,1.38,0,0,1,1-.58c-.29.07-.29.44-.44.44.75,0,1.11-.23,1.34-.6-.17.15,0,.44-.08.51.55-.19.81-.66.62-1a1,1,0,0,0,.59.29c-.38-.3-.11-1-.73-1.34a.91.91,0,0,1,.71.49,1.68,1.68,0,0,0-.7-1.36.43.43,0,0,0,.47,0,.82.82,0,0,1-.4-.77c0-.31-.17-.37-.55-.28a8.9,8.9,0,0,1-1.6.14,4.2,4.2,0,0,1-2.59-.55c1.19.49,2.71-.55,2.71-1.41s-1.18-1.74-3.57-1.22-5.29.3-5.29-.49,2.08-.9,3.15-.74a6.38,6.38,0,0,0,3.84-.44,7,7,0,0,1-3.34-.11c-1.26-.36-4.36-.36-4.39,1.32s3.3,1.52,6.17,1.1c1.67-.25,2.55-.08,2.55.47s-1.54.74-2.71.6a9.16,9.16,0,0,0-3.78.3c-1.17.34-2,0-3.27.22a3,3,0,0,1-2.86-1.2c-.16.34-.48.4-.69,1.27a.55.55,0,0,1-.45.45s0,0,0,0c0,1,0,1.47-.34,1.47S94,27.18,94,26.43c0-.12,0-.22,0-.3a.83.83,0,0,1-.31-.09h0a1.62,1.62,0,0,0-.05.16l.16,0c-.48.67.56,1.6.46,2.19l-.08-.09c-.06.26-.61.21-1,.23a3.17,3.17,0,0,1-2.46-.73c-.47-.54-1.09-1-1.61-.65l.1,0c.14.11.07.33-.05.42h.07c.21-.08.47.08.7.18a1,1,0,0,0-.93.11h0A.37.37,0,0,1,89.12,27.95Z"/><path class="je_cls-4" d="M92.91,22.72c-.69-.28-.93-.26-.76.34a2.14,2.14,0,0,0,.43.79A1.52,1.52,0,0,1,92.91,22.72Z"/><path class="je_cls-4" d="M95.84,23.85a2.1,2.1,0,0,0,.42-.78c.17-.6-.06-.61-.75-.34A1.51,1.51,0,0,1,95.84,23.85Z"/><path class="je_cls-4" d="M93.88,25.87h0c-.18,0-.27-.16-.23-.52s-.27-.31-.16-.67c-.11.44.72.4.72.2,0,.2.83.24.72-.2.1.36-.19.45-.16.67s0,.44-.17.5a1.74,1.74,0,0,1,0,.25.55.55,0,0,0,.45-.45c.21-.87.53-.93.69-1.27a1.22,1.22,0,0,0,.09-.51v0a1.51,1.51,0,0,0-.34-1.12,2.36,2.36,0,0,0-2.59,0,1.52,1.52,0,0,0-.33,1.13h0c0,.92.5.6.78,1.78a.55.55,0,0,0,.29.39.83.83,0,0,0,.31.09C94,25.94,93.94,25.85,93.88,25.87Z"/><path class="je_cls-4" d="M93.75,26.22l-.16,0c-1.32-.12-1.47-.89-2.29-1.52s-.76-1.07-1.06-2.08a.91.91,0,0,0-.91-.64l0,0c.11.14,0,.35-.16.41a.2.2,0,0,1-.1,0,.26.26,0,0,0,0,.06c.22.17.51.19.57.62a.81.81,0,0,0-.77-.34l.06.05c.11.14,0,.35-.16.41h0a.27.27,0,0,0,.17.08c.44,0,.12.48.63.9-.36-.4-.67-.5-.9-.39a.37.37,0,0,1,.12.08c.13.12,0,.35-.11.42l-.07,0a.38.38,0,0,0,.19,0c.45,0,1,1.08,1.63,1.37a.78.78,0,0,0-.76,0c.48.12.5.74,1.6,1-.25-.07-.38.07-.62-.06a2.94,2.94,0,0,0,2,.78c.6,0,.18.32-.21.14.38.4,1.13.12,1.64.75l.08.09C94.31,27.82,93.27,26.89,93.75,26.22Z"/><path class="je_cls-4" d="M101.48,27.64l.07.08c.79.9.92.81,1.61.94s1.15.14.67.54a4.4,4.4,0,0,1-1.38.09c-1.08,0-1.63-.66-2-.45l.06,0c.15.09.11.33,0,.43a.25.25,0,0,1-.16.05,1.13,1.13,0,0,0,.59.1,1.75,1.75,0,0,0-.76.1.37.37,0,0,1,.16,0c.17.06.17.31.08.43a.25.25,0,0,1-.14.07c.25.05.63-.31.81-.11a.53.53,0,0,0-.48.15.4.4,0,0,1,.29,0c.17,0,.2.28.13.41a.92.92,0,0,0,.5-.21,1.5,1.5,0,0,1,.86-.31c-.23,0-.16.43-.48.45a2.11,2.11,0,0,0,1.49-.47.67.67,0,0,0-.25.48,2.65,2.65,0,0,1,1.84-.27c.49.1.58-.14.75-.45s-.07-.49-.32-.74a1.31,1.31,0,0,1-.25-1.11s0,0,0-.05C103.87,26,101.51,26.87,101.48,27.64Z"/><path class="je_cls-4" d="M92.4,39.38c-.22.09-.57.3-.57.47.33-.38,2.57.3,2.62-.54a.71.71,0,0,1-.12.65c.29-.17,1.21-.23,1.49-.9,0,.2,0,.46-.19.52.3.1.69-.12,1.09-.72a.76.76,0,0,0,.17-.57,1.33,1.33,0,0,0,1-.35c.32-.27.67.22,1.21-.12s1,0,1.31-.22a1.46,1.46,0,0,1,.7-.06l-.06-.07c0-.69,2.15-1.46,3.33.12,0,0,0,0,0,0a7.19,7.19,0,0,0,2.61-.07c1.37-.25,1.8.21,1.8.84,0,.43-.25.47-.45.48-.73,0-1.06-.25-1.36-.18l.06,0c.14.07.11.29,0,.39a.32.32,0,0,1-.2.06s0,0,.06,0a.31.31,0,0,0-.15.15.36.36,0,0,1,.27,0c.14,0,.18.22.13.34a1.54,1.54,0,0,0,.33-.11.83.83,0,0,0-.41.35.35.35,0,0,1,.24,0c.16,0,.19.25.13.37s0,0-.07.05a.4.4,0,0,0,.3-.18,1.25,1.25,0,0,1,.94-.52c-.26.06-.26.39-.39.39.67,0,1-.2,1.2-.54-.15.14,0,.4-.07.46.49-.17.73-.59.56-.88a.92.92,0,0,0,.53.26c-.35-.27-.1-.89-.65-1.21a.82.82,0,0,1,.64.44,1.52,1.52,0,0,0-.63-1.22.39.39,0,0,0,.42,0,.74.74,0,0,1-.36-.69c0-.28-.15-.33-.49-.25a8.14,8.14,0,0,1-1.45.13,3.76,3.76,0,0,1-2.33-.5A1.88,1.88,0,0,0,108,34.73c0-.87-1.06-1.57-3.21-1.1s-4.76.27-4.76-.45,1.88-.81,2.84-.67a5.76,5.76,0,0,0,3.45-.39,6.34,6.34,0,0,1-3-.1c-1.13-.32-3.92-.32-3.95,1.18s3,1.37,5.55,1c1.51-.22,2.3-.08,2.3.42s-1.38.67-2.44.54a8.21,8.21,0,0,0-3.41.27c-1.05.31-1.78,0-2.94.2a2.66,2.66,0,0,1-2.58-1.08c-.14.31-.43.36-.62,1.14a.49.49,0,0,1-.4.4s0,0,0,0c0,.93,0,1.32-.31,1.32s-.28-.38-.28-1.06c0-.11,0-.19,0-.27A.72.72,0,0,1,94,36h0a1.09,1.09,0,0,0,0,.14l.14,0c-.43.6.51,1.44.42,2l-.07-.08c-.05.23-.54.19-.93.21a2.86,2.86,0,0,1-2.21-.66c-.43-.48-1-.87-1.45-.59l.09,0c.13.1.06.29,0,.38h.06c.19-.07.42.07.63.16a.86.86,0,0,0-.83.09h0a.33.33,0,0,1,.17,0c.15.05.15.26.08.37h0a.77.77,0,0,1,.81.07,1,1,0,0,0-.53,0h.08c.15.05.15.28.07.39h0c.43,0,.56.3,1,.23a.71.71,0,0,0-.52.3C91.36,39,91.84,39.5,92.4,39.38Z"/><path class="je_cls-4" d="M93.32,33.05c-.62-.24-.83-.23-.68.3a1.92,1.92,0,0,0,.38.71A1.39,1.39,0,0,1,93.32,33.05Z"/><path class="je_cls-4" d="M96,34.06a1.87,1.87,0,0,0,.37-.71c.15-.53-.06-.54-.68-.3A1.36,1.36,0,0,1,96,34.06Z"/><path class="je_cls-4" d="M94.19,35.88h0c-.16,0-.25-.14-.21-.47s-.24-.28-.15-.6c-.1.4.65.36.65.18,0,.18.75.22.65-.18.09.32-.17.4-.15.6s0,.4-.15.45a1.69,1.69,0,0,1,0,.22.49.49,0,0,0,.4-.4c.19-.79.48-.84.62-1.14a1.07,1.07,0,0,0,.08-.46v0a1.36,1.36,0,0,0-.3-1,2.12,2.12,0,0,0-2.33,0,1.39,1.39,0,0,0-.3,1v0c0,.83.45.54.7,1.6A.49.49,0,0,0,94,36a.72.72,0,0,0,.28.08C94.26,35.95,94.24,35.86,94.19,35.88Z"/><path class="je_cls-4" d="M94.08,36.19l-.14,0c-1.19-.11-1.33-.8-2.07-1.37s-.68-1-1-1.87a.82.82,0,0,0-.83-.57l0,0c.1.12,0,.31-.14.36a.19.19,0,0,1-.1,0,.33.33,0,0,0,.05.06c.2.15.46.17.51.56a.71.71,0,0,0-.71-.29s.05,0,.07,0,0,.31-.14.37h0a.25.25,0,0,0,.16.08c.4,0,.11.43.57.81-.32-.36-.6-.45-.81-.36a.32.32,0,0,1,.11.07c.11.11,0,.31-.1.38h-.08a.33.33,0,0,0,.19,0c.4,0,.87,1,1.47,1.23a.71.71,0,0,0-.69,0c.43.11.45.67,1.44.92-.22-.06-.35.06-.56,0a2.65,2.65,0,0,0,1.83.71c.54,0,.17.28-.19.12.35.36,1,.11,1.47.67l.07.08C94.58,37.64,93.64,36.8,94.08,36.19Z"/><path class="je_cls-4" d="M101,37.48l.06.07c.71.81.82.73,1.45.85s1,.12.6.48a4.07,4.07,0,0,1-1.25.09c-1,0-1.47-.59-1.79-.41l.06,0c.14.08.1.3,0,.39a.23.23,0,0,1-.14,0,1,1,0,0,0,.53.09,1.62,1.62,0,0,0-.66.09l.12,0c.15.06.15.28.07.39a.23.23,0,0,1-.12.06c.23,0,.57-.28.73-.1a.48.48,0,0,0-.43.13.36.36,0,0,1,.26,0c.15,0,.18.24.12.36a.79.79,0,0,0,.45-.18,1.36,1.36,0,0,1,.77-.28c-.21,0-.15.38-.43.41a1.9,1.9,0,0,0,1.35-.42.59.59,0,0,0-.22.43,2.39,2.39,0,0,1,1.65-.25c.45.09.52-.12.68-.41s-.06-.44-.28-.67a1.17,1.17,0,0,1-.22-1s0,0,0,0C103.19,36,101.06,36.79,101,37.48Z"/><path class="je_cls-4" d="M103.23,46.05a.25.25,0,0,1,0,0,4.86,4.86,0,0,0,1.93-.06c1-.21,1.33.17,1.33.68,0,.35-.19.38-.33.39-.57,0-.81-.23-1-.15h0s.05,0,.08,0,.08.24,0,.32a.21.21,0,0,1-.15,0s0,0,0,0a.25.25,0,0,0-.11.12.25.25,0,0,1,.2,0c.11,0,.13.18.09.28a1,1,0,0,0,.25-.09.61.61,0,0,0-.31.29.24.24,0,0,1,.18,0c.12,0,.14.2.1.3s0,0-.05,0a.28.28,0,0,0,.22-.15.91.91,0,0,1,.7-.42c-.19.05-.19.32-.29.32a.9.9,0,0,0,.89-.44c-.11.11,0,.32-.05.37.37-.14.54-.48.41-.71a.65.65,0,0,0,.39.21c-.26-.22-.07-.72-.48-1a.61.61,0,0,1,.48.36,1.27,1.27,0,0,0-.47-1,.27.27,0,0,0,.31,0,.63.63,0,0,1-.26-.56c0-.22-.11-.27-.37-.2a5.26,5.26,0,0,1-1.07.1,2.6,2.6,0,0,1-1.72-.4,1.38,1.38,0,0,0,1.81-1c0-.7-.78-1.27-2.37-.89S100,43,100,42.46s1.39-.66,2.1-.54a3.93,3.93,0,0,0,2.56-.32,4.28,4.28,0,0,1-2.23-.08c-.84-.26-2.9-.26-2.92,1s2.2,1.11,4.11.8c1.11-.18,1.7-.06,1.7.34s-1,.54-1.81.44a5.6,5.6,0,0,0-2.52.22c-.78.25-1.31,0-2.17.16a1.89,1.89,0,0,1-1.91-.88c-.1.25-.32.29-.46.93a.38.38,0,0,1-.3.32v0c0,.75,0,1.08-.23,1.08s-.21-.31-.21-.86c0-.09,0-.16,0-.22a.5.5,0,0,1-.21-.07h0s0,.08,0,.11h.11c-.32.49.37,1.17.31,1.6l-.05-.07c0,.19-.4.15-.69.17a2,2,0,0,1-1.63-.53c-.32-.4-.74-.72-1.09-.47,0,0,.06,0,.08,0s0,.24,0,.31h.05c.14-.06.31.06.46.13a.59.59,0,0,0-.62.08v0a.23.23,0,0,1,.14,0c.11,0,.11.21.05.3h0a.52.52,0,0,1,.6.06.59.59,0,0,0-.42,0s.06,0,.09,0,.11.22.05.31h0c.32,0,.41.24.75.19a.52.52,0,0,0-.38.24c.32-.16.67.27,1.09.17-.16.07-.42.25-.42.38.25-.31,1.9.24,1.94-.44a.62.62,0,0,1-.09.53c.21-.14.9-.19,1.11-.73,0,.16,0,.37-.14.42.22.08.51-.1.8-.58a.65.65,0,0,0,.13-.46.92.92,0,0,0,.73-.28c.24-.22.49.18.89-.1s.75,0,1-.18.34,0,.52,0l0-.05C100.79,45.39,102.36,44.77,103.23,46.05Z"/><path class="je_cls-4" d="M95.06,42.36c-.46-.2-.62-.19-.51.25a1.6,1.6,0,0,0,.28.58A1.19,1.19,0,0,1,95.06,42.36Z"/><path class="je_cls-4" d="M97,43.17a1.59,1.59,0,0,0,.28-.57c.11-.43,0-.44-.5-.25A1.18,1.18,0,0,1,97,43.17Z"/><path class="je_cls-4" d="M95.71,44.66h0c-.12,0-.18-.12-.16-.38s-.18-.22-.11-.49c-.07.32.48.29.48.15,0,.15.55.18.48-.15.07.26-.13.33-.11.49s0,.32-.11.37a1.21,1.21,0,0,1,0,.18.38.38,0,0,0,.3-.32c.14-.64.35-.68.46-.93A1,1,0,0,0,97,43.2v0a1.18,1.18,0,0,0-.22-.81,1.46,1.46,0,0,0-1.72,0,1.19,1.19,0,0,0-.22.82v0c0,.67.33.44.52,1.3a.4.4,0,0,0,.19.28.5.5,0,0,0,.21.07C95.75,44.71,95.74,44.64,95.71,44.66Z"/><path class="je_cls-4" d="M95.62,44.91h-.11c-.88-.09-1-.65-1.53-1.11s-.5-.78-.71-1.52a.61.61,0,0,0-.62-.47h0a.22.22,0,0,1-.1.3.13.13,0,0,1-.08,0l0,0c.15.12.34.14.38.45a.5.5,0,0,0-.53-.24s0,0,.05,0a.22.22,0,0,1-.1.3h0a.17.17,0,0,0,.12.07c.3,0,.08.35.42.66-.24-.3-.46-.37-.62-.28,0,0,.07,0,.1,0s0,.25-.07.31H92.2a.21.21,0,0,0,.14,0c.3,0,.64.79,1.09,1a.48.48,0,0,0-.51,0c.32.09.33.54,1.06.75-.17-.05-.26,0-.41,0a1.87,1.87,0,0,0,1.35.57c.4,0,.12.23-.14.1.26.29.75.09,1.09.54l.05.07C96,46.08,95.3,45.4,95.62,44.91Z"/><path class="je_cls-4" d="M100.19,47.75a.24.24,0,0,1,.19,0c.11,0,.13.19.08.29a.54.54,0,0,0,.33-.14.94.94,0,0,1,.57-.23c-.16,0-.11.31-.32.33a1.33,1.33,0,0,0,1-.34.5.5,0,0,0-.16.35,1.63,1.63,0,0,1,1.22-.2c.33.07.38-.1.5-.33s0-.36-.21-.54a1,1,0,0,1-.16-.81.25.25,0,0,0,0,0c-.88-1.28-2.45-.66-2.46-.1l0,.05c.52.66.61.59,1.07.69s.77.1.45.39c-.11.1-.57.05-.92.07-.73,0-1.1-.5-1.33-.32h.05c.1.06.08.24,0,.32a.16.16,0,0,1-.11,0,.69.69,0,0,0,.39.07.89.89,0,0,0-.52.09.22.22,0,0,1,.13,0c.11,0,.11.22.05.31a.18.18,0,0,1-.09.05c.17,0,.42-.22.54-.08A.34.34,0,0,0,100.19,47.75Z"/><path class="je_cls-5" d="M94.24,25.57c.2,0,.31,0,.36.28.13-.06.21-.18.17-.5s.27-.31.16-.67c.11.44-.72.4-.72.2,0,.2-.83.24-.72-.2-.1.36.19.45.16.67s.06.48.23.52C93.88,25.62,94,25.57,94.24,25.57Z"/><path class="je_cls-5" d="M94.51,35.62c.18,0,.28,0,.32.25.12-.05.18-.17.15-.45s.24-.28.15-.6c.1.4-.65.36-.65.18,0,.18-.74.22-.65-.18-.09.32.17.4.15.6s.05.43.21.47C94.2,35.65,94.3,35.62,94.51,35.62Z"/><path class="je_cls-5" d="M95.94,44.44c.13,0,.21,0,.24.2.09,0,.13-.14.11-.37s.18-.22.11-.49c.07.32-.48.29-.48.15,0,.15-.55.18-.48-.15-.07.26.13.33.11.49s0,.35.16.38C95.71,44.47,95.78,44.44,95.94,44.44Z"/><path class="je_cls-6" d="M89.19,22.39c.14-.06.27-.27.16-.41l0,0a.6.6,0,0,0-.95.39c.2-.23.5,0,.71,0A.2.2,0,0,0,89.19,22.39Z"/><path class="je_cls-6" d="M89,22.79l-.06-.05a.61.61,0,0,0-.9.42c.21-.26.55.07.77,0h0C89,23.14,89.1,22.93,89,22.79Z"/><path class="je_cls-6" d="M88.81,23.87a.37.37,0,0,0-.12-.08.62.62,0,0,0-.8.55c.18-.27.54,0,.75,0l.07,0C88.84,24.22,88.94,24,88.81,23.87Z"/><path class="je_cls-6" d="M89.14,27.22l-.1,0a.61.61,0,0,0-.76.63c.16-.32.62,0,.8-.15h0C89.21,27.55,89.28,27.32,89.14,27.22Z"/><path class="je_cls-6" d="M89.21,28.36c.08-.12.08-.35-.08-.41a.37.37,0,0,0-.2,0,.63.63,0,0,0-.45.83c.06-.35.58-.21.72-.39Z"/><path class="je_cls-6" d="M89.65,28.5l-.14,0a.62.62,0,0,0-.5.84c.05-.34.55-.22.7-.38h0C89.82,28.8,89.81,28.56,89.65,28.5Z"/><path class="je_cls-6" d="M100.36,29.56a.37.37,0,0,0-.16,0,.63.63,0,0,0-.48.83c0-.28.37-.25.58-.31a.25.25,0,0,0,.14-.07C100.52,29.86,100.52,29.62,100.36,29.56Z"/><path class="je_cls-6" d="M100.91,30.05a.4.4,0,0,0-.29,0,.63.63,0,0,0-.26.84c0-.36.55-.27.67-.47h0C101.11,30.34,101.08,30.1,100.91,30.05Z"/><path class="je_cls-6" d="M100.52,28.85l-.06,0a.61.61,0,0,0-.71.71c.09-.26.4-.19.61-.21a.25.25,0,0,0,.16-.05C100.63,29.18,100.67,28.94,100.52,28.85Z"/><path class="je_cls-6" d="M108.14,29.71a.4.4,0,0,0-.3,0,.63.63,0,0,0-.25.84c0-.36.55-.28.67-.47v0C108.33,30,108.3,29.75,108.14,29.71Z"/><path class="je_cls-6" d="M108.15,29l-.07,0a.61.61,0,0,0-.68.74c.07-.24.33-.21.54-.22a.35.35,0,0,0,.22-.07C108.28,29.37,108.31,29.12,108.15,29Z"/><path class="je_cls-6" d="M108.45,30.31a.4.4,0,0,0-.27,0,.63.63,0,0,0-.24.86c0-.31.39-.32.57-.44,0,0,.06,0,.08-.06S108.62,30.35,108.45,30.31Z"/><path class="je_cls-6" d="M94.24,25.57c-.24,0-.35,0-.35.3h0c.05,0,.07.07.08.26s0,.18,0,.3c0,.75,0,1.17.31,1.17s.34-.44.34-1.47c0,0,0,0,0,0a1.74,1.74,0,0,0,0-.25C94.55,25.62,94.44,25.57,94.24,25.57Z"/><path class="je_cls-6" d="M90.11,32.39l0,0a.54.54,0,0,0-.84.35c.18-.21.44,0,.63,0a.19.19,0,0,0,.1,0C90.1,32.7,90.21,32.51,90.11,32.39Z"/><path class="je_cls-6" d="M89.79,33.11s-.05,0-.07,0a.54.54,0,0,0-.8.37c.2-.23.5.05.69,0h0C89.78,33.42,89.89,33.23,89.79,33.11Z"/><path class="je_cls-6" d="M89.63,34.08a.32.32,0,0,0-.11-.07.56.56,0,0,0-.72.5c.16-.24.46,0,.65,0h.08C89.66,34.39,89.75,34.19,89.63,34.08Z"/><path class="je_cls-6" d="M89.93,37.09l-.09,0a.55.55,0,0,0-.69.56c.15-.29.56,0,.72-.13h0C90,37.39,90.05,37.19,89.93,37.09Z"/><path class="je_cls-6" d="M89.91,37.75a.33.33,0,0,0-.17,0,.56.56,0,0,0-.4.75c.05-.32.53-.19.64-.35h0C90.06,38,90.05,37.81,89.91,37.75Z"/><path class="je_cls-6" d="M90.38,38.25H90.3a.55.55,0,0,0-.49.75c.05-.31.5-.2.63-.34h0C90.53,38.52,90.53,38.3,90.38,38.25Z"/><path class="je_cls-6" d="M100,39.2l-.12,0a.56.56,0,0,0-.46.75c0-.25.34-.23.52-.28a.23.23,0,0,0,.12-.06C100.17,39.48,100.17,39.26,100,39.2Z"/><path class="je_cls-6" d="M100.52,39.65a.36.36,0,0,0-.26,0,.57.57,0,0,0-.23.76c0-.32.5-.25.6-.42h0C100.69,39.89,100.67,39.69,100.52,39.65Z"/><path class="je_cls-6" d="M100.17,38.57l-.06,0a.55.55,0,0,0-.64.64c.08-.23.36-.17.55-.18a.23.23,0,0,0,.14,0C100.27,38.87,100.3,38.65,100.17,38.57Z"/><path class="je_cls-6" d="M107,39.34a.36.36,0,0,0-.27,0,.57.57,0,0,0-.22.75c0-.32.5-.25.6-.42v0C107.2,39.56,107.17,39.38,107,39.34Z"/><path class="je_cls-6" d="M107,38.74l-.06,0a.55.55,0,0,0-.61.67c.06-.21.3-.19.48-.2a.32.32,0,0,0,.2-.06C107.15,39,107.18,38.81,107,38.74Z"/><path class="je_cls-6" d="M107.3,39.88a.35.35,0,0,0-.24,0,.57.57,0,0,0-.21.77c0-.28.35-.28.51-.39s.06,0,.07-.05S107.46,39.91,107.3,39.88Z"/><path class="je_cls-6" d="M94.51,35.62c-.21,0-.32,0-.32.27h0c.05,0,.06.06.07.23s0,.16,0,.27c0,.68,0,1.06.28,1.06s.31-.4.31-1.32c0,0,0,0,0,0a1.69,1.69,0,0,0,0-.22C94.79,35.66,94.69,35.62,94.51,35.62Z"/><path class="je_cls-6" d="M92.69,41.82h0c-.19-.21-.61,0-.62.28.13-.17.33,0,.47,0a.13.13,0,0,0,.08,0A.22.22,0,0,0,92.69,41.82Z"/><path class="je_cls-6" d="M92.45,42.41s0,0-.05,0a.39.39,0,0,0-.59.3c.14-.19.37,0,.51,0h0A.22.22,0,0,0,92.45,42.41Z"/><path class="je_cls-6" d="M92.33,43.2s-.06,0-.1,0a.41.41,0,0,0-.52.39c.12-.19.34,0,.48,0h.06C92.35,43.45,92.42,43.29,92.33,43.2Z"/><path class="je_cls-6" d="M92.55,45.64s-.05,0-.08,0a.41.41,0,0,0-.49.45c.11-.23.41,0,.53-.11h0C92.59,45.88,92.64,45.72,92.55,45.64Z"/><path class="je_cls-6" d="M92.54,46.18a.23.23,0,0,0-.14,0,.45.45,0,0,0-.29.59c0-.26.39-.15.48-.28h0C92.64,46.39,92.64,46.22,92.54,46.18Z"/><path class="je_cls-6" d="M92.88,46.58s-.06,0-.09,0a.44.44,0,0,0-.33.59c0-.25.37-.16.47-.27h0C93,46.8,93,46.62,92.88,46.58Z"/><path class="je_cls-6" d="M100,47.35a.22.22,0,0,0-.13,0,.45.45,0,0,0-.3.59c0-.2.25-.18.39-.23a.18.18,0,0,0,.09-.05C100.13,47.58,100.13,47.4,100,47.35Z"/><path class="je_cls-6" d="M100.38,47.71a.24.24,0,0,0-.19,0,.48.48,0,0,0-.17.61c0-.26.37-.2.45-.34h0C100.51,47.91,100.49,47.74,100.38,47.71Z"/><path class="je_cls-6" d="M100.13,46.84h-.05c-.24-.09-.55.24-.46.52.06-.19.26-.14.41-.15a.16.16,0,0,0,.11,0C100.2,47.08,100.23,46.9,100.13,46.84Z"/><path class="je_cls-6" d="M105.2,47.46a.25.25,0,0,0-.2,0,.48.48,0,0,0-.17.61c0-.26.37-.2.44-.34s0,0,0,0S105.3,47.49,105.2,47.46Z"/><path class="je_cls-6" d="M105.21,47s-.05,0-.08,0a.43.43,0,0,0-.42.54c0-.17.22-.15.36-.16a.21.21,0,0,0,.15,0C105.29,47.21,105.31,47,105.21,47Z"/><path class="je_cls-6" d="M105.4,47.9a.24.24,0,0,0-.18,0,.48.48,0,0,0-.16.62c0-.23.26-.23.38-.32s0,0,.05,0S105.52,47.93,105.4,47.9Z"/><path class="je_cls-6" d="M95.94,44.44c-.16,0-.23,0-.23.22h0s0,.05,0,.19,0,.13,0,.22c0,.55,0,.86.21.86s.23-.32.23-1.08v0a1.21,1.21,0,0,0,0-.18C96.15,44.47,96.08,44.44,95.94,44.44Z"/></g></g></svg>
