<svg xmlns="http://www.w3.org/2000/svg" viewBox="0 0 200 134"><defs><style>.jm_cls-1{fill:#348b42;}.jm_cls-2{fill:#121212;}.jm_cls-3{fill:#f9e032;}</style></defs><title>Asset 89</title><g id="Layer_2" data-name="Layer 2"><g id="Layer_11" data-name="Layer 11"><polygon class="jm_cls-1" points="175.63 0 22.04 0 99.34 48.99 175.63 0"/><polygon class="jm_cls-1" points="22.04 134 175.63 134 99.34 85 22.04 134"/><polygon class="jm_cls-2" points="0 21.2 0 112.79 71.31 67 0 21.2"/><polygon class="jm_cls-2" points="200 112.79 200 21.2 127.75 67 200 112.79"/><path class="jm_cls-3" d="M127.75,67,200,21.2V17A17,17,0,0,0,183,0h-7.37L99.34,49,22,0H17A17,17,0,0,0,0,17v4.2L71.31,67,0,112.79V117a17,17,0,0,0,17,17h5l77.3-49,76.29,49H183a17,17,0,0,0,17-17v-4.21Z"/></g></g></svg>
