<svg xmlns="http://www.w3.org/2000/svg" viewBox="0 0 200 134"><defs><style>.jo_cls-1{fill:#121212;}.jo_cls-2{fill:#fafafa;}.jo_cls-3{fill:#197b49;}.jo_cls-4{fill:#ce2931;}.jo_cls-5{fill:#fff;}</style></defs><title>Asset 91</title><g id="Layer_2" data-name="Layer 2"><g id="Layer_9" data-name="Layer 9"><path class="jo_cls-1" d="M183,0H17A16.92,16.92,0,0,0,5.85,4.19L66.43,44.61H200V17A17,17,0,0,0,183,0Z"/><polygon class="jo_cls-2" points="100 67 66.43 89.39 200 89.39 200 44.6 66.43 44.6 100 67"/><path class="jo_cls-3" d="M5.85,129.81A16.91,16.91,0,0,0,17,134H183a17,17,0,0,0,17-17V89.39H66.43Z"/><path class="jo_cls-4" d="M100,67,66.43,44.61,5.85,4.19A17,17,0,0,0,0,17V117a16.94,16.94,0,0,0,5.85,12.81L66.43,89.39ZM28.31,61l5.42,1.66,2.08-5.27,2.08,5.27L43.32,61l-2.83,4.91,4.68,3.21-5.6.85L40,75.65,35.82,71.8l-4.16,3.85L32.06,70l-5.61-.85,4.68-3.21Z"/><polygon class="jo_cls-5" points="32.06 69.99 31.65 75.65 35.81 71.8 39.98 75.65 39.57 69.99 45.17 69.14 40.49 65.93 43.32 61.02 37.9 62.68 35.81 57.4 33.73 62.68 28.31 61.02 31.14 65.93 26.46 69.14 32.06 69.99"/></g></g></svg>
