<svg id="Layer_1" xmlns="http://www.w3.org/2000/svg" viewBox="0 0 200 134"><style>.st0{fill:#41479b}.st1{fill:#ff4b55}.st2{fill:#f5f5f5}</style><path class="st0" d="M185 134H15c-8.3 0-15-6.9-15-15.3V15.3C0 6.9 6.7 0 15 0h170c8.3 0 15 6.9 15 15.3v103.4c0 8.4-6.7 15.3-15 15.3z"/><path class="st1" d="M0 31.7h200v70.5H0z"/><path class="st2" d="M145.6 93.7v-5H144v-3.3h-1.6v-3.3h-1.7v-3.4h-4.8v-10l1.6-1.6v-5h-1.6v-3.4h-1.7v-5h-1.6v-3.3H131v-3.3h-1.7v-1.7h-3.2v1.7h-1.7v3.3h-1.6v3.3h-1.6v5h-1.6v3.4h-9.8v-5h-1.7v-5h-1.6v-5h-1.6v-3.4h-1.6v-3.3h-1.7v-1.7h-.8v-1.6h-1.6v1.6h-.8v1.7h-1.7v3.3h-1.6v3.4h-1.6v5h-1.6v5h-1.7v5h-9.8v-3.4h-1.6v-5h-1.6v-3.3h-1.6v-3.3h-1.7v-1.7h-3.2v1.7H69v3.3h-1.6v3.3h-1.6v5h-1.7v3.4h-1.6v5l1.6 1.6v10h-4.8v3.4h-1.7v3.3H56v3.3h-1.6v5h-1.7v5h94.6v-5z"/></svg>