<svg xmlns="http://www.w3.org/2000/svg" viewBox="0 0 200 134"><style>.st0{fill:#ff4b55}.st1{fill:#ffe15a}.st2{fill:#ffd25a}.st3{fill:#41479b}.st4{fill:#f5f5f5}</style><path class="st0" d="M185 0H15C6.7 0 0 6.9 0 15.3v103.4c0 8.5 6.7 15.3 15 15.3h170c8.3 0 15-6.9 15-15.3V15.3C200 6.9 193.3 0 185 0z"/><path class="st1" d="M119.3 68.1c-.9-.8-1.9-1.3-2.9-1.7 5.6-1.1 10.2-6 10.2-6-2.7 1.2-4 1.5-8.4 0-1.1-.4-2.2-.5-3.3-.5 4.8-3.3 7.1-9.5 7.1-9.5-2.1 2.2-3.2 2.9-7.7 3.3-1.2.1-2.2.4-3.2.8 3.2-4.9 3-11.6 3-11.6-1.1 2.8-1.8 3.9-5.9 6.1-1 .5-1.9 1.3-2.7 2 1.1-5.8-1.5-11.9-1.5-11.9.1 3.1-.2 4.4-3.2 7.9-.8.9-1.3 1.9-1.7 2.9-1.1-5.8-5.9-10.4-5.9-10.4 1.2 2.8 1.4 4.1 0 8.6-.4 1.1-.5 2.3-.5 3.4-3.2-4.9-9.3-7.3-9.3-7.3 2.2 2.1 2.9 3.2 3.2 7.9.1 1.2.4 2.3.8 3.3-4.8-3.3-11.3-3.1-11.3-3.1 2.8 1.1 3.9 1.9 5.9 6 .5 1.1 1.2 2 2 2.7-5.6-1.2-11.6 1.6-11.6 1.6 3-.1 4.3.2 7.7 3.3.9.8 1.9 1.3 2.9 1.7-5.6 1.1-10.2 6-10.2 6 2.7-1.2 4-1.5 8.4 0 1.1.4 2.2.5 3.3.5-4.8 3.3-7.1 9.5-7.1 9.5 2.1-2.2 3.2-2.9 7.7-3.3 1.2-.1 2.2-.4 3.2-.8-3.2 4.9-3 11.6-3 11.6 1.1-2.8 1.8-3.9 5.9-6.1 1-.5 1.9-1.3 2.7-2-1.1 5.8 1.5 11.9 1.5 11.9-.1-3.1.2-4.4 3.2-7.9.8-.9 1.3-1.9 1.7-2.9 1.1 5.8 5.9 10.4 5.9 10.4-1.2-2.8-1.4-4.1 0-8.6.4-1.1.5-2.3.5-3.4 3.2 4.9 9.3 7.3 9.3 7.3-2.2-2.1-2.9-3.2-3.2-7.9-.1-1.2-.4-2.3-.8-3.3 4.8 3.3 11.3 3.1 11.3 3.1-2.8-1.1-3.9-1.9-5.9-6-.5-1.1-1.2-2-2-2.7 5.6 1.2 11.6-1.6 11.6-1.6-2.9 0-4.2-.2-7.7-3.3z"/><path class="st2" d="M113.8 69.8l13.8-2.8-13.8-2.8 11.7-8-13.8 2.8 7.8-11.9-11.7 8 2.7-14.1-7.8 11.9-2.7-14.1-2.8 14.1L89.4 41l2.8 14-11.7-8 7.8 12-13.8-2.8 11.7 8L72.4 67l13.8 2.8-11.7 8L88.3 75l-7.8 11.9 11.7-8L89.5 93l7.8-11.9 2.8 14.1 2.8-14.1 7.8 11.9-2.9-14 11.7 8-7.8-12 13.8 2.8-11.7-8z"/><ellipse class="st1" cx="100" cy="67" rx="13.8" ry="14.1"/><path class="st3" d="M39.9 109.3c10 0 10 3.5 20 3.5s10-3.5 20-3.5 10 3.5 20 3.5 10-3.5 20-3.5 10 3.5 20 3.5 10-3.5 20-3.5 10 3.5 20 3.5 10-3.5 20-3.5V98.7c-10 0-10 3.5-20 3.5s-10-3.5-20-3.5-10 3.5-20 3.5-10-3.5-20-3.5-10 3.5-20 3.5-10-3.5-20-3.5-10 3.5-20 3.5-10-3.5-20-3.5-10 3.5-20 3.5-10-3.5-20-3.5v10.6c10 0 10 3.5 20 3.5 10.1 0 10.1-3.5 20-3.5zM0 88.2c10 0 10 3.5 20 3.5s10-3.5 20-3.5 10 3.5 20 3.5 10-3.5 20-3.5 10 3.5 20 3.5 10-3.5 20-3.5 10 3.5 20 3.5 10-3.5 20-3.5 10 3.5 20 3.5 10-3.5 20-3.5V77.6c-10 0-10 3.5-20 3.5s-10-3.5-20-3.5-10 3.5-20 3.5-10-3.5-20-3.5-10 3.5-20 3.5-10-3.5-20-3.5-10 3.5-20 3.5-10-3.5-20-3.5-10 3.5-20 3.5-10-3.5-20-3.5v10.6z"/><path class="st4" d="M0 119.9c10 0 10 3.5 20 3.5s10-3.5 20-3.5 10 3.5 20 3.5 10-3.5 20-3.5 10 3.5 20 3.5 10-3.5 20-3.5 10 3.5 20 3.5 10-3.5 20-3.5 10 3.5 20 3.5 10-3.5 20-3.5v-10.6c-10 0-10 3.5-20 3.5s-10-3.5-20-3.5-10 3.5-20 3.5-10-3.5-20-3.5-10 3.5-20 3.5-10-3.5-20-3.5-10 3.5-20 3.5-10-3.5-20-3.5-10 3.5-20 3.5-10-3.5-20-3.5v10.6zM0 98.7c10 0 10 3.5 20 3.5s10-3.5 20-3.5 10 3.5 20 3.5 10-3.5 20-3.5 10 3.5 20 3.5 10-3.5 20-3.5 10 3.5 20 3.5 10-3.5 20-3.5 10 3.5 20 3.5 10-3.5 20-3.5V88.2c-10 0-10 3.5-20 3.5s-10-3.5-20-3.5-10 3.5-20 3.5-10-3.5-20-3.5-10 3.5-20 3.5-10-3.5-20-3.5-10 3.5-20 3.5-10-3.5-20-3.5-10 3.5-20 3.5-10-3.5-20-3.5v10.5zM0 77.6c10 0 10 3.5 20 3.5s10-3.5 20-3.5 10 3.5 20 3.5 10-3.5 20-3.5 10 3.5 20 3.5 10-3.5 20-3.5 10 3.5 20 3.5 10-3.5 20-3.5 10 3.5 20 3.5 10-3.5 20-3.5V67c-10 0-10 3.5-20 3.5S170 67 160 67s-10 3.5-20 3.5-10-3.5-20-3.5-10 3.5-20 3.5S90 67 80 67s-10 3.5-20 3.5S50 67 40 67s-10 3.5-20 3.5S10 67 0 67v10.6z"/><path class="st3" d="M180 123.4c-10 0-10-3.5-20-3.5s-10 3.5-20 3.5-10-3.5-20-3.5-10 3.5-20 3.5-10-3.5-20-3.5-10 3.5-20 3.5-10-3.5-20-3.5-10 3.5-20 3.5-10-3.5-19.9-3.5c.6 7.9 7 14.1 14.9 14.1h170c7.9 0 14.3-6.2 14.9-14.1-9.9 0-9.9 3.5-19.9 3.5z"/><path class="st1" d="M107.2 18.7c16.8-.7 25.3-8.1 25.3-8.1-1.2.5-20 2.1-25.4 2.6-3.4.3-7.6 4.3-10.3 7.1-.7-2-2.1-4.1-4.9-4.5-5.7-.9-20.7-1.8-24.4-3.6 0 0 2.4 3.8 14.8 5.5 5.9.8 9.2 2.9 10.7 4.3h-1.4l-2.4-1.2c-2.4-1.2-4.8.9-4.8.9h-3.8c-.5 0-.8.6-.5 1l.4.5c.4.5 1 .8 1.6.8H86c1.4 2.5 6.7 5 11 5 4.4 0 17.7-6.1 19-6.1l-12.1-.4 3.3-3.8z"/></svg>
