<svg xmlns="http://www.w3.org/2000/svg" viewBox="0 0 200 134"><defs><style>.km_cls-1{fill:#fc3;}.km_cls-2{fill:#fafafa;}.km_cls-3{fill:#ce2931;}.km_cls-4{fill:#4075ba;}.km_cls-5{fill:#fff;}.km_cls-6{fill:#3f8f42;}</style></defs><title>Asset 80</title><g id="Layer_2" data-name="Layer 2"><g id="Layer_21" data-name="Layer 21"><path class="km_cls-1" d="M183,0H17A16.93,16.93,0,0,0,6.06,4L55,33.38H200V17A17,17,0,0,0,183,0Z"/><polygon class="km_cls-2" points="111.07 67 200 67 200 33.38 55.03 33.38 111.07 67"/><polygon class="km_cls-3" points="55.03 100.62 200 100.62 200 67 111.07 67 55.03 100.62"/><path class="km_cls-4" d="M6.06,130A16.93,16.93,0,0,0,17,134H183a17,17,0,0,0,17-17V100.62H55Z"/><path class="km_cls-5" d="M6.85,67a30.25,30.25,0,0,0,37,29.49A30.26,30.26,0,0,1,20.29,67h0A30.26,30.26,0,0,1,43.83,37.49,30.25,30.25,0,0,0,6.85,67Z"/><path class="km_cls-6" d="M55,33.38,6.06,4A17,17,0,0,0,0,17V117a17,17,0,0,0,6.06,13l49-29.38,56-33.62ZM38.5,86.93h4.07l1.26-3.87,1.26,3.87h4.07l-3.29,2.39,1.26,3.87L43.83,90.8l-3.29,2.39,1.26-3.87ZM49.16,43.61,45.86,46l1.26,3.87-3.29-2.39-3.29,2.39L41.79,46,38.5,43.61h4.07l1.26-3.87,1.26,3.87ZM42.57,58l1.26-3.87L45.08,58h4.07l-3.29,2.39,1.26,3.87-3.29-2.39-3.29,2.39,1.26-3.87L38.5,58Zm0,14.44,1.26-3.87,1.26,3.87h4.07l-3.29,2.39,1.26,3.87-3.29-2.39-3.29,2.39,1.26-3.87L38.5,72.49ZM37.11,97.27A30.26,30.26,0,0,1,6.85,67h0a30.25,30.25,0,0,1,37-29.51A30.26,30.26,0,0,0,20.29,67h0A30.26,30.26,0,0,0,43.83,96.51,30.27,30.27,0,0,1,37.11,97.27Z"/><polygon class="km_cls-5" points="43.83 90.8 47.12 93.19 45.86 89.32 49.16 86.93 45.08 86.93 43.83 83.06 42.57 86.93 38.5 86.93 41.79 89.32 40.53 93.19 43.83 90.8"/><polygon class="km_cls-5" points="40.53 49.88 43.83 47.48 47.12 49.88 45.86 46 49.16 43.61 45.08 43.61 43.83 39.74 42.57 43.61 38.5 43.61 41.79 46 40.53 49.88"/><polygon class="km_cls-5" points="40.53 64.31 43.83 61.92 47.12 64.31 45.86 60.44 49.16 58.05 45.08 58.05 43.83 54.18 42.57 58.05 38.5 58.05 41.79 60.44 40.53 64.31"/><polygon class="km_cls-5" points="45.08 72.49 43.83 68.61 42.57 72.49 38.5 72.49 41.79 74.88 40.53 78.75 43.83 76.36 47.12 78.75 45.86 74.88 49.16 72.49 45.08 72.49"/></g></g></svg>
