<svg id="Layer_1" xmlns="http://www.w3.org/2000/svg" viewBox="0 0 200 134"><style>.st0{fill:#73af00}.st1{fill:#ff4b55}.st2{fill:#f5f5f5}.st3{fill:#464655}</style><path class="st0" d="M156.2 0H43.8C19.6 0 0 13.1 0 29.3v15.4h200V29.3C200 13.1 180.4 0 156.2 0z"/><path class="st1" d="M0 104.7C0 120.9 19.6 134 43.8 134h112.5c24.2 0 43.8-13.1 43.8-29.3V89.3H0v15.4z"/><path class="st2" d="M0 44.7h200v44.7H0z"/><path class="st3" d="M55.2 44.6L11.6 9.4C4.4 14.6 0 21.6 0 29.3v75.4c0 7.7 4.4 14.7 11.6 19.9l43.5-35.2.1-44.8z"/></svg>