<svg xmlns="http://www.w3.org/2000/svg" viewBox="0 0 200 134"><defs><style>.ky_cls-1{fill:#21205f;}.ky_cls-2{fill:#fff;}.ky_cls-3{fill:#cb2026;}.ky_cls-4{fill:#fec60c;}.ky_cls-5{fill:#214193;}.ky_cls-6{fill:#0f5229;}.ky_cls-7{fill:#010101;}.ky_cls-8{fill:#0c1c11;}.ky_cls-9{fill:#d42027;}.ky_cls-10{fill:#fddc59;}.ky_cls-11{fill:#2064b0;}.ky_cls-12{fill:#fbc410;}.ky_cls-13{fill:#0f1137;}.ky_cls-14{fill:#0c301c;}</style></defs><title>Asset 34</title><g id="Layer_2" data-name="Layer 2"><g id="Layer_67" data-name="Layer 67"><path class="ky_cls-1" d="M183,0H100V50.27H0V117a17,17,0,0,0,17,17H183a17,17,0,0,0,17-17V17A17,17,0,0,0,183,0Zm-7,66.86a47.81,47.81,0,0,1-1.59,5.89c-.4.84-2.29,1.68-3.58,2s-5-.72-5-.84-6.71,5.67-15.6,5.65c-11.43,0-17-5.77-17.09-5.89a7.65,7.65,0,0,1-3.92,1c-1.39.12-4.52-1.14-4.82-2s-1.39-4.68-1.49-4.92a5.13,5.13,0,0,1,0-2.16c.2-.72,1.95-.86,2.83-.18s1.4,2.59,2.73,2.82c.4.07-1-1.56-1.39-2.16s-.05-1.32,0-2.16,3.93-2.7,5-3.78a2.46,2.46,0,0,1,2.38-.66s-.5-3.24-.7-4.56.2-18.38.2-18.38l5.76-.24a4.42,4.42,0,0,1-.2-1.2c0-.6,1.29-1.56,1.29-1.56a8.38,8.38,0,0,1-1.09-1.92c-.2-.72.6-1.56.5-1.92s-1.59-.48-2.29-.48-.79-1.2-.79-1.2-.3.6-.5.6-.3-.72-.3-1.68,1.09-1.32,1.49-1.32,1-.36,2-.6,1.89,1.32,2.29,1.44.79-.24,1-.36-2.6-2.1-2.6-2.1l.32-1s-.84-1.66-.88-1.66l1.9-.09c.07,0-.91-2-.91-2l2.6.89s-.14-.93-.14-1a8.81,8.81,0,0,1,.84-.51s-1-2.16-1-2.21,3.87,2.25,3.9,2.21a5.39,5.39,0,0,1,.81-.13s.81-2.84.81-2.89,1.09,1.49,1.13,1.53,1-.72,1.16-.72.28.59.24.6c0,.24.9,0,.9,0l.5.6,1.09-.72.5,1.32a5.88,5.88,0,0,1,1.09-.48c.2,0,.79.84.79.84s2.49-.36,2.59-.36-.1,1.44-.7,1.56,1.69.36,2.19.6-2.38,2-2.38,2.64c.7-.36,2.78.24,3.18.24s-5,3.24-4.77,3.24,2,1.68,2.58,2,2,.24,2.09,1.2-2.09,1.56-2.58,1.8,1.19,1,1.59,2a7.29,7.29,0,0,1,0,3c0,.24,4.87-.12,5-.12s-.2,17.23,0,19a6.11,6.11,0,0,1-.7,3.55,2.94,2.94,0,0,0,1.39.36c.7,0,1.62,1.31,2.78,2.1s2.29,1.14,3,1.74.4,1.68.3,2.28a9.6,9.6,0,0,1-1,2.55l1.07-1c.74-1.2.89-1.86,1.39-2.1a2.46,2.46,0,0,1,1.89-.06C176,65.3,176.07,66.14,176,66.86Z"/><path class="ky_cls-1" d="M156.25,70.73c-1.49,1-5.17,3-5.42,3s4.12-.72,5.46-1.14S161,70,161.17,70s-1.14-1.68-1.39-2A23.33,23.33,0,0,1,156.25,70.73Z"/><polygon class="ky_cls-1" points="88.48 0 58.01 0 58.01 15.24 88.48 0"/><path class="ky_cls-1" d="M3,7.39a16.91,16.91,0,0,0-3,9.28H21.54Z"/><path class="ky_cls-1" d="M41.21,0H17a17,17,0,0,0-4.84.71L41.21,15.24Z"/><polygon class="ky_cls-1" points="10.48 50.27 41.21 50.27 41.21 34.9 10.48 50.27"/><polygon class="ky_cls-1" points="58.01 50.27 88.73 50.27 58.01 34.9 58.01 50.27"/><polygon class="ky_cls-1" points="0 33.47 0 44.24 21.54 33.47 0 33.47"/><polygon class="ky_cls-1" points="100 44.63 100 33.47 77.67 33.47 100 44.63"/><polygon class="ky_cls-1" points="100 16.67 100 5.51 77.67 16.67 100 16.67"/><polygon class="ky_cls-2" points="58.01 16.67 58.89 16.67 92.23 0 88.48 0 58.01 15.24 58.01 16.67"/><path class="ky_cls-2" d="M41.21,16.67V15.24L12.16.71A16.92,16.92,0,0,0,6.61,3.57l26.2,13.1Z"/><polygon class="ky_cls-2" points="77.67 16.67 100 5.51 100 0 99.75 0 66.4 16.67 77.67 16.67"/><polygon class="ky_cls-2" points="21.54 33.47 0 44.24 0 49.87 32.81 33.47 21.54 33.47"/><polygon class="ky_cls-2" points="41.21 33.47 40.32 33.47 6.73 50.27 10.48 50.27 41.21 34.9 41.21 33.47"/><polygon class="ky_cls-2" points="73.92 33.47 100 46.51 100 44.63 77.67 33.47 73.92 33.47"/><polygon class="ky_cls-2" points="58.01 33.47 58.01 34.9 88.73 50.27 100 50.27 66.4 33.47 58.01 33.47"/><path class="ky_cls-2" d="M25.3,16.67,4,6A16.91,16.91,0,0,0,3,7.39l18.56,9.28Z"/><polygon class="ky_cls-2" points="54.65 20.03 100 20.03 100 16.67 77.67 16.67 66.4 16.67 58.89 16.67 58.01 16.67 58.01 15.24 58.01 0 54.65 0 54.65 20.03"/><polygon class="ky_cls-2" points="54.65 30.11 54.65 50.27 58.01 50.27 58.01 34.9 58.01 33.47 66.4 33.47 73.92 33.47 77.67 33.47 100 33.47 100 30.11 54.65 30.11"/><polygon class="ky_cls-2" points="32.81 33.47 40.32 33.47 41.21 33.47 41.21 34.9 41.21 50.27 44.57 50.27 44.57 30.11 0 30.11 0 33.47 21.54 33.47 32.81 33.47"/><path class="ky_cls-2" d="M44.57,20V0H41.21V16.67H0c0,.11,0,.22,0,.33v3Z"/><polygon class="ky_cls-3" points="44.57 30.11 44.57 50.27 54.65 50.27 54.65 30.11 100 30.11 100 20.03 54.65 20.03 54.65 0 44.57 0 44.57 20.03 0 20.03 0 30.11 44.57 30.11"/><polygon class="ky_cls-3" points="40.32 33.47 32.81 33.47 0 49.87 0 50.27 6.73 50.27 40.32 33.47"/><polygon class="ky_cls-3" points="66.4 16.67 99.75 0 92.23 0 58.89 16.67 66.4 16.67"/><polygon class="ky_cls-3" points="66.4 33.47 100 50.27 100 46.51 73.92 33.47 66.4 33.47"/><path class="ky_cls-3" d="M32.81,16.67,6.61,3.57A17.07,17.07,0,0,0,4,6L25.3,16.67Z"/><path class="ky_cls-2" d="M150.74,24.49a1,1,0,0,1-.21.17l.07.06a1,1,0,0,1,.14-.22Z"/><path class="ky_cls-2" d="M151.46,21.78a.6.6,0,0,1,0,.08l.07-.08Z"/><path class="ky_cls-2" d="M153.22,26.83l-.29-.12h0l.26.13,0,0Z"/><path class="ky_cls-2" d="M149.37,24.78h0Z"/><path class="ky_cls-2" d="M149.08,25.81l0,0h0a.23.23,0,0,1,0,0h.18a.91.91,0,0,1-.1-.2A.85.85,0,0,1,149.08,25.81Z"/><path class="ky_cls-2" d="M150.73,25.83h0l0,0Z"/><path class="ky_cls-2" d="M149.53,23s0,0,0,0h.05Z"/><path class="ky_cls-2" d="M151.88,26.12l0,0a.85.85,0,0,1,0-.1l-.11.06Z"/><path class="ky_cls-2" d="M156.31,69.78h0s-.23.19-.62.48c-.55.42-1.11.8-1.67,1.15-1.56,1-3.54,2.12-4.71,2.12s-3.23-1.15-4.8-2.18l-.36-.24-.56-.38-.65-.46c-.32-.24-.54-.41-.59-.46a25.23,25.23,0,0,1-3.77-3.7A19.42,19.42,0,0,1,136.42,70a22.16,22.16,0,0,0,12.93,4.41,17.84,17.84,0,0,0,12.55-4.44,16,16,0,0,1-2.24-3.39A25.34,25.34,0,0,1,156.31,69.78Zm4.86.2c-.2,0-3.53,2.22-4.87,2.64s-5.71,1.2-5.46,1.14,3.93-2.07,5.42-3a23.33,23.33,0,0,0,3.53-2.79C160,68.3,161.36,70,161.17,70Z"/><path class="ky_cls-2" d="M145.61,26.08l.11,0,0-.06Z"/><path class="ky_cls-2" d="M149.24,20.79c.09,0-.59.1-1.17.2.12.2.25.42.37.63A4,4,0,0,1,149.24,20.79Z"/><path class="ky_cls-2" d="M175.08,65.06a2.46,2.46,0,0,0-1.89.06c-.5.24-.65.9-1.39,2.1l-1.07,1a9.6,9.6,0,0,0,1-2.55c.1-.6.4-1.68-.3-2.28s-1.76-.85-3-1.74-2.09-2.1-2.78-2.1a2.94,2.94,0,0,1-1.39-.36,6.11,6.11,0,0,0,.7-3.55c-.2-1.8.1-19,0-19s-5,.36-5,.12a7.29,7.29,0,0,0,0-3c-.4-1.08-2.09-1.8-1.59-2s2.68-.84,2.58-1.8-1.49-.84-2.09-1.2-2.38-2-2.58-2,5.17-3.24,4.77-3.24-2.48-.6-3.18-.24c0-.6,2.88-2.4,2.38-2.64s-2.78-.48-2.19-.6.79-1.56.7-1.56-2.59.36-2.59.36-.59-.84-.79-.84a5.88,5.88,0,0,0-1.09.48l-.5-1.32-1.09.72-.5-.6s-.9.24-.9,0c0,0-.1-.6-.24-.6s-1.12.76-1.16.72-1.13-1.57-1.13-1.53-.77,2.89-.81,2.89a5.39,5.39,0,0,0-.81.13s-3.94-2.25-3.9-2.21,1,2.21,1,2.21a8.81,8.81,0,0,0-.84.51s.14,1,.14,1l-2.6-.89s1,2,.91,2l-1.9.09s.88,1.66.88,1.66l-.32,1s2.8,2,2.6,2.1-.6.48-1,.36-1.29-1.68-2.29-1.44-1.59.6-2,.6-1.49.36-1.49,1.32.1,1.68.3,1.68.5-.6.5-.6.1,1.2.79,1.2,2.19.12,2.29.48-.7,1.2-.5,1.92a8.38,8.38,0,0,0,1.09,1.92s-1.29,1-1.29,1.56a4.42,4.42,0,0,0,.2,1.2l-5.76.24s-.4,17.06-.2,18.38.7,4.56.7,4.56a2.46,2.46,0,0,0-2.38.66c-1.09,1.08-4.92,2.94-5,3.78s-.45,1.56,0,2.16,1.79,2.23,1.39,2.16c-1.33-.23-1.83-2.12-2.73-2.82s-2.63-.54-2.83.18a5.13,5.13,0,0,0,0,2.16c.1.24,1.19,4.08,1.49,4.92s3.43,2.1,4.82,2a7.65,7.65,0,0,0,3.92-1c.1.12,5.67,5.86,17.09,5.89,8.89,0,15.6-5.77,15.6-5.65s3.68,1.2,5,.84,3.18-1.2,3.58-2A47.81,47.81,0,0,0,176,66.86C176.07,66.14,176,65.3,175.08,65.06Zm-.46,2.48c-.11.44-1.3,4.41-1.3,4.41a1.8,1.8,0,0,0,0-.21.66.66,0,0,1-.1.16c-.57.61-1,1.93-4.19,2a6.94,6.94,0,0,1-3.61-1.11,26,26,0,0,1-16.85,6.13,22.69,22.69,0,0,1-15.41-6.32,13.17,13.17,0,0,1-4.45,1.31A5.18,5.18,0,0,1,125,72.44l0,0a.37.37,0,0,1,0,.09c0,.05,0,0-.08-.16a2,2,0,0,1-.34-1.12c-.31-1.06-.73-2.49-1-3.19-.48-1.25-.5-2.07.3-2.38S125,65,126,66.89c.21.4.4.82.59,1.24a8.52,8.52,0,0,0,2.19,1,1.6,1.6,0,0,0,1.07-.2,17.28,17.28,0,0,1-2.56-4.33c-.16-.94,3.84-3.12,4-3.12a.27.27,0,0,1,.07.12c.51-.51,1.29-1.68,2.35-1.73a2.84,2.84,0,0,1,1.48.43l-.18-.46H135a14.27,14.27,0,0,1-.68-3.75h0V37.3h23.15a4.72,4.72,0,0,1-1-1.12,5.13,5.13,0,0,1-.09-1.71,1,1,0,0,0-.2-.33,8.3,8.3,0,0,1-.6-1.54,20.65,20.65,0,0,1-2.77.54l.38,1.39c.46,1.66,1,2,1,2a10.46,10.46,0,0,0-1.23,0,4.84,4.84,0,0,1-2.43-.72,10.89,10.89,0,0,1-1.48-2.64,10.28,10.28,0,0,1-1.37-.27,14.09,14.09,0,0,1-1.45.58c.07.24.18.54.32.93A3.52,3.52,0,0,0,147.86,36c.07,0-.63.55-2.36.64-1.44.07-2.46-2.06-2.78-2.85a2.64,2.64,0,0,1-2-2.16c0-.55.6-1.23.67-1.49a1.25,1.25,0,0,0,0-.48l-.12.05s-.21-.72-.77-.76-1.58.08-1.93-.25-.46-1.15-.63-1.1a3.46,3.46,0,0,1-.67,0,.89.89,0,0,1,.28-1c.49-.34.91,0,1.2-.3a2.07,2.07,0,0,1,1.26-.47c.56,0,1.47.85,1.9,1.06s1.33.47,1.69.25l.57-.29a1.35,1.35,0,0,1,.54-.49l.06,0c-.43-.37-1.2-1.13-1.49-1.35l-2.06-1.5s-.08,0-.08-.06l.08.06c.32.14,1.53.4,2.3.66a6.16,6.16,0,0,1,1.62,1.05,4.79,4.79,0,0,0-.53-.63A21.49,21.49,0,0,0,140.94,22a30.75,30.75,0,0,1,4,1.13,28.55,28.55,0,0,0-3.47-3.29,17.86,17.86,0,0,1,3.63,1.68l.29.24c-.46-1-1.24-2.49-1.24-2.49a16.28,16.28,0,0,1,2.48,2.22,9,9,0,0,1,.92,1.43c-.11-.43-.24-.89-.37-1.31A19.37,19.37,0,0,0,144.81,18a18.38,18.38,0,0,1,2.34,1.74A6,6,0,0,1,148,20.8l.93-.44s-1.28-.52-1.62-.58c0,0-.07,0-.07,0h.07c.29,0,1.46-.28,1.83-.35s.35-2,.35-2a15,15,0,0,0,.35,1.7c.07,0,1.2-1.7,1.34-1.78s-.14,1.27-.14,1.27l1.62-.93S151,19.94,150.85,20a11.79,11.79,0,0,1,1.69-1c.21,0-.77,1.11-.77,1.11l0,0c.81-1,1.75-2.07,2-2.37,0-.05,0-.09,0-.09s0,0,0,.09c-.13.35-.5,1.7-.64,2.21a9.4,9.4,0,0,1,.68-.65,4.1,4.1,0,0,1,1.94-.9l0-.06s0,0,0,.06c-.25.31-1.76,2.26-2.09,2.82-.13.22-.35.72-.58,1.26.6-.57,1.25-1.16,1.82-1.62a28.22,28.22,0,0,1,3.8-2.19l.07-.09s0,0-.07.09c-.53.63-3.2,3.27-4,4.24-.38.48-.86,1.14-1.27,1.7a25.52,25.52,0,0,1,2.71-2.18,24.2,24.2,0,0,1,3.33-1.74c-.09.05-2.4,2.33-3.6,3.53,1.62-.32,3.75-.59,3.75-.59a15.74,15.74,0,0,1-3,1.68,6.67,6.67,0,0,0-2.1,1.65,4.77,4.77,0,0,1,1.5.38,5.88,5.88,0,0,1,1.88,1.58.36.36,0,0,1-.08.12c.54.32,1.3.67,1.3.67l-.12.13h0a3.85,3.85,0,0,0,1.33-.25,11.76,11.76,0,0,1-1.47,1.4.84.84,0,0,1-.9-.05l-.39.39a27.13,27.13,0,0,1,1.68,2.34,2.6,2.6,0,0,1,.14,1.74h0a5.77,5.77,0,0,1,0,.77A1.45,1.45,0,0,1,159,37.3h5.35V56h0a14.1,14.1,0,0,1-.67,3.69h.06l-.06.15a2,2,0,0,1,.55-.07,3.32,3.32,0,0,1,2.12.93,3.45,3.45,0,0,0-.25-.26s4.48,2.34,5.12,4.37c.2.62-.49,2.18-2,4.05a3.36,3.36,0,0,0,3.1-1.86c.58-1.06,1.18-1.89,1.65-1.83C175.12,65.39,174.73,67.1,174.61,67.54Z"/><path class="ky_cls-2" d="M164.25,65.17a.57.57,0,0,0-.58.36,11.61,11.61,0,0,0,1.06,1.32c.18-.25.35-.49.51-.73C165.07,65.76,164.76,65.25,164.25,65.17Z"/><path class="ky_cls-2" d="M149.45,21.21l-.05,0,.12,0S149.46,21.21,149.45,21.21Z"/><path class="ky_cls-2" d="M151.06,20.79s0,.06.09.15l.11-.13Z"/><path class="ky_cls-2" d="M133.56,65.06c-.39.1-.54,1-.62,1.65l.27.31a8.37,8.37,0,0,0,1.16-1.41C134.13,65.26,133.84,65,133.56,65.06Z"/><path class="ky_cls-4" d="M145.69,26a7.27,7.27,0,0,0-.5-.84,6.16,6.16,0,0,0-1.62-1.05c-.77-.26-2-.52-2.3-.66l2.06,1.5c.29.22,1.06,1,1.49,1.35a2.53,2.53,0,0,1,.8-.24Z"/><path class="ky_cls-4" d="M141.26,23.46l-.08-.06S141.22,23.44,141.26,23.46Z"/><path class="ky_cls-4" d="M145.72,26.06l.5,0,.28-.06a19.26,19.26,0,0,0-1.58-2.81h0a30.75,30.75,0,0,0-4-1.13,21.49,21.49,0,0,1,3.73,2.52,4.79,4.79,0,0,1,.53.63,7.27,7.27,0,0,1,.5.84Z"/><path class="ky_cls-4" d="M153.12,20c.14-.51.51-1.85.64-2.21-.2.3-1.15,1.41-2,2.37l.75.43Z"/><path class="ky_cls-4" d="M151.26,20.81l-.11.13.08.1a.75.75,0,0,1,.14.17l.31.38.58-.68Z"/><path class="ky_cls-4" d="M151.52,21.78l0-.05-.08,0a.91.91,0,0,1,0,.11Z"/><path class="ky_cls-4" d="M153.76,17.76c0-.05.05-.09,0-.09S153.78,17.71,153.76,17.76Z"/><path class="ky_cls-4" d="M149.09,25.83l0,0h0Z"/><path class="ky_cls-4" d="M148,25.66a.76.76,0,0,1-.15.23l.38,0A.78.78,0,0,1,148,25.66Z"/><path class="ky_cls-4" d="M146.5,26l.17,0,.53,0a.73.73,0,0,1-.23-.37h-.31s-.74-2.16-1-3a7.32,7.32,0,0,0-.3-.76l-.29-.24a17.86,17.86,0,0,0-3.63-1.68,28.55,28.55,0,0,1,3.47,3.29h0A19.26,19.26,0,0,1,146.5,26Z"/><path class="ky_cls-4" d="M146.65,25.54H147a.88.88,0,0,1,0-.25.81.81,0,0,1,.28-.63,1.07,1.07,0,0,1-.14-.52h0a.84.84,0,0,1,.55-.86l-.08-.33a9,9,0,0,0-.92-1.43,16.28,16.28,0,0,0-2.48-2.22s.78,1.44,1.24,2.49a7.32,7.32,0,0,1,.3.76C145.91,23.38,146.65,25.54,146.65,25.54Z"/><path class="ky_cls-4" d="M148.37,24.28v.05l.12,0Z"/><path class="ky_cls-4" d="M147.73,23.25a.44.44,0,0,1,.11,0,1,1,0,0,1,.76-.94.68.68,0,0,1-.15-.21,1,1,0,0,1-.34.18c-.2,0,0-.32.32-.69-.12-.22-.24-.43-.37-.63-.33.06-.63.11-.73.14s.22-.13.62-.33a6,6,0,0,0-.81-1.09A18.38,18.38,0,0,0,144.81,18a19.37,19.37,0,0,1,2.34,3.66c.14.42.26.88.38,1.31l.08.33A.51.51,0,0,1,147.73,23.25Z"/><path class="ky_cls-4" d="M153.56,26.7a1.51,1.51,0,0,1-.43,0l-.19,0,.29.12c.19,0,.73.06,1.32.14a6.67,6.67,0,0,1,2.1-1.65,15.74,15.74,0,0,0,3-1.68s-2.13.27-3.75.59l-.43.43C154.55,25.62,153.66,26.64,153.56,26.7Z"/><path class="ky_cls-4" d="M151.91,26.13l0,0,0,0Z"/><path class="ky_cls-4" d="M153.87,25.59a1.12,1.12,0,0,1-.75,1.08,1.51,1.51,0,0,0,.43,0c.1-.06,1-1.08,1.94-2l.43-.43c1.2-1.2,3.51-3.48,3.6-3.53a24.2,24.2,0,0,0-3.33,1.74,25.52,25.52,0,0,0-2.71,2.18l0,.06A1.16,1.16,0,0,1,153.87,25.59Z"/><path class="ky_cls-4" d="M153.31,24.06a1.07,1.07,0,0,1-.11.47,1,1,0,0,1,.24.16l0-.06c.41-.56.9-1.22,1.27-1.7.75-1,3.42-3.61,4-4.24a28.22,28.22,0,0,0-3.8,2.19c-.57.46-1.22,1-1.82,1.62l-.28.66A1.05,1.05,0,0,1,153.31,24.06Z"/><path class="ky_cls-4" d="M158.77,18.6l-.07.09C158.77,18.64,158.79,18.61,158.77,18.6Z"/><path class="ky_cls-4" d="M155.79,18.35l0,.06S155.8,18.38,155.79,18.35Z"/><path class="ky_cls-4" d="M151.45,21.87a.78.78,0,0,1-.08.19.82.82,0,0,1,.25.2A.61.61,0,0,1,152,22l-.45-.27,0,.05Z"/><path class="ky_cls-4" d="M153.24,21a4.07,4.07,0,0,1-1-.05l-.58.68c.14.17.28.32.37.4l.08,0a.66.66,0,0,1,.63.68.71.71,0,0,1-.14.41l.19.09.28-.66c.23-.54.45-1,.58-1.26.32-.56,1.84-2.51,2.09-2.82a4.1,4.1,0,0,0-1.94.9,9.4,9.4,0,0,0-.68.65l-.56.6Z"/><path class="ky_cls-4" d="M150.68,22.16a.66.66,0,0,1,.42-.18.62.62,0,0,1,.27.08.78.78,0,0,0,.08-.19.6.6,0,0,0,0-.08.91.91,0,0,0,0-.11c-.44-.26-.94-.55-1-.55a4.08,4.08,0,0,0,0,.87A.77.77,0,0,1,150.68,22.16Z"/><path class="ky_cls-4" d="M151.23,21l.14.17A.75.75,0,0,0,151.23,21Z"/><path class="ky_cls-4" d="M151.62,22.26a1.48,1.48,0,0,1,.33.81.82.82,0,0,1,.67,0,.71.71,0,0,0,.14-.41.66.66,0,0,0-.63-.68L152,22l.08.07L152,22A.61.61,0,0,0,151.62,22.26Z"/><path class="ky_cls-4" d="M149.24,22.54v0a.69.69,0,0,1,.65-.61c-.15-.26-.29-.5-.37-.62l-.12,0a11.16,11.16,0,0,1-.94.88.68.68,0,0,0,.15.21l.11,0A.79.79,0,0,1,149.24,22.54Z"/><path class="ky_cls-4" d="M151,23.93a.83.83,0,0,1-.25.56h0a.88.88,0,0,1,.55-.29,1,1,0,0,1,0-.15,1.05,1.05,0,0,1,.67-1,1.48,1.48,0,0,0-.33-.81.82.82,0,0,0-.25-.2.62.62,0,0,0-.27-.08.66.66,0,0,0-.42.18.55.55,0,0,1,.17.37.65.65,0,0,1-.48.58A.93.93,0,0,1,151,23.93Z"/><path class="ky_cls-4" d="M148.39,24.14h0a1,1,0,0,1,0,.13l.12,0a.75.75,0,0,1,.15,0,.78.78,0,0,1,.21,0,.78.78,0,0,1-.11-.38,1,1,0,0,1,.79-.88s0,0,0,0a.59.59,0,0,1-.29-.47.79.79,0,0,0-.53-.23l-.11,0a1,1,0,0,0-.76.94A.84.84,0,0,1,148.39,24.14Z"/><path class="ky_cls-4" d="M147.93,24.74a.81.81,0,0,1,.44-.41v-.05a1,1,0,0,0,0-.13h0a.84.84,0,0,0-.55-.86.44.44,0,0,0-.11,0,.51.51,0,0,0-.12,0,.84.84,0,0,0-.55.86h0a1.07,1.07,0,0,0,.14.52.5.5,0,0,1,.32-.13A.54.54,0,0,1,147.93,24.74Z"/><path class="ky_cls-4" d="M152.29,23a1,1,0,0,0-.35.07,1.05,1.05,0,0,0-.67,1,1,1,0,0,0,0,.15l.11,0a.89.89,0,0,1,.78.5,1,1,0,0,1,.62-.25,1,1,0,0,1,.38.08,1.07,1.07,0,0,0,.11-.47,1.05,1.05,0,0,0-.51-.9l-.19-.09A1,1,0,0,0,152.29,23Z"/><path class="ky_cls-4" d="M149.24,22.53v0a.59.59,0,0,0,.29.47l.06,0a1.3,1.3,0,0,1,.28,0,1.25,1.25,0,0,1,.5.11.65.65,0,0,0,.48-.58.55.55,0,0,0-.17-.37.77.77,0,0,0-.22-.16,3.42,3.42,0,0,1,0,.74s-.3-.4-.54-.82A.69.69,0,0,0,149.24,22.53Z"/><path class="ky_cls-4" d="M150.74,24.49a.83.83,0,0,0,.25-.56.93.93,0,0,0-.62-.82,1.25,1.25,0,0,0-.5-.11,1.3,1.3,0,0,0-.28,0h-.05a1,1,0,0,0-.79.88.78.78,0,0,0,.11.38.8.8,0,0,1,.51.44h0a.8.8,0,0,1,.63-.32.78.78,0,0,1,.53.22A1,1,0,0,0,150.74,24.49Z"/><path class="ky_cls-4" d="M153.13,26.67a1.12,1.12,0,0,0,.75-1.08,1.16,1.16,0,0,0-.44-.91,1,1,0,0,0-.24-.16,1,1,0,0,0-.38-.08,1,1,0,0,0-.62.25,1,1,0,0,1,.13.48,1,1,0,0,1-.48.85.85.85,0,0,0,0,.1l0,0a1.55,1.55,0,0,1,.77.46l.17.07.09,0h0Z"/><path class="ky_cls-4" d="M148,25.66a.82.82,0,0,1-.1-.92.54.54,0,0,0-.41-.21.5.5,0,0,0-.32.13.81.81,0,0,0-.28.63.88.88,0,0,0,0,.25.73.73,0,0,0,.23.37l.53,0h.15A.76.76,0,0,0,148,25.66Z"/><path class="ky_cls-4" d="M151.42,24.18l-.11,0a.88.88,0,0,0-.55.29,1,1,0,0,0-.14.22,1,1,0,0,1,.13,1.09l0,0c.19,0,.4.07.63.13l.34.1.11-.06a1,1,0,0,0,.48-.85,1,1,0,0,0-.13-.48A.89.89,0,0,0,151.42,24.18Z"/><path class="ky_cls-4" d="M148.85,24.31a.78.78,0,0,0-.21,0,.75.75,0,0,0-.15,0l-.12,0a.81.81,0,0,0-.44.41.82.82,0,0,0,.1.92.78.78,0,0,0,.23.19,5.36,5.36,0,0,1,.81,0h0a.85.85,0,0,0,.15-.12,1,1,0,0,1,.15-.92l0,0A.8.8,0,0,0,148.85,24.31Z"/><path class="ky_cls-4" d="M150.73,25.83v0a1,1,0,0,0-.13-1.09l-.07-.06a.78.78,0,0,0-.53-.22.8.8,0,0,0-.63.32h0a1,1,0,0,0-.15.92.91.91,0,0,0,.1.2h.07l.18,0a.31.31,0,0,1,0-.11A3.63,3.63,0,0,1,150.73,25.83Z"/><path class="ky_cls-4" d="M147.27,19.78h-.07S147.22,19.78,147.27,19.78Z"/><path class="ky_cls-4" d="M147.34,21.13c.1,0,.4-.08.73-.14.58-.1,1.26-.2,1.17-.2a4,4,0,0,0-.8.84c-.3.38-.53.73-.32.69a1,1,0,0,0,.34-.18,11.16,11.16,0,0,0,.94-.88l.05,0s0,0,.07.08.22.37.37.62c.25.42.51.87.54.82a3.42,3.42,0,0,0,0-.74,4.08,4.08,0,0,1,0-.87s.54.29,1,.55l.08,0L152,22l.1.06L152,22c-.09-.08-.22-.23-.37-.4l-.31-.38-.14-.17-.08-.1c-.06-.09-.1-.15-.09-.15l.19,0,1,.1a4.07,4.07,0,0,0,1,.05l-.68-.39-.75-.43,0,0s1-1.11.77-1.11a11.79,11.79,0,0,0-1.69,1c.14-.08,1.76-2.29,1.76-2.29l-1.62.93s.28-1.36.14-1.27-1.26,1.78-1.34,1.78a15,15,0,0,1-.35-1.7s.07,1.87-.35,2-1.54.34-1.83.35c.34.07,1.62.58,1.62.58l-.93.44C147.56,21,147.2,21.17,147.34,21.13Z"/><path class="ky_cls-5" d="M142.72,33.79c.31.79,1.33,2.93,2.78,2.85,1.72-.08,2.42-.59,2.36-.64a3.52,3.52,0,0,1-1.23-1.66c-.15-.39-.25-.69-.32-.93a8.29,8.29,0,0,1-2.7.5A3.38,3.38,0,0,1,142.72,33.79Z"/><path class="ky_cls-5" d="M150.49,33.25c-.48,0-.94-.08-1.37-.13a10.89,10.89,0,0,0,1.48,2.64,4.84,4.84,0,0,0,2.43.72,10.46,10.46,0,0,1,1.23,0s-.56-.3-1-2l-.38-1.39A12.8,12.8,0,0,1,150.49,33.25Z"/><path class="ky_cls-5" d="M159.49,36.17a5.77,5.77,0,0,0,0-.77l-2.95-.76s0-.08-.09-.18a5.13,5.13,0,0,0,.09,1.71,4.72,4.72,0,0,0,1,1.12H159A1.45,1.45,0,0,0,159.49,36.17Z"/><path class="ky_cls-6" d="M143,30a5.18,5.18,0,0,1,0-1l-1.53.67a1.25,1.25,0,0,1,0,.48c-.07.25-.67.93-.67,1.49a2.64,2.64,0,0,0,2,2.16,3.38,3.38,0,0,0,.88.14,8.29,8.29,0,0,0,2.7-.5,14.09,14.09,0,0,0,1.45-.58,6.85,6.85,0,0,1-1.83-.79C144.55,31.21,143.08,30.4,143,30Z"/><path class="ky_cls-6" d="M159.45,35.41h0a2.6,2.6,0,0,0-.14-1.74,27.13,27.13,0,0,0-1.68-2.34,5.44,5.44,0,0,1-1.38,1.07,6.53,6.53,0,0,1-.63.2,8.3,8.3,0,0,0,.6,1.54,1,1,0,0,1,.2.33c0,.1.07.18.09.18Z"/><path class="ky_cls-6" d="M158,30.94a.84.84,0,0,0,.9.05,11.76,11.76,0,0,0,1.47-1.4,3.85,3.85,0,0,1-1.33.25h0C158.84,30.06,158.47,30.48,158,30.94Z"/><path class="ky_cls-6" d="M157.63,31.33l.39-.39c.44-.46.82-.88,1-1.09l.12-.13s-.76-.36-1.3-.67c-.23.25-.9.71-1.09.66s-.54-.77-1.3-1.38a23.73,23.73,0,0,0-2.25-1.49l-.26-.13-.09,0-.17-.07,0,0c.1.18-.24.95-.35,1.13a3.9,3.9,0,0,1-1.68.29,7.23,7.23,0,0,1-1.09-1.19,2.52,2.52,0,0,1,0-.94l-.18,0h-.26a1.92,1.92,0,0,1,0,.78c-.06.31-1.14.95-1.38,1a1.7,1.7,0,0,1-1-.72c-.06-.22.48-1,.56-1a3.75,3.75,0,0,0,.47,0l-.53,0-.53,0-.17,0-.28.06c.29,0,.5,0,.5,0a1.19,1.19,0,0,0-.37.68,2.05,2.05,0,0,0,0,.5,2.15,2.15,0,0,0-1.21-.11,5,5,0,0,1-1.14.29,4,4,0,0,1,.19-.56l-.57.29c-.35.21-1.27,0-1.69-.25s-1.34-1.1-1.9-1.06a2.07,2.07,0,0,0-1.26.47c-.28.25-.7,0-1.2.3a.89.89,0,0,0-.28,1,3.46,3.46,0,0,0,.67,0c.17,0,.28.76.63,1.1s1.37.21,1.93.25.77.76.77.76l.12-.05L143,29a5.18,5.18,0,0,0,0,1c.07.42,1.54,1.23,2.92,2.08a6.85,6.85,0,0,0,1.83.79,10.28,10.28,0,0,0,1.37.27c.44.06.89.1,1.37.13a12.8,12.8,0,0,0,2.36-.11,20.65,20.65,0,0,0,2.77-.54,6.53,6.53,0,0,0,.63-.2A5.44,5.44,0,0,0,157.63,31.33Zm-18-3.81v0c0,.09-.26,0-.4,0a.65.65,0,0,1-.4-.28c-.07-.08.28-.25.35-.3a2.31,2.31,0,0,1,1.16.25A2.78,2.78,0,0,1,139.6,27.51Zm8.4.5c.17-.11.79-.59,1.17-.54s.86.59,1,.81a10.83,10.83,0,0,1-.26,3.39c-.19.2-1.91-.35-2.05-.51A7.6,7.6,0,0,1,148,28Zm-3.9,0a7.86,7.86,0,0,1,1.84-.24,3.15,3.15,0,0,1,1.5.24,6.05,6.05,0,0,1-.19,2.81c-.21,0-.62-.44-1.34-.81s-1.49-.78-1.8-.9S143.81,28.24,144.1,28Zm9.79,3.12c-.11.32-3,.8-3.25.66a7.23,7.23,0,0,1,.37-3.14,2.38,2.38,0,0,1,1.3-.34C152.69,28.27,154,30.78,153.89,31.09Zm.66-.24a13.23,13.23,0,0,1-1.68-3.39A5.91,5.91,0,0,1,155,28.57c1.06.71,1.5,1.19,1.53,1.43S154.83,31,154.55,30.85Z"/><path class="ky_cls-6" d="M138.79,27.26a.65.65,0,0,0,.4.28l-.09,0V27a1.13,1.13,0,0,0,.42.08c.1,0,.08.25.07.39a2.78,2.78,0,0,0,.7-.3,2.31,2.31,0,0,0-1.16-.25C139.07,27,138.72,27.17,138.79,27.26Z"/><path class="ky_cls-7" d="M139.53,27.13a1.13,1.13,0,0,1-.42-.08v.47l.09,0c.14,0,.4.11.4,0v0C139.6,27.38,139.63,27.13,139.53,27.13Z"/><path class="ky_cls-8" d="M145.17,27.11a2.15,2.15,0,0,1,1.21.11,2.05,2.05,0,0,1,0-.5,1.19,1.19,0,0,1,.37-.68s-.21,0-.5,0l-.5,0-.11,0a2.53,2.53,0,0,0-.8.24l-.06,0a1.35,1.35,0,0,0-.54.49,4,4,0,0,0-.19.56A5,5,0,0,0,145.17,27.11Z"/><path class="ky_cls-8" d="M149.09,25.83h0a5.36,5.36,0,0,0-.81,0l-.38,0h-.15a3.75,3.75,0,0,1-.47,0c-.07,0-.62.78-.56,1a1.7,1.7,0,0,0,1,.72c.24,0,1.32-.68,1.38-1a1.92,1.92,0,0,0,0-.78.23.23,0,0,0,0,0Z"/><path class="ky_cls-8" d="M151.91,26.13h0l-.15,0-.34-.1c-.24-.06-.45-.1-.63-.13h0a3.63,3.63,0,0,0-1.1,0,.31.31,0,0,0,0,.11,2.52,2.52,0,0,0,0,.94A7.23,7.23,0,0,0,150.68,28a3.9,3.9,0,0,0,1.68-.29c.11-.18.45-.95.35-1.13l0,0A1.55,1.55,0,0,0,151.91,26.13Z"/><path class="ky_cls-8" d="M153.14,26.81l0,0a23.73,23.73,0,0,1,2.25,1.49c.77.62,1.08,1.32,1.3,1.38s.86-.41,1.09-.66a.36.36,0,0,0,.08-.12A5.88,5.88,0,0,0,156,27.35a4.77,4.77,0,0,0-1.5-.38c-.59-.08-1.13-.12-1.32-.14Z"/><path class="ky_cls-8" d="M156.52,30c0-.24-.47-.72-1.53-1.43a5.91,5.91,0,0,0-2.12-1.11,13.23,13.23,0,0,0,1.68,3.39C154.83,31,156.55,30.24,156.52,30Z"/><path class="ky_cls-8" d="M152.31,28.27a2.38,2.38,0,0,0-1.3.34,7.23,7.23,0,0,0-.37,3.14c.24.14,3.14-.34,3.25-.66S152.69,28.27,152.31,28.27Z"/><path class="ky_cls-8" d="M149.94,31.68a10.83,10.83,0,0,0,.26-3.39c-.18-.22-.66-.77-1-.81s-1,.43-1.17.54a7.6,7.6,0,0,0-.11,3.15C148,31.33,149.75,31.87,149.94,31.68Z"/><path class="ky_cls-8" d="M145.91,30c.72.37,1.13.83,1.34.81a6.05,6.05,0,0,0,.19-2.81,3.15,3.15,0,0,0-1.5-.24,7.86,7.86,0,0,0-1.84.24c-.29.27-.3,1,0,1.1S145.19,29.59,145.91,30Z"/><path class="ky_cls-9" d="M130.94,63.46a8.75,8.75,0,0,0,2,3.25c.08-.68.22-1.55.62-1.65s.57.21.82.55a16.42,16.42,0,0,0,1.11-2,7.75,7.75,0,0,0,.47-1.36l-.8-2a2.84,2.84,0,0,0-1.48-.43c-1.06.05-1.84,1.22-2.35,1.73C131.44,61.89,130.94,62.49,130.94,63.46Z"/><path class="ky_cls-9" d="M163.67,65.53a.57.57,0,0,1,.58-.36c.5.08.82.59,1,1A11.48,11.48,0,0,0,167,62.68a2.5,2.5,0,0,0-.71-1.93,3.32,3.32,0,0,0-2.12-.93,2,2,0,0,0-.55.07l-1.3,3.21A15.37,15.37,0,0,0,163.67,65.53Z"/><path class="ky_cls-10" d="M172.58,70.79c-.79-.22-2.1.39-2.27.28.21-.17,1.07-2.36,2-4a3.36,3.36,0,0,1-3.1,1.86,25.08,25.08,0,0,1-3.78,3.85A6.94,6.94,0,0,0,169,73.88c3.17-.05,3.62-1.38,4.19-2a.66.66,0,0,0,.1-.16A1,1,0,0,0,172.58,70.79Z"/><path class="ky_cls-10" d="M162.29,63.1l-.18.44a2.27,2.27,0,0,0-.29.06,22.39,22.39,0,0,1-2.16,2.95,16,16,0,0,0,2.24,3.39,19.72,19.72,0,0,0,2.83-3.08,11.61,11.61,0,0,1-1.06-1.32A15.37,15.37,0,0,1,162.29,63.1Z"/><path class="ky_cls-10" d="M129.82,68.88a1.6,1.6,0,0,1-1.07.2,8.52,8.52,0,0,1-2.19-1c.68,1.53,1.18,3,1.18,3a4.61,4.61,0,0,0-2.56-.31c-.41.11-.54.33-.54.58l.21.72a2.6,2.6,0,0,1,.14.34l0,0a5.18,5.18,0,0,0,3.68,1.43,13.17,13.17,0,0,0,4.45-1.31A28.3,28.3,0,0,1,129.82,68.88Z"/><path class="ky_cls-10" d="M124.63,71.36l0-.14a2,2,0,0,0,.34,1.12l-.08-.26A1.73,1.73,0,0,1,124.63,71.36Z"/><path class="ky_cls-10" d="M136.82,63.62a2,2,0,0,0-.35-.08L136,62.27a7.75,7.75,0,0,1-.47,1.36,16.42,16.42,0,0,1-1.11,2A8.37,8.37,0,0,1,133.22,67,21.44,21.44,0,0,0,136.42,70a19.42,19.42,0,0,0,2.17-3.84A21.93,21.93,0,0,1,136.82,63.62Z"/><path class="ky_cls-10" d="M157.33,74.11A.24.24,0,0,0,157,74a.28.28,0,0,0-.2.25,3,3,0,0,0,.17.83,2.79,2.79,0,0,0,.29.78.25.25,0,0,0,.3.08.27.27,0,0,0,.2-.25,5.11,5.11,0,0,0-.46-1.61Z"/><path class="ky_cls-10" d="M145.11,75.08l-.19-.05-.19,0-.27,1.88.2,0a.67.67,0,0,0,.21,0,.19.19,0,0,0,.11-.07.78.78,0,0,0,.13-.27,4.41,4.41,0,0,0,.11-.58,3.62,3.62,0,0,0,0-.57.59.59,0,0,0-.07-.29A.22.22,0,0,0,145.11,75.08Z"/><polygon class="ky_cls-10" points="168.11 66.84 167.16 66.39 167.9 67.2 168.11 66.84"/><path class="ky_cls-10" d="M139.89,73.49a.24.24,0,0,0-.29.06,2.74,2.74,0,0,0-.34.76,2.86,2.86,0,0,0-.2.81.29.29,0,0,0,.19.26.23.23,0,0,0,.29-.06,2.83,2.83,0,0,0,.34-.76,3,3,0,0,0,.2-.82A.28.28,0,0,0,139.89,73.49Z"/><path class="ky_cls-10" d="M155.7,74.59a.38.38,0,0,0-.31,0l-.19.05.17.78.18,0a.41.41,0,0,0,.27-.17.46.46,0,0,0,0-.33A.43.43,0,0,0,155.7,74.59Z"/><path class="ky_cls-10" d="M148.45,75.48a.2.2,0,0,0-.1-.07l-.19,0H148l-.06,1.91h.2a.66.66,0,0,0,.22,0,.19.19,0,0,0,.1-.08.8.8,0,0,0,.1-.28,4.48,4.48,0,0,0,0-.59,3.67,3.67,0,0,0,0-.57A.56.56,0,0,0,148.45,75.48Z"/><path class="ky_cls-10" d="M169.18,68.91c1.46-1.87,2.15-3.44,2-4.05-.64-2-5.12-4.37-5.12-4.37a3.45,3.45,0,0,1,.25.26,2.5,2.5,0,0,1,.71,1.93,11.48,11.48,0,0,1-1.72,3.45c-.16.24-.33.48-.51.73a19.72,19.72,0,0,1-2.83,3.08,17.84,17.84,0,0,1-12.55,4.44A22.16,22.16,0,0,1,136.42,70,21.44,21.44,0,0,1,133.22,67l-.27-.31a8.75,8.75,0,0,1-2-3.25c0-1,.5-1.57.39-1.91a.27.27,0,0,0-.07-.12c-.16,0-4.16,2.18-4,3.12a17.28,17.28,0,0,0,2.56,4.33,28.3,28.3,0,0,0,3.33,3.69,22.69,22.69,0,0,0,15.41,6.32,26,26,0,0,0,16.85-6.13A25.08,25.08,0,0,0,169.18,68.91Zm-40.33-2.59,1-.56-.28-.61-1,.55-.2-.44L130.54,64l.2.45-.85.48.28.61.85-.48.2.45-2.17,1.22Zm2.45-.66.69,1.15-.33.25-.44-.74-.47.35.41.69-.32.24-.41-.69-.56.41.45.76-.34.25-.7-1.17Zm.11,4.54.81-.83-.42-.51-.81.83-.3-.37,1.79-1.83.3.37-.7.72.42.51.7-.72.3.37-1.78,1.83Zm1.31.47-.49.42-.35-.34,2-1.63.46.45L133.17,72l-.37-.36.31-.6Zm.92,1.72,1.2-1.82-.42-.34.24-.36,1.21,1-.24.36-.42-.34L134,72.69Zm1.9,1.41.57-1-.53-.36-.57,1-.38-.26,1.27-2.3.38.26-.5.9.53.36.5-.9.38.26-1.27,2.31Zm2.33,0-.45,1.08-.41-.21,1-2.45,1.15.59-.17.4-.74-.38-.24.58.7.36-.16.39Zm2.19,1.56a1.08,1.08,0,0,1-.23.32.61.61,0,0,1-.32.15.81.81,0,0,1-.39-.08.88.88,0,0,1-.34-.23.72.72,0,0,1-.15-.35,1.09,1.09,0,0,1,0-.41,6.52,6.52,0,0,1,.44-1.28,1,1,0,0,1,.23-.32.59.59,0,0,1,.32-.15.82.82,0,0,1,.39.08.88.88,0,0,1,.34.23.77.77,0,0,1,.15.35,1.16,1.16,0,0,1,0,.41,5.1,5.1,0,0,1-.19.65A4.66,4.66,0,0,1,140.05,75.38Zm1.71.82a.55.55,0,0,1-.14.18.58.58,0,0,1-.3.12,1,1,0,0,1-.38-.05.8.8,0,0,1-.51-.38,1.13,1.13,0,0,1,0-.73l.48-1.79.43.14-.47,1.74a.94.94,0,0,0,0,.43.29.29,0,0,0,.21.18.25.25,0,0,0,.26,0,.88.88,0,0,0,.17-.39L142,73.9l.43.14-.48,1.79A2,2,0,0,1,141.77,76.2Zm1.34.8-.25-2-.36,1.85-.42-.1.53-2.64.45.11.25,2,.36-1.85.42.1-.53,2.63Zm2.58-1a6.23,6.23,0,0,1-.15.8,1.28,1.28,0,0,1-.18.38.46.46,0,0,1-.26.19,1.41,1.41,0,0,1-.52,0l-.62-.11.38-2.67.72.13a1.26,1.26,0,0,1,.34.1.52.52,0,0,1,.2.17.84.84,0,0,1,.13.38A3,3,0,0,1,145.69,76Zm1.59-.57-.8-.09-.05.62.74.08,0,.43-.74-.08-.06.74.81.09,0,.45-1.26-.14.23-2.69,1.24.13ZM149,77a1.26,1.26,0,0,1-.14.4.47.47,0,0,1-.24.22,1.43,1.43,0,0,1-.52,0l-.62,0,.09-2.7.73,0a1.16,1.16,0,0,1,.35.06.49.49,0,0,1,.21.14.8.8,0,0,1,.17.36,2.92,2.92,0,0,1,0,.66A6.08,6.08,0,0,1,149,77ZM169,67.28l-.57-.27-.29.48.44.49-.26.43-1.71-2,.34-.56,2.32,1Zm-1.12-3a.66.66,0,0,1,.55.09l0,0,0,0-.2.42-.06,0a.44.44,0,0,0-.28-.08.26.26,0,0,0-.17.17.28.28,0,0,0,0,.2.27.27,0,0,0,.13.15c.09.05.23,0,.43-.1h0l.26-.16a1.08,1.08,0,0,1,.46-.19.7.7,0,0,1,.4.11.72.72,0,0,1,.37.45.93.93,0,0,1-.09.63.63.63,0,0,1-1,.33l-.12-.07h0l.21-.45.14.08a.56.56,0,0,0,.3.1.23.23,0,0,0,.16-.15.35.35,0,0,0,0-.25.31.31,0,0,0-.16-.18.3.3,0,0,0-.19,0,.87.87,0,0,0-.28.12l-.25.15a1.3,1.3,0,0,1-.48.2.61.61,0,0,1-.34-.09.69.69,0,0,1-.34-.42.86.86,0,0,1,.07-.58A.73.73,0,0,1,167.9,64.26ZM150.15,77.7l-.1-2.7.45,0,.1,2.7Zm1.66-.11-.45,0-.17-2.25-.52,0,0-.44,1.49-.14,0,.44-.52,0Zm2.91-.68a.66.66,0,0,1-.22.26,1,1,0,0,1-.37.14.72.72,0,0,1-.61-.08,1.06,1.06,0,0,1-.28-.66L153,74.74l.45-.09.28,1.79a.9.9,0,0,0,.13.41.26.26,0,0,0,.26.06.27.27,0,0,0,.22-.16,1,1,0,0,0,0-.44L154,74.53l.44-.09.29,1.84a2,2,0,0,1,0,.4A.64.64,0,0,1,154.72,76.91Zm1.53-1.54a.68.68,0,0,1-.46.32l-.32.09.24,1.11-.44.12-.58-2.62.76-.21a.64.64,0,0,1,.54,0,.83.83,0,0,1,.28.53A.92.92,0,0,1,156.24,75.37Zm2,.44a.74.74,0,0,1-.17.34.89.89,0,0,1-.35.21.8.8,0,0,1-.39.05.59.59,0,0,1-.31-.17,1,1,0,0,1-.21-.33,5.29,5.29,0,0,1-.22-.64,5,5,0,0,1-.15-.67,1.12,1.12,0,0,1,0-.41.74.74,0,0,1,.17-.33.87.87,0,0,1,.35-.21.8.8,0,0,1,.39-.05.61.61,0,0,1,.31.17,1,1,0,0,1,.21.33,6.2,6.2,0,0,1,.37,1.3A1.09,1.09,0,0,1,158.22,75.81Zm1.54-.36L158.54,74l.65,1.75-.4.18-.9-2.51.43-.19,1.22,1.49-.64-1.75.4-.18.9,2.51Zm1.84-.95-.95-2-.46.27-.19-.39,1.32-.78.19.39-.46.27.95,2Zm2-1.27-.59-1-.52.37.59,1-.38.27-1.3-2.28.38-.27.51.9.53-.37-.51-.89.38-.27L164,73Zm.72-.53-1.46-2.15,1-.84.24.36-.64.54.34.5.59-.5.23.34-.59.5.4.59.65-.55.25.36Zm2.4-2.15a.69.69,0,0,1-.52.27.79.79,0,0,1-.53-.32l-.09-.11h0l.32-.35.11.12a.59.59,0,0,0,.25.2.21.21,0,0,0,.2-.09.35.35,0,0,0,.1-.23.33.33,0,0,0-.1-.23.32.32,0,0,0-.17-.11.86.86,0,0,0-.3,0l-.28.05a1.27,1.27,0,0,1-.51,0,.65.65,0,0,1-.3-.21.73.73,0,0,1-.21-.52.81.81,0,0,1,.23-.53.66.66,0,0,1,.5-.26.71.71,0,0,1,.5.28l0,0,0,0-.3.33,0-.05a.46.46,0,0,0-.24-.17.24.24,0,0,0-.21.1.26.26,0,0,0-.08.19.27.27,0,0,0,.08.19c.07.08.22.1.44.05h0l.3-.06a1.06,1.06,0,0,1,.49,0,.76.76,0,0,1,.35.24A.79.79,0,0,1,167,70,.88.88,0,0,1,166.69,70.54Zm-1.13-2.66.8-1.06.31.29-.51.68.43.4.48-.63.29.28-.48.63.51.48.53-.7.31.29-.81,1.08Z"/><polygon class="ky_cls-10" points="133.83 69.71 133.02 70.42 133.31 70.7 133.83 69.71"/><path class="ky_cls-9" d="M173.93,65.22c-.46-.06-1.07.77-1.65,1.83-.91,1.65-1.77,3.85-2,4,.17.11,1.47-.5,2.27-.28a1,1,0,0,1,.72.94,1.8,1.8,0,0,1,0,.21s1.19-4,1.3-4.41S175.12,65.39,173.93,65.22Z"/><path class="ky_cls-9" d="M124.93,72.34c0,.15.08.22.08.16a.37.37,0,0,0,0-.09,2.6,2.6,0,0,0-.14-.34Z"/><path class="ky_cls-9" d="M124.85,72.08l-.21-.72A1.73,1.73,0,0,0,124.85,72.08Z"/><path class="ky_cls-9" d="M125.17,70.79a4.61,4.61,0,0,1,2.56.31s-.5-1.44-1.18-3c-.18-.42-.38-.84-.59-1.24-1-1.87-1.28-1.56-2.08-1.25s-.78,1.14-.3,2.38c.27.7.69,2.13,1,3.19l0,.14C124.63,71.12,124.76,70.9,125.17,70.79Z"/><path class="ky_cls-2" d="M151.09,68.94l-1.56-1.07-1.82,1.25a2.19,2.19,0,0,0,1.59.66A2.3,2.3,0,0,0,151.09,68.94Z"/><path class="ky_cls-2" d="M145,63.54a2.38,2.38,0,0,0-.44,0l.79,0Z"/><path class="ky_cls-2" d="M155.69,70.26c-.41.3-1,.72-1.67,1.15C154.57,71.06,155.13,70.68,155.69,70.26Z"/><path class="ky_cls-2" d="M161.94,56.08,159.2,58l.94,2.87a2.52,2.52,0,0,1,2-1.11l1.44-.06a14.1,14.1,0,0,0,.67-3.69h-2.11C162.08,56,162,56.07,161.94,56.08Z"/><path class="ky_cls-2" d="M153.59,63.54h0Z"/><path class="ky_cls-2" d="M139.18,61.65a2.18,2.18,0,0,0,1.57.64c1.45,0,1.92-1.15,2.74-1.89l-1.21-.79Z"/><path class="ky_cls-2" d="M138.9,61.37l1-3c-1.35-.54-1.74-2.2-3.4-2.32h-2.11a14.27,14.27,0,0,0,.68,3.75h1.42C137.73,59.79,138.25,60.66,138.9,61.37Z"/><path class="ky_cls-2" d="M140.75,54.79l.35,0,1.16-3.15.69,1.86A2.6,2.6,0,0,1,145,52.29c2.14,0,2.14,2.5,4.28,2.5s2.14-2.5,4.28-2.5c1.25,0,1.78.86,2.42,1.57l.83-2.25L158,54.78c2-.13,2-2.49,4.12-2.49h2.14V48.54l-2.13-.14C160,48.54,160,51,158,51.19c-2.26-.14-2.26-2.64-4.4-2.64s-2.14,2.5-4.28,2.5-2.14-2.5-4.28-2.5-2.14,2.5-4.28,2.5-2.31-2.36-4.28-2.5-2.12.09-2.12.09l0-11.34v15h2.14C138.6,52.29,138.6,54.79,140.75,54.79Z"/><path class="ky_cls-2" d="M143.59,70.74l-.65-.46Z"/><path class="ky_cls-2" d="M155.34,60.6c.7.73,1.21,1.69,2.53,1.69a2.32,2.32,0,0,0,1.8-.87l-2.81-1.81Z"/><path class="ky_cls-2" d="M152.32,67.68a2.13,2.13,0,0,1,1.27-.39c2.1,0,2.74,2.39,2.71,2.49a25.34,25.34,0,0,0,3.35-3.23,22.39,22.39,0,0,0,2.16-2.95c-1.86.32-2,2.3-3.94,2.44-1.68-.11-2-1.43-3-2.1l-3,2.26Z"/><path class="ky_cls-2" d="M144.51,71.36l-.36-.24Z"/><path class="ky_cls-2" d="M142.36,69.81l0,0s.55-2.5,2.69-2.5a2.21,2.21,0,0,1,1.63.69l.54-1.77L144,63.8c-1.16.64-1.51,2.23-3.22,2.23-2,0-2.3-2-3.93-2.42a21.93,21.93,0,0,0,1.78,2.5A25.23,25.23,0,0,0,142.36,69.81Z"/><path class="ky_cls-2" d="M150.43,62c1.12-.66,1.48-2.2,3.16-2.2l.36,0,.57-1.78-2.24-1.58c-1,.71-1.39,2.08-3,2.08s-1.93-1.18-2.77-1.92l-2,1.41.57,1.77c1.74.08,2,1.87,3.4,2.36l1-2.75Z"/><path class="ky_cls-9" d="M136.46,48.54c2,.14,2.14,2.5,4.28,2.5s2.14-2.5,4.28-2.5,2.14,2.5,4.28,2.5,2.14-2.5,4.28-2.5,2.14,2.5,4.4,2.64c2-.14,2-2.64,4.17-2.78l2.13.14V37.3h-30l0,11.34S134.49,48.4,136.46,48.54Zm3.2-9.57a7,7,0,0,1,.7.92,1.8,1.8,0,0,1-.79-.24S139.67,39,139.67,39Zm-2.76,6.87a5.85,5.85,0,0,1,.61.11v-.52l-.85-.59,1.15.32-.12.16h.43l.12.63a28.7,28.7,0,0,0,4,.21,3.28,3.28,0,0,0,2.16-.69,1.25,1.25,0,0,1-.67-.13.83.83,0,0,1-.21-.13c0,.29,0,.53-.07.53s-1.58.32-1.58.11,0-.42-.12-.42l-1.46.11.12-.42-1.21-.21.49-.42s-1.94-.74-1.82-.74a5.54,5.54,0,0,0,.85-.42l-1.46-.85h.85a8.43,8.43,0,0,1-1.09-.85c.12,0,.73.11.73.11l-.37-.84h.37l-.37-.63h0a7.35,7.35,0,0,1-.3-.74s.68.46.82.56l.09,0,.37.53-.12-1.27h.06c0-.06.09-.46.09-.46s.82.55.79.55h-.09v1.06a4.86,4.86,0,0,0,.36-.74c0-.08.65.21.89.25l.08,0s0,.05-.08,0a2.15,2.15,0,0,0-.77,1.75c.12,1,2.19,2.32,2.19,2.32h0a2.56,2.56,0,0,1,0-.82c.06-1,1.12-1.11,1.24-1.16a4.88,4.88,0,0,0,.24-1.27.62.62,0,0,1-.76-.69c0-.87,1.24-.34,1.24-.34s.21-.45.58-.48.85-.48.94-.53.52.82.52.82.49-.32.55-.34,0,.53.18.55.91.16,1,.71-.7.4-.7.4a2.62,2.62,0,0,1-.21.92c-.18.3,0,.38.13.85h10.53c1.21,0,2.31-.42,2.31-1.06s-1.94-.74-2.67-.53-3.89,1.48-5.22,1.37-2.55-.85-2.67-1.58.61-1.37,1.94-1.37,3,.42,3.4.32,1.21-1,1.58-1.06a13.31,13.31,0,0,1,1.46-.21l-.48.32,1.58-.32A6.78,6.78,0,0,1,156,40a24.56,24.56,0,0,1-4.74.21c-1,0-1.46-.11-1.34.53a1.31,1.31,0,0,0,1.46,1c.61-.11,2.43-.63,2.43-.63l-.49-.32,2.19-.11s-.12-.32,0-.32,1.21.11,1.21.11-.73-.32-.61-.32a14.37,14.37,0,0,1,1.58.11c1,.11,3,.42,2.91,1.27a1.82,1.82,0,0,1-1.7,1.58c-.85,0-1.58-.21-1.58.11s1,.53,1.58.53a5.35,5.35,0,0,0,1.46-.42c.12,0,.37.63.49.63a8.65,8.65,0,0,0,.85-.21l-.48,1.16.85.21s-.49.42-.37.42.85,0,.85.11-1,.74-1,.85.73.42.73.42l-.18.22a3.38,3.38,0,0,0,.18.57c.06.08-.2-.13-.43-.33-.07.06-.14.09-.18.06s-.61-.63-.61-.63-.12.42-.36.42h-.13a4.19,4.19,0,0,1-.57.62c-.09,0,0-.44.06-.69l-.1,0s.36-.63.24-.63a5.54,5.54,0,0,0-.63.31l.05,0-1,.08s.36-.23.54-.37l-.06,0s1-.34,1-.84-.4-1-2.16-1.08a5.93,5.93,0,0,0-2.06.23,3.57,3.57,0,0,0,0,.69,1.41,1.41,0,0,0,.43.66,3.79,3.79,0,0,1-.67.11c-.09,0-.18.74-.27.79s-.76-.69-.76-.69a8.55,8.55,0,0,1-.94.63c-.09,0-.09-.5-.09-.5s-.58.63-.61.63a4,4,0,0,1-.21-.55,4.81,4.81,0,0,1-1,.61c-.18,0,.21-.58.21-.58a3.39,3.39,0,0,0-.76.08c-.24.08-.55.55-.64.61s-.08,0-.14,0a3.89,3.89,0,0,1-.71.42c-.13,0,.15-.54.31-.75l.15-.38-.79.05h0l-.94.16s.52-.34.75-.48l-.11-.18,1-.05-.51-.24v0c-.09,0-.73-.29-.7-.29l.85-.19v0a.22.22,0,0,1,.13-.08c.21,0,.88.42.88.42s2.34-.05,2.31-.26-.77-.72-1.12-1a33.2,33.2,0,0,1-4.74.95h-.64c.09.43.24,1.23.06,1.31s-.85.53-1,.53,0-.74-.24-.53a1.5,1.5,0,0,0-.37.53s-.24-.32-.36-.32-.37.32-.37.32,0-.32-.12-.32a3.78,3.78,0,0,0-.73.53l-.61-.42s-.37.53-.49.53a5.53,5.53,0,0,1-.85-.42l-1.21.63s0-1-.24-.84a9.29,9.29,0,0,1-1.58.1s-.37.63-.49.63a.53.53,0,0,1-.22-.15c-.32,0-1.19,0-1.24,0a7.76,7.76,0,0,1,1-.66l.13.21c.1-.1.19-.27.11-.34s-.73,0-.73-.11v0c-.33,0-1.46,0-1.48,0a9.49,9.49,0,0,1,1.24-.63,1.16,1.16,0,0,1,.12.21C136.87,46,136.85,45.84,136.9,45.84Z"/><path class="ky_cls-9" d="M144.4,44.34l.05.16,0-.07Z"/><path class="ky_cls-9" d="M142.3,43.29c0,.11-.13.44-.23.66l.1,0A3.9,3.9,0,0,1,142.3,43.29Z"/><path class="ky_cls-11" d="M139.86,58.36,140,58l-3.46-2.46,4.34-.09.26-.71-.35,0c-2.14,0-2.14-2.5-4.28-2.5h-2.14V56h2.14C138.11,56.16,138.51,57.82,139.86,58.36Z"/><path class="ky_cls-11" d="M158,54.78l.26.69,4.4.07-.76.54c.07,0,.13,0,.21,0h2.14V52.29h-2.14C160.08,52.29,160,54.65,158,54.78Z"/><path class="ky_cls-11" d="M148,55.55l-1.49,1.07c.84.74,1.3,1.92,2.77,1.92s2-1.37,3-2.08L151,55.57l4.4-.09.6-1.62c-.65-.71-1.17-1.57-2.42-1.57-2.14,0-2.14,2.5-4.28,2.5s-2.14-2.5-4.28-2.5a2.6,2.6,0,0,0-2.08,1.18l.74,2Z"/><path class="ky_cls-11" d="M136.46,63.54a2,2,0,0,1,.35.08c1.63.39,1.93,2.42,3.93,2.42,1.71,0,2.06-1.59,3.22-2.23l-.27-.2.89,0a2.38,2.38,0,0,1,.44,0l.35,0,2.71-.06.47-1.34c-1.39-.49-1.67-2.28-3.4-2.36l.7,2.14-2.36-1.54c-.82.74-1.29,1.89-2.74,1.89a2.18,2.18,0,0,1-1.57-.64l-.46.3.18-.58c-.65-.71-1.17-1.59-2.44-1.59H135l.18.46.8,2Z"/><path class="ky_cls-11" d="M160.14,60.9l.34,1-.81-.52a2.32,2.32,0,0,1-1.8.87c-1.32,0-1.83-1-2.53-1.69L153.26,62l.69-2.14-.36,0c-1.68,0-2,1.54-3.16,2.2L151,63.5l2.56,0h.11l1.71,0-.48.36c1,.68,1.32,2,3,2.1,1.92-.14,2.09-2.12,3.94-2.44a2.27,2.27,0,0,1,.29-.06l.18-.44,1.3-3.21.06-.15h-.06l-1.44.06A2.52,2.52,0,0,0,160.14,60.9Z"/><path class="ky_cls-11" d="M153.59,67.29a2.13,2.13,0,0,0-1.27.39l.82,2.66-2-1.4a2.3,2.3,0,0,1-1.78.85,2.19,2.19,0,0,1-1.59-.66l-1.78,1.23.72-2.37a2.21,2.21,0,0,0-1.63-.69c-2.14,0-2.69,2.5-2.69,2.5l0,0c.05.05.26.22.59.46l.65.46.56.38.36.24c1.57,1,3.61,2.18,4.8,2.18s3.15-1.11,4.71-2.12c.67-.44,1.26-.85,1.67-1.15s.63-.48.62-.48h0C156.33,69.68,155.69,67.29,153.59,67.29Z"/><path class="ky_cls-12" d="M137,46.54v0c0,.11.61,0,.73.11s0,.24-.11.34c.12.19.26.43.26.45h-.13a.53.53,0,0,0,.22.15c.12,0,.49-.63.49-.63a9.29,9.29,0,0,0,1.58-.1c.24-.11.24.84.24.84l1.21-.63a5.53,5.53,0,0,0,.85.42c.12,0,.49-.53.49-.53l.61.42a3.78,3.78,0,0,1,.73-.53c.12,0,.12.32.12.32s.24-.32.37-.32.36.32.36.32a1.5,1.5,0,0,1,.37-.53c.24-.21.12.53.24.53s.73-.42,1-.53,0-.88-.06-1.31l-1.89-.08c0,.09-.11.15-.26.17a3.28,3.28,0,0,1-2.16.69,28.7,28.7,0,0,1-4-.21l-.12-.63h-.43l-.12.16-.06,0v.52a5.85,5.85,0,0,0-.61-.11c-.05,0,0,.12,0,.26s.19.41.21.42Z"/><path class="ky_cls-12" d="M140.42,39.93l-.08,0C140.41,40,140.45,40,140.42,39.93Z"/><path class="ky_cls-12" d="M143.25,44.48l-.09.57a2.92,2.92,0,0,1-.82-.37c-.19-.12-.2-.45-.17-.75l-.1,0a.48.48,0,0,1-.12.2c-.06,0-.14,0-.18-.1h0s-2.06-1.37-2.19-2.32a2.15,2.15,0,0,1,.77-1.75c-.24,0-.89-.34-.89-.25a4.86,4.86,0,0,1-.36.74V39.4h0a2.56,2.56,0,0,1-.77-.08v0h-.06l.12,1.27L138,40l-.09,0,0,0-.54.16h0l.37.63h-.37l.37.84s-.61-.11-.73-.11a8.43,8.43,0,0,0,1.09.85h-.85l1.46.85a5.54,5.54,0,0,1-.85.42c-.12,0,1.82.74,1.82.74l-.49.42,1.21.21-.12.42,1.46-.11c.12,0,.12.21.12.42s1.46-.11,1.58-.11.08-.23.07-.53A.86.86,0,0,1,143.25,44.48Z"/><path class="ky_cls-7" d="M159.49,46.79l-.31-.27c-.19.14-.54.37-.54.37l1-.08-.05,0C159.53,46.81,159.49,46.82,159.49,46.79Z"/><path class="ky_cls-7" d="M160,47.82a4.19,4.19,0,0,0,.57-.62,5,5,0,0,1-.51-.08C160,47.39,159.91,47.86,160,47.82Z"/><path class="ky_cls-7" d="M161.85,47.36c.23.2.49.41.43.33a3.38,3.38,0,0,1-.18-.57A2,2,0,0,1,161.85,47.36Z"/><path class="ky_cls-7" d="M148.44,46.74l.94-.16-.19-.32C149,46.4,148.44,46.74,148.44,46.74Z"/><path class="ky_cls-7" d="M150,46.91c-.15.21-.44.78-.31.75a3.89,3.89,0,0,0,.71-.42A3.3,3.3,0,0,1,150,47Z"/><path class="ky_cls-7" d="M149.74,45.37v0l-.85.19s.61.26.7.29v0l0,0A1.05,1.05,0,0,1,149.74,45.37Z"/><polygon class="ky_cls-7" points="137.69 45.31 137.82 45.15 136.66 44.84 137.51 45.43 137.57 45.47 137.69 45.31"/><path class="ky_cls-7" d="M135.54,46.53s1.15,0,1.48,0h.1s-.12-.24-.21-.42a1.16,1.16,0,0,0-.12-.21A9.49,9.49,0,0,0,135.54,46.53Z"/><path class="ky_cls-7" d="M137.65,47l-.13-.21a7.76,7.76,0,0,0-1,.66s.91,0,1.24,0h.13S137.76,47.21,137.65,47Z"/><path class="ky_cls-7" d="M137.91,40.06c-.14-.1-.79-.56-.82-.56a7.35,7.35,0,0,0,.3.74h0l.54-.16Z"/><path class="ky_cls-7" d="M139.07,39.4h.11s-.79-.55-.79-.55-.08.4-.09.46v0A2.56,2.56,0,0,0,139.07,39.4Z"/><path class="ky_cls-7" d="M139.67,39s-.09.66-.09.69a1.8,1.8,0,0,0,.79.24A7,7,0,0,0,139.67,39Z"/><path class="ky_cls-12" d="M152.57,44.36a3.88,3.88,0,0,0-.63.08c.35.28,1.1.84,1.12,1s-2.31.26-2.31.26-.67-.45-.88-.42a.22.22,0,0,0-.13.08,1.05,1.05,0,0,0-.17.39l0,0,.51.24-1,.05.11.18.19.32h0l.79-.05-.15.38,0,.09a3.3,3.3,0,0,0,.43.24c.06,0,.12,0,.14,0s.39-.53.64-.61a3.39,3.39,0,0,1,.76-.08s-.39.58-.21.58a4.81,4.81,0,0,0,1-.61,4,4,0,0,0,.21.55s.61-.63.61-.63,0,.5.09.5a8.55,8.55,0,0,0,.94-.63s.67.74.76.69.18-.79.27-.79a3.79,3.79,0,0,0,.67-.11,1.41,1.41,0,0,1-.43-.66,3.57,3.57,0,0,1,0-.69,3.72,3.72,0,0,1-1,.09C153.54,44.81,153.54,44.36,152.57,44.36Z"/><path class="ky_cls-12" d="M147.19,44c-.12.31-.33.18-.51,0,.12.19.19.42,0,.56s-.48,0-.75-.13l.32.23s.52.42-.21.61a.86.86,0,0,1-1-.29s-.36-.36-.52-.52l0,.07c.07.2.18.52.22.69a.24.24,0,0,1,0,.12l1.89.08h.64a33.2,33.2,0,0,0,4.74-.95,3.88,3.88,0,0,1,.63-.08c1,0,1,.45,2.28.5a3.72,3.72,0,0,0,1-.09,5.93,5.93,0,0,1,2.06-.23c1.76.08,2.16.58,2.16,1.08s-1,.84-1,.84l.06,0,.31.27s0,0,.1,0a5.54,5.54,0,0,1,.63-.31c.12,0-.24.63-.24.63l.1,0a5,5,0,0,0,.51.08h.13c.24,0,.36-.42.36-.42s.49.53.61.63.1,0,.18-.06a2,2,0,0,0,.25-.25l.18-.22s-.73-.32-.73-.42,1-.74,1-.85-.73-.11-.85-.11.37-.42.37-.42l-.85-.21.48-1.16a8.65,8.65,0,0,1-.85.21c-.12,0-.36-.63-.49-.63a5.35,5.35,0,0,1-1.46.42c-.61,0-1.58-.21-1.58-.53s.73-.11,1.58-.11a1.82,1.82,0,0,0,1.7-1.58c.12-.84-1.94-1.16-2.91-1.27a14.37,14.37,0,0,0-1.58-.11c-.12,0,.61.32.61.32s-1.09-.11-1.21-.11,0,.32,0,.32l-2.19.11.49.32s-1.82.53-2.43.63a1.31,1.31,0,0,1-1.46-1c-.12-.63.37-.53,1.34-.53A24.56,24.56,0,0,0,156,40a6.78,6.78,0,0,0,2.43-1.48l-1.58.32.48-.32a13.31,13.31,0,0,0-1.46.21c-.36.11-1.21,1-1.58,1.06s-2.06-.32-3.4-.32-2.06.63-1.94,1.37,1.34,1.48,2.67,1.58,4.49-1.16,5.22-1.37,2.67-.1,2.67.53-1.09,1.06-2.31,1.06H146.66l0,.05C146.86,43.25,147.41,43.41,147.19,44Z"/><path class="ky_cls-12" d="M144.66,45.3a.24.24,0,0,0,0-.12c0-.16-.15-.49-.22-.69l-.05-.16.09.09c.16.16.49.48.52.52a.86.86,0,0,0,1,.29c.73-.19.21-.61.21-.61l-.32-.23c.27.15.56.26.75.13s.12-.37,0-.56c.18.18.39.31.51,0,.21-.55-.33-.71-.52-1.24l0-.05c-.17-.47-.31-.54-.13-.85a2.62,2.62,0,0,0,.21-.92s.76.16.7-.4-.82-.69-1-.71-.12-.58-.18-.55-.55.34-.55.34-.42-.87-.52-.82-.58.5-.94.53-.58.48-.58.48-1.28-.53-1.24.34a.62.62,0,0,0,.76.69,4.88,4.88,0,0,1-.24,1.27c-.12.05-1.18.18-1.24,1.16a2.56,2.56,0,0,0,0,.82c0,.14.12.13.18.1a.48.48,0,0,0,.12-.2c.09-.22.2-.55.23-.66a3.9,3.9,0,0,0-.13.63c0,.31,0,.63.17.75a2.92,2.92,0,0,0,.82.37l.09-.57a.86.86,0,0,0,.28.73.83.83,0,0,0,.21.13,1.25,1.25,0,0,0,.67.13C144.55,45.45,144.64,45.39,144.66,45.3Zm.88-4.81c.25,0,.46.16.61.21a2.44,2.44,0,0,1-.49.21.73.73,0,0,1-.57-.1C144.9,40.71,145.3,40.52,145.55,40.49Zm-1.13,2.93a7.14,7.14,0,0,1-.18-1.16,2.83,2.83,0,0,0,.67,0A9.85,9.85,0,0,1,144.41,43.42Zm-.74-2.69c.14,0,.36-.23.61-.21s.65.21.45.32a.73.73,0,0,1-.57.1A2.52,2.52,0,0,1,143.68,40.73Z"/><path class="ky_cls-7" d="M144.74,40.84c.2-.1-.2-.29-.45-.32s-.46.16-.61.21a2.52,2.52,0,0,0,.49.21A.73.73,0,0,0,144.74,40.84Z"/><path class="ky_cls-7" d="M145.66,40.91a2.44,2.44,0,0,0,.49-.21c-.15,0-.36-.23-.61-.21s-.65.21-.45.32A.73.73,0,0,0,145.66,40.91Z"/><path class="ky_cls-13" d="M144.23,42.26a7.14,7.14,0,0,0,.18,1.16,9.85,9.85,0,0,0,.49-1.14A2.83,2.83,0,0,1,144.23,42.26Z"/><path class="ky_cls-12" d="M146.66,68l-.72,2.37,1.78-1.23,1.82-1.25,1.56,1.07,2,1.4-.82-2.66-.46-1.48,3-2.26.48-.36-1.71,0h-.11l-2.56,0L150.43,62l-.92-2.58-1,2.75-.47,1.34-2.71.06-.79,0-.89,0,.27.2,3.23,2.41Zm-2-4.1,3.66-.08,1.19-3.25,1.21,3.24,3.66.06-2.91,2.08,1.07,3.29-3-2-3,2,1.05-3.29Z"/><polygon class="ky_cls-14" points="146.53 69.24 149.53 67.27 152.54 69.23 151.47 65.94 154.38 63.86 150.72 63.8 149.51 60.55 148.32 63.8 144.66 63.88 147.59 65.95 146.53 69.24"/><path class="ky_cls-12" d="M146.54,56.62,148,55.55l-4.34-.07-.74-2-.69-1.86-1.16,3.15-.26.71-4.34.09L140,58l-.1.32-1,3-.18.58.46-.3,3.1-2,1.21.79,2.36,1.54-.7-2.14L144.58,58Zm-1.29,4.28-3-1.85-3,1.86,1-3.11-2.89-2,3.62-.07,1.18-3.07,1.2,3.07,3.62.06-2.88,2Z"/><polygon class="ky_cls-14" points="147.07 55.81 143.45 55.76 142.25 52.69 141.07 55.76 137.46 55.83 140.35 57.79 139.31 60.91 142.27 59.04 145.25 60.9 144.19 57.78 147.07 55.81"/><path class="ky_cls-12" d="M151,55.57l1.27.89L154.53,58,154,59.82,153.26,62l2.08-1.35,1.52-1,2.81,1.81.81.52-.34-1L159.2,58l2.74-1.94.76-.54-4.4-.07-.26-.69-1.19-3.17L156,53.86l-.6,1.62Zm5.83-2.88,1.21,3.07,3.66.06-2.92,2,1.07,3.11-3-1.85-3,1.86,1.05-3.11-2.93-2,3.67-.07Z"/><polygon class="ky_cls-14" points="154.91 57.79 153.86 60.91 156.87 59.04 159.88 60.9 158.81 57.78 161.73 55.81 158.06 55.76 156.85 52.69 155.66 55.76 151.99 55.83 154.91 57.79"/><polygon class="ky_cls-7" points="161.51 72 161.33 71.61 160 72.38 160.19 72.78 160.65 72.5 161.6 74.5 162 74.26 161.05 72.27 161.51 72"/><path class="ky_cls-7" d="M157.85,74.09a1,1,0,0,0-.21-.33.61.61,0,0,0-.31-.17.8.8,0,0,0-.39.05.87.87,0,0,0-.35.21.74.74,0,0,0-.17.33,1.12,1.12,0,0,0,0,.41,5,5,0,0,0,.15.67,5.29,5.29,0,0,0,.22.64,1,1,0,0,0,.21.33.59.59,0,0,0,.31.17.8.8,0,0,0,.39-.05.89.89,0,0,0,.35-.21.74.74,0,0,0,.17-.34,1.09,1.09,0,0,0,0-.41,6.2,6.2,0,0,0-.37-1.3ZM157.6,76a.25.25,0,0,1-.3-.08,2.79,2.79,0,0,1-.29-.78,3,3,0,0,1-.17-.83A.28.28,0,0,1,157,74a.24.24,0,0,1,.29.08,5.11,5.11,0,0,1,.46,1.61A.27.27,0,0,1,157.6,76Z"/><polygon class="ky_cls-7" points="158.89 72.93 159.53 74.67 158.31 73.18 157.88 73.38 158.79 75.88 159.18 75.7 158.54 73.95 159.76 75.45 160.19 75.26 159.29 72.75 158.89 72.93"/><polygon class="ky_cls-7" points="168.24 68.54 167.92 68.25 167.4 68.94 166.89 68.46 167.36 67.83 167.07 67.56 166.59 68.19 166.16 67.79 166.67 67.11 166.36 66.82 165.56 67.88 167.42 69.62 168.24 68.54"/><polygon class="ky_cls-7" points="162.28 70.94 162.79 71.84 162.26 72.21 161.75 71.31 161.37 71.58 162.67 73.86 163.05 73.59 162.46 72.56 162.99 72.19 163.57 73.23 163.96 72.96 162.66 70.68 162.28 70.94"/><path class="ky_cls-7" d="M154.45,74.45l-.44.09.28,1.79a1,1,0,0,1,0,.44.27.27,0,0,1-.22.16.26.26,0,0,1-.26-.06.9.9,0,0,1-.13-.41l-.28-1.79-.45.09.29,1.84a1.06,1.06,0,0,0,.28.66.72.72,0,0,0,.61.08,1,1,0,0,0,.37-.14.66.66,0,0,0,.22-.26.64.64,0,0,0,.05-.23,2,2,0,0,0,0-.4Z"/><path class="ky_cls-7" d="M148.82,75.2a.49.49,0,0,0-.21-.14,1.16,1.16,0,0,0-.35-.06l-.73,0-.09,2.7.62,0a1.43,1.43,0,0,0,.52,0,.47.47,0,0,0,.24-.22A1.26,1.26,0,0,0,149,77a6.08,6.08,0,0,0,.06-.81,2.92,2.92,0,0,0,0-.66A.8.8,0,0,0,148.82,75.2Zm-.26,1.13a4.48,4.48,0,0,1,0,.59.8.8,0,0,1-.1.28.19.19,0,0,1-.1.08.66.66,0,0,1-.22,0h-.2l.06-1.91h.2l.19,0a.2.2,0,0,1,.1.07.56.56,0,0,1,.1.27A3.67,3.67,0,0,1,148.56,76.33Z"/><polygon class="ky_cls-7" points="145.84 77.5 147.11 77.64 147.15 77.19 146.33 77.1 146.4 76.36 147.14 76.44 147.17 76.01 146.44 75.93 146.49 75.31 147.28 75.4 147.32 74.95 146.08 74.82 145.84 77.5"/><polygon class="ky_cls-7" points="143.67 74.37 143.32 76.22 143.07 74.22 142.61 74.11 142.08 76.74 142.5 76.85 142.86 75 143.11 77 143.56 77.11 144.09 74.48 143.67 74.37"/><path class="ky_cls-7" d="M145.6,74.93a.52.52,0,0,0-.2-.17,1.26,1.26,0,0,0-.34-.1l-.72-.13L144,77.19l.62.11a1.41,1.41,0,0,0,.52,0,.46.46,0,0,0,.26-.19,1.28,1.28,0,0,0,.18-.38,6.23,6.23,0,0,0,.15-.8,3,3,0,0,0,0-.66A.84.84,0,0,0,145.6,74.93ZM145.22,76a4.41,4.41,0,0,1-.11.58.78.78,0,0,1-.13.27.19.19,0,0,1-.11.07.67.67,0,0,1-.21,0l-.2,0,.27-1.88.19,0,.19.05a.22.22,0,0,1,.09.08.59.59,0,0,1,.07.29A3.62,3.62,0,0,1,145.22,76Z"/><path class="ky_cls-7" d="M166.63,66.39l1.71,2,.26-.43-.44-.49.29-.48.57.27.27-.45-2.32-1Zm1.48.45-.22.35-.74-.81Z"/><polygon class="ky_cls-7" points="152.13 74.85 150.64 74.99 150.67 75.43 151.19 75.38 151.36 77.63 151.81 77.59 151.64 75.34 152.16 75.29 152.13 74.85"/><path class="ky_cls-7" d="M156,74.22a.64.64,0,0,0-.54,0l-.76.21.58,2.62.44-.12-.24-1.11.32-.09a.68.68,0,0,0,.46-.32.92.92,0,0,0,0-.62A.83.83,0,0,0,156,74.22Zm-.18,1a.41.41,0,0,1-.27.17l-.18,0-.17-.78.19-.05a.38.38,0,0,1,.31,0,.43.43,0,0,1,.14.28A.46.46,0,0,1,155.82,75.2Z"/><polygon class="ky_cls-7" points="150.05 75 150.15 77.7 150.6 77.68 150.51 74.98 150.05 75"/><path class="ky_cls-7" d="M167.42,65.26a.69.69,0,0,0,.34.42.61.61,0,0,0,.34.09,1.3,1.3,0,0,0,.48-.2l.25-.15a.87.87,0,0,1,.28-.12.3.3,0,0,1,.19,0,.31.31,0,0,1,.16.18.35.35,0,0,1,0,.25.23.23,0,0,1-.16.15.56.56,0,0,1-.3-.1l-.14-.08-.21.45h0l.12.07a.63.63,0,0,0,1-.33.93.93,0,0,0,.09-.63.72.72,0,0,0-.37-.45.7.7,0,0,0-.4-.11,1.08,1.08,0,0,0-.46.19l-.26.16h0c-.2.12-.34.16-.43.1a.27.27,0,0,1-.13-.15.28.28,0,0,1,0-.2.26.26,0,0,1,.17-.17.44.44,0,0,1,.28.08l.06,0,.2-.42,0,0,0,0a.66.66,0,0,0-.55-.09.73.73,0,0,0-.4.42A.86.86,0,0,0,167.42,65.26Z"/><path class="ky_cls-7" d="M140.51,73.69a.77.77,0,0,0-.15-.35.88.88,0,0,0-.34-.23.82.82,0,0,0-.39-.08.59.59,0,0,0-.32.15,1,1,0,0,0-.23.32,6.52,6.52,0,0,0-.44,1.28,1.09,1.09,0,0,0,0,.41.72.72,0,0,0,.15.35.88.88,0,0,0,.34.23.81.81,0,0,0,.39.08.61.61,0,0,0,.32-.15,1.08,1.08,0,0,0,.23-.32,4.66,4.66,0,0,0,.25-.63,5.1,5.1,0,0,0,.19-.65A1.16,1.16,0,0,0,140.51,73.69Zm-.64.88a2.83,2.83,0,0,1-.34.76.23.23,0,0,1-.29.06.29.29,0,0,1-.19-.26,2.86,2.86,0,0,1,.2-.81,2.74,2.74,0,0,1,.34-.76.24.24,0,0,1,.29-.06.28.28,0,0,1,.19.26A3,3,0,0,1,139.87,74.57Z"/><polygon class="ky_cls-7" points="130.32 68.08 129.87 67.32 130.43 66.91 130.84 67.6 131.16 67.36 130.75 66.67 131.21 66.33 131.66 67.07 131.99 66.82 131.3 65.66 129.28 67.16 129.98 68.33 130.32 68.08"/><path class="ky_cls-7" d="M142,73.9l-.47,1.74a.88.88,0,0,1-.17.39.25.25,0,0,1-.26,0,.29.29,0,0,1-.21-.18.94.94,0,0,1,0-.43l.47-1.74-.43-.14-.48,1.79a1.13,1.13,0,0,0,0,.73.8.8,0,0,0,.51.38,1,1,0,0,0,.38.05.58.58,0,0,0,.3-.12.55.55,0,0,0,.14-.18,2,2,0,0,0,.13-.37l.48-1.79Z"/><polygon class="ky_cls-7" points="136.81 71.5 136.31 72.4 135.78 72.04 136.28 71.14 135.89 70.88 134.63 73.18 135.01 73.44 135.59 72.4 136.12 72.76 135.54 73.8 135.93 74.06 137.19 71.75 136.81 71.5"/><polygon class="ky_cls-7" points="138.03 73.43 138.28 72.85 139.01 73.23 139.18 72.83 138.03 72.24 137.01 74.69 137.42 74.9 137.87 73.82 138.57 74.18 138.73 73.79 138.03 73.43"/><polygon class="ky_cls-7" points="131.23 65.55 131.02 65.1 130.17 65.58 129.89 64.97 130.74 64.49 130.54 64.04 128.37 65.27 128.57 65.71 129.56 65.16 129.84 65.77 128.85 66.33 129.06 66.77 131.23 65.55"/><polygon class="ky_cls-7" points="165.06 71.48 164.4 72.03 164 71.44 164.59 70.94 164.36 70.6 163.77 71.09 163.43 70.6 164.07 70.06 163.82 69.7 162.83 70.54 164.29 72.69 165.3 71.84 165.06 71.48"/><path class="ky_cls-7" d="M166.38,69.18a1.06,1.06,0,0,0-.49,0l-.3.06h0c-.22,0-.37,0-.44-.05a.27.27,0,0,1-.08-.19.26.26,0,0,1,.08-.19.24.24,0,0,1,.21-.1.46.46,0,0,1,.24.17l0,.05.3-.33,0,0,0,0a.71.71,0,0,0-.5-.28.66.66,0,0,0-.5.26.81.81,0,0,0-.23.53.73.73,0,0,0,.21.52.65.65,0,0,0,.3.21,1.27,1.27,0,0,0,.51,0l.28-.05a.86.86,0,0,1,.3,0,.32.32,0,0,1,.17.11.33.33,0,0,1,.1.23.35.35,0,0,1-.1.23.21.21,0,0,1-.2.09.59.59,0,0,1-.25-.2l-.11-.12-.32.35h0l.09.11a.79.79,0,0,0,.53.32.69.69,0,0,0,.52-.27A.88.88,0,0,0,167,70a.79.79,0,0,0-.22-.55A.76.76,0,0,0,166.38,69.18Z"/><polygon class="ky_cls-7" points="133.2 68.38 132.5 69.09 132.08 68.59 132.78 67.87 132.47 67.5 130.69 69.34 130.99 69.7 131.8 68.87 132.22 69.38 131.41 70.21 131.72 70.58 133.5 68.74 133.2 68.38"/><polygon class="ky_cls-7" points="135.21 70.87 135.63 71.21 135.86 70.86 134.66 69.87 134.42 70.23 134.84 70.57 133.64 72.39 134.01 72.69 135.21 70.87"/><path class="ky_cls-7" d="M133.17,72l1.19-2.44-.46-.45-2,1.63.35.34.49-.42.39.38-.31.6ZM133,70.42l.82-.71-.53,1Z"/></g></g></svg>
