<svg xmlns="http://www.w3.org/2000/svg" viewBox="0 0 200 134"><defs><style>.la_cls-1{fill:#ce2931;}.la_cls-2{fill:#213065;}.la_cls-3{fill:#fff;}</style></defs><title>Asset 97</title><g id="Layer_2" data-name="Layer 2"><g id="Layer_3" data-name="Layer 3"><path class="la_cls-1" d="M183,0H17A17,17,0,0,0,0,17V33.41H200V17A17,17,0,0,0,183,0Z"/><path class="la_cls-1" d="M0,117a17,17,0,0,0,17,17H183a17,17,0,0,0,17-17V100.59H0Z"/><path class="la_cls-2" d="M0,100.59H200V33.41H0ZM100,40.13A26.87,26.87,0,1,1,73.13,67,26.87,26.87,0,0,1,100,40.13Z"/><circle class="la_cls-3" cx="100" cy="67" r="26.87"/></g></g></svg>
