<svg xmlns="http://www.w3.org/2000/svg" viewBox="0 0 200 134"><defs><style>.li_cls-1{fill:#263779;}.li_cls-2{fill:#ce2931;}.li_cls-3{fill:#010101;}.li_cls-4{fill:#ffd83e;}</style></defs><title>Asset 4</title><g id="Layer_2" data-name="Layer 2"><g id="Layer_97" data-name="Layer 97"><path class="li_cls-1" d="M183,0H17A17,17,0,0,0,0,17V67H200V17A17,17,0,0,0,183,0ZM72.1,39.15c-1.71.61-3.74,5.08-5,7.65a2.11,2.11,0,0,1-1,.87h0c-.66,1.08-1,1.28-1.45,1.28h-.06a1.42,1.42,0,0,0-.09.42c-.11,3.26-32.75,3.09-33-.56-2.18-2.29-3.69-9.84-6.14-11.13a9,9,0,0,1,2.19-1.27,1.38,1.38,0,0,1-.25-2.31,1.36,1.36,0,0,1,0-2.58c-1.12-.87-1.22-2.38.57-2.78-1-1.07-.82-2.43.94-2.53-.42-1.49.65-2.33,2.06-2.09.3-1.66,1.59-1.89,2.56-1.14A1.52,1.52,0,0,1,36,22.62a1.48,1.48,0,0,1,2.51.07,1.44,1.44,0,0,1,2.51.37,1.72,1.72,0,0,1,2.57.5c.52-.65,1.64-.43,2.29.39a.94.94,0,0,1,.86-.28c-.62-1.19-.71-3.42,1.3-4-.15-.29-.21-.47-.32-.68s-.12-.29,0-.57.37-.66.58-1a1.39,1.39,0,0,1-.5-.47c-.17.09-.79.33-1.07.47s-.41.14-.61,0-.93-.61-1.19-.81-.47-.31-.25-.44,1.07-.67,1.53-.92a.56.56,0,0,1,.61,0l1.22.58a1.46,1.46,0,0,1,.45-.43c-.17-.35-.51-1.15-.72-1.6a.57.57,0,0,1,.07-.72c.18-.26.62-.93,1-1.43.22-.3.37-.36.54-.1s.76,1.43.89,1.7a.64.64,0,0,1,0,.68c-.12.22-.32.63-.84,1.63A1.43,1.43,0,0,1,50,16l1.12-.56c.3-.15.47-.19.72,0s.93.63,1.15.8.37.32.09.51-.92.65-1.24.87a.56.56,0,0,1-.7,0c-.2-.1-.7-.38-1.13-.63l-.47.48c.17.28.48.77.57.94s.2.37.1.57-.17.4-.37.78a2.38,2.38,0,0,1,1,3.72.85.85,0,0,1,1,.3c.37-.86,1.41-1,2.35-.41a1.57,1.57,0,0,1,2.53-.19,1.58,1.58,0,0,1,2.42-.45c.56-1.08,1.86-.89,2.64.19.71-1.19,2-.89,2.68.67,1.19-1.08,2.2-.07,2.38,1.12a1.45,1.45,0,0,1,1.9,1.94c1.64-.07,2,1.38,1.12,2.72,1,0,1.64,1.41.26,2.57.93.52,1.15,1.67-.2,2.64a1.52,1.52,0,0,1-.28,2.35A6,6,0,0,1,71.82,38C72.49,38.42,72.88,38.87,72.1,39.15Z"/><path class="li_cls-2" d="M0,117a17,17,0,0,0,17,17H183a17,17,0,0,0,17-17V67H0Z"/><path class="li_cls-3" d="M71.82,38a6,6,0,0,0-2.23-1.06,1.52,1.52,0,0,0,.28-2.35c1.36-1,1.13-2.12.2-2.64,1.38-1.16.74-2.53-.26-2.57.93-1.34.52-2.79-1.12-2.72a1.45,1.45,0,0,0-1.9-1.94c-.18-1.19-1.19-2.2-2.38-1.12-.67-1.56-2-1.86-2.68-.67-.78-1.08-2.09-1.27-2.64-.19a1.58,1.58,0,0,0-2.42.45,1.57,1.57,0,0,0-2.53.19c-.93-.56-2-.45-2.35.41a.85.85,0,0,0-1-.3,2.38,2.38,0,0,0-1-3.72c.2-.38.27-.58.37-.78s0-.35-.1-.57-.4-.66-.57-.94L50,17c.43.25.93.53,1.13.63a.56.56,0,0,0,.7,0c.32-.22,1-.68,1.24-.87s.14-.34-.09-.51-.9-.64-1.15-.8-.42-.12-.72,0L50,16a1.43,1.43,0,0,0-.54-.4c.52-1,.72-1.4.84-1.63a.64.64,0,0,0,0-.68c-.14-.27-.73-1.44-.89-1.7s-.32-.2-.54.1c-.36.5-.8,1.17-1,1.43a.57.57,0,0,0-.07.72c.21.45.55,1.25.72,1.6a1.46,1.46,0,0,0-.45.43l-1.22-.58a.56.56,0,0,0-.61,0c-.46.25-1.3.8-1.53.92s0,.24.25.44,1,.67,1.19.81.33.14.61,0,.89-.38,1.07-.47a1.39,1.39,0,0,0,.5.47c-.21.34-.42.71-.58,1s-.15.36,0,.57.17.4.32.68c-2,.55-1.92,2.77-1.3,4a.94.94,0,0,0-.86.28c-.65-.82-1.77-1-2.29-.39a1.72,1.72,0,0,0-2.57-.5,1.44,1.44,0,0,0-2.51-.37A1.48,1.48,0,0,0,36,22.62,1.52,1.52,0,0,0,33.5,23c-1-.74-2.26-.52-2.56,1.14-1.41-.25-2.48.6-2.06,2.09-1.76.1-1.91,1.46-.94,2.53-1.79.4-1.69,1.91-.57,2.78a1.36,1.36,0,0,0,0,2.58,1.38,1.38,0,0,0,.25,2.31,9,9,0,0,0-2.19,1.27c2.46,1.28,4,8.84,6.14,11.13.21,3.65,32.85,3.82,33,.56a1.42,1.42,0,0,1,.09-.42c-.41,0-.34-.09-.26-.42.13-.51-.07-.55-.23-.06s-.19.38-.46.3-.33.06-.18-.46-.21-.56-.35-.08-.12.37-.49.28-.36,0-.21-.46-.19-.51-.3,0-.18.32-.45.26-.38,0-.28-.43-.16-.43-.26,0-.22.31-.51.23-.31.07-.17-.44-.25-.46-.35-.05-.12.38-.38.31-.31.05-.24-.49-.21-.45-.29,0-.12.38-.37.34-.31.1-.27-.49-.29-.47-.34,0-.1.4-.22.39l-.52-.08c-.2,0-.23-.08-.2-.41.07-.63-.27-.64-.35,0s-.16.34-.44.29-.31,0-.25-.45-.25-.48-.31,0-.19.36-.48.31-.37,0-.31-.46c.1-.69-.27-.48-.31,0s-.15.36-.39.33-.31.13-.28-.48-.26-.66-.31,0-.13.43-.56.38-.36,0-.35-.5-.3-.67-.32,0c0,.44-.05.45-.46.38s-.36-.09-.33-.42c.05-.73-.31-.51-.35,0s.06.39-.35.37-.35.05-.33-.37c0-.84-.41-.5-.38,0s-.09.34-.35.32-.27.07-.29-.41-.27-.47-.29,0,.1.42-.41.39-.38,0-.38-.43c0-.63-.29-.46-.29,0s0,.43-.18.42h-.68c-.23,0-.38.14-.4-.47s-.31-.47-.33.05,0,.42-.57.42-.45,0-.47-.41c0-.64-.37-.45-.35,0s0,.39-.44.4-.39.07-.41-.41-.3-.45-.31,0,.06.41-.36.44-.31,0-.38-.39-.32-.4-.3,0-.09.4-.48.43-.37.12-.4-.39-.3-.54-.3.11c0,.44,0,.33-.38.35s-.36.14-.4-.35c-.05-.67-.32-.48-.3,0s-.12.41-.41.43-.33.13-.4-.35-.26-.37-.22,0-.1.39-.46.43-.38.17-.45-.37c-.1-.81-.28-.51-.25,0s-.09.43-.43.49-.39.05-.48-.27-.32-.31-.26.06-.06.31-.43.38-.39.11-.53-.28c-.24-.68-.37-.37-.3,0s-.09.37-.37.43-.33.18-.5-.27-.3-.37-.23.06-.07.35-.31.41-.25.1-.37-.28-.32-.41-.21.06-.06.36-.29.41-.24.1-.36-.3-.34-.31-.27.11,0,.34-.26.4-.24.16-.4-.33c-.25-.74-.44-.47-.3.07s0,.45-.31.53-.38,0-.56-.24c-2.43-3.65-3.16-8.3-5.06-10.12-.65-.62-.44-.54-.2-.72a4.89,4.89,0,0,1,7.72,2.46c.17.55.38.26.33,0-.3-2,.8-4.57,2.48-5s3.24.63,6.31,4.21c.27.31.48.71.52.22.3-3.87,2.79-4.66,5-4.69s4,1.11,4.61,5c.09.62.29.81.45.35.94-2.88,4.07-5.31,6.78-4.54,2.06.59,2.36,3.47,1.71,5.88-.16.58.12.76.37.1,1.69-4.37,4.94-4.54,8.24-3.37.95.33,1.26.73.75,1-2.83,1.71-3.84,6-5.47,8.7a2.11,2.11,0,0,0,1-.87c1.23-2.57,3.26-7,5-7.65C72.88,38.87,72.49,38.42,71.82,38ZM50.1,16.25c.34-.12.88-.42,1.15-.55s.35-.09.54,0l.72.53c.22.17.29.26.13.35l-.88.57a.59.59,0,0,1-.65,0c-.2-.07-.73-.31-1.08-.47A1.19,1.19,0,0,0,50.1,16.25Zm-2.4.42a10.24,10.24,0,0,1-1,.42.49.49,0,0,1-.58-.07l-.72-.5c-.16-.11-.27-.19.07-.37s.58-.33.81-.45a.69.69,0,0,1,.7,0l.81.35A1.42,1.42,0,0,0,47.71,16.67ZM69.49,34a.9.9,0,1,1,0-1.8A.9.9,0,1,1,69.49,34Zm.08-2.46a.9.9,0,1,1,0-1.8A.9.9,0,1,1,69.57,31.59ZM69,27.07A1,1,0,1,1,69,29,1,1,0,1,1,69,27.07Zm-1.53-2a1,1,0,1,1,0,1.91A1,1,0,1,1,67.44,25.06Zm-2-1.53a1,1,0,1,1,0,1.91A1,1,0,1,1,65.4,23.53Zm-2.49-.82a1,1,0,1,1,0,1.91A1,1,0,1,1,62.9,22.71Zm-2.57-.22a1,1,0,1,1,0,1.91A1,1,0,1,1,60.33,22.49Zm-2.42.26a1,1,0,1,1,0,1.92A1,1,0,1,1,57.91,22.75Zm-2.5.26a1,1,0,1,1,0,1.91A1,1,0,1,1,55.41,23Zm-2.31.41a1,1,0,1,1,0,1.91A1,1,0,1,1,53.11,23.42Zm-2.2.45a1,1,0,1,1,0,1.91A1,1,0,1,1,50.91,23.87Zm-2.19,2.64a.63.63,0,1,1,0,1.27A.63.63,0,1,1,48.72,26.51Zm.1-1.81a.64.64,0,0,1,0,1.27A.64.64,0,0,1,48.82,24.7Zm-.15,3.62a.75.75,0,1,1,0,1.49A.75.75,0,1,1,48.68,28.32Zm0-3.92A1.86,1.86,0,0,1,47,23.13c-.13-.28-.05-.28.09-.32a11.08,11.08,0,0,1,3.09,0c.38.06.5.13.43.31A2.05,2.05,0,0,1,48.69,24.4Zm1.19-4.13a2,2,0,0,1,.79.74c.16.26,0,.21-.14.2s-.55-.05-.71,0-.19-.09-.19-.2,0-.44,0-.58S49.61,20.15,49.88,20.27Zm-1.66-6.52c-.11-.27-.15-.32.08-.61s.5-.82.63-1,.18-.33.35,0c.26.46.44.81.58,1.12s.2.43.06.66c-.29.5-.67,1.25-.78,1.48H49C48.72,14.81,48.33,14,48.21,13.75Zm.74,2a.72.72,0,1,1,0,1.43A.72.72,0,1,1,49,15.79Zm-.76,2.64c.15-.3.26-.58.34-.71s.1-.18.2-.17a1.43,1.43,0,0,0,.29,0c.08,0,.14,0,.26.21l.5.89c.1.19.09.23,0,.38l-.42.58a3.35,3.35,0,0,0-.91,0,3.78,3.78,0,0,1-.36-.6C48,18.85,48,18.73,48.19,18.43Zm-1.12,2.64a1.61,1.61,0,0,1,1-1c.1,0,.11,0,.1.09s0,.6,0,.75,0,.24-.15.24-.31,0-.62,0S47,21.18,47.07,21.07Zm-.32.77c0-.12,0-.19.15-.2s1-.09,1.26-.1.29,0,.3-.21.07-.84.07-1.29c0-.07,0-.12.11-.14a1.56,1.56,0,0,1,.46,0c.16,0,.13,0,.15.3s0,.77,0,1,.11.29.31.29a9.16,9.16,0,0,1,1,.07c.21,0,.23,0,.26.19a2.33,2.33,0,0,1,0,.5c0,.18-.08.28-.29.24a10.51,10.51,0,0,0-3.37-.07c-.29,0-.4.07-.42-.07A3.21,3.21,0,0,1,46.76,21.84Zm0,2.21a1,1,0,1,1,0,1.91A1,1,0,1,1,46.79,24.05Zm-2.29-.42a1,1,0,1,1,0,1.91A1,1,0,1,1,44.5,23.63Zm-2.36-.52a1,1,0,1,1,0,1.91A1,1,0,1,1,42.15,23.11Zm-2.48-.42a1,1,0,1,1,0,1.91A1,1,0,1,1,39.66,22.69Zm-2.48-.32a1,1,0,1,1,0,1.91A1,1,0,1,1,37.18,22.36Zm-2.43.15a1,1,0,1,1,0,1.91A1,1,0,1,1,34.75,22.51ZM32.36,23a1,1,0,1,1,0,1.91A1,1,0,1,1,32.36,23Zm-2.23,1.53a.92.92,0,1,1,0,1.84A.92.92,0,1,1,30.13,24.55Zm-1.46,2.13a.92.92,0,1,1,0,1.84A.92.92,0,1,1,28.66,26.68Zm-.77,2.58a.92.92,0,1,1,0,1.84A.92.92,0,1,1,27.89,29.27Zm0,2.66a.92.92,0,1,1,0,1.84A.92.92,0,1,1,27.87,31.92Zm.45,4.17a.92.92,0,1,1,0-1.84A.92.92,0,1,1,28.32,36.09Zm4.55-.22a2.8,2.8,0,0,1-.8-.86V28.24a3,3,0,0,1,.8-.74Zm1.27.15a1.53,1.53,0,0,1-.92,0V27.24c.34-.15.63-.29.92-.4Zm1.19-.81-.07.07a4.21,4.21,0,0,1-.79.59V26.72a7.7,7.7,0,0,1,.86-.23Zm1.12-.74a3.92,3.92,0,0,0-.78.47v-8.5c.26,0,.52-.07.78-.1Zm1-.24a2.92,2.92,0,0,0-.67.12v-8h.67Zm1,.12a3.36,3.36,0,0,0-.71-.12V26.32l.71.05Zm1.19.55a5.14,5.14,0,0,0-.9-.45v-8c.3,0,.6.09.9.16Zm1.1.88a4.65,4.65,0,0,0-.76-.66V26.64a5.78,5.78,0,0,1,.76.23Zm1.14.83a3.28,3.28,0,0,1-.78-.55V27a5.09,5.09,0,0,1,.78.27Zm1.15,0a1.19,1.19,0,0,1-.82.12V27.41c.28.13.55.27.82.42ZM32.77,26.86c-2.45,1.57-3.35,4.06-.67,9.65A4.8,4.8,0,0,0,30,35.85c-1.62-5.08-.62-7.49,1.06-9.44s6.26-2.63,15,.11a2.17,2.17,0,0,1-.17.95C41.6,26.26,35.9,24.85,32.77,26.86Zm-1.06,1.7v5.93C31,32.93,30.81,29.73,31.71,28.55Zm12.59,7a4.6,4.6,0,0,1-.91.76V28.08a4.67,4.67,0,0,1,.91.58Zm.3-.38V28.91C46.39,30.81,45.22,34,44.6,35.19Zm.75-.31c.79-1.91,1.21-5.82,1.32-8.5a3,3,0,0,1,1.19.11,73.73,73.73,0,0,1-1,7.71A8.63,8.63,0,0,0,45.35,34.88Zm3.35-.74a.85.85,0,1,1,0-1.71A.85.85,0,1,1,48.7,34.13Zm0-2.13a.85.85,0,1,1,0-1.71A.85.85,0,1,1,48.72,32Zm1.66,2.38c-.45-4.44-.71-7.37-.67-8a3.51,3.51,0,0,1,1.08,0c0,2.76.07,6.26.82,8.57A3.21,3.21,0,0,0,50.39,34.38Zm1.86.79a8.28,8.28,0,0,1-.67-4,3.68,3.68,0,0,1,.67-2.2Zm1.23,1.4a3,3,0,0,1-.93-.9v-7a3.69,3.69,0,0,1,.93-.61Zm1.19.21a1.2,1.2,0,0,1-.86,0V27.9c.26-.11.54-.2.86-.3Zm1.12-.71-.78.54V27.51l.78-.2Zm1.16-.73q-.4.23-.82.5V27.23l.82-.18Zm1.14-.57a6.55,6.55,0,0,0-.82.36V27l.82-.15Zm1.17-.24a3.73,3.73,0,0,0-.82.14V26.78l.82-.1Zm1.08.17a2.28,2.28,0,0,0-.75-.17V26.65a3.58,3.58,0,0,1,.75,0Zm1.19.64a4.22,4.22,0,0,0-.82-.52V26.63c.28,0,.55,0,.82.06Zm1.15,1a7.93,7.93,0,0,1-.82-.75V26.74a7.4,7.4,0,0,1,.82.2Zm1.23.43a1.17,1.17,0,0,1-.86-.18V27.06a5.9,5.9,0,0,1,.86.41Zm1.19-1a2.91,2.91,0,0,1-.86.86v-9a5.93,5.93,0,0,1,.86.71Zm2.12,1a8.24,8.24,0,0,0-2,.6c2.07-4.84,2.23-7.24-.17-9.76s-8.43-1.86-13.76-.11a4.17,4.17,0,0,1-.11-1.19c9.61-2.12,13.2-2.1,15.61.86S68.11,34.07,67.22,36.8Zm-1.79-1.7V28.88C66.71,30.63,66.39,33.35,65.43,35.11Zm3.5-.37a.9.9,0,1,1,0,1.8A.9.9,0,1,1,68.93,34.74Z"/><path class="li_cls-4" d="M27.87,31.92a.92.92,0,1,0,0,1.84A.92.92,0,1,0,27.87,31.92Z"/><path class="li_cls-4" d="M28.32,34.26a.92.92,0,1,0,0,1.84A.92.92,0,1,0,28.32,34.26Z"/><path class="li_cls-4" d="M27.89,29.27a.92.92,0,1,0,0,1.84A.92.92,0,1,0,27.89,29.27Z"/><path class="li_cls-4" d="M28.66,28.52a.92.92,0,1,0,0-1.84A.92.92,0,1,0,28.66,28.52Z"/><path class="li_cls-4" d="M30.13,26.39a.92.92,0,1,0,0-1.84A.92.92,0,1,0,30.13,26.39Z"/><path class="li_cls-4" d="M32.36,24.94a1,1,0,1,0,0-1.91A1,1,0,1,0,32.36,24.94Z"/><path class="li_cls-4" d="M34.75,24.43a1,1,0,1,0,0-1.91A1,1,0,1,0,34.75,24.43Z"/><path class="li_cls-4" d="M37.18,24.28a1,1,0,1,0,0-1.91A1,1,0,1,0,37.18,24.28Z"/><path class="li_cls-4" d="M39.66,24.6a1,1,0,1,0,0-1.91A1,1,0,1,0,39.66,24.6Z"/><path class="li_cls-4" d="M42.15,25a1,1,0,1,0,0-1.91A1,1,0,1,0,42.15,25Z"/><path class="li_cls-4" d="M44.5,25.54a1,1,0,1,0,0-1.91A1,1,0,1,0,44.5,25.54Z"/><path class="li_cls-4" d="M46.79,26a1,1,0,1,0,0-1.91A1,1,0,1,0,46.79,26Z"/><path class="li_cls-4" d="M50.91,25.78a1,1,0,1,0,0-1.91A1,1,0,1,0,50.91,25.78Z"/><path class="li_cls-4" d="M53.11,25.33a1,1,0,1,0,0-1.91A1,1,0,1,0,53.11,25.33Z"/><path class="li_cls-4" d="M55.41,24.92a1,1,0,1,0,0-1.91A1,1,0,1,0,55.41,24.92Z"/><path class="li_cls-4" d="M49,17.22a.72.72,0,1,0,0-1.43A.72.72,0,1,0,49,17.22Z"/><path class="li_cls-4" d="M57.91,24.66a1,1,0,1,0,0-1.92A1,1,0,1,0,57.91,24.66Z"/><path class="li_cls-4" d="M60.33,24.4a1,1,0,1,0,0-1.91A1,1,0,1,0,60.33,24.4Z"/><path class="li_cls-4" d="M62.9,24.63a1,1,0,1,0,0-1.91A1,1,0,1,0,62.9,24.63Z"/><path class="li_cls-4" d="M65.4,25.45a1,1,0,1,0,0-1.91A1,1,0,1,0,65.4,25.45Z"/><path class="li_cls-4" d="M67.44,27a1,1,0,1,0,0-1.91A1,1,0,1,0,67.44,27Z"/><path class="li_cls-4" d="M69,29a1,1,0,1,0,0-1.91A1,1,0,1,0,69,29Z"/><path class="li_cls-4" d="M69.57,31.59a.9.9,0,1,0,0-1.8A.9.9,0,1,0,69.57,31.59Z"/><path class="li_cls-4" d="M69.49,34a.9.9,0,1,0,0-1.8A.9.9,0,1,0,69.49,34Z"/><path class="li_cls-4" d="M68.93,34.74a.9.9,0,1,0,0,1.8A.9.9,0,1,0,68.93,34.74Z"/><path class="li_cls-4" d="M48.72,27.78a.63.63,0,1,0,0-1.27A.63.63,0,1,0,48.72,27.78Z"/><path class="li_cls-4" d="M48.82,26a.64.64,0,0,0,0-1.27A.64.64,0,0,0,48.82,26Z"/><path class="li_cls-4" d="M48.68,29.81a.75.75,0,1,0,0-1.49A.75.75,0,1,0,48.68,29.81Z"/><path class="li_cls-4" d="M48.72,30.29a.85.85,0,1,0,0,1.71A.85.85,0,1,0,48.72,30.29Z"/><path class="li_cls-4" d="M48.7,32.43a.85.85,0,1,0,0,1.71A.85.85,0,1,0,48.7,32.43Z"/><path class="li_cls-4" d="M71.63,39c.51-.31.2-.71-.75-1-3.3-1.17-6.55-1-8.24,3.38-.25.66-.53.48-.37-.1.65-2.41.35-5.3-1.71-5.88-2.71-.77-5.83,1.66-6.78,4.54-.15.46-.36.27-.45-.35-.57-3.85-2.41-5-4.61-5s-4.69.82-5,4.69c0,.48-.25.09-.52-.22-3.07-3.58-4.53-4.69-6.31-4.21s-2.78,3.06-2.48,5c0,.3-.16.59-.33,0a4.89,4.89,0,0,0-7.72-2.46c-.24.18-.45.1.2.72,1.9,1.81,2.63,6.46,5.06,10.12.18.26.25.32.56.24s.45,0,.31-.53.05-.81.3-.07c.16.48.14.39.4.33s.32,0,.26-.4.11-.64.27-.11.14.35.36.3.4.06.29-.41.07-.49.21-.06.12.34.37.28.37,0,.31-.41.06-.56.23-.06.21.32.5.27.45,0,.37-.43.05-.73.3,0c.14.38.16.34.53.28s.5,0,.43-.37.14-.51.26-.06.13.33.48.27.46,0,.43-.49.15-.82.25,0c.06.54.09.4.45.37s.49,0,.46-.43.15-.61.22,0,.11.36.4.35.44.08.41-.43.25-.7.3,0c0,.5.12.38.4.35s.38.08.38-.35c0-.64.27-.66.3-.11s.11.4.4.39.51.07.48-.43.23-.43.3,0,0,.41.38.39.35,0,.36-.44.3-.5.31,0,0,.42.41.41.46.09.44-.4.31-.68.35,0c0,.42-.1.41.47.41s.55.1.57-.42.32-.66.33-.05.16.47.4.47h.68c.2,0,.18,0,.18-.42s.29-.62.29,0c0,.42-.12.39.38.43s.4.07.41-.39.27-.55.29,0,0,.4.29.41.37.07.35-.32.41-.83.38,0c0,.42-.07.35.33.37s.32.07.35-.37.4-.72.35,0c0,.34-.08.36.33.42s.45.05.46-.38c0-.7.34-.56.32,0s-.09.46.35.5.52.14.56-.38.33-.6.31,0,0,.46.28.48.35.16.39-.33.41-.7.31,0c-.06.42,0,.41.31.46s.42.17.48-.31.39-.57.31,0,0,.4.25.45.38.2.44-.29.42-.61.35,0c0,.32,0,.37.2.41l.52.08c.12,0,.17,0,.22-.39s.37-.56.34,0,0,.45.27.49.3.09.37-.34.36-.53.29,0,0,.42.24.49.29.1.38-.31.51-.54.35.05-.11.35.17.44.41.18.51-.23.39-.57.26,0,0,.37.28.43.34.23.45-.26.45-.46.3,0-.15.37.21.46.35.2.49-.28.5-.45.35.08-.09.38.18.46.3.18.46-.3.36-.45.23.06c-.08.33-.14.41.26.42h.06c.5,0,.79-.19,1.45-1.28h0C67.8,45,68.81,40.69,71.63,39Zm-39.25.31a4.55,4.55,0,0,1,.08.71c0,.22-.16.26-.22,0s-.14-.45-.19-.69S32.35,39,32.39,39.29Zm-.88-.48c0,.29.06.44.1.7s-.16.35-.22.16-.24-.51-.34-.81S31.46,38.52,31.51,38.8Zm-1.15-.31c.13.32.15.5.29.84s-.2.28-.31.05-.29-.55-.42-.84S30.23,38.17,30.35,38.49Zm-1.88.62c-.24-.19-.49-.35-.69-.5s-.11-.41.26-.22a1.74,1.74,0,0,1,.67.56C28.86,39.13,28.75,39.33,28.47,39.11Zm.93,0a4.33,4.33,0,0,1-.58-.62c-.21-.26,0-.71.32-.22.19.28.32.45.41.62S29.59,39.24,29.4,39.08Zm3.69,6.31a12,12,0,0,0-3.28-3.11c-.27-.19-.21-.38.16-.3s.57.38,1,.38c.13,0,.29,0,.26-.3a4.28,4.28,0,0,0-.73-1.45c-.24-.32,0-.35.25-.16A10.86,10.86,0,0,1,32,41.77c.29.39.58.32.66.21a2.63,2.63,0,0,0,.24-.63c.08-.33.28-.35.3,0a7.66,7.66,0,0,1-.24,1.38,5.39,5.39,0,0,0,.52,2.83C33.61,45.95,33.31,45.8,33.09,45.39Zm6.72-8.1c.15.5.21.83.26,1s-.16.26-.29-.05-.26-.57-.36-.84S39.66,36.79,39.81,37.29Zm-1.09-.24c.15.45.17.58.25.82s-.15.31-.25,0-.27-.57-.38-.84S38.57,36.61,38.72,37.05Zm-1,0a6.38,6.38,0,0,1,.31.84c.06.2-.12.37-.25.09s-.29-.51-.42-.81S37.58,36.58,37.76,37Zm-2.1,4c-.1-.12-.38-.36-.65-.7s.2-.47.31-.27.36.52.52.78S35.77,41.1,35.67,41ZM36,39.91c-.23-.27-.45-.51-.61-.71s-.07-.78.22-.31.46.67.57.86S36.19,40.13,36,39.91Zm.4-.93c-.11-.19-.36-.51-.5-.77s.16-.58.32-.25.21.61.35.84S36.51,39.16,36.4,39Zm.53-.84c-.12-.26-.2-.35-.32-.6s.24-.62.36-.14c.06.25.12.45.17.62S37.06,38.4,36.93,38.13Zm3.24,2.3c-.46,1-.4,2.61-.09,4.56.06.35-.15.32-.22,0A7.31,7.31,0,0,0,37.19,41c-.27-.22-.07-.37.11-.24a4.27,4.27,0,0,0,.63.35c.21.09.35.05.41-.22a5.66,5.66,0,0,0-.35-2c-.11-.37.13-.56.28-.13a11,11,0,0,0,.89,1.73c.24.35.54.19.72-.22C40.17,39.69,40.34,40.06,40.17,40.43Zm.68-1.63c-.06-.21-.22-.66-.26-.88s.31-.26.38.06.07.41.14.7S40.9,39,40.84,38.8Zm4,.76c-.05-.27-.14-.55-.21-.81s.26-.42.35-.06.11.66.16.89S44.93,39.82,44.88,39.56Zm.59-1.12c-.08-.34-.2-.57-.27-.83s.32-.53.41-.11a6.58,6.58,0,0,1,.14.9C45.76,38.59,45.55,38.74,45.47,38.44Zm4.43-2.14c0-.26.31-.41.3,0s0,.57,0,.77-.32.26-.31,0S49.89,36.57,49.9,36.31Zm-1-.27c0-.25.5-.32.42.09s-.16.7-.19.92-.21.25-.22,0A6.7,6.7,0,0,1,48.95,36Zm-.53,0a5.75,5.75,0,0,1,0,.91c0,.26-.25.35-.3,0S48,36.24,48,36C47.89,35.61,48.43,35.57,48.41,36.06Zm-.87,0a4.51,4.51,0,0,1,0,.88c0,.2-.27.33-.29,0s-.09-.61-.1-.83S47.52,35.66,47.55,36Zm-1,.47c0,.34,0,.71,0,.88s-.22.26-.22,0a4.34,4.34,0,0,0-.12-.89C46.14,36.23,46.59,36,46.59,36.52Zm3.95,2.66a15.21,15.21,0,0,0-1.86,5.36c-.1.6-.3.37-.3,0,0-2.41-1.07-3.72-2.1-5.2-.36-.5-.13-.63.17-.41a5,5,0,0,0,.74.48c.28.15.58.22.79-.06a2.77,2.77,0,0,0,.46-1.41c0-.58.36-.48.38,0a2.62,2.62,0,0,0,.38,1.43c.3.46.54.32,1.07-.38C50.56,38.56,50.87,38.52,50.54,39.17Zm.3-1.15c-.06.21-.42.38-.32-.12.05-.28.14-.73.2-1s.42-.29.37.09A8.08,8.08,0,0,1,50.84,38Zm.61.5c-.07.14-.3.1-.22-.12s.12-.37.16-.49.32-.17.28,0A2,2,0,0,1,51.44,38.52Zm3.81,1.56c0,.16-.25.2-.27,0s0-.4,0-.65.42-.57.4-.08A4.71,4.71,0,0,1,55.25,40.08Zm3.89-2.87c.07-.21.57-.27.42.11s-.22.63-.32.82-.3.19-.25-.12A5,5,0,0,1,59.14,37.21Zm-1.27,1.12a7.94,7.94,0,0,1,.2-.93c.1-.32.62-.42.46.06a7.25,7.25,0,0,1-.41.93C58,38.59,57.81,38.65,57.88,38.33Zm-.82-.48c0-.36.64-.68.55-.26a8.83,8.83,0,0,1-.34,1.09c-.09.21-.31.27-.27,0A6.8,6.8,0,0,0,57.05,37.85Zm-.81,1.38c-.05.21-.29.27-.25,0s.06-.61.11-.91.54-.32.42,0S56.3,39,56.25,39.22Zm3.67,1.64c-.09.15-.54.5-.78.76A8.13,8.13,0,0,0,57.33,45c-.07.24-.22.22-.28,0a9.48,9.48,0,0,1,0-1.29,14.09,14.09,0,0,0-.45-3.28c-.2-.64,0-.73.19-.5a4,4,0,0,1,.41.86c.09.28.3.45.56.15s.69-1.6,1-1.88.22-.15.19.13-.33.93-.41,1.45.08.58.39.47.52-.32.8-.43S60,40.71,59.92,40.86Zm.14-2.21c-.07.2-.37.2-.3-.07s.19-.76.25-1,.54-.42.38.16A6.43,6.43,0,0,1,60.06,38.65Zm.29.56c.12-.32.25-.64.37-.93s.47-.25.31.13-.35.71-.45.92S60.23,39.51,60.34,39.21Zm1,.42c-.2.25-.41.5-.55.63s-.37,0-.2-.22.28-.45.42-.61S61.58,39.38,61.39,39.63Zm4.39.32a5,5,0,0,1,.41-1.07c.16-.22.57-.12.37.2s-.47.76-.56.93S65.69,40.21,65.78,40Zm-.62-.44c.15-.17.43-.14.29.12a2.4,2.4,0,0,0-.3.61c0,.17-.29.25-.27,0A1.19,1.19,0,0,1,65.16,39.52Zm1.62,3.4a9.84,9.84,0,0,0-3,3.5c-.09.14-.46.36-.32-.14a13.62,13.62,0,0,0,.17-4.15c0-.39.15-.4.24-.24a2.74,2.74,0,0,1,.3.61c.09.33.45.21.69-.07a13.48,13.48,0,0,0,1.38-1.68c.29-.45.41-.11.26.11s-.35.74-.69,1.34.15.8.87.41S67.32,42.6,66.78,42.92Zm.89-4.13a3.85,3.85,0,0,0-.57.93c-.09.2-.4.15-.3-.09a5,5,0,0,1,.47-1C67.44,38.42,68,38.47,67.67,38.79Zm.41.88c-.11.14-.38.13-.22-.2s.28-.55.42-.78.71-.22.42.2A7.25,7.25,0,0,1,68.08,39.67Zm1.63-.77a5.21,5.21,0,0,1-.74.63c-.18.15-.37,0-.19-.25a2.53,2.53,0,0,1,.54-.57C69.55,38.54,69.9,38.65,69.7,38.9Z"/><path class="li_cls-4" d="M31.71,34.49V28.55C30.81,29.73,31,32.93,31.71,34.49Z"/><path class="li_cls-4" d="M32.06,28.24V35a2.8,2.8,0,0,0,.8.86V27.5A3,3,0,0,0,32.06,28.24Z"/><path class="li_cls-4" d="M33.21,36.07a1.53,1.53,0,0,0,.92,0V26.84c-.3.12-.58.25-.92.4Z"/><path class="li_cls-4" d="M34.47,35.87a4.21,4.21,0,0,0,.79-.59l.07-.07V26.49a7.7,7.7,0,0,0-.86.23Z"/><path class="li_cls-4" d="M35.66,34.93a3.92,3.92,0,0,1,.78-.47V26.33c-.27,0-.53.05-.78.1Z"/><path class="li_cls-4" d="M36.78,34.34a2.92,2.92,0,0,1,.67-.12V26.3h-.67Z"/><path class="li_cls-4" d="M37.78,34.22a3.36,3.36,0,0,1,.71.12v-8l-.71-.05Z"/><path class="li_cls-4" d="M38.79,34.45a5.14,5.14,0,0,1,.9.45V26.56c-.3-.06-.6-.12-.9-.16Z"/><path class="li_cls-4" d="M40,35.12a4.65,4.65,0,0,1,.76.66V26.87a5.78,5.78,0,0,0-.76-.23Z"/><path class="li_cls-4" d="M41.14,36.06a3.28,3.28,0,0,0,.78.55V27.27a5.09,5.09,0,0,0-.78-.27Z"/><path class="li_cls-4" d="M42.25,36.72a1.19,1.19,0,0,0,.82-.12V27.83c-.26-.15-.54-.29-.82-.42Z"/><path class="li_cls-4" d="M43.39,36.34a4.6,4.6,0,0,0,.91-.76V28.66a4.67,4.67,0,0,0-.91-.58Z"/><path class="li_cls-4" d="M44.6,28.91v6.28C45.22,34,46.39,30.81,44.6,28.91Z"/><path class="li_cls-4" d="M52.55,35.68a3,3,0,0,0,.93.9V28a3.69,3.69,0,0,0-.93.61Z"/><path class="li_cls-4" d="M59.59,26.65v7.89a2.28,2.28,0,0,1,.75.17V26.66A3.58,3.58,0,0,0,59.59,26.65Z"/><path class="li_cls-4" d="M60.7,34.84a4.22,4.22,0,0,1,.82.52V26.69c-.27,0-.54-.05-.82-.06Z"/><path class="li_cls-4" d="M61.86,35.61a7.93,7.93,0,0,0,.82.75V26.94a7.4,7.4,0,0,0-.82-.2Z"/><path class="li_cls-4" d="M63.05,36.62a1.17,1.17,0,0,0,.86.18V27.47a5.9,5.9,0,0,0-.86-.41Z"/><path class="li_cls-4" d="M53.81,36.75a1.2,1.2,0,0,0,.86,0V27.6c-.31.09-.6.19-.86.3Z"/><path class="li_cls-4" d="M55,36.62l.78-.54V27.31l-.78.2Z"/><path class="li_cls-4" d="M56.12,35.86q.42-.28.82-.5V27l-.82.18Z"/><path class="li_cls-4" d="M57.27,35.15a6.55,6.55,0,0,1,.82-.36v-8l-.82.15Z"/><path class="li_cls-4" d="M58.43,34.69a3.73,3.73,0,0,1,.82-.14V26.68l-.82.1Z"/><path class="li_cls-4" d="M52.25,35.18V29a3.68,3.68,0,0,0-.67,2.2A8.28,8.28,0,0,0,52.25,35.18Z"/><path class="li_cls-4" d="M64.24,36.66a2.91,2.91,0,0,0,.86-.86V28.39a5.93,5.93,0,0,0-.86-.71Z"/><path class="li_cls-4" d="M65.43,35.11c1-1.76,1.28-4.48,0-6.22Z"/><path class="li_cls-4" d="M66.78,27.2c-2.4-3-6-3-15.61-.86a4.17,4.17,0,0,0,.11,1.19c5.33-1.75,11.36-2.4,13.76.11s2.24,4.92.17,9.76a8.24,8.24,0,0,1,2-.6C68.11,34.07,69.18,30.16,66.78,27.2Z"/><path class="li_cls-4" d="M49.72,26.34c0,.67.22,3.6.67,8a3.21,3.21,0,0,1,1.23.49c-.75-2.31-.78-5.81-.82-8.57A3.51,3.51,0,0,0,49.72,26.34Z"/><path class="li_cls-4" d="M46.66,26.38c-.11,2.68-.52,6.59-1.32,8.5a8.63,8.63,0,0,1,1.54-.68,73.73,73.73,0,0,0,1-7.71A3,3,0,0,0,46.66,26.38Z"/><path class="li_cls-4" d="M46.11,26.53c-8.77-2.74-13.35-2.07-15-.11S28.4,30.77,30,35.85a4.8,4.8,0,0,1,2.08.65c-2.68-5.59-1.77-8.08.67-9.65,3.13-2,8.83-.6,13.16.62A2.17,2.17,0,0,0,46.11,26.53Z"/><path class="li_cls-4" d="M47.34,21.2c.32,0,.45,0,.62,0s.15-.08.15-.24,0-.63,0-.75,0-.12-.1-.09a1.61,1.61,0,0,0-1,1C47,21.18,47,21.19,47.34,21.2Z"/><path class="li_cls-4" d="M47.19,22.44a10.51,10.51,0,0,1,3.37.07c.21,0,.28-.06.29-.24a2.33,2.33,0,0,0,0-.5c0-.16-.05-.16-.26-.19a9.16,9.16,0,0,0-1-.07c-.2,0-.3-.06-.31-.29s0-.75,0-1,0-.27-.15-.3a1.56,1.56,0,0,0-.46,0c-.16,0-.11.06-.11.14,0,.45-.06,1.09-.07,1.29s0,.2-.3.21-1.11.09-1.26.1-.14.07-.15.2a3.21,3.21,0,0,0,0,.52C46.8,22.51,46.9,22.48,47.19,22.44Z"/><path class="li_cls-4" d="M49.62,20.39c0,.14,0,.48,0,.58s0,.2.19.2.56,0,.71,0,.3.06.14-.2a2,2,0,0,0-.79-.74C49.61,20.15,49.62,20.24,49.62,20.39Z"/><path class="li_cls-4" d="M50.6,23.11c.07-.18,0-.24-.43-.31a11.08,11.08,0,0,0-3.09,0c-.15,0-.22,0-.09.32a1.86,1.86,0,0,0,1.7,1.28A2.05,2.05,0,0,0,50.6,23.11Z"/><path class="li_cls-4" d="M48.44,19.6a3.35,3.35,0,0,1,.91,0l.42-.58c.1-.15.11-.2,0-.38l-.5-.89c-.12-.21-.18-.22-.26-.21a1.43,1.43,0,0,1-.29,0c-.09,0-.12.05-.2.17s-.19.41-.34.71-.19.42-.11.57A3.78,3.78,0,0,0,48.44,19.6Z"/><path class="li_cls-4" d="M47,15.67a.69.69,0,0,0-.7,0c-.22.11-.46.26-.81.45s-.23.26-.07.37l.72.5a.49.49,0,0,0,.58.07,10.24,10.24,0,0,0,1-.42,1.42,1.42,0,0,1,.06-.65Z"/><path class="li_cls-4" d="M49.13,15.35c.11-.22.5-1,.78-1.48.13-.23.09-.35-.06-.66s-.32-.66-.58-1.12c-.16-.29-.21-.15-.35,0s-.41.72-.63,1-.19.34-.08.61.51,1.06.76,1.6Z"/><path class="li_cls-4" d="M51.77,17.19l.88-.57c.15-.09.09-.18-.13-.35l-.72-.53c-.18-.13-.26-.16-.54,0s-.82.42-1.15.55a1.19,1.19,0,0,1-.06.5c.35.16.88.4,1.08.47A.59.59,0,0,0,51.77,17.19Z"/><path class="li_cls-3" d="M28,38.39c-.37-.19-.46.07-.26.22s.45.31.69.5.39,0,.24-.17A1.74,1.74,0,0,0,28,38.39Z"/><path class="li_cls-3" d="M29.14,38.24c-.33-.49-.52,0-.32.22a4.33,4.33,0,0,0,.58.62c.19.17.24-.06.15-.22S29.33,38.52,29.14,38.24Z"/><path class="li_cls-3" d="M30.33,39.38c.11.22.45.3.31-.05s-.16-.52-.29-.84-.63-.36-.45.05S30.22,39.16,30.33,39.38Z"/><path class="li_cls-3" d="M31.38,39.66c.06.19.26.1.22-.16s0-.41-.1-.7-.57-.32-.46.05S31.32,39.47,31.38,39.66Z"/><path class="li_cls-3" d="M32.46,40a4.55,4.55,0,0,0-.08-.71c0-.24-.41-.32-.33,0s.13.46.19.69S32.46,40.21,32.46,40Z"/><path class="li_cls-3" d="M35.33,40c-.11-.2-.57-.06-.31.27s.55.57.65.7.35.07.19-.19S35.44,40.21,35.33,40Z"/><path class="li_cls-3" d="M35.62,38.89c-.3-.47-.38.11-.22.31s.38.44.61.71.3,0,.18-.16S35.91,39.36,35.62,38.89Z"/><path class="li_cls-3" d="M36.22,38c-.16-.34-.53-.14-.32.25s.38.58.5.77.31.06.17-.17S36.38,38.29,36.22,38Z"/><path class="li_cls-3" d="M37.14,38c0-.17-.11-.37-.17-.62-.12-.48-.49-.11-.36.14s.2.33.32.6S37.19,38.19,37.14,38Z"/><path class="li_cls-3" d="M37.83,37.93c.12.29.31.11.25-.09a6.38,6.38,0,0,0-.31-.84c-.19-.42-.5-.17-.36.12S37.69,37.61,37.83,37.93Z"/><path class="li_cls-3" d="M38.72,37.92c.1.26.32.19.25,0s-.1-.37-.25-.82-.5-.25-.38,0S38.61,37.63,38.72,37.92Z"/><path class="li_cls-3" d="M39.79,38.27c.12.31.34.25.29.05s-.11-.54-.26-1-.53-.25-.38.14S39.66,38,39.79,38.27Z"/><path class="li_cls-3" d="M40.58,37.92c0,.22.2.67.26.88s.32.16.26-.12S41,38.3,41,38,40.52,37.59,40.58,37.92Z"/><path class="li_cls-3" d="M44.67,38.75c.07.26.16.54.21.81s.35.26.3,0S45.1,39,45,38.69,44.59,38.49,44.67,38.75Z"/><path class="li_cls-3" d="M45.2,37.61c.07.26.19.5.27.83s.29.15.28,0a6.58,6.58,0,0,0-.14-.9C45.52,37.08,45.13,37.35,45.2,37.61Z"/><path class="li_cls-3" d="M46.33,37.41c0,.25.21.16.22,0s0-.54,0-.88c0-.5-.45-.29-.38,0A4.34,4.34,0,0,1,46.33,37.41Z"/><path class="li_cls-3" d="M47.52,36.93a4.51,4.51,0,0,0,0-.88c0-.39-.43-.19-.42,0s.07.49.1.83S47.5,37.13,47.52,36.93Z"/><path class="li_cls-3" d="M48.38,37a5.75,5.75,0,0,0,0-.91c0-.48-.52-.45-.46,0,0,.23.08.67.12,1S48.33,37.22,48.38,37Z"/><path class="li_cls-3" d="M49.18,37c0-.22.11-.51.19-.92s-.38-.33-.42-.09a6.7,6.7,0,0,0,0,1C49,37.29,49.16,37.26,49.18,37Z"/><path class="li_cls-3" d="M50.16,37.09c0-.2,0-.35,0-.77s-.29-.27-.3,0,0,.4-.05.74S50.15,37.29,50.16,37.09Z"/><path class="li_cls-3" d="M50.71,36.89c-.06.27-.14.73-.2,1-.1.5.26.33.32.12a8.08,8.08,0,0,0,.25-1C51.13,36.61,50.77,36.62,50.71,36.89Z"/><path class="li_cls-3" d="M51.38,37.91c0,.11-.1.3-.16.49s.15.26.22.12a2,2,0,0,0,.22-.57C51.71,37.73,51.42,37.8,51.38,37.91Z"/><path class="li_cls-3" d="M54.93,39.41c0,.25,0,.39,0,.65s.25.18.27,0a4.71,4.71,0,0,0,.07-.75C55.35,38.84,54.91,39.16,54.93,39.41Z"/><path class="li_cls-3" d="M56.11,38.29c0,.3-.07.56-.11.91s.2.24.25,0,.17-.58.29-.92S56.16,38,56.11,38.29Z"/><path class="li_cls-3" d="M57.27,38.68a8.83,8.83,0,0,0,.34-1.09c.1-.42-.54-.1-.55.26a6.8,6.8,0,0,1-.06.87C57,39,57.18,38.89,57.27,38.68Z"/><path class="li_cls-3" d="M58.12,38.39a7.25,7.25,0,0,0,.41-.93c.16-.48-.36-.38-.46-.06a7.94,7.94,0,0,0-.2.93C57.81,38.65,58,38.59,58.12,38.39Z"/><path class="li_cls-3" d="M59.24,38.14c.1-.19.17-.44.32-.82s-.35-.32-.42-.11A5,5,0,0,0,59,38C58.94,38.33,59.14,38.33,59.24,38.14Z"/><path class="li_cls-3" d="M60,37.55c-.06.27-.16.72-.25,1s.22.27.3.07a6.43,6.43,0,0,0,.33-.94C60.55,37.13,60.07,37.28,60,37.55Z"/><path class="li_cls-3" d="M60.72,38.28c-.12.29-.25.61-.37.93s.14.32.23.11.29-.55.45-.92S60.84,38,60.72,38.28Z"/><path class="li_cls-3" d="M61.06,39.44c-.14.16-.2.31-.42.61s.06.36.2.22.35-.38.55-.63S61.2,39.28,61.06,39.44Z"/><path class="li_cls-3" d="M65.15,40.25a2.4,2.4,0,0,1,.3-.61c.15-.26-.14-.3-.29-.12a1.19,1.19,0,0,0-.29.68C64.86,40.5,65.11,40.43,65.15,40.25Z"/><path class="li_cls-3" d="M66,40c.09-.17.36-.61.56-.93s-.21-.42-.37-.2A5,5,0,0,0,65.78,40C65.69,40.21,65.92,40.19,66,40Z"/><path class="li_cls-3" d="M67.27,38.64a5,5,0,0,0-.47,1c-.1.24.21.29.3.09a3.85,3.85,0,0,1,.57-.93C68,38.47,67.44,38.42,67.27,38.64Z"/><path class="li_cls-3" d="M68.28,38.69c-.14.24-.28.49-.42.78s.11.33.22.2a7.25,7.25,0,0,0,.62-.78C69,38.47,68.41,38.45,68.28,38.69Z"/><path class="li_cls-3" d="M69.31,38.71a2.53,2.53,0,0,0-.54.57c-.19.24,0,.4.19.25a5.21,5.21,0,0,0,.74-.63C69.9,38.65,69.55,38.54,69.31,38.71Z"/><path class="li_cls-3" d="M66.72,42.61c-.72.39-1.21.19-.87-.41s.54-1.12.69-1.34,0-.56-.26-.11a13.48,13.48,0,0,1-1.38,1.68c-.24.28-.6.4-.69.07a2.74,2.74,0,0,0-.3-.61c-.09-.16-.27-.15-.24.24a13.62,13.62,0,0,1-.17,4.15c-.13.5.24.29.32.14a9.84,9.84,0,0,1,3-3.5C67.32,42.6,67.44,42.22,66.72,42.61Z"/><path class="li_cls-3" d="M59.7,40.68c-.28.11-.49.32-.8.43s-.47.05-.39-.47.37-1.17.41-1.45,0-.32-.19-.13-.61,1.47-1,1.88-.47.13-.56-.15a4,4,0,0,0-.41-.86c-.15-.22-.38-.13-.19.5a14.09,14.09,0,0,1,.45,3.28,9.48,9.48,0,0,0,0,1.29c.05.24.21.26.28,0a8.13,8.13,0,0,1,1.81-3.39c.24-.26.69-.61.78-.76S60,40.56,59.7,40.68Z"/><path class="li_cls-3" d="M50.26,39c-.53.71-.77.84-1.07.38a2.62,2.62,0,0,1-.38-1.43c0-.45-.36-.55-.38,0A2.77,2.77,0,0,1,48,39.35c-.21.28-.5.21-.79.06a5,5,0,0,1-.74-.48c-.3-.22-.52-.1-.17.41,1,1.48,2.1,2.79,2.1,5.2,0,.37.2.6.3,0a15.21,15.21,0,0,1,1.86-5.36C50.87,38.52,50.56,38.56,50.26,39Z"/><path class="li_cls-3" d="M39.88,40.3c-.18.41-.48.58-.72.22a11,11,0,0,1-.89-1.73c-.15-.43-.38-.24-.28.13a5.66,5.66,0,0,1,.35,2c-.06.28-.2.32-.41.22a4.27,4.27,0,0,1-.63-.35c-.19-.13-.38,0-.11.24A7.31,7.31,0,0,1,39.85,45c.07.32.28.35.22,0-.31-1.95-.37-3.56.09-4.56C40.34,40.06,40.17,39.69,39.88,40.3Z"/><path class="li_cls-3" d="M32.92,42.72a7.66,7.66,0,0,0,.24-1.38c0-.35-.21-.33-.3,0a2.63,2.63,0,0,1-.24.63c-.07.11-.37.17-.66-.21a10.86,10.86,0,0,0-1.24-1.31c-.23-.19-.48-.16-.25.16a4.28,4.28,0,0,1,.73,1.45c0,.3-.13.3-.26.3-.41,0-.61-.3-1-.38s-.43.1-.16.3a12,12,0,0,1,3.28,3.11c.22.41.52.56.35.17A5.39,5.39,0,0,1,32.92,42.72Z"/></g></g></svg>
