<svg id="Layer_1" xmlns="http://www.w3.org/2000/svg" viewBox="0 0 200 134"><style>.st0{fill:#ffd250}.st1{fill:#963c3c}.st2{fill:#5aa587}.st3{fill:#ff7350}.st4{fill:#464655}</style><path class="st0" d="M185 0H15C6.7 0 0 6.9 0 15.3v103.4c0 8.5 6.7 15.3 15 15.3h170c8.3 0 15-6.9 15-15.3V15.3C200 6.9 193.3 0 185 0zM62.1 119.9c0 1.9-1.5 3.5-3.4 3.5H13.8c-1.9 0-3.4-1.6-3.4-3.5V14.1c0-1.9 1.5-3.5 3.4-3.5h44.8c1.9 0 3.4 1.6 3.4 3.5v105.8zm127.6 0c0 1.9-1.5 3.5-3.4 3.5H75.9c-1.9 0-3.4-1.6-3.4-3.5V14.1c0-1.9 1.5-3.5 3.4-3.5h110.3c1.9 0 3.4 1.6 3.4 3.5l.1 105.8z"/><path class="st1" d="M186.2 10.6H75.9c-1.9 0-3.4 1.6-3.4 3.5v105.8c0 1.9 1.5 3.5 3.4 3.5h110.3c1.9 0 3.4-1.6 3.4-3.5V14.1c.1-1.9-1.5-3.5-3.4-3.5z"/><path class="st2" d="M13.8 10.6c-1.9 0-3.4 1.6-3.4 3.5v105.8c0 1.9 1.5 3.5 3.4 3.5h22.4V10.6H13.8z"/><path class="st3" d="M58.6 10.6H36.2v112.8h22.4c1.9 0 3.4-1.6 3.4-3.5V14.1c.1-1.9-1.5-3.5-3.4-3.5z"/><path class="st0" d="M153.7 95.3c-.1-.8.6-1.8 1.6-3.3.4-.5.9-1.3 1.1-1.7h-.3c-.6 0-1.5.1-2.2-.8-.3-.3-.4-.8-.4-1.2.1-.9.8-1.9 1.3-2.4-1.2-.9-2.4-1.8-3.4-2.9-2-2.1-4.4-3.1-6.9-3-.2 2.6 1.1 4.3 2.5 6.1.4.5.8 1.1 1.2 1.6 1.8 2.7 1.5 8 1.2 8.6-.3.6-1.7 2-3.7 1.8-.9-.1-2 .2-2.6.8-.3.3-.6.7-.6 1.3v.2c.3.2 1.3-.2 2-.6.2-.1.4-.1.6.1 1.4 1.4 2.8.2 3 0 .2-.2.5-.2.7 0 1.4 1.2 3-.1 3-.2.2-.2.4-.2.6 0 .6.4 1.2.5 1.7.4.4-.2.7-.5.7-.6 0-.2-.3-1.3-.5-2.1-.3-.8-.5-1.6-.6-2.1z"/><path class="st0" d="M169.4 45.3c-.4 0-.8.1-1 .3-.4.4-.4 1.1-.4 1.1 0 .2-.1.3-.2.4-.1.1-.3.2-.4.1-.8-.1-1.9-1-4.1-2.6-3.4-2.6-8.6-6.4-13.5-7.1-5.7-.7-10.8 1.1-12.1 4.4-1.4 3.7 1.6 7.1 1.7 7.1.2.2.2.4.1.6-.8 1.6-.2 2.7.4 3.3.2-.5.4-.9.8-1.1.9-.5 2-.1 3.5.5.9.4 2 .8 3.2 1.1 3.1.8 6.9.1 10.3-.5 1.2-.2 2.3-.4 3.4-.6 2.7-.3 5.3.9 6.1 2.8.4.9.5 2.8-2.2 4.8-4.9 3.6-27.3 2-28.6 1.9h-.1c.5.6 1.1 1.1 1.3 1.2.3.1.4.3.4.6s-.3.5-.5.5h-2.3l.2 2.3c0 .2 0 .3-.2.4-.1.1-.3.2-.4.1-.1 0-2.1-.3-3.4-1.1l-2.6 1.7c-.1.1-.2.1-.3.1h-.2c-.2-.1-.3-.2-.3-.3l-1-2.7-1.2 2.4c-.1.2-.3.3-.4.3-.2 0-.4-.1-.5-.3l-1-1.6c-.5.6-1.2 1.4-1.9 2-.1.1-.3.1-.5.1-.2-.1-.3-.2-.3-.3l-.5-1.7c-.5.6-1.1 1.4-1.9 2-.2.1-.4.2-.5.1-.2-.1-.3-.3-.3-.5l-.2-2.7c-.6.3-1.4.7-1.9.9-.2.1-.4 0-.6-.2-.1-.2-.2-.4 0-.6.8-1.4 1.6-3.3 1.6-4.2-.5.7-1.3 1.3-2.1 2-1.8 1.5-4 3.4-5.7 6.6-1.2 2.3-2 6.3-.5 10 1.2 3.2 3.9 5.5 7.9 7-.1-.6-.2-1.2-.2-1.7-.1-2.8.5-5.4.5-5.5.1-.3.3-.5.6-.4.3.1.5.4.4.6 0 0-.6 2.5-.5 5.2 0 1.3.6 2.9 1.1 4.5.7 2.1 1.4 4.2 1.1 6-.4 2.5-3.4 3.1-6.2 2.6-.8-.1-1.5.1-2 .6s-.8 1.3-.7 2c0 .4.2.4.2.5.3.2 1.1-.1 1.5-.3.2-.1.5-.1.6.1 1.1 1.3 2.6 0 2.7-.1.2-.2.5-.2.7 0 .4.5.9.7 1.4.7.9.1 1.8-.8 1.8-.8.2-.2.4-.2.6-.1 1.7.8 2.7.3 2.7.3 1.5-1.3.6-4.4.6-4.5 0-.1 0-.3.1-.4l.3-.3c2.1-.5 3.3-1.9 3.9-2.8-1 0-1.9-.4-2.4-1.2-.8-1.3-.4-3.2 1-4.8 2.4-2.9 3.8-8.7 3.6-11.1 0-.3.2-.6.5-.6s.5.2.6.5c.2 2.1-.7 6.4-2.4 9.6 2.1-.6 4.1-1.5 6.1-2.4 2-.9 4.1-1.9 6.6-2.7 4.2-1.3 7.9-.4 11 2.8 1.5 1.5 3.2 2.7 5.1 4 .8.6 1.7 1.2 2.6 1.8 2.5 1.8 2.4 3.3 2.4 4.9v1.5c.3 2.6-1.8 3-2.7 3.2-.1 0-.3.1-.4.1-.1 0-.3.1-.5.1-1 .2-2.5.5-2.8 1.8-.1.2 0 .3 0 .3.2.1 1-.1 1.6-.4.1-.1.3-.1.4 0l.3.3c.2.6.5.7.6.7.7.2 1.8-.4 2.1-.7.2-.1.5-.1.7 0 .5.5 1.1.7 1.5.7.6-.1 1-.7 1-.7.1-.1.2-.2.4-.3.2 0 .3.1.4.2 0 0 .5.5 1.4.8.6.2.8 0 .8-.1.3-.4.2-1.4-.3-2-.7-.9-1-2.2-.8-3.3.2-1.1.7-1.9 1.6-2.5 1.6-1.1 2-2.2 1.9-2.4 0 0-.2 0-.3-.1-.7-.1-1.9-.3-3.2-2.6-1.1-2.1 0-5.4 1.2-9.2.6-1.9 1.3-3.9 1.7-5.9 1.1-5.4-2.4-9.8-2.4-9.8-.2-.2-.2-.5 0-.7 2.4-2.3 3.5-4.5 3.1-6.5-.4-2-2.3-3.4-3.8-4-1.9-.7-5.4-.3-8.7.1-2.8.3-5.5.7-7.2.3-.9-.2-1.5-.6-1.9-1.3-.3-.5-.4-1.1-.4-1.6-.9.3-1.4 1.1-1.4 1.1-.1.1-.3.2-.4.2-.2 0-.3-.1-.4-.2-.4-.6-.6-1.2-.5-1.9.1-.9.7-1.6 1.1-2.1-2-.7-3.5 1-3.5 1.1-.2.2-.5.2-.7.1-.9-.6-1.5-1.8-1.5-3 0-1.1.6-2.1 1.6-2.6.7-.4 1.3-.4 1.9-.2.6.2 1 .7 1.2 1 .7-.8.8-2.3.8-2.3 0-.1.1-.3.2-.4.1-.1.2-.2.4-.1 1.3.1 2.2.5 2.9 1.4.9 1.2 1 2.8.9 3.8 2-1 1.7-3.5 1.7-3.6 0-.2.1-.4.2-.5.1-.1.3-.2.5-.1 2.1.8 2.9 2.7 3.1 4.1.6-.6.6-1.3.6-1.3 0-.2.2-.5.4-.5.2-.1.5 0 .6.3.8 1.5 2.1 2.5 3 3l-.6-1.6c-.1-.2 0-.5.1-.6.2-.2.4-.2.6-.1 1 .6 1.9 1.2 2.8 1.9 1.1.8 2.2 1.7 3.7 2.4s2.5.6 3.1.3c.6-.3 1-.7 1.1-1 .2-.6.3-1.4-.1-1.9-.8-.1-1.2-.3-1.7-.3zM107 53.1s4 1.3 7.6 1.5c.2 0 .4.1.5.3.1.2.1.4-.1.6l-.1.2c.7-.1 1.6-.2 2.5-.2-.4-.4-.8-1-1.3-1.6-1 0-4.5-.2-7.3-1.6-.7-.3-1.9-.9-2.5-.6-.1.1-.3.3-.2.6 0 .3.3.6.9.8zM118.9 45.3h-.1c-.2.1-.3.3-.4.5 0 .3 0 .6.3.8.4.3.8.1 1.1-.2.1-.1.4-.5.2-.9-.5-.1-.8-.2-1.1-.2z"/><path class="st0" d="M113.7 58.3c.3.6.7 1.1 1 1.4.1-.3.3-.6.6-.8.3-.2.8-.4 1.5-.3h.2c.3.1.5.3.6.6.4 1-.3 2.8-.9 4.1.4-.2.9-.4 1.1-.6.2-.1.3-.1.5 0s.3.3.3.4l.1 2.4c.8-.9 1.5-1.9 1.5-1.9.1-.2.3-.3.5-.2.2 0 .4.2.4.4l.6 1.9c.8-.8 1.6-1.9 1.6-1.9.1-.1.3-.2.4-.2.2 0 .3.1.4.3l.9 1.5 1.3-2.7c.1-.2.3-.3.5-.3s.4.2.5.4l1.2 3.3 2.3-1.5c.2-.1.4-.1.6 0 .8.5 1.9.8 2.6 1l-.2-2.1c0-.2 0-.3.1-.4.1-.1.2-.2.4-.2h1.3c-.3-.3-.6-.6-.7-.8-.1-.1-.1-.2-.1-.4-1 0-2.3-.2-3.7-.8l-.8 1.3c-.1.1-.2.2-.3.2h-.1c-.1 0-.2 0-.3-.1l-3.1-2.1-.6 1.6c-.1.2-.2.3-.4.3s-.4 0-.5-.2c-.5-.6-1.3-1.6-1.8-2.1-.4.4-1.2 1.1-2 1.6-.1.1-.3.1-.4 0-.1-.1-.3-.2-.3-.3l-.8-2.3c-.1-.3 0-.6.3-.7.3-.1.6 0 .7.3l.6 1.7c.9-.6 1.6-1.4 1.6-1.4.2-.2.5-.2.7-.1.3.3 1.1 1.2 1.7 1.9l.5-1.4c.1-.2.2-.3.3-.3.2-.1.3 0 .5.1l3.2 2.2.8-1.2c.1-.2.4-.3.7-.2 1.4.7 2.9.9 3.9.9-.6-1.1-.6-2.6-.6-2.9-.8-.4-1.8-.9-2.7-1.7l-.4 1c-.1.2-.2.3-.3.3-.2 0-.3 0-.5-.1l-1.5-1.1-.1 1.2c0 .2-.1.3-.3.4-.2.1-.3.1-.5 0-.1 0-1.3-.8-2.1-1.7-.2-.2-.2-.6 0-.8.2-.2.6-.2.7 0 .3.4.8.7 1.1 1l.2-1.2c0-.2.1-.4.3-.4.2-.1.4-.1.5.1l1.7 1.3.4-1c.1-.2.2-.3.4-.3s.3 0 .5.1c1.3 1.3 2.7 2 3.6 2.3-.3-1.4-.4-3.3-.4-3.3-.8-.5-2-1.3-3-2.5 0 .7-.1 1.3-.2 1.8-.1.1-.2.3-.3.3-.1.1-.3 0-.4 0-.1 0-1.2-.7-2.1-1.7-.1.5-.3 1.1-.5 1.4-.1.2-.4.3-.7.2-.1 0-.9-.4-1.6-1.1-.1.7-.2 1.5-.3 1.9-.1.1-.2.3-.3.3h-.4s-1-.5-1.8-1.2l-.2.9c0 .2-.1.3-.3.4-.1.1-.3.1-.4 0-.1 0-1.6-.7-2.4-1.8-.2-.2-.2-.6.1-.8.2-.2.6-.2.7.1.4.5 1 .9 1.5 1.2l.3-1.1c0-.2.2-.3.4-.4.2-.1.4 0 .5.1.5.5 1.2.9 1.7 1.2.1-.7.2-1.6.2-2.3 0-.2.2-.4.4-.5.2-.1.5.1.6.3.3.5 1 1.1 1.5 1.4.1-.5.3-1.1.5-1.7.1-.2.2-.4.5-.4.2 0 .4.1.5.3.3.7 1.1 1.4 1.7 1.9.1-.8 0-1.9-.1-2.6 0-.3.1-.5.4-.6.3-.1.5 0 .6.3 1.1 2.2 2.9 3.4 3.9 3.9.5-6-1.2-8.2-1.2-8.3-.1-.1-.1-.3-.1-.4 0-.2.1-.3.3-.4.9-.6 1.5-1.6 1.9-2.6-2.1 2.1-5.6 2.9-7.2 3.2l.8 1c.1.2.2.4.1.5-.1.2-.2.3-.4.3-2 .2-3.5-.1-4.5-.4l.3.7c.1.2.1.4 0 .5-.1.2-.3.3-.5.3-1.7-.1-3.1-.8-4.3-1.4-.1.4-.2.8-.6 1.1-.4.4-.9.6-1.4.6-.3 0-.7-.1-1-.3-.6-.4-.9-1.1-.8-1.9.1-.7.5-1.2 1.1-1.4.8-.2 1.7.2 2.8.8.9.5 2 1 3.2 1.3L124 45c-.1-.2-.1-.5.1-.7.2-.2.5-.2.7 0 0 0 1.3 1.1 4.3 1.1l-.8-.9c-.1-.2-.2-.4-.1-.6.1-.2.2-.3.4-.3.1 0 4.4-.5 7.1-2.7-.9.3-1.5.2-1.6.2-.1 0-.3-.1-.4-.2-1.2-1.6-2.5-2.1-3.1-2.2-.4 1.1-1.2 2.1-1.3 2.1-.1.1-.3.2-.4.2-.2 0-.3-.1-.4-.3-.9-1.6-2.3-2-3.1-2.1.1 1.1-.7 2.1-1.2 2.5-.2.2-.5.1-.7 0-2.3-2.1-4-1.5-4.7-1 .2.6.1 1 0 1.3-1.1 2.2-7.8 2.7-9.1 2.8-.2 0-.3-.1-.4-.2-.1-.1-.1-.3-.1-.5.1-.4 0-.8-.2-1.1-.2-.4-.6-.6-.9-.7-.3-.1-1 0-1.4.4-.5.5-.5 1.5-.1 2.7.7 2.3 2.9 4.6 4.3 5.8v-.5c0-.2.2-.4.4-.5.2-.1.4 0 .6.2.5.7 1 1.1 1.4 1.4l.3-1.7c0-.2.2-.4.5-.5.2 0 .5.1.6.3.5 1.2 3.5 4.9 4.6 6.2.1.2.2.4.1.6-.1.2-.3.3-.5.3-1.9-.3-4.8.4-4.8.4-.2.1-.4 0-.6-.2-.1-.2-.1-.4 0-.6l.4-.5c-2.7-.3-5.3-1-6.4-1.3l-.9 2.5 2.4-.2c.2 0 .4.1.5.2.1.2.1.4.1.5l-.5 1.1 2-.5c.3-.1.5.1.6.3.3.7.6 1.1.8 1.4l.6-1.3c.1-.2.3-.3.5-.3-.1.1.1.2.1.4zM106.9 85.9c2.1 1.4 3.8-.2 4.7-1.5-1.9-1.4-3.3-3.2-4.1-5.3-.3-.7-.4-1.4-.6-2.1-.2-.2-3.1-2.5-5.5-5.3-.1.3-.3.6-.4.8.2.7 0 1.3-.2 1.7.1.5 0 1-.1 1.4.4.6.4 1.1.2 1.7-.1.1-.1.2-.2.3.3.4.8 1.2.8 2.9 0 1.2.4 1.8.7 2.2.2-.2.4-.3.6-.3.7-.1 1.2.5 2 1.3.4.8 1.1 1.6 2.1 2.2zM96.5 71.3h-.1c-.8 0-1.5-.1-2.1-.2-.1.2.1.7.2.8.1.1.2.3.2.5s-.1.3-.2.4c-.1.1-.4.3-.4.5s.3.5.4.6c.1.1.2.2.2.4 0 .1 0 .3-.1.4-.1.1-.3.4-.2.6 0 .1 0 .2.3.4.1.1.2.2.2.4 0 .1 0 .3-.1.4 0 0-.1.2-.1.4.1.2.4.4.6.5.4.2 1.1.4 1.8.4h.1c.6 0 1.1 0 1.6-.2s.8-.4 1-.8c0-.1.1-.3-.3-.8-.2-.2-.2-.5 0-.7 0 0 .4-.5.1-.9-.1-.2-.1-.5.1-.6 0 0 .4-.4.1-1.1-.1-.2 0-.4.1-.6 0 0 .5-.5.5-1.3-.1-.1-.1-.2-.2-.2-1 .4-2.2.7-3.7.7zM101.4 33.6c-2.1 1.2-6.7 4.9-6.8 15l.1 17v.1c.3.5.1 1.2 0 1.7 1.3.5 3 .3 3.7.1-.1-.4-.3-1.1.2-1.9-.1-20.3 1.8-29 2.8-32z"/><path class="st0" d="M101.6 67.7c0-.9-.6-1.5-1.3-1.8-.1 0-.6-.2-.8.1-.4.5-.2.9-.1 1.2.1.2.1.4.1.6-.1.3-.3.4-.4.5-.7.3-3.4.8-5.3-.2-.3-.1-.4-.5-.2-.7.2-.4.3-1 .2-1.2 0 0 0-.1-.2-.1h-.4c-.6 0-1.2.2-1.6.6-.3.3-.3.6-.2 1.1.3 1.5 2.2 2.5 5.1 2.5 2 0 3.8-.5 4.6-1.4.3-.4.5-.8.5-1.2zM97 80.5c.1-.2.3-.2.5-.2.4.1 1.3.3 1.8-.1.2-.1.2-.5.1-.8 0-.1-.2-.4-.7-.1-.5.2-1.3.4-1.7 0-.1-.1-.2-.2-.2-.3h-.4c0 .1-.1.2-.2.3-.5.4-1.2.2-1.7 0s-.7 0-.7.1c-.1.3-.1.6.1.8.5.4 1.4.2 1.7.2.2 0 .4 0 .6.2.1.2.2.4.1.6-.3.1-.8 1.1-1.3 1.8.7 1 1.2 2.7-.1 4.3-.1.1-.3.2-.4.2-.2 0-.3-.1-.4-.2-.1-.1-.3-.4-.6-.5-.1 0-.2 0-.4.1-.1.1-.2.4-.1.8.2.6.9 1 1.8.9.2 0 .4.1.5.3.1.2 0 .5-.1.6l-.9.8 1.4.4c.2 0 .3.2.4.4 0 0 .2.8.6 1.4.4-.6.6-1.4.6-1.4.1-.2.2-.3.4-.4l1.4-.4-.9-.8c-.2-.1-.2-.4-.1-.6.1-.2.3-.4.5-.3.9 0 1.6-.3 1.8-.9.1-.4 0-.7-.1-.8-.2-.1-.4-.1-.4-.1-.3.1-.6.4-.6.5-.1.1-.2.2-.4.2s-.3-.1-.4-.2c-1.3-1.6-.8-3.3-.1-4.3-.5-.6-1-1.7-1.1-1.9-.4-.2-.4-.4-.3-.6z"/><path class="st4" d="M171.4 45.3c-.3-.4-.8-1-1.9-1.1-.7-.1-1.4.2-1.8.6-.4.4-.5.8-.6 1.2-.7-.4-1.9-1.3-3.1-2.2-3.5-2.6-8.8-6.6-14-7.3-4.2-.5-9 .3-11.7 2.8 0-.3.1-.6.1-.6 0-.1 0-.2-.1-.3l-.2-.2h-.3-.1c-.1 0-.2.1-.2.2-1.1 1.5-2.6 1.7-3.2 1.7-2-2.4-4.1-2.5-4.2-2.5-.3 0-.5.2-.5.5-.1.6-.4 1.1-.7 1.5-1.7-2.2-4.2-2-4.3-2-.2 0-.3.1-.4.3-.1.2-.1.3 0 .5.3.7-.1 1.3-.4 1.7-3.4-2.8-6.1-.5-6.1-.5-.2.2-.2.5-.1.7.3.4.2.6.1.7-.6 1.2-4.6 1.9-7.6 2.1 0-.4-.1-.9-.4-1.3-.4-.6-1-1.1-1.6-1.2-.7-.2-1.8 0-2.4.7-.7.8-.8 2.1-.3 3.8.8 2.6 3.3 5.1 4.7 6.4-.3-.1-.7-.3-1-.4-.8-.4-2.3-1.1-3.3-.6-.5.3-.9 1-.8 1.7 0 .3.2 1.1 1.2 1.6l-1.2 3.3c-.1.2 0 .4.1.5.1.1.3.2.5.2l2.4-.2-.5 1.3c-.1.2 0 .4.1.6.1.2.3.2.5.2l2.6-.7c.7 1.4 1.5 1.9 1.6 1.9.1.1.3.1.4 0 .1 0 .3-.2.3-.3l.4-.9c.4.6.9 1 1.2 1.2-.2.1-.3.3-.5.4-1.8 1.5-4.2 3.5-6 7-.9 1.7-1.6 4.4-1.4 7.2-1.3-1.1-3.7-3.3-5.4-5.5.2-.1.4-.3.6-.5.6-.6.8-1.2.8-1.9 0-1.4-1-2.4-2-2.8-.4-.1-.7-.1-1-.1 0-23.6 2.6-30.8 3.1-32 .1-.2.1-.4-.1-.6-.1-.2-.3-.2-.5-.2-.3.1-8.5 2.7-8.7 16.5l.1 16.6c-1.1-.1-2.2.2-2.8.9-.3.4-.7 1-.5 2.1.3 1.4 1.3 2.3 3 2.9 0 .2-.1.4 0 .6 0 .3.1.6.3.9-.2.2-.4.6-.4 1s.2.8.5 1.2c-.1.3-.2.6-.2 1 0 .2.1.6.4.9-.1.2-.1.5 0 .9s.3.7.6.9c-.8-.2-1.4.2-1.6.7-.4.7-.2 1.7.4 2.2.5.4 1.1.5 1.6.5-.3.5-.6.9-.7 1-.1.1-.2.2-.2.4 0 .1 0 .3.1.4.1.1 1.2 1.4.5 2.8-.2-.2-.5-.3-.8-.4-.4-.1-.9 0-1.2.3-.6.4-.8 1.2-.5 2 .2.6.7 1.2 1.6 1.5l-.7.7c-.2.1-.2.3-.2.5s.2.4.4.4l2.1.5c.2.5.5 1.4 1.2 2 .1.1.3.2.4.2s.3-.1.4-.2c.6-.6 1-1.6 1.2-2l2.1-.5c.2 0 .3-.2.4-.4 0-.2 0-.4-.2-.5l-.7-.7c.9-.3 1.4-.9 1.6-1.5.3-.8.1-1.6-.5-2-.4-.3-.8-.4-1.2-.3-.3.1-.6.2-.8.4-.7-1.4.5-2.7.5-2.8.1-.1.1-.3.1-.4 0-.1-.1-.3-.2-.4-.2-.1-.5-.6-.7-1 .5 0 1.1-.1 1.6-.5l.3-.3c0 2.4 1.5 3.3 1.6 3.4.3.2.6.1.7-.2.1-.2.2-.2.2-.3.2 0 .7.6 1.1 1 .6.7 1.4 1.5 2.5 2.2.8.5 1.5.7 2.2.7 1.9 0 3.3-1.6 3.9-2.5 1.2.8 2.5 1.4 4.1 2h.2l.6 1.8c.7 1.9 1.3 3.9 1.1 5.5-.3 2-3.4 2-5 1.7-1.1-.2-2.2.1-2.9.8-.8.7-1.2 1.8-1 2.9.1.8.5 1.1.8 1.3.7.4 1.7.1 2.2-.1 1.2 1.1 2.6.6 3.5.1.5.5 1.1.7 1.8.7h.1c1 0 1.8-.5 2.2-.8 2 .8 3.2.2 3.4.1 1.7-1.4 1.4-4 1.2-5.1 3.4-1.1 4.5-4.1 4.6-4.2.1-.2 0-.4-.1-.5-.1-.1-.3-.2-.5-.2-1.1.3-1.9.1-2.3-.5-.5-.9-.2-2.3.9-3.6l.6-.9c2.6-.6 4.9-1.7 7.3-2.8 2-.9 4-1.9 6.4-2.7.7-.2 1.3-.3 2-.4-.2 2.9 1.3 4.9 2.7 6.7.4.5.8 1 1.2 1.6 1.5 2.3 1.2 7.1 1.1 7.5-.1.2-1.1 1.3-2.6 1.1-1.2-.2-2.6.2-3.5 1-.6.6-1 1.3-1 2.1 0 .7.3 1 .6 1.1.8.5 2 0 2.7-.4.6.5 1.3.7 1.9.7.7 0 1.4-.3 1.9-.6 1.4.9 2.9.4 3.7-.2 1 .6 1.9.5 2.4.2.2-.1.3-.2.5-.3 0 0 0 .1.1.1.6.5 1.6.2 2.3 0 .3.5.7.7 1 .8 1 .3 2.1-.2 2.7-.6.7.5 1.4.8 2 .7.6-.1 1.1-.4 1.3-.7.3.2.8.5 1.4.7.3.1.5.1.7.1.7 0 1.1-.4 1.3-.7.6-.9.3-2.5-.4-3.3-.4-.5-.7-1.5-.6-2.5.1-.5.4-1.3 1.2-1.8 1.4-.9 2.4-2.2 2.4-3.2 0-.4-.1-.8-.4-1-.3-.2-.6-.2-.8-.3-.6-.1-1.4-.2-2.4-2.1-.9-1.7.2-4.9 1.3-8.4.6-2 1.3-4 1.7-6 1-5-1.4-9.1-2.3-10.3 2.5-2.5 3.5-4.9 3.1-7.1-.5-2.5-2.7-4.1-4.5-4.8-2.1-.8-5.7-.4-9.2 0-2.7.3-5.3.6-6.8.3-.6-.1-1-.4-1.2-.8-.4-.7-.2-1.6-.2-1.6 0-.2 0-.3-.1-.5-.1-.1-.3-.2-.4-.2-1 0-1.8.6-2.3 1.1v-.4c.1-1 1.3-1.9 1.3-2 .1-.1.2-.3.2-.5s-.1-.3-.3-.4c-2.2-1.3-4.2-.3-5.2.6-.4-.4-.7-1.1-.7-1.8 0-.4.2-1.2 1-1.7.4-.2.7-.3 1-.1.5.2.8.8.9 1.1.1.1.2.3.3.3.1.1.3 0 .4 0 1.2-.7 1.6-2.2 1.7-3 .7.1 1.2.4 1.6.9 1.1 1.4.6 3.8.6 3.9 0 .2 0 .4.2.5.1.1.3.2.5.1 2.4-.7 3.2-2.6 3.3-4.1 1.8 1.2 1.7 3.6 1.7 3.7 0 .2.1.4.2.5.1.1.3.1.5.1.9-.4 1.4-1 1.6-1.5 1.7 2.2 4 3 4.1 3 .2.1.4 0 .5-.1.1-.2.2-.4.1-.6l-.5-1.3c.4.3.8.6 1.2 1 1.1.9 2.2 1.8 3.9 2.6 1.9.9 3.2.7 4 .4.8-.3 1.4-.9 1.7-1.6-.6-.9-.5-2.1-1.1-3zm-.8 2.5c-.1.3-.5.7-1.1 1-.6.2-1.6.4-3.1-.3s-2.6-1.6-3.7-2.4c-.9-.7-1.7-1.3-2.8-1.9-.2-.1-.4-.1-.6.1-.2.2-.2.4-.1.6l.6 1.6c-.9-.5-2.2-1.5-3-3-.1-.2-.4-.3-.6-.3-.2.1-.4.3-.4.5 0 0 0 .8-.6 1.3-.2-1.4-1-3.4-3.1-4.1-.2-.1-.4 0-.5.1-.1.1-.2.3-.2.5 0 .1.3 2.5-1.7 3.6.1-1 0-2.6-.9-3.8-.7-.9-1.6-1.3-2.9-1.4-.1 0-.3 0-.4.1-.1.1-.2.2-.2.4 0 0-.1 1.5-.8 2.3-.2-.4-.6-.8-1.2-1-.6-.2-1.2-.2-1.9.2-1 .5-1.6 1.5-1.6 2.6 0 1.2.6 2.4 1.5 3 .2.1.5.1.7-.1.1-.1 1.6-1.8 3.5-1.1-.4.5-1 1.2-1.1 2.1-.1.7.1 1.3.5 1.9.1.1.2.2.4.2s.3-.1.4-.2c0 0 .6-.8 1.4-1.1 0 .5.1 1 .4 1.6.4.7 1 1.1 1.9 1.3 1.7.4 4.4 0 7.2-.3 3.4-.4 6.8-.8 8.7-.1 1.5.6 3.4 2 3.8 4 .4 1.9-.7 4.1-3.1 6.5-.2.2-.2.5 0 .7 0 0 3.5 4.4 2.4 9.8-.4 2-1.1 4-1.7 5.9-1.2 3.8-2.3 7.1-1.2 9.2 1.3 2.4 2.5 2.5 3.2 2.6.1 0 .3 0 .3.1.1.2-.3 1.4-1.9 2.4-.9.6-1.5 1.5-1.6 2.5-.2 1.2.1 2.5.8 3.3.5.7.6 1.7.3 2-.1.1-.2.3-.8.1-.9-.3-1.4-.8-1.4-.8-.1-.1-.3-.2-.4-.2-.2 0-.3.1-.4.3 0 0-.4.6-1 .7-.5.1-1-.2-1.5-.7-.2-.2-.5-.2-.7 0-.3.2-1.4.9-2.1.7-.1 0-.4-.1-.6-.7 0-.1-.2-.3-.3-.3-.1-.1-.3-.1-.4 0-.6.3-1.4.5-1.6.4v-.3c.4-1.3 1.9-1.6 2.8-1.8.2 0 .3-.1.5-.1.1 0 .2-.1.4-.1 1-.2 3-.6 2.7-3.2-.1-.5 0-1 0-1.5 0-1.6.1-3.1-2.4-4.9-.9-.7-1.8-1.3-2.6-1.8-1.9-1.3-3.6-2.4-5.1-4-3.1-3.2-6.8-4.1-11-2.8-2.5.8-4.6 1.8-6.6 2.7-2 .9-3.9 1.8-6.1 2.4 1.7-3.2 2.6-7.6 2.4-9.6 0-.3-.3-.5-.6-.5s-.5.3-.5.6c.2 2.4-1.2 8.2-3.6 11.1-1.4 1.7-1.8 3.6-1 4.8.5.8 1.3 1.2 2.4 1.2-.6.9-1.8 2.3-3.9 2.8-.1 0-.3.1-.3.3-.1.1-.1.3-.1.4 0 0 .9 3.2-.6 4.5 0 0-1 .5-2.7-.3-.2-.1-.4-.1-.6.1 0 0-.9.8-1.8.8-.5 0-.9-.2-1.4-.7-.2-.2-.5-.2-.7 0-.1.1-1.6 1.3-2.7.1-.2-.2-.4-.2-.6-.1-.4.2-1.2.5-1.5.3 0 0-.2-.1-.2-.5-.1-.8.2-1.5.7-2 .5-.5 1.2-.7 2-.6 2.8.5 5.8-.1 6.2-2.6.3-1.8-.4-3.9-1.1-6-.5-1.6-1.1-3.2-1.1-4.5 0-2.7.5-5.2.5-5.2.1-.3-.1-.6-.4-.6-.3-.1-.6.1-.6.4 0 .1-.6 2.7-.5 5.5 0 .6.1 1.1.2 1.7-4-1.5-6.7-3.9-7.9-7-1.5-3.7-.6-7.7.5-10 1.6-3.3 3.9-5.1 5.7-6.6.8-.7 1.6-1.3 2.1-2-.1.9-.8 2.7-1.6 4.2-.1.2-.1.4 0 .6.1.2.4.2.6.2.5-.1 1.3-.6 1.9-.9l.2 2.7c0 .2.1.4.3.5.2.1.4.1.5-.1.7-.6 1.4-1.4 1.9-2l.5 1.7c.1.2.2.3.3.3.2.1.3 0 .5-.1.8-.5 1.5-1.4 1.9-2l1 1.6c.1.2.3.3.5.3s.4-.1.4-.3l1.2-2.4 1 2.7c.1.2.2.3.3.3h.2c.1 0 .2 0 .3-.1l2.6-1.7c1.4.8 3.3 1.1 3.4 1.1.2 0 .3 0 .4-.1.1-.1.2-.3.2-.4l-.2-2.3h2.3c.3 0 .5-.2.5-.5s-.1-.5-.4-.6c-.2-.1-.8-.6-1.3-1.2h.1c1.3.1 23.7 1.8 28.6-1.9 2.7-2 2.5-3.9 2.2-4.8-.7-1.9-3.4-3.1-6.1-2.8-1.1.1-2.2.3-3.4.6-3.3.6-7.1 1.3-10.3.5-1.2-.3-2.3-.7-3.2-1.1-1.6-.6-2.7-1-3.5-.5-.4.2-.6.6-.8 1.1-.6-.6-1.2-1.8-.4-3.3.1-.2.1-.5-.1-.6 0 0-3.1-3.4-1.7-7.1 1.3-3.3 6.4-5.2 12.1-4.4 4.9.6 10.1 4.5 13.5 7.1 2.2 1.6 3.3 2.5 4.1 2.6.2 0 .3 0 .4-.1.1-.1.2-.3.2-.4 0 0 0-.7.4-1.1.2-.2.5-.3 1-.3s.9.2 1.1.6c1 .2.9 1 .7 1.6zM154 100.1c-.5.2-1.1.1-1.7-.4-.2-.1-.5-.1-.6 0-.1.1-1.6 1.4-3 .2-.2-.2-.5-.2-.7 0-.2.1-1.6 1.3-3 0-.2-.2-.4-.2-.6-.1-.7.4-1.7.7-2 .6v-.2c0-.6.3-1 .6-1.3.7-.6 1.7-.9 2.6-.8 2 .3 3.5-1.1 3.7-1.8.2-.6.6-5.8-1.2-8.6-.4-.6-.8-1.1-1.2-1.6-1.4-1.8-2.7-3.5-2.5-6.1 2.6-.1 4.9.9 6.9 3 1.1 1.1 2.2 2 3.4 2.9-.5.5-1.2 1.4-1.3 2.4 0 .5.1.9.4 1.2.8.9 1.6.8 2.2.8h.3c-.1.4-.7 1.1-1.1 1.7-1 1.5-1.7 2.5-1.6 3.3.1.5.3 1.3.5 2.1.2.7.5 1.9.5 2.1.1.1-.2.4-.6.6zm2.2-7.5c1-1.4 1.5-2.2 1.2-2.8-.3-.6-.9-.6-1.4-.6-.5 0-1 0-1.4-.4-.1-.1-.2-.3-.1-.4 0-.6.7-1.4 1.1-1.8l.9.6c.8.6 1.7 1.2 2.6 1.8 2 1.5 2 2.5 1.9 4v1.7c.1 1.5-.7 1.8-1.9 2-.2 0-.3.1-.4.1-.1 0-.3.1-.4.1-.8.2-2 .4-2.8 1.2-.1-.3-.2-.6-.3-1-.2-.8-.4-1.5-.5-2 0-.4 1-1.8 1.5-2.5zm-53.6-10.1c-.2 0-.4.1-.6.3-.3-.4-.7-1-.7-2.2 0-1.7-.5-2.6-.8-2.9.1-.1.1-.2.2-.3.2-.5.2-1.1-.2-1.7.2-.4.3-.9.1-1.4.2-.4.4-1 .2-1.7.1-.2.3-.4.4-.8 2.4 2.7 5.3 5.1 5.5 5.3.1.7.3 1.4.6 2.1.8 2.1 2.2 3.9 4.1 5.3-.9 1.3-2.6 2.9-4.7 1.5-1-.7-1.7-1.4-2.3-2.1-.5-.9-1.1-1.4-1.8-1.4zm-4.4 4.8c.1.1.3.2.4.2.2 0 .3-.1.4-.2.1-.1.3-.4.6-.5.1 0 .2 0 .4.1.1.1.2.4.1.8-.2.6-.9 1-1.8.9-.2 0-.4.1-.5.3-.1.2 0 .5.1.6l.9.8-1.4.4c-.2 0-.3.2-.4.4 0 0-.2.8-.6 1.4-.4-.6-.6-1.4-.6-1.4-.1-.2-.2-.3-.4-.4l-1.4-.4.9-.8c.2-.2.2-.4.1-.6-.1-.2-.3-.4-.5-.3-.9 0-1.6-.3-1.8-.9-.1-.4 0-.7.1-.8.2-.1.3-.1.4-.1.3.1.6.4.6.5.1.1.2.2.4.2s.3-.1.4-.2c1.3-1.6.8-3.3.1-4.3.5-.6 1-1.7 1.1-1.9.1-.2 0-.4-.1-.6-.1-.2-.4-.2-.6-.2-.3.1-1.2.3-1.7-.2-.2-.1-.2-.5-.1-.8 0-.1.2-.4.7-.1.5.2 1.3.4 1.7 0 .1-.1.2-.2.2-.3h.4c0 .1.1.2.2.3.5.4 1.2.2 1.7 0 .6-.2.7 0 .7.1.1.3.1.6-.1.8-.5.4-1.4.2-1.8.1-.2 0-.4 0-.5.2-.1.2-.1.4-.1.6.1.2.6 1.3 1.1 1.9 0 1.1-.6 2.8.7 4.4zm1.7-15.2c-.2.1-.2.4-.1.6.3.7-.1 1.1-.1 1.1-.2.2-.2.4-.1.6.2.4-.1.9-.1.9-.2.2-.1.5 0 .7.4.5.3.7.3.8-.1.3-.5.6-1 .8-.5.2-1.1.2-1.6.2h-.1c-.7 0-1.3-.2-1.8-.4-.2-.1-.5-.3-.6-.5-.1-.2.1-.4.1-.4.1-.1.1-.3.1-.4 0-.1-.1-.3-.2-.4-.3-.2-.3-.4-.3-.4 0-.3.2-.6.2-.6.1-.1.1-.3.1-.4 0-.1-.1-.3-.2-.4-.2-.1-.4-.4-.4-.6 0-.2.3-.5.4-.5.1-.1.2-.3.2-.4 0-.2-.1-.3-.2-.5-.1-.1-.3-.6-.2-.8.6.1 1.3.2 2.1.2h.1c1.4 0 2.7-.3 3.7-.7.1.1.1.2.2.2 0 .8-.4 1.3-.5 1.3zm-3.5-1.9c-2.9 0-4.8-1-5.1-2.5-.1-.5 0-.8.2-1.1.3-.4.9-.6 1.6-.6h.4c.1 0 .2.1.2.1.1.2 0 .8-.2 1.2-.1.3 0 .6.2.7 1.9 1 4.6.6 5.3.2.1 0 .3-.2.4-.5.1-.2 0-.4-.1-.6-.1-.3-.3-.7.1-1.2.2-.3.6-.1.8-.1.6.2 1.3.9 1.3 1.8 0 .4-.2.8-.5 1.1-.8 1-2.6 1.5-4.6 1.5zm2-2.8c-.7.2-2.4.4-3.7-.1.2-.5.3-1.2 0-1.7v-.1l-.1-17c.1-10.1 4.7-13.8 6.8-15-1 3.1-2.8 11.7-2.8 32-.5.8-.4 1.5-.2 1.9zm14.4-9.1l-.6 1.3c-.3-.3-.6-.7-.8-1.4-.1-.3-.4-.4-.6-.3l-2 .5.5-1.1c.1-.2 0-.4-.1-.5-.1-.2-.3-.2-.5-.2l-2.4.2.9-2.5c1.1.3 3.7 1 6.4 1.3l-.4.5c-.1.2-.2.4 0 .6.1.2.3.3.6.2 0 0 2.9-.7 4.8-.4.2 0 .4-.1.5-.3.1-.2.1-.4-.1-.6-1.1-1.3-4.2-5.1-4.6-6.2-.1-.2-.3-.4-.6-.3-.2 0-.4.2-.5.5l-.3 1.7c-.4-.3-.9-.7-1.4-1.4-.1-.2-.4-.3-.6-.2-.2.1-.4.3-.4.5v.5c-1.4-1.2-3.5-3.5-4.3-5.8-.4-1.3-.4-2.2.1-2.7.4-.4 1.1-.5 1.4-.4.4.1.7.3.9.7.2.4.3.8.2 1.1 0 .2 0 .3.1.5.1.1.3.2.4.2 1.3-.1 8-.5 9.1-2.8.2-.3.3-.8 0-1.3.7-.4 2.5-1 4.7 1 .2.2.5.2.7 0 .5-.4 1.3-1.3 1.2-2.5.8.1 2.1.5 3.1 2.1.1.1.2.2.4.3.2 0 .3 0 .4-.2 0 0 .9-1 1.3-2.1.6.2 1.9.6 3.1 2.2.1.1.2.2.4.2.1 0 .7 0 1.6-.2-2.7 2.2-7 2.6-7.1 2.7-.2 0-.4.1-.4.3-.1.2 0 .4.1.6l.8.9c-3 .1-4.3-1-4.3-1.1-.2-.2-.5-.2-.7 0-.2.2-.3.4-.1.7l.7 1.2c-1.2-.3-2.3-.8-3.2-1.3-1.1-.6-2-1.1-2.8-.8-.6.2-1 .7-1.1 1.4-.1.8.2 1.5.8 1.9.3.2.7.3 1 .3.5 0 1-.2 1.4-.6.3-.3.5-.7.6-1.1 1.2.6 2.6 1.3 4.3 1.4.2 0 .4-.1.5-.3.1-.2.1-.4 0-.5l-.3-.7c1 .3 2.5.6 4.5.4.2 0 .4-.1.4-.3.1-.2 0-.4-.1-.5l-.8-1c1.7-.3 5.1-1.1 7.2-3.2-.4 1-.9 2-1.9 2.6-.1.1-.2.2-.3.4 0 .2 0 .3.1.4 0 0 1.7 2.3 1.2 8.3-1-.5-2.9-1.7-3.9-3.9-.1-.2-.4-.3-.6-.3-.2.1-.4.3-.4.6.1.7.1 1.8.1 2.6-.6-.4-1.4-1.1-1.7-1.9-.1-.2-.3-.3-.5-.3s-.4.2-.5.4c-.1.6-.3 1.3-.5 1.7-.5-.3-1.2-.9-1.5-1.4-.1-.2-.3-.3-.6-.3-.2.1-.4.3-.4.5 0 .6-.1 1.6-.2 2.3-.5-.3-1.2-.8-1.7-1.2-.1-.1-.3-.2-.5-.1s-.3.2-.4.4l-.3 1.1c-.5-.3-1.1-.7-1.5-1.2-.2-.2-.5-.3-.7-.1-.2.2-.3.5-.1.8.9 1.1 2.4 1.8 2.4 1.8.1.1.3.1.4 0 .1-.1.2-.2.3-.4l.2-.9c.9.7 1.8 1.2 1.8 1.2.1.1.3.1.4 0 .1-.1.3-.2.3-.3.2-.4.3-1.2.3-1.9.7.6 1.5 1.1 1.6 1.1.2.1.5 0 .7-.2.1-.3.3-.8.5-1.4.9 1 2 1.7 2.1 1.7.1.1.3.1.4 0 .1-.1.3-.2.3-.3.2-.4.2-1.1.2-1.8 1 1.3 2.2 2.1 3 2.5 0 .1.1 1.9.4 3.3-.9-.3-2.3-1-3.6-2.3-.1-.1-.3-.2-.5-.1-.2 0-.3.2-.4.3l-.4 1-1.7-1.3c-.2-.1-.3-.1-.5-.1-.2.1-.3.2-.3.4l-.2 1.2c-.4-.3-.8-.6-1.1-1-.2-.2-.5-.2-.7 0-.2.2-.2.5 0 .8.7.9 2 1.6 2.1 1.7.2.1.3.1.5 0s.3-.2.3-.4l.1-1.2 1.5 1.1c.1.1.3.1.5.1s.3-.2.3-.3l.4-1c1 .8 2 1.4 2.7 1.7 0 .3.1 1.8.6 2.9-1 0-2.5-.2-3.9-.9-.2-.1-.5 0-.7.2l-.8 1.2-3.2-2.2c-.1-.1-.3-.1-.5-.1-.2.1-.3.2-.3.3l-.5 1.4c-.6-.7-1.4-1.6-1.7-1.9-.2-.2-.5-.2-.7.1 0 0-.7.8-1.6 1.4l-.6-1.7c-.1-.3-.4-.4-.7-.3-.3.1-.4.4-.3.7l.8 2.3c.1.1.2.3.3.3.1.1.3 0 .4 0 .8-.5 1.6-1.2 2-1.6.5.5 1.3 1.5 1.8 2.1.1.1.3.2.5.2s.3-.2.4-.3l.6-1.6 3.1 2.1c.1.1.2.1.3.1h.1c.1 0 .3-.1.3-.2l.8-1.3c1.4.6 2.7.8 3.7.8 0 .1 0 .3.1.4.1.2.4.5.7.8H134c-.1 0-.3.1-.4.2-.1.1-.1.3-.1.4l.2 2.1c-.7-.2-1.9-.5-2.6-1-.2-.1-.4-.1-.6 0l-2.3 1.5-1.2-3.3c-.1-.2-.3-.3-.5-.4-.2 0-.4.1-.5.3l-1.3 2.7-.9-1.5c-.1-.2-.3-.2-.4-.3-.2 0-.3.1-.4.2 0 0-.7 1.1-1.6 1.9l-.6-1.9c-.1-.2-.2-.3-.4-.4-.2 0-.4.1-.5.2 0 0-.7 1-1.5 1.9l-.1-2.4c0-.2-.1-.3-.3-.4-.2-.1-.3-.1-.5 0s-.6.3-1.1.6c.6-1.3 1.3-3.2.9-4.1-.1-.3-.3-.5-.6-.6h-.1-.1c-.7-.2-1.2.1-1.5.3-.3.2-.5.5-.6.8-.3-.3-.7-.8-1-1.4-.1-.2-.3-.3-.5-.3l-.1.2zm-4.1-6.1c2.9 1.4 6.4 1.6 7.3 1.6.5.6.9 1.1 1.3 1.6-.9 0-1.8.1-2.5.2l.1-.2c.1-.2.2-.4.1-.6-.1-.2-.3-.3-.5-.3-3.6-.2-7.5-1.5-7.6-1.5-.6-.2-.9-.5-1-.9 0-.3.1-.5.2-.6.8-.2 2 .4 2.6.7zm5 .3c.1-.1.2-.2.2-.3l.2-1c.3.5.7 1 1.1 1.5-.4 0-.9-.1-1.5-.2zm-.9-.1c-.3 0-.5-.1-.8-.2v-.4-.1c.3.4.6.6.8.7zm7-5.9c-.2.2-.7.4-1.1.2-.3-.2-.4-.6-.3-.8 0-.2.1-.5.4-.5h.1c.3 0 .6.1 1 .3.3.3 0 .7-.1.8zm20.1 8.1c.2.1.3.1.5 0s.3-.2.3-.4c.1-.7.3-1.1.5-1.2.4-.3 1.4.1 2.6.6.9.3 2 .8 3.3 1.1 3.3.8 7.2.1 10.7-.5 1.2-.2 2.3-.4 3.3-.6 2.2-.3 4.4.7 5 2.1.4 1.1-.2 2.3-1.8 3.5-4.4 3.3-25.6 1.8-27.7 1.7-.6-.6-.8-1.7-.9-2.5l.6.2h.1c.2 0 .3-.1.4-.2.1-.1.2-.4.1-.5-.3-.9-.5-2.6-.6-3.5.1 0 .3 0 .4-.1.1-.1.2-.2.2-.4.6-5.4-.5-8.3-1-9.3.1-.1.3-.2.4-.3 0 2.6 1.5 4.6 2.1 5.4-1.1 2.4.5 4.2 1.5 4.9z"/><path class="st0" d="M86.9 26.8c-.2-4.4-1.2-11.4-4.4-11.6-1.8-.1-2.7 1.1-2.8 1.1-.1.1-.3.2-.5.2l-1.2-.1.2.8c.1.2 0 .4-.2.6-.1.1-1.8 1.6-.8 3.6.8 1.5 3.4 2.2 5.3 2.7.9.2 1.6.4 2.1.7.9.5 1.7 1.2 2.3 2z"/><path class="st4" d="M82.5 14.1c-1.9-.1-3 .9-3.4 1.3l-1.7-.1c-.2 0-.3.1-.4.2-.1.1-.1.3-.1.5l.3 1.2c-.8.9-1.8 2.7-.8 4.7 1 1.9 3.9 2.7 6 3.3.8.2 1.5.4 1.9.6 1.2.6 2.2 2 2.8 3.1.1.2.3.3.5.3h.1c.2-.1.4-.3.4-.5-.1-.6-.1-14.3-5.6-14.6zm.1 10.1c-1.9-.5-4.5-1.2-5.3-2.7-1.1-2 .7-3.5.8-3.6.2-.1.2-.4.2-.6l-.3-.9 1.2.1c.2 0 .3-.1.5-.2 0 0 .9-1.2 2.8-1.1 3.2.2 4.2 7.2 4.4 11.6-.6-.8-1.3-1.5-2.2-1.9-.5-.3-1.3-.5-2.1-.7z"/><path class="st0" d="M175.2 26.8c.2-4.4 1.2-11.4 4.4-11.6 1.8-.1 2.7 1.1 2.8 1.1.1.1.3.2.5.2l1.2-.1-.2.8c-.1.2 0 .4.2.6.1.1 1.8 1.6.8 3.6-.8 1.5-3.4 2.2-5.3 2.7-.9.2-1.6.4-2.1.7-.9.5-1.7 1.2-2.3 2z"/><path class="st4" d="M174.1 28.7c0 .3.2.5.4.5h.1c.2 0 .4-.1.5-.3.5-1.1 1.5-2.5 2.8-3.1.4-.2 1.1-.4 1.9-.6 2.1-.6 5-1.4 6-3.3 1.1-2 .1-3.8-.8-4.7l.3-1.2c0-.2 0-.3-.1-.5-.1-.1-.3-.2-.4-.2l-1.7.1c-.4-.5-1.6-1.4-3.4-1.3-5.7.3-5.6 14-5.6 14.6zm3.3-3.9c-.9.4-1.6 1.1-2.2 1.9.2-4.4 1.2-11.4 4.4-11.6 1.8-.1 2.7 1.1 2.8 1.1.1.1.3.2.5.2l1.2-.1-.2.8c-.1.2 0 .4.2.6.1.1 1.8 1.6.8 3.6-.8 1.5-3.4 2.2-5.3 2.7-1 .4-1.7.6-2.2.8z"/><path class="st0" d="M175.2 107.2c.2 4.4 1.2 11.4 4.4 11.6 1.8.1 2.7-1.1 2.8-1.1.1-.1.3-.2.5-.2l1.2.1-.2-.8c-.1-.2 0-.4.2-.6.1-.1 1.8-1.6.8-3.6-.8-1.5-3.4-2.2-5.3-2.7-.9-.2-1.6-.4-2.1-.7-.9-.5-1.7-1.2-2.3-2z"/><path class="st4" d="M179.6 119.9c1.9.1 3-.9 3.4-1.3l1.7.1c.2 0 .3-.1.4-.2.1-.1.1-.3.1-.5l-.3-1.2c.8-.9 1.8-2.7.8-4.7-1-1.9-3.9-2.7-6-3.3-.8-.2-1.5-.4-1.9-.6-1.2-.6-2.2-2-2.8-3.1-.1-.2-.3-.3-.5-.3h-.1c-.2.1-.4.3-.4.5.1.6 0 14.3 5.6 14.6zm-.1-10.1c1.9.5 4.5 1.2 5.3 2.7 1.1 2-.7 3.5-.8 3.6-.2.1-.2.4-.2.6l.2.8-1.2-.1c-.2 0-.3.1-.5.2 0 0-.9 1.2-2.8 1.1-3.2-.2-4.2-7.2-4.4-11.6.6.8 1.3 1.5 2.2 1.9.6.4 1.3.6 2.2.8z"/><path class="st0" d="M86.9 107.2c-.2 4.4-1.2 11.4-4.4 11.6-1.8.1-2.7-1.1-2.8-1.1-.1-.1-.3-.2-.5-.2l-1.2.1.2-.8c.1-.2 0-.4-.2-.6-.1-.1-1.8-1.6-.8-3.6.8-1.5 3.4-2.2 5.3-2.7.9-.2 1.6-.4 2.1-.7.9-.5 1.7-1.2 2.3-2z"/><path class="st4" d="M88 105.3c0-.3-.2-.5-.4-.5h-.1c-.2 0-.4.1-.5.3-.5 1.1-1.5 2.5-2.8 3.1-.4.2-1.1.4-1.9.6-2.1.6-5 1.4-6 3.3-1.1 2-.1 3.8.8 4.7l-.3 1.2c0 .2 0 .3.1.5.1.1.3.2.4.2l1.7-.1c.4.5 1.6 1.4 3.4 1.3 5.6-.3 5.6-14 5.6-14.6zm-3.3 3.9c.9-.4 1.6-1.1 2.2-1.9-.2 4.4-1.2 11.4-4.4 11.6-1.8.1-2.7-1.1-2.8-1.1-.1-.1-.3-.2-.5-.2l-1.2.1.2-.8c.1-.2 0-.4-.2-.6-.1-.1-1.8-1.6-.8-3.6.8-1.5 3.4-2.2 5.3-2.7.9-.4 1.7-.6 2.2-.8z"/></svg>