<svg id="Layer_1" xmlns="http://www.w3.org/2000/svg" viewBox="0 0 200 134"><style>.st0{fill:#41479b}.st1{fill:#f5f5f5}.st2{fill:#ff9b55}</style><path class="st0" d="M185 134H15c-8.3 0-15-6.9-15-15.3V15.3C0 6.9 6.7 0 15 0h170c8.3 0 15 6.9 15 15.3v103.4c0 8.4-6.7 15.3-15 15.3z"/><path class="st1" d="M6.5 131.3L200 49.4V24.7L3.6 128.6c.8 1 1.8 1.9 2.9 2.7z"/><path class="st2" d="M194.5 3.5L1.7 125.8c.5 1 1.1 1.9 1.8 2.7L200 24.7v-9.4c0-4.8-2.1-9-5.5-11.8z"/><path class="st1" d="M57 48.7l22.3-2.9L57 43l11.3-7.1-14.1 3.5 8.6-11.9-11.7 8.7 3.5-14.4-7 11.6-2.8-22.8L42 33.4l-6.9-11.6 3.4 14.4-11.6-8.7 8.5 11.9-14-3.5L32.7 43l-22.4 2.8 22.4 2.9-11.3 7.1 14-3.5-8.5 11.9 11.6-8.7-3.4 14.4L42 58.3l2.8 22.8 2.8-22.8 7 11.6-3.5-14.4 11.7 8.7-8.6-11.9 14.1 3.5z"/></svg>