<svg xmlns="http://www.w3.org/2000/svg" viewBox="0 0 200 134"><defs><style>.mo_cls-1{fill:#187964;}.mo_cls-2{fill:#fff;}.mo_cls-3{fill:#fad119;}</style></defs><title>Asset 7</title><g id="Layer_2" data-name="Layer 2"><g id="Layer_94" data-name="Layer 94"><path class="mo_cls-1" d="M183,0H17A17,17,0,0,0,0,17V117a17,17,0,0,0,17,17H183a17,17,0,0,0,17-17V17A17,17,0,0,0,183,0ZM130.09,46.49l.39-3.65L132.34,46l3.64-.76L133.49,48l1.86,3.18-3.4-1.5-2.49,2.73.39-3.65-3.4-1.5Zm-12.74-17,3.22,1.84,2.77-2.46-.77,3.59,3.22,1.84-3.7.38-.78,3.59-1.51-3.36-3.7.38,2.77-2.46ZM98.15,25.74,100,20.13l1.85,5.62h6L103,29.22l1.85,5.62L100,31.36l-4.84,3.47L97,29.22l-4.84-3.47Zm-21.5,3.15,2.77,2.46,3.22-1.84-1.51,3.36,2.77,2.46-3.7-.38L78.68,38.3l-.77-3.59-3.7-.38,3.22-1.84ZM67.66,46l1.86-3.18.39,3.65,3.64.76-3.4,1.5.39,3.65L68,49.67l-3.4,1.5L66.51,48,64,45.25Zm32.85,60.61h-1a39.75,39.75,0,0,1-16.74-3.9h34.5A39.76,39.76,0,0,1,100.51,106.62Zm18.63-4.88H80.86a39.78,39.78,0,0,1-4.57-2.93h47.43A39.78,39.78,0,0,1,119.14,101.74Zm7-4.88H73.86q-1.08-.94-2.08-2h56.46Q127.22,95.93,126.14,96.86ZM130.86,92H69.14c-.26-.32-.52-.65-.77-1h63.24C131.37,91.34,131.12,91.67,130.86,92Zm2.54-3.49-19.15,0A19.67,19.67,0,0,1,100,82.69a19.67,19.67,0,0,1-14.24,5.82l-19.15,0c-.59-.91-1.14-1.86-1.66-2.82l20.22,0c6.71,0,9.76-2.65,14.83-6.85,5.06,4.19,8.12,6.85,14.83,6.85l20.21,0C134.53,86.63,134,87.58,133.39,88.49Zm-.34-12.4s3.22,1.46,3.09,1.86c-3.61,2.7-8.12,6.26-20.29,6.26-8.6,0-12.32-5.27-15.86-7.7-3.54,2.43-7.25,7.7-15.86,7.7-12.16,0-16.68-3.56-20.29-6.26-.13-.4,3.09-1.86,3.09-1.86,4.88,3.4,10.3,6.41,20.42,6-12.49-1.11-21-7.91-23.51-14.19,6.76-4.69,18-4.6,27.14,1.86-2.87-3.54-12.45-7.47-19.62-6.37-1-1.06-1.93-2.39-3-3.45,8.24-1.81,19.71,3.4,23.92,7.69-4.43-7-7.66-15-2.42-24.67,1,1,2.2,1.95,3.23,2.92-3.94,7.12-2.51,15.43.67,21.22A22.06,22.06,0,0,1,100,39.35a22.06,22.06,0,0,1,6.18,27.72c3.18-5.79,4.61-14.1.67-21.22,1-1,2.2-1.95,3.23-2.92,5.24,9.68,2,17.64-2.42,24.67,4.21-4.29,15.68-9.51,23.92-7.69-1,1.06-1.93,2.39-3,3.45-7.17-1.11-16.75,2.83-19.62,6.37,9.18-6.45,20.38-6.54,27.14-1.86-2.55,6.28-11,13.09-23.51,14.19C122.75,82.5,128.17,79.49,133.05,76.09Z"/><path class="mo_cls-2" d="M136.14,67.86c-6.76-4.69-18-4.6-27.14,1.86,2.87-3.54,12.45-7.47,19.62-6.37,1-1.06,1.93-2.39,3-3.45-8.24-1.81-19.71,3.4-23.92,7.69,4.43-7,7.66-15,2.42-24.67-1,1-2.2,1.95-3.23,2.92,3.94,7.12,2.51,15.43-.67,21.22A22.06,22.06,0,0,0,100,39.35a22.06,22.06,0,0,0-6.18,27.72c-3.18-5.79-4.61-14.1-.67-21.22-1-1-2.2-1.95-3.23-2.92-5.24,9.68-2,17.64,2.42,24.67-4.21-4.29-15.68-9.51-23.92-7.69,1,1.06,1.93,2.39,3,3.45,7.17-1.11,16.75,2.83,19.62,6.37-9.18-6.45-20.38-6.54-27.14-1.86,2.55,6.28,11,13.09,23.51,14.19-10.12.44-15.54-2.56-20.42-6,0,0-3.22,1.46-3.09,1.86,3.61,2.7,8.13,6.26,20.29,6.26,8.6,0,12.32-5.27,15.86-7.7,3.54,2.43,7.25,7.7,15.86,7.7,12.16,0,16.68-3.56,20.29-6.26.13-.4-3.09-1.86-3.09-1.86-4.88,3.4-10.3,6.41-20.42,6C125.13,80.95,133.59,74.14,136.14,67.86Z"/><path class="mo_cls-2" d="M100,78.85c-5.06,4.19-8.12,6.85-14.83,6.85L65,85.66c.51,1,1.07,1.91,1.66,2.82l19.15,0A19.67,19.67,0,0,0,100,82.69a19.67,19.67,0,0,0,14.24,5.82l19.15,0c.59-.91,1.14-1.86,1.65-2.82l-20.21,0C108.12,85.69,105.06,83,100,78.85Z"/><polygon class="mo_cls-3" points="95.16 34.84 100 31.36 104.84 34.84 102.99 29.22 107.84 25.74 101.85 25.74 100 20.13 98.15 25.74 92.16 25.74 97.01 29.22 95.16 34.84"/><polygon class="mo_cls-3" points="64.64 51.16 68.05 49.67 70.54 52.4 70.15 48.75 73.55 47.25 69.91 46.49 69.52 42.83 67.66 46.01 64.02 45.25 66.51 47.98 64.64 51.16"/><polygon class="mo_cls-3" points="77.91 34.71 78.68 38.3 80.19 34.95 83.9 35.33 81.13 32.87 82.64 29.51 79.42 31.35 76.65 28.89 77.43 32.49 74.2 34.32 77.91 34.71"/><polygon class="mo_cls-3" points="129.46 52.4 131.95 49.67 135.35 51.16 133.49 47.98 135.98 45.25 132.34 46.01 130.48 42.83 130.09 46.49 126.45 47.25 129.85 48.75 129.46 52.4"/><polygon class="mo_cls-3" points="119.81 34.95 121.32 38.3 122.09 34.71 125.8 34.32 122.57 32.49 123.35 28.89 120.58 31.35 117.36 29.51 118.87 32.87 116.1 35.33 119.81 34.95"/><path class="mo_cls-2" d="M99.49,106.62h1a39.76,39.76,0,0,0,16.74-3.9H82.75A39.75,39.75,0,0,0,99.49,106.62Z"/><path class="mo_cls-2" d="M80.86,101.74h38.29a39.78,39.78,0,0,0,4.57-2.93H76.29A39.78,39.78,0,0,0,80.86,101.74Z"/><path class="mo_cls-2" d="M69.14,92h61.71c.26-.32.52-.65.77-1H68.38C68.63,91.34,68.88,91.67,69.14,92Z"/><path class="mo_cls-2" d="M73.86,96.86h52.29q1.08-.94,2.08-2H71.77Q72.78,95.93,73.86,96.86Z"/></g></g></svg>
