<svg xmlns="http://www.w3.org/2000/svg" viewBox="0 0 200 134"><defs><style>.ms_cls-1{fill:#21205f;}.ms_cls-2{fill:#fff;}.ms_cls-3{fill:#03a2bd;}.ms_cls-4{fill:#a44023;}.ms_cls-5{fill:#010101;}.ms_cls-6{fill:#f89a1c;}.ms_cls-7{fill:#cb2026;}.ms_cls-8{fill:#108140;}.ms_cls-9{fill:#fee1cf;}.ms_cls-10{fill:#861719;}</style></defs><title>Asset 22</title><g id="Layer_2" data-name="Layer 2"><g id="Layer_79" data-name="Layer 79"><polygon class="ms_cls-1" points="0 33.41 0 44.43 21.77 33.41 0 33.41"/><path class="ms_cls-1" d="M183,0H100V5.19L77.74,16.46H100v17H77.73L100,44.68v5.69H88.76L58.13,34.86V50.37H41.38V34.86L10.74,50.37H0V117a17,17,0,0,0,17,17H183a17,17,0,0,0,17-17V17A17,17,0,0,0,183,0ZM171.36,55.51C171.72,68,164,75.7,149.93,79.18c-10-2.52-21.58-7.73-21.6-23.32l.05-31.35h43Z"/><polygon class="ms_cls-1" points="87.78 0 58.13 0 58.13 15.01 87.78 0"/><path class="ms_cls-1" d="M41.38,0H17a17,17,0,0,0-4.2.54L41.38,15Z"/><path class="ms_cls-1" d="M3.22,7.07A16.89,16.89,0,0,0,0,16.46H21.76Z"/><path class="ms_cls-2" d="M128.33,55.86c0,15.59,11.57,20.8,21.6,23.32C164,75.7,171.72,68,171.36,55.51l.05-31h-43Zm1-30.41h41.12l0,29.7c.34,11.94-7,19.35-20.48,22.69-9.58-2.41-20.62-7.41-20.64-22.35Z"/><path class="ms_cls-3" d="M149.93,77.84c13.49-3.34,20.82-10.75,20.48-22.69l0-29.7H129.34l0,30C129.3,70.43,140.35,75.42,149.93,77.84ZM141,56.41c.18-.07,3-.83,3.49-3.37a4.85,4.85,0,0,1,.74-1.9,2.59,2.59,0,0,0,0-.35.62.62,0,0,1,.16-.54,3.39,3.39,0,0,0,.47-.78c.17-.35.31-.4,1.09-.84.36-.2.8-.47,1.28-.77V41.2c-.68.17-1.76-.12-2.58,0-.36,0-.65-.15-.6-.51a5.53,5.53,0,0,0,0-1.44,6.7,6.7,0,0,1,.8-3.13,9.19,9.19,0,0,0,.77-2.2l-6.39,0V31l8,0-.06-3.74,2.92,0,0,3.71h8l0,2.9h-2.29a.44.44,0,0,1,.17.72,1,1,0,0,1,.45,1.16.61.61,0,0,1-1,.1.86.86,0,0,1-1-.14.52.52,0,0,1-.5.14,1.62,1.62,0,0,0,.8,1.49,1.88,1.88,0,0,1,1,.53c.45.38,1.1,1,.88,2.87s-.15,2.62-.24,3.64c-.17,1.81-.56,3.3-1.28,3.18,1,1.71,1.06,3.18,1.69,4.35a12.28,12.28,0,0,1,.77,6.16l-.06.59,11.55,0c-1.5,11.4-10.17,16.38-20.21,19-8.89-2.41-18.46-6.27-20.31-19h9.3C139.07,57.52,140.86,56.49,141,56.41Z"/><path class="ms_cls-3" d="M147.58,50.13A2.27,2.27,0,0,0,147,51a2,2,0,0,0-.07.2,4.87,4.87,0,0,1,1.32.93V49.4C147.78,49.69,147.87,49.92,147.58,50.13Z"/><path class="ms_cls-3" d="M140.8,58.71a.71.71,0,0,1,1.08,0h6.39V54.34a5,5,0,0,0-1.67-1.86,7,7,0,0,1-1.8,3.22c-1.47,1-4.89,2.18-4.38,3Z"/><path class="ms_cls-3" d="M147.56,34.5c0,3.77-.45,3.46-.45,4.37,0,.24,0,.46.19.39a3.33,3.33,0,0,1,.94-.18V33.88h-.37l-.07,0C147.57,34,147.56,34.16,147.56,34.5Z"/><path class="ms_cls-3" d="M152.3,37.51a2.57,2.57,0,0,0,.73,0,2.24,2.24,0,0,0-.07-1.16,2.22,2.22,0,0,1-.89-.15c-.39-.22-.25-.45-.14-.64s-.06-.25,0-.54c-.07-.06-.09-.13,0-.21a2,2,0,0,0,.18-.3c-.09,0-.18,0-.22-.1s0-.25.06-.33a2.09,2.09,0,0,0,.17-.16h-.91l0,12,0,0V38.17C151.72,37.73,152,37.46,152.3,37.51Z"/><path class="ms_cls-3" d="M151.17,48.44l0,8.91.06.21V48.43Z"/><path class="ms_cls-4" d="M140.62,58.9a1.13,1.13,0,0,1,.18-.19h-.38A.63.63,0,0,0,140.62,58.9Z"/><path class="ms_cls-4" d="M141.88,58.71a1.17,1.17,0,0,1,.18.31,1,1,0,0,1-.28,1.09l.05,0,6.45,6.78V58.7Z"/><path class="ms_cls-4" d="M157.48,69.26a.78.78,0,0,0-.72-.22.65.65,0,0,1,.2,0A1,1,0,0,1,157.48,69.26Z"/><path class="ms_cls-4" d="M149.93,77.68c10-2.64,18.71-7.62,20.21-19l-11.55,0c-.27,2.8-.72,8.09,1.17,11.73-.34.24-1.14,0-1.86-.76l.06.07c.11.43.23.4.31.7a1.17,1.17,0,0,1-.23.84,1.31,1.31,0,0,0-.19.59.79.79,0,0,1-.06.37.62.62,0,0,0-.09.26c0,.34-.19.44-.36.36-.06.1-.22.24-.32.17-.12.18-.3.26-.41.15a.28.28,0,0,1-.43.11.38.38,0,0,1-.47.2c-.21-.17-.25-.3-.16-.48a1.84,1.84,0,0,0,.29-.68,7,7,0,0,1,.57-1.86c0-.1.13-.16.08-.34s-.18-.49-.25-.76c-1.84,1.42-3.55,3.13-6.09,1.42l-.21-.17-.1.09c-.36.21-8.8-10.13-8.8-10.13l.3-.17a3.15,3.15,0,0,1-.89.2,1.83,1.83,0,0,1-1.53-1.5,1.18,1.18,0,0,1,0-.35h-9.3C131.47,71.42,141,75.27,149.93,77.68Zm.25-6.9a4.47,4.47,0,0,0,.81.44,1.17,1.17,0,0,1-1.63.22A2.76,2.76,0,0,0,150.18,70.78Z"/><path class="ms_cls-4" d="M157.53,69.3l.15.13Z"/><path class="ms_cls-5" d="M151.17,45.86l0-12h.91a2.69,2.69,0,0,0,.26-.25c.18-.21.09-.57.16-.73a1.67,1.67,0,0,1,.37-.45.28.28,0,0,0-.11.1.82.82,0,0,1,1.12-.76,2.12,2.12,0,0,0,.91,0c.72-.19,1.26.06,1.18.76a1,1,0,0,1,.36.78c0,.29,0,.42.29.45a.85.85,0,0,1,.29.11h2.29l0-2.9h-8l0-3.71-2.92,0L148.3,31l-8,0v3l6.39,0a2.26,2.26,0,0,0,0-.28,1.13,1.13,0,0,1,.37-1,1.14,1.14,0,0,0,.39-.45c.2-.31.4-.38.42-.19a.5.5,0,0,1-.12.35c.22-.18.59-.4.67-.46s.51-.37.54-.08c.17-.08.28-.08.33,0s0,.14-.07.21c.12,0,.26.19,0,.38.13,0,.25.17,0,.37s-.5.34-.58.5a3.11,3.11,0,0,1-.82.66h.37v5.19h0V41.2h0v6.66c.55-.35,1.15-.75,1.72-1.18A8.87,8.87,0,0,1,151.17,45.86Z"/><path class="ms_cls-5" d="M148.4,49.32l-.14.08v2.72a12.78,12.78,0,0,1,2.89,5.23l0-8.91A12.15,12.15,0,0,0,148.4,49.32Z"/><path class="ms_cls-5" d="M148.28,66.85l.87.91c2.06-2.29,1.28-9.7-.88-13.42V66.85Z"/><path class="ms_cls-6" d="M140.44,60.56a3.15,3.15,0,0,0,.89-.2l-.3.17s8.44,10.34,8.8,10.13l.1-.09c-.4-.37-.49-.86-.12-1.88a26.22,26.22,0,0,0,1.41-9V57.56l-.06-.21a12.78,12.78,0,0,0-2.89-5.23,4.87,4.87,0,0,0-1.32-.93c-.05.16-.1.34-.15.51s-.35.24-.35,0c0,.29-.45.48-.44.16,0,.22-.42.32-.37,0,0,.29-.18.34-.28.33s-.16-.07-.14-.32,0-.51.05-.79a4.85,4.85,0,0,0-.74,1.9c-.48,2.54-3.31,3.3-3.49,3.37s-2,1.11-2.11,2.3a1.18,1.18,0,0,0,0,.35A1.83,1.83,0,0,0,140.44,60.56Zm4.36-4.86a7,7,0,0,0,1.8-3.22,5,5,0,0,1,1.67,1.86c2.16,3.72,2.94,11.13.88,13.42l-.87-.91-6.45-6.78-.05,0a1,1,0,0,0,.28-1.09,1.17,1.17,0,0,0-.18-.31.71.71,0,0,0-1.08,0,1.13,1.13,0,0,0-.18.19.63.63,0,0,1-.2-.19C139.9,57.89,143.33,56.72,144.79,55.71Z"/><path class="ms_cls-2" d="M41.38,16.46V15L12.8.54A16.92,16.92,0,0,0,7,3.29L33,16.46Z"/><polygon class="ms_cls-2" points="58.13 33.41 58.13 34.86 88.76 50.37 100 50.37 66.5 33.41 58.13 33.41"/><path class="ms_cls-2" d="M25.51,16.46,4.3,5.72A16.73,16.73,0,0,0,3.22,7.07l18.54,9.39Z"/><polygon class="ms_cls-2" points="77.73 16.46 100 5.19 100 0 99.01 0 66.5 16.46 77.73 16.46"/><polygon class="ms_cls-2" points="58.13 16.46 59.01 16.46 91.52 0 87.78 0 58.13 15.01 58.13 16.46"/><polygon class="ms_cls-2" points="100 46.58 100 44.68 77.73 33.41 73.99 33.41 100 46.58"/><polygon class="ms_cls-2" points="21.77 33.41 0 44.43 0 50.12 33 33.41 21.77 33.41"/><polygon class="ms_cls-2" points="40.49 33.41 6.99 50.37 10.74 50.37 41.38 34.86 41.38 33.41 40.49 33.41"/><polygon class="ms_cls-2" points="54.77 19.85 100 19.85 100 16.46 77.73 16.46 66.5 16.46 59.01 16.46 58.13 16.46 58.13 15.01 58.13 0 54.77 0 54.77 19.85"/><path class="ms_cls-2" d="M44.72,19.85V0H41.38V16.46H0c0,.18,0,.36,0,.54v2.85Z"/><polygon class="ms_cls-2" points="33 33.41 40.49 33.41 41.38 33.41 41.38 34.86 41.38 50.37 44.73 50.37 44.73 30.02 0 30.02 0 33.41 21.77 33.41 33 33.41"/><polygon class="ms_cls-2" points="54.77 30.02 54.77 50.37 58.13 50.37 58.13 34.86 58.13 33.41 66.5 33.41 73.99 33.41 77.73 33.41 100 33.41 100 30.02 54.77 30.02"/><polygon class="ms_cls-7" points="44.73 30.02 44.73 50.37 54.77 50.37 54.77 30.02 100 30.02 100 19.85 54.77 19.85 54.77 0 44.73 0 44.73 19.85 0 19.85 0 30.02 44.73 30.02"/><polygon class="ms_cls-7" points="40.49 33.41 33 33.41 0 50.12 0 50.37 6.99 50.37 40.49 33.41"/><polygon class="ms_cls-7" points="66.5 16.46 99.01 0 91.52 0 59.01 16.46 66.5 16.46"/><path class="ms_cls-7" d="M33,16.46,7,3.29A17.08,17.08,0,0,0,4.3,5.72L25.51,16.46Z"/><polygon class="ms_cls-7" points="66.5 33.41 100 50.37 100 46.58 73.99 33.41 66.5 33.41"/><path class="ms_cls-8" d="M154.93,38.41c-.48.49-1.3.32-1.88,1.15a2,2,0,0,1-.1-1.79,1.44,1.44,0,0,0,.09-.29,2.57,2.57,0,0,1-.73,0c-.31,0-.58.22-1.08.66v7.67a6.5,6.5,0,0,1,1.58-.51c.33-.07.6-.07.68-.34a9.47,9.47,0,0,0,.7-1.93A6.29,6.29,0,0,1,156,40.27c.82-.68,1,.27,1,1.13A10.76,10.76,0,0,1,155.6,46a1.36,1.36,0,0,1-.8.66c-.29.1-.7.46-1.21.73a12.86,12.86,0,0,1-2.2,1l-.18,0V59.71a26.22,26.22,0,0,1-1.41,9c-.37,1-.28,1.52.12,1.88l.21.17c2.53,1.71,4.25,0,6.09-1.42a1.44,1.44,0,0,1,.53-.3.78.78,0,0,1,.72.22l0,0,.15.13.21.21c.72.77,1.53,1,1.86.76-1.89-3.64-1.43-8.93-1.17-11.73l.06-.59a12.28,12.28,0,0,0-.77-6.16c-.63-1.17-.72-2.64-1.69-4.35.71.12,1.11-1.37,1.28-3.18.1-1,0-1.81.24-3.64s-.43-2.49-.88-2.87a1.88,1.88,0,0,0-1-.53C155.51,37.46,155.41,37.92,154.93,38.41Z"/><path class="ms_cls-9" d="M154.44,35.38c-.19-.06-.21-.6.08-.66a.55.55,0,0,1,0-.43c.07-.09,0-.24-.16-.38a.89.89,0,0,1-.15-.93,1.35,1.35,0,0,1-1.06-.38c-.1-.14-.22-.18-.32-.13a1.67,1.67,0,0,0-.37.45c-.07.16,0,.52-.16.73a2.69,2.69,0,0,1-.26.25,2.09,2.09,0,0,1-.17.16c-.11.08-.18.19-.06.33s.13.07.22.1a2,2,0,0,1-.18.3c-.06.07,0,.15,0,.21-.09.29.09.32,0,.54s-.25.42.14.64a2.22,2.22,0,0,0,.89.15,2.24,2.24,0,0,1,.07,1.16,1.44,1.44,0,0,1-.09.29,2,2,0,0,0,.1,1.79c.58-.83,1.4-.66,1.88-1.15s.58-1,.94-1.05a1.62,1.62,0,0,1-.8-1.49.29.29,0,0,1-.23-.14A.61.61,0,0,0,154.44,35.38Zm-1.75-2.25a1.26,1.26,0,0,1,.72.34c.14.16,0,.12,0,.12a.39.39,0,0,1-.29-.14,1,1,0,0,0-.4-.24C152.61,33.19,152.55,33.11,152.7,33.13Zm.23.79a1,1,0,0,0-.29,0c-.08,0-.19-.1-.12-.11s.05,0,0-.08a.16.16,0,0,1,.06-.13s0,0,0-.07-.06-.21,0-.16c.17.23.36.21.39.36a.35.35,0,0,0,.09.21S153,33.94,152.93,33.91Z"/><path class="ms_cls-9" d="M148.26,39.07h0a3.33,3.33,0,0,0-.94.18c-.24.07-.19-.15-.19-.39,0-.91.45-.6.45-4.37,0-.34,0-.48.24-.57l.07,0a3.11,3.11,0,0,0,.82-.66c.08-.16.35-.3.58-.5s.1-.41,0-.37c.24-.19.1-.4,0-.38.08-.07.11-.12.07-.21s-.16-.1-.33,0c0-.29-.45,0-.54.08s-.45.28-.67.46a.5.5,0,0,0,.12-.35c0-.19-.22-.11-.42.19a1.14,1.14,0,0,1-.39.45,1.13,1.13,0,0,0-.37,1,2.26,2.26,0,0,1,0,.28,9.19,9.19,0,0,1-.77,2.2,6.7,6.7,0,0,0-.8,3.13,5.53,5.53,0,0,1,0,1.44c0,.37.24.56.6.51.82-.1,1.9.19,2.58,0h0Z"/><path class="ms_cls-9" d="M145.35,52.25c.1,0,.23,0,.28-.33,0,.29.35.2.37,0,0,.32.41.13.44-.16,0,.21.32.06.35,0s.1-.35.15-.51A2,2,0,0,1,147,51a2.27,2.27,0,0,1,.57-.86c.29-.21.2-.45.68-.74l.14-.08a12.15,12.15,0,0,1,2.76-.87h0l.18,0a12.86,12.86,0,0,0,2.2-1c.51-.27.92-.63,1.21-.73a1.36,1.36,0,0,0,.8-.66,10.76,10.76,0,0,0,1.45-4.64c0-.86-.22-1.81-1-1.13a6.29,6.29,0,0,0-1.83,2.79,9.47,9.47,0,0,1-.7,1.93c-.07.27-.35.27-.68.34a6.5,6.5,0,0,0-1.58.51l0,0a8.87,8.87,0,0,0-1.2.81c-.57.43-1.16.83-1.72,1.18s-.92.57-1.28.77c-.77.44-.92.49-1.09.84a3.39,3.39,0,0,1-.47.78.62.62,0,0,0-.16.54,2.59,2.59,0,0,1,0,.35c0,.28,0,.63-.05.79S145.25,52.24,145.35,52.25Z"/><path class="ms_cls-9" d="M157.68,69.44l-.15-.13,0,0A1,1,0,0,0,157,69a.65.65,0,0,0-.2,0,1.44,1.44,0,0,0-.53.3c.07.27.2.58.25.76s0,.24-.08.34a7,7,0,0,0-.57,1.86,1.84,1.84,0,0,1-.29.68c-.09.18-.06.31.16.48a.38.38,0,0,0,.47-.2.28.28,0,0,0,.43-.11c.11.11.29,0,.41-.15.11.07.27-.07.32-.17.17.08.35,0,.36-.36a.62.62,0,0,1,.09-.26.79.79,0,0,0,.06-.37,1.31,1.31,0,0,1,.19-.59,1.17,1.17,0,0,0,.23-.84c-.08-.3-.21-.27-.31-.7l-.06-.07Z"/><path class="ms_cls-9" d="M151,71.22a4.47,4.47,0,0,1-.81-.44,2.76,2.76,0,0,1-.82.66A1.17,1.17,0,0,0,151,71.22Z"/><path class="ms_cls-10" d="M156.35,33.33a1,1,0,0,0-.36-.78c.07-.7-.47-1-1.18-.76a2.12,2.12,0,0,1-.91,0,.82.82,0,0,0-1.12.76.28.28,0,0,1,.11-.1c.1,0,.22,0,.32.13a1.35,1.35,0,0,0,1.06.38.89.89,0,0,0,.15.93c.17.13.23.29.16.38a.55.55,0,0,0,0,.43c-.29.06-.28.6-.08.66a.61.61,0,0,1,.4.35.29.29,0,0,0,.23.14.52.52,0,0,0,.5-.14.86.86,0,0,0,1,.14.61.61,0,0,0,1-.1,1,1,0,0,0-.45-1.16.44.44,0,0,0-.17-.72.85.85,0,0,0-.29-.11C156.38,33.74,156.31,33.62,156.35,33.33Z"/><path class="ms_cls-5" d="M153.07,33.9a.35.35,0,0,1-.09-.21c0-.15-.21-.12-.39-.36,0-.05,0,.1,0,.16s0,.06,0,.07a.16.16,0,0,0-.06.13s0,.06,0,.08,0,.12.12.11a1,1,0,0,1,.29,0C153,33.94,153.1,33.94,153.07,33.9Z"/><path class="ms_cls-5" d="M152.68,33.21a1,1,0,0,1,.4.24.39.39,0,0,0,.29.14c.07,0,.19,0,0-.12a1.26,1.26,0,0,0-.72-.34C152.55,33.11,152.61,33.19,152.68,33.21Z"/></g></g></svg>
