<svg xmlns="http://www.w3.org/2000/svg" viewBox="0 0 200 134"><defs><style>.mt_cls-1{fill:#d02a36;}.mt_cls-2{fill:#fafafa;}.mt_cls-3{fill:#e51d30;}.mt_cls-4{fill:#d0202d;}.mt_cls-5{fill:#96877d;}.mt_cls-6{fill:#cdcccc;}.mt_cls-7{fill:#d0d1d1;}.mt_cls-8{fill:#010101;}</style></defs><title>Asset 13</title><g id="Layer_2" data-name="Layer 2"><g id="Layer_88" data-name="Layer 88"><path class="mt_cls-1" d="M183,0H100V134h83a17,17,0,0,0,17-17V17A17,17,0,0,0,183,0Z"/><path class="mt_cls-2" d="M17,0A17,17,0,0,0,0,17V117a17,17,0,0,0,17,17h83V0ZM27.81,31.52l-.2,0v9.88h-9.9V31.57l-.21-.05a3.58,3.58,0,0,1-3.07-3.07c0-.07,0-.14-.05-.21H4.5v-9.9h9.88c0-.07,0-.14.05-.21a3.57,3.57,0,0,1,3.07-3.07l.2,0V5.13h9.9V15l.2,0a3.58,3.58,0,0,1,3.08,3.07c0,.07,0,.14,0,.2h9.88v9.9H30.94c0,.07,0,.13,0,.2A3.58,3.58,0,0,1,27.81,31.52Z"/><path class="mt_cls-3" d="M40.49,18.67v9.24H31a1.67,1.67,0,0,1,0,.33h9.88v-9.9H30.94a1.67,1.67,0,0,1,0,.33Z"/><path class="mt_cls-3" d="M30.89,18.13a3.58,3.58,0,0,0-3.08-3.07,5.17,5.17,0,0,1,3.08,3.07Z"/><path class="mt_cls-3" d="M27.28,41.11H18V31.61l-.33,0v9.88h9.9V31.57a1.9,1.9,0,0,1-.33,0Z"/><path class="mt_cls-3" d="M4.83,27.91V18.67h9.51a2,2,0,0,1,0-.33H4.5v9.9h9.88a2,2,0,0,1,0-.33Z"/><path class="mt_cls-3" d="M27.81,31.52a3.58,3.58,0,0,0,3.08-3.07,5.17,5.17,0,0,1-3.08,3.07Z"/><path class="mt_cls-3" d="M14.43,28.45a3.58,3.58,0,0,0,3.07,3.07,5.16,5.16,0,0,1-3.07-3.07Z"/><path class="mt_cls-3" d="M17.51,15.06a3.57,3.57,0,0,0-3.07,3.07,5.17,5.17,0,0,1,3.07-3.07Z"/><path class="mt_cls-3" d="M18,5.46h9.24V15a1.8,1.8,0,0,1,.33,0V5.13h-9.9V15A1.82,1.82,0,0,1,18,15Z"/><path class="mt_cls-4" d="M18.37,40.78V31.58a1.31,1.31,0,0,1-.33,0v9.51h9.24V31.61a1.32,1.32,0,0,1-.33,0v9.21Z"/><path class="mt_cls-4" d="M27,5.79V15a1.28,1.28,0,0,1,.33,0V5.46H18V15a1.28,1.28,0,0,1,.33,0V5.79Z"/><path class="mt_cls-4" d="M5.16,19h9.21a1.28,1.28,0,0,1,0-.33H4.83v9.24h9.51a1.27,1.27,0,0,1,0-.33H5.16Z"/><path class="mt_cls-4" d="M40.49,18.67H31a1.28,1.28,0,0,1,0,.33h9.21v8.58H30.95a1.28,1.28,0,0,1,0,.33h9.51Z"/><path class="mt_cls-5" d="M40.16,19H30.95a.86.86,0,0,1-.15.33h9v7.92h-9a.87.87,0,0,1,.15.33h9.21Z"/><path class="mt_cls-5" d="M5.49,19.33h9a.86.86,0,0,1-.15-.33H5.16v8.58h9.21a.86.86,0,0,1,.15-.33h-9Z"/><path class="mt_cls-5" d="M18.7,40.45v-9a.85.85,0,0,1-.33.15v9.21H27V31.58a.86.86,0,0,1-.33-.15v9Z"/><path class="mt_cls-5" d="M26.62,6.12v9A.87.87,0,0,1,27,15V5.79H18.37V15a.84.84,0,0,1,.33.15v-9Z"/><path class="mt_cls-6" d="M16.51,23.38a.72.72,0,0,0,.45-.1A.32.32,0,0,0,17.1,23a.34.34,0,0,0-.12-.28.63.63,0,0,0-.4-.13.72.72,0,0,0-.46.09A.33.33,0,0,0,16,23a.31.31,0,0,0,.11.26A.66.66,0,0,0,16.51,23.38Z"/><polygon class="mt_cls-6" points="26.33 18.03 25.89 18.3 26.22 18.54 26.33 18.03"/><path class="mt_cls-6" d="M16.53,20.91a.25.25,0,0,0-.13.15,1,1,0,0,0,0,.13l.46.18v0a.39.39,0,0,0,0-.27.24.24,0,0,0-.14-.15A.24.24,0,0,0,16.53,20.91Z"/><path class="mt_cls-6" d="M22.74,20s-.17.2-.25.17a.35.35,0,0,1-.1.07l.25.13h0V20.3l.19-.16L23,19.9l-.08.06V20S22.82,20,22.74,20Z"/><path class="mt_cls-6" d="M22.94,20.44h0Z"/><path class="mt_cls-6" d="M22.79,21.55v0h0l0,.25Z"/><path class="mt_cls-6" d="M21.84,19.86l.1,0,.11-.07a.69.69,0,0,1-.15-.27,1,1,0,0,0-.35.24l.18,0Z"/><path class="mt_cls-6" d="M24.5,20.29h0a1.35,1.35,0,0,1-.55.17l.2.23A4.11,4.11,0,0,0,24.5,20.29Z"/><polygon class="mt_cls-6" points="20.93 17.1 20.86 17.62 21.25 17.52 20.93 17.1"/><path class="mt_cls-6" d="M22.75,21.9V22l-.07-.06v.26h0a.78.78,0,0,0,.11-.28Z"/><polygon class="mt_cls-6" points="22.79 21.43 22.79 21.41 22.78 21.43 22.79 21.43"/><path class="mt_cls-6" d="M24.74,25.67l.1.07Z"/><path class="mt_cls-6" d="M39.83,19.33h-9a.76.76,0,0,1-.05.08c-.58.58-2,.11-3.15-1.05S26,15.79,26.54,15.21l.08-.06v-9H18.7v9l.08.05c.58.58.11,2-1.05,3.15s-2.57,1.63-3.15,1a.73.73,0,0,1-.05-.08h-9v7.92h9a.72.72,0,0,1,.05-.08c.58-.58,2-.11,3.15,1.05s1.63,2.57,1.05,3.15l-.08.05v9h7.92v-9l-.08-.06c-.58-.58-.11-2,1.05-3.15s2.57-1.63,3.15-1.05a.75.75,0,0,1,.05.08h9ZM16.12,22.56a.6.6,0,0,1,.45-.14.63.63,0,0,1,.44.2.57.57,0,0,1,0,.83.63.63,0,0,1-.46.14.6.6,0,0,1-.45-.22.58.58,0,0,1-.13-.41A.54.54,0,0,1,16.12,22.56Zm1.23,2.51v0a.13.13,0,0,0-.07-.09.26.26,0,0,0-.14,0l-.75.18-.11,0a.08.08,0,0,0,0,0,.17.17,0,0,0,0,.08v0h0l-.2-.86.25-.07v0a.37.37,0,0,0-.11.08.2.2,0,0,0,0,.09.38.38,0,0,0,0,.14l.06.26.45-.11,0-.21a.15.15,0,0,0-.06-.1.2.2,0,0,0-.14,0v0l.39-.09v0l-.09,0a.12.12,0,0,0,0,.06.19.19,0,0,0,0,.09l0,.21.36-.09.11,0a.1.1,0,0,0,0,0,.17.17,0,0,0,0-.08v0h0l.12.5Zm.24-4-.66.18,0,.07v0l.32.12a.25.25,0,0,0,.14,0,.12.12,0,0,0,.07-.08l0,0h0l-.18.48h0l0,0a.12.12,0,0,0,0-.12.28.28,0,0,0-.11-.06l-.71-.27c-.07,0-.12,0-.14,0a.12.12,0,0,0-.07.08l0,0h0l.15-.4a1,1,0,0,1,.13-.25.32.32,0,0,1,.15-.11.28.28,0,0,1,.34.14.39.39,0,0,1,0,.25l.41-.11a.6.6,0,0,0,.2-.08.36.36,0,0,0,.1-.13h0Zm7.75-2.66.1,0a.56.56,0,0,0,.18-.08l.9-.55,0,0-.23,1a.46.46,0,0,0,0,.18.18.18,0,0,0,.07.1l0,0L26,18.92l0,0a.17.17,0,0,0,.09,0,.06.06,0,0,0,0,0,.31.31,0,0,0,0-.12l0-.18-.37-.26-.17.11-.09.07a.07.07,0,0,0,0,.05s0,0,.07.09l0,0-.3-.22Zm-1.44-.54h0a.11.11,0,0,0,.12,0,.25.25,0,0,0,.06-.12l.24-.73a.24.24,0,0,0,0-.14.13.13,0,0,0-.09-.07h0v0l.51.17v0l-.13,0-.06,0a.42.42,0,0,0-.05.12l-.23.71a.22.22,0,0,0,0,.1l0,0,.13.05.08,0a.61.61,0,0,0,.19,0,.24.24,0,0,0,.12,0,.5.5,0,0,0,.14-.12l0,0-.2.27-.87-.29Zm-1.55-.14h0a.12.12,0,0,0,.11,0,.27.27,0,0,0,0-.13l0-.77a.23.23,0,0,0,0-.14.12.12,0,0,0-.1,0h0v0l.54,0v0h-.13a.11.11,0,0,0-.05,0,.41.41,0,0,0,0,.13l0,.75a.25.25,0,0,0,0,.1l0,0h.42a.25.25,0,0,0,.1-.07.66.66,0,0,0,.1-.16h0l-.11.32-.92,0Zm-1.65.31a.52.52,0,0,0,.05-.19l.15-1.05h0l.65.85a.47.47,0,0,0,.13.13.18.18,0,0,0,.12,0v0l-.45.12v0a.18.18,0,0,0,.09,0,.05.05,0,0,0,0-.05.32.32,0,0,0-.06-.11l-.11-.15-.44.12,0,.2a.23.23,0,0,0,0,.11.06.06,0,0,0,0,0H21v0l-.36.1v0A.19.19,0,0,0,20.69,18.07Zm-1.89-.18a.62.62,0,0,1,.22-.23l.11-.05.15,0,.06,0a0,0,0,0,0,0,0,.11.11,0,0,0,0-.06l0,0,.23.3,0,0a.5.5,0,0,0-.21-.11.37.37,0,0,0-.28.06.38.38,0,0,0-.19.34.65.65,0,0,0,.11.36.72.72,0,0,0,.22.22.47.47,0,0,0,.26.08.42.42,0,0,0,.22-.06l.1-.08a.49.49,0,0,0,.07-.11l-.19-.29a.3.3,0,0,0-.07-.09h-.06l-.09,0,0,0,.39-.25,0,0h0a.11.11,0,0,0-.05.09.32.32,0,0,0,.06.12l.2.3a1,1,0,0,1-.12.17,1,1,0,0,1-.17.14.63.63,0,0,1-.56.1.59.59,0,0,1-.32-.25.63.63,0,0,1-.1-.29A.65.65,0,0,1,18.8,17.89Zm1.39,11.29a.33.33,0,0,1-.5-.29.33.33,0,1,1,.66,0A.34.34,0,0,1,20.19,29.19Zm3.13.4h-.44l0,.37c0,.37-.41.33-.41,0v-.34H22c-.44,0-.44-.35,0-.35h.44V28.9a.22.22,0,1,1,.44,0v.34h.44C23.76,29.24,23.76,29.59,23.32,29.59Zm2.15-.4a.33.33,0,0,1-.33,0A.34.34,0,0,1,25,28.9a.33.33,0,0,1,.17-.29.33.33,0,0,1,.49.29A.33.33,0,0,1,25.47,29.19Zm1.34-7c-.19,0-.61-.44-1.18-.3a1.28,1.28,0,0,1-.58.87,1.53,1.53,0,0,1,.81.1c.3.25.74.59.74.59l.39.67s-.36.06-.49-.4c-.13.38-.14-.23-.67-.51a.4.4,0,0,1-.38-.08,3.49,3.49,0,0,1-1.37.27l-.16.07.15.32c.1.09.39.31.6.48.29-.3.68-.65.89-.6A2.38,2.38,0,0,0,25,25.16l.17.2a.9.9,0,0,1,.16-.12s-.47-.45-.14-.69.56.27.78.29.13-.19.13-.19a.41.41,0,0,1-.18-.21c-.09,0-.33,0-.31-.15h.1a1.07,1.07,0,0,1-.29-.28s.36.22.49.16c-.1-.06-.27-.17-.28-.31s.32-.4.32-.4l.16.38h.18s.15.25.24.43h.19s0,.08,0,.11a.8.8,0,0,0,.26,0l-.12.08a.36.36,0,0,1,.16.1.5.5,0,0,1-.24,0,.37.37,0,0,1,0,.17.8.8,0,0,1-.28-.14.65.65,0,0,1-.37.46c-.28.09-.59-.39-.69-.2s.38.58.39.87c.13-.07.48-.34.48-.34s0-.51.21-.56c0,0,.08,0,.06.09s.18,0,.18.11.1.13.1.13l-.21,0-.15.28a2.61,2.61,0,0,1-.53.63.57.57,0,0,0,.28.16c.16,0,.18-.35.18-.35s.05.15.13.11a.13.13,0,0,0,.1.13s-.27.61-1,.08a.42.42,0,0,1-.26.09.38.38,0,0,1-.15.1l.07,0,.72.39-.43.35H20l-.39-.33,1.52.08-1.84-.29,1.11,0,.7-.05.22-.26.56-.07a1.68,1.68,0,0,0,.18-.24c-.49-.28-.76-.14-.82-.26s.18-.57.1-.82a1.79,1.79,0,0,1-1.2-.92c-.36.23-.76-.32-1-.16s.37.44.38.72-.36.39-.36.39,0,.19.12.25h-.08s.13.25.06.36-.33.09-.33.09a1,1,0,0,0,0,.43c-.15,0-.1-.2-.16-.26s-.09,0-.09,0l-.07-.24,0-.2-.13-.09s-.16-.17,0-.31.6-.25.41-.51-.34-.81,0-1,.93.35,1.29.25h0a1.32,1.32,0,0,1,.58-.79l-.51-.44-.07,0s-.09,0-.1,0-.12,0-.13-.08-.1,0-.11-.08-.06,0-.08-.09h0s-.2-.2-.16-.25.14,0,.23,0l0-.05a2.55,2.55,0,0,1,0-.31c-.46.27-.83,1-1.4.39.11,0,.17-.1.13-.24-.25.11-.4,0-.28-.3,0-.14,0-.65.38-.66-.15-.15.07-.89.53-.7,0-.08.13-.48.39-.47a.39.39,0,0,1,.36-.29,5.26,5.26,0,0,0,1.33.32,1.74,1.74,0,0,0-.72-.18c.1-.23.44-.21.44-.21s.12-.33.59-.13a.45.45,0,0,1,.34,0,.71.71,0,0,1,.69-.56.72.72,0,0,1,.72.72s0,.06,0,.08l0,0a.28.28,0,0,1,.22,0,1,1,0,0,1,.3-.16.42.42,0,0,1,0,.29,7.66,7.66,0,0,1,1.17.18.51.51,0,0,1,.07.39c0,.12-.16.09-.16.09a.46.46,0,0,1-.22.11,5.17,5.17,0,0,1-.48.49c.21.26.45.61.38.76A1.68,1.68,0,0,1,25,22a2.46,2.46,0,0,0,.7-.54c.31,0,.81.32,1.06.36l.62.5S27,22.53,26.81,22.21Zm.52-1.79,0,0,.3-1.2-.59.44c-.06,0-.09.08-.1.1a.13.13,0,0,0,0,.1l0,0,0,0-.24-.33,0,0,0,0a.11.11,0,0,0,.1.06.27.27,0,0,0,.12-.06l.66-.49a.57.57,0,0,0,0-.11.34.34,0,0,0,0-.08l0-.07,0,0,.19.26-.28,1.11.55-.41c.06,0,.09-.08.1-.1a.12.12,0,0,0,0-.1l0,0,0,0,.25.33,0,0,0,0a.13.13,0,0,0-.1-.06.27.27,0,0,0-.11.06Zm.46.82,0,0a.12.12,0,0,0,.08.09.25.25,0,0,0,.13,0l.86-.3,0-.13a.39.39,0,0,0-.05-.11.15.15,0,0,0-.09-.05.25.25,0,0,0-.13,0v0l.27-.08.32.91-.26.1v0l.09-.06a.19.19,0,0,0,0-.09.29.29,0,0,0,0-.12l-.05-.16-.86.3a.25.25,0,0,0-.12.07.12.12,0,0,0,0,.11v0h0l-.17-.47Zm1.37,3.67h0v0a.17.17,0,0,0,0-.08.06.06,0,0,0,0,0l-.12,0-.43.14.29.32a.25.25,0,0,0,.11.08h0l0,0a.2.2,0,0,0,0-.06h0l-.11.4h0v0a.17.17,0,0,0,0-.07.25.25,0,0,0,0-.09l-.1-.12-.36-.39-.29-.08a.26.26,0,0,0-.14,0,.15.15,0,0,0-.06.09v0h0l.13-.49h0v0a.12.12,0,0,0,0,.12.28.28,0,0,0,.12.05l.27.07.56-.19.13,0,.07-.07,0,0h0Zm.16-1.78a.33.33,0,0,1-.09.16.27.27,0,0,1-.17.07.28.28,0,0,1-.19-.06.39.39,0,0,1-.12-.21l-.33.26a.65.65,0,0,0-.15.15.42.42,0,0,0,0,.16h0l0-.31.53-.43a.56.56,0,0,1,0-.07v0a.12.12,0,0,1,0,0l-.35,0a.23.23,0,0,0-.13,0,.12.12,0,0,0,0,.1v0h0l0-.51h0v0a.13.13,0,0,0,.05.11h.13l.77,0a.24.24,0,0,0,.14,0,.12.12,0,0,0,0-.1v0h0l0,.43A1.06,1.06,0,0,1,29.32,23.13Z"/><path class="mt_cls-6" d="M28.75,22.79v0a.4.4,0,0,0,.09.25.26.26,0,0,0,.37,0,.25.25,0,0,0,.06-.19.67.67,0,0,0,0-.14Z"/><path class="mt_cls-6" d="M26,24.21h0v0Z"/><path class="mt_cls-6" d="M21,22.83a6.79,6.79,0,0,1,.73-.2c-.2-.07-.45-.67-.47-1a.69.69,0,0,1-.16-.69h0a2,2,0,0,1-.64.43,2.46,2.46,0,0,1-.27.27.62.62,0,0,0-.07.31c0,.13.13.16.15.19s.06.11,0,.14-.11,0-.15,0l.15.1Z"/><path class="mt_cls-6" d="M22.79,26l.09,0,0,0-.1.07h0Z"/><path class="mt_cls-6" d="M23.62,25.25c-.14,0-.05.19-.29.06a2,2,0,0,1-.85.09s-.17.14-.29,0,0-.47-.16-.75a.73.73,0,0,1-.28.67.79.79,0,0,0,.45.48.57.57,0,0,1,.8-.22c.3-.06.55-.14.78-.18A.38.38,0,0,1,23.62,25.25Z"/><path class="mt_cls-6" d="M22.61,24.14c.1.22.19.59,0,.75.05.08,0,.2.09.22a2,2,0,0,0,.83-.11,2.52,2.52,0,0,1,.54.42,1.1,1.1,0,0,1,.52.15c0-.1-.15-.27-.3-.19,0-.19-.25-.09-.25-.09s0-.27-.26-.23c.08-.31-.34-.29-.34-.29s0-.35-.65-.28a1.61,1.61,0,0,1,1.55.14l.13-.15a.38.38,0,0,1-.18-.1s-.22,0-.27,0a.24.24,0,0,1,0-.17,2.61,2.61,0,0,1-.47-.44A3.06,3.06,0,0,1,23,24,.9.9,0,0,1,22.61,24.14Z"/><path class="mt_cls-7" d="M14.37,19a.86.86,0,0,0,.15.33.73.73,0,0,0,.05.08c.58.58,2,.11,3.15-1s1.63-2.57,1.05-3.15l-.08-.05a.84.84,0,0,0-.33-.15A1.28,1.28,0,0,0,18,15a1.82,1.82,0,0,0-.33,0l-.2,0a4.69,4.69,0,0,0-1.88,1.2,1.79,1.79,0,0,1,2.45-.35,1.79,1.79,0,0,1-.35,2.45,1.78,1.78,0,0,1-2.45.35,1.79,1.79,0,0,1,.35-2.45,4.72,4.72,0,0,0-1.2,1.87c0,.07,0,.14-.05.21a2,2,0,0,0,0,.33A1.28,1.28,0,0,0,14.37,19Z"/><path class="mt_cls-5" d="M15.28,18.71a1.78,1.78,0,0,0,2.45-.35,1.79,1.79,0,0,0,.35-2.45,1.79,1.79,0,0,0-2.45.35A1.79,1.79,0,0,0,15.28,18.71Zm-.12-1,.23-.23.93.47L15.86,17l.24-.23L17,18.59Zm3-.23-.23.23-1.4-1.4L16.8,16Z"/><polygon class="mt_cls-7" points="16.1 16.72 15.86 16.96 16.33 17.89 15.4 17.42 15.16 17.66 17.03 18.59 16.1 16.72"/><polygon class="mt_cls-7" points="16.56 16.26 17.96 17.66 18.2 17.42 16.8 16.02 16.56 16.26"/><path class="mt_cls-7" d="M30,18.71a1.78,1.78,0,0,1-2.45-.35c1.16,1.16,2.57,1.63,3.15,1.05a.76.76,0,0,0,.05-.08.86.86,0,0,0,.15-.33,1.28,1.28,0,0,0,0-.33,1.67,1.67,0,0,0,0-.33c0-.07,0-.13,0-.2a4.71,4.71,0,0,0-1.2-1.88A1.79,1.79,0,0,1,30,18.71Z"/><path class="mt_cls-7" d="M27,15a.87.87,0,0,0-.33.15l-.08.06c-.58.58-.11,2,1.05,3.15a1.79,1.79,0,0,1-.35-2.45,1.79,1.79,0,0,1,2.45.35,4.68,4.68,0,0,0-1.88-1.2l-.2,0a1.8,1.8,0,0,0-.33,0A1.28,1.28,0,0,0,27,15Z"/><path class="mt_cls-5" d="M30,18.71a1.79,1.79,0,0,0-.35-2.45,1.79,1.79,0,0,0-2.45-.35,1.79,1.79,0,0,0,.35,2.45A1.78,1.78,0,0,0,30,18.71Zm-2.68-1,.93-1.87.23.23-.47.93.94-.47.23.23Zm.93.93,1.4-1.4.23.23-1.4,1.4Z"/><polygon class="mt_cls-7" points="29.23 16.72 28.99 16.49 28.06 16.96 28.52 16.02 28.29 15.79 27.36 17.66 29.23 16.72"/><polygon class="mt_cls-7" points="29.93 17.42 29.69 17.19 28.29 18.59 28.52 18.82 29.93 17.42"/><path class="mt_cls-7" d="M27.24,30.67a1.79,1.79,0,0,1,.35-2.45c-1.16,1.16-1.63,2.57-1.05,3.15l.08.06a.86.86,0,0,0,.33.15,1.32,1.32,0,0,0,.33,0,1.9,1.9,0,0,0,.33,0l.2,0a4.67,4.67,0,0,0,1.88-1.2A1.79,1.79,0,0,1,27.24,30.67Z"/><path class="mt_cls-7" d="M31,27.91a1.28,1.28,0,0,0,0-.33.87.87,0,0,0-.15-.33.75.75,0,0,0-.05-.08c-.58-.58-2-.11-3.15,1.05A1.79,1.79,0,0,1,30,27.87a1.79,1.79,0,0,1-.35,2.45,4.7,4.7,0,0,0,1.2-1.87c0-.07,0-.14,0-.2A1.67,1.67,0,0,0,31,27.91Z"/><path class="mt_cls-5" d="M27.24,30.67a1.79,1.79,0,0,0,2.45-.35A1.79,1.79,0,0,0,30,27.87a1.79,1.79,0,0,0-2.45.35A1.79,1.79,0,0,0,27.24,30.67Zm2.92-1.75-.23.23L29,28.68l.47.93-.23.23L28.29,28Zm-1.4,1.4-.23.23-1.4-1.4.23-.23Z"/><polygon class="mt_cls-7" points="29.23 29.85 29.46 29.62 28.99 28.68 29.93 29.15 30.16 28.92 28.29 27.98 29.23 29.85"/><rect class="mt_cls-7" x="27.78" y="28.74" width="0.33" height="1.98" transform="translate(-12.84 28.47) rotate(-45)"/><path class="mt_cls-7" d="M15.28,27.87a1.79,1.79,0,0,1,2.45.35c-1.16-1.16-2.57-1.63-3.15-1.05a.72.72,0,0,0-.05.08.86.86,0,0,0-.15.33,1.27,1.27,0,0,0,0,.33,2,2,0,0,0,0,.33c0,.07,0,.14.05.21a4.72,4.72,0,0,0,1.2,1.87A1.79,1.79,0,0,1,15.28,27.87Z"/><path class="mt_cls-7" d="M18.37,31.58a.85.85,0,0,0,.33-.15l.08-.05c.58-.58.11-2-1.05-3.15a1.79,1.79,0,0,1,.35,2.45,1.79,1.79,0,0,1-2.45-.35,4.68,4.68,0,0,0,1.87,1.2l.21.05.33,0A1.31,1.31,0,0,0,18.37,31.58Z"/><path class="mt_cls-5" d="M15.28,27.87a1.79,1.79,0,0,0,.35,2.45,1.79,1.79,0,0,0,2.45.35,1.79,1.79,0,0,0-.35-2.45A1.79,1.79,0,0,0,15.28,27.87ZM18,28.92,17,30.79l-.23-.23.47-.93-.93.47-.23-.23ZM17,28l-1.4,1.4-.23-.23,1.4-1.4Z"/><polygon class="mt_cls-7" points="16.1 29.85 16.33 30.09 17.26 29.62 16.8 30.55 17.03 30.79 17.96 28.92 16.1 29.85"/><polygon class="mt_cls-7" points="15.4 29.15 15.63 29.39 17.03 27.98 16.8 27.75 15.4 29.15"/><path class="mt_cls-8" d="M20.19,28.61a.33.33,0,0,0-.5.29.33.33,0,1,0,.66,0A.33.33,0,0,0,20.19,28.61Z"/><path class="mt_cls-8" d="M25.14,28.61a.33.33,0,0,0-.17.29.34.34,0,0,0,.17.29.33.33,0,0,0,.49-.29.33.33,0,0,0-.49-.29Z"/><path class="mt_cls-8" d="M23.32,29.24h-.44V28.9a.22.22,0,1,0-.44,0v.34H22c-.44,0-.44.35,0,.35h.44v.34c0,.36.38.4.41,0l0-.37h.44C23.76,29.59,23.76,29.24,23.32,29.24Z"/><path class="mt_cls-5" d="M26.53,24.62a.8.8,0,0,0,.28.14.37.37,0,0,0,0-.17.5.5,0,0,0,.24,0,.36.36,0,0,0-.16-.1l.12-.08a.8.8,0,0,1-.26,0c.05,0,0-.11,0-.11h-.19l0,.07A1.12,1.12,0,0,1,26.53,24.62Z"/><path class="mt_cls-5" d="M26,24.22v0l-.05,0c-.13.06-.49-.16-.49-.16a1.07,1.07,0,0,0,.29.28A.56.56,0,0,0,26,24.22Z"/><path class="mt_cls-5" d="M25.16,26.47c0,.1-.26.05-.26.05a.31.31,0,0,1-.33,0,.6.6,0,0,1-.46.05h-.05a.23.23,0,0,1,0,.11.3.3,0,0,1-.23-.18,1.12,1.12,0,0,1-.46.14s-.22.07-.27,0,.1-.16.1-.16l.06-.25c-.12,0-.27-.06-.38-.35l-.09,0a2.08,2.08,0,0,1,.31.54,1.55,1.55,0,0,1-.44,0c-.1,0-.12-.15-.23-.12l-.15-.12a.73.73,0,0,1-.5.13l.06-.07-.56.07-.22.26-.7.05-1.11,0,1.84.29-1.52-.08.39.33H25.6l.43-.35-.72-.39-.07,0A.14.14,0,0,1,25.16,26.47Z"/><path class="mt_cls-5" d="M23.77,26.39l-.13-.13c-.08.09-.17.15-.13.18S23.66,26.45,23.77,26.39Z"/><path class="mt_cls-5" d="M25.13,25.81a.23.23,0,0,1-.25,0,.24.24,0,0,0-.06-.08l-.1-.07a.41.41,0,0,0-.12,0l0-.06a1.1,1.1,0,0,0-.52-.15l.1.09a.7.7,0,0,1-.39-.08c-.23,0-.48.12-.78.18a.57.57,0,0,0-.8.22l.18.1a.42.42,0,0,1,.38,0l.1-.07,0,0c.12.29.26.36.38.35l0-.21.4-.08a.24.24,0,0,1-.07.26l.13.13a1,1,0,0,0,.26-.18c.17,0,.12.07.11.17s.06.18.06.18h-.1a.6.6,0,0,0,.46-.05.31.31,0,0,0,.33,0s.21,0,.26-.05a.14.14,0,0,0,.09,0,.38.38,0,0,0,.15-.1.42.42,0,0,0,.26-.09l-.07,0,.2-.29a2.55,2.55,0,0,0,.2.2,2.61,2.61,0,0,0,.53-.63l.15-.28.21,0s0-.14-.1-.13-.07-.13-.18-.11-.06-.09-.06-.09c-.2,0-.21.56-.21.56s-.35.27-.48.34c0-.29-.49-.68-.39-.87s.41.29.69.2a.65.65,0,0,0,.37-.46,1.12,1.12,0,0,0,0-.27l0-.07c-.09-.19-.24-.43-.24-.43h-.18L26,23.46s-.33.21-.32.4.18.25.28.31l.05,0h0a.56.56,0,0,1-.26.07h-.1c0,.19.22.15.31.15a.41.41,0,0,0,.18.21s.08.21-.13.19-.47-.52-.78-.29.14.69.14.69a.9.9,0,0,0-.16.12l.07.09Z"/><path class="mt_cls-5" d="M22.29,26.27,22,26.09a1.68,1.68,0,0,1-.18.24l-.06.07A.73.73,0,0,0,22.29,26.27Z"/><path class="mt_cls-5" d="M22.71,25.11c-.11,0,0-.15-.09-.22.17-.17.08-.53,0-.75l-.08,0h-.31c0,.19,0,.47-.19.53,0,0,0,0,0,0,.2.28.05.66.16.75s.29,0,.29,0a2,2,0,0,0,.85-.09c.24.13.14-.06.29-.06a.38.38,0,0,0,.17.19.7.7,0,0,0,.39.08l-.1-.09a2.52,2.52,0,0,0-.54-.42A2,2,0,0,1,22.71,25.11Z"/><path class="mt_cls-5" d="M20.06,23.8h0c-.36.1-1-.47-1.29-.25s-.16.76,0,1-.28.36-.41.51,0,.31,0,.31l.13.09,0,.2.07.24s.07.06.09,0,0,.24.16.26a1,1,0,0,1,0-.43s.27,0,.33-.09-.06-.36-.06-.36h.08c-.09-.06-.12-.25-.12-.25s.37-.12.36-.39-.6-.57-.38-.72.64.39,1,.16a.84.84,0,0,1-.07-.24Z"/><path class="mt_cls-5" d="M20.15,21c.21-.35.35-.43.45-.41a.51.51,0,0,1,.33-.29c0-.15.24-.26.47-.36a.67.67,0,0,1,.32-.09l-.18,0h0a.7.7,0,0,1-.31-.06,5.26,5.26,0,0,1-1.33-.32.39.39,0,0,0-.36.29c-.26,0-.43.39-.39.47-.46-.19-.68.55-.53.7-.4,0-.35.52-.38.66-.13.31,0,.41.28.3,0,.13,0,.21-.13.24.58.66.95-.12,1.4-.39C19.83,21.41,19.93,21.08,20.15,21Z"/><path class="mt_cls-5" d="M21.11,21h0a.71.71,0,0,1,.12-.26c-.09.1-.26.38-.57.35a.79.79,0,0,1-.2.34A2,2,0,0,0,21.11,21Z"/><path class="mt_cls-5" d="M22.1,19.77s0-.11,0-.25a.51.51,0,0,1,0-.09h0l-.21.11a.69.69,0,0,0,.15.27Z"/><path class="mt_cls-5" d="M22.29,19.14l.07,0a.38.38,0,0,1,.15,0h.06a.54.54,0,0,1,.21.08h0a.47.47,0,0,1,.24.38s0,0,0,0h0a.25.25,0,0,1-.08.18,1.81,1.81,0,0,0,0,.22L23,19.9l.28-.48s0-.05,0-.08a.72.72,0,0,0-.72-.72.71.71,0,0,0-.69.56,1.9,1.9,0,0,1,.29.08A.64.64,0,0,1,22.29,19.14Z"/><path class="mt_cls-5" d="M25.66,21.43A2.46,2.46,0,0,1,25,22a1.68,1.68,0,0,0-.4-.44c.08-.15-.17-.5-.38-.76a3.23,3.23,0,0,1-1.18.7.37.37,0,0,1,0,.11.9.9,0,0,1-.21.29.78.78,0,0,1-.11.28,1.32,1.32,0,0,1,.94.41,3.74,3.74,0,0,0,.29.93l.16-.07a3.49,3.49,0,0,0,1.37-.27.4.4,0,0,0,.38.08c.53.28.54.89.67.51.13.46.49.4.49.4l-.39-.67s-.44-.34-.74-.59a1.53,1.53,0,0,0-.81-.1,1.28,1.28,0,0,0,.58-.87c.57-.14,1,.32,1.18.3.16.32.53.08.53.08l-.62-.5C26.47,21.75,26,21.43,25.66,21.43Z"/><path class="mt_cls-5" d="M22.94,20.44h0a.8.8,0,0,0,0,.64s0,.14.07.28a3.61,3.61,0,0,0,1.13-.69l-.2-.23a1.35,1.35,0,0,0,.55-.17h0l.16-.2h.13l-.14.18a.46.46,0,0,0,.22-.11s.13,0,.16-.09a.51.51,0,0,0-.07-.39,7.66,7.66,0,0,0-1.17-.18.42.42,0,0,0,0-.29,1,1,0,0,0-.3.16l0,0C23.47,19.67,23.1,20,22.94,20.44Z"/><path class="mt_cls-5" d="M22.79,21.52h0v0Z"/><path class="mt_cls-5" d="M22.29,26.27l.15.12c.12,0,.13.08.23.12a1.55,1.55,0,0,0,.44,0,2.08,2.08,0,0,0-.31-.54v0h0a.42.42,0,0,0-.38,0l-.18-.1a.79.79,0,0,1-.45-.48.73.73,0,0,0,.28-.67s0,0,0,0c.17-.05.14-.34.19-.53h.31l.08,0A.9.9,0,0,0,23,24a3.06,3.06,0,0,0,.5-.31,1.14,1.14,0,0,1-.31-.86,5.3,5.3,0,0,1-1.45-.21h0a6.79,6.79,0,0,0-.73.2l.32.21.36.53L21,23.35l-.4-.34a1.32,1.32,0,0,0-.58.79l0,0a.84.84,0,0,0,.07.24,1.79,1.79,0,0,0,1.2.92c.08.26-.18.67-.1.82s.33,0,.82.26Z"/><path class="mt_cls-5" d="M19.71,22c-.08,0-.2-.06-.23,0s.16.25.16.25h0a.22.22,0,0,1,0,0A.52.52,0,0,1,19.71,22Z"/><path class="mt_cls-5" d="M21.7,23.57,21.33,23,21,22.83l-.71-.46-.15-.1h0s0,.2,0,.23,0,0-.07,0l.07,0,.51.44.4.34Z"/><path class="mt_cls-5" d="M24.9,24.51s-.24,0-.41,0l-.13.15a3.06,3.06,0,0,1,.65.53,2.38,2.38,0,0,1,.56-1.47c-.21-.05-.61.3-.89.6C24.8,24.39,24.91,24.48,24.9,24.51Z"/><path class="mt_cls-5" d="M22.1,19.77l0,0-.11.07-.1,0,.08,0a2.93,2.93,0,0,0,.46.38l.26.11-.25-.13a.35.35,0,0,0,.1-.07c.08,0,.23-.12.25-.17s.14,0,.16,0V20a1.81,1.81,0,0,1,0-.22.25.25,0,0,0,.08-.18c-.23.05-.62-.18-.92-.12a.51.51,0,0,0,0,.09C22.13,19.67,22.13,19.74,22.1,19.77Z"/><path class="mt_cls-5" d="M22.29,19.14l.07,0Z"/><path class="mt_cls-5" d="M23,19.52a.19.19,0,0,1,0,0S23,19.53,23,19.52Z"/><path class="mt_cls-5" d="M22.51,19.06h0Z"/><path class="mt_cls-5" d="M22.79,19.13h0Z"/><path class="mt_cls-5" d="M22.67,22.15h0v-.26c-.27-.24-.51-.32-.71-.64-.11-.15,0-.52-.22-.76s-.41-.41-.36-.55h0c-.23.09-.46.21-.47.36a.51.51,0,0,0-.33.29c-.1,0-.23.06-.45.41-.23.1-.33.43-.37.68a2.55,2.55,0,0,0,0,.31l0,.05a.52.52,0,0,0-.08.18.22.22,0,0,0,0,0c0,.05,0,.1.08.09s.07.1.11.08.09.08.13.08.05,0,.1,0,.06,0,.07,0,0-.22,0-.23h0s.12.07.15,0,0-.11,0-.14-.12-.06-.15-.19a.62.62,0,0,1,.07-.31,2.46,2.46,0,0,0,.27-.27.79.79,0,0,0,.2-.34c.31,0,.48-.24.57-.35a.71.71,0,0,0-.12.26.69.69,0,0,0,.16.69c0,.3.27.89.47,1h0a5.3,5.3,0,0,0,1.45.21,1.14,1.14,0,0,0,.31.86,2.61,2.61,0,0,0,.47.44.24.24,0,0,0,0,.17c0,.06.26.07.27,0a.38.38,0,0,0,.18.1c.17.06.39.07.41,0s-.09-.12-.23-.23-.51-.39-.6-.48l-.15-.32a3.74,3.74,0,0,1-.29-.93A1.32,1.32,0,0,0,22.67,22.15Z"/><path class="mt_cls-5" d="M21.54,19.78a1,1,0,0,1,.35-.24l.21-.11h0c.3-.07.69.17.92.12h0a.19.19,0,0,0,0,0,.47.47,0,0,0-.24-.38h0a.54.54,0,0,0-.21-.08h-.06a.38.38,0,0,0-.15,0l-.07,0a.64.64,0,0,0-.12.11,1.9,1.9,0,0,0-.29-.08.45.45,0,0,0-.34,0c-.47-.19-.59.13-.59.13s-.35,0-.44.21a1.74,1.74,0,0,1,.72.18.7.7,0,0,0,.31.06Z"/><path class="mt_cls-5" d="M22.75,21.9h0l0-.13,0-.25c-.4,0-.23-.8-.23-.8h0a.2.2,0,0,1,0-.08s-.13,0-.15-.1a.13.13,0,0,1-.13-.1c-.06,0-.13-.08-.13-.08s.17,0,.21,0,.11,0,.13.09.11.05.11.1,0,0,.05.05v-.21h0l-.26-.11a2.93,2.93,0,0,1-.46-.38l-.08,0-.11,0a.67.67,0,0,0-.32.09h0c0,.15.17.31.36.55s.11.61.22.76c.19.32.44.4.71.64l.07.06Z"/><path class="mt_cls-5" d="M22.62,20.74c0,.15-.06.69.17.69v0l-.15-.51v-.18l0,0Z"/><path class="mt_cls-5" d="M22.49,20.45c0-.05-.07-.07-.13-.09s-.21,0-.21,0,.07.09.13.08a.13.13,0,0,0,.13.1c0,.06.11.08.15.1a.2.2,0,0,0,0,.08h0v0h0l0,0V20.6s0,0-.05-.05S22.55,20.46,22.49,20.45Z"/><path class="mt_cls-5" d="M22.85,20.14l-.19.16v.6l.15.51v0h0l.16-.06c0-.14-.07-.28-.07-.28a.8.8,0,0,1,0-.64h0c.16-.42.53-.77.62-1l0,0a.28.28,0,0,0-.22,0l0,0L23,19.9Z"/><path class="mt_cls-5" d="M22.79,21.55l0,.22,0,.13h0l0,0a.9.9,0,0,0,.21-.29.37.37,0,0,0,0-.11l-.2.06Z"/><path class="mt_cls-5" d="M24.66,20.09l-.16.2a4.11,4.11,0,0,1-.39.4,3.61,3.61,0,0,1-1.13.69l-.16.06h0c-.22,0-.18-.54-.17-.69v0h-.08s-.17.77.23.8h0l.2-.06a3.23,3.23,0,0,0,1.18-.7,5.17,5.17,0,0,0,.48-.49l.14-.18Z"/><path class="mt_cls-5" d="M24.35,24.63a1.61,1.61,0,0,0-1.55-.14c.63-.07.65.28.65.28s.43,0,.34.29c.25,0,.26.23.26.23s.21-.1.25.09c.14-.08.25.09.3.19l0,.06a.41.41,0,0,1,.12,0l.1.07a.24.24,0,0,1,.06.08.23.23,0,0,0,.25,0l.11-.37-.07-.09-.17-.2A3.06,3.06,0,0,0,24.35,24.63Z"/><path class="mt_cls-5" d="M25.78,25.95l-.2.29.07,0c.75.53,1-.08,1-.08a.13.13,0,0,1-.1-.13c-.08,0-.13-.11-.13-.11s0,.35-.18.35a.57.57,0,0,1-.28-.16A2.55,2.55,0,0,1,25.78,25.95Z"/><path class="mt_cls-5" d="M23.1,26.7s.27,0,.27,0a1.12,1.12,0,0,0,.46-.14.3.3,0,0,0,.23.18.23.23,0,0,0,0-.11h.15s0-.13-.06-.18.06-.18-.11-.17a1,1,0,0,1-.26.18c-.11.05-.22.08-.26.06s0-.1.13-.18a.24.24,0,0,0,.07-.26l-.4.08,0,.21-.06.25S23.06,26.67,23.1,26.7Z"/><path class="mt_cls-8" d="M29.28,22.42v0a.12.12,0,0,1,0,.1.24.24,0,0,1-.14,0l-.77,0h-.13a.13.13,0,0,1-.05-.11v0h0l0,.51h0v0a.12.12,0,0,1,0-.1.23.23,0,0,1,.13,0l.35,0a.12.12,0,0,0,0,0v0a.56.56,0,0,0,0,.07l-.53.43,0,.31h0a.42.42,0,0,1,0-.16.65.65,0,0,1,.15-.15l.33-.26a.39.39,0,0,0,.13.21.28.28,0,0,0,.19.06.27.27,0,0,0,.17-.07.33.33,0,0,0,.09-.16,1.06,1.06,0,0,0,0-.28l0-.43Zm-.07.66a.26.26,0,0,1-.37,0,.4.4,0,0,1-.09-.25v0l.49,0a.67.67,0,0,1,0,.14A.25.25,0,0,1,29.21,23.09Z"/><path class="mt_cls-8" d="M28.25,19.76a.13.13,0,0,1,.1.06l0,0,0,0-.25-.33,0,0,0,0a.12.12,0,0,1,0,.1s0,.06-.1.1l-.55.41.28-1.11-.19-.26,0,0,0,.07a.34.34,0,0,1,0,.08.57.57,0,0,1,0,.11l-.66.49a.27.27,0,0,1-.12.06.11.11,0,0,1-.1-.06l0,0,0,0,.24.33,0,0,0,0a.13.13,0,0,1,0-.1s0-.06.1-.1l.59-.44-.3,1.2,0,0,.81-.6A.27.27,0,0,1,28.25,19.76Z"/><path class="mt_cls-8" d="M28,21.72v0a.12.12,0,0,1,0-.11.25.25,0,0,1,.12-.07l.86-.3.05.16a.29.29,0,0,1,0,.12.19.19,0,0,1,0,.09l-.09.06v0l.26-.1-.32-.91-.27.08v0a.25.25,0,0,1,.13,0,.15.15,0,0,1,.09.05.39.39,0,0,1,.05.11l0,.13-.86.3a.25.25,0,0,1-.12,0,.12.12,0,0,1-.08-.09l0,0h0l.17.47Z"/><path class="mt_cls-8" d="M29.24,24.46l-.07.07-.12,0-.56.19-.27-.07a.28.28,0,0,1-.12-.05.12.12,0,0,1,0-.12v0h0l-.13.49h0v0a.15.15,0,0,1,.06-.09.26.26,0,0,1,.14,0l.29.08.36.39.1.12a.25.25,0,0,1,0,.09.17.17,0,0,1,0,.07v0h0l.11-.4h0a.2.2,0,0,1,0,.06l0,0h0a.25.25,0,0,1-.11-.08l-.29-.32.43-.14.12,0a.06.06,0,0,1,0,0,.17.17,0,0,1,0,.08v0h0l.13-.49h0Z"/><path class="mt_cls-8" d="M17.23,24.58v0a.17.17,0,0,1,0,.08.1.1,0,0,1,0,0l-.11,0-.36.09,0-.21a.19.19,0,0,1,0-.09.12.12,0,0,1,0-.06l.09,0v0l-.39.09v0a.2.2,0,0,1,.14,0,.15.15,0,0,1,.06.1l0,.21-.45.11-.06-.26a.38.38,0,0,1,0-.14.2.2,0,0,1,0-.09.37.37,0,0,1,.11-.08v0l-.25.07.2.86h0v0a.17.17,0,0,1,0-.08.08.08,0,0,1,0,0l.11,0,.75-.18a.26.26,0,0,1,.14,0,.13.13,0,0,1,.07.09v0h0l-.12-.5Z"/><path class="mt_cls-8" d="M17.57,20.92a.6.6,0,0,1-.2.08l-.41.11a.39.39,0,0,0,0-.25.28.28,0,0,0-.34-.14.32.32,0,0,0-.15.11,1,1,0,0,0-.13.25l-.15.4h0l0,0a.12.12,0,0,1,.07-.08s.07,0,.14,0l.71.27a.28.28,0,0,1,.11.06.12.12,0,0,1,0,.12l0,0h0l.18-.48h0l0,0a.12.12,0,0,1-.07.08.25.25,0,0,1-.14,0l-.32-.12v0l0-.07.66-.18.11-.3h0A.36.36,0,0,1,17.57,20.92Zm-.72.41v0l-.46-.18a1,1,0,0,1,0-.13.25.25,0,0,1,.13-.15.24.24,0,0,1,.19,0,.24.24,0,0,1,.14.15A.39.39,0,0,1,16.85,21.33Z"/><path class="mt_cls-8" d="M19.15,18.79a.63.63,0,0,0,.56-.1,1,1,0,0,0,.17-.14,1,1,0,0,0,.12-.17l-.2-.3a.32.32,0,0,1-.06-.12.11.11,0,0,1,.05-.09h0l0,0-.39.25,0,0,.09,0h.06a.3.3,0,0,1,.07.09l.19.29a.49.49,0,0,1-.07.11l-.1.08a.42.42,0,0,1-.22.06.47.47,0,0,1-.26-.08A.72.72,0,0,1,19,18.4a.65.65,0,0,1-.11-.36.38.38,0,0,1,.19-.34.37.37,0,0,1,.28-.06.5.5,0,0,1,.21.11l0,0-.23-.3,0,0a.11.11,0,0,1,0,.06,0,0,0,0,1,0,0l-.06,0-.15,0-.11.05a.62.62,0,0,0-.22.23.65.65,0,0,0-.06.35.63.63,0,0,0,.1.29A.59.59,0,0,0,19.15,18.79Z"/><path class="mt_cls-8" d="M16.5,23.57a.63.63,0,0,0,.46-.14.57.57,0,0,0,0-.83.63.63,0,0,0-.44-.2.6.6,0,0,0-.45.14.54.54,0,0,0-.2.39.58.58,0,0,0,.13.41A.6.6,0,0,0,16.5,23.57Zm-.38-.87a.72.72,0,0,1,.46-.09.63.63,0,0,1,.4.13.34.34,0,0,1,.12.28.32.32,0,0,1-.13.25.72.72,0,0,1-.45.1.66.66,0,0,1-.42-.15A.31.31,0,0,1,16,23,.33.33,0,0,1,16.12,22.71Z"/><path class="mt_cls-8" d="M25.64,18.66s-.07-.07-.07-.09a.07.07,0,0,1,0-.05l.09-.07.17-.11.37.26,0,.18a.31.31,0,0,1,0,.12.06.06,0,0,1,0,0,.17.17,0,0,1-.09,0l0,0,.38.27,0,0a.18.18,0,0,1-.07-.1.46.46,0,0,1,0-.18l.23-1,0,0-.9.55a.56.56,0,0,1-.18.08l-.1,0,0,0,.3.22Zm.69-.62-.11.51-.33-.24Z"/><path class="mt_cls-8" d="M21,18.07v0h-.12a.06.06,0,0,1,0,0,.23.23,0,0,1,0-.11l0-.2.44-.12.11.15a.32.32,0,0,1,.06.11.05.05,0,0,1,0,.05.18.18,0,0,1-.09,0v0l.45-.12v0a.18.18,0,0,1-.12,0,.47.47,0,0,1-.13-.12l-.65-.85h0l-.15,1.05a.52.52,0,0,1-.05.19.19.19,0,0,1-.08.06v0Zm0-1,.32.41-.4.1Z"/><path class="mt_cls-8" d="M23.38,17.52h0a.66.66,0,0,1-.1.16.25.25,0,0,1-.1.07h-.42l0,0a.25.25,0,0,1,0-.1l0-.75a.41.41,0,0,1,0-.13.11.11,0,0,1,.05,0h.13v0l-.54,0v0h0a.12.12,0,0,1,.1,0,.23.23,0,0,1,0,.14l0,.77a.27.27,0,0,1,0,.13.12.12,0,0,1-.11,0h0v0l.92,0Z"/><path class="mt_cls-8" d="M25,17.95l0,0a.5.5,0,0,1-.14.12.24.24,0,0,1-.12,0,.61.61,0,0,1-.19,0l-.08,0L24.28,18l0,0a.22.22,0,0,1,0-.1l.23-.71a.42.42,0,0,1,.05-.12l.06,0,.13,0v0l-.51-.17v0h0a.13.13,0,0,1,.09.07.24.24,0,0,1,0,.14l-.24.73a.25.25,0,0,1-.06.12.11.11,0,0,1-.12,0h0v0l.87.29Z"/></g></g></svg>
