<svg xmlns="http://www.w3.org/2000/svg" viewBox="0 0 200 134"><defs><style>.mz_cls-1{fill:#121212;}.mz_cls-2{fill:#fff;}.mz_cls-3{fill:#17716a;}.mz_cls-4{fill:#fce632;}.mz_cls-5{fill:#d32a40;}.mz_cls-6{fill:#fce100;}.mz_cls-7{fill:#010101;}</style></defs><title>Asset 24</title><g id="Layer_2" data-name="Layer 2"><g id="Layer_77" data-name="Layer 77"><polygon class="mz_cls-1" points="87.43 67 60.02 87.89 200 87.89 200 46.06 59.95 46.06 87.43 67"/><polygon class="mz_cls-2" points="59.95 46.06 200 46.06 200 41.87 54.45 41.87 59.95 46.06"/><path class="mz_cls-3" d="M183,0H17A16.92,16.92,0,0,0,5.46,4.54l49,37.33H200V17A17,17,0,0,0,183,0Z"/><polygon class="mz_cls-2" points="54.45 92.13 200 92.13 200 87.89 60.02 87.89 54.45 92.13"/><path class="mz_cls-4" d="M5.46,129.46A16.92,16.92,0,0,0,17,134H183a17,17,0,0,0,17-17V92.13H54.45Z"/><path class="mz_cls-5" d="M23.83,57.37l-.6-.67a2.47,2.47,0,0,1-1.48.16L20.2,55.14,20,57.79l-2.64,3.34,5.28,0Z"/><path class="mz_cls-5" d="M60,87.89,87.43,67,59.95,46.06l-5.5-4.19L5.46,4.54A16.94,16.94,0,0,0,0,17V117a16.93,16.93,0,0,0,5.46,12.46l49-37.32ZM16.88,78.71H14.6l.06-.24-4,4.84a.79.79,0,0,1-.9,0L7,80.06l4.41-3.89a3.33,3.33,0,0,1,1.72-.49l2.46-2.46h.34l.24-1-.33.28.14-1.64L2.37,61.07l7.81,0,5.29-7.5,1.15-.25s2.12.44,2.38-.08a2,2,0,0,1,3-1.8l2.79,3,0,.14,4.09-12.78,4.73,14.75.41-.39,1.81.08,2.38-2.22.09-1.51c.28.57,1.55,1,1.63,1s.62-.85,1-.41,0,.55,0,.82l.33.25,9.35-6.6-8.58,8.24a.82.82,0,0,1-.83-.12l-5.19,4.4a2.35,2.35,0,0,0-1.23-1l-.25.22L35,61.15l20.24-.09L41.72,70.79l2,6.42,0,0,3.64,4.18c-.06.89-.25,1.12-1.15,1.48l-3.77-4.3-.11.12s-.67-.19-1.7-.4l4.55,13.81-16.34-12-16.32,12Z"/><path class="mz_cls-6" d="M28.93,60.41c.08.16,1.61-1.44,1.73-1.53l.4.62h0l.25-.75,2.22-2.15L28.79,41.87,24.7,54.64l-.21.76Z"/><path class="mz_cls-6" d="M16.52,70.52,17.59,66s1.27-1.3,1.41-1.4c1.23-.62,5.62-1.14,5.62-1.14l.07,0L26.46,62c0,.76.52,1.23,1.11,1.62.37-.2.62-.46,1-.67l-.3-.43c-.25.16-.48.36-.73.53l-.66-.72.73-.71-3.78-4.21-1.21,3.77-5.28,0-4.75,6L9,62.79l1.2-1.69-7.81,0,13.57,9.77,0-.25Z"/><path class="mz_cls-6" d="M31.39,60.58,31,59.79l-.1.46-1.2,1.08s.29.32.29.4A17,17,0,0,0,31.39,60.58Z"/><path class="mz_cls-6" d="M32.46,61.64,31.22,63l.54.61c4.76-.41,7.27,1.09,7.27,1.09L40.25,66l1.47,4.82,13.49-9.73L35,61.15l-.56-1.75-1.63,1.42A1,1,0,0,1,32.46,61.64Z"/><path class="mz_cls-6" d="M28.79,80.17l16.34,12L40.57,78.32c-2.34-.47-6.56-1-9.12.38-2,1.51-4.12,1.08-5.07,0H16.88L12.46,92.13Z"/><path class="mz_cls-2" d="M20.64,69.27l.33.25.58-.49.08-.33s3.2-3,3.29-3-.17-.33-.17-.33l-3.69,3L20.56,68v.57L16.13,72.2l-.24,1h.32Z"/><path class="mz_cls-2" d="M39,64.66s-2.51-1.5-7.27-1.09l11.9,13.67,0,0-2-6.42L40.25,66Z"/><path class="mz_cls-2" d="M31.45,78.7c2.56-1.4,6.78-.85,9.12-.38,1,.21,1.7.4,1.7.4l.11-.12L29.75,64.19,27,66.57,25.73,65l-.16.57.74,1.07s-1.72.17-1.56,1.56S32,70.34,32,70.34s-.09,3.09-.16,3.06c-2.62,1.15-9.44-3.14-9.44-3.14l-.49.66.74,1.15-2,2.13.9,3.2-1.4,1L19,75.28l-.75-.67L20,73h.9a10.65,10.65,0,0,0,.9-1.07l-.57-.74-.74.57c-.25.35,0,.5.3.59l-.7-.07-3.29,2.93a1.35,1.35,0,0,1-.33,1l-1.72,2.13-.07.08-.06.24H26.37C27.32,79.77,29.43,80.21,31.45,78.7Z"/><path class="mz_cls-2" d="M19,64.57c-.13.11-1.41,1.4-1.41,1.4l-1.06,4.54h.09l7.3-6.07L24,64l.69-.57-.07,0S20.22,64,19,64.57Z"/><path class="mz_cls-7" d="M16.45,76.25a1.35,1.35,0,0,0,.33-1l3.29-2.93.7.07c-.32-.08-.55-.24-.3-.59l.74-.57.57.74a10.65,10.65,0,0,1-.9,1.07H20l-1.72,1.56.75.67,1.13,3.11,1.4-1-.9-3.2,2-2.13-.74-1.15.49-.66s6.82,4.29,9.44,3.14c.07,0,.16-3.06.16-3.06s-7.05-.74-7.22-2.13,1.56-1.56,1.56-1.56l-.74-1.07.16-.57L27,66.57l2.79-2.38L42.39,78.59l3.77,4.3c.89-.36,1.09-.58,1.15-1.48l-3.64-4.18L31.76,63.57,31.22,63l1.23-1.31a1,1,0,0,0,.33-.82l1.63-1.42.25-.22a2.35,2.35,0,0,1,1.23,1l5.19-4.4a.82.82,0,0,0,.83.12l8.58-8.24-9.35,6.6L40.83,54c0-.27.34-.34,0-.82s-.9.41-1,.41-1.35-.45-1.63-1l-.09,1.51-2.38,2.22-1.81-.08-.41.39L31.3,58.77l-.25.75h0l-.4-.62c-.12.09-1.65,1.69-1.73,1.53l-4.43-5,.21-.76,0-.14-2.79-3a2,2,0,0,0-3,1.8c-.25.52-2.38.08-2.38.08l-1.15.25-5.29,7.5L9,62.79l3.61,4.35,4.75-6L20,57.79l.22-2.65,1.55,1.73a2.47,2.47,0,0,0,1.48-.16l.6.67,3.78,4.21-.73.71.66.72c.25-.16.48-.36.73-.53l.3.43c-.37.2-.62.47-1,.67-.59-.38-1.15-.86-1.11-1.62l-1.78,1.48L24,64l-.08.41-7.3,6.07h-.09l-.56.07,0,.25-.14,1.64.33-.28,4.43-3.66V68l.49.41,3.69-3s.25.33.17.33-3.29,3-3.29,3l-.08.33-.58.49-.33-.25-4.43,3.94h-.66l-2.46,2.46a3.33,3.33,0,0,0-1.72.49L7,80.06l2.77,3.25a.79.79,0,0,0,.9,0l4-4.84.07-.08Zm14.44-16,.1-.46.39.79A17,17,0,0,1,30,61.72c0-.08-.28-.36-.29-.4Z"/></g></g></svg>
