<svg id="Layer_1" xmlns="http://www.w3.org/2000/svg" viewBox="0 0 200 134"><style>.st0{fill:#41479b}.st1{fill:#ffe15a}.st2{fill:#f5f5f5}</style><path class="st0" d="M185 134H15c-8.3 0-15-6.9-15-15.3V15.3C0 6.9 6.7 0 15 0h170c8.3 0 15 6.9 15 15.3v103.4c0 8.4-6.7 15.3-15 15.3z"/><path class="st1" d="M0 59.9h200V74H0z"/><path class="st2" d="M46.6 88.2l2 8.2 5.7-6.1-2.3 8.1 8-2.3-6 5.9 8.1 2-8.1 2.1 6 5.9-8-2.4 2.3 8.2-5.7-6.1-2 8.2-2.1-8.2-5.7 6.1 2.3-8.2-8 2.4 6-5.9L31 104l8.1-2-6-5.9 8 2.3-2.3-8.1 5.7 6.1z"/></svg>