<svg xmlns="http://www.w3.org/2000/svg" viewBox="0 0 200 134"><defs><style>.pa_cls-1{fill:#fafafa;}.pa_cls-2{fill:#2968b2;}.pa_cls-3{fill:#d31f36;}</style></defs><title>Asset 40</title><g id="Layer_2" data-name="Layer 2"><g id="Layer_61" data-name="Layer 61"><path class="pa_cls-1" d="M100,134h83a17,17,0,0,0,17-17V67H100Zm50.62-50.12,3.79,11.66h12.26l-9.92,7.21,3.79,11.66-9.92-7.21-9.92,7.21,3.79-11.66-9.92-7.21h12.26Z"/><path class="pa_cls-1" d="M100,0H17A17,17,0,0,0,0,17V67H100ZM59.3,46.9,49.38,39.7,39.47,46.9l3.79-11.66L33.34,28H45.6l3.79-11.66L53.17,28H65.43l-9.92,7.21Z"/><polygon class="pa_cls-2" points="65.43 28.04 53.17 28.04 49.38 16.38 45.6 28.04 33.34 28.04 43.26 35.24 39.47 46.9 49.38 39.7 59.3 46.9 55.51 35.24 65.43 28.04"/><path class="pa_cls-2" d="M0,67v50a17,17,0,0,0,17,17h83V67Z"/><path class="pa_cls-3" d="M183,0H100V67H200V17A17,17,0,0,0,183,0Z"/><polygon class="pa_cls-3" points="166.66 95.54 154.4 95.54 150.62 83.88 146.83 95.54 134.57 95.54 144.49 102.74 140.7 114.4 150.62 107.2 160.53 114.4 156.74 102.74 166.66 95.54"/></g></g></svg>
