<svg id="Layer_1" xmlns="http://www.w3.org/2000/svg" viewBox="0 0 200 134"><style>.st0{fill:#ff4b55}.st1{fill:#f5f5f5}.st2{fill:#ffb955}.st3{fill:#4173cd}.st4{fill:#aa4650}</style><path class="st0" d="M0 118.7c0 8.5 6.7 15.3 15 15.3h170c8.3 0 15-6.9 15-15.3v-20H0v20zM185 0H15C6.7 0 0 6.9 0 15.3v19.9h200V15.3C200 6.9 193.3 0 185 0z"/><path class="st1" d="M0 35.3h200v63.5H0z"/><path class="st2" d="M122.7 58l-21.9 9.1V67L122 56.2c-.8-1.7-1.9-3.3-3-4.8l-18.2 15.4v-.1l16.7-17.1c-1.2-1.2-2.5-2.3-3.9-3.3l-12.9 20.2s-.1 0-.1-.1L111 45c-1.7-.9-3.5-1.5-5.4-2l-5.4 23.6h-.4L94.4 43c-1.9.5-3.7 1.1-5.4 2l10.6 21.6s-.1 0-.1.1L86.6 46.5c-1.4.9-2.7 2-3.9 3.3l16.7 17.1v.1L81.1 51.5c-1.2 1.5-2.2 3.1-3 4.8l21.1 10.8v.1L77.3 58c-.7 1.7-1.2 3.4-1.5 5.2l23.3 4.1v.1l-23.5-2.5c-.1.8-.1 1.7-.1 2.6 0 1.5.1 3 .4 4.4l24.2-2.6 24.2 2.6c.2-1.4.4-2.9.4-4.4 0-.9 0-1.7-.1-2.6l-23.5 2.5v-.1l23.3-4.1c-.5-1.8-1-3.5-1.7-5.2z"/><path class="st3" d="M76.3 73.9c.2.6.4 1.3.6 1.9h46.3c.2-.6.4-1.3.6-1.9-2.3-.3-2.5-1.8-5.3-1.8-3.1 0-3.1 1.9-6.1 1.9-3.1 0-3.1-1.9-6.1-1.9-3.1 0-3.1 1.9-6.1 1.9-3.1 0-3.1-1.9-6.1-1.9C91 72.1 91 74 88 74c-3.1 0-3.1-1.9-6.1-1.9-3.1 0-3.4 1.5-5.6 1.8zM117.7 78.6c-3 0-3-1.9-5.9-1.9-3 0-3 1.9-5.9 1.9s-3-1.9-5.9-1.9c-3 0-3 1.9-5.9 1.9-3 0-3-1.9-5.9-1.9-3 0-3 1.9-5.9 1.9-2.6 0-2.9-1.5-5-1.8.5 1.3 1.1 2.5 1.8 3.6h42c.7-1.2 1.3-2.4 1.8-3.7-2.3.4-2.6 1.9-5.2 1.9zM120 82c-.6-.3-1.2-.5-2.3-.5-3 0-3 1.9-5.9 1.9-3 0-3-1.9-5.9-1.9-3 0-3 1.9-5.9 1.9-3 0-3-1.9-5.9-1.9-3 0-3 1.9-5.9 1.9-3 0-3-1.9-5.9-1.9-1.1 0-1.7.2-2.3.5.8 1.1 1.6 2.2 2.6 3.2h34.9c.9-1.1 1.8-2.1 2.5-3.2zM115.1 87.2c-.9-.5-1.6-1.2-3.3-1.2-3 0-3 1.9-5.9 1.9s-3-1.9-5.9-1.9c-3 0-3 1.9-5.9 1.9-3 0-3-1.9-5.9-1.9-1.7 0-2.4.6-3.3 1.1 1.2 1 2.5 1.8 3.9 2.6h22.5c1.3-.6 2.6-1.5 3.8-2.5zM94.1 90.7c-1 0-1.6.2-2.2.5 2.5.9 5.2 1.4 8.1 1.4-2.9 0-2.9-1.9-5.9-1.9zM100 92.6c2.8 0 5.5-.5 8-1.4-.5-.3-1.2-.5-2.2-.5-2.8 0-2.8 1.9-5.8 1.9z"/><g><path class="st0" d="M103.2 64.3L95.5 62c-.4-.1-.7-.5-.7-1 0-2.9-.2-13.3-.2-14.9 0-1.9 1.8-4.6 5.5-4.6h2.9c.3 0 .4.4.1.5-1.3.6-3 1.8-3 4.2 0 2.8 2.6 4 3.9 4.5.4.1.7.5.7.9v11.8c-.2.6-.8 1.1-1.5.9zM96.4 74.7c.3-.2.6.1.5.4-.8 1.9-2.6 5.4-6 5.4-4.5 0-5.5-3.7-5.5-6.5V54.3c0-.4.3-.7.7-.7h1.3c.4 0 .7.3.7.7V73c.1 2.6 5.3 3.6 8.3 1.7zM103.3 74.7c-.3-.2-.6.1-.5.4.8 1.9 2.6 5.4 6 5.4 4.5 0 5.5-3.7 5.5-6.5V54.3c0-.4-.3-.7-.7-.7h-1.3c-.4 0-.7.3-.7.7V73c-.2 2.6-5.3 3.6-8.3 1.7z"/></g><g><path class="st4" d="M109.6 71.6H90.4c-.2 0-.4-.2-.4-.4s.2-.4.4-.4h19.1c.2 0 .4.2.4.4.1.2-.1.4-.3.4zM91.9 68.1l1-1.3c.2-.2.1-.5-.1-.7-.2-.2-.5-.1-.6.1l-.4.5v-.4c0-.3-.2-.5-.5-.5s-.5.2-.5.5v.3l-.4-.5c-.2-.2-.4-.2-.6-.1-.2.2-.2.4-.1.7l1 1.3-1 1.3c-.2.2-.1.5.1.7.1.1.2.1.3.1.1 0 .3-.1.4-.2l.8-1.1.8 1.1c.1.1.2.2.4.2.1 0 .2 0 .3-.1.2-.2.2-.4.1-.7l-1-1.2zM100.4 68.1l1-1.3c.2-.2.1-.5-.1-.7-.2-.2-.5-.1-.6.1l-.4.5v-.4c0-.3-.2-.5-.5-.5s-.5.2-.5.5v.3l-.3-.4c-.2-.2-.4-.2-.6-.1-.2.2-.2.4-.1.7l1 1.3-1 1.3c-.2.2-.1.5.1.7.1.1.2.1.3.1.1 0 .3-.1.4-.2l.8-1.1.8 1.1c.1.1.2.2.4.2.1 0 .2 0 .3-.1.2-.2.2-.4.1-.7l-1.1-1.3zM96.2 68.1l1-1.3c.2-.2.1-.5-.1-.7-.2-.2-.5-.1-.6.1l-.5.6v-.4c0-.3-.2-.5-.5-.5s-.5.2-.5.5v.3l-.4-.5c-.2-.2-.4-.2-.6-.1-.2.2-.2.4-.1.7l1 1.3-1 1.3c-.2.2-.1.5.1.7.1.1.2.1.3.1.1 0 .3-.1.4-.2l.8-1.1.8 1.1c.1.1.2.2.4.2.1 0 .2 0 .3-.1.2-.2.2-.4.1-.7l-.9-1.3zM104.7 68.1l1-1.3c.2-.2.1-.5-.1-.7-.2-.2-.5-.1-.6.1l-.4.5v-.4c0-.3-.2-.5-.5-.5s-.5.2-.5.5v.3l-.4-.5c-.2-.2-.4-.2-.6-.1-.2.2-.2.4-.1.7l1 1.3-1 1.3c-.2.2-.1.5.1.7.1.1.2.1.3.1.1 0 .3-.1.4-.2l.8-1.1.8 1.1c.1.1.2.2.4.2.1 0 .2 0 .3-.1.2-.2.2-.4.1-.7l-1-1.2zM108.9 68.1l1-1.3c.2-.2.1-.5-.1-.7-.2-.2-.5-.1-.6.1l-.4.5v-.4c0-.3-.2-.5-.5-.5s-.5.2-.5.5v.3l-.4-.5c-.2-.2-.4-.2-.6-.1-.2.2-.2.4-.1.7l1 1.3-1 1.3c-.2.2-.1.5.1.7.1.1.2.1.3.1.1 0 .3-.1.4-.2l.8-1.1.8 1.1c.1.1.2.2.4.2.1 0 .2 0 .3-.1.2-.2.2-.4.1-.7l-1-1.2zM91.1 74.5c.7.3 4.6.3 5.6-.7 1-1.1.8-1.5.8-1.5h-4.8l-1.6 2.2zM108.7 74.5c-.7.3-4.6.3-5.6-.7-1-1.1-.8-1.5-.8-1.5h4.8l1.6 2.2z"/></g></svg>