<svg id="Layer_1" xmlns="http://www.w3.org/2000/svg" viewBox="0 0 200 134"><style>.st0{fill:#ff4b55}.st1{fill:#464655}.st2{fill:#f5f5f5}.st3{fill:#ffe15a}</style><path class="st0" d="M185 134H15c-8.3 0-15-6.9-15-15.3V15.3C0 6.9 6.7 0 15 0h170c8.3 0 15 6.9 15 15.3v103.4c0 8.4-6.7 15.3-15 15.3z"/><path class="st1" d="M15 134h170c3.7 0 7-1.3 9.6-3.6L5.4 3.6C2.1 6.4 0 10.6 0 15.3v103.4c0 8.4 6.7 15.3 15 15.3z"/><path class="st2" d="M20.1 64.7l-2 6.1h-6.2c-.6 0-.8.8-.4 1.1l5 3.8-1.9 6.1c-.2.6.5 1.1 1 .7l5.1-3.7 5.1 3.7c.5.4 1.1-.1 1-.7l-1.9-6.1 5-3.8c.5-.4.2-1.1-.4-1.1h-6.2l-2-6.1c-.2-.6-1-.6-1.2 0zM62.6 64.7l-2 6.1h-6.2c-.6 0-.8.8-.4 1.1l5 3.8-1.9 6.1c-.2.6.5 1.1 1 .7l5.1-3.7 5.1 3.7c.5.4 1.1-.1 1-.7l-1.9-6.1 5-3.8c.5-.4.2-1.1-.4-1.1h-6.2l-2-6.1c-.2-.6-1-.6-1.2 0zM41.4 38.4l-2 6.1h-6.2c-.6 0-.8.8-.4 1.1l5 3.8-1.9 6.1c-.2.6.5 1.1 1 .7l5.1-3.7 5.1 3.7c.5.4 1.1-.1 1-.7l-1.9-6.1 5-3.8c.5-.4.2-1.1-.4-1.1h-6.2l-2-6.1c-.2-.6-1-.6-1.2 0zM41.4 103.2l-2 6.1h-6.2c-.6 0-.8.8-.4 1.1l5 3.8-1.9 6.1c-.2.6.5 1.1 1 .7l5.1-3.7 5 3.7c.5.4 1.1-.1 1-.7l-1.9-6.1 5-3.8c.5-.4.2-1.1-.4-1.1h-6.2l-2-6.1c-.1-.6-.9-.6-1.1 0zM51.3 87.4l-1 3.2H47c-.3 0-.4.4-.2.6l2.7 2-1 3.2c-.1.3.2.6.5.4l2.7-2 2.7 2c.3.2.6-.1.5-.4l-1-3.2 2.7-2c.3-.2.1-.6-.2-.6h-3.3l-1-3.2c-.3-.3-.7-.3-.8 0z"/><path class="st3" d="M170.9 63.9c-.5-4-2.2-7.9-3.4-10.4.6.3 1.5.9 1.5.9l-.8-3c2.1.8 3.6 2.5 3.6 2.5-1-5.3-2.6-7.7-2.6-7.7l1.3.5c-2.4-6.1-6-7.8-6-7.8l2.1-.5c-3-3.9-7.3-5.2-7.3-5.2l2.8-1.4c-7.3-4.3-14.4.2-14.4.2s2.5-2.6 3.4-3.7c.9-1.1-1.3-1.5-1.3-1.5s2.2-1.5 2.1-2.4c-.1-.9-2.1-.4-2.1-.4s1.7-1.8 1.7-2.8c0-1-1.7-.4-1.7-.4s.6-1.2.7-2.2c.2-.9-1.5-.2-1.5-.2s1.9-3.5 1.8-4.2c-.1-.7-5 2.4-8.5 5.8s-3.1 8.9-2.8 10.2c.3 1.3.5 4.4-1 5.4-1.5 1.1-4.3-1.5-5.7-3.2-1.4-1.6-3.1-1.1-4.9-.4-1.8.6-5.1-.2-6.2-.4-1-.1 1.2 1.1 3 1.8s2.7 2.4 5.3 3.4c2.3.9 4.1 3 2.3 4-1.4.8-1.4-.5-7.6-2.1-6.2-1.6-13.6 14.4-13.6 14.4 4-.5 6-2.9 6-2.9l-1.1 3.1c2.9-.6 4.4-2.4 4.4-2.4l-.8 3.2c2.2-.7 3.8-3.2 3.8-3.2l-.7 3.1c2.2-1.1 3.4-3.1 3.4-3.1.2 1.1.4 3.5.4 3.5 3.4-1.9 4.2-4.5 4.2-4.5 3.9 12.1 9.6 14.1 9.6 14.1l.3-3.2c1.7 2.5 4.2 3.8 4.2 3.8l-.4-2.7c6.1 7.6 13 9.5 13 9.5l-1.8-4.2 2.2.5c-2.4-2-3.2-5.6-3.2-5.6l1.8.3c-3-2.8-4.5-6-4.5-6l1.8.3c-.6-.9-1-4-1-4 3.3 1.1 5 2.4 5 2.4l.2-1.1c2.8 2.1 7.5 5.9 10.7 10.8 0 1.6-.2 3.2-.9 4.8-2.9 7.3-10.7 6.9-14.1 5.3 0 0 10.6 8.5 16.4-3.6.4-.8.6-1.6.8-2.4.7 1.8 1.2 3.6 1.3 5.5.6 12.3-11.9 11.1-11.9 11.1s13.9 5.7 14.5-10.7c.2-3.7-1.4-7.4-3.8-10.9zm-12.6-12.2l.1-.4c2.1.6 4.3 2.2 4.3 2.2l.5-1.5c2.1 2.6 3.7 5.3 4.7 8.2-2.9-3.1-6.2-6-9.6-8.5z"/></svg>