<svg xmlns="http://www.w3.org/2000/svg" viewBox="0 0 200 134"><defs><style>.ph_cls-1{fill:#1f449b;}.ph_cls-2{fill:#ce2931;}.ph_cls-3{fill:#fafafa;}.ph_cls-4{fill:#fbd118;}</style></defs><title>Asset 43</title><g id="Layer_2" data-name="Layer 2"><g id="Layer_58" data-name="Layer 58"><path class="ph_cls-1" d="M183,0H17A16.93,16.93,0,0,0,6.23,3.85L116.16,67H200V17A17,17,0,0,0,183,0Z"/><path class="ph_cls-2" d="M6.23,130.15A16.93,16.93,0,0,0,17,134H183a17,17,0,0,0,17-17V67H116.16Z"/><path class="ph_cls-3" d="M6.23,3.85A17,17,0,0,0,0,17V117a17,17,0,0,0,6.23,13.15L116.16,67ZM6.44,16,5.16,10.15l4.46,4.06,5.21-3-2.49,5.49,4.5,4-6-.67L8.42,25.53,7.2,19.62l-6-.6Zm8.38,105.31-5.21-3-4.46,4.06,1.28-5.89-5.24-3,6-.6L8.42,107l2.43,5.52,6-.67-4.5,4ZM63.73,69.75,52,68.47c0,.33-.09.66-.15,1L62,71.31l-2,1.57-8.41-2.29v-.07a14.12,14.12,0,0,1-1.48,3.62l7.46,4.17.33,2.52-8.41-5.7c-.19.28-.39.54-.6.8l8.94,6.81.35,4.13L54.48,87,47,77.91c-.26.21-.53.41-.8.61l6,8.42-2.52-.28-4.42-7.51,0,0a14,14,0,0,1-3.83,1.62L43.72,89l-1.56,2L40.3,81c-.33.06-.66.11-1,.15l1.44,11.14-2.69,3.15-2.72-2.55,1.19-11.74c-.33,0-.66-.09-1-.14L33.75,91.17l-1.58-2,2.23-8.42h.06a14.11,14.11,0,0,1-3.89-1.61l-4.28,7.4-2.52.29,5.83-8.33c-.27-.2-.54-.39-.8-.61l-6.94,8.84L17.72,87l-.09-3.73,9.21-7.38c-.21-.26-.41-.53-.6-.8L17.74,81l.31-2.52,7.58-4.31,0,0a14.09,14.09,0,0,1-1.5-3.64l-8.24,2.29-2-1.56,10-1.86c-.06-.33-.11-.66-.15-1L12.62,69.85,9.47,67.16,12,64.44l11.74,1.19c0-.34.09-.66.14-1L13.72,62.86l2-1.58,8.42,2.23v.07a14.1,14.1,0,0,1,1.54-3.77l-7.44-4.2-.32-2.52,8.39,5.74c.19-.27.39-.55.6-.8L18,51.17,17.66,47l3.73-.13L28.85,56c.26-.21.53-.41.8-.6L23.71,47l2.52.29,4.38,7.53,0,0a14.06,14.06,0,0,1,3.87-1.61L32.21,45l1.57-2,1.8,10c.33-.05.66-.11,1-.14L35.2,41.72l2.71-3.13,2.71,2.57L39.35,52.88c.33,0,.66.09,1,.15l1.85-10.17,1.57,2-2.29,8.41h-.05a14.11,14.11,0,0,1,4,1.71l4.39-7.33,2.53-.25-6,8.24c.27.2.53.4.79.62l7.09-8.73,4.14-.22,0,3.73-9.33,7.23c.21.26.41.53.6.8l8.59-5.72-.35,2.51L50.26,60a14,14,0,0,1,1.39,3.51l8.25-2.22,2,1.57-10,1.79c.05.33.11.66.14,1l11.16-1.36L66.3,67ZM92.46,70l-5.72,1.9L90.3,67l-3.58-4.85L92.46,64,96,59.14l0,6L101.69,67l-5.74,1.84,0,6Z"/><polygon class="ph_cls-4" points="10.85 112.52 8.42 107 7.2 112.9 1.21 113.51 6.44 116.49 5.16 122.38 9.62 118.32 14.83 121.35 12.34 115.86 16.84 111.85 10.85 112.52"/><path class="ph_cls-4" d="M17.9,53.09l.32,2.52,7.44,4.2c.2-.33.4-.66.63-1Z"/><path class="ph_cls-4" d="M30.61,54.82l-4.38-7.53L23.71,47l5.95,8.45c.3-.21.6-.41.91-.6Z"/><path class="ph_cls-4" d="M28.85,56l-7.47-9.13L17.66,47,18,51.17,26.89,58A14.24,14.24,0,0,1,28.85,56Z"/><path class="ph_cls-4" d="M33.78,43l-1.57,2,2.23,8.25Q35,53.1,35.57,53Z"/><path class="ph_cls-4" d="M41.46,53.27l2.29-8.41-1.57-2L40.34,53c.36.06.72.14,1.07.23Z"/><path class="ph_cls-4" d="M39.35,52.88l1.27-11.73-2.71-2.57L35.2,41.72l1.37,11.15c.43,0,.87-.07,1.32-.07A14.53,14.53,0,0,1,39.35,52.88Z"/><path class="ph_cls-4" d="M57.9,55.86l.35-2.51-8.59,5.72c.21.32.41.65.6,1Z"/><path class="ph_cls-4" d="M49.06,58.26,58.4,51l0-3.73-4.14.22-7.09,8.73A14.29,14.29,0,0,1,49.06,58.26Z"/><path class="ph_cls-4" d="M52.32,47.38l-2.53.25L45.4,55q.49.31,1,.66Z"/><path class="ph_cls-4" d="M63.17,64.33,52,65.69c0,.43.07.87.07,1.31A14.41,14.41,0,0,1,52,68.47l11.73,1.27L66.3,67Z"/><path class="ph_cls-4" d="M61.89,62.9l-2-1.57-8.25,2.22c.09.37.17.75.24,1.14Z"/><path class="ph_cls-4" d="M51.62,70.59,60,72.88l2-1.57L51.86,69.46c-.06.36-.14.71-.23,1.06Z"/><path class="ph_cls-4" d="M47,77.91,54.48,87l3.73-.14-.35-4.13-8.94-6.81A14.14,14.14,0,0,1,47,77.91Z"/><path class="ph_cls-4" d="M57.93,80.82l-.33-2.52-7.46-4.17c-.2.34-.4.67-.62,1Z"/><path class="ph_cls-4" d="M45.21,79.15l4.42,7.51,2.52.28-6-8.42c-.29.21-.6.41-.91.6Z"/><path class="ph_cls-4" d="M34.4,80.76l-2.23,8.42,1.58,2L35.53,81c-.36-.06-.72-.13-1.07-.22Z"/><path class="ph_cls-4" d="M42.16,91l1.56-2-2.29-8.24q-.56.15-1.14.25Z"/><path class="ph_cls-4" d="M36.52,81.13,35.33,92.87l2.72,2.55,2.69-3.15L39.3,81.13a14.13,14.13,0,0,1-1.42.07C37.42,81.2,37,81.17,36.52,81.13Z"/><path class="ph_cls-4" d="M23.77,86.85l2.52-.29,4.28-7.4c-.33-.2-.66-.41-1-.64Z"/><path class="ph_cls-4" d="M26.85,75.92,17.64,83.3,17.72,87l4.13-.29L28.8,77.9A14.2,14.2,0,0,1,26.85,75.92Z"/><path class="ph_cls-4" d="M25.63,74.15l-7.58,4.31L17.74,81l8.5-5.86c-.21-.3-.41-.62-.59-.93Z"/><path class="ph_cls-4" d="M23.76,65.63,12,64.44,9.47,67.16l3.15,2.69,11.14-1.44c0-.46-.07-.93-.07-1.41S23.72,66.08,23.76,65.63Z"/><path class="ph_cls-4" d="M24.13,63.51l-8.42-2.23-2,1.58L23.9,64.64c.06-.36.13-.71.22-1.06Z"/><path class="ph_cls-4" d="M13.91,71.27l2,1.56,8.24-2.29c-.1-.37-.18-.75-.24-1.14Z"/><path class="ph_cls-4" d="M52,65.69c0-.34-.08-.66-.14-1s-.14-.77-.24-1.14A14,14,0,0,0,50.26,60c-.19-.34-.38-.67-.6-1s-.39-.54-.6-.8a14.29,14.29,0,0,0-1.92-2c-.25-.22-.52-.42-.79-.62s-.63-.45-1-.66a14.11,14.11,0,0,0-4-1.71c-.35-.09-.71-.17-1.07-.23s-.65-.12-1-.15a14.53,14.53,0,0,0-1.47-.08c-.44,0-.88,0-1.32.07s-.67.08-1,.14-.76.14-1.14.24a14.06,14.06,0,0,0-3.87,1.61c-.31.19-.62.38-.91.6s-.54.39-.8.6a14.24,14.24,0,0,0-2,2c-.21.26-.41.53-.6.8s-.43.64-.63,1a14.1,14.1,0,0,0-1.54,3.77c-.09.35-.16.7-.22,1.06s-.11.65-.14,1-.07.91-.07,1.37,0,.95.07,1.41.09.67.15,1,.15.76.24,1.14a14.09,14.09,0,0,0,1.5,3.64c.19.32.38.63.59.93s.39.54.6.8a14.2,14.2,0,0,0,2,2c.26.21.53.41.8.61s.64.44,1,.64a14.11,14.11,0,0,0,3.89,1.61c.35.09.71.16,1.07.22s.65.11,1,.14.91.07,1.37.07a14.13,14.13,0,0,0,1.42-.07c.34,0,.66-.09,1-.15s.76-.15,1.14-.25a14,14,0,0,0,3.83-1.62c.31-.19.61-.39.91-.6s.54-.39.8-.61a14.14,14.14,0,0,0,2-2c.21-.26.41-.53.6-.8s.43-.65.62-1a14.12,14.12,0,0,0,1.48-3.62c.09-.35.17-.7.23-1.06s.12-.65.15-1A14.41,14.41,0,0,0,52.08,67C52.08,66.56,52.06,66.12,52,65.69Z"/><polygon class="ph_cls-4" points="101.69 67 95.94 65.17 95.97 59.14 92.45 64.04 86.73 62.15 90.31 67.01 86.74 71.87 92.46 69.97 95.98 74.86 95.94 68.83 101.69 67"/><polygon class="ph_cls-4" points="8.42 25.53 10.85 20.01 16.84 20.68 12.34 16.66 14.83 11.17 9.62 14.21 5.16 10.15 6.44 16.04 1.21 19.02 7.2 19.62 8.42 25.53"/></g></g></svg>
