<svg xmlns="http://www.w3.org/2000/svg" viewBox="0 0 200 134"><defs><style>.ps_cls-1{fill:#418140;}.ps_cls-2{fill:#fafafa;}.ps_cls-3{fill:#333;}.ps_cls-4{fill:#cc3533;}</style></defs><title>Asset 39</title><g id="Layer_2" data-name="Layer 2"><g id="Layer_63" data-name="Layer 63"><path class="ps_cls-1" d="M4.57,128.57A16.93,16.93,0,0,0,17,134H183a17,17,0,0,0,17-17V89.38H43.76Z"/><polygon class="ps_cls-2" points="66.14 67 43.76 89.38 200 89.38 200 44.62 43.76 44.62 66.14 67"/><path class="ps_cls-3" d="M183,0H17A16.93,16.93,0,0,0,4.57,5.43L43.76,44.62H200V17A17,17,0,0,0,183,0Z"/><path class="ps_cls-4" d="M66.14,67,43.76,44.62,4.57,5.43A16.92,16.92,0,0,0,0,17V117a16.92,16.92,0,0,0,4.57,11.57L43.76,89.38Z"/></g></g></svg>
