<svg xmlns="http://www.w3.org/2000/svg" viewBox="0 0 200 134"><defs><style>.pt_cls-1{fill:#ed2f31;}.pt_cls-2{fill:#156733;}.pt_cls-3{fill:#010101;}.pt_cls-4{fill:#f6eb16;}.pt_cls-5{fill:#ed2224;}.pt_cls-6{fill:#fff;}.pt_cls-7{fill:#2b3187;}</style></defs><title>Asset 45</title><g id="Layer_2" data-name="Layer 2"><g id="Layer_56" data-name="Layer 56"><path class="pt_cls-1" d="M183,0H79.75V134H183a17,17,0,0,0,17-17V17A17,17,0,0,0,183,0Z"/><path class="pt_cls-2" d="M17,0A17,17,0,0,0,0,17V117a17,17,0,0,0,17,17H79.75V0Z"/>
</g><g transform="translate(40,0)"><path class="pt_cls-3" d="M73.31,68.56a.29.29,0,0,1-.29-.29V65.79a.29.29,0,1,1,.57,0v2.48A.29.29,0,0,1,73.31,68.56Z"/><path class="pt_cls-3" d="M69.52,51.37a.29.29,0,0,1-.24-.14l-1.23-2a.29.29,0,1,1,.49-.3l1.23,2a.29.29,0,0,1-.24.44Z"/><path class="pt_cls-4" d="M66.31,87.88C56.12,87.57,9.37,58.39,9,53.74l2.58-4.3c4.63,6.74,52.43,35.12,57.12,34.11l-2.44,4.33Z"/><path class="pt_cls-4" d="M11.09,48.86c-.91,2.46,12.2,10.57,28,20.17S68.45,84.55,69.45,83.7a8.69,8.69,0,0,0,.46-.85c-.19.29-.65.38-1.37.17-4.26-1.23-15.38-6.33-29.15-14.68S13.65,52.29,11.79,49a2,2,0,0,1-.2-1h0l-.4.69-.05.11ZM66.55,88c-.17.31-.5.32-1.11.26-3.81-.42-15.39-6-29.08-14.25C20.44,64.49,7.28,55.8,8.71,53.53l.39-.69.08,0c-1.28,3.85,26,19.43,27.57,20.42,15.77,9.77,29.06,15.47,30.24,14l-.43.74Z"/><path class="pt_cls-3" d="M65.93,88.59a4.78,4.78,0,0,1-.51,0c-3.92-.43-15.65-6.17-29.19-14.28C17.85,63.27,9,56.91,8.36,54.24a1.09,1.09,0,0,1,.11-.87l.38-.68a.29.29,0,0,1,.34-.13l.08,0a.29.29,0,0,1,.18.36c-.33,1,1.58,4.84,26.36,19.44L36.9,73C51,81.8,63.12,87.22,66.21,87.22c.41,0,.52-.1.54-.12a.29.29,0,0,1,.47.32l-.43.74A.9.9,0,0,1,65.93,88.59Zm-57-34.91a.55.55,0,0,0,0,.43c.58,2.44,9.87,9.06,27.61,19.68C50,81.85,61.64,87.56,65.48,88l.45,0c.28,0,.33-.06.38-.14l0-.08h-.14C63,87.8,51,82.46,36.59,73.53l-1.08-.64C18.71,63,10,56.68,8.95,53.68ZM69.11,84.06h0c-2.45,0-15.12-5.63-30.2-14.8-18.13-11-29.06-17.91-28.1-20.51l.07-.14.4-.71a.27.27,0,0,1,.26-.14.34.34,0,0,1,.22.1.31.31,0,0,1,.1.21,1.69,1.69,0,0,0,.17.8C14,52.3,27.76,60.94,39.54,68.08,54,76.84,64.85,81.65,68.62,82.74a2.25,2.25,0,0,0,.61.1.52.52,0,0,0,.43-.15.29.29,0,0,1,.24-.13h0a.29.29,0,0,1,.25.14c.1.17.07.22-.39,1l-.06.11a.28.28,0,0,1-.07.08A.79.79,0,0,1,69.11,84.06ZM11.41,48.86l-.07.13c-.86,2.32,15.07,12,27.87,19.79,14.77,9,27.57,14.71,29.9,14.71h.14l0,0,0,0a2.73,2.73,0,0,1-.82-.12c-4.71-1.36-16.25-6.85-29.22-14.71C21.42,57.76,13.13,52,11.54,49.16A1.62,1.62,0,0,1,11.41,48.86Z"/><path class="pt_cls-4" d="M40,56.56c10.2-.08,22.8-1.39,30-4.28l-1.56-2.54c-4.28,2.37-16.94,3.93-28.57,4.16-13.75-.13-23.45-1.41-28.31-4.67l-1.47,2.7C19,55.72,28.19,56.52,40,56.56Z"/><path class="pt_cls-4" d="M70.43,52.33c-.25.4-5,2-11.94,3.23a123.07,123.07,0,0,1-18.56,1.34,131.63,131.63,0,0,1-17.78-1.12,51.81,51.81,0,0,1-12.47-3.3l.35-.7A54,54,0,0,0,22.27,55a130.39,130.39,0,0,0,17.64,1.13,124.11,124.11,0,0,0,18.43-1.37c7.14-1.15,11-2.63,11.58-3.32l.5.87Zm-1.37-2.57c-.77.62-4.63,2-11.41,3.07A122.67,122.67,0,0,1,40,54.07,119.29,119.29,0,0,1,23,53a47.08,47.08,0,0,1-11.88-3l.4-.68c1,.52,4.57,2,11.55,2.94A122,122,0,0,0,40,53.3a121.45,121.45,0,0,0,17.51-1.24c6.82-.94,10.49-2.68,11-3.12l.5.83Z"/><path class="pt_cls-3" d="M39.77,57.19a132.28,132.28,0,0,1-17.65-1.13A52.15,52.15,0,0,1,9.73,52.81l-.17-.07a.29.29,0,0,1-.15-.39l.14-.29.21-.41a.29.29,0,0,1,.36-.14,53.91,53.91,0,0,0,12.18,3.23,131,131,0,0,0,17.48,1.12h.12A124.72,124.72,0,0,0,58.3,54.5c7.59-1.23,11-2.72,11.4-3.22a.29.29,0,0,1,.25-.11.29.29,0,0,1,.23.14l.5.87a.29.29,0,0,1,0,.29c-.35.57-5.36,2.2-12.13,3.36a124.51,124.51,0,0,1-18.61,1.35Zm-29.7-4.86A51.84,51.84,0,0,0,22.19,55.5a131.62,131.62,0,0,0,17.57,1.12h.16a124,124,0,0,0,18.52-1.34c6.28-1.09,10.7-2.52,11.61-3l-.21-.35c-1.24.87-5.38,2.18-11.46,3.16a125.28,125.28,0,0,1-18.48,1.37h-.12a131.59,131.59,0,0,1-17.56-1.13,54.58,54.58,0,0,1-12.07-3.17l-.09.17Zm29.81,2a120.86,120.86,0,0,1-16.95-1.1,46.77,46.77,0,0,1-11.38-2.8L11,50.25a.29.29,0,0,1-.15-.41l.38-.64a.34.34,0,0,1,.4-.16c.59.3,3.94,1.85,11.46,2.92A120.77,120.77,0,0,0,39.87,53H40a120.24,120.24,0,0,0,17.47-1.24c7-1,10.51-2.75,10.91-3.06a.28.28,0,0,1,.23-.06.28.28,0,0,1,.19.13l.5.83a.29.29,0,0,1-.07.37c-.78.62-4.6,2-11.55,3.13A124,124,0,0,1,40,54.36ZM11.51,49.83l.24.09A46.24,46.24,0,0,0,23,52.69a120.31,120.31,0,0,0,16.87,1.09H40a123.44,123.44,0,0,0,17.6-1.24c6.52-1,10.06-2.29,11.07-2.87l-.21-.34c-1,.6-4.57,2.13-10.91,3A121.3,121.3,0,0,1,40,53.58h-.13A121.37,121.37,0,0,1,23,52.52c-6.91-1-10.37-2.38-11.4-2.85Z"/><path class="pt_cls-4" d="M6.46,68.85c6.28,3.38,20.22,5.08,33.41,5.2,12,0,27.66-1.86,33.51-5l-.16-3.38c-1.83,2.86-18.6,5.61-33.48,5.49S11,68.79,6.43,65.82l0,3Z"/><path class="pt_cls-4" d="M73.7,68.37v.8c-.88,1.05-6.39,2.64-13.31,3.76a137.12,137.12,0,0,1-20.67,1.42A129.42,129.42,0,0,1,20.09,73c-7.94-1.15-13-3.18-14-3.79v-.94c3.06,2,11.36,3.53,14.14,4a129.05,129.05,0,0,0,19.51,1.34,136.73,136.73,0,0,0,20.56-1.41c5-.72,12-2.58,13.42-3.82Zm0-2.87v.81c-.88,1.05-6.39,2.64-13.31,3.76a137.36,137.36,0,0,1-20.67,1.42,129.42,129.42,0,0,1-19.62-1.35c-7.94-1.15-13-3.18-14-3.79V65.4c3.06,2,11.36,3.53,14.14,4a128.83,128.83,0,0,0,19.51,1.34,136.45,136.45,0,0,0,20.56-1.41c5-.71,12-2.58,13.42-3.82Z"/><path class="pt_cls-3" d="M39.71,74.63A130.56,130.56,0,0,1,20,73.28c-7.63-1.11-12.91-3.09-14.14-3.82a.29.29,0,0,1-.14-.25v-.94A.29.29,0,0,1,6.22,68c3,2,11.51,3.52,14,3.94a129.6,129.6,0,0,0,19.46,1.34,137,137,0,0,0,20.52-1.4c4.87-.7,12-2.57,13.27-3.75a.29.29,0,0,1,.48.21v.8a.29.29,0,0,1-.07.18c-1,1.14-6.5,2.73-13.48,3.86A137.87,137.87,0,0,1,39.71,74.63ZM6.34,69c1.11.58,5.9,2.52,13.79,3.67a130,130,0,0,0,19.58,1.35,137.32,137.32,0,0,0,20.63-1.41c7.36-1.19,12.15-2.71,13.07-3.59v-.14C71.27,70.18,65,71.8,60.32,72.47a137.62,137.62,0,0,1-20.6,1.41,130.18,130.18,0,0,1-19.55-1.35C17,72,9.65,70.66,6.34,68.78Zm33.38,2.73a130.61,130.61,0,0,1-19.67-1.36C12.42,69.3,7.15,67.32,5.91,66.59a.29.29,0,0,1-.14-.25V65.4a.29.29,0,0,1,.45-.24c3.06,2,11.51,3.53,14,3.94a129.4,129.4,0,0,0,19.47,1.34A136.67,136.67,0,0,0,60.24,69c4.87-.7,12-2.57,13.27-3.75a.29.29,0,0,1,.48.21v.81a.29.29,0,0,1-.07.18c-1,1.14-6.5,2.73-13.48,3.86A138.11,138.11,0,0,1,39.72,71.77ZM6.34,66.18c1.11.58,5.9,2.52,13.79,3.67a130.11,130.11,0,0,0,19.58,1.35,137.56,137.56,0,0,0,20.63-1.41c7.36-1.19,12.15-2.72,13.07-3.59V66C71.27,67.31,65,68.93,60.32,69.6A137.25,137.25,0,0,1,39.72,71a130,130,0,0,1-19.56-1.35c-2.44-.4-10.37-1.8-13.82-3.75Z"/><path class="pt_cls-4" d="M39.84,87.3C25.4,87.21,13,83.36,10.42,82.73l1.91,3C16.94,87.65,29,90.54,40,90.22s20.55-1.17,27.31-4.46l2-3.09c-4.6,2.17-20.27,4.6-29.4,4.63Z"/><path class="pt_cls-4" d="M68,85.07c-.29.44-.58.87-.88,1.29A76.6,76.6,0,0,1,56.82,89a93.32,93.32,0,0,1-17,1.55c-12.79-.19-23.25-2.69-28.18-4.83l-.4-.68.07-.1.67.26c8.76,3.13,18.59,4.38,27.91,4.61a95.16,95.16,0,0,0,16.63-1.54c7.35-1.47,10.32-2.58,11.23-3.08l.23-.13Zm1.69-2.79,0,0-.66,1.1a71.85,71.85,0,0,1-13,2.9,103.22,103.22,0,0,1-16,1.36C23.46,87.24,12.75,84,10.21,83.21l-.38-.72A125.64,125.64,0,0,0,40,86.92a111.86,111.86,0,0,0,15.91-1.37,82.34,82.34,0,0,0,13-2.89l-.05-.07.86-.32Z"/><path class="pt_cls-3" d="M39.85,90.84h0c-13.07-.19-23.4-2.73-28.29-4.85a.28.28,0,0,1-.13-.11l-.4-.68a.27.27,0,0,1,0-.29l.07-.1a.27.27,0,0,1,.33-.11l.67.26c7.79,2.79,17.15,4.33,27.82,4.59h.24A95.41,95.41,0,0,0,56.51,88c8.16-1.63,10.6-2.75,11.15-3.05l.23-.13s.06-.05.13,0h0a.27.27,0,0,1,.21.45c-.28.43-.57.86-.86,1.28a.28.28,0,0,1-.13.1,76.21,76.21,0,0,1-10.37,2.66A94.68,94.68,0,0,1,39.85,90.84Zm-28-5.32c5.25,2.25,15.9,4.59,28,4.77a94.1,94.1,0,0,0,16.91-1.55A75.86,75.86,0,0,0,67,86.13l.25-.36a61.47,61.47,0,0,1-10.61,2.79A95.91,95.91,0,0,1,40.17,90.1h-.24c-10.73-.26-20.15-1.81-28-4.63l-.11,0ZM40,87.94h0c-14.78-.38-25.06-3-29.87-4.47a.27.27,0,0,1-.16-.14l-.38-.72a.27.27,0,0,1,.31-.39A125,125,0,0,0,40,86.64a105.79,105.79,0,0,0,14.44-1.17l1.43-.2a83.61,83.61,0,0,0,12.77-2.82.22.22,0,0,1,.12-.12l.85-.32a.27.27,0,0,1,.34.13.24.24,0,0,1,0,.29l-.66,1.1a.27.27,0,0,1-.14.12,70.27,70.27,0,0,1-13.1,2.91l-1.86.26A96.28,96.28,0,0,1,40,87.94ZM10.4,83c4.83,1.5,15,4,29.6,4.41a95.78,95.78,0,0,0,14.12-1.1L56,86a73.85,73.85,0,0,0,12.9-2.85l.17-.28-.07,0-.13,0A83.82,83.82,0,0,1,56,85.82l-1.43.2A106.38,106.38,0,0,1,40,87.19a124.86,124.86,0,0,1-29.65-4.28Z"/><path class="pt_cls-4" d="M39.86,36.93a30,30,0,1,1-30,30,30,30,0,0,1,30-30Zm0-3a33,33,0,1,1-33,33,33,33,0,0,1,33-33Z"/><path class="pt_cls-4" d="M39.88,33.56A33.42,33.42,0,1,1,6.46,67,33.48,33.48,0,0,1,39.88,33.56Zm0,.73A32.68,32.68,0,1,1,7.2,67,32.81,32.81,0,0,1,39.88,34.29Z"/><path class="pt_cls-3" d="M39.88,100.68A33.7,33.7,0,1,1,73.58,67,33.74,33.74,0,0,1,39.88,100.68Zm0-66.83A33.13,33.13,0,1,0,73,67,33.17,33.17,0,0,0,39.88,33.85Zm0,66.1a33,33,0,1,1,33-33A33,33,0,0,1,39.88,99.94Zm0-65.36A32.4,32.4,0,1,0,72.27,67,32.43,32.43,0,0,0,39.88,34.58Z"/><path class="pt_cls-4" d="M39.91,36.34A30.61,30.61,0,1,1,9.3,66.95,30.73,30.73,0,0,1,39.91,36.34Zm0,.73A29.87,29.87,0,1,1,10,66.95,30,30,0,0,1,39.91,37.07Z"/><path class="pt_cls-3" d="M39.91,97.84A30.9,30.9,0,1,1,70.8,66.95,30.93,30.93,0,0,1,39.91,97.84Zm0-61.22A30.32,30.32,0,1,0,70.23,66.95,30.36,30.36,0,0,0,39.91,36.62Zm0,60.48A30.16,30.16,0,1,1,70.06,66.95,30.19,30.19,0,0,1,39.91,97.11Zm0-59.75A29.59,29.59,0,1,0,69.49,66.95,29.62,29.62,0,0,0,39.91,37.36Z"/><rect class="pt_cls-4" x="38.53" y="33.4" width="2.91" height="67.24"/><path class="pt_cls-3" d="M40.93,33.71h-2a.29.29,0,0,1,0-.57h2a.29.29,0,0,1,0,.57Z"/><path class="pt_cls-3" d="M40.95,100.86h-2a.29.29,0,1,1,0-.57h2a.29.29,0,0,1,0,.57Z"/><path class="pt_cls-4" d="M41,33h.73V101H41V33Zm-2.84,0h.73V101h-.74V33Z"/><path class="pt_cls-3" d="M41.71,101.24H41a.29.29,0,0,1-.29-.29V33a.29.29,0,0,1,.29-.29h.73A.29.29,0,0,1,42,33v67.82a.29.29,0,0,1-.27.38Zm-.46-.57h.16V33.33h-.15Zm-2.38.57h-.75a.29.29,0,0,1-.29-.29V33a.29.29,0,0,1,.29-.29h.73a.29.29,0,0,1,.29.29v67.82a.29.29,0,0,1-.27.38Zm-.46-.57h.16V33.33h-.16Z"/><path class="pt_cls-4" d="M6.35,65.55C10.54,61.7,26,59.19,39.71,59.26s30,2.88,33.5,6.21l0,2.88c-3-2.79-15.58-6.11-33.5-6.14S8.8,65.58,6.35,68.42V65.55Z"/><path class="pt_cls-3" d="M6.34,68.46A.29.29,0,0,1,6,68.17V65.69a.29.29,0,0,1,.57,0v2.48A.29.29,0,0,1,6.34,68.46Z"/><path class="pt_cls-4" d="M39.89,61.8a116,116,0,0,1,21.62,1.93C67.78,65,72.19,66.55,73.7,68.31v.87c-1.82-2.19-7.75-3.8-12.32-4.71a115,115,0,0,0-21.48-1.92,119.79,119.79,0,0,0-21.93,2c-4.76.95-11.12,2.82-11.91,4.68v-.91c.43-1.28,5.17-3.2,11.8-4.53a120,120,0,0,1,22-2Zm0-2.87a116,116,0,0,1,21.62,1.93c6.27,1.25,10.68,2.82,12.18,4.58v.87c-1.82-2.19-7.75-3.79-12.32-4.71a115,115,0,0,0-21.48-1.91,119,119,0,0,0-21.89,2c-4.6.87-11.21,2.83-11.95,4.68v-.91c.44-1.27,5.26-3.25,11.81-4.53a119.93,119.93,0,0,1,22-2Z"/><path class="pt_cls-3" d="M6.05,69.48H6a.29.29,0,0,1-.23-.28v-.91a.29.29,0,0,1,0-.09c.49-1.46,5.44-3.4,12-4.72a120.84,120.84,0,0,1,22.09-2h.21a116.22,116.22,0,0,1,21.46,1.93c4.59.92,10.46,2.48,12.35,4.67a.29.29,0,0,1,.07.19v.87a.29.29,0,0,1-.51.18C71.59,67.09,65,65.5,61.32,64.75a114.8,114.8,0,0,0-21.19-1.91h-.24a119.56,119.56,0,0,0-21.88,2c-5.31,1.05-11,2.94-11.7,4.51A.29.29,0,0,1,6.05,69.48Zm34.08-7.21a115.38,115.38,0,0,1,21.3,1.92c3.53.71,9.54,2.17,12,4.3v-.07c-1.47-1.61-5.6-3.14-12-4.41A115.61,115.61,0,0,0,40.1,62.09h-.21a120.21,120.21,0,0,0-22,1.95c-6.71,1.34-11.12,3.23-11.57,4.3h0c2.38-2.23,10.55-3.91,11.57-4.11a120.18,120.18,0,0,1,22-2ZM6.05,66.61H6a.29.29,0,0,1-.23-.28v-.91a.29.29,0,0,1,0-.09c.51-1.48,5.56-3.46,12-4.72a120.79,120.79,0,0,1,22.09-2h.21a116.26,116.26,0,0,1,21.47,1.94c4.59.92,10.46,2.47,12.35,4.68a.29.29,0,0,1,.07.19v.87a.29.29,0,0,1-.51.18c-1.88-2.27-8.43-3.87-12.16-4.62A114.63,114.63,0,0,0,40.13,60H39.9a119.22,119.22,0,0,0-21.84,2c-5.29,1-11.12,3-11.74,4.5A.29.29,0,0,1,6.05,66.61ZM40.13,59.4a115.21,115.21,0,0,1,21.3,1.92c4.29.86,9.69,2.29,12,4.3v-.07c-1.47-1.62-5.6-3.14-12-4.41A115.65,115.65,0,0,0,40.1,59.22H39.9a120.12,120.12,0,0,0-22,1.95c-6.6,1.28-11.11,3.22-11.57,4.3h0C8.34,63.6,14.57,62,18,61.37a119.85,119.85,0,0,1,21.94-2Z"/><path class="pt_cls-4" d="M39.73,44.32C52.17,44.26,63,46.06,68,48.6l1.81,3.13c-4.31-2.32-16-4.74-30-4.38-11.42.07-23.63,1.26-29.76,4.53l2.16-3.62c5-2.61,16.88-3.93,27.58-3.94Z"/><path class="pt_cls-4" d="M39.9,46.9a112.65,112.65,0,0,1,19.4,1.37c5.08.94,9.92,2.36,10.61,3.13l.54.95C68.75,51.24,64.57,50,59.19,49a108.86,108.86,0,0,0-19.3-1.33A112,112,0,0,0,20.32,49c-5.64,1.06-9.56,2.56-10.53,3.28l.53-1a35,35,0,0,1,9.86-3A114.87,114.87,0,0,1,39.9,46.9Zm0-2.86a110.36,110.36,0,0,1,18.71,1.3c4.12.8,8.19,2.05,9.69,3.17l.78,1.25c-1.33-1.48-6.36-2.89-10.79-3.68a119.13,119.13,0,0,0-18.39-1.31,112.1,112.1,0,0,0-18.82,1.39c-4.87.93-8,2-9.35,2.88l.69-1A33.41,33.41,0,0,1,21,45.42,112.63,112.63,0,0,1,39.89,44Z"/><path class="pt_cls-3" d="M70.44,52.63a.28.28,0,0,1-.16,0c-1.63-1.06-5.69-2.27-11.15-3.3A106,106,0,0,0,40.4,48H39.16a109.42,109.42,0,0,0-18.79,1.32c-5.52,1-9.48,2.54-10.41,3.23a.29.29,0,0,1-.42-.36l.53-1a.29.29,0,0,1,.12-.12,36.06,36.06,0,0,1,9.94-3c5-.92,10.74-1.31,19.76-1.36h.49a111.43,111.43,0,0,1,19,1.37c4.64.86,9.94,2.3,10.77,3.21l.57,1a.29.29,0,0,1-.25.43Zm-30-5.25a106.56,106.56,0,0,1,18.84,1.34,48.57,48.57,0,0,1,10.45,2.89l0-.07c-.53-.57-5-2-10.41-3a110.87,110.87,0,0,0-18.85-1.36H39.9c-9,0-14.69.44-19.66,1.35a35.74,35.74,0,0,0-9.7,2.94l0,.06a43.52,43.52,0,0,1,9.77-2.84,110,110,0,0,1,18.89-1.33H40.4ZM69.08,50a.29.29,0,0,1-.21-.1c-1.26-1.4-6.24-2.81-10.62-3.58a116.75,116.75,0,0,0-18.35-1.3,111.79,111.79,0,0,0-18.76,1.38c-4.3.82-7.75,1.88-9.24,2.84a.29.29,0,0,1-.39-.4l.69-1a.28.28,0,0,1,.11-.1,33.73,33.73,0,0,1,8.62-2.61,113.18,113.18,0,0,1,19-1.39h.45a108.61,108.61,0,0,1,18.31,1.3c4.52.88,8.36,2.14,9.81,3.22l.07.08.78,1.25a.29.29,0,0,1-.24.44ZM39.89,44.49A117.28,117.28,0,0,1,58.34,45.8a38.25,38.25,0,0,1,9.44,2.71c-1.59-1-5.19-2.1-9.23-2.89a108.06,108.06,0,0,0-18.21-1.29H39.9A112.66,112.66,0,0,0,21,45.7a33.6,33.6,0,0,0-8.39,2.52l0,0A40.17,40.17,0,0,1,21,45.88,112.36,112.36,0,0,1,39.89,44.49Z"/><path class="pt_cls-4" d="M56.49,80.87A87.13,87.13,0,0,0,39.88,79.6c-20.72.24-27.42,4.25-28.23,5.47L10.1,82.55c5.28-3.83,16.56-6,29.9-5.75a105.65,105.65,0,0,1,17.93,1.55l-1.43,2.52Z"/><path class="pt_cls-3" d="M11.46,84.93a.29.29,0,0,1-.25-.14L10.2,83a.29.29,0,1,1,.5-.29l1,1.75a.29.29,0,0,1-.25.43Z"/><path class="pt_cls-4" d="M39.77,79.25a100.37,100.37,0,0,1,16.89,1.34l-.4.7A88,88,0,0,0,39.79,80a79.65,79.65,0,0,0-22.12,2.59c-2.12.59-5.64,2-6,3.09L11.27,85c.11-.67,2.24-2.05,6.21-3.17,7.71-2.21,14.93-2.58,22.28-2.63Zm.26-2.9a103.42,103.42,0,0,1,18.13,1.57l-.41.73a94.5,94.5,0,0,0-17.69-1.54c-7.67,0-15.81.56-23.21,2.71-2.39.7-6.51,2.2-6.65,3.39l-.39-.7c.09-1.08,3.66-2.49,6.87-3.43C24.14,76.92,32.3,76.36,40,76.35Z"/><path class="pt_cls-3" d="M11.67,86a.28.28,0,0,1-.24-.13L11,85.19A.27.27,0,0,1,11,85c.16-1,2.86-2.39,6.41-3.39C24.8,79.5,31.69,79,39.76,79A101.21,101.21,0,0,1,56.7,80.32a.27.27,0,0,1,.19.41l-.4.7a.27.27,0,0,1-.29.13A86.33,86.33,0,0,0,40.5,80.3h-.71a78.58,78.58,0,0,0-22,2.57c-2.58.72-5.54,2-5.82,2.91a.28.28,0,0,1-.23.19Zm-.09-1,.09.15c1.24-1.5,5.88-2.8,5.93-2.82a78,78,0,0,1,21.28-2.6H40.5A87.33,87.33,0,0,1,56.11,81l.11-.19a102.48,102.48,0,0,0-16.46-1.27c-8,.06-14.87.52-22.2,2.62C13.74,83.21,11.83,84.5,11.57,85ZM10.2,83.48a.27.27,0,0,1-.24-.14l-.39-.7a.28.28,0,0,1,0-.16c.12-1.49,5-3.06,7.07-3.67C23,77,30.44,76.09,40,76.07a103.87,103.87,0,0,1,18.19,1.58.27.27,0,0,1,.19.4l-.41.73a.27.27,0,0,1-.29.13,95.53,95.53,0,0,0-17.64-1.54c-9.5,0-16.85.88-23.13,2.7-3.59,1-6.37,2.41-6.45,3.16a.27.27,0,0,1-.22.24Zm-.1-1,.09.16c1.14-1.42,5.6-2.79,6.59-3.07,6.33-1.84,13.73-2.7,23.29-2.72a96.65,96.65,0,0,1,17.55,1.51l.13-.22A105,105,0,0,0,40,76.62c-9.53,0-16.93.88-23.27,2.73C12.41,80.61,10.3,81.83,10.1,82.46Z"/><path class="pt_cls-3" d="M33.84,78.37a.41.41,0,0,1,.1-.25.34.34,0,0,1,.22-.1.28.28,0,0,1,.15,0,.2.2,0,0,1,.09.11.37.37,0,0,1,0,.16.41.41,0,0,1-.05.17.32.32,0,0,1-.12.12.33.33,0,0,1-.15,0,.25.25,0,0,1-.15,0,.22.22,0,0,1-.09-.11.33.33,0,0,1,0-.15Zm.08,0a.21.21,0,0,0,0,.17.15.15,0,0,0,.14.05.23.23,0,0,0,.16-.08.31.31,0,0,0,.07-.19.34.34,0,0,0,0-.13.19.19,0,0,0-.07-.08.19.19,0,0,0-.11,0,.24.24,0,0,0-.15.07.32.32,0,0,0-.08.21Zm.79.1.08,0a.09.09,0,0,0,0,.07.1.1,0,0,0,.08,0,.12.12,0,0,0,.08,0,.07.07,0,0,0,0-.05,0,0,0,0,0,0,0l-.07,0-.11,0a.1.1,0,0,1,0,0,.12.12,0,0,1,0-.06.15.15,0,0,1,0-.06l0,0,0,0H35a.11.11,0,0,1,.05,0,.12.12,0,0,1,0,.07H35a.06.06,0,0,0,0-.05l-.06,0-.07,0a.07.07,0,0,0,0,0,.06.06,0,0,0,0,0l0,0,.06,0,.11,0,0,0a.12.12,0,0,1,0,.06.17.17,0,0,1-.1.13l-.09,0a.17.17,0,0,1-.13,0,.15.15,0,0,1,0-.1Zm.76-.05h.08a.23.23,0,0,1-.08.11.21.21,0,0,1-.13,0,.16.16,0,0,1-.14-.05.2.2,0,0,1,0-.17.29.29,0,0,1,.08-.18.23.23,0,0,1,.16-.07.16.16,0,0,1,.14.05.22.22,0,0,1,0,.17v0l-.33,0a.15.15,0,0,0,0,.11.1.1,0,0,0,.09,0l.07,0a.17.17,0,0,0,.05-.07Zm-.23-.11h.25a.13.13,0,0,0,0-.08.11.11,0,0,0-.09,0,.17.17,0,0,0-.09,0,.2.2,0,0,0,0,.1Zm.37.28h.07a.06.06,0,0,0,0,0l.07,0a.14.14,0,0,0,.08,0,.12.12,0,0,0,0-.06s0,0,0-.1a.18.18,0,0,1-.13.06.13.13,0,0,1-.13-.06.22.22,0,0,1,0-.16.35.35,0,0,1,0-.12.23.23,0,0,1,.08-.09.2.2,0,0,1,.11,0,.13.13,0,0,1,.12.06v-.05H36l0,.39a.45.45,0,0,1,0,.15.24.24,0,0,1-.07.07.25.25,0,0,1-.12,0,.17.17,0,0,1-.12,0,.11.11,0,0,1,0-.11Zm.09-.27a.17.17,0,0,0,0,.13.09.09,0,0,0,.08,0,.15.15,0,0,0,.09,0,.23.23,0,0,0,0-.13.16.16,0,0,0,0-.12.09.09,0,0,0-.08,0,.14.14,0,0,0-.09,0,.22.22,0,0,0,0,.12Zm.39.21.06-.45h.06v.06l.06-.05.08,0,.08,0a.1.1,0,0,1,0,.06.18.18,0,0,1,.14-.08.11.11,0,0,1,.1,0,.15.15,0,0,1,0,.11l0,.31h-.07l0-.29a.25.25,0,0,0,0-.06l0,0h0a.12.12,0,0,0-.08,0,.16.16,0,0,0,0,.1l0,.26h-.07l0-.29a.13.13,0,0,0,0-.08.06.06,0,0,0-.06,0l-.06,0,0,.05a.22.22,0,0,0,0,.09l0,.23Zm1-.19h.07a.23.23,0,0,1-.08.11.24.24,0,0,1-.13,0,.17.17,0,0,1-.14-.06.21.21,0,0,1,0-.17.28.28,0,0,1,.08-.18A.22.22,0,0,1,37,78a.16.16,0,0,1,.14.06.24.24,0,0,1,0,.17.05.05,0,0,0,0,0h-.33a.16.16,0,0,0,0,.11.1.1,0,0,0,.09,0l.07,0a.21.21,0,0,0,.05-.07Zm-.23-.12h.24a.18.18,0,0,0,0-.08.11.11,0,0,0-.09,0,.16.16,0,0,0-.09,0,.15.15,0,0,0-.05.09Zm.38.26.06-.45h.07v.06a.19.19,0,0,1,.15-.08h.07l0,0a.2.2,0,0,1,0,.05.46.46,0,0,1,0,.08l0,.28h-.07l0-.27a.19.19,0,0,0,0-.07l0,0h-.05a.13.13,0,0,0-.09,0,.19.19,0,0,0-.05.12l0,.25Zm.64-.09v.06H37.8a.05.05,0,0,1,0,0,.39.39,0,0,1,0-.09l0-.26h-.06V78h.05l0-.11.08,0,0,.16H38v.06h-.07l0,.26a.15.15,0,0,0,0,0v0h.06Zm.07-.16a.27.27,0,0,1,.09-.19.24.24,0,0,1,.15-.05.17.17,0,0,1,.14.06.21.21,0,0,1,0,.17.36.36,0,0,1,0,.14.21.21,0,0,1-.09.08.24.24,0,0,1-.11,0,.16.16,0,0,1-.14-.06.21.21,0,0,1,0-.17Zm.07,0a.18.18,0,0,0,0,.13.1.1,0,0,0,.09,0,.13.13,0,0,0,.1,0,.23.23,0,0,0,.06-.13.17.17,0,0,0,0-.12.09.09,0,0,0-.08,0,.14.14,0,0,0-.1,0,.22.22,0,0,0-.06.13Zm.94.07h.07a.25.25,0,0,1-.08.11.23.23,0,0,1-.13,0,.17.17,0,0,1-.14-.06.22.22,0,0,1,0-.17.31.31,0,0,1,.08-.18.22.22,0,0,1,.16-.06.15.15,0,0,1,.13.06.2.2,0,0,1,0,.17v0h-.33a.15.15,0,0,0,0,.11.11.11,0,0,0,.09,0l.07,0A.17.17,0,0,0,39,78.28Zm-.23-.12H39a.12.12,0,0,0,0-.08.09.09,0,0,0-.08,0,.13.13,0,0,0-.09,0A.18.18,0,0,0,38.78,78.16Zm.37.25.1-.62h.07l-.1.62Zm.28-.53,0-.09h.07l0,.09Zm-.09.53.07-.45h.07l-.08.45Zm.19,0L39.6,78h.07V78l.06-.05.08,0,.07,0a.1.1,0,0,1,0,.06.18.18,0,0,1,.15-.08.11.11,0,0,1,.09,0,.14.14,0,0,1,0,.11l-.05.31H40l0-.29a.27.27,0,0,0,0-.06.06.06,0,0,0,0,0h0a.11.11,0,0,0-.08,0,.15.15,0,0,0,0,.1l0,.26h-.07l0-.29a.12.12,0,0,0,0-.08.05.05,0,0,0-.05,0l-.06,0a.14.14,0,0,0,0,.05.25.25,0,0,0,0,.09l0,.23Zm.79-.53V77.8h.07v.09Zm-.09.53L40.3,78h.07l-.07.45Zm.19,0L40.5,78h.07V78A.18.18,0,0,1,40.7,78l.07,0,0,0a.14.14,0,0,1,0,.06.41.41,0,0,1,0,.07l0,.28h-.07l.05-.27a.23.23,0,0,0,0-.07.06.06,0,0,0,0,0h0a.14.14,0,0,0-.09,0,.17.17,0,0,0-.06.12l0,.25Zm.76,0-.09.05H41a.15.15,0,0,1-.1,0,.11.11,0,0,1,0-.09.17.17,0,0,1,0-.06l0,0,.06,0h.07l.14,0v0a.08.08,0,0,0,0-.06.1.1,0,0,0-.08,0L41,78a.19.19,0,0,0,0,.07h-.07A.17.17,0,0,1,41,78L41,78h.1l.09,0,0,0a.11.11,0,0,1,0,.05.55.55,0,0,1,0,.07l0,.1a.9.9,0,0,0,0,.14.13.13,0,0,0,0,.05h-.08a.11.11,0,0,1,0-.06Zm0-.17-.13,0H41l0,0a.07.07,0,0,0,0,0,.06.06,0,0,0,0,.05l.06,0,.08,0a.13.13,0,0,0,.06,0,.2.2,0,0,0,0-.08v0Zm.43.23v-.06a.16.16,0,0,1-.22,0,.16.16,0,0,1,0-.09.26.26,0,0,1,0-.12.47.47,0,0,1,0-.12.24.24,0,0,1,.08-.08.19.19,0,0,1,.1,0l.07,0a.09.09,0,0,1,0,0l0-.22h.07l-.12.62h-.07Zm-.19-.23a.21.21,0,0,0,0,.13.1.1,0,0,0,.08,0,.12.12,0,0,0,.09,0,.24.24,0,0,0,.06-.12.24.24,0,0,0,0-.14.09.09,0,0,0-.08,0,.12.12,0,0,0-.09,0,.26.26,0,0,0-.06.13Zm.39,0a.31.31,0,0,1,.1-.19.23.23,0,0,1,.15,0,.16.16,0,0,1,.13.06.22.22,0,0,1,0,.17.4.4,0,0,1-.05.13.23.23,0,0,1-.09.08.22.22,0,0,1-.11,0,.16.16,0,0,1-.14-.06.23.23,0,0,1,0-.18Zm.08,0a.18.18,0,0,0,0,.13.1.1,0,0,0,.09,0,.14.14,0,0,0,.1,0,.23.23,0,0,0,.06-.13.19.19,0,0,0,0-.13.1.1,0,0,0-.08,0,.12.12,0,0,0-.1,0,.2.2,0,0,0-.06.13Zm.61.24L42.6,78h.07v.07a.18.18,0,0,1,.06-.06l0,0,.07,0,0,.07-.05,0,0,0,0,0a.33.33,0,0,0,0,.09l0,.23Zm.61-.13h.07a.26.26,0,0,1-.09.1.22.22,0,0,1-.13,0,.16.16,0,0,1-.14-.07.2.2,0,0,1,0-.17A.3.3,0,0,1,42.9,78a.22.22,0,0,1,.16-.06.16.16,0,0,1,.13.07.23.23,0,0,1,0,.18v0h-.32a.17.17,0,0,0,0,.12.1.1,0,0,0,.08,0l.07,0a.21.21,0,0,0,.06-.07Zm-.22-.13h.24a.16.16,0,0,0,0-.09.09.09,0,0,0-.08,0,.12.12,0,0,0-.09,0,.19.19,0,0,0-.06.09Zm.35.14h.08a.09.09,0,0,0,0,.07.09.09,0,0,0,.07,0,.11.11,0,0,0,.08,0,.07.07,0,0,0,0,0,0,0,0,0,0,0,0l-.07,0-.11,0a.11.11,0,0,1,0,0,.12.12,0,0,1,0-.06.1.1,0,0,1,0-.05l0,0,.05,0h.06l.09,0a.1.1,0,0,1,0,0,.16.16,0,0,1,0,.07h-.07a.07.07,0,0,0,0-.06.08.08,0,0,0-.06,0l-.07,0a.06.06,0,0,0,0,0s0,0,0,0l0,0,.06,0,.1,0a.07.07,0,0,1,0,0,.1.1,0,0,1,0,.07.18.18,0,0,1,0,.07l-.07,0h-.09a.17.17,0,0,1-.12,0,.15.15,0,0,1,0-.11Zm.39.32.13-.62h.06v.06l.06-.05H44a.14.14,0,0,1,.09,0,.15.15,0,0,1,0,.09.31.31,0,0,1,0,.12.42.42,0,0,1,0,.12.25.25,0,0,1-.09.08l-.1,0-.06,0,0,0,0,.22h-.07Zm.14-.39a.2.2,0,0,0,0,.13.08.08,0,0,0,.07,0,.12.12,0,0,0,.09,0,.23.23,0,0,0,.06-.13.19.19,0,0,0,0-.13.07.07,0,0,0-.07,0,.12.12,0,0,0-.09,0,.24.24,0,0,0-.07.13Zm.68.11h.07a.22.22,0,0,1-.22.14.16.16,0,0,1-.14-.07.21.21,0,0,1,0-.17.33.33,0,0,1,.09-.17.24.24,0,0,1,.16-.06.15.15,0,0,1,.13.07.23.23,0,0,1,0,.18v0h-.32a.17.17,0,0,0,0,.12.1.1,0,0,0,.08,0,.11.11,0,0,0,.07,0,.19.19,0,0,0,.06-.07Zm-.22-.13h.24a.13.13,0,0,0,0-.09.09.09,0,0,0-.08,0,.14.14,0,0,0-.09,0,.18.18,0,0,0-.06.09Zm.46-.25,0-.09h.07l0,.09Zm-.11.54.09-.45h.07l-.09.45h-.07Zm.36-.05v.06h-.06l-.06,0a.06.06,0,0,1,0,0,.37.37,0,0,1,0-.09l.05-.26h-.05v-.06h.05l0-.11.08,0,0,.16H45v.06H45l-.05.26a.12.12,0,0,0,0,0v0H45Zm.34,0-.09,0h-.09a.12.12,0,0,1-.1,0,.1.1,0,0,1,0-.09.13.13,0,0,1,0-.06l0,0,.06,0h.07l.14,0v0s0-.05,0-.06a.1.1,0,0,0-.08,0l-.08,0a.16.16,0,0,0-.05.06h-.07a.26.26,0,0,1,.05-.08l.07,0h.1l.09,0,0,0a.16.16,0,0,1,0,.05v.07l0,.1c0,.07,0,.12,0,.13a.13.13,0,0,0,0,.05h-.08a.16.16,0,0,1,0-.05Zm0-.17-.12,0h-.07l0,0a.05.05,0,0,0,0,0,.06.06,0,0,0,0,0,.07.07,0,0,0,.06,0l.08,0a.12.12,0,0,0,.06-.05.19.19,0,0,0,0-.08v0Zm.39,0a.28.28,0,0,1,.11-.18.23.23,0,0,1,.15,0,.15.15,0,0,1,.13.07.2.2,0,0,1,0,.17.34.34,0,0,1-.05.13.24.24,0,0,1-.09.08l-.11,0a.16.16,0,0,1-.13-.07.23.23,0,0,1,0-.18Zm.08,0a.19.19,0,0,0,0,.13.09.09,0,0,0,.08,0,.14.14,0,0,0,.1,0,.25.25,0,0,0,.06-.13.19.19,0,0,0,0-.13.09.09,0,0,0-.08,0,.12.12,0,0,0-.1,0,.24.24,0,0,0-.06.13Zm.57.43.14-.62h.07v.06a.17.17,0,0,1,.06,0h.08a.15.15,0,0,1,.09,0,.15.15,0,0,1,0,.09.27.27,0,0,1,0,.12.34.34,0,0,1-.05.13.24.24,0,0,1-.09.08.19.19,0,0,1-.1,0l-.06,0,0,0,0,.22h-.07Zm.15-.39a.23.23,0,0,0,0,.13.09.09,0,0,0,.07,0,.12.12,0,0,0,.09,0,.22.22,0,0,0,.06-.13.19.19,0,0,0,0-.13.1.1,0,0,0-.07,0,.13.13,0,0,0-.09,0,.25.25,0,0,0-.07.13Zm.35.25.1-.45H47l0,.07.06-.06h.05l.07,0,0,.07-.05,0h0l0,0a.34.34,0,0,0,0,.09l-.05.24h-.07Zm.3-.21a.28.28,0,0,1,.11-.18.23.23,0,0,1,.15,0,.16.16,0,0,1,.13.07.21.21,0,0,1,0,.17.31.31,0,0,1-.05.13.25.25,0,0,1-.09.08l-.11,0a.16.16,0,0,1-.13-.07.23.23,0,0,1,0-.18Zm.08,0a.18.18,0,0,0,0,.13.1.1,0,0,0,.08,0,.13.13,0,0,0,.1,0,.27.27,0,0,0,.06-.13.18.18,0,0,0,0-.13.1.1,0,0,0-.08,0,.13.13,0,0,0-.1,0,.23.23,0,0,0-.06.13Zm.48-.27,0-.09h.07l0,.09Zm-.25.7,0-.06h.07a.17.17,0,0,0,0-.08l.1-.47h.07l-.1.47a.25.25,0,0,1,0,.12.1.1,0,0,1-.1,0Zm.64-.29.07,0a.25.25,0,0,1-.09.1.19.19,0,0,1-.13,0,.17.17,0,0,1-.14-.07.22.22,0,0,1,0-.17.3.3,0,0,1,.1-.17.21.21,0,0,1,.16-.05.16.16,0,0,1,.13.07.23.23,0,0,1,0,.18v0l-.32,0a.15.15,0,0,0,0,.12.1.1,0,0,0,.08,0l.07,0a.19.19,0,0,0,.06-.07Zm-.21-.14.24,0a.17.17,0,0,0,0-.09.09.09,0,0,0-.08,0,.12.12,0,0,0-.09,0,.15.15,0,0,0-.06.09Z"/><path class="pt_cls-3" d="M48.57,78.57h.07a.23.23,0,0,1-.08.12.19.19,0,0,1-.13,0,.15.15,0,0,1-.13-.07.24.24,0,0,1,0-.18.43.43,0,0,1,0-.13.21.21,0,0,1,.09-.08.24.24,0,0,1,.11,0,.16.16,0,0,1,.11,0,.15.15,0,0,1,0,.11H48.6a.11.11,0,0,0,0-.07l-.06,0a.13.13,0,0,0-.1,0,.24.24,0,0,0-.06.13.2.2,0,0,0,0,.13.09.09,0,0,0,.08,0,.1.1,0,0,0,.07,0A.15.15,0,0,0,48.57,78.57Zm.27.13v.07h-.05l-.06,0a.06.06,0,0,1,0,0,.27.27,0,0,1,0-.09l.06-.26h-.05V78.3h.05l0-.11.08,0,0,.16h.07v.06h-.07l-.06.26a.12.12,0,0,0,0,0v0h.05Zm.08-.15a.28.28,0,0,1,.11-.18.22.22,0,0,1,.15,0,.16.16,0,0,1,.13.07.22.22,0,0,1,0,.17.29.29,0,0,1-.05.13.23.23,0,0,1-.09.07l-.11,0a.15.15,0,0,1-.13-.07A.22.22,0,0,1,48.92,78.55Zm.08,0a.17.17,0,0,0,0,.13.1.1,0,0,0,.08.05.14.14,0,0,0,.1,0,.26.26,0,0,0,.07-.13.2.2,0,0,0,0-.13.1.1,0,0,0-.08-.05.14.14,0,0,0-.1,0,.21.21,0,0,0-.07.13Zm.87.31,0-.06a.17.17,0,0,1-.14.06.16.16,0,0,1-.13-.13.33.33,0,0,1,0-.12.36.36,0,0,1,.05-.12.23.23,0,0,1,.08-.08.17.17,0,0,1,.1,0l.06,0,0,0,.05-.22h.07l-.14.62h-.07Zm-.18-.24a.18.18,0,0,0,0,.13.08.08,0,0,0,.07,0,.11.11,0,0,0,.09,0,.22.22,0,0,0,.06-.12.2.2,0,0,0,0-.14.09.09,0,0,0-.07-.05.12.12,0,0,0-.09,0A.24.24,0,0,0,49.69,78.62Zm.69.14.07,0a.26.26,0,0,1-.09.1.23.23,0,0,1-.13,0,.17.17,0,0,1-.13-.07.24.24,0,0,1,0-.18.31.31,0,0,1,.1-.17.2.2,0,0,1,.16,0,.16.16,0,0,1,.12.07.25.25,0,0,1,0,.18v0l-.32,0a.16.16,0,0,0,0,.12.1.1,0,0,0,.08,0l.07,0a.15.15,0,0,0,.06-.06Zm-.21-.15.24,0a.18.18,0,0,0,0-.09.09.09,0,0,0-.08-.05.12.12,0,0,0-.09,0,.15.15,0,0,0-.06.09Zm1.05.16.07,0a.33.33,0,0,1-.13.14.29.29,0,0,1-.32,0,.21.21,0,0,1-.06-.13.42.42,0,0,1,0-.17.4.4,0,0,1,.08-.16.3.3,0,0,1,.13-.1.35.35,0,0,1,.15,0,.22.22,0,0,1,.14.06.2.2,0,0,1,.05.14h-.08a.17.17,0,0,0,0-.1.14.14,0,0,0-.09,0,.24.24,0,0,0-.12,0,.23.23,0,0,0-.09.09.36.36,0,0,0,0,.12.36.36,0,0,0,0,.14.13.13,0,0,0,0,.09.14.14,0,0,0,.09,0,.18.18,0,0,0,.12,0,.25.25,0,0,0,.09-.11Zm.14,0a.28.28,0,0,1,.11-.18.23.23,0,0,1,.15,0,.17.17,0,0,1,.13.08.23.23,0,0,1,0,.18.34.34,0,0,1-.06.13.23.23,0,0,1-.09.07l-.11,0a.16.16,0,0,1-.13-.08.25.25,0,0,1,0-.18Zm.07,0a.18.18,0,0,0,0,.13.1.1,0,0,0,.08.05.14.14,0,0,0,.1,0,.27.27,0,0,0,.07-.13.2.2,0,0,0,0-.13.1.1,0,0,0-.08-.05.14.14,0,0,0-.1,0,.23.23,0,0,0-.07.12Zm.35.27.17-.62H52l-.17.62Zm.46.06,0-.07a.19.19,0,0,1-.16.06l-.06,0,0,0A.14.14,0,0,1,52,79a.46.46,0,0,1,0-.07l.07-.28h.07l-.07.25a.56.56,0,0,0,0,.08.07.07,0,0,0,0,.05l0,0h.07l.05,0a.37.37,0,0,0,0-.09l.06-.24h.07l-.12.45Zm.17,0,.12-.45h.06l0,.06.07,0h.08l.07,0a.1.1,0,0,1,0,.06.18.18,0,0,1,.15-.06.12.12,0,0,1,.09,0,.14.14,0,0,1,0,.12L53,79.2h-.07l.07-.28a.28.28,0,0,0,0-.06.05.05,0,0,0,0,0l0,0a.11.11,0,0,0-.08,0,.16.16,0,0,0-.06.1l-.07.26h-.07l.08-.29a.12.12,0,0,0,0-.08.05.05,0,0,0,0,0h-.06l-.05,0a.3.3,0,0,0,0,.09l-.06.23Zm.75.1H53.1l.18-.62h.07l-.06.22a.17.17,0,0,1,.13,0l.07,0,0,.05a.24.24,0,0,1,0,.08.27.27,0,0,1,0,.09.33.33,0,0,1-.1.17.2.2,0,0,1-.15,0,.12.12,0,0,1-.1-.08l0,.05Zm.06-.22a.24.24,0,0,0,0,.12.08.08,0,0,0,.07.07.12.12,0,0,0,.1,0,.25.25,0,0,0,.07-.12.2.2,0,0,0,0-.13.09.09,0,0,0-.07-.05.12.12,0,0,0-.09,0,.24.24,0,0,0-.07.12Zm.62.26-.09,0h-.08a.14.14,0,0,1-.1,0,.12.12,0,0,1,0-.1.12.12,0,0,1,0-.06l0,0,.06,0h.2v0a.09.09,0,0,0,0-.07.1.1,0,0,0-.08,0h-.08a.16.16,0,0,0-.05.06l-.07,0a.24.24,0,0,1,.05-.07l.07,0h.1l.08,0,0,0A.1.1,0,0,1,54,79L54,79l0,.1c0,.07,0,.12,0,.13a.14.14,0,0,0,0,.06h-.07a.14.14,0,0,1,0-.06Zm0-.17H53.7l0,0,0,0a.06.06,0,0,0,0,.05l.06,0h.08l.06,0a.24.24,0,0,0,0-.07v0Zm.12.26.13-.45h.06l0,.06a.17.17,0,0,1,.16-.05l.06,0a.1.1,0,0,1,0,0,.15.15,0,0,1,0,.06.4.4,0,0,1,0,.07l-.08.27h-.07l.08-.27a.2.2,0,0,0,0-.07.05.05,0,0,0,0,0l0,0a.13.13,0,0,0-.09,0,.2.2,0,0,0-.07.11l-.07.24Zm.49-.16a.27.27,0,0,1,.12-.17.22.22,0,0,1,.15,0,.16.16,0,0,1,.12.08.23.23,0,0,1,0,.17.4.4,0,0,1-.06.13.24.24,0,0,1-.1.07.22.22,0,0,1-.11,0,.16.16,0,0,1-.12-.08.23.23,0,0,1,0-.18Zm.07,0a.21.21,0,0,0,0,.13.1.1,0,0,0,.08.06.13.13,0,0,0,.1,0,.23.23,0,0,0,.08-.12.17.17,0,0,0,0-.13.1.1,0,0,0-.07-.06.13.13,0,0,0-.1,0,.24.24,0,0,0-.07.12Z"/><path class="pt_cls-5" d="M56.31,81.7a.47.47,0,0,1-.41-.7l1.83-3.24a.47.47,0,1,1,.82.46l-1.83,3.24A.47.47,0,0,1,56.31,81.7Z"/><path class="pt_cls-4" d="M11.86,48.22c10.27-.13,57.68,29,57.82,34.33L66.74,87C65.42,80.83,17.31,52.51,9.38,53l2.49-4.82Z"/><path class="pt_cls-3" d="M67,87.08a.29.29,0,0,1-.24-.44l2.49-3.87a.29.29,0,1,1,.48.31L67.22,87A.29.29,0,0,1,67,87.08Z"/><path class="pt_cls-3" d="M9.47,53.05a.29.29,0,0,1-.25-.42l2.31-4.29a.29.29,0,1,1,.5.27L9.72,52.9A.29.29,0,0,1,9.47,53.05Z"/><path class="pt_cls-4" d="M9.08,52.87C11,51.58,25,57.81,39.64,66.65S68.21,85.52,67,87.39l-.42.65-.19.15s.25-.29,0-1c-.62-2-10.53-10-27-19.87C23.35,57.79,10,52,8.66,53.67l.42-.8ZM70,82.88c1.2-2.38-11.78-12.16-27.88-21.69C25.62,51.85,13.74,46.36,11.57,48l-.48.88s0-.06.12-.14a2.12,2.12,0,0,1,1.34-.33c3.73.05,14.4,5,29.36,13.54,6.56,3.82,27.7,17.38,27.62,21.19,0,.33,0,.39-.1.56l.54-.82Z"/><path class="pt_cls-3" d="M66.36,88.48a.29.29,0,0,1-.28-.36.25.25,0,0,1,.07-.13,1,1,0,0,0-.09-.67c-.53-1.75-9.43-9.22-26.84-19.73-15.31-9.13-26.5-13.9-29.65-13.9-.5,0-.65.12-.69.17a.29.29,0,0,1-.48-.31l.42-.81a.28.28,0,0,1,.09-.1,1.66,1.66,0,0,1,.94-.22c3.77,0,16.91,6.15,29.92,14C53,74.4,66.66,84,67.29,86.87a.85.85,0,0,1-.1.68l-.41.65-.06.07-.18.14A.29.29,0,0,1,66.36,88.48ZM9.58,53.11c3.76,0,16.35,5.88,29.94,14,16.1,9.72,26.41,17.82,27.09,20l.06.18,0-.07a.31.31,0,0,0,0-.24c-.52-2.36-12.23-11-27.24-20.1C26.55,59.09,13.54,53,9.86,53a1.35,1.35,0,0,0-.56.09l0,0ZM69.44,84a.29.29,0,0,1-.24-.44l0-.07a.84.84,0,0,0,0-.21v-.11c.07-3.44-19.63-16.38-27.48-20.94C26.9,53.67,16.25,48.75,12.55,48.69a1.86,1.86,0,0,0-1.15.25l0,.06a.31.31,0,0,1-.47.07.31.31,0,0,1-.08-.23.29.29,0,0,1,0-.12l.48-.88a.29.29,0,0,1,.08-.09,2.18,2.18,0,0,1,1.34-.35c4.66,0,18.61,7.35,29.49,13.52,15,8.86,29.41,19.29,28,22.07l-.49.75-.08.12A.28.28,0,0,1,69.44,84ZM12.56,48.12h0c3.79.06,14.54,5,29.5,13.58,4.19,2.44,26.3,16.21,27.69,21,.73-1.86-9.61-10.48-27.81-21.25C26.43,52.64,16.33,48,12.74,48a1.9,1.9,0,0,0-.9.17,4,4,0,0,1,.65,0Z"/><path class="pt_cls-6" d="M19.86,70.66a20.19,20.19,0,0,0,20,20,20.07,20.07,0,0,0,20.07-20h0V44l-40.07,0V70.66Z"/><path class="pt_cls-3" d="M39.86,91A20.53,20.53,0,0,1,19.53,70.66V43.57l40.74,0V70.67A20.4,20.4,0,0,1,39.86,91ZM20.19,44.24V70.66A19.68,19.68,0,0,0,53.8,84.57a19.51,19.51,0,0,0,5.79-13.9V44.29Z"/><path class="pt_cls-5" d="M20.61,70.69v0h0a19,19,0,0,0,5.66,13.5,19.18,19.18,0,0,0,27.14,0,19,19,0,0,0,5.63-13.51h0V44.8H20.63l0,25.9ZM51.33,52.56V70.8h0a12.75,12.75,0,0,1-.08,1.43,11.23,11.23,0,0,1-3.29,6.65A11.49,11.49,0,0,1,28.4,70.75V52.51l22.93,0Z"/><path class="pt_cls-3" d="M39.84,90.1A19.55,19.55,0,0,1,20.36,70.71l0-26.17H59.3V70.73A19.45,19.45,0,0,1,39.84,90.1ZM20.89,45l0,25.64A19,19,0,0,0,53.24,84.06,18.7,18.7,0,0,0,58.8,70.73V45.05ZM39.83,82.49A11.63,11.63,0,0,1,31.61,79a11.75,11.75,0,0,1-3.46-8.26V52.26h.25l23.18,0V70.8a13,13,0,0,1-.08,1.46,11.48,11.48,0,0,1-3.36,6.8A11.69,11.69,0,0,1,39.83,82.49ZM28.65,52.77v18A11.24,11.24,0,0,0,32,78.65a11.09,11.09,0,0,0,15.8.05A11,11,0,0,0,51,72.2a12.46,12.46,0,0,0,.08-1.4v-18Z"/><path class="pt_cls-7" d="M37.42,67.75h0a2.82,2.82,0,0,0,.75,1.92,2.4,2.4,0,0,0,3.58,0,2.81,2.81,0,0,0,.74-1.92h0V64.12H37.43v3.63Z"/><path class="pt_cls-6" d="M41.39,65a.5.5,0,1,0,.5.5.5.5,0,0,0-.5-.5Z"/><path class="pt_cls-6" d="M40,66.35a.5.5,0,1,0,.5.5.5.5,0,0,0-.5-.5Z"/><path class="pt_cls-6" d="M41.38,67.76a.5.5,0,1,0,.5.5.5.5,0,0,0-.5-.5Z"/><path class="pt_cls-6" d="M38.65,67.76a.5.5,0,1,0,.5.5.5.5,0,0,0-.5-.5Z"/><path class="pt_cls-6" d="M38.64,65a.5.5,0,1,0,.5.5.5.5,0,0,0-.5-.5Z"/><path class="pt_cls-7" d="M37.4,76.45h0a2.82,2.82,0,0,0,.75,1.92,2.4,2.4,0,0,0,3.58,0,2.81,2.81,0,0,0,.74-1.92h0V72.82H37.41v3.63Z"/><path class="pt_cls-6" d="M41.37,73.7a.5.5,0,1,0,.5.5.5.5,0,0,0-.5-.5Z"/><path class="pt_cls-6" d="M40,75.05a.5.5,0,1,0,.5.5.5.5,0,0,0-.5-.5Z"/><path class="pt_cls-6" d="M41.36,76.46a.5.5,0,1,0,.5.5.5.5,0,0,0-.5-.5Z"/><path class="pt_cls-6" d="M38.63,76.46a.5.5,0,1,0,.5.5.5.5,0,0,0-.5-.5Z"/><path class="pt_cls-6" d="M38.62,73.7a.5.5,0,1,0,.5.5.5.5,0,0,0-.5-.5Z"/><path class="pt_cls-7" d="M30.4,67.77h0a2.82,2.82,0,0,0,.75,1.92,2.4,2.4,0,0,0,3.58,0,2.82,2.82,0,0,0,.74-1.92h0V64.14H30.41v3.63Z"/><path class="pt_cls-6" d="M34.37,65a.5.5,0,1,0,.5.5.5.5,0,0,0-.5-.5Z"/><path class="pt_cls-6" d="M33,66.37a.5.5,0,1,0,.5.5.5.5,0,0,0-.5-.5Z"/><path class="pt_cls-6" d="M34.37,67.78a.5.5,0,1,0,.5.5.5.5,0,0,0-.5-.5Z"/><path class="pt_cls-6" d="M31.63,67.78a.5.5,0,1,0,.5.5.5.5,0,0,0-.5-.5Z"/><path class="pt_cls-6" d="M31.63,65a.5.5,0,1,0,.5.5.5.5,0,0,0-.5-.5Z"/><path class="pt_cls-7" d="M44.42,67.77h0a2.8,2.8,0,0,0,.75,1.92,2.4,2.4,0,0,0,3.58,0,2.81,2.81,0,0,0,.74-1.92h0V64.14H44.43v3.63Z"/><path class="pt_cls-6" d="M48.39,65a.5.5,0,1,0,.5.5.5.5,0,0,0-.5-.5Z"/><path class="pt_cls-6" d="M47,66.36a.5.5,0,1,0,.5.5.5.5,0,0,0-.5-.5Z"/><path class="pt_cls-6" d="M48.39,67.77a.5.5,0,1,0,.5.5.5.5,0,0,0-.5-.5Z"/><path class="pt_cls-6" d="M45.65,67.78a.5.5,0,1,0,.5.5.5.5,0,0,0-.5-.5Z"/><path class="pt_cls-6" d="M45.64,65a.5.5,0,1,0,.5.5.5.5,0,0,0-.5-.5Z"/><path class="pt_cls-7" d="M37.42,59h0a2.81,2.81,0,0,0,.75,1.92,2.4,2.4,0,0,0,3.58,0A2.81,2.81,0,0,0,42.49,59h0V55.34H37.43V59Z"/><path class="pt_cls-6" d="M41.39,56.22a.5.5,0,1,0,.5.5.5.5,0,0,0-.5-.5Z"/><path class="pt_cls-6" d="M40,57.57a.5.5,0,1,0,.5.5.5.5,0,0,0-.5-.5Z"/><path class="pt_cls-6" d="M41.38,59a.5.5,0,1,0,.5.5.5.5,0,0,0-.5-.5Z"/><path class="pt_cls-6" d="M38.65,59a.5.5,0,1,0,.5.5.5.5,0,0,0-.5-.5Z"/><path class="pt_cls-6" d="M38.64,56.22a.5.5,0,1,0,.5.5.5.5,0,0,0-.5-.5Z"/><path class="pt_cls-4" d="M23.1,51.56a2.34,2.34,0,0,1,1.38-2.31,2.32,2.32,0,0,1,1.42,2.33l-2.8,0Z"/><path class="pt_cls-4" d="M22,49.29l-.23,2.14h1.4a1.91,1.91,0,0,1,1.37-2.06,2.06,2.06,0,0,1,1.38,2.06h1.4L27,49.27Z"/><path class="pt_cls-3" d="M23.37,51.68H21.45L21.71,49,22,49h5.29l.31,2.66H25.63v-.24a1.84,1.84,0,0,0-1.14-1.81,1.7,1.7,0,0,0-1.11,1.8Zm2.74-.5H27l-.19-1.66H25.28A2.38,2.38,0,0,1,26.11,51.18Zm-4.11,0h.88a2.31,2.31,0,0,1,.77-1.65H22.18Z"/><path class="pt_cls-4" d="M21.63,51.44h5.72a.27.27,0,0,1,0,.53H21.63a.27.27,0,0,1,0-.53Z"/><path class="pt_cls-3" d="M27.35,52.22H21.63a.52.52,0,0,1,0-1h5.72a.52.52,0,0,1,0,1Z"/><path class="pt_cls-4" d="M23.71,51.43A1.48,1.48,0,0,1,24.48,50a1.5,1.5,0,0,1,.8,1.43Z"/><path class="pt_cls-3" d="M25.53,51.68H23.46v-.25a1.72,1.72,0,0,1,.92-1.66l.09,0,.1,0a1.73,1.73,0,0,1,1,1.66ZM24,51.18h1a1.25,1.25,0,0,0-.53-.9A1.25,1.25,0,0,0,24,51.18Z"/><path class="pt_cls-4" d="M21.75,48.4h5.48a.24.24,0,0,1,0,.47H21.75a.24.24,0,0,1,0-.47Z"/><path class="pt_cls-3" d="M27.24,49.12H21.75a.49.49,0,0,1,0-1h5.48a.49.49,0,0,1,0,1Z"/><path class="pt_cls-4" d="M21.87,48.88h5.24a.22.22,0,0,1,.2.24.22.22,0,0,1-.2.24H21.87a.24.24,0,0,1,0-.47Z"/><path class="pt_cls-3" d="M27.11,49.6H21.87a.49.49,0,0,1,0-1h5.24a.49.49,0,0,1,0,1Z"/><path class="pt_cls-4" d="M23.56,45.3H24v.29h.3v-.3h.43v.3H25v-.3h.42V46a.17.17,0,0,1-.19.18H23.76a.19.19,0,0,1-.19-.18V45.3Z"/><path class="pt_cls-3" d="M25.25,46.4H23.76a.44.44,0,0,1-.44-.42v-.93h2.37V46A.43.43,0,0,1,25.25,46.4Zm-1.43-.5h1.37v-.05H23.81Z"/><polygon class="pt_cls-4" points="25.13 46.21 25.22 48.39 23.77 48.38 23.86 46.21 25.13 46.21 25.13 46.21"/><path class="pt_cls-3" d="M25.48,48.64h-2L23.63,46h1.74ZM24,48.14H25l-.07-1.68H24.1Z"/><path class="pt_cls-4" d="M25.37,46.37h.4v.29h.3v-.3h.41v.3h.3v-.3h.42V47a.17.17,0,0,1-.18.18H25.56a.19.19,0,0,1-.19-.18v-.67Z"/><path class="pt_cls-3" d="M27,47.47H25.56a.44.44,0,0,1-.44-.43v-.92h2.33V47A.42.42,0,0,1,27,47.47Zm-1.4-.5h1.33v-.05H25.62Z"/><polygon class="pt_cls-4" points="26.93 47.22 26.98 48.39 25.58 48.39 25.62 47.22 26.93 47.22 26.93 47.22"/><path class="pt_cls-3" d="M25.32,48.64,25.38,47h1.79l.06,1.67Zm.54-1.17,0,.67h.87l0-.67Z"/><path class="pt_cls-4" d="M21.79,46.37h.41v.29h.29v-.3h.42v.3h.29v-.3h.42V47a.17.17,0,0,1-.18.18H22a.19.19,0,0,1-.19-.18v-.67Z"/><path class="pt_cls-3" d="M23.43,47.47H22a.44.44,0,0,1-.44-.43v-.92h2.33V47A.42.42,0,0,1,23.43,47.47ZM22,47h1.32v-.05H22Z"/><polygon class="pt_cls-4" points="23.35 47.22 23.4 48.39 22 48.4 22.04 47.22 23.35 47.22 23.35 47.22"/><path class="pt_cls-3" d="M21.75,48.65,21.8,47h1.79l.06,1.67Zm.54-1.17,0,.67h.87l0-.67Z"/><path class="pt_cls-3" d="M24.35,46.9a.15.15,0,1,1,.29,0v.52h-.29V46.9Z"/><path class="pt_cls-3" d="M26.14,47.65a.14.14,0,1,1,.28,0V48h-.28v-.4Z"/><path class="pt_cls-3" d="M22.55,47.65a.14.14,0,1,1,.28,0v.4h-.28v-.4Z"/><path class="pt_cls-4" d="M39,45.31h.41v.29h.3v-.3h.42v.3h.3v-.3h.43V46a.18.18,0,0,1-.19.18H39.19A.19.19,0,0,1,39,46v-.67Z"/><path class="pt_cls-3" d="M40.67,46.4H39.18a.44.44,0,0,1-.44-.42v-.92h2.37V46A.43.43,0,0,1,40.67,46.4Zm-1.43-.5h1.37v-.05H39.24Z"/><polygon class="pt_cls-4" points="40.55 46.22 40.65 48.39 39.19 48.39 39.29 46.21 40.55 46.22 40.55 46.22"/><path class="pt_cls-3" d="M40.9,48.64h-2L39,46h1.74Zm-1.45-.5h.93l-.07-1.68h-.79Z"/><path class="pt_cls-4" d="M40.79,46.37h.4v.29h.29v-.3h.42v.3h.29v-.3h.42V47a.17.17,0,0,1-.18.18H41a.19.19,0,0,1-.19-.18v-.67Z"/><path class="pt_cls-3" d="M42.44,47.47H41a.44.44,0,0,1-.44-.43V45.77l.36.36h2V47A.42.42,0,0,1,42.44,47.47ZM41,47h1.32v-.05H41Z"/><polygon class="pt_cls-4" points="42.36 47.22 42.4 48.39 41.01 48.39 41.05 47.22 42.36 47.22 42.36 47.22"/><path class="pt_cls-3" d="M42.66,48.64H40.75L40.81,47H42.6Zm-1.39-.5h.87l0-.67h-.83Z"/><path class="pt_cls-4" d="M37.21,46.38h.41v.3h.29v-.3h.42v.3h.3v-.3H39V47a.17.17,0,0,1-.18.17H37.4a.19.19,0,0,1-.19-.18v-.67Z"/><path class="pt_cls-3" d="M38.86,47.47H37.4A.44.44,0,0,1,37,47v-.92h2.33V47A.42.42,0,0,1,38.86,47.47Zm-1.4-.5h1.33v-.05H37.46Z"/><polygon class="pt_cls-4" points="38.78 47.22 38.82 48.4 37.43 48.4 37.47 47.22 38.78 47.22 38.78 47.22"/><path class="pt_cls-3" d="M39.08,48.65H37.17L37.23,47H39Zm-1.39-.5h.87l0-.67h-.82Z"/><path class="pt_cls-4" d="M38.53,51.57a2.34,2.34,0,0,1,1.37-2.31,2.31,2.31,0,0,1,1.43,2.33l-2.8,0Z"/><path class="pt_cls-4" d="M37.38,49.29l-.23,2.14h1.4a1.9,1.9,0,0,1,1.37-2.06,2.06,2.06,0,0,1,1.38,2.06h1.4l-.25-2.16Z"/><path class="pt_cls-3" d="M38.8,51.68H36.88L37.16,49l5.51,0L43,51.68H41.06v-.24a1.85,1.85,0,0,0-1.14-1.81,1.7,1.7,0,0,0-1.11,1.8Zm2.74-.5h.88l-.2-1.66H40.71A2.38,2.38,0,0,1,41.54,51.18Zm-4.11,0h.88a2.31,2.31,0,0,1,.77-1.65H37.61Z"/><path class="pt_cls-4" d="M37.06,51.44h5.72a.27.27,0,0,1,0,.53H37.06a.27.27,0,0,1,0-.53Z"/><path class="pt_cls-3" d="M42.78,52.22H37.06a.52.52,0,0,1,0-1h5.72a.52.52,0,0,1,0,1Z"/><path class="pt_cls-4" d="M39.14,51.43A1.48,1.48,0,0,1,39.91,50a1.5,1.5,0,0,1,.79,1.44Z"/><path class="pt_cls-3" d="M41,51.68H38.89v-.25a1.63,1.63,0,0,1,1-1.68l.1,0a1.74,1.74,0,0,1,1,1.66Zm-1.55-.5h1a1.25,1.25,0,0,0-.53-.9A1.24,1.24,0,0,0,39.41,51.18Z"/><path class="pt_cls-4" d="M37.18,48.4h5.48a.24.24,0,0,1,0,.48H37.18a.24.24,0,0,1,0-.48Z"/><path class="pt_cls-3" d="M42.66,49.13H37.18a.49.49,0,0,1,0-1h5.48a.49.49,0,0,1,0,1Z"/><path class="pt_cls-4" d="M37.3,48.88h5.25a.24.24,0,0,1,0,.47H37.3a.24.24,0,0,1,0-.47Z"/><path class="pt_cls-3" d="M42.54,49.6H37.3a.49.49,0,0,1,0-1h5.24a.49.49,0,0,1,0,1Z"/><path class="pt_cls-3" d="M39.78,46.9a.15.15,0,1,1,.29,0v.52h-.29V46.9Z"/><path class="pt_cls-3" d="M41.57,47.65a.14.14,0,1,1,.28,0v.4h-.28v-.4Z"/><path class="pt_cls-3" d="M38,47.66a.14.14,0,1,1,.28,0v.4H38v-.4Z"/><path class="pt_cls-4" d="M54.25,45.32h.41v.3H55v-.3h.42v.3h.3v-.3h.43V46a.18.18,0,0,1-.19.17H54.44a.19.19,0,0,1-.19-.18v-.67Z"/><path class="pt_cls-3" d="M55.93,46.41H54.44A.44.44,0,0,1,54,46v-.92h2.37V46A.43.43,0,0,1,55.93,46.41Zm-1.43-.5h1.37v-.05H54.5Z"/><polygon class="pt_cls-4" points="55.81 46.23 55.9 48.4 54.45 48.4 54.55 46.22 55.81 46.23 55.81 46.23"/><path class="pt_cls-3" d="M56.16,48.65h-2L54.31,46H56Zm-1.45-.5h.93l-.07-1.68h-.78Z"/><path class="pt_cls-4" d="M56,46.38h.41v.29h.29v-.3h.41v.3h.3v-.3h.41v.68a.18.18,0,0,1-.18.18H56.24a.19.19,0,0,1-.19-.18v-.67Z"/><path class="pt_cls-3" d="M57.69,47.48H56.24a.44.44,0,0,1-.44-.43v-.92h2.33v.93A.43.43,0,0,1,57.69,47.48ZM56.3,47h1.33v-.05H56.3Z"/><polygon class="pt_cls-4" points="57.61 47.23 57.66 48.4 56.27 48.4 56.3 47.23 57.61 47.23 57.61 47.23"/><path class="pt_cls-3" d="M56,48.66,56.06,47h1.79l.06,1.67Zm.54-1.17,0,.67h.87l0-.67Z"/><path class="pt_cls-4" d="M52.47,46.38h.41v.29h.29v-.3h.42v.3h.3v-.3h.42v.68a.17.17,0,0,1-.18.17H52.66a.19.19,0,0,1-.19-.18v-.67Z"/><path class="pt_cls-3" d="M54.11,47.48H52.66a.44.44,0,0,1-.44-.43v-.92h2.33v.93A.42.42,0,0,1,54.11,47.48Zm-1.4-.5H54v-.05H52.72Z"/><polygon class="pt_cls-4" points="54.03 47.23 54.08 48.41 52.69 48.41 52.73 47.23 54.03 47.23 54.03 47.23"/><path class="pt_cls-3" d="M54.34,48.66H52.43L52.48,47h1.79Zm-1.4-.5h.88l0-.67H53Z"/><path class="pt_cls-4" d="M53.78,51.58a2.35,2.35,0,0,1,1.38-2.31,2.32,2.32,0,0,1,1.43,2.33l-2.8,0Z"/><path class="pt_cls-4" d="M52.64,49.3l-.23,2.14h1.4a1.9,1.9,0,0,1,1.37-2.06,2.06,2.06,0,0,1,1.38,2.06H58l-.25-2.16Z"/><path class="pt_cls-3" d="M54.05,51.7H52.13L52.41,49h5.52l.31,2.66H56.32v-.24a1.84,1.84,0,0,0-1.14-1.81,1.7,1.7,0,0,0-1.11,1.81Zm2.74-.5h.89l-.2-1.66H56A2.38,2.38,0,0,1,56.8,51.2Zm-4.11,0h.88a2.31,2.31,0,0,1,.77-1.65H52.86Z"/><path class="pt_cls-4" d="M52.32,51.45H58A.27.27,0,0,1,58,52H52.32a.27.27,0,0,1,0-.53Z"/><path class="pt_cls-3" d="M58,52.23H52.32a.52.52,0,0,1,0-1H58a.52.52,0,0,1,0,1Z"/><path class="pt_cls-4" d="M54.4,51.44A1.47,1.47,0,0,1,55.16,50,1.49,1.49,0,0,1,56,51.44H54.4Z"/><path class="pt_cls-3" d="M56.21,51.69H54.15v-.25a1.72,1.72,0,0,1,.92-1.66l.1,0a1.62,1.62,0,0,1,1,1.68Zm-1.55-.5h1a1.23,1.23,0,0,0-.53-.9A1.25,1.25,0,0,0,54.66,51.19Z"/><path class="pt_cls-4" d="M52.44,48.41h5.48a.23.23,0,0,1,.21.24.22.22,0,0,1-.21.24H52.44a.22.22,0,0,1-.21-.24.23.23,0,0,1,.21-.24Z"/><path class="pt_cls-3" d="M57.92,49.14H52.44a.47.47,0,0,1-.46-.49.48.48,0,0,1,.46-.49h5.48a.48.48,0,0,1,.46.49A.47.47,0,0,1,57.92,49.14Z"/><path class="pt_cls-4" d="M52.55,48.89H57.8a.24.24,0,0,1,0,.47H52.55a.24.24,0,0,1,0-.47Z"/><path class="pt_cls-3" d="M57.8,49.61H52.55a.49.49,0,0,1,0-1H57.8a.49.49,0,0,1,0,1Z"/><path class="pt_cls-3" d="M55,46.91a.15.15,0,1,1,.29,0v.52H55v-.52Z"/><path class="pt_cls-3" d="M56.82,47.66a.14.14,0,1,1,.28,0v.4h-.28v-.4Z"/><path class="pt_cls-3" d="M53.23,47.67a.14.14,0,1,1,.28,0v.4h-.28v-.4Z"/><path class="pt_cls-4" d="M23.57,60.93H24v.29h.3v-.3h.43v.3H25v-.3h.43v.68a.18.18,0,0,1-.19.18H23.77a.19.19,0,0,1-.19-.18v-.67Z"/><path class="pt_cls-3" d="M25.25,62H23.77a.42.42,0,0,1-.42-.41v-.9h2.33v.91A.41.41,0,0,1,25.25,62Zm-1.45-.46h1.41v-.09H23.8Z"/><polygon class="pt_cls-4" points="25.13 61.84 25.23 64.02 23.77 64.01 23.87 61.84 25.13 61.84 25.13 61.84"/><path class="pt_cls-3" d="M25.48,64.27h-2l.12-2.67h1.74ZM24,63.76H25l-.07-1.68h-.79Z"/><path class="pt_cls-4" d="M25.38,62h.4v.29h.29V62h.42v.3h.3V62h.42v.68a.18.18,0,0,1-.18.18H25.56a.19.19,0,0,1-.19-.18V62Z"/><path class="pt_cls-3" d="M27,63.08H25.56a.42.42,0,0,1-.42-.41v-.91h2.3v.91A.41.41,0,0,1,27,63.08Zm-1.41-.47H27v-.08H25.61Z"/><polygon class="pt_cls-4" points="26.94 62.85 26.98 64.02 25.59 64.02 25.63 62.85 26.94 62.85 26.94 62.85"/><path class="pt_cls-3" d="M27.23,64.25H25.35l.06-1.64h1.76Zm-1.4-.46h.91l0-.71h-.86Z"/><path class="pt_cls-4" d="M21.8,62h.4v.3h.29V62h.41v.3h.29V62h.42v.68a.17.17,0,0,1-.18.18H22a.19.19,0,0,1-.19-.18V62Z"/><path class="pt_cls-3" d="M23.44,63.08H22a.42.42,0,0,1-.42-.41v-.91h2.3v.91A.41.41,0,0,1,23.44,63.08ZM22,62.61h1.36v-.08H22Z"/><polygon class="pt_cls-4" points="23.36 62.85 23.4 64.02 22.01 64.02 22.05 62.85 23.36 62.85 23.36 62.85"/><path class="pt_cls-3" d="M23.65,64.25H21.77l.05-1.64h1.76Zm-1.39-.46h.91l0-.71h-.86Z"/><path class="pt_cls-4" d="M23.11,67.19a2.34,2.34,0,0,1,1.38-2.31,2.31,2.31,0,0,1,1.43,2.33l-2.8,0Z"/><path class="pt_cls-4" d="M22,64.92l-.23,2.14h1.4A1.91,1.91,0,0,1,24.51,65a2.06,2.06,0,0,1,1.38,2.06h1.4L27,64.9Z"/><path class="pt_cls-3" d="M23.38,67.31H21.46l.26-2.66.25,0h5.29l.31,2.65H25.64v-.24a1.84,1.84,0,0,0-1.14-1.81,1.7,1.7,0,0,0-1.11,1.8Zm2.74-.5H27l-.19-1.66H25.28A2.37,2.37,0,0,1,26.12,66.81Zm-4.11,0h.88a2.3,2.3,0,0,1,.77-1.65H22.19Z"/><path class="pt_cls-4" d="M21.64,67.07h5.72a.27.27,0,0,1,0,.53H21.64a.27.27,0,0,1,0-.53Z"/><path class="pt_cls-3" d="M27.36,67.84H21.64a.51.51,0,0,1,0-1h5.72a.51.51,0,0,1,0,1Z"/><path class="pt_cls-4" d="M23.72,67.06a1.48,1.48,0,0,1,.77-1.44,1.5,1.5,0,0,1,.8,1.44H23.72Z"/><path class="pt_cls-3" d="M25.53,67.3H23.48v-.25a1.62,1.62,0,0,1,1-1.68,1.68,1.68,0,0,1,1,1.68ZM24,66.81h1a1.25,1.25,0,0,0-.54-.91A1.23,1.23,0,0,0,24,66.81Z"/><path class="pt_cls-4" d="M21.76,64h5.48a.22.22,0,0,1,.21.24.23.23,0,0,1-.21.24H21.76a.23.23,0,0,1-.21-.24.22.22,0,0,1,.21-.24Z"/><path class="pt_cls-3" d="M27.24,64.75H21.76a.49.49,0,0,1,0-1h5.48a.49.49,0,0,1,0,1Z"/><path class="pt_cls-4" d="M21.88,64.5h5.24a.24.24,0,0,1,0,.47H21.88a.24.24,0,0,1,0-.47Z"/><path class="pt_cls-3" d="M27.12,65.23H21.88a.49.49,0,0,1,0-1h5.24a.49.49,0,0,1,0,1Z"/><path class="pt_cls-3" d="M24.36,62.53a.15.15,0,1,1,.29,0V63h-.29v-.52Z"/><path class="pt_cls-3" d="M26.15,63.28a.14.14,0,1,1,.28,0v.4h-.28v-.4Z"/><path class="pt_cls-3" d="M22.56,63.28a.14.14,0,1,1,.28,0v.4h-.28v-.4Z"/><path class="pt_cls-4" d="M53.35,77.42l.29.29-.21.21.21.21.21-.21.3.3-.21.21.21.21.21-.21.3.3-.48.48a.18.18,0,0,1-.26,0l-1.05-1.05a.19.19,0,0,1,0-.26l.47-.47Z"/><path class="pt_cls-3" d="M54.07,79.52a.44.44,0,0,1-.31-.13l-1.05-1.05a.44.44,0,0,1,0-.61l.66-.66.51.51h0l.51.52h0l.65.66-.66.66A.43.43,0,0,1,54.07,79.52Zm-1-1.5,1,1,0,0-.46-.46h0l-.5-.51Z"/><polygon class="pt_cls-4" points="53.81 79.16 52.34 80.77 51.31 79.74 52.92 78.27 53.81 79.16 53.81 79.16"/><path class="pt_cls-3" d="M52.34,81.13l-1.4-1.41,2-1.81,1.23,1.24Zm-.67-1.39.65.66,1.13-1.23-.55-.55Z"/><path class="pt_cls-4" d="M53.87,79.44l.29.29-.21.21.21.21.21-.21.29.29-.21.21.21.21.21-.21.29.29-.48.48a.17.17,0,0,1-.25,0l-1-1a.19.19,0,0,1,0-.26l.47-.48Z"/><path class="pt_cls-3" d="M54.56,81.52a.44.44,0,0,1-.31-.13l-1-1a.44.44,0,0,1,0-.61l.54-.55H54l.39.4h0l.5.5h0l.15.15h0l.5.5-.66.65A.41.41,0,0,1,54.56,81.52ZM53.62,80l.94.94,0,0-.44-.44h0l-.49-.5Z"/><polygon class="pt_cls-4" points="54.38 81.15 53.58 82.01 52.59 81.03 53.45 80.23 54.38 81.15 54.38 81.15"/><path class="pt_cls-3" d="M53.58,82.38,52.23,81l1.23-1.15,1.27,1.27ZM53,81l.62.62.46-.49-.58-.58Z"/><path class="pt_cls-4" d="M51.33,76.92l.29.29-.21.21.21.21.21-.21.29.3-.21.21.21.21.21-.21.29.29-.48.48a.18.18,0,0,1-.25,0l-1-1a.19.19,0,0,1,0-.26l.47-.47Z"/><path class="pt_cls-3" d="M52,79a.43.43,0,0,1-.31-.13l-1-1a.44.44,0,0,1,0-.61l.65-.65.5.5h0l.5.51h0l.65.65-.66.66A.42.42,0,0,1,52,79Zm-.94-1.47.94.94,0,0L51.62,78h0l-.5-.5Z"/><polygon class="pt_cls-4" points="51.84 78.62 51.04 79.48 50.06 78.5 50.92 77.7 51.84 78.62 51.84 78.62"/><path class="pt_cls-3" d="M51,79.85,49.7,78.49l1.22-1.15,1.27,1.27Zm-.63-1.34.62.62.46-.49L50.91,78Z"/><path class="pt_cls-4" d="M48.59,81.52a2.34,2.34,0,0,1,2.61-.66,2.31,2.31,0,0,1-.64,2.65l-2-2Z"/><path class="pt_cls-4" d="M49.39,79.1l-1.68,1.35,1,1A1.9,1.9,0,0,1,51.13,81a2.05,2.05,0,0,1-.48,2.43l1,1L53,82.68,49.39,79.1Z"/><path class="pt_cls-3" d="M51.67,84.75,50.3,83.39l.17-.18a1.85,1.85,0,0,0,.47-2.09,1.46,1.46,0,0,0-.68-.16,2,2,0,0,0-1.38.65l-.18.17-1.36-1.36,2.07-1.66,3.91,3.89ZM51,83.38l.63.63,1-1.31-1.08-1.07A2.38,2.38,0,0,1,51,83.38Zm-2.9-2.91.62.62a2.27,2.27,0,0,1,1.71-.62l-1-1Z"/><path class="pt_cls-4" d="M47.64,80.39l4,4a.27.27,0,0,1-.38.37l-4-4a.27.27,0,0,1,.37-.37Z"/><path class="pt_cls-3" d="M51.46,85.12a.45.45,0,0,1-.32-.13l-4-4a.5.5,0,0,1,0-.7.51.51,0,0,1,.7,0l4,4a.5.5,0,0,1,0,.7A.54.54,0,0,1,51.46,85.12Z"/><path class="pt_cls-4" d="M49.12,81.85a1.47,1.47,0,0,1,1.56-.47A1.5,1.5,0,0,1,50.23,83l-1.11-1.11Z"/><path class="pt_cls-3" d="M50.23,83.31l-1.46-1.46.18-.18a1.65,1.65,0,0,1,1.84-.52l.08,0,0,.09a1.74,1.74,0,0,1-.5,1.85Zm-.74-1.45.73.73a1.26,1.26,0,0,0,.26-1A1.25,1.25,0,0,0,49.49,81.87Z"/><path class="pt_cls-4" d="M49.88,78.33l3.88,3.88a.24.24,0,0,1-.34.34l-3.87-3.87a.23.23,0,0,1,0-.32.23.23,0,0,1,.32,0Z"/><path class="pt_cls-3" d="M53.56,82.85a.44.44,0,0,1-.32-.13l-3.87-3.87a.44.44,0,0,1-.13-.31.5.5,0,0,1,.15-.35.49.49,0,0,1,.67,0L53.93,82a.44.44,0,0,1,.13.32.51.51,0,0,1-.5.5Z"/><path class="pt_cls-4" d="M49.62,78.75l3.71,3.71a.24.24,0,0,1-.34.34l-3.71-3.71a.22.22,0,0,1,0-.31.22.22,0,0,1,.31,0Z"/><path class="pt_cls-3" d="M53.13,83.09a.44.44,0,0,1-.31-.12l-3.71-3.71A.43.43,0,0,1,49,79a.51.51,0,0,1,.16-.36.48.48,0,0,1,.66,0l.07.07,3.64,3.63a.47.47,0,0,1,0,.66A.51.51,0,0,1,53.13,83.09Z"/><path class="pt_cls-3" d="M52.77,79.06a.15.15,0,1,1,.21.21l-.37.37-.21-.21.37-.37Z"/><path class="pt_cls-3" d="M53.51,80.86a.14.14,0,1,1,.2.2l-.28.29-.2-.2.29-.28Z"/><path class="pt_cls-3" d="M51,78.32a.14.14,0,1,1,.2.2l-.28.28-.2-.2.28-.28Z"/><path class="pt_cls-4" d="M54.22,60.93h.41v.29h.3v-.3h.43v.3h.3v-.3h.42v.68a.17.17,0,0,1-.18.18H54.42a.19.19,0,0,1-.19-.18v-.67Z"/><path class="pt_cls-3" d="M55.9,62H54.42a.44.44,0,0,1-.44-.43v-.92h2.37v.93A.43.43,0,0,1,55.9,62Zm-1.43-.5h1.37v-.05H54.47Z"/><polygon class="pt_cls-4" points="55.78 61.85 55.88 64.02 54.42 64.02 54.52 61.84 55.78 61.85 55.78 61.85"/><path class="pt_cls-3" d="M56.14,64.27h-2l.12-2.68H56Zm-1.45-.5h.93l-.07-1.68h-.79Z"/><path class="pt_cls-4" d="M56,62h.4v.3h.3V62h.41v.3h.3V62h.41v.68a.18.18,0,0,1-.18.18H56.21a.19.19,0,0,1-.19-.18V62Z"/><path class="pt_cls-3" d="M57.67,63.1H56.21a.44.44,0,0,1-.44-.43v-.92H58.1v.93A.43.43,0,0,1,57.67,63.1Zm-1.39-.5H57.6v-.05H56.27Z"/><polygon class="pt_cls-4" points="57.59 62.85 57.64 64.02 56.24 64.02 56.28 62.85 57.59 62.85 57.59 62.85"/><path class="pt_cls-3" d="M57.9,64.27H56L56,62.6h1.79Zm-1.39-.5h.87l0-.67h-.82Z"/><path class="pt_cls-4" d="M52.45,62h.4v.29h.29V62h.42v.3h.3V62h.41v.68a.17.17,0,0,1-.18.17H52.64a.19.19,0,0,1-.19-.18V62Z"/><path class="pt_cls-3" d="M54.09,63.1H52.64a.43.43,0,0,1-.44-.43v-.92h2.33v.93A.42.42,0,0,1,54.09,63.1Zm-1.4-.5H54v-.05H52.7Z"/><polygon class="pt_cls-4" points="54.01 62.85 54.05 64.03 52.66 64.03 52.7 62.85 54.01 62.85 54.01 62.85"/><path class="pt_cls-3" d="M54.31,64.28H52.41l.05-1.68h1.79Zm-1.39-.5h.87l0-.67h-.82Z"/><path class="pt_cls-4" d="M53.76,67.2a2.35,2.35,0,0,1,1.38-2.31,2.31,2.31,0,0,1,1.42,2.33l-2.8,0Z"/><path class="pt_cls-4" d="M52.62,64.92l-.23,2.14h1.4A1.91,1.91,0,0,1,55.16,65a2.07,2.07,0,0,1,1.38,2.06h1.4l-.26-2.16Z"/><path class="pt_cls-3" d="M54,67.31H52.11l.28-2.64h5.51l.31,2.66H56.29v-.24a1.85,1.85,0,0,0-1.14-1.81A1.71,1.71,0,0,0,54,67.06Zm2.74-.5h.88l-.2-1.66H55.94A2.38,2.38,0,0,1,56.77,66.81Zm-4.11,0h.88a2.32,2.32,0,0,1,.77-1.65H52.84Z"/><path class="pt_cls-4" d="M52.29,67.07H58a.27.27,0,0,1,0,.53H52.29a.27.27,0,0,1,0-.53Z"/><path class="pt_cls-3" d="M58,67.85H52.29a.52.52,0,0,1,0-1H58a.52.52,0,0,1,0,1Z"/><path class="pt_cls-4" d="M54.37,67.06a1.47,1.47,0,0,1,.77-1.43,1.49,1.49,0,0,1,.8,1.43Z"/><path class="pt_cls-3" d="M56.19,67.31H54.12v-.25a1.62,1.62,0,0,1,1-1.68,1.67,1.67,0,0,1,1,1.68Zm-1.55-.5h1a1.24,1.24,0,0,0-.53-.9A1.25,1.25,0,0,0,54.64,66.81Z"/><path class="pt_cls-4" d="M52.41,64h5.48a.24.24,0,0,1,0,.47H52.41a.24.24,0,0,1,0-.47Z"/><path class="pt_cls-3" d="M57.89,64.76H52.41a.49.49,0,0,1,0-1h5.48a.49.49,0,0,1,0,1Z"/><path class="pt_cls-4" d="M52.53,64.51h5.24a.24.24,0,0,1,0,.48H52.53a.24.24,0,0,1,0-.48Z"/><path class="pt_cls-3" d="M57.77,65.23H52.53a.49.49,0,0,1,0-1h5.24a.49.49,0,0,1,0,1Z"/><path class="pt_cls-3" d="M55,62.53a.15.15,0,1,1,.29,0V63H55v-.52Z"/><path class="pt_cls-3" d="M56.8,63.28a.14.14,0,1,1,.28,0v.4H56.8v-.4Z"/><path class="pt_cls-3" d="M53.21,63.28a.14.14,0,1,1,.28,0v.4h-.28v-.4Z"/><path class="pt_cls-4" d="M25.09,78.71l.29-.29.21.21.21-.21-.21-.21.3-.3.21.21.21-.22-.21-.21.3-.3.48.48a.17.17,0,0,1,0,.26l-1.05,1.05a.19.19,0,0,1-.26,0l-.47-.47Z"/><path class="pt_cls-3" d="M25.68,79.48a.42.42,0,0,1-.3-.12l-.65-.65.51-.51h0L26.4,77l.66.66a.42.42,0,0,1,.13.3.44.44,0,0,1-.13.31L26,79.35A.44.44,0,0,1,25.68,79.48Zm0-.56,0,0,1-1,0,0-.51.52h0Z"/><polygon class="pt_cls-4" points="26.83 78.25 28.44 79.72 27.4 80.75 25.94 79.14 26.83 78.25 26.83 78.25"/><path class="pt_cls-3" d="M27.4,81.11l-1.81-2,1.23-1.23,2,1.81Zm-1.11-2,1.13,1.24.66-.66L26.84,78.6Z"/><path class="pt_cls-4" d="M27.11,78.19l.29-.29.21.21.21-.21-.21-.21.29-.29.21.21.21-.21-.21-.21.29-.29.48.48a.17.17,0,0,1,0,.25l-1,1a.19.19,0,0,1-.26,0l-.47-.47Z"/><path class="pt_cls-3" d="M27.71,79a.42.42,0,0,1-.3-.12l-.65-.65.5-.5h0l.5-.5h0l.65-.65.66.66a.42.42,0,0,1,.12.3.44.44,0,0,1-.13.31l-1,1A.44.44,0,0,1,27.71,79Zm0-.56,0,0,.94-.94,0,0-.45.44h0Z"/><polygon class="pt_cls-4" points="28.82 77.69 29.68 78.48 28.7 79.47 27.89 78.61 28.82 77.69 28.82 77.69"/><path class="pt_cls-3" d="M28.69,79.83l-1.15-1.22,1.27-1.27L30,78.48Zm-.45-1.21.46.49.62-.62L28.82,78Z"/><path class="pt_cls-4" d="M24.58,80.72l.29-.29.21.21.21-.21-.21-.21.29-.29.21.21.21-.21-.21-.21.29-.29.48.48a.17.17,0,0,1,0,.25l-1,1a.19.19,0,0,1-.26,0l-.47-.47Z"/><path class="pt_cls-3" d="M25.18,81.5a.41.41,0,0,1-.3-.12l-.65-.65.5-.5h0l.51-.5h0l.65-.65.66.66a.42.42,0,0,1,.12.3.44.44,0,0,1-.13.31l-1,1A.45.45,0,0,1,25.18,81.5Zm0-.56,0,0,.94-.94,0,0-.5.5h0Z"/><polygon class="pt_cls-4" points="26.29 80.22 27.15 81.02 26.17 82 25.36 81.14 26.29 80.22 26.29 80.22"/><path class="pt_cls-3" d="M26.16,82.36,25,81.14l1.27-1.27L27.51,81Zm-.45-1.21.46.49.62-.62-.5-.46Z"/><path class="pt_cls-4" d="M29.18,83.47a2.34,2.34,0,0,1-.66-2.61,2.31,2.31,0,0,1,2.65.64l-2,2Z"/><path class="pt_cls-4" d="M26.77,82.67l1.35,1.68,1-1a1.9,1.9,0,0,1-.48-2.43,2.06,2.06,0,0,1,2.43.48l1-1-1.71-1.35-3.58,3.59Z"/><path class="pt_cls-3" d="M28.1,84.72l-1.67-2.07,3.89-3.91,2.1,1.66-1.36,1.36-.18-.17A2,2,0,0,0,29.49,81a1.69,1.69,0,0,0-.69.14,1.7,1.7,0,0,0,.49,2.06l.17.18Zm-1-2,1,1.29.62-.62a2.31,2.31,0,0,1-.62-1.71Zm2.39-2.21a2.44,2.44,0,0,1,1.56.59l.63-.63-1.31-1-1.07,1.08Z"/><path class="pt_cls-4" d="M28.06,84.42l4-4a.27.27,0,0,1,.37.38l-4,4a.27.27,0,0,1-.37-.37Z"/><path class="pt_cls-3" d="M28.29,85.09a.54.54,0,0,1-.38-.16.5.5,0,0,1,0-.69l4-4a.51.51,0,0,1,.69,0,.5.5,0,0,1,0,.7l-4,4A.45.45,0,0,1,28.29,85.09Zm4-4.52-4.06,4h0Z"/><path class="pt_cls-4" d="M29.52,82.94a1.48,1.48,0,0,1-.47-1.56,1.5,1.5,0,0,1,1.58.45l-1.11,1.11Z"/><path class="pt_cls-3" d="M29.52,83.29l-.18-.18a1.63,1.63,0,0,1-.47-1.91l.08-.05a1.65,1.65,0,0,1,1.85.5l.18.18Zm-.27-1.71a1.24,1.24,0,0,0,.28,1l.73-.73A1.23,1.23,0,0,0,29.25,81.58Z"/><path class="pt_cls-4" d="M26,82.18l3.87-3.88a.24.24,0,0,1,.34.34l-3.87,3.88a.23.23,0,0,1-.32,0,.23.23,0,0,1,0-.32Z"/><path class="pt_cls-3" d="M26.19,82.82a.5.5,0,0,1-.35-.15.49.49,0,0,1-.15-.35.44.44,0,0,1,.13-.32l3.87-3.88a.49.49,0,0,1,.67,0,.48.48,0,0,1,0,.67L26.51,82.7A.45.45,0,0,1,26.19,82.82Z"/><path class="pt_cls-4" d="M26.41,82.44l3.71-3.71a.24.24,0,0,1,.34.33l-3.71,3.71a.24.24,0,0,1-.34-.34Z"/><path class="pt_cls-3" d="M26.62,83.07a.51.51,0,0,1-.36-.15.47.47,0,0,1,0-.66l3.71-3.71a.48.48,0,0,1,.66,0,.51.51,0,0,1,.15.36.42.42,0,0,1-.13.31l-3.7,3.7A.43.43,0,0,1,26.62,83.07Z"/><path class="pt_cls-3" d="M26.77,79.24A.15.15,0,1,1,27,79l.37.37-.21.21-.37-.37Z"/><path class="pt_cls-3" d="M28.57,78.5a.14.14,0,1,1,.2-.2l.29.28-.2.2-.29-.29Z"/><path class="pt_cls-3" d="M26,81a.14.14,0,1,1,.2-.2l.28.28-.2.2L26,81Z"/></g></g></svg>
