<svg xmlns="http://www.w3.org/2000/svg" viewBox="0 0 200 134"><defs><style>.sc_cls-1{fill:#1e4384;}.sc_cls-2{fill:#fdd856;}.sc_cls-3{fill:#d62d2b;}.sc_cls-4{fill:#fafafa;}.sc_cls-5{fill:#197b49;}</style></defs><title>Asset 61</title><g id="Layer_2" data-name="Layer 2"><g id="Layer_40" data-name="Layer 40"><path class="sc_cls-1" d="M89.46,0H17A17,17,0,0,0,0,17V117a16.92,16.92,0,0,0,4.09,11Z"/><path class="sc_cls-2" d="M5.84,129.8,178.91,0H89.46L4.09,128A17.06,17.06,0,0,0,5.84,129.8Z"/><path class="sc_cls-3" d="M8.12,131.48,200,67.52V17A17,17,0,0,0,183,0h-4.09L5.84,129.8A17,17,0,0,0,8.12,131.48Z"/><path class="sc_cls-4" d="M10.06,132.51,200,100.85V67.52l-191.88,64A17.12,17.12,0,0,0,10.06,132.51Z"/><path class="sc_cls-5" d="M17,134H183a17,17,0,0,0,17-17V100.85L10.06,132.51A16.93,16.93,0,0,0,17,134Z"/></g></g></svg>
