<svg xmlns="http://www.w3.org/2000/svg" viewBox="0 0 200 134"><defs><style>.sg_cls-1{fill:#fafafa;}.sg_cls-2{fill:#fff;}.sg_cls-3{fill:#ee2f43;}</style></defs><title>Asset 54</title><g id="Layer_2" data-name="Layer 2"><g id="Layer_47" data-name="Layer 47"><path class="sg_cls-1" d="M0,117a17,17,0,0,0,17,17H183a17,17,0,0,0,17-17V67H0Z"/><path class="sg_cls-2" d="M28.19,33.21A27.22,27.22,0,0,1,43.72,8.62a24.88,24.88,0,1,0-3.8,49.46,25.09,25.09,0,0,0,3.8-.29A27.22,27.22,0,0,1,28.19,33.21Z"/><path class="sg_cls-3" d="M183,0H17A17,17,0,0,0,0,17V67H200V17A17,17,0,0,0,183,0ZM73.85,33.66l-3.72-2.89-3.7,2.93,1.47-4.61-3.8-2.79,4.63,0,1.35-4.65,1.4,4.64,4.63-.09-3.77,2.83ZM51.38,49.95l-3.73-2.89L44,50l1.47-4.62-3.8-2.79,4.64,0L47.62,38,49,42.61l4.63-.09-3.77,2.83Zm-15-23.65,4.63,0,1.35-4.65,1.39,4.64,4.63-.09-3.77,2.83,1.51,4.6-3.72-2.89-3.7,2.93,1.47-4.61Zm16.17-3L54,18.72l-3.8-2.79,4.63,0,1.35-4.65L57.63,16l4.63-.09L58.49,18.7,60,23.3l-3.73-2.89ZM68.69,49.95,65,47.05,61.26,50l1.47-4.62-3.8-2.79,4.63,0L64.92,38l1.39,4.64,4.63-.09-3.77,2.83ZM39.92,58.08a24.88,24.88,0,1,1,3.8-49.46,27.23,27.23,0,0,0,0,49.17A25.09,25.09,0,0,1,39.92,58.08Z"/><polygon class="sg_cls-2" points="42.43 30.77 46.16 33.66 44.65 29.06 48.42 26.23 43.78 26.32 42.39 21.68 41.04 26.33 36.4 26.29 40.2 29.08 38.73 33.7 42.43 30.77"/><polygon class="sg_cls-2" points="50.25 15.93 54.05 18.72 52.58 23.34 56.28 20.41 60 23.3 58.49 18.7 62.27 15.88 57.63 15.96 56.24 11.32 54.88 15.97 50.25 15.93"/><polygon class="sg_cls-2" points="70.08 21.68 68.73 26.33 64.1 26.29 67.89 29.08 66.42 33.7 70.13 30.77 73.85 33.66 72.34 29.06 76.11 26.23 71.48 26.32 70.08 21.68"/><polygon class="sg_cls-2" points="43.95 49.98 47.66 47.05 51.38 49.95 49.87 45.35 53.64 42.52 49.01 42.61 47.62 37.97 46.26 42.62 41.63 42.58 45.42 45.37 43.95 49.98"/><polygon class="sg_cls-2" points="66.31 42.61 64.92 37.97 63.57 42.62 58.93 42.58 62.73 45.37 61.26 49.98 64.96 47.05 68.69 49.95 67.18 45.35 70.95 42.52 66.31 42.61"/></g></g></svg>
