<svg xmlns="http://www.w3.org/2000/svg" viewBox="0 0 200 134"><defs><style>.so_cls-1{fill:#4d86c5;}.so_cls-2{fill:#fff;}</style></defs><title>Asset 65</title><g id="Layer_2" data-name="Layer 2"><g id="Layer_36" data-name="Layer 36"><path class="so_cls-1" d="M183,0H17A17,17,0,0,0,0,17V117a17,17,0,0,0,17,17H183a17,17,0,0,0,17-17V17A17,17,0,0,0,183,0ZM114.61,89.49,100,78.87,85.39,89.49,91,72.31,76.36,61.69H94.42L100,44.52l5.58,17.18h18.06L109,72.31Z"/><polygon class="so_cls-2" points="105.58 61.69 100 44.52 94.42 61.69 76.36 61.69 90.97 72.31 85.39 89.49 100 78.87 114.61 89.49 109.03 72.31 123.64 61.69 105.58 61.69"/></g></g></svg>
