<svg xmlns="http://www.w3.org/2000/svg" viewBox="0 0 200 134"><defs><style>.sr_cls-1{fill:#177341;}.sr_cls-2{fill:#fafafa;}.sr_cls-3{fill:#d32a40;}.sr_cls-4{fill:#fed733;}</style></defs><title>Asset 72</title><g id="Layer_2" data-name="Layer 2"><g id="Layer_29" data-name="Layer 29"><path class="sr_cls-1" d="M183,0H17A17,17,0,0,0,0,17v9.57H200V17A17,17,0,0,0,183,0Z"/><path class="sr_cls-1" d="M0,117a17,17,0,0,0,17,17H183a17,17,0,0,0,17-17v-9.57H0Z"/><rect class="sr_cls-2" y="26.57" width="200" height="13.48"/><rect class="sr_cls-2" y="93.95" width="200" height="13.48"/><path class="sr_cls-3" d="M0,94H200V40H0ZM100,41.68l6.21,19.18,20.16,0L110.05,72.71l6.21,19.18L100,80,83.64,91.87,89.89,72.7,73.59,60.83l20.16,0Z"/><polygon class="sr_cls-4" points="89.89 72.7 83.64 91.87 99.97 80.03 116.27 91.89 110.06 72.71 126.38 60.88 106.22 60.86 100 41.68 93.75 60.85 73.59 60.83 89.89 72.7"/></g></g></svg>
