<svg xmlns="http://www.w3.org/2000/svg" viewBox="0 0 200 134"><defs><style>.st_cls-1{fill:#23ad50;}.st_cls-2{fill:#fed733;}.st_cls-3{fill:#121212;}.st_cls-4{fill:#d32a40;}</style></defs><title>Asset 58</title><g id="Layer_2" data-name="Layer 2"><g id="Layer_43" data-name="Layer 43"><path class="st_cls-1" d="M4.26,128.23A16.93,16.93,0,0,0,17,134H183a17,17,0,0,0,17-17V95.94H31.19Z"/><path class="st_cls-1" d="M183,0H17A16.93,16.93,0,0,0,4.26,5.77L31.19,38.06H200V17A17,17,0,0,0,183,0Z"/><path class="st_cls-2" d="M55.33,67,31.19,95.94H200V38.06H31.19ZM171.59,47.71,175.92,61h14L178.6,69.28l4.33,13.33-11.34-8.24-11.34,8.24,4.33-13.33L153.24,61h14Zm-67.53,0L108.39,61h14l-11.34,8.24,4.33,13.33-11.34-8.24L92.72,82.61,97,69.28,85.71,61h14Z"/><polygon class="st_cls-3" points="97.05 69.28 92.72 82.61 104.06 74.37 115.4 82.61 111.07 69.28 122.41 61.04 108.39 61.04 104.06 47.71 99.73 61.04 85.71 61.04 97.05 69.28"/><polygon class="st_cls-3" points="164.58 69.28 160.25 82.61 171.59 74.37 182.93 82.61 178.6 69.28 189.94 61.04 175.92 61.04 171.59 47.71 167.26 61.04 153.24 61.04 164.58 69.28"/><path class="st_cls-4" d="M55.33,67,31.19,38.06,4.26,5.77A16.92,16.92,0,0,0,0,17V117a16.92,16.92,0,0,0,4.26,11.23L31.19,95.94Z"/></g></g></svg>
