<svg xmlns="http://www.w3.org/2000/svg" viewBox="0 0 200 134"><defs><style>.sv_cls-1{fill:#fff;}.sv_cls-2{fill:#283890;}.sv_cls-3{fill:#246130;}.sv_cls-4{fill:#e41e26;}.sv_cls-5{fill:#ffcd05;}.sv_cls-6{fill:#037e93;}.sv_cls-7{fill:#010101;}.sv_cls-8{fill:#0b1723;}.sv_cls-9{fill:#081e32;}.sv_cls-10{fill:#fdd2b3;}.sv_cls-11{fill:#fde5ce;}</style></defs><title>Asset 54</title><g id="Layer_2" data-name="Layer 2"><g id="Layer_47" data-name="Layer 47"><path class="sv_cls-1" d="M98.22,79.48l.08.08Z"/><path class="sv_cls-1" d="M106.69,57.66l2-2.25a.12.12,0,0,0,0,0L104,60.74h0l1-1.14Z"/><path class="sv_cls-1" d="M97.45,81.28h0Z"/><path class="sv_cls-1" d="M88.75,73.93a1.91,1.91,0,0,1,0,.63,2.69,2.69,0,0,1-.52.8.75.75,0,0,0-.14.36,5.59,5.59,0,0,0,1.37,1.4.35.35,0,0,1,0-.1,2.11,2.11,0,0,1-.14-.66,4,4,0,0,1,.21-.83c.1-.25.34-.83.59-.94l.27.9a2.11,2.11,0,0,0,.25.66,2.9,2.9,0,0,1,.16.27,2,2,0,0,0,0-.47c0-.46.69-1.19.69-1.19A2.49,2.49,0,0,0,91.79,76a2.54,2.54,0,0,1,.38,1,1.21,1.21,0,0,0,.28.66c.22.3,0,1.57,0,1.57h-.07c.48.3,1,.6,1.46.83l.45.2-.09-.08c-.64-.68-.58-1-.69-1.08s.29-.09.59-.06c-.17-.26-.41-.62-.58-.93s1.12.08,1.12.08l.34.13a5.51,5.51,0,0,1-.21-.88c0-.1.53.07,1,.25a6.4,6.4,0,0,1,.88.63c.37.24.42.84.59,1.12a1.48,1.48,0,0,1,.27.82c0,.31.17.41.27.67a.49.49,0,0,0,.2.23c0-.21-.09-.47-.13-.8-.1-.9.12-1,.24-1s0-.06.52-.12a.91.91,0,0,1,.95.39,12,12,0,0,1,.45,1.43l0,0a.36.36,0,0,1,.14.07.21.21,0,0,1,.09.08l-.07-.1s.11-1.5.31-1.57.84-.42,1.22-.11a.92.92,0,0,1,.17.69s0,0,0,0v0a.16.16,0,0,0,0,0q0,.09,0,.19a4.89,4.89,0,0,1-.13.71.47.47,0,0,0,.19-.22c.1-.26.28-.36.27-.67a1.47,1.47,0,0,1,.27-.82c.17-.28.22-.88.59-1.12a5.75,5.75,0,0,1,.88-.63c.42-.18.94-.35,1-.25a6.58,6.58,0,0,1-.21.88l.34-.13s1.26-.33,1.12-.08-.39.67-.57.93c.29,0,.8,0,.59.06s-.06.39-.69,1.08l-.09.08.45-.2c.47-.24,1-.53,1.47-.83h-.07s-.26-1.26,0-1.57a1.37,1.37,0,0,0,.28-.66,2.54,2.54,0,0,1,.38-1,2.49,2.49,0,0,0,.35-1.19s.73.72.69,1.19a1.82,1.82,0,0,0,0,.46,3,3,0,0,1,.15-.26,2.35,2.35,0,0,0,.24-.66c.07-.24.28-.9.28-.9.24.11.49.69.59.94a4.09,4.09,0,0,1,.21.83,2.58,2.58,0,0,1-.14.66.35.35,0,0,1,0,.1,5.61,5.61,0,0,0,1.37-1.4.72.72,0,0,0-.15-.36,2.73,2.73,0,0,1-.52-.8,1.91,1.91,0,0,1,0-.63,5.83,5.83,0,0,0-.1-.62v0h-.86a8.42,8.42,0,0,0-1.12.67c-.05.05-.3.17-.36.21-.4.28-1.3.39-1.71.68a3.37,3.37,0,0,1-1.18.32,7,7,0,0,1-2-.07,5.74,5.74,0,0,0-.56-.14c-.13,0-.42-.13-.55-.16-.28-.07-.08-.05-.45-.16a7.54,7.54,0,0,0-1-.27c-.09,0-.16-.09-.25-.15l-.18-.14.07.06s.08.07.1.11l.07.12a.52.52,0,0,1,.07.13c0,.09.1.17.14.26l.12.27a1.13,1.13,0,0,1,.06.18.56.56,0,0,1,0,.29.54.54,0,0,1-.29.26l0,0c-.06,0-.13,0-.19.05a.41.41,0,0,0-.11.12s0,0-.07,0a.71.71,0,0,1-.25.06h0a.53.53,0,0,0,0-.13.46.46,0,0,1-.09.19c0,.05-.21.05-.3.11s-.06.05-.09.05-.05,0-.08-.05-.26-.06-.3-.11a.45.45,0,0,1-.09-.19.53.53,0,0,0,0,.13h0a.85.85,0,0,1-.26-.06A.14.14,0,0,1,99,76a.33.33,0,0,0-.11-.12c-.05,0-.12,0-.18-.05s0,0-.05,0a.51.51,0,0,1-.28-.26.54.54,0,0,1,0-.29,1,1,0,0,1,.06-.18l.12-.27a2.84,2.84,0,0,1,.14-.26.46.46,0,0,1,.07-.13.93.93,0,0,1,.07-.12s.07-.07.1-.11l.07-.06-.19.14a.62.62,0,0,1-.25.15,7.33,7.33,0,0,0-1,.27c-.37.11-.17.09-.45.16s-.42.14-.56.16-.29.08-.55.14a7.05,7.05,0,0,1-2,.07,3.36,3.36,0,0,1-1.16-.32c-.41-.29-1.32-.4-1.72-.68a4,4,0,0,1-.36-.21,9.39,9.39,0,0,0-1.11-.67h-.87v0A5.83,5.83,0,0,0,88.75,73.93Zm21.92,1.27a.21.21,0,0,1,.21.21.22.22,0,0,1-.21.21.21.21,0,0,1-.21-.21A.21.21,0,0,1,110.67,75.19Zm-3.94,3.14a.2.2,0,0,1,.2.2.2.2,0,0,1-.2.21.21.21,0,0,1-.21-.21A.2.2,0,0,1,106.74,78.34Zm-13.4-1.69c0-.09,0-.21.12-.31a2,2,0,0,1,1.37-.63c.69,0,.42,0,1,.25a9,9,0,0,0,4,1h0a8.57,8.57,0,0,0,3.92-1c.59-.25.31-.25,1-.25a1.94,1.94,0,0,1,1.36.63c.13.1.11.22.13.31a.4.4,0,0,1-.06.3c-.07.06-.24,0-.24,0l-1.12-.21.1-.07a10,10,0,0,1-2.82,1.25,7.14,7.14,0,0,1-4.67,0,10.11,10.11,0,0,1-2.83-1.26l.11.07L93.63,77h0s-.18.05-.24,0A.39.39,0,0,1,93.33,76.65Zm-.46,1.69a.2.2,0,0,1,.21.2.21.21,0,0,1-.21.21.21.21,0,1,1,0-.41ZM89.14,75.4a.22.22,0,0,1-.21.21.21.21,0,0,1-.21-.21.21.21,0,0,1,.21-.21A.21.21,0,0,1,89.14,75.4Z"/><path class="sv_cls-1" d="M87.76,74v0a1.52,1.52,0,0,0,0-.44c0,.13,0,.22,0,.34S87.77,73.89,87.76,74Z"/><polygon class="sv_cls-1" points="106.78 65.42 106.65 65.23 106.2 64.49 104.76 62.05 104.28 61.29 107.48 66.63 106.78 65.42 106.78 65.42"/><path class="sv_cls-1" d="M112,61.24a.53.53,0,0,1-.16-.18l0,.06c-.08.19.15.31.31.37a.43.43,0,0,1,.14.06.06.06,0,0,1,.05,0A1,1,0,0,0,112,61.24Z"/><path class="sv_cls-1" d="M103.8,73.27a4.93,4.93,0,0,0-.48.32C103.53,73.46,103.64,73.35,103.8,73.27Z"/><path class="sv_cls-1" d="M98,74l.1,0a.77.77,0,0,1-.2,0Z"/><path class="sv_cls-1" d="M96.37,73.64h0Z"/><path class="sv_cls-1" d="M97.47,74a2.05,2.05,0,0,0-.43-.06A2.16,2.16,0,0,1,97.47,74Z"/><path class="sv_cls-1" d="M99.8,73.29h0v0c0,.11,0,.22-.06.33C99.76,73.49,99.78,73.39,99.8,73.29Z"/><path class="sv_cls-1" d="M87.82,75.29l-.05-.2s0,.09,0,.13Z"/><path class="sv_cls-1" d="M94.23,76.44l.22.12Z"/><path class="sv_cls-1" d="M90.26,55.3a.63.63,0,0,0,0,.19c0,.09,0,.12.09.16s.32-.11.39-.27l0-.1s0,0,0,0a.19.19,0,0,1,0-.06C90.52,55.14,90.3,55.18,90.26,55.3Z"/><path class="sv_cls-1" d="M105.17,76.56l.22-.12Z"/><path class="sv_cls-1" d="M98.09,79.4a.3.3,0,0,0-.17.14A.27.27,0,0,1,98.09,79.4Z"/><path class="sv_cls-1" d="M95.8,73.27c.16.08.28.2.48.32A4.61,4.61,0,0,0,95.8,73.27Z"/><path class="sv_cls-1" d="M98.16,81.31h0a2.11,2.11,0,0,1,.75-.05A1.78,1.78,0,0,0,98.16,81.31Z"/><path class="sv_cls-1" d="M99.63,81.84h0s0-.09,0-.13h0Z"/><path class="sv_cls-1" d="M87.34,61.53a.07.07,0,0,1,.06,0,.41.41,0,0,1,.14-.06c.16-.06.39-.18.31-.37l0-.06a.51.51,0,0,1-.16.18A1,1,0,0,0,87.34,61.53Z"/><path class="sv_cls-1" d="M88.9,62.81l-1.5-1a.07.07,0,0,1,0,0Z"/><path class="sv_cls-1" d="M98,80.94c-.07-.29-.13-.65-.17-.93A5.64,5.64,0,0,0,98,80.94Z"/><path class="sv_cls-1" d="M97.85,79.9a1,1,0,0,1,0-.11S97.85,79.86,97.85,79.9Z"/><path class="sv_cls-1" d="M86.88,62.22c.2.06.29-.18.32-.35s0-.07,0-.11,0,0,0,0-.24.26-.4.43A.14.14,0,0,0,86.88,62.22Z"/><path class="sv_cls-1" d="M97.88,79.61a.51.51,0,0,0,0,.06.53.53,0,0,1,0-.13Z"/><path class="sv_cls-1" d="M98.12,81.83l0,0-.42-.08Z"/><path class="sv_cls-1" d="M96.42,81.57a3.87,3.87,0,0,1,1.08.09l-.76-.2Z"/><path class="sv_cls-1" d="M99.65,81.64l0,.08c0-.11,0-.21,0-.29a.72.72,0,0,0,0,.07Z"/><path class="sv_cls-1" d="M91.32,79.07l.37.12-.12-.08Z"/><path class="sv_cls-1" d="M108.41,54.65a.48.48,0,0,0-.19,0,.13.13,0,0,0-.12.14c0,.2.21.26.38.28a.42.42,0,0,1,.15,0,.06.06,0,0,1,.05,0C108.67,54.87,108.56,54.64,108.41,54.65Z"/><polygon class="sv_cls-1" points="95.65 60.74 95.65 60.74 93.01 57.76 94.62 59.6 95.65 60.74"/><path class="sv_cls-1" d="M108.29,79.07l-.25,0-.12.08Z"/><path class="sv_cls-1" d="M94.62,60.86A7,7,0,0,0,94.85,62L93.4,64.49l-.44.74-.13.19h0L92,66.83a4.82,4.82,0,0,1-.29-1,4.32,4.32,0,0,1-.05-1.15l.09.06-2-1.34c-.09,1.58-.05,2-.05,3.55a7.42,7.42,0,0,0,.72,2.55l-1.13,1.9,5.89-9.86-.33.52A6.84,6.84,0,0,1,94.62,60.86Z"/><path class="sv_cls-1" d="M88.26,71.88a5,5,0,0,1-.21-.83c-.06-.25-.06-.53-.12-.79a12,12,0,0,1-.43-1.44,22.07,22.07,0,0,1-.31-3,21.26,21.26,0,0,0,.17-3.08.46.46,0,0,1-.23,0c-.08-.05,0-.2,0-.32a1.06,1.06,0,0,1,.11-.32l.12-.22,0,0h-.05c0,.11-.05.23-.11.39a.28.28,0,0,1-.38.1.21.21,0,0,1,0-.06,1,1,0,0,1-.36.29c-.24.07-.45.18-.49.27a16.41,16.41,0,0,0-.36,2c.28-.31.35-.9,1-1.22a1.73,1.73,0,0,0,0,.42,2.46,2.46,0,0,1,.05.56,1.91,1.91,0,0,0,.55-.52A2.92,2.92,0,0,1,87,65.32c-.25.45-.25.69-.52.79a1.35,1.35,0,0,0-.42.25.9.9,0,0,1-.42.17.41.41,0,0,0-.15,0s0,.09,0,.14a.91.91,0,0,1,0,.24c0,.14,0,.28,0,.4a13.06,13.06,0,0,0,.36,2.08,1.2,1.2,0,0,0,0-.39,1.29,1.29,0,0,1,.14-.83c.1-.21.24-.21.31-.42s.31-.28.45-.45A3.13,3.13,0,0,1,87,67a3.76,3.76,0,0,1,.07,1.33,1,1,0,0,0-.05.24l.26-.1c.18.41,0,.83-.1,1.21a2.61,2.61,0,0,1-.24.49c-.07.14,0,.27-.11.38s-.24.1-.41.28l0,0c0,.28-.05.47-.1.45s0,.14,0,.14,0-.06,0-.14h0a1.87,1.87,0,0,1-.15-.28c.16.55.34,1.12.53,1.68a1.06,1.06,0,0,1,.17-.48,1.74,1.74,0,0,0,.31-.56c.14-.38.42-.38.46-.76a6.92,6.92,0,0,1,.13.83,2.05,2.05,0,0,1-.06.73,1.25,1.25,0,0,0,.06.47,1.39,1.39,0,0,1,.13-.61.67.67,0,0,0,.07-.42,3.56,3.56,0,0,0,.56.73h0l.13-.22A1.22,1.22,0,0,1,88.26,71.88Zm-1.7-8.56a.23.23,0,0,1-.23-.23.23.23,0,0,1,.46,0A.23.23,0,0,1,86.56,63.32Zm-.35,3.81A.23.23,0,0,1,86,66.9a.23.23,0,1,1,.46,0A.23.23,0,0,1,86.21,67.13Zm.7,4.18a.23.23,0,0,1-.23-.23.23.23,0,0,1,.23-.23.24.24,0,0,1,.23.23A.23.23,0,0,1,86.92,71.31Z"/><path class="sv_cls-1" d="M103.19,81.57l-.33-.11-.77.21A3.94,3.94,0,0,1,103.19,81.57Z"/><path class="sv_cls-1" d="M92.82,57.55l-1.92-2.16v0Z"/><polygon class="sv_cls-1" points="99.91 53.92 99.8 53.8 100.15 54.38 99.91 53.92"/><path class="sv_cls-1" d="M109.3,55.65c.08,0,.1-.07.09-.16a.64.64,0,0,0,0-.19c0-.12-.26-.16-.46-.12a.19.19,0,0,1,0,.06s0,0,0,0l0,.1C109,55.54,109.13,55.75,109.3,55.65Z"/><path class="sv_cls-1" d="M98.72,81a4.94,4.94,0,0,0,.67.36,1.43,1.43,0,0,1,.27.13,20,20,0,0,0-1.13-1.7A3,3,0,0,0,98.72,81Z"/><path class="sv_cls-1" d="M99.9,81.09H100l0,0Z"/><path class="sv_cls-1" d="M91.5,54.81c0-.08,0-.12-.12-.14a.49.49,0,0,0-.19,0c-.14,0-.25.22-.28.44a.07.07,0,0,1,.05,0,.43.43,0,0,1,.15,0C91.29,55.07,91.55,55,91.5,54.81Z"/><path class="sv_cls-1" d="M99.28,54.41a.33.33,0,0,1,0-.06A.33.33,0,0,0,99.28,54.41Z"/><path class="sv_cls-1" d="M99.29,54.48l0,.05Z"/><path class="sv_cls-1" d="M99.38,54a1.19,1.19,0,0,0-.08.26A1.61,1.61,0,0,1,99.38,54Z"/><path class="sv_cls-1" d="M99.78,50.6v0Z"/><path class="sv_cls-1" d="M99.71,50.37c-.14-.14-.34-.25-.44-.16a.51.51,0,0,0-.14.13c-.06.06-.06.1,0,.18s.33.09.47,0l.1-.06a.12.12,0,0,1,0-.06Z"/><path class="sv_cls-1" d="M111.62,71.87a.75.75,0,0,0,.07.42,1.32,1.32,0,0,1,.14.64,1.38,1.38,0,0,0,.07-.5,2.31,2.31,0,0,1-.07-.73c0-.38.14-.83.14-.83,0,.38.31.38.45.76a1.88,1.88,0,0,0,.32.56,1,1,0,0,1,.17.48c.19-.55.37-1.11.52-1.64a1.8,1.8,0,0,1-.13.25h0l0,.14s0-.06,0-.14-.08-.18-.1-.45l0,0c-.17-.18-.34-.18-.41-.28s0-.24-.11-.38a2.73,2.73,0,0,1-.24-.49c-.07-.38-.28-.8-.11-1.21l.27.1a1,1,0,0,0-.05-.24,3.59,3.59,0,0,1,.07-1.33,3.22,3.22,0,0,1,.42.38c.14.17.38.24.45.45s.21.21.31.42a1.28,1.28,0,0,1,.14.83,1.2,1.2,0,0,0,0,.36,13.06,13.06,0,0,0,.35-2.05c0-.13,0-.28,0-.44a.8.8,0,0,1,0-.21s0-.09,0-.13a.4.4,0,0,0-.16,0,.87.87,0,0,1-.42-.17,1.32,1.32,0,0,0-.42-.25c-.28-.1-.28-.34-.52-.79a2.92,2.92,0,0,1-.14-1.33,1.85,1.85,0,0,0,.55.52,3.31,3.31,0,0,1,0-.56,1.32,1.32,0,0,0,0-.42c.63.32.7.9,1,1.22a15.87,15.87,0,0,0-.37-2,.88.88,0,0,0-.47-.26,1.06,1.06,0,0,1-.36-.29.22.22,0,0,1,0,.06c-.09.08-.35,0-.38-.1s-.07-.27-.11-.39h-.05l0,0,.12.22a.78.78,0,0,1,.1.32c0,.12.1.27,0,.32a.41.41,0,0,1-.22,0,20.22,20.22,0,0,0,.17,3.08,22.07,22.07,0,0,1-.31,3,10.14,10.14,0,0,1-.44,1.44c-.05.26-.06.54-.11.79a6.14,6.14,0,0,1-.21.83,1.18,1.18,0,0,1-.42.51l.13.22h0A3.19,3.19,0,0,0,111.62,71.87Zm1.07-1a.23.23,0,0,1,.23.23.23.23,0,0,1-.23.23.23.23,0,0,1-.23-.23A.24.24,0,0,1,112.69,70.85Zm.71-4.18a.23.23,0,0,1,.23.23.24.24,0,0,1-.23.23.23.23,0,0,1-.23-.23A.23.23,0,0,1,113.4,66.67ZM113,62.86a.23.23,0,0,1,.23.23.23.23,0,0,1-.46,0A.23.23,0,0,1,113,62.86Z"/><path class="sv_cls-1" d="M100.22,81.25l.38-1.5S100.29,80.92,100.22,81.25Z"/><path class="sv_cls-1" d="M102.28,74.25c.6.13-.1,0,.52.11C102.18,74.28,102.88,74.38,102.28,74.25Z"/><path class="sv_cls-1" d="M101.14,79.92l-.54-.17.32.1a11,11,0,0,0-.39,1.51.32.32,0,0,1-.19.2h0a2.24,2.24,0,0,0,.68-.18c.28-.14.37-.27.35-.41s-.05-.51-.07-.69S101.23,80,101.14,79.92Z"/><path class="sv_cls-1" d="M100.57,50.52c0-.08,0-.11,0-.18s-.13-.12-.14-.13-.34,0-.48.19a.07.07,0,0,1,0,.06.39.39,0,0,1,.13.07C100.24,50.61,100.48,50.7,100.57,50.52Z"/><path class="sv_cls-1" d="M111.8,73.44a1.68,1.68,0,0,0,0,.49v0c0-.06,0-.11,0-.12S111.81,73.59,111.8,73.44Z"/><path class="sv_cls-1" d="M0,89.45H200V44.55H0Zm79.21-19L81.58,69l.1.53-.49.3.16.89.56.12.1.53-2.73-.55Zm.64,2.72a1.38,1.38,0,0,1,0-.6l.56-.18a.77.77,0,0,0-.08.63.83.83,0,0,0,1.07.46.8.8,0,0,0,.56-1,.81.81,0,0,0-.43-.47l.55-.18a1.33,1.33,0,0,1,.33.52A1.29,1.29,0,0,1,81.54,74,1.31,1.31,0,0,1,79.86,73.21Zm.8,2,2.31-1,.2.47-2.31,1ZM81.5,77l1.85-1L83,75.31l.37-.2L84,76.2,81.75,77.4Zm1.26,2c-.28-.4-.29-.75.12-1a.54.54,0,0,1,.53-.09.61.61,0,0,1,.26-.73.73.73,0,0,1,1.07.29l.45.66-2.08,1.43Zm1.95,2.4,1-1c.23-.2.54-.52.25-.84s-.64-.05-.87.16l-1,.94-.34-.37,1.12-1a1,1,0,1,1,1.3,1.45l-1.11,1ZM86.38,83c-.42-.35-.56-.74-.19-1.19a.73.73,0,0,1,1.15-.06l.2.16.61-.71.38.33L86.9,83.42Zm1.29,1,.24-.35.7.46.31-.46-.68-.45.24-.35.67.45.38-.56-.7-.47.24-.36,1.13.76L88.8,84.75Zm3.38,2-.62-.32A.74.74,0,0,1,90,84.59a.68.68,0,0,1,.8-.37l-.18-1.29.55.28.1,1.2h0l.46-.9.46.23Zm.41-6a.22.22,0,0,1,.21-.21.21.21,0,0,1,.21.21.21.21,0,0,1-.21.21A.21.21,0,0,1,91.47,80Zm17.46,5.93L108,84.05l-.66.3L107.2,84l1.12-.53,1.08,2.29Zm-1-5.72a.21.21,0,0,1-.21-.21.21.21,0,0,1,.21-.21.21.21,0,0,1,.2.21A.2.2,0,0,1,107.92,80.21Zm3.06,4.7-2.22-1.67.46-.29.45.34.77-.48-.1-.56.46-.29.5,2.74ZM113.46,83a.74.74,0,0,1-1.15,0,.67.67,0,0,1,0-.88L111,81.79l.47-.39,1.14.37h0L112,81l.4-.32L114,82.59Zm1.13-1-.3-.29.36-.38-1.52-1.46.35-.37L115,81l.37-.38.3.29Zm2.82-3.25-2.24.07h0l1.38,1-.3.42-2.08-1.53.21-.29,2.24-.08h0l-1.39-1,.3-.41,2.09,1.53Zm.67-1.2-.38-.21.41-.74-.49-.26-.39.71-.37-.2.38-.71-.6-.33-.4.75-.37-.21.64-1.19,2.22,1.21ZM119.43,75a1.32,1.32,0,0,1-.35.49l-.55-.21a.8.8,0,0,0,.46-.44.87.87,0,0,0-1.6-.64.79.79,0,0,0,0,.64l-.55-.21A1.43,1.43,0,0,1,117,74a1.33,1.33,0,0,1,2.47,1Zm1.41-5.23-2.69.66.06-.54.56-.13.11-.9-.5-.28.06-.53,2.45,1.33Zm.05-2.21h-.59a.76.76,0,0,0,.26-.58.81.81,0,0,0-.88-.75.77.77,0,0,0-.56,1.36h-.58a1.36,1.36,0,0,1-.16-.59,1.29,1.29,0,0,1,1.29-1.31A1.31,1.31,0,0,1,121,67,1.29,1.29,0,0,1,120.89,67.55Zm0-2.72-2.51.29-.06-.5,2.51-.29Zm-.37-2.31c.11.51,0,.9-.56,1a.66.66,0,0,1-.79-.37l-.88.94-.13-.6.87-.84h0l-1,.21-.1-.5,2.46-.52Zm-.4-1.61-.41.14-.27-.8-.52.18.26.76-.41.14-.26-.77-.64.22.27.8-.41.14-.43-1.3,2.39-.8Zm-1.59-4-1.2,1.33,1.76-.19.17.33-2.14,1.52-.23-.46,1.3-.89-1.7.18-.08-.15,1.17-1.24h0l-1.51.5-.23-.46,2.51-.77Zm-1.58-2.46.24.32-1.52,2.33-.32-.44.31-.48-.53-.73-.56.13-.31-.43Zm-2,8.2a.23.23,0,0,1-.23.22.23.23,0,1,1,0-.45A.23.23,0,0,1,114.91,62.68Zm-1.48-11.9-.86,2.64-.43-.34.18-.54-.7-.58-.5.28-.42-.34,2.43-1.37Zm-.54,7.81a.23.23,0,0,1-.23.23.23.23,0,0,1-.23-.23.23.23,0,0,1,.23-.23A.24.24,0,0,1,112.89,58.6ZM110.75,49l.43.27L110.07,51l.61.38-.23.36-1-.65Zm-4-2,.34.13.62,2.16h0l.63-1.58.47.19-1,2.39-.34-.14L106.86,48h0l-.63,1.59-.47-.18Zm-2.31-.55,1.31.33-.1.42-.82-.21-.13.54.78.19-.1.42-.79-.2-.16.66.82.21-.11.41-1.31-.33Zm-5-.47h.7c.51,0,.87.23.86.77a.66.66,0,0,1-.54.69l.73,1.08h-.62l-.62-1h0v1H99.4Zm-2.23.13a1.33,1.33,0,1,1-1.11,1.49A1.29,1.29,0,0,1,97.2,46.1Zm-3.29.78a1.21,1.21,0,0,1,1.58.85,1.23,1.23,0,0,1-.87,1.57l-.69.2-.7-2.42Zm-2.41.81,2,2-.5.22-.4-.4-.82.37,0,.58-.49.22-.13-2.78Zm-.71,7.39h.07a.66.66,0,0,1,.24-.47.5.5,0,0,1,.46.11c.07.09,0,.35-.14.37a4.15,4.15,0,0,0-.44.07.12.12,0,0,1,0,.06l4.8,5.33,4-6.76-.46.77-.73,1.2a11.45,11.45,0,0,1-.09-1.94,15.76,15.76,0,0,1,.86-2.59.42.42,0,0,1-.24-.22c-.05-.08.09-.17.18-.25a1,1,0,0,1,.25-.19l-.23.12c-.12,0-.33-.11-.33-.22s.22-.36.32-.36a.65.65,0,0,1,.45.22h0a1.23,1.23,0,0,0-.37-.48,3,3,0,0,0,.38-.91h0a2.65,2.65,0,0,0,.36.93,2.43,2.43,0,0,0-.36.46h0l.05,0a.7.7,0,0,1,.48-.24c.1,0,.31.23.31.36s-.21.27-.33.22a3.31,3.31,0,0,0-.4-.2s0,0-.05.05a.13.13,0,0,0,.11,0,1.32,1.32,0,0,1,.48.4c-.09.13-.3.38-.45.33h0c0,.06,0,.12,0,.17l.2,1.4a1.87,1.87,0,0,1-.33,1,1.87,1.87,0,0,0,.33-1,4.53,4.53,0,0,1,.1,1.38c-.1.21-.12.19-.11.26l3.61,6,4.8-5.33a.12.12,0,0,1,0-.07,3.89,3.89,0,0,0-.44-.07.29.29,0,0,1-.15-.37.52.52,0,0,1,.47-.11.7.7,0,0,1,.25.47h.07a1.56,1.56,0,0,0,0-.51,3.6,3.6,0,0,0,1-.48,2.27,2.27,0,0,0-.35.9,1.2,1.2,0,0,0-.57.11.62.62,0,0,1,.49.08.49.49,0,0,1,0,.47.28.28,0,0,1-.39,0c-.09-.15-.13-.25-.2-.36h0l0,0v0l.05-.06s0,.09,0,.13l.09.1a.9.9,0,0,1,.18.29c.06.11.15.24.08.3a.43.43,0,0,1-.31.11,23.56,23.56,0,0,0,.29,3.3,26.11,26.11,0,0,1,0,3.1c0,.19,0,.61-.06,1l3.1-2v0a.12.12,0,0,1,0-.05c-.12-.07-.24-.09-.42-.17a.29.29,0,0,1-.05-.4l0,0a2.34,2.34,0,0,1-.22-.73l.76.17a2.09,2.09,0,0,1,.08-.61l-.4-.7h0c0,.11-.18.06-.34,0a1.47,1.47,0,0,1-.8-.17,2.87,2.87,0,0,0-.52-.39,1.14,1.14,0,0,1-.42-.52c0-.14-.28-.41-.38-.41a2.48,2.48,0,0,1,.8.07l.1,0c-.21-.38-.16-1.07-.07-1l.28.16-.27-.42a.23.23,0,1,1-.12-.41.23.23,0,0,1,.23.23.22.22,0,0,1-.11.18c.11.14.23.3.35.47l.23.12.17.07c.07-.25.14-.56.14-.56l.42.42a1.12,1.12,0,0,1,.28.52c.07.21.21.35.28.52a1.83,1.83,0,0,1,0,.73,1.65,1.65,0,0,0,0,.41l0,0,.4.69a3.75,3.75,0,0,1,.88.67l.37-.84c0,.21.48.94.52,1.11a3.24,3.24,0,0,1,.1.66.84.84,0,0,1-.24.7c-.21.17-.16.84-.24.69h0a17.57,17.57,0,0,1,.33,1.95h0c0-.15-.09-.13,0-.52s.3-.38.32-.53.2-.17.39-.53c.1-.19.31-.5.31-.5s.23.49.38.86a.82.82,0,0,1,.05.3.5.5,0,0,0,.11-.12,1.61,1.61,0,0,1,.45-.34,8.16,8.16,0,0,1,.12,1.08,1.92,1.92,0,0,1-.18.78c-.06.12-.14.32-.29.6a2.28,2.28,0,0,1-1.29.91.72.72,0,0,0-.28.15c0,.09,0,.17,0,.26a9.53,9.53,0,0,1-.23,1.86l.09-.15a1.59,1.59,0,0,0,.17-.52c.11-.42.38-.42.45-.56s.46-.28.66-.38.35-.52.35-.52,0,.69,0,1.12a.82.82,0,0,1-.09.45.84.84,0,0,0,.33-.14,1.56,1.56,0,0,1,.55-.21,7.09,7.09,0,0,1-.2,1.11,2.25,2.25,0,0,1-.42.73c-.1.11-.24.28-.49.52a2.31,2.31,0,0,1-1.56.53.68.68,0,0,0-.43.12c-.06.2-.11.37-.13.47-.08.31-.19.69-.31,1.1a1.31,1.31,0,0,1,.93-.41c.24,0,1.19-.28,1.19-.28a2.31,2.31,0,0,0-.51,1,3.16,3.16,0,0,1,1.1,0,3.68,3.68,0,0,0-.94,1.05,3.34,3.34,0,0,1-.59,1c-.1.07-.41.45-.62.66s-1,.1-1.32.1a2.66,2.66,0,0,0-.64.2,5.28,5.28,0,0,1-.6.66,1,1,0,0,0,.48-.23c.15-.19,0,.61-.16.88a1.25,1.25,0,0,0,.61-.17c.22-.18,0,.63-.22.86-.54.48-.49.56-.58.59a3.06,3.06,0,0,0,1.29.13c.25-.14-.28.35-.6.47s-.4.47-.9.63a4,4,0,0,1-1.42.32,4.44,4.44,0,0,0-.75-.19,11.24,11.24,0,0,0-1.43-.51,19.14,19.14,0,0,1-1.68.93l-.11,0,.22,0a3.79,3.79,0,0,0,1.29.14c.19-.1-.22.46-.48.67a4.1,4.1,0,0,0,1.17.09c.28-.06-.55.75-.88.84l-.29.08a3,3,0,0,0,.82.21c.29,0-.92.77-1.25.72-1.06-.15-2.07.21-2.56,0s-.7-.29-.92-.36-.34-.28-.48-.38a1.75,1.75,0,0,0-1-.6,5.65,5.65,0,0,1,.68-.21l-.57.11-.27.06a1.09,1.09,0,0,1-.35.08l-.2.06a2,2,0,0,1,.47.26c.54.17,1,.32,1.11.39a10.67,10.67,0,0,1,1.78,1.47l-1-.07c-.14,0-.45-.62-.59-.73l-.48-.25a3.31,3.31,0,0,1,.27,1,2.2,2.2,0,0,0,.24.66c-.13,0-.55-.49-.55-.49s-.24.46-.24.46c-.42-.21-.63-1.16-.63-1.68a.87.87,0,0,0-.09-.38L100,82.3a.45.45,0,0,1-.24,0l-.32.11a1.42,1.42,0,0,0-.45,1.9.61.61,0,0,1-.49-.31s-.27.49,0,.77a1.44,1.44,0,0,1-.24-1.86c-.48.21-.82.39-.87.42s-.45.73-.59.73l-1,.07a10.36,10.36,0,0,1,1.78-1.47,14.08,14.08,0,0,1,1.38-.47l.24-.16-.3-.08h-.46a1.76,1.76,0,0,0-1,.6c-.14.1-.26.3-.48.38s-.48.19-.93.36-1.49-.16-2.56,0c-.33.05-1.54-.74-1.25-.72a3,3,0,0,0,.82-.21l-.29-.08c-.33-.09-1.17-.9-.89-.84a4.13,4.13,0,0,0,1.18-.09c-.26-.21-.67-.78-.48-.68a3.8,3.8,0,0,0,1.29-.14l.21,0-.11,0c-.55-.27-1.12-.59-1.68-.93a11,11,0,0,0-1.43.51,4.56,4.56,0,0,0-.76.19,3.92,3.92,0,0,1-1.41-.32c-.5-.16-.44-.46-.9-.63s-.85-.61-.6-.47a3.05,3.05,0,0,0,1.29-.13c-.09,0,0-.11-.58-.59-.25-.23-.45-1-.22-.86a1.25,1.25,0,0,0,.61.17c-.16-.26-.31-1.06-.18-.88a1.1,1.1,0,0,0,.49.23,5.49,5.49,0,0,1-.6-.66,2.62,2.62,0,0,0-.64-.2c-.28,0-1.12.11-1.32-.1s-.52-.59-.63-.66a3.78,3.78,0,0,1-.59-1A3.56,3.56,0,0,0,83.73,73a3.16,3.16,0,0,1,1.1,0,2.39,2.39,0,0,0-.5-1s.95.24,1.19.28a1.25,1.25,0,0,1,.94.43c-.13-.42-.23-.81-.32-1.12,0-.1-.08-.28-.13-.48a.68.68,0,0,0-.42-.11A2.37,2.37,0,0,1,84,70.4c-.24-.24-.38-.41-.48-.52a2.06,2.06,0,0,1-.42-.73A8.9,8.9,0,0,1,82.89,68a1.57,1.57,0,0,1,.56.21.85.85,0,0,0,.33.14.85.85,0,0,1-.09-.45c0-.42,0-1.12,0-1.12s.14.42.34.52.59.24.66.38.35.14.46.56a1.59,1.59,0,0,0,.17.52l.09.14a9.48,9.48,0,0,1-.23-1.85c0-.09,0-.17,0-.26a.72.72,0,0,0-.28-.15,2.2,2.2,0,0,1-1.29-.91c-.15-.28-.23-.48-.3-.6a2.09,2.09,0,0,1-.17-.78,6.55,6.55,0,0,1,.12-1.08,1.48,1.48,0,0,1,.44.34.58.58,0,0,0,.12.12.86.86,0,0,1,0-.3c.15-.37.38-.86.38-.86s.2.31.31.5c.18.36.36.39.39.53s.24.24.32.53,0,.37,0,.52v0a17.47,17.47,0,0,1,.33-2h0c-.09.15,0-.52-.24-.69a.84.84,0,0,1-.24-.7,2.68,2.68,0,0,1,.1-.66c0-.17.56-.9.52-1.11l.36.83a4,4,0,0,1,.88-.66l.4-.68,0,0a1.65,1.65,0,0,0,0-.41,1.7,1.7,0,0,1,0-.73c.07-.17.21-.31.28-.52a1,1,0,0,1,.28-.52l.42-.42s.07.31.13.56l.18-.07.23-.12.35-.46a.21.21,0,0,1-.11-.18.28.28,0,1,1,.11.18l-.26.41.27-.16c.09-.06.14.63-.07,1l.1,0a2.5,2.5,0,0,1,.8-.07c-.1,0-.35.27-.38.41a1.2,1.2,0,0,1-.42.52,2.49,2.49,0,0,0-.52.39,1.46,1.46,0,0,1-.8.17c-.16.1-.3.14-.34,0h0l-.41.71a2.22,2.22,0,0,1,.08.6l.76-.17a2.56,2.56,0,0,1-.22.73l0,0a.29.29,0,0,1-.06.4c-.17.08-.29.1-.41.17a.12.12,0,0,1,0,.05v0l3.1,2c0-.38-.06-.8-.06-1a27.41,27.41,0,0,1,0-3.1,24.45,24.45,0,0,0,.29-3.3.43.43,0,0,1-.31-.11c-.07-.06,0-.19.08-.3a.9.9,0,0,1,.18-.29l.09-.09s0-.09,0-.14l.06.06h0l0-.05h0c-.06.1-.11.21-.2.36a.3.3,0,0,1-.4,0,.52.52,0,0,1,.06-.47.61.61,0,0,1,.49-.08,1.24,1.24,0,0,0-.57-.11,2.3,2.3,0,0,0-.35-.9,3.57,3.57,0,0,0,1,.48,1.52,1.52,0,0,0,0,.51Zm20.43,4.48a.23.23,0,0,1,.23-.22.23.23,0,1,1,0,.45A.23.23,0,0,1,111.21,59.57Zm4.21,7.37a.22.22,0,0,1-.22.22.22.22,0,0,1,0-.44A.22.22,0,0,1,115.41,66.94Zm-1.05,4.56a.24.24,0,0,1-.23.23.23.23,0,1,1,0-.46A.24.24,0,0,1,114.36,71.5Zm-1.75,4.74a.23.23,0,1,1-.46,0,.23.23,0,1,1,.46,0ZM87,76.24a.23.23,0,0,1,.23-.23.24.24,0,0,1,.23.23.23.23,0,0,1-.23.23A.23.23,0,0,1,87,76.24ZM85.25,71.5a.23.23,0,0,1,.23-.23.23.23,0,1,1,0,.46A.23.23,0,0,1,85.25,71.5Zm-1.06-4.56a.22.22,0,0,1,.22-.22.22.22,0,1,1,0,.44A.22.22,0,0,1,84.18,66.94Zm.51-4.26a.23.23,0,0,1,.23-.23.23.23,0,1,1,0,.45A.22.22,0,0,1,84.7,62.68Zm2-4.09a.23.23,0,1,1,.46,0,.23.23,0,0,1-.46,0Zm1.69,1a.23.23,0,0,1-.23.23.23.23,0,1,1,0-.45A.23.23,0,0,1,88.4,59.57Zm-.2-10,1.45,1.11h0l-.42-1.75.47-.29.52,2.73-.25.16-2.24-1.65Zm-1.46,1.1,1.32,1.63.56-.45.27.33-1,.78-1.59-2ZM85,52.17l2.55,1.08-.38.39-.52-.22-.63.65.23.52-.37.39-1.15-2.54ZM83.08,54.4a1.1,1.1,0,0,1,.65-.41l.14.39a.51.51,0,0,0-.4.19.31.31,0,0,0,0,.43c.34.25.82-.69,1.51-.18A.81.81,0,0,1,85.18,56a.92.92,0,0,1-.87.35l-.05-.45a.52.52,0,0,0,.57-.16.33.33,0,0,0-.09-.48c-.21-.16-.41,0-.6.12a.71.71,0,0,1-.89.06A.75.75,0,0,1,83.08,54.4Zm-1.78,3,1.87,1,.33-.64.38.19L83.32,59l-2.25-1.15Zm-.62,1.31.4.15-.31.79.51.2.3-.76.4.16-.3.76.63.24.31-.78.4.15-.49,1.27L80.18,60ZM79.55,62l.42.09-.17.82.54.11.17-.79.41.09-.16.79.67.14.17-.82.41.08-.27,1.34-2.47-.52Zm.83,2.31a1.23,1.23,0,0,1,1.15,1.37l-.06.72L79,66.23,79,65.5A1.21,1.21,0,0,1,80.39,64.34Z"/><path class="sv_cls-1" d="M112.21,61.82l-1.49,1,1.49-1A.06.06,0,0,0,112.21,61.82Z"/><path class="sv_cls-1" d="M109.86,63.37l-2.1,1.4.18-.12a4.32,4.32,0,0,1-.05,1.15,4.83,4.83,0,0,1-.3,1l1.59,2.65a7.73,7.73,0,0,0,.73-2.55C109.9,65.4,110,65,109.86,63.37Z"/><path class="sv_cls-1" d="M112.73,62.22a.14.14,0,0,0,.09-.06c-.16-.17-.3-.36-.39-.43s0,0,0,0l0,.11C112.44,62,112.53,62.28,112.73,62.22Z"/><path class="sv_cls-1" d="M111.84,75.11l0,.18,0-.06S111.84,75.15,111.84,75.11Z"/><path class="sv_cls-1" d="M102.15,81.28h0Z"/><path class="sv_cls-1" d="M100,74.23a6,6,0,0,0,.16.72A6.58,6.58,0,0,1,100,74.23Z"/><path class="sv_cls-1" d="M102.14,74a2.2,2.2,0,0,1,.43-.06A2.1,2.1,0,0,0,102.14,74Z"/><path class="sv_cls-1" d="M99.1,74s.05,0,.05,0l.12-.22-.06.09c-.06.13-.05.1-.16.2S99.11,74,99.1,74Z"/><path class="sv_cls-1" d="M100.31,75.69a.81.81,0,0,1,0,.17A1,1,0,0,0,100.31,75.69Z"/><path class="sv_cls-1" d="M101.55,74l.1,0h.1A.78.78,0,0,1,101.55,74Z"/><path class="sv_cls-1" d="M103.23,73.64h0Z"/><path class="sv_cls-1" d="M100.39,73.85l0-.06.1.19a.11.11,0,0,0,.06,0s0,0,0,0A.51.51,0,0,1,100.39,73.85Z"/><path class="sv_cls-1" d="M99.3,75.86a1.16,1.16,0,0,1,0-.17A.93.93,0,0,0,99.3,75.86Z"/><path class="sv_cls-1" d="M100.22,73.55h0Z"/><path class="sv_cls-2" d="M183,0H17A17,17,0,0,0,0,17V44.55H200V17A17,17,0,0,0,183,0Z"/><path class="sv_cls-2" d="M0,117a17,17,0,0,0,17,17H183a17,17,0,0,0,17-17V89.45H0Z"/><path class="sv_cls-3" d="M107.73,79.11l.21-.22a1.82,1.82,0,0,1-.67.31c-.48.3-1,.6-1.47.83l-.45.2a2.62,2.62,0,0,1-.84.56c.18,0,.24-.14.49-.21a1.62,1.62,0,0,1,.66-.12l.11,0a19.14,19.14,0,0,0,1.68-.93l-.14,0A2.2,2.2,0,0,1,107.73,79.11Z"/><path class="sv_cls-3" d="M102.86,81.46a3.26,3.26,0,0,0-.48-.09l-.54.25.32-.33h0a4.93,4.93,0,0,1-.72.36,1,1,0,0,1-.33.22l.27-.06.57-.11.14,0Z"/><path class="sv_cls-3" d="M100.44,82l.12,0,.2-.06a1.36,1.36,0,0,1-.32,0Z"/><path class="sv_cls-3" d="M107.73,79.11a2.28,2.28,0,0,1-.42.35,4,4,0,0,1,.61-.27l.12-.08a3.35,3.35,0,0,0-.42.11l.41-.28h0A1.81,1.81,0,0,0,107.73,79.11Z"/><path class="sv_cls-3" d="M111.83,75.23l0,.06c-.1.36-.2.74-.2.74a1.56,1.56,0,0,1,.17-.34l.14-.29-.21.28A1.16,1.16,0,0,0,111.83,75.23Z"/><path class="sv_cls-3" d="M98.85,82.17a14.08,14.08,0,0,0-1.38.47,10.36,10.36,0,0,0-1.78,1.47l1-.07c.14,0,.45-.62.59-.73s.39-.21.87-.42l0-.06A3.21,3.21,0,0,1,98.85,82.17Z"/><path class="sv_cls-3" d="M103,81.1l-.51.24c.3-.07,1.27-.31,1.45-.31h0l.47-.19a4.28,4.28,0,0,1-.7.17Z"/><path class="sv_cls-3" d="M99.67,82.19a2.36,2.36,0,0,0-.26.19l.32-.11a.12.12,0,0,1-.06-.07Z"/><path class="sv_cls-3" d="M111.59,76l-.06-.3a5.61,5.61,0,0,1-1.37,1.4l-.06.09a1.24,1.24,0,0,1,.66-.42l.39-.1a5.28,5.28,0,0,0,.6-.66C111.65,76.08,111.57,76.09,111.59,76Z"/><path class="sv_cls-3" d="M112.55,59.77l-.4-.69L112,59l0,.07.08.12v0l-.07,0,.4.7,0-.11Z"/><path class="sv_cls-3" d="M113.71,62.77l0,0a15.87,15.87,0,0,1,.37,2h0a.61.61,0,0,1,.11.21,2.44,2.44,0,0,0,.07-.27,17.57,17.57,0,0,0-.33-1.95c-.05-.09-.13-.19-.21-.3Z"/><path class="sv_cls-3" d="M110.34,56.41h0l.27.42.08,0C110.57,56.71,110.45,56.54,110.34,56.41Z"/><path class="sv_cls-3" d="M113.49,71.18c0,.08,0,.15,0,.21s-.07,0,0-.21a1.45,1.45,0,0,1,.05-.35s0-.07,0-.1-.08.21-.12.3c-.15.54-.33,1.09-.52,1.64a1.2,1.2,0,0,1-.28.81c.14,0,.28-.35.45-.73a.77.77,0,0,1,.08-.11c.12-.41.23-.79.31-1.1,0-.1.07-.27.13-.47A.43.43,0,0,0,113.49,71.18Z"/><path class="sv_cls-3" d="M114.23,67.06a1.25,1.25,0,0,1,0,.2c0,.11-.07,0,0-.2l0-.13c0,.15,0,.3,0,.44a13.06,13.06,0,0,1-.35,2.05c0,.06,0,.12,0,.2a2,2,0,0,0,.07-.21,1.34,1.34,0,0,1,.22-.45,9.53,9.53,0,0,0,.23-1.86c0-.09,0-.17,0-.26A.44.44,0,0,0,114.23,67.06Z"/><path class="sv_cls-3" d="M110.85,73.93a1.91,1.91,0,0,0,0,.63,2.73,2.73,0,0,0,.52.8.72.72,0,0,1,.15.36l.06.3s.11-.38.2-.74l0-.18a7,7,0,0,0,0-1.16v0a1.68,1.68,0,0,1,0-.49c0-.07,0-.14,0-.24a1.25,1.25,0,0,1,0-.26,1.32,1.32,0,0,0-.14-.64.75.75,0,0,1-.07-.42,3.19,3.19,0,0,1-.55.73h0l.39.65h-.68v0A5.83,5.83,0,0,1,110.85,73.93Z"/><path class="sv_cls-3" d="M112.74,72.19a1.88,1.88,0,0,1-.32-.56c-.14-.38-.41-.38-.45-.76,0,0-.1.45-.14.83a2.31,2.31,0,0,0,.07.73,1.38,1.38,0,0,1-.07.5,1.25,1.25,0,0,0,0,.26c0,.1,0,.17,0,.24s0,.26,0,.39,0,.06,0,.12a7,7,0,0,1,0,1.16s0,.08,0,.12a1.16,1.16,0,0,1-.14.44l.21-.28a4.09,4.09,0,0,0,.32-.91c.06-.49.27-1,.41-1a1.2,1.2,0,0,0,.28-.81A1,1,0,0,0,112.74,72.19Z"/><path class="sv_cls-3" d="M106.13,79.08c.22,0-.29-.09-.59-.06-.1.14-.18.27-.21.33-.12.23-.83.59-1,.78a5.07,5.07,0,0,1-.63.59,6.54,6.54,0,0,1-.74.38l.73-.09a4.28,4.28,0,0,0,.7-.17l.12,0a2.62,2.62,0,0,0,.84-.56l.09-.08C106.07,79.47,106,79.11,106.13,79.08Z"/><path class="sv_cls-3" d="M103.7,80.72a5.07,5.07,0,0,0,.63-.59c.18-.19.89-.55,1-.78,0-.06.11-.18.21-.33s.41-.62.57-.93-1.12.08-1.12.08l-.34.13c-.1.36-.19.68-.18.65a5.28,5.28,0,0,1-.89,1c-.19.2-.2,0-.64.61a2.77,2.77,0,0,1-.79.68h0l-.32.33.54-.25h0l.1,0,.51-.24A6.54,6.54,0,0,0,103.7,80.72Z"/><path class="sv_cls-3" d="M103,80.6c.44-.59.45-.41.64-.61a5.28,5.28,0,0,0,.89-1s.08-.3.18-.65a6.58,6.58,0,0,0,.21-.88c0-.1-.53.07-1,.25a5.75,5.75,0,0,0-.88.63c-.37.24-.42.84-.59,1.12a1.47,1.47,0,0,0-.27.82c0,.31-.17.41-.27.67a.47.47,0,0,1-.19.22l0,.05c0,.16-.08.28-.12.29l-.14.17a4.93,4.93,0,0,0,.72-.36h0A2.77,2.77,0,0,0,103,80.6Z"/><path class="sv_cls-3" d="M105,80.59c-.25.07-.31.18-.49.21l-.12,0-.47.19a8.35,8.35,0,0,1,1.08.09,6.7,6.7,0,0,1,1.29.08,2.1,2.1,0,0,0,.39.1c.27-.21.67-.77.48-.67a3.79,3.79,0,0,1-1.29-.14l-.22,0A1.62,1.62,0,0,0,105,80.59Z"/><path class="sv_cls-3" d="M105,81.12a8.35,8.35,0,0,0-1.08-.09h0c-.19,0-1.15.23-1.45.31l-.1,0h0a3.26,3.26,0,0,1,.48.09l.33.11a2.28,2.28,0,0,1,.43.07,5.75,5.75,0,0,0,1,.22c.33.05.62-.12,1.16.1.14.06.54.22.93.35l.29-.08c.33-.09,1.17-.9.88-.84a4.1,4.1,0,0,1-1.17-.09,2.1,2.1,0,0,1-.39-.1A6.7,6.7,0,0,0,105,81.12Z"/><path class="sv_cls-3" d="M104.6,81.86a5.75,5.75,0,0,1-1-.22,2.28,2.28,0,0,0-.43-.07,3.94,3.94,0,0,0-1.1.09l-.14,0a5.65,5.65,0,0,0-.68.21,1.75,1.75,0,0,1,1,.6c.14.1.25.3.48.38s.48.19.92.36,1.5-.16,2.56,0c.33.05,1.55-.74,1.25-.72a3,3,0,0,1-.82-.21c-.39-.14-.78-.3-.93-.35C105.21,81.74,104.93,81.91,104.6,81.86Z"/><path class="sv_cls-3" d="M110.09,77.22c-.16.24-.47.6-.66.86l.5-.18c.25-.07.9-.54,1.17-.54l.37,0c.16-.26.31-1.06.16-.88a1,1,0,0,1-.48.23l-.39.1A1.24,1.24,0,0,0,110.09,77.22Z"/><path class="sv_cls-3" d="M109.93,77.9l-.5.18a1,1,0,0,0-.14.25c-.07.23-1,.5-1.26.61l-.41.28a3.35,3.35,0,0,1,.42-.11l.25,0a5.8,5.8,0,0,1,.61-.14,6.22,6.22,0,0,0,1-.23,3,3,0,0,1,1-.13,2,2,0,0,1,.42.06c.09,0,0-.11.58-.59.25-.23.44-1,.22-.86a1.25,1.25,0,0,1-.61.17l-.37,0C110.83,77.36,110.18,77.84,109.93,77.9Z"/><path class="sv_cls-3" d="M109.86,78.7a6.22,6.22,0,0,1-1,.23,5.8,5.8,0,0,0-.61.14l-.37.12a4,4,0,0,0-.61.27l.14,0a11.24,11.24,0,0,1,1.43.51,4.44,4.44,0,0,1,.75.19,4,4,0,0,0,1.42-.32c.5-.16.44-.46.9-.63s.85-.61.6-.47a3.06,3.06,0,0,1-1.29-.13,2,2,0,0,0-.42-.06A3,3,0,0,0,109.86,78.7Z"/><path class="sv_cls-3" d="M108.27,78.43c0-.17.21-1,.24-1.21a3.62,3.62,0,0,1,.34-.79,1.82,1.82,0,0,1,0-.46c0-.46-.69-1.19-.69-1.19a2.49,2.49,0,0,1-.35,1.19,2.54,2.54,0,0,0-.38,1,1.37,1.37,0,0,1-.28.66c-.22.3,0,1.57,0,1.57h.07a1.82,1.82,0,0,0,.67-.31A1.63,1.63,0,0,0,108.27,78.43Z"/><path class="sv_cls-3" d="M110.33,76.37a4.09,4.09,0,0,0-.21-.83c-.1-.25-.35-.83-.59-.94,0,0-.21.66-.28.9a2.35,2.35,0,0,1-.24.66,3,3,0,0,0-.15.26,3.62,3.62,0,0,0-.34.79c0,.24-.2,1-.24,1.21a1.63,1.63,0,0,1-.33.47l-.21.22a1.81,1.81,0,0,1,.26-.16h0c.29-.11,1.19-.38,1.26-.61a1,1,0,0,1,.14-.25c.19-.26.5-.62.66-.86l.06-.09a.35.35,0,0,0,0-.1A2.58,2.58,0,0,0,110.33,76.37Z"/><path class="sv_cls-3" d="M107.73,79.11a2.2,2.2,0,0,0-.42.35A2.28,2.28,0,0,0,107.73,79.11Z"/><path class="sv_cls-3" d="M114,74.28a2.14,2.14,0,0,1-1.26,1.14c-.21,0-1.12.6-1.12.6s.06.05.16,0a2.66,2.66,0,0,1,.64-.2c.28,0,1.12.11,1.32-.1s.52-.59.63-.66a3.34,3.34,0,0,0,.59-1,3.68,3.68,0,0,1,.94-1.05,3.16,3.16,0,0,0-1.1,0,3.42,3.42,0,0,1-.22.56C114.46,73.7,114,74,114,74.28Z"/><path class="sv_cls-3" d="M111.76,75.68a1.56,1.56,0,0,0-.17.34Z"/><path class="sv_cls-3" d="M112.63,73.48c-.14,0-.35.52-.41,1a4.09,4.09,0,0,1-.32.91l-.14.29-.17.34s.9-.63,1.12-.6A2.14,2.14,0,0,0,114,74.28c0-.24.5-.58.59-.73a3.42,3.42,0,0,0,.22-.56,2.31,2.31,0,0,1,.51-1s-.94.24-1.19.28a1.31,1.31,0,0,0-.93.41.77.77,0,0,0-.08.11C112.91,73.13,112.77,73.45,112.63,73.48Z"/><path class="sv_cls-3" d="M113.17,70.83c0,.27.05.47.1.45A.71.71,0,0,0,113.17,70.83Z"/><path class="sv_cls-3" d="M113.89,69a1.28,1.28,0,0,0-.14-.83c-.1-.21-.24-.21-.31-.42s-.31-.28-.45-.45a3.22,3.22,0,0,0-.42-.38,3.59,3.59,0,0,0-.07,1.33,1,1,0,0,1,.05.24,1.25,1.25,0,0,1,.22.1,1.14,1.14,0,0,1,.46.63.89.89,0,0,0,.18.52,1.26,1.26,0,0,1,.07,1,1.65,1.65,0,0,0-.18.48h0a1.8,1.8,0,0,0,.13-.25c0-.09.08-.19.13-.3a4.58,4.58,0,0,1,.3-1.12c0-.07,0-.14,0-.2A1.2,1.2,0,0,1,113.89,69Z"/><path class="sv_cls-3" d="M113.4,69.78a.89.89,0,0,1-.18-.52,1.14,1.14,0,0,0-.46-.63,1.25,1.25,0,0,0-.22-.1l-.27-.1c-.17.41,0,.83.11,1.21a2.73,2.73,0,0,0,.24.49c.07.14,0,.27.11.38s.24.1.41.28l0,0a.71.71,0,0,1,.1.45c0,.08,0,.14,0,.14l0-.14a1.65,1.65,0,0,1,.18-.48A1.26,1.26,0,0,0,113.4,69.78Z"/><path class="sv_cls-3" d="M113.08,63.54a1.32,1.32,0,0,1,0,.42,3.31,3.31,0,0,0,0,.56l.16.1c.24.14.34.49.45.63a4.92,4.92,0,0,0,.42.45l0,.07a4.48,4.48,0,0,0,0-.45,1.19,1.19,0,0,1,0-.35.61.61,0,0,0-.11-.21h0C113.79,64.44,113.71,63.85,113.08,63.54Z"/><path class="sv_cls-3" d="M113.65,65.25c-.11-.14-.21-.49-.45-.63l-.16-.1a1.85,1.85,0,0,1-.55-.52,2.92,2.92,0,0,0,.14,1.33c.24.45.24.69.52.79a1.32,1.32,0,0,1,.42.25.87.87,0,0,0,.42.17.4.4,0,0,1,.16,0,3.4,3.4,0,0,1,0-.81l0-.07A4.92,4.92,0,0,1,113.65,65.25Z"/><path class="sv_cls-3" d="M115.56,68.7a2,2,0,0,0-.38.91c0,.27-.66.9-.91.9s-.73.59-.73.59a1.91,1.91,0,0,1,0-.28,1.45,1.45,0,0,0-.05.35.43.43,0,0,1,.11-.12.68.68,0,0,1,.43-.12,2.31,2.31,0,0,0,1.56-.53c.25-.24.39-.41.49-.52a2.25,2.25,0,0,0,.42-.73,7.09,7.09,0,0,0,.2-1.11,1.56,1.56,0,0,0-.55.21.84.84,0,0,1-.33.14A.87.87,0,0,1,115.56,68.7Z"/><path class="sv_cls-3" d="M113.47,71.39c0-.05,0-.13,0-.21C113.4,71.34,113.45,71.5,113.47,71.39Z"/><path class="sv_cls-3" d="M113.86,69.61a4.58,4.58,0,0,0-.3,1.12s0,.07,0,.1a1.91,1.91,0,0,0,0,.28s.49-.59.73-.59.88-.63.91-.9a2,2,0,0,1,.38-.91.87.87,0,0,0,.26-.32.82.82,0,0,0,.09-.45c0-.42,0-1.12,0-1.12s-.14.42-.35.52-.59.24-.66.38-.34.14-.45.56a1.59,1.59,0,0,1-.17.52l-.09.15a1.34,1.34,0,0,0-.22.45A2,2,0,0,1,113.86,69.61Z"/><path class="sv_cls-3" d="M115.36,65.34a1.49,1.49,0,0,1-.6.9c-.22.06-.5.73-.5.73a1.78,1.78,0,0,1-.07-.27.8.8,0,0,0,0,.21l0,.13a.44.44,0,0,1,.14-.22.72.72,0,0,1,.28-.15,2.28,2.28,0,0,0,1.29-.91c.15-.28.23-.48.29-.6a1.92,1.92,0,0,0,.18-.78,8.16,8.16,0,0,0-.12-1.08,1.61,1.61,0,0,0-.45.34.5.5,0,0,1-.11.12,1.28,1.28,0,0,1-.19.64A2.67,2.67,0,0,0,115.36,65.34Z"/><path class="sv_cls-3" d="M114.27,67.26a1.25,1.25,0,0,0,0-.2C114.19,67.23,114.28,67.37,114.27,67.26Z"/><path class="sv_cls-3" d="M114.13,65.32a4.48,4.48,0,0,1,0,.45,3.4,3.4,0,0,0,0,.81s0,.09,0,.13a1.78,1.78,0,0,0,.07.27s.28-.67.5-.73a1.49,1.49,0,0,0,.6-.9,2.67,2.67,0,0,1,.17-.93,1.28,1.28,0,0,0,.19-.64.82.82,0,0,0-.05-.3c-.15-.37-.38-.86-.38-.86s-.21.31-.31.5c-.19.36-.36.39-.39.53s-.25.24-.32.53,0,.37,0,.52h0a2.44,2.44,0,0,1-.07.27A1.19,1.19,0,0,0,114.13,65.32Z"/><path class="sv_cls-3" d="M112.1,61a.5.5,0,0,0-.19,0,.13.13,0,0,0-.1,0,.53.53,0,0,0,.16.18,1,1,0,0,1,.29.29h0C112.3,61.32,112.25,61.06,112.1,61Z"/><path class="sv_cls-3" d="M112.9,61.6a1.43,1.43,0,0,0-.46,0,.66.66,0,0,1,.44.19.54.54,0,0,1,0,.41,1.06,1.06,0,0,0,.36.29.88.88,0,0,1,.47.26l0,0v-.31l0,0A2.57,2.57,0,0,1,112.9,61.6Z"/><path class="sv_cls-3" d="M112.21,61a.68.68,0,0,1,.13.52l.06,0h0a1.79,1.79,0,0,0,.11-.5h0a4.08,4.08,0,0,1-.19-.64l-.76-.17a2.34,2.34,0,0,0,.22.73A.51.51,0,0,1,112.21,61Z"/><path class="sv_cls-3" d="M112.85,62.09a.68.68,0,0,0,0-.2c0-.13-.21-.21-.41-.22a.22.22,0,0,1,0,.06c.09.07.24.26.39.43A.14.14,0,0,0,112.85,62.09Z"/><path class="sv_cls-3" d="M113,61.63l-.1,0a2.57,2.57,0,0,0,.79.83c-.13-.18-.27-.36-.33-.46s0-.59.07-.8a.51.51,0,0,0,0-.19A2.75,2.75,0,0,0,113,61.63Z"/><path class="sv_cls-3" d="M113.41,60.89a.64.64,0,0,1,0-.42l0,0a3.75,3.75,0,0,0-.88-.67l-.12-.06,0,.11a2.09,2.09,0,0,0-.08.61,4.08,4.08,0,0,0,.19.64A3.26,3.26,0,0,0,113.41,60.89Z"/><path class="sv_cls-3" d="M113.41,60.89l.16-.06a1,1,0,0,0-.14.14.51.51,0,0,1,0,.19c0,.21-.2.59-.07.8s.2.29.33.46l0,0c.08.11.15.21.21.3h0c.08.15,0-.52.24-.69a.84.84,0,0,0,.24-.7,3.24,3.24,0,0,0-.1-.66c0-.17-.56-.9-.52-1.11l-.37.84,0,0A.64.64,0,0,0,113.41,60.89Z"/><path class="sv_cls-3" d="M111.17,58.7l-.34-.45a5.21,5.21,0,0,1-.42-.56h0l-.1,0a2.48,2.48,0,0,0-.8-.07c.1,0,.34.27.38.41a1.14,1.14,0,0,0,.42.52,2.87,2.87,0,0,1,.52.39,1.47,1.47,0,0,0,.8.17A2.25,2.25,0,0,1,111.17,58.7Z"/><path class="sv_cls-3" d="M112,59l0,.06h0l.07,0Z"/><path class="sv_cls-3" d="M112.07,59.16v0Z"/><path class="sv_cls-3" d="M112,59l0-.07a4.47,4.47,0,0,1-.48-.39c-.21-.2-.1-.48-.21-.62s-.34-.45-.28-.66c0-.06,0-.15.07-.24l-.17-.07-.23-.12-.08,0-.28-.16c-.09-.06-.14.63.07,1h0a5.21,5.21,0,0,0,.42.56l.34.45a2.25,2.25,0,0,0,.46.38c.16.1.3.14.34,0h0Z"/><path class="sv_cls-3" d="M111.31,58c.11.14,0,.42.21.62A4.47,4.47,0,0,0,112,59l.14.1,0,0a1.65,1.65,0,0,1,0-.41,1.83,1.83,0,0,0,0-.73c-.07-.17-.21-.31-.28-.52a1.12,1.12,0,0,0-.28-.52l-.42-.42s-.07.31-.14.56c0,.1,0,.18-.07.24C111,57.51,111.22,57.83,111.31,58Z"/><path class="sv_cls-4" d="M106.74,78.75a.2.2,0,0,0,.2-.21.2.2,0,0,0-.2-.2.2.2,0,0,0-.21.2A.21.21,0,0,0,106.74,78.75Z"/><path class="sv_cls-4" d="M107.92,79.79a.21.21,0,0,0-.21.21.21.21,0,0,0,.21.21.2.2,0,0,0,.2-.21A.21.21,0,0,0,107.92,79.79Z"/><path class="sv_cls-4" d="M110.67,75.62a.22.22,0,0,0,.21-.21.21.21,0,0,0-.21-.21.21.21,0,0,0-.21.21A.21.21,0,0,0,110.67,75.62Z"/><path class="sv_cls-4" d="M112.15,76.24a.23.23,0,1,0,.46,0,.23.23,0,1,0-.46,0Z"/><path class="sv_cls-4" d="M112.69,71.31a.23.23,0,0,0,.23-.23.23.23,0,0,0-.23-.23.24.24,0,0,0-.23.23A.23.23,0,0,0,112.69,71.31Z"/><path class="sv_cls-4" d="M113.9,71.5a.23.23,0,0,0,.23.23.23.23,0,1,0,0-.46A.23.23,0,0,0,113.9,71.5Z"/><path class="sv_cls-4" d="M113.4,67.13a.24.24,0,0,0,.23-.23.23.23,0,0,0-.23-.23.23.23,0,0,0-.23.23A.23.23,0,0,0,113.4,67.13Z"/><path class="sv_cls-4" d="M114.45,62.68a.23.23,0,0,0,.23.22.23.23,0,1,0,0-.45A.23.23,0,0,0,114.45,62.68Z"/><path class="sv_cls-4" d="M113,63.32a.23.23,0,0,0,.23-.23.23.23,0,0,0-.46,0A.23.23,0,0,0,113,63.32Z"/><path class="sv_cls-4" d="M111.67,59.57a.23.23,0,0,0-.23-.22.23.23,0,1,0,0,.45A.23.23,0,0,0,111.67,59.57Z"/><path class="sv_cls-4" d="M112.43,58.6a.23.23,0,0,0,.23.23.23.23,0,0,0,.23-.23.24.24,0,0,0-.23-.23A.23.23,0,0,0,112.43,58.6Z"/><path class="sv_cls-4" d="M110.45,56.23a.23.23,0,0,0-.23-.23.23.23,0,1,0,.12.41h0A.22.22,0,0,0,110.45,56.23Z"/><path class="sv_cls-4" d="M115,66.94a.22.22,0,0,0,.22.22.22.22,0,1,0,0-.44A.22.22,0,0,0,115,66.94Z"/><path class="sv_cls-4" d="M92.87,78.75a.21.21,0,0,0,.21-.21.2.2,0,0,0-.21-.2.21.21,0,1,0,0,.41Z"/><path class="sv_cls-4" d="M91.9,80a.21.21,0,0,0-.21-.21.22.22,0,0,0-.21.21.21.21,0,0,0,.21.21A.21.21,0,0,0,91.9,80Z"/><path class="sv_cls-4" d="M88.72,75.4a.21.21,0,0,0,.21.21.22.22,0,0,0,.21-.21.21.21,0,0,0-.21-.21A.21.21,0,0,0,88.72,75.4Z"/><path class="sv_cls-4" d="M87.23,76.47a.23.23,0,0,0,.23-.23.24.24,0,0,0-.23-.23.23.23,0,0,0-.23.23A.23.23,0,0,0,87.23,76.47Z"/><path class="sv_cls-4" d="M86.92,70.85a.23.23,0,0,0-.23.23.23.23,0,0,0,.23.23.23.23,0,0,0,.23-.23A.24.24,0,0,0,86.92,70.85Z"/><path class="sv_cls-4" d="M85.71,71.5a.23.23,0,0,0-.23-.23.23.23,0,0,0,0,.46A.23.23,0,0,0,85.71,71.5Z"/><path class="sv_cls-4" d="M86.21,66.67a.23.23,0,0,0-.23.23.23.23,0,1,0,.46,0A.23.23,0,0,0,86.21,66.67Z"/><path class="sv_cls-4" d="M85.16,62.68a.23.23,0,0,0-.23-.23.23.23,0,1,0,0,.45A.23.23,0,0,0,85.16,62.68Z"/><path class="sv_cls-4" d="M86.56,62.86a.23.23,0,0,0-.23.23.23.23,0,0,0,.46,0A.23.23,0,0,0,86.56,62.86Z"/><path class="sv_cls-4" d="M87.94,59.57a.23.23,0,0,0,.23.23.23.23,0,1,0,0-.45A.23.23,0,0,0,87.94,59.57Z"/><path class="sv_cls-4" d="M87.18,58.6a.23.23,0,1,0-.46,0,.23.23,0,0,0,.46,0Z"/><path class="sv_cls-4" d="M89.27,56.41a.21.21,0,0,0,.35-.18.23.23,0,0,0-.46,0,.21.21,0,0,0,.11.18h0Z"/><path class="sv_cls-4" d="M84.64,66.94a.23.23,0,0,0-.23-.22.22.22,0,0,0,0,.44A.23.23,0,0,0,84.64,66.94Z"/><path class="sv_cls-3" d="M85.75,69.61v-.17a13.06,13.06,0,0,1-.36-2.08c0-.12,0-.26,0-.4l0,.1c0,.17,0,.31,0,.2a1.49,1.49,0,0,1,0-.2.41.41,0,0,0-.14-.22c0,.09,0,.17,0,.26A9.48,9.48,0,0,0,85.46,69a1.35,1.35,0,0,1,.22.45C85.69,69.45,85.72,69.53,85.75,69.61Z"/><path class="sv_cls-3" d="M87.21,59.83l.41-.71-.07,0v0l.08-.12,0-.07-.14.11-.4.68.12-.06Z"/><path class="sv_cls-3" d="M87,73.48a1.22,1.22,0,0,1-.28-.8c-.2-.56-.37-1.13-.53-1.68,0-.09-.08-.18-.12-.28s0,.07,0,.1a1.23,1.23,0,0,1,.06.37c.09.16,0,.32,0,.21s0-.13,0-.21A.37.37,0,0,0,86,71c.06.2.11.38.13.48.08.32.19.71.32,1.12a.59.59,0,0,1,.06.09C86.7,73.13,86.84,73.45,87,73.48Z"/><path class="sv_cls-3" d="M85.54,64.76h0a16.41,16.41,0,0,1,.36-2h0v-.31c-.08.11-.15.21-.2.3a17.47,17.47,0,0,0-.33,2c0,.07,0,.14.07.23A.62.62,0,0,1,85.54,64.76Z"/><path class="sv_cls-3" d="M97.45,81.28l.32.33-.54-.25a3.28,3.28,0,0,0-.48.09l.76.2.18,0,.42.08c0-.05,0-.11-.08-.2a4.75,4.75,0,0,1-.57-.3Z"/><path class="sv_cls-3" d="M101.65,82.83a.86.86,0,0,1,.15.24l.48.25c.14.11.45.73.59.73l1,.07a10.67,10.67,0,0,0-1.78-1.47c-.14-.07-.57-.22-1.11-.39A4.34,4.34,0,0,1,101.65,82.83Z"/><path class="sv_cls-3" d="M95.92,81a4.33,4.33,0,0,1-.7-.17l.47.19h0c.19,0,1.15.23,1.45.31l-.51-.24Z"/><path class="sv_cls-3" d="M87.77,75.22a1.18,1.18,0,0,0,.14.46l-.19-.26.15.31A1.33,1.33,0,0,1,88,76l-.2-.74Z"/><path class="sv_cls-3" d="M91.59,78.94l.39.28a3.24,3.24,0,0,0-.42-.11l.12.08a3.85,3.85,0,0,1,.61.27,2.23,2.23,0,0,1-.41-.34,1.84,1.84,0,0,0-.29-.18Z"/><path class="sv_cls-3" d="M99.63,81.84l0,.26c0-.07,0-.16,0-.25h0Z"/><path class="sv_cls-3" d="M100.43,82.19v-.06a.21.21,0,0,1,0,.07.11.11,0,0,1-.09.06l-.12,0-.23,0,.82.32A1.14,1.14,0,0,0,100.43,82.19Z"/><path class="sv_cls-3" d="M98.79,81.93l.3.08.22-.1Z"/><path class="sv_cls-3" d="M94.61,80.59c.24.07.31.18.49.21a2.62,2.62,0,0,1-.84-.56L93.8,80c-.47-.24-1-.53-1.46-.83a1.82,1.82,0,0,1-.67-.31l.22.23a2,2,0,0,1,.41.34l-.13,0c.56.34,1.13.66,1.68.93l.11,0A1.6,1.6,0,0,1,94.61,80.59Z"/><path class="sv_cls-3" d="M89.53,77.23l-.07-.11a5.59,5.59,0,0,1-1.37-1.4L88,76c0,.06-.06.05-.16,0a5.49,5.49,0,0,0,.6.66l.38.1A1.25,1.25,0,0,1,89.53,77.23Z"/><path class="sv_cls-3" d="M89.27,56.41h0l-.35.46.09,0Z"/><path class="sv_cls-3" d="M99.67,82.19h0v0Z"/><path class="sv_cls-3" d="M88,71.87a.67.67,0,0,1-.07.42,1.39,1.39,0,0,0-.13.61,1.36,1.36,0,0,1,0,.29,2.87,2.87,0,0,1,0,.29,1.52,1.52,0,0,1,0,.44v0a7.37,7.37,0,0,0,0,1.13l.05.2L88,76l.07-.3a.75.75,0,0,1,.14-.36,2.69,2.69,0,0,0,.52-.8,1.91,1.91,0,0,0,0-.63,5.83,5.83,0,0,1,.1-.62v0h-.68l.39-.65h0A3.56,3.56,0,0,1,88,71.87Z"/><path class="sv_cls-3" d="M87.77,75.22s0-.09,0-.13a7.37,7.37,0,0,1,0-1.13c0-.06,0-.11,0-.13s0-.21,0-.34a2.87,2.87,0,0,0,0-.29,1.36,1.36,0,0,0,0-.29,1.25,1.25,0,0,1-.06-.47,2.05,2.05,0,0,0,.06-.73,6.92,6.92,0,0,0-.13-.83c0,.38-.32.38-.46.76a1.74,1.74,0,0,1-.31.56,1.06,1.06,0,0,0-.17.48,1.22,1.22,0,0,0,.28.8c.14,0,.34.52.41,1a4.11,4.11,0,0,0,.33.93l.19.26A1.18,1.18,0,0,1,87.77,75.22Z"/><path class="sv_cls-3" d="M96.65,81.1a6.61,6.61,0,0,1-.74-.38,5.74,5.74,0,0,1-.64-.59c-.17-.19-.88-.55-1-.78,0-.06-.11-.18-.21-.33-.29,0-.8,0-.59.06s.05.39.69,1.08l.09.08a2.62,2.62,0,0,0,.84.56l.12,0a4.33,4.33,0,0,0,.7.17Z"/><path class="sv_cls-3" d="M97.45,81.28h0a2.72,2.72,0,0,1-.79-.68C96.2,80,96.2,80.18,96,80a5.16,5.16,0,0,1-.89-1s-.08-.3-.18-.65l-.34-.13s-1.25-.33-1.12-.08.41.67.58.93.18.27.21.33c.12.23.83.59,1,.78a5.74,5.74,0,0,0,.64.59,6.61,6.61,0,0,0,.74.38l.51.24.1,0h0l.54.25Z"/><path class="sv_cls-3" d="M97.71,80.92c-.1-.26-.28-.36-.27-.67a1.48,1.48,0,0,0-.27-.82c-.17-.28-.22-.88-.59-1.12a6.4,6.4,0,0,0-.88-.63c-.42-.18-.94-.35-1-.25a5.51,5.51,0,0,0,.21.88c.1.36.19.68.18.65A5.16,5.16,0,0,0,96,80c.19.2.19,0,.64.61a2.72,2.72,0,0,0,.79.68h0a4.75,4.75,0,0,0,.57.3c0-.11-.07-.26-.11-.44A.49.49,0,0,1,97.71,80.92Z"/><path class="sv_cls-3" d="M98.13,81.32h0Z"/><path class="sv_cls-3" d="M94.6,81.12A8.71,8.71,0,0,1,95.69,81l-.47-.19-.12,0c-.18,0-.25-.14-.49-.21a1.6,1.6,0,0,0-.66-.12l-.21,0a3.8,3.8,0,0,1-1.29.14c-.19-.1.22.46.48.68a2.16,2.16,0,0,0,.4-.1A6.59,6.59,0,0,1,94.6,81.12Z"/><path class="sv_cls-3" d="M95,81.86a5.75,5.75,0,0,0,1-.22,2.31,2.31,0,0,1,.43-.07l.33-.11a3.28,3.28,0,0,1,.48-.09h0l-.1,0c-.3-.07-1.27-.31-1.45-.31h0a8.71,8.71,0,0,0-1.09.09,6.59,6.59,0,0,0-1.28.08,2.16,2.16,0,0,1-.4.1,4.13,4.13,0,0,1-1.18.09c-.28-.06.56.75.89.84l.29.08c.39-.14.78-.3.92-.35C94.4,81.74,94.68,81.91,95,81.86Z"/><path class="sv_cls-3" d="M98.12,81.83l-.44-.13-.18,0a3.87,3.87,0,0,0-1.08-.09,2.31,2.31,0,0,0-.43.07,5.75,5.75,0,0,1-1,.22c-.33.05-.61-.12-1.16.1-.14.06-.54.22-.92.35a3,3,0,0,1-.82.21c-.29,0,.92.77,1.25.72,1.07-.15,2.07.21,2.56,0s.7-.29.93-.36.34-.28.48-.38a1.76,1.76,0,0,1,1-.6h-.16Z"/><path class="sv_cls-3" d="M89.68,77.9l.5.18c-.19-.26-.49-.61-.65-.85a1.25,1.25,0,0,0-.68-.43l-.38-.1a1.1,1.1,0,0,1-.49-.23c-.13-.19,0,.61.18.88l.37,0C88.77,77.36,89.43,77.84,89.68,77.9Z"/><path class="sv_cls-3" d="M89.75,78.7a6.22,6.22,0,0,0,1,.23,5.87,5.87,0,0,1,.61.14l.25,0a3.24,3.24,0,0,1,.42.11l-.39-.28c-.26-.1-1.2-.38-1.27-.62a1,1,0,0,0-.14-.25l-.5-.18c-.25-.07-.9-.54-1.16-.54l-.37,0a1.25,1.25,0,0,1-.61-.17c-.23-.18,0,.63.22.86.54.48.49.56.58.59a2.05,2.05,0,0,1,.42-.06A3,3,0,0,1,89.75,78.7Z"/><path class="sv_cls-3" d="M91.69,79.19l-.37-.12a5.87,5.87,0,0,0-.61-.14,6.22,6.22,0,0,1-1-.23,3,3,0,0,0-1-.13,2.05,2.05,0,0,0-.42.06,3.05,3.05,0,0,1-1.29.13c-.25-.14.28.35.6.47s.4.47.9.63a3.92,3.92,0,0,0,1.41.32,4.56,4.56,0,0,1,.76-.19,11,11,0,0,1,1.43-.51l.13,0A3.85,3.85,0,0,0,91.69,79.19Z"/><path class="sv_cls-3" d="M92.45,77.62a1.21,1.21,0,0,1-.28-.66,2.54,2.54,0,0,0-.38-1,2.49,2.49,0,0,1-.35-1.19s-.73.72-.69,1.19a2,2,0,0,1,0,.47,3.13,3.13,0,0,1,.33.79c0,.24.21,1,.25,1.21a1.64,1.64,0,0,0,.34.47,1.82,1.82,0,0,0,.67.31h.07S92.67,77.93,92.45,77.62Z"/><path class="sv_cls-3" d="M91.89,79.13a2.23,2.23,0,0,0,.41.34A2,2,0,0,0,91.89,79.13Z"/><path class="sv_cls-3" d="M91.33,78.43c0-.17-.21-1-.25-1.21a3.13,3.13,0,0,0-.33-.79,2.9,2.9,0,0,0-.16-.27,2.11,2.11,0,0,1-.25-.66l-.27-.9c-.25.11-.49.69-.59.94a4,4,0,0,0-.21.83,2.11,2.11,0,0,0,.14.66.35.35,0,0,0,0,.1l.07.11c.16.24.46.59.65.85a1,1,0,0,1,.14.25c.07.24,1,.51,1.27.62h0a1.84,1.84,0,0,1,.29.18l-.22-.23A1.64,1.64,0,0,1,91.33,78.43Z"/><path class="sv_cls-3" d="M88,76a1.33,1.33,0,0,0-.15-.3Z"/><path class="sv_cls-3" d="M88,76s-.9-.63-1.12-.6a2.13,2.13,0,0,1-1.25-1.14c0-.24-.51-.58-.59-.73a3.07,3.07,0,0,1-.23-.56,3.16,3.16,0,0,0-1.1,0A3.56,3.56,0,0,1,84.67,74a3.78,3.78,0,0,0,.59,1c.11.07.42.45.63.66s1,.1,1.32.1a2.62,2.62,0,0,1,.64.2C88,76.08,88,76.09,88,76Z"/><path class="sv_cls-3" d="M85.65,74.28a2.13,2.13,0,0,0,1.25,1.14c.21,0,1.12.6,1.12.6l-.15-.3-.15-.31a4.11,4.11,0,0,1-.33-.93c-.07-.49-.27-1-.41-1s-.28-.35-.46-.73a.59.59,0,0,0-.06-.09,1.25,1.25,0,0,0-.94-.43c-.24,0-1.19-.28-1.19-.28a2.39,2.39,0,0,1,.5,1,3.07,3.07,0,0,0,.23.56C85.14,73.7,85.61,74,85.65,74.28Z"/><path class="sv_cls-3" d="M86.32,71.28a1.61,1.61,0,0,0-.19-.48,1.27,1.27,0,0,1,.07-1,.88.88,0,0,0,.18-.52,1.09,1.09,0,0,1,.45-.63l.22-.1a1,1,0,0,1,.05-.24A3.76,3.76,0,0,0,87,67a3.13,3.13,0,0,0-.42.38c-.14.17-.38.24-.45.45s-.21.21-.31.42a1.29,1.29,0,0,0-.14.83,1.2,1.2,0,0,1,0,.39v.17a4.46,4.46,0,0,1,.3,1.1c0,.1.08.2.12.28a1.87,1.87,0,0,0,.15.28Z"/><path class="sv_cls-3" d="M86.33,71.28s.08-.18.1-.45A.73.73,0,0,0,86.33,71.28Z"/><path class="sv_cls-3" d="M86.38,69.26a.88.88,0,0,1-.18.52,1.27,1.27,0,0,0-.07,1,1.61,1.61,0,0,1,.19.48c0,.08,0,.14,0,.14s0-.06,0-.14a.73.73,0,0,1,.1-.45l0,0c.17-.18.34-.18.41-.28s0-.24.11-.38a2.61,2.61,0,0,0,.24-.49c.07-.38.28-.8.1-1.21l-.26.1-.22.1A1.09,1.09,0,0,0,86.38,69.26Z"/><path class="sv_cls-3" d="M86,65.25c.1-.14.21-.49.45-.63l.15-.1a2.46,2.46,0,0,0-.05-.56,1.73,1.73,0,0,1,0-.42c-.62.32-.69.91-1,1.22h0a.62.62,0,0,0-.11.21,1,1,0,0,1,0,.36c0,.09,0,.26,0,.45l0-.07A4.41,4.41,0,0,0,86,65.25Z"/><path class="sv_cls-3" d="M86,66.37a1.35,1.35,0,0,1,.42-.25c.27-.1.27-.34.52-.79A2.92,2.92,0,0,0,87.12,64a1.91,1.91,0,0,1-.55.52l-.15.1c-.24.14-.35.49-.45.63a4.41,4.41,0,0,1-.42.45l0,.07a3.48,3.48,0,0,1,0,.8.41.41,0,0,1,.15,0A.9.9,0,0,0,86,66.37Z"/><path class="sv_cls-3" d="M86.11,71.18a1.23,1.23,0,0,0-.06-.37,1.68,1.68,0,0,1,0,.3s-.48-.59-.73-.59-.86-.63-.9-.9A2,2,0,0,0,84,68.7a.89.89,0,0,1-.26-.32.85.85,0,0,1-.33-.14,1.57,1.57,0,0,0-.56-.21,8.9,8.9,0,0,0,.21,1.11,2.06,2.06,0,0,0,.42.73c.1.11.24.28.48.52a2.37,2.37,0,0,0,1.58.53A.68.68,0,0,1,86,71,.37.37,0,0,1,86.11,71.18Z"/><path class="sv_cls-3" d="M86.11,71.18c0,.08,0,.16,0,.21S86.21,71.34,86.11,71.18Z"/><path class="sv_cls-3" d="M84,68.7a2,2,0,0,1,.38.91c0,.27.66.9.9.9s.73.59.73.59a1.68,1.68,0,0,0,0-.3s0-.07,0-.1a4.46,4.46,0,0,0-.3-1.1c0-.08-.06-.16-.07-.21a1.35,1.35,0,0,0-.22-.45l-.09-.14a1.59,1.59,0,0,1-.17-.52c-.11-.42-.39-.42-.46-.56s-.45-.28-.66-.38-.34-.52-.34-.52,0,.69,0,1.12a.85.85,0,0,0,.09.45A.89.89,0,0,0,84,68.7Z"/><path class="sv_cls-3" d="M85.38,67.06a1.49,1.49,0,0,0,0,.2C85.33,67.37,85.42,67.23,85.38,67.06Z"/><path class="sv_cls-3" d="M85.38,67.06l0-.1a.91.91,0,0,0,0-.24,1.78,1.78,0,0,1-.07.27s-.28-.67-.5-.73a1.48,1.48,0,0,1-.6-.9,3,3,0,0,0-.17-.93,1.2,1.2,0,0,1-.19-.63.58.58,0,0,1-.12-.12,1.48,1.48,0,0,0-.44-.34,6.55,6.55,0,0,0-.12,1.08,2.09,2.09,0,0,0,.17.78c.07.12.15.32.3.6a2.2,2.2,0,0,0,1.29.91.72.72,0,0,1,.28.15A.41.41,0,0,1,85.38,67.06Z"/><path class="sv_cls-3" d="M84.24,65.34a1.48,1.48,0,0,0,.6.9c.22.06.5.73.5.73a1.78,1.78,0,0,0,.07-.27s0-.09,0-.14a3.48,3.48,0,0,0,0-.8c0-.19,0-.36,0-.45a1,1,0,0,0,0-.36c0-.09-.05-.17-.07-.23v0c0-.15.1-.13,0-.52s-.3-.38-.32-.53-.21-.17-.39-.53c-.11-.19-.31-.5-.31-.5s-.23.49-.38.86a.86.86,0,0,0,0,.3,1.2,1.2,0,0,0,.19.63A3,3,0,0,1,84.24,65.34Z"/><path class="sv_cls-3" d="M87.64,61.24a.51.51,0,0,0,.16-.18.13.13,0,0,0-.1,0,.45.45,0,0,0-.19,0c-.14,0-.2.28-.17.49h0A1,1,0,0,1,87.64,61.24Z"/><path class="sv_cls-3" d="M86.38,62.49a1,1,0,0,0,.36-.29.49.49,0,0,1,0-.41.66.66,0,0,1,.44-.19,1.38,1.38,0,0,0-.46,0,2.61,2.61,0,0,1-.79.83l0,0v.31h0C85.94,62.67,86.14,62.56,86.38,62.49Z"/><path class="sv_cls-3" d="M87.1,61.08a1.51,1.51,0,0,0,.11.5h0l.06,0A.69.69,0,0,1,87.4,61a.51.51,0,0,1,.43,0,2.56,2.56,0,0,0,.22-.73l-.76.17a4.64,4.64,0,0,1-.19.64Z"/><path class="sv_cls-3" d="M86.75,61.89a.68.68,0,0,0,0,.2.17.17,0,0,0,0,.07c.16-.17.31-.36.4-.43a.14.14,0,0,1,0-.06C87,61.68,86.76,61.76,86.75,61.89Z"/><path class="sv_cls-3" d="M86.2,60.89a3.24,3.24,0,0,0,.89.19,4.64,4.64,0,0,0,.19-.64,2.22,2.22,0,0,0-.08-.6l0-.12-.12.06a4,4,0,0,0-.88.66l0,0A.61.61,0,0,1,86.2,60.89Z"/><path class="sv_cls-3" d="M86.71,61.6l-.1,0a2.91,2.91,0,0,0-.42-.65.5.5,0,0,0,0,.19c0,.21.2.59.07.8s-.2.29-.33.46A2.61,2.61,0,0,0,86.71,61.6Z"/><path class="sv_cls-3" d="M85.91,62.43c.13-.18.27-.36.33-.46s0-.59-.07-.8a.5.5,0,0,1,0-.19.9.9,0,0,0-.14-.14l.16.06a.61.61,0,0,0,0-.42l0,0-.36-.83c0,.21-.49.94-.52,1.11a2.68,2.68,0,0,0-.1.66.84.84,0,0,0,.24.7c.21.17.15.84.24.69h0c.05-.09.12-.19.2-.3Z"/><path class="sv_cls-3" d="M88.78,58.24l-.35.45a2,2,0,0,1-.45.38,1.46,1.46,0,0,0,.8-.17,2.49,2.49,0,0,1,.52-.39,1.2,1.2,0,0,0,.42-.52c0-.14.28-.41.38-.41a2.5,2.5,0,0,0-.8.07l-.1,0h0A6.54,6.54,0,0,1,88.78,58.24Z"/><path class="sv_cls-3" d="M87.62,59l-.08.12.07,0h0Z"/><path class="sv_cls-3" d="M87.53,59.18v0Z"/><path class="sv_cls-3" d="M88.3,58c-.11.14,0,.42-.21.62a5,5,0,0,1-.48.39l0,.07,0,.06h0c0,.11.19.06.34,0a2,2,0,0,0,.45-.38l.35-.45a6.54,6.54,0,0,0,.42-.56h0c.21-.38.16-1.07.07-1l-.27.16-.09,0-.23.12-.18.07c0,.09,0,.18.07.24C88.64,57.51,88.39,57.83,88.3,58Z"/><path class="sv_cls-3" d="M88.09,58.58c.21-.2.1-.48.21-.62s.34-.45.27-.66c0-.06,0-.14-.07-.24-.06-.25-.13-.56-.13-.56l-.42.42a1,1,0,0,0-.28.52c-.07.21-.21.35-.28.52a1.7,1.7,0,0,0,0,.73,1.65,1.65,0,0,1,0,.41l0,0,.14-.11A5,5,0,0,0,88.09,58.58Z"/><path class="sv_cls-2" d="M99.29,54.48a.28.28,0,0,1,0-.07.33.33,0,0,1,0-.06.75.75,0,0,1,0-.1,1.19,1.19,0,0,1,.08-.26l.07-.17a6.23,6.23,0,0,0,.35-1c.1-.37.21-1.14.23-1.32v0c0-.05,0-.11,0-.17s-.09-.23-.13-.34a.54.54,0,0,1-.08-.25V50.6a.11.11,0,0,0,0,.1,1.19,1.19,0,0,1-.22.59l-.19-.05a15.76,15.76,0,0,0-.86,2.59,11.45,11.45,0,0,0,.09,1.94l.73-1.2,0,0Z"/><path class="sv_cls-1" d="M100.24,52.89l-.2-1.4v0c0,.19-.14,1-.23,1.32a6.23,6.23,0,0,1-.35,1l-.07.17a1.61,1.61,0,0,0-.08.26.75.75,0,0,0,0,.1.33.33,0,0,0,0,.06.28.28,0,0,0,0,.07l0,.05,0,0,.46-.77.11.12A1.87,1.87,0,0,0,100.24,52.89Z"/><path class="sv_cls-2" d="M100.24,54.52c0-.07,0,0,.11-.26a4.53,4.53,0,0,0-.1-1.38,1.87,1.87,0,0,1-.33,1l.24.46Z"/><path class="sv_cls-5" d="M99.8,50.55v.18a.54.54,0,0,0,.08.25c0,.11,0,.29.13.34h0c.15.05.36-.2.45-.33a1.32,1.32,0,0,0-.48-.4.13.13,0,0,1-.11,0Z"/><path class="sv_cls-5" d="M99.78,50.7a.11.11,0,0,1,0-.1v-.05h0l0,0-.14.06a1,1,0,0,0-.25.19c-.09.08-.23.17-.18.25a.42.42,0,0,0,.24.22l.19.05A1.19,1.19,0,0,0,99.78,50.7Z"/><path class="sv_cls-5" d="M99.93,50.4c.14-.16.37-.28.48-.19s.11.07.14.13,0,.1,0,.18-.33.09-.48,0a.39.39,0,0,0-.13-.07s0,0,0,0,0,0,0,0a3.31,3.31,0,0,1,.4.2c.12,0,.34-.11.33-.22s-.21-.36-.31-.36a.7.7,0,0,0-.48.24Z"/><path class="sv_cls-5" d="M99.68,50.47l-.1.06c-.14.08-.39.17-.47,0s0-.12,0-.18a.51.51,0,0,1,.14-.13c.11-.09.31,0,.44.16l.07,0a.65.65,0,0,0-.45-.22c-.1,0-.31.22-.32.36s.21.27.33.22l.23-.12.14-.06Z"/><path class="sv_cls-5" d="M99.71,50.37l0,0a.12.12,0,0,0,0,.06l0,0,0,0h.13s0,0,.05-.05,0,0,0,0,0,0,0,0a.07.07,0,0,0,0-.06l-.06,0-.05,0h0v0h0Z"/><path class="sv_cls-5" d="M99.81,50.33a2.43,2.43,0,0,1,.36-.46,2.65,2.65,0,0,1-.36-.93h0a3,3,0,0,1-.38.91,1.23,1.23,0,0,1,.37.48h0Z"/><path class="sv_cls-1" d="M105,60.86a6.64,6.64,0,0,1-.23,1.18l1.45,2.44a12.38,12.38,0,0,0,.68-3c-.07-1.65-.05-2.14-.2-3.83L105,59.6A5.71,5.71,0,0,1,105,60.86Z"/><path class="sv_cls-2" d="M105,60.86a5.71,5.71,0,0,0,0-1.26l-1,1.14.33.55.47.75A6.64,6.64,0,0,0,105,60.86Z"/><path class="sv_cls-2" d="M108.67,55.6c.05,0,.05-.12,0-.19l-2,2.25c.15,1.69.13,2.18.2,3.83a12.38,12.38,0,0,1-.68,3l.44.74,2.43-1.59c0-.38.06-.8.06-1a26.11,26.11,0,0,0,0-3.1,23.56,23.56,0,0,1-.29-3.3h-.18A1.31,1.31,0,0,1,108.67,55.6Z"/><path class="sv_cls-2" d="M108.8,55.31l-.05.06.06.07S108.8,55.36,108.8,55.31Z"/><path class="sv_cls-5" d="M108.7,55.38s0-.08,0-.06l0,0,0,0h0a.2.2,0,0,1-.11-.09l-4.8,5.33.11.18Z"/><path class="sv_cls-5" d="M108.64,55.11a.42.42,0,0,0-.15,0c-.17,0-.42-.08-.38-.28a.13.13,0,0,1,.12-.14.48.48,0,0,1,.19,0c.14,0,.26.22.28.44h.07a.7.7,0,0,0-.25-.47.52.52,0,0,0-.47.11.29.29,0,0,0,.15.37,3.89,3.89,0,0,1,.44.07s0,0,0,0Z"/><path class="sv_cls-5" d="M108.89,55.18c.2,0,.41,0,.46.12a.64.64,0,0,1,0,.19c0,.09,0,.12-.09.16s-.32-.11-.39-.27l0-.1,0,0c.06.1.11.21.2.36a.28.28,0,0,0,.39,0,.49.49,0,0,0,0-.47.62.62,0,0,0-.49-.08h0A.11.11,0,0,1,108.89,55.18Z"/><path class="sv_cls-5" d="M108.76,55.31h.05l0,0s0,0,0,0a.19.19,0,0,0,0-.06.11.11,0,0,0,0-.06h0v0h-.14a.06.06,0,0,0-.05,0h0s0,0,0,0a.12.12,0,0,0,0,.07A.2.2,0,0,0,108.76,55.31Z"/><path class="sv_cls-5" d="M108.83,55.13h0a1.2,1.2,0,0,1,.57-.11,2.27,2.27,0,0,1,.35-.9,3.6,3.6,0,0,1-1,.48,1.56,1.56,0,0,1,0,.51Z"/><path class="sv_cls-5" d="M108.7,55.38a.12.12,0,0,1,0,0c0,.07,0,.16,0,.19a1.31,1.31,0,0,0,0,.63h.18a.43.43,0,0,0,.31-.11c.07-.06,0-.19-.08-.3a.9.9,0,0,0-.18-.29l-.09-.1-.06-.07v0l0,0S108.69,55.34,108.7,55.38Z"/><path class="sv_cls-2" d="M107.94,64.65l-.18.12-1,.65.7,1.21.12.2a4.83,4.83,0,0,0,.3-1A4.32,4.32,0,0,0,107.94,64.65Z"/><path class="sv_cls-5" d="M106.78,65.42h0l1-.65,2.1-1.4h0l.86-.56,1.49-1s0-.07,0-.06l0,0,0,0a.19.19,0,0,1-.09-.13v0l-3.1,2-2.43,1.59Z"/><path class="sv_cls-2" d="M111.35,71.88a6.14,6.14,0,0,0,.21-.83c.05-.25.06-.53.11-.79a10.14,10.14,0,0,0,.44-1.44,22.07,22.07,0,0,0,.31-3,20.22,20.22,0,0,1-.17-3.08,1.05,1.05,0,0,1-.28-.08,1.26,1.26,0,0,1,.16-.61c.06,0,.07-.11.08-.19l-1.49,1-.86.56h0c.09,1.58,0,2,0,3.56a7.73,7.73,0,0,1-.73,2.55l1.74,2.91A1.18,1.18,0,0,0,111.35,71.88Z"/><path class="sv_cls-5" d="M112.21,61.54a.43.43,0,0,0-.14-.06c-.16-.06-.39-.18-.31-.37l0-.06a.13.13,0,0,1,.1,0,.5.5,0,0,1,.19,0c.14,0,.2.29.17.49l.07,0a.68.68,0,0,0-.13-.52.51.51,0,0,0-.43,0l0,0a.29.29,0,0,0,.05.4c.18.08.3.1.42.17s0,0,0,0Z"/><path class="sv_cls-5" d="M112.82,62.26a.22.22,0,0,0,0-.06.54.54,0,0,0,0-.41.66.66,0,0,0-.44-.19h0a.1.1,0,0,1,0,.06c.2,0,.4.09.41.22a.68.68,0,0,1,0,.2.14.14,0,0,1,0,.07.14.14,0,0,1-.09.06c-.2.06-.29-.18-.32-.35l0-.11h0c0,.11.05.23.11.39S112.73,62.34,112.82,62.26Z"/><path class="sv_cls-5" d="M112.28,61.77h.1s0,0,0,0a.22.22,0,0,0,0-.06.1.1,0,0,0,0-.06h0v0h0l-.06,0-.07,0h0a.06.06,0,0,0-.05,0h0s0,0,0,0a.12.12,0,0,0,0,.05A.19.19,0,0,0,112.28,61.77Z"/><path class="sv_cls-5" d="M112.9,61.6l.1,0a2.75,2.75,0,0,1,.42-.66,1,1,0,0,1,.14-.14l-.16.06a3.26,3.26,0,0,1-.89.19h0a1.79,1.79,0,0,1-.11.5v0h.05A1.43,1.43,0,0,1,112.9,61.6Z"/><path class="sv_cls-5" d="M112.13,62a1.26,1.26,0,0,0-.16.61,1.05,1.05,0,0,0,.28.08.41.41,0,0,0,.22,0c.09-.05,0-.2,0-.32a.78.78,0,0,0-.1-.32l-.12-.22,0,0s0,0,0,.06a.06.06,0,0,1,0,0C112.2,61.91,112.19,62,112.13,62Z"/><path class="sv_cls-2" d="M100.22,73.55l.13.23,0,.06a.51.51,0,0,0,.17.2h0l.18.14c.09.06.16.14.25.15a7.54,7.54,0,0,1,1,.27c.37.11.17.09.45.16.13,0,.42.14.55.16a5.74,5.74,0,0,1,.56.14,7,7,0,0,0,2,.07,3.37,3.37,0,0,0,1.18-.32c.41-.29,1.31-.4,1.71-.68.06,0,.31-.16.36-.21a8.42,8.42,0,0,1,1.12-.67H107a5.71,5.71,0,0,1-1.38.7,2.55,2.55,0,0,1-1.46.56,5.62,5.62,0,0,1-1.35-.17c-.62-.08.08,0-.52-.11-.3-.07-.3-.12-.65-.2h0l-.1,0a1.26,1.26,0,0,1-.81-.41.52.52,0,0,1-.14-.34h-.42a.69.69,0,0,0,0,.27Z"/><path class="sv_cls-1" d="M103.24,73.64h0a3.24,3.24,0,0,1-.66.28,2.2,2.2,0,0,0-.43.06,2,2,0,0,1-.39.05h-.12c.35.08.35.13.65.2.6.13-.1,0,.52.11a5.62,5.62,0,0,0,1.35.17A2.55,2.55,0,0,0,105.6,74a5.71,5.71,0,0,0,1.38-.7H103.8c-.16.08-.28.2-.48.32Z"/><path class="sv_cls-2" d="M101.55,74a.78.78,0,0,0,.2,0,2,2,0,0,0,.39-.05,2.1,2.1,0,0,1,.43-.06,3.24,3.24,0,0,0,.66-.28h0l.08-.05a4.93,4.93,0,0,1,.48-.32h-3.21a.52.52,0,0,0,.14.34A1.26,1.26,0,0,0,101.55,74Z"/><path class="sv_cls-5" d="M91.29,84.41h0l-.1-1.2-.55-.28.18,1.29a.68.68,0,0,0-.8.37.74.74,0,0,0,.43,1.07l.62.32,1.15-2.25-.46-.23Zm-.51.94-.06,0c-.21-.11-.35-.24-.23-.49s.33-.23.55-.12l.06,0Z"/><polygon class="sv_cls-5" points="89.08 81.9 88.84 82.26 89.55 82.73 89.16 83.3 88.49 82.84 88.25 83.2 88.93 83.65 88.62 84.11 87.92 83.65 87.68 84 88.8 84.75 90.21 82.67 89.08 81.9"/><path class="sv_cls-5" d="M88.16,81.17l-.61.71-.2-.16a.73.73,0,0,0-1.15.06c-.37.44-.23.83.19,1.19l.52.45,1.64-1.92ZM86.8,82.73l-.07-.06c-.19-.16-.3-.31-.11-.54s.34-.17.55,0l.08.06Z"/><path class="sv_cls-5" d="M86.32,79.31a.94.94,0,0,0-1.46,0l-1.12,1,.34.37,1-.94c.23-.21.58-.48.87-.16s0,.64-.25.84l-1,1,.34.38,1.11-1A.93.93,0,0,0,86.32,79.31Z"/><path class="sv_cls-5" d="M84.76,77.43a.73.73,0,0,0-1.07-.29.61.61,0,0,0-.26.73.54.54,0,0,0-.53.09c-.41.28-.4.63-.12,1l.36.52,2.08-1.43Zm-1.58,1.42,0-.05c-.11-.16-.14-.31.06-.44s.31-.08.43.1l0,.05Zm.84-.59,0-.06c-.13-.19-.27-.41,0-.58s.39,0,.53.2l.06.08Z"/><polygon class="sv_cls-5" points="83.38 75.11 83.01 75.31 83.35 75.96 81.5 76.95 81.75 77.4 83.97 76.2 83.38 75.11"/><polygon class="sv_cls-5" points="82.97 74.17 80.66 75.18 80.86 75.66 83.17 74.64 82.97 74.17"/><path class="sv_cls-5" d="M81.54,74a1.29,1.29,0,0,0,.84-1.63,1.33,1.33,0,0,0-.33-.52l-.55.18a.81.81,0,0,1,.43.47.8.8,0,0,1-.56,1,.83.83,0,0,1-1.07-.46.77.77,0,0,1,.08-.63l-.56.18a1.38,1.38,0,0,0,0,.6A1.31,1.31,0,0,0,81.54,74Z"/><path class="sv_cls-5" d="M81.91,70.9l-.56-.12-.16-.89.49-.3-.1-.53-2.37,1.44.07.39,2.73.55ZM80,70.58h0l.84-.48.11.61Z"/><path class="sv_cls-5" d="M81.48,66.43l.06-.72a1.23,1.23,0,0,0-1.15-1.37A1.21,1.21,0,0,0,79,65.5l-.06.72Zm-2-.78c0-.53.32-.77.81-.73a.69.69,0,0,1,.69.85v.07l-1.52-.12Z"/><polygon class="sv_cls-5" points="82.03 62.54 81.61 62.46 81.44 63.28 80.77 63.14 80.93 62.35 80.52 62.26 80.35 63.05 79.81 62.94 79.98 62.12 79.56 62.03 79.28 63.35 81.75 63.88 82.03 62.54"/><polygon class="sv_cls-5" points="83.03 59.6 82.63 59.45 82.32 60.23 81.68 59.99 81.98 59.23 81.58 59.07 81.28 59.83 80.77 59.63 81.08 58.84 80.68 58.69 80.18 59.95 82.54 60.87 83.03 59.6"/><polygon class="sv_cls-5" points="83.89 57.88 83.5 57.69 83.17 58.33 81.3 57.38 81.07 57.83 83.32 58.99 83.89 57.88"/><path class="sv_cls-5" d="M84.13,55.4c.19-.12.39-.28.6-.12a.33.33,0,0,1,.09.48.52.52,0,0,1-.57.16l.05.45a.92.92,0,0,0,.87-.35A.81.81,0,0,0,85,54.82c-.68-.51-1.17.43-1.51.18a.31.31,0,0,1,0-.43.51.51,0,0,1,.4-.19L83.73,54a1.1,1.1,0,0,0-.65.41.75.75,0,0,0,.16,1.06A.71.71,0,0,0,84.13,55.4Z"/><path class="sv_cls-5" d="M86.24,54.6,86,54.08l.63-.65.52.22.38-.39L85,52.17l-.28.28L85.87,55Zm-.85-1.71h0l.8.37-.39.41Z"/><polygon class="sv_cls-5" points="88.89 52.18 88.62 51.85 88.06 52.3 86.74 50.67 86.34 50.99 87.93 52.96 88.89 52.18"/><polygon class="sv_cls-5" points="90.23 51.37 89.71 48.63 89.23 48.92 89.66 50.67 89.65 50.68 88.2 49.58 87.74 49.88 89.98 51.53 90.23 51.37"/><path class="sv_cls-5" d="M91.76,50.43l0-.58.82-.37.4.4.5-.22-2-2-.36.17.13,2.78Zm-.16-1.91.62.64-.52.23-.1-.86Z"/><path class="sv_cls-5" d="M94.61,49.31a1.23,1.23,0,0,0,.87-1.57,1.21,1.21,0,0,0-1.58-.85l-.69.2.7,2.42Zm-.66-1.91a.69.69,0,0,1,1,.51.68.68,0,0,1-.55.94l-.07,0-.42-1.46Z"/><path class="sv_cls-5" d="M97.55,48.73a1.33,1.33,0,1,0-1.46-1.15A1.29,1.29,0,0,0,97.55,48.73Zm-.27-2.08a.75.75,0,0,1,.79.65.71.71,0,1,1-1.4.18A.74.74,0,0,1,97.28,46.66Z"/><path class="sv_cls-5" d="M99.92,47.49h0l.62,1h.62l-.73-1.08a.66.66,0,0,0,.54-.69c0-.54-.35-.76-.86-.77h-.7l0,2.53h.51Zm0-1.06H100c.24,0,.43.06.42.34s-.18.35-.44.35h-.06Z"/><polygon class="sv_cls-5" points="105.21 48.81 104.39 48.6 104.55 47.94 105.34 48.14 105.44 47.72 104.66 47.53 104.79 46.99 105.61 47.2 105.71 46.78 104.4 46.45 103.78 48.9 105.1 49.23 105.21 48.81"/><polygon class="sv_cls-5" points="106.85 48 106.86 48 107.49 50.15 107.83 50.29 108.78 47.9 108.31 47.71 107.68 49.29 107.67 49.29 107.05 47.13 106.71 47 105.74 49.41 106.22 49.59 106.85 48"/><polygon class="sv_cls-5" points="110.68 51.4 110.07 51.01 111.19 49.24 110.75 48.97 109.41 51.1 110.45 51.76 110.68 51.4"/><path class="sv_cls-5" d="M111.12,52.24l.5-.28.7.58-.18.54.43.34.86-2.64-.31-.25-2.43,1.37Zm1.63-1-.29.83-.44-.35Z"/><path class="sv_cls-5" d="M115.09,55.47l.53.73-.31.48.32.44,1.52-2.33-.24-.32-2.69.69.31.43Zm1.28-.38-.5.73-.33-.46Z"/><polygon class="sv_cls-5" points="116.03 57.85 117.54 57.35 117.54 57.36 116.38 58.59 116.46 58.75 118.15 58.56 116.85 59.46 117.08 59.92 119.22 58.4 119.05 58.07 117.29 58.26 118.49 56.94 118.32 56.62 115.81 57.39 116.03 57.85"/><polygon class="sv_cls-5" points="117.67 61.73 118.08 61.59 117.81 60.78 118.46 60.56 118.72 61.34 119.13 61.2 118.87 60.43 119.39 60.25 119.66 61.05 120.07 60.91 119.63 59.63 117.24 60.43 117.67 61.73"/><path class="sv_cls-5" d="M118,62.87l1-.21h0l-.87.84.13.6.88-.94a.66.66,0,0,0,.79.37c.53-.11.67-.5.56-1l-.15-.67-2.46.52Zm2-.41v.06c0,.24,0,.44-.24.49s-.38-.1-.43-.35V62.6Z"/><polygon class="sv_cls-5" points="118.34 65.12 120.85 64.83 120.78 64.33 118.28 64.62 118.34 65.12"/><path class="sv_cls-5" d="M119.65,65.69A1.29,1.29,0,0,0,118.37,67a1.36,1.36,0,0,0,.16.59h.58a.82.82,0,1,1,1.45-.6.76.76,0,0,1-.26.58h.59A1.29,1.29,0,0,0,121,67,1.31,1.31,0,0,0,119.65,65.69Z"/><path class="sv_cls-5" d="M118.38,68.57l.5.28-.11.9-.56.13-.06.54,2.69-.66.05-.4L118.44,68Zm.9.5.79.36h0l-.86.19Z"/><path class="sv_cls-5" d="M118.65,73.3A1.29,1.29,0,0,0,117,74a1.43,1.43,0,0,0-.08.61l.55.21a.79.79,0,0,1,0-.64.87.87,0,0,1,1.6.64.8.8,0,0,1-.46.44l.55.21a1.32,1.32,0,0,0,.35-.49A1.3,1.3,0,0,0,118.65,73.3Z"/><polygon class="sv_cls-5" points="115.86 76.38 116.24 76.59 116.64 75.84 117.24 76.17 116.86 76.88 117.23 77.08 117.62 76.37 118.11 76.63 117.7 77.37 118.08 77.58 118.73 76.39 116.51 75.18 115.86 76.38"/><polygon class="sv_cls-5" points="115.23 77.37 116.62 78.39 116.61 78.39 114.37 78.47 114.16 78.76 116.24 80.28 116.54 79.86 115.16 78.87 115.17 78.86 117.41 78.79 117.62 78.49 115.53 76.96 115.23 77.37"/><polygon class="sv_cls-5" points="115 81 113.49 79.54 113.14 79.91 114.65 81.37 114.29 81.75 114.59 82.04 115.67 80.91 115.37 80.62 115 81"/><path class="sv_cls-5" d="M112,81l.65.78h0l-1.14-.37-.47.39,1.24.34a.67.67,0,0,0,0,.88.74.74,0,0,0,1.15,0l.53-.44-1.61-1.94Zm.85,1.14,0,0,.44.53-.05,0c-.19.16-.36.23-.54,0S112.63,82.27,112.83,82.11Z"/><path class="sv_cls-5" d="M110.35,82.25l.1.56-.77.48-.45-.34-.46.29L111,84.91l.33-.21-.5-2.74Zm.38,1.88-.69-.54.48-.3.22.84Z"/><polygon class="sv_cls-5" points="107.2 83.97 107.38 84.35 108.04 84.05 108.94 85.94 109.4 85.73 108.31 83.44 107.2 83.97"/><path class="sv_cls-1" d="M93.4,64.49,94.85,62a7,7,0,0,1-.23-1.18,5.83,5.83,0,0,1,0-1.26L93,57.76l-.09-.1c-.15,1.69-.13,2.18-.2,3.83A12.28,12.28,0,0,0,93.4,64.49Z"/><path class="sv_cls-2" d="M94.62,60.86A6.84,6.84,0,0,0,94.85,62l.33-.52.47-.79-1-1.14A5.83,5.83,0,0,0,94.62,60.86Z"/><path class="sv_cls-2" d="M93.4,64.49a12.28,12.28,0,0,1-.68-3c.07-1.65,0-2.14.2-3.83l-.1-.11L90.9,55.41c0,.07,0,.16,0,.19a1.22,1.22,0,0,1,0,.63h-.18a24.45,24.45,0,0,1-.29,3.3,27.41,27.41,0,0,0,0,3.1c0,.19,0,.61.06,1L93,65.23Z"/><path class="sv_cls-2" d="M90.81,55.31s0,.09,0,.14l.07-.07Z"/><path class="sv_cls-5" d="M90.85,55.31h0l0,.05,0,0s0,0,0,.07l1.92,2.16.1.11.09.1,2.64,3,.11-.18L91,55.22A.23.23,0,0,1,90.85,55.31Z"/><path class="sv_cls-5" d="M90.92,55.08c0-.21.13-.44.28-.44a.49.49,0,0,1,.19,0c.09,0,.1.06.12.14s-.21.26-.38.28a.43.43,0,0,0-.15,0h0s0,0,0,0a4.15,4.15,0,0,1,.44-.07c.13,0,.21-.28.14-.37a.5.5,0,0,0-.46-.11.66.66,0,0,0-.24.47Z"/><path class="sv_cls-5" d="M90.75,55.28l0,.1c-.07.16-.22.37-.39.27s-.1-.07-.09-.16a.63.63,0,0,1,0-.19c0-.12.26-.16.46-.12a.09.09,0,0,1,0-.06h0a.61.61,0,0,0-.49.08.52.52,0,0,0-.06.47.3.3,0,0,0,.4,0c.09-.15.13-.25.2-.36Z"/><path class="sv_cls-5" d="M90.78,55.13h0a.09.09,0,0,0,0,.06.19.19,0,0,0,0,.06s0,0,0,0l0,0h.05a.23.23,0,0,0,.11-.09.12.12,0,0,0,0-.06s0,0,0,0h0a.07.07,0,0,0-.05,0h-.14A.17.17,0,0,0,90.78,55.13Z"/><path class="sv_cls-5" d="M90.78,54.59a3.57,3.57,0,0,1-1-.48,2.3,2.3,0,0,1,.35.9,1.24,1.24,0,0,1,.57.11h0a.17.17,0,0,1,0,0A1.52,1.52,0,0,1,90.78,54.59Z"/><path class="sv_cls-5" d="M90.93,55.6s0-.12,0-.19v0s0-.09,0-.07l0,0h0l-.07.07-.09.09a.9.9,0,0,0-.18.29c-.06.11-.15.24-.08.3a.43.43,0,0,0,.31.11h.18A1.22,1.22,0,0,0,90.93,55.6Z"/><path class="sv_cls-1" d="M100.31,75.69a2.57,2.57,0,0,0-.15-.67s0,0,0-.07a6,6,0,0,1-.16-.72c-.06-.32-.11-.64-.18-.95h0c0,.1,0,.21-.06.31a9.14,9.14,0,0,1-.3,1.43,2.87,2.87,0,0,0-.14.67,1.16,1.16,0,0,0,0,.17.56.56,0,0,0,0,.08.45.45,0,0,0,.09.19c0,.05.21.05.3.11s.06.05.08.05.06,0,.09-.05.25-.06.3-.11a.46.46,0,0,0,.09-.19.54.54,0,0,0,0-.08A.81.81,0,0,0,100.31,75.69Z"/><path class="sv_cls-2" d="M99.32,73.7l0,.06-.12.22s0,0-.05,0,0,0,0,0h0l-.07.06s-.08.07-.1.11a.93.93,0,0,0-.07.12.46.46,0,0,0-.07.13,2.84,2.84,0,0,0-.14.26l-.12.27a1,1,0,0,0-.06.18.54.54,0,0,0,0,.29.51.51,0,0,0,.28.26s0,0,.05,0,.13,0,.18.05A.33.33,0,0,1,99,76a.14.14,0,0,0,.07,0,.85.85,0,0,0,.26.06.53.53,0,0,1,0-.13.56.56,0,0,1,0-.08.93.93,0,0,1,0-.17,2.87,2.87,0,0,1,.14-.67,9.14,9.14,0,0,0,.3-1.43c0-.11,0-.22.06-.33h-.36C99.48,73.39,99.36,73.62,99.32,73.7Z"/><polygon class="sv_cls-2" points="99.38 76.07 99.37 76.07 99.38 76.07 99.38 76.07"/><path class="sv_cls-2" d="M99.38,76.08h0Z"/><polygon class="sv_cls-2" points="100.23 76.08 100.23 76.07 100.23 76.07 100.23 76.08"/><path class="sv_cls-2" d="M100,74.23a6.58,6.58,0,0,0,.16.72s0,0,0,.07a2.57,2.57,0,0,1,.15.67,1,1,0,0,1,0,.17.54.54,0,0,1,0,.08.53.53,0,0,1,0,.13.71.71,0,0,0,.25-.06s.06,0,.07,0a.41.41,0,0,1,.11-.12c.06,0,.13,0,.19-.05l0,0a.54.54,0,0,0,.29-.26.56.56,0,0,0,0-.29,1.13,1.13,0,0,0-.06-.18l-.12-.27c0-.09-.1-.17-.14-.26a.52.52,0,0,0-.07-.13l-.07-.12s-.07-.07-.1-.11l-.07-.06h0s-.06,0,0,0a.11.11,0,0,1-.06,0l-.1-.19-.13-.23h0a.69.69,0,0,1,0-.27H99.8v0C99.87,73.6,99.92,73.91,100,74.23Z"/><path class="sv_cls-2" d="M91.72,65.8a4.82,4.82,0,0,0,.29,1l.82-1.41-1.07-.71-.09-.06A4.32,4.32,0,0,0,91.72,65.8Z"/><path class="sv_cls-5" d="M87.33,61.77l0,0,0,0s0,0,0,.06l1.5,1,.85.56h0l2,1.34,1.07.71h0l.13-.19-2.43-1.59-3.1-2v0A.18.18,0,0,1,87.33,61.77Z"/><path class="sv_cls-2" d="M89.7,66.93c0-1.53,0-2,.05-3.55h0l-.85-.56-1.5-1c0,.07,0,.17.08.18a1.27,1.27,0,0,1,.16.61,1,1,0,0,1-.28.08,21.26,21.26,0,0,1-.17,3.08,22.07,22.07,0,0,0,.31,3,12,12,0,0,0,.43,1.44c.06.26.06.54.12.79a5,5,0,0,0,.21.83,1.22,1.22,0,0,0,.42.51l.6-1,1.13-1.9A7.42,7.42,0,0,1,89.7,66.93Z"/><path class="sv_cls-5" d="M87.4,61a.69.69,0,0,0-.13.52l.07,0c0-.21,0-.46.17-.49a.45.45,0,0,1,.19,0,.13.13,0,0,1,.1,0l0,.06c.08.19-.15.31-.31.37a.41.41,0,0,0-.14.06h0s0,0,0,0,.24-.09.41-.17a.29.29,0,0,0,.06-.4l0,0A.51.51,0,0,0,87.4,61Z"/><path class="sv_cls-5" d="M86.72,61.79a.49.49,0,0,0,0,.41.21.21,0,0,0,0,.06.28.28,0,0,0,.38-.1c.05-.16.07-.27.11-.39h-.05s0,.09,0,.11-.12.41-.32.35a.14.14,0,0,1-.09-.06.17.17,0,0,1,0-.07.68.68,0,0,1,0-.2c0-.13.22-.21.41-.22a.09.09,0,0,1,0-.06h0A.66.66,0,0,0,86.72,61.79Z"/><path class="sv_cls-5" d="M87.4,61.54a.07.07,0,0,0-.06,0h0l-.07,0-.06,0h0l0,0h0a.09.09,0,0,0,0,.06.14.14,0,0,0,0,.06s0,0,0,0h.11a.18.18,0,0,0,.09-.13.12.12,0,0,0,0-.05s0,0,0,0Z"/><path class="sv_cls-5" d="M86.6,61.63l.1,0a1.38,1.38,0,0,1,.46,0h.05l0,0a1.51,1.51,0,0,1-.11-.5h0a3.24,3.24,0,0,1-.89-.19L86,60.83a.9.9,0,0,1,.14.14A2.91,2.91,0,0,1,86.6,61.63Z"/><path class="sv_cls-5" d="M87.14,62.34c0,.12-.09.27,0,.32a.46.46,0,0,0,.23,0,1,1,0,0,0,.28-.08,1.27,1.27,0,0,0-.16-.61c-.06,0-.07-.11-.08-.18a.07.07,0,0,0,0,0s0-.07,0-.06l0,0-.12.22A1.06,1.06,0,0,0,87.14,62.34Z"/><path class="sv_cls-2" d="M91.18,74.15c.4.28,1.3.39,1.72.68a3.36,3.36,0,0,0,1.16.32,7.05,7.05,0,0,0,2-.07c.26-.06.3-.1.55-.14s.42-.13.56-.16.08-.05.45-.16a7.33,7.33,0,0,1,1-.27.62.62,0,0,0,.25-.15l.19-.14h0c.11-.1.1-.07.16-.2l.06-.09,0-.06c0-.08.16-.31.12-.43H99a.59.59,0,0,1-.14.34,1.27,1.27,0,0,1-.81.41L98,74h0c-.35.08-.36.13-.65.2-.61.13.1,0-.53.11a5.56,5.56,0,0,1-1.34.17A2.56,2.56,0,0,1,94,74a5.74,5.74,0,0,1-1.38-.7H89.71a9.39,9.39,0,0,1,1.11.67A4,4,0,0,0,91.18,74.15Z"/><path class="sv_cls-1" d="M95.46,74.53a5.56,5.56,0,0,0,1.34-.17c.63-.08-.08,0,.53-.11.29-.07.3-.12.65-.2h-.12a2.08,2.08,0,0,1-.39-.05,2.16,2.16,0,0,0-.43-.06,3.33,3.33,0,0,1-.67-.28h0l-.08-.05c-.21-.13-.32-.24-.48-.32H92.62A5.74,5.74,0,0,0,94,74,2.56,2.56,0,0,0,95.46,74.53Z"/><path class="sv_cls-2" d="M96.37,73.64h0a3.33,3.33,0,0,0,.67.28,2.05,2.05,0,0,1,.43.06,2.08,2.08,0,0,0,.39.05.77.77,0,0,0,.2,0,1.27,1.27,0,0,0,.81-.41.59.59,0,0,0,.14-.34H95.8a4.61,4.61,0,0,1,.48.32Z"/><path class="sv_cls-5" d="M95.65,60.74l-.47.79-5.89,9.86-.6,1-.13.22-.39.65h23.29l-.39-.65-.13-.22-1.74-2.91-1.59-2.65-.12-.2-3.19-5.33-.33-.55h0l-.11-.18-3.61-6-.09-.15-.35-.58-4,6.76-.11.18Zm11.54,6.67h0l3.12,5.22h-21l1.89-3.16.44-.75h0l.78-1.3h0L99.8,55.06Z"/><path class="sv_cls-1" d="M93.39,67.41a3.25,3.25,0,0,0,.34-.39,5.14,5.14,0,0,1,1.64-1.51.93.93,0,0,1,.76,0,1.54,1.54,0,0,1,.24.17,3.45,3.45,0,0,0,1.12.52,1,1,0,0,1,.41.24l-.06-.06h0a2.24,2.24,0,0,1,.36-.22.74.74,0,0,1,.63,0,.8.8,0,0,1,.2.13,2.37,2.37,0,0,0,.69.35l0,0a5.78,5.78,0,0,1,0-1.51V63.89a1.43,1.43,0,1,1,.23,0v1.25a9.42,9.42,0,0,1,0,1.42l.19-.13a.7.7,0,0,1,.58,0,.9.9,0,0,1,.18.13,2.66,2.66,0,0,0,.84.39,1.25,1.25,0,0,1,.58.45h0l-.15-.15h0a2.8,2.8,0,0,1,.48-.34.59.59,0,0,1,.47,0l.14.1a2.13,2.13,0,0,0,.69.32l.13.06h0a1.9,1.9,0,0,1,.29-.19.5.5,0,0,1,.41,0,.78.78,0,0,1,.12.09l.17.1h2.1L99.8,55.06,92.42,67.41ZM96.88,63H97l.06.25h.17a.19.19,0,0,1-.07-.11.2.2,0,0,1,.15-.24.21.21,0,0,1,.26.17.18.18,0,0,1-.12.23l0-.08a.11.11,0,0,0,.07-.15.13.13,0,0,0-.17-.09.13.13,0,0,0-.1.16.14.14,0,0,0,.09.1v.06l-.34,0Zm.38.65.06.14-.06,0c0-.09-.07-.12-.17-.1l0-.06.56-.25,0,.08Zm5.21.17-.56-.26,0-.08.39.19.06-.13.06,0c0,.1-.05.14,0,.2Zm.22-.6a.19.19,0,0,1-.23.14c-.1,0-.13-.1-.16-.21l0-.07c0-.09-.06-.12-.09-.13l-.08.33-.07,0,.1-.41a.29.29,0,0,1,.21.2l0,.09c0,.07,0,.13.12.14s.11,0,.13-.09-.07-.14-.11-.15V63A.2.2,0,0,1,102.69,63.21Zm-.09-.4a.11.11,0,0,1-.12-.08.15.15,0,0,1-.16.09.18.18,0,0,1-.18-.21.25.25,0,0,1,0-.15.2.2,0,0,1,.15-.06.16.16,0,0,1,.15.12.11.11,0,0,1,.12-.08.16.16,0,0,1,.16.19C102.77,62.77,102.68,62.82,102.6,62.81Zm.14-.75v.06l-.61.09v-.08l.43-.06,0-.14h.06C102.63,62,102.64,62,102.74,62.06Zm-.15-.67-.07,0-.16-.33-.18.09.16.3-.07,0-.15-.31-.19.09.17.34-.07,0-.21-.41.56-.28Zm-.5-.81a.27.27,0,0,1-.06.4.29.29,0,0,1-.42,0l-.16-.2.48-.4Zm-.56-.53,0,.07-.32-.19-.1.16.3.18,0,.06-.3-.17-.1.18.32.19,0,.06-.4-.23.31-.54Zm-1.1-.48.28.09c.1,0,.19.09.15.22s-.08.1-.12.12.06.05,0,.13l0,.11s0,.05,0,.07h0l-.1,0a.38.38,0,0,1,0-.15s0-.11-.08-.14l-.2-.06-.07.26-.08,0Zm-.7-.06H100c.12,0,.18.08.17.17a.14.14,0,0,1-.09.13.15.15,0,0,1,.11.16c0,.1-.08.18-.22.17h-.27Zm-.73.12.29.48.06-.56.12,0,.13.62h-.08l-.08-.36a.58.58,0,0,0,0-.15l-.06.55-.08,0L99,59.72a.59.59,0,0,0,0,.15l.08.37H99l-.14-.61Zm-.34.11,0,.07-.33.17.09.17.31-.16,0,.07-.3.16.09.18.34-.17,0,.06-.41.22-.29-.56Zm-.6.35.38.5-.07,0-.37-.5Zm-.2.14.06,0-.15.16.39.38-.05.06-.4-.38-.15.15,0-.05Zm-.55.65a.18.18,0,1,1,.31.19l-.1.17.23.14-.05.07-.53-.33Zm-.25.45.08,0-.12.35.18.06.11-.33.07,0-.11.32.2.07.12-.36.07,0L97.5,62l-.6-.19ZM97,62v.08a.13.13,0,0,0-.14.14c0,.06,0,.15.09.16a.09.09,0,0,0,.09-.07l.06-.18A.15.15,0,0,1,97.3,62c.15,0,.18.15.17.26a.28.28,0,0,1-.07.18.19.19,0,0,1-.17,0v-.08c.11,0,.15-.08.16-.16s0-.16-.09-.17-.09,0-.12.12l0,.13a.15.15,0,0,1-.16.12.2.2,0,0,1-.18-.23C96.83,62,97,62,97,62Z"/><path class="sv_cls-1" d="M99,67.34A2.4,2.4,0,0,1,98.4,67c-.14-.12-.24-.24-.33-.35a4,4,0,0,0,.33.35,2.44,2.44,0,0,0,.57.38l.06.07h0Z"/><polygon class="sv_cls-6" points="104.11 67.41 104.11 67.41 104.12 67.42 104.11 67.41"/><path class="sv_cls-6" d="M92,68.5c.1-.06.15-.21.23-.29a2.61,2.61,0,0,1,.43-.27,3.78,3.78,0,0,0,.69-.52h-1l-.78,1.3C91.73,68.73,92,68.55,92,68.5Z"/><path class="sv_cls-6" d="M103.59,69.7l-.23-.13Z"/><path class="sv_cls-6" d="M105.51,67.58c.23.07.28.22.46.38a1.22,1.22,0,0,0,.3.2s0,.05.05.06a2.22,2.22,0,0,1,.31.22l.48.46s0,.08.06.1a1.7,1.7,0,0,0,.38.3l.42.25c-.42,0-.83,0-1.24,0h0l.14.09c-.59,0-1.16,0-1.74,0l.2.13c-.51,0-1,0-1.49,0l.09.06c-.6,0-1.2,0-1.79,0h0l.11.07c-2.67.1-5.13-.07-7.81,0h-.49c-.2,0-.32,0-.52,0l-2.54,0,.32-.54L89.3,72.63h21l-3.12-5.22h-2.1A2,2,0,0,0,105.51,67.58Z"/><path class="sv_cls-6" d="M104.32,67.59a2.5,2.5,0,0,0,.2.21,1.69,1.69,0,0,0,.35.23,1.68,1.68,0,0,1-.35-.23A2.42,2.42,0,0,1,104.32,67.59Z"/><path class="sv_cls-6" d="M99,67.41h0l0,0c.2.15.42.27.59.42-.17-.15-.39-.27-.59-.42Z"/><path class="sv_cls-6" d="M100.7,68.95a2.89,2.89,0,0,0,.73.58l.08,0-.08,0A2.84,2.84,0,0,1,100.7,68.95Z"/><path class="sv_cls-6" d="M105.29,68.36l.56.54a1.32,1.32,0,0,0,.07.12s0-.08-.07-.12Z"/><path class="sv_cls-6" d="M100.7,68.95c-.05,0-.07-.14-.12-.19S100.65,68.91,100.7,68.95Z"/><path class="sv_cls-6" d="M105.92,69a2.57,2.57,0,0,0,.45.36h0A2.52,2.52,0,0,1,105.92,69Z"/><path class="sv_cls-6" d="M102.33,67.41h0l.1.1Z"/><path class="sv_cls-1" d="M99.64,63.37a.74.74,0,0,1-.42-.17s-.08-.18,0-.27a2.24,2.24,0,0,1,.29-.88,2,2,0,0,0-.14.26s-.15.08-.24,0,0-.13,0-.27.05-.22.13-.29.13-.08.32-.08a.48.48,0,0,1,.47.24c.14.19.22.37.29.47a1.15,1.15,0,0,1,.16.55l0,.24a.92.92,0,0,0-.32-.11,4.33,4.33,0,0,0-.86,0,.64.64,0,0,0-.22.14.66.66,0,0,1,.22-.14,4.34,4.34,0,0,1,.87,0,.92.92,0,0,1,.32.11,1.56,1.56,0,0,1-.36.18,1.13,1.13,0,0,1-.26.05v.5a1.4,1.4,0,1,0-.23,0v-.52Z"/><path class="sv_cls-4" d="M97.06,63.65l0,.06c.1,0,.13,0,.17.1l.06,0-.06-.14.4-.17,0-.08Z"/><path class="sv_cls-4" d="M97.28,63.21a.14.14,0,0,1-.09-.1.13.13,0,0,1,.1-.16.13.13,0,0,1,.17.09.11.11,0,0,1-.07.15l0,.08a.18.18,0,0,0,.12-.23.21.21,0,0,0-.26-.17.2.2,0,0,0-.15.24.19.19,0,0,0,.07.11H97L97,63h-.08l.07.31.34,0Z"/><path class="sv_cls-4" d="M97,62.48a.15.15,0,0,0,.16-.12l0-.13c0-.1,0-.13.12-.12s.1.11.09.17,0,.17-.16.16v.08a.19.19,0,0,0,.17,0,.28.28,0,0,0,.07-.18c0-.11,0-.25-.17-.26a.15.15,0,0,0-.17.12l-.06.18a.09.09,0,0,1-.09.07c-.09,0-.1-.1-.09-.16A.13.13,0,0,1,97,62.1V62c-.07,0-.2,0-.22.23A.2.2,0,0,0,97,62.48Z"/><polygon class="sv_cls-4" points="97.64 61.52 97.57 61.5 97.45 61.86 97.25 61.79 97.36 61.47 97.29 61.44 97.18 61.77 97 61.71 97.12 61.36 97.04 61.33 96.9 61.77 97.5 61.96 97.64 61.52"/><path class="sv_cls-4" d="M97.73,61.38l-.23-.14.1-.17a.18.18,0,1,0-.31-.19l-.14.24.53.33Zm-.47-.3.09-.14a.09.09,0,0,1,.14,0c.06,0,.06.09,0,.15l-.08.13Z"/><polygon class="sv_cls-4" points="97.69 60.49 98.09 60.87 98.14 60.81 97.75 60.43 97.9 60.27 97.84 60.22 97.49 60.59 97.54 60.64 97.69 60.49"/><polygon class="sv_cls-4" points="98.42 60.58 98.04 60.08 97.98 60.13 98.35 60.63 98.42 60.58"/><polygon class="sv_cls-4" points="98.94 60.28 98.91 60.22 98.56 60.39 98.47 60.21 98.78 60.05 98.74 59.98 98.43 60.14 98.34 59.97 98.67 59.8 98.64 59.73 98.23 59.94 98.52 60.5 98.94 60.28"/><path class="sv_cls-4" d="M99.09,60.24,99,59.87a.59.59,0,0,1,0-.15l.29.48.08,0,.06-.55a.58.58,0,0,1,0,.15l.08.36h.08l-.13-.62-.12,0-.06.56L99,59.62l-.12,0,.14.61Z"/><path class="sv_cls-4" d="M100.18,60a.15.15,0,0,0-.11-.16.14.14,0,0,0,.09-.13c0-.09-.05-.16-.17-.17h-.27l0,.63H100C100.1,60.15,100.18,60.07,100.18,60Zm-.37-.38h.14c.09,0,.12,0,.12.09s-.05.09-.13.08H99.8Zm0,.46v-.2h.15c.06,0,.13,0,.13.1s0,.1-.13.1Z"/><path class="sv_cls-4" d="M100.4,59.93l.2.06c.1,0,.09.09.08.14a.38.38,0,0,0,0,.15l.1,0h0s0,0,0-.07l0-.11c0-.08,0-.11,0-.13s.1,0,.12-.12-.05-.19-.15-.22l-.28-.09-.17.61.08,0Zm.1-.26.18.06s.1,0,.07.12-.08.07-.14.06l-.17,0Z"/><polygon class="sv_cls-4" points="101.22 60.58 101.25 60.52 100.92 60.33 101.02 60.15 101.33 60.32 101.36 60.26 101.06 60.08 101.16 59.92 101.49 60.11 101.53 60.04 101.13 59.81 100.81 60.35 101.22 60.58"/><path class="sv_cls-4" d="M101.61,61a.29.29,0,0,0,.42,0,.27.27,0,0,0,.06-.4l-.16-.19-.48.4Zm.4-.35c.07.08.06.17-.05.27s-.21.09-.28,0l-.09-.11.33-.28Z"/><polygon class="sv_cls-4" points="102.03 61.67 102.1 61.64 101.93 61.3 102.12 61.21 102.27 61.52 102.34 61.48 102.18 61.17 102.36 61.09 102.52 61.42 102.59 61.39 102.38 60.98 101.82 61.26 102.03 61.67"/><path class="sv_cls-4" d="M102.56,62.07l-.43.06v.08l.61-.09v-.06c-.1,0-.11,0-.14-.14h-.06Z"/><path class="sv_cls-4" d="M102.61,62.44a.11.11,0,0,0-.12.08.16.16,0,0,0-.15-.12.2.2,0,0,0-.15.06.25.25,0,0,0,0,.15.18.18,0,0,0,.18.21.15.15,0,0,0,.16-.09.11.11,0,0,0,.12.08c.08,0,.17,0,.17-.18A.16.16,0,0,0,102.61,62.44Zm-.29.29c-.09,0-.1-.07-.1-.12a.11.11,0,0,1,.12-.11.1.1,0,0,1,.09.12A.1.1,0,0,1,102.32,62.73Zm.29,0a.11.11,0,0,1-.09-.11.09.09,0,0,1,.09-.09s.09,0,.08.1S102.64,62.73,102.61,62.73Z"/><path class="sv_cls-4" d="M102.52,63V63s.14,0,.11.15-.09.11-.13.09-.1-.07-.12-.14l0-.09a.29.29,0,0,0-.21-.2l-.1.41.07,0,.08-.33s.07,0,.09.13l0,.07c0,.11.06.19.16.21a.19.19,0,0,0,.23-.14A.2.2,0,0,0,102.52,63Z"/><path class="sv_cls-4" d="M102.46,63.56l-.06,0-.06.13-.39-.19,0,.08.56.26,0-.06C102.41,63.7,102.42,63.66,102.46,63.56Z"/><path class="sv_cls-4" d="M100.26,63.32a1.56,1.56,0,0,0,.36-.18.92.92,0,0,0-.32-.11,4.34,4.34,0,0,0-.87,0,.66.66,0,0,0-.22.14.74.74,0,0,0,.42.17h.13v-.31s.07-.06.23,0v.31A1.13,1.13,0,0,0,100.26,63.32Z"/><path class="sv_cls-4" d="M100.3,63a.92.92,0,0,1,.32.11l0-.24a1.15,1.15,0,0,0-.16-.55c-.07-.1-.15-.28-.29-.47a.48.48,0,0,0-.47-.24c-.19,0-.25,0-.32.08s-.07.18-.13.29-.12.18,0,.27.24,0,.24,0a2,2,0,0,1,.14-.26,2.24,2.24,0,0,0-.29.88c-.12.09,0,.27,0,.27a.64.64,0,0,1,.22-.14A4.33,4.33,0,0,1,100.3,63Z"/><path class="sv_cls-5" d="M100,65.12V63.06c-.16-.06-.23,0-.23,0v2.08a5.78,5.78,0,0,0,0,1.51l.15-.1A9.42,9.42,0,0,0,100,65.12Z"/><path class="sv_cls-5" d="M93.4,70c.2,0,.32,0,.52,0h.49c2.68-.08,5.14.09,7.81,0l-.11-.07h0c-.19-.12-.39-.25-.6-.36l-.08,0a2.89,2.89,0,0,1-.73-.58c-.05,0-.07-.14-.12-.19-.3-.31-.6-.6-.92-.89-.17-.15-.39-.27-.59-.42l0,0L99,67.34A2.44,2.44,0,0,1,98.4,67a4,4,0,0,1-.33-.35l-.15-.15a1,1,0,0,0-.41-.24,3.45,3.45,0,0,1-1.12-.52,1.54,1.54,0,0,0-.24-.17.93.93,0,0,0-.76,0A5.14,5.14,0,0,0,93.73,67a3.25,3.25,0,0,1-.34.39,3.78,3.78,0,0,1-.69.52,2.61,2.61,0,0,0-.43.27c-.08.08-.13.23-.23.29s-.3.23-.41.22h0l-.44.75-.32.54Z"/><path class="sv_cls-5" d="M98.4,67a2.4,2.4,0,0,0,.57.38l.06.07,0,0c.2.15.42.27.59.42.32.29.62.58.92.89.05,0,.07.15.12.19a2.84,2.84,0,0,0,.73.58l.08,0c.21.11.41.24.6.36h0c.59,0,1.18,0,1.79,0l-.09-.06h0l-.23-.15-.23-.13-.09,0a2.62,2.62,0,0,1-.61-.48s-.06-.12-.1-.16c-.25-.26-.5-.5-.76-.74a6.13,6.13,0,0,0-.5-.35l-.07-.09a1.65,1.65,0,0,1-.47-.32c-.29-.25-.38-.49-.75-.6l-.26-.08h0a2.37,2.37,0,0,1-.69-.35.8.8,0,0,0-.2-.13.74.74,0,0,0-.63,0,2.24,2.24,0,0,0-.36.22h0l.06.06.15.15C98.17,66.72,98.27,66.83,98.4,67Z"/><path class="sv_cls-5" d="M100,66.77c.37.11.46.35.75.6a1.65,1.65,0,0,0,.47.32l.07.09a6.13,6.13,0,0,1,.5.35c.26.24.51.48.76.74,0,0,.05.12.1.16a2.62,2.62,0,0,0,.61.48l.09,0,.23.13.23.15h0c.49,0,1,0,1.49,0l-.2-.13h0c-.13-.08-.25-.16-.39-.23a2.21,2.21,0,0,1-.55-.44s-.05-.1-.09-.14c-.23-.24-.46-.45-.71-.67a4.81,4.81,0,0,0-.44-.32s-.06-.07-.07-.08a1.83,1.83,0,0,1-.43-.29l-.1-.1a1.25,1.25,0,0,0-.58-.45,2.66,2.66,0,0,1-.84-.39.9.9,0,0,0-.18-.13.7.7,0,0,0-.58,0l-.19.13-.15.1,0,0h0Z"/><path class="sv_cls-5" d="M102.86,67.8s.05.07.07.08a4.81,4.81,0,0,1,.44.32c.24.22.47.43.71.67,0,0,0,.11.09.14a2.21,2.21,0,0,0,.55.44c.14.07.26.15.39.23h0c.58,0,1.15,0,1.74,0l-.14-.09a2.14,2.14,0,0,0-.32-.19h0a2.57,2.57,0,0,1-.45-.36,1.32,1.32,0,0,1-.07-.12l-.56-.54a4.37,4.37,0,0,0-.36-.26l-.06-.06a1.69,1.69,0,0,1-.35-.23,2.5,2.5,0,0,1-.2-.21,1,1,0,0,0-.2-.18h0l-.13-.06a2.13,2.13,0,0,1-.69-.32l-.14-.1a.59.59,0,0,0-.47,0,2.8,2.8,0,0,0-.48.34h0l.15.15.1.1A1.83,1.83,0,0,0,102.86,67.8Z"/><polygon class="sv_cls-5" points="105.11 69.69 105.11 69.69 105.1 69.69 105.11 69.69"/><polygon class="sv_cls-5" points="104.1 67.4 104.1 67.4 104.09 67.39 104.1 67.4"/><path class="sv_cls-5" d="M104.32,67.59a2.42,2.42,0,0,0,.2.21,1.68,1.68,0,0,0,.35.23l.06.06a4.37,4.37,0,0,1,.36.26l.56.54s0,.09.07.12a2.52,2.52,0,0,0,.45.36h0a2.14,2.14,0,0,1,.32.19h0c.41,0,.82,0,1.24,0l-.42-.25a1.7,1.7,0,0,1-.38-.3s0-.07-.06-.1l-.48-.46a2.22,2.22,0,0,0-.31-.22s0,0-.05-.06a1.22,1.22,0,0,1-.3-.2c-.18-.16-.23-.31-.46-.38a2,2,0,0,1-.42-.17l-.17-.1a.78.78,0,0,0-.12-.09.5.5,0,0,0-.41,0,1.9,1.9,0,0,0-.29.19h0A1,1,0,0,1,104.32,67.59Z"/><path class="sv_cls-1" d="M94.23,76.44l.22.12.19.11a10.11,10.11,0,0,0,2.83,1.26,7.14,7.14,0,0,0,4.67,0A10,10,0,0,0,105,76.68l.2-.12.22-.12a1.82,1.82,0,0,1,.76-.1,1.94,1.94,0,0,0-1.36-.63c-.7,0-.42,0-1,.25a8.57,8.57,0,0,1-3.92,1h0a9,9,0,0,1-4-1c-.59-.25-.32-.25-1-.25a2,2,0,0,0-1.37.63A1.87,1.87,0,0,1,94.23,76.44ZM104.28,76a.36.36,0,0,1,.54.11.37.37,0,0,1-.16.54l-.12.07-.39-.65Zm.17.77-.08,0-.16-.13-.29.15V77l-.09.05-.05-.86Zm-1-.35,0,.07-.16.07.28.61-.08,0-.28-.61-.15.07,0-.08Zm-.72.31a.3.3,0,0,1,.19,0,.2.2,0,0,1,.15.13.21.21,0,0,1-.08.26l.34.22-.11,0-.31-.21h0l.11.3-.08,0-.28-.7Zm-.21.08,0,.08-.28.1.07.2.27-.09,0,.08-.27.09.09.27.28-.1,0,.09-.36.12-.25-.71Zm-.79.25c.13,0,.26,0,.31.13a.18.18,0,0,0,.15.3.23.23,0,0,1-.18.28l-.16,0-.2-.72Zm-.22.06.17.73-.09,0-.17-.73Zm-.37.08.13.65.21,0,0,.09-.31,0-.14-.74Zm-.57.09h.09l.06.78-.58-.54,0,.56h-.09l-.06-.78.58.54Zm-1,0a.39.39,0,0,1,0,.78.39.39,0,0,1,0-.78Zm-.55,0h.08L99,78,99,78Zm-.33.51.11-.54h.08l-.14.78-.42-.69-.11.55h-.08l.15-.78Zm-1-.82.08,0-.12.42c0,.12,0,.24.1.28s.2-.06.24-.18l.12-.43.08,0-.13.45a.26.26,0,1,1-.5-.14Zm-.78.45a.15.15,0,0,0,.18-.09c0-.08,0-.13-.07-.18l0,0a.2.2,0,0,1-.07-.23.19.19,0,0,1,.26-.11.2.2,0,0,1,.13.17l-.08,0a.13.13,0,0,0-.08-.11.12.12,0,0,0-.15.06A.14.14,0,0,0,97,77l.05,0a.22.22,0,0,1,.08.27.23.23,0,0,1-.3.14.24.24,0,0,1-.13-.28l.09,0A.14.14,0,0,0,96.9,77.4Zm-.37-.91a.4.4,0,0,1,.19.51.38.38,0,0,1-.5.22.39.39,0,0,1-.19-.51A.39.39,0,0,1,96.53,76.49ZM96,76.28l.08,0-.31.69-.08,0ZM95.36,76l.14.06a.38.38,0,1,1-.29.69l-.13,0Z"/><path class="sv_cls-1" d="M93.63,77h0c.17-.1,0-.38,0-.38l.63-.14a1.87,1.87,0,0,0-.77-.1c-.12.1-.1.22-.12.31a.39.39,0,0,0,.06.3C93.45,77,93.63,77,93.63,77Z"/><path class="sv_cls-1" d="M94.23,76.44l-.63.14s.21.28,0,.38h0l1.11-.21-.11-.07-.19-.11Z"/><path class="sv_cls-1" d="M105.38,76.44l.62.14s-.2.28,0,.38c0,0,.17.05.24,0a.4.4,0,0,0,.06-.3c0-.09,0-.21-.13-.31A1.82,1.82,0,0,0,105.38,76.44Z"/><path class="sv_cls-1" d="M106,76.58l-.62-.14-.22.12-.2.12-.1.07L106,77C105.8,76.86,106,76.58,106,76.58Z"/><path class="sv_cls-7" d="M95.73,76.57a.37.37,0,0,0-.23-.5L95.36,76l-.28.7.13,0A.37.37,0,0,0,95.73,76.57Zm-.31-.42h0c.16.07.26.18.19.37a.26.26,0,0,1-.39.12h0Z"/><polygon class="sv_cls-7" points="95.76 77 96.07 76.31 95.99 76.28 95.68 76.97 95.76 77"/><path class="sv_cls-7" d="M96.21,77.22a.38.38,0,0,0,.5-.22.4.4,0,0,0-.19-.51.39.39,0,0,0-.5.22A.39.39,0,0,0,96.21,77.22Zm-.08-.47a.25.25,0,0,1,.34-.15.26.26,0,0,1,.13.36.26.26,0,1,1-.47-.21Z"/><path class="sv_cls-7" d="M96.86,77.48a.23.23,0,0,0,.3-.14.22.22,0,0,0-.08-.27L97,77a.14.14,0,0,1,0-.14.12.12,0,0,1,.15-.06.13.13,0,0,1,.08.11l.08,0a.2.2,0,0,0-.13-.17.19.19,0,0,0-.26.11.2.2,0,0,0,.07.23l0,0c.05.05.1.1.07.18a.15.15,0,0,1-.18.09.14.14,0,0,1-.08-.18l-.09,0A.24.24,0,0,0,96.86,77.48Z"/><path class="sv_cls-7" d="M97.72,77.76a.26.26,0,0,0,.33-.21l.13-.45-.08,0L98,77.5c0,.12-.1.22-.24.18s-.13-.16-.1-.28l.12-.42-.08,0-.13.46A.26.26,0,0,0,97.72,77.76Z"/><polygon class="sv_cls-7" points="98.24 77.89 98.35 77.33 98.78 78.03 98.92 77.24 98.84 77.23 98.72 77.78 98.31 77.09 98.16 77.88 98.24 77.89"/><polygon class="sv_cls-7" points="99.14 77.27 99.06 77.26 98.97 78 99.05 78.03 99.14 77.27"/><path class="sv_cls-7" d="M99.58,78.08a.39.39,0,0,0,0-.78.39.39,0,0,0,0,.78Zm0-.67a.27.27,0,0,1,.25.29.27.27,0,0,1-.27.27.29.29,0,0,1-.25-.29A.27.27,0,0,1,99.6,77.4Z"/><polygon class="sv_cls-7" points="100.11 78.07 100.2 78.07 100.16 77.5 100.74 78.05 100.68 77.26 100.59 77.27 100.63 77.82 100.05 77.28 100.11 78.07"/><polygon class="sv_cls-7" points="101.53 77.89 101.51 77.79 101.3 77.83 101.16 77.18 101.07 77.19 101.22 77.94 101.53 77.89"/><polygon class="sv_cls-7" points="101.71 77.83 101.53 77.1 101.44 77.12 101.62 77.85 101.71 77.83"/><path class="sv_cls-7" d="M102,77.75a.23.23,0,0,0,.18-.28.18.18,0,0,1-.15-.3c-.05-.16-.18-.16-.31-.13l-.08,0,.2.72Zm.08-.25c0,.09,0,.13-.11.15l-.06,0-.06-.23h0C102,77.41,102.1,77.4,102.12,77.5Zm-.33-.37h0c.07,0,.13,0,.16.07s0,.12-.1.14h0Z"/><polygon class="sv_cls-7" points="102.79 77.51 102.76 77.42 102.48 77.52 102.39 77.25 102.66 77.16 102.63 77.08 102.36 77.17 102.29 76.97 102.57 76.87 102.55 76.79 102.18 76.92 102.43 77.63 102.79 77.51"/><path class="sv_cls-7" d="M103,77.42l-.11-.3h0l.31.21.11,0-.34-.22a.21.21,0,0,0,.08-.26.2.2,0,0,0-.15-.13.3.3,0,0,0-.19,0l-.1,0,.28.7Zm-.14-.39-.09-.23h0c.07,0,.17,0,.21.05s0,.15-.12.18Z"/><polygon class="sv_cls-7" points="103.28 76.58 103.56 77.19 103.64 77.15 103.36 76.54 103.53 76.47 103.48 76.4 103.09 76.57 103.13 76.65 103.28 76.58"/><path class="sv_cls-7" d="M103.93,77v-.2l.29-.15.16.13.08,0-.66-.54.05.86Zm.19-.42-.21.11,0-.3Z"/><path class="sv_cls-7" d="M104.66,76.63a.37.37,0,0,0,.16-.54.36.36,0,0,0-.54-.11l-.13.07.39.65Zm-.34-.55c.15-.08.3-.1.41.07s0,.3-.14.39h0l-.27-.45Z"/><path class="sv_cls-2" d="M100,81.09l.14.07A.36.36,0,0,0,100,81.09Z"/><path class="sv_cls-2" d="M100.41,82.21a.12.12,0,0,1-.09.06A.11.11,0,0,0,100.41,82.21Z"/><path class="sv_cls-2" d="M100.24,81.64a1.59,1.59,0,0,0-.28-.55H99.9a.48.48,0,0,0-.21.33c0,.08,0,.18,0,.29h0s0,.09,0,.13,0,.19,0,.25v.09h0a.12.12,0,0,0,.06.07.45.45,0,0,0,.24,0l.23,0S100.4,82.13,100.24,81.64Z"/><path class="sv_cls-2" d="M101.14,79.92c.09,0,.13.18.16.37a.29.29,0,0,0,0,0c0-.16.07-.51.22-.52s.34.07.33.44a.92.92,0,0,0-.17-.69c-.38-.31-1,0-1.22.11s-.31,1.57-.31,1.57l.07.1c.07-.33.38-1.5.38-1.5Z"/><path class="sv_cls-2" d="M101.86,80.2a.16.16,0,0,0,0,0A.16.16,0,0,1,101.86,80.2Z"/><path class="sv_cls-2" d="M101.69,81.19l0-.05a4.89,4.89,0,0,0,.13-.71A5.76,5.76,0,0,1,101.69,81.19Z"/><path class="sv_cls-2" d="M101.58,81.48c-.08,0-.2-.5-.2-.5h0c0,.14-.07.27-.35.41a2.24,2.24,0,0,1-.68.18,2.13,2.13,0,0,1,.09.38,1.36,1.36,0,0,0,.32,0,1.09,1.09,0,0,0,.35-.08,1,1,0,0,0,.33-.22Z"/><path class="sv_cls-2" d="M99.67,82.19V82.1l0-.26a1,1,0,0,1-.33.07l-.22.1-.24.16a3.21,3.21,0,0,0-.62.65l0,.06a1.44,1.44,0,0,0,.24,1.86c-.24-.28,0-.77,0-.77a.61.61,0,0,0,.49.31,1.42,1.42,0,0,1,.45-1.9,2.36,2.36,0,0,1,.26-.19Zm-1,.57s-.09-.34.93-.83l0,.09A1.74,1.74,0,0,0,98.7,82.76Z"/><path class="sv_cls-2" d="M99.67,81.5a1.43,1.43,0,0,0-.27-.13Z"/><path class="sv_cls-2" d="M99.3,81.91a1,1,0,0,0,.33-.07h0v-.12a5.19,5.19,0,0,1-1.29,0,7.77,7.77,0,0,0,1.29-.12v0l0-.14a2.25,2.25,0,0,0-.75-.24,2.11,2.11,0,0,0-.75.05h0a2.83,2.83,0,0,1-.1-.37,5.64,5.64,0,0,1-.17-.93v0a.75.75,0,0,1,0-.09s0-.08,0-.11a.68.68,0,0,1,0-.12.51.51,0,0,1,0-.06l0-.07h0a.3.3,0,0,1,.17-.14l-.07,0c-.12,0-.34.07-.24,1,0,.33.08.59.13.8s.08.33.11.44.05.15.08.2l0,0,0,.08h.62Z"/><path class="sv_cls-2" d="M99.49,79.65a.91.91,0,0,0-.95-.39c-.49.05-.55.09-.52.12l.07,0a.28.28,0,0,1,.13.07l.08.08c.12.11.23.24.23.24h0a20,20,0,0,1,1.13,1.7.72.72,0,0,1,0-.07.48.48,0,0,1,.21-.33l0,0A12,12,0,0,0,99.49,79.65Z"/><path class="sv_cls-8" d="M98.72,81a3,3,0,0,1-.19-1.2h0s-.12-.13-.23-.24l-.08-.08a.28.28,0,0,0-.13-.07.27.27,0,0,0-.17.14h0a.53.53,0,0,0,0,.13.68.68,0,0,0,0,.12,1,1,0,0,0,0,.11.75.75,0,0,0,0,.09v0c0,.28.11.64.17.93a2.83,2.83,0,0,0,.1.37h0a1.78,1.78,0,0,1,.76,0,2.25,2.25,0,0,1,.75.24l-.27-.13A4.94,4.94,0,0,1,98.72,81Z"/><path class="sv_cls-2" d="M100.43,82.13v.06a1.14,1.14,0,0,1,.36.42.87.87,0,0,1,.09.38c0,.52.21,1.47.63,1.68,0,0,.1-.39.24-.46s.42.49.55.49a2.2,2.2,0,0,1-.24-.66,3.31,3.31,0,0,0-.27-1,.86.86,0,0,0-.15-.24,4.34,4.34,0,0,0-.62-.57,2,2,0,0,0-.47-.26l-.12,0A.52.52,0,0,1,100.43,82.13Zm.61.36a5.51,5.51,0,0,0-.59-.35V82S100.92,82.21,101,82.49Z"/><path class="sv_cls-8" d="M100.53,81.36a11,11,0,0,1,.39-1.51l-.32-.1-.38,1.5s.06.14.12.31A.32.32,0,0,0,100.53,81.36Z"/><path class="sv_cls-9" d="M99.65,82l0-.09c-1,.49-.93.83-.93.83A1.74,1.74,0,0,1,99.65,82Z"/><path class="sv_cls-9" d="M100.45,82.14a5.51,5.51,0,0,1,.59.35c-.12-.28-.59-.47-.59-.47Z"/><path class="sv_cls-9" d="M99.65,81.62a7.77,7.77,0,0,1-1.29.12,5.19,5.19,0,0,0,1.29,0h0l0-.08Z"/><path class="sv_cls-9" d="M101.69,81.19a5.76,5.76,0,0,0,.14-.76q0-.11,0-.19a.16.16,0,0,1,0,0v0s0,0,0,0c0-.37-.17-.46-.33-.44s-.24.36-.22.52a.29.29,0,0,1,0,0c0,.18,0,.6.07.69h0s.12.53.2.5S101.65,81.35,101.69,81.19Z"/><path class="sv_cls-9" d="M100.22,81.25a.21.21,0,0,0-.09-.08l-.14-.07,0,0,0,0a1.59,1.59,0,0,1,.28.55c.16.49,0,.62,0,.64l.12,0a.12.12,0,0,0,.09-.06.21.21,0,0,0,0-.07.52.52,0,0,0,0-.18h0a2.13,2.13,0,0,0-.09-.38h0C100.28,81.39,100.22,81.25,100.22,81.25Z"/><path class="sv_cls-1" d="M83.2,78.36c-.2.13-.17.28-.06.44l0,.05.49-.34,0-.05C83.51,78.28,83.39,78.22,83.2,78.36Z"/><path class="sv_cls-1" d="M90.49,84.83c-.12.25,0,.38.23.49l.06,0,.32-.61-.06,0C90.82,84.6,90.62,84.58,90.49,84.83Z"/><path class="sv_cls-1" d="M86.62,82.13c-.19.23-.08.38.11.54l.07.06.45-.53-.08-.06C87,82,86.8,81.91,86.62,82.13Z"/><path class="sv_cls-1" d="M84,77.61c-.25.17-.11.39,0,.58l0,.06.53-.36-.06-.08C84.36,77.61,84.21,77.45,84,77.61Z"/><path class="sv_cls-1" d="M81,65.77a.69.69,0,0,0-.69-.85c-.49,0-.77.2-.81.73v.07l1.52.12Z"/><polygon class="sv_cls-1" points="85.4 52.88 85.39 52.89 85.81 53.66 86.2 53.25 85.4 52.88"/><polygon class="sv_cls-1" points="92.22 49.17 91.6 48.52 91.6 48.53 91.69 49.4 92.22 49.17"/><path class="sv_cls-1" d="M94.37,48.86a.68.68,0,0,0,.55-.94.69.69,0,0,0-1-.51l-.07,0,.42,1.46Z"/><path class="sv_cls-1" d="M97.48,48.18a.82.82,0,0,0,.59-.87.71.71,0,1,0-1.4.18A.82.82,0,0,0,97.48,48.18Z"/><path class="sv_cls-1" d="M100.44,46.77c0-.28-.18-.34-.42-.34h-.07v.69H100C100.26,47.12,100.44,47,100.44,46.77Z"/><polygon class="sv_cls-1" points="112.75 51.26 112.02 51.75 112.46 52.1 112.75 51.26"/><polygon class="sv_cls-1" points="116.37 55.09 115.53 55.36 115.86 55.82 116.37 55.09"/><path class="sv_cls-1" d="M119.78,63c.28,0,.29-.25.24-.49v-.06l-.67.14v.06C119.4,62.91,119.51,63.07,119.78,63Z"/><polygon class="sv_cls-1" points="120.07 69.43 119.28 69.07 119.21 69.63 120.07 69.44 120.07 69.43"/><path class="sv_cls-1" d="M112.72,82.66c.18.21.35.14.54,0l.05,0-.44-.53,0,0C112.63,82.27,112.54,82.44,112.72,82.66Z"/><polygon class="sv_cls-1" points="110.04 83.59 110.73 84.13 110.74 84.13 110.52 83.29 110.04 83.59"/><polygon class="sv_cls-1" points="79.98 70.58 79.98 70.58 80.93 70.71 80.82 70.09 79.98 70.58"/><path class="sv_cls-1" d="M95.63,76.53c.07-.19,0-.3-.19-.37h0l-.21.49h0A.26.26,0,0,0,95.63,76.53Z"/><path class="sv_cls-1" d="M96.61,77a.26.26,0,0,0-.13-.36.25.25,0,0,0-.34.15.26.26,0,1,0,.47.21Z"/><path class="sv_cls-1" d="M99.58,78a.27.27,0,0,0,.27-.27.27.27,0,0,0-.25-.29.27.27,0,0,0-.27.27A.29.29,0,0,0,99.58,78Z"/><path class="sv_cls-1" d="M102,77.2c0-.1-.09-.1-.16-.07h0l.07.22h0C101.95,77.32,102,77.29,102,77.2Z"/><path class="sv_cls-1" d="M101.89,77.44l.06.23.06,0c.07,0,.14-.06.11-.15s-.12-.09-.19-.07Z"/><path class="sv_cls-1" d="M103,76.84c0-.1-.14-.08-.21-.05h0l.09.23h0C103,77,103.06,76.94,103,76.84Z"/><polygon class="sv_cls-1" points="104.12 76.6 103.89 76.41 103.91 76.71 104.12 76.6"/><path class="sv_cls-1" d="M104.59,76.54c.15-.09.24-.22.14-.39s-.26-.15-.41-.07l0,0,.27.45Z"/><path class="sv_cls-10" d="M97.49,60.9a.09.09,0,0,0-.14,0l-.09.14.17.1.08-.13C97.55,61,97.55,60.94,97.49,60.9Z"/><path class="sv_cls-10" d="M100.07,59.69c0-.06,0-.09-.12-.09h-.14v.18h.14C100,59.78,100.06,59.76,100.07,59.69Z"/><path class="sv_cls-11" d="M100.08,60c0-.08-.07-.1-.13-.1H99.8v.2h.16C100,60.06,100.08,60,100.08,60Z"/><path class="sv_cls-10" d="M100.75,59.85c0-.09,0-.11-.07-.12l-.18-.06-.06.19.17,0C100.67,59.92,100.73,59.93,100.75,59.85Z"/><path class="sv_cls-10" d="M101.68,60.91c.07.08.17.08.28,0s.12-.19.05-.27l-.09-.11-.33.28Z"/><path class="sv_cls-10" d="M102.34,62.5a.11.11,0,0,0-.12.11c0,.05,0,.12.1.12a.1.1,0,0,0,.11-.11A.1.1,0,0,0,102.34,62.5Z"/><path class="sv_cls-10" d="M102.61,62.53a.09.09,0,0,0-.09.09.11.11,0,0,0,.09.11s.08,0,.08-.1S102.65,62.53,102.61,62.53Z"/></g></g></svg>
