<svg id="Layer_1" xmlns="http://www.w3.org/2000/svg" viewBox="0 0 200 134"><style>.st0{fill:#ff4b55}.st1{fill:#41479b}.st2{fill:#f5f5f5}.st3{fill:#ffe15a}.st4{fill:#8cd7ff}.st5{fill:#41aa5a}.st6{fill:#c87878}</style><path class="st0" d="M185.1 0H14.9C6.7 0 0 6.9 0 15.3V67h200V15.3C200 6.9 193.3 0 185.1 0z"/><path class="st1" d="M0 118.7c0 8.5 6.7 15.3 15 15.3h170c8.3 0 15-6.9 15-15.3V67H0v51.7z"/><path class="st2" d="M5.4 130.4l91.4-61.2c1.5-1 1.5-3.4 0-4.4L5.3 3.6C2.1 6.4 0 10.6 0 15.3v103.4c0 4.7 2.1 8.9 5.4 11.7z"/><ellipse class="st3" cx="35.4" cy="53.4" rx="10.8" ry="11.1"/><path class="st4" d="M48.6 63.6c0 1.3.2 2.7.3 4.1.5 5.3 1 9.8-3.9 11.6-1.2.4-2.8.6-4.3.9-2.2.3-4.2.6-5.3 1.4-1.1-.8-3.1-1.1-5.3-1.4-1.5-.2-3.1-.5-4.3-.9-4.9-1.8-4.5-6.3-3.9-11.6.1-1.3.3-2.7.3-4.1.2-4.8-.8-9.4-1.5-12.1 1.1.5 2.7.9 4.7.9.8 0 1.8-.1 2.8-.3 2.3-.3 4.9-.6 6.9.2l.3.2.3-.2c2.1-.8 4.7-.5 6.9-.2 1 .1 1.9.3 2.8.3 2 0 3.5-.4 4.7-.9-.7 2.7-1.7 7.4-1.5 12.1z"/><path class="st0" d="M50.4 63.6c-.2-6.7 2-13.5 2.1-13.6L51 49s-2.2 1.7-5.6 1.6c-.7 0-1.6-.1-2.6-.3-2.4-.3-5.1-.7-7.5.2-2.4-.9-5.1-.5-7.5-.2-1 .1-1.8.2-2.6.3-3.4.1-5.6-1.6-5.6-1.6l-1.4 1c0 .1 2.3 6.8 2.1 13.6 0 1.3-.2 2.6-.3 3.9-.5 5.3-1.2 11.3 5.1 13.5 1.3.5 3 .7 4.6 1 4.9.8 5.6 2.1 5.6 2.1s.7-1.3 5.6-2.1c1.6-.3 3.3-.5 4.6-1 6.3-2.2 5.7-8.2 5.1-13.5 0-1.3-.2-2.6-.2-3.9zm-1.8 0c0 1.3.2 2.7.3 4.1.5 5.3 1 9.8-3.9 11.6-1.2.4-2.8.6-4.3.9-2.2.3-4.2.6-5.3 1.4-1.1-.8-3.1-1.1-5.3-1.4-1.5-.2-3.1-.5-4.3-.9-4.9-1.8-4.5-6.3-3.9-11.6.1-1.3.3-2.7.3-4.1.2-4.8-.8-9.4-1.5-12.1 1.1.5 2.7.9 4.7.9.8 0 1.8-.1 2.8-.3 2.3-.3 4.9-.6 6.9.2l.3.2.3-.2c2.1-.8 4.7-.5 6.9-.2 1 .1 1.9.3 2.8.3 2 0 3.5-.4 4.7-.9-.7 2.7-1.7 7.4-1.5 12.1z"/><path class="st2" d="M44.7 75v-4.1h.6v-1.2h-1.6v-4.2h1.6L37.7 60v-2.1h1.1l-3.4-2.4-3.5 2.4H33V60l-7.6 5.5H27v4.2h-1.6v1.2h.6V75h-.9v1.7h20.6V75z"/><path class="st5" d="M25.5 58.3c-.2.6-.2 1.2.1 1.7.5-.1 1-.5 1.2-1.1.2-.6.2-1.2-.1-1.7-.5.2-1 .6-1.2 1.1z"/><path class="st5" d="M26.6 58.5c.2.6.6 1.1 1 1.3.3-.4.4-1 .3-1.6-.2-.6-.6-1.1-1-1.3-.3.4-.4 1-.3 1.6zM28.5 57.5c.6.2 1.2.2 1.6-.1-.1-.5-.6-1-1.2-1.2-.6-.2-1.2-.2-1.6.1.2.5.6 1 1.2 1.2z"/><path class="st5" d="M29 56.4c.6-.3 1-.7 1.1-1.3-.5-.3-1.1-.3-1.6 0-.6.3-1 .7-1.1 1.3.4.3 1.1.3 1.6 0zM25.2 57c.5-.4.8-.9.8-1.5-.5-.2-1.1-.1-1.6.3s-.8.9-.8 1.5c.5.1 1.1.1 1.6-.3z"/><path class="st5" d="M24.8 56.2c.8.5 1.6.6 2.2.4-.2-.6-.7-1.3-1.5-1.8s-1.6-.6-2.2-.4c.1.7.7 1.3 1.5 1.8z"/><path class="st3" d="M28.1 57.2c0-.3-.2-.6-.5-.6 0-.3-.3-.6-.6-.6s-.5.2-.6.6c-.3 0-.5.3-.5.6s.2.6.5.6c0 .3.3.6.6.6s.5-.2.6-.6c.2-.1.5-.3.5-.6z"/><ellipse class="st2" cx="27" cy="57.2" rx=".3" ry=".3"/><path class="st3" d="M26.3 56.6c0-.3-.2-.5-.4-.5 0-.3-.2-.5-.5-.5s-.5.2-.5.5c-.2 0-.4.2-.4.5s.2.5.4.5c0 .3.2.5.5.5s.5-.2.5-.5c.2-.1.4-.3.4-.5z"/><ellipse class="st2" cx="25.4" cy="56.6" rx=".3" ry=".3"/><path class="st3" d="M28 55.8c0-.2-.1-.3-.3-.3 0-.2-.2-.3-.3-.3s-.4.1-.4.2c-.2 0-.3.2-.3.3s.1.3.3.3c0 .2.2.3.3.3s.3-.1.3-.3c.3.1.4 0 .4-.2z"/><ellipse class="st2" cx="27.3" cy="55.8" rx=".2" ry=".2"/><path class="st3" d="M26.8 55.2c0-.2-.1-.3-.3-.3 0-.2-.2-.3-.3-.3-.2 0-.3.1-.3.3-.2 0-.3.2-.3.3 0 .2.1.3.3.3 0 .2.2.3.3.3.2 0 .3-.1.3-.3.1 0 .3-.1.3-.3z"/><g><ellipse class="st2" cx="26.1" cy="55.2" rx=".2" ry=".2"/><path class="st2" d="M41.2 60.3h6.3c-.4-.9-1.2-1.7-2.2-2 .1-.5.1-1 .1-1.5 0-1.9-.5-3.5-1.1-3.5s-1.1 1.6-1.1 3.5c0 .6 0 1.1.1 1.5-.9.3-1.7 1-2.1 2z"/></g><path class="st3" d="M35.4 91.7c-13.2 0-23.9-11-23.9-24.5H16C16 78.1 24.7 87 35.4 87s19.4-8.9 19.4-19.8h4.5c0 13.5-10.8 24.5-23.9 24.5z"/><path class="st6" d="M44.2 45.4h-3.9c.4 0 .7-.3.7-.7s-.3-.7-.7-.7h-5c-.4 0-.7.3-.7.7s.3.7.7.7h-8.9c-.6 0-1.1.5-1.1 1.1s.5 1.1 1.1 1.1h3.2c-.4 0-.7.3-.7.7 0 .4.3.7.7.7H36c.4 0 .7-.3.7-.7 0-.4-.3-.7-.7-.7h8.2c.6 0 1.1-.5 1.1-1.1s-.5-1.1-1.1-1.1z"/></svg>