<svg xmlns="http://www.w3.org/2000/svg" viewBox="0 0 200 134"><defs><style>.nz_cls-1{fill:#273476;}.nz_cls-2{fill:#fff;}.nz_cls-3{fill:#d0202d;}.nz_cls-4{fill:#ed2224;}</style></defs><title>Asset 29</title><g id="Layer_2" data-name="Layer 2"><g id="Layer_72" data-name="Layer 72"><polygon class="nz_cls-1" points="0 32.81 0 43.55 21.47 32.81 0 32.81"/><path class="nz_cls-1" d="M183,0H100.44V4.67L78,15.91h22.47V32.81H78L100.44,44v5.67H89.1L58.17,34.26V49.72H41.26V34.26L10.34,49.72H0V117a17,17,0,0,0,17,17H183a17,17,0,0,0,17-17V17A17,17,0,0,0,183,0ZM149.34,16.79l1.81-5.57L153,16.79h5.86l-4.74,3.44,1.81,5.58-4.74-3.44-4.74,3.44,1.81-5.58-4.74-3.44Zm-16.89,32.6-4.74-3.45L123,49.39l1.81-5.57L120,40.38h5.86l1.81-5.58,1.81,5.58h5.86l-4.74,3.44Zm24,38-5.26-3.83-5.26,3.83,2-6.2-5.26-3.83h6.51l2-6.2,2,6.2h6.51l-5.26,3.83Zm19-44.87-4.22-3.06L167,42.55l1.61-5-4.22-3.06h5.21l1.61-5,1.61,5h5.22l-4.22,3.06Z"/><polygon class="nz_cls-1" points="87.1 0 58.17 0 58.17 14.46 87.1 0"/><path class="nz_cls-1" d="M41.26,0H17a17,17,0,0,0-3.79.44l28,14Z"/><path class="nz_cls-1" d="M3.38,6.86a16.89,16.89,0,0,0-3.32,9H21.47Z"/><path class="nz_cls-2" d="M146.41,25.81l4.74-3.44,4.74,3.44-1.81-5.58,4.74-3.44H153l-1.81-5.57-1.81,5.57h-5.86l4.74,3.44Zm-.33-8.17H150l1.2-3.69,1.2,3.69h3.88l-3.13,2.28,1.2,3.69-3.13-2.28L148,23.61l1.2-3.69Z"/><polygon class="nz_cls-3" points="148.02 23.61 151.15 21.33 154.29 23.61 153.09 19.92 156.22 17.64 152.35 17.64 151.15 13.96 149.96 17.64 146.08 17.64 149.22 19.92 148.02 23.61"/><path class="nz_cls-2" d="M129.53,40.38l-1.81-5.58-1.81,5.58H120l4.74,3.44L123,49.39l4.74-3.45,4.74,3.45-1.81-5.57,4.74-3.44Zm1.32,6.81-3.13-2.28-3.13,2.28,1.2-3.69-3.13-2.28h3.88l1.2-3.69,1.2,3.69h3.87l-3.13,2.28Z"/><polygon class="nz_cls-3" points="128.91 41.23 127.72 37.54 126.52 41.23 122.64 41.23 125.78 43.5 124.58 47.19 127.72 44.91 130.85 47.19 129.65 43.5 132.78 41.23 128.91 41.23"/><path class="nz_cls-2" d="M172.86,34.53l-1.61-5-1.61,5h-5.21l4.22,3.06-1.61,5,4.22-3.06,4.22,3.06-1.61-5,4.22-3.06ZM174,40.59l-2.79-2-2.79,2,1.07-3.28-2.79-2h3.45L171.25,32l1.07,3.28h3.45l-2.79,2Z"/><polygon class="nz_cls-3" points="172.31 35.28 171.25 32 170.18 35.28 166.73 35.28 169.53 37.31 168.46 40.59 171.25 38.56 174.04 40.59 172.97 37.31 175.76 35.28 172.31 35.28"/><path class="nz_cls-2" d="M153.17,77.39l-2-6.2-2,6.2h-6.51l5.26,3.83-2,6.2,5.26-3.83,5.26,3.83-2-6.2,5.26-3.83ZM154.64,85l-3.48-2.53L147.68,85l1.33-4.1-3.48-2.53h4.3l1.33-4.1,1.33,4.1h4.3l-3.48,2.53Z"/><polygon class="nz_cls-3" points="152.48 78.33 151.16 74.23 149.83 78.33 145.53 78.33 149.01 80.87 147.68 84.97 151.16 82.44 154.64 84.97 153.31 80.87 156.79 78.33 152.48 78.33"/><polygon class="nz_cls-2" points="44.65 16.15 44.65 0 41.26 0 41.26 14.46 44.65 16.15"/><polygon class="nz_cls-2" points="77.96 32.81 100.44 32.81 100.44 29.43 71.2 29.43 77.96 32.81"/><polygon class="nz_cls-2" points="54.79 49.72 58.17 49.72 58.17 34.26 54.79 32.56 54.79 49.72"/><polygon class="nz_cls-2" points="100.44 19.29 100.44 15.91 77.96 15.91 71.2 19.29 100.44 19.29"/><polygon class="nz_cls-2" points="58.17 14.46 58.17 0 54.79 0 54.79 16.15 58.17 14.46"/><path class="nz_cls-2" d="M21.47,15.91H.05C0,16.27,0,16.63,0,17v2.29H28.23Z"/><polygon class="nz_cls-2" points="41.26 34.26 41.26 49.72 44.65 49.72 44.65 32.56 41.26 34.26"/><polygon class="nz_cls-2" points="28.23 29.43 0 29.43 0 32.81 21.47 32.81 28.23 29.43"/><path class="nz_cls-2" d="M28.23,19.29H44.65V16.15l-3.38-1.69-28-14a16.9,16.9,0,0,0-6,2.67l25.59,12.8H25.25L4.48,5.52A17,17,0,0,0,3.38,6.86l18.09,9Z"/><polygon class="nz_cls-2" points="54.79 29.43 54.79 32.56 58.17 34.26 89.1 49.72 100.44 49.72 66.62 32.81 74.18 32.81 100.44 45.94 100.44 44.05 77.96 32.81 71.2 29.43 54.79 29.43"/><polygon class="nz_cls-2" points="54.79 16.15 54.79 19.29 71.2 19.29 77.96 15.91 100.44 4.67 100.44 0 98.44 0 66.62 15.91 59.06 15.91 90.87 0 87.1 0 58.17 14.46 54.79 16.15"/><polygon class="nz_cls-2" points="40.37 32.81 6.56 49.72 10.34 49.72 41.26 34.26 44.65 32.56 44.65 29.43 28.23 29.43 21.47 32.81 0 43.55 0 49.22 32.81 32.81 40.37 32.81"/><polygon class="nz_cls-4" points="44.65 29.43 44.65 32.56 44.65 49.72 54.79 49.72 54.79 32.56 54.79 29.43 71.2 29.43 100.44 29.43 100.44 19.29 71.2 19.29 54.79 19.29 54.79 16.15 54.79 0 44.65 0 44.65 16.15 44.65 19.29 28.23 19.29 0 19.29 0 29.43 28.23 29.43 44.65 29.43"/><path class="nz_cls-4" d="M32.81,15.91,7.22,3.11A17.1,17.1,0,0,0,4.48,5.52L25.25,15.91Z"/><polygon class="nz_cls-4" points="66.62 15.91 98.44 0 90.87 0 59.06 15.91 66.62 15.91"/><polygon class="nz_cls-4" points="66.62 32.81 100.44 49.72 100.44 45.94 74.18 32.81 66.62 32.81"/><polygon class="nz_cls-4" points="40.37 32.81 32.81 32.81 0 49.22 0 49.72 6.56 49.72 40.37 32.81"/></g></g></svg>
