<svg id="Layer_1" xmlns="http://www.w3.org/2000/svg" viewBox="0 0 200 134"><style>.st0{fill:#ff4b55}.st1{fill:#ffe15a}.st2{fill:#464655}.st3{fill:#f5f5f5}</style><path class="st0" d="M185.1 134H15c-8.2 0-15-6.8-15-15.3V15.3C0 6.9 6.7 0 15 0h170c8.3 0 15 6.9 15 15.3v103.4c0 8.5-6.7 15.3-14.9 15.3z"/><path class="st1" d="M5.7 130.7l106.6-61.5c1.7-1 1.7-3.4 0-4.4L5.7 3.3C2.2 6.1 0 10.4 0 15.3v103.4c0 4.9 2.2 9.2 5.7 12z"/><path class="st2" d="M4.8 129.9l71.7-60.5c1.5-1.2 1.5-3.6 0-4.8L4.8 4.1C1.8 6.9 0 10.9 0 15.3v103.4c0 4.4 1.8 8.4 4.8 11.2z"/><path class="st3" d="M21.5 50.4l.3 12.7-11.6 4.4c-1.1.4-1 2 .1 2.4l11.9 3.6.5 12.7c0 1.2 1.6 1.7 2.3.7l7-10.5 11.9 3.4c1.1.3 2-1 1.3-2l-7.5-10.1 6.9-10.6c.7-1-.3-2.3-1.4-1.9l-11.7 4.2-7.7-10c-.8-.7-2.3-.2-2.3 1z"/></svg>