<svg id="Layer_1" xmlns="http://www.w3.org/2000/svg" viewBox="0 0 200 134"><style>.st0{fill:#73af00}.st1{fill:#ff4b55}.st2{fill:#f5f5f5}.st3{fill:#ffb400}</style><path class="st0" d="M185 134H15c-8.3 0-15-6.9-15-15.3V15.3C0 6.9 6.7 0 15 0h170c8.3 0 15 6.9 15 15.3v103.4c0 8.4-6.7 15.3-15 15.3z"/><path class="st1" d="M27.6 0h34.5v134H27.6z"/><path class="st2" d="M58.6 15.3l-6.9 5.9H37.9L31 15.3V9.4l6.9-5.9h13.8l6.9 5.9z"/><path class="st0" d="M58.6 64.6l-6.9 5.9H37.9L31 64.6v-5.8l6.9-5.9h13.8l6.9 5.9zM58.6 40l-6.9 5.8H37.9L31 40v-5.9l6.9-5.9h13.8l6.9 5.9zM58.6 89.3l-6.9 5.9H37.9L31 89.3v-5.8l6.9-5.9h13.8l6.9 5.9z"/><path class="st3" d="M27.6 17.6l6.9 7.1-6.9 7zM62.1 31.7l-6.9-7 6.9-7.1zM27.6 42.3l6.9 7.1-6.9 7zM62.1 56.4l-6.9-7 6.9-7.1zM27.6 67l6.9 7.1-6.9 7zM62.1 81.1l-6.9-7 6.9-7.1zM27.6 91.7l6.9 7-6.9 7.1zM62.1 105.8l-6.9-7.1 6.9-7zM27.6 0h6.9l-6.9 7.1zM62.1 7.1L55.2 0h6.9zM43.1 28.2h3.4v17.6h-3.4z"/><path class="st1" d="M37.9 35.3h13.8v3.5H37.9z"/><path class="st3" d="M55.2 31.1l-3.5-2.9v17.6l3.5-2.9zM34.5 42.9l3.4 2.9V28.2l-3.4 2.9zM44.8 3.5h-6.9L31 9.4v2.9h13.8zM44.8 21.2h6.9l6.9-5.9v-3H44.8z"/><path class="st1" d="M44.8 17.6l-6.9-5.2 6.9-5.3 6.9 5.3z"/><g><path class="st0" d="M44.8 17.6l6.9-5.2v-.1h-6.9zM44.8 12.3V7.1L38 12.3z"/></g><path class="st1" d="M37.9 56.4h13.8V67H37.9z"/><path class="st3" d="M51.7 59.9h3.4v3.5h-3.4z"/><path class="st2" d="M43.1 59.9h3.4v3.5h-3.4z"/><path class="st1" d="M43.1 81.1h3.4v3.5h-3.4z"/><g><path class="st3" d="M48.3 84.6h3.4v3.5h-3.4zM37.9 84.6h3.4v3.5h-3.4z"/></g><path class="st1" d="M43.1 88.2h3.4v3.5h-3.4z"/><path class="st3" d="M34.5 59.9h3.4v3.5h-3.4z"/><path class="st2" d="M58.6 114l-6.9 5.9H37.9L31 114v-5.9l6.9-5.8h13.8l6.9 5.8z"/><g><path class="st3" d="M44.8 102.3h-6.9l-6.9 5.8v3h13.8zM44.8 119.9h6.9l6.9-5.9v-2.9H44.8z"/></g><path class="st1" d="M51.7 112.8l-6.9 3.6-6.9-3.6v-3.5l6.9-3.5 6.9 3.5z"/><g><path class="st2" d="M109.4 19.2c-.4-.2-.7.3-.4.6 3.9 3.8 6.4 9.1 6.4 15 0 11.6-9.1 20.9-20.3 20.9-2.1 0-4.1-.3-5.9-.9-.4-.1-.6.4-.3.6 3.3 2.3 7.2 3.7 11.5 3.7 11.3 0 20.6-9.3 20.6-21.1-.1-8.2-4.8-15.4-11.6-18.8zM81.3 32.8l-.8 2.4 2 1.6c.3.2.1.6-.2.6l-2.5-.1-.9 2.4c-.1.3-.6.3-.6 0l-.7-2.5-2.5-.1c-.3 0-.4-.4-.2-.6L77 35l-.7-2.5c-.1-.3.3-.6.5-.4l2 1.6 2.1-1.4c.2-.1.5.2.4.5zM91.6 38.1l-.8 2.4 2 1.6c.3.2.1.6-.2.6H90l-.9 2.4c-.1.3-.6.3-.6 0l-.7-2.5-2.5-.1c-.3 0-.4-.4-.2-.6l2.1-1.5-.7-2.5c-.1-.3.3-.6.5-.4l2 1.6 2.1-1.4c.2-.2.6.1.5.4zM91.5 27.2l-.8 2.4 2 1.6c.3.2.1.6-.2.6l-2.5-.1-1 2.5c-.1.3-.6.3-.6 0l-.7-2.5-2.5-.1c-.3 0-.4-.4-.2-.6l2.1-1.5-.8-2.5c-.1-.3.3-.6.5-.4l2 1.6 2.1-1.4c.3-.2.7.1.6.4zM91.8 16.7l-.8 2.4 2 1.6c.3.2.1.6-.2.6l-2.5-.1-.9 2.4c-.1.3-.6.3-.6 0l-.8-2.4-2.5-.1c-.3 0-.4-.4-.2-.6l2.1-1.5-.7-2.5c-.1-.3.3-.6.5-.4l2 1.6 2.1-1.4c.3-.2.6.1.5.4zM101.9 22l-.8 2.4 2 1.6c.3.2.1.6-.2.6l-2.5-.1-1 2.5c-.1.3-.6.3-.6 0l-.8-2.5-2.5-.1c-.3 0-.4-.4-.2-.6l2.1-1.5-.7-2.5c-.1-.3.3-.6.5-.4l2 1.6 2.1-1.4c.3-.2.7 0 .6.4z"/></g></svg>