<svg xmlns="http://www.w3.org/2000/svg" viewBox="0 0 200 134"><defs><style>.tr_cls-1{fill:#fff;}.tr_cls-2{fill:#e22d34;}</style></defs><title>Asset 86</title><g id="Layer_2" data-name="Layer 2"><g id="Layer_15" data-name="Layer 15"><path class="tr_cls-1" d="M74.82,93.86A26.86,26.86,0,1,1,94.78,49a33.57,33.57,0,1,0,0,35.93A26.79,26.79,0,0,1,74.82,93.86Z"/><path class="tr_cls-2" d="M183,0H17A17,17,0,0,0,0,17V117a17,17,0,0,0,17,17H183a17,17,0,0,0,17-17V17A17,17,0,0,0,183,0ZM66.43,100.57A33.58,33.58,0,1,1,94.78,49a26.86,26.86,0,1,0,0,35.93A33.54,33.54,0,0,1,66.43,100.57Zm58.74-23.71-11.6-3.77L106.4,83V70.77l-4.81-1.56L94.8,67l6.78-2.2,4.81-1.56V51l7.17,9.87,11.6-3.77L118,67Z"/><polygon class="tr_cls-1" points="125.17 57.13 113.56 60.9 106.4 51.03 106.4 63.23 101.58 64.8 94.8 67 101.58 69.2 106.4 70.77 106.4 82.97 113.56 73.1 125.17 76.87 118 67 125.17 57.13"/></g></g></svg>
