<svg id="Layer_1" xmlns="http://www.w3.org/2000/svg" viewBox="0 0 200 134"><style>.st0{fill:#3cc8ff}.st1{fill:#41479b}.st2{fill:#f5f5f5}.st3{fill:#ff4b55}.st4{fill:#ffe15a}</style><path class="st0" d="M185.1 134H15c-8.2 0-15-6.8-15-15.3V15.3C0 6.8 6.7 0 15 0h170c8.3 0 15 6.9 15 15.3v103.4c0 8.5-6.7 15.3-14.9 15.3z"/><path class="st1" d="M0 14.5v49c0 2 1.6 3.5 3.4 3.5h93.1c1.9 0 3.4-1.6 3.4-3.5v-60c0-2-1.6-3.5-3.4-3.5H15C7 0 .4 6.4 0 14.5z"/><path class="st2" d="M58.6 21.4V0H41.4v21.4L10.5.7C6.9 1.8 3.9 4.4 2 7.6l25.4 17H0v17.6h27.4L0 60.6v2.8c0 2 1.6 3.5 3.4 3.5h6l32-21.4V67h17.2V45.6l32 21.4h6c1.9 0 3.4-1.6 3.4-3.5v-2.8L72.6 42.3H100V24.7H72.6L100 6.3V3.5c0-2-1.6-3.5-3.4-3.5h-6l-32 21.4z"/><path class="st3" d="M100.1 28.2H55.2V0H44.9v28.2H0v10.6h44.9V67h10.3V38.8h44.9z"/><path class="st3" d="M3.2 5.8l28.4 18.9h6.3L5.7 3.3c-.9.7-1.8 1.6-2.5 2.5zM65 24.7L99.5 1.8C98.9.8 97.9 0 96.6 0h-.7L58.6 24.7H65zM35 42.3L.5 65.2c.6 1.1 1.7 1.8 3 1.8h.7l37.2-24.7H35zM100 63.8L67.7 42.3h-6.3L98 66.6c1.1-.5 1.9-1.6 2-2.8z"/><g><path class="st4" d="M111.1 109.7l1.7 5.2h5.3c.7 0 1 .9.4 1.3l-4.3 3.2 1.6 5.2c.2.7-.5 1.2-1.1.8l-4.3-3.2-4.3 3.2c-.5.4-1.3-.2-1.1-.8l1.6-5.2-4.3-3.2c-.5-.4-.3-1.3.4-1.3h5.3l1.7-5.2c.3-.7 1.2-.7 1.4 0zM160 70.8l1.7 5.2h5.3c.7 0 1 .9.4 1.3l-4.3 3.2 1.6 5.2c.2.7-.5 1.2-1.1.8l-4.3-3.2-4.3 3.2c-.5.4-1.3-.2-1.1-.8l1.6-5.2-4.3-3.2c-.5-.4-.3-1.3.4-1.3h5.3l1.7-5.2c.2-.6 1.1-.6 1.4 0zM183 56.4l1.7 5.2h5.3c.7 0 1 .9.4 1.3l-4.3 3.2 1.6 5.2c.2.7-.5 1.2-1.1.8l-4.3-3.2-4.3 3.2c-.5.4-1.3-.2-1.1-.8l1.6-5.2-4.3-3.2c-.5-.4-.3-1.3.4-1.3h5.3l1.7-5.2c.2-.7 1.2-.7 1.4 0zM177.5 6.9l1.7 5.2h5.3c.7 0 1 .9.4 1.3l-4.3 3.2 1.6 5.2c.2.7-.5 1.2-1.1.8l-4.3-3.2-4.3 3.2c-.5.4-1.3-.2-1.1-.8l1.6-5.2-4.3-3.2c-.5-.4-.3-1.3.4-1.3h5.3l1.7-5.2c.3-.7 1.2-.7 1.4 0zM131.5 122.5l-1.7-5.2h-5.3c-.7 0-1-.9-.4-1.3l4.3-3.2-1.6-5.2c-.2-.7.5-1.2 1.1-.8l4.3 3.2 4.3-3.2c.5-.4 1.3.2 1.1.8l-1.6 5.2 4.3 3.2c.5.4.3 1.3-.4 1.3h-5.3l-1.7 5.2c-.2.7-1.2.7-1.4 0zM147.4 108l-1.7-5.2h-5.3c-.7 0-1-.9-.4-1.3l4.3-3.2-1.6-5.2c-.2-.7.5-1.2 1.1-.8l4.3 3.2 4.3-3.2c.5-.4 1.3.2 1.1.8l-1.6 5.2 4.3 3.2c.5.4.3 1.3-.4 1.3h-5.3l-1.7 5.2c-.3.6-1.2.6-1.4 0zM161.7 44.4l-1.7-5.2h-5.3c-.7 0-1-.9-.4-1.3l4.3-3.2-1.6-5.2c-.2-.7.5-1.2 1.1-.8l4.3 3.2 4.3-3.2c.5-.4 1.3.2 1.1.8l-1.6 5.2 4.3 3.2c.5.4.3 1.3-.4 1.3h-5.3l-1.7 5.2c-.3.7-1.2.7-1.4 0zM145.2 49.9l-1.7-5.2h-5.3c-.7 0-1-.9-.4-1.3l4.3-3.2-1.6-5.2c-.2-.7.5-1.2 1.1-.8l4.3 3.2 4.3-3.2c.5-.4 1.3.2 1.1.8l-1.6 5.2 4.3 3.2c.5.4.3 1.3-.4 1.3h-5.3l-1.7 5.2c-.2.6-1.2.6-1.4 0zM134.6 91.9l-1.7-5.2h-5.3c-.7 0-1-.9-.4-1.3l4.3-3.2-1.6-5.2c-.2-.7.5-1.2 1.1-.8l4.3 3.2 4.3-3.2c.5-.4 1.3.2 1.1.8l-1.6 5.2 4.3 3.3c.5.4.3 1.3-.4 1.3h-5.3L136 92c-.2.5-1.1.5-1.4-.1z"/></g></svg>