<svg xmlns="http://www.w3.org/2000/svg" viewBox="0 0 200 134"><defs><style>.tz_cls-1{fill:#2cacdd;}.tz_cls-2{fill:#2ab34b;}.tz_cls-3{fill:#fbd632;}.tz_cls-4{fill:#121212;}</style></defs><title>Asset 78</title><g id="Layer_2" data-name="Layer 2"><g id="Layer_23" data-name="Layer 23"><path class="tz_cls-1" d="M183,134a17,17,0,0,0,17-17V33.51L48.82,134Z"/><path class="tz_cls-2" d="M17,0A17,17,0,0,0,0,17v84.61L152.53,0Z"/><polygon class="tz_cls-3" points="48.82 134 200 33.51 200 22.98 33.35 134 48.82 134"/><polygon class="tz_cls-3" points="152.53 0 0 101.61 0 112.37 167.33 0 152.53 0"/><path class="tz_cls-4" d="M167.33,0,0,112.37V117a17,17,0,0,0,17,17H33.35L200,23V17A17,17,0,0,0,183,0Z"/></g></g></svg>
