<svg xmlns="http://www.w3.org/2000/svg" viewBox="0 0 200 134"><defs><style>.us_cls-1{fill:#fff;}.us_cls-2{fill:#bf2033;}.us_cls-3{fill:#213065;}</style></defs><title>Asset 91</title><g id="Layer_2" data-name="Layer 2"><g id="Layer_10" data-name="Layer 10"><polygon class="us_cls-1" points="0 72.16 0 82.48 200 82.48 200 72.16 100.95 72.16 0 72.16"/><rect class="us_cls-1" x="100.95" y="51.52" width="99.05" height="10.32"/><rect class="us_cls-1" y="92.8" width="200" height="10.32"/><path class="us_cls-1" d="M0,117a17,17,0,0,0,1.4,6.75H198.6A16.92,16.92,0,0,0,200,117v-3.56H0Z"/><path class="us_cls-1" d="M198.6,10.25H101V20.57h99V17A16.92,16.92,0,0,0,198.6,10.25Z"/><rect class="us_cls-1" x="100.95" y="30.89" width="99.05" height="10.32"/><path class="us_cls-2" d="M183,0H101V10.25H198.6A17,17,0,0,0,183,0Z"/><rect class="us_cls-2" x="100.95" y="20.57" width="99.05" height="10.32"/><rect class="us_cls-2" x="100.95" y="41.2" width="99.05" height="10.32"/><rect class="us_cls-2" x="100.95" y="61.84" width="99.05" height="10.32"/><rect class="us_cls-2" y="82.48" width="200" height="10.32"/><rect class="us_cls-2" y="103.12" width="200" height="10.32"/><path class="us_cls-2" d="M17,134H183a17,17,0,0,0,15.6-10.25H1.4A17,17,0,0,0,17,134Z"/><path class="us_cls-3" d="M101,61.84V0H17A16.94,16.94,0,0,0,4.24,5.79H6.79l.93-2.85.93,2.85h3L9.22,7.56l.93,2.85L7.72,8.65,5.29,10.41l.93-2.85L4.06,6A16.92,16.92,0,0,0,0,17V72.16H101Zm-6.18-7.9-2.43-1.76-2.43,1.76.93-2.85-2.43-1.76h3l.93-2.86.93,2.86h3l-2.43,1.76ZM16.62,53.3l.93,2.86h3l-2.43,1.76.93,2.86L16.62,59,14.2,60.77l.93-2.85L12.7,56.15h3Zm6.62-2.21-2.43-1.76h3l.93-2.86.93,2.86h3l-2.43,1.76.93,2.85-2.43-1.76-2.43,1.76ZM20.7,20.28h3l.93-2.86.93,2.86h3L26.12,22l.93,2.86-2.43-1.77L22.19,24.9,23.12,22Zm16.9,0h3l.93-2.86.93,2.86h3L43,22,44,24.9l-2.43-1.77L39.1,24.9,40,22Zm16.9,0h3l.93-2.86.93,2.86h3L59.93,22l.93,2.86-2.43-1.77L56,24.9,56.93,22Zm16.9,0h3l.93-2.86.93,2.86h3L76.83,22l.93,2.86-2.43-1.77L72.9,24.9,73.83,22Zm-.47,21.8L68.5,43.85l.93,2.86L67,44.94,64.57,46.7l.93-2.86-2.43-1.76h3L67,39.23l.93,2.85ZM69.76,60.77,67.33,59,64.9,60.77l.93-2.86L63.4,56.15h3l.93-2.86.93,2.86h3l-2.43,1.77ZM54,42.08l-2.43,1.77.93,2.86-2.43-1.77L47.66,46.7l.93-2.86-2.43-1.77h3l.93-2.85L51,42.08ZM52.86,60.77,50.43,59,48,60.77l.93-2.86L46.5,56.15h3l.93-2.86.93,2.86h3l-2.43,1.77ZM46.25,28.08h3l.93-2.86.93,2.86h3l-2.43,1.76.93,2.85-2.43-1.76L47.75,32.7l.93-2.85ZM61.06,39.95l-2.43-1.76L56.2,39.95l.93-2.85L54.7,35.33h3l.93-2.86.93,2.86h3l-2.43,1.76ZM41.73,32.47l.93,2.86h3l-2.43,1.76.93,2.85-2.43-1.76L39.3,39.95l.93-2.85L37.8,35.33h3ZM78,39.95l-2.43-1.76-2.43,1.76L74,37.09,71.6,35.33h3l.93-2.86.93,2.86h3L77,37.09ZM69.51,32.7l-2.43-1.76L64.65,32.7l.93-2.85-2.43-1.76h3l.93-2.86L68,28.08h3l-2.43,1.76ZM29.35,28.08h3l.93-2.86.93,2.86h3l-2.43,1.76.93,2.85-2.43-1.76L30.85,32.7l.93-2.85Zm-4.52,4.39.93,2.86h3l-2.43,1.76.93,2.85-2.43-1.76L22.4,39.95l.93-2.85L20.9,35.33h3Zm8.36,6.75.93,2.85h3l-2.43,1.76.93,2.86-2.43-1.77L30.76,46.7l.93-2.86-2.43-1.77h3ZM36,60.77,33.53,59,31.1,60.77,32,57.92,29.6,56.15h3l.93-2.86.93,2.86h3L35,57.92Zm4.19-9.68-2.43-1.77h3l.93-2.86.93,2.86h3l-2.43,1.76.93,2.85-2.43-1.76-2.43,1.76Zm16.9,0-2.43-1.76h3l.93-2.86.93,2.86h3L60,51.09,61,53.94l-2.43-1.76-2.43,1.76Zm16.9,0-2.43-1.76h3l.93-2.86.93,2.86h3l-2.43,1.77.93,2.85-2.43-1.76L73,53.94Zm12.72,9.68L84.23,59,81.8,60.77l.93-2.85L80.3,56.15h3l.93-2.86.93,2.86h3l-2.43,1.76Zm1.16-18.69L85.4,43.85l.93,2.86L83.9,44.94,81.47,46.7l.93-2.86L80,42.08h3l.93-2.85.93,2.85Zm7-2.14-2.43-1.76L90,39.95l.93-2.85-2.43-1.76h3l.93-2.86.93,2.86h3l-2.43,1.76ZM86.41,32.7,84,30.94,81.55,32.7l.93-2.85-2.43-1.76h3L84,25.23l.93,2.86h3l-2.43,1.76Zm8.25-7.8-2.43-1.77L89.8,24.9,90.73,22,88.3,20.28h3l.93-2.86.93,2.86h3L93.73,22Zm-2.43-22,.93,2.85h3L93.73,7.56l.93,2.85L92.23,8.65,89.8,10.41l.93-2.85L88.3,5.79h3ZM84.71,13h3L85.28,14.8l.93,2.85-2.43-1.76-2.43,1.76.93-2.85L79.85,13h3l.93-2.85ZM75.33,2.94l.93,2.85h3L76.83,7.56l.93,2.85L75.33,8.65,72.9,10.41l.93-2.85L71.4,5.79h3ZM67.8,13h3L68.38,14.8l.93,2.85-2.43-1.76-2.43,1.76.93-2.85L62.95,13h3l.93-2.85ZM58.43,2.94l.93,2.85h3L59.93,7.56l.93,2.85L58.43,8.65,56,10.41l.93-2.85L54.5,5.79h3ZM50.9,13h3L51.48,14.8l.93,2.85L50,15.89l-2.43,1.76.93-2.85L46,13h3L50,10.18ZM41.53,2.94l.93,2.85h3L43,7.56,44,10.41,41.53,8.65,39.1,10.41,40,7.56,37.6,5.79h3ZM34,13h3L34.57,14.8l.93,2.85-2.43-1.76-2.43,1.76.93-2.85L29.14,13h3l.93-2.85ZM24.62,2.94l.93,2.85h3L26.12,7.56l.93,2.85L24.62,8.65l-2.43,1.76.93-2.85L20.7,5.79h3Zm-8.45,7.24L17.1,13h3L17.67,14.8l.93,2.85-2.43-1.76-2.43,1.76.93-2.85L12.24,13h3ZM3.79,20.28h3l.93-2.86.93,2.86h3L9.22,22l.93,2.86L7.72,23.13,5.29,24.9,6.22,22Zm8.65,7.8h3l.93-2.86.93,2.86h3l-2.43,1.76.93,2.85-2.43-1.76L13.95,32.7l.93-2.85ZM10.35,39.95,7.92,38.18,5.5,39.95l.93-2.85L4,35.33H7l.93-2.86.93,2.86h3L9.43,37.09Zm5.94-.72.93,2.85h3l-2.43,1.76.93,2.86-2.43-1.77L13.86,46.7l.93-2.86-2.43-1.77h3ZM3.91,49.33h3l.93-2.86.93,2.86h3L9.34,51.09l.93,2.85L7.84,52.18,5.41,53.94l.93-2.85ZM10.6,68,8.17,66.25,5.75,68l.93-2.85L4.24,63.4h3l.93-2.85L9.1,63.4h3L9.67,65.16Zm16.9,0-2.43-1.76L22.65,68l.93-2.85L21.15,63.4h3l.93-2.85L26,63.4h3l-2.43,1.76Zm16.9,0L42,66.25,39.55,68l.93-2.85L38,63.4h3L42,60.54l.93,2.85h3l-2.43,1.76Zm16.9,0-2.43-1.76L56.45,68l.93-2.85L54.95,63.4h3l.93-2.85.93,2.85h3l-2.43,1.76Zm16.9,0-2.43-1.76L73.35,68l.93-2.85L71.85,63.4h3l.93-2.85.93,2.85h3l-2.43,1.76Zm16.9,0-2.43-1.76L90.26,68l.93-2.85L88.75,63.4h3l.93-2.85.93,2.85h3l-2.43,1.76Z"/><path class="us_cls-1" d="M5.29,10.41,7.72,8.65l2.43,1.77L9.22,7.56l2.43-1.77h-3L7.72,2.94,6.79,5.79H4.24L4.06,6,6.22,7.56Z"/><polygon class="us_cls-1" points="22.19 10.41 24.62 8.65 27.05 10.41 26.12 7.56 28.55 5.79 25.55 5.79 24.62 2.94 23.7 5.79 20.7 5.79 23.12 7.56 22.19 10.41"/><polygon class="us_cls-1" points="39.1 10.41 41.52 8.65 43.95 10.41 43.03 7.56 45.46 5.79 42.45 5.79 41.52 2.94 40.6 5.79 37.6 5.79 40.02 7.56 39.1 10.41"/><polygon class="us_cls-1" points="56 10.41 58.43 8.65 60.85 10.41 59.93 7.56 62.36 5.79 59.35 5.79 58.43 2.94 57.5 5.79 54.5 5.79 56.93 7.56 56 10.41"/><polygon class="us_cls-1" points="72.9 10.41 75.33 8.65 77.76 10.41 76.83 7.56 79.26 5.79 76.26 5.79 75.33 2.94 74.4 5.79 71.4 5.79 73.83 7.56 72.9 10.41"/><polygon class="us_cls-1" points="89.81 10.41 92.23 8.65 94.66 10.41 93.73 7.56 96.16 5.79 93.16 5.79 92.23 2.94 91.3 5.79 88.31 5.79 90.73 7.56 89.81 10.41"/><polygon class="us_cls-1" points="13.74 17.65 16.17 15.89 18.6 17.65 17.67 14.8 20.1 13.04 17.1 13.04 16.17 10.18 15.24 13.04 12.24 13.04 14.67 14.8 13.74 17.65"/><polygon class="us_cls-1" points="30.65 17.65 33.07 15.89 35.5 17.65 34.57 14.8 37 13.04 34 13.04 33.07 10.18 32.15 13.04 29.14 13.04 31.57 14.8 30.65 17.65"/><polygon class="us_cls-1" points="47.55 17.65 49.98 15.89 52.41 17.65 51.48 14.8 53.91 13.04 50.9 13.04 49.98 10.18 49.05 13.04 46.05 13.04 48.48 14.8 47.55 17.65"/><polygon class="us_cls-1" points="64.45 17.65 66.88 15.89 69.31 17.65 68.38 14.8 70.81 13.04 67.81 13.04 66.88 10.18 65.95 13.04 62.95 13.04 65.38 14.8 64.45 17.65"/><polygon class="us_cls-1" points="81.35 17.65 83.78 15.89 86.21 17.65 85.28 14.8 87.71 13.04 84.71 13.04 83.78 10.18 82.85 13.04 79.85 13.04 82.28 14.8 81.35 17.65"/><polygon class="us_cls-1" points="5.29 24.9 7.72 23.14 10.15 24.9 9.22 22.05 11.65 20.28 8.65 20.28 7.72 17.43 6.79 20.28 3.79 20.28 6.22 22.05 5.29 24.9"/><polygon class="us_cls-1" points="22.19 24.9 24.62 23.14 27.05 24.9 26.12 22.05 28.55 20.28 25.55 20.28 24.62 17.43 23.7 20.28 20.7 20.28 23.12 22.05 22.19 24.9"/><polygon class="us_cls-1" points="39.1 24.9 41.52 23.14 43.95 24.9 43.03 22.04 45.46 20.28 42.45 20.28 41.52 17.43 40.6 20.28 37.6 20.28 40.02 22.05 39.1 24.9"/><polygon class="us_cls-1" points="56 24.9 58.43 23.14 60.85 24.9 59.93 22.05 62.36 20.28 59.35 20.28 58.43 17.43 57.5 20.28 54.5 20.28 56.93 22.05 56 24.9"/><polygon class="us_cls-1" points="72.9 24.9 75.33 23.14 77.76 24.9 76.83 22.05 79.26 20.28 76.26 20.28 75.33 17.43 74.4 20.28 71.4 20.28 73.83 22.05 72.9 24.9"/><polygon class="us_cls-1" points="89.81 24.9 92.23 23.14 94.66 24.9 93.73 22.05 96.16 20.28 93.16 20.28 92.23 17.43 91.3 20.28 88.31 20.28 90.73 22.05 89.81 24.9"/><polygon class="us_cls-1" points="17.3 28.08 16.38 25.23 15.45 28.08 12.45 28.08 14.88 29.85 13.95 32.7 16.38 30.94 18.8 32.7 17.88 29.85 20.3 28.08 17.3 28.08"/><polygon class="us_cls-1" points="34.2 28.08 33.28 25.23 32.35 28.08 29.35 28.08 31.78 29.85 30.85 32.7 33.28 30.94 35.71 32.7 34.78 29.85 37.21 28.08 34.2 28.08"/><polygon class="us_cls-1" points="51.11 28.08 50.18 25.23 49.25 28.08 46.25 28.08 48.68 29.85 47.75 32.7 50.18 30.94 52.61 32.7 51.68 29.85 54.11 28.08 51.11 28.08"/><polygon class="us_cls-1" points="68.01 28.08 67.08 25.23 66.16 28.08 63.15 28.08 65.58 29.85 64.65 32.7 67.08 30.94 69.51 32.7 68.58 29.85 71.01 28.08 68.01 28.08"/><polygon class="us_cls-1" points="84.91 28.08 83.98 25.23 83.06 28.08 80.05 28.08 82.48 29.85 81.56 32.7 83.98 30.94 86.41 32.7 85.49 29.85 87.91 28.08 84.91 28.08"/><polygon class="us_cls-1" points="8.85 35.33 7.93 32.47 7 35.33 4 35.33 6.42 37.09 5.5 39.95 7.92 38.18 10.35 39.95 9.43 37.09 11.86 35.33 8.85 35.33"/><polygon class="us_cls-1" points="25.76 35.33 24.83 32.47 23.9 35.33 20.9 35.33 23.32 37.09 22.4 39.95 24.83 38.18 27.26 39.95 26.33 37.09 28.76 35.33 25.76 35.33"/><polygon class="us_cls-1" points="42.66 35.33 41.73 32.47 40.8 35.33 37.8 35.33 40.23 37.09 39.3 39.95 41.73 38.18 44.16 39.95 43.23 37.09 45.66 35.33 42.66 35.33"/><polygon class="us_cls-1" points="59.56 35.33 58.63 32.47 57.7 35.33 54.7 35.33 57.13 37.09 56.2 39.95 58.63 38.18 61.06 39.95 60.13 37.09 62.56 35.33 59.56 35.33"/><polygon class="us_cls-1" points="76.46 35.33 75.53 32.47 74.6 35.33 71.6 35.33 74.03 37.09 73.11 39.95 75.53 38.18 77.96 39.95 77.03 37.09 79.46 35.33 76.46 35.33"/><polygon class="us_cls-1" points="93.36 35.33 92.44 32.47 91.51 35.33 88.51 35.33 90.94 37.09 90.01 39.95 92.44 38.18 94.86 39.95 93.94 37.09 96.36 35.33 93.36 35.33"/><polygon class="us_cls-1" points="13.86 46.7 16.29 44.94 18.71 46.7 17.79 43.85 20.22 42.08 17.21 42.08 16.29 39.23 15.36 42.08 12.36 42.08 14.79 43.85 13.86 46.7"/><polygon class="us_cls-1" points="30.76 46.7 33.19 44.94 35.62 46.7 34.69 43.85 37.12 42.08 34.12 42.08 33.19 39.23 32.26 42.08 29.26 42.08 31.69 43.85 30.76 46.7"/><polygon class="us_cls-1" points="47.66 46.7 50.09 44.94 52.52 46.7 51.59 43.85 54.02 42.08 51.02 42.08 50.09 39.23 49.16 42.08 46.16 42.08 48.59 43.85 47.66 46.7"/><polygon class="us_cls-1" points="64.57 46.7 66.99 44.94 69.42 46.7 68.5 43.85 70.92 42.08 67.92 42.08 67 39.23 66.07 42.08 63.07 42.08 65.49 43.84 64.57 46.7"/><polygon class="us_cls-1" points="81.47 46.7 83.9 44.94 86.33 46.7 85.4 43.85 87.83 42.08 84.82 42.08 83.9 39.23 82.97 42.08 79.97 42.08 82.39 43.85 81.47 46.7"/><polygon class="us_cls-1" points="5.41 53.94 7.84 52.18 10.27 53.94 9.34 51.09 11.77 49.33 8.77 49.33 7.84 46.47 6.91 49.33 3.91 49.33 6.34 51.09 5.41 53.94"/><polygon class="us_cls-1" points="22.31 53.94 24.74 52.18 27.17 53.94 26.24 51.09 28.67 49.33 25.67 49.33 24.74 46.47 23.81 49.33 20.81 49.33 23.24 51.09 22.31 53.94"/><polygon class="us_cls-1" points="39.22 53.94 41.64 52.18 44.07 53.94 43.14 51.09 45.57 49.33 42.57 49.33 41.64 46.47 40.71 49.33 37.71 49.33 40.14 51.09 39.22 53.94"/><polygon class="us_cls-1" points="56.11 53.94 58.54 52.18 60.97 53.94 60.05 51.09 62.47 49.33 59.47 49.33 58.54 46.47 57.61 49.33 54.61 49.33 57.04 51.09 56.11 53.94"/><polygon class="us_cls-1" points="73.02 53.94 75.44 52.18 77.87 53.94 76.94 51.09 79.38 49.33 76.37 49.33 75.44 46.47 74.52 49.33 71.52 49.33 73.94 51.09 73.02 53.94"/><polygon class="us_cls-1" points="89.92 53.94 92.35 52.18 94.78 53.94 93.85 51.09 96.28 49.33 93.28 49.33 92.35 46.47 91.42 49.33 88.42 49.33 90.85 51.09 89.92 53.94"/><polygon class="us_cls-1" points="17.55 56.15 16.62 53.3 15.7 56.15 12.7 56.15 15.12 57.92 14.2 60.77 16.63 59.01 19.05 60.77 18.13 57.92 20.55 56.15 17.55 56.15"/><polygon class="us_cls-1" points="34.45 56.15 33.53 53.3 32.6 56.15 29.6 56.15 32.02 57.92 31.1 60.77 33.52 59.01 35.95 60.77 35.02 57.92 37.46 56.15 34.45 56.15"/><polygon class="us_cls-1" points="51.36 56.15 50.43 53.3 49.5 56.15 46.5 56.15 48.93 57.92 48 60.77 50.43 59.01 52.86 60.77 51.93 57.92 54.36 56.15 51.36 56.15"/><polygon class="us_cls-1" points="68.26 56.15 67.33 53.3 66.4 56.15 63.4 56.15 65.83 57.92 64.9 60.77 67.33 59.01 69.76 60.77 68.83 57.92 71.26 56.15 68.26 56.15"/><polygon class="us_cls-1" points="85.16 56.15 84.23 53.3 83.31 56.15 80.3 56.15 82.73 57.92 81.81 60.77 84.23 59.01 86.66 60.77 85.73 57.92 88.16 56.15 85.16 56.15"/><polygon class="us_cls-1" points="9.1 63.4 8.17 60.54 7.24 63.4 4.24 63.4 6.67 65.16 5.75 68.02 8.17 66.25 10.6 68.02 9.67 65.16 12.1 63.4 9.1 63.4"/><polygon class="us_cls-1" points="26 63.4 25.07 60.54 24.15 63.4 21.15 63.4 23.57 65.16 22.65 68.02 25.07 66.25 27.5 68.02 26.57 65.16 29 63.4 26 63.4"/><polygon class="us_cls-1" points="42.9 63.4 41.98 60.54 41.05 63.4 38.05 63.4 40.48 65.16 39.55 68.02 41.98 66.25 44.41 68.02 43.48 65.16 45.91 63.4 42.9 63.4"/><polygon class="us_cls-1" points="59.81 63.4 58.88 60.54 57.95 63.4 54.95 63.4 57.38 65.16 56.45 68.02 58.88 66.25 61.31 68.02 60.38 65.16 62.81 63.4 59.81 63.4"/><polygon class="us_cls-1" points="76.71 63.4 75.78 60.54 74.85 63.4 71.85 63.4 74.28 65.16 73.35 68.02 75.78 66.25 78.21 68.02 77.28 65.16 79.71 63.4 76.71 63.4"/><polygon class="us_cls-1" points="96.61 63.4 93.61 63.4 92.68 60.54 91.76 63.4 88.75 63.4 91.18 65.16 90.26 68.02 92.68 66.25 95.11 68.02 94.18 65.16 96.61 63.4"/></g></g></svg>
