<svg xmlns="http://www.w3.org/2000/svg" viewBox="0 0 200 134"><defs><style>.uy_cls-1{fill:#fafafa;}.uy_cls-2{fill:#fbd118;}.uy_cls-3{fill:#010101;}.uy_cls-4{fill:#1d439b;}</style></defs><title>Asset 92</title><g id="Layer_2" data-name="Layer 2"><g id="Layer_9" data-name="Layer 9"><path class="uy_cls-1" d="M17,134H183a17,17,0,0,0,16.84-14.8H.16A17,17,0,0,0,17,134Z"/><rect class="uy_cls-1" y="89.4" width="200" height="15.12"/><path class="uy_cls-1" d="M200,59.72H73.9v-15H200V29.92H73.9v-15h126A17,17,0,0,0,183,0H17A17,17,0,0,0,0,17V74.73H200ZM61.82,47.61c-4.84-4.53-5.09.7-14.25-3.12l8.31,12L44.6,48.67c.12,8,5.41,7.82,2.41,13.75-.22-6.62-4.1-3.1-7.87-12.28L36.53,64.51,34.07,51c-5.6,5.78-1.7,9.36-8,11.43,4.53-4.84-.7-5.09,3.12-14.24l-12,8.31L25,45.2c-8,.13-7.82,5.42-13.75,2.41,6.62-.22,3.1-4.1,12.28-7.87L9.15,37.13l13.51-2.46c-5.78-5.6-9.36-1.7-11.43-8,4.84,4.52,5.09-.7,14.24,3.12l-8.31-12,11.29,7.82c-.13-8-5.41-7.82-2.41-13.75.22,6.62,4.1,3.1,7.87,12.28L36.53,9.75,39,23.26c5.6-5.78,1.7-9.36,8-11.43-4.53,4.84.7,5.09-3.12,14.24l12-8.31L48.07,29.06c8-.12,7.83-5.41,13.75-2.41-6.62.23-3.11,4.1-12.28,7.87l14.36,2.61L50.4,39.59C56.17,45.19,59.76,41.29,61.82,47.61Z"/><path class="uy_cls-2" d="M33,45.54l-3.81,2.64c-3.82,9.15,1.41,9.4-3.12,14.24,6.32-2.06,2.42-5.65,8-11.43l-1-5.42Z"/><path class="uy_cls-2" d="M40.07,28.72l3.81-2.64c3.82-9.15-1.41-9.4,3.12-14.24-6.32,2.06-2.42,5.65-8,11.43l1,5.42Z"/><path class="uy_cls-2" d="M28.12,33.59l-2.64-3.81c-9.15-3.82-9.4,1.41-14.24-3.12,2.07,6.32,5.65,2.42,11.43,8l5.42-1Z"/><path class="uy_cls-2" d="M44.94,40.68l2.64,3.81c9.15,3.82,9.4-1.41,14.25,3.12-2.07-6.32-5.65-2.42-11.43-8l-5.42,1Z"/><path class="uy_cls-2" d="M28.08,40.57l-4.57-.83c-9.17,3.77-5.65,7.64-12.28,7.87,5.93,3,5.71-2.28,13.75-2.41l3.13-4.53Z"/><path class="uy_cls-2" d="M45,33.69l4.57.83c9.17-3.77,5.65-7.64,12.28-7.87-5.93-3-5.71,2.28-13.75,2.41l-3.13,4.52Z"/><path class="uy_cls-2" d="M33.09,28.68l.83-4.57c-3.77-9.17-7.64-5.65-7.87-12.28-3,5.93,2.28,5.71,2.41,13.75L33,28.72Z"/><path class="uy_cls-2" d="M40,45.58l-.83,4.57c3.77,9.17,7.64,5.65,7.87,12.28,3-5.93-2.28-5.71-2.41-13.75l-4.53-3.13Z"/><path class="uy_cls-2" d="M36.53,46.26a9.09,9.09,0,0,1-3.44-.68l1,5.42,2.46,13.51,2.61-14.36L40,45.58A9.09,9.09,0,0,1,36.53,46.26Z"/><path class="uy_cls-2" d="M36.53,28V9.75L33.92,24.11l-.83,4.57A9.11,9.11,0,0,1,36.53,28Z"/><path class="uy_cls-2" d="M36.53,28a9.11,9.11,0,0,1,3.44.68l-1-5.42L36.53,9.75Z"/><path class="uy_cls-2" d="M27.4,37.13a9.09,9.09,0,0,1,.68-3.44l-5.42,1L9.15,37.13l14.36,2.61,4.57.83A9.08,9.08,0,0,1,27.4,37.13Z"/><path class="uy_cls-2" d="M49.55,34.52,45,33.69a9.09,9.09,0,0,1,0,6.88l5.42-1,13.51-2.46Z"/><path class="uy_cls-2" d="M28.12,40.67,25,45.2,17.17,56.49l12-8.31L33,45.54A9.16,9.16,0,0,1,28.12,40.67Z"/><path class="uy_cls-2" d="M44.94,33.58l3.13-4.52,7.82-11.29-12,8.31-3.81,2.64A9.16,9.16,0,0,1,44.94,33.58Z"/><path class="uy_cls-2" d="M33,28.72l-4.52-3.13L17.17,17.77l8.31,12,2.64,3.81A9.16,9.16,0,0,1,33,28.72Z"/><path class="uy_cls-2" d="M40.07,45.54l4.53,3.13,11.29,7.82-8.31-12-2.64-3.81A9.16,9.16,0,0,1,40.07,45.54Z"/><path class="uy_cls-2" d="M40.07,28.72l-.1,0a9.09,9.09,0,0,0-6.88,0l-.1,0a9.16,9.16,0,0,0-4.87,4.87l0,.1a9.09,9.09,0,0,0,0,6.88l0,.1A9.16,9.16,0,0,0,33,45.54l.1,0a9.09,9.09,0,0,0,6.88,0l.1,0a9.16,9.16,0,0,0,4.87-4.87l0-.11a9.09,9.09,0,0,0,0-6.88l0-.1A9.16,9.16,0,0,0,40.07,28.72Zm3.17,4.76c-.58.66-.91-.5-3-.5s-2.41,1.25-2.74,1,1.74-1.74,2.4-1.83A5.86,5.86,0,0,1,43.25,33.48Zm-6.72,9.21c-2,0-1.76-.4-4.37-1.53a5.32,5.32,0,0,0-.45.7c.08-.58.25-.83.91-1.33l-.44.6.28,0c.92,0,2.16-.65,2.74-.65s.83.17,1.33.17.66-.17,1.33-.17,1.82.67,2.74.65l.28,0-.44-.6c.66.5.83.75.91,1.33a5,5,0,0,0-.45-.7C38.29,42.28,38.57,42.69,36.53,42.69Zm-5.48-7.63.33.22a.69.69,0,0,1,.05-.74c-.47.24-.79.53-1.13.53.5-.25,1.08-1.24,2.41-1.24S34.87,34,35,35v.08a3.07,3.07,0,0,0-1-.74c.18.53-.4,1.18-.92,1.4h0c.91,0,1.33-1,1.66-.5.25.33-1,.83-1.91.83S30.47,34.64,31.05,35.06Zm9.29-1.24c1.33,0,1.91,1,2.41,1.24-.34,0-.66-.29-1.13-.53a.69.69,0,0,1,.05.74l.33-.22c.58-.41-.83,1-1.74,1s-2.16-.5-1.91-.83c.33-.5.75.5,1.66.5h0c-.52-.22-1.1-.87-.92-1.4a3.06,3.06,0,0,0-1,.74V35C38.19,34,39,33.81,40.34,33.81Zm-.42,6a3.75,3.75,0,0,0-2-.58c-.66,0-.83.42-1.41.42s-.75-.42-1.41-.42a3.76,3.76,0,0,0-2,.58A1.19,1.19,0,0,1,34,39c.66-.08.41-1.16,1.16-1.33,0,.33-.25.25-.33.75s.75.41.91,0c-.17.66.33.66.75.66s.91,0,.75-.66c.17.41.91.41.91,0s-.33-.41-.33-.75c.75.17.5,1.24,1.16,1.33A1.18,1.18,0,0,1,39.93,39.79Zm-6.8-7.63c.66.08,2.74,1.58,2.41,1.83s-.66-1-2.74-1-2.41,1.16-3,.5A5.86,5.86,0,0,1,33.13,32.15Zm3.4,11.53c-1.49,0-.41-.25,0-.25S38,43.68,36.53,43.68Z"/><path class="uy_cls-2" d="M40.71,35.65a2.73,2.73,0,0,0,.77-.27.94.94,0,0,0-.09-.95,2.75,2.75,0,0,0-.51-.15A1,1,0,0,1,40.71,35.65Z"/><path class="uy_cls-2" d="M32.17,34.28a2.77,2.77,0,0,0-.51.15.94.94,0,0,0-.09.95,2.72,2.72,0,0,0,.77.27A1,1,0,0,1,32.17,34.28Z"/><path class="uy_cls-2" d="M36.53,41.36a22.7,22.7,0,0,0-2.73.15,7.51,7.51,0,0,0,5.45,0A22.7,22.7,0,0,0,36.53,41.36Z"/><path class="uy_cls-3" d="M39.93,32.15c-.66.08-2.74,1.58-2.4,1.83s.66-1,2.74-1,2.4,1.16,3,.5A5.86,5.86,0,0,0,39.93,32.15Z"/><path class="uy_cls-3" d="M40.89,34.28a2.77,2.77,0,0,0-.54-.05,4.16,4.16,0,0,0-1.24.09c-.18.53.4,1.18.92,1.4a3.65,3.65,0,0,0,.69-.07A1,1,0,0,0,40.89,34.28Z"/><path class="uy_cls-3" d="M38.1,35v.08a3.06,3.06,0,0,1,1-.74,4.16,4.16,0,0,1,1.24-.09,2.85,2.85,0,0,1,1,.21,1.68,1.68,0,0,0-.22-.29,1.05,1.05,0,0,1,.44.39c.47.24.79.53,1.13.53-.5-.25-1.08-1.24-2.41-1.24S38.19,34,38.1,35Z"/><path class="uy_cls-3" d="M41.17,35.72a1,1,0,0,0,.3-.34,2.73,2.73,0,0,1-.77.27,3.65,3.65,0,0,1-.69.07h0c-.91,0-1.33-1-1.66-.5-.25.33,1,.83,1.91.83s2.32-1.41,1.74-1l-.33.22A1.17,1.17,0,0,1,41.17,35.72Z"/><path class="uy_cls-3" d="M41.17,34.14a1.68,1.68,0,0,1,.22.29.94.94,0,0,1,.09.95,1,1,0,0,1-.3.34,1.17,1.17,0,0,0,.5-.45.69.69,0,0,0-.05-.74A1.05,1.05,0,0,0,41.17,34.14Z"/><path class="uy_cls-3" d="M36.94,41.36h-.41a22.7,22.7,0,0,1,2.73.15,9.52,9.52,0,0,1,1.34-.33c-.92,0-2.16-.65-2.74-.65s-.83.17-1.33.17Z"/><path class="uy_cls-3" d="M41.34,41.86c-.08-.58-.25-.83-.91-1.33l.44.6.14,0-.12.05A5,5,0,0,1,41.34,41.86Z"/><path class="uy_cls-3" d="M40.87,41.13l-.28,0a9.52,9.52,0,0,0-1.34.33,7.41,7.41,0,0,1-2.73.51h.41l-.41.66c2,0,1.76-.4,4.36-1.53l.12-.05Z"/><path class="uy_cls-3" d="M39,39c-.66-.08-.41-1.16-1.16-1.33,0,.33.25.25.33.75s-.74.41-.91,0c.17.66-.33.66-.75.66v.5c.58,0,.75-.42,1.41-.42a3.75,3.75,0,0,1,2,.58A1.18,1.18,0,0,0,39,39Z"/><path class="uy_cls-3" d="M29.81,33.48c.58.66.91-.5,3-.5s2.41,1.25,2.74,1-1.74-1.74-2.41-1.83A5.86,5.86,0,0,0,29.81,33.48Z"/><path class="uy_cls-3" d="M32.71,34.23a2.78,2.78,0,0,0-.54.05,1,1,0,0,0,.18,1.37,3.66,3.66,0,0,0,.69.07c.52-.22,1.1-.87.92-1.4A4.16,4.16,0,0,0,32.71,34.23Z"/><path class="uy_cls-3" d="M31.88,34.14a1.68,1.68,0,0,0-.22.29,2.85,2.85,0,0,1,1-.21,4.16,4.16,0,0,1,1.24.09,3.07,3.07,0,0,1,1,.74V35c-.08-1-.91-1.16-2.24-1.16s-1.91,1-2.41,1.24c.34,0,.66-.29,1.13-.53A1.05,1.05,0,0,1,31.88,34.14Z"/><path class="uy_cls-3" d="M32.79,36.05c.91,0,2.16-.5,1.91-.83-.33-.5-.75.5-1.66.5h0a3.66,3.66,0,0,1-.69-.07,2.72,2.72,0,0,1-.77-.27,1,1,0,0,0,.3.34,1.18,1.18,0,0,1-.5-.45l-.33-.22C30.47,34.64,31.88,36.05,32.79,36.05Z"/><path class="uy_cls-3" d="M31.88,35.72a1,1,0,0,1-.3-.34.94.94,0,0,1,.09-.95,1.68,1.68,0,0,1,.22-.29,1.05,1.05,0,0,0-.44.39.69.69,0,0,0-.05.74A1.18,1.18,0,0,0,31.88,35.72Z"/><path class="uy_cls-3" d="M33.8,41.51a22.7,22.7,0,0,1,2.73-.15h.41l-.41-.66c-.5,0-.66-.17-1.33-.17s-1.82.67-2.74.65A9.53,9.53,0,0,1,33.8,41.51Z"/><path class="uy_cls-3" d="M32.18,41.13l.44-.6c-.66.5-.83.75-.91,1.33a5.32,5.32,0,0,1,.45-.7l-.12,0Z"/><path class="uy_cls-3" d="M36.94,42h-.41a7.42,7.42,0,0,1-2.73-.51,9.53,9.53,0,0,0-1.34-.33l-.28,0-.14,0,.12,0c2.61,1.12,2.32,1.53,4.37,1.53Z"/><path class="uy_cls-3" d="M35.78,38.46c-.17.41-.91.41-.91,0s.33-.41.33-.75C34.45,37.88,34.7,39,34,39a1.19,1.19,0,0,0-.91.75,3.76,3.76,0,0,1,2-.58c.67,0,.83.42,1.41.42v-.5C36.11,39.12,35.62,39.12,35.78,38.46Z"/><path class="uy_cls-3" d="M36.53,43.44c-.41,0-1.49.25,0,.25S36.94,43.44,36.53,43.44Z"/><path class="uy_cls-4" d="M73.9,29.92H200V17a17.06,17.06,0,0,0-.14-2.08H73.9Z"/><rect class="uy_cls-4" x="73.9" y="44.71" width="126.1" height="15.01"/><rect class="uy_cls-4" y="74.73" width="200" height="14.67"/><path class="uy_cls-4" d="M200,117V104.52H0V117a17,17,0,0,0,.16,2.2H199.84A17,17,0,0,0,200,117Z"/></g></g></svg>
