<svg xmlns="http://www.w3.org/2000/svg" viewBox="0 0 200 134"><style>.st0{fill:#f5f5f5}.st1{fill:#ffe15a}.st2{fill:#ebebeb}.st3{fill:#e6b432}.st4{fill:#ff4b57}.st5{fill:#d2d2d2}.st6{fill:#f0c814}.st7{fill:#f7b518}.st8{fill:#ff4b55}</style><path class="st0" d="M185 0h-85v134h85c8.3 0 15-6.9 15-15.3V15.3C200 6.9 193.3 0 185 0z"/><path class="st1" d="M15 0C6.7 0 0 6.9 0 15.3v103.4c0 8.5 6.7 15.3 15 15.3h85V0H15z"/><path class="st2" d="M159.5 34.5l-.2.5c.7.4 1.2.8 1.2 1.3l-.1-2.3c-.3.3-.6.5-.9.5zM141.6 35l-.2-.5c-.4 0-.7-.2-.8-.6l-.1 2.3c-.1-.4.3-.8 1.1-1.2zM141.4 32.5c.6 0 1 .5 1 1 0 .2-.1.4-.2.5l.3.5c.8-.3 1.7-.5 2.7-.7l-.1-.5c-.4-.1-.7-.5-.7-1 0-.6.4-1 1-1s1 .5 1 1c0 .3-.1.5-.3.7l.1.5c.6-.1 1.1-.1 1.7-.2 0-.2-.1-.4-.1-.6 0-1.4 1.1-2.6 2.5-2.6s2.5 1.1 2.5 2.6c0 .2 0 .4-.1.6.6 0 1.2.1 1.7.2l.1-.5c-.2-.2-.3-.4-.3-.7 0-.6.4-1 1-1s1 .5 1 1-.3.8-.7 1l-.1.5c1.1.2 2 .4 2.7.7l.3-.5c-.1-.2-.2-.3-.2-.5 0-.6.4-1 1-1 .4 0 .7.2.8.5l-.1-1.6c-1-1.1-5-2-9.8-2-4.8 0-8.8.9-9.8 2l-.1 1.6c.6-.3.9-.5 1.2-.5z"/><path class="st3" d="M152 20.5c.3-.3.4-.8.4-1.3 0-1-.6-1.7-1.5-2V16c.3-.2.5-.5.5-.9 0-.6-.4-1-1-1s-1 .5-1 1c0 .4.2.7.5.9v1.3c-.9.2-1.5 1-1.5 2 0 .5.2.9.4 1.3.5-.1 1-.2 1.6-.2s1.1-.1 1.6.1z"/><path class="st2" d="M146.2 25.7l-.1-.4c-.4-.1-.7-.5-.7-1 0-.6.4-1 1-1s1 .5 1 1c0 .3-.1.5-.3.7l.1.5c1-.1 2.1-.2 3.2-.2-.8 0-1.5-.7-1.5-1.5s.7-1.5 1.5-1.5 1.5.7 1.5 1.5-.7 1.5-1.5 1.5c1.1 0 2.2.1 3.2.2l.1-.5c-.2-.2-.3-.4-.3-.7 0-.6.4-1 1-1s1 .5 1 1-.3.8-.7 1l-.1.4c.5.1 1 .2 1.4.3l.7-1.5c-1.3-2-2.9-3.4-4.8-3.9-.5-.1-1-.2-1.6-.2-.5 0-1.1.1-1.6.2-1.8.5-3.5 1.9-4.8 3.9l.7 1.5c.6-.2 1.1-.3 1.6-.3z"/><path class="st3" d="M149.4 109.4v-2.2c0-.2 0-.5.1-.7h-.1c-.3-.2-.6-.3-1-.3s-.7.1-1 .3c-.6.4-1 1-1 1.8 0 .6.2 1 .6 1.4.4-.2.9-.4 1.4-.4.4-.1.7 0 1 .1zM151.4 101.3c-.6.4-1 1-1 1.8 0 .6.2 1 .6 1.4.4-.2.9-.4 1.4-.4.5 0 1 .1 1.4.4.3-.4.6-.9.6-1.4 0-.8-.4-1.4-1-1.8-.3-.2-.6-.3-1-.3s-.7.1-1 .3z"/><path class="st4" d="M151 104.5c-.7.4-1.3 1.1-1.5 2-.1.2-.1.5-.1.7v2.2c-.3-.1-.6-.2-1-.2-.5 0-1 .1-1.4.4-.9.5-1.6 1.5-1.6 2.7v4.1h6v-4.1c0-.4-.1-.7-.2-1h4.2v-4.1c0-1.2-.6-2.2-1.6-2.7-.4-.2-.9-.4-1.4-.4s-1 .1-1.4.4z"/><path class="st3" d="M151.4 63.4l1.7 1.7.6-.6c.1-.1.3-.2.5-.3l8.5-8.7 5.4 5.5 3.5-3.6-1.4-1.4-.7.7-1.4-1.4.7-.7-.7-.7 1.4-1.4.7.7.7-.7 1.4 1.4-.7.7L173 56l3.5-3.6-5.4-5.5 3.7-3.8c-.2-.1-.3-.2-.5-.3l-2-2c-.1-.2-.3-.3-.3-.5l-20.8 21.3c.1.2.2.4.2.6v1.2zM149.1 69.4l-2.8-2.9-8.8 9c-.8.8-.8 2.1 0 2.9.4.4.9.6 1.4.6s1-.2 1.4-.6l6.9-7 1.9-2z"/><path class="st5" d="M121.8 80.1c.1-.2.1-.3.1-.5 0-.8-.7-1.5-1.5-1.5s-1.5.7-1.5 1.5.7 1.5 1.5 1.5c.2 0 .3 0 .5-.1l.9-.9zM120.9 94.5c-.2-.1-.3-.1-.5-.1-.8 0-1.5.7-1.5 1.5s.7 1.5 1.5 1.5 1.5-.7 1.5-1.5c0-.2 0-.4-.1-.5l-.9-.9zM135.9 81c.2.1.3.1.5.1.8 0 1.5-.7 1.5-1.5s-.7-1.5-1.5-1.5-1.5.7-1.5 1.5c0 .2 0 .4.1.5l.9.9zM134.9 95.9c0 .8.7 1.5 1.5 1.5.5 0 .9-.2 1.1-.6-.9-.3-1.8-.7-2.6-1.2v.3z"/><path class="st3" d="M132.8 94.4c-.2-.2-.3-.4-.4-.6-.2 0-.3.1-.5.1-1.2 0-2.2-.9-2.4-2-.3.3-.6.5-1.1.5-.4 0-.8-.2-1.1-.5-.3 1.1-1.2 2-2.4 2-1.4 0-2.5-1.1-2.5-2.6 0-1.2.8-2.2 1.9-2.5-.3-.3-.4-.7-.4-1.1 0-.4.2-.8.4-1.1-1.1-.3-1.9-1.3-1.9-2.5 0-1.4 1.1-2.6 2.5-2.6 1.2 0 2.2.9 2.4 2 .3-.3.6-.5 1.1-.5.4 0 .8.2 1.1.5.3-1.1 1.2-2 2.4-2 1.4 0 2.5 1.1 2.5 2.6 0 1.2-.8 2.2-1.9 2.5.3.3.4.7.4 1.1 0 .4-.2.8-.4 1.1 1.1.3 1.9 1.3 1.9 2.5 0 .5-.2 1-.4 1.5.6.5 1.4.9 2.2 1.3.2-.3.5-.7.7-1 .7-1.1 1.1-2.3 1.3-3.6.1-.6.2-1.2.2-1.8 0-2.6-.9-4.9-2.5-6.7l-.9-.9c-1.8-1.6-4.1-2.6-6.6-2.6s-4.8 1-6.6 2.6l-.9.9c-1.6 1.8-2.5 4.2-2.5 6.7 0 2.6.9 4.9 2.5 6.7l.9.9c1.8 1.6 4.1 2.6 6.6 2.6 2.4 0 4.6-.9 6.3-2.3-.6-.3-1.3-.7-1.9-1.2zm3.3-8.7c.2.7.3 1.4.3 2.1 0 .7-.1 1.4-.3 2.1-.3-.8-.8-1.5-1.4-2.1.7-.6 1.2-1.3 1.4-2.1zm-5.7-5.9c-.8.3-1.5.8-2 1.5-.5-.7-1.2-1.2-2-1.5.6-.2 1.3-.3 2-.3s1.4.2 2 .3zm-9.7 5.9c.3.8.8 1.5 1.4 2.1-.7.5-1.2 1.2-1.4 2.1-.2-.7-.3-1.4-.3-2.1 0-.8.1-1.5.3-2.1zm5.7 9.9c.8-.3 1.5-.8 2-1.5.5.7 1.2 1.2 2 1.5-.6.2-1.3.3-2 .3s-1.4-.1-2-.3z"/><path class="st6" d="M126.9 87.7c0-.8-.7-1.5-1.5-1.5-.4 0-.8.2-1.1.4-.3.3-.4.7-.4 1.1 0 .4.2.8.4 1.1.3.3.6.4 1.1.4.8.1 1.5-.6 1.5-1.5zM129.9 87.7c0 .8.7 1.5 1.5 1.5.4 0 .8-.2 1.1-.4.3-.3.4-.7.4-1.1 0-.4-.2-.8-.4-1.1-.3-.3-.6-.4-1.1-.4-.8 0-1.5.7-1.5 1.5zM128.4 86.2c.8 0 1.5-.7 1.5-1.5 0-.4-.2-.8-.4-1.1-.3-.3-.6-.5-1.1-.5-.4 0-.8.2-1.1.5-.3.3-.4.7-.4 1.1 0 .8.7 1.5 1.5 1.5zM128.4 89.3c-.8 0-1.5.7-1.5 1.5 0 .4.2.8.4 1.1.3.3.6.5 1.1.5.4 0 .8-.2 1.1-.5.3-.3.4-.7.4-1.1 0-.8-.7-1.5-1.5-1.5z"/><g><path class="st5" d="M174.4 42.8c.1.1.3.3.5.3.2.1.4.1.6.1.4 0 .8-.1 1.1-.4.5-.5.6-1.3.1-1.9l.6-2.3h.2c.6 0 1-.5 1-1s-.4-1-1-1-1 .5-1 1v.2l-2.2.6c-.6-.4-1.4-.4-1.9.2-.4.4-.5 1.1-.3 1.7.1.2.2.4.3.5l2 2zM149.4 66.9V62.2c0-.2.1-.4.2-.6l-20.8-21.3c-.1.2-.2.4-.3.5l-2 2c-.1.1-.3.3-.5.3l3.7 3.8-5.4 5.5 3.5 3.6 1.4-1.4-.7-.7 1.4-1.4.7.7.7-.7 1.4 1.4-.7.7.7.7-1.4 1.4-.7-.7-1.4 1.4 3.5 3.6 5.4-5.5 8.5 8.7c.2 0 .4.1.5.3l2.3 2.4zM151.7 69.4l1.9 2 6.9 7c.4.4.9.6 1.4.6.5 0 1-.2 1.4-.6.8-.8.8-2.1 0-2.9l-8.8-9-2.8 2.9zM151.4 66.3v.6l1.7-1.8-1.7-1.7zM179.9 81c.2.1.3.1.5.1.8 0 1.5-.7 1.5-1.5s-.7-1.5-1.5-1.5-1.5.7-1.5 1.5c0 .2 0 .4.1.5l.9.9zM180.4 94.4c-.2 0-.3 0-.5.1l-.9.9c-.1.2-.1.3-.1.5 0 .8.7 1.5 1.5 1.5s1.5-.7 1.5-1.5-.7-1.5-1.5-1.5zM165.8 80.1c.1-.2.1-.3.1-.5 0-.8-.7-1.5-1.5-1.5s-1.5.7-1.5 1.5.7 1.5 1.5 1.5c.2 0 .3 0 .5-.1l.9-.9zM164.4 97.4c.8 0 1.5-.7 1.5-1.5v-.2c-.8.4-1.7.8-2.6 1.2.2.3.7.5 1.1.5z"/></g><path class="st3" d="M179.9 94.5c1.6-1.8 2.5-4.2 2.5-6.7s-.9-4.9-2.5-6.7l-.9-.9c-1.8-1.6-4.1-2.6-6.6-2.6s-4.8 1-6.6 2.6l-.9.9c-1.6 1.8-2.5 4.2-2.5 6.7 0 .6.1 1.2.2 1.8.2 1.3.7 2.5 1.3 3.6.2.3.4.7.7 1 .8-.4 1.6-.9 2.2-1.3-.3-.4-.4-.9-.4-1.5 0-1.2.8-2.2 1.9-2.5-.3-.3-.4-.7-.4-1.1 0-.4.2-.8.4-1.1-1.1-.3-1.9-1.3-1.9-2.5 0-1.4 1.1-2.6 2.5-2.6 1.2 0 2.2.9 2.4 2 .3-.3.6-.5 1.1-.5s.8.2 1.1.5c.3-1.1 1.2-2 2.4-2 1.4 0 2.5 1.1 2.5 2.6 0 1.2-.8 2.2-1.9 2.5.3.3.4.7.4 1.1 0 .4-.2.8-.4 1.1 1.1.3 1.9 1.3 1.9 2.5 0 1.4-1.1 2.6-2.5 2.6-1.2 0-2.2-.9-2.4-2-.3.3-.6.5-1.1.5-.4 0-.8-.2-1.1-.5-.3 1.1-1.2 2-2.4 2-.2 0-.4 0-.5-.1 0 .2-.2.5-.4.6-.6.4-1.2.8-1.9 1.2 1.7 1.4 3.9 2.3 6.3 2.3 2.5 0 4.8-1 6.6-2.6l.9-.9zm-15.2-4.7c-.2-.7-.3-1.4-.3-2.1 0-.7.1-1.4.3-2.1.3.8.8 1.5 1.4 2.1-.6.6-1.1 1.3-1.4 2.1zm7.7-8.5c-.5-.7-1.2-1.2-2-1.5.6-.2 1.3-.3 2-.3s1.4.1 2 .3c-.8.3-1.5.8-2 1.5zm7.7 4.4c.2.7.3 1.4.3 2.1 0 .7-.1 1.4-.3 2.1-.3-.8-.8-1.5-1.4-2.1.7-.6 1.2-1.3 1.4-2.1zm-9.7 9.9c.8-.3 1.5-.8 2-1.5.5.7 1.2 1.2 2 1.5-.6.2-1.3.3-2 .3s-1.4-.1-2-.3z"/><g><path class="st6" d="M173.9 87.7c0 .8.7 1.5 1.5 1.5.4 0 .8-.2 1.1-.4.3-.3.4-.7.4-1.1 0-.4-.2-.8-.4-1.1-.3-.3-.6-.4-1.1-.4-.8 0-1.5.7-1.5 1.5zM170.9 87.7c0-.8-.7-1.5-1.5-1.5-.4 0-.8.2-1.1.4-.3.3-.4.7-.4 1.1 0 .4.2.8.4 1.1.3.3.6.4 1.1.4.8.1 1.5-.6 1.5-1.5zM172.4 86.2c.8 0 1.5-.7 1.5-1.5 0-.4-.2-.8-.4-1.1-.3-.3-.6-.5-1.1-.5-.4 0-.8.2-1.1.5-.3.3-.4.7-.4 1.1 0 .8.7 1.5 1.5 1.5zM172.4 89.3c-.8 0-1.5.7-1.5 1.5 0 .4.2.8.4 1.1.3.3.6.5 1.1.5.4 0 .8-.2 1.1-.5.3-.3.4-.7.4-1.1 0-.8-.7-1.5-1.5-1.5z"/></g><path class="st7" d="M128.5 40.8c.1-.2.3-.3.3-.5.2-.6.1-1.2-.3-1.7-.5-.5-1.3-.6-1.9-.2l-2.2-.6v-.2c0-.6-.4-1-1-1s-1 .5-1 1 .4 1 1 1h.2l.6 2.3c-.4.6-.4 1.4.1 1.9.3.3.7.4 1.1.4.2 0 .4 0 .6-.1.2-.1.3-.2.5-.3l2-2z"/><path class="st8" d="M168 94.4c.2-.2.3-.4.4-.6.1-.3 0-.6-.2-.8-.3-.4-.9-.5-1.4-.2-.6.5-1.4.9-2.2 1.3-2.9 1.4-6.9 2.4-11.2 2.7V82.5c4.4 6.1 8.6 9.4 10.5 10.6-.7-1.1-1.1-2.3-1.3-3.6-2.4-2-5.8-5.5-9.2-10.7v-6.9c.1-.2.1-.3.2-.5l-1.9-2 2.8-2.9.6-.6c.4-.4.4-1 0-1.4-.3-.3-.6-.3-.9-.3-.2 0-.4.1-.5.3l-.6.6-1.7 1.7v-4.7c0-.2-.1-.4-.2-.6-.2-.2-.5-.4-.8-.4-.3 0-.6.2-.8.4-.1.2-.2.4-.2.6V66.8l-2.3-2.3c-.1-.1-.3-.2-.5-.3-.3-.1-.7 0-.9.3-.4.4-.4 1 0 1.4l.6.6 2.8 2.9-1.9 2c.1.2.1.3.2.5v6.9c-3.3 5.2-6.7 8.6-9.2 10.7-.2 1.3-.7 2.5-1.3 3.6 1.9-1.3 6.1-4.6 10.5-10.6v14.4c-4.3-.3-8.3-1.3-11.2-2.7-.8-.4-1.6-.9-2.2-1.3-.4-.3-1-.2-1.4.2-.2.2-.2.5-.2.8 0 .2.2.5.4.6.6.4 1.2.8 1.9 1.2.1 0 .1.1.2.1.8.4 1.7.8 2.6 1.2 2.8 1.1 6.2 1.7 9.9 2v7.5c.3-.2.6-.3 1-.3s.7.1 1 .3V99h2v2.3c.3-.2.6-.3 1-.3s.7.1 1 .3v-2.4c3.6-.2 7-.9 9.9-2 .9-.3 1.8-.7 2.6-1.2.1 0 .1-.1.2-.1.7-.3 1.3-.7 1.9-1.2zm-17.6 2.5h-1V79.5c.3-.5.7-1.1 1-1.7.3.6.7 1.1 1 1.7V97c-.3-.1-.7-.1-1-.1z"/><g><path class="st3" d="M150.4 38.4c5.5 0 10 1 10 2.2v-4.3c0-.5-.4-.9-1.2-1.3l.2-.5c.4 0 .7-.2.8-.6.1-.1.1-.3.1-.4 0-.2-.1-.4-.2-.5-.2-.3-.5-.5-.8-.5-.6 0-1 .5-1 1 0 .2.1.4.2.5l-.3.5c-.8-.3-1.7-.5-2.7-.7l.1-.5c.4-.1.7-.5.7-1 0-.6-.4-1-1-1s-1 .5-1 1c0 .3.1.5.3.7l-.1.5c-.6-.1-1.1-.1-1.7-.2 0-.2.1-.4.1-.6 0-1.4-1.1-2.6-2.5-2.6s-2.5 1.1-2.5 2.6c0 .2 0 .4.1.6-.6 0-1.2.1-1.7.2l-.1-.5c.2-.2.3-.4.3-.7 0-.6-.4-1-1-1s-1 .5-1 1 .3.8.7 1l.1.5c-1.1.2-2 .4-2.7.7l-.3-.5c.1-.2.2-.3.2-.5 0-.6-.4-1-1-1-.4 0-.7.2-.8.5-.1.2-.2.3-.2.5s0 .3.1.4c.2.3.5.5.8.6l.2.5c-.7.4-1.2.8-1.2 1.3v4.3c0-1.2 4.5-2.2 10-2.2zM140.4 40.7v-.1.1zM160.4 40.7v-.1.1z"/></g><path class="st2" d="M142.4 42.7c0 .2-.1.4-.2.5l.4.8c.7-.3 1.6-.6 2.6-.8l-.1-.5c-.4-.1-.7-.5-.7-1 0-.6.4-1 1-1s1 .5 1 1c0 .3-.1.5-.3.7l.1.6c1-.1 2-.2 3.2-.3v-.9c-.3-.3-.5-.7-.5-1.1 0-.8.7-1.5 1.5-1.5s1.5.7 1.5 1.5c0 .5-.2.9-.5 1.1v.9c1.1 0 2.2.1 3.2.3l.1-.6c-.2-.2-.3-.4-.3-.7 0-.6.4-1 1-1s1 .5 1 1-.3.8-.7 1l-.1.5c1.1.2 2 .5 2.6.8l.4-.8c-.1-.2-.2-.3-.2-.5 0-.6.4-1 1-1 .2 0 .4.1.6.2.2-.6.3-1 .4-1.3v-.1c0-1.2-4.5-2.2-10-2.2s-10 1-10 2.2v.1c0 .3.1.7.4 1.3.2-.1.4-.2.6-.2.6 0 1 .5 1 1z"/><path class="st3" d="M140.4 42.7c0 .5.4 1 .9 1l.4.9c-.2.2-.4.5-.4.7 0 .3.2.6.5.8l1.5 2.7c0-1.1 3.1-2 7-2s7 .9 7 2l1.5-2.7c.3-.3.5-.5.5-.8 0-.3-.1-.5-.4-.7l.4-.9c.5 0 .9-.5.9-1 0-.3-.2-.6-.4-.8-.2-.1-.4-.2-.6-.2-.6 0-1 .5-1 1 0 .2.1.4.2.5l-.4.8c-.7-.3-1.6-.6-2.6-.8l.1-.5c.4-.1.7-.5.7-1 0-.6-.4-1-1-1s-1 .5-1 1c0 .3.1.5.3.7l-.1.6c-1-.1-2-.2-3.2-.3v-.9c.3-.3.5-.7.5-1.1 0-.8-.7-1.5-1.5-1.5s-1.5.7-1.5 1.5c0 .5.2.9.5 1.1v.9c-1.1 0-2.2.1-3.2.3l-.1-.6c.2-.2.3-.4.3-.7 0-.6-.4-1-1-1s-1 .5-1 1 .3.8.7 1l.1.5c-1.1.2-2 .5-2.6.8l-.4-.8c.1-.2.2-.3.2-.5 0-.6-.4-1-1-1-.2 0-.4.1-.6.2 0 .2-.2.5-.2.8z"/><ellipse class="st2" cx="150.4" cy="48.9" rx="7" ry="2"/><g><path class="st3" d="M160.2 31.4l-1.8-4.1c0-.3-.2-.5-.5-.7l1.4-2.9c.2-.5 0-1.1-.4-1.4-.5-.3-1.1 0-1.3.5l-.8 1.6-.7 1.5c-.4-.1-.9-.2-1.4-.3l.1-.4c.4-.1.7-.5.7-1 0-.6-.4-1-1-1s-1 .5-1 1c0 .3.1.5.3.7l-.1.5c-1-.1-2.1-.2-3.2-.2s-2.2.1-3.2.2l-.1-.5c.2-.2.3-.4.3-.7 0-.6-.4-1-1-1s-1 .5-1 1 .3.8.7 1l.1.4c-.5.1-1 .2-1.4.3l-.7-1.5-.8-1.6c-.2-.5-.8-.7-1.3-.5-.5.3-.7.9-.4 1.4l1.4 2.9c-.3.2-.5.5-.5.7l-1.8 4.1c1-1.1 5-2 9.8-2 4.6 0 8.6.9 9.6 2z"/><ellipse class="st3" cx="150.4" cy="23.8" rx="1.5" ry="1.5"/></g></svg>
