<svg xmlns="http://www.w3.org/2000/svg" viewBox="0 0 200 134"><defs><style>.ve_cls-1{fill:#f7d531;}.ve_cls-2{fill:#1f449b;}.ve_cls-3{fill:#d02a36;}.ve_cls-4{fill:#fff;}</style></defs><title>Asset 95</title><g id="Layer_2" data-name="Layer 2"><g id="Layer_6" data-name="Layer 6"><path class="ve_cls-1" d="M183,0H17A17,17,0,0,0,0,17V44.62H200V17A17,17,0,0,0,183,0Z"/><path class="ve_cls-2" d="M0,89.38H200V44.62H0Zm65.9-3.74-3.84-3-4,2.73,1.67-4.58-3.84-3,4.88.17,1.67-4.58,1.35,4.69,4.87.17-4,2.73Zm4.87-11.17-2.59-4.14-4.73,1.18,3.13-3.74L64,63.65l4.52,1.83,3.14-3.74-.34,4.87,4.52,1.83-4.73,1.18Zm8.39-8.83-1-4.77-4.85-.51,4.22-2.44-1-4.77,3.63,3.26L84.35,54l-2,4.46L86,61.7l-4.85-.51Zm18.68-6.8-4.38-2.14-3.39,3.51.68-4.83-4.38-2.14,4.8-.85.68-4.83,2.29,4.31,4.8-.85-3.39,3.51Zm12.1,1.37-3.39-3.51-4.38,2.14,2.29-4.31L101.07,51l4.8.85,2.29-4.31.68,4.83,4.8.85-4.38,2.14ZM114,61.7l3.63-3.26-2-4.46,4.22,2.44,3.63-3.26-1,4.77,4.22,2.44-4.85.51-1,4.77-2-4.46Zm10.15,6.73,4.52-1.83-.34-4.86,3.13,3.74L136,63.65l-2.58,4.14,3.13,3.74-4.73-1.18-2.59,4.14-.34-4.87ZM142,85.37l-4-2.73-3.84,3L135.44,81l-4-2.73,4.88-.17,1.34-4.69L139.29,78l4.87-.17-3.84,3Z"/><path class="ve_cls-3" d="M0,117a17,17,0,0,0,17,17H183a17,17,0,0,0,17-17V89.38H0Z"/><polygon class="ve_cls-4" points="94.13 51.88 91.84 47.57 91.16 52.4 86.36 53.25 90.74 55.39 90.06 60.22 93.45 56.71 97.83 58.85 95.55 54.54 98.93 51.03 94.13 51.88"/><polygon class="ve_cls-4" points="108.84 52.4 108.16 47.57 105.87 51.88 101.07 51.03 104.45 54.54 102.16 58.85 106.55 56.71 109.94 60.22 109.26 55.39 113.64 53.25 108.84 52.4"/><polygon class="ve_cls-4" points="82.37 58.44 84.35 53.98 80.13 56.42 76.5 53.15 77.52 57.93 73.29 60.37 78.14 60.88 79.16 65.65 81.14 61.19 85.99 61.7 82.37 58.44"/><polygon class="ve_cls-4" points="121.86 60.88 126.71 60.37 122.48 57.93 123.5 53.15 119.87 56.42 115.65 53.98 117.63 58.44 114.01 61.7 118.86 61.19 120.84 65.65 121.86 60.88"/><polygon class="ve_cls-4" points="71.32 66.6 71.66 61.74 68.52 65.47 64 63.65 66.58 67.78 63.45 71.52 68.18 70.34 70.77 74.48 71.11 69.61 75.84 68.43 71.32 66.6"/><polygon class="ve_cls-4" points="131.82 70.34 136.55 71.52 133.42 67.78 136 63.65 131.48 65.47 128.34 61.74 128.68 66.6 124.16 68.43 128.89 69.61 129.23 74.48 131.82 70.34"/><polygon class="ve_cls-4" points="63.73 78.06 62.38 73.37 60.72 77.95 55.84 77.78 59.68 80.78 58.01 85.37 62.06 82.64 65.9 85.64 64.56 80.95 68.6 78.23 63.73 78.06"/><polygon class="ve_cls-4" points="139.29 77.95 137.62 73.37 136.27 78.06 131.4 78.23 135.44 80.95 134.1 85.64 137.94 82.64 141.98 85.37 140.32 80.78 144.16 77.78 139.29 77.95"/></g></g></svg>
