<svg xmlns="http://www.w3.org/2000/svg" viewBox="0 0 200 134"><defs><style>.ve_cls-1{fill:#f7d531}.ve_cls-2{fill:#1f449b}.ve_cls-3{fill:#d02a36}.ve_cls-4{fill:#fff}</style></defs><title>Asset 95</title><g id="Layer_2" data-name="Layer 2"><g id="Layer_6" data-name="Layer 6"><path class="ve_cls-1" d="M183 0H17A17 17 0 0 0 0 17v27.62h200V17a17 17 0 0 0-17-17z"/><path class="ve_cls-2" d="M0 89.38h200V44.62H0zm65.9-3.74l-3.84-3-4 2.73 1.67-4.58-3.84-3 4.88.17 1.67-4.58 1.35 4.69 4.87.17-4 2.73zm4.87-11.17l-2.59-4.14-4.73 1.18 3.13-3.74L64 63.65l4.52 1.83 3.14-3.74-.34 4.87 4.52 1.83-4.73 1.18zm8.39-8.83l-1-4.77-4.85-.51 4.22-2.44-1-4.77 3.63 3.26L84.35 54l-2 4.46L86 61.7l-4.85-.51zm18.68-6.8l-4.38-2.14-3.39 3.51.68-4.83-4.38-2.14 4.8-.85.68-4.83 2.29 4.31 4.8-.85-3.39 3.51zm12.1 1.37l-3.39-3.51-4.38 2.14 2.29-4.31-3.39-3.53 4.8.85 2.29-4.31.68 4.83 4.8.85-4.38 2.14zM114 61.7l3.63-3.26-2-4.46 4.22 2.44 3.63-3.26-1 4.77 4.22 2.44-4.85.51-1 4.77-2-4.46zm10.15 6.73l4.52-1.83-.34-4.86 3.13 3.74 4.54-1.83-2.58 4.14 3.13 3.74-4.73-1.18-2.59 4.14-.34-4.87zM142 85.37l-4-2.73-3.84 3 1.28-4.64-4-2.73 4.88-.17 1.34-4.69 1.63 4.59 4.87-.17-3.84 3z"/><path class="ve_cls-3" d="M0 117a17 17 0 0 0 17 17h166a17 17 0 0 0 17-17V89.38H0z"/><path class="ve_cls-4" d="M94.13 51.88l-2.29-4.31-.68 4.83-4.8.85 4.38 2.14-.68 4.83 3.39-3.51 4.38 2.14-2.28-4.31 3.38-3.51-4.8.85zM108.84 52.4l-.68-4.83-2.29 4.31-4.8-.85 3.38 3.51-2.29 4.31 4.39-2.14 3.39 3.51-.68-4.83 4.38-2.14-4.8-.85zM82.37 58.44l1.98-4.46-4.22 2.44-3.63-3.27 1.02 4.78-4.23 2.44 4.85.51 1.02 4.77 1.98-4.46 4.85.51-3.62-3.26zM121.86 60.88l4.85-.51-4.23-2.44 1.02-4.78-3.63 3.27-4.22-2.44 1.98 4.46-3.62 3.26 4.85-.51 1.98 4.46 1.02-4.77zM71.32 66.6l.34-4.86-3.14 3.73L64 63.65l2.58 4.13-3.13 3.74 4.73-1.18 2.59 4.14.34-4.87 4.73-1.18-4.52-1.83zM131.82 70.34l4.73 1.18-3.13-3.74 2.58-4.13-4.52 1.82-3.14-3.73.34 4.86-4.52 1.83 4.73 1.18.34 4.87 2.59-4.14zM63.73 78.06l-1.35-4.69-1.66 4.58-4.88-.17 3.84 3-1.67 4.59 4.05-2.73 3.84 3-1.34-4.69 4.04-2.72-4.87-.17zM139.29 77.95l-1.67-4.58-1.35 4.69-4.87.17 4.04 2.72-1.34 4.69 3.84-3 4.04 2.73-1.66-4.59 3.84-3-4.87.17z"/></g></g></svg>