<svg xmlns="http://www.w3.org/2000/svg" viewBox="0 0 200 134"><defs><style>.xk_cls-1{fill:#20519f;}.xk_cls-2{fill:#f4cf31;}.xk_cls-3{fill:#fff;}</style></defs><title>Asset 95</title><g id="Layer_2" data-name="Layer 2"><g id="Layer_5" data-name="Layer 5"><path class="xk_cls-1" d="M183,0H17A17,17,0,0,0,0,17V117a17,17,0,0,0,17,17H183a17,17,0,0,0,17-17V17A17,17,0,0,0,183,0ZM124.56,25.78l1.9-5.82,1.89,5.83h6.12l-5,3.6,1.89,5.83-5-3.6-5,3.6,1.9-5.83-5-3.6ZM106.76,22l1.9-5.82L110.55,22h6.13l-5,3.6,1.89,5.83-5-3.6-5,3.6,1.9-5.83-5-3.6ZM87.69,22l1.89-5.83L91.48,22H97.6l-5,3.6,1.9,5.83-5-3.6-5,3.6,1.89-5.83-5-3.6ZM60.22,40.3l-5-3.6-5,3.6,1.89-5.83-5-3.6h6.13L55.25,25l1.9,5.82h6.13l-5,3.6Zm9.67-14.51L71.78,20l1.9,5.82H79.8l-5,3.6,1.9,5.83-5-3.6-5,3.6,1.89-5.83-5-3.6Zm69.17,49c0,.72,0,1.44,0,2.16l-1,0c0,.82,0,1.64,0,2.46-.54.4-1,.84-1.54,1.28,0,.5,0,1,0,1.51l-1.08.83c0,.16,0,.47,0,.63a2.55,2.55,0,0,1-1.35.62c-.25.27-.5.54-.73.81l-.67.16.83.44q0,1.48,0,3a3.74,3.74,0,0,1-2.34.47l-.85.93a2,2,0,0,0-1.4.73c0,.47,0,.94,0,1.42.92.44,1.27,1.66,2.46,1.61,0,.79.16,1.69-.66,2.2h-1.12c-.57.75-1.82.23-2.68.37,0-.22,0-.65,0-.86l-.8,0c-.27.29-.54.56-.82.84a2.61,2.61,0,0,0-1.22.52c-.57,0-1.14,0-1.71,0l0,.53-1.28,0a1.78,1.78,0,0,0-.68,1.18l-.88.69c0,.56,0,1.15-.62,1.41.13.62-.38,1.72.6,1.9,0,.23,0,.45,0,.68-1.33,0-2.67,0-4,0,0-.41,0-.82,0-1.22-1-.25-.38-1.36-.54-2l-.57,0c0-.2,0-.6,0-.81-.44,0-.94,0-1.12-.43h-.78c0-.33,0-.66-.07-1H110c0,.17,0,.51,0,.68l-.68.68H108l-.64.85c-.61,0-1.21,0-1.81,0a5.79,5.79,0,0,1-.7.63c0,.17,0,.52,0,.69-.46,0-1,0-1.1.54h-1.19l-.74.88H99.58c-.35.77-1.38.39-2.09.5a3.75,3.75,0,0,1-1.09,1c0,.42,0,.85,0,1.28l-.58,0c0,.41,0,.82,0,1.23l-1,.71c0,1.1,0,2.21,0,3.31l1,.71c0,1,0,1.95,0,2.92l-.67.6-.83,0c0,.19,0,.57,0,.76l-.65.58H90.95c-.41.47-.84.93-1.27,1.38H87.88a2.2,2.2,0,0,0-.49-1.16c0-1.08,0-2.16,0-3.23.5-.44,1-.89,1.5-1.31,0-.47,0-.94,0-1.4l-.5-.25c-.11-1.46,0-2.94,0-4.4h-.89c-.08-.45,0-1-.66-1.09,0-1.1,0-2.21,0-3.31l-.89-.7c-.08-.42-.08-.92-.62-1.08,0-.32,0-.64,0-1a.69.69,0,0,1,.14-1.32c-.57-.45-1.09-.93-1.64-1.4,0-.15,0-.46,0-.61-.63-.11-1.19-.39-1.8-.54-.18-.39-.61-.43-1-.45l-.39-.39a1.67,1.67,0,0,1-1-.43l-.71,0a6.76,6.76,0,0,1-.54-2.59,9.14,9.14,0,0,1-.69-.63c-1.24-.05-2.48,0-3.71,0a1.08,1.08,0,0,1-.8-.28c-.28-.25-.56-.5-.86-.73,0-.75,0-1.49,0-2.24a7,7,0,0,0-.91-1.41c0-.17,0-.51,0-.67l-.55-.08c0-.17,0-.52,0-.7-.6-.32-.36-1-.45-1.51l-1.48,0c0-.17,0-.52,0-.69L68,81.57l-.8,0c0-.18,0-.53,0-.71a1.15,1.15,0,0,1-.56-1.15l1,0c0-.82,0-1.65,0-2.47a5.07,5.07,0,0,0-1-1.46l-.48-.53-.7,0-.66-.59c0-.34,0-.68,0-1-.76-.14-.48-.89-.57-1.39-.91-.54-.12-1.54.15-2.22a6.13,6.13,0,0,1,.55-.55,8,8,0,0,0,.92-1h1.32l.78.9.88-.05v.92h4.95c0-.43,0-1,.57-1.06,0-.85,0-1.71,0-2.56.58,0,1.24.06,1.67-.38l.78,0c0-.46,0-.92,0-1.38.8,0,1.6,0,2.39,0l.27-.51a.91.91,0,0,1,1,.68q.44-.48.9-.93a2.34,2.34,0,0,0,1.31-.66,10.7,10.7,0,0,1,1.77-.88l-.58-.52a1.81,1.81,0,0,0-1.05-1.41c0-.63,0-1.26,0-1.89Q83.44,58,84,57.49h1.08a11.53,11.53,0,0,1,2.26-2c0-.18,0-.53,0-.71h.83c.08.46.51.5.93.51a4.74,4.74,0,0,1,.69-.68l.05-.57c.78-.47.26-1.52.42-2.23.39-.35.93-.62,1.1-1.11-.16-.49-.71-.74-1.08-1.09.27-1.15-.91-1.66-1.56-2.43L87.87,47c-.1-.38-.06-.86-.48-1.1,0-.54,0-1.09,0-1.63,1.28,0,2.57.07,3.84-.05l.25-.4a11.66,11.66,0,0,0,1.63-.9l1.6,0,.78-.88.87,0,.07-.49,1.2,0c.71.67,1.44,1.31,2.16,2a.94.94,0,0,0,.78,1,11.25,11.25,0,0,1-1.52.21,2.25,2.25,0,0,1-.78.61c.09.75.84,1.16,1.35,1.67a2.49,2.49,0,0,1,1.55.41l1.18,0c0,.46,0,.92,0,1.39.49,0,1.11,0,1.25-.52.86,0,1.72,0,2.59,0,.22.43.76.45,1.18.63l.21,1c.43-.5.85-1.16,1.64-1.18.25.31.51.62.77.92.45,0,.92.07,1.12.51l.8,0a20.73,20.73,0,0,0,.05,2.59l.48.26q0,1,0,2.09c.48.37,1.28.7,1.71.06h.69a3.78,3.78,0,0,0,1.09,1c0,.68,0,1.36,0,2,1,.33.36,1.55.55,2.29a2.84,2.84,0,0,1,1.14,1.23l.44-.68,1.73,0c.25.28.52.55.79.82l.48.46a2.79,2.79,0,0,1,1.11.45l1,.06c.28.56,1,.48,1.53.58L124,64a30.46,30.46,0,0,1-.05,3.4l-.47.24a2.33,2.33,0,0,1-.55,1.61H124c0,.13,0,.4,0,.53h.49l.06-.54h.92c0,.13,0,.38,0,.5.55.09,1.34-.19,1.65.39,1.42,0,2.83,0,4.25,0,0,.17,0,.51.06.68l.65.69h1.43l0,.76a2.37,2.37,0,0,0,1.53.66c0-.23,0-.71,0-.94H136l.07-.52c.67,0,1.55-.15,1.71.66l.55-.73a4,4,0,0,1,1.18.64c0,.17,0,.52,0,.69.76.14.46.9.54,1.41C139.71,74.37,139.39,74.6,139.06,74.84Zm8.87-34.54-5-3.6-5,3.6,1.9-5.83-5-3.6h6.13L143,25l1.89,5.83H151l-5,3.6Z"/><path class="xk_cls-2" d="M139.51,72.74c0-.17,0-.52,0-.69a4,4,0,0,0-1.18-.64l-.55.73c-.16-.81-1-.62-1.71-.66L136,72H135c0,.24,0,.71,0,.94a2.37,2.37,0,0,1-1.53-.66l0-.76h-1.43l-.65-.69c0-.17,0-.51-.06-.68-1.42,0-2.84,0-4.25,0-.3-.58-1.1-.3-1.65-.39,0-.13,0-.38,0-.5h-.92l-.06.54H124c0-.13,0-.4,0-.53H122.9a2.33,2.33,0,0,0,.55-1.61l.47-.24A30.46,30.46,0,0,0,124,64l.76-.51c-.56-.11-1.25,0-1.53-.58l-1-.06a2.79,2.79,0,0,0-1.11-.45l-.48-.46c-.27-.27-.53-.54-.79-.82l-1.73,0-.44.68a2.84,2.84,0,0,0-1.14-1.23c-.19-.74.45-2-.55-2.29,0-.68,0-1.36,0-2a3.78,3.78,0,0,1-1.09-1h-.69c-.42.64-1.22.31-1.71-.06q0-1,0-2.09l-.48-.26a20.73,20.73,0,0,1-.05-2.59l-.8,0c-.19-.44-.67-.48-1.12-.51-.26-.3-.52-.61-.77-.92-.8,0-1.21.68-1.64,1.18l-.21-1c-.42-.18-1-.2-1.18-.63-.87,0-1.73,0-2.59,0-.14.55-.76.47-1.25.52,0-.46,0-.93,0-1.39l-1.18,0A2.49,2.49,0,0,0,99.61,47c-.51-.51-1.26-.93-1.35-1.67a2.25,2.25,0,0,0,.78-.61,11.25,11.25,0,0,0,1.52-.21.94.94,0,0,1-.78-1c-.72-.65-1.45-1.29-2.16-2l-1.2,0-.07.49-.87,0-.78.88-1.6,0a11.66,11.66,0,0,1-1.63.9l-.25.4c-1.28.12-2.56,0-3.84.05,0,.54,0,1.09,0,1.63.43.24.39.71.48,1.1l.89.09c.65.77,1.83,1.29,1.56,2.43.37.35.92.61,1.08,1.09-.17.49-.72.76-1.1,1.11-.17.71.36,1.76-.42,2.23l-.05.57a4.74,4.74,0,0,0-.69.68c-.42,0-.85,0-.93-.51h-.83c0,.18,0,.53,0,.71a11.53,11.53,0,0,0-2.26,2H84q-.59.56-1.22,1.07c0,.63,0,1.26,0,1.89a1.81,1.81,0,0,1,1.05,1.41l.58.52a10.7,10.7,0,0,0-1.77.88,2.34,2.34,0,0,1-1.31.66q-.46.46-.9.93a.91.91,0,0,0-1-.68l-.27.51c-.79.07-1.59,0-2.39,0,0,.46,0,.92,0,1.38l-.78,0c-.43.45-1.09.35-1.67.38,0,.85,0,1.71,0,2.56-.62.1-.53.63-.57,1.06H68.79v-.92l-.88.05-.78-.9H65.81a8,8,0,0,1-.92,1,6.13,6.13,0,0,0-.55.55c-.26.67-1.06,1.68-.15,2.22.09.5-.19,1.25.57,1.39,0,.34,0,.68,0,1l.66.59.7,0,.48.53a5.07,5.07,0,0,1,1,1.46c0,.82,0,1.64,0,2.47l-1,0a1.15,1.15,0,0,0,.56,1.15c0,.18,0,.53,0,.71l.8,0,.74.63c0,.17,0,.52,0,.69l1.48,0c.09.51-.15,1.19.45,1.51,0,.17,0,.52,0,.7l.55.08c0,.17,0,.5,0,.67a7,7,0,0,1,.91,1.41c.07.74,0,1.49,0,2.24.29.24.58.48.86.73a1.08,1.08,0,0,0,.8.28c1.24,0,2.47,0,3.71,0a9.14,9.14,0,0,0,.69.63,6.76,6.76,0,0,0,.54,2.59l.71,0a1.67,1.67,0,0,0,1,.43l.39.39c.41,0,.84.05,1,.45.61.15,1.18.43,1.8.54,0,.15,0,.46,0,.61.54.47,1.07,1,1.64,1.4A.69.69,0,0,0,85.27,99c0,.32,0,.63,0,1,.54.16.54.65.62,1.08l.89.7c0,1.1,0,2.2,0,3.31.67.05.58.64.66,1.09h.89c0,1.47-.07,2.94,0,4.4l.5.25c0,.46,0,.93,0,1.4-.51.42-1,.87-1.5,1.31,0,1.08,0,2.16,0,3.23a2.2,2.2,0,0,1,.49,1.16h1.79c.43-.46.86-.91,1.27-1.38h2.68l.65-.58c0-.19,0-.57,0-.76l.83,0,.67-.6c0-1,0-1.95,0-2.92l-1-.71c0-1.11,0-2.21,0-3.31l1-.71c0-.41,0-.82,0-1.23l.58,0c0-.43,0-.85,0-1.28a3.75,3.75,0,0,0,1.09-1c.71-.11,1.74.27,2.09-.5h2.21l.74-.88h1.19c.12-.5.64-.5,1.1-.54,0-.17,0-.52,0-.69a5.79,5.79,0,0,0,.7-.63c.6,0,1.21,0,1.81,0l.64-.85h1.24l.68-.68c0-.17,0-.51,0-.68h2.44c0,.33,0,.66.07,1h.78c.18.45.68.39,1.12.43,0,.2,0,.6,0,.81l.57,0c.17.65-.42,1.77.54,2,0,.4,0,.82,0,1.22,1.33,0,2.67,0,4,0,0-.23,0-.45,0-.68-1-.18-.47-1.28-.6-1.9.65-.26.64-.86.62-1.41l.88-.69a1.78,1.78,0,0,1,.68-1.18l1.28,0,0-.53c.57,0,1.14,0,1.71,0a2.61,2.61,0,0,1,1.22-.52c.28-.28.55-.55.82-.84l.8,0c0,.22,0,.65,0,.86.86-.14,2.11.37,2.68-.37h1.12c.82-.51.67-1.41.66-2.2-1.18,0-1.54-1.17-2.46-1.61,0-.47,0-.95,0-1.42a2,2,0,0,1,1.4-.73l.85-.93a3.74,3.74,0,0,0,2.34-.47q0-1.49,0-3l-.83-.44.67-.16c.24-.28.48-.55.73-.81a2.55,2.55,0,0,0,1.35-.62c0-.16,0-.47,0-.63l1.08-.83c0-.5,0-1,0-1.51.5-.44,1-.87,1.54-1.28,0-.82,0-1.64,0-2.46l1,0c0-.72,0-1.44,0-2.16.33-.23.65-.47,1-.69C140,73.63,140.27,72.88,139.51,72.74Z"/><polygon class="xk_cls-3" points="66.83 35.22 71.79 31.61 76.75 35.21 74.85 29.38 79.81 25.78 73.68 25.78 71.78 19.96 69.89 25.79 63.77 25.79 68.72 29.39 66.83 35.22"/><polygon class="xk_cls-3" points="84.63 31.4 89.59 27.8 94.55 31.4 92.65 25.57 97.6 21.97 91.48 21.97 89.58 16.15 87.69 21.97 81.56 21.98 86.52 25.57 84.63 31.4"/><polygon class="xk_cls-3" points="57.15 30.87 55.25 25.05 53.36 30.87 47.24 30.88 52.2 34.48 50.31 40.3 55.26 36.7 60.22 40.3 58.32 34.47 63.28 30.86 57.15 30.87"/><polygon class="xk_cls-3" points="121.49 35.21 126.45 31.61 131.4 35.22 129.51 29.39 134.47 25.79 128.35 25.79 126.46 19.96 124.56 25.78 118.43 25.78 123.39 29.38 121.49 35.21"/><polygon class="xk_cls-3" points="103.69 31.4 108.65 27.8 113.6 31.4 111.71 25.57 116.67 21.98 110.55 21.97 108.66 16.15 106.76 21.97 100.64 21.97 105.59 25.57 103.69 31.4"/><polygon class="xk_cls-3" points="144.87 30.87 142.98 25.05 141.09 30.87 134.96 30.86 139.91 34.47 138.02 40.3 142.98 36.7 147.93 40.3 146.04 34.48 151 30.88 144.87 30.87"/></g></g></svg>
