<svg xmlns="http://www.w3.org/2000/svg" viewBox="0 0 200.08 134"><defs><style>.za_cls-1{fill:#fff;}.za_cls-2{fill:none;}.za_cls-3{fill:#e23f29;}.za_cls-4{fill:#fbb516;}.za_cls-5{fill:#087d5a;}.za_cls-6{fill:#2b3382;}.za_cls-7{fill:#121212;}</style></defs><title>Asset 66</title><g id="Layer_2" data-name="Layer 2"><g id="Layer_31" data-name="Layer 31"><polygon class="za_cls-1" points="24.1 134 40.43 134 107.16 89.24 200.08 89.39 200.08 80.42 103.88 80.37 24.1 134"/><polygon class="za_cls-1" points="40.6 0 24.25 0 103.73 53.6 200.08 53.55 200.08 44.58 107.23 44.58 40.6 0"/><polygon class="za_cls-2" points="107.16 44.57 40.52 0 24.18 0 103.65 53.6 200 53.55 200 44.57 107.16 44.57"/><polygon class="za_cls-2" points="24.02 134 40.35 134 107.08 89.24 200 89.39 200 80.42 103.8 80.36 24.02 134"/><path class="za_cls-3" d="M200,44.57V17A17,17,0,0,0,183,0H40.52l66.64,44.57Z"/><path class="za_cls-4" d="M0,16.41c0,.2,0,.39,0,.59V27.35l59.29,39.6L0,106.76V117c0,.16,0,.32,0,.48L75.17,66.94Z"/><path class="za_cls-5" d="M24.18,0H17A17,17,0,0,0,0,16.41L75.17,66.94,0,117.48A17,17,0,0,0,17,134h7L103.8,80.37l96.2.06V53.55l-96.35,0Z"/><path class="za_cls-6" d="M40.35,134H183a17,17,0,0,0,17-17V89.39l-92.92-.15Z"/><polygon class="za_cls-7" points="0 27.35 0 106.77 59.29 66.94 0 27.35"/></g></g></svg>
