<svg xmlns="http://www.w3.org/2000/svg" viewBox="0 0 200 134"><defs><style>.zw_cls-1{fill:#349344;}.zw_cls-2{fill:#feda33;}.zw_cls-3{fill:#dd2d2c;}.zw_cls-4{fill:#121212;}.zw_cls-5{fill:#010101;}.zw_cls-6{fill:#fafafa;}.zw_cls-7{fill:#dd2726;}.zw_cls-8{fill:#ffc71c;}</style></defs><title>Asset 100</title><g id="Layer_2" data-name="Layer 2"><g id="Layer_1-2" data-name="Layer 1"><path class="zw_cls-1" d="M183,0H17A16.91,16.91,0,0,0,7.69,2.79L29.43,19.09H200V17A17,17,0,0,0,183,0Z"/><path class="zw_cls-1" d="M7.69,131.21A16.91,16.91,0,0,0,17,134H183a17,17,0,0,0,17-17v-2.09H29.43Z"/><polygon class="zw_cls-2" points="29.43 114.91 200 114.91 200 95.74 54.98 95.74 29.43 114.91"/><polygon class="zw_cls-2" points="54.98 38.26 200 38.26 200 19.09 29.43 19.09 54.98 38.26"/><polygon class="zw_cls-3" points="80.53 57.42 200 57.42 200 38.26 54.98 38.26 80.53 57.42"/><polygon class="zw_cls-3" points="54.98 95.74 200 95.74 200 76.58 80.53 76.58 54.98 95.74"/><polygon class="zw_cls-4" points="93.31 67 80.53 76.58 200 76.58 200 57.42 80.53 57.42 93.31 67"/><path class="zw_cls-5" d="M55,95.74,80.53,76.58,93.3,67,80.53,57.42,55,38.26,29.43,19.09,7.69,2.79A17.22,17.22,0,0,0,5.32,4.67L88.43,67,5.32,129.33a17.14,17.14,0,0,0,2.37,1.88l21.74-16.31Z"/><path class="zw_cls-6" d="M88.43,67,5.32,4.67A16.94,16.94,0,0,0,0,17V117a16.93,16.93,0,0,0,5.32,12.33Z"/><polygon class="zw_cls-7" points="35.2 34.12 20.12 64.67 43.03 75.98 35.2 34.12"/><polygon class="zw_cls-7" points="35.2 34.12 50.27 64.67 27.36 75.98 35.2 34.12"/><polygon class="zw_cls-7" points="35.2 34.12 23.78 66.22 47.85 74.78 35.2 34.12"/><polygon class="zw_cls-7" points="35.2 34.12 46.61 66.22 22.54 74.78 35.2 34.12"/><polygon class="zw_cls-7" points="67.6 57.66 33.88 52.77 30.21 78.05 67.6 57.66"/><polygon class="zw_cls-7" points="2.8 57.66 36.51 52.77 40.18 78.05 2.8 57.66"/><polygon class="zw_cls-7" points="67.6 57.66 33.54 56.73 32.84 82.27 67.6 57.66"/><polygon class="zw_cls-7" points="2.8 57.66 36.85 56.73 37.55 82.27 2.8 57.66"/><polygon class="zw_cls-7" points="35.2 38.92 23.18 65.61 36.53 71.62 35.2 38.92"/><polygon class="zw_cls-7" points="35.2 38.92 47.21 65.61 33.86 71.62 35.2 38.92"/><polygon class="zw_cls-7" points="52.4 91.88 46.43 63.22 32.1 66.2 52.4 91.88"/><polygon class="zw_cls-7" points="52.4 91.88 26.99 77.34 34.26 64.63 52.4 91.88"/><polygon class="zw_cls-7" points="17.99 91.88 43.4 77.34 36.13 64.63 17.99 91.88"/><polygon class="zw_cls-7" points="17.99 91.88 23.96 63.22 38.29 66.2 17.99 91.88"/><path class="zw_cls-8" d="M29.49,59.79c2.1,4.58,2.63,4.88,7.89,6.69S57.49,70,59,70.16c-1-1-17.7-13.36-21.13-15.84a28.26,28.26,0,0,1-4.4-3.61s-3.1-5.58-4.17-7.21-3-3.94-5.63-3.94-4.17,1.52-4.92,4.23c-.41.11-2.63,1.46-2.55,2.86.64-.08,4.66-1.2,6,3.34s1.46,12,0,15.66-3.64,6.46-3.64,9.7c0,.45.3,1.35,1.05,1.35C19.9,78.13,22,88.31,22,88.31H52L56.75,69.9Z"/><path class="zw_cls-5" d="M52.07,88.41H21.92l0-.08c0-.1-2-9.84-2.35-11.53-.75-.07-1.07-1-1.07-1.45,0-2.17,1-4.17,2.06-6.28.55-1.09,1.11-2.22,1.59-3.45,1.38-3.57,1.36-11,0-15.59-.7-2.29-2.15-3.45-4.32-3.45a7.78,7.78,0,0,0-1.39.14l-.22,0H16v-.11c-.08-1.41,2-2.73,2.57-2.94.8-2.82,2.49-4.25,5-4.25s4.53,2.17,5.72,4c1.06,1.62,4.14,7.16,4.17,7.22h0a29.42,29.42,0,0,0,4.37,3.57C41.61,56.92,58.08,69.13,59,70.08l.21.21-.3,0L56.83,70Zm-30-.21H51.91L56.62,70c-4.45-.55-15-2-19.28-3.41-5.28-1.81-5.82-2.11-8-6.74l-.11-.23.24.09L56.79,69.8l1.85.22C56.33,68.1,41,56.71,37.77,54.41a28.17,28.17,0,0,1-4.42-3.62c0-.07-3.12-5.61-4.18-7.23-1.16-1.78-3.07-3.9-5.55-3.9s-4.05,1.4-4.82,4.15l0,.06-.06,0c-.39.11-2.42,1.37-2.48,2.63l.09,0a8,8,0,0,1,1.43-.14A4.51,4.51,0,0,1,22.3,50c1.41,4.63,1.43,12.13,0,15.73-.48,1.24-1.05,2.38-1.6,3.47-1,2.09-2,4.06-2,6.18,0,.42.29,1.25.95,1.25h.09l0,.09C20,78,21.89,87.22,22.1,88.2ZM29.69,60c2,4.33,2.61,4.65,7.72,6.4,4,1.37,13.64,2.7,18.46,3.3Z"/><path class="zw_cls-5" d="M52.07,88.41H28.87v-.09c0-.08-1.11-7.74-1.33-12v-.27l3,2.88,3.06-2.68,2.63,2.81,3-2.58,2.63,3,3-2.56,2.4,2.79,3-2.17.06.06L54,81Zm-23-.21H51.91l1.84-7.13-3.46-3.29-3,2.18-.06-.07-2.33-2.71-3,2.56-2.63-3-3,2.58-2.63-2.81-3.06,2.67-2.77-2.64C28,80.62,28.93,87.34,29.05,88.2Z"/><path class="zw_cls-5" d="M23.21,55.57l-.09-.19c.09,0,8.75-4.18,10.28-4.76l.08.19Z"/><path class="zw_cls-5" d="M54.9,84l-7.12-1.09-.7.53-.63-.74-3.69-.57-1.11.92L40.44,81.8l-2.69-.41-1.64,1.45-1.94-2-1.26-.19-2.08,2.08L26.3,78.62l6.25,1,.91-.91,1.19,1.23,2.79.43,1.62-1.43,1.87,2,1.54.24,2.29-1.89L47,81.79l.54.08,2.66-2Zm-6-1.94,2.8.43-1.56-1.38Zm-5.09-.78,1.66.25-.82-1ZM29.43,80.11l1.36,1.24.89-.89Zm9.3.42.59.09L39,80.28Z"/><path class="zw_cls-5" d="M36.19,76a1.67,1.67,0,1,1,1.67-1.66A1.67,1.67,0,0,1,36.19,76Zm0-2.33a.67.67,0,1,0,.67.67A.67.67,0,0,0,36.19,73.63Z"/><path class="zw_cls-5" d="M41.11,76.29a1.66,1.66,0,1,1,1.66-1.66A1.67,1.67,0,0,1,41.11,76.29Zm0-2.33a.66.66,0,1,0,.66.66A.66.66,0,0,0,41.11,74Z"/><path class="zw_cls-5" d="M22.81,44.57a1.4,1.4,0,1,1,1.4-1.4A1.4,1.4,0,0,1,22.81,44.57Zm0-1.8a.4.4,0,1,0,.4.4A.4.4,0,0,0,22.81,42.77Z"/></g></g></svg>
