<svg xmlns="http://www.w3.org/2000/svg" width="208.1" height="48.2" viewBox="0 0 208.1 48.2">
	<path fill="#FFF" d="M37.9 1.1L2.3 0C.9 0-.2 1.1 0 2.6l6 44.1c.2 1.5 1.3 1.9 2.5 1.1l4.8-3.4c1.2-.8 2.9-1.5 4.8-1.4s16.5 1.1 16.5 1.1c1.5.1 2.7-1 2.9-2.5l2.8-37.7c.2-1.5-.9-2.7-2.4-2.8zm-.7 4.2L35 40.2c0 .6-.5 1-1.1.8l-11.3-2.4c-1.6-.3-2.7-1.2-2.9-2.8L16.8 9.7c-.1-.6.4-1.2.9-1.3l18.4-3.9c.7-.1 1.1.2 1.1.8z"/>
	<g fill="#FFF">
		<path d="M93.7 21.4l-2.1 17.2c-.1.5.3 1 .9 1h5.2c.4 0 .6-.1.7-.5l2.2-17.6c0-.4-.3-.7-.7-.7h-5.4c-.4-.1-.7.2-.8.6M202.1 27.6c-1.5-.6-3-1.2-2.8-2.4.1-1 1-1.3 2.1-1.3 1.4 0 3.2.6 4.3 1.1.5.2 1 0 1.2-.5l1.1-3.2c.1-.3 0-.6-.2-.8-1.7-1.3-4-1.8-6.3-1.8-4.1 0-8.2 2-8.7 6.7-.4 3.6 2.6 5 5.3 6.3 1.3.6 2.6 1.2 2.4 2.3-.1 1.1-1 1.3-2.1 1.3-1.6 0-4-.6-5.4-1.1-.4-.1-.8 0-.9.4L191 38c-.1.4 0 .9.4 1 1.5.7 4.1 1.3 6.4 1.3 5.9 0 8.9-2.5 9.4-6.9.3-3.6-2.6-4.8-5.1-5.8M82.7 18.6c-3.3 0-6.9.9-9.2 1.8-.9.4-1.5.9-1.6 1.6l-2.1 16.9c-.1.4.3.6.7.6h5.3c.4 0 .7-.1.7-.5l1.8-14.6c0-.3.2-.4.4-.5.8-.3 1.8-.4 2.6-.4 1.3 0 2.2.7 1.9 2.9l-1.5 12.4c0 .4.3.6.7.6h5.3c.4 0 .6-.1.7-.5L90 25.8c.7-6.1-3.1-7.2-7.3-7.2M115 29.1c-.4 3.7-2 5.9-4.6 5.9-.4 0-.7 0-1.1-.1s-.6-.4-.6-.8l1.1-9.2c.1-.8.7-1.1 1.4-1.2h.9c2.4.1 3.3 2 2.9 5.4m-1.8-10.4c-2.8 0-6.8.8-8.1 1.2-1.3.5-1.5 1.4-1.6 2.5l-3.1 24.8c-.1.4.3.9.7.9h5.3c.4 0 .7-.3.7-.7l.8-6.5c.1-.5.5-.8 1-.7.6.1 1.2.1 1.8.1 7.6 0 10.5-5.3 11.2-11.2.9-8.3-3.7-10.4-8.7-10.4M145.6 33.6c-.1.8-.2 1.3-.9 1.5h-.1c-.4.1-.8.1-1.1.1-2.2 0-2.7-2.5-2.4-5.1.4-3 1.4-6.3 4.3-6.3.3 0 .5 0 .7.1.4.1.6.4.5.8l-1 8.9zm8.1-11.7c.1-.7-.1-1.4-.8-1.7-2.4-1-4.6-1.4-6.5-1.4-8.2 0-11.4 5.5-12.1 11-.7 5.5.6 10.5 6.9 10.5 1.3 0 2.7-.3 3.8-1 .5-.3 1.1-.1 1.3.5.1.3.4.6.7.6h4.4c.5 0 .9-.5.8-1-.2-1.7-.1-3.5.1-5.2l1.4-12.3zM183.3 23.3c1.1 0 2 .6 1.8 1.7-.3 2.5-3.1 3.5-5.5 3.5h-.8c-.6-.1-.9-.6-.7-1.2.8-2.2 2.6-4 5.2-4m-.2 12c-2.5 0-4.9-.9-5.3-3-.1-.3.1-.5.4-.5 1 .8 2.1.7 3.2.7 4.3 0 8.8-2.5 9.4-7.5.5-4.3-2.5-6.3-7-6.3-8 0-11.6 5.6-12.3 11.4-.7 5.6 1.8 10.3 9.1 10.3 3.4 0 6.1-.6 7.5-1 .4-.1.6-.4.6-.8v-3.2c0-.5-.4-.8-.9-.7-1.4.3-3.1.6-4.7.6M170.7 24c.6-1.2 1.2-2.2 1.9-3.1.3-.4.3-1-.2-1.2-1.3-.5-3.8-1.1-6-1.1-5.7 0-10.8 2.9-11.8 10.8-.9 7.7 3.4 10.8 8.9 10.8 1.7 0 3.2-.2 4.8-.6h.1c.9-.2 1.6-.9 1.6-1.9l.1-2.3c0-.5-.4-.8-.9-.7-1.6.4-2.9.6-4 .6-2.8 0-4.5-1.2-3.9-5.8.6-4.5 2.4-5.7 5.2-5.7.9 0 2.6.4 3.4.6.3.1.6-.1.8-.4M131.8 35.1c-1.2 0-2-.5-1.8-2.2l2.3-18.7c.1-.4-.3-.6-.7-.6h-5.4c-.4 0-.6.1-.7.4l-2.4 19.3c-.5 4.2.5 6.9 5.2 6.9.6 0 2.5-.2 4.5-1 .5-.2.7-.7.5-1.2-.4-.8-.7-1.7-.9-2.7 0-.2-.2-.3-.4-.3-.1.1-.2.1-.2.1M63.2 14.5c.1-.4.4-.8.9-.8h5.2c.5 0 .9.4.9 1l-.1.5-1.9 14.9c-.8 6.8-3.7 10.2-11.5 10.2-7.3 0-9.8-3.2-8.9-10.3l1.9-15.4v-.2c.1-.4.4-.7.9-.7H56c.4 0 .7.3.7.7v.2l-1.9 15.2c-.4 3.1-.4 5 2.6 5 2.9 0 3.4-1.7 3.9-5L63.2 15v-.5zM94.6 14.4l-.5 3.9c0 .4.3.8.7.8h5.4c.4 0 .7-.3.7-.6l.5-3.9c.1-.4-.3-.9-.7-.9h-5.4c-.4 0-.7.4-.7.7"/>
	</g>
</svg>
