<svg viewBox="0 0 2000 480.728"><path fill="#00ADEE" d="M371.259 53.107l-22.384 348.616c-.37 5.838-5.362 9.631-11.095 8.431L224.997 386.43c-16.034-3.369-27.34-12.435-28.787-27.499L168.27 96.34c-.617-5.821 3.563-11.571 9.296-12.788l183.956-38.859c5.716-1.217 10.108 2.575 9.737 8.414m7.708-41.77L23.455.013C8.833-.445-1.521 11.038.454 25.537L60.409 465.61c1.993 14.499 13.37 19.438 25.312 10.989l47.872-33.867c11.959-8.449 29.422-14.852 48.278-13.582 18.838 1.27 164.73 11.095 164.73 11.095 14.587.988 27.446-10.16 28.54-24.747l28.434-376.785c1.092-14.587-9.967-26.917-24.608-27.376"/><path fill="#58595B" d="M903.588 179.577l-22.401 185.262c-.476 4.004 2.664 7.549 6.703 7.549h52.282c3.404 0 6.279-2.557 6.685-5.944l22.4-185.244c.476-4.022-2.664-7.55-6.703-7.55h-52.282a6.73 6.73 0 0 0-6.684 5.927M1942.527 254.225c-14.323-5.803-28.663-11.236-27.499-22.86 1.164-9.296 9.296-12.788 20.532-12.788 14.005 0 32.579 5.997 43.268 11.571 3.669 1.905 8.167.212 9.543-3.686l11.447-32.421c.953-2.698.159-5.786-2.134-7.514-16.704-12.523-38.982-17.533-60.59-17.533-39.494 0-79.022 18.979-84.437 64.311-4.269 34.484 24.8 48.031 50.747 60.431 12.788 6.209 24.8 12.012 23.248 22.084-1.164 10.46-9.684 12.788-20.532 12.788-15.558 0-38.929-5.68-52.317-10.954-3.616-1.429-7.708.406-8.943 4.11l-11.412 34.255c-1.023 3.069.247 6.509 3.122 8.008 14.481 7.567 40.552 13.388 62.953 13.388 56.568 0 86.007-24.412 91.052-67.028 4.251-35.242-24.412-46.478-48.048-56.162M649.76 369.153c2.928-.934 5.009-3.475 5.38-6.526l21.52-171.203c.511-4.022-2.628-7.585-6.685-7.585H619.88c-3.969 0-7.32 2.963-7.814 6.914L595.009 328.46c-.406 3.334-2.893 6.032-6.191 6.738-5.133 1.094-10.583 2.028-17.216 2.082-.335 0-.688-.018-1.023-.053-13.335-1.288-24.641-8.096-21.96-30.674l14.376-113.859c.6-4.692-3.069-8.854-7.814-8.854h-48.736a7.882 7.882 0 0 0-7.814 6.897l-15.099 120.58c-6.967 55.792 29.827 74.295 71.667 74.295 30.902-.002 70.378-8.715 94.561-16.459M802.069 167.451c-32.191 0-67.098 9.155-89.324 17.181-8.943 3.439-14.482 8.925-15.328 15.857L677.502 364.83c-.476 4.004 2.646 7.55 6.685 7.55h50.747a6.73 6.73 0 0 0 6.685-5.927l17.339-141.393c.3-2.452 1.905-4.621 4.216-5.451 8.096-2.91 17.233-4.427 24.941-4.427 12.4 0 20.92 6.332 18.203 28.398l-14.534 121.25c-.494 4.022 2.646 7.55 6.685 7.55h51.117a6.735 6.735 0 0 0 6.703-5.927l15.505-127.547c7.374-60.06-29.438-71.455-69.725-71.455M1101.193 268.942c-4.251 35.26-18.98 57.344-44.556 57.344-3.528 0-7.056-.335-10.813-.988-3.51-.617-5.909-3.934-5.468-7.479l10.901-88.512c.917-7.532 7.038-10.477 13.335-11.165a100.61 100.61 0 0 1 8.326-.335c23.636-.001 32.543 18.22 28.275 51.135m-17.427-100.719c-27.199 0-65.934 7.391-78.511 12.013-12.559 4.621-14.146 13.687-15.857 24.377l-29.439 239.236c-.494 4.022 2.628 7.567 6.685 7.567h51.135a6.74 6.74 0 0 0 6.685-5.892l8.943-71.014c8.52 1.552 17.427 2.416 25.171 2.416 73.237 0 101.124-50.694 108.091-107.632 10.071-80.98-34.485-101.071-82.903-101.071M1396.742 312.056c-.97 7.743-1.852 12.259-8.625 14.552-.07.035-.159.053-.247.088-.282.088-.564.158-.864.247-4.075 1.112-7.849 1.27-10.636 1.27-20.92 0-26.353-24.007-23.248-49.195 3.493-29.439 13.564-60.819 41.84-60.819 2.487 0 4.727.123 7.232.635 3.404.67 5.662 3.969 5.221 7.409l-10.673 85.813zm78.405-112.783c.811-6.756-1.111-13.97-7.708-16.809-22.86-9.843-44.027-13.053-63.183-13.053-79.04 0-110.014 53.446-116.593 106.133-6.597 53.076 6.191 101.106 66.234 101.106 16.651 0 33.32-4.268 46.108-17.815l3.281 12.065a6.753 6.753 0 0 0 6.509 4.974h43.833c4.057 0 7.232-3.563 6.667-7.567-2.346-16.739-1.499-34.413.529-50.553l14.323-118.481zM1760.851 213.151c10.689 0 18.997 5.927 17.427 16.228-2.769 23.742-29.686 34.043-53.04 34.043-3.21 0-6.703-.141-10.125-.635-4.092-.6-6.721-4.727-5.504-8.661 7.198-23.23 25.278-40.975 51.242-40.975m-1.976 115.182c-24.342 0-47.308-7.055-51.523-27.799-.706-2.981 1.129-4.798 3.775-3.775h.018c9.648 3.969 20.532 5.45 31.115 5.45 41.963 0 85.108-24.536 91.034-73.237 5.151-41.169-24.148-60.96-68.086-60.96-76.782 0-111.619 54.24-118.745 110.049-6.333 53.834 17.021 99.36 87.471 99.36 33.743 0 61.031-6.456 73.272-10.266 2.822-.882 4.692-3.528 4.674-6.491l-.282-32.491c-.035-4.48-4.322-7.691-8.625-6.403-12.489 3.759-28.54 6.563-44.098 6.563M1638.961 219.88c5.415-11.606 11.43-21.096 18.38-29.492 3.069-3.704 2.805-9.26-2.17-11.536-12.647-4.974-36.742-10.636-58.155-10.636-55.404 0-104.211 27.905-113.506 104.599-8.908 73.995 33.32 104.211 86.007 104.211 16.246 0 30.78-1.729 46.32-5.539.017-.017.035-.017.053-.017.282-.071.565-.159.829-.212 8.273-2.399 15.275-8.96 15.522-18.627l.582-22.49c.106-4.427-4.057-7.743-8.379-6.685-15.857 3.846-28.152 5.539-39.052 5.539-26.723 0-43.004-11.236-37.571-55.792 5.415-43.003 23.248-54.998 50.359-54.998 8.537 0 24.783 3.51 33.179 5.468 3.121.741 6.244-.882 7.602-3.793M1263.213 327.054c-11.236 0-19.368-5.027-17.427-20.919l24.236-196.974c.511-4.022-2.628-7.567-6.685-7.567h-52.264c-3.404 0-6.279 2.54-6.685 5.909l-24.853 202.125c-5.027 40.675 5.045 67.398 49.971 67.398 6.262 0 25.241-1.835 45.156-9.631 3.775-1.482 5.327-5.927 3.475-9.525-4.233-8.29-7.373-17.515-9.419-27.658-.388-1.923-2.064-3.351-4.004-3.21-.513.035-1.025.052-1.501.052"/></svg>