<svg x="0px" y="0px"
	 viewBox="0 0 2000 480.728" enable-background="new 0 0 2000 480.728" xml:space="preserve">
<g>
	<path fill="#00ADEE" d="M371.259,53.107l-22.384,348.616c-0.37,5.838-5.362,9.631-11.095,8.431l-112.783-23.724
		c-16.034-3.369-27.34-12.435-28.787-27.499l-27.94-262.591c-0.617-5.821,3.563-11.571,9.296-12.788l183.956-38.859
		C367.238,43.476,371.63,47.268,371.259,53.107 M378.967,11.337L23.455,0.013C8.833-0.445-1.521,11.038,0.454,25.537l59.955,440.073
		c1.993,14.499,13.37,19.438,25.312,10.989l47.872-33.867c11.959-8.449,29.422-14.852,48.278-13.582
		c18.838,1.27,164.73,11.095,164.73,11.095c14.587,0.988,27.446-10.16,28.54-24.747l28.434-376.785
		C404.667,24.126,393.608,11.796,378.967,11.337"/>
	<path fill="#58595B" d="M903.588,179.577l-22.401,185.262c-0.476,4.004,2.664,7.549,6.703,7.549h52.282
		c3.404,0,6.279-2.557,6.685-5.944L969.257,181.2c0.476-4.022-2.664-7.55-6.703-7.55h-52.282
		C906.868,173.651,903.993,176.191,903.588,179.577"/>
	<path fill="#58595B" d="M1942.527,254.225c-14.323-5.803-28.663-11.236-27.499-22.86c1.164-9.296,9.296-12.788,20.532-12.788
		c14.005,0,32.579,5.997,43.268,11.571c3.669,1.905,8.167,0.212,9.543-3.686l11.447-32.421c0.953-2.698,0.159-5.786-2.134-7.514
		c-16.704-12.523-38.982-17.533-60.59-17.533c-39.494,0-79.022,18.979-84.437,64.311c-4.269,34.484,24.8,48.031,50.747,60.431
		c12.788,6.209,24.8,12.012,23.248,22.084c-1.164,10.46-9.684,12.788-20.532,12.788c-15.558,0-38.929-5.68-52.317-10.954
		c-3.616-1.429-7.708,0.406-8.943,4.11l-11.412,34.255c-1.023,3.069,0.247,6.509,3.122,8.008
		c14.481,7.567,40.552,13.388,62.953,13.388c56.568,0,86.007-24.412,91.052-67.028
		C1994.826,275.145,1966.163,263.909,1942.527,254.225"/>
	<path fill="#58595B" d="M649.76,369.153c2.928-0.934,5.009-3.475,5.38-6.526l21.52-171.203c0.511-4.022-2.628-7.585-6.685-7.585
		H619.88c-3.969,0-7.32,2.963-7.814,6.914l-17.057,137.707c-0.406,3.334-2.893,6.032-6.191,6.738
		c-5.133,1.094-10.583,2.028-17.216,2.082c-0.335,0-0.688-0.018-1.023-0.053c-13.335-1.288-24.641-8.096-21.96-30.674
		l14.376-113.859c0.6-4.692-3.069-8.854-7.814-8.854h-48.736c-3.969,0-7.32,2.963-7.814,6.897l-15.099,120.58
		c-6.967,55.792,29.827,74.295,71.667,74.295C586.101,385.61,625.577,376.897,649.76,369.153"/>
	<path fill="#58595B" d="M802.069,167.451c-32.191,0-67.098,9.155-89.324,17.181c-8.943,3.439-14.482,8.925-15.328,15.857
		L677.502,364.83c-0.476,4.004,2.646,7.55,6.685,7.55h50.747c3.404,0,6.279-2.54,6.685-5.927l17.339-141.393
		c0.3-2.452,1.905-4.621,4.216-5.451c8.096-2.91,17.233-4.427,24.941-4.427c12.4,0,20.92,6.332,18.203,28.398l-14.534,121.25
		c-0.494,4.022,2.646,7.55,6.685,7.55h51.117c3.422,0,6.297-2.54,6.703-5.927l15.505-127.547
		C879.168,178.846,842.356,167.451,802.069,167.451"/>
	<path fill="#58595B" d="M1101.193,268.942c-4.251,35.26-18.98,57.344-44.556,57.344c-3.528,0-7.056-0.335-10.813-0.988
		c-3.51-0.617-5.909-3.934-5.468-7.479l10.901-88.512c0.917-7.532,7.038-10.477,13.335-11.165c2.981-0.247,5.768-0.335,8.326-0.335
		C1096.554,217.806,1105.461,236.027,1101.193,268.942 M1083.766,168.223c-27.199,0-65.934,7.391-78.511,12.013
		c-12.559,4.621-14.146,13.687-15.857,24.377l-29.439,239.236c-0.494,4.022,2.628,7.567,6.685,7.567h51.135
		c3.387,0,6.262-2.522,6.685-5.892l8.943-71.014c8.52,1.552,17.427,2.416,25.171,2.416c73.237,0,101.124-50.694,108.091-107.632
		C1176.74,188.314,1132.184,168.223,1083.766,168.223"/>
	<path fill="#58595B" d="M1396.742,312.056c-0.97,7.743-1.852,12.259-8.625,14.552c-0.07,0.035-0.159,0.053-0.247,0.088
		c-0.282,0.088-0.564,0.158-0.864,0.247c-4.075,1.112-7.849,1.27-10.636,1.27c-20.92,0-26.353-24.007-23.248-49.195
		c3.493-29.439,13.564-60.819,41.84-60.819c2.487,0,4.727,0.123,7.232,0.635c3.404,0.67,5.662,3.969,5.221,7.409L1396.742,312.056z
		 M1475.147,199.273c0.811-6.756-1.111-13.97-7.708-16.809c-22.86-9.843-44.027-13.053-63.183-13.053
		c-79.04,0-110.014,53.446-116.593,106.133c-6.597,53.076,6.191,101.106,66.234,101.106c16.651,0,33.32-4.268,46.108-17.815
		l3.281,12.065c0.811,2.946,3.475,4.974,6.509,4.974h43.833c4.057,0,7.232-3.563,6.667-7.567
		c-2.346-16.739-1.499-34.413,0.529-50.553L1475.147,199.273z"/>
	<path fill="#58595B" d="M1760.851,213.151c10.689,0,18.997,5.927,17.427,16.228c-2.769,23.742-29.686,34.043-53.04,34.043
		c-3.21,0-6.703-0.141-10.125-0.635c-4.092-0.6-6.721-4.727-5.504-8.661C1716.807,230.896,1734.887,213.151,1760.851,213.151
		 M1758.875,328.333c-24.342,0-47.308-7.055-51.523-27.799c-0.706-2.981,1.129-4.798,3.775-3.775c0,0,0,0,0.018,0
		c9.648,3.969,20.532,5.45,31.115,5.45c41.963,0,85.108-24.536,91.034-73.237c5.151-41.169-24.148-60.96-68.086-60.96
		c-76.782,0-111.619,54.24-118.745,110.049c-6.333,53.834,17.021,99.36,87.471,99.36c33.743,0,61.031-6.456,73.272-10.266
		c2.822-0.882,4.692-3.528,4.674-6.491l-0.282-32.491c-0.035-4.48-4.322-7.691-8.625-6.403
		C1790.484,325.529,1774.433,328.333,1758.875,328.333"/>
	<path fill="#58595B" d="M1638.961,219.88c5.415-11.606,11.43-21.096,18.38-29.492c3.069-3.704,2.805-9.26-2.17-11.536
		c-12.647-4.974-36.742-10.636-58.155-10.636c-55.404,0-104.211,27.905-113.506,104.599c-8.908,73.995,33.32,104.211,86.007,104.211
		c16.246,0,30.78-1.729,46.32-5.539c0.017-0.017,0.035-0.017,0.053-0.017c0.282-0.071,0.565-0.159,0.829-0.212
		c8.273-2.399,15.275-8.96,15.522-18.627l0.582-22.49c0.106-4.427-4.057-7.743-8.379-6.685c-15.857,3.846-28.152,5.539-39.052,5.539
		c-26.723,0-43.004-11.236-37.571-55.792c5.415-43.003,23.248-54.998,50.359-54.998c8.537,0,24.783,3.51,33.179,5.468
		C1634.48,224.414,1637.603,222.791,1638.961,219.88"/>
	<path fill="#58595B" d="M1263.213,327.054c-11.236,0-19.368-5.027-17.427-20.919l24.236-196.974
		c0.511-4.022-2.628-7.567-6.685-7.567h-52.264c-3.404,0-6.279,2.54-6.685,5.909l-24.853,202.125
		c-5.027,40.675,5.045,67.398,49.971,67.398c6.262,0,25.241-1.835,45.156-9.631c3.775-1.482,5.327-5.927,3.475-9.525
		c-4.233-8.29-7.373-17.515-9.419-27.658c-0.388-1.923-2.064-3.351-4.004-3.21C1264.201,327.037,1263.689,327.054,1263.213,327.054"
		/>
</g>
</svg>
