<svg width="186" height="24" viewBox="0 0 186 24" fill="none" xmlns="http://www.w3.org/2000/svg"><path d="M18.3295 1.02661L1.15183 0.506836C0.448906 0.506836 -0.0782844 1.02661 0.00958068 1.76296L2.90913 22.7705C2.99699 23.5068 3.52418 23.6801 4.13924 23.2903L6.46767 21.6876C7.03879 21.2978 7.87351 20.9513 8.79609 21.0379C9.71867 21.0812 16.7918 21.5577 16.7918 21.5577C17.5387 21.601 18.1098 21.0812 18.1977 20.3449L19.5596 2.36936C19.6035 1.63301 19.0763 1.06992 18.3295 1.02661ZM18.0219 3.01908L16.9675 19.6518C16.9675 19.955 16.704 20.1283 16.4404 20.0417L10.9927 18.9155C10.2019 18.7856 9.67474 18.3524 9.58688 17.5728L8.18104 5.14149C8.1371 4.83829 8.35677 4.5784 8.62036 4.53508L17.4947 2.67256C17.8023 2.58593 18.0219 2.75919 18.0219 3.01908Z" fill="#F87052"/><path d="M40.3891 13.2847C40.0816 15.6237 39.3786 17.3563 38.1925 18.4825C37.0063 19.5653 35.1611 20.0851 32.657 20.0851C27.7804 20.0851 26.0671 18.006 26.6821 13.2847L27.9562 3.10583C28.0001 2.58606 28.3076 2.32617 28.8348 2.32617H31.998C32.4812 2.32617 32.7009 2.58606 32.657 3.10583L31.4268 13.1548C31.1632 15.1906 31.2072 16.4467 33.1841 16.4467C34.9854 16.4467 35.4686 15.5371 35.7762 13.1548L37.0063 3.10583C37.0502 2.58606 37.3577 2.32617 37.8849 2.32617H41.0041C41.4874 2.32617 41.7071 2.58606 41.6631 3.10583L40.3891 13.2847Z" fill="#224251"/><path d="M43.5522 8.30348C43.5961 7.74039 43.9037 7.39388 44.4309 7.22062C46.5396 6.39764 48.6484 6.00781 50.7132 6.00781C52.2069 6.00781 53.3052 6.22439 54.3157 6.91742C55.3701 7.52382 55.7655 8.86657 55.5019 10.859L54.4475 19.0888C54.4036 19.6086 54.096 19.8685 53.6128 19.8685H50.7572C50.23 19.8685 49.9664 19.6086 50.0542 19.0888L51.0207 11.1622C51.1965 9.8628 50.7572 9.2564 49.7906 9.2564C49.0877 9.2564 48.4287 9.38634 47.8137 9.64623L46.6275 19.0888C46.5836 19.6086 46.276 19.8685 45.7928 19.8685H42.9372C42.4539 19.8685 42.1903 19.6086 42.2342 19.0888L43.5522 8.30348Z" fill="#224251"/><path d="M61.257 19.0454C61.2131 19.5652 60.9056 19.8251 60.4223 19.8251H57.4349C56.9516 19.8251 56.688 19.5652 56.732 19.0454L58.2257 7.04733C58.2696 6.52755 58.5771 6.26767 59.0604 6.26767H62.0478C62.5311 6.26767 62.7947 6.52755 62.7507 7.04733L61.257 19.0454ZM58.9725 1.2865C59.0604 0.766723 59.324 0.506836 59.8512 0.506836H62.8386C63.3219 0.506836 63.5855 0.766723 63.4976 1.2865L63.1461 4.05863C63.1022 4.5784 62.7947 4.83829 62.3114 4.83829H59.2801C58.7968 4.83829 58.5332 4.5784 58.5771 4.05863L58.9725 1.2865Z" fill="#224251"/><path d="M68.0666 19.0451C68.0226 19.5649 67.7151 19.8248 67.2318 19.8248H64.3323C63.849 19.8248 63.5854 19.5649 63.6294 19.0451L65.1231 7.04701C65.167 6.52724 65.4745 6.26735 65.9578 6.26735H68.3741C68.8573 6.26735 69.077 6.52724 69.077 7.04701L69.0331 7.74005C69.9996 6.61387 71.2736 6.05078 72.7673 6.05078C72.987 6.05078 73.2506 6.0941 73.4703 6.0941C73.9096 6.18072 74.0853 6.48393 73.9535 7.04701L73.4703 8.90954C73.3385 9.386 73.0309 9.64588 72.5477 9.55926C72.1962 9.51594 71.8008 9.47263 71.4494 9.47263C70.6146 9.47263 69.8678 9.64588 69.2088 9.94909L68.0666 19.0451Z" fill="#224251"/><path d="M86.2547 10.2531C86.0789 11.7691 85.376 12.9386 84.1898 13.8049C83.0037 14.6711 81.6857 15.1043 80.1481 15.1043C79.2255 15.1043 78.4347 14.931 77.7757 14.6278C77.8196 16.1871 79.2694 16.8369 81.2903 16.8369C82.2129 16.8369 83.1355 16.7069 84.058 16.447C84.5413 16.3171 84.761 16.4904 84.8049 17.0101L84.8488 18.5261C84.8488 19.0892 84.5852 19.4357 84.058 19.5657C82.5204 19.9122 81.0267 20.1288 79.6209 20.1288C77.3803 20.1288 75.7987 19.5224 74.8322 18.3096C73.8657 17.0968 73.5142 15.4941 73.7339 13.5883C73.9975 11.5092 74.7883 9.7766 76.1063 8.39054C77.4242 7.00448 79.2694 6.31144 81.6857 6.31144C84.761 6.22482 86.5622 7.61088 86.2547 10.2531ZM81.3782 9.21352C79.533 9.21352 78.215 10.513 77.8196 12.3755C78.1272 12.4621 78.5225 12.5487 79.0058 12.5487C80.7631 12.5487 82.3886 11.7691 82.5643 10.2964C82.6522 9.60335 82.125 9.21352 81.3782 9.21352Z" fill="#224251"/><path d="M97.4135 9.73286C97.2378 10.166 96.9303 10.2959 96.447 10.0794C95.4805 9.64623 94.5579 9.38634 93.6793 9.38634C92.8445 9.38634 92.3613 9.68955 92.3174 10.2526C92.2734 10.4692 92.4052 10.7291 92.581 10.9457C93.0203 11.3788 93.2839 11.4654 94.2065 11.812C95.129 12.2018 95.3926 12.2451 96.0956 12.7649C97.1499 13.3713 97.5014 14.1509 97.4575 15.6236C97.106 18.6123 94.9972 20.1283 91.219 20.1283C89.8132 20.1283 88.4952 19.9118 87.2651 19.392C86.7819 19.1754 86.6501 18.8289 86.8258 18.2658L87.353 16.6632C87.5287 16.23 87.8362 16.0568 88.2756 16.1867C89.5935 16.6199 90.7358 16.8364 91.6584 16.8364C92.537 16.8364 92.9763 16.5332 93.0642 15.9701C93.1081 15.7536 93.0203 15.537 92.8445 15.3637C92.537 14.9739 92.2295 14.8873 91.4826 14.4541L90.1207 13.7611C89.8132 13.5879 89.4617 13.328 89.0224 12.9814C88.1877 12.2884 87.8802 11.4654 88.012 10.3393C88.1877 8.90988 88.8467 7.82702 89.9011 7.09068C90.9994 6.35433 92.2734 6.00781 93.7671 6.00781C95.2169 6.00781 96.491 6.31101 97.5014 6.91742C97.9407 7.22062 98.0725 7.61045 97.8968 8.13022L97.4135 9.73286Z" fill="#224251"/><path d="M103.344 19.0454C103.3 19.5652 102.993 19.8251 102.51 19.8251H99.5223C99.039 19.8251 98.7754 19.5652 98.8194 19.0454L100.313 7.04733C100.357 6.52755 100.665 6.26767 101.148 6.26767H104.135C104.618 6.26767 104.882 6.52755 104.838 7.04733L103.344 19.0454ZM101.016 1.2865C101.104 0.766723 101.367 0.506836 101.895 0.506836H104.882C105.365 0.506836 105.629 0.766723 105.541 1.2865L105.19 4.05863C105.146 4.5784 104.838 4.83829 104.355 4.83829H101.367C100.884 4.83829 100.621 4.5784 100.665 4.05863L101.016 1.2865Z" fill="#224251"/><path d="M117.842 18.4389C117.754 19.0453 117.535 19.3485 117.007 19.4784C115.514 19.9116 113.713 20.0849 111.604 20.0849C107.298 20.0849 105.409 17.7892 105.98 13.2845C106.42 9.73268 108.353 6.05095 113.185 6.05095C113.8 6.05095 114.371 6.09427 114.943 6.22421L115.426 2.28259C115.47 1.76282 115.777 1.50293 116.261 1.50293H119.16C119.643 1.50293 119.907 1.76282 119.863 2.28259L117.842 18.4389ZM114.547 9.38617C114.196 9.29954 113.8 9.25623 113.361 9.25623C111.867 9.25623 110.813 10.9455 110.505 13.3278C110.198 15.7101 110.857 16.8796 112.482 16.8796C112.834 16.8796 113.185 16.8363 113.625 16.7063L114.547 9.38617Z" fill="#224251"/><path d="M132.999 10.2531C132.823 11.7691 132.12 12.9386 130.934 13.8049C129.748 14.6711 128.43 15.1043 126.892 15.1043C125.97 15.1043 125.179 14.931 124.52 14.6278C124.564 16.1871 126.014 16.8369 128.034 16.8369C128.957 16.8369 129.88 16.7069 130.802 16.447C131.286 16.3171 131.505 16.4904 131.549 17.0101L131.593 18.5261C131.593 19.0892 131.329 19.4357 130.802 19.5657C129.265 19.9122 127.771 20.1288 126.365 20.1288C124.125 20.1288 122.543 19.5224 121.576 18.3096C120.61 17.0968 120.258 15.4941 120.478 13.5883C120.742 11.5092 121.532 9.7766 122.85 8.39054C124.168 7.00448 126.014 6.31144 128.43 6.31144C131.505 6.22482 133.306 7.61088 132.999 10.2531ZM128.122 9.21352C126.277 9.21352 124.959 10.513 124.564 12.3755C124.871 12.4621 125.267 12.5487 125.75 12.5487C127.507 12.5487 129.133 11.7691 129.309 10.2964C129.396 9.60335 128.869 9.21352 128.122 9.21352Z" fill="#224251"/><path d="M135.371 8.30348C135.415 7.74039 135.723 7.39388 136.25 7.22062C138.359 6.39764 140.467 6.00781 142.532 6.00781C144.026 6.00781 145.124 6.22439 146.135 6.91742C147.189 7.52382 147.585 8.86657 147.321 10.859L146.267 19.0888C146.223 19.6086 145.915 19.8685 145.432 19.8685H142.576C142.049 19.8685 141.785 19.6086 141.873 19.0888L142.84 11.1622C143.016 9.8628 142.576 9.2564 141.61 9.2564C140.907 9.2564 140.248 9.38634 139.633 9.64623L138.447 19.0888C138.403 19.6086 138.095 19.8685 137.612 19.8685H134.756C134.273 19.8685 134.009 19.6086 134.053 19.0888L135.371 8.30348Z" fill="#224251"/><path d="M150.177 18.4394C149.078 17.2699 148.683 15.494 148.946 13.1983C149.254 10.8593 150.045 9.12674 151.451 7.91394C152.856 6.70113 154.482 6.09473 156.371 6.09473C157.733 6.09473 158.919 6.3113 159.886 6.83107C160.325 7.04765 160.457 7.43748 160.281 7.95725L159.71 9.55989C159.534 10.0363 159.227 10.1663 158.787 10.0363C158.084 9.73314 157.338 9.6032 156.679 9.6032C154.702 9.6032 153.603 10.816 153.296 13.1983C152.988 15.6672 153.735 16.9234 155.624 16.9234C156.635 16.9234 157.557 16.8367 158.392 16.6201C158.919 16.4469 159.095 16.6201 159.095 17.1832L159.051 18.7426C158.963 19.2623 158.7 19.5655 158.216 19.6955C156.854 20.042 155.712 20.1719 154.746 20.1719C152.856 20.1719 151.319 19.5655 150.177 18.4394Z" fill="#224251"/><path d="M173.68 10.2531C173.505 11.7691 172.802 12.9386 171.616 13.8049C170.429 14.6711 169.111 15.1043 167.574 15.1043C166.651 15.1043 165.86 14.931 165.201 14.6278C165.245 16.1871 166.695 16.8369 168.716 16.8369C169.639 16.8369 170.561 16.7069 171.484 16.447C171.967 16.3171 172.187 16.4904 172.231 17.0101L172.275 18.5261C172.275 19.0892 172.011 19.4357 171.484 19.5657C169.946 19.9122 168.452 20.1288 167.047 20.1288C164.806 20.1288 163.225 19.5224 162.258 18.3096C161.291 17.0968 160.94 15.4941 161.16 13.5883C161.423 11.5092 162.214 9.7766 163.532 8.39054C164.85 7.00448 166.695 6.31144 169.111 6.31144C172.187 6.22482 173.988 7.61088 173.68 10.2531ZM168.804 9.21352C166.959 9.21352 165.641 10.513 165.245 12.3755C165.553 12.4621 165.948 12.5487 166.432 12.5487C168.189 12.5487 169.814 11.7691 169.99 10.2964C170.078 9.60335 169.551 9.21352 168.804 9.21352Z" fill="#224251"/><path d="M184.795 9.73286C184.62 10.166 184.312 10.2959 183.829 10.0794C182.862 9.64623 181.94 9.38634 181.061 9.38634C180.226 9.38634 179.743 9.68955 179.699 10.2526C179.655 10.4692 179.787 10.7291 179.963 10.9457C180.402 11.3788 180.666 11.4654 181.588 11.812C182.511 12.2018 182.775 12.2451 183.477 12.7649C184.532 13.3713 184.883 14.1509 184.839 15.6236C184.488 18.6123 182.379 20.1283 178.601 20.1283C177.195 20.1283 175.877 19.9118 174.647 19.392C174.164 19.1754 174.032 18.8289 174.208 18.2658L174.735 16.6632C174.911 16.23 175.218 16.0568 175.657 16.1867C176.975 16.6199 178.118 16.8364 179.04 16.8364C179.919 16.8364 180.358 16.5332 180.446 15.9701C180.49 15.7536 180.402 15.537 180.226 15.3637C179.919 14.9739 179.611 14.8873 178.865 14.4541L177.503 13.7611C177.195 13.5879 176.844 13.328 176.404 12.9814C175.57 12.2884 175.262 11.4654 175.394 10.3393C175.57 8.90988 176.229 7.82702 177.283 7.09068C178.381 6.35433 179.655 6.00781 181.149 6.00781C182.599 6.00781 183.873 6.31101 184.883 6.91742C185.323 7.22062 185.454 7.61045 185.279 8.13022L184.795 9.73286Z" fill="#224251"/></svg>
