<svg xmlns="http://www.w3.org/2000/svg" viewBox="0 0 200 134"><defs><style>.cv_cls-1{fill:#21418c;}.cv_cls-2{fill:#fff;}.cv_cls-3{fill:#ce2028;}.cv_cls-4{fill:#fbd118;}</style></defs><title>Asset 33</title><g id="Layer_2" data-name="Layer 2"><g id="Layer_68" data-name="Layer 68"><path class="cv_cls-1" d="M183,0H17A17,17,0,0,0,0,17V67.3H46.82l.09-.27.09.27h55.9L103,67l.09.27H200V17A17,17,0,0,0,183,0ZM61.08,63l-3.46-2.52L54.15,63l1.32-4.07L52,56.36h4.28l1.32-4.07,1.32,4.07h4.28l-3.46,2.52Zm17.33-5.63-3.46-2.52-3.46,2.52,1.32-4.07-3.46-2.52h4.28l1.32-4.07,1.32,4.07h4.28l-3.46,2.52ZM95.73,63l-3.46-2.52L88.8,63l1.32-4.07-3.46-2.52h4.28l1.32-4.07,1.32,4.07h4.28l-3.46,2.52Z"/><path class="cv_cls-1" d="M0,117a17,17,0,0,0,17,17H183a17,17,0,0,0,17-17V96.78H0Zm90.95-12.94L92.27,100l1.32,4.07h4.28l-3.46,2.52,1.32,4.07-3.46-2.52-3.46,2.52,1.32-4.07-3.46-2.52Zm-17.33,5.63,1.32-4.07,1.32,4.07h4.28l-3.46,2.52,1.32,4.07-3.46-2.52-3.46,2.52,1.32-4.07-3.46-2.52Zm-17.33-5.63L57.62,100l1.32,4.07h4.28l-3.46,2.52,1.32,4.07-3.46-2.52-3.46,2.52,1.32-4.07L52,104.06Z"/><polygon class="cv_cls-2" points="100.3 77.12 105.66 77.12 102.98 75.17 100.3 77.12"/><polygon class="cv_cls-2" points="104.3 89.32 108.59 89.32 105.12 91.84 106.44 95.91 102.98 93.4 99.52 95.91 100.84 91.84 97.37 89.32 101.66 89.32 102.43 86.95 47.46 86.95 48.23 89.32 52.51 89.32 49.05 91.84 50.37 95.91 46.91 93.4 43.44 95.91 44.77 91.84 41.3 89.32 45.58 89.32 46.35 86.95 0 86.95 0 96.78 200 96.78 200 86.95 103.53 86.95 104.3 89.32"/><polygon class="cv_cls-2" points="44.77 73.62 41.3 71.1 45.58 71.1 46.82 67.3 0 67.3 0 77.12 43.63 77.12 44.77 73.62"/><polygon class="cv_cls-2" points="52.51 71.1 49.05 73.62 50.19 77.12 99.7 77.12 100.84 73.62 97.37 71.1 101.66 71.1 102.89 67.3 46.99 67.3 48.23 71.1 52.51 71.1"/><polygon class="cv_cls-2" points="44.23 77.12 49.59 77.12 46.91 75.17 44.23 77.12"/><polygon class="cv_cls-2" points="104.3 71.1 108.59 71.1 105.12 73.62 106.26 77.12 200 77.12 200 67.3 103.07 67.3 104.3 71.1"/><polygon class="cv_cls-3" points="106.44 77.69 105.66 77.12 100.3 77.12 99.52 77.69 99.7 77.12 50.19 77.12 50.37 77.69 49.59 77.12 44.23 77.12 43.44 77.69 43.63 77.12 0 77.12 0 86.95 46.35 86.95 46.91 85.25 47.46 86.95 102.43 86.95 102.98 85.25 103.53 86.95 200 86.95 200 77.12 106.26 77.12 106.44 77.69"/><polygon class="cv_cls-4" points="76.27 50.73 74.94 46.66 73.62 50.73 69.34 50.73 72.8 53.25 71.48 57.33 74.94 54.81 78.41 57.33 77.08 53.25 80.55 50.73 76.27 50.73"/><polygon class="cv_cls-4" points="58.94 56.36 57.62 52.29 56.29 56.36 52.01 56.36 55.48 58.88 54.15 62.95 57.62 60.44 61.08 62.95 59.76 58.88 63.22 56.36 58.94 56.36"/><polygon class="cv_cls-4" points="41.3 71.1 44.77 73.62 43.63 77.12 43.44 77.69 44.23 77.12 46.91 75.17 49.59 77.12 50.37 77.69 50.19 77.12 49.05 73.62 52.51 71.1 48.23 71.1 46.99 67.3 46.91 67.03 46.82 67.3 45.58 71.1 41.3 71.1"/><polygon class="cv_cls-4" points="41.3 89.32 44.77 91.84 43.44 95.91 46.91 93.4 50.37 95.91 49.05 91.84 52.51 89.32 48.23 89.32 47.46 86.95 46.91 85.25 46.35 86.95 45.58 89.32 41.3 89.32"/><polygon class="cv_cls-4" points="54.15 110.65 57.62 108.14 61.08 110.65 59.76 106.58 63.22 104.06 58.94 104.06 57.62 99.99 56.29 104.06 52.01 104.06 55.48 106.58 54.15 110.65"/><polygon class="cv_cls-4" points="71.48 116.28 74.94 113.77 78.41 116.28 77.08 112.21 80.55 109.69 76.27 109.69 74.94 105.62 73.62 109.69 69.34 109.69 72.8 112.21 71.48 116.28"/><polygon class="cv_cls-4" points="88.81 110.65 92.27 108.14 95.73 110.65 94.41 106.58 97.88 104.06 93.59 104.06 92.27 99.99 90.94 104.06 86.66 104.06 90.13 106.58 88.81 110.65"/><polygon class="cv_cls-4" points="97.37 71.1 100.84 73.62 99.7 77.12 99.52 77.69 100.3 77.12 102.98 75.17 105.66 77.12 106.44 77.69 106.26 77.12 105.12 73.62 108.59 71.1 104.3 71.1 103.07 67.3 102.98 67.03 102.89 67.3 101.66 71.1 97.37 71.1"/><polygon class="cv_cls-4" points="97.37 89.32 100.84 91.84 99.52 95.91 102.98 93.4 106.44 95.91 105.12 91.84 108.59 89.32 104.3 89.32 103.53 86.95 102.98 85.25 102.43 86.95 101.66 89.32 97.37 89.32"/><polygon class="cv_cls-4" points="93.59 56.36 92.27 52.29 90.94 56.36 86.66 56.36 90.13 58.88 88.81 62.95 92.27 60.44 95.73 62.95 94.41 58.88 97.88 56.36 93.59 56.36"/></g></g></svg>
