<svg xmlns="http://www.w3.org/2000/svg" viewBox="0 0 200 134"><defs><style>.dk_cls-1{fill:#d02a3e;}.dk_cls-2{fill:#fafafa;}</style></defs><title>Asset 47</title><g id="Layer_2" data-name="Layer 2"><g id="Layer_54" data-name="Layer 54"><path class="dk_cls-1" d="M183,0H77.18V56.75H200V17A17,17,0,0,0,183,0Z"/><path class="dk_cls-1" d="M77.18,134H183a17,17,0,0,0,17-17V77.25H77.18Z"/><path class="dk_cls-1" d="M0,77.25V117a17,17,0,0,0,17,17H57V77.25Z"/><path class="dk_cls-1" d="M57,0H17A17,17,0,0,0,0,17V56.75H57Z"/><polygon class="dk_cls-2" points="77.18 56.75 77.18 0 57.01 0 57.01 56.75 0 56.75 0 77.25 57.01 77.25 57.01 134 77.18 134 77.18 77.25 200 77.25 200 56.75 77.18 56.75"/></g></g></svg>
