<svg xmlns="http://www.w3.org/2000/svg" viewBox="0 0 200 134"><style>.st0{fill:#82afff}.st1{fill:#41479b}.st2{fill:#f5f5f5}.st3{fill:#ff4b55}.st4{fill:#ffe15a}.st5{fill:#ffd25a}.st6{fill:#ffbe5a}.st7{fill:#5abea0}.st8{fill:#b46446}.st9{fill:#ffecde}.st10{fill:#464655}</style><path class="st0" d="M185 0H15C6.7 0 0 6.9 0 15.3v103.4c0 8.5 6.7 15.3 15 15.3h170c8.3 0 15-6.9 15-15.3V15.3C200 6.9 193.3 0 185 0z"/><path class="st1" d="M3.4 67h93.1c1.9 0 3.4-1.6 3.4-3.5v-60c0-1.9-1.5-3.5-3.4-3.5H15C6.7 0 0 6.9 0 15.3v48.2C0 65.4 1.5 67 3.4 67z"/><path class="st2" d="M96.6 0h-6l-32 21.4V0H41.4v21.4L9.4 0h-6C1.5 0 0 1.6 0 3.5v2.8l27.4 18.4H0v17.6h27.4L0 60.7v2.8C0 65.4 1.5 67 3.4 67h6l31.9-21.4V67h17.2V45.6L90.6 67h6c1.9 0 3.4-1.6 3.4-3.5v-2.8L72.6 42.3H100V24.7H72.6L100 6.3V3.5c0-1.9-1.5-3.5-3.4-3.5z"/><path class="st3" d="M100 28.2H55.2V0H44.8v28.2H0v10.6h44.8V67h10.4V38.8H100z"/><path class="st3" d="M3.2 5.8l28.4 18.8h6.3L5.7 3.3c-.9.7-1.8 1.6-2.5 2.5zM65 24.7L99.5 1.8C98.9.8 97.8 0 96.6 0h-.7L58.6 24.7H65zM35 42.3L.5 65.2c.6 1.1 1.7 1.8 3 1.8h.7l37.2-24.7H35zM99.9 63.8L67.7 42.3h-6.3L98 66.7c1.1-.6 1.8-1.7 1.9-2.9z"/><path class="st2" d="M125.8 38.5v38.7c0 15.7 21.6 23.8 24.2 24.7 2.6-.9 24.2-9 24.2-24.7V38.5h-48.4z"/><path class="st3" d="M175 56.2V37.6h-50.1v18.6h21.7v17.5h-21.7v7h21.7v20.9l3.4 1.2 3.4-1.2V80.7H175v-7h-21.6V56.2z"/><ellipse class="st2" cx="130.6" cy="49" rx="2.8" ry="2.9"/><path class="st4" d="M136 45c-.9-.5-2.6-1.9-3.2-1.7-.7.2-.8.7-1.7.8-.9.1-2.3 1-1.7 2 .8 1.3 3.2.3 3.3-.3 0 0 .6.1 1.1 0 0 0 1 1.4 2.2 1.3 1.2-.1 1.8-1.7 1.5-1.7S136 45 136 45zM139.8 51.2c-.2.4-1.8 1.7-4.4 2.4-.6.1-.5.8-1.1.5-.6-.3-2.2-.6-3.6-.7-1.4-.1-1.6-1.4-1.3-1.9.3-.6 2.6-1 3-.2.4.8.7.6 1.7.8.6.1.6.5.6.5s1.2-1.2 2.2-1.5c1-.3 1.8-1.1 2-1.1.2 0 1.1.2 1.1.2l-.2 1zM143.6 47.1c1.5.6 5.9.4 10.7-1.2 4.8-1.6 6.1-1.9 8.4-1 2.3.9 3.3-1.9 1.8-2.4-2.4-.7-9.8 3.7-15.2 1.2 0 0-.2.7 0 1 0 0-3.9.1-3-4 0 0 .3 1.5 2.1 1.3 3.5-.3 4 2.2 11.4-.1 4.1-1.3 7.3-.7 7.3 1.4 0 2.5-3.3 3-3.3 3s1.3 2.7 3.9 1.5c2.6-1.2 2.7.9 3 1.6.2.7.7 1.4 1.2 1.4 0 0 .4 1.3.3 1.4-.2.2-1.2 1.5-2.3 1.5h-3.4s-.6-1.6.6-1.6 2.6-.1 2.4-.8c-.2-.7-1.1-1-1.1-1.7 0 0-2.8 2.1-4.5-.4v1.1s-2.1-.4-2.8-2.1c0 0 .2 1.9-1.6 1.6 0 0 .4.6 1 1s0 1.3-1.2 2-4.8 2.8-6.5.7c-1.7-2.1.4-3.4.9-3.2.5.1 1.9 2.4 2.9 2.1s1.5-1.3.6-2c-.8-.6-1.4-1.2-.9-1.9.7-.9 3.3-.6 3.2-1.2-.1-.6-2.5-.4-4.1 1.2-1.6 1.6-8.5 5.4-11.3 3-2.7-2.1-.5-4.4-.5-4.4z"/><path class="st5" d="M142.7 46s2.1 2.1 5.6 2.8c0 0-.6 1-2.5.7 0 0 .8.7 1.3 1.8 0 0-1.2.3-2.3-.3 0 0 .1.9.6 1.6 0 0-1.4 0-2.6-1.1l-.5 1.4s-.8-.6-1.3-1.6c0 0-1 .8-1.9.8 0 0 .3-1 .3-1.6 0 0-1.4.8-2.5.5 0 0 0-1.5.4-1.9 0 0-.9.1-1.5-.2 0 0 .3-.8.5-1.3 0 0-1 0-1.5-.5 0 0 1.8-.7 2.3-1.4l5.6.3z"/><path class="st6" d="M139.4 40.2c.4.2 1.1.7 1.3 1.6 0 0 .8-1.1 2.1-1.3 0 0 .6.7.4 2.4 0 0 1.4-.4 2.2.3 0 0-1.5.3-2.2 1.7 0 0-.3 1.3.2 2.1 0 0-.5.1-1.1-.2 0 0-.3 1.3 0 1.7 0 0-.8-.1-1.2-.9 0 0-.6 1-.6 1.5 0 0-.8-.5-.9-1.2 0 0-.6 1.1-1.2 1.2 0 0-.1-1.5-.3-2.1 0 0-.5.6-1.2.6 0 0 0-1.2.6-1.7 0 0-1 .3-1.5-.8 0 0 1.6.5 2-.5.4-1 .5-1.3 1-1.8.6-.6.4-2.6.4-2.6z"/><path class="st4" d="M142.7 44.7s-1.9 3.8-3.7 2.7c-1.9-1.3.5-4.2.8-4.5 0-.1 1.4.3 2.9 1.8z"/><path class="st7" d="M135.7 64.2s-.2-2.7-1.7-3.5c-1.4-.7-2.2-1.1-2.3-2.1 0 0 1.2.6 2.4.9 1.1.3 2.2 2.3 1.9 4.5l-.3.2z"/><path class="st8" d="M131.1 66.4l.2.3.1.7-.3.9s1.1.4 1.3 1.9c.2 1 .6 1.2.9 1 .3-.2.4-.5.2-1.6-.4-1.4-1.3-2.8-1.3-2.8l-.8-1.2-.3.8z"/><path class="st7" d="M132.2 67c-1-1.3-3.6-4-4.1-.3 0 0-1-3.1.9-3 2.2.2 3.2 3.3 3.2 3.3z"/><path class="st7" d="M131.3 66.8c-.8-.9-1.1-1.6-1.5-3.4-.4-1.7-.6-2.3-1.1-2.2-.5 0-.8.6-.8 1.7 0 0-1.5-1.4-.5-2.4 1-1.1 3.3-.5 3.4 1.4.1 1.9.1 3.2.8 4.8l-.3.1z"/><path class="st7" d="M131.5 65.9s-1.8-4 3.2-6.2c0 0-4.4-1.2-3.9 5.2l.7 1zM132.1 67.4s-3.8-1.5-3.4 2.1c0 0 .6-1.7 2.5-1l.9-1.1z"/><path class="st8" d="M136.4 66c0 1 .4 4.1-.2 4.4-.3.2-1.1 0-1-.7.1-.7.4-4.3.4-5.2 0-.8.8 1.5.8 1.5z"/><path class="st7" d="M134 68.4c.6-.7.8-2.2.6-4.2 0 0 1.3 1 1.8 1.8 0 0 .4-2-1-2.6-1.4-.5-2.1-.2-2.4.4-.2.6.4 1.4.7 2.4.3 1 .3 2.2.3 2.2z"/><path class="st7" d="M136.3 65.4s.2-1.1 1-1.5c0 0 1.5 1.1 1.4 2.6 0 0 .4-2-.4-2.8-.8-.8-1.8-1-2.2-.3-.6.7.2 2 .2 2z"/><path class="st7" d="M136.6 63.4s.5-2.9 1.7-3.5c1.2-.6 3.4-1.2 3.5-1.3 0 0-2.6.1-3 .1-.4 0-2.8 1.7-2.8 4.3 0 2.6.2.8.3.8l.3-.4z"/><path class="st8" d="M137.7 70.9c.3.6.9.7 1 .4.1-.3.7-2.6.7-2.6l-.9-.4-.8 2.6z"/><path class="st7" d="M142.7 61.4c1.1-.6 1.7 1.2 1.7 1.2 0-2.2-.7-2.9-2.3-2-.5.3-.9.8-1.1 1.4-.8-2.5-2.7-2.5-2.7-2.5l-.4.3c1.5.3 2.4 2.2 2.8 3.2-.2.7-.3 1.5-.3 1.9-1 1.1-1.6 3.4-1.6 3.4s.7.4.9.4c0 0 .5-1.5 1.1-1.4.6 0 1.3 1 1.3 1.6 0 0 .9-1.8-.2-2.5-.4-.3-.7-.4-1-.4l.8-.9c1.3.2 2.1 1.5 2.1 1.5 0-2.2-.9-2.6-1.9-2.4 0-.8.4-2.5.8-2.8z"/><path class="st8" d="M163.4 64.5v6.2c0 .3-1.3 1.5-1.3 1.5h3.4s-1.1-1.3-1.1-1.5c0-.2.2-5.7.2-5.7l-1.2-.5z"/><g><path class="st7" d="M163.7 65.1c-.8-.1-3.1 1.8-3.7 4.7 0 0-2-3.3 3-6.1 0 0-2.2-.7-5.6 2.9-.2.2-.3-5.4 5.7-3.9 0 0-2.3-3.4-7-.7 0 0 3.1-5.8 7.8-.6 0 0 0-4.5.1-4 0 .5.4 2.5.4 2.5l.9-1.6-.7 3.3s4.1-5.6 7.7.2c0 0-4.5-1.9-6.7.2 0 0 4.7-1.3 4.3 4.2 0 0-1.8-3.3-4.8-2.9 0 0 3.5 1.7 2.4 6.1-.3.2-2.4-4.2-3.8-4.3zM133.9 85c-.2-.2-.4-.4-.7-.4.1-.3.2-.5.1-.7.1 0 .1.1.2.1v-.3c-.3 0-.6-.2-.9-.4.2-.2.3-.4.3-.7 0-.3-.2-.6-.4-.8-.2.2-.4.4-.4.8 0 .3.1.5.2.6l-.3-.3c0-.2-.1-.4-.3-.6-.2-.2-.6-.3-.8-.3 0 .3.1.6.3.8.2.2.4.2.6.2 0 0 .1.1.2.1-.1 0-.3 0-.5.1-.3.1-.5.4-.6.6.2.2.5.2.9.1.3-.1.5-.3.5-.5l.6.3c0 .2 0 .3-.1.6-.2-.1-.5-.2-.8-.1-.3.1-.5.3-.6.6.2.2.5.2.8.1.2-.1.4-.2.5-.4 0 .1-.1.3-.2.4-.2.1-.4.2-.5.5-.1.3-.1.6 0 .9.3 0 .5-.2.7-.5.1-.2.1-.5 0-.7 0-.1.1-.1.1-.2 0 .2.1.3.2.4.2.3.5.4.8.4.4-.1.3-.4.1-.7z"/></g><path class="st9" d="M132.4 84.2c1.1 0 2.6 0 2.6 1.1 0 1.2-1.3 5.1 1.6 6.3 2.9 1.2 3.3 1 3.3 1l1.3 3.1 3.2-1.2-3.1-2.5s-.3-1.7-1-2.9c0 0 1.9-1 2.5-1.8l-1.3-.1s1.7-1.1 2.5-2.4l-.9.1s1-1.1 1.3-2.3c0 0-1.7 1.7-3.5 2 0 0 .7-2 .9-2.7 0 0-1.3.8-2.2 1.2-.9.4-2.4.4-1.7 3.4 0 0-.8-.7-1.3-2.1-.5-1.4-.7-2-1.3-2-1.1 0-1.5 1-1.5 1l-1.4.8z"/><path class="st8" d="M164.7 84.7c.4-.5 1.2-2.2 1.9-1.8s1.6 1.5 2.2 1 .6-1.1-.3-1.4-1.8-.8-2.4-.6c-.6.2-2.4 2.1-2.4 2.1l1 .7z"/><path class="st4" d="M159.6 86.2c0-.8.5-4.1 2.5-3.7 1.1.2 1.7 1.4 3.1 2 1.5.6 2.5 1 2.2 2-.3 1-.9 2.3-2.1 2.6-1.3.3-5.7-2.9-5.7-2.9z"/><g><path class="st7" d="M158.2 88.9c-.4.1-2.1 2.5-.1 5 0 0 2.4 1 4.2-.5 1.9-1.5.5-2.3.5-2.3l-4.6-2.2z"/><path class="st7" d="M158.4 89.5c-.2-.3-.2-.5-.2-.5s-.1-3.5 1.3-3.5c1.4-.1 6.5 3.4 6.5 3.9 0 .6-1.6 2.2-3 2.5-1.4.3-4.6-2.4-4.6-2.4z"/></g><path class="st8" d="M154.9 97.8s4.5-2.1 3.6-3.7c-.6-1.2-2-.4-2.2.5-.2 1.2-1.1 2.8-1.4 3.2z"/><path class="st10" d="M150 103.7l-.3-.1c-.3-.1-6.4-2.1-12.7-6.4-8.4-5.7-12.9-12.6-12.9-20.1V36.7h51.8v40.4c0 7.4-4.5 14.4-12.9 20.1-6.3 4.2-12.5 6.3-12.7 6.4l-.3.1zm-24.2-65.2v38.7c0 15.7 21.6 23.8 24.2 24.7 2.6-.9 24.2-9 24.2-24.7V38.5h-48.4z"/></svg>
