<svg xmlns="http://www.w3.org/2000/svg" viewBox="0 0 200 134"><defs><style>.gr_cls-1{fill:#282a74;}.gr_cls-2{fill:#fff;}</style></defs><title>Asset 69</title><g id="Layer_2" data-name="Layer 2"><g id="Layer_32" data-name="Layer 32"><rect class="gr_cls-1" y="44.62" width="29.13" height="29.84"/><path class="gr_cls-1" d="M17,134H183a17,17,0,0,0,16.84-14.78H.16A17,17,0,0,0,17,134Z"/><path class="gr_cls-1" d="M73.89,29.7V14.78h126A17,17,0,0,0,183,0H44V29.7Z"/><path class="gr_cls-1" d="M29.13,0H17A17,17,0,0,0,0,17V29.7H29.13Z"/><polygon class="gr_cls-1" points="0 89.38 0 104.3 200 104.3 200 89.38 126.11 89.38 0 89.38"/><rect class="gr_cls-1" x="73.89" y="29.7" width="126.11" height="14.92"/><polygon class="gr_cls-1" points="73.89 44.62 44.05 44.62 44.05 74.46 126.11 74.46 200 74.46 200 59.54 73.89 59.54 73.89 44.62"/><path class="gr_cls-2" d="M0,117a17,17,0,0,0,.16,2.22H199.84A17.35,17.35,0,0,0,200,117V104.3H0Z"/><path class="gr_cls-2" d="M73.89,14.78V29.7H200V17a17.36,17.36,0,0,0-.16-2.22Z"/><rect class="gr_cls-2" x="73.89" y="44.62" width="126.11" height="14.92"/><polygon class="gr_cls-2" points="44.05 74.46 44.05 44.62 73.89 44.62 73.89 29.7 44.05 29.7 44.05 0 29.13 0 29.13 29.7 0 29.7 0 44.62 29.13 44.62 29.13 74.46 0 74.46 0 89.38 126.11 89.38 200 89.38 200 74.46 126.11 74.46 44.05 74.46"/></g></g></svg>
