<svg xmlns="http://www.w3.org/2000/svg" viewBox="0 0 200 134"><defs><style>.au_cls-1{fill:#2a2d7c;}.au_cls-2{fill:#fff;}.au_cls-3{fill:#ed2f31;}</style></defs><title>Asset 13</title><g id="Layer_2" data-name="Layer 2"><g id="Layer_88" data-name="Layer 88"><path class="au_cls-1" d="M183,0H100V5L77.73,16.14H100V32.9H77.73L100,44v5.62H88.76L58.11,34.33V49.65H41.36V34.33L10.71,49.65H0V117a17,17,0,0,0,17,17H183a17,17,0,0,0,17-17V17A17,17,0,0,0,183,0ZM56.28,88.37l-6.54-6.88-6.54,6.88L44.5,79,35,78.14l8.17-4.85-5.26-7.91,8.88,3.36,2.91-9,2.91,9,8.88-3.36-5.25,7.91,8.17,4.85L55,79Zm88.37-76.71,4.23,1.6L150.27,9l1.38,4.31,4.23-1.6-2.5,3.77,3.89,2.31-4.51.39.62,4.48-3.11-3.28-3.12,3.28.62-4.48-4.51-.39,3.89-2.31Zm-16.4,38.17-3.11-3.28L122,49.84l.62-4.48-4.5-.39L122,42.66l-2.5-3.77,4.23,1.6,1.38-4.31,1.38,4.31,4.23-1.6-2.5,3.77L132.13,45l-4.51.39Zm25.13,39.79-3.11-3.28-3.12,3.28.62-4.48-4.51-.39,3.89-2.31-2.5-3.77,4.23,1.6L150.27,76l1.38,4.31,4.23-1.6-2.5,3.77,3.89,2.31-4.51.39Zm9.4-32.4-2.46-1.53-2.46,1.53.69-2.81-2.21-1.87,2.89-.21,1.09-2.68,1.09,2.68,2.89.21-2.21,1.87Zm12.94-14.09-3.12-3.28-3.12,3.28.62-4.48-4.51-.39L169.5,36,167,32.19l4.23,1.6,1.39-4.31L174,33.79l4.23-1.6L175.72,36l3.89,2.31-4.5.39Z"/><polygon class="au_cls-1" points="0 32.9 0 43.77 21.74 32.9 0 32.9"/><path class="au_cls-1" d="M3.32,6.93A16.88,16.88,0,0,0,0,16.14h21.7Z"/><path class="au_cls-1" d="M41.36,0H17a17,17,0,0,0-4.05.51l28.41,14.2Z"/><polygon class="au_cls-1" points="87.53 0 58.11 0 58.11 14.71 87.53 0"/><polygon class="au_cls-2" points="56.27 73.29 61.52 65.38 52.64 68.75 49.73 59.7 46.83 68.75 37.95 65.38 43.2 73.29 35.03 78.14 44.5 78.96 43.19 88.37 49.73 81.49 56.28 88.37 54.98 78.96 64.44 78.14 56.27 73.29"/><polygon class="au_cls-2" points="153.38 82.45 155.88 78.69 151.65 80.29 150.27 75.98 148.88 80.29 144.65 78.69 147.15 82.45 143.26 84.76 147.77 85.15 147.15 89.63 150.27 86.35 153.38 89.63 152.76 85.15 157.27 84.76 153.38 82.45"/><polygon class="au_cls-2" points="128.25 42.66 130.75 38.89 126.52 40.49 125.13 36.19 123.75 40.49 119.52 38.89 122.02 42.66 118.13 44.97 122.64 45.36 122.02 49.84 125.13 46.56 128.25 49.84 127.63 45.36 132.13 44.97 128.25 42.66"/><polygon class="au_cls-2" points="147.77 18.13 147.15 22.61 150.27 19.33 153.38 22.61 152.76 18.13 157.27 17.74 153.38 15.43 155.88 11.66 151.65 13.27 150.27 8.96 148.88 13.27 144.65 11.66 147.15 15.43 143.26 17.74 147.77 18.13"/><polygon class="au_cls-2" points="175.72 35.96 178.22 32.19 173.99 33.79 172.61 29.49 171.22 33.79 166.99 32.19 169.5 35.96 165.6 38.27 170.11 38.66 169.49 43.14 172.61 39.86 175.72 43.14 175.1 38.66 179.61 38.27 175.72 35.96"/><polygon class="au_cls-2" points="161.41 52.33 160.32 49.65 159.23 52.33 156.34 52.55 158.55 54.42 157.85 57.23 160.32 55.7 162.78 57.23 162.09 54.42 164.3 52.55 161.41 52.33"/><polygon class="au_cls-2" points="28.44 29.55 0 29.55 0 32.9 21.74 32.9 28.44 29.55"/><polygon class="au_cls-2" points="58.11 14.71 58.11 0 54.76 0 54.76 16.39 58.11 14.71"/><polygon class="au_cls-2" points="100 19.49 100 16.14 77.73 16.14 71.03 19.49 100 19.49"/><polygon class="au_cls-2" points="77.73 32.9 100 32.9 100 29.55 71.03 29.55 77.73 32.9"/><polygon class="au_cls-2" points="54.76 49.65 58.11 49.65 58.11 34.33 54.76 32.65 54.76 49.65"/><polygon class="au_cls-2" points="44.71 16.39 44.71 0 41.36 0 41.36 14.71 44.71 16.39"/><path class="au_cls-2" d="M21.74,16.14H0c0,.29,0,.57,0,.86v2.49H28.44Z"/><polygon class="au_cls-2" points="41.36 34.33 41.36 49.65 44.71 49.65 44.71 32.65 41.36 34.33"/><polygon class="au_cls-2" points="54.76 29.55 54.76 32.65 58.11 34.33 88.76 49.65 100 49.65 66.49 32.9 73.98 32.9 100 45.91 100 44.03 77.73 32.9 71.03 29.55 54.76 29.55"/><path class="au_cls-2" d="M28.44,19.49H44.71V16.39l-3.35-1.68L12.95.51A16.9,16.9,0,0,0,7.1,3.2L33,16.14H25.49L4.41,5.6A17.11,17.11,0,0,0,3.32,6.93l18.42,9.21Z"/><polygon class="au_cls-2" points="54.76 16.39 54.76 19.49 71.03 19.49 77.73 16.14 100 5.01 100 0 98.77 0 66.49 16.14 59 16.14 91.28 0 87.53 0 58.11 14.71 54.76 16.39"/><polygon class="au_cls-2" points="40.48 32.9 6.96 49.65 10.71 49.65 41.36 34.33 44.71 32.65 44.71 29.55 28.44 29.55 21.74 32.9 0 43.77 0 49.39 32.98 32.9 40.48 32.9"/><polygon class="au_cls-3" points="44.71 29.55 44.71 32.65 44.71 49.65 54.76 49.65 54.76 32.65 54.76 29.55 71.03 29.55 100 29.55 100 19.49 71.03 19.49 54.76 19.49 54.76 16.39 54.76 0 44.71 0 44.71 16.39 44.71 19.49 28.44 19.49 0 19.49 0 29.55 28.44 29.55 44.71 29.55"/><path class="au_cls-3" d="M33,16.14,7.1,3.2A17,17,0,0,0,4.41,5.6L25.49,16.14Z"/><polygon class="au_cls-3" points="66.49 16.14 98.77 0 91.28 0 59 16.14 66.49 16.14"/><polygon class="au_cls-3" points="66.49 32.9 100 49.65 100 45.91 73.98 32.9 66.49 32.9"/><polygon class="au_cls-3" points="40.48 32.9 32.98 32.9 0 49.39 0 49.65 6.96 49.65 40.48 32.9"/></g></g></svg>
