<svg xmlns="http://www.w3.org/2000/svg" viewBox="0 0 200 134"><defs><style>.is_cls-1{fill:#214190;}.is_cls-2{fill:#fff;}.is_cls-3{fill:#d72e2b;}</style></defs><title>Asset 80</title><g id="Layer_2" data-name="Layer 2"><g id="Layer_20" data-name="Layer 20"><path class="is_cls-1" d="M51.8,0H17A17,17,0,0,0,0,17V52.05H51.8Z"/><path class="is_cls-1" d="M183,0H81.7V52.05H200V17A17,17,0,0,0,183,0Z"/><path class="is_cls-1" d="M81.7,134H183a17,17,0,0,0,17-17V81.95H81.7Z"/><path class="is_cls-1" d="M0,81.95V117a17,17,0,0,0,17,17H51.8V81.95Z"/><polygon class="is_cls-2" points="81.7 52.05 81.7 0 74.22 0 74.22 59.52 81.7 59.52 200 59.52 200 52.05 81.7 52.05"/><polygon class="is_cls-2" points="51.8 52.05 0 52.05 0 59.52 51.8 59.52 59.27 59.52 59.27 0 51.8 0 51.8 52.05"/><polygon class="is_cls-2" points="0 74.47 0 81.95 51.8 81.95 51.8 134 59.27 134 59.27 74.47 51.8 74.47 0 74.47"/><polygon class="is_cls-2" points="81.7 74.47 74.22 74.47 74.22 134 81.7 134 81.7 81.95 200 81.95 200 74.47 81.7 74.47"/><polygon class="is_cls-3" points="74.22 59.52 74.22 0 59.27 0 59.27 59.52 51.8 59.52 0 59.52 0 74.47 51.8 74.47 59.27 74.47 59.27 134 74.22 134 74.22 74.47 81.7 74.47 200 74.47 200 59.52 81.7 59.52 74.22 59.52"/></g></g></svg>
