<svg xmlns="http://www.w3.org/2000/svg" viewBox="0 0 200 134"><defs><style>.ke_cls-1{fill:#fff;}.ke_cls-2{fill:#121212;}.ke_cls-3{fill:#166734;}.ke_cls-4{fill:#ba252a;}.ke_cls-5{fill:#010101;}</style></defs><title>Asset 94</title><g id="Layer_2" data-name="Layer 2"><g id="Layer_6" data-name="Layer 6"><path class="ke_cls-1" d="M114.53,43.52c.59,1.2,1.08,2.32,1.45,3.3h84V40.09H116.5Z"/><path class="ke_cls-1" d="M112.71,93.91h1.85l-.95-1.64C113.33,92.8,113,93.35,112.71,93.91Z"/><path class="ke_cls-1" d="M114.56,40.09h-1.85c.32.55.62,1.1.91,1.64Z"/><path class="ke_cls-1" d="M85.44,93.91h1.85c-.31-.55-.62-1.1-.9-1.64Z"/><path class="ke_cls-1" d="M114.53,90.48l2,3.43H200V87.18H116C115.61,88.16,115.11,89.28,114.53,90.48Z"/><path class="ke_cls-1" d="M85.47,43.52l-2-3.43H0v6.73H84C84.39,45.84,84.88,44.72,85.47,43.52Z"/><path class="ke_cls-1" d="M85.47,90.48c-.59-1.2-1.08-2.32-1.45-3.3H0v6.73H83.49Z"/><path class="ke_cls-1" d="M87.29,40.09H85.44l.95,1.64C86.67,41.2,87,40.65,87.29,40.09Z"/><path class="ke_cls-2" d="M183,0H17A17,17,0,0,0,0,17V40.09H83.49l-.2-.34c-2.3-.62-3.56-2.8-4.82-5a48.88,48.88,0,0,1-5.66-14.85,48.79,48.79,0,0,1,10,12.33c1.26,2.19,2.52,4.37,1.91,6.67l.68,1.18h1.85C91,33.66,96.36,26.64,100,26.64s9,7,12.71,13.45h1.85l.68-1.18c-.62-2.3.64-4.48,1.91-6.67a48.79,48.79,0,0,1,10-12.33,48.83,48.83,0,0,1-5.66,14.85c-1.26,2.18-2.52,4.37-4.82,5l-.2.34H200V17A17,17,0,0,0,183,0Z"/><path class="ke_cls-3" d="M124,106.94l-1.46.84-8-13.87h-1.85c-3.67,6.43-9.06,13.45-12.71,13.45s-9-7-12.71-13.45H85.44l-8,13.87L76,106.94l7.52-13H0V117a17,17,0,0,0,17,17H183a17,17,0,0,0,17-17V93.91H116.51Z"/><path class="ke_cls-1" d="M85.47,90.48l-2,3.43-7.52,13,1.46.84,8-13.87.95-1.64C86.06,91.66,85.76,91.06,85.47,90.48Z"/><path class="ke_cls-1" d="M114.53,43.52l2-3.43.2-.34c2.29-.62,3.56-2.8,4.82-5a48.83,48.83,0,0,0,5.66-14.85,48.79,48.79,0,0,0-10,12.33c-1.26,2.19-2.52,4.37-1.91,6.67l-.68,1.18-.95,1.64Q114.1,42.65,114.53,43.52Z"/><path class="ke_cls-1" d="M86.38,41.74l-.95-1.64-.68-1.18c.62-2.3-.65-4.48-1.91-6.67a48.79,48.79,0,0,0-10-12.33,48.88,48.88,0,0,0,5.66,14.85c1.26,2.18,2.52,4.37,4.82,5l.2.34,2,3.43Q85.9,42.65,86.38,41.74Z"/><path class="ke_cls-1" d="M114.56,93.91l8,13.87,1.46-.84-7.52-13-2-3.43c-.29.58-.59,1.18-.91,1.79Z"/><path class="ke_cls-4" d="M79.82,67c0-6.73,1.68-13.45,4.21-20.18H0V87.18H84C81.5,80.45,79.82,73.73,79.82,67Z"/><path class="ke_cls-4" d="M120.18,67c0,6.73-1.68,13.45-4.2,20.18h84V46.82H116C118.5,53.55,120.18,60.27,120.18,67Z"/><path class="ke_cls-4" d="M85.47,43.52c-.59,1.2-1.08,2.32-1.45,3.3,2.52,6.73,4.2,13.45,4.2,20.18S86.55,80.45,84,87.18c.37,1,.86,2.1,1.45,3.3.28.58.59,1.18.91,1.79s.59,1.09.9,1.64c3.67,6.43,9.07,13.45,12.71,13.45s9-7,12.71-13.45c.31-.55.62-1.1.9-1.64s.63-1.21.91-1.79c.59-1.2,1.08-2.32,1.45-3.3-2.52-6.73-4.21-13.45-4.21-20.18s1.68-13.45,4.21-20.18c-.37-1-.86-2.1-1.45-3.3q-.42-.87-.91-1.78c-.29-.54-.59-1.09-.91-1.64C109,33.66,103.64,26.64,100,26.64s-9,7-12.71,13.45c-.31.55-.62,1.1-.91,1.64S85.76,42.94,85.47,43.52ZM95.79,89.58c0-10.93,3.36-17.66,3.36-17.66v35.31S95.79,100.5,95.79,89.58Zm5,17.66V71.92s3.36,6.73,3.36,17.66S100.84,107.23,100.84,107.23ZM103.36,67c0,2.79-1.51,5-3.36,5s-3.37-2.26-3.37-5,1.51-5,3.37-5S103.36,64.21,103.36,67Zm.84-22.58c0,10.93-3.36,17.66-3.36,17.66V26.77S104.2,33.5,104.2,44.42Zm-5-17.66V62.08s-3.36-6.73-3.36-17.66S99.16,26.77,99.16,26.77Z"/><path class="ke_cls-5" d="M116,87.18c2.52-6.73,4.2-13.45,4.2-20.18S118.5,53.55,116,46.82c-2.52,6.73-4.21,13.45-4.21,20.18S113.45,80.45,116,87.18Z"/><path class="ke_cls-5" d="M84,46.82C81.5,53.55,79.82,60.27,79.82,67S81.5,80.45,84,87.18c2.52-6.73,4.2-13.45,4.2-20.18S86.55,53.55,84,46.82Z"/><ellipse class="ke_cls-1" cx="100" cy="67" rx="3.36" ry="5.05"/><path class="ke_cls-1" d="M100.84,71.92v35.31s3.36-6.73,3.36-17.66S100.84,71.92,100.84,71.92Z"/><path class="ke_cls-1" d="M99.16,62.08V26.77s-3.36,6.73-3.36,17.66S99.16,62.08,99.16,62.08Z"/><path class="ke_cls-1" d="M99.16,71.92s-3.36,6.73-3.36,17.66,3.36,17.66,3.36,17.66Z"/><path class="ke_cls-1" d="M100.84,62.08s3.36-6.73,3.36-17.66-3.36-17.66-3.36-17.66Z"/></g></g></svg>
