<svg xmlns="http://www.w3.org/2000/svg" viewBox="0 0 200 134"><defs><style>.kp_cls-1{fill:#07509f;}.kp_cls-2{fill:#ec2428;}.kp_cls-3{fill:#fff;}</style></defs><title>Asset 35</title><g id="Layer_2" data-name="Layer 2"><g id="Layer_66" data-name="Layer 66"><path class="kp_cls-1" d="M183,0H17A17,17,0,0,0,0,17v5.09H200V17A17,17,0,0,0,183,0Z"/><path class="kp_cls-1" d="M0,117a17,17,0,0,0,17,17H183a17,17,0,0,0,17-17v-5.09H0Z"/><path class="kp_cls-2" d="M0,108.17H200V25.83H0ZM55.09,37.06A29.94,29.94,0,1,1,25.15,67,29.94,29.94,0,0,1,55.09,37.06Z"/><rect class="kp_cls-3" y="22.09" width="200" height="3.74"/><rect class="kp_cls-3" y="108.17" width="200" height="3.74"/><path class="kp_cls-3" d="M55.09,96.94A29.94,29.94,0,1,0,25.15,67,29.94,29.94,0,0,0,55.09,96.94ZM48.58,58l6.51-20L61.6,58H82.67l-17,12.39,6.51,20L55.09,78.08,38,90.46l6.51-20L27.5,58Z"/><polygon class="kp_cls-2" points="44.55 70.43 38.04 90.47 55.09 78.08 72.14 90.47 65.63 70.43 82.67 58.04 61.6 58.04 55.09 38 48.58 58.04 27.5 58.04 44.55 70.43"/></g></g></svg>
