<svg xmlns="http://www.w3.org/2000/svg" viewBox="0 0 200 134"><defs><style>.kr_cls-1{fill:#fafafa;}.kr_cls-2{fill:#010101;}.kr_cls-3{fill:#ce2028;}.kr_cls-4{fill:#1e4384;}</style></defs><title>Asset 55</title><g id="Layer_2" data-name="Layer 2"><g id="Layer_46" data-name="Layer 46"><path class="kr_cls-1" d="M183,0H17A17,17,0,0,0,0,17V117a17,17,0,0,0,17,17H183a17,17,0,0,0,17-17V17A17,17,0,0,0,183,0ZM151.5,12.38l8.58,12.88-4.68,3.12L146.82,15.5Zm-7,4.68,18.73,28.09-4.68,3.12L139.8,20.18Zm7,64,4.68,3.12L147.6,97l-4.68-3.12Zm-8.58-41L147.6,37l8.58,12.88L151.5,53Zm15.61,45.65,4.68,3.12-8.58,12.88-4.68-3.12Zm-21.07-64L146,34.62l-4.68,3.12-8.58-12.87ZM67.23,24.86,48.5,53l-4.68-3.12L62.54,21.74Zm-7-4.68L41.48,48.27l-4.68-3.12L55.52,17.06ZM50.06,98.61l-4.68,3.12L36.79,88.85l4.68-3.12ZM48.5,12.38l4.68,3.12L34.45,43.59l-4.68-3.12Zm0,109.25L29.77,93.53l4.68-3.12L53.18,118.5Zm7-4.68-8.58-12.87,4.68-3.12,8.58,12.88Zm7-4.68L43.81,84.17,48.5,81l18.73,28.09ZM81.27,95.09A33.75,33.75,0,0,1,71.21,49.38c.22-.37.45-.74.7-1.1a33.76,33.76,0,1,1,9.36,46.82Zm51.5,14,8.58-12.88L146,99.38l-8.59,12.88Zm7,4.68,8.58-12.88,4.68,3.12-8.58,12.88Zm11.71,7.8-4.68-3.12,8.59-12.87,4.68,3.12Zm10.14-15.22L157,103.29l8.59-12.88,4.68,3.12Zm3.9-62.82L157,30.71l4.68-3.12,8.58,12.88Z"/><rect class="kr_cls-2" x="136.59" y="22" width="5.63" height="15.48" transform="translate(6.92 82.34) rotate(-33.7)"/><rect class="kr_cls-2" x="146.74" y="37.22" width="5.63" height="15.48" transform="translate(0.18 90.5) rotate(-33.69)"/><rect class="kr_cls-2" x="148.69" y="15.78" width="5.63" height="33.76" transform="translate(7.32 89.52) rotate(-33.69)"/><rect class="kr_cls-2" x="150.64" y="12.64" width="5.63" height="15.48" transform="translate(14.47 88.55) rotate(-33.69)"/><rect class="kr_cls-2" x="160.79" y="27.85" width="5.63" height="15.48" transform="translate(7.74 96.74) rotate(-33.69)"/><rect class="kr_cls-2" x="52.71" y="79.77" width="5.63" height="33.76" transform="translate(-44.29 47.03) rotate(-33.69)"/><rect class="kr_cls-2" x="40.61" y="85.99" width="5.63" height="15.47" transform="translate(-44.7 39.83) rotate(-33.69)"/><rect class="kr_cls-2" x="50.76" y="101.21" width="5.63" height="15.47" transform="translate(-51.44 48.02) rotate(-33.69)"/><rect class="kr_cls-2" x="38.66" y="89.14" width="5.63" height="33.76" transform="translate(-51.84 40.81) rotate(-33.69)"/><rect class="kr_cls-2" x="38.64" y="34.53" width="33.76" height="5.63" transform="translate(-6.35 62.83) rotate(-56.31)"/><rect class="kr_cls-2" x="31.62" y="29.85" width="33.76" height="5.63" transform="translate(-5.58 54.9) rotate(-56.31)"/><rect class="kr_cls-2" x="24.59" y="25.17" width="33.76" height="5.63" transform="translate(-4.81 46.98) rotate(-56.32)"/><rect class="kr_cls-2" x="131.67" y="101.45" width="15.48" height="5.63" transform="translate(-24.67 162.43) rotate(-56.31)"/><rect class="kr_cls-2" x="141.82" y="86.23" width="15.48" height="5.63" transform="translate(-7.5 164.08) rotate(-56.31)"/><rect class="kr_cls-2" x="138.69" y="106.13" width="15.47" height="5.63" transform="translate(-25.44 170.35) rotate(-56.31)"/><rect class="kr_cls-2" x="148.84" y="90.92" width="15.47" height="5.63" transform="translate(-8.28 171.98) rotate(-56.3)"/><rect class="kr_cls-2" x="145.72" y="110.81" width="15.48" height="5.63" transform="translate(-26.2 178.31) rotate(-56.32)"/><rect class="kr_cls-2" x="155.86" y="95.6" width="15.48" height="5.63" transform="translate(-9.02 179.98) rotate(-56.32)"/><path class="kr_cls-3" d="M71.21,49.38c.23-.37.45-.74.7-1.1C71.67,48.64,71.43,49,71.21,49.38Z"/><path class="kr_cls-3" d="M118.73,38.91a33.76,33.76,0,0,0-46.82,9.37A16.88,16.88,0,0,0,100,67a16.88,16.88,0,0,1,28.09,18.73A33.77,33.77,0,0,0,118.73,38.91Z"/><path class="kr_cls-4" d="M123.41,62.32A16.88,16.88,0,0,0,100,67,16.88,16.88,0,0,1,71.91,48.27c-.24.36-.47.73-.7,1.1a33.76,33.76,0,0,0,56.88,36.35A16.88,16.88,0,0,0,123.41,62.32Z"/></g></g></svg>
