<svg xmlns="http://www.w3.org/2000/svg" viewBox="0 0 200 134"><defs><style>.lr_cls-1{fill:#d81e40;}.lr_cls-2{fill:#fff;}.lr_cls-3{fill:#0e2749;}</style></defs><title>Asset 2</title><g id="Layer_2" data-name="Layer 2"><g id="Layer_99" data-name="Layer 99"><path class="lr_cls-1" d="M17,134H183a17,17,0,0,0,16.2-11.85H.8A17,17,0,0,0,17,134Z"/><rect class="lr_cls-1" y="97.64" width="200" height="12.26"/><rect class="lr_cls-1" y="73.13" width="200" height="12.26"/><rect class="lr_cls-1" x="60.28" y="48.62" width="139.72" height="12.26"/><path class="lr_cls-1" d="M183,0H60.28V11.85H199.2A17,17,0,0,0,183,0Z"/><rect class="lr_cls-1" x="60.28" y="24.11" width="139.72" height="12.26"/><rect class="lr_cls-2" x="60.28" y="36.36" width="139.72" height="12.26"/><polygon class="lr_cls-2" points="0 60.87 0 73.13 200 73.13 200 60.87 60.28 60.87 0 60.87"/><rect class="lr_cls-2" y="85.38" width="200" height="12.25"/><path class="lr_cls-2" d="M60.28,24.11H200V17a17,17,0,0,0-.8-5.15H60.28Z"/><path class="lr_cls-2" d="M0,117a17,17,0,0,0,.8,5.15H199.2A17,17,0,0,0,200,117v-7.11H0Z"/><path class="lr_cls-3" d="M60.28,60.87V0H17A17,17,0,0,0,0,17V60.87ZM12.15,24.55H25.51l4.13-12.7,4.13,12.7H47.12L36.32,32.4l4.13,12.7L29.64,37.25,18.83,45.1,23,32.4Z"/><polygon class="lr_cls-2" points="47.12 24.55 33.77 24.55 29.64 11.85 25.51 24.55 12.15 24.55 22.96 32.4 18.83 45.1 29.64 37.25 40.45 45.1 36.32 32.4 47.12 24.55"/></g></g></svg>
