<svg xmlns="http://www.w3.org/2000/svg" viewBox="0 0 200 134"><defs><style>.se_cls-1{fill:#1b5889;}.se_cls-2{fill:#fdca33;}</style></defs><title>Asset 74</title><g id="Layer_2" data-name="Layer 2"><g id="Layer_27" data-name="Layer 27"><path class="se_cls-1" d="M86.55,134H183a17,17,0,0,0,17-17V80.45H86.55Z"/><path class="se_cls-1" d="M183,0H86.55V53.55H200V17A17,17,0,0,0,183,0Z"/><path class="se_cls-1" d="M0,80.45V117a17,17,0,0,0,17,17H59.66V80.45Z"/><path class="se_cls-1" d="M59.66,0H17A17,17,0,0,0,0,17V53.55H59.66Z"/><polygon class="se_cls-2" points="86.56 53.55 86.56 0 59.66 0 59.66 53.55 0 53.55 0 80.45 59.66 80.45 59.66 134 86.56 134 86.56 80.45 200 80.45 200 53.55 86.56 53.55"/></g></g></svg>
