<svg xmlns="http://www.w3.org/2000/svg" viewBox="0 0 200 134"><defs><style>.tw_cls-1{fill:#d9362b;}.tw_cls-2{fill:#24469d;}.tw_cls-3{fill:#fff;}</style></defs><title>Asset 25</title><g id="Layer_2" data-name="Layer 2"><g id="Layer_76" data-name="Layer 76"><path class="tw_cls-1" d="M183,0H86.5V54.87H0V117a17,17,0,0,0,17,17H183a17,17,0,0,0,17-17V17A17,17,0,0,0,183,0Z"/><path class="tw_cls-2" d="M86.5,0H17A17,17,0,0,0,0,17V54.87H86.5ZM63.13,21.42l2.86,0-2.27,1.69.84,2.67L62.2,24.25l-2.34,1.6.82-2.68L58.4,21.49l2.86-.06.93-2.64ZM58.31,10.79l.95,2.64,2.86,0-2.27,1.69.83,2.67-2.35-1.59L56,17.86l.82-2.68L54.52,13.5l2.86-.06Zm-7-3,.95-2.64.93,2.64,2.86.06L53.79,9.57l.82,2.68-2.34-1.6-2.35,1.59.84-2.67L48.49,7.86ZM41.86,5.87l.95-2.64.93,2.64,2.86.07L44.31,7.62l.82,2.68L42.79,8.7l-2.35,1.59.84-2.67L39,5.92Zm-9,1.94.95-2.64.93,2.64,2.86.06L35.27,9.57l.82,2.68-2.34-1.6-2.35,1.59.84-2.67L30,7.86ZM25.49,13l.95-2.64L27.37,13l2.86.06-2.28,1.68.82,2.68-2.34-1.6-2.35,1.59.84-2.67L22.63,13Zm-3.66,7.77.95-2.64.93,2.64,2.86.06-2.28,1.68.82,2.68-2.34-1.6-2.35,1.59.83-2.67L19,20.82ZM19,29.46l2.86,0,.95-2.64.93,2.64,2.86.07-2.28,1.68.82,2.68-2.34-1.6-2.35,1.59.83-2.67Zm7.45,11.42-2.35,1.59.84-2.67-2.27-1.7,2.86,0,.95-2.64.93,2.64,2.86.06L27.94,39.8l.82,2.67Zm9.34,7.86-2.34-1.6-2.35,1.59.83-2.67-2.27-1.69,2.86,0,.95-2.64.93,2.64,2.86.07-2.28,1.68Zm9,2.16-2.34-1.6-2.35,1.59L41,48.22l-2.27-1.69,2.86,0,.95-2.64.93,2.64,2.86.07L44,48.22ZM47,39.67l-2.69.7a3.32,3.32,0,0,1-.09,1.08l.2,1.57L41,43.13l.32-2.59-2.8-.76-1,2.48-2.91-1.51L36,38.59l-2.48-1.83L31.7,38.59,29.55,36l2.26-1.62-1.4-2.59-2.26.86-1-3.35,2.69-.22v-3l-2.69-.32L28,22.39l2.37,1,1.29-2.7-2-1.3,2-2.81,1.94,1.94,2.15-1.94L34.5,14.4l3.13-1.62.75,2.7.8-.24c-.11-.6,0-1.12.41-1.29s1,.12,1.51.72l.18-.05L41,12.13,44.31,12l-.21,2.59,3,1,.75-2.7,3,1.51-1.4,2.27,1.38,1.07a1.79,1.79,0,0,1,1.24.5l1.58-1.68,2,2.59-2.15,1.51,1.4,2.7,2.37-.86.76,3.35-2.48.22-.11,3L58,29.3l-.75,3.46-2.48-1.08-1.08,2.81,2,1.29-2,2.7L52,36.54l-.87.71a1,1,0,0,1-.47.38l-1,.85L51,40.75l-3.12,1.51Zm7.29,9.5L52,47.57,49.6,49.16l.84-2.67-2.27-1.69,2.86,0L52,42.11l.93,2.64,2.86.06L53.47,46.5Zm7-6.28L59,41.31l-2.34,1.6.82-2.68-2.28-1.68L58,38.49,59,35.85l.95,2.63,2.86,0-2.27,1.69Zm3.88-8.64-2.35-1.59-2.34,1.6.82-2.68L59,29.91l2.86-.07.93-2.64.95,2.64,2.86,0-2.27,1.69Z"/><path class="tw_cls-3" d="M49.58,38.48l1-.85a1,1,0,0,0,.47-.38l.87-.71,1.72,1.94,2-2.7-2-1.29,1.08-2.81,2.48,1.08L58,29.3l-2.48-.22.11-3,2.48-.22-.76-3.35L55,23.36l-1.4-2.7,2.15-1.51-2-2.59L52.1,18.24a1.79,1.79,0,0,0-1.24-.5l-1.38-1.07,1.4-2.27-3-1.51-.75,2.7-3-1L44.31,12,41,12.13l.32,2.48-.18.05c-.46-.6-1.07-.92-1.51-.72s-.52.69-.41,1.29l-.8.24-.75-2.7L34.5,14.4l1.29,2.16L33.64,18.5,31.7,16.56l-2,2.81,2,1.3-1.29,2.7-2.37-1-.87,3.35,2.69.32v3l-2.69.22,1,3.35,2.26-.86,1.4,2.59L29.55,36l2.15,2.59,1.83-1.83L36,38.59l-1.4,2.16,2.91,1.51,1-2.48,2.8.76L41,43.13,44.41,43l-.2-1.57a3.32,3.32,0,0,0,.09-1.08l2.69-.7.86,2.59L51,40.75Z"/><polygon class="tw_cls-3" points="40.44 10.29 42.79 8.7 45.13 10.3 44.31 7.62 46.6 5.94 43.74 5.88 42.81 3.23 41.86 5.87 39.01 5.92 41.28 7.61 40.44 10.29"/><polygon class="tw_cls-3" points="43.42 46.48 42.49 43.84 41.54 46.47 38.68 46.52 40.95 48.22 40.12 50.89 42.47 49.3 44.81 50.9 43.99 48.22 46.27 46.54 43.42 46.48"/><polygon class="tw_cls-3" points="49.92 12.23 52.27 10.64 54.62 12.24 53.8 9.56 56.08 7.88 53.22 7.82 52.29 5.18 51.34 7.81 48.49 7.86 50.76 9.56 49.92 12.23"/><polygon class="tw_cls-3" points="52.9 44.75 51.97 42.11 51.02 44.74 48.16 44.79 50.44 46.49 49.6 49.16 51.95 47.57 54.29 49.17 53.47 46.5 55.75 44.81 52.9 44.75"/><polygon class="tw_cls-3" points="31.39 12.23 33.74 10.64 36.09 12.24 35.27 9.56 37.55 7.88 34.69 7.82 33.76 5.18 32.81 7.81 29.96 7.86 32.23 9.56 31.39 12.23"/><polygon class="tw_cls-3" points="34.37 44.32 33.44 41.68 32.49 44.31 29.64 44.36 31.91 46.06 31.07 48.73 33.42 47.14 35.76 48.74 34.94 46.06 37.23 44.38 34.37 44.32"/><polygon class="tw_cls-3" points="24.07 17.41 26.42 15.82 28.76 17.43 27.94 14.75 30.22 13.07 27.36 13 26.44 10.36 25.49 13 22.63 13.05 24.9 14.74 24.07 17.41"/><polygon class="tw_cls-3" points="30.22 38.12 27.36 38.06 26.44 35.41 25.49 38.05 22.63 38.1 24.9 39.79 24.07 42.47 26.42 40.88 28.76 42.48 27.94 39.8 30.22 38.12"/><polygon class="tw_cls-3" points="20.41 25.19 22.76 23.6 25.1 25.2 24.28 22.52 26.56 20.84 23.7 20.78 22.77 18.14 21.83 20.77 18.97 20.82 21.24 22.52 20.41 25.19"/><polygon class="tw_cls-3" points="22.76 32.24 25.1 33.84 24.28 31.16 26.56 29.48 23.7 29.42 22.77 26.77 21.83 29.41 18.97 29.46 21.24 31.15 20.41 33.83 22.76 32.24"/><polygon class="tw_cls-3" points="56.8 15.18 55.98 17.86 58.32 16.25 60.67 17.84 59.84 15.17 62.11 13.48 59.25 13.43 58.31 10.79 57.38 13.44 54.52 13.5 56.8 15.18"/><polygon class="tw_cls-3" points="59.9 38.48 58.95 35.85 58.02 38.49 55.16 38.55 57.45 40.23 56.63 42.91 58.97 41.31 61.32 42.9 60.48 40.23 62.76 38.53 59.9 38.48"/><polygon class="tw_cls-3" points="58.4 21.49 60.68 23.17 59.86 25.85 62.2 24.25 64.55 25.83 63.72 23.16 65.99 21.47 63.13 21.42 62.19 18.78 61.25 21.43 58.4 21.49"/><polygon class="tw_cls-3" points="66.64 29.89 63.78 29.84 62.83 27.21 61.9 29.85 59.04 29.91 61.32 31.59 60.51 34.27 62.85 32.67 65.2 34.26 64.36 31.59 66.64 29.89"/></g></g></svg>
