<svg xmlns="http://www.w3.org/2000/svg" viewBox="0 0 200 134"><defs><style>.vi_cls-1{fill:#fafafa;}.vi_cls-2{fill:#fed600;}.vi_cls-3{fill:#010101;}.vi_cls-4{fill:#f3ea29;}.vi_cls-5{fill:#3ac2d4;}.vi_cls-6{fill:#218541;}.vi_cls-7{fill:none;stroke:#010101;stroke-linecap:round;stroke-linejoin:round;stroke-width:1.48px;}.vi_cls-8{fill:#c4203b;}.vi_cls-9{fill:#263779;}.vi_cls-10{fill:#fff;}</style></defs><title>Asset 97</title><g id="Layer_2" data-name="Layer 2"><g id="Layer_4" data-name="Layer 4"><rect class="vi_cls-1" width="200" height="134" rx="17" ry="17"/><path class="vi_cls-2" d="M119.42,46.27c0-1-.31-2.79-1.31-3.43-1.29-.67-1.29-1.08-1.39-2s2.16-2.53,2.16-2.53a9,9,0,0,0-2.84-.82,9.93,9.93,0,0,0-2.47.46c-.2.2-1.34-3.71-.62-4.33s2.22,1.44,2.22,1.44,1-2.27-2.47-6.6c1.18-8.46-6.7-10.42-8.51-10.37-1.49-.2-5.36,1.19-6,3a2.87,2.87,0,0,0-2.06,2.37s-4,.72-4.54,4.23c2.37-2,3.92.21,3.92.21a9.29,9.29,0,0,0,3.14,1.49c1.08.05-1,3.61-1.65,4.23a33.89,33.89,0,0,0-3.09,3.14c.1.16,2,.72,1.91,1.6S90,42,90.26,42.68a4.88,4.88,0,0,1,2.66-.11c.21,1.46-.37,3.15-1.37,3.69Z"/><path class="vi_cls-3" d="M120.16,47H91.55l-.36-1.39a2.91,2.91,0,0,0,1-2.41,4.84,4.84,0,0,0-1.74.19l-.62.19L89.59,43c-.43-.94.63-1.59,3-3A21,21,0,0,0,95,38.31,5.51,5.51,0,0,0,94,37.72a1.4,1.4,0,0,1-.67-.46c-.42-.63-.16-.89,2.41-3.33l.78-.75a11,11,0,0,0,1.69-3,11,11,0,0,1-3.09-1.56l-.18-.18a1.9,1.9,0,0,0-1.36-.72,2.4,2.4,0,0,0-1.48.65l-1.49,1.23.28-1.91c.48-3.23,3.44-4.39,4.64-4.73a3.61,3.61,0,0,1,2.13-2.34c1-2,4.54-3.23,6.21-3.23l.38,0a10.71,10.71,0,0,1,7.19,3.46,9.22,9.22,0,0,1,2,7.43c3.4,4.39,2.5,6.84,2.38,7.11l-.51,1.19-.77-1.05a5.46,5.46,0,0,0-1.12-1.16,9.61,9.61,0,0,0,.47,2.7c.37-.08.88-.15,1.61-.24l.41-.05a8.9,8.9,0,0,1,3.24.88l1.16.52-1,.75a6.1,6.1,0,0,0-1.86,1.89c.09.77.1.88,1,1.34,1.36.86,1.71,3,1.71,4.09Zm-27-1.48h25.45a3.15,3.15,0,0,0-.91-2.07A2.55,2.55,0,0,1,116,41.05c-.1-.85.64-1.77,1.44-2.49a4.85,4.85,0,0,0-1.25-.31l-.46.06a15.27,15.27,0,0,0-1.7.27l-.14.14h-.33c-.59,0-.81-.58-.94-.93,0,0-1.33-3.7-.14-4.72a1.59,1.59,0,0,1,2,.17,11.06,11.06,0,0,0-2.32-4.3l-.2-.25,0-.32a7.9,7.9,0,0,0-1.65-6.57,9.31,9.31,0,0,0-6.06-3h-.39c-1.51,0-4.52,1.26-5,2.56l-.12.35-.35.12a2.12,2.12,0,0,0-1.56,1.72l0,.58-.57.1a5.66,5.66,0,0,0-3.29,2,3.05,3.05,0,0,1,.58-.06A3.34,3.34,0,0,1,96,27.43a8,8,0,0,0,2.67,1.3,1,1,0,0,1,.93.66c.49,1.27-1.64,4.39-2.09,4.84l-.81.78c-.42.4-1.15,1.1-1.65,1.6.73.37,1.59,1,1.48,1.93-.09.72-1,1.32-3.23,2.7l-.81.5a4,4,0,0,1,.62.12l.45.14.07.47A5.42,5.42,0,0,1,93.17,45.52Z"/><path class="vi_cls-2" d="M117.89,84.9s.26,3.1-1.05,4.41c5.83.37,9,6.3,9,7.72s-1.79,2.52-1.79,2.52.63,2.52-1.79,2.94c.05,2.42-1.63,2.42-1.63,2.42a2.7,2.7,0,0,1-2.58,1.89,3.6,3.6,0,0,1-3.57,2.84s-1.73,4.2-4.31,2.57c-1.63,3.57-5.94,3.41-7.56,0-.89-.05-2.89,1.16-4.1-2.42-2.68.47-3.73-2.94-3.73-2.94a3.09,3.09,0,0,1-2.47-1.95,2.15,2.15,0,0,1-1.73-2.52,2.91,2.91,0,0,1-2-2.89,3.09,3.09,0,0,1-1.52-2.79s1.31-6.2,8.93-7.51A7.67,7.67,0,0,1,94.93,85Z"/><path class="vi_cls-3" d="M106.49,115.59a5,5,0,0,1-4.25-2.58h-.06a5.72,5.72,0,0,1-1,.1c-1.41,0-2.43-.83-3.14-2.53h0c-2.25,0-3.39-2.14-3.78-3.08a3.78,3.78,0,0,1-2.45-2,2.79,2.79,0,0,1-2-2.66,3.6,3.6,0,0,1-2-3,3.84,3.84,0,0,1-1.53-3.25,11,11,0,0,1,8.54-8,9.09,9.09,0,0,1-.66-3.78.74.74,0,0,1,.74-.7l23-.05h0a.74.74,0,0,1,.74.68,9,9,0,0,1-.53,3.89c5.34,1,8.45,6.46,8.52,8.28a3.79,3.79,0,0,1-1.73,2.9,3.35,3.35,0,0,1-.46,2.1,2.71,2.71,0,0,1-1.41,1.07,3,3,0,0,1-.79,1.88,2.34,2.34,0,0,1-1,.62,3.35,3.35,0,0,1-2.53,2,4.24,4.24,0,0,1-3.66,2.83c-.47.94-1.71,3-3.61,3a2.72,2.72,0,0,1-.86-.14A4.73,4.73,0,0,1,106.49,115.59Zm-3.89-4.11h.1a.74.74,0,0,1,.63.42,3.55,3.55,0,0,0,3.16,2.2,3.41,3.41,0,0,0,3.06-2.19.74.74,0,0,1,1.07-.32,1.47,1.47,0,0,0,.79.26c1.15,0,2.17-1.84,2.44-2.49a.74.74,0,0,1,.69-.46h0a2.83,2.83,0,0,0,2.83-2.24.73.73,0,0,1,.77-.59h.11A2,2,0,0,0,120,104.7a.74.74,0,0,1,.71-.52c.14,0,.92-.12.89-1.66a.74.74,0,0,1,.61-.75,1.41,1.41,0,0,0,1-.57,2.18,2.18,0,0,0,.18-1.46.74.74,0,0,1,.34-.81c.38-.23,1.46-1.07,1.43-1.86,0-1.1-3-6.67-8.34-7a.74.74,0,0,1-.48-1.26,5,5,0,0,0,.86-3.14l-21.49,0a6.25,6.25,0,0,0,.91,3.09.74.74,0,0,1-.48,1.16c-7,1.21-8.32,6.88-8.33,6.93h0a2.38,2.38,0,0,0,1.18,2,.74.74,0,0,1,.36.65,2.13,2.13,0,0,0,1.51,2.16.75.75,0,0,1,.53.84,1.37,1.37,0,0,0,1.15,1.66.74.74,0,0,1,.55.46,2.33,2.33,0,0,0,1.84,1.47.75.75,0,0,1,.64.52s.89,2.78,2.89,2.43a.75.75,0,0,1,.83.49c.7,2.06,1.56,2.07,1.93,2.07h0a4.44,4.44,0,0,0,.73-.08A4.32,4.32,0,0,1,102.59,111.48Z"/><path class="vi_cls-2" d="M81.39,49.34s-4.15,4.47-6.23,1.13,2.89-4.28,3-4.34S81,45.19,81.27,40,75,31.35,73.21,30.91A50.51,50.51,0,0,0,66,30.46S46.48,25.75,44.46,24.3,24,19.46,24,19.46s-3-.38-2.71,2.26a3.22,3.22,0,0,0,2.71,3s-2.08,1.63-1.82,3.08a4.42,4.42,0,0,0,5.1,3.4c-.38,5.16,6.79,6,6.79,6s.75,7.42,7.36,7c1.57,5.1,7.49,5.29,7.49,5.29s2.77,3.46,6.79,3.71C58,59,63,57.33,63,57.33S62.64,61,65,61c-1.19,4.15,3.27,4.72,5,3.9.44.88,1.95,3.59,5.41,1.89a4.53,4.53,0,0,0,5.47,1.64s.76,2.46,3.71,1.51S81.33,49.47,81.39,49.34Z"/><path class="vi_cls-3" d="M83.27,70.63h0A3,3,0,0,1,80.55,69a5.9,5.9,0,0,1-1.58.22,4.65,4.65,0,0,1-3.78-1.85,5,5,0,0,1-1.93.43,4,4,0,0,1-3.55-2.31,4.85,4.85,0,0,1-1.41.2,4.23,4.23,0,0,1-3.41-1.46,3.47,3.47,0,0,1-.53-2.84,2.06,2.06,0,0,1-1-.62A4.47,4.47,0,0,1,62.5,58a6.81,6.81,0,0,1-1.08.09c-1.58,0-4.44-.58-6.1-4.39a11.05,11.05,0,0,1-6.7-3.7c-1.12-.1-6-.8-7.6-5.26-5.76.13-7.17-5.55-7.44-7.11-2.58-.4-6.76-2-6.87-5.88a4.86,4.86,0,0,1-5.08-3.85A3.75,3.75,0,0,1,23,24.9a3.68,3.68,0,0,1-2.21-3.14,2.49,2.49,0,0,1,.56-2A3.38,3.38,0,0,1,24,19c1.93.35,18.69,3.46,20.74,4.93C46.34,25,60.64,28.65,66.1,30a48.54,48.54,0,0,1,7.23.46c1.86.45,8.7,4,8.44,9.57-.22,4.63-2.44,6.13-3.38,6.57h0a1,1,0,0,1-.28.1c-2,.55-2.65,1.28-2.86,1.8a1.93,1.93,0,0,0,.34,1.75,1.83,1.83,0,0,0,1.6,1C78.95,51.21,81,49,81,49a.5.5,0,0,1,.65-.07.49.49,0,0,1,.21.36c0,.13.14.52.31,1.11,4.82,16.78,4,19.52,2.49,20A4.68,4.68,0,0,1,83.27,70.63ZM80.83,67.9A.5.5,0,0,1,81,68a.5.5,0,0,1,.27.31,2.06,2.06,0,0,0,2,1.37h0a3.7,3.7,0,0,0,1.11-.19c.48-.15,1.68-2-3.14-18.76l-.11-.39a6.75,6.75,0,0,1-3.94,1.92,2.83,2.83,0,0,1-2.45-1.47,2.89,2.89,0,0,1-.42-2.64c.42-1.06,1.6-1.87,3.52-2.4l.08,0,0,0c.78-.36,2.6-1.63,2.8-5.71.23-4.9-6-8.16-7.67-8.55A50.43,50.43,0,0,0,66,31h-.12c-2-.49-19.72-4.78-21.75-6.25-1.41-1-12.92-3.4-20.31-4.76h-.28a2.14,2.14,0,0,0-1.54.51,1.54,1.54,0,0,0-.3,1.22A2.71,2.71,0,0,0,24,24.18a.5.5,0,0,1,.24.89c-.48.38-1.8,1.67-1.64,2.6a3.91,3.91,0,0,0,4.55,3,.49.49,0,0,1,.4.14.5.5,0,0,1,.15.4c-.34,4.63,6.29,5.44,6.35,5.44a.5.5,0,0,1,.44.45c0,.28.78,6.93,6.84,6.6a.49.49,0,0,1,.51.35c1.45,4.69,6.8,4.92,7,4.93a.5.5,0,0,1,.37.19s2.68,3.29,6.44,3.53a.5.5,0,0,1,.43.31C57.47,56.34,59.75,57,61.42,57a5.3,5.3,0,0,0,1.45-.19.5.5,0,0,1,.65.53,4.21,4.21,0,0,0,.57,2.73,1.12,1.12,0,0,0,.88.37.5.5,0,0,1,.48.64,2.78,2.78,0,0,0,.24,2.52,3.24,3.24,0,0,0,2.62,1.06,3.44,3.44,0,0,0,1.42-.27.5.5,0,0,1,.66.23c1.06,2.12,2.66,2.68,4.74,1.66a.5.5,0,0,1,.64.17A3.69,3.69,0,0,0,79,68.24a4.77,4.77,0,0,0,1.66-.3A.51.51,0,0,1,80.83,67.9Z"/><path class="vi_cls-4" d="M80.89,68.47s.19-3.21-.57-3.84Z"/><path class="vi_cls-3" d="M80.89,69a.5.5,0,0,1-.5-.43l-.57-3.84a.5.5,0,0,1,.81-.46c.88.73.79,3.44.75,4.25a.5.5,0,0,1-.48.47Z"/><path class="vi_cls-4" d="M75.17,66.71c.06-.06,1.51-3,1-3.46Z"/><path class="vi_cls-3" d="M75.17,67.21a.5.5,0,0,1-.48-.64l1-3.46a.5.5,0,0,1,.83-.21,1,1,0,0,1,.25.72,9.57,9.57,0,0,1-1.26,3.45A.5.5,0,0,1,75.17,67.21Z"/><path class="vi_cls-4" d="M69.88,64.88,73.78,61Z"/><path class="vi_cls-3" d="M69.88,65.38a.5.5,0,0,1-.35-.86l3.9-3.84a.5.5,0,1,1,.7.71l-3.9,3.84A.5.5,0,0,1,69.88,65.38Z"/><path class="vi_cls-4" d="M65,61.11c.06-.06,5.91-3.71,5.91-3.71Z"/><path class="vi_cls-3" d="M65,61.61a.5.5,0,0,1-.35-.85l.09-.07h0l.07,0c.35-.23,1.53-1,5.85-3.67a.5.5,0,0,1,.53.85h0l-5.91,3.71A.49.49,0,0,1,65,61.61Z"/><path class="vi_cls-4" d="M62.9,57.39c.06-.06,3.34-1.45,3.46-2.64Z"/><path class="vi_cls-3" d="M62.9,57.89a.5.5,0,0,1-.35-.86l0,0,3.46-2.64a.5.5,0,0,1,.8.45c-.09.9-1.19,1.81-3.54,2.94l-.16.08A.5.5,0,0,1,62.9,57.89Z"/><path class="vi_cls-2" d="M55.66,53.18s7.93,1.7,9.31-.13Z"/><path class="vi_cls-3" d="M61.74,54.4h0a35,35,0,0,1-6.19-.73.5.5,0,0,1,.1-1L65,52.55h0a.5.5,0,0,1,.4.8C64.84,54.06,63.65,54.4,61.74,54.4Z"/><path class="vi_cls-2" d="M49.06,49.4c.31,0,11.89,1.26,13-.19Z"/><path class="vi_cls-3" d="M57.71,50.41h0c-3,0-6.74-.34-8.14-.46l-.52,0a.51.51,0,0,1-.48-.51A.5.5,0,0,1,49,48.9l13-.19a.58.58,0,0,1,.45.27.5.5,0,0,1,0,.53C62.09,50,61.27,50.41,57.71,50.41Z"/><path class="vi_cls-2" d="M41.38,44.18c.19-.06,13.71,2.52,17.55.57Z"/><path class="vi_cls-3" d="M54,46h0a84.05,84.05,0,0,1-11.72-1.16l-.94-.14a.51.51,0,0,1-.48-.5v0a.49.49,0,0,1,.49-.48c.1,0,.28,0,1.08.15A83.23,83.23,0,0,0,54,45a.5.5,0,0,1,0,1Z"/><path class="vi_cls-2" d="M34.9,37.2c.31,0,18,4.28,20.64,3Z"/><path class="vi_cls-3" d="M53.75,40.91h0c-4.35,0-14-2.13-17.6-2.93l-1.27-.28h0a.5.5,0,0,1,.07-1H35l20.58,3a.5.5,0,0,1,.15.94A4.77,4.77,0,0,1,53.75,40.91Z"/><path class="vi_cls-2" d="M28.17,31c.13,0,21.07,4.91,23.72,2.89Z"/><path class="vi_cls-3" d="M49.14,34.91h0c-3.76,0-10.86-1.13-20.53-3.27l-.51-.11a.5.5,0,0,1,.07-1h.07l23.71,2.89a.5.5,0,0,1,.24.89A5.3,5.3,0,0,1,49.14,34.91ZM42.5,33.28c1.62.24,2.95.4,4,.49Z"/><path class="vi_cls-2" d="M25.46,25.06c.06,0,20.07,6.54,21.77,4.91Z"/><path class="vi_cls-3" d="M46,30.73h0c-3.76,0-14.32-3.17-20.28-5.05l-.42-.13a.5.5,0,0,1,.23-1h0l21.76,4.91a.5.5,0,0,1,.24.85A2.18,2.18,0,0,1,46,30.73Z"/><path class="vi_cls-2" d="M131.61,49.48s4.15,4.47,6.23,1.13-2.89-4.28-3-4.34-2.89-.95-3.14-6.17,6.23-8.62,8.05-9.06a50.51,50.51,0,0,1,7.17-.44s19.57-4.72,21.58-6.17,20.51-4.84,20.51-4.84,3-.38,2.71,2.26a3.22,3.22,0,0,1-2.71,3s2.08,1.63,1.82,3.08a4.42,4.42,0,0,1-5.1,3.4c.38,5.16-6.79,6-6.79,6s-.76,7.42-7.36,7c-1.57,5.1-7.49,5.29-7.49,5.29s-2.77,3.46-6.8,3.71C155,59.11,150,57.48,150,57.48s.38,3.65-2,3.65c1.2,4.15-3.27,4.72-5,3.9-.44.88-2,3.59-5.41,1.89a4.53,4.53,0,0,1-5.47,1.63s-.75,2.45-3.71,1.51S131.68,49.61,131.61,49.48Z"/><path class="vi_cls-3" d="M129.73,70.78a4.69,4.69,0,0,1-1.42-.24c-1.47-.47-2.33-3.21,2.48-19.95.18-.61.29-1,.32-1.15a.5.5,0,0,1,.86-.29s2.08,2.21,3.84,2.21a1.83,1.83,0,0,0,1.6-1,1.93,1.93,0,0,0,.34-1.75c-.2-.52-.86-1.25-2.86-1.8a1.06,1.06,0,0,1-.28-.1c-1-.46-3.16-2-3.38-6.57-.27-5.59,6.57-9.12,8.43-9.57a48.54,48.54,0,0,1,7.23-.46c5.46-1.32,19.77-4.94,21.35-6.07,2-1.47,18.81-4.58,20.71-4.93a3.5,3.5,0,0,1,.46,0,3.1,3.1,0,0,1,2.27.84,2.49,2.49,0,0,1,.56,2A3.68,3.68,0,0,1,190,25,3.75,3.75,0,0,1,191.37,28a4.9,4.9,0,0,1-5.08,3.85c-.11,3.84-4.29,5.49-6.87,5.88-.28,1.55-1.66,7.12-7.32,7.12H172c-1.62,4.46-6.48,5.15-7.6,5.26a11.06,11.06,0,0,1-6.7,3.7c-1.66,3.81-4.52,4.39-6.1,4.39a6.82,6.82,0,0,1-1.08-.09,4.48,4.48,0,0,1-.85,2.82,2.06,2.06,0,0,1-1,.62,3.47,3.47,0,0,1-.53,2.84,4.23,4.23,0,0,1-3.41,1.46,4.85,4.85,0,0,1-1.41-.2A4,4,0,0,1,139.75,68a5,5,0,0,1-1.93-.42A4.66,4.66,0,0,1,134,69.39a5.9,5.9,0,0,1-1.58-.22A3,3,0,0,1,129.73,70.78Zm2.14-20.35-.12.43c-4.81,16.76-3.61,18.57-3.13,18.72a3.69,3.69,0,0,0,1.11.19,2.07,2.07,0,0,0,2-1.37.5.5,0,0,1,.27-.31.51.51,0,0,1,.41,0,4.77,4.77,0,0,0,1.66.3,3.69,3.69,0,0,0,3.2-1.75.5.5,0,0,1,.64-.17c2.08,1,3.68.46,4.74-1.66a.5.5,0,0,1,.66-.23,3.43,3.43,0,0,0,1.42.27,3.24,3.24,0,0,0,2.61-1.06,2.77,2.77,0,0,0,.24-2.52.5.5,0,0,1,.48-.64,1.12,1.12,0,0,0,.88-.37,4.21,4.21,0,0,0,.57-2.73.5.5,0,0,1,.65-.53,5.31,5.31,0,0,0,1.45.19c1.67,0,3.95-.7,5.29-4.05a.5.5,0,0,1,.43-.31c3.75-.23,6.41-3.49,6.44-3.52a.5.5,0,0,1,.37-.19c.23,0,5.58-.24,7-4.93a.48.48,0,0,1,.51-.35c6.08.36,6.81-6.32,6.84-6.6a.5.5,0,0,1,.44-.45c.27,0,6.69-.83,6.35-5.44a.5.5,0,0,1,.15-.4.52.52,0,0,1,.4-.14,3.92,3.92,0,0,0,4.55-3c.16-.94-1.16-2.23-1.64-2.6a.5.5,0,0,1,.25-.89,2.71,2.71,0,0,0,2.27-2.51,1.54,1.54,0,0,0-.3-1.22,2.42,2.42,0,0,0-1.84-.5c-7.36,1.35-18.87,3.74-20.28,4.75-2,1.46-19.74,5.76-21.75,6.25H147a50.44,50.44,0,0,0-7.05.43c-1.63.39-7.91,3.65-7.67,8.55.2,4.08,2,5.35,2.79,5.71l0,0,.08,0c1.92.53,3.11,1.33,3.52,2.4a2.89,2.89,0,0,1-.42,2.65,2.83,2.83,0,0,1-2.45,1.47A6.76,6.76,0,0,1,131.88,50.43Z"/><path class="vi_cls-4" d="M132.12,68.61s-.19-3.21.56-3.84Z"/><path class="vi_cls-3" d="M132.12,69.11h0a.5.5,0,0,1-.48-.47c0-.81-.14-3.52.74-4.25a.5.5,0,0,1,.81.46l-.56,3.84A.5.5,0,0,1,132.12,69.11Z"/><path class="vi_cls-4" d="M137.84,66.85c-.06-.06-1.51-3-1-3.46Z"/><path class="vi_cls-3" d="M137.84,67.35a.5.5,0,0,1-.35-.14,9.55,9.55,0,0,1-1.26-3.45,1,1,0,0,1,.25-.72.5.5,0,0,1,.48-.13.5.5,0,0,1,.36.34l1,3.33a.5.5,0,0,1-.42.77Z"/><path class="vi_cls-4" d="M143.13,65l-3.9-3.84Z"/><path class="vi_cls-3" d="M143.13,65.53a.5.5,0,0,1-.35-.14l-3.9-3.84a.5.5,0,1,1,.7-.71l3.9,3.84a.5.5,0,0,1-.35.86Z"/><path class="vi_cls-2" d="M148,61.25c-.06-.06-5.91-3.71-5.91-3.71Z"/><path class="vi_cls-3" d="M148,61.75a.5.5,0,0,1-.27-.08L141.86,58a.5.5,0,0,1,.53-.85c4.31,2.69,5.5,3.44,5.85,3.67l.07,0h0l.09.07a.5.5,0,0,1-.35.85Z"/><path class="vi_cls-4" d="M150.11,57.54c-.06-.06-3.33-1.45-3.46-2.64Z"/><path class="vi_cls-3" d="M150.11,58a.5.5,0,0,1-.27-.08l-.16-.08c-2.34-1.13-3.43-2-3.53-2.93a.5.5,0,0,1,.8-.45l3.46,2.64h0l.06,0a.5.5,0,0,1-.36.85Z"/><path class="vi_cls-2" d="M157.35,53.32S149.42,55,148,53.2Z"/><path class="vi_cls-3" d="M151.26,54.54c-1.91,0-3.09-.34-3.63-1a.5.5,0,0,1,0-.53.56.56,0,0,1,.45-.27l9.31.13a.5.5,0,0,1,.1,1A35,35,0,0,1,151.26,54.54Z"/><path class="vi_cls-2" d="M164,49.55c-.31,0-11.89,1.26-13-.19Z"/><path class="vi_cls-3" d="M155.3,50.55c-3.57,0-4.38-.45-4.71-.9a.5.5,0,0,1,0-.53.47.47,0,0,1,.45-.27L164,49a.5.5,0,0,1,0,1l-.51,0C162,50.22,158.34,50.55,155.3,50.55Z"/><path class="vi_cls-2" d="M171.63,44.33c-.19-.06-13.71,2.52-17.55.57Z"/><path class="vi_cls-3" d="M159,46.12a.5.5,0,0,1,0-1A83.25,83.25,0,0,0,170.54,44c.8-.12,1-.15,1.08-.15a.5.5,0,0,1,0,1l-.93.14A84.06,84.06,0,0,1,159,46.12Z"/><path class="vi_cls-2" d="M178.11,37.34c-.31,0-18,4.28-20.64,3Z"/><path class="vi_cls-3" d="M159.26,41.05a4.78,4.78,0,0,1-2-.31.5.5,0,0,1,.15-.94l20.64-3h.07a.5.5,0,0,1,.07,1h0l-1.28.28C173.24,38.92,163.61,41.05,159.26,41.05Z"/><path class="vi_cls-2" d="M184.84,31.18c-.13,0-21.08,4.91-23.72,2.89Z"/><path class="vi_cls-3" d="M163.87,35.06a5.31,5.31,0,0,1-3.05-.59.5.5,0,0,1,.24-.89l23.71-2.89h0a.49.49,0,0,1,.56.47.5.5,0,0,1-.43.53l-.52.11C174.73,33.92,167.63,35.06,163.87,35.06Zm6.63-1.63-4,.49C167.56,33.82,168.88,33.67,170.5,33.43Z"/><path class="vi_cls-2" d="M187.55,25.2c-.06,0-20.07,6.54-21.77,4.91Z"/><path class="vi_cls-3" d="M167,30.87a2.18,2.18,0,0,1-1.54-.4.5.5,0,0,1,.24-.85l21.76-4.91h0a.5.5,0,0,1,.23,1l-.41.13C181.29,27.7,170.73,30.87,167,30.87Z"/><path class="vi_cls-5" d="M155.65,57.11s-1.23,17.58-1.29,17.54-2.56-3.07-2.56-3.07l-7.73,24.25,1.81,5.29-4.51,14.77-3.71-4.71-6,2.41L136.47,98l4.45-3.2,8-23.89-4.45.56Z"/><path class="vi_cls-3" d="M141.67,117.46l-4.25-5.39-6.93,2.79,5.35-17.28,4.46-3.21,7.56-22.54-5,.63,13.76-17.74-.17,2.44s-.31,4.39-.62,8.77c-.16,2.19-.32,4.39-.44,6-.26,3.41-.26,3.41-.94,3.43h-.24l-.2-.13a18.74,18.74,0,0,1-1.86-2.17l-7.25,22.72,1.81,5.29Zm-3.77-7.18,3.18,4,4-13.18-1.81-5.3,8.22-25.78.87,1,1.41,1.7c.22-2.8.62-8.48,1-13.31l-8.57,11.05,3.84-.48L141.55,95.3l-4.44,3.19-4.28,13.82Z"/><path class="vi_cls-5" d="M172.75,64.36s-9.36,14.94-9.39,14.87-.82-3.92-.82-3.92L147.17,89.58l-16.41,15.84,0-3.26-5.62-.69,7.43-5.69,3.81-.63,24-21.74-4.19-1.6Z"/><path class="vi_cls-3" d="M130,107.14l-.06-4.33L123.2,102l9-6.9,3.77-.62,22.93-20.78-4.73-1.81,20.49-9.18-1.29,2.07C163.85,80,163.85,80,163.37,80h-.45l-.21-.4a19,19,0,0,1-.63-2.83l-14.4,13.36ZM127,100.95l4.46.55,0,2.2L146.65,89,163,73.88l.26,1.29.45,2.16c1.5-2.37,4.54-7.19,7.11-11.29l-12.77,5.72,3.64,1.39-25,22.69-3.84.63Z"/><path class="vi_cls-3" d="M131.26,102.7l-1.18-.9a.83.83,0,0,1,.19-.24h0l.06-.05c.52-.51,2.26-2.05,8.48-7.37l1,1.15Z"/><path class="vi_cls-5" d="M167.75,51.73s-4.57,17-4.62,17-1.93-3.51-1.93-3.51L142.65,97l.76,5.54-6.66,12.19L134,109.44l-6.35,1.22,7.11-12.9,5-2.29L158.5,64l-4.47-.3Z"/><path class="vi_cls-3" d="M136.74,116.36l-3.13-6.09-7.36,1.42,8-14.5,5-2.29,18-30.21-5-.34,16.9-14.77-.63,2.36s-1.14,4.24-2.29,8.49c-2.44,9-2.44,9-3,9h-.32l-.22-.23a21.49,21.49,0,0,1-1.42-2.51L143.42,97.2l.76,5.53Zm-2.32-7.75,2.36,4.58,5.87-10.75-.76-5.55.13-.22,19.21-33,.63,1.16,1.06,1.94c.75-2.7,2.23-8.2,3.49-12.88L155.87,63.1l3.89.26L140.28,96l-5,2.28-6.23,11.3Z"/><path class="vi_cls-3" d="M133.38,112v-2.81a.72.72,0,0,1,.11-.36h0l.15-.26c.49-.93,1.93-3.47,6.26-11l1.29.73Z"/><polygon class="vi_cls-5" points="8.22 48.53 19.4 48.58 18.28 51.27 23.16 70.58 29.05 51.32 26.97 48.53 38.6 48.53 36.12 51.22 26.51 78.81 29 82.41 17.83 82.41 20.32 78.81 10.92 51.32 8.22 48.53"/><path class="vi_cls-3" d="M30.42,83.16h-14l3.08-4.46-9.22-27-3.8-3.94,14,.07-1.45,3.48,4.17,16.49,5-16.36-2.74-3.68H40.3l-3.54,3.82L27.34,78.7ZM19.24,81.67h8.35l-1.9-2.75,9.78-28.09,1.44-1.56H28.45l1.42,1.91L23.09,73.34,17.5,51.21l.79-1.9-8.31,0,1.59,1.65,9.57,28Z"/><polygon class="vi_cls-5" points="179.69 49.19 190.31 49.19 188.58 51.58 188.53 79.67 190.92 82.31 179.69 82.31 181.92 79.47 181.88 51.63 179.69 49.19"/><path class="vi_cls-3" d="M192.59,83.05H178.16l3-3.84,0-27.3L178,48.45h13.73l-2.44,3.37,0,27.57Zm-11.37-1.48h8L187.79,80v-.29l.05-28.33,1-1.41h-7.51l1.27,1.41,0,28.38Z"/><path class="vi_cls-6" d="M80.85,107.08l3.81-3.16s-.84-1.74-3.87-1.68A94.39,94.39,0,0,1,73,95.53l-2.45-6.65A3.79,3.79,0,0,0,73,86.69a6.08,6.08,0,0,0-.32-3.81A3.78,3.78,0,0,0,69.95,84c-.58.84-1.48,4.06-2.84,3s.19-2.32.19-2.32,1.36-1.68,1.29-2.58a11.25,11.25,0,0,0-2-3.68c-.19-.06-.58,3.55-1.1,3.94s-1.22,2-2.26,1.1.52-2.26.52-2.26,2.9-1.55.06-6.64a10.11,10.11,0,0,1-2.45,3.61s-.77,1.36-1.48.2.84-2.26.84-2.26,2.52-1.48,2.58-3.68-3-4.71-3-4.71-.2,4.06-1.16,4.58-1.35,1.36-2.45.45.84-2.9.84-2.9,3.35-3.36,3.16-5.29a7.72,7.72,0,0,0-.39-2.26s-2.52,1.55-2.84,2.32-1.36,3.55-2.65,2.71c-.9-1,.78-3,.78-3s1.22-1.36,1.16-1.94a9.27,9.27,0,0,0-2.9-4,12.43,12.43,0,0,1-.39-2.58S52,57.46,52.08,58.37s-.13,2.71.06,4.71-1.55-.65-1.55-.65L50.92,56a15.22,15.22,0,0,0-5.42-4.06,5.74,5.74,0,0,1,1,3.16,17.16,17.16,0,0,0-1.23,3.35c0,.71,1.42,3.81,4.07,5.87-4-4.32-9-2.9-10.45-3.74.71.84,2.84,4,2.58,4.84S45.3,68,45.3,68l4.32.06s2.13,1.48,2.32,2.45-3.1-1.81-4.39-1.74a38.43,38.43,0,0,1-4.71-.45s2.06,1.94,2.13,2.78a4.74,4.74,0,0,0,2.19,3.29,20.92,20.92,0,0,0,4.52.71s1.42-.84,1.68.06-1.87,1.61-1.87,1.61-2.19,0-2.9-.58-.84-1.55-4-1.94c-.32,2.65,1.74,5.35,1.74,5.35S55,78.88,55,80.75s-7.22.19-7.48-.39.32,3.68,2,4.58,5.42.45,5.87.26,2.13-.39,2.13.58S49,87.53,48.85,87.27s1.29,3.29,4.71,3.1a10.17,10.17,0,0,0,4.9-1.23s2.06-.39,2.26.45-2.06,1.22-2.06,1.22-5.42.13-5.61-.13a5.4,5.4,0,0,0,5,3.35c2.84-.26,3-1.48,3.61-1.68a11.92,11.92,0,0,1,2.9-.13c.26.06,4.77,3.23,4.77,3.23Z"/><path class="vi_cls-3" d="M80.85,107.82a.74.74,0,0,1-.53-.22L68.89,96c-1.64-1.15-4-2.78-4.52-3.08h-.55a11.62,11.62,0,0,0-1.88.13l-.18.17a5,5,0,0,1-3.61,1.54H58a5.94,5.94,0,0,1-4.32-1.84A6.24,6.24,0,0,1,52.36,91a5.44,5.44,0,0,1-3-1.69,5,5,0,0,1-1.27-2.08.76.76,0,0,1,1-.68h.17a35,35,0,0,0,4.15-.37l-.87,0a7.47,7.47,0,0,1-3.44-.63c-1.75-.94-2.46-4.37-2.44-5.29l-.31,0a.73.73,0,0,1-.65-.29c-.09-.12-2.24-3-1.89-5.89a.74.74,0,0,1,.83-.65l.55.08a5.8,5.8,0,0,1-1-2.45,8.62,8.62,0,0,0-1.9-2.29.74.74,0,0,1,.41-1.28c-2.3-1.31-2.07-2.06-2-2.38,0-.55-1.58-3.13-2.44-4.14a.74.74,0,0,1,.93-1.12,5.94,5.94,0,0,0,1.84.27,16.46,16.46,0,0,1,4.4.74,6.28,6.28,0,0,1-1-2.49,13.63,13.63,0,0,1,1.22-3.51,5.21,5.21,0,0,0-.9-2.59.74.74,0,0,1,0-.87.75.75,0,0,1,.84-.24,15.85,15.85,0,0,1,5.73,4.29.75.75,0,0,1,.17.51l-.06,1.25a8.82,8.82,0,0,1,1.27-2,.74.74,0,0,1,1.31.43,14.43,14.43,0,0,0,.28,2.2c1.76,1.62,2.91,3.47,3,4.35s-.69,1.78-1.35,2.51a3.1,3.1,0,0,0-.84,1.92c.2,0,.65-.37,1.4-2.21l.07-.17c.37-.9,2.32-2.17,3.13-2.67a.75.75,0,0,1,.56-.09.74.74,0,0,1,.46.34,9.3,9.3,0,0,1,.49,2.57,4.63,4.63,0,0,1-.77,2.58l.11.08c.35.28,3.38,2.82,3.3,5.31a3.88,3.88,0,0,1-.3,1.37h.07a.74.74,0,0,1,.65.38,9.27,9.27,0,0,1,1.34,4.17c.15-.48.35-.67.78-.67a.8.8,0,0,1,.24,0c.68.23,2.44,3.41,2.51,4.33.08,1.11-1.09,2.65-1.45,3.1l-.12.12a1.3,1.3,0,0,0-.47.74.61.61,0,0,0,.28.42.32.32,0,0,0,.1.06c.31-.09.9-1.35,1.12-1.83a7.6,7.6,0,0,1,.55-1,4.74,4.74,0,0,1,3.2-1.52,1,1,0,0,1,.71.26,6.37,6.37,0,0,1,.51,4.53,4,4,0,0,1-2.22,2.41l2.14,5.81A94.67,94.67,0,0,0,81,101.5c3.27,0,4.26,2,4.3,2.1a.74.74,0,0,1-.19.89l-3.81,3.16A.74.74,0,0,1,80.85,107.82Zm-17-16.36a4,4,0,0,1,1,.06c.16,0,.39.1,5,3.34l.1.09,11,11.13,2.72-2.26A3.89,3.89,0,0,0,81,103H80.8a.58.58,0,0,1-.44-.13,93.77,93.77,0,0,1-7.83-6.78.75.75,0,0,1-.18-.28L69.9,89.14a.74.74,0,0,1,.49-1s1.61-.49,1.94-1.68a5.85,5.85,0,0,0-.1-2.86,3.41,3.41,0,0,0-1.67.84,7.41,7.41,0,0,0-.42.83c-.56,1.2-1.25,2.68-2.48,2.68a1.6,1.6,0,0,1-1-.39A2,2,0,0,1,65.81,86a2.65,2.65,0,0,1,1-1.83,5,5,0,0,0,1.08-2,7.56,7.56,0,0,0-.93-2c-.32,1.64-.53,2.42-1,2.76a3.38,3.38,0,0,0-.3.34,2.45,2.45,0,0,1-1.79,1.17A1.67,1.67,0,0,1,62.75,84a1.69,1.69,0,0,1-.61-1.29,3.17,3.17,0,0,1,1.12-2.08l.14-.1c.07,0,1.72-1,.41-4.29a11,11,0,0,1-1.87,2.39,1.86,1.86,0,0,1-1.43.93,1.47,1.47,0,0,1-1.27-.82c-.85-1.39.31-2.73,1-3.25.07,0,2.22-1.34,2.27-3.09,0-1-.85-2.2-1.68-3.09-.18,1.52-.58,3.18-1.42,3.63a4.43,4.43,0,0,0-.55.36,2.33,2.33,0,0,1-1.38.58,2.12,2.12,0,0,1-1.35-.57,1.63,1.63,0,0,1-.6-1.19A4.55,4.55,0,0,1,57,69.33c1.3-1.3,3.06-3.61,3-4.7,0-.47-.09-.84-.14-1.13a7.15,7.15,0,0,0-1.67,1.41l-.06.16c-.42,1-1.3,3.16-2.78,3.16h0a1.61,1.61,0,0,1-.89-.28.72.72,0,0,1-.15-.13c-1.29-1.47.55-3.74.77-4a5.19,5.19,0,0,0,1-1.44,9.77,9.77,0,0,0-2.66-3.47.74.74,0,0,1-.17-.22,3.34,3.34,0,0,1-.23-.79,1,1,0,0,0-.11.4c0,.37,0,.86,0,1.43A25.84,25.84,0,0,0,52.88,63a1.63,1.63,0,0,1-.27,1.27.9.9,0,0,1-.67.3c-.25,0-.83,0-2-1.73a.74.74,0,0,1-.12-.45l.31-6.15a16.67,16.67,0,0,0-3.11-2.7,5.61,5.61,0,0,1,.22,1.57.74.74,0,0,1-.07.28,16.24,16.24,0,0,0-1.16,3,10.45,10.45,0,0,0,2.51,4.12,11.17,11.17,0,0,1,1.36,1.25.74.74,0,0,1-1,1.09,12.45,12.45,0,0,1-1.36-1.23,11.32,11.32,0,0,0-6.54-2l-.42,0c.8,1.2,1.73,2.81,1.64,3.76a12.78,12.78,0,0,0,3.22,1.84l4.17.06a.73.73,0,0,1,.41.13c.56.39,2.39,1.75,2.63,2.92a.91.91,0,0,1-.17.78.86.86,0,0,1-.68.31h0a4.52,4.52,0,0,1-1.91-.85,8.22,8.22,0,0,0-2.3-1.09,19.46,19.46,0,0,1-2.79-.18,3.69,3.69,0,0,1,.9,1.71,4.11,4.11,0,0,0,1.74,2.66,18.37,18.37,0,0,0,4.07.64A3,3,0,0,1,52.78,74a1.28,1.28,0,0,1,1.3,1c.43,1.51-1.88,2.36-2.35,2.52a.76.76,0,0,1-.23,0c-.58,0-2.52-.05-3.37-.75a4.27,4.27,0,0,1-.48-.48,3.41,3.41,0,0,0-2.33-1.17,8.31,8.31,0,0,0,1.39,3.72c.61,0,1.79-.1,3.09-.1,4,0,5.09.61,5.53,1.07a1.34,1.34,0,0,1,.39,1c0,.72-.51,1.58-2.71,1.58a18.48,18.48,0,0,1-4.62-.76c.27,1,.79,2.34,1.45,2.7a6.32,6.32,0,0,0,2.74.46,11.62,11.62,0,0,0,2.5-.23,3.51,3.51,0,0,1,1.24-.21c1.4,0,1.9.76,1.9,1.48,0,1.65-5.78,2.12-8,2.24a4,4,0,0,0,3.32,1.6A9.82,9.82,0,0,0,58,88.53a.76.76,0,0,1,.28-.12,6.91,6.91,0,0,1,1.13-.1c1.43,0,1.87.61,2,1.12a1.2,1.2,0,0,1-.18.94,4.19,4.19,0,0,1-2.48,1.18h-.11s-1.37,0-2.77,0l-1.48,0A4.5,4.5,0,0,0,58,93.3a3.61,3.61,0,0,0,2.72-1.09,1.9,1.9,0,0,1,.76-.55A11.68,11.68,0,0,1,63.81,91.46Zm-5.08-1.61c-.1.06-.25.14-.46.23h.31a5.69,5.69,0,0,0,1-.28A5.77,5.77,0,0,0,58.73,89.85Zm5.47-8a1.79,1.79,0,0,0-.57.93s0,.09.1.18a.36.36,0,0,0,.13.09c.14,0,.48-.44.63-.62a3.89,3.89,0,0,1,.5-.55,6.82,6.82,0,0,0,.37-1.33A3.36,3.36,0,0,1,64.2,81.8ZM48.93,80.21a16.13,16.13,0,0,0,4.09.66,3.23,3.23,0,0,0,1.11-.14c-.32-.17-1.35-.53-4.33-.53ZM61.1,76.75s-.91.7-.58,1.23l0,.06a2.51,2.51,0,0,0,.17-.24.8.8,0,0,1,.15-.18,9.37,9.37,0,0,0,1.55-1.91,7.64,7.64,0,0,1-1.32,1ZM49,75.55l.06,0a5.49,5.49,0,0,0,2.31.41,5.05,5.05,0,0,0,.5-.22.65.65,0,0,1-.23,0C51.44,75.8,50.22,75.73,49,75.55Zm10.44-6.77A19.84,19.84,0,0,1,58,70.37a3.34,3.34,0,0,0-1,1.68.15.15,0,0,0,.07.13c.27.22.38.23.41.23a1.58,1.58,0,0,0,.51-.3,6,6,0,0,1,.72-.46A7.4,7.4,0,0,0,59.44,68.78Z"/><path class="vi_cls-3" d="M50.53,64.91a.75.75,0,0,1-.38-.11c-3.42-2.07-3.33-8.44-3.33-8.71a.74.74,0,0,1,1.44-.24l3,8.06a.74.74,0,0,1-.7,1Z"/><path class="vi_cls-3" d="M52.66,66.08a.74.74,0,0,1-.71-1l1.42-4.32a.74.74,0,0,1,.61-.5.75.75,0,0,1,.72.33A4.3,4.3,0,0,1,55.26,64,3.45,3.45,0,0,1,52.89,66,.75.75,0,0,1,52.66,66.08Z"/><path class="vi_cls-3" d="M48.73,67.19h0c-2.38,0-4.11-.57-5.15-1.68a3.38,3.38,0,0,1-1-2.42.74.74,0,0,1,1.1-.6l6,3.29a.74.74,0,0,1-.33,1.39Z"/><path class="vi_cls-3" d="M55.49,69.37h-.23A.74.74,0,0,1,54.89,68l3.55-2.39a.74.74,0,0,1,1.1.9A4.64,4.64,0,0,1,55.49,69.37Z"/><path class="vi_cls-3" d="M58.43,76.34h-.1a.74.74,0,0,1-.57-1.19l2.84-3.68a.74.74,0,0,1,1.33.45A4.44,4.44,0,0,1,61,75.36,3.35,3.35,0,0,1,58.43,76.34Z"/><path class="vi_cls-3" d="M51.22,73.63h0c-2.1,0-5.77-2.25-6.18-2.51a.74.74,0,0,1,.67-1.32l6,2.39a.74.74,0,0,1-.2,1.43Z"/><path class="vi_cls-3" d="M50.7,79.13h0a7,7,0,0,1-4.9-1.86A.74.74,0,0,1,46.54,76L52,77.59A.74.74,0,0,1,51.93,79,8.7,8.7,0,0,1,50.7,79.13Z"/><path class="vi_cls-3" d="M61.3,81.43a.74.74,0,0,1-.57-1.21l2.06-2.52a.74.74,0,0,1,1.32.47c0,.57-.83,2.91-2.67,3.25Z"/><path class="vi_cls-3" d="M52.89,84.73h0A4.93,4.93,0,0,1,49,83.21.74.74,0,0,1,49.68,82l5.61.9a.74.74,0,0,1,.08,1.45A9.57,9.57,0,0,1,52.89,84.73Z"/><path class="vi_cls-3" d="M64.92,85.88a.74.74,0,0,1-.6-1.18l2.32-3.22a.74.74,0,0,1,1.33.58c-.08.38-.82,3.73-3,3.82Z"/><path class="vi_cls-3" d="M67.26,89.36a4.58,4.58,0,0,1-.8-.07.74.74,0,0,1-.3-1.34l4.58-3.23a.74.74,0,0,1,1.13.84C71.83,85.73,70.55,89.36,67.26,89.36Z"/><path class="vi_cls-3" d="M57.64,93.3h0a3.18,3.18,0,0,1-2.13-.64A.74.74,0,0,1,56,91.37l4.45-.26a.71.71,0,0,1,.76.56.74.74,0,0,1-.42.85A7.74,7.74,0,0,1,57.64,93.3Z"/><path class="vi_cls-3" d="M54.38,89.42h0a4.71,4.71,0,0,1-2-.43.71.71,0,0,1-.69-.7.78.78,0,0,1,.7-.79l5.74-.71a.74.74,0,0,1,.44,1.39A9.08,9.08,0,0,1,54.38,89.42Z"/><path class="vi_cls-2" d="M128.2,70.63s2.53,2.43,2.58,2.94.66,2.89,1.32,3.24,3.24,2.43,3.6,3.24,2.64,4.26,2.64,4.26,2.13,4.36,3.55,4.71,5.42-.25,6.23,1.67a12.26,12.26,0,0,1,.61,4.71s-1,.86-1.42.36-1.27,2.53-2.69,1.67c-1.93-4.11-7-3.44-7-3.44s1.11-1.73-3.4-3.25c-7,1.22-9.12-6.13-9.12-6.13l-4-3.48Z"/><path class="vi_cls-3" d="M145.13,98.34a1.7,1.7,0,0,1-.89-.26L144,98l-.1-.2c-1.25-2.66-4-3.06-5.52-3.06a6.22,6.22,0,0,0-.7,0l-1.58.2.86-1.34h0a.55.55,0,0,0,0-.32c-.12-.28-.63-1-2.79-1.76a9.62,9.62,0,0,1-1.47.12c-5.65,0-7.83-5.41-8.23-6.58l-4.35-3.77,8-11.78.63.61c2.73,2.62,2.78,3.16,2.81,3.4a7.44,7.44,0,0,0,1,2.68c.6.32,3.42,2.49,3.9,3.58.24.55,1.67,2.78,2.58,4.14,1,2,2.46,4.24,3.11,4.4a9.63,9.63,0,0,0,1.56.13c1.86.07,4.41.16,5.18,2a12.89,12.89,0,0,1,.66,5.05l0,.3-.22.2c-.15.14-1.13.88-1.91.65l-.1.14c-.43.63-1.08,1.58-2.09,1.58Zm-6.65-5.12c1.5,0,5,.39,6.68,3.63.24,0,.65-.66.83-.93.35-.51.65-1,1.2-1a.88.88,0,0,1,.55.2A1.47,1.47,0,0,0,148,95a10.88,10.88,0,0,0-.57-4c-.4-.94-2.4-1-3.87-1.07a9.94,9.94,0,0,1-1.86-.17c-1.63-.41-3.5-4-4-5.11-.19-.27-2.28-3.44-2.65-4.28a14.94,14.94,0,0,0-3.27-2.89c-1-.56-1.58-3.17-1.68-3.72a15.4,15.4,0,0,0-1.75-2L122.08,81l3.68,3.19.06.21c.07.23,1.7,5.73,6.88,5.73a8.3,8.3,0,0,0,1.4-.12l.18,0,.18.06c2.21.74,3.52,1.68,3.91,2.78A2.09,2.09,0,0,1,138.47,93.21Z"/><path class="vi_cls-2" d="M84.54,71.29S82,73.72,82,74.23a6.54,6.54,0,0,1-1.74,2.93,14.22,14.22,0,0,0-3.28,3.45C76.58,81.42,74.4,85,74.4,85s-2.5,3.62-3.91,4c-1.73.14-5.06.48-5.87,2.41s.44,4.87,1.39,4.87c1.42.63,2.07,1.28,2.52.77.77.23.33.89,1.75,0-1.08-1.38-1-2.72.12-3.07s2.83,1.27,2.83,1.27.64-3,5.15-4.51c7,1.22,8.94-4.47,9.43-5.82C88.92,83.4,90.65,83,92.07,82Z"/><path class="vi_cls-3" d="M69.31,98.2a1.1,1.1,0,0,1-.78-.33,2.45,2.45,0,0,1-1.81-.46c-.26-.14-.55-.3-.9-.45a2,2,0,0,1-1.27-1,5.72,5.72,0,0,1-.6-4.91c1-2.37,4.74-2.71,6.41-2.85.73-.24,2.34-2.07,3.44-3.66.58-.94,2.19-3.61,2.46-4.24a14.47,14.47,0,0,1,3.61-3.81,6.73,6.73,0,0,0,1.35-2.36c0-.22.08-.77,2.81-3.39l.62-.6,8.46,12.07-.63.42a14.62,14.62,0,0,1-1.57.88,6.72,6.72,0,0,0-2.45,1.74c-1.57,4.26-4.32,6.38-8.21,6.38h0a11.72,11.72,0,0,1-1.82-.15C74.54,92.88,74,95.37,74,95.39l-.27,1.28-1-.89a4.16,4.16,0,0,0-2-1.13h-.11a.45.45,0,0,0-.34.31,2,2,0,0,0,.57,1.6l.51.66-.71.43A2.72,2.72,0,0,1,69.31,98.2ZM82.67,74.4c-.15.77-1.21,2.93-2.11,3.41a14.42,14.42,0,0,0-3,3.1c-.36.83-2.35,4.08-2.58,4.45-.47.68-2.76,3.91-4.37,4.31l-.12,0c-1.25.1-4.58.38-5.24,2a4.09,4.09,0,0,0,.78,3.85h.16l.07.05c.43.19.8.38,1.11.55a6.74,6.74,0,0,0,.65.32l.23-.25.45.12a1.83,1.83,0,0,1,.31.12,2.74,2.74,0,0,1-.17-1.87,1.92,1.92,0,0,1,1.29-1.28,1.79,1.79,0,0,1,.58-.09,4.12,4.12,0,0,1,2.18.87,8.76,8.76,0,0,1,5.22-4l.18-.06.18,0a10.46,10.46,0,0,0,1.76.16c4.86,0,6.33-4.07,6.82-5.41l.13-.28a7.74,7.74,0,0,1,3-2.26l.76-.4-6.58-9.38A15.58,15.58,0,0,0,82.67,74.4Z"/><path class="vi_cls-7" d="M88.57,99.56"/><path class="vi_cls-3" d="M106.38,93.29l-.31-.14c-19.86-9.07-30.3-31-24.28-51.08l.26-.88.8.44c.06,0,6.68,3.68,11.3,3.46S106,41.83,106.09,41.8l.34-.14.32.18c.06,0,6.35,3.54,11.35,3.06s12.33-3.28,12.4-3.31l.82-.32.17.87c4.38,21.88-5.35,41.9-24.8,51ZM83,43.36c-5.23,19,4.71,39.58,23.41,48.3C124.72,82.9,134,64,130.2,43.28a56,56,0,0,1-12,3.09c-4.83.46-10.49-2.32-11.9-3.07-1.51.63-7.71,3.09-12.12,3.27C90.17,46.74,85,44.36,83,43.36Z"/><path class="vi_cls-8" d="M82.5,42.28S89.31,46,94.19,45.83s12.19-3.35,12.19-3.35,6.5,3.66,11.79,3.15,12.6-3.35,12.6-3.35c4.37,21.81-5.59,41.39-24.38,50.2C86.43,83.36,76.74,61.45,82.5,42.28Z"/><path class="vi_cls-3" d="M106.38,93l-.21-.1C86.42,83.91,76,62.07,82,42.13l.18-.59.54.3c.07,0,6.74,3.71,11.42,3.49s11.94-3.28,12-3.31l.23-.1.22.12c.06,0,6.41,3.59,11.49,3.09s12.39-3.29,12.46-3.32l.55-.22.12.58c4.36,21.77-5.32,41.69-24.66,50.75ZM82.81,43c-5.45,19.23,4.59,40.13,23.57,48.92,18.6-8.83,28-28,24-49a56.7,56.7,0,0,1-12.17,3.17c-4.89.46-10.66-2.45-11.86-3.09-1.3.54-7.66,3.11-12.15,3.3C90,46.49,84.55,43.9,82.81,43Z"/><path class="vi_cls-9" d="M82.5,42.28a38.29,38.29,0,0,0,4,1.85,20.36,20.36,0,0,0,7.67,1.7c4.88-.2,12.19-3.35,12.19-3.35s6.5,3.66,11.79,3.15,12.6-3.35,12.6-3.35c1.07,6.33,1.6,9.57.66,15.85l-50.29-.29C80.5,51.57,80.54,49,82.5,42.28Z"/><path class="vi_cls-3" d="M131.86,58.63l-51.17-.3,0-.45C80,51.36,80.07,48.82,82,42.14l.17-.6.55.3a38.36,38.36,0,0,0,4,1.83,19,19,0,0,0,7.47,1.67c4.73-.2,11.94-3.28,12-3.31l.23-.1.22.12c.06,0,6.41,3.59,11.49,3.09s12.39-3.29,12.46-3.32l.57-.22.1.61c1,6.2,1.62,9.61.66,16ZM81.59,57.34l49.4.29c.82-5.77.35-8.91-.62-14.67a56.74,56.74,0,0,1-12.16,3.17c-4.89.46-10.66-2.45-11.86-3.09-1.3.54-7.66,3.11-12.15,3.3a20.32,20.32,0,0,1-7.88-1.74C84.77,44,83.5,43.36,82.81,43,81.12,48.95,81,51.48,81.59,57.34Z"/><polygon class="vi_cls-10" points="84.3 58.08 84.26 69.97 87.58 75.9 87.55 58.08 84.3 58.08"/><polygon class="vi_cls-10" points="92.62 58.12 92.66 82.62 95.91 85.58 95.88 58.12 92.62 58.12"/><polygon class="vi_cls-10" points="100.79 58.21 100.79 89.43 104.07 91.21 104.04 58.21 100.79 58.21"/><polygon class="vi_cls-10" points="128.92 58.34 128.99 68.51 125.91 74.76 125.67 58.34 128.92 58.34"/><polygon class="vi_cls-10" points="120.86 58.27 120.75 81.89 117.57 84.89 117.61 58.27 120.86 58.27"/><polygon class="vi_cls-10" points="112.39 58.25 112.43 89.05 109.11 91.1 109.14 58.25 112.39 58.25"/><path class="vi_cls-3" d="M106.38,93.29l-.31-.14c-19.86-9.07-30.3-31-24.28-51.08l.26-.88.8.44c.06,0,6.68,3.68,11.3,3.46S106,41.83,106.09,41.8l.34-.14.32.18c.06,0,6.35,3.54,11.35,3.06s12.33-3.28,12.4-3.31l.82-.32.17.87c4.38,21.88-5.35,41.9-24.8,51ZM83,43.36c-5.23,19,4.71,39.58,23.41,48.3C124.72,82.9,134,64,130.2,43.28a56,56,0,0,1-12,3.09c-4.83.46-10.49-2.32-11.9-3.07-1.51.63-7.71,3.09-12.12,3.27C90.17,46.74,85,44.36,83,43.36Z"/></g></g></svg>
