<svg xmlns="http://www.w3.org/2000/svg" viewBox="0 0 200 134"><defs><style>.al_cls-1{fill:#cf2932;}.al_cls-2{fill:#121212;}</style></defs><title>Asset 4</title><g id="Layer_2" data-name="Layer 2"><g id="Layer_97" data-name="Layer 97"><path class="al_cls-1" d="M114.66,27.86c.36-.36.07-1-.5-1.09a3.72,3.72,0,0,0-.81-.16c-.78,0-.07.69-.45.93s-1.6-1.26-.93.52A3.71,3.71,0,0,0,114.66,27.86Z"/><path class="al_cls-1" d="M87.1,27.55c-.37-.25.33-1-.45-.93a3.71,3.71,0,0,0-.81.16c-.57.11-.85.73-.5,1.09a3.71,3.71,0,0,0,2.69.21C88.69,26.29,87.56,27.85,87.1,27.55Z"/><path class="al_cls-1" d="M183,0H17A17,17,0,0,0,0,17V117a17,17,0,0,0,17,17H183a17,17,0,0,0,17-17V17A17,17,0,0,0,183,0ZM138.22,87.13c-1.19-.18-1.32-.16-1.69.17a5.35,5.35,0,0,1-.79.58,3.25,3.25,0,0,1-2.34-.08,10,10,0,0,0-3.15-.26c-1.46,0-2.73,0-2.82,0a5.21,5.21,0,0,0,1.27.87,3.56,3.56,0,0,0,2.67.85c1.56,0,2.45.44,2.69,1.44.09.35.25,1,.36,1.39.25.94.34,1.09-.35,2.71-.76-1.78-.5-1.24-.73-1.58-.37-.55-.52-.64-1.4-.71a2.31,2.31,0,0,1-2.26-1.46c-.3-.67-.63-1-2.27-2-2.24-1.38-2.1-1.38-4.62-.21-1.24.59-1.71.88-1.92,1.29a1.64,1.64,0,0,1-2.06.77c-.83-.25-1.2-.11-1.77.69-.24.35-.25.28-.61.6a3.9,3.9,0,0,1-.1-1.06c0-.73.09-.87,1-1.83,1.1-1.1,1.77-1.4,2.57-1.1.37.14.68.1,1.64-.35s1.47-.87.92-.87c-.11,0-1.83-.64-3.8-1.4l-3.58-1.39-.53.43a7.28,7.28,0,0,1-3.2,1.47c-.62,0-.69,0-.89-.69a46.94,46.94,0,0,0-3.5-6.71c-1.86-2.88-2.89-3.63-3.72-2.7-.27.3-.34.64-.32,1.74a15.76,15.76,0,0,0,4.32,9.89,7.47,7.47,0,0,0,4.39,2.22c1.31.18,2.2.51,2.2.85a3.5,3.5,0,0,1-1.42,1.67,3.62,3.62,0,0,1-2,.26,4.05,4.05,0,0,1-2.62-.83c-1.15-.69-1.33-.75-1.56-.52s-.25.4-.07,1c.37,1.38,1.36,2,3.67,2.3s3.16,1,2.38,2.12a3,3,0,0,1-2.62,1.08c-1.38,0-2.58-.61-4.16-2.1-.67-.62-1.3-1.08-1.4-1s-.23,1.56,0,2.43a4.94,4.94,0,0,0,2,2.42c.27.11.95.32,1.5.46,1.94.53,2.21,1.28.85,2.19a3.78,3.78,0,0,1-3.44.12,12.06,12.06,0,0,1-3-2.81c-.32-.59-.66-.15-.55.71a6.58,6.58,0,0,0,1.46,2.89c.78,1.06.51,2.5-.82,4.46A8.4,8.4,0,0,1,100,110a8.36,8.36,0,0,1-2.1-2.4c-1.33-2-1.6-3.39-.82-4.46a6.58,6.58,0,0,0,1.46-2.89c.11-.87-.23-1.3-.55-.71a12,12,0,0,1-3,2.81,3.78,3.78,0,0,1-3.44-.12c-1.37-.91-1.09-1.66.85-2.19.55-.14,1.23-.36,1.5-.46a4.93,4.93,0,0,0,2-2.42c.27-.87.28-2.29,0-2.43s-.73.39-1.4,1c-1.58,1.49-2.77,2.1-4.16,2.1a3,3,0,0,1-2.62-1.08c-.78-1.1,0-1.82,2.38-2.12s3.3-.92,3.67-2.3c.18-.64.16-.81-.07-1s-.41-.17-1.56.52a4,4,0,0,1-2.62.83,3.61,3.61,0,0,1-2-.26,3.5,3.5,0,0,1-1.42-1.67c0-.34.88-.67,2.2-.85a7.46,7.46,0,0,0,4.39-2.22,15.77,15.77,0,0,0,4.32-9.89c0-1.1-.06-1.44-.32-1.74-.83-.92-1.86-.17-3.72,2.7a46.83,46.83,0,0,0-3.5,6.71c-.2.64-.27.69-.89.69a7.28,7.28,0,0,1-3.2-1.47l-.53-.43-3.58,1.39c-2,.76-3.7,1.4-3.8,1.4-.55,0-.14.39.92.87s1.27.49,1.64.35c.8-.3,1.47,0,2.57,1.1.94,1,1,1.1,1,1.83a3.86,3.86,0,0,1-.11,1.06c-.35-.32-.37-.26-.61-.6-.57-.8-.94-.94-1.77-.69a1.63,1.63,0,0,1-2.06-.77c-.21-.41-.68-.71-1.92-1.29-2.52-1.17-2.38-1.18-4.62.21-1.63,1-2,1.3-2.27,2a2.31,2.31,0,0,1-2.26,1.46c-.89.07-1,.16-1.4.71-.23.34,0-.2-.73,1.58-.69-1.63-.6-1.77-.35-2.71.11-.39.27-1,.36-1.39.25-1,1.13-1.46,2.69-1.44a3.56,3.56,0,0,0,2.67-.85,5.21,5.21,0,0,0,1.27-.87c-.09,0-1.36,0-2.82,0a10,10,0,0,0-3.15.26,3.25,3.25,0,0,1-2.35.08,5.25,5.25,0,0,1-.79-.58c-.37-.34-.5-.35-1.69-.17a6.42,6.42,0,0,1-1.34.11,2.32,2.32,0,0,1,1.1-1.37,2.53,2.53,0,0,1,1.28-.38,4.13,4.13,0,0,0,1.43-.34,2.1,2.1,0,0,1,2.36.38c.48.39.79.46,2.63.6,2.59.21,3.43.21,3.43,0a8,8,0,0,0-1.47-1.06c-1.1-.73-1.56-.93-1.92-.85a3,3,0,0,1-2.48-1c-.69-.71-.85-.76-2.45-.69a1.64,1.64,0,0,1-.66,0A2.35,2.35,0,0,1,66.44,81a2.46,2.46,0,0,0,1.46.07,2.44,2.44,0,0,1,2.81,1.47c.21.57,1.22,1.4,3.05,2.52l1.33.84,2.58-1A28.56,28.56,0,0,0,83,82.57a4.89,4.89,0,0,0-.79-1,6.08,6.08,0,0,1-.8-1,4.66,4.66,0,0,1,1.12-.66c4-2,6.84-4.86,8-8.06.85-2.24.42-2.76-.63-.75a6.83,6.83,0,0,1-2.59,3.08c-1.23.78-1.92.94-2.38.52s-.42-1.1.36-2c1.76-2,2.26-5,.82-5-.55,0-.62.09-1.74,2.67-1.56,3.6-3.16,6-4.42,6.65-1.06.55-2.8.11-3.09-.79-.23-.73.06-1.19,1.28-2a8.64,8.64,0,0,0,3.65-5.88c.16-.85.14-1.07-.12-1.46-.43-.66-.75-.43-2,1.44-2.33,3.5-6.52,8.09-8.24,9-3.05,1.69-6.05,1.62-7.86-.19a1.64,1.64,0,0,1-.65-1.25c0-.87.64-1.24,2-1.17,3.18.14,3.49.11,4.72-.46,2.36-1.12,4.66-3.8,6.47-7.56,1.71-3.51,1.29-3.7-1.6-.75-3.91,4-7.06,5.45-10,4.6-1.4-.41-2.73-1.67-2.73-2.61s.5-1.31,2-1.22c.69.05,2,.09,2.85.09a4.47,4.47,0,0,0,2.79-.57,12.27,12.27,0,0,0,2.43-1.74c1.86-1.72,5-6,5-6.84s-.74-.51-2.66,1.18a32.46,32.46,0,0,1-5.6,3.84,5.6,5.6,0,0,1-2.57.41,4.37,4.37,0,0,1-2.55-.44,2.54,2.54,0,0,1-1.67-2.39c-.14-1.74.72-2.17,3.24-1.53,3.57.89,5.44.23,8.72-3.09,1.6-1.63,2.17-2.5,2-3s-.89-.26-3.92,1.26c-3.32,1.69-4.28,2-5.84,2a4.26,4.26,0,0,1-3.12-1c-1.3-1.1-1.62-2.35-.8-3.15.64-.66,1.9-.61,3.32.1a6.36,6.36,0,0,0,2.11.65,10.4,10.4,0,0,0,7.18-2.69c1.1-1.1,1.63-2.13,1.33-2.52s-.82-.3-2,.22a11.94,11.94,0,0,1-5.4,1.31,8.93,8.93,0,0,1-5-1.31c-1.37-.75-2.26-1.71-2.26-2.38a2.51,2.51,0,0,1,.36-1.06c.51-.84,1.44-.8,3.2.16,3.44,1.88,5.82,2.15,8.23.92a10.22,10.22,0,0,0,3.22-3.05c.27-.55.27-.62,0-.87s-.55-.29-3.22.69a9.13,9.13,0,0,1-3.48.66,9.2,9.2,0,0,1-4.72-.77c-1.83-.83-3.61-3-3.61-4.35a2.09,2.09,0,0,1,.8-1.66c.78-.3,1.21-.11,2.42,1.15a8.36,8.36,0,0,0,6.71,2.65c3.16,0,4.46-.5,4.46-1.69,0-.82-.62-1.31-1.92-1.51a23.23,23.23,0,0,1-10.9-5c-1.44-1.33-2-2.27-2-3.41a2.31,2.31,0,0,1,1.6-2.45c.89-.25,1.54.16,2.45,1.58a13.3,13.3,0,0,0,6,5.2c1.72.85,4.47,1.79,5,1.68.16,0,.41-.35.55-.76.43-1.21.5-1.23,2.28-.48.89.39,2.7,1.08,4,1.56,2.7,1,3.61,1.55,4.25,2.81.32.62.39,1,.39,2.95s.06,2.27.42,2.8a2.13,2.13,0,0,0,2.14,1c1.65,0,2.55-1,2.66-2.88a8.36,8.36,0,0,0-.94-4.42A8.05,8.05,0,0,0,88.49,33a10.68,10.68,0,0,0-5.28-1.72c-2-.18-4-.93-4.46-1.91,2,.6,4-.26,3.86-.37s-3.77-.09-4.24-.14a5.08,5.08,0,0,1-2.93-1.19c-1-.69-1.6-1.34-1.35-1.78s1-.39,1.46.16c.25.28.71.8,1,1.17.57.64.69.69,2.4,1a4.67,4.67,0,0,0,2.28,0c.25-.18.46-.39.46-.48,0-.25-.71-.65-1.37-.79a8.13,8.13,0,0,0-2.42.52,8.5,8.5,0,0,1,.5-1.12c.43-.83,1.19-1.14,3.09-1.19,1.33-.05,1.77-.14,2-.39a4.37,4.37,0,0,1,.72-.53,2.18,2.18,0,0,1,1-.2,12.66,12.66,0,0,1,4.88,1.21,4.91,4.91,0,0,0,2.47.55,9.62,9.62,0,0,0,2-.19c1.42-.37,1.68-.39,1.68-.1s-1.21,1.44-2.11,1.9c-.5.25-.69.44-.6.62a5.58,5.58,0,0,0,2.33,1.58c.85.3.83.64-.1,1.08-.41.19-.74.44-.76.55,0,.51,1.76,1.67,2.55,1.67,1,0,.62.78-.46,1-.6.13-.6.19-.07.78a1.72,1.72,0,0,0,1.7.79c.66-.14.78.11.41.8-.3.53-.3.56,0,.79a1.39,1.39,0,0,0,1.62,0c.32-.23.32-.26,0-.79-.37-.69-.25-.94.41-.8a1.72,1.72,0,0,0,1.7-.79c.53-.59.53-.65-.07-.78-1.08-.23-1.46-1-.46-1,.8,0,2.57-1.16,2.55-1.67,0-.11-.35-.35-.76-.55-.92-.44-.95-.78-.1-1.08A5.57,5.57,0,0,0,106.44,28c.09-.18-.11-.37-.6-.62-.91-.46-2.11-1.56-2.11-1.9s.26-.27,1.68.1a9.61,9.61,0,0,0,2,.19,4.91,4.91,0,0,0,2.47-.55A12.67,12.67,0,0,1,114.75,24a2.18,2.18,0,0,1,1,.2,4.28,4.28,0,0,1,.72.53c.28.25.72.34,2,.39,1.9.05,2.66.36,3.09,1.19a8.36,8.36,0,0,1,.5,1.13,8.12,8.12,0,0,0-2.41-.52c-.66.14-1.37.55-1.37.79,0,.09.21.3.46.48a4.67,4.67,0,0,0,2.28,0c1.7-.27,1.83-.32,2.4-1l1-1.17c.5-.55,1.21-.64,1.46-.16s-.39,1.09-1.35,1.78a5.08,5.08,0,0,1-2.93,1.19c-.47.05-4.06,0-4.24.14s1.85,1,3.86.37c-.48,1-2.49,1.73-4.46,1.91A10.68,10.68,0,0,0,111.51,33a8.05,8.05,0,0,0-3.26,3.62,8.35,8.35,0,0,0-.94,4.42c.11,1.9,1,2.88,2.66,2.88a2.13,2.13,0,0,0,2.13-1c.36-.53.4-.78.42-2.8s.07-2.33.39-2.95c.64-1.26,1.55-1.85,4.25-2.81,1.35-.48,3.16-1.17,4-1.56,1.78-.75,1.85-.73,2.28.48.14.41.39.72.55.76.52.11,3.27-.83,5-1.68a13.3,13.3,0,0,0,6-5.2c.91-1.42,1.56-1.83,2.45-1.58a2.31,2.31,0,0,1,1.6,2.45c0,1.14-.53,2.08-2,3.41a23.23,23.23,0,0,1-10.9,5c-1.3.19-1.92.69-1.92,1.51,0,1.19,1.3,1.67,4.46,1.69A8.36,8.36,0,0,0,135.48,37c1.21-1.26,1.63-1.45,2.42-1.15a2.09,2.09,0,0,1,.8,1.66c0,1.35-1.78,3.52-3.61,4.35a12,12,0,0,1-8.2.1c-2.66-1-2.9-1-3.22-.69s-.25.32,0,.87a10.25,10.25,0,0,0,3.22,3.05c2.41,1.22,4.79,1,8.23-.92,1.76-1,2.69-1,3.2-.16a2.52,2.52,0,0,1,.36,1.06c0,.67-.89,1.63-2.26,2.38a8.93,8.93,0,0,1-5,1.31,11.94,11.94,0,0,1-5.4-1.31c-1.23-.51-1.72-.57-2-.22s.22,1.42,1.32,2.52a10.4,10.4,0,0,0,7.18,2.69,6.37,6.37,0,0,0,2.11-.65c1.42-.71,2.68-.76,3.32-.1.82.8.49,2-.8,3.15a4.26,4.26,0,0,1-3.12,1c-1.56,0-2.52-.34-5.84-2-3-1.53-3.75-1.76-3.92-1.26s.36,1.38,2,3c3.28,3.32,5.15,4,8.72,3.09,2.52-.64,3.38-.21,3.24,1.53a2.54,2.54,0,0,1-1.67,2.39,4.38,4.38,0,0,1-2.55.44,5.6,5.6,0,0,1-2.57-.41,32.46,32.46,0,0,1-5.6-3.84c-1.92-1.69-2.66-2-2.66-1.18s3.12,5.11,5,6.84a12.24,12.24,0,0,0,2.43,1.74,4.47,4.47,0,0,0,2.79.57c.87,0,2.16,0,2.85-.09,1.53-.09,2,.21,2,1.22s-1.33,2.2-2.73,2.61c-2.89.85-6.05-.62-10-4.6-2.89-2.95-3.31-2.76-1.6.75,1.81,3.76,4.11,6.44,6.47,7.56,1.23.57,1.54.6,4.72.46,1.4-.07,2,.3,2,1.17a1.64,1.64,0,0,1-.65,1.25c-1.81,1.81-4.81,1.88-7.86.19-1.72-1-5.91-5.55-8.24-9-1.24-1.87-1.56-2.1-2-1.44-.27.39-.28.6-.12,1.46a8.65,8.65,0,0,0,3.65,5.88c1.22.78,1.51,1.24,1.28,2-.28.91-2,1.34-3.09.79-1.26-.64-2.86-3-4.42-6.65-1.12-2.57-1.19-2.67-1.74-2.67-1.44,0-.94,3,.82,5,.78.89.91,1.49.36,2s-1.16.27-2.38-.52a6.82,6.82,0,0,1-2.59-3.08c-1-2-1.48-1.49-.63.75,1.19,3.2,4,6,8,8.06a4.66,4.66,0,0,1,1.12.66,6.14,6.14,0,0,1-.8,1,4.88,4.88,0,0,0-.79,1,28.56,28.56,0,0,0,5.3,2.38l2.58,1,1.33-.84c1.83-1.12,2.84-2,3.05-2.52a2.44,2.44,0,0,1,2.81-1.47,2.46,2.46,0,0,0,1.46-.07,2.35,2.35,0,0,1,2.76,1.48,1.64,1.64,0,0,1-.66,0c-1.6-.07-1.76,0-2.45.69a3,3,0,0,1-2.49,1c-.35-.07-.82.13-1.92.85a8,8,0,0,0-1.47,1.06c0,.18.84.18,3.43,0,1.85-.14,2.15-.21,2.63-.6a2.1,2.1,0,0,1,2.36-.37,4.14,4.14,0,0,0,1.43.34,2.54,2.54,0,0,1,1.28.38,2.32,2.32,0,0,1,1.1,1.37A6.41,6.41,0,0,1,138.22,87.13Z"/><path class="al_cls-2" d="M138.46,85.87a2.54,2.54,0,0,0-1.28-.38,4.14,4.14,0,0,1-1.43-.34,2.1,2.1,0,0,0-2.36.38c-.48.39-.79.46-2.63.6-2.59.21-3.43.21-3.43,0a8,8,0,0,1,1.47-1.06c1.1-.73,1.56-.93,1.92-.85a3,3,0,0,0,2.49-1c.69-.71.85-.76,2.45-.69a1.64,1.64,0,0,0,.66,0A2.35,2.35,0,0,0,133.56,81a2.46,2.46,0,0,1-1.46.07,2.44,2.44,0,0,0-2.81,1.47c-.21.57-1.22,1.4-3.05,2.52l-1.33.84-2.58-1a28.56,28.56,0,0,1-5.3-2.38,4.88,4.88,0,0,1,.79-1,6.14,6.14,0,0,0,.8-1,4.66,4.66,0,0,0-1.12-.66c-4-2-6.84-4.86-8-8.06-.85-2.24-.42-2.76.63-.75a6.82,6.82,0,0,0,2.59,3.08c1.22.78,1.92.94,2.38.52s.42-1.1-.36-2c-1.76-2-2.26-5-.82-5,.55,0,.63.09,1.74,2.67,1.56,3.6,3.16,6,4.42,6.65,1.06.55,2.8.11,3.09-.79.23-.73-.06-1.19-1.28-2a8.65,8.65,0,0,1-3.65-5.88c-.16-.85-.14-1.07.12-1.46.43-.66.75-.43,2,1.44,2.33,3.5,6.52,8.09,8.24,9,3.05,1.69,6.05,1.62,7.86-.19a1.64,1.64,0,0,0,.65-1.25c0-.87-.64-1.24-2-1.17-3.18.14-3.49.11-4.72-.46-2.36-1.12-4.66-3.8-6.47-7.56-1.7-3.51-1.29-3.7,1.6-.75,3.91,4,7.06,5.45,10,4.6,1.4-.41,2.73-1.67,2.73-2.61s-.5-1.31-2-1.22c-.69.05-2,.09-2.85.09a4.47,4.47,0,0,1-2.79-.57,12.24,12.24,0,0,1-2.43-1.74c-1.86-1.72-5-6-5-6.84s.74-.51,2.66,1.18a32.46,32.46,0,0,0,5.6,3.84,5.6,5.6,0,0,0,2.57.41,4.38,4.38,0,0,0,2.55-.44,2.54,2.54,0,0,0,1.67-2.39c.14-1.74-.72-2.17-3.24-1.53-3.57.89-5.43.23-8.72-3.09-1.6-1.63-2.17-2.5-2-3s.89-.26,3.92,1.26c3.32,1.69,4.28,2,5.84,2a4.26,4.26,0,0,0,3.12-1c1.3-1.1,1.62-2.35.8-3.15-.64-.66-1.9-.61-3.32.1a6.37,6.37,0,0,1-2.11.65,10.4,10.4,0,0,1-7.18-2.69c-1.1-1.1-1.63-2.13-1.32-2.52s.81-.3,2,.22a11.94,11.94,0,0,0,5.4,1.31,8.93,8.93,0,0,0,5-1.31c1.37-.75,2.26-1.71,2.26-2.38a2.52,2.52,0,0,0-.36-1.06c-.51-.84-1.44-.8-3.2.16-3.44,1.88-5.82,2.15-8.23.92a10.25,10.25,0,0,1-3.22-3.05c-.27-.55-.27-.62,0-.87s.55-.29,3.22.69a12,12,0,0,0,8.2-.1c1.83-.83,3.61-3,3.61-4.35a2.09,2.09,0,0,0-.8-1.66c-.78-.3-1.21-.11-2.42,1.15a8.36,8.36,0,0,1-6.71,2.65c-3.16,0-4.46-.5-4.46-1.69,0-.82.62-1.31,1.92-1.51a23.23,23.23,0,0,0,10.9-5c1.44-1.33,2-2.27,2-3.41a2.31,2.31,0,0,0-1.6-2.45c-.89-.25-1.54.16-2.45,1.58a13.3,13.3,0,0,1-6,5.2c-1.72.85-4.47,1.79-5,1.68-.16,0-.41-.35-.55-.76-.43-1.21-.5-1.23-2.28-.48-.89.39-2.7,1.08-4,1.56-2.7,1-3.61,1.55-4.25,2.81-.32.62-.39,1-.39,2.95s-.06,2.27-.42,2.8a2.13,2.13,0,0,1-2.13,1c-1.65,0-2.55-1-2.66-2.88a8.35,8.35,0,0,1,.94-4.42A8.05,8.05,0,0,1,111.51,33a10.68,10.68,0,0,1,5.28-1.72c2-.18,4-.93,4.46-1.91-2,.6-4-.26-3.86-.37s3.77-.09,4.24-.14a5.08,5.08,0,0,0,2.93-1.19c1-.69,1.6-1.34,1.35-1.78s-1-.39-1.46.16l-1,1.17c-.57.64-.69.69-2.4,1a4.67,4.67,0,0,1-2.28,0c-.25-.18-.46-.39-.46-.48,0-.25.71-.65,1.37-.79a8.12,8.12,0,0,1,2.41.52,8.36,8.36,0,0,0-.5-1.12c-.43-.83-1.19-1.14-3.09-1.19-1.33-.05-1.77-.14-2-.39a4.28,4.28,0,0,0-.72-.53,2.18,2.18,0,0,0-1-.2,12.67,12.67,0,0,0-4.88,1.21,4.91,4.91,0,0,1-2.47.55,9.61,9.61,0,0,1-2-.19c-1.42-.37-1.68-.39-1.68-.1s1.21,1.44,2.11,1.9c.5.25.69.44.6.62a5.57,5.57,0,0,1-2.33,1.58c-.85.3-.83.64.1,1.08.41.19.74.44.76.55,0,.51-1.76,1.67-2.55,1.67-1,0-.62.78.46,1,.6.13.6.19.07.78a1.72,1.72,0,0,1-1.7.79c-.66-.14-.78.11-.41.8.3.53.3.56,0,.79a1.39,1.39,0,0,1-1.62,0c-.32-.23-.32-.26,0-.79.37-.69.25-.94-.41-.8a1.72,1.72,0,0,1-1.7-.79c-.53-.59-.53-.65.07-.78,1.08-.23,1.46-1,.46-1-.8,0-2.57-1.16-2.55-1.67,0-.11.35-.35.76-.55.92-.44.95-.78.1-1.08A5.58,5.58,0,0,1,93.57,28c-.09-.18.11-.37.6-.62.91-.46,2.11-1.56,2.11-1.9s-.26-.27-1.68.1a9.62,9.62,0,0,1-2,.19,4.91,4.91,0,0,1-2.47-.55A12.66,12.66,0,0,0,85.26,24a2.18,2.18,0,0,0-1,.2,4.37,4.37,0,0,0-.72.53c-.28.25-.72.34-2,.39-1.9.05-2.66.36-3.09,1.19a8.5,8.5,0,0,0-.5,1.13,8.13,8.13,0,0,1,2.42-.52c.66.14,1.37.55,1.37.79,0,.09-.21.3-.46.48a4.67,4.67,0,0,1-2.28,0c-1.7-.27-1.83-.32-2.4-1-.32-.37-.78-.88-1-1.17-.5-.55-1.21-.64-1.46-.16s.39,1.09,1.35,1.78a5.08,5.08,0,0,0,2.93,1.19c.47.05,4.06,0,4.24.14s-1.85,1-3.86.37c.48,1,2.48,1.73,4.46,1.91A10.68,10.68,0,0,1,88.49,33a8.05,8.05,0,0,1,3.26,3.62A8.36,8.36,0,0,1,92.69,41c-.11,1.9-1,2.88-2.66,2.88a2.13,2.13,0,0,1-2.14-1c-.36-.53-.4-.78-.42-2.8s-.07-2.33-.39-2.95c-.64-1.26-1.55-1.85-4.25-2.81-1.35-.48-3.16-1.17-4-1.56-1.78-.75-1.85-.73-2.28.48-.14.41-.39.72-.55.76-.51.11-3.27-.83-5-1.68a13.3,13.3,0,0,1-6-5.2c-.91-1.42-1.56-1.83-2.45-1.58a2.31,2.31,0,0,0-1.6,2.45c0,1.14.53,2.08,2,3.41a23.23,23.23,0,0,0,10.9,5c1.3.19,1.92.69,1.92,1.51,0,1.19-1.3,1.67-4.46,1.69A8.36,8.36,0,0,1,64.52,37c-1.21-1.26-1.63-1.45-2.42-1.15a2.09,2.09,0,0,0-.8,1.66c0,1.35,1.78,3.52,3.61,4.35a9.2,9.2,0,0,0,4.72.77,9.13,9.13,0,0,0,3.48-.66c2.66-1,2.9-1,3.22-.69s.25.32,0,.87a10.22,10.22,0,0,1-3.22,3.05c-2.41,1.22-4.79,1-8.23-.92-1.76-1-2.69-1-3.2-.16a2.51,2.51,0,0,0-.36,1.06c0,.67.89,1.63,2.26,2.38a8.93,8.93,0,0,0,5,1.31A11.94,11.94,0,0,0,74,47.53c1.22-.51,1.72-.57,2-.22s-.22,1.42-1.33,2.52a10.4,10.4,0,0,1-7.18,2.69,6.36,6.36,0,0,1-2.11-.65c-1.42-.71-2.68-.76-3.32-.1-.82.8-.49,2,.8,3.15a4.26,4.26,0,0,0,3.12,1c1.56,0,2.52-.34,5.84-2,3-1.53,3.75-1.76,3.92-1.26s-.36,1.38-2,3c-3.28,3.32-5.15,4-8.72,3.09-2.52-.64-3.39-.21-3.24,1.53a2.54,2.54,0,0,0,1.67,2.39,4.37,4.37,0,0,0,2.55.44,5.6,5.6,0,0,0,2.57-.41,32.46,32.46,0,0,0,5.6-3.84c1.92-1.69,2.66-2,2.66-1.18s-3.12,5.11-5,6.84a12.27,12.27,0,0,1-2.43,1.74,4.47,4.47,0,0,1-2.79.57c-.87,0-2.16,0-2.85-.09-1.53-.09-2,.21-2,1.22s1.33,2.2,2.73,2.61c2.89.85,6.05-.62,10-4.6,2.89-2.95,3.31-2.76,1.6.75C74.33,70.5,72,73.18,69.67,74.3c-1.23.57-1.54.6-4.72.46-1.4-.07-2,.3-2,1.17a1.64,1.64,0,0,0,.65,1.25c1.81,1.81,4.81,1.88,7.86.19,1.72-1,5.91-5.55,8.24-9,1.24-1.87,1.56-2.1,2-1.44.27.39.28.6.12,1.46a8.64,8.64,0,0,1-3.65,5.88c-1.22.78-1.51,1.24-1.28,2,.28.91,2,1.34,3.09.79,1.26-.64,2.86-3,4.42-6.65,1.12-2.57,1.19-2.67,1.74-2.67,1.44,0,.94,3-.82,5-.78.89-.91,1.49-.36,2s1.15.27,2.38-.52a6.83,6.83,0,0,0,2.59-3.08c1-2,1.48-1.49.63.75-1.19,3.2-4,6-8,8.06a4.66,4.66,0,0,0-1.12.66,6.08,6.08,0,0,0,.8,1,4.89,4.89,0,0,1,.79,1A28.56,28.56,0,0,1,77.66,85l-2.58,1-1.33-.84c-1.83-1.12-2.84-2-3.05-2.52a2.44,2.44,0,0,0-2.81-1.47A2.46,2.46,0,0,1,66.44,81a2.35,2.35,0,0,0-2.76,1.48,1.64,1.64,0,0,0,.66,0c1.6-.07,1.76,0,2.45.69a3,3,0,0,0,2.48,1c.36-.07.82.13,1.92.85a8,8,0,0,1,1.47,1.06c0,.18-.84.18-3.43,0-1.85-.14-2.15-.21-2.63-.6a2.1,2.1,0,0,0-2.36-.37,4.13,4.13,0,0,1-1.43.34,2.53,2.53,0,0,0-1.28.38,2.32,2.32,0,0,0-1.1,1.37,6.42,6.42,0,0,0,1.34-.11C63,87,63.1,87,63.48,87.31a5.25,5.25,0,0,0,.79.58,3.25,3.25,0,0,0,2.35-.08,10,10,0,0,1,3.15-.26c1.46,0,2.73,0,2.82,0a5.21,5.21,0,0,1-1.27.87,3.56,3.56,0,0,1-2.67.85c-1.56,0-2.45.44-2.69,1.44-.09.35-.25,1-.36,1.39-.25.94-.34,1.09.35,2.71.76-1.78.5-1.24.73-1.58.37-.55.52-.64,1.4-.71a2.31,2.31,0,0,0,2.26-1.46c.3-.67.63-1,2.27-2,2.24-1.38,2.1-1.38,4.62-.21,1.24.59,1.71.88,1.92,1.29a1.63,1.63,0,0,0,2.06.77c.83-.25,1.2-.11,1.77.69.24.35.26.28.61.6a3.86,3.86,0,0,0,.11-1.06c0-.73-.09-.87-1-1.83-1.1-1.1-1.77-1.4-2.57-1.1-.37.14-.68.1-1.64-.35S77,87,77.51,87c.11,0,1.83-.64,3.8-1.4l3.58-1.39.53.43a7.28,7.28,0,0,0,3.2,1.47c.62,0,.69,0,.89-.69A46.83,46.83,0,0,1,93,78.72c1.86-2.88,2.89-3.63,3.72-2.7.27.3.34.64.32,1.74a15.77,15.77,0,0,1-4.32,9.89,7.46,7.46,0,0,1-4.39,2.22c-1.31.18-2.2.51-2.2.85a3.5,3.5,0,0,0,1.42,1.67,3.61,3.61,0,0,0,2,.26,4,4,0,0,0,2.62-.83c1.15-.69,1.33-.75,1.56-.52s.25.4.07,1c-.37,1.38-1.36,2-3.67,2.3s-3.16,1-2.38,2.12a3,3,0,0,0,2.62,1.08c1.38,0,2.58-.61,4.16-2.1.67-.62,1.3-1.08,1.4-1s.23,1.56,0,2.43a4.93,4.93,0,0,1-2,2.42c-.27.11-.95.32-1.5.46-1.94.53-2.21,1.28-.85,2.19a3.78,3.78,0,0,0,3.44.12,12,12,0,0,0,3-2.81c.32-.59.66-.15.55.71a6.58,6.58,0,0,1-1.46,2.89c-.78,1.06-.51,2.5.82,4.46A8.36,8.36,0,0,0,100,110a8.4,8.4,0,0,0,2.1-2.4c1.33-2,1.6-3.39.82-4.46a6.58,6.58,0,0,1-1.46-2.89c-.11-.87.23-1.3.55-.71a12.06,12.06,0,0,0,3,2.81,3.78,3.78,0,0,0,3.44-.12c1.37-.91,1.09-1.66-.85-2.19-.55-.14-1.23-.36-1.5-.46a4.94,4.94,0,0,1-2-2.42c-.27-.87-.28-2.29,0-2.43s.73.39,1.4,1c1.58,1.49,2.77,2.1,4.16,2.1a3,3,0,0,0,2.62-1.08c.78-1.1,0-1.82-2.38-2.12s-3.3-.92-3.67-2.3c-.18-.64-.16-.81.07-1s.41-.17,1.56.52a4.05,4.05,0,0,0,2.62.83,3.62,3.62,0,0,0,2-.26,3.5,3.5,0,0,0,1.42-1.67c0-.34-.88-.67-2.2-.85a7.47,7.47,0,0,1-4.39-2.22,15.76,15.76,0,0,1-4.32-9.89c0-1.1.06-1.44.32-1.74.83-.92,1.86-.17,3.72,2.7a46.94,46.94,0,0,1,3.5,6.71c.2.64.27.69.89.69a7.28,7.28,0,0,0,3.2-1.47l.53-.43,3.58,1.39c2,.76,3.7,1.4,3.8,1.4.55,0,.14.39-.92.87s-1.27.49-1.64.35c-.8-.3-1.47,0-2.57,1.1-.94,1-1,1.1-1,1.83a3.9,3.9,0,0,0,.1,1.06c.36-.32.37-.26.61-.6.57-.8.94-.94,1.77-.69a1.64,1.64,0,0,0,2.06-.77c.21-.41.68-.71,1.92-1.29,2.52-1.17,2.38-1.18,4.62.21,1.63,1,2,1.3,2.27,2a2.31,2.31,0,0,0,2.26,1.46c.89.07,1,.16,1.4.71.23.34,0-.2.73,1.58.69-1.63.6-1.77.35-2.71-.11-.39-.27-1-.36-1.39-.25-1-1.13-1.46-2.69-1.44a3.56,3.56,0,0,1-2.67-.85,5.21,5.21,0,0,1-1.27-.87c.09,0,1.36,0,2.82,0a10,10,0,0,1,3.15.26,3.25,3.25,0,0,0,2.34.08,5.35,5.35,0,0,0,.79-.58c.37-.34.5-.35,1.69-.17a6.41,6.41,0,0,0,1.34.11A2.32,2.32,0,0,0,138.46,85.87ZM112.91,27.55c.37-.25-.33-1,.45-.93a3.72,3.72,0,0,1,.81.16c.57.11.85.73.5,1.09a3.71,3.71,0,0,1-2.69.21C111.31,26.29,112.44,27.85,112.91,27.55ZM88,28.07a3.71,3.71,0,0,1-2.69-.21c-.36-.36-.07-1,.5-1.09a3.71,3.71,0,0,1,.81-.16c.78,0,.07.69.45.93S88.69,26.29,88,28.07Z"/></g></g></svg>
