<svg xmlns="http://www.w3.org/2000/svg" viewBox="0 0 200 134"><defs><style>.ax_cls-1{fill:#257cbb;}.ax_cls-2{fill:#fdd533;}.ax_cls-3{fill:#d32a40;}</style></defs><title>Asset 1</title><g id="Layer_2" data-name="Layer 2"><g id="Layer_100" data-name="Layer 100"><path class="ax_cls-1" d="M100,134h83a17,17,0,0,0,17-17V86.86H100Z"/><path class="ax_cls-1" d="M0,117a17,17,0,0,0,17,17H60.38V86.86H0Z"/><path class="ax_cls-1" d="M0,17V47.14H60.38V0H17A17,17,0,0,0,0,17Z"/><path class="ax_cls-1" d="M183,0H100V47.14H200V17A17,17,0,0,0,183,0Z"/><polygon class="ax_cls-2" points="60.38 47.14 0 47.14 0 59.06 72.27 59.06 72.27 47.14 72.27 0 60.38 0 60.38 47.14"/><polygon class="ax_cls-2" points="88.11 86.86 88.11 134 100 134 100 86.86 200 86.86 200 74.94 88.11 74.94 88.11 86.86"/><polygon class="ax_cls-2" points="0 86.86 60.38 86.86 60.38 134 72.27 134 72.27 86.86 72.27 74.94 0 74.94 0 86.86"/><polygon class="ax_cls-2" points="100 47.14 100 0 88.11 0 88.11 47.14 88.11 59.06 200 59.06 200 47.14 100 47.14"/><polygon class="ax_cls-3" points="88.11 59.06 88.11 47.14 88.11 0 72.27 0 72.27 47.14 72.27 59.06 0 59.06 0 74.94 72.27 74.94 72.27 86.86 72.27 134 88.11 134 88.11 86.86 88.11 74.94 200 74.94 200 59.06 88.11 59.06"/></g></g></svg>
