<svg xmlns="http://www.w3.org/2000/svg" viewBox="0 0 200 134"><defs><style>.cf_cls-1{fill:#253a7c;}.cf_cls-2{fill:#fafafa;}.cf_cls-3{fill:#2c9846;}.cf_cls-4{fill:#fed733;}.cf_cls-5{fill:#d32a40;}.cf_cls-6{fill:#fecf0a;}</style></defs><title>Asset 35</title><g id="Layer_2" data-name="Layer 2"><g id="Layer_66" data-name="Layer 66"><path class="cf_cls-1" d="M183,0H116.93V33.13H200V17A17,17,0,0,0,183,0Z"/><path class="cf_cls-1" d="M83.06,0H17A17,17,0,0,0,0,17V33.13H83.06ZM32.26,23.48l-9,6.51,3.42-10.53-9-6.51H28.84L32.26,2.41l3.42,10.53H46.76l-9,6.51L41.22,30Z"/><rect class="cf_cls-2" x="116.93" y="33.13" width="83.07" height="33.87"/><rect class="cf_cls-2" y="33.13" width="83.06" height="33.87"/><rect class="cf_cls-3" y="67" width="83.06" height="33.87"/><rect class="cf_cls-3" x="116.93" y="67" width="83.07" height="33.87"/><path class="cf_cls-4" d="M0,100.87V117a17,17,0,0,0,17,17H83.06V100.87Z"/><path class="cf_cls-4" d="M116.93,134H183a17,17,0,0,0,17-17V100.87H116.93Z"/><polygon class="cf_cls-5" points="116.93 67 116.93 33.13 116.93 0 83.06 0 83.06 33.13 83.06 67 83.06 100.87 83.06 134 116.93 134 116.93 100.87 116.93 67"/><polygon class="cf_cls-6" points="46.76 12.95 35.69 12.95 32.26 2.41 28.84 12.95 17.77 12.95 26.73 19.45 23.31 29.98 32.26 23.48 41.22 29.98 37.8 19.45 46.76 12.95"/></g></g></svg>
