<svg xmlns="http://www.w3.org/2000/svg" viewBox="0 0 200 134"><defs><style>.ch_cls-1{fill:#d72b2c;}.ch_cls-2{fill:#fff;}</style></defs><title>Asset 75</title><g id="Layer_2" data-name="Layer 2"><g id="Layer_26" data-name="Layer 26"><path class="ch_cls-1" d="M183,0H17A17,17,0,0,0,0,17V117a17,17,0,0,0,17,17H183a17,17,0,0,0,17-17V17A17,17,0,0,0,183,0ZM146.5,81H114V113.5H86V81H53.5V53H86V20.5H114V53H146.5Z"/><polygon class="ch_cls-2" points="113.95 20.5 86.05 20.5 86.05 53.05 53.5 53.05 53.5 80.95 86.05 80.95 86.05 113.5 113.95 113.5 113.95 80.95 146.5 80.95 146.5 53.05 113.95 53.05 113.95 20.5"/></g></g></svg>
