<svg xmlns="http://www.w3.org/2000/svg" viewBox="0 0 200 134"><defs><style>.fi_cls-1{fill:#fafafa;}.fi_cls-2{fill:#233c7b;}</style></defs><title>Asset 61</title><g id="Layer_2" data-name="Layer 2"><g id="Layer_40" data-name="Layer 40"><path class="fi_cls-1" d="M183,0H96.6V48.4H200V17A17,17,0,0,0,183,0Z"/><path class="fi_cls-1" d="M59.4,0H17A17,17,0,0,0,0,17V48.4H59.4Z"/><path class="fi_cls-1" d="M96.6,134H183a17,17,0,0,0,17-17V85.6H96.6Z"/><path class="fi_cls-1" d="M0,85.6V117a17,17,0,0,0,17,17H59.4V85.6Z"/><polygon class="fi_cls-2" points="96.6 48.4 96.6 0 59.4 0 59.4 48.4 0 48.4 0 85.6 59.4 85.6 59.4 134 96.6 134 96.6 85.6 200 85.6 200 48.4 96.6 48.4"/></g></g></svg>
