<svg xmlns="http://www.w3.org/2000/svg" viewBox="0 0 200 134"><defs><style>.gh_cls-1{fill:#166c48;}.gh_cls-2{fill:#fbd632;}.gh_cls-3{fill:#ce2931;}.gh_cls-4{fill:#121212;}</style></defs><title>Asset 67</title><g id="Layer_2" data-name="Layer 2"><g id="Layer_34" data-name="Layer 34"><path class="gh_cls-1" d="M85.39,89.48H0V117a17,17,0,0,0,17,17H183a17,17,0,0,0,17-17V89.48H85.39Z"/><polygon class="gh_cls-2" points="90.97 72.31 76.37 61.7 94.42 61.7 100 44.52 0 44.52 0 89.48 85.39 89.48 90.97 72.31"/><polygon class="gh_cls-2" points="105.58 61.7 123.63 61.7 109.03 72.31 114.6 89.48 200 89.48 200 44.52 100 44.52 105.58 61.7"/><polygon class="gh_cls-2" points="85.39 89.48 114.6 89.48 100 78.86 85.39 89.48"/><path class="gh_cls-3" d="M183,0H17A17,17,0,0,0,0,17V44.52H200V17A17,17,0,0,0,183,0Z"/><polygon class="gh_cls-4" points="76.37 61.7 90.97 72.31 85.39 89.48 100 78.86 114.6 89.48 109.03 72.31 123.63 61.7 105.58 61.7 100 44.52 94.42 61.7 76.37 61.7"/></g></g></svg>
