<svg xmlns="http://www.w3.org/2000/svg" viewBox="0 0 200 134"><defs><style>.im_cls-1{fill:#e72e3f;}.im_cls-2{fill:#f8dd11;}.im_cls-3{fill:#fff;}.im_cls-4{fill:#fee600;}</style></defs><title>Asset 87</title><g id="Layer_2" data-name="Layer 2"><g id="Layer_13" data-name="Layer 13"><path class="im_cls-1" d="M183,0H17A17,17,0,0,0,0,17V117a17,17,0,0,0,17,17H183a17,17,0,0,0,17-17V17A17,17,0,0,0,183,0ZM131.87,44.31,125.27,46a5.21,5.21,0,0,0-2.59,2,11.06,11.06,0,0,0-.33,3.52c-.36,2.91-.68,6.83-2.21,10.2a4.43,4.43,0,0,0,.26,1.88,2.06,2.06,0,0,1,0,1.63,6.1,6.1,0,0,1-2.28,2.92,3.63,3.63,0,0,1-3.66.14,12.57,12.57,0,0,0-4.64-.51c-1.06-.15-8.14-1.63-9.3-2.4l-.29-.12c-.34,0-.74,0-.74,0l-.1-.12c-3,2-5.57,3.88-8.75,5.61-.31.24-.66.78-.17,1s.89.38,1.85.84a7,7,0,0,1,1.59,1.35c.95.72,5,5.88,5.85,8.29.08,0,1.83,1.75,1.83,1.75l1.51.56h0a7.07,7.07,0,0,0,.06-1.1s-1.53-1.76-1.5-1.76,1.93.42,1.93.36.75-1.86.75-1.9.91,2.19.91,2.19l1.86.82-1.3,1.08s.29,2.09.29,2.12-1.3-1.24-1.3-1.24l-.89.1c.24.43.24,1-.43,1.86,0,.08-.79.4-.79.4l-2.06,2.78c-1.5,5.29-2.55,4.65-3.26,5.56-.08.36-1.64.76-1.35-1l1.75-6.59a5.19,5.19,0,0,0-.47-3.23,11,11,0,0,0-2.9-2C92.07,81.18,88.8,79,86.61,76a4.41,4.41,0,0,0-1.77-.7,2.06,2.06,0,0,1-1.43-.79A6.09,6.09,0,0,1,82,71.09a3.63,3.63,0,0,1,1.67-3.26A12.58,12.58,0,0,0,86.38,64c.65-.85,5.41-6.29,6.65-6.93l.11-.09h0a1.09,1.09,0,0,0,.32-1.09s0,0,0,0c-.34-3.34-.81-6.33-.88-9.74-.07-.39-.39-.94-.79-.6a6.47,6.47,0,0,1-1.61,1.28c-.84.68-.9.22-1.87.77S80.78,49.38,78.25,49c0,.07-2.39.82-2.39.82l-1.19,1.08,0,0a7,7,0,0,0,.94.56s2.27-.55,2.26-.52-1.26,1.51-1.21,1.54S77.94,54,78,54s-2.36-.2-2.36-.2L74,55.13l-.36-1.66-2-.72s1.7-.59,1.7-.59l.32-.84c-.5,0-1-.26-1.45-1.24a3.72,3.72,0,0,1,0-.89l-1.52-3.11c-4-3.77-2.95-4.41-3.43-5.45-.28-.24.08-1.81,1.54-.72l5,4.59A5.2,5.2,0,0,0,77,45.57a11,11,0,0,0,3.12-1.65c2.63-1.29,6.09-3.17,9.75-3.74.45-.4.79-.33,1.44-1.24a2.07,2.07,0,0,1,1.36-.9,6.11,6.11,0,0,1,3.69.3,3.64,3.64,0,0,1,2.12,3,12.54,12.54,0,0,0,2.12,4.16,63.06,63.06,0,0,1,3.05,8.79l.17-.14c0,.32.18,1.16.55,1.34l-.28.23.22.11c3.25,1.73,6.21,3,9.32,5,.37.15,1,.19.94-.33a6.47,6.47,0,0,1-.19-2c-.11-1.07.3-.88.38-2s2.69-7.3,4.39-9.21c0-.07.63-2.45.63-2.45l-.25-1.59a.18.18,0,0,1,0,0,7,7,0,0,0-1,.48s-.78,2.2-.8,2.17-.57-1.89-.63-1.86-2,.26-2,.27,1.46-1.87,1.46-1.87l-.2-2,1.58.61,1.71-1.29s-.44,1.75-.44,1.75l.53.73c.26-.43.79-.73,1.83-.53.07,0,.73.5.73.5l3.44.44c5.35-1.28,5.3-.05,6.44.11C132.46,42.52,133.58,43.68,131.87,44.31Z"/><path class="im_cls-2" d="M103.95,85.2l.89-.1s1.3,1.27,1.3,1.24-.29-2.12-.29-2.12l1.3-1.08-1.86-.82s-.91-2.22-.91-2.19-.75,1.83-.75,1.9-1.89-.36-1.93-.36,1.47,1.76,1.5,1.76a7.07,7.07,0,0,1-.06,1.1A1.61,1.61,0,0,1,103.95,85.2Z"/><path class="im_cls-3" d="M93.78,57.31l-.14,0a.06.06,0,0,1,0,0L93.13,57l-.11.09c-1.24.64-6,6.08-6.65,6.93a12.58,12.58,0,0,1-2.72,3.79A3.63,3.63,0,0,0,82,71.09a6.09,6.09,0,0,0,1.43,3.42,2.06,2.06,0,0,0,1.43.79,4.41,4.41,0,0,1,1.77.7c2.19,3,5.46,5.18,7.81,6.92a11,11,0,0,1,2.9,2,5.19,5.19,0,0,1,.47,3.23L96,94.76c-.29,1.8,1.27,1.39,1.35,1,.7-.92,1.75-.27,3.26-5.56l2.06-2.78s.79-.32.79-.4c.68-.81.68-1.42.43-1.86a1.61,1.61,0,0,0-.8-.67h0L101.61,84s-1.75-1.75-1.83-1.75c-.83-2.41-4.91-7.57-5.85-8.29a7,7,0,0,0-1.59-1.35c-1-.46-1.27-.61-1.85-.84s-.14-.73.17-1c3.18-1.73,5.71-3.66,8.75-5.61-1-1.24-1.31-5.93-1.31-5.93Zm6.79,32.6s-.37,1.19-.39,1.19l-3.2,1,.36-1.5C97.36,90.5,100.58,89.92,100.58,89.92ZM89.67,72.83c-.65.59-.79.63-1.18.25s-.51-.67-.83-.83a4.29,4.29,0,0,0-1.94-.07l-.67.25c-.32.11-.52.39-1.06.48s-.74,0-1-.46-.19-1.27.37-1.34a10.63,10.63,0,0,1,1.87.16l1.52,0c.8-.08,1-.38,1.11-.6.3-.46.51-.62.74-1s.88.37.9.37A2.07,2.07,0,0,1,89.67,72.83Z"/><path class="im_cls-2" d="M97,92.07l3.2-1s.39-1.19.39-1.19-3.21.59-3.23.65Z"/><path class="im_cls-4" d="M88.58,69.69c-.23.35-.44.51-.74,1-.13.22-.31.52-1.11.6l-1.52,0a10.63,10.63,0,0,0-1.87-.16c-.55.07-.74.76-.37,1.34s.46.5,1,.46.75-.37,1.06-.48l.67-.25a4.29,4.29,0,0,1,1.94.07c.32.16.44.37.83.83s.53.34,1.18-.25a2.07,2.07,0,0,0-.19-2.77S89,69.42,88.58,69.69Z"/><path class="im_cls-2" d="M119.67,42.11l-.53-.73s.47-1.76.44-1.75l-1.71,1.29-1.58-.61.2,2S115,44.22,115,44.2s2-.24,2-.27.62,1.83.63,1.86.82-2.14.8-2.17a7,7,0,0,1,1-.48A1.6,1.6,0,0,1,119.67,42.11Z"/><path class="im_cls-3" d="M132.11,42.62c-1.14-.16-1.1-1.4-6.44-.11l-3.44-.44s-.67-.54-.73-.5c-1-.19-1.57.11-1.83.53a1.6,1.6,0,0,0-.19,1,.18.18,0,0,0,0,0l.25,1.59s-.67,2.38-.63,2.45c-1.7,1.91-4.23,8-4.39,9.21s-.5.91-.38,2a6.47,6.47,0,0,0,.19,2c.07.52-.57.48-.94.33-3.11-2-6.07-3.23-9.32-5l-.22-.11c-1.4,1.14-2.69,2.25-4.11,3.39.11,1.94-.25,4,.74,6.16h-.44l.29.12c1.16.77,8.24,2.25,9.3,2.4a12.57,12.57,0,0,1,4.64.51,3.63,3.63,0,0,0,3.66-.14,6.1,6.1,0,0,0,2.28-2.92,2.06,2.06,0,0,0,0-1.63,4.43,4.43,0,0,1-.26-1.88c1.53-3.37,1.84-7.3,2.21-10.2a11.06,11.06,0,0,1,.33-3.52,5.21,5.21,0,0,1,2.59-2l6.6-1.71C133.58,43.68,132.46,42.52,132.11,42.62Zm-13.27,24c-.32.6-1,.78-1.35.33a10.64,10.64,0,0,1-.78-1.71L116,63.93c-.46-.66-.81-.66-1.07-.67-.55,0-.79-.14-1.21-.17-.42-.19-.11-.95-.12-1a2.06,2.06,0,0,1,2.32-1.52c.83.27.93.38.8.9a2.79,2.79,0,0,0-.32,1.13,4.35,4.35,0,0,0,.89,1.72s.55.46.55.46c.25.22.59.26.94.69S119.1,66.17,118.84,66.63Zm8.74-21.4c-.06,0-2.15-2.5-2.15-2.5s1.22-.26,1.23-.24l2.41,2.32Z"/><path class="im_cls-2" d="M125.43,42.73s2.09,2.51,2.15,2.5l1.48-.42-2.41-2.32S125.43,42.73,125.43,42.73Z"/><path class="im_cls-2" d="M117.8,64.83s-.54-.44-.55-.46a4.35,4.35,0,0,1-.89-1.72,2.79,2.79,0,0,1,.32-1.13c.14-.53,0-.63-.8-.9a2.06,2.06,0,0,0-2.32,1.52s-.3.78.12,1c.41,0,.66.13,1.21.17.25,0,.61,0,1.07.67l.77,1.32a10.64,10.64,0,0,0,.78,1.71c.33.45,1,.27,1.35-.33s.21-.65-.1-1.11S118.06,65,117.8,64.83Z"/><path class="im_cls-2" d="M73.36,52.17s-1.73.57-1.7.59l2,.72L74,55.13l1.58-1.28S78,54.06,78,54s-1.28-1.51-1.33-1.54S77.83,51,77.84,51s-2.24.49-2.26.52a7,7,0,0,1-.94-.56,1.61,1.61,0,0,1-1,.4Z"/><path class="im_cls-3" d="M103.61,54.28a63.06,63.06,0,0,0-3.05-8.79,12.54,12.54,0,0,1-2.12-4.16,3.64,3.64,0,0,0-2.12-3,6.11,6.11,0,0,0-3.69-.3,2.07,2.07,0,0,0-1.36.9c-.64.92-1,.85-1.44,1.24-3.66.57-7.11,2.46-9.75,3.74A11,11,0,0,1,77,45.57a5.2,5.2,0,0,1-3.08-1.07l-5-4.59c-1.46-1.09-1.82.48-1.54.72.49,1-.57,1.68,3.43,5.45l1.52,3.11a3.72,3.72,0,0,0,0,.89c.41,1,1,1.26,1.45,1.24a1.61,1.61,0,0,0,1-.4l0,0,1.19-1.08s2.36-.75,2.39-.82c2.53.38,9-.86,10.11-1.37s1-.08,1.87-.77a6.47,6.47,0,0,0,1.61-1.28c.4-.34.71.21.79.6.07,3.41.54,6.4.88,9.74.5.1,4.79,1.83,5.42,1.86A37.24,37.24,0,0,0,103.61,54.28ZM71,46.17s-.88-.88-.88-.9L70.79,42,72,43C72,43,71,46.17,71,46.17Zm24.62-6.64a10.6,10.6,0,0,1-1,1.58L94,42.48a1.18,1.18,0,0,0,0,1.26c.27.48.32.74.52,1.1s-.73.61-.74.63a2.07,2.07,0,0,1-2.54-1.11c-.23-.85-.2-1,.32-1.16a2.8,2.8,0,0,0,1.12-.35,4.32,4.32,0,0,0,1-1.69s.08-.71.08-.71a3.78,3.78,0,0,1,.06-1.17c.22-.51.35-.65.88-.69C95.32,38.52,95.85,39,95.66,39.53Z"/><path class="im_cls-3" d="M93.78,57.31l-.14-.06a.06.06,0,0,0,0,0Z"/><path class="im_cls-2" d="M70.17,45.27s.88.9.88.9S72,43,72,43l-1.17-1Z"/><path class="im_cls-2" d="M94.64,38.58c-.52,0-.66.18-.88.69a3.78,3.78,0,0,0-.06,1.17s-.07.69-.08.71a4.32,4.32,0,0,1-1,1.69,2.8,2.8,0,0,1-1.12.35c-.52.17-.54.31-.32,1.16a2.07,2.07,0,0,0,2.54,1.11s.82-.17.74-.63-.25-.62-.52-1.1a1.18,1.18,0,0,1,0-1.26l.68-1.36a10.6,10.6,0,0,0,1-1.58C95.85,39,95.32,38.52,94.64,38.58Z"/><path class="im_cls-2" d="M99.94,59.1c1.41-1.15,2.71-2.25,4.11-3.39l.28-.23c-.38-.18-.52-1-.55-1.34l-.17.14a37.24,37.24,0,0,1-4.68,3.51c-.64,0-4.92-1.75-5.42-1.86,0,0-.07,0,0,0A1.09,1.09,0,0,1,93.13,57h0l.51.23.14.06,4.31,1.9s.35,4.69,1.31,5.93l.1.12s.4,0,.74,0h.44C99.69,63.09,100,61,99.94,59.1Z"/></g></g></svg>
