<svg xmlns="http://www.w3.org/2000/svg" viewBox="0 0 200 134"><defs><style>.in_cls-1{fill:#fafafa;}.in_cls-2{fill:#21205f;}.in_cls-3{fill:#fff;}.in_cls-4{fill:#f89939;}.in_cls-5{fill:#1e8943;}</style></defs><title>Asset 81</title><g id="Layer_2" data-name="Layer 2"><g id="Layer_19" data-name="Layer 19"><path class="in_cls-1" d="M0,89.42H200V44.58H0Zm100-42.6A20.18,20.18,0,1,1,79.82,67,20.18,20.18,0,0,1,100,46.82Z"/><path class="in_cls-2" d="M100,87.18A20.18,20.18,0,1,0,79.82,67,20.18,20.18,0,0,0,100,87.18ZM82.27,65.8a1.12,1.12,0,0,0,.29-2.23c.07-.37.16-.73.25-1.1L93,65.76l3.44.61a3.58,3.58,0,0,1,.17-.6l-3.29-1.19L82.85,62.32q.15-.54.33-1.07A1.12,1.12,0,1,0,84,59.17c.17-.34.34-.67.53-1l9,5.81,3.16,1.48a3.66,3.66,0,0,1,.31-.54l-2.86-2L84.65,58q.28-.48.6-1a1.12,1.12,0,0,0,1.37-1.78c.25-.28.5-.56.77-.82l7.18,7.94,2.68,2.25a3.58,3.58,0,0,1,.44-.44l-2.25-2.68-7.94-7.18q.4-.4.82-.77a1.12,1.12,0,0,0,1.78-1.37q.47-.31,1-.6l4.88,9.53,2,2.86a3.65,3.65,0,0,1,.54-.31L97,60.56l-5.81-9c.32-.19.66-.36,1-.53a1.12,1.12,0,0,0,2.08-.86c.36-.12.71-.23,1.08-.33l2.25,10.46,1.19,3.29a3.59,3.59,0,0,1,.6-.17L98.76,60,95.47,49.81q.54-.14,1.1-.25a1.12,1.12,0,1,0,2.23-.29c.37,0,.75,0,1.12,0l-.54,10.69.3,3.49c.1,0,.21,0,.31,0s.21,0,.31,0l.3-3.49-.54-10.69q.56,0,1.12,0a1.12,1.12,0,1,0,2.23.29q.55.11,1.1.25L101.24,60l-.61,3.44a3.48,3.48,0,0,1,.6.17l1.19-3.29,2.25-10.46q.54.15,1.07.33a1.12,1.12,0,0,0,2.08.86c.34.17.67.34,1,.53l-5.81,9-1.48,3.16a3.59,3.59,0,0,1,.54.31l2-2.86L109,51.65c.32.19.64.39,1,.6a1.12,1.12,0,0,0,1.78,1.37c.28.25.56.5.82.77l-7.94,7.18-2.25,2.68a3.54,3.54,0,0,1,.44.44l2.68-2.25,7.18-7.94c.26.26.52.54.77.82a1.12,1.12,0,0,0,1.37,1.78q.31.47.6,1l-9.53,4.88-2.86,2a3.68,3.68,0,0,1,.31.54L106.44,64l9-5.81c.19.33.36.66.53,1a1.12,1.12,0,1,0,.86,2.08q.18.53.33,1.07l-10.47,2.25-3.29,1.19a3.67,3.67,0,0,1,.17.6l3.44-.61,10.19-3.29c.1.36.18.73.25,1.1a1.12,1.12,0,0,0,.29,2.23c0,.37,0,.75,0,1.12l-10.69-.54-3.49.3c0,.1,0,.2,0,.31s0,.21,0,.31l3.49.3,10.69-.54q0,.56,0,1.12a1.12,1.12,0,0,0-.29,2.23c-.07.37-.16.73-.25,1.1L107,68.24l-3.44-.61a3.7,3.7,0,0,1-.17.6l3.29,1.19,10.47,2.25q-.15.54-.33,1.07a1.12,1.12,0,1,0-.86,2.08q-.25.51-.53,1l-9-5.81-3.16-1.48a3.66,3.66,0,0,1-.31.54l2.86,2L115.35,76q-.28.49-.6,1a1.12,1.12,0,0,0-1.37,1.78q-.37.42-.77.82l-7.18-7.94-2.68-2.25a3.62,3.62,0,0,1-.44.44l2.25,2.68,7.94,7.18c-.27.27-.54.52-.82.77a1.12,1.12,0,0,0-1.78,1.37c-.31.21-.63.41-1,.6l-4.88-9.53-2-2.86a3.7,3.7,0,0,1-.54.31L103,73.44l5.81,9c-.33.19-.66.36-1,.53a1.12,1.12,0,1,0-2.08.86c-.35.12-.71.23-1.07.33l-2.25-10.47-1.19-3.29a3.53,3.53,0,0,1-.6.17l.61,3.44,3.29,10.19q-.54.14-1.1.25a1.12,1.12,0,0,0-2.23.29c-.37,0-.75,0-1.12,0l.54-10.69-.3-3.49c-.1,0-.2,0-.31,0s-.21,0-.31,0l-.3,3.49.54,10.69c-.38,0-.75,0-1.12,0a1.12,1.12,0,0,0-2.23-.29q-.55-.11-1.1-.25L98.76,74l.61-3.44a3.53,3.53,0,0,1-.6-.17l-1.19,3.29L95.32,84.15c-.36-.1-.72-.21-1.08-.33A1.12,1.12,0,1,0,92.17,83c-.34-.17-.67-.34-1-.53l5.81-9,1.48-3.16a3.69,3.69,0,0,1-.54-.31l-2,2.86L91,82.35q-.48-.28-1-.6a1.12,1.12,0,0,0-1.78-1.37c-.28-.25-.56-.5-.82-.77l7.94-7.18,2.25-2.68a3.7,3.7,0,0,1-.44-.44l-2.68,2.25-7.18,7.94q-.4-.4-.77-.82a1.12,1.12,0,0,0-1.37-1.78q-.31-.47-.6-1l9.53-4.88,2.86-2a3.63,3.63,0,0,1-.31-.54L93.56,70l-9,5.81q-.28-.49-.53-1a1.12,1.12,0,1,0-.86-2.08q-.18-.53-.33-1.07l10.47-2.25,3.29-1.19a3.58,3.58,0,0,1-.17-.6L93,68.24,82.81,71.53q-.14-.54-.25-1.1a1.12,1.12,0,0,0-.29-2.23q0-.56,0-1.12l10.69.54,3.49-.3c0-.11,0-.21,0-.31s0-.21,0-.31l-3.49-.3-10.69.54C82.23,66.55,82.24,66.17,82.27,65.8Z"/><path class="in_cls-3" d="M99.38,59.92l.54-10.69c-.38,0-.75,0-1.12,0a1.12,1.12,0,1,1-2.23.29q-.55.11-1.1.25L98.76,60l.61,3.44.32,0Z"/><path class="in_cls-3" d="M104.07,72.83,109,82.35c.32-.19.64-.39,1-.6a1.12,1.12,0,0,1,1.78-1.37c.28-.25.56-.5.82-.77l-7.94-7.18-2.25-2.68c-.08.07-.16.14-.25.21Z"/><path class="in_cls-3" d="M105.44,71.57l7.18,7.94q.4-.4.77-.82a1.12,1.12,0,0,1,1.37-1.78q.31-.47.6-1l-9.53-4.88-2.86-2c-.06.09-.13.16-.2.25Z"/><path class="in_cls-3" d="M102.43,73.68l2.25,10.47c.36-.1.72-.21,1.07-.33a1.12,1.12,0,1,1,2.08-.86c.34-.17.67-.34,1-.53l-5.81-9-1.48-3.16-.3.12Z"/><path class="in_cls-3" d="M106.44,70l9,5.81q.28-.49.53-1a1.12,1.12,0,1,1,.86-2.08q.18-.53.33-1.07l-10.47-2.25-3.29-1.19c0,.1-.08.2-.12.3Z"/><path class="in_cls-3" d="M100.61,74.08l-.54,10.69c.38,0,.75,0,1.12,0a1.12,1.12,0,0,1,2.23-.29q.55-.11,1.1-.25L101.24,74l-.61-3.44-.32,0Z"/><path class="in_cls-3" d="M107,68.24l10.19,3.29c.1-.36.18-.73.25-1.1a1.12,1.12,0,0,1,.29-2.23q0-.56,0-1.12l-10.69.54-3.49-.3c0,.11,0,.21,0,.32Z"/><path class="in_cls-3" d="M98.76,74,95.47,84.19q.54.14,1.1.25a1.12,1.12,0,0,1,2.23.29c.37,0,.75,0,1.12,0l-.54-10.69.3-3.49-.32,0Z"/><path class="in_cls-3" d="M107.08,66.38l10.69.54c0-.37,0-.75,0-1.12a1.12,1.12,0,0,1-.29-2.23c-.07-.37-.16-.73-.25-1.1L107,65.76l-3.44.61c0,.1,0,.21,0,.32Z"/><path class="in_cls-3" d="M93.32,69.43,82.85,71.68q.15.54.33,1.07A1.12,1.12,0,1,1,84,74.83q.25.51.53,1l9-5.81,3.16-1.48c0-.1-.08-.2-.12-.3Z"/><path class="in_cls-3" d="M94.17,71.07,84.65,76q.28.49.6,1a1.12,1.12,0,0,1,1.37,1.78q.37.42.77.82l7.18-7.94,2.68-2.25c-.07-.08-.14-.16-.2-.25Z"/><path class="in_cls-3" d="M95.43,72.44l-7.94,7.18c.27.27.54.52.82.77a1.12,1.12,0,0,1,1.78,1.37q.47.32,1,.6l4.88-9.53,2-2.86c-.09-.06-.17-.14-.25-.2Z"/><path class="in_cls-3" d="M97,73.44l-5.81,9c.32.19.66.36,1,.53a1.12,1.12,0,1,1,2.08.86c.36.12.71.23,1.08.33l2.25-10.47,1.19-3.29-.3-.12Z"/><path class="in_cls-3" d="M92.92,67.62l-10.69-.54q0,.56,0,1.12a1.12,1.12,0,0,1,.29,2.23q.11.55.25,1.1L93,68.24l3.44-.61c0-.1,0-.21,0-.32Z"/><path class="in_cls-3" d="M94.56,62.43l-7.18-7.94c-.26.26-.52.54-.77.82a1.12,1.12,0,0,1-1.37,1.78q-.31.47-.6,1l9.53,4.88,2.86,2c.06-.09.13-.17.2-.25Z"/><path class="in_cls-3" d="M106.68,64.57l10.47-2.25q-.15-.54-.33-1.07a1.12,1.12,0,1,1-.86-2.08c-.17-.34-.34-.67-.53-1l-9,5.81-3.16,1.48c0,.1.08.2.12.3Z"/><path class="in_cls-3" d="M95.93,61.17,91,51.65q-.48.28-1,.6a1.12,1.12,0,0,1-1.78,1.37q-.42.37-.82.77l7.94,7.18,2.25,2.68c.08-.07.16-.14.25-.2Z"/><path class="in_cls-3" d="M93.56,64l-9-5.81c-.19.33-.36.66-.53,1a1.12,1.12,0,1,1-.86,2.08q-.18.53-.33,1.07l10.47,2.25,3.29,1.19c0-.1.07-.2.12-.3Z"/><path class="in_cls-3" d="M97.57,60.32,95.32,49.85c-.36.1-.72.21-1.08.33a1.12,1.12,0,0,1-2.08.86c-.34.17-.67.34-1,.53l5.81,9,1.48,3.16.3-.12Z"/><path class="in_cls-3" d="M96.4,66.69c0-.11,0-.21,0-.32L93,65.76,82.81,62.47c-.1.36-.18.73-.25,1.1a1.12,1.12,0,0,1-.29,2.23c0,.37,0,.75,0,1.12l10.69-.54Z"/><path class="in_cls-3" d="M101.24,60l3.29-10.19q-.54-.14-1.1-.25a1.12,1.12,0,1,1-2.23-.29q-.56,0-1.12,0l.54,10.69-.3,3.49.32,0Z"/><path class="in_cls-3" d="M105.83,62.93,115.35,58q-.28-.48-.6-1a1.12,1.12,0,0,1-1.37-1.78c-.25-.28-.5-.56-.77-.82l-7.18,7.94-2.68,2.25c.07.08.14.16.2.25Z"/><path class="in_cls-3" d="M104.57,61.56l7.94-7.18c-.27-.26-.54-.52-.82-.77a1.12,1.12,0,0,1-1.78-1.37c-.31-.21-.63-.41-1-.6l-4.88,9.53-2,2.86c.09.06.17.14.25.2Z"/><path class="in_cls-3" d="M103,60.56l5.81-9c-.33-.19-.66-.36-1-.53a1.12,1.12,0,0,1-2.08-.86q-.53-.18-1.07-.33l-2.25,10.46-1.19,3.29.3.12Z"/><path class="in_cls-2" d="M96.37,67c0,.11,0,.21,0,.31s0,.21,0,.32a3.58,3.58,0,0,0,.17.6c0,.1.07.2.12.3a3.63,3.63,0,0,0,.31.54c.06.09.13.17.2.25a3.7,3.7,0,0,0,.44.44c.08.07.16.14.25.2a3.69,3.69,0,0,0,.54.31l.3.12a3.53,3.53,0,0,0,.6.17l.32,0c.1,0,.21,0,.31,0s.21,0,.31,0l.32,0a3.53,3.53,0,0,0,.6-.17l.3-.12a3.7,3.7,0,0,0,.54-.31c.09-.06.17-.14.25-.21a3.62,3.62,0,0,0,.44-.44c.07-.08.14-.16.2-.25a3.66,3.66,0,0,0,.31-.54c0-.1.08-.2.12-.3a3.7,3.7,0,0,0,.17-.6c0-.1,0-.21,0-.32s0-.21,0-.31,0-.21,0-.31,0-.21,0-.32a3.67,3.67,0,0,0-.17-.6c0-.1-.08-.2-.12-.3a3.68,3.68,0,0,0-.31-.54c-.06-.09-.13-.17-.2-.25a3.54,3.54,0,0,0-.44-.44c-.08-.07-.16-.14-.25-.2a3.59,3.59,0,0,0-.54-.31l-.3-.12a3.48,3.48,0,0,0-.6-.17l-.32,0c-.1,0-.2,0-.31,0s-.21,0-.31,0l-.32,0a3.59,3.59,0,0,0-.6.17l-.3.12a3.65,3.65,0,0,0-.54.31c-.09.06-.17.13-.25.2a3.58,3.58,0,0,0-.44.44c-.07.08-.14.16-.2.25a3.66,3.66,0,0,0-.31.54c0,.1-.08.2-.12.3a3.58,3.58,0,0,0-.17.6c0,.1,0,.21,0,.32S96.37,66.89,96.37,67Z"/><path class="in_cls-4" d="M183,0H17A17,17,0,0,0,0,17V44.58H200V17A17,17,0,0,0,183,0Z"/><path class="in_cls-5" d="M0,117a17,17,0,0,0,17,17H183a17,17,0,0,0,17-17V89.42H0Z"/></g></g></svg>
