<svg xmlns="http://www.w3.org/2000/svg" viewBox="0 0 200 134"><defs><style>.ir_cls-1{fill:#fafafa;}.ir_cls-2{fill:#269f49;}.ir_cls-3{fill:#d91f26;}.ir_cls-4{fill:#fff;}</style></defs><title>Asset 83</title><g id="Layer_2" data-name="Layer 2"><g id="Layer_17" data-name="Layer 17"><path class="ir_cls-1" d="M196.87,44.67H195.8v1.07h-9.63V44.67H185.1v1.07h-9.63V44.67h-1.07v1.07h-9.63V44.67h-1.07v1.07h-9.63V44.67H153v1.07h-9.63V44.67h-1.07v1.07h-9.63V44.67h-1.07v1.07h-9.63V44.67h-1.07v1.07h-9.63V44.67h-1.07v1.07h-9.63V44.67H99.46v1.07H89.83V44.67H88.76v1.07H79.13V44.67H78.06v1.07H68.42V44.67H67.35v1.07H57.72V44.67H56.65v1.07H47V44.67H45.95v1.07H36.31V44.67H35.24v1.07H25.61V44.67H24.54v1.07H14.9V44.67H13.83v1.07H4.2V44.67H3.13v1.07H0V88.26H3.13v1.07H4.2V88.26h9.63v1.07H14.9V88.26h9.63v1.07h1.07V88.26h9.63v1.07h1.07V88.26h9.63v1.07H47V88.26h9.63v1.07h1.07V88.26h9.63v1.07h1.07V88.26h9.63v1.07h1.07V88.26h9.64v1.07h1.07V88.26h9.63v1.07h1.07V88.26h9.63v1.07h1.07V88.26h9.63v1.07h1.07V88.26h9.63v1.07h1.07V88.26h9.63v1.07h1.07V88.26H153v1.07h1.07V88.26h9.63v1.07h1.07V88.26h9.63v1.07h1.07V88.26h9.63v1.07h1.07V88.26h9.63v1.07h1.07V88.26H200V45.74h-3.13ZM95.11,47.43a2.65,2.65,0,0,0,.18.26,3.36,3.36,0,0,0,4.71.65l.26.18a3.37,3.37,0,0,0,4.63-1.1A2.91,2.91,0,0,1,100,50.18a2.9,2.9,0,0,1-4.89-2.75ZM81.87,59a15.74,15.74,0,0,1,9.72-7.71A19.88,19.88,0,0,0,87.21,79q.48.66,1,1.28A15.75,15.75,0,0,1,81.87,59ZM102,84.35v.24l-2,2.3-2-2.3v-.24a18.32,18.32,0,0,1-10.24-1,19.86,19.86,0,0,0,8.76-1,18.43,18.43,0,0,1-2.65-30.55,19.87,19.87,0,0,0,4.05,27.61l-.38-26.69,2.45-2,2.45,2-.38,26.69a19.87,19.87,0,0,0,4.06-27.61,18.43,18.43,0,0,1-2.65,30.55,19.86,19.86,0,0,0,8.76,1A18.32,18.32,0,0,1,102,84.35Zm9.78-4q.54-.62,1-1.28a19.88,19.88,0,0,0-4.38-27.77,15.75,15.75,0,0,1,3.37,29.05Z"/><path class="ir_cls-2" d="M183,0H17A17,17,0,0,0,0,17V37.18H1v4.28H2.06V37.18H3.13v5.35H0V43.6H3.13v1.07H4.2V43.6h9.63v1.07H14.9V43.6h9.63v1.07h1.07V43.6h9.63v1.07h1.07V43.6h9.63v1.07H47V43.6h9.63v1.07h1.07V43.6h9.63v1.07h1.07V43.6h9.63v1.07h1.07V43.6h9.64v1.07h1.07V43.6h9.63v1.07h1.07V43.6h9.63v1.07h1.07V43.6h9.63v1.07h1.07V43.6h9.63v1.07h1.07V43.6h9.63v1.07h1.07V43.6H153v1.07h1.07V43.6h9.63v1.07h1.07V43.6h9.63v1.07h1.07V43.6h9.63v1.07h1.07V43.6h9.63v1.07h1.07V43.6H200V42.53h-1V41.46h1V40.39h-2.06v2.14h-1.07V39.32H200V38.25h-3.13V37.18H200V17A17,17,0,0,0,183,0ZM7.41,42.53H6.34V41.46H7.41Zm6.42,0H8.48V40.39H5.27v2.14H4.2V39.32H9.55v2.14h3.21V40.39H10.62V39.32h3.21ZM4.2,38.25V37.18H18.11v1.07Zm20.34,4.28H19.18V40.39H16v1.07h2.14v1.07H14.9V39.32h4.28V37.18h1.07v4.28h1.07V37.18h1.07v4.28h1.07V37.18h1.07Zm4.28,0H27.75V41.46h1.07Zm6.42,0H29.89V40.39H26.68v2.14H25.61V39.32H31v2.14h3.21V40.39H32V39.32h3.21Zm-9.63-4.28V37.18H39.52v1.07Zm20.34,4.28H40.59V40.39H37.38v1.07h2.14v1.07H36.31V39.32h4.28V37.18h1.07v4.28h1.07V37.18H43.8v4.28h1.07V37.18h1.07Zm4.28,0H49.16V41.46h1.07Zm6.42,0H51.3V40.39H48.09v2.14H47V39.32h5.35v2.14h3.21V40.39H53.44V39.32h3.21ZM47,38.25V37.18H60.93v1.07Zm20.34,4.28H62V40.39H58.79v1.07h2.14v1.07H57.72V39.32H62V37.18h1.07v4.28h1.07V37.18h1.07v4.28h1.07V37.18h1.07Zm4.28,0H70.56V41.46h1.07Zm6.42,0H72.71V40.39H69.49v2.14H68.42V39.32h5.35v2.14H77V40.39H74.85V39.32h3.21Zm-9.63-4.28V37.18H82.34v1.07Zm20.34,4.28H83.41V40.39H80.2v1.07h2.14v1.07H79.13V39.32h4.29V37.18h1.07v4.28h1.07V37.18h1.07v4.28h1.07V37.18h1.07Zm4.28,0H92V41.46H93Zm6.42,0H94.11V40.39H90.9v2.14H89.83V39.32h5.35v2.14h3.21V40.39H96.25V39.32h3.21Zm-9.63-4.28V37.18h13.92v1.07Zm20.34,4.28h-5.35V40.39h-3.21v1.07h2.14v1.07h-3.21V39.32h4.28V37.18h1.07v4.28H107V37.18H108v4.28h1.07V37.18h1.07Zm4.28,0h-1.07V41.46h1.07Zm6.42,0h-5.35V40.39h-3.21v2.14h-1.07V39.32h5.35v2.14h3.21V40.39h-2.14V39.32h3.21Zm-9.63-4.28V37.18h13.91v1.07Zm20.34,4.28h-5.35V40.39H123v1.07h2.14v1.07h-3.21V39.32h4.28V37.18h1.07v4.28h1.07V37.18h1.07v4.28h1.07V37.18h1.07Zm4.28,0h-1.07V41.46h1.07Zm6.42,0h-5.35V40.39h-3.21v2.14h-1.07V39.32H138v2.14h3.21V40.39h-2.14V39.32h3.21Zm-9.63-4.28V37.18h13.92v1.07ZM153,42.53h-5.35V40.39h-3.21v1.07h2.14v1.07h-3.21V39.32h4.28V37.18h1.07v4.28h1.07V37.18h1.07v4.28h1.07V37.18H153Zm4.28,0H156.2V41.46h1.07Zm6.42,0h-5.35V40.39h-3.21v2.14h-1.07V39.32h5.35v2.14h3.21V40.39h-2.14V39.32h3.21Zm-9.63-4.28V37.18H168v1.07Zm20.34,4.28H169V40.39h-3.21v1.07H168v1.07h-3.21V39.32H169V37.18h1.07v4.28h1.07V37.18h1.07v4.28h1.07V37.18h1.07Zm4.28,0H177.6V41.46h1.07Zm6.42,0h-5.35V40.39h-3.21v2.14h-1.07V39.32h5.35v2.14H184V40.39h-2.14V39.32h3.21Zm-9.63-4.28V37.18h13.92v1.07Zm20.34,4.28h-5.35V40.39h-3.21v1.07h2.14v1.07h-3.21V39.32h4.28V37.18h1.07v4.28h1.07V37.18h1.07v4.28h1.07V37.18h1.07Z"/><path class="ir_cls-3" d="M196.87,89.33H195.8V90.4h-9.63V89.33H185.1V90.4h-9.63V89.33h-1.07V90.4h-9.63V89.33h-1.07V90.4h-9.63V89.33H153V90.4h-9.63V89.33h-1.07V90.4h-9.63V89.33h-1.07V90.4h-9.63V89.33h-1.07V90.4h-9.63V89.33h-1.07V90.4h-9.63V89.33H99.46V90.4H89.83V89.33H88.76V90.4H79.13V89.33H78.06V90.4H68.42V89.33H67.35V90.4H57.72V89.33H56.65V90.4H47V89.33H45.95V90.4H36.31V89.33H35.24V90.4H25.61V89.33H24.54V90.4H14.9V89.33H13.83V90.4H4.2V89.33H3.13V90.4H0v1.07H1v4.28H2.06V91.47H3.13v5.35H0V117a17,17,0,0,0,17,17H183a17,17,0,0,0,17-17V96.82h-1V95.75h1V94.68h-2.06v2.14h-1.07V93.61H200V92.54h-3.13V91.47H200V90.4h-3.13ZM4.2,91.47H18.11v1.07H4.2Zm3.21,5.35H6.34V95.75H7.41Zm6.42,0H8.48V94.68H5.27v2.14H4.2V93.61H9.55v2.14h3.21V94.68H10.62V93.61h3.21Zm10.7,0H19.18V94.68H16v1.07h2.14v1.07H14.9V93.61h4.28V91.47h1.07v4.28h1.07V91.47h1.07v4.28h1.07V91.47h1.07Zm1.07-5.35H39.52v1.07H25.61Zm3.21,5.35H27.75V95.75h1.07Zm6.42,0H29.89V94.68H26.68v2.14H25.61V93.61H31v2.14h3.21V94.68H32V93.61h3.21Zm10.71,0H40.59V94.68H37.38v1.07h2.14v1.07H36.31V93.61h4.28V91.47h1.07v4.28h1.07V91.47H43.8v4.28h1.07V91.47h1.07ZM47,91.47H60.93v1.07H47Zm3.21,5.35H49.16V95.75h1.07Zm6.42,0H51.3V94.68H48.09v2.14H47V93.61h5.35v2.14h3.21V94.68H53.44V93.61h3.21Zm10.71,0H62V94.68H58.79v1.07h2.14v1.07H57.72V93.61H62V91.47h1.07v4.28h1.07V91.47h1.07v4.28h1.07V91.47h1.07Zm1.07-5.35H82.34v1.07H68.42Zm3.21,5.35H70.56V95.75h1.07Zm6.42,0H72.71V94.68H69.49v2.14H68.42V93.61h5.35v2.14H77V94.68H74.85V93.61h3.21Zm10.71,0H83.41V94.68H80.2v1.07h2.14v1.07H79.13V93.61h4.29V91.47h1.07v4.28h1.07V91.47h1.07v4.28h1.07V91.47h1.07Zm1.07-5.35h13.92v1.07H89.83ZM93,96.82H92V95.75H93Zm6.42,0H94.11V94.68H90.9v2.14H89.83V93.61h5.35v2.14h3.21V94.68H96.25V93.61h3.21Zm10.7,0h-5.35V94.68h-3.21v1.07h2.14v1.07h-3.21V93.61h4.28V91.47h1.07v4.28H107V91.47H108v4.28h1.07V91.47h1.07Zm1.07-5.35h13.91v1.07H111.24Zm3.21,5.35h-1.07V95.75h1.07Zm6.42,0h-5.35V94.68h-3.21v2.14h-1.07V93.61h5.35v2.14h3.21V94.68h-2.14V93.61h3.21Zm10.7,0h-5.35V94.68H123v1.07h2.14v1.07h-3.21V93.61h4.28V91.47h1.07v4.28h1.07V91.47h1.07v4.28h1.07V91.47h1.07Zm1.07-5.35h13.92v1.07H132.65Zm3.21,5.35h-1.07V95.75h1.07Zm6.42,0h-5.35V94.68h-3.21v2.14h-1.07V93.61H138v2.14h3.21V94.68h-2.14V93.61h3.21Zm10.71,0h-5.35V94.68h-3.21v1.07h2.14v1.07h-3.21V93.61h4.28V91.47h1.07v4.28h1.07V91.47h1.07v4.28h1.07V91.47H153Zm1.07-5.35H168v1.07H154.06Zm3.21,5.35H156.2V95.75h1.07Zm6.42,0h-5.35V94.68h-3.21v2.14h-1.07V93.61h5.35v2.14h3.21V94.68h-2.14V93.61h3.21Zm10.7,0H169V94.68h-3.21v1.07H168v1.07h-3.21V93.61H169V91.47h1.07v4.28h1.07V91.47h1.07v4.28h1.07V91.47h1.07Zm1.07-5.35h13.92v1.07H175.46Zm3.21,5.35H177.6V95.75h1.07Zm6.42,0h-5.35V94.68h-3.21v2.14h-1.07V93.61h5.35v2.14H184V94.68h-2.14V93.61h3.21Zm10.7,0h-5.35V94.68h-3.21v1.07h2.14v1.07h-3.21V93.61h4.28V91.47h1.07v4.28h1.07V91.47h1.07v4.28h1.07V91.47h1.07Z"/><path class="ir_cls-3" d="M100,80.84a20,20,0,0,0,1.84-1.19l.22-.18.38-26.69-2.45-2-2.45,2,.38,26.69.22.18A20,20,0,0,0,100,80.84Z"/><path class="ir_cls-3" d="M98,84.35v.24l2,2.3,2-2.3v-.24a18.4,18.4,0,0,1-2-.48A18.4,18.4,0,0,1,98,84.35Z"/><path class="ir_cls-3" d="M97.2,51a2.91,2.91,0,0,0,2.8-.79,2.91,2.91,0,0,0,4.89-2.75,3.37,3.37,0,0,1-4.63,1.1l-.26-.18a3.36,3.36,0,0,1-4.71-.65,2.65,2.65,0,0,1-.18-.26A2.9,2.9,0,0,0,97.2,51Z"/><path class="ir_cls-3" d="M96.53,82.41a19.86,19.86,0,0,1-8.76,1,18.67,18.67,0,0,0,12.23.5A18.5,18.5,0,0,1,96.53,82.41Z"/><path class="ir_cls-3" d="M100,80.84a19.79,19.79,0,0,0,3.47,1.57,18.43,18.43,0,0,0,2.65-30.55,19.87,19.87,0,0,1-4.06,27.61l-.22.18A20,20,0,0,1,100,80.84Z"/><path class="ir_cls-3" d="M103.47,82.41A19.79,19.79,0,0,1,100,80.84a20,20,0,0,1-1.84-1.19l-.22-.18a19.87,19.87,0,0,1-4.05-27.61,18.43,18.43,0,0,0,18.35,31.5A19.86,19.86,0,0,1,103.47,82.41Z"/><path class="ir_cls-3" d="M108.41,51.25A19.88,19.88,0,0,1,112.79,79q-.48.66-1,1.28a15.75,15.75,0,0,0-3.37-29.05Z"/><path class="ir_cls-3" d="M87.21,79a19.88,19.88,0,0,1,4.38-27.77A15.75,15.75,0,0,0,88.22,80.3Q87.69,79.68,87.21,79Z"/><polygon class="ir_cls-4" points="3.13 37.18 2.06 37.18 2.06 41.46 0.99 41.46 0.99 37.18 0 37.18 0 42.53 3.13 42.53 3.13 37.18"/><polygon class="ir_cls-4" points="23.46 41.46 22.39 41.46 22.39 37.18 21.32 37.18 21.32 41.46 20.25 41.46 20.25 37.18 19.18 37.18 19.18 39.32 14.9 39.32 14.9 42.53 18.11 42.53 18.11 41.46 15.97 41.46 15.97 40.39 19.18 40.39 19.18 42.53 24.54 42.53 24.54 37.18 23.46 37.18 23.46 41.46"/><rect class="ir_cls-4" x="6.34" y="41.46" width="1.07" height="1.07"/><polygon class="ir_cls-4" points="10.62 40.39 12.76 40.39 12.76 41.46 9.55 41.46 9.55 39.32 4.2 39.32 4.2 42.53 5.27 42.53 5.27 40.39 8.48 40.39 8.48 42.53 13.83 42.53 13.83 39.32 10.62 39.32 10.62 40.39"/><rect class="ir_cls-4" x="4.2" y="37.18" width="13.91" height="1.07"/><rect class="ir_cls-4" x="25.61" y="37.18" width="13.92" height="1.07"/><rect class="ir_cls-4" x="27.75" y="41.46" width="1.07" height="1.07"/><polygon class="ir_cls-4" points="44.87 41.46 43.8 41.46 43.8 37.18 42.73 37.18 42.73 41.46 41.66 41.46 41.66 37.18 40.59 37.18 40.59 39.32 36.31 39.32 36.31 42.53 39.52 42.53 39.52 41.46 37.38 41.46 37.38 40.39 40.59 40.39 40.59 42.53 45.95 42.53 45.95 37.18 44.87 37.18 44.87 41.46"/><polygon class="ir_cls-4" points="32.03 40.39 34.17 40.39 34.17 41.46 30.96 41.46 30.96 39.32 25.61 39.32 25.61 42.53 26.68 42.53 26.68 40.39 29.89 40.39 29.89 42.53 35.24 42.53 35.24 39.32 32.03 39.32 32.03 40.39"/><rect class="ir_cls-4" x="47.01" y="37.18" width="13.92" height="1.07"/><polygon class="ir_cls-4" points="66.28 41.46 65.21 41.46 65.21 37.18 64.14 37.18 64.14 41.46 63.07 41.46 63.07 37.18 62 37.18 62 39.32 57.72 39.32 57.72 42.53 60.93 42.53 60.93 41.46 58.79 41.46 58.79 40.39 62 40.39 62 42.53 67.35 42.53 67.35 37.18 66.28 37.18 66.28 41.46"/><polygon class="ir_cls-4" points="53.44 40.39 55.58 40.39 55.58 41.46 52.37 41.46 52.37 39.32 47.01 39.32 47.01 42.53 48.09 42.53 48.09 40.39 51.3 40.39 51.3 42.53 56.65 42.53 56.65 39.32 53.44 39.32 53.44 40.39"/><rect class="ir_cls-4" x="49.16" y="41.46" width="1.07" height="1.07"/><polygon class="ir_cls-4" points="74.85 40.39 76.98 40.39 76.98 41.46 73.78 41.46 73.78 39.32 68.42 39.32 68.42 42.53 69.49 42.53 69.49 40.39 72.7 40.39 72.7 42.53 78.06 42.53 78.06 39.32 74.85 39.32 74.85 40.39"/><rect class="ir_cls-4" x="70.56" y="41.46" width="1.07" height="1.07"/><rect class="ir_cls-4" x="68.42" y="37.18" width="13.91" height="1.07"/><polygon class="ir_cls-4" points="87.69 41.46 86.62 41.46 86.62 37.18 85.55 37.18 85.55 41.46 84.48 41.46 84.48 37.18 83.41 37.18 83.41 39.32 79.13 39.32 79.13 42.53 82.34 42.53 82.34 41.46 80.2 41.46 80.2 40.39 83.41 40.39 83.41 42.53 88.76 42.53 88.76 37.18 87.69 37.18 87.69 41.46"/><polygon class="ir_cls-4" points="109.1 41.46 108.03 41.46 108.03 37.18 106.96 37.18 106.96 41.46 105.89 41.46 105.89 37.18 104.82 37.18 104.82 39.32 100.53 39.32 100.53 42.53 103.75 42.53 103.75 41.46 101.61 41.46 101.61 40.39 104.82 40.39 104.82 42.53 110.17 42.53 110.17 37.18 109.1 37.18 109.1 41.46"/><rect class="ir_cls-4" x="89.83" y="37.18" width="13.92" height="1.07"/><polygon class="ir_cls-4" points="96.25 40.39 98.39 40.39 98.39 41.46 95.18 41.46 95.18 39.32 89.83 39.32 89.83 42.53 90.9 42.53 90.9 40.39 94.11 40.39 94.11 42.53 99.47 42.53 99.47 39.32 96.25 39.32 96.25 40.39"/><rect class="ir_cls-4" x="91.97" y="41.46" width="1.07" height="1.07"/><rect class="ir_cls-4" x="113.38" y="41.46" width="1.07" height="1.07"/><polygon class="ir_cls-4" points="130.51 41.46 129.44 41.46 129.44 37.18 128.37 37.18 128.37 41.46 127.29 41.46 127.29 37.18 126.22 37.18 126.22 39.32 121.94 39.32 121.94 42.53 125.15 42.53 125.15 41.46 123.01 41.46 123.01 40.39 126.22 40.39 126.22 42.53 131.58 42.53 131.58 37.18 130.51 37.18 130.51 41.46"/><polygon class="ir_cls-4" points="117.66 40.39 119.8 40.39 119.8 41.46 116.59 41.46 116.59 39.32 111.24 39.32 111.24 42.53 112.31 42.53 112.31 40.39 115.52 40.39 115.52 42.53 120.87 42.53 120.87 39.32 117.66 39.32 117.66 40.39"/><rect class="ir_cls-4" x="111.24" y="37.18" width="13.91" height="1.07"/><polygon class="ir_cls-4" points="151.91 41.46 150.84 41.46 150.84 37.18 149.77 37.18 149.77 41.46 148.7 41.46 148.7 37.18 147.63 37.18 147.63 39.32 143.35 39.32 143.35 42.53 146.56 42.53 146.56 41.46 144.42 41.46 144.42 40.39 147.63 40.39 147.63 42.53 152.98 42.53 152.98 37.18 151.91 37.18 151.91 41.46"/><polygon class="ir_cls-4" points="139.07 40.39 141.21 40.39 141.21 41.46 138 41.46 138 39.32 132.65 39.32 132.65 42.53 133.72 42.53 133.72 40.39 136.93 40.39 136.93 42.53 142.28 42.53 142.28 39.32 139.07 39.32 139.07 40.39"/><rect class="ir_cls-4" x="134.79" y="41.46" width="1.07" height="1.07"/><rect class="ir_cls-4" x="132.65" y="37.18" width="13.92" height="1.07"/><rect class="ir_cls-4" x="154.06" y="37.18" width="13.91" height="1.07"/><polygon class="ir_cls-4" points="160.48 40.39 162.62 40.39 162.62 41.46 159.41 41.46 159.41 39.32 154.06 39.32 154.06 42.53 155.13 42.53 155.13 40.39 158.34 40.39 158.34 42.53 163.69 42.53 163.69 39.32 160.48 39.32 160.48 40.39"/><rect class="ir_cls-4" x="156.2" y="41.46" width="1.07" height="1.07"/><polygon class="ir_cls-4" points="173.32 41.46 172.25 41.46 172.25 37.18 171.18 37.18 171.18 41.46 170.11 41.46 170.11 37.18 169.04 37.18 169.04 39.32 164.76 39.32 164.76 42.53 167.97 42.53 167.97 41.46 165.83 41.46 165.83 40.39 169.04 40.39 169.04 42.53 174.39 42.53 174.39 37.18 173.32 37.18 173.32 41.46"/><polygon class="ir_cls-4" points="194.73 41.46 193.66 41.46 193.66 37.18 192.59 37.18 192.59 41.46 191.52 41.46 191.52 37.18 190.45 37.18 190.45 39.32 186.17 39.32 186.17 42.53 189.38 42.53 189.38 41.46 187.24 41.46 187.24 40.39 190.45 40.39 190.45 42.53 195.8 42.53 195.8 37.18 194.73 37.18 194.73 41.46"/><polygon class="ir_cls-4" points="181.88 40.39 184.03 40.39 184.03 41.46 180.82 41.46 180.82 39.32 175.46 39.32 175.46 42.53 176.53 42.53 176.53 40.39 179.74 40.39 179.74 42.53 185.1 42.53 185.1 39.32 181.88 39.32 181.88 40.39"/><rect class="ir_cls-4" x="175.46" y="37.18" width="13.92" height="1.07"/><rect class="ir_cls-4" x="177.6" y="41.46" width="1.07" height="1.07"/><rect class="ir_cls-4" x="196.87" y="37.18" width="3.13" height="1.07"/><polygon class="ir_cls-4" points="196.87 42.53 197.94 42.53 197.94 40.39 200 40.39 200 39.32 196.87 39.32 196.87 42.53"/><rect class="ir_cls-4" x="199.01" y="41.46" width="0.99" height="1.07"/><polygon class="ir_cls-4" points="3.13 44.67 3.13 43.6 0 43.6 0 45.74 3.13 45.74 3.13 44.67"/><polygon class="ir_cls-4" points="13.83 45.74 13.83 44.67 13.83 43.6 4.2 43.6 4.2 44.67 4.2 45.74 13.83 45.74"/><polygon class="ir_cls-4" points="24.54 45.74 24.54 44.67 24.54 43.6 14.9 43.6 14.9 44.67 14.9 45.74 24.54 45.74"/><polygon class="ir_cls-4" points="35.24 45.74 35.24 44.67 35.24 43.6 25.61 43.6 25.61 44.67 25.61 45.74 35.24 45.74"/><polygon class="ir_cls-4" points="45.95 45.74 45.95 44.67 45.95 43.6 36.31 43.6 36.31 44.67 36.31 45.74 45.95 45.74"/><polygon class="ir_cls-4" points="56.65 45.74 56.65 44.67 56.65 43.6 47.01 43.6 47.01 44.67 47.01 45.74 56.65 45.74"/><polygon class="ir_cls-4" points="67.35 45.74 67.35 44.67 67.35 43.6 57.72 43.6 57.72 44.67 57.72 45.74 67.35 45.74"/><polygon class="ir_cls-4" points="88.76 45.74 88.76 44.67 88.76 43.6 79.13 43.6 79.13 44.67 79.13 45.74 88.76 45.74"/><polygon class="ir_cls-4" points="78.06 45.74 78.06 44.67 78.06 43.6 68.42 43.6 68.42 44.67 68.42 45.74 78.06 45.74"/><polygon class="ir_cls-4" points="99.47 45.74 99.47 44.67 99.47 43.6 89.83 43.6 89.83 44.67 89.83 45.74 99.47 45.74"/><polygon class="ir_cls-4" points="110.17 45.74 110.17 44.67 110.17 43.6 100.53 43.6 100.53 44.67 100.53 45.74 110.17 45.74"/><polygon class="ir_cls-4" points="131.58 45.74 131.58 44.67 131.58 43.6 121.94 43.6 121.94 44.67 121.94 45.74 131.58 45.74"/><polygon class="ir_cls-4" points="120.87 45.74 120.87 44.67 120.87 43.6 111.24 43.6 111.24 44.67 111.24 45.74 120.87 45.74"/><polygon class="ir_cls-4" points="142.28 45.74 142.28 44.67 142.28 43.6 132.65 43.6 132.65 44.67 132.65 45.74 142.28 45.74"/><polygon class="ir_cls-4" points="152.98 45.74 152.98 44.67 152.98 43.6 143.35 43.6 143.35 44.67 143.35 45.74 152.98 45.74"/><polygon class="ir_cls-4" points="163.69 45.74 163.69 44.67 163.69 43.6 154.06 43.6 154.06 44.67 154.06 45.74 163.69 45.74"/><polygon class="ir_cls-4" points="174.39 45.74 174.39 44.67 174.39 43.6 164.76 43.6 164.76 44.67 164.76 45.74 174.39 45.74"/><polygon class="ir_cls-4" points="185.1 45.74 185.1 44.67 185.1 43.6 175.46 43.6 175.46 44.67 175.46 45.74 185.1 45.74"/><polygon class="ir_cls-4" points="195.8 45.74 195.8 44.67 195.8 43.6 186.17 43.6 186.17 44.67 186.17 45.74 195.8 45.74"/><polygon class="ir_cls-4" points="196.87 44.67 196.87 45.74 200 45.74 200 43.6 196.87 43.6 196.87 44.67"/><polygon class="ir_cls-4" points="3.13 91.47 2.06 91.47 2.06 95.75 0.99 95.75 0.99 91.47 0 91.47 0 96.82 3.13 96.82 3.13 91.47"/><rect class="ir_cls-4" x="4.2" y="91.47" width="13.91" height="1.07"/><polygon class="ir_cls-4" points="23.46 95.75 22.39 95.75 22.39 91.47 21.32 91.47 21.32 95.75 20.25 95.75 20.25 91.47 19.18 91.47 19.18 93.61 14.9 93.61 14.9 96.82 18.11 96.82 18.11 95.75 15.97 95.75 15.97 94.68 19.18 94.68 19.18 96.82 24.54 96.82 24.54 91.47 23.46 91.47 23.46 95.75"/><polygon class="ir_cls-4" points="10.62 94.68 12.76 94.68 12.76 95.75 9.55 95.75 9.55 93.61 4.2 93.61 4.2 96.82 5.27 96.82 5.27 94.68 8.48 94.68 8.48 96.82 13.83 96.82 13.83 93.61 10.62 93.61 10.62 94.68"/><rect class="ir_cls-4" x="6.34" y="95.75" width="1.07" height="1.07"/><rect class="ir_cls-4" x="25.61" y="91.47" width="13.92" height="1.07"/><rect class="ir_cls-4" x="27.75" y="95.75" width="1.07" height="1.07"/><polygon class="ir_cls-4" points="44.87 95.75 43.8 95.75 43.8 91.47 42.73 91.47 42.73 95.75 41.66 95.75 41.66 91.47 40.59 91.47 40.59 93.61 36.31 93.61 36.31 96.82 39.52 96.82 39.52 95.75 37.38 95.75 37.38 94.68 40.59 94.68 40.59 96.82 45.95 96.82 45.95 91.47 44.87 91.47 44.87 95.75"/><polygon class="ir_cls-4" points="32.03 94.68 34.17 94.68 34.17 95.75 30.96 95.75 30.96 93.61 25.61 93.61 25.61 96.82 26.68 96.82 26.68 94.68 29.89 94.68 29.89 96.82 35.24 96.82 35.24 93.61 32.03 93.61 32.03 94.68"/><rect class="ir_cls-4" x="47.01" y="91.47" width="13.92" height="1.07"/><polygon class="ir_cls-4" points="53.44 94.68 55.58 94.68 55.58 95.75 52.37 95.75 52.37 93.61 47.01 93.61 47.01 96.82 48.09 96.82 48.09 94.68 51.3 94.68 51.3 96.82 56.65 96.82 56.65 93.61 53.44 93.61 53.44 94.68"/><rect class="ir_cls-4" x="49.16" y="95.75" width="1.07" height="1.07"/><polygon class="ir_cls-4" points="66.28 95.75 65.21 95.75 65.21 91.47 64.14 91.47 64.14 95.75 63.07 95.75 63.07 91.47 62 91.47 62 93.61 57.72 93.61 57.72 96.82 60.93 96.82 60.93 95.75 58.79 95.75 58.79 94.68 62 94.68 62 96.82 67.35 96.82 67.35 91.47 66.28 91.47 66.28 95.75"/><polygon class="ir_cls-4" points="87.69 95.75 86.62 95.75 86.62 91.47 85.55 91.47 85.55 95.75 84.48 95.75 84.48 91.47 83.41 91.47 83.41 93.61 79.13 93.61 79.13 96.82 82.34 96.82 82.34 95.75 80.2 95.75 80.2 94.68 83.41 94.68 83.41 96.82 88.76 96.82 88.76 91.47 87.69 91.47 87.69 95.75"/><rect class="ir_cls-4" x="70.56" y="95.75" width="1.07" height="1.07"/><polygon class="ir_cls-4" points="74.85 94.68 76.98 94.68 76.98 95.75 73.78 95.75 73.78 93.61 68.42 93.61 68.42 96.82 69.49 96.82 69.49 94.68 72.7 94.68 72.7 96.82 78.06 96.82 78.06 93.61 74.85 93.61 74.85 94.68"/><rect class="ir_cls-4" x="68.42" y="91.47" width="13.91" height="1.07"/><polygon class="ir_cls-4" points="109.1 95.75 108.03 95.75 108.03 91.47 106.96 91.47 106.96 95.75 105.89 95.75 105.89 91.47 104.82 91.47 104.82 93.61 100.53 93.61 100.53 96.82 103.75 96.82 103.75 95.75 101.61 95.75 101.61 94.68 104.82 94.68 104.82 96.82 110.17 96.82 110.17 91.47 109.1 91.47 109.1 95.75"/><rect class="ir_cls-4" x="89.83" y="91.47" width="13.92" height="1.07"/><polygon class="ir_cls-4" points="96.25 94.68 98.39 94.68 98.39 95.75 95.18 95.75 95.18 93.61 89.83 93.61 89.83 96.82 90.9 96.82 90.9 94.68 94.11 94.68 94.11 96.82 99.47 96.82 99.47 93.61 96.25 93.61 96.25 94.68"/><rect class="ir_cls-4" x="91.97" y="95.75" width="1.07" height="1.07"/><rect class="ir_cls-4" x="113.38" y="95.75" width="1.07" height="1.07"/><polygon class="ir_cls-4" points="117.66 94.68 119.8 94.68 119.8 95.75 116.59 95.75 116.59 93.61 111.24 93.61 111.24 96.82 112.31 96.82 112.31 94.68 115.52 94.68 115.52 96.82 120.87 96.82 120.87 93.61 117.66 93.61 117.66 94.68"/><rect class="ir_cls-4" x="111.24" y="91.47" width="13.91" height="1.07"/><polygon class="ir_cls-4" points="130.51 95.75 129.44 95.75 129.44 91.47 128.37 91.47 128.37 95.75 127.29 95.75 127.29 91.47 126.22 91.47 126.22 93.61 121.94 93.61 121.94 96.82 125.15 96.82 125.15 95.75 123.01 95.75 123.01 94.68 126.22 94.68 126.22 96.82 131.58 96.82 131.58 91.47 130.51 91.47 130.51 95.75"/><polygon class="ir_cls-4" points="151.91 95.75 150.84 95.75 150.84 91.47 149.77 91.47 149.77 95.75 148.7 95.75 148.7 91.47 147.63 91.47 147.63 93.61 143.35 93.61 143.35 96.82 146.56 96.82 146.56 95.75 144.42 95.75 144.42 94.68 147.63 94.68 147.63 96.82 152.98 96.82 152.98 91.47 151.91 91.47 151.91 95.75"/><rect class="ir_cls-4" x="132.65" y="91.47" width="13.92" height="1.07"/><polygon class="ir_cls-4" points="139.07 94.68 141.21 94.68 141.21 95.75 138 95.75 138 93.61 132.65 93.61 132.65 96.82 133.72 96.82 133.72 94.68 136.93 94.68 136.93 96.82 142.28 96.82 142.28 93.61 139.07 93.61 139.07 94.68"/><rect class="ir_cls-4" x="134.79" y="95.75" width="1.07" height="1.07"/><polygon class="ir_cls-4" points="173.32 95.75 172.25 95.75 172.25 91.47 171.18 91.47 171.18 95.75 170.11 95.75 170.11 91.47 169.04 91.47 169.04 93.61 164.76 93.61 164.76 96.82 167.97 96.82 167.97 95.75 165.83 95.75 165.83 94.68 169.04 94.68 169.04 96.82 174.39 96.82 174.39 91.47 173.32 91.47 173.32 95.75"/><polygon class="ir_cls-4" points="160.48 94.68 162.62 94.68 162.62 95.75 159.41 95.75 159.41 93.61 154.06 93.61 154.06 96.82 155.13 96.82 155.13 94.68 158.34 94.68 158.34 96.82 163.69 96.82 163.69 93.61 160.48 93.61 160.48 94.68"/><rect class="ir_cls-4" x="154.06" y="91.47" width="13.91" height="1.07"/><rect class="ir_cls-4" x="156.2" y="95.75" width="1.07" height="1.07"/><polygon class="ir_cls-4" points="194.73 95.75 193.66 95.75 193.66 91.47 192.59 91.47 192.59 95.75 191.52 95.75 191.52 91.47 190.45 91.47 190.45 93.61 186.17 93.61 186.17 96.82 189.38 96.82 189.38 95.75 187.24 95.75 187.24 94.68 190.45 94.68 190.45 96.82 195.8 96.82 195.8 91.47 194.73 91.47 194.73 95.75"/><rect class="ir_cls-4" x="177.6" y="95.75" width="1.07" height="1.07"/><rect class="ir_cls-4" x="175.46" y="91.47" width="13.92" height="1.07"/><polygon class="ir_cls-4" points="181.88 94.68 184.03 94.68 184.03 95.75 180.82 95.75 180.82 93.61 175.46 93.61 175.46 96.82 176.53 96.82 176.53 94.68 179.74 94.68 179.74 96.82 185.1 96.82 185.1 93.61 181.88 93.61 181.88 94.68"/><rect class="ir_cls-4" x="196.87" y="91.47" width="3.13" height="1.07"/><polygon class="ir_cls-4" points="196.87 96.82 197.94 96.82 197.94 94.68 200 94.68 200 93.61 196.87 93.61 196.87 96.82"/><rect class="ir_cls-4" x="199.01" y="95.75" width="0.99" height="1.07"/><polygon class="ir_cls-4" points="3.13 89.33 3.13 88.26 0 88.26 0 90.4 3.13 90.4 3.13 89.33"/><polygon class="ir_cls-4" points="13.83 90.4 13.83 89.33 13.83 88.26 4.2 88.26 4.2 89.33 4.2 90.4 13.83 90.4"/><polygon class="ir_cls-4" points="24.54 90.4 24.54 89.33 24.54 88.26 14.9 88.26 14.9 89.33 14.9 90.4 24.54 90.4"/><polygon class="ir_cls-4" points="45.95 90.4 45.95 89.33 45.95 88.26 36.31 88.26 36.31 89.33 36.31 90.4 45.95 90.4"/><polygon class="ir_cls-4" points="35.24 90.4 35.24 89.33 35.24 88.26 25.61 88.26 25.61 89.33 25.61 90.4 35.24 90.4"/><polygon class="ir_cls-4" points="56.65 90.4 56.65 89.33 56.65 88.26 47.01 88.26 47.01 89.33 47.01 90.4 56.65 90.4"/><polygon class="ir_cls-4" points="67.35 90.4 67.35 89.33 67.35 88.26 57.72 88.26 57.72 89.33 57.72 90.4 67.35 90.4"/><polygon class="ir_cls-4" points="78.06 90.4 78.06 89.33 78.06 88.26 68.42 88.26 68.42 89.33 68.42 90.4 78.06 90.4"/><polygon class="ir_cls-4" points="88.76 90.4 88.76 89.33 88.76 88.26 79.13 88.26 79.13 89.33 79.13 90.4 88.76 90.4"/><polygon class="ir_cls-4" points="99.47 90.4 99.47 89.33 99.47 88.26 89.83 88.26 89.83 89.33 89.83 90.4 99.47 90.4"/><polygon class="ir_cls-4" points="110.17 90.4 110.17 89.33 110.17 88.26 100.53 88.26 100.53 89.33 100.53 90.4 110.17 90.4"/><polygon class="ir_cls-4" points="120.87 90.4 120.87 89.33 120.87 88.26 111.24 88.26 111.24 89.33 111.24 90.4 120.87 90.4"/><polygon class="ir_cls-4" points="131.58 90.4 131.58 89.33 131.58 88.26 121.94 88.26 121.94 89.33 121.94 90.4 131.58 90.4"/><polygon class="ir_cls-4" points="142.28 90.4 142.28 89.33 142.28 88.26 132.65 88.26 132.65 89.33 132.65 90.4 142.28 90.4"/><polygon class="ir_cls-4" points="152.98 90.4 152.98 89.33 152.98 88.26 143.35 88.26 143.35 89.33 143.35 90.4 152.98 90.4"/><polygon class="ir_cls-4" points="174.39 90.4 174.39 89.33 174.39 88.26 164.76 88.26 164.76 89.33 164.76 90.4 174.39 90.4"/><polygon class="ir_cls-4" points="163.69 90.4 163.69 89.33 163.69 88.26 154.06 88.26 154.06 89.33 154.06 90.4 163.69 90.4"/><polygon class="ir_cls-4" points="195.8 90.4 195.8 89.33 195.8 88.26 186.17 88.26 186.17 89.33 186.17 90.4 195.8 90.4"/><polygon class="ir_cls-4" points="185.1 90.4 185.1 89.33 185.1 88.26 175.46 88.26 175.46 89.33 175.46 90.4 185.1 90.4"/><polygon class="ir_cls-4" points="196.87 89.33 196.87 90.4 200 90.4 200 88.26 196.87 88.26 196.87 89.33"/></g></g></svg>
