<svg xmlns="http://www.w3.org/2000/svg" viewBox="0 0 200 134"><defs><style>.kn_cls-1{fill:#209e56;}.kn_cls-2{fill:#ce2931;}.kn_cls-3{fill:#ffcd05;}.kn_cls-4{fill:#050505;}.kn_cls-5{fill:#fff;}</style></defs><title>Asset 68</title><g id="Layer_2" data-name="Layer 2"><g id="Layer_34" data-name="Layer 34"><path class="kn_cls-1" d="M17,0A17,17,0,0,0,0,17v86.33L155.56,0Z"/><path class="kn_cls-2" d="M44.42,134H183a17,17,0,0,0,17-17V30.27Z"/><polygon class="kn_cls-3" points="155.56 0 0 103.33 0 110.94 167.43 0 155.56 0"/><polygon class="kn_cls-3" points="200 22.21 33.44 134 44.42 134 200 30.27 200 22.21"/><path class="kn_cls-4" d="M200,17A17,17,0,0,0,183,0H167.43L0,110.94V117a17,17,0,0,0,17,17H33.44L200,22.21ZM60.94,113.14,57.24,100l-13.65-.55L55,91.85l-3.7-13.16L62,87.16l11.37-7.58L68.61,92.4l10.72,8.47-13.66-.55Zm76.59-51.06-3.7-13.16-13.66-.55,11.37-7.58-3.7-13.16,10.72,8.47,11.37-7.58L145.2,41.34l10.73,8.47-13.66-.55Z"/><polygon class="kn_cls-5" points="145.2 41.34 149.94 28.52 138.57 36.1 127.85 27.63 131.54 40.79 120.17 48.37 133.83 48.92 137.52 62.08 142.27 49.26 155.93 49.81 145.2 41.34"/><polygon class="kn_cls-5" points="68.61 92.4 73.36 79.58 61.98 87.16 51.26 78.69 54.95 91.85 43.58 99.43 57.24 99.98 60.94 113.14 65.68 100.32 79.34 100.87 68.61 92.4"/></g></g></svg>
