<svg xmlns="http://www.w3.org/2000/svg" viewBox="0 0 200 134"><defs><style>.lt_cls-1{fill:none;}.lt_cls-2{fill:#fcc132;}.lt_cls-3{fill:#156b4c;}.lt_cls-4{fill:#c1282d;}</style></defs><title>Asset 5</title><g id="Layer_2" data-name="Layer 2"><g id="Layer_96" data-name="Layer 96"><path class="lt_cls-1" d="M16.29,134c.24,0,.47,0,.71,0H183c.24,0,.47,0,.71,0Z"/><path class="lt_cls-1" d="M183,0H17c-.24,0-.47,0-.71,0H183.71C183.47,0,183.24,0,183,0Z"/><path class="lt_cls-2" d="M200,17A17,17,0,0,0,183.71,0H16.29A17,17,0,0,0,0,17V44.68H200Z"/><rect class="lt_cls-3" y="44.68" width="200" height="44.64"/><path class="lt_cls-4" d="M200,117V89.32H0V117a17,17,0,0,0,16.29,17H183.71A17,17,0,0,0,200,117Z"/></g></g></svg>
