<svg xmlns="http://www.w3.org/2000/svg" viewBox="0 0 200 134"><defs><style>.md_cls-1{fill:#f7de31;}.md_cls-2{fill:#2c3b96;}.md_cls-3{fill:#e22f2d;}.md_cls-4{fill:#010101;}.md_cls-5{fill:#f7ec26;}.md_cls-6{fill:#87642b;}.md_cls-7{fill:#d32927;}.md_cls-8{fill:#055e35;}.md_cls-9{fill:#005ca5;}</style></defs><title>Asset 19</title><g id="Layer_2" data-name="Layer 2"><g id="Layer_82" data-name="Layer 82"><path class="md_cls-1" d="M110.08,74.34a4.94,4.94,0,0,1-1.22,1.08c-.32.21-.7.43-1.1.64a12.22,12.22,0,0,0,1.18,2,4.35,4.35,0,0,1-.52,0c.17.24,1.47,2.11,1.87,2.81s.65.37,1.23.37a1.57,1.57,0,0,1,.63.21.65.65,0,0,1-.06-.63c.14-.28.67-.33.67-.33a1.11,1.11,0,0,1-.26-.53,33.27,33.27,0,0,1-2.14-6.16A1.7,1.7,0,0,1,110.08,74.34Z"/><path class="md_cls-1" d="M94.53,43.61c.56.05,1.51.4,2.16.4,0,0,.12,0,.12-.1S96,43.12,95,43.12a1.08,1.08,0,0,0-.44.1v.39Z"/><path class="md_cls-1" d="M66.47,0V134h67.06V0ZM122,64.43c-.11.21-.44.23-.44.23a5.34,5.34,0,0,1,.8,1.14c0,.2-.8.5-1.31,1-.7.71-.41,1-.55,1.1a1.09,1.09,0,0,1-.47.15s.08.22,0,.32-.38.21-.47.4l-1.17,2.3c0,5.55,0,10.88,0,14.09a4.06,4.06,0,0,0,.32,1.26c-.9-.38-2.55-2.64-2.9-3.5v.41a6.4,6.4,0,0,1-2.49-2.55h-.08s.28.46.14.74a.67.67,0,0,1-.66.33,2.27,2.27,0,0,1,.56.51,2.3,2.3,0,0,1,.33,1.06,1.88,1.88,0,0,1-.38.86.44.44,0,0,0-.12-.23s-1,1.25-1.15,1.42a.8.8,0,0,1-.81,0l-.08-.07a.34.34,0,0,1,0,.21.38.38,0,0,1-.28.2s.33.25.36.41a9.78,9.78,0,0,1-1.57,1.15,9.8,9.8,0,0,1,0-1.95c.14-.07.54.06.54.06a.41.41,0,0,1,0-.35.38.38,0,0,1,.3-.18h.16a4,4,0,0,1-.7-.78c-.21-.31-.22-.66-.46-1-.8-1.1-2.39-3.21-2.75-3.69l-.07.38a10.93,10.93,0,0,0-2.18-2.25l-1.66.74-.54.25c.58,1.29,4.07,8.8,7.21,10.05,0,0-1.49.63-3.33,1.59l-.82.44c-.23-.28-.47-.59-.71-.91-1.1-1.47-2.17-3.17-2.17-3.17a9.07,9.07,0,0,0,1.49,3.49c.19.33.39.68.62,1l-.74.43c-1.82,1.09-3.53,2.35-4.16,3.51-.63-1.16-2.34-2.41-4.16-3.51l-.74-.43c.22-.35.42-.7.62-1a9.07,9.07,0,0,0,1.49-3.49s-1.07,1.7-2.17,3.17c-.24.32-.48.63-.71.91l-.82-.44c-1.83-1-3.33-1.59-3.33-1.59,3.14-1.25,6.64-8.78,7.21-10.06l-.54-.25-1.66-.74a11,11,0,0,0-2.18,2.25l-.07-.38c-.36.48-2,2.59-2.75,3.69-.24.33-.25.68-.46,1v0l.23.5,1.28.7-.44,2-1.81-1L88.87,85l-.09-.2c-.25.24-.51.44-.77.69a.8.8,0,0,1-.81,0C87,85.29,86,84,86,84a.45.45,0,0,0-.11.23,1.88,1.88,0,0,1-.38-.86,2.32,2.32,0,0,1,.33-1.06,2.13,2.13,0,0,1,.52-.48.53.53,0,0,1-.42-.23.51.51,0,0,1,.09-.66c.1-.11.25-.13.38-.2l.08-.07a2.26,2.26,0,0,1-.72.14,6.34,6.34,0,0,1-2.46,2.49v-.41c-.35.86-2,3.12-2.9,3.5a4.08,4.08,0,0,0,.31-1.26c0-3.35,0-9,0-14.86a2.16,2.16,0,0,1-.59-.11,3.79,3.79,0,0,1-1.57-1.41,2,2,0,0,1,.87-.15c-.35-.15-.71-.83-.71-.83a4.67,4.67,0,0,1,2,.28v-.75l-.44-1c-.15.17-.2.25-.17.42a.55.55,0,0,1-.32.58.54.54,0,0,1-.71-.27.51.51,0,0,1,.19-.64,1.41,1.41,0,0,1,.4-.14.9.9,0,0,0,.23-.16,2.4,2.4,0,0,1-1.29-.42,3.65,3.65,0,0,1-1-1.74,3.14,3.14,0,0,1,1.39.39,1.94,1.94,0,0,1-.47-.69A3.42,3.42,0,0,1,78.46,62s1.27.71,1.48,1.22A4,4,0,0,1,80.29,62a6.13,6.13,0,0,1,.49.85c0-7,0-12.67,0-12.67,0-1.21,1.91-3.83,4.38-5.43,1.68,1,3.5,3.21,4.15,3.39,0,.6-.23,1.17-.23,1.8v1.18c1.55.07,2.23.8,3.54,1.53a11.82,11.82,0,0,0,2,.81,4.41,4.41,0,0,0,1.22-1.24,8.87,8.87,0,0,0,1-4.7c0-2.58-1.17-3.21-2.36-3.64v1.43A.7.7,0,0,0,95,46c-.39.05-.73.58-.83.87-.09-.29-.43-.82-.83-.87a.7.7,0,0,0,.47-.67v-4H93a.7.7,0,0,0-.68.5,1.68,1.68,0,0,1,0-1.71.71.71,0,0,0,.68.5h.83v-.83a.7.7,0,0,0-.5-.68,1.69,1.69,0,0,1,1.71,0,.7.7,0,0,0-.5.68v.83h.83a.7.7,0,0,0,.68-.5,1.68,1.68,0,0,1,0,1.71.7.7,0,0,0-.68-.5h-.83v1.13a1.32,1.32,0,0,1,.9-.31,1.44,1.44,0,0,0,.92-.22c.11-.09.09-.37.4-.58a2.66,2.66,0,0,1,1.33-.24,6.28,6.28,0,0,1,2.85.67,18.42,18.42,0,0,0,2.14.87,7.16,7.16,0,0,0,.77.21,2.58,2.58,0,0,0-.69.22.51.51,0,0,0-.21.18s.78.49.94.89c-.56,0-.72.18-.72.18.38.21.4,1.43.4,1.43s-.42-.42-.66-.46a8.28,8.28,0,0,1,.07,1.18c0,.48-.68,1.16-.68,1.76a7.49,7.49,0,0,0,1,4,4.39,4.39,0,0,0,1.22,1.24,11.82,11.82,0,0,0,2-.81c1.31-.73,2-1.46,3.54-1.53V50c0-.63-.23-1.2-.23-1.8.65-.18,2.47-2.4,4.15-3.39,2.47,1.6,4.38,4.22,4.38,5.43,0,0,0,9.48,0,19l.4-.78c.09-.18,0-.46,0-.62s.27-.16.27-.16a1.11,1.11,0,0,1-.15-.47c0-.19.4-.11.56-1.09.11-.71-.13-1.54,0-1.65a5.34,5.34,0,0,1,1.39,0s-.17-.29-.07-.5a.65.65,0,0,1,.34-.29l-.14-.3,1.27-.93v1.57L122,64A.67.67,0,0,1,122,64.43Z"/><path class="md_cls-1" d="M86.95,81.18a.54.54,0,0,1,0,.35l.28-.14L87,80.86A.34.34,0,0,0,86.95,81.18Z"/><path class="md_cls-1" d="M88.12,77.54a4.31,4.31,0,0,1,.89-.42A3.5,3.5,0,0,1,88.74,79a3.7,3.7,0,0,1-1.28,1.24l.07.15a1.18,1.18,0,0,0,.4-.09c.13-.07.22-.18.37-.21a.51.51,0,0,1,.61.28.54.54,0,0,1-.27.71.55.55,0,0,1-.64-.13.34.34,0,0,0-.29-.15l.24.52c.38.05.62.14.92-.39.41-.7,1.7-2.57,1.88-2.81a4.37,4.37,0,0,1-.52,0,12,12,0,0,0,1.18-2c-.4-.21-.78-.43-1.11-.64a5,5,0,0,1-1.22-1.08,1.78,1.78,0,0,1-.28-.51c-.16.6-.44,1.64-.79,2.73A2,2,0,0,1,88.12,77.54Z"/><path class="md_cls-2" d="M17,0A17,17,0,0,0,0,17V117a17,17,0,0,0,17,17H66.47V0Z"/><path class="md_cls-3" d="M183,0H133.53V134H183a17,17,0,0,0,17-17V17A17,17,0,0,0,183,0Z"/><path class="md_cls-4" d="M94.43,43.82h0l0,0v-.22h.1v-.39a1.21,1.21,0,0,0-.17.1v2a.85.85,0,0,0,.31.63,1.33,1.33,0,0,0-.32.28,1.72,1.72,0,0,0-.17.3,1.6,1.6,0,0,0-.17-.3,1.3,1.3,0,0,0-.32-.29.84.84,0,0,0,.31-.62v-4a.22.22,0,0,0,0,0v-.09s0,0,0-.05H93a.88.88,0,0,0-.66.31,1.6,1.6,0,0,1-.08-.49,1.52,1.52,0,0,1,.09-.49.87.87,0,0,0,.66.3h1v-.13a.23.23,0,0,0,0,0v-.83a.88.88,0,0,0-.31-.66,1.5,1.5,0,0,1,1,0,.88.88,0,0,0-.3.66v.83a.22.22,0,0,0,0,0v.13h1A.87.87,0,0,0,96,40.5a1.52,1.52,0,0,1,.08.49,1.58,1.58,0,0,1-.08.49.88.88,0,0,0-.66-.3h-1v1.46a1.44,1.44,0,0,1,.17-.16V41.35h.83a.7.7,0,0,1,.68.5,1.68,1.68,0,0,0,0-1.71.7.7,0,0,1-.68.5h-.83v-.83a.7.7,0,0,1,.5-.68,1.69,1.69,0,0,0-1.71,0,.7.7,0,0,1,.5.68v.83H93a.71.71,0,0,1-.68-.5,1.68,1.68,0,0,0,0,1.71.7.7,0,0,1,.68-.5h.83v4a.7.7,0,0,1-.47.67c.4.05.74.58.83.87.09-.29.43-.82.83-.87a.7.7,0,0,1-.47-.67V43.9l-.1,0Z"/><path class="md_cls-5" d="M94.35,41.62v-.44h1a.88.88,0,0,1,.66.3,1.58,1.58,0,0,0,.08-.49A1.52,1.52,0,0,0,96,40.5a.87.87,0,0,1-.66.31h-1v-.13a.22.22,0,0,1,0,0v-.83a.88.88,0,0,1,.3-.66,1.5,1.5,0,0,0-1,0,.88.88,0,0,1,.31.66v.83a.23.23,0,0,1,0,0v.13H93a.87.87,0,0,1-.66-.3,1.52,1.52,0,0,0-.09.49,1.6,1.6,0,0,0,.08.49.88.88,0,0,1,.66-.31h1s0,0,0,.05v.09a.22.22,0,0,1,0,0v2.31a1.92,1.92,0,0,1,.37-1v-1Z"/><path class="md_cls-5" d="M94,45.33a.84.84,0,0,1-.31.62,1.3,1.3,0,0,1,.32.29,1.6,1.6,0,0,1,.17.3,1.72,1.72,0,0,1,.17-.3,1.33,1.33,0,0,1,.32-.28.85.85,0,0,1-.31-.63v-2a1.66,1.66,0,0,0-.37.34v1.67Z"/><polygon class="md_cls-6" points="83.96 53.91 83.96 54.87 84.36 55.24 84.88 55.73 84.88 53.05 84.36 53.54 83.96 53.91"/><polygon class="md_cls-6" points="82.72 52.01 83.64 52.87 83.64 49.8 82.72 50.77 82.72 52.01"/><polygon class="md_cls-6" points="82.72 53.05 82.72 55.73 83.24 55.24 83.64 54.87 83.64 53.91 83.24 53.54 82.72 53.05"/><polygon class="md_cls-6" points="83.96 52.88 84.88 52.01 84.88 50.95 83.96 49.55 83.96 52.88"/><polygon class="md_cls-6" points="85.21 55.73 85.73 55.24 86.13 54.87 86.13 53.91 85.21 53.05 85.21 55.73"/><path class="md_cls-6" d="M116.77,55.74l.8-.75V53.8l-.8-.75Z"/><polygon class="md_cls-6" points="114.28 53.05 114.28 55.73 114.81 55.24 115.2 54.87 115.2 53.91 114.81 53.54 114.28 53.05"/><polygon class="md_cls-6" points="85.21 52.01 86.13 52.87 86.13 50.18 85.21 51.06 85.21 52.01"/><path class="md_cls-6" d="M81.59,50.2v2.55l.8-.74V50.29l-.53-1A2,2,0,0,0,81.59,50.2Z"/><polygon class="md_cls-6" points="115.53 52.87 116.44 52.01 116.44 50.77 115.53 49.8 115.53 52.87"/><path class="md_cls-6" d="M81.59,55l.8.75V53l-.8.75Z"/><path class="md_cls-6" d="M114,45.89h0A19,19,0,0,1,111,48.27l0,.71v2.09a4.78,4.78,0,0,0,1.61-1.6v-.29a.78.78,0,0,0-.27-.57l.34-.12a1,1,0,0,1,.27.65v.16l.11.12.06.06.84.9,1-1.5v-.37a1.26,1.26,0,0,0-.35-.71l.33-.12a1.42,1.42,0,0,1,.34.78v.3l1.14,1.17.58-1.24A14,14,0,0,0,114,45.89Z"/><path class="md_cls-6" d="M116.77,50.29V52l.8.74V50.2a1.94,1.94,0,0,0-.28-.86Z"/><path class="md_cls-6" d="M111.79,53.05v2.68l.52-.49.39-.37V54A3.75,3.75,0,0,1,111.79,53.05Z"/><path class="md_cls-6" d="M101.91,48.27c0-.77.66-1.31.66-1.76a9.12,9.12,0,0,0-.18-1.71l.73.23a.75.75,0,0,0-.58-.74c.08-.3.6-.36.6-.36a1.23,1.23,0,0,0-.79-.55,1,1,0,0,1,.33-.41c-.26-.09-.55-.2-.87-.34a8.08,8.08,0,0,0-3.39-1.12h-.71c-.44,0-.88.08-1,.3s-.16.2-.07.34.4.06.71.06c.46,0,.88.39,1.31.39s.66-.08,1-.08c1,0,1.71,1,2.13,1.27-.38,0-1.48-1-2-1s-.6.1-1,.1l-.12,0a.62.62,0,0,1,.42.53.74.74,0,0,1-.82.63,1,1,0,0,1-.4-.09.23.23,0,0,0,0,.07.46.46,0,0,0,.18.32,1.1,1.1,0,0,1,.43.77s-.79-.61-1.14-.61c-.67,0-.55.46-.46.64a5,5,0,0,1,.45,2.4c0,3-.59,4-1.06,4.83a3.28,3.28,0,0,1-.59.88c1.25-.67,2.18-1.5,2.18-2.27V48.06h.32V51a1.93,1.93,0,0,1-.13.82,10.94,10.94,0,0,1-.84,2c1.15-.62,1.74-1.4,1.74-1.69v-4h.33v4.08l-.06.28a2.47,2.47,0,0,0,.44.54,2.47,2.47,0,0,0,.45-.54l-.06-.28V48.06h.33v4c0,.29.59,1.07,1.74,1.69a11.22,11.22,0,0,1-.84-2A1.91,1.91,0,0,1,101,51V48.06h.33V51c0,.77.93,1.6,2.18,2.27a3.19,3.19,0,0,1-.59-.88A6.83,6.83,0,0,1,101.91,48.27Z"/><polygon class="md_cls-6" points="113.03 52.87 113.95 52.01 113.95 51.06 113.03 50.18 113.03 52.87"/><polygon class="md_cls-6" points="113.03 54.87 113.43 55.24 113.95 55.73 113.95 53.05 113.03 53.91 113.03 54.87"/><polygon class="md_cls-6" points="115.53 53.91 115.53 54.87 115.92 55.24 116.44 55.73 116.44 53.05 115.92 53.54 115.53 53.91"/><path class="md_cls-6" d="M86.46,54v.9l.39.37.53.49V53.05A3.79,3.79,0,0,1,86.46,54Z"/><path class="md_cls-6" d="M86.46,50v2.92a4.83,4.83,0,0,0,1.38-1.37A4.7,4.7,0,0,1,86.46,50Z"/><path class="md_cls-6" d="M85.14,45.9h0a13.8,13.8,0,0,0-2.87,2.8l.58,1.24L84,48.76v-.3a1.41,1.41,0,0,1,.34-.78l.33.12a1.26,1.26,0,0,0-.35.71v.37l1,1.5.84-.9.06-.06.11-.12v-.16a1,1,0,0,1,.27-.65l.34.12a.78.78,0,0,0-.27.57v.29a4.79,4.79,0,0,0,1.6,1.6V49l0-.71A19,19,0,0,1,85.14,45.9Z"/><polygon class="md_cls-6" points="114.28 52.01 115.2 52.88 115.2 49.55 114.28 50.95 114.28 52.01"/><path class="md_cls-6" d="M98.21,42.81a4.66,4.66,0,0,0-1.07-.36c-.3,0-.39.09-.39.23,0,.31.33.54.67.69A.76.76,0,0,1,98.21,42.81Z"/><path class="md_cls-6" d="M111.33,51.58a4.84,4.84,0,0,0,1.38,1.37V50A4.69,4.69,0,0,1,111.33,51.58Z"/><path class="md_cls-6" d="M85.14,75.14l.11.25a1.19,1.19,0,0,0,.4-.09c.12-.06.22-.18.37-.21v-.78A2.48,2.48,0,0,1,85.14,75.14Z"/><path class="md_cls-6" d="M84.42,70.7a.53.53,0,0,1,0,.35,5.68,5.68,0,0,1,.67-.58s.49,1,.37,1.36a2.35,2.35,0,0,1,.53-.46V56l-1,.9-1-.91V70.42A.46.46,0,0,1,84.42,70.7Z"/><path class="md_cls-6" d="M86,76.11a.54.54,0,0,1-.3-.17.35.35,0,0,0-.29-.15L86,77.07Z"/><path class="md_cls-6" d="M83.52,70.58V69.49a2.75,2.75,0,0,1-.6.79l.2.43a1.08,1.08,0,0,0,.33-.08Z"/><path class="md_cls-6" d="M84.66,75.81l-.22-.49-.36.08v.79l.17,0A1.48,1.48,0,0,0,84.66,75.81Z"/><path class="md_cls-6" d="M82.09,71.25a1.3,1.3,0,0,0,.36-.28l-.37-.82a4.66,4.66,0,0,1-.48.11v1.22l.1-.1A1.38,1.38,0,0,1,82.09,71.25Z"/><path class="md_cls-6" d="M82.07,65.77a.43.43,0,0,1,0,.07h0a2.45,2.45,0,0,1,.48,1.28,2.2,2.2,0,0,1,.7-.76s.13.31.25.74V56l-1,.9-1-.9v9.46A.48.48,0,0,1,82.07,65.77Z"/><path class="md_cls-6" d="M106.32,78.78s.17-.69.26-.94a1.89,1.89,0,0,0,.71.35s.08-.47.13-.78a1.56,1.56,0,0,0,.84.17c-.33-.16-.71-.91-.89-1.31-.75.38-1.57.76-2.38,1.13A12.37,12.37,0,0,0,106.32,78.78Z"/><path class="md_cls-6" d="M90.9,77.58a1.57,1.57,0,0,0,.84-.17c.06.31.13.78.13.78a1.9,1.9,0,0,0,.71-.35c.1.24.26.94.26.94a12.52,12.52,0,0,0,1.34-1.37c-.82-.37-1.64-.75-2.38-1.13C91.62,76.67,91.24,77.42,90.9,77.58Z"/><path class="md_cls-6" d="M83.52,71.28h0a.34.34,0,0,0-.2-.13l.21.45Z"/><path class="md_cls-6" d="M85.3,80.83a3.79,3.79,0,0,1-1.23-.47v1.72Z"/><path class="md_cls-6" d="M84.13,71.42h-.06v.07Z"/><path class="md_cls-6" d="M84.69,76.61a.56.56,0,0,1-.32.58.52.52,0,0,1-.29,0V78a7.4,7.4,0,0,1,1.12.28,3.6,3.6,0,0,1,.77.39l-1.12-2.46C84.71,76.37,84.66,76.45,84.69,76.61Z"/><path class="md_cls-6" d="M108,52.36c-.52.25-1.07.56-1.56.78a2.89,2.89,0,0,1,1.19.45C107.91,53.53,108,52.36,108,52.36Z"/><path class="md_cls-6" d="M111.46,52.6c-.19-.28-.32-.51-.42-.69a9.31,9.31,0,0,1-1.68,2.18c-.13-.53-1-1-1-1s-.3.84-.78,1a6,6,0,0,0-1.16-.94,5.71,5.71,0,0,1-1.86.36,8.34,8.34,0,0,0,1.05.62,6.92,6.92,0,0,1-2.55-.54,10,10,0,0,1-1.1-.77,4,4,0,0,0,.72,1.28,3.44,3.44,0,0,1-2.53-1.31,4.22,4.22,0,0,1-.58,1.06A4.19,4.19,0,0,1,99,52.78a3.44,3.44,0,0,1-2.53,1.31,4.08,4.08,0,0,0,.72-1.28,10,10,0,0,1-1.1.77,6.91,6.91,0,0,1-2.54.54,8.4,8.4,0,0,0,1-.62,5.76,5.76,0,0,1-1.86-.36,6,6,0,0,0-1.16.94c-.47-.21-.78-1-.78-1s-.86.51-1,1a9.32,9.32,0,0,1-1.69-2.18c-.1.18-.23.4-.42.69v3.13l.78-.73a3.51,3.51,0,0,0-.74-.8h23.67a3.54,3.54,0,0,0-.74.8l.79.74Z"/><path class="md_cls-6" d="M112.59,56l-1,.9-1.18-1.1V72.61c.33,1.4,1.19,4.74,2.15,5.57Z"/><path class="md_cls-6" d="M114.12,56.92l-1-.9V78.18l0,.53c.29-.22.57-.33.68-.55l1.29-2.54V56Z"/><path class="md_cls-6" d="M109.45,53.41c.24-.06.61-1,.75-1.39a7.86,7.86,0,0,0-.93-.05,3.4,3.4,0,0,0-1.29.39S109.23,53,109.45,53.41Z"/><path class="md_cls-6" d="M116.61,56.92l-1-.9v18.5l.14-.28c0-.1-.14-.21,0-.44a.46.46,0,0,1,.32-.23,1,1,0,0,1,.05-.58.6.6,0,0,1,.46-.25.68.68,0,0,1,0-.43c.1-.19.29-.24.36-.38l.61-1.2V56Z"/><path class="md_cls-6" d="M82.92,73.11a2.51,2.51,0,0,1,.6.34v-.14l-.89-1.94a.38.38,0,0,0-.1.35.55.55,0,0,1-.32.58.53.53,0,0,1-.62-.14V73A2.57,2.57,0,0,1,82.92,73.11Z"/><path class="md_cls-6" d="M82.87,75.5A2.55,2.55,0,0,1,81.59,75v9a5.47,5.47,0,0,0,1.93-2.75V80c-.36-.25-.6-.46-.6-.46a6,6,0,0,1,.6-.18v-.43a7.12,7.12,0,0,1-.66-1.07s.27,0,.66.07V75.48A4.38,4.38,0,0,1,82.87,75.5Z"/><path class="md_cls-6" d="M89,52c.14.38.52,1.32.75,1.39.22-.44,1.47-1,1.47-1A3.38,3.38,0,0,0,89.89,52,7.93,7.93,0,0,0,89,52Z"/><path class="md_cls-6" d="M86.57,56V75.28a.43.43,0,0,1,.06.09.53.53,0,0,1-.06.53v.92a4.25,4.25,0,0,1,1-1.25,4.24,4.24,0,0,1,.22.38,32.27,32.27,0,0,0,1-3.32V55.83l-1.18,1.1Z"/><path class="md_cls-6" d="M91.55,53.59a2.89,2.89,0,0,1,1.19-.45c-.49-.22-1-.53-1.57-.78C91.18,52.36,91.25,53.53,91.55,53.59Z"/><path class="md_cls-6" d="M82.34,74.25a2.27,2.27,0,0,1-.74-.77v1A1.42,1.42,0,0,1,82.34,74.25Z"/><path class="md_cls-6" d="M117.57,84V72.92a.82.82,0,0,1-.28.18.6.6,0,0,1,.06.52,1,1,0,0,1-.44.38.44.44,0,0,1,0,.39c-.11.22-.32.14-.37.23l-.91,1.79v4.82A5.47,5.47,0,0,0,117.57,84Z"/><path class="md_cls-6" d="M91.52,88.61a23.55,23.55,0,0,1,2.32.86,32.58,32.58,0,0,0,2.89-4.18,21.67,21.67,0,0,0,1.66-4.21c.42,1-.48,6.2-2.3,9.47a14.23,14.23,0,0,1,3.49,2.33,14.26,14.26,0,0,1,3.49-2.33c-1.82-3.27-2.72-8.44-2.3-9.47a21.67,21.67,0,0,0,1.66,4.21,32.39,32.39,0,0,0,2.89,4.18,23.55,23.55,0,0,1,2.32-.86c-2.67-2.06-5.39-8.3-6-9.71a5.32,5.32,0,0,0-2.08,1.6,5.33,5.33,0,0,0-2.08-1.6C96.91,80.31,94.19,86.56,91.52,88.61Z"/><path class="md_cls-6" d="M115.09,77.52l-.53,1c-.18.36.13.91-.24,1.63a1,1,0,0,1-.58.53l1.35,1.36Z"/><path class="md_cls-7" d="M86.27,82.48c0,.12.06.3.17.31s.35-.24,1-.43,1,0,1.45-.34c0,.46-.65.81-.65,1.14a.9.9,0,0,0,.64-.27s0,.31,0,.58.31.42.31.42a3.94,3.94,0,0,1,.39-1c.86-1.16,2.6-3.54,2.91-4l-.11-.55-.71.48a1.71,1.71,0,0,1-.19-.87.88.88,0,0,1-.22.08l-2.26,3.49c-.2.3-1.18.07-1.3.09A2.58,2.58,0,0,0,86.27,82.48Z"/><path class="md_cls-7" d="M86.69,83.18,87,82.9a.1.1,0,0,0,0-.15.12.12,0,0,0-.07,0,.09.09,0,0,0-.07,0l-.32.28a.1.1,0,0,0,0,.15A.11.11,0,0,0,86.69,83.18Z"/><path class="md_cls-7" d="M86.35,84.08a.26.26,0,0,0,.36,0l.78-.68a.25.25,0,0,0,0-.36.27.27,0,0,0-.22-.1.23.23,0,0,0-.14.06l-.78.67A.26.26,0,0,0,86.35,84.08Z"/><path class="md_cls-7" d="M86.8,84.61a.25.25,0,0,0,.35,0l.78-.68a.25.25,0,0,0,0-.35.27.27,0,0,0-.23-.1.22.22,0,0,0-.13.05l-.78.67A.26.26,0,0,0,86.8,84.61Z"/><path class="md_cls-7" d="M88.44,84.12a.27.27,0,0,0-.22-.09.22.22,0,0,0-.13.05l-.78.68a.26.26,0,0,0,.35.39l.78-.67A.25.25,0,0,0,88.44,84.12Z"/><path class="md_cls-7" d="M111.44,83.52h-.06a.27.27,0,0,0-.17.1.25.25,0,0,0,0,.35l.78.68a.25.25,0,0,0,.35,0,.26.26,0,0,0,0-.36l-.78-.67A.22.22,0,0,0,111.44,83.52Z"/><path class="md_cls-7" d="M111.56,81.63c-.12,0-1.1.21-1.3-.09L108,78.05a.85.85,0,0,1-.22-.08,1.73,1.73,0,0,1-.19.87l-.71-.48-.11.55c.3.41,2,2.79,2.91,4a4,4,0,0,1,.39,1s.31-.15.31-.42,0-.58,0-.58a.9.9,0,0,0,.64.27c0-.32-.62-.67-.65-1.14.48.35.89.17,1.44.34s.77.44,1,.43.21-.19.17-.31A2.6,2.6,0,0,0,111.56,81.63Z"/><path class="md_cls-7" d="M111.86,84.76l-.79-.68a.22.22,0,0,0-.13-.05h-.06a.27.27,0,0,0-.16.09.25.25,0,0,0,0,.36l.78.67a.26.26,0,0,0,.35-.39Z"/><path class="md_cls-7" d="M112.62,83.16a.11.11,0,0,0,0-.15l-.32-.28a.09.09,0,0,0-.07,0,.13.13,0,0,0-.07,0,.11.11,0,0,0,0,.15l.32.28A.11.11,0,0,0,112.62,83.16Z"/><path class="md_cls-7" d="M111.88,83h-.06a.26.26,0,0,0-.16.1.25.25,0,0,0,0,.36l.78.68a.26.26,0,0,0,.36,0,.25.25,0,0,0,0-.36L112,83A.23.23,0,0,0,111.88,83Z"/><path class="md_cls-4" d="M85.3,80.83l-1.23,1.24V80.35c-.21-.12-.39-.24-.55-.35v1.24A5.47,5.47,0,0,1,81.59,84V75a3.35,3.35,0,0,1-.37-.3s.16-.11.37-.22v-1c-.14-.21-.25-.39-.25-.39l.25-.05v-.87A.59.59,0,0,1,81.5,72a.48.48,0,0,1,.09-.55V70.26a3.45,3.45,0,0,1-.8,0c0,5.82,0,11.5,0,14.86a4.08,4.08,0,0,1-.31,1.26c.9-.38,2.55-2.64,2.9-3.5v.41a6.34,6.34,0,0,0,2.46-2.49,2.12,2.12,0,0,1-.3,0Z"/><path class="md_cls-4" d="M81.25,68.34l-.46-1v.75h0A2.24,2.24,0,0,1,81.25,68.34Z"/><path class="md_cls-4" d="M112.44,81.76a.74.74,0,0,1-.29-.27,1.57,1.57,0,0,0-.62-.21c-.58,0-.85.29-1.23-.37s-1.7-2.57-1.87-2.81a4.35,4.35,0,0,0,.52,0,12.22,12.22,0,0,1-1.18-2l-.4.21c.18.4.56,1.15.89,1.31a1.56,1.56,0,0,1-.84-.17c-.06.31-.13.78-.13.78a1.89,1.89,0,0,1-.71-.35c-.1.24-.26.94-.26.94A12.37,12.37,0,0,1,105,77.4l-.58.26a10.93,10.93,0,0,1,2.18,2.25l.07-.38c.36.48,2,2.59,2.75,3.69.24.33.25.68.46,1a4,4,0,0,0,.7.78.7.7,0,0,1,.19.07.54.54,0,0,1,.31.37l.08.07a.8.8,0,0,0,.81,0c.15-.16,1.15-1.42,1.15-1.42a.44.44,0,0,1,.12.23,1.88,1.88,0,0,0,.38-.86,2.3,2.3,0,0,0-.33-1.06,2.27,2.27,0,0,0-.56-.51A.78.78,0,0,1,112.44,81.76Zm-.93,3.39-.78-.67a.25.25,0,0,1,0-.36.27.27,0,0,1,.16-.09h.06a.22.22,0,0,1,.13.05l.79.68a.26.26,0,0,1-.35.39Zm1.29-1.43a.25.25,0,0,1,0,.36.26.26,0,0,1-.36,0l-.78-.68a.25.25,0,0,1,0-.36.26.26,0,0,1,.16-.1h.06A.23.23,0,0,1,112,83Zm-.65-1a.13.13,0,0,1,.07,0,.09.09,0,0,1,.07,0l.32.28a.11.11,0,0,1-.14.17l-.32-.28A.11.11,0,0,1,112.14,82.75Zm.21,1.49a.26.26,0,0,1,0,.36.25.25,0,0,1-.35,0l-.78-.68a.25.25,0,0,1,0-.35.27.27,0,0,1,.17-.1h.06a.22.22,0,0,1,.13.05Zm.38-1.45c-.19,0-.35-.24-1-.43s-1,0-1.44-.34c0,.46.65.81.65,1.14a.9.9,0,0,1-.64-.27s0,.31,0,.58-.31.42-.31.42a4,4,0,0,0-.39-1c-.86-1.16-2.6-3.54-2.91-4l.11-.55.71.48a1.73,1.73,0,0,0,.19-.87.85.85,0,0,0,.22.08l2.26,3.49c.2.3,1.18.07,1.3.09a2.6,2.6,0,0,1,1.34.85C112.93,82.6,112.84,82.78,112.73,82.79Z"/><path class="md_cls-4" d="M101.66,78.9c.59,1.41,3.31,7.66,6,9.71a23.55,23.55,0,0,0-2.32.86,32.39,32.39,0,0,1-2.89-4.18,21.67,21.67,0,0,1-1.66-4.21c-.42,1,.48,6.2,2.3,9.47a14.26,14.26,0,0,0-3.49,2.33,14.23,14.23,0,0,0-3.49-2.33c1.82-3.27,2.72-8.44,2.3-9.47a21.67,21.67,0,0,1-1.66,4.21,32.58,32.58,0,0,1-2.89,4.18,23.55,23.55,0,0,0-2.32-.86c2.67-2.06,5.39-8.3,6-9.71L97,78.64c-.58,1.28-4.07,8.8-7.21,10.06,0,0,1.5.63,3.33,1.59l.82.44c.23-.28.47-.59.71-.91,1.1-1.47,2.17-3.17,2.17-3.17a9.07,9.07,0,0,1-1.49,3.49c-.19.33-.39.68-.62,1l.74.43c1.82,1.09,3.52,2.35,4.16,3.51.63-1.16,2.34-2.41,4.16-3.51l.74-.43c-.22-.35-.42-.7-.62-1a9.07,9.07,0,0,1-1.49-3.49s1.07,1.7,2.17,3.17c.24.32.48.63.71.91l.82-.44c1.84-1,3.33-1.59,3.33-1.59-3.14-1.25-6.63-8.77-7.21-10.05Z"/><path class="md_cls-4" d="M81.58,66.53a.56.56,0,0,1-.41-.18l-.06-.06.34.74s0-.07,0-.1A1.49,1.49,0,0,1,81.58,66.53Z"/><path class="md_cls-4" d="M88,76.57c.35-1.1.63-2.13.79-2.73a1.63,1.63,0,0,1-.09-.55v-.66a32.27,32.27,0,0,1-1,3.32A4.13,4.13,0,0,1,88,76.57Z"/><path class="md_cls-4" d="M84,79.31a1.22,1.22,0,0,1-.43-.39v.43A1.07,1.07,0,0,1,84,79.31Z"/><path class="md_cls-4" d="M117.73,72.33c-.07.14,0,.32-.1.52l-.06.08V84a5.47,5.47,0,0,1-1.93-2.75V76.43l-.55,1.09v4.55l-1.35-1.36a1.17,1.17,0,0,1-.42.07,6.4,6.4,0,0,0,2.49,2.55v-.41c.35.86,2,3.12,2.9,3.5a4.06,4.06,0,0,1-.32-1.26c0-3.21,0-8.54,0-14.09Z"/><path class="md_cls-4" d="M81.16,64.17a3.06,3.06,0,0,1-.36,1.47l.06.13a.8.8,0,0,0,.23-.07c.12-.06.22-.18.37-.21h.13V56l1,.9,1-.9V67.08a4.57,4.57,0,0,1,.21,1.71,2.15,2.15,0,0,1-.21.69v1.09a.78.78,0,0,1,.29-.16.68.68,0,0,1,.26,0V56l1,.91,1-.9V71.37l.2-.13a6.42,6.42,0,0,1,0,2.64,1.88,1.88,0,0,1-.21.44v.78h0a.52.52,0,0,1,.55.19V56l1,.9,1.18-1.1v-.16a1.28,1.28,0,0,0-.23-.66l-.78.73V52.6c.2-.29.33-.52.42-.69a9.32,9.32,0,0,0,1.69,2.18c.13-.53,1-1,1-1s.31.84.78,1a6,6,0,0,1,1.16-.94,2.89,2.89,0,0,0-1.19.45c-.3-.06-.37-1.23-.37-1.23s-1.25.61-1.47,1c-.24-.06-.61-1-.75-1.39a7.93,7.93,0,0,1,.93-.05,3.38,3.38,0,0,1,1.29.39c.53.25,1.07.56,1.57.78a5.76,5.76,0,0,0,1.86.36,8.4,8.4,0,0,1-1,.62,6.91,6.91,0,0,0,2.54-.54,10,10,0,0,0,1.1-.77,4.08,4.08,0,0,1-.72,1.28A3.44,3.44,0,0,0,99,52.78a4.19,4.19,0,0,0,.57,1.06,4.22,4.22,0,0,0,.58-1.06,3.44,3.44,0,0,0,2.53,1.31,4,4,0,0,1-.72-1.28,10,10,0,0,0,1.1.77,6.92,6.92,0,0,0,2.55.54,8.34,8.34,0,0,1-1.05-.62,5.71,5.71,0,0,0,1.86-.36c.49-.22,1-.53,1.56-.78a3.4,3.4,0,0,1,1.29-.39,7.86,7.86,0,0,1,.93.05c-.14.38-.51,1.32-.75,1.39-.22-.44-1.47-1-1.47-1s-.07,1.17-.37,1.23a2.89,2.89,0,0,0-1.19-.45,6,6,0,0,1,1.16.94c.47-.21.78-1,.78-1s.87.51,1,1A9.31,9.31,0,0,0,111,51.91c.1.18.24.41.42.69v3.13l-.79-.74a1.28,1.28,0,0,0-.23.67v.16l1.18,1.1,1-.9V78.18c-1-.83-1.82-4.17-2.15-5.57v.68a1.67,1.67,0,0,1-.09.55A33.27,33.27,0,0,0,112.49,80a1.06,1.06,0,0,1,.11-.69,1.74,1.74,0,0,1,.51-.6l0-.53V56l1,.9,1-.91V75.61l.55-1.09V56l1,.9,1-.9V70.74l.8-1.57c0-9.49,0-19,0-19,0-1.21-1.91-3.83-4.38-5.43-1.68,1-3.5,3.21-4.15,3.39,0,.6.23,1.17.23,1.8v1.18c-1.55.07-2.23.8-3.54,1.53a11.82,11.82,0,0,1-2,.81,4.39,4.39,0,0,1-1.22-1.24,7.49,7.49,0,0,1-1-4c0-.6.68-1.28.68-1.76a8.28,8.28,0,0,0-.07-1.18c.24,0,.66.46.66.46s0-1.22-.4-1.43c0,0,.16-.16.72-.18-.16-.4-.94-.89-.94-.89a.51.51,0,0,1,.21-.18,2.58,2.58,0,0,1,.69-.22,7.16,7.16,0,0,1-.77-.21,18.42,18.42,0,0,1-2.14-.87,6.28,6.28,0,0,0-2.85-.67,2.66,2.66,0,0,0-1.33.24c-.31.21-.29.48-.4.58a1.44,1.44,0,0,1-.92.22,1.32,1.32,0,0,0-.9.31,1.44,1.44,0,0,0-.17.16,1.92,1.92,0,0,0-.37,1,1.66,1.66,0,0,1,.37-.34,1.21,1.21,0,0,1,.17-.1,1.08,1.08,0,0,1,.44-.1c1,0,1.84.57,1.84.78s-.11.1-.12.1c-.65,0-1.59-.34-2.16-.4h-.1v.22l0,0h0v0l.1,0c1.19.42,2.36,1.06,2.36,3.64a8.87,8.87,0,0,1-1,4.7,4.41,4.41,0,0,1-1.22,1.24,11.82,11.82,0,0,1-2-.81c-1.31-.73-2-1.45-3.54-1.53V50c0-.63.23-1.2.23-1.8-.66-.18-2.47-2.4-4.15-3.39-2.47,1.6-4.38,4.22-4.38,5.43,0,0,0,5.69,0,12.67A3.5,3.5,0,0,1,81.16,64.17Zm1.23-8.43-.8-.75V53.8l.8-.75Zm0-3.73-.8.74V50.2a2,2,0,0,1,.27-.86l.53,1Zm1.25,2.87-.39.37-.53.49V53.05l.53.49.39.37Zm0-2L82.72,52V50.77l.92-1Zm1.24,2.86-.53-.49L84,54.87v-1l.39-.37.53-.49Zm0-3.72-.92.86V49.55l.92,1.4Zm1.25,2.86-.4.38-.52.49V53.05l.92.86Zm0-2L85.21,52v-1l.92-.88Zm1.25,2.87-.53-.49-.39-.37V54a3.79,3.79,0,0,0,.92-.92Zm-.92-2.79V50a4.7,4.7,0,0,0,1.38,1.55A4.83,4.83,0,0,1,86.46,52.94Zm1.78-1.88a4.79,4.79,0,0,1-1.6-1.6v-.29a.78.78,0,0,1,.27-.57l-.34-.12a1,1,0,0,0-.27.65v.16l-.11.12-.06.06-.84.9-1-1.5v-.37a1.26,1.26,0,0,1,.35-.71l-.33-.12a1.41,1.41,0,0,0-.34.78v.3l-1.14,1.17-.58-1.24a13.8,13.8,0,0,1,2.87-2.8h0a19,19,0,0,0,3.07,2.37l0,.71ZM101.37,51V48.06H101V51a1.91,1.91,0,0,0,.14.82,11.22,11.22,0,0,0,.84,2c-1.15-.62-1.74-1.4-1.74-1.69v-4H100v4.08l.06.28a2.47,2.47,0,0,1-.45.54,2.47,2.47,0,0,1-.44-.54l.06-.28V48.06h-.33v4c0,.29-.59,1.07-1.74,1.69a10.94,10.94,0,0,0,.84-2,1.93,1.93,0,0,0,.13-.82V48.06h-.32V51c0,.77-.93,1.61-2.18,2.27a3.28,3.28,0,0,0,.59-.88c.47-.82,1.06-1.86,1.06-4.83a5,5,0,0,0-.45-2.4c-.09-.17-.2-.64.46-.64.34,0,1.14.61,1.14.61a1.1,1.1,0,0,0-.43-.77A.46.46,0,0,1,97.8,44a.23.23,0,0,1,0-.07.62.62,0,0,1-.42-.54.44.44,0,0,1,0-.07c-.34-.15-.67-.37-.67-.69,0-.14.09-.23.39-.23a4.66,4.66,0,0,1,1.07.36h0a1,1,0,0,1,.41.09l.12,0c.42,0,.59-.1,1-.1s1.63,1,2,1c-.42-.27-1.1-1.27-2.13-1.27-.36,0-.68.08-1,.08s-.85-.39-1.31-.39c-.31,0-.66,0-.71-.06s0-.22.07-.34.6-.28,1-.3h.71a8.08,8.08,0,0,1,3.39,1.12c.32.14.61.25.87.34a1,1,0,0,0-.33.41,1.23,1.23,0,0,1,.79.55s-.52.06-.6.36a.75.75,0,0,1,.58.74l-.73-.23a9.12,9.12,0,0,1,.18,1.71c0,.45-.66,1-.66,1.76a6.83,6.83,0,0,0,1,4.11,3.19,3.19,0,0,0,.59.88C102.3,52.6,101.37,51.76,101.37,51Zm11.33,3.88-.39.37-.52.49V53.05a3.75,3.75,0,0,0,.92.92Zm0-1.93a4.84,4.84,0,0,1-1.38-1.37A4.69,4.69,0,0,0,112.71,50Zm1.24,2.79-.52-.49-.4-.38v-1l.92-.86Zm0-3.72-.92.86V50.18l.92.88Zm1.25,2.86-.39.37-.53.49V53.05l.53.49.39.37Zm0-2-.92-.86V51l.92-1.4Zm1.25,2.86-.53-.49-.39-.37v-1l.39-.37.53-.49Zm0-3.72-.92.86V49.8l.92,1Zm-.13-2.08-1.14-1.17v-.3a1.42,1.42,0,0,0-.34-.78l-.33.12a1.26,1.26,0,0,1,.35.71v.37l-1,1.5-.84-.9-.06-.06-.11-.12v-.16a1,1,0,0,0-.27-.65l-.34.12a.78.78,0,0,1,.27.57v.29a4.78,4.78,0,0,1-1.61,1.6V49l0-.71A19,19,0,0,0,114,45.9h0a14,14,0,0,1,2.87,2.8ZM117.57,55l-.8.75V53l.8.75Zm0-2.24-.8-.74V50.29l.52-1a1.94,1.94,0,0,1,.28.86ZM95,42.93a1.57,1.57,0,0,0-.68.14,1.08,1.08,0,0,1,1-.51l1.23,0c.13.33.7.87.7,1.44A2.46,2.46,0,0,0,95,42.93Zm.6,1.06a2.28,2.28,0,0,0,1.36.19,2.71,2.71,0,0,0-.42.56A4.11,4.11,0,0,1,95.56,44Z"/><path class="md_cls-4" d="M94.19,77.4a12.52,12.52,0,0,1-1.34,1.37s-.16-.69-.26-.94a1.9,1.9,0,0,1-.71.35s-.08-.47-.13-.78a1.57,1.57,0,0,1-.84.17c.34-.16.72-.91.9-1.31l-.4-.21a12,12,0,0,1-1.18,2,4.37,4.37,0,0,0,.52,0c-.17.24-1.47,2.11-1.87,2.81-.3.53-.54.45-.92.39l.12.26h-.78l-.08-.17-.28.14a.54.54,0,0,1-.21.26.53.53,0,0,1-.33.08,2.13,2.13,0,0,0-.52.48,2.32,2.32,0,0,0-.33,1.06,1.88,1.88,0,0,0,.38.86A.45.45,0,0,1,86,84s1,1.25,1.15,1.42a.8.8,0,0,0,.81,0c.26-.24.52-.45.77-.69l-.05-.12.53-.55,0,.07v0c.21-.31.22-.66.46-1,.8-1.1,2.39-3.21,2.75-3.69l.07.38a11,11,0,0,1,2.18-2.25Zm-5.28,4.14,2.26-3.49a.88.88,0,0,0,.22-.08,1.71,1.71,0,0,0,.19.87l.71-.48.11.55c-.3.41-2,2.79-2.91,4a3.94,3.94,0,0,0-.39,1s-.31-.15-.31-.42,0-.58,0-.58a.9.9,0,0,1-.64.27c0-.32.63-.67.65-1.14-.48.35-.89.17-1.45.34s-.77.44-1,.43-.21-.19-.17-.31a2.58,2.58,0,0,1,1.34-.85C87.73,81.61,88.71,81.84,88.91,81.54Zm-1.26,3.61a.26.26,0,0,1-.35-.39l.78-.68a.22.22,0,0,1,.13-.05.27.27,0,0,1,.22.09.25.25,0,0,1,0,.36ZM87.14,83a.23.23,0,0,1,.14-.06.27.27,0,0,1,.22.1.25.25,0,0,1,0,.36l-.78.68a.27.27,0,0,1-.35-.4Zm-.59,0,.32-.28a.09.09,0,0,1,.07,0,.12.12,0,0,1,.07,0,.1.1,0,0,1,0,.15l-.32.28a.11.11,0,0,1-.15,0A.1.1,0,0,1,86.55,83Zm1,.56a.22.22,0,0,1,.13-.05.27.27,0,0,1,.23.1.25.25,0,0,1,0,.35l-.78.68a.25.25,0,0,1-.35,0,.26.26,0,0,1,0-.36Z"/><path class="md_cls-4" d="M83.66,76.92a.51.51,0,0,1,.19-.64.59.59,0,0,1,.23-.09V75.4l-.55.08v2.45l.55.08v-.79A.53.53,0,0,1,83.66,76.92Z"/><path class="md_cls-4" d="M86.37,76.08a.53.53,0,0,1-.35,0v1l.36.79a2.36,2.36,0,0,1,.07-.71,2.25,2.25,0,0,1,.12-.33V75.9A.51.51,0,0,1,86.37,76.08Z"/><path class="md_cls-4" d="M83.79,72.18a1.71,1.71,0,0,1,.18-.51l.11-.17v-.07a.56.56,0,0,1-.55-.15v.32Z"/><path class="md_cls-4" d="M83.52,73.46l.1.07-.1-.21Z"/><polygon class="md_cls-4" points="89.58 85.19 90.37 85.62 90.1 86.87 88.98 86.26 89.17 85.38 89.06 85.44 88.87 85.02 88.55 86.46 90.36 87.44 90.8 85.43 89.52 84.73 89.7 85.14 89.58 85.19"/><path class="md_cls-4" d="M87.47,80.78c.06.17.08.27,0,.28s-.14-.09-.25-.28h-.19V80.7l-.1.17.24.53.08.17h.78l-.12-.26-.24-.52Z"/><path class="md_cls-4" d="M87.07,79.84l.21.46,0,0v0l0,0h.21l-.07-.15-.14.08Z"/><path class="md_cls-4" d="M85.88,78c-.37-.81-.68-1.52-.86-2l-.19.21L86,78.67l.35.25Z"/><path class="md_cls-4" d="M83.51,72.75c-.26-.58-.8-1.46-.64-1.53s.38.39.65,1l.22.45a2.51,2.51,0,0,1,0-.46l-.27-.58-.21-.45a2,2,0,0,0-.46,0l-.22.25.89,1.94.1.21a4.3,4.3,0,0,1,.4.36C83.85,73.56,83.66,73.08,83.51,72.75Z"/><path class="md_cls-4" d="M85.14,75.14l-.24.12-.54-1h0l.47,1-.35.1.22.49.13-.14,0-.27h.11s0,0,0-.05.05,0,.09.05h.26Z"/><polygon class="md_cls-4" points="88.72 84.7 88.78 84.82 88.87 85.02 89.06 85.44 89.17 85.38 89.25 85.01 89.58 85.19 89.7 85.14 89.52 84.73 89.29 84.23 89.25 84.16 88.72 84.7"/><path class="md_cls-4" d="M80.86,65.77l-.06-.13-.08.15Z"/><path class="md_cls-4" d="M81.25,68.34a1.81,1.81,0,0,1,.61.69l.39,1.06-.17.06.37.82.12-.13v-.11h.11l.07-.09.08.08.29,0-.2-.43-.17.14-.83-1.57c-.23.07-.48-.58-.73-1.13s-.52-1-.37-1,.41.43.63.9v0a2.26,2.26,0,0,1,0-.55l-.34-.74c-.11-.1-.25-.1-.6-.09l-.15.17.44,1Z"/><path class="md_cls-4" d="M86,77.07l-.58-1.28h-.21c.25.5.61,1.36,1,2.25l.24.51a3.66,3.66,0,0,1-.1-.7Z"/><polygon class="md_cls-5" points="90.1 86.87 90.37 85.62 89.58 85.19 89.25 85.01 89.17 85.38 88.98 86.26 90.1 86.87"/><path class="md_cls-4" d="M86.93,80.18c-.19-.36-.4-.8-.62-1.26L86,78.67a3.6,3.6,0,0,0-.77-.39A7.4,7.4,0,0,0,84.08,78l-.55-.08c-.38,0-.66-.07-.66-.07a7.12,7.12,0,0,0,.66,1.07,1.22,1.22,0,0,0,.43.39,1.07,1.07,0,0,0-.43,0,6,6,0,0,0-.6.18s.24.21.6.46c.16.12.35.24.55.35a3.79,3.79,0,0,0,1.23.47l.19,0a2.12,2.12,0,0,0,.3,0,2.26,2.26,0,0,0,.72-.14A2.77,2.77,0,0,0,86.93,80.18Zm-3.4-1.84a5,5,0,0,1,1.72.26,3.68,3.68,0,0,1,1.32,1,3.73,3.73,0,0,1-1.9-.2A3.18,3.18,0,0,1,83.53,78.34ZM85,80.48a2.93,2.93,0,0,1-1.26-.85,8.45,8.45,0,0,1,1.77.14,1.57,1.57,0,0,1,.91.52A2.48,2.48,0,0,1,85,80.48Z"/><path class="md_cls-4" d="M86.38,77.86a3.66,3.66,0,0,0,.1.7l.59,1.28.25.46.14-.08A3.7,3.7,0,0,0,88.74,79,3.5,3.5,0,0,0,89,77.11a4.31,4.31,0,0,0-.89.42,2,2,0,0,0-.1-1,4.13,4.13,0,0,0-.26-.62,4.24,4.24,0,0,0-.22-.38,4.25,4.25,0,0,0-1,1.25,2.25,2.25,0,0,0-.12.33A2.36,2.36,0,0,0,86.38,77.86Zm2.33-.35a4.26,4.26,0,0,1-.36,1.5,1.18,1.18,0,0,1-.84.56,1.43,1.43,0,0,1,.14-1A4.12,4.12,0,0,1,88.71,77.51Zm-2-.06a3,3,0,0,1,.76-1.32,4.57,4.57,0,0,1,.36,1.1,1.55,1.55,0,0,1,0,.67,5.88,5.88,0,0,0-.43.46,1.35,1.35,0,0,0-.2.62A2.83,2.83,0,0,1,86.7,77.46Z"/><path class="md_cls-4" d="M83.52,75.48l.55-.08.36-.08.35-.1-.47-1c-.09,0-.19-.14-.3-.34a4.3,4.3,0,0,0-.4-.36l-.1-.07a2.51,2.51,0,0,0-.6-.34A2.57,2.57,0,0,0,81.59,73l-.25.05s.1.17.25.39a2.27,2.27,0,0,0,.74.77,1.42,1.42,0,0,0-.74.22c-.21.11-.37.22-.37.22a3.35,3.35,0,0,0,.37.3,2.55,2.55,0,0,0,1.28.51A4.38,4.38,0,0,0,83.52,75.48ZM82,73.7a1.42,1.42,0,0,1-.25-.49,2.2,2.2,0,0,1,1.29.23,4.55,4.55,0,0,1,1.19,1.21,3.53,3.53,0,0,0-1-.45,1.57,1.57,0,0,0-.74,0A4,4,0,0,1,82,73.7Zm-.32,1a3.16,3.16,0,0,1,1.38-.24,2.63,2.63,0,0,1,1.19.58,4,4,0,0,1-1.47.21A2.22,2.22,0,0,1,81.71,74.71Z"/><path class="md_cls-4" d="M85.49,71.83c.12-.35-.37-1.36-.37-1.36a5.68,5.68,0,0,0-.67.58.53.53,0,0,1-.29.36h0l-.06.08-.11.17a1.71,1.71,0,0,0-.18.51,2.51,2.51,0,0,0,0,.46c.32.63.75,1.46.61,1.57l.54,1,.24-.12a2.48,2.48,0,0,0,.88-.83,1.88,1.88,0,0,0,.21-.44,6.42,6.42,0,0,0,0-2.64l-.2.13A2.35,2.35,0,0,0,85.49,71.83Zm-.58-.64a2.58,2.58,0,0,1,.27.75,1.6,1.6,0,0,1-.06.57,2.61,2.61,0,0,0-.32.54,1.79,1.79,0,0,0-.07.65,1.74,1.74,0,0,1-.54-1.19A2.91,2.91,0,0,1,84.92,71.19Zm1,2.42a2.33,2.33,0,0,1-.74,1.14,2.64,2.64,0,0,1-.13-1.41,3.41,3.41,0,0,1,.8-1.32A3.92,3.92,0,0,1,85.95,73.61Z"/><path class="md_cls-4" d="M81.59,70.26a4.66,4.66,0,0,0,.48-.11l.17-.06L81.86,69a1.81,1.81,0,0,0-.61-.69,2.24,2.24,0,0,0-.44-.25h0a4.67,4.67,0,0,0-2-.28s.37.67.71.83a2,2,0,0,0-.87.15A3.79,3.79,0,0,0,80.2,70.2a2.16,2.16,0,0,0,.59.11A3.45,3.45,0,0,0,81.59,70.26ZM79.24,68a3.17,3.17,0,0,1,1.26.24,3,3,0,0,1,.92.77,3.63,3.63,0,0,1-1.31-.27A2.63,2.63,0,0,1,79.24,68Zm.88,1.82a1.71,1.71,0,0,1-.71-.7,4.12,4.12,0,0,1,1.29.22,2.61,2.61,0,0,1,.82.67A4.29,4.29,0,0,1,80.12,69.83Z"/><path class="md_cls-4" d="M83.52,69.49a2.15,2.15,0,0,0,.21-.69,4.57,4.57,0,0,0-.21-1.71c-.12-.43-.25-.74-.25-.74a2.2,2.2,0,0,0-.7.76,2.45,2.45,0,0,0-.48-1.28h0a.53.53,0,0,1-.28.64.52.52,0,0,1-.23,0,1.49,1.49,0,0,0-.13.4s0,.07,0,.1a2.26,2.26,0,0,0,0,.55c.21.46.69,1.17.47,1.26h0l.83,1.57.17-.14A2.75,2.75,0,0,0,83.52,69.49Zm-1-1.05a3.09,3.09,0,0,1,.54-1.29,2.7,2.7,0,0,1,.37,1.39,2.41,2.41,0,0,1-.64,1.23A2.78,2.78,0,0,1,82.54,68.44Zm-.48-1.95a1.77,1.77,0,0,1,.32.89,3.45,3.45,0,0,1-.21,1.14,2.72,2.72,0,0,1-.36-1.06A1.92,1.92,0,0,1,82.06,66.49Z"/><path class="md_cls-4" d="M80.22,65.92v-.11h.11l.07-.08.08.08.25,0,.08-.15a3.06,3.06,0,0,0,.36-1.47,3.5,3.5,0,0,0-.38-1.3,6.13,6.13,0,0,0-.49-.85,4,4,0,0,0-.35,1.17c-.21-.52-1.48-1.22-1.48-1.22a3.42,3.42,0,0,0,.13,1.73,1.94,1.94,0,0,0,.47.69A3.14,3.14,0,0,0,77.68,64a3.65,3.65,0,0,0,1,1.74,2.4,2.4,0,0,0,1.29.42Zm.19-3.08a2,2,0,0,1,.43,1.06,3.38,3.38,0,0,1-.28,1.26,3.55,3.55,0,0,1-.36-1.22A2.8,2.8,0,0,1,80.41,62.84ZM79,63.9a2.87,2.87,0,0,1-.24-1.26,1.67,1.67,0,0,1,.86.64,2.86,2.86,0,0,1,.24,1.26A1.67,1.67,0,0,1,79,63.9Zm0,1.6a4,4,0,0,1-.79-1,2.37,2.37,0,0,1,1.1.35,2,2,0,0,1,.56,1A1.34,1.34,0,0,1,79,65.5Z"/><path class="md_cls-8" d="M79.88,64.54a2.86,2.86,0,0,0-.24-1.26,1.67,1.67,0,0,0-.86-.64A2.87,2.87,0,0,0,79,63.9,1.67,1.67,0,0,0,79.88,64.54Z"/><path class="md_cls-8" d="M79.33,64.81a2.37,2.37,0,0,0-1.1-.35,4,4,0,0,0,.79,1,1.34,1.34,0,0,0,.86.26A2,2,0,0,0,79.33,64.81Z"/><path class="md_cls-8" d="M80.57,65.17a3.38,3.38,0,0,0,.28-1.26,2,2,0,0,0-.43-1.06,2.8,2.8,0,0,0-.21,1.11A3.55,3.55,0,0,0,80.57,65.17Z"/><path class="md_cls-8" d="M81.42,69a3,3,0,0,0-.92-.77A3.17,3.17,0,0,0,79.24,68a2.63,2.63,0,0,0,.87.74A3.63,3.63,0,0,0,81.42,69Z"/><path class="md_cls-8" d="M81.52,70a2.61,2.61,0,0,0-.82-.67,4.12,4.12,0,0,0-1.29-.22,1.71,1.71,0,0,0,.71.7A4.29,4.29,0,0,0,81.52,70Z"/><path class="md_cls-8" d="M82.38,67.38a1.77,1.77,0,0,0-.32-.89,1.92,1.92,0,0,0-.25,1,2.72,2.72,0,0,0,.36,1.06A3.45,3.45,0,0,0,82.38,67.38Z"/><path class="md_cls-8" d="M83.46,68.53a2.7,2.7,0,0,0-.37-1.39,3.09,3.09,0,0,0-.54,1.29,2.78,2.78,0,0,0,.27,1.33A2.41,2.41,0,0,0,83.46,68.53Z"/><path class="md_cls-8" d="M83.3,74.19a3.53,3.53,0,0,1,1,.45,4.55,4.55,0,0,0-1.19-1.21,2.2,2.2,0,0,0-1.29-.23,1.42,1.42,0,0,0,.25.49,4,4,0,0,0,.54.52A1.57,1.57,0,0,1,83.3,74.19Z"/><path class="md_cls-8" d="M84.28,75a2.63,2.63,0,0,0-1.19-.58,3.16,3.16,0,0,0-1.38.24,2.22,2.22,0,0,0,1.1.54A4,4,0,0,0,84.28,75Z"/><path class="md_cls-8" d="M84.81,73a2.61,2.61,0,0,1,.32-.54,1.6,1.6,0,0,0,.06-.57,2.58,2.58,0,0,0-.27-.75,2.91,2.91,0,0,0-.73,1.33,1.74,1.74,0,0,0,.54,1.19A1.79,1.79,0,0,1,84.81,73Z"/><path class="md_cls-8" d="M85.21,74.75a2.33,2.33,0,0,0,.74-1.14,3.92,3.92,0,0,0-.07-1.6,3.41,3.41,0,0,0-.8,1.32A2.64,2.64,0,0,0,85.21,74.75Z"/><path class="md_cls-8" d="M87.2,79a1.35,1.35,0,0,1,.2-.62,5.88,5.88,0,0,1,.43-.46,1.55,1.55,0,0,0,0-.67,4.57,4.57,0,0,0-.36-1.1,3,3,0,0,0-.76,1.32A2.83,2.83,0,0,0,87.2,79Z"/><path class="md_cls-8" d="M87.65,78.53a1.43,1.43,0,0,0-.14,1,1.18,1.18,0,0,0,.84-.56,4.26,4.26,0,0,0,.36-1.5A4.12,4.12,0,0,0,87.65,78.53Z"/><path class="md_cls-8" d="M86.39,80.29a1.57,1.57,0,0,0-.91-.52,8.45,8.45,0,0,0-1.77-.14,2.93,2.93,0,0,0,1.26.85A2.48,2.48,0,0,0,86.39,80.29Z"/><path class="md_cls-8" d="M84.66,79.38a3.73,3.73,0,0,0,1.9.2,3.68,3.68,0,0,0-1.32-1,5,5,0,0,0-1.72-.26A3.18,3.18,0,0,0,84.66,79.38Z"/><path class="md_cls-4" d="M87.27,80.78l-.12-.21-.08.12v.08Z"/><path class="md_cls-4" d="M87.47,80.78h.23a.34.34,0,0,1,.29.15.55.55,0,0,0,.64.13.54.54,0,0,0,.27-.71.51.51,0,0,0-.61-.28c-.15,0-.24.14-.37.21a1.18,1.18,0,0,1-.4.09h-.21C87.38,80.54,87.44,80.67,87.47,80.78Zm.82-.47a.29.29,0,0,1,.38.14h0a.29.29,0,0,1-.53.24A.29.29,0,0,1,88.3,80.31Z"/><path class="md_cls-5" d="M88.54,80.84a.29.29,0,0,0,.14-.38h0a.29.29,0,1,0-.14.39Z"/><path class="md_cls-4" d="M86.72,81.8a.54.54,0,0,0,.21-.26.54.54,0,0,0,0-.35.34.34,0,0,1,0-.31l.1-.17.08-.12-.21-.39a2.77,2.77,0,0,1-.41.53l-.08.07c-.12.07-.27.09-.37.2a.51.51,0,0,0-.09.66.56.56,0,0,0,.74.15Zm-.54-.29h0a.29.29,0,1,1,.4.08A.29.29,0,0,1,86.18,81.51Z"/><path class="md_cls-4" d="M87.28,80.29l0,0v0Z"/><path class="md_cls-5" d="M86.66,81.19a.29.29,0,0,0-.49.32h0a.29.29,0,1,0,.48-.32Z"/><path class="md_cls-4" d="M85.25,75.39H85a2,2,0,0,1,.24.39h.21a.35.35,0,0,1,.29.15.54.54,0,0,0,.3.17.53.53,0,0,0,.35,0,.51.51,0,0,0,.21-.18.53.53,0,0,0,.06-.53.43.43,0,0,0-.06-.09.52.52,0,0,0-.55-.19h0c-.15,0-.24.15-.37.21A1.19,1.19,0,0,1,85.25,75.39Zm.77-.06a.29.29,0,0,1,.38.14h0a.29.29,0,0,1-.53.24h0A.29.29,0,0,1,86,75.33Z"/><path class="md_cls-4" d="M84.77,75.4l0,.27.1-.12a.44.44,0,0,1,0-.15Z"/><path class="md_cls-5" d="M85.88,75.71a.29.29,0,0,0,.53-.24h0a.29.29,0,0,0-.53.24Z"/><path class="md_cls-4" d="M84.66,75.81a1.48,1.48,0,0,1-.41.33l-.17,0a.59.59,0,0,0-.23.09.51.51,0,0,0-.19.64.53.53,0,0,0,.42.3.52.52,0,0,0,.29,0,.56.56,0,0,0,.32-.58c0-.17,0-.25.15-.41L85,76a3.67,3.67,0,0,1-.14-.44l-.1.12ZM84.27,77a.29.29,0,1,1,.14-.39h0A.29.29,0,0,1,84.27,77Z"/><path class="md_cls-5" d="M84.41,76.58a.29.29,0,1,0-.14.39.29.29,0,0,0,.14-.39Z"/><path class="md_cls-4" d="M82.56,70.73v.11l.1-.11Z"/><path class="md_cls-4" d="M82.85,71.13a2,2,0,0,1,.46,0,.34.34,0,0,1,.2.13h0a.56.56,0,0,0,.55.15h.08a.56.56,0,0,0,.26-.71.46.46,0,0,0-.35-.28.68.68,0,0,0-.26,0,.78.78,0,0,0-.29.16l-.08.05a1.08,1.08,0,0,1-.33.08l-.29,0,.2.2Zm1-.47a.29.29,0,0,1,.38.14h0a.29.29,0,0,1-.53.24h0A.29.29,0,0,1,83.82,70.66Z"/><path class="md_cls-5" d="M83.67,71a.29.29,0,0,0,.53-.24h0a.29.29,0,0,0-.53.24Z"/><path class="md_cls-4" d="M82.21,72.3a.55.55,0,0,0,.32-.58.38.38,0,0,1,.1-.35l.22-.25.17-.2-.2-.2-.08-.08-.07.09-.1.11-.12.13a1.3,1.3,0,0,1-.36.28,1.38,1.38,0,0,0-.4.14l-.1.1a.48.48,0,0,0-.09.55.59.59,0,0,0,.09.13A.53.53,0,0,0,82.21,72.3Zm-.35-.75a.29.29,0,0,1,.38.14h0a.29.29,0,0,1-.53.24h0A.29.29,0,0,1,81.87,71.55Z"/><path class="md_cls-5" d="M81.72,71.93a.29.29,0,0,0,.53-.24h0a.29.29,0,1,0-.53.24Z"/><path class="md_cls-4" d="M81.16,66.35a.56.56,0,0,0,.41.18.52.52,0,0,0,.23,0,.53.53,0,0,0,.28-.64.43.43,0,0,0,0-.07.48.48,0,0,0-.48-.29h-.13c-.15,0-.24.15-.37.21a.8.8,0,0,1-.23.07l-.14,0-.25,0,.2.2-.17.2c.35,0,.48,0,.6.09Zm.3-.62a.29.29,0,0,1,.38.14h0a.29.29,0,0,1-.53.24A.29.29,0,0,1,81.47,65.73Z"/><path class="md_cls-4" d="M80.21,65.81v.11l.1-.11Z"/><path class="md_cls-5" d="M81.71,66.26a.29.29,0,0,0,.14-.38h0a.29.29,0,0,0-.38-.14.29.29,0,0,0-.14.38A.29.29,0,0,0,81.71,66.26Z"/><path class="md_cls-4" d="M80.67,66l-.2-.2-.08-.08-.07.08-.1.11-.25.24a.9.9,0,0,1-.23.16,1.41,1.41,0,0,0-.4.14.51.51,0,0,0-.19.64.54.54,0,0,0,.71.27.55.55,0,0,0,.32-.58c0-.17,0-.25.17-.42l.15-.17Zm-.92,1.15a.29.29,0,1,1,.14-.38A.29.29,0,0,1,79.76,67.15Z"/><circle class="md_cls-5" cx="79.64" cy="66.89" r="0.29" transform="translate(-20.61 39.2) rotate(-24.59)"/><path class="md_cls-5" d="M84.36,74.22c.14-.11-.29-.94-.61-1.57l-.22-.45c-.27-.59-.49-1.05-.65-1s.38,1,.64,1.53c.15.33.33.82.51,1.14s.21.33.3.34h0Z"/><path class="md_cls-5" d="M81.46,67.58v0c-.21-.47-.46-1-.63-.9s.1.47.37,1,.5,1.2.73,1.13h0C82.16,68.76,81.68,68,81.46,67.58Z"/><path class="md_cls-5" d="M87.52,81.06s0-.11,0-.28-.09-.24-.16-.39l0,0,0,0-.21-.46-.59-1.28L86.24,78c-.41-.89-.77-1.75-1-2.25A2,2,0,0,0,85,75.4s-.07-.06-.09-.05,0,0,0,.05a.44.44,0,0,0,0,.15A3.67,3.67,0,0,0,85,76c.18.49.49,1.2.86,2l.43.92c.22.46.43.9.62,1.26l.21.39.12.21C87.38,81,87.47,81.07,87.52,81.06Z"/><path class="md_cls-9" d="M107.18,75.72c2.3-1.15,2.7-2,2.7-2.43V65.63a19.79,19.79,0,0,0-3.25,1.9c-.65-.93-3.12-2-3.12-2l.9,1.63a4.62,4.62,0,0,0-2.33.77c-1,.83-.88,2.59-.88,3.87a3.57,3.57,0,0,0,.64,2.51c.7.59,1.17.63,1.17,1.32s-.44.69-1.17,1.07c-.92.49-.88,1.14-2.26,1.14s-1.33-.65-2.26-1.14c-.72-.38-1.16-.5-1.16-1.07s.47-.73,1.16-1.32A3.56,3.56,0,0,0,98,71.78c0-1.28.1-3-.88-3.87a4.62,4.62,0,0,0-2.33-.77l.9-1.63s-2.48,1.09-3.12,2a19.71,19.71,0,0,0-3.26-1.9v7.65c0,.38.4,1.28,2.7,2.43,3.8,1.89,6.73,2.78,7.61,3.86C100.45,78.5,103.38,77.61,107.18,75.72Zm-1.34-4.88a2.77,2.77,0,0,1,2.33,1.31,2.68,2.68,0,0,0-.62-.07,2.09,2.09,0,0,0-2.19,2.29,2.36,2.36,0,0,0,.34,1,2.66,2.66,0,0,1-2.06-2.22A2.09,2.09,0,0,1,105.85,70.83Zm-3.27-2.9.88.88-.88.88-.88-.88Zm.33,6.88a2.26,2.26,0,0,1-1.5-1.63c-.12-.59-.25-2.78.36-3.15l1.63-.32a10,10,0,0,0-.59,3.4A10.56,10.56,0,0,0,102.91,74.81ZM95.12,73a1,1,0,1,1-1.35,1.6,1,1,0,0,1-.18-.19,1,1,0,0,1-.06.25,1,1,0,1,1-1.95-.78,1.07,1.07,0,0,1,.13-.22h-.25a1,1,0,0,1,0-2.09h.11a1,1,0,0,1,.26.05,1.11,1.11,0,0,1-.1-.24,1,1,0,0,1,.76-1.28l.21,0a1,1,0,0,1,1.06.79,1,1,0,0,1,0,.26,1,1,0,0,1,.2-.16,1,1,0,0,1,1.45.33,1.05,1.05,0,0,1-.33,1.45,1,1,0,0,1-.23.11A1.1,1.1,0,0,1,95.12,73Zm1.46-5,.88.88-.88.88-.88-.88ZM97.4,70c.6.37.47,2.56.35,3.15a2.26,2.26,0,0,1-1.5,1.63,10.38,10.38,0,0,0,.11-1.71,10,10,0,0,0-.59-3.4Z"/><path class="md_cls-7" d="M92.53,63.83a6.75,6.75,0,0,0,3.13,1.68l.15-.28a5,5,0,0,1-3.68-4.86c0-3.07,3.69-4.6,3.8-5.33.36,1.27-1.23,3-1.23,5.1,0,2.69,2,2.81,2,2.81.46,0,.65.33.83.33.39,0,.57-.54,1-.54s.63.56,1.11.56.76-.56,1.12-.56.57.5,1,.54c.18,0,.37-.33.83-.33,0,0,2-.13,2-2.81,0-2.08-1.59-3.83-1.23-5.1.11.73,3.8,2.26,3.8,5.33a5,5,0,0,1-3.68,4.86l.15.28a6.76,6.76,0,0,0,3.13-1.68,8.73,8.73,0,0,0,3.25,1.8v-10a1.51,1.51,0,0,1,.29-.91H89a1.51,1.51,0,0,1,.29.91v10A8.76,8.76,0,0,0,92.53,63.83ZM97.2,56.3l1.74.83.64-1.81.64,1.81L102,56.3,101.14,58l1.82.64-1.82.64.83,1.74-1.74-.83-.64,1.82-.64-1.82-1.74.83L98,59.33l-1.81-.64L98,58Z"/><path class="md_cls-5" d="M92.53,67a7.82,7.82,0,0,1,1.91-1.42,4.51,4.51,0,0,1-1.94-1.19,6.41,6.41,0,0,1-2.14,1.27A12.5,12.5,0,0,1,92.47,67v.08l0,0,0,0Z"/><path class="md_cls-5" d="M106.66,64.39a4.51,4.51,0,0,1-1.94,1.19A7.82,7.82,0,0,1,106.63,67v0l0,0,0,0V67a12.4,12.4,0,0,1,2.11-1.33A6.41,6.41,0,0,1,106.66,64.39Z"/><polygon class="md_cls-5" points="98.06 57.16 98.58 58.27 97.43 58.68 98.58 59.09 98.06 60.2 99.17 59.68 99.58 60.83 99.99 59.68 101.1 60.2 100.58 59.09 101.73 58.68 100.58 58.27 101.1 57.16 99.99 57.69 99.58 56.53 99.17 57.69 98.06 57.16"/><path class="md_cls-5" d="M103.59,66.84,102.75,65s3.73-.91,3.73-4.58c0-2.28-2.7-4.22-2.7-4.22-.15.33,1.23,2.34,1.23,4,0,2-1.08,3.21-2.52,3.21-.28,0-.58.37-.83.37-.42,0-.7-.47-1-.47s-.55.51-1.12.51-.79-.51-1.11-.51-.54.47-1,.47c-.26,0-.56-.37-.83-.37-1.44,0-2.52-1.19-2.52-3.21,0-1.65,1.38-3.66,1.23-4,0,0-2.7,1.94-2.7,4.22C92.69,64,96.41,65,96.41,65l-.84,1.89a4.53,4.53,0,0,1,1.86.74c.94.76,1,2.81,1,4.2,0,1.63-.06,2.32-.65,2.77s-1.09.57-1.09,1,.48.59,1.11.86.78.86,1.82.86,1.11-.55,1.82-.86,1.11-.45,1.11-.86-.47-.58-1.09-1-.65-1.13-.65-2.77c0-1.39,0-3.44,1-4.2A4.53,4.53,0,0,1,103.59,66.84Zm-5.42,9.22c-.73,0-1.2-.15-1.2-.37s.47-.38,1.2-.38a.39.39,0,0,1,.42.38A.38.38,0,0,1,98.17,76.06Zm2.83-.75c.73,0,1.2.15,1.2.38s-.47.37-1.2.37a.38.38,0,0,1-.42-.37A.39.39,0,0,1,101,75.32Z"/><polygon class="md_cls-5" points="96.59 69.29 97.05 68.82 96.59 68.36 96.12 68.82 96.59 69.29"/><polygon class="md_cls-5" points="103.04 68.82 102.58 68.36 102.11 68.82 102.58 69.29 103.04 68.82"/><path class="md_cls-5" d="M102.44,73.95a14,14,0,0,1,.38-3.75l-.87.18a4.06,4.06,0,0,0-.27,2.17A1.57,1.57,0,0,0,102.44,73.95Z"/><path class="md_cls-5" d="M97.48,72.55a4,4,0,0,0-.27-2.17l-.87-.18a14,14,0,0,1,.38,3.75A1.57,1.57,0,0,0,97.48,72.55Z"/><path class="md_cls-5" d="M104.91,74.41A2.56,2.56,0,0,1,107,71.65a2.24,2.24,0,0,0-1.17-.34,1.6,1.6,0,0,0-1.72,1.78A2,2,0,0,0,104.91,74.41Z"/><circle class="md_cls-5" cx="93.18" cy="72.71" r="0.79"/><path class="md_cls-5" d="M92,71.51a.77.77,0,0,0,.11.24.84.84,0,0,0,.15.17,1.19,1.19,0,0,1,1.29-.33.81.81,0,0,0,.05-.2.83.83,0,0,0,0-.27.81.81,0,0,0-.82-.62l-.17,0A.82.82,0,0,0,92,71.51Z"/><path class="md_cls-5" d="M94.37,72.71v0a.81.81,0,0,0,.22,0,.84.84,0,0,0,.25-.1.82.82,0,0,0-.4-1.51.8.8,0,0,0-.46.13.78.78,0,0,0-.19.17.85.85,0,0,0-.12.2A1.2,1.2,0,0,1,94.37,72.71Z"/><path class="md_cls-5" d="M91.69,73.42a.78.78,0,0,0,.24,0,.73.73,0,0,0,.22-.1,1.18,1.18,0,0,1-.16-.59,1.2,1.2,0,0,1,.25-.74.74.74,0,0,0-.18-.11.73.73,0,0,0-.26-.07.81.81,0,1,0-.11,1.63Z"/><path class="md_cls-5" d="M93.41,74.35a.81.81,0,0,0,0-.48,1.05,1.05,0,0,1-.25,0,1.19,1.19,0,0,1-1-.53.72.72,0,0,0-.17.14.79.79,0,0,0-.14.22.82.82,0,0,0,1.52.61Z"/><path class="md_cls-5" d="M94.59,72.88a.87.87,0,0,0-.23-.06,1.19,1.19,0,0,1-.85,1,.88.88,0,0,0,.08.19.84.84,0,0,0,.17.21A.82.82,0,0,0,94.82,73,.79.79,0,0,0,94.59,72.88Z"/><path class="md_cls-4" d="M97.47,68.82l-.88-.88-.88.88.88.88Zm-.42,0-.46.47-.47-.47.47-.46Z"/><path class="md_cls-4" d="M103.46,68.82l-.88-.88-.88.88.88.88Zm-.88-.46.47.46-.47.47-.46-.47Z"/><path class="md_cls-4" d="M95.66,65.51a6.75,6.75,0,0,1-3.12-1.68,8.76,8.76,0,0,1-3.26,1.8,19.71,19.71,0,0,1,3.26,1.9C93.18,66.6,95.66,65.51,95.66,65.51Zm-3.19,1.56V67a12.5,12.5,0,0,0-2.11-1.33,6.41,6.41,0,0,0,2.14-1.27,4.51,4.51,0,0,0,1.94,1.19A7.82,7.82,0,0,0,92.53,67v0l0,0Z"/><path class="md_cls-4" d="M101.77,70c-.6.37-.47,2.56-.36,3.15a2.26,2.26,0,0,0,1.5,1.63,10.56,10.56,0,0,1-.11-1.71,10,10,0,0,1,.59-3.4Zm.18.35.88-.18a14,14,0,0,0-.38,3.75,1.57,1.57,0,0,1-.76-1.4A4.06,4.06,0,0,1,101.95,70.38Z"/><path class="md_cls-4" d="M95.47,71.27A1,1,0,0,0,94,70.95a1,1,0,0,0-.2.16,1,1,0,0,0,0-.26,1,1,0,0,0-1.06-.79l-.21,0a1,1,0,0,0-.76,1.28,1.11,1.11,0,0,0,.1.24,1,1,0,0,0-.26-.05H91.5a1,1,0,0,0,0,2.09h.25a1.07,1.07,0,0,0-.12.22,1,1,0,1,0,1.95.78,1,1,0,0,0,.06-.25,1,1,0,0,0,.18.19A1,1,0,1,0,95.12,73a1.1,1.1,0,0,0-.22-.14,1,1,0,0,0,.23-.11A1.05,1.05,0,0,0,95.47,71.27Zm-.56,2.88a.82.82,0,0,1-1.15.1.84.84,0,0,1-.17-.21.88.88,0,0,1-.08-.19,1.19,1.19,0,0,0,.85-1,.87.87,0,0,1,.23.06.79.79,0,0,1,.22.13A.81.81,0,0,1,94.91,74.16Zm-3-.42a.79.79,0,0,1,.14-.22.72.72,0,0,1,.17-.14,1.19,1.19,0,0,0,1,.53,1.05,1.05,0,0,0,.25,0,.81.81,0,1,1-1.55-.13ZM91.8,71.8a.73.73,0,0,1,.26.07.74.74,0,0,1,.18.11,1.2,1.2,0,0,0-.25.74,1.18,1.18,0,0,0,.16.59.73.73,0,0,1-.22.1.78.78,0,0,1-.24,0,.81.81,0,1,1,.11-1.62Zm.83-1.28.17,0a.81.81,0,0,1,.82.62.83.83,0,0,1,0,.27.81.81,0,0,1-.05.2,1.19,1.19,0,0,0-1.29.33.84.84,0,0,1-.15-.17.77.77,0,0,1-.11-.24A.82.82,0,0,1,92.63,70.52Zm1.34.73a.82.82,0,0,1,1.13.26.82.82,0,0,1-.26,1.13.84.84,0,0,1-.25.1.81.81,0,0,1-.22,0v0a1.2,1.2,0,0,0-.71-1.09.85.85,0,0,1,.12-.2A.78.78,0,0,1,94,71.25Zm0,1.46a.79.79,0,1,1-.79-.79A.79.79,0,0,1,94,72.71Z"/><path class="md_cls-4" d="M96.25,74.81a2.26,2.26,0,0,0,1.5-1.63c.12-.59.25-2.78-.35-3.15l-1.63-.32a10,10,0,0,1,.59,3.4A10.38,10.38,0,0,1,96.25,74.81Zm1-4.43a4,4,0,0,1,.27,2.17,1.57,1.57,0,0,1-.76,1.4,14,14,0,0,0-.38-3.75Z"/><path class="md_cls-4" d="M105.72,75.35a2.36,2.36,0,0,1-.34-1,2.09,2.09,0,0,1,2.19-2.29,2.68,2.68,0,0,1,.62.07,2.77,2.77,0,0,0-2.33-1.31,2.09,2.09,0,0,0-2.19,2.3A2.66,2.66,0,0,0,105.72,75.35Zm.13-4a2.24,2.24,0,0,1,1.17.34,2.56,2.56,0,0,0-2.11,2.76,2,2,0,0,1-.78-1.32A1.6,1.6,0,0,1,105.85,71.31Z"/><path class="md_cls-4" d="M98,59.33l-.83,1.74,1.74-.83.64,1.82.64-1.82,1.74.83-.83-1.74,1.82-.64L101.14,58,102,56.3l-1.74.83-.64-1.81-.64,1.81L97.2,56.3,98,58l-1.81.64Zm2-1.64,1.11-.53-.52,1.12,1.15.41-1.15.41.52,1.11L100,59.68l-.42,1.15-.41-1.15-1.11.53.53-1.11-1.15-.41,1.15-.41-.53-1.12,1.11.53.42-1.16Z"/><path class="md_cls-4" d="M106.63,63.83a6.76,6.76,0,0,1-3.12,1.68s2.47,1.09,3.13,2a19.79,19.79,0,0,1,3.25-1.9h0A8.73,8.73,0,0,1,106.63,63.83Zm.06,3.16v.08l0,0,0,0v0a7.82,7.82,0,0,0-1.91-1.42,4.51,4.51,0,0,0,1.94-1.19,6.41,6.41,0,0,0,2.14,1.27A12.4,12.4,0,0,0,106.69,67Z"/><path class="md_cls-4" d="M107,60.37c0-3.07-3.69-4.6-3.8-5.33-.36,1.27,1.23,3,1.23,5.1,0,2.69-2,2.81-2,2.81-.46,0-.65.33-.83.33-.39,0-.57-.54-1-.54s-.64.56-1.12.56-.75-.56-1.11-.56-.57.5-1,.54c-.18,0-.37-.33-.83-.33,0,0-2-.13-2-2.81,0-2.08,1.59-3.83,1.23-5.1-.11.73-3.8,2.26-3.8,5.33a5,5,0,0,0,3.68,4.86l-.15.28-.9,1.63a4.62,4.62,0,0,1,2.33.77c1,.83.88,2.59.88,3.87a3.56,3.56,0,0,1-.64,2.51c-.7.59-1.16.63-1.16,1.32s.44.69,1.16,1.07c.92.49.88,1.14,2.26,1.14s1.34-.65,2.26-1.14c.72-.38,1.17-.5,1.17-1.07s-.47-.73-1.17-1.32a3.57,3.57,0,0,1-.64-2.51c0-1.28-.09-3,.88-3.87a4.62,4.62,0,0,1,2.33-.77l-.9-1.63-.15-.28A5,5,0,0,0,107,60.37Zm-5.61,14.18c.62.47,1.09.57,1.09,1s-.49.59-1.11.86-.79.86-1.82.86-1.1-.55-1.82-.86-1.11-.45-1.11-.86.47-.58,1.09-1,.65-1.13.65-2.77c0-1.39,0-3.44-1-4.2a4.53,4.53,0,0,0-1.86-.74L96.41,65s-3.73-.91-3.73-4.58c0-2.28,2.7-4.22,2.7-4.22.15.33-1.23,2.34-1.23,4,0,2,1.08,3.21,2.52,3.21.27,0,.57.37.83.37.42,0,.7-.47,1-.47s.55.51,1.11.51.79-.51,1.12-.51.54.47,1,.47c.26,0,.56-.37.83-.37,1.44,0,2.52-1.19,2.52-3.21,0-1.65-1.38-3.66-1.23-4,0,0,2.7,1.94,2.7,4.22,0,3.68-3.73,4.58-3.73,4.58l.84,1.89a4.53,4.53,0,0,0-1.86.74c-.94.76-1,2.81-1,4.2C100.77,73.42,100.83,74.11,101.42,74.55Z"/><path class="md_cls-4" d="M98.17,75.32c-.73,0-1.2.15-1.2.38s.47.37,1.2.37a.38.38,0,0,0,.42-.37A.39.39,0,0,0,98.17,75.32Z"/><path class="md_cls-4" d="M100.58,75.69a.38.38,0,0,0,.42.37c.73,0,1.2-.15,1.2-.37s-.47-.38-1.2-.38A.39.39,0,0,0,100.58,75.69Z"/><path class="md_cls-5" d="M105,77.4c.82-.37,1.64-.75,2.38-1.13l.4-.21c.4-.21.78-.43,1.1-.64a4.94,4.94,0,0,0,1.22-1.08,1.7,1.7,0,0,0,.28-.51,1.67,1.67,0,0,0,.09-.55V55.66a1.28,1.28,0,0,1,.23-.67,3.54,3.54,0,0,1,.74-.8H87.74a3.51,3.51,0,0,1,.74.8,1.28,1.28,0,0,1,.23.66V73.28a1.63,1.63,0,0,0,.09.55,1.78,1.78,0,0,0,.28.51,5,5,0,0,0,1.22,1.08c.33.21.71.43,1.11.64l.4.21c.75.38,1.57.76,2.38,1.13l.58.26,1.66.74.54.25.54.25a5.33,5.33,0,0,1,2.08,1.6,5.32,5.32,0,0,1,2.08-1.6l.54-.26.54-.25,1.66-.74ZM92,75.72c-2.3-1.15-2.7-2-2.7-2.43V55.66a1.51,1.51,0,0,0-.29-.91h21.18a1.51,1.51,0,0,0-.29.91v10h0v7.65c0,.38-.4,1.28-2.7,2.43-3.8,1.89-6.73,2.78-7.61,3.86C98.7,78.5,95.78,77.61,92,75.72Z"/><path class="md_cls-4" d="M99,43.43a.62.62,0,0,0-.42-.53,1,1,0,0,0-.41-.09h0a.76.76,0,0,0-.79.55.44.44,0,0,0,0,.07.62.62,0,0,0,.42.54,1,1,0,0,0,.4.09A.74.74,0,0,0,99,43.43Zm-1.39,0a.57.57,0,1,1,.57.57A.57.57,0,0,1,97.65,43.43Z"/><path class="md_cls-7" d="M97.16,44c0-.56-.57-1.11-.7-1.44l-1.23,0a1.08,1.08,0,0,0-1,.51,1.57,1.57,0,0,1,.68-.14A2.46,2.46,0,0,1,97.16,44ZM96,43c0-.17.19-.17.31,0a.62.62,0,0,1,.09.3S96,43.09,96,43Z"/><path class="md_cls-4" d="M96,43c0,.13.4.26.4.26a.62.62,0,0,0-.09-.3C96.16,42.78,96,42.78,96,43Z"/><path class="md_cls-7" d="M96.49,44.73a2.71,2.71,0,0,1,.42-.56A2.28,2.28,0,0,1,95.56,44,4.11,4.11,0,0,0,96.49,44.73Z"/><path class="md_cls-4" d="M122.32,62.36l-1.27.93.14.3a.65.65,0,0,0-.34.29c-.11.21.07.5.07.5a5.34,5.34,0,0,0-1.39,0c-.17.11.07.95,0,1.65-.16,1-.54.9-.56,1.09a1.11,1.11,0,0,0,.15.47s-.22.07-.27.16.05.43,0,.62l-.4.78-.8,1.57-.61,1.2c-.07.14-.26.19-.36.38a.68.68,0,0,0,0,.43.6.6,0,0,0-.46.25,1,1,0,0,0-.05.58.46.46,0,0,0-.32.23c-.11.22.08.34,0,.44l-.14.28-.55,1.09-1.29,2.54c-.11.22-.39.33-.68.55a1.74,1.74,0,0,0-.51.6,1.06,1.06,0,0,0-.11.69,1.11,1.11,0,0,0,.26.53s-.54,0-.67.33a.65.65,0,0,0,.06.63.74.74,0,0,0,.29.27.78.78,0,0,0,.29.08.67.67,0,0,0,.66-.33c.14-.28-.14-.74-.14-.74h.08a1.17,1.17,0,0,0,.42-.07,1,1,0,0,0,.58-.53c.37-.72.06-1.28.24-1.63l.53-1,.55-1.09.91-1.79c0-.1.25,0,.37-.23a.44.44,0,0,0,0-.39,1,1,0,0,0,.44-.38.6.6,0,0,0-.06-.52.82.82,0,0,0,.28-.18l.06-.08c.1-.19,0-.37.1-.52l.64-1.25,1.17-2.3c.1-.19.4-.25.47-.4s0-.32,0-.32a1.09,1.09,0,0,0,.47-.15c.14-.12-.15-.39.55-1.1.5-.5,1.32-.8,1.31-1a5.34,5.34,0,0,0-.8-1.14s.33,0,.44-.23a.67.67,0,0,0,0-.45l.33-.06Zm-3.25,4.8a1.44,1.44,0,0,0,.4-.38,1.54,1.54,0,0,0,.29-.88,9.7,9.7,0,0,1,0-1.31.77.77,0,0,1,.21,0c.33,0,.94,0,.94,0a7,7,0,0,0-.74.22,11.06,11.06,0,0,1-.4,1.81c-.27.53-.44.79-.44.79Zm-5.89,14.3a.53.53,0,0,1-.92-.47.4.4,0,0,1,.36-.21.59.59,0,0,1,.29.07A.47.47,0,0,1,113.17,81.45Zm3.06-6.57-1.88,3.69c-.16.31.08,1-.18,1.46a.77.77,0,1,1-1.36-.7c.26-.51.92-.7,1.07-1l1.88-3.7a.29.29,0,0,1,.2-.15.26.26,0,0,1,.16,0A.26.26,0,0,1,116.23,74.88Zm.5-.59c-.07.13-.3.15-.51,0s-.33-.3-.26-.44a.23.23,0,0,1,.2-.11.58.58,0,0,1,.31.07C116.68,74,116.8,74.16,116.73,74.29Zm.45-.69c-.09.17-.37.21-.63.07s-.4-.38-.31-.55a.35.35,0,0,1,.34-.15.7.7,0,0,1,.29.08C117.13,73.18,117.27,73.43,117.18,73.6Zm.3-.78c-.07.13-.3.15-.51,0s-.33-.3-.26-.44a.24.24,0,0,1,.2-.12.6.6,0,0,1,.31.07C117.43,72.49,117.55,72.69,117.48,72.82Zm2.22-4.49a6.91,6.91,0,0,0-.79,1.29l-.6,1.18-.65,1.27a.25.25,0,0,1-.36.13.26.26,0,0,1-.12-.37l.65-1.27.6-1.18A6.79,6.79,0,0,0,119,68a.31.31,0,0,1,.25-.18.42.42,0,0,1,.24.05A.33.33,0,0,1,119.71,68.33Zm.12-.61-.19-.09-.19-.1a8.38,8.38,0,0,0,.46-.82,8.43,8.43,0,0,0,.42-1.76,3.47,3.47,0,0,1,.79-.23,3.49,3.49,0,0,1,.27.77c0,.13-.81.66-1.18,1.38A8.23,8.23,0,0,0,119.83,67.72Zm2.2-2c0,.09-.61.41-1.06.76a1.54,1.54,0,0,0-.55.75,1.46,1.46,0,0,0-.06.55l-.37-.06s.12-.29.38-.82,1.23-1.28,1.23-1.39a7.55,7.55,0,0,0-.26-.73A9.11,9.11,0,0,1,122,65.75Zm-.21-1.46a.41.41,0,0,1-.56.15.41.41,0,0,1-.21-.54.38.38,0,0,1,.31-.2.47.47,0,0,1,.25.05A.41.41,0,0,1,121.82,64.29Zm-.1-.75-.38-.19.74-.53v.91Z"/><path class="md_cls-4" d="M110.76,85.06a.7.7,0,0,0-.19-.07h-.16a.38.38,0,0,0-.3.18.41.41,0,0,0,0,.35s-.4-.12-.54-.06a9.8,9.8,0,0,0,0,1.95,9.78,9.78,0,0,0,1.57-1.15c0-.15-.36-.41-.36-.41a.38.38,0,0,0,.28-.2.34.34,0,0,0,0-.21A.54.54,0,0,0,110.76,85.06Zm.09,1.17-1.1.79V85.67a1.21,1.21,0,0,1,.62.13A1.23,1.23,0,0,1,110.85,86.23Zm.07-.64c-.05.11-.25.11-.44,0s-.3-.26-.25-.37a.18.18,0,0,1,.17-.08.58.58,0,0,1,.27.06C110.86,85.32,111,85.48,110.92,85.59Z"/><path class="md_cls-5" d="M110.38,85.8a1.21,1.21,0,0,0-.62-.13V87l1.1-.79A1.23,1.23,0,0,0,110.38,85.8Z"/><polygon class="md_cls-5" points="121.34 63.35 121.72 63.54 122.1 63.73 122.09 62.82 121.34 63.35"/><path class="md_cls-5" d="M119.52,67.86a.42.42,0,0,0-.24-.05A.31.31,0,0,0,119,68a6.79,6.79,0,0,1-.58,1.4l-.6,1.18-.65,1.27a.26.26,0,0,0,.12.37.25.25,0,0,0,.36-.12l.65-1.27.6-1.18a6.91,6.91,0,0,1,.79-1.29A.33.33,0,0,0,119.52,67.86Z"/><path class="md_cls-5" d="M110.67,85.22a.58.58,0,0,0-.27-.06.18.18,0,0,0-.17.08c-.05.11.06.27.25.37s.39.09.44,0S110.86,85.32,110.67,85.22Z"/><path class="md_cls-5" d="M119.77,66.63a11.06,11.06,0,0,0,.4-1.81,7,7,0,0,1,.74-.22s-.61,0-.94,0a.77.77,0,0,0-.21,0,9.7,9.7,0,0,0,0,1.31,1.54,1.54,0,0,1-.29.88,1.44,1.44,0,0,1-.4.38l.26.26S119.5,67.15,119.77,66.63Z"/><path class="md_cls-5" d="M121.39,65.5a3.49,3.49,0,0,0-.27-.77,3.47,3.47,0,0,0-.79.23,8.43,8.43,0,0,1-.42,1.76,8.38,8.38,0,0,1-.46.82l.19.1.19.09a8.23,8.23,0,0,1,.39-.85C120.59,66.15,121.38,65.63,121.39,65.5Z"/><path class="md_cls-5" d="M112.9,80.85a.59.59,0,0,0-.29-.07.4.4,0,0,0-.36.21.53.53,0,1,0,.64-.14Z"/><path class="md_cls-5" d="M121.6,65.55c0,.11-.91.77-1.23,1.39s-.38.82-.38.82l.37.06a1.46,1.46,0,0,1,.06-.55,1.54,1.54,0,0,1,.55-.75c.46-.36,1.07-.67,1.06-.76a9.11,9.11,0,0,0-.68-.93A7.55,7.55,0,0,1,121.6,65.55Z"/><path class="md_cls-5" d="M121.61,63.75a.47.47,0,0,0-.25-.05.38.38,0,0,0-.31.2.41.41,0,0,0,.21.54.39.39,0,1,0,.35-.69Z"/><path class="md_cls-5" d="M116.87,73a.7.7,0,0,0-.29-.08.35.35,0,0,0-.34.15c-.09.17.05.42.31.55s.54.1.63-.07S117.13,73.18,116.87,73Z"/><path class="md_cls-5" d="M117.21,72.38a.6.6,0,0,0-.31-.07.24.24,0,0,0-.2.12c-.07.13,0,.33.26.44s.45.09.51,0S117.43,72.49,117.21,72.38Z"/><path class="md_cls-5" d="M116.47,73.85a.58.58,0,0,0-.31-.07.23.23,0,0,0-.2.11c-.07.13,0,.33.26.44s.45.09.51,0S116.68,74,116.47,73.85Z"/><path class="md_cls-5" d="M116.13,74.52a.26.26,0,0,0-.16,0,.29.29,0,0,0-.2.15l-1.88,3.7c-.16.31-.82.5-1.07,1a.77.77,0,1,0,1.36.7c.26-.51,0-1.15.18-1.46l1.88-3.69A.26.26,0,0,0,116.13,74.52Z"/><path class="md_cls-5" d="M98.79,43.43a.57.57,0,1,0-.57.57A.57.57,0,0,0,98.79,43.43Zm-.83,0a.26.26,0,1,1,.26.26A.26.26,0,0,1,98,43.43Z"/><circle class="md_cls-4" cx="98.22" cy="43.43" r="0.26"/></g></g></svg>
