<svg xmlns="http://www.w3.org/2000/svg" viewBox="0 0 200 134"><style>.st0{fill:#ff4b55}.st1{fill:#ffe15a}.st2{fill:#73af00}.st3{fill:#f5f5f5}</style><path class="st0" d="M0 118.7c0 8.5 6.7 15.3 15 15.3h170c8.3 0 15-6.9 15-15.3V89.3H0v29.4z"/><path class="st1" d="M185 0H15C6.7 0 0 6.9 0 15.3v29.3h200V15.3C200 6.9 193.3 0 185 0z"/><path class="st2" d="M0 44.7h200v44.7H0z"/><path class="st3" d="M102 22.6l10.3 31.7 32.6.3c2 0 2.8 2.6 1.2 3.8l-26.3 19.8 9.8 31.8c.6 1.9-1.6 3.5-3.2 2.4L100 93l-26.6 19.4c-1.6 1.2-3.8-.4-3.2-2.4L80 78.2 53.9 58.4c-1.6-1.2-.8-3.8 1.2-3.8l32.6-.3L98 22.6c.7-1.9 3.3-1.9 4 0z"/></svg>
