<svg xmlns="http://www.w3.org/2000/svg" viewBox="0 0 200 134"><defs><style>.mw_cls-1{fill:#121212;}.mw_cls-2{fill:#359f47;}.mw_cls-3{fill:#ce2931;}</style></defs><title>Asset 10</title><g id="Layer_2" data-name="Layer 2"><g id="Layer_91" data-name="Layer 91"><path class="mw_cls-1" d="M183,0H17A17,17,0,0,0,0,17V44.6H200V17A17,17,0,0,0,183,0ZM137.44,24.66c.56.79-.43,1.94-1.62,2.77-2.87,2-4.62,2.7-9.39,4.93,3.72-3.72,5-5.12,7.85-7.13a4.81,4.81,0,0,1,2.23-1A1,1,0,0,1,137.44,24.66ZM135,21.49c.62.74-.24,2-1.36,2.9-2.69,2.26-4.37,3.11-8.93,5.74,3.38-4,4.51-5.54,7.2-7.8a4.35,4.35,0,0,1,2.33-1.16A.93.93,0,0,1,135,21.49Zm-2.69-2.94c.69.69-.08,2-1.11,3-2.48,2.48-4.09,3.48-8.4,6.5,3-4.31,4-5.92,6.5-8.4a3.93,3.93,0,0,1,2.39-1.37A.91.91,0,0,1,132.32,18.55Zm-3.57-2.9a.87.87,0,0,1,.63.21c.74.62.1,2-.84,3.09-2.26,2.69-3.77,3.81-7.8,7.2,2.63-4.56,3.48-6.25,5.74-8.93A3.91,3.91,0,0,1,128.75,15.65Zm-3-2.38a.84.84,0,0,1,.48.15c.8.56.26,2-.57,3.16-2,2.88-3.4,4.13-7.13,7.86,2.22-4.77,2.91-6.52,4.93-9.4C124.12,14.08,125,13.25,125.74,13.27Zm-3.37-2.1a.84.84,0,0,1,.49.11c.84.49.43,1.93-.29,3.19-1.75,3-3,4.42-6.43,8.46,1.8-4.95,2.35-6.76,4.1-9.8C120.82,12.11,121.63,11.21,122.36,11.17ZM119,9.37a.82.82,0,0,1,.32.08c.88.41.62,1.89,0,3.21-1.48,3.18-2.65,4.66-5.67,9,1.36-5.09,1.75-6.93,3.24-10.11C117.41,10.37,118.21,9.33,119,9.37Zm-3.7-1.5a.82.82,0,0,1,.34.06c.91.33.76,1.82.27,3.19-1.2,3.3-2.22,4.88-4.86,9.44.91-5.19,1.14-7.06,2.34-10.36C113.81,9,114.51,7.9,115.29,7.87Zm-3.64-1.18.18,0c.94.25.92,1.76.55,3.16-.91,3.39-1.81,5.06-4,9.83.46-5.25.52-7.14,1.43-10.53C110.13,7.87,110.79,6.63,111.65,6.69Zm-5.54,1.8c.24-1.34.79-2.63,1.65-2.64h.18c1,.17,1.06,1.66.81,3.09-.61,3.46-1.35,5.19-3.15,10.14C105.6,13.83,105.5,12,106.11,8.5Zm-3.71-.38c.13-1.45.61-2.87,1.58-2.79s1.22,1.57,1.09,3c-.3,3.5-.89,5.29-2.25,10.38C102.36,13.49,102.09,11.62,102.4,8.12Zm-2.4-3c1,0,1.35,1.46,1.35,2.91,0,3.51-.43,5.35-1.35,10.53-.91-5.19-1.34-7-1.34-10.53C98.66,6.62,99,5.17,100,5.17Zm-4,.17c1-.08,1.46,1.34,1.58,2.79.31,3.5,0,5.37-.42,10.62-1.36-5.09-1.95-6.88-2.25-10.37C94.8,6.91,95.06,5.42,96,5.33Zm-4,.53h.18c.86,0,1.42,1.3,1.65,2.64.61,3.46.5,5.34.5,10.6C92.6,14.15,91.86,12.42,91.25,9,91,7.53,91.11,6,92.06,5.87Zm-3.89.85.18,0c.86-.06,1.52,1.17,1.88,2.49.91,3.39,1,5.28,1.43,10.53-2.22-4.77-3.12-6.44-4-9.83C87.25,8.48,87.23,7,88.17,6.72ZM84.38,7.93a.81.81,0,0,1,.34-.06c.78,0,1.48,1.13,1.92,2.32,1.2,3.3,1.42,5.18,2.34,10.36-2.63-4.56-3.66-6.14-4.86-9.44C83.61,9.75,83.46,8.26,84.38,7.93ZM80.69,9.45A.82.82,0,0,1,81,9.37c.78,0,1.58,1,2.12,2.16,1.48,3.18,1.87,5,3.23,10.11-3-4.31-4.19-5.79-5.67-9C80.08,11.34,79.81,9.86,80.69,9.45Zm-3.54,1.83a.84.84,0,0,1,.32-.11c.77-.1,1.66.86,2.29,2,1.76,3,2.3,4.85,4.1,9.8-3.38-4-4.67-5.42-6.43-8.46C76.71,13.22,76.31,11.77,77.15,11.29Zm-3.36,2.14a.84.84,0,0,1,.48-.15c.73,0,1.62.81,2.29,1.78,2,2.88,2.71,4.62,4.93,9.4-3.72-3.72-5.11-5-7.13-7.86C73.53,15.4,73,14,73.79,13.43Zm-3.16,2.44a.85.85,0,0,1,.46-.21c.73-.09,1.68.66,2.44,1.57,2.26,2.69,3.11,4.37,5.74,8.93-4-3.38-5.54-4.51-7.8-7.2C70.53,17.84,69.88,16.49,70.63,15.87Zm-2.94,2.69a.91.91,0,0,1,.62-.27,3.94,3.94,0,0,1,2.4,1.37c2.48,2.48,3.47,4.09,6.5,8.4-4.31-3-5.92-4-8.4-6.5C67.76,20.53,67,19.24,67.68,18.55ZM65,21.49a.93.93,0,0,1,.77-.32,4.35,4.35,0,0,1,2.32,1.16c2.69,2.26,3.81,3.77,7.2,7.8-4.56-2.63-6.24-3.48-8.93-5.74C65.24,23.46,64.37,22.24,65,21.49Zm-2.44,3.16a.94.94,0,0,1,.74-.39,4.37,4.37,0,0,1,2.42,1c2.88,2,4.13,3.4,7.86,7.13-4.77-2.23-6.52-2.92-9.39-4.93C63,26.59,62,25.45,62.56,24.66ZM58.89,41.24l-.57-.14C56.91,40.72,55.6,40,55.85,39c.16-.59.8-.8,1.61-.78a6.62,6.62,0,0,1,1.55.24,38.13,38.13,0,0,1,7.07,2.75Zm.43-3.74c-1.37-.5-2.6-1.34-2.27-2.26a1.18,1.18,0,0,1,1.21-.67,5.76,5.76,0,0,1,2,.4c3.3,1.2,4.88,2.23,9.44,4.86C64.5,38.92,62.62,38.7,59.32,37.5ZM60.66,34c-1.32-.62-2.48-1.56-2.07-2.44A1.18,1.18,0,0,1,59.84,31a5.69,5.69,0,0,1,1.95.56c3.18,1.48,4.66,2.65,9,5.67C65.68,35.87,63.84,35.48,60.66,34Zm1.61-3.36C61,29.91,59.93,28.86,60.42,28a1,1,0,0,1,.9-.46,4.77,4.77,0,0,1,2.29.76c3,1.75,4.42,3,8.46,6.43C67.12,32.94,65.3,32.39,62.27,30.64Zm10.49,10.6a28.9,28.9,0,0,1,54.5,0Zm63.64-12.92a4.77,4.77,0,0,1,2.3-.76,1,1,0,0,1,.9.46c.48.84-.59,1.89-1.85,2.62-3,1.75-4.86,2.3-9.8,4.1C132,31.35,133.35,30.07,136.39,28.31Zm1.82,3.25a5.71,5.71,0,0,1,1.95-.56,1.18,1.18,0,0,1,1.26.56c.41.88-.75,1.82-2.07,2.44-3.18,1.49-5,1.87-10.11,3.23C133.55,34.21,135,33,138.21,31.56ZM139.75,35a5.76,5.76,0,0,1,2-.4,1.17,1.17,0,0,1,1.2.67c.33.91-.9,1.76-2.27,2.26-3.3,1.2-5.18,1.42-10.36,2.34C134.88,37.2,136.45,36.18,139.75,35Zm1.93,6.12-.57.14h-7.2A38.28,38.28,0,0,1,141,38.49a6.64,6.64,0,0,1,1.55-.24c.81,0,1.45.2,1.61.78C144.4,40,143.09,40.72,141.69,41.1Z"/><path class="mw_cls-2" d="M0,117a17,17,0,0,0,17,17H183a17,17,0,0,0,17-17V89.4H0Z"/><rect class="mw_cls-3" y="44.6" width="200" height="44.8"/><path class="mw_cls-3" d="M100,22A28.91,28.91,0,0,0,72.75,41.24h54.5A28.9,28.9,0,0,0,100,22Z"/><path class="mw_cls-3" d="M58.26,34.57a1.18,1.18,0,0,0-1.21.67c-.33.91.9,1.76,2.27,2.26,3.3,1.2,5.18,1.42,10.36,2.34-4.56-2.63-6.14-3.66-9.44-4.86A5.76,5.76,0,0,0,58.26,34.57Z"/><path class="mw_cls-3" d="M77.19,28.06c-3-4.31-4-5.92-6.5-8.4a3.94,3.94,0,0,0-2.4-1.37.91.91,0,0,0-.62.27c-.69.69.08,2,1.11,3C71.27,24,72.88,25,77.19,28.06Z"/><path class="mw_cls-3" d="M66.35,24.39c2.69,2.26,4.37,3.11,8.93,5.74-3.38-4-4.51-5.54-7.2-7.8a4.35,4.35,0,0,0-2.32-1.16.93.93,0,0,0-.77.32C64.37,22.24,65.24,23.46,66.35,24.39Z"/><path class="mw_cls-3" d="M79.26,26.16c-2.63-4.56-3.48-6.25-5.74-8.93-.76-.91-1.71-1.65-2.44-1.57a.85.85,0,0,0-.46.21c-.74.62-.1,2,.84,3.09C73.72,21.65,75.23,22.77,79.26,26.16Z"/><path class="mw_cls-3" d="M81.49,24.45c-2.22-4.77-2.92-6.52-4.93-9.4-.68-1-1.56-1.8-2.29-1.78a.84.84,0,0,0-.48.15c-.8.56-.26,2,.57,3.16C76.38,19.47,77.77,20.72,81.49,24.45Z"/><path class="mw_cls-3" d="M64.18,27.43c2.88,2,4.62,2.7,9.39,4.93-3.72-3.72-5-5.12-7.86-7.13a4.37,4.37,0,0,0-2.42-1,.94.94,0,0,0-.74.39C62,25.45,63,26.59,64.18,27.43Z"/><path class="mw_cls-3" d="M86.36,21.63c-1.36-5.09-1.75-6.93-3.23-10.11-.54-1.15-1.33-2.19-2.12-2.16a.82.82,0,0,0-.32.08c-.88.41-.62,1.89,0,3.21C82.17,15.84,83.34,17.32,86.36,21.63Z"/><path class="mw_cls-3" d="M83.87,22.94c-1.8-4.95-2.35-6.76-4.1-9.8-.64-1.1-1.52-2.06-2.29-2a.84.84,0,0,0-.32.11c-.84.49-.44,1.93.29,3.19C79.2,17.52,80.49,18.9,83.87,22.94Z"/><path class="mw_cls-3" d="M57.46,38.25c-.8,0-1.45.2-1.61.78-.25.94,1.06,1.68,2.46,2.06l.57.14h7.2A38.13,38.13,0,0,0,59,38.49,6.62,6.62,0,0,0,57.46,38.25Z"/><path class="mw_cls-3" d="M141.42,31.56a1.18,1.18,0,0,0-1.26-.56,5.71,5.71,0,0,0-1.95.56c-3.18,1.48-4.66,2.65-9,5.67,5.09-1.36,6.93-1.75,10.11-3.23C140.67,33.38,141.83,32.44,141.42,31.56Z"/><path class="mw_cls-3" d="M89,20.55c-.91-5.19-1.14-7.06-2.34-10.36C86.19,9,85.49,7.9,84.71,7.87a.81.81,0,0,0-.34.06c-.91.33-.77,1.82-.27,3.19C85.31,14.41,86.34,16,89,20.55Z"/><path class="mw_cls-3" d="M142.54,38.25a6.64,6.64,0,0,0-1.55.24,38.28,38.28,0,0,0-7.07,2.75h7.2l.57-.14c1.41-.37,2.71-1.12,2.46-2.06C144,38.45,143.35,38.24,142.54,38.25Z"/><path class="mw_cls-3" d="M142.95,35.24a1.17,1.17,0,0,0-1.2-.67,5.76,5.76,0,0,0-2,.4c-3.3,1.2-4.88,2.23-9.44,4.86,5.19-.91,7.06-1.14,10.36-2.34C142,37,143.28,36.16,142.95,35.24Z"/><path class="mw_cls-3" d="M59.84,31a1.18,1.18,0,0,0-1.26.56c-.41.88.75,1.82,2.07,2.44,3.18,1.49,5,1.87,10.11,3.23-4.31-3-5.79-4.19-9-5.67A5.69,5.69,0,0,0,59.84,31Z"/><path class="mw_cls-3" d="M139.59,28a1,1,0,0,0-.9-.46,4.77,4.77,0,0,0-2.3.76c-3,1.75-4.42,3-8.46,6.43,4.95-1.8,6.76-2.35,9.8-4.1C139,29.91,140.07,28.86,139.59,28Z"/><path class="mw_cls-3" d="M61.31,27.56a1,1,0,0,0-.9.46c-.48.84.59,1.89,1.85,2.62,3,1.75,4.85,2.3,9.8,4.1-4-3.38-5.42-4.67-8.46-6.43A4.77,4.77,0,0,0,61.31,27.56Z"/><path class="mw_cls-3" d="M108.75,9c.25-1.43.15-2.93-.81-3.09h-.18c-.86,0-1.42,1.3-1.65,2.64-.61,3.46-.5,5.34-.5,10.6C107.4,14.15,108.14,12.42,108.75,9Z"/><path class="mw_cls-3" d="M125.64,16.59c.84-1.19,1.37-2.61.57-3.16a.84.84,0,0,0-.48-.15c-.73,0-1.62.81-2.3,1.78-2,2.88-2.7,4.62-4.93,9.4C122.23,20.72,123.63,19.47,125.64,16.59Z"/><path class="mw_cls-3" d="M115.89,11.12c.5-1.37.65-2.86-.27-3.19a.82.82,0,0,0-.34-.06c-.78,0-1.48,1.13-1.92,2.32-1.2,3.3-1.42,5.18-2.34,10.36C113.67,16,114.69,14.41,115.89,11.12Z"/><path class="mw_cls-3" d="M119.31,12.66c.62-1.32.88-2.79,0-3.21a.82.82,0,0,0-.32-.08c-.78,0-1.58,1-2.11,2.16-1.49,3.18-1.87,5-3.24,10.11C116.66,17.32,117.83,15.84,119.31,12.66Z"/><path class="mw_cls-3" d="M122.56,14.48c.73-1.26,1.13-2.71.29-3.19a.84.84,0,0,0-.49-.11c-.73,0-1.54.94-2.13,2-1.75,3-2.3,4.85-4.1,9.8C119.52,18.9,120.8,17.52,122.56,14.48Z"/><path class="mw_cls-3" d="M120.74,26.16c4-3.38,5.54-4.51,7.8-7.2.94-1.12,1.58-2.47.84-3.09a.87.87,0,0,0-.63-.21,3.91,3.91,0,0,0-2.27,1.57C124.22,19.91,123.37,21.6,120.74,26.16Z"/><path class="mw_cls-3" d="M124.71,30.13c4.56-2.63,6.24-3.48,8.93-5.74,1.12-.94,2-2.15,1.36-2.9a.93.93,0,0,0-.77-.32,4.35,4.35,0,0,0-2.33,1.16C129.22,24.59,128.1,26.1,124.71,30.13Z"/><path class="mw_cls-3" d="M122.81,28.06c4.31-3,5.92-4,8.4-6.5,1-1,1.79-2.32,1.11-3a.91.91,0,0,0-.62-.27,3.93,3.93,0,0,0-2.39,1.37C126.83,22.14,125.83,23.75,122.81,28.06Z"/><path class="mw_cls-3" d="M105.07,8.36c.13-1.45-.12-2.94-1.09-3s-1.46,1.34-1.58,2.79c-.31,3.5,0,5.37.42,10.62C104.18,13.65,104.77,11.86,105.07,8.36Z"/><path class="mw_cls-3" d="M97.19,18.73c.46-5.24.73-7.12.42-10.62C97.48,6.67,97,5.25,96,5.33s-1.22,1.57-1.09,3C95.24,11.86,95.82,13.65,97.19,18.73Z"/><path class="mw_cls-3" d="M101.35,8.08c0-1.45-.37-2.91-1.35-2.91s-1.34,1.46-1.34,2.91c0,3.51.43,5.35,1.34,10.53C100.92,13.42,101.35,11.59,101.35,8.08Z"/><path class="mw_cls-3" d="M94.4,19.1c0-5.27.11-7.14-.5-10.6-.24-1.34-.8-2.63-1.65-2.64h-.18C91.11,6,91,7.53,91.25,9,91.86,12.42,92.6,14.15,94.4,19.1Z"/><path class="mw_cls-3" d="M126.42,32.36c4.77-2.23,6.52-2.92,9.39-4.93,1.19-.84,2.18-2,1.63-2.77a1,1,0,0,0-.94-.39,4.81,4.81,0,0,0-2.23,1C131.4,27.24,130.15,28.63,126.42,32.36Z"/><path class="mw_cls-3" d="M91.65,19.71c-.46-5.25-.52-7.14-1.43-10.53-.35-1.32-1-2.55-1.87-2.49l-.18,0c-.94.25-.92,1.76-.54,3.16C88.53,13.28,89.43,14.94,91.65,19.71Z"/><path class="mw_cls-3" d="M112.38,9.88c.38-1.41.39-2.91-.55-3.16l-.18,0c-.86-.06-1.52,1.17-1.88,2.49-.91,3.39-1,5.28-1.43,10.53C110.57,14.94,111.47,13.28,112.38,9.88Z"/></g></g></svg>
