<svg xmlns="http://www.w3.org/2000/svg" viewBox="0 0 200 134"><defs><style>.my_cls-1{fill:#fff;}.my_cls-2{fill:#dc2727;}.my_cls-3{fill:#ffd933;}.my_cls-4{fill:#23449c;}</style></defs><title>Asset 11</title><g id="Layer_2" data-name="Layer 2"><g id="Layer_90" data-name="Layer 90"><rect class="my_cls-1" x="116.35" y="28.61" width="83.65" height="9.6"/><path class="my_cls-1" d="M17,134H183a17,17,0,0,0,15.2-9.42H1.8A17,17,0,0,0,17,134Z"/><rect class="my_cls-1" y="105.39" width="200" height="9.6"/><path class="my_cls-1" d="M116.35,19H200V17a16.89,16.89,0,0,0-1.8-7.58H116.35Z"/><rect class="my_cls-1" x="116.35" y="67" width="83.65" height="9.6"/><rect class="my_cls-1" y="86.19" width="200" height="9.6"/><rect class="my_cls-1" x="116.35" y="47.81" width="83.65" height="9.6"/><path class="my_cls-2" d="M183,0H116.35V9.42H198.2A17,17,0,0,0,183,0Z"/><rect class="my_cls-2" x="116.35" y="19.02" width="83.65" height="9.6"/><rect class="my_cls-2" x="116.35" y="38.21" width="83.65" height="9.6"/><rect class="my_cls-2" x="116.35" y="57.4" width="83.65" height="9.6"/><path class="my_cls-3" d="M43.42,63.64A25.43,25.43,0,1,1,54.87,15.51a28.79,28.79,0,1,0,0,45.41A25.32,25.32,0,0,1,43.42,63.64Z"/><path class="my_cls-4" d="M17,0A17,17,0,0,0,0,17V76.6H116.35V0ZM37.18,67a28.79,28.79,0,1,1,17.69-51.5,25.43,25.43,0,1,0,0,45.41A28.66,28.66,0,0,1,37.18,67ZM90.4,43.65,75.12,42.33,85.61,53.25,72.43,45.59,77,59.87,68.56,47.39,66.35,62.2,64.89,51.83l-.62-4.46L55.69,59.78l4.72-14.25L47.16,53.09,57.75,42.26l-15.29,1.2,14.36-5.28L42.5,32.77l15.28,1.32L47.29,23.17l13.18,7.66-4.6-14.28L64.35,29l.64-4.3,1.57-10.52L68.63,29l8.58-12.41L72.49,30.88l13.25-7.55L75.15,34.17,90.44,33,76.09,38.25Z"/><path class="my_cls-2" d="M0,117a16.92,16.92,0,0,0,1.8,7.58H198.2A16.9,16.9,0,0,0,200,117v-2H0Z"/><rect class="my_cls-2" y="95.79" width="200" height="9.6"/><polygon class="my_cls-2" points="0 76.6 0 86.19 200 86.19 200 76.6 116.35 76.6 0 76.6"/><polygon class="my_cls-3" points="64.35 29.03 55.88 16.55 60.48 30.83 47.3 23.17 57.78 34.09 42.5 32.77 56.81 38.17 42.46 43.45 57.75 42.26 47.16 53.09 60.41 45.54 55.69 59.78 64.27 47.37 64.89 51.83 66.35 62.2 68.56 47.39 77.03 59.87 72.43 45.59 85.61 53.25 75.11 42.33 90.4 43.65 76.09 38.25 90.44 32.97 75.15 34.16 85.74 23.33 72.49 30.88 77.21 16.64 68.64 29.05 66.55 14.22 64.99 24.74 64.35 29.03"/></g></g></svg>
