<svg xmlns="http://www.w3.org/2000/svg" viewBox="0 0 200 134"><defs><style>.np_cls-1{fill:#ce2028;}.np_cls-2{fill:none;}.np_cls-3{fill:#fafafa;}.np_cls-4{fill:#fff;}</style></defs><title>Asset 27</title><g id="Layer_2" data-name="Layer 2"><g id="Layer_74" data-name="Layer 74"><path class="np_cls-1" d="M94.48,65.71,38.31,30.53l-1.54-1.05-1.74-1L4.77,9.53V128.79l.34.35H94.48L31,65.71ZM36.8,46.54l-1.92,3.23,3.64.93-3,2.25L37,54.08a21.87,21.87,0,0,0,8-8A17.86,17.86,0,0,1,9.33,44.64s0,0,0,0a19.23,19.23,0,0,0,8,9.48L18.88,53l-3-2.25,3.64-.93h0L17.6,46.54l3.72.54h0l-.54-3.72L24,45.27l.93-3.64,2.25,3,2.25-3,.93,3.64,3.23-1.92-.54,3.72h0Zm0,34.26-1,8,8-1L39,94.27l7.44,3.15L39,100.58,43.83,107l-8-1h0l1,8-6.45-4.86-3.15,7.44L24,109.18,17.6,114l1-8h0l-8,1,4.87-6.45L8,97.42l7.44-3.15-4.87-6.45,8,1-1-8L24,85.66l3.15-7.44,3.15,7.44Z"/><path class="np_cls-2" d="M0,17V117s0,0,0,0V17S0,17,0,17Z"/><path class="np_cls-3" d="M183,0H17A17,17,0,0,0,0,17V117a16.93,16.93,0,0,0,4.77,11.75V9.53L35,28.47l1.74,1,1.54,1.05L94.48,65.71H31l63.44,63.44H5.11A16.93,16.93,0,0,0,17,134H183a17,17,0,0,0,17-17V17A17,17,0,0,0,183,0Z"/><path class="np_cls-4" d="M37,54.08,35.51,53l3-2.25-3.64-.93,1.92-3.23-3.72.54h0l.54-3.72-3.23,1.92-.93-3.64-2.25,3-2.25-3L24,45.27l-3.23-1.92.54,3.72h0l-3.72-.54,1.92,3.23h0l-3.64.93,3,2.25-1.51,1.13a19.23,19.23,0,0,1-8-9.48s0,0,0,0A17.86,17.86,0,0,0,45,46.09,21.87,21.87,0,0,1,37,54.08ZM24,45.27h0l-2.7,1.8Zm-4.5,10.87h0Z"/><polygon class="np_cls-4" points="43.83 107.02 38.96 100.58 46.4 97.42 38.96 94.27 43.83 87.82 35.81 88.81 36.8 80.8 30.35 85.66 27.2 78.23 24.05 85.66 17.6 80.8 18.59 88.81 10.57 87.82 15.44 94.27 8 97.42 15.44 100.58 10.57 107.02 18.59 106.03 18.59 106.03 17.6 114.05 24.05 109.19 27.2 116.62 30.35 109.19 36.8 114.05 35.81 106.03 35.81 106.03 43.83 107.02"/></g></g></svg>
