<svg xmlns="http://www.w3.org/2000/svg" viewBox="0 0 200 134"><defs><style>.sd_cls-1{fill:#d32a40;}.sd_cls-2{fill:#fafafa;}.sd_cls-3{fill:#121212;}.sd_cls-4{fill:#177341;}</style></defs><title>Asset 71</title><g id="Layer_2" data-name="Layer 2"><g id="Layer_30" data-name="Layer 30"><path class="sd_cls-1" d="M183,0H17A16.93,16.93,0,0,0,5.38,4.62l53.33,40H200V17A17,17,0,0,0,183,0Z"/><polygon class="sd_cls-2" points="88.56 67 58.71 89.39 200 89.39 200 44.61 58.71 44.61 88.56 67"/><path class="sd_cls-3" d="M5.38,129.39A16.93,16.93,0,0,0,17,134H183a17,17,0,0,0,17-17V89.39H58.71Z"/><path class="sd_cls-4" d="M88.56,67,58.71,44.61,5.38,4.62A16.94,16.94,0,0,0,0,17V117a16.94,16.94,0,0,0,5.38,12.39l53.33-40Z"/></g></g></svg>
