<svg xmlns="http://www.w3.org/2000/svg" viewBox="0 0 200 134"><defs><style>.sz_cls-1{fill:#4560ac;}.sz_cls-2{fill:#fee033;}.sz_cls-3{fill:#b02328;}.sz_cls-4{fill:#fed900;}.sz_cls-5{fill:#fff;}.sz_cls-6{fill:#3f5ea7;}.sz_cls-7{fill:#a61e22;}.sz_cls-8{fill:#121212;}.sz_cls-9{fill:#010101;}</style></defs><title>Asset 73</title><g id="Layer_2" data-name="Layer 2"><g id="Layer_28" data-name="Layer 28"><path class="sz_cls-1" d="M0,117a17,17,0,0,0,17,17H183a17,17,0,0,0,17-17v-6.88H0Z"/><path class="sz_cls-1" d="M183,0H17A17,17,0,0,0,0,17v6.89H200V17A17,17,0,0,0,183,0Z"/><rect class="sz_cls-2" y="100.54" width="200" height="9.58"/><rect class="sz_cls-2" y="23.89" width="200" height="9.58"/><path class="sz_cls-3" d="M0,100.54H200V33.47H0Zm20.87-35H53.51c1.29-1.33,2.69-2.78,4.19-4.31H34a1,1,0,1,1,0-1.92H59.6c1.26-1.26,2.59-2.54,4-3.83H41.64a1,1,0,1,1,0-1.92H65.69c9-7.91,20.4-15.33,34.31-15.33,15.9,0,26.84,7.42,35.16,15.33h24.08l5.43-1.92,8.14,2.87-8.14,2.88-5.43-1.92H137.11c1.28,1.29,2.5,2.58,3.66,3.83h10.8L157,57.42l8.14,2.87L157,63.17l-5.43-1.92h-9c1.4,1.53,2.72,3,4,4.31h34.41a1.44,1.44,0,0,1,0,2.87h-4c.42.23.85.49,1.3.79a6,6,0,0,1,2.17,4.28c-.29-.2-.51-.64-.84-.92-.45.46.43,2.54.56,3.53-1-.55-.88-.81-1.21-1.48.07.81-.17,3.05.22,3.92-.77-.22-.72-.84-1.12-1,.27,1-.24,2-.1,3.14-.45-.45-.93-.8-1.14-1,0,.52-.87,1.9-.88,2.39a1.26,1.26,0,0,1-.55-.83,16.56,16.56,0,0,0-2.27,3.48c-1.3-1.15-4.64-3.95-5.07-5.44-.38.84-.94,1.13-2,1.75-.43-2.35-2.06-5-1.19-7a20.73,20.73,0,0,0-1.74,1.18,12.76,12.76,0,0,1,4-6.81H146.51c-8.09,8.52-18.63,22.5-36.81,26.31a30.39,30.39,0,0,1-4.76.74l-1.07.09-.63,0-1.36.07c-.65,0-1.28,0-1.88,0-21.29,0-36.78-17.37-46.49-27.31H36.85c.72,1.21.41,2.5.41,4.14-.56-.27-.29-.4-.88-1.1.45,1.71,0,4.78,0,6.58-.23-.44-.2-.25-.42-.7-.59,1.65-1.31,2-1.31,3.94-.21-.76,0-.6-.25-1-.58,1.25-4.45,2.32-3,3.58-1.34-.79-1.94-.71-2.55-1.42a2.54,2.54,0,0,0-.72.93c-2.37-1.09-1.52-3.44-3.37-5A9.21,9.21,0,0,0,24.27,80a31,31,0,0,0-.9-3.53c-.36.61-.33.38-1,1.29-.27-1.81-.72-2.24-.54-3.44-.7.5-.24.29-.95.91.46-3.24,2-5.89,3.6-6.82H20.87a1.44,1.44,0,0,1,0-2.87Z"/><path class="sz_cls-4" d="M20.87,68.44h3.61a2,2,0,0,1,2-.16c-.08-.73.07-.82-.37-1.37.66.27.68,1,1.48.49.29-.15.42-.16.06-1,.83,0,3.55,1,4,1,1.14.05,3.23-1.2,4.68.34a3.52,3.52,0,0,1,.52.68H53.51L52.09,67l1.42-1.44H20.87a1.44,1.44,0,0,0,0,2.87Z"/><path class="sz_cls-4" d="M146.51,68.44h20.58a14.7,14.7,0,0,1,3.79-2.58c-1.35,2.33.77-.37,6.07,2.58h4a1.44,1.44,0,0,0,0-2.87H146.51c.47.5.94,1,1.39,1.44C147.45,67.46,147,67.94,146.51,68.44Z"/><path class="sz_cls-5" d="M160.36,54.54a1,1,0,0,1-1,1h-.08l5.43,1.92,8.14-2.87-8.14-2.87-5.43,1.92h.08A1,1,0,0,1,160.36,54.54Z"/><path class="sz_cls-4" d="M137.11,55.5h22.21a1,1,0,1,0,0-1.92H135.16C135.83,54.22,136.48,54.86,137.11,55.5Z"/><path class="sz_cls-4" d="M41.64,53.59a1,1,0,1,0,0,1.92H63.58q1-1,2.11-1.92Z"/><path class="sz_cls-5" d="M152.7,60.29a1,1,0,0,1-1,1h-.08L157,63.17l8.14-2.87L157,57.42l-5.43,1.92h.08A1,1,0,0,1,152.7,60.29Z"/><path class="sz_cls-4" d="M151.58,61.25h.08a1,1,0,1,0,0-1.92H140.78l1.76,1.92Z"/><path class="sz_cls-4" d="M59.6,59.34H34a1,1,0,1,0,0,1.92H57.71Z"/><path class="sz_cls-6" d="M170.88,65.86a14.7,14.7,0,0,0-3.79,2.58,12.76,12.76,0,0,0-4,6.81,20.73,20.73,0,0,1,1.74-1.18c-.87,2,.75,4.67,1.19,7,1.1-.62,1.65-.9,2-1.75.43,1.49,3.77,4.29,5.07,5.44a16.56,16.56,0,0,1,2.27-3.48,1.26,1.26,0,0,0,.55.83c0-.49.85-1.87.88-2.39.21.18.69.53,1.14,1-.14-1.1.38-2.16.1-3.14.4.13.35.75,1.12,1-.39-.86-.16-3.1-.22-3.92.32.67.23.93,1.21,1.48-.13-1-1-3.07-.56-3.53.33.28.54.72.84.92a6,6,0,0,0-2.17-4.28c-.46-.31-.89-.56-1.3-.79C171.65,65.49,169.53,68.19,170.88,65.86Zm-2.66,9.86a5.8,5.8,0,0,1-2.75,2.59c.6-1.2,1.16-1.59,1.55-2.36.69-1.36.79-2.45,1.39-2.29S169,74.38,168.22,75.72Zm1.32,5.46c-.08-.92.19-1.3.14-1.89-.08-1-.51-1.75,0-1.8s.81.3.81,1.35A2.88,2.88,0,0,1,169.54,81.18Zm3.09,1.8c-.24-1.28-.06-1.85-.21-2.67-.27-1.45-.8-2.41-.29-2.54s.82.33,1,1.81A5.21,5.21,0,0,1,172.63,83Zm.65-6.29c-.53-.9-.49-1.33,0-1.53s.49.6.95,1.54c.26.53.68.74,1.08,1.57C174.09,77.76,173.81,77.59,173.29,76.69Zm.13-3.34c-.9-.6-1.09-1-.82-1.32s.71.35,1.57,1c.49.37.93.41,1.68,1A3.39,3.39,0,0,1,173.42,73.35Z"/><path class="sz_cls-7" d="M168.4,73.66c-.6-.16-.7.93-1.39,2.29-.39.78-.94,1.16-1.55,2.36a5.8,5.8,0,0,0,2.75-2.59C169,74.38,169,73.82,168.4,73.66Z"/><path class="sz_cls-7" d="M169.72,77.48c-.55.05-.13.76,0,1.8,0,.59-.22,1-.14,1.89a2.88,2.88,0,0,0,1-2.34C170.53,77.79,170.28,77.43,169.72,77.48Z"/><path class="sz_cls-7" d="M172.13,77.77c-.51.13,0,1.09.29,2.54.16.82,0,1.39.21,2.67a5.21,5.21,0,0,0,.51-3.4C172.95,78.1,172.64,77.63,172.13,77.77Z"/><path class="sz_cls-7" d="M172.6,72c-.28.34-.08.72.82,1.32a3.39,3.39,0,0,0,2.43.66c-.75-.57-1.2-.61-1.68-1C173.31,72.38,172.87,71.69,172.6,72Z"/><path class="sz_cls-7" d="M173.29,75.15c-.49.21-.53.63,0,1.53s.8,1.07,2,1.57c-.4-.83-.82-1-1.08-1.57C173.79,75.76,173.79,74.95,173.29,75.15Z"/><path class="sz_cls-6" d="M31.64,67.42c-.44,0-3.16-1-4-1,.36.81.23.82-.06,1-.8.52-.82-.21-1.48-.49.45.55.29.64.37,1.37a2,2,0,0,0-2,.16c-1.59.93-3.13,3.58-3.6,6.82.7-.61.24-.41.95-.91-.18,1.2.27,1.63.54,3.44.66-.92.63-.68,1-1.29a31,31,0,0,1,.9,3.53,9.21,9.21,0,0,1,.52-1.63c1.85,1.57,1,3.92,3.37,5a2.54,2.54,0,0,1,.72-.93c.61.71,1.2.63,2.55,1.42-1.49-1.26,2.38-2.33,3-3.58.24.4,0,.24.25,1,0-1.95.71-2.29,1.31-3.94.22.45.19.26.42.7,0-1.81.47-4.88,0-6.58.59.7.32.83.88,1.1,0-1.64.32-2.93-.41-4.14a3.52,3.52,0,0,0-.52-.68C34.88,66.22,32.79,67.47,31.64,67.42Zm-8.07,8.44c.61-1.49,1.16-2,1.55-2.93.7-1.69.81-3,1.39-2.84s.58.9-.21,2.56A6.56,6.56,0,0,1,23.58,75.86Zm4.07.6a5.5,5.5,0,0,1-1.76,3.14c.24-1.34.63-1.83.79-2.69.28-1.52.12-2.65.67-2.59S28,75,27.65,76.46ZM29.93,79a5.25,5.25,0,0,1-1.28,3.18c.07-1.3.37-1.81.42-2.64.08-1.47-.2-2.52.32-2.53S30.08,77.54,29.93,79Zm1.14-3.13c-.91-1.24-1-1.82-.54-2.09s.77.83,1.61,2.11c.48.73,1,1,1.76,2.16A5.37,5.37,0,0,1,31.06,75.89Zm-.24-4c-1.36-1.21-1.63-1.85-1.17-2.28s1.08.77,2.37,2c.73.73,1.42.94,2.55,2.07A6.39,6.39,0,0,1,30.83,71.86Z"/><path class="sz_cls-7" d="M26.52,70.1c-.58-.21-.7,1.14-1.39,2.84-.39,1-.94,1.43-1.55,2.93a6.56,6.56,0,0,0,2.74-3.2C27.1,71,27.11,70.3,26.52,70.1Z"/><path class="sz_cls-7" d="M27.34,74.32c-.54-.06-.38,1.07-.67,2.59-.16.86-.54,1.35-.79,2.69a5.5,5.5,0,0,0,1.76-3.14C28,75,27.89,74.38,27.34,74.32Z"/><path class="sz_cls-7" d="M29.38,77c-.52,0-.23,1.06-.32,2.53,0,.84-.35,1.34-.42,2.64A5.25,5.25,0,0,0,29.93,79C30.08,77.54,29.9,77,29.38,77Z"/><path class="sz_cls-7" d="M29.66,69.59c-.46.42-.18,1.06,1.17,2.28a6.39,6.39,0,0,0,3.75,1.84c-1.13-1.13-1.82-1.34-2.55-2.07C30.74,70.36,30.11,69.16,29.66,69.59Z"/><path class="sz_cls-7" d="M30.52,73.8c-.48.27-.37.85.54,2.09a5.37,5.37,0,0,0,2.82,2.18c-.74-1.13-1.28-1.43-1.76-2.16C31.29,74.63,31,73.53,30.52,73.8Z"/><path class="sz_cls-5" d="M104.94,95.49l-1.07.09Z"/><path class="sz_cls-5" d="M96.66,48.26c2.55,2.87.42,4,3.12,4.21s1.23,3,3.63,3.13c1.67.07-.17,6.76,1.44,9s3,.67,3,2.33-4.46,1.55-4.54,6.84c-.13,3.05-3.79,3.25-4,5.21s7.21,2.88,7.11,4.53-8,1.39-8.37,3.27c-.18,1.69,10.88,3.07,11.77,8l-.2.06c18.19-3.81,28.72-17.79,36.81-26.31.47-.5.94-1,1.4-1.44-.46-.46-.92-.94-1.39-1.44-1.26-1.33-2.58-2.78-4-4.31l-1.76-1.92c-1.16-1.26-2.38-2.54-3.66-3.83-.64-.64-1.29-1.28-2-1.92C126.84,45.68,115.9,38.26,100,38.26,100,38.26,93.36,44.32,96.66,48.26Zm10.78,29h-2.32V69.56h2.32Zm4.65,0h-2.32V69.56h2.32Zm4.65,0H114.4V69.56h2.32Zm4.64,0H119V69.56h2.32Zm4.65,0h-2.32V69.56H126Zm4.64,0h-2.32V69.56h2.32ZM126,64.45h-2.32V56.78H126Zm-16.26-7.67h2.32v7.67h-2.32Zm4.64,0h2.32v7.67H114.4Zm4.65,0h2.32v7.67H119Zm-13.94,7.67V56.78h2.32v7.67Zm25.55,0h-2.32V56.78h2.32Z"/><path class="sz_cls-5" d="M103.24,95.63l-1.36.07Z"/><path class="sz_cls-8" d="M53.51,68.44c9.71,9.93,25.2,27.32,46.49,27.31.6,0,1.23,0,1.88,0l1.36-.07.63,0,1.07-.09a30.39,30.39,0,0,0,4.76-.74l.2-.06c-.89-4.88-11.95-6.26-11.77-8,.34-1.88,8.26-1.62,8.37-3.27s-7.33-2.69-7.11-4.53,3.84-2.16,4-5.21c.08-5.29,4.57-5.12,4.54-6.84s-1.4,0-3-2.33.23-8.89-1.44-9c-2.39-.1-.78-2.92-3.63-3.13s-.57-1.34-3.12-4.21c-3.29-3.93,3.34-10,3.34-10-13.91,0-25.34,7.42-34.31,15.33q-1.08,1-2.11,1.92c-1.39,1.29-2.72,2.58-4,3.83l-1.9,1.92c-1.5,1.53-2.9,3-4.19,4.31L52.09,67ZM74.63,56.78h2.32v7.67H74.63Zm4.32-5a19.3,19.3,0,0,0-1.59,1.2,14,14,0,0,1,7.15-9.59c-1.33,2.57,2.32-.85,8,3.44a9.87,9.87,0,0,1,2.58,5.41,17.18,17.18,0,0,1-3.38-1.46s2.53,2.54,2.53,5.46c-.9-.56-1.34-.48-1.64-1.16a5.21,5.21,0,0,0,.56,1.73h2.31v7.67H93.21V57.88a12,12,0,0,0-1.5-1c.84,1.46-1.54,4.3-.35,5.25l-.48-.1v2.39H88.56v-3.3a6.19,6.19,0,0,1-2.26-2.09l-.06.06v5.33H83.92V58.69c-.62-.64-1.13-1.31-1-1.71a3,3,0,0,0-.6,1.63l-.72-.74v6.56H79.27V56.78h1.39a5.91,5.91,0,0,1-1-2c-.53.69-.56.69-1.09,1.38C78.15,53.72,78.15,53.81,78.94,51.75Zm-9,5H72.3v7.67H70Zm0,20.44V69.56H72.3v7.67Zm4.65,0V69.56h2.32v7.67Zm4.64,0V69.56h2.32v7.67Zm4.65,0V69.56h2.32v7.67Zm4.64,0V69.56h2.32v7.67Zm4.65,0V69.56h2.32v7.67Z"/><rect class="sz_cls-5" x="69.98" y="56.78" width="2.32" height="7.67"/><rect class="sz_cls-5" x="69.98" y="69.56" width="2.32" height="7.67"/><rect class="sz_cls-5" x="74.63" y="56.78" width="2.32" height="7.67"/><rect class="sz_cls-5" x="74.63" y="69.56" width="2.32" height="7.67"/><path class="sz_cls-5" d="M79.27,56.78v7.67h2.32V57.88a12,12,0,0,1-.94-1.1Z"/><rect class="sz_cls-5" x="79.27" y="69.56" width="2.32" height="7.67"/><path class="sz_cls-5" d="M85.79,60.34a19.25,19.25,0,0,1-1.87-1.64v5.75h2.32V59.12A1.48,1.48,0,0,0,85.79,60.34Z"/><rect class="sz_cls-5" x="83.92" y="69.56" width="2.32" height="7.67"/><path class="sz_cls-5" d="M88.56,61.15v3.3h2.32V62.05A8.13,8.13,0,0,1,88.56,61.15Z"/><rect class="sz_cls-5" x="88.56" y="69.56" width="2.32" height="7.67"/><path class="sz_cls-5" d="M93.21,57.88v6.56h2.32V56.78H93.22a3.64,3.64,0,0,1,.23,1.29Z"/><rect class="sz_cls-5" x="93.21" y="69.56" width="2.32" height="7.67"/><rect class="sz_cls-9" x="105.11" y="56.78" width="2.32" height="7.67"/><rect class="sz_cls-9" x="105.11" y="69.56" width="2.32" height="7.67"/><rect class="sz_cls-9" x="109.76" y="56.78" width="2.32" height="7.67"/><rect class="sz_cls-9" x="109.76" y="69.56" width="2.32" height="7.67"/><rect class="sz_cls-9" x="114.4" y="56.78" width="2.32" height="7.67"/><rect class="sz_cls-9" x="114.4" y="69.56" width="2.32" height="7.67"/><rect class="sz_cls-9" x="119.05" y="56.78" width="2.32" height="7.67"/><rect class="sz_cls-9" x="119.05" y="69.56" width="2.32" height="7.67"/><rect class="sz_cls-9" x="123.69" y="56.78" width="2.32" height="7.67"/><rect class="sz_cls-9" x="123.69" y="69.56" width="2.32" height="7.67"/><rect class="sz_cls-9" x="128.34" y="56.78" width="2.32" height="7.67"/><rect class="sz_cls-9" x="128.34" y="69.56" width="2.32" height="7.67"/><path class="sz_cls-6" d="M79.64,54.75a5.91,5.91,0,0,0,1,2,12,12,0,0,0,.94,1.1l.72.74a3,3,0,0,1,.6-1.63c-.13.4.38,1.07,1,1.71a19.25,19.25,0,0,0,1.87,1.64,1.48,1.48,0,0,1,.45-1.22l.06-.06a6.19,6.19,0,0,0,2.26,2.09,8.13,8.13,0,0,0,2.32.91l.48.1c-1.19-.95,1.19-3.78.35-5.25a12,12,0,0,1,1.5,1l.24.18a3.64,3.64,0,0,0-.23-1.29,5.21,5.21,0,0,1-.56-1.73c.3.69.75.6,1.64,1.16,0-2.92-2.53-5.46-2.53-5.46a17.18,17.18,0,0,0,3.38,1.46,9.87,9.87,0,0,0-2.58-5.41c-5.72-4.3-9.37-.88-8-3.44a14,14,0,0,0-7.15,9.59,19.3,19.3,0,0,1,1.59-1.2c-.79,2.06-.79,2-.4,4.38C79.08,55.44,79.11,55.44,79.64,54.75ZM88,59.1c-.8-1.43-.83-2-.28-2.26s.7,1,1.42,2.44c.41.83.95,1.22,1.58,2.51A5.75,5.75,0,0,1,88,59.1ZM93.31,55a6.23,6.23,0,0,1-3.79-1.43c-1.39-1-1.69-1.61-1.24-2s1.1.64,2.43,1.73C91.46,53.94,92.15,54.08,93.31,55ZM86,47.39c.37-.59,1.43.48,3.25,1.43,1,.54,1.86.55,3.46,1.4A7.54,7.54,0,0,1,88,49.43C86.14,48.57,85.64,48,86,47.39Zm-1.1,5.72c.62-.11.93.46,1,2.17a5.93,5.93,0,0,1-1,3.86c-.14-1.49.13-2.13,0-3.09C84.83,54.36,84.3,53.22,84.92,53.11ZM82,52.33c.25-2,0-3.47.66-3.43s.92.78.56,2.77a7.19,7.19,0,0,1-2,4.23C81.45,54.13,81.91,53.47,82,52.33Z"/><path class="sz_cls-7" d="M81.24,55.9a7.19,7.19,0,0,0,2-4.23c.35-2,.15-2.74-.56-2.77s-.42,1.43-.66,3.43C81.91,53.47,81.45,54.13,81.24,55.9Z"/><path class="sz_cls-7" d="M85,56.05c.09,1-.18,1.6,0,3.09a5.93,5.93,0,0,0,1-3.86c-.07-1.71-.38-2.28-1-2.17S84.83,54.36,85,56.05Z"/><path class="sz_cls-7" d="M89.15,59.28c-.72-1.46-.87-2.65-1.42-2.44s-.52.83.28,2.26a5.75,5.75,0,0,0,2.72,2.68C90.1,60.49,89.56,60.11,89.15,59.28Z"/><path class="sz_cls-7" d="M88,49.43a7.54,7.54,0,0,0,4.71.79c-1.6-.84-2.42-.85-3.46-1.4-1.82-1-2.88-2-3.25-1.43S86.14,48.57,88,49.43Z"/><path class="sz_cls-7" d="M88.28,51.58c-.44.43-.15,1,1.24,2A6.23,6.23,0,0,0,93.31,55c-1.17-1-1.86-1.11-2.61-1.74C89.38,52.22,88.72,51.14,88.28,51.58Z"/></g></g></svg>
