<svg xmlns="http://www.w3.org/2000/svg" viewBox="0 0 200 134"><defs><style>.ad_cls-1{fill:#2a3782;}.ad_cls-2{fill:#f4e731;}.ad_cls-3{fill:#ec2f3b;}.ad_cls-4{fill:#e2c390;}.ad_cls-5{fill:#ec2330;}.ad_cls-6{fill:#f4e403;}.ad_cls-7{fill:#fff;}.ad_cls-8{fill:#3f5aa9;}.ad_cls-9{fill:#fae004;}.ad_cls-10{fill:#4d2613;}</style></defs><title>Asset 6</title><g id="Layer_2" data-name="Layer 2"><g id="Layer_95" data-name="Layer 95"><path class="ad_cls-1" d="M17,0A17,17,0,0,0,0,17V117a17,17,0,0,0,17,17H63.35V0Z"/><path class="ad_cls-2" d="M63.35,0V134h73.31V0ZM128,78.46v.27c3,4.39.74,13.07-9.67,13.07-7.69,0-10.14,1.1-11,1.92,1.75,1.54,1.34,4.52-1.17,4.73-1.37,1.07-2.63,1.33-4-.14-.68.92-1.19,1.84-2.19,2.26a8.41,8.41,0,0,1-2.43-2.33c-1.37,1.1-2.42,1.37-3.38.31-3,0-4.68-3-2-4.8-1.58-1.85-5.38-2-8.67-2-12.06,1.37-15.43-8.53-11-14-3-1-3-5.36,1.1-4.49,1.49-.41,1.68-4.49,1.25-5.58-2.29,1.53-5.06-1.08-2.7-3.65-6.27-2.2-3.83-13.75,3.65-12.32,1.34.25,1.51-.53,1.92-1.1.41-1.16-.21-2.53-2.12-4.18-3-1.92-1.58-4.87-.76-5.31.13-.65,1.18-1.88,1.73-1.67.55-1.07,2.89-1.65,3.28-1.18a2.83,2.83,0,0,1,2.92-.48c1.17-.45,2.2,0,2.22.62,1.93.24,2.38,1.64,1.79,3.32.86,1,1.58,1,3.49.79a1.94,1.94,0,0,0,1.22-3.43c-1.92-4.66,1.75-6.86,4.32-5.21,3.56,2.36,5.42,2.11,7.4.27,2.2-2,7.06.07,5.14,4.73-1.1,1.37-1.21,3.53,1.71,3.49.33-.07,3.08-.14,3.22-.23a2.34,2.34,0,0,1,1.61-4c.13-.41,1.1-.56,1.88-.17.37-.52,2.27-.2,2.78.45.72-.28,3.23.37,3.53,1.54,1.3.24,1.86,1,1.85,1.6,1.79,1,.85,3.81-1.17,4.94a4.09,4.09,0,0,0-2,3.45,1.78,1.78,0,0,0,2,1.72c8.82-1.49,9.63,9.94,3.84,12.34.87,1.62.47,3.61-2.3,3.28-1.19,1.76-.15,5.52,1.42,6.58C130.08,72.58,131.46,78.11,128,78.46Z"/><path class="ad_cls-3" d="M183,0H136.65V134H183a17,17,0,0,0,17-17V17A17,17,0,0,0,183,0Z"/><polygon class="ad_cls-4" points="103.36 89.37 104.28 89.37 103.82 88.21 103.36 89.37"/><path class="ad_cls-4" d="M84.57,86.44a.64.64,0,0,0,0-.46.52.52,0,0,0-.35-.26l-.3,0-.3,1.16.06,0h0a.78.78,0,0,0,.59,0A.59.59,0,0,0,84.57,86.44Z"/><path class="ad_cls-4" d="M121.23,85.49a.52.52,0,0,0-.42-.11,1.59,1.59,0,0,0-.29.08l.17,1.18h.11a.79.79,0,0,0,.53-.26.6.6,0,0,0,.12-.47A.62.62,0,0,0,121.23,85.49Z"/><path class="ad_cls-4" d="M126.79,74c-1.57-1.06-2.61-4.82-1.42-6.58,2.77.33,3.17-1.66,2.3-3.28,5.79-2.4,5-13.82-3.84-12.34a1.78,1.78,0,0,1-2-1.72,4.09,4.09,0,0,1,2-3.45c2-1.13,3-3.94,1.17-4.94,0-.65-.55-1.37-1.85-1.6-.3-1.17-2.82-1.82-3.53-1.54-.51-.65-2.41-1-2.78-.45-.79-.38-1.75-.24-1.88.17a2.34,2.34,0,0,0-1.61,4c-.14.09-2.89.16-3.22.23-2.92,0-2.8-2.12-1.71-3.49,1.92-4.66-2.94-6.77-5.14-4.73-2,1.84-3.85,2.08-7.4-.27-2.57-1.66-6.24.55-4.32,5.21a1.94,1.94,0,0,1-1.22,3.43c-1.92.17-2.63.2-3.49-.79.59-1.68.14-3.08-1.79-3.32,0-.59-1.06-1.07-2.22-.62a2.83,2.83,0,0,0-2.92.48c-.39-.47-2.73.12-3.28,1.18-.55-.21-1.6,1-1.73,1.67-.82.44-2.25,3.39.76,5.31,1.92,1.64,2.53,3,2.12,4.18-.41.57-.58,1.34-1.92,1.1-7.48-1.43-9.92,10.12-3.65,12.32-2.36,2.57.41,5.17,2.7,3.65.43,1.09.24,5.17-1.25,5.58-4.13-.87-4.12,3.54-1.1,4.49-4.46,5.45-1.09,15.35,11,14,3.29,0,7.08.1,8.67,2-2.71,1.78-1,4.8,2,4.8,1,1.07,2,.79,3.38-.31a8.41,8.41,0,0,0,2.43,2.33c1-.42,1.51-1.34,2.19-2.26,1.41,1.47,2.67,1.21,4,.14,2.51-.21,2.92-3.2,1.17-4.73.82-.82,3.28-1.92,11-1.92,10.41,0,12.68-8.69,9.67-13.07v-.27C131.46,78.11,130.08,72.58,126.79,74ZM99.27,81.55c0,.77-.81-.22-2.16-.22s-7.91.39-9.84.39A4.81,4.81,0,0,1,85.08,81H83.77v-.91a4.49,4.49,0,0,1-1.9-2.8V65l17.37-.05S99.27,80.78,99.27,81.55Zm-.06-35.22,0,17.38-17.32.05-.07-17.35h-.14ZM79.78,87.46l-.33-2.65a1.35,1.35,0,0,0,0-.25.34.34,0,0,0-.09-.13.49.49,0,0,0-.17-.09l0-.08,1,.26,0,.08a.46.46,0,0,0-.24,0,.16.16,0,0,0-.08.11,1,1,0,0,0,0,.34l.22,1.8,1-1.46a1.25,1.25,0,0,0,.17-.31.17.17,0,0,0,0-.13.34.34,0,0,0-.16-.12h0l0-.08.78.2,0,.08a.42.42,0,0,0-.23,0,.92.92,0,0,0-.25.27l-1.48,2.15Zm2.56.58-1.08-.27,0-.08.09,0a.27.27,0,0,0,.25,0,.72.72,0,0,0,.13-.31l.46-1.8a1,1,0,0,0,0-.29.18.18,0,0,0-.05-.11.33.33,0,0,0-.16-.09l-.09,0L82,85l1.08.27,0,.08-.09,0a.26.26,0,0,0-.25,0,.69.69,0,0,0-.13.31l-.46,1.8a1,1,0,0,0,0,.29.19.19,0,0,0,.06.11.33.33,0,0,0,.16.09l.09,0Zm2.66.68-.67-.17L83.81,87l-.15,0H83.6l-.06,0-.21.81a.65.65,0,0,0,0,.34.26.26,0,0,0,.19.14l.1,0,0,.08-1.08-.27,0-.08.09,0a.25.25,0,0,0,.26-.06.72.72,0,0,0,.12-.29l.46-1.8a.64.64,0,0,0,0-.34.27.27,0,0,0-.19-.14l-.09,0,0-.08.92.23a2,2,0,0,1,.58.22.7.7,0,0,1,.26.32.68.68,0,0,1,0,.45.72.72,0,0,1-.26.41.86.86,0,0,1-.54.15l.32.93a1.43,1.43,0,0,0,.21.44.74.74,0,0,0,.31.2Zm2.51-1.64-.07,0a.83.83,0,0,0,0-.26.41.41,0,0,0-.11-.22.51.51,0,0,0-.24-.12l-.36-.09-.54,2.13a.63.63,0,0,0,0,.33.27.27,0,0,0,.2.14l.09,0,0,.08-1.07-.27,0-.08.09,0a.25.25,0,0,0,.25,0,.71.71,0,0,0,.12-.29l.54-2.13-.3-.08a.78.78,0,0,0-.26,0,.36.36,0,0,0-.2.11.68.68,0,0,0-.16.28l-.07,0,.2-.65,2.06.52Zm1,2.59-.07,0L88.09,87a1.51,1.51,0,0,0,0-.25.37.37,0,0,0-.09-.13.53.53,0,0,0-.17-.09l0-.08,1,.26,0,.08a.44.44,0,0,0-.24,0,.16.16,0,0,0-.08.11,1.08,1.08,0,0,0,0,.34l.22,1.8,1-1.46a1.27,1.27,0,0,0,.17-.31.17.17,0,0,0,0-.13.35.35,0,0,0-.16-.12h0l0-.08.78.2,0,.08a.4.4,0,0,0-.23,0,.89.89,0,0,0-.25.26ZM92,88.5l-.07,0A1.36,1.36,0,0,0,92,88a.69.69,0,0,0-.18-.32.65.65,0,0,0-.31-.18.45.45,0,0,0-.55.32.4.4,0,0,0,0,.25,2.18,2.18,0,0,0,.44.55,4.08,4.08,0,0,1,.4.44.81.81,0,0,1,.13.32.8.8,0,0,1-1,.91l-.2-.07-.22-.14a1,1,0,0,0-.21-.12.1.1,0,0,0-.08,0,.28.28,0,0,0-.07.12l-.07,0,.25-1,.07,0a1.51,1.51,0,0,0,0,.48.66.66,0,0,0,.19.31.74.74,0,0,0,.34.19.51.51,0,0,0,.4,0,.45.45,0,0,0,.22-.29.47.47,0,0,0,0-.22.64.64,0,0,0-.11-.24A4.73,4.73,0,0,0,91.1,89a4.12,4.12,0,0,1-.38-.44.87.87,0,0,1-.14-.32.73.73,0,0,1,0-.34.74.74,0,0,1,.34-.46.72.72,0,0,1,.58-.08,1,1,0,0,1,.4.22.43.43,0,0,0,.13.09.11.11,0,0,0,.09,0,.27.27,0,0,0,.08-.12l.07,0Zm6.9-.8h-.09a.26.26,0,0,0-.24.11.68.68,0,0,0,0,.31v2.41h-.07l-1.76-2.3V90a.62.62,0,0,0,.05.33.29.29,0,0,0,.23.09h.09v.08h-.93v-.08h.09a.27.27,0,0,0,.24-.11.68.68,0,0,0,0-.31V88a1.29,1.29,0,0,0-.18-.19.64.64,0,0,0-.18-.09l-.17,0a.43.43,0,0,0-.21.1.87.87,0,0,0-.19.32l-.93,2.43h-.07l-1-2.47a1.3,1.3,0,0,0-.11-.23.34.34,0,0,0-.12-.1.55.55,0,0,0-.19,0v-.08h1.09v.08a.47.47,0,0,0-.24.07.16.16,0,0,0-.05.12,1,1,0,0,0,.09.33l.68,1.68.63-1.66a1.17,1.17,0,0,0,.09-.34.16.16,0,0,0-.06-.12.37.37,0,0,0-.19-.08h0v-.08h1.55l1.63,2.14V88.12a.61.61,0,0,0-.05-.33.28.28,0,0,0-.23-.09H98v-.08h.93Zm1.3,0h-.1a.27.27,0,0,0-.24.1.66.66,0,0,0,0,.32V90a1,1,0,0,0,0,.29.17.17,0,0,0,.08.09.35.35,0,0,0,.18.05h.1v.08H99.09v-.08h.09a.28.28,0,0,0,.24-.1.68.68,0,0,0,0-.33V88.13a1,1,0,0,0,0-.29.18.18,0,0,0-.08-.09.35.35,0,0,0-.18-.05h-.09v-.08h1.15Zm.15-41.38,17.35,0,0,17.46-17.32,0Zm17.37,30.57c0,1.74-3.47,4.44-5.4,4.44s-8.49-.39-9.84-.39-2,1.49-2,.72,0-16.69,0-16.69l17.15-.09C117.76,65.28,117.76,75.15,117.76,76.89ZM102.14,87.8h-.38V90a.63.63,0,0,0,.05.33.29.29,0,0,0,.23.09h.09v.08H101v-.08h.09a.26.26,0,0,0,.24-.11.67.67,0,0,0,0-.31V87.8h-.32a.85.85,0,0,0-.27,0,.37.37,0,0,0-.17.15.66.66,0,0,0-.09.31h-.08l0-.67h2.18l0,.67h-.08a.88.88,0,0,0-.06-.25.41.41,0,0,0-.16-.18A.54.54,0,0,0,102.14,87.8Zm3.21,2.68H104.3v-.08a.37.37,0,0,0,.22-.06.15.15,0,0,0,.06-.12.91.91,0,0,0-.08-.29l-.16-.41h-1l-.18.45a.77.77,0,0,0-.07.25.15.15,0,0,0,.06.11.49.49,0,0,0,.25.06v.08h-.84v-.08a.44.44,0,0,0,.22-.08,1.31,1.31,0,0,0,.22-.41l.94-2.35H104l.93,2.38a1.1,1.1,0,0,0,.21.37.39.39,0,0,0,.25.1ZM108,87.73a1,1,0,0,0-.16-.28.4.4,0,0,0-.18-.11.76.76,0,0,0-.3,0l-.56.08.16,1.11.46-.07a.32.32,0,0,0,.22-.11.55.55,0,0,0,.05-.32h.07l.14,1h-.07a.6.6,0,0,0-.08-.24.24.24,0,0,0-.12-.1.38.38,0,0,0-.2,0l-.47.07.13.89a1,1,0,0,0,.07.28.18.18,0,0,0,.09.08.34.34,0,0,0,.18,0h.09V90l-1.09.16v-.08h.09a.26.26,0,0,0,.21-.14.71.71,0,0,0,0-.33l-.27-1.83a1.06,1.06,0,0,0-.07-.28.18.18,0,0,0-.09-.08.33.33,0,0,0-.18,0h-.09v-.08l1.9-.28.12.62Zm2.76,1.48a1.16,1.16,0,0,1-1.77.27,1.6,1.6,0,0,1-.52-1,1.53,1.53,0,0,1,.25-1.16,1.17,1.17,0,0,1,.81-.49,1.12,1.12,0,0,1,.92.29,1.56,1.56,0,0,1,.52,1A1.6,1.6,0,0,1,110.79,89.21Zm2.49,0L112.22,88l-.16,0H112l.12.82a.64.64,0,0,0,.1.32.26.26,0,0,0,.23.06h.1v.08l-1.09.16v-.08h.1a.25.25,0,0,0,.21-.15.76.76,0,0,0,0-.31l-.27-1.83a.63.63,0,0,0-.1-.32.27.27,0,0,0-.23-.06l-.1,0v-.08l.93-.14a2,2,0,0,1,.61,0,.7.7,0,0,1,.56.59.71.71,0,0,1-.09.48.85.85,0,0,1-.43.34l.64.74a1.41,1.41,0,0,0,.37.33.72.72,0,0,0,.35.07v.08Zm2.29-2.55a.93.93,0,0,0-.09-.24.41.41,0,0,0-.18-.16.51.51,0,0,0-.26,0l-.36.05.32,2.16a.64.64,0,0,0,.1.32.27.27,0,0,0,.23.06h.09v.08l-1.08.16V89h.09a.25.25,0,0,0,.21-.14.68.68,0,0,0,0-.31l-.32-2.16-.3,0a.77.77,0,0,0-.25.07.37.37,0,0,0-.15.18.67.67,0,0,0,0,.32h-.07l-.07-.67,2.08-.3.13.66Zm.58,2.13v-.08h.09a.27.27,0,0,0,.21-.14.72.72,0,0,0,0-.33l-.27-1.83a1,1,0,0,0-.07-.28.18.18,0,0,0-.09-.08.32.32,0,0,0-.18,0h-.09V86l1.09-.16v.08h-.09a.26.26,0,0,0-.21.14.64.64,0,0,0,0,.33l.27,1.83a1,1,0,0,0,.07.28.18.18,0,0,0,.09.08.33.33,0,0,0,.18,0h.09v.08Zm3.4-.87a1.16,1.16,0,0,1-1.77.27,1.6,1.6,0,0,1-.51-1,1.52,1.52,0,0,1,.25-1.16,1.17,1.17,0,0,1,.81-.49,1.12,1.12,0,0,1,.92.29,1.55,1.55,0,0,1,.52,1A1.59,1.59,0,0,1,119.54,87.93Zm2.49,0L121,86.74l-.16,0h-.11l.12.82a.63.63,0,0,0,.1.32.26.26,0,0,0,.23.06h.1V88l-1.09.16v-.08h.1a.25.25,0,0,0,.21-.15.75.75,0,0,0,0-.31l-.27-1.83a.67.67,0,0,0-.1-.32.27.27,0,0,0-.23-.06h-.1v-.08l.93-.14a2.06,2.06,0,0,1,.61,0,.7.7,0,0,1,.56.6.72.72,0,0,1-.09.47.85.85,0,0,1-.44.34l.65.73a1.45,1.45,0,0,0,.36.33.75.75,0,0,0,.36.07v.08Z"/><path class="ad_cls-4" d="M118.3,85.68a.66.66,0,0,0-.51.36,1.73,1.73,0,0,0-.11,1.06,1.84,1.84,0,0,0,.42,1,.65.65,0,0,0,.58.2.72.72,0,0,0,.55-.4,1.67,1.67,0,0,0,.09-1,1.87,1.87,0,0,0-.42-1A.67.67,0,0,0,118.3,85.68Z"/><path class="ad_cls-4" d="M112.47,86.77a.51.51,0,0,0-.42-.11l-.29.08.17,1.18h.1a.78.78,0,0,0,.52-.26.59.59,0,0,0,.12-.47A.63.63,0,0,0,112.47,86.77Z"/><path class="ad_cls-4" d="M109.54,87a.66.66,0,0,0-.51.36,1.74,1.74,0,0,0-.11,1.06,1.84,1.84,0,0,0,.42,1,.64.64,0,0,0,.58.2.73.73,0,0,0,.55-.4,1.65,1.65,0,0,0,.09-1,1.88,1.88,0,0,0-.42-1A.68.68,0,0,0,109.54,87Z"/><path class="ad_cls-5" d="M81.87,63.77l17.32-.05,0-17.38-17.56.09h.14Zm4-10.93c.22-.18,4.37-5.23,4.64-5.41.22.14,4.56,5.1,4.73,5.32a1.11,1.11,0,0,1,.14,1.17c-.18.3-2.41,5.37-2.6,5.5l-4.64,0s-2.32-5.15-2.5-5.42A1.31,1.31,0,0,1,85.92,52.84Z"/><path class="ad_cls-6" d="M81.87,77.27a4.49,4.49,0,0,0,1.9,2.8V65.47h1.87V81h-.56a4.81,4.81,0,0,0,2.19.73c1.93,0,8.49-.39,9.84-.39s2.16,1,2.16.22,0-16.62,0-16.62L81.87,65ZM95.39,65.44h1.88V81.11H95.39Zm-3.76,0H93.5V81.29H91.63Zm-3.95,0h1.87V81.26H87.68Z"/><path class="ad_cls-6" d="M100.53,65s0,15.92,0,16.69.67-.72,2-.72,7.91.39,9.84.39,5.4-2.7,5.4-4.44,0-11.61-.07-12Zm3,3.67c.19-.12.37-.56.31-.65a.24.24,0,0,1,0-.31,1,1,0,0,0,.19-.49v0a.06.06,0,0,1-.07,0,.66.66,0,0,1-.22-.56c.28-.06.12.06.34.28,0,0,0,.06,0,.11a.2.2,0,0,1,.15-.11c.12,0,.77-.09.93,0l.07,0v0c.22-.22.06-.34.34-.28a.75.75,0,0,1-.12.42c.18.08.41.17.64.25l.16,0,.2.06h0a1.48,1.48,0,0,0,.31.05,13,13,0,0,1,1.52,0,16.39,16.39,0,0,0,2.13,0,3.67,3.67,0,0,1,1.08-.15c.37.06.56.12.71.34a2.23,2.23,0,0,0,.65.53.88.88,0,0,1-.28,1.61c.09.4.19.31.37.4s.12.34.18.59a12,12,0,0,0,.19,1.44.12.12,0,1,1-.23,0c-.06-.12-.08-.11-.11.07a.43.43,0,0,1-.45.3c-.12,0,.12-.24-.18-.09l0,0c-.13-.06.14-.19.29-.41a.92.92,0,0,0,.09-.84.87.87,0,0,1-.22-.49c0-.15-.19-.19-.37-.34s-.31-.18-.37,0,.06.37,0,.62-.28.19-.43.4a10,10,0,0,1-.93.87s-.18-.09-.22.06-.36.3-.5.27l0-.14h-.25c0-.11.09-.19.22-.34s.28-.09.46-.22a2.43,2.43,0,0,0,.56-.65c.18-.28.18-.53.09-.62a.89.89,0,0,1-.15-.31s-.22,0-.25-.15-1.08.34-1.24.43a1.82,1.82,0,0,1-.56.12s.09.93.12,1.11.09.36-.12.32c0-.17-.19-.12-.15,0a.56.56,0,0,1-.19.4h-.4v-.22l-.17.07s0-.15.14-.29a1.56,1.56,0,0,0,.34-.93,1.24,1.24,0,0,0-.12-.46s-.8,0-.9-.15a1.72,1.72,0,0,0-.24-.2.42.42,0,0,1,.1.12c-.39.09-.44.4-.26.44s.82.06.56.29.42,0,.32.33c0,.21-.12.29-.22.19l0,.16a.46.46,0,0,1-.33-.14c-.25-.15-.47-.52-.62-.55s-.27-.19-.43-.48a1.14,1.14,0,0,1,.33-.77,1.42,1.42,0,0,0,.45.32,6.65,6.65,0,0,1-.66-.51c0-.05-.21-.22-.38-.4a.4.4,0,0,0-.08.09,2,2,0,0,0,.16.46c0,.06-.08.1-.22.11h0c0,.08,0,.15-.09.15s-.08-.07-.08-.15h0c-.14,0-.26,0-.26-.11s.25-.53.19-.65a1.08,1.08,0,0,1-.06-.37.5.5,0,0,0,.13.13,2.2,2.2,0,0,1-.22-.25c-.09-.16-.31.06-.46,0s-.25.28-.43.34a.84.84,0,0,1-.56,0c-.12-.06-.09-.19-.25-.31S103.34,68.76,103.53,68.64Zm9.61,10.23c-.06-.12-.08-.11-.11.07a.43.43,0,0,1-.45.3c-.12,0,.12-.24-.18-.09l0,0c-.13-.06.14-.19.29-.41a.92.92,0,0,0,.09-.84.88.88,0,0,1-.22-.49c0-.15-.18-.19-.37-.34s-.31-.19-.37,0,.06.37,0,.62-.28.18-.43.4a10,10,0,0,1-.93.87s-.19-.09-.22.06-.36.3-.5.27l0-.14h-.25c0-.11.09-.19.22-.34s.28-.09.46-.22a2.41,2.41,0,0,0,.56-.65c.19-.28.19-.53.09-.62a.89.89,0,0,1-.15-.31s-.22,0-.25-.16-1.08.34-1.24.43a1.81,1.81,0,0,1-.56.12s.09.93.12,1.11.09.36-.12.33c0-.17-.19-.12-.15,0a.57.57,0,0,1-.19.4h-.4v-.22l-.17.07s0-.15.14-.29a1.56,1.56,0,0,0,.34-.93,1.24,1.24,0,0,0-.12-.46s-.8,0-.9-.15a1.64,1.64,0,0,0-.23-.2.42.42,0,0,1,.1.11c-.39.09-.44.4-.26.44s.82.06.56.29.42,0,.32.33c0,.21-.12.29-.22.19l0,.16a.47.47,0,0,1-.33-.14c-.25-.15-.47-.51-.62-.55s-.27-.19-.43-.48a1.13,1.13,0,0,1,.33-.77,1.41,1.41,0,0,0,.44.32,6.73,6.73,0,0,1-.66-.51c0-.05-.21-.22-.38-.4a.4.4,0,0,0-.08.09,2,2,0,0,0,.15.46c0,.06-.08.1-.22.11h0c0,.09,0,.15-.08.15s-.09-.07-.09-.15h0c-.14,0-.27,0-.27-.11s.25-.53.19-.65a1.08,1.08,0,0,1-.06-.37.49.49,0,0,0,.13.13,2.18,2.18,0,0,1-.22-.25c-.09-.16-.31.06-.46,0s-.25.28-.43.34a.83.83,0,0,1-.56,0c-.12-.06-.09-.19-.25-.31s-.12-.19.06-.31.37-.56.31-.65a.24.24,0,0,1,0-.31,1,1,0,0,0,.19-.5v0a.05.05,0,0,1-.06,0,.66.66,0,0,1-.22-.56c.28-.06.12.06.34.28,0,0,0,.06,0,.11a.2.2,0,0,1,.15-.11c.12,0,.77-.09.93,0l.07,0v0c.22-.22.06-.34.34-.28a.75.75,0,0,1-.12.41c.18.08.41.17.63.24a.59.59,0,0,1,.17.05l.2.05h0a1.47,1.47,0,0,0,.31.05,13.42,13.42,0,0,1,1.52,0,16.05,16.05,0,0,0,2.13,0,3.64,3.64,0,0,1,1.08-.16c.37.06.56.12.71.34a2.19,2.19,0,0,0,.65.53.88.88,0,0,1-.28,1.61c.09.4.19.31.37.4s.12.34.19.59a11.76,11.76,0,0,0,.19,1.44A.12.12,0,1,1,113.13,78.86Z"/><path class="ad_cls-6" d="M117.74,46.3l-17.35,0V63.73l17.32,0Zm-12.11,17h-3V46.8h3Zm5,0h-3V46.8h3Zm5,0h-3V46.81h3Z"/><path class="ad_cls-7" d="M88.19,59.48l4.64,0c.18-.14,2.42-5.21,2.6-5.5a1.11,1.11,0,0,0-.14-1.17c-.17-.23-4.51-5.18-4.73-5.32-.28.18-4.42,5.23-4.64,5.41a1.31,1.31,0,0,0-.23,1.22C85.87,54.33,88.19,59.48,88.19,59.48ZM91,49.73l3,3.94s-1.09,3.23-1.41,3.75c-.32,1.27-1.63,1.17-1.59.75Zm-.83,0v8.41c0,.42-1.27.52-1.59-.75-.32-.51-1.41-3.73-1.41-3.73Z"/><path class="ad_cls-5" d="M92.58,57.41C92.9,56.9,94,53.66,94,53.66l-3-3.94v8.44C90.95,58.58,92.26,58.68,92.58,57.41Z"/><path class="ad_cls-5" d="M90.16,58.12V49.71l-3,3.92s1.09,3.22,1.41,3.73C88.89,58.64,90.21,58.54,90.16,58.12Z"/><path class="ad_cls-5" d="M113,76.8c-.19-.09-.28,0-.37-.4a.88.88,0,0,0,.28-1.61,2.19,2.19,0,0,1-.65-.53c-.16-.22-.34-.28-.71-.34a3.64,3.64,0,0,0-1.08.16,16.05,16.05,0,0,1-2.13,0,13.42,13.42,0,0,0-1.52,0,1.47,1.47,0,0,1-.31-.05,2.15,2.15,0,0,1-.76,2.09c.18.18.34.35.38.4a6.73,6.73,0,0,0,.66.51l.13.1a1.64,1.64,0,0,1,.23.2c.09.12.9.15.9.15a1.24,1.24,0,0,1,.12.46,1.56,1.56,0,0,1-.34.93c-.14.14-.17.25-.14.29l.17-.07v.22h.4a.57.57,0,0,0,.19-.4c0-.17.12-.22.15,0,.22,0,.15-.14.12-.33s-.12-1.11-.12-1.11a1.81,1.81,0,0,0,.56-.12c.16-.09,1.21-.62,1.24-.43s.25.16.25.16a.89.89,0,0,0,.15.31c.09.09.09.34-.09.62a2.41,2.41,0,0,1-.56.65c-.19.12-.34.06-.46.22s-.23.23-.22.34h.25l0,.14c.14,0,.46-.11.5-.27s.22-.06.22-.06a10,10,0,0,0,.93-.87c.15-.22.4-.15.43-.4s-.09-.4,0-.62.19-.19.37,0,.37.19.37.34a.88.88,0,0,0,.22.49.92.92,0,0,1-.09.84c-.15.22-.42.34-.29.41l0,0c.3-.15.07.11.18.09a.43.43,0,0,0,.45-.3c0-.19,0-.2.11-.07a.12.12,0,1,0,.24,0,11.76,11.76,0,0,1-.19-1.44C113.12,77.14,113.18,76.89,113,76.8Zm-.5-.74s-1-1.67-.22-1.3S113.06,75.81,112.5,76.06Z"/><path class="ad_cls-5" d="M106.3,74a.33.33,0,0,0,.2.05Z"/><path class="ad_cls-5" d="M105.57,75.81a2.34,2.34,0,0,0,.55-1.83l0-.07h0c-.23-.08-.45-.16-.63-.24a.49.49,0,0,1-.1.14c-.14.11-.13-.17-.12-.25l-.07,0c-.15-.12-.8,0-.93,0a.2.2,0,0,0-.15.11c0,.08,0,.17-.06.18v0a1,1,0,0,1-.19.5.24.24,0,0,0,0,.31c.06.09-.12.53-.31.65s-.22.18-.06.31.12.25.25.31a.83.83,0,0,0,.56,0c.19-.06.28-.37.43-.34s.37-.19.46,0a2.18,2.18,0,0,0,.22.25A.16.16,0,0,0,105.57,75.81Z"/><path class="ad_cls-8" d="M104.12,73.6c0-.05,0-.1,0-.11-.22-.22-.06-.34-.34-.28a.66.66,0,0,0,.22.56.05.05,0,0,0,.06,0S104.11,73.68,104.12,73.6Z"/><path class="ad_cls-9" d="M112.28,74.76c-.8-.37.25,1.33.22,1.3C113.06,75.81,113.09,75.13,112.28,74.76Z"/><path class="ad_cls-8" d="M106.5,74h0a.33.33,0,0,1-.2-.05.59.59,0,0,0-.17-.05h0l0,.07a2.34,2.34,0,0,1-.55,1.83.16.16,0,0,1-.15,0,.49.49,0,0,1-.12-.13,1.08,1.08,0,0,0,.06.37c.06.12-.19.5-.19.65s.13.1.27.11,0-.14.08-.14.08.06.08.14.25,0,.22-.11a2,2,0,0,1-.15-.46.4.4,0,0,1,.08-.09A2.15,2.15,0,0,0,106.5,74Z"/><path class="ad_cls-5" d="M105.51,76.65s-.08.06-.08.14h0c0,.09,0,.15.09.15s.08-.07.08-.15h0C105.59,76.71,105.56,76.65,105.51,76.65Z"/><rect class="ad_cls-5" x="102.58" y="46.8" width="3.05" height="16.45"/><rect class="ad_cls-5" x="95.39" y="65.44" width="1.88" height="15.67"/><rect class="ad_cls-5" x="107.58" y="46.8" width="3.05" height="16.45"/><rect class="ad_cls-5" x="112.58" y="46.81" width="3.05" height="16.45"/><rect class="ad_cls-5" x="91.63" y="65.44" width="1.87" height="15.85"/><rect class="ad_cls-5" x="87.68" y="65.47" width="1.87" height="15.79"/><polygon class="ad_cls-5" points="85.64 65.47 83.77 65.47 83.77 80.08 83.77 80.98 85.08 80.98 85.64 80.98 85.64 65.47"/><path class="ad_cls-5" d="M106.78,77a1.41,1.41,0,0,1-.44-.32,1.13,1.13,0,0,0-.33.77c.15.29.18.42.43.48s.37.4.62.55a.47.47,0,0,0,.33.14l0-.16c.1.1.17,0,.22-.19.1-.37-.43-.23-.32-.33s-.37-.25-.56-.29-.13-.35.26-.44a.42.42,0,0,0-.1-.11Z"/><path class="ad_cls-8" d="M105.4,73.82a.49.49,0,0,0,.1-.14.75.75,0,0,0,.12-.41c-.28-.06-.12.06-.34.28v0C105.27,73.65,105.25,73.93,105.4,73.82Z"/><path class="ad_cls-5" d="M103.71,69.25a.84.84,0,0,0,.56,0c.18-.06.28-.37.43-.34s.37-.19.46,0a2.2,2.2,0,0,0,.22.25.16.16,0,0,0,.15,0,2.33,2.33,0,0,0,.55-1.83l0-.07h0c-.23-.08-.46-.17-.64-.25a.5.5,0,0,1-.1.14c-.14.11-.13-.17-.13-.25l-.07,0c-.15-.12-.8,0-.93,0a.2.2,0,0,0-.15.11c0,.08,0,.16-.06.18v0a1,1,0,0,1-.19.49.24.24,0,0,0,0,.31c.06.09-.12.53-.31.65s-.22.19-.06.31S103.59,69.19,103.71,69.25Z"/><path class="ad_cls-5" d="M105.71,69.5c.18.18.34.35.38.4a6.65,6.65,0,0,0,.66.51l.12.09a1.72,1.72,0,0,1,.24.2c.09.12.9.15.9.15a1.24,1.24,0,0,1,.12.46,1.56,1.56,0,0,1-.34.93c-.14.14-.17.24-.14.29l.17-.07v.22h.4a.56.56,0,0,0,.19-.4c0-.17.12-.22.15,0,.22,0,.16-.14.12-.32s-.12-1.11-.12-1.11a1.82,1.82,0,0,0,.56-.12c.16-.09,1.21-.62,1.24-.43s.25.15.25.15a.89.89,0,0,0,.15.31c.09.09.09.34-.09.62a2.43,2.43,0,0,1-.56.65c-.19.12-.34.06-.46.22s-.23.23-.22.34h.25l0,.14c.14,0,.46-.11.5-.27s.22-.06.22-.06a10,10,0,0,0,.93-.87c.15-.22.4-.15.43-.4s-.09-.4,0-.62.19-.19.37,0,.37.19.37.34a.87.87,0,0,0,.22.49.92.92,0,0,1-.09.84c-.16.22-.42.34-.29.41l0,0c.3-.15.07.11.18.09a.43.43,0,0,0,.45-.3c0-.19,0-.2.11-.07a.12.12,0,1,0,.23,0,12,12,0,0,1-.19-1.44c-.06-.25,0-.49-.18-.59s-.28,0-.37-.4a.88.88,0,0,0,.28-1.61,2.23,2.23,0,0,1-.65-.53c-.16-.22-.34-.28-.71-.34a3.67,3.67,0,0,0-1.08.15,16.39,16.39,0,0,1-2.13,0,13,13,0,0,0-1.52,0,1.48,1.48,0,0,1-.31-.05A2.15,2.15,0,0,1,105.71,69.5Zm6.54-1.36c.8.37.77,1.05.21,1.3C112.5,69.47,111.45,67.77,112.25,68.14Z"/><path class="ad_cls-5" d="M106.26,67.35c.08,0,.15.07.2.06Z"/><path class="ad_cls-8" d="M104.08,67c0-.05,0-.1,0-.11-.22-.22-.06-.34-.34-.28a.66.66,0,0,0,.22.56.06.06,0,0,0,.07,0S104.08,67.06,104.08,67Z"/><path class="ad_cls-9" d="M112.25,68.14c-.81-.37.25,1.33.21,1.3C113,69.19,113.05,68.51,112.25,68.14Z"/><path class="ad_cls-8" d="M106.09,67.37a2.33,2.33,0,0,1-.55,1.83.16.16,0,0,1-.15,0,.5.5,0,0,1-.12-.13,1.08,1.08,0,0,0,.06.37c.06.12-.19.5-.19.65s.13.1.26.11,0-.14.08-.14.08.06.08.14.25,0,.22-.11a2,2,0,0,1-.16-.46.4.4,0,0,1,.08-.09,2.15,2.15,0,0,0,.76-2.09h0c-.05,0-.12,0-.2-.06l-.16,0h0Z"/><path class="ad_cls-5" d="M105.48,70s-.08.06-.08.14h0c0,.08,0,.15.08.15s.09-.07.09-.15h0C105.56,70.09,105.53,70,105.48,70Z"/><path class="ad_cls-5" d="M106.75,70.42a1.42,1.42,0,0,1-.45-.32,1.14,1.14,0,0,0-.33.77c.15.29.18.42.43.48s.37.39.62.55a.46.46,0,0,0,.33.14l0-.16c.1.1.17,0,.22-.19.1-.37-.43-.23-.32-.33s-.37-.25-.56-.29-.13-.35.26-.44a.42.42,0,0,0-.1-.12Z"/><path class="ad_cls-8" d="M105.36,67.2a.5.5,0,0,0,.1-.14.75.75,0,0,0,.12-.42c-.28-.06-.12.06-.34.28v0C105.23,67,105.22,67.31,105.36,67.2Z"/><path class="ad_cls-10" d="M96,87.62H95.2v.08h0a.37.37,0,0,1,.19.08.16.16,0,0,1,.06.12,1.17,1.17,0,0,1-.09.34l-.63,1.66-.68-1.68a1,1,0,0,1-.09-.33.16.16,0,0,1,.05-.12.47.47,0,0,1,.24-.07v-.08H93.2v.08a.55.55,0,0,1,.19,0,.34.34,0,0,1,.12.1,1.3,1.3,0,0,1,.11.23l1,2.47h.07l.93-2.43a.87.87,0,0,1,.19-.32.43.43,0,0,1,.21-.1h0Z"/><path class="ad_cls-10" d="M98,87.7h.09a.28.28,0,0,1,.23.09.61.61,0,0,1,.05.33v1.65l-1.63-2.14H96v.08h0l.17,0a.64.64,0,0,1,.18.09,1.29,1.29,0,0,1,.18.19v2a.68.68,0,0,1,0,.31.27.27,0,0,1-.24.11h-.09v.08h.93v-.08H97a.29.29,0,0,1-.23-.09.62.62,0,0,1-.05-.33V88.23l1.76,2.3h.07V88.12a.68.68,0,0,1,0-.31.26.26,0,0,1,.24-.11h.09v-.08H98Z"/><path class="ad_cls-10" d="M99.09,87.7h.09a.35.35,0,0,1,.18.05.18.18,0,0,1,.08.09,1,1,0,0,1,0,.29V90a.68.68,0,0,1,0,.33.28.28,0,0,1-.24.1h-.09v.08h1.15v-.08h-.1a.35.35,0,0,1-.18-.05.17.17,0,0,1-.08-.09,1,1,0,0,1,0-.29V88.13a.66.66,0,0,1,0-.32.27.27,0,0,1,.24-.1h.1v-.08H99.09Z"/><path class="ad_cls-10" d="M102.63,88.3h.08l0-.67h-2.18l0,.67h.08a.66.66,0,0,1,.09-.31.37.37,0,0,1,.17-.15.85.85,0,0,1,.27,0h.32V90a.67.67,0,0,1,0,.31.26.26,0,0,1-.24.11H101v.08h1.13v-.08H102a.29.29,0,0,1-.23-.09.63.63,0,0,1-.05-.33V87.8h.38a.54.54,0,0,1,.27.06.41.41,0,0,1,.16.18A.88.88,0,0,1,102.63,88.3Z"/><path class="ad_cls-10" d="M104.9,89.94,104,87.56h-.07L103,89.91a1.31,1.31,0,0,1-.22.41.44.44,0,0,1-.22.08v.08h.84v-.08a.49.49,0,0,1-.25-.06.15.15,0,0,1-.06-.11.77.77,0,0,1,.07-.25l.18-.45h1l.16.41a.91.91,0,0,1,.08.29.15.15,0,0,1-.06.12.37.37,0,0,1-.22.06v.08h1.06v-.08a.39.39,0,0,1-.25-.1A1.1,1.1,0,0,1,104.9,89.94Zm-1.54-.57.46-1.16.45,1.16Z"/><path class="ad_cls-10" d="M106.08,87.38v.08h.09a.33.33,0,0,1,.18,0,.18.18,0,0,1,.09.08,1.06,1.06,0,0,1,.07.28l.27,1.83a.71.71,0,0,1,0,.33.26.26,0,0,1-.21.14h-.09v.08l1.09-.16V90h-.09a.34.34,0,0,1-.18,0,.18.18,0,0,1-.09-.08,1,1,0,0,1-.07-.28l-.13-.89.47-.07a.38.38,0,0,1,.2,0,.24.24,0,0,1,.12.1.6.6,0,0,1,.08.24h.07l-.14-1h-.07a.55.55,0,0,1-.05.32.32.32,0,0,1-.22.11l-.46.07-.16-1.11.56-.08a.76.76,0,0,1,.3,0,.4.4,0,0,1,.18.11,1,1,0,0,1,.16.28h.07L108,87.1Z"/><path class="ad_cls-10" d="M109.56,86.8a1.17,1.17,0,0,0-.81.49,1.53,1.53,0,0,0-.25,1.16,1.6,1.6,0,0,0,.52,1,1.16,1.16,0,0,0,1.77-.27,1.6,1.6,0,0,0,.21-1.12,1.56,1.56,0,0,0-.52-1A1.12,1.12,0,0,0,109.56,86.8Zm.92,2.42a.73.73,0,0,1-.55.4.64.64,0,0,1-.58-.2,1.84,1.84,0,0,1-.42-1,1.74,1.74,0,0,1,.11-1.06.66.66,0,0,1,.51-.36.68.68,0,0,1,.61.2,1.88,1.88,0,0,1,.42,1A1.65,1.65,0,0,1,110.48,89.22Z"/><path class="ad_cls-10" d="M113.59,89a1.41,1.41,0,0,1-.37-.33l-.64-.74a.85.85,0,0,0,.43-.34.71.71,0,0,0,.09-.48.7.7,0,0,0-.56-.59,2,2,0,0,0-.61,0l-.93.14v.08l.1,0a.27.27,0,0,1,.23.06.63.63,0,0,1,.1.32l.27,1.83a.76.76,0,0,1,0,.31.25.25,0,0,1-.21.15h-.1v.08l1.09-.16v-.08h-.1a.26.26,0,0,1-.23-.06.64.64,0,0,1-.1-.32l-.12-.82h.11l.16,0,1.06,1.2.68-.1V89A.72.72,0,0,1,113.59,89ZM112,87.91h-.1l-.17-1.18.29-.08a.51.51,0,0,1,.42.11.63.63,0,0,1,.21.41.59.59,0,0,1-.12.47A.78.78,0,0,1,112,87.91Z"/><path class="ad_cls-10" d="M113.42,86.3l.07.67h.07a.67.67,0,0,1,0-.32.37.37,0,0,1,.15-.18.77.77,0,0,1,.25-.07l.3,0,.32,2.16a.68.68,0,0,1,0,.31.25.25,0,0,1-.21.14h-.09v.08l1.08-.16v-.08h-.09a.27.27,0,0,1-.23-.06.64.64,0,0,1-.1-.32l-.32-2.16.36-.05a.51.51,0,0,1,.26,0,.41.41,0,0,1,.18.16.93.93,0,0,1,.09.24h.07l-.13-.66Z"/><path class="ad_cls-10" d="M117.13,88.57a.33.33,0,0,1-.18,0,.18.18,0,0,1-.09-.08,1,1,0,0,1-.07-.28l-.27-1.83a.64.64,0,0,1,0-.33.26.26,0,0,1,.21-.14h.09v-.08l-1.09.16V86h.09a.32.32,0,0,1,.18,0,.18.18,0,0,1,.09.08,1,1,0,0,1,.07.28l.27,1.83a.72.72,0,0,1,0,.33.27.27,0,0,1-.21.14h-.09v.08l1.09-.16v-.08Z"/><path class="ad_cls-10" d="M118.32,85.52a1.17,1.17,0,0,0-.81.49,1.52,1.52,0,0,0-.25,1.16,1.6,1.6,0,0,0,.51,1,1.16,1.16,0,0,0,1.77-.27,1.59,1.59,0,0,0,.21-1.12,1.55,1.55,0,0,0-.52-1A1.12,1.12,0,0,0,118.32,85.52Zm.92,2.42a.72.72,0,0,1-.55.4.65.65,0,0,1-.58-.2,1.84,1.84,0,0,1-.42-1,1.73,1.73,0,0,1,.11-1.06.66.66,0,0,1,.51-.36.67.67,0,0,1,.61.2,1.87,1.87,0,0,1,.42,1A1.67,1.67,0,0,1,119.24,87.94Z"/><path class="ad_cls-10" d="M122.35,87.69a1.45,1.45,0,0,1-.36-.33l-.65-.73a.85.85,0,0,0,.44-.34.72.72,0,0,0,.09-.47.7.7,0,0,0-.56-.6,2.06,2.06,0,0,0-.61,0l-.93.14v.08h.1a.27.27,0,0,1,.23.06.67.67,0,0,1,.1.32l.27,1.83a.75.75,0,0,1,0,.31.25.25,0,0,1-.21.15h-.1v.08l1.09-.16V88h-.1a.26.26,0,0,1-.23-.06.63.63,0,0,1-.1-.32l-.12-.82h.11l.16,0,1.06,1.2.68-.1v-.08A.75.75,0,0,1,122.35,87.69Zm-1.55-1.06h-.11l-.17-1.18a1.59,1.59,0,0,1,.29-.08.52.52,0,0,1,.42.11.62.62,0,0,1,.21.41.6.6,0,0,1-.12.47A.79.79,0,0,1,120.8,86.63Z"/><path class="ad_cls-10" d="M81.58,85.06a.42.42,0,0,1,.23,0l0-.08-.78-.2,0,.08h0a.34.34,0,0,1,.16.12.17.17,0,0,1,0,.13,1.25,1.25,0,0,1-.17.31l-1,1.46-.22-1.8a1,1,0,0,1,0-.34.16.16,0,0,1,.08-.11.46.46,0,0,1,.24,0l0-.08-1-.26,0,.08a.49.49,0,0,1,.17.09.34.34,0,0,1,.09.13,1.35,1.35,0,0,1,0,.25l.33,2.65.07,0,1.48-2.15A.92.92,0,0,1,81.58,85.06Z"/><path class="ad_cls-10" d="M82.11,87.86a.19.19,0,0,1-.06-.11,1,1,0,0,1,0-.29l.46-1.8a.69.69,0,0,1,.13-.31.26.26,0,0,1,.25,0l.09,0,0-.08L82,85l0,.08.09,0a.33.33,0,0,1,.16.09.18.18,0,0,1,.05.11,1,1,0,0,1,0,.29l-.46,1.8a.72.72,0,0,1-.12.31.27.27,0,0,1-.25,0l-.09,0,0,.08,1.08.27,0-.08-.09,0A.33.33,0,0,1,82.11,87.86Z"/><path class="ad_cls-10" d="M84.5,88l-.32-.93a.86.86,0,0,0,.54-.15.72.72,0,0,0,.26-.41.68.68,0,0,0,0-.45.7.7,0,0,0-.26-.32,2,2,0,0,0-.58-.22l-.92-.23,0,.08.09,0a.27.27,0,0,1,.19.14.64.64,0,0,1,0,.34L83,87.69a.72.72,0,0,1-.12.29.25.25,0,0,1-.26.06l-.09,0,0,.08,1.08.27,0-.08-.1,0a.26.26,0,0,1-.19-.14.65.65,0,0,1,0-.34l.21-.81.06,0h.05l.15,0,.52,1.52.67.17,0-.08a.74.74,0,0,1-.31-.2A1.43,1.43,0,0,1,84.5,88Zm-.82-1.14h0l-.06,0,.3-1.16.3,0a.52.52,0,0,1,.35.26.64.64,0,0,1,0,.46.59.59,0,0,1-.3.39A.78.78,0,0,1,83.68,86.86Z"/><path class="ad_cls-10" d="M85.4,86.55l.07,0a.68.68,0,0,1,.16-.28.36.36,0,0,1,.2-.11.78.78,0,0,1,.26,0l.3.08-.54,2.13a.71.71,0,0,1-.12.29.25.25,0,0,1-.25,0l-.09,0,0,.08,1.07.27,0-.08-.09,0a.27.27,0,0,1-.2-.14.63.63,0,0,1,0-.33l.54-2.13.36.09a.51.51,0,0,1,.24.12.41.41,0,0,1,.11.22.83.83,0,0,1,0,.26l.07,0,.14-.66L85.6,85.9Z"/><path class="ad_cls-10" d="M90.46,87.22l0-.08-.78-.2,0,.08h0a.35.35,0,0,1,.16.12.17.17,0,0,1,0,.13,1.27,1.27,0,0,1-.17.31l-1,1.46-.22-1.8a1.08,1.08,0,0,1,0-.34.16.16,0,0,1,.08-.11.44.44,0,0,1,.24,0l0-.08-1-.26,0,.08a.53.53,0,0,1,.17.09.37.37,0,0,1,.09.13,1.51,1.51,0,0,1,0,.25l.33,2.65.07,0L90,87.53a.89.89,0,0,1,.25-.26A.4.4,0,0,1,90.46,87.22Z"/><path class="ad_cls-10" d="M92.13,87.64a.11.11,0,0,1-.09,0,.43.43,0,0,1-.13-.09,1,1,0,0,0-.4-.22.72.72,0,0,0-.58.08.74.74,0,0,0-.34.46.73.73,0,0,0,0,.34.87.87,0,0,0,.14.32,4.12,4.12,0,0,0,.38.44,4.73,4.73,0,0,1,.33.36.64.64,0,0,1,.11.24.47.47,0,0,1,0,.22.45.45,0,0,1-.22.29.51.51,0,0,1-.4,0,.74.74,0,0,1-.34-.19.66.66,0,0,1-.19-.31,1.51,1.51,0,0,1,0-.48l-.07,0-.25,1,.07,0A.28.28,0,0,1,90.2,90a.1.1,0,0,1,.08,0,1,1,0,0,1,.21.12l.22.14.2.07a.8.8,0,0,0,1-.91.81.81,0,0,0-.13-.32,4.08,4.08,0,0,0-.4-.44,2.18,2.18,0,0,1-.44-.55.4.4,0,0,1,0-.25.45.45,0,0,1,.55-.32.65.65,0,0,1,.31.18A.69.69,0,0,1,92,88a1.36,1.36,0,0,1,0,.47l.07,0,.25-1-.07,0A.27.27,0,0,1,92.13,87.64Z"/></g></g></svg>
