<svg xmlns="http://www.w3.org/2000/svg" viewBox="0 0 200 134"><defs><style>.af_cls-1{fill:#121212;}.af_cls-2{fill:#be262c;}.af_cls-3{fill:#1f9a50;}.af_cls-4{fill:#fff;}.af_cls-5{fill:#be2026;}.af_cls-6{fill:#bc6d28;}.af_cls-7{fill:#010101;}</style></defs><title>Asset 2</title><g id="Layer_2" data-name="Layer 2"><g id="Layer_99" data-name="Layer 99"><path class="af_cls-1" d="M17,0A17,17,0,0,0,0,17V117a17,17,0,0,0,17,17H65.77V0Z"/><rect class="af_cls-1" x="134.23" height="134"/><polygon class="af_cls-2" points="100.45 75 101.39 76.49 103.31 76.49 101.81 74.99 100.45 75"/><path class="af_cls-2" d="M100.55,82.81a.32.32,0,0,0-.18.05c-.05,0-.08.07-.08.09s.11.13.32.13l.21,0C100.79,82.89,100.7,82.81,100.55,82.81Z"/><path class="af_cls-2" d="M109.06,87.84c-.18,0-.33.22-.45.33a.78.78,0,0,1,.72.21.86.86,0,0,1-.19-.57A.24.24,0,0,1,109.06,87.84Z"/><path class="af_cls-2" d="M65.77,0V134h68.46V0Zm64.39,66.46a4.71,4.71,0,0,1-.87,1.69c-.07.09-.39-.08-.37-.2a4.4,4.4,0,0,1,.72-1.67C129.73,66.16,130.18,66.32,130.16,66.46Zm-3.61,8c-.41,0-.75-.3-.57-1-1.3.39-3,.8-4.45,1.11,0,.9-1.18,2.09-1.66,1.82-.5-.48.71-.81,1.48-1.78l-1.28.27a5.17,5.17,0,0,0-.58.17c.33,1.14-.45,2.17-1.07,2.08-1.15-.21.29-1,.82-2a4.86,4.86,0,0,0-1.79,1.22c.33,1,.82,1.22.46,2.17-1.1.2-1.17-1.83-.57-2.56v0c.24-.9.47-1.66.8-2.55a3.41,3.41,0,0,1,2.44-2.07,2.79,2.79,0,0,1-1-2.16,2.4,2.4,0,0,1,1.57,2.12,18,18,0,0,0,6-1.05,5.3,5.3,0,0,0,2.2-1.75c.11-.15.45,0,.36.37s-.8,3-2,3.89a4.79,4.79,0,0,1-1.1.48A3.93,3.93,0,0,1,126.54,74.5ZM124.49,74c0,1.83.72,2.76,0,3.23C123.62,77.18,123.76,75.37,124.49,74Zm-.13,5.23c-1.1.2-.81-1.39-.83-3.47C123.78,77.51,125,78.79,124.35,79.27Zm.84-5.4c.53.45.69,1.79.11,2.11C124.29,76,125.08,75.18,125.19,73.87ZM123,81c-.85.18-.57-1.71.07-3.57C123.61,79,123.71,80.9,123,81Zm-1.66,1.77c-1-.37-.06-2.14.75-3.9C121.85,80.7,122.34,82.38,121.31,82.8Zm-4.45-1.37c-.29-.86,1.12-1,2.46-1.85.34-.48.87-1,1.31-1.59.1.85-.89,1.73-1,2.65-.19,1.31-.36,1.37-1,1.54a6.62,6.62,0,0,0,.37-1.59C118,81.48,117,81.8,116.86,81.43Zm-1.76-10.3-.06-.24c-.28-.94-.22-2-.87-2.95a2,2,0,0,0-.14-.24c-.47-.49-1.48-1-1.83-1.31L109,72v.78h-2.55V69.94H109v1.34l5.25-9.15a.71.71,0,0,1-.18-.46.67.67,0,1,1,.67.7.63.63,0,0,1-.19,0l-.17.3.08,0,0,0a23.61,23.61,0,0,0,2.13,2.18l.07.06h0a3.24,3.24,0,0,1,1,1.48,4.43,4.43,0,0,1,.31,1.48c0,.2,0,.4,0,.6s0,.13,0,.19,0,.39,0,.58h0c0,.14,0,.28,0,.42s0,.11,0,.16c0,.4.45,1.3.17,1.53A24.64,24.64,0,0,0,116,73.64a.11.11,0,0,1-.12,0h0a.34.34,0,0,1-.09-.09,1.11,1.11,0,0,1-.11-.2h0C115.47,72.83,115.28,71.81,115.1,71.13Zm.25,10.48c-.59,0-.62-.68-.45-1.64C115.63,80.14,115.82,81.36,115.35,81.61Zm0,8.14c-.26-.9,2.54.09,3.93-.09C118,90.1,115.43,90.31,115.33,89.75Zm2.63.64c-1,.83-4,.54-4,0C113.8,89.18,116,90.69,118,90.39Zm-2.56-1.22c-.83-.87,1-1.49,1.56-2.51C116.75,87.84,116.26,89.74,115.4,89.17Zm-1.67.58c-.83-.87,1.27-1.74,2.09-3.07C115.38,88.22,114.59,90.32,113.73,89.75Zm-2.12.5c-.83-.58,1.76-2.12,3.2-3.62C114.2,87.94,112.33,90.91,111.61,90.25Zm.82-4.41c-.24-1.18,1.09-.32,2.44-1.11C114.5,85.81,112.6,86.61,112.43,85.84Zm2,.53c-1.14.63-3.09,1.79-3.21.76S112.91,86.6,114.41,86.37Zm-1.07,1.44c-1.14.63-3.09,1.79-3.2.76S111.84,88,113.34,87.81Zm-2.69-.73c-.91-.1-.22-1.79.09-2.93C111,85.38,111.59,87.2,110.65,87.08Zm-24.57-6,2.49-2h22.79l2.49,2Zm14.25,5.18a.38.38,0,0,1,.2-.4,1.77,1.77,0,0,1,.78-.12c.3,0,.37.06.37.21s0,.5,0,.69,0,.26-.14.29a2,2,0,0,0-.8.22.23.23,0,0,1-.38-.2A5.46,5.46,0,0,0,100.33,86.26Zm.92-1.45a.41.41,0,0,1-.24-.24,1.33,1.33,0,0,1-.11-.41,3.75,3.75,0,0,1,0-.51,1.35,1.35,0,0,1-.32.05.59.59,0,0,1-.38-.12.38.38,0,0,1-.15-.31,1.31,1.31,0,0,1,.21-.72.58.58,0,0,1,.47-.32.32.32,0,0,1,.28.11.61.61,0,0,1,.11.29,6.07,6.07,0,0,1,0,.62,1.78,1.78,0,0,0,.07.58,1,1,0,0,0,.25.32Zm1.39,3.24c-.88.78-1.32,1.24-2.52,1.12C100.25,88.42,101.36,88.54,102.64,88.05Zm-.87-3.24,0-.76a5,5,0,0,0,.31-.45,2.33,2.33,0,0,0,.21-.54,6.3,6.3,0,0,0,.15-.83h.14a6.68,6.68,0,0,0,.26.83,2.46,2.46,0,0,0,.27.51,4.49,4.49,0,0,0,.35.42l-.08.8a1.47,1.47,0,0,1-.43-.6,7.7,7.7,0,0,1-.42-1.28q-.18.8-.3,1.17a1.91,1.91,0,0,1-.23.52A.93.93,0,0,1,101.77,84.81Zm1.75,3.07c-.32.55-.68,1.4-1.34,1.24C102.17,88.71,102.89,88.41,103.52,87.89Zm-.31-.78a2,2,0,0,0-.79-.25c-.15,0-.2-.05-.21-.29s0-.41,0-.66a.38.38,0,0,1,.5-.31c.28.08.57.17.85.28a.36.36,0,0,1,.24.38,3.76,3.76,0,0,1-.12.66C103.59,87.13,103.4,87.22,103.21,87.1Zm1.61-.67a5.28,5.28,0,0,1,2.07-2.59,8.76,8.76,0,0,0-1.47,2.68,4.05,4.05,0,0,1-1.66,2.56A8.3,8.3,0,0,0,104.82,86.43Zm1.44-.06A4.62,4.62,0,0,1,108,83.84a8.54,8.54,0,0,0-1.13,2.65A4.31,4.31,0,0,1,105,89,9.06,9.06,0,0,0,106.26,86.37Zm-11.71.14a8.76,8.76,0,0,0-1.44-2.67,5.25,5.25,0,0,1,2,2.58,8.35,8.35,0,0,0,1,2.64A4,4,0,0,1,94.55,86.51Zm.37,2.42a4.28,4.28,0,0,1-1.75-2.45,8.56,8.56,0,0,0-1.1-2.64,4.6,4.6,0,0,1,1.66,2.51A9,9,0,0,0,94.92,88.93Zm1.2-2.71a.36.36,0,0,1,.25-.38c.29-.11.57-.2.86-.28a.38.38,0,0,1,.51.31c0,.25,0,.47,0,.66s-.06.26-.21.29a2,2,0,0,0-.8.25.32.32,0,0,1-.47-.18A3.65,3.65,0,0,1,96.11,86.21Zm.32-3.31.27-.67a4.45,4.45,0,0,1,.27.37,2,2,0,0,1,.17.38,2.73,2.73,0,0,1,.12.47,2.84,2.84,0,0,1,0,.51,5.82,5.82,0,0,1-.09.84h-.14a3.47,3.47,0,0,0,0-.58,2.77,2.77,0,0,0-.13-.48,2.07,2.07,0,0,0-.18-.4A4,4,0,0,0,96.43,82.91Zm1.26,6.22c-.65.16-1-.73-1.32-1.32C97,88.37,97.7,88.68,97.69,89.13ZM97.34,88c1.26.52,2.35.39,2.48,1.18C98.64,89.32,98.21,88.83,97.34,88Zm2-4.88a.68.68,0,0,1-.4.22,4.47,4.47,0,0,1,.11.45,2.11,2.11,0,0,1,0,.36,2.47,2.47,0,0,1,0,.27c0,.1,0,.23,0,.39h-.12a2.62,2.62,0,0,0,0-.38,1.67,1.67,0,0,0-.07-.3l-.12-.31a3.31,3.31,0,0,0-.21-.46,5.92,5.92,0,0,0-.33-.51l.21-.63a1.44,1.44,0,0,0,.29.33.49.49,0,0,0,.3.09c.25,0,.37-.14.37-.4h.13c0,.09,0,.16,0,.22s0,.12,0,.2A.76.76,0,0,1,99.33,83.13Zm.27,3.09a6.06,6.06,0,0,0,0,.69.23.23,0,0,1-.38.2,2,2,0,0,0-.8-.21c-.14,0-.13-.05-.15-.29s0-.44,0-.69.08-.22.37-.22a1.8,1.8,0,0,1,.78.12A.37.37,0,0,1,99.6,86.21Zm-9.51-.75a2.89,2.89,0,0,1,.72,1.87,1.26,1.26,0,0,1,.59-.51c.33-.07.53.52.24,1.26-.17.46-.39-.22-.74-.26a.24.24,0,0,1-.12,0c-.07.45-.29.75-.66.66C89.39,88.22,90.51,86.91,90.09,85.46Zm-7.28,1.15C84,87.7,85.11,88.44,84.47,89,83.51,89.62,83.56,87.85,82.81,86.62Zm0,1.56c-.68.4-1.51-1.13-1.63-1.83C82.15,86.61,83.4,87.74,82.79,88.18Zm1.68,1.37c.35.89-2.72.67-3.79.16C82.42,89.69,84.23,88.94,84.47,89.55Zm1.44.65c.34.8-2.5.78-3.88.34C83.86,90.52,85.57,89.41,85.91,90.2ZM84,86.57c1.18,1.3,2.9,2.5,2.17,3.09S84.72,87.93,84,86.57ZM85,86.42c1.08,1.25,3.89,3.25,3.35,3.92S85.75,88,85,86.42Zm0-1.54c1.57.51,2.41-.09,2.51.76C87.66,86.69,85.78,85.88,85,84.87Zm3.54,2c.1,1-2.32.12-3-.68C87.14,86.74,88.48,86.05,88.59,86.9Zm-2.13.55c1.58.67,3.23.12,3.3,1C89.82,89.49,87.15,88.29,86.46,87.46Zm2.45-3.31c.9.8,1.06,3.12.12,2.9C88.3,86.83,89.34,85.69,88.91,84.15ZM85,70.42c0,.07-.05.19-.07.27-.16.58-.33,1.39-.52,1.91v0a2.42,2.42,0,0,1-.1.23l0,.07a.45.45,0,0,1-.1.12l0,0a.11.11,0,0,1-.14,0,24.1,24.1,0,0,0-2.13-2.22c-.28-.22.13-1.08.17-1.47a7.16,7.16,0,0,0,0-1.13c0-.25,0-.5,0-.76a4,4,0,0,1,1.33-2.87l.09-.08a26.87,26.87,0,0,0,2.12-2.08h0l.09,0-.17-.29a.65.65,0,0,1-.19,0,.67.67,0,1,1,.67-.67.66.66,0,0,1-.18.44L91,70.59v-.65H93.6v2.85H91V71.3l-3.1-5.21a13.25,13.25,0,0,1-1.17.76,3.85,3.85,0,0,0-.66.5,2.07,2.07,0,0,0-.17.27A8.76,8.76,0,0,0,85,70.42Zm-.49,10.95c-.48-.39.08-.68.23-1.72C85.43,80.61,85.07,81.67,84.56,81.37ZM78,79.47c.85,1.16,1.55,3.22.53,3.16C77.7,82.45,78.18,81,78,79.47Zm.4-.77c-.1-1-.66-1.5-1-2.3a2.82,2.82,0,0,1,1.45,2.18,5,5,0,0,0,.62,2.36C78.84,80.76,78.52,79.71,78.43,78.7Zm-4.36-5.26a1.07,1.07,0,0,1-.38,1.11c-.57-.4-.54-.77-.38-1.34a5,5,0,0,1-1.16-.5c-1.25-.87-2-3.4-2.05-3.9s.25-.52.37-.37a5.31,5.31,0,0,0,2.21,1.75,18.28,18.28,0,0,0,6.12,1.05,2.25,2.25,0,0,1,1.55-2.07c0,.41-.17,1.7-1,2.11a3.43,3.43,0,0,1,2.43,2.07c.33.9.57,1.68.81,2.59a2.4,2.4,0,0,0,0-.3c.81,1.6.11,3.29-.53,2.82-.6-.63.15-1.11.43-2.14A4.88,4.88,0,0,0,80.45,75c1.12,1.22,2,2,1.12,2.15s-1.26-.87-1.21-2.18a5.16,5.16,0,0,0-.5-.14c-1.31-.27-3.6-.77-5.37-1.26.43,1.21,1.33,2.47.16,2.42-.57-.13-.26-1.13-.28-2.45Zm-1-3.52c-1.12.28-1.49-1.64-2.31-3.32C71.81,68.35,73.47,68.62,73.05,69.92Zm-2.7-5.44c1.44,2.39,2.87,2.52,2.39,3.58C71.74,68.2,70.92,66.34,70.35,64.48Zm2.75,3.31c-.42-.81,1-1.21,1.25-2.27C74.51,67,74.37,68,73.1,67.79Zm1.42-.6c.18,1.6,0,2.74-1.23,2.42C72.8,68.72,74.18,68.41,74.52,67.19Zm-1.44-.93c-.42-1,.94-1.71,1.2-2.41C74.35,64.56,74.23,66.29,73.08,66.26ZM73,64.57c-.19-1.43.54-1.13,1-2.51C74.17,63.43,74.32,64.27,73,64.57Zm3.31,4.84c-.94.08-1.43-.85-1.65-2.3C75.57,68.45,76.38,68,76.32,69.41Zm-1.44-4.68c.43,1.6,1.61,1.87,1.26,3.2C74.71,67.77,74.93,65.91,74.88,64.73Zm1.5,6.12c-.94.36-1.52-1.23-1.62-2.15C75.56,69.49,76.78,69.72,76.39,70.85Zm.28-1.55c-.39-1,.6-1.31,1-2.3C77.68,68,77.88,69.45,76.66,69.3Zm1.26-.61c.17,1.51,0,2.49-1.25,2.27C76.26,70.14,77.63,69.73,77.93,68.68Zm2.19-6.3c.4-.51,1-.92,1-1.45a3.8,3.8,0,0,1,.78-2c.37-.36.79.15.4.39a3,3,0,0,0-.72,1.92c0,.66-.67,1.13-1,1.61S79.63,63,80.12,62.38Zm-.52-.29c-.31.46-.81.19-.53-.54A12.33,12.33,0,0,1,79.6,60a8.54,8.54,0,0,1,1.35-1.38c.37-.36.67,0,.34.3a9,9,0,0,0-1.1,1.3C79.73,61,79.93,61.61,79.6,62.09Zm-1.4-7.88c.18-1.27,1.44-.86,2.23-1.39A1.73,1.73,0,0,1,78.2,54.21Zm1.4.26a2,2,0,0,1-2.39,1.44C77.42,54.48,78.29,55,79.6,54.47Zm2.25-.18c-1.21-.14-.71-2.2.16-3.34C81.65,52.53,82.66,53.63,81.86,54.29Zm-2.8-1.56c.06-1.22,1.28-.87,2.13-1.52A1.84,1.84,0,0,1,79.06,52.73Zm1.9-.09c-.22,1.34.89,2.36,0,3.36C79.56,55.4,80.44,53.67,81,52.64Zm2.68,1.49c-.29,1.43-1.7,2.66-2.43,1.72C81.51,55,82.41,55.15,83.64,54.13Zm2.7-4c-1.08,1.58-1.66,2.81-3.27,2.59C83,51.45,84.82,51.23,86.34,50.13Zm-.71-1.49c-.19,1.59-.84,2.51-1.81,2.36C83.56,50,84.34,49.33,85.63,48.64ZM83.25,49c-.14,1.68.43,2.61-.64,3.5C81.73,51.48,82.58,50.15,83.25,49Zm-.57-2.59c0-.11.56-.11.61,0s0,.61-.25.6S82.63,46.59,82.68,46.43Zm2,6c-.27.59-.67,2.2-2.45,1.83C82.12,53.24,83.88,53,84.67,52.44Zm-3,25.84c-.38,1.15-3.07-1.92-3.83-3C79.11,76.47,81.95,77.44,81.66,78.28ZM78.6,74.63c1,1.11,1.79,1.3,1.38,1.74S78.45,75.38,78.6,74.63Zm3.55,5.17c-.38,1-2.85-1.59-3.4-2.85C80,78.16,82.42,79.08,82.15,79.8Zm-6.86-2.21c-.2.92-3-1.15-3.64-2.13C72.85,76.59,75.48,76.49,75.29,77.59Zm.13-3.38c.69,1.54,1,2.82,0,3C74.67,76.84,75.57,75.88,75.43,74.21ZM76.27,76c.43,1.53.12,3.69-.64,3.3S76.28,77.67,76.27,76Zm.51,1.44c.78,1.51,1.07,3.85.16,3.57C76,80.37,76.67,78.94,76.78,77.45Zm2.33.89c.56,1,1.33,1.41,1.37,2.17a6.58,6.58,0,0,0,.37,1.78c-.65-.17-.82-.23-1-1.54C79.74,79.83,79,79.18,79.1,78.33Zm1.3,1.11c1.22,1.21,2.88,1.08,2.63,1.9C82.7,82.36,80.73,80.47,80.41,79.45Zm2.31.56c-.81-.39.68-1.2.58-2.55C83.88,78.71,83.6,80.28,82.71,80ZM84,78.92c.62,1.17.29,2.76-.56,2.33C82.73,80.86,84,80.42,84,78.92Zm9.49-36.35c-.17.11-.49-.41-.26-.56S93.64,42.43,93.44,42.57Zm0-1.78a3.93,3.93,0,0,1,1.17-1.08c.12-.06.33.15.26.25a3.65,3.65,0,0,1-1.21.92C93.56,40.93,93.38,40.87,93.44,40.79Zm2.37,5.83L94.5,45.52l1.83.9-1.46-1.7,2.29,1.48L96.47,45l1.29,1.1-.5-1.83,1.44,1.7V44.67l.67,1.23.48-1.84.48,1.84.67-1.23,0,1.27,1.44-1.72-.5,1.83L103.2,45l-.69,1.24,2.29-1.48-1.44,1.69,1.81-.89-1.29,1.12,3-1.14L104,46.93h0a10.52,10.52,0,0,0-8.25,0l-2.9-1.43Zm10.75,7.55v-.54h2.36v.54Zm2.36.49v4.53h-2.36V54.66ZM106.41,53a2,2,0,0,1,1.32-1.83A1.82,1.82,0,0,1,109,53Zm-8-4.74c-.18,0-.33-.29-.13-.41a.76.76,0,0,1,.8-.14.14.14,0,0,1,0,.22c-.08.09-.33.08-.35.21-.1.49,0,.73-.11,1.2s-.41.46-.39.1S98.67,48.31,98.39,48.27Zm.46-1a9.29,9.29,0,0,0-1.35,1.11c-.18.22-.17.52-.28.79a.47.47,0,0,1-.56.29c-.18-.12-.15-.66-.35-.37s-.28.64-.53.63-.65-.47-.44-.49c.74-.08.73-.67,1-.71s.33.49.52.38.22-.7.39-.86a10,10,0,0,1,1.41-1.16C98.92,46.73,99.11,47.1,98.85,47.31Zm.21,4.3a.78.78,0,0,0,.63-.51c.15-.5.13-.78.26-.79s.14.3.31.83a.73.73,0,0,0,.62.45,3.46,3.46,0,0,1,3.43,3.67c0,.83-.27,2.3-1.14,2.77H96.72c-.92-.67-1.08-1.45-1.12-2.77A3.47,3.47,0,0,1,99.06,51.61Zm3.12-3.71s-.31.13-.32,0a3.22,3.22,0,0,1,.06-.76c0-.06.18,0,.23.06S102.16,47.64,102.18,47.91Zm-.23.58a.14.14,0,0,1,.23,0c.12.16-.07.74.05.77s.44-.25.43-.5.28-.35.33-.23a.7.7,0,0,1-.12.86c-.3.4-1,0-1.32.35-.51.53-.55-.85-.6-.62-.11.56-.39.53-.58.44a.39.39,0,0,1,.21-.63c.23,0,.28-.38.81-.12.16.08,0,.55.35.46S101.86,48.61,101.95,48.49Zm2-.26a5.84,5.84,0,0,0-.13,1.24c0,.14-.26.13-.28,0a7.72,7.72,0,0,1,0-1.09c0-.14-.21-.37,0-.44s.19-.08.63-.44c.17-.13.21.25.19.4S104,48,103.95,48.22ZM93.51,53l-2.62,0a2,2,0,0,1,1.32-1.82A1.82,1.82,0,0,1,93.51,53ZM91,54.16v-.54h2.36v.54Zm2.36.49v4.53H91V54.64Zm.61,5.3,2.18-1.69,7.51,0L106,59.91l4.78.06-1.53,1.66-18.71,0-1.5-1.66Zm14.71,8h-2.26l-.45-.76h3.11Zm.21.68v.77h-2.5v-.77Zm-4,9.71h-2.38l-1.18-1.79H99.83l.7,1.78H98.86l-.4-1.76h-2l0,1.9h-7.3a4,4,0,0,0,1.67-2.91h2.49c0,.65.24,1,.6,1l2.52,0,0-1.49H94.57V66.89c-.07-2.87,3.49-4.54,4.94-4.52l-8.63,0v-.26H109l0,.26-8.76,0c2.6,0,5.1,2.46,5.12,4.54v2.3h-.34l0-2.27c0-2.27-2.86-4.39-5.15-4.33-2,.06-5.06,1.95-5,4.31v.71l4.71,0,0,.81.74.47,1.47.47,0,1.22,1.06.31v1.22l1.27.54V74l.8.5,0,1.28,1.09.77h-2.58Zm-11-11.15-.46.76h-2.3l-.41-.76Zm-3-.64V62.86h2.64v3.65Zm.15,2.09H93.6v.77H91.05Zm2.61,4.79V75H90.81V73.38Zm.6-8.27,0-2h1.58A5.72,5.72,0,0,0,94.26,65.11ZM109,62.86v3.65h-2.59V62.86Zm-3.3,2.25a5.71,5.71,0,0,0-1.58-2h1.56Zm-.27,5.29v2.32h-.32V70.4Zm1,5.09h2.75a3.73,3.73,0,0,0,1.47,2.79h-5.26A3.38,3.38,0,0,0,106.41,75.49Zm2.72-.52h-2.8V73.38h2.8Zm7.81-22.28c-1.38.5-2.78-1.14-3.18-2.5C115.21,51.48,116.89,51.13,116.94,52.69Zm-2.49-3.89c.68.55,1.91.62,1.69,2.13C114.68,51.25,114.63,49.62,114.45,48.8ZM118,51c.6.84,1.51,2.85.14,3.27C117.36,53.7,118.29,52.37,118,51Zm5,8.16c.4-.63.58-.23.64,0,.14.46,0,1.45.34,1.69s1.27-.06,1.74,0l.27,0c0-.15,0-.3,0-.46.66,1.17,1.16,1.13,1,2.35-.46.05-.76-.54-.91-1.39l0,0a24.48,24.48,0,0,0-2,2.34c.33,1.14.59,2-.21,2.42-.48-.37-.54-.86-.38-1.65-.21.29-.41.58-.6.86.49.8,1,1.21.7,2.19-.65.2-1-.5-1.07-1.63a6.81,6.81,0,0,0-.64,1.23L120.82,70a4.36,4.36,0,0,1-1.16-4.35,18.49,18.49,0,0,1,1.9-4.16c-.94-2.28-2.35-2.89-3.79-4.07-.5-.41,0-.84.35-.57s.93,1,1.1,1,0-.69-.09-1.17.33-.42.64-.31c.5.19.52,1.17.67,1.72s.49-.87.83-1.35c.22-.3.55.2.45.38-.56,1-.13,2.64.08,4C122.19,60.43,122.59,59.79,123,59.2Zm.2-2.88c.5-.12,1.63,1.62.9,2S122.51,56.68,123.15,56.32Zm6.24,9.92c-.87,2-1.26,3.94-2.74,3.68C126.58,68.71,128.53,67.83,129.4,66.24Zm.24-1.82c0,1.45-1.54,3.8-2.38,3.74C126.66,67.08,128.92,66,129.63,64.42Zm-3,3.47c-.79.15-1.09-.5-1.06-2.4C126,66.75,127,66.76,126.63,67.89Zm-1-4.23c.58,1.62,1.68,1.56,1.29,2.64C125.94,66.45,125.67,65.71,125.58,63.66Zm1,6c-.88.24-1.26-.39-1.23-2.55C125.92,68.64,127,68.64,126.55,69.66Zm.33-5.1c-.9,0-1.17-.77-1-2.52C126.45,63.73,127.29,63.61,126.88,64.56Zm-3.25,4.86c-.5-1.31.88-1.2,1.37-2.27A1.85,1.85,0,0,1,123.63,69.42ZM123.47,71c-.2-1.24.82-1.32,1.56-2.24C125.13,69.7,124.41,71.15,123.47,71Zm1.46-6c.47,1.61-.38,3.22-1.08,3C123.25,66.76,124.45,66.41,124.93,65Zm-1.81,4.4c-.79.15-1-.63-.94-2.54C122.73,68.26,123.8,68.31,123.13,69.35Zm0,1.78c-.93.15-1.29-.31-1.26-2.47C122.52,70.11,123.64,70,123.13,71.14Zm-4.19-10.48c0,.53.59.94,1,1.45s-.15.91-.45.45-1-1-1-1.61A3.07,3.07,0,0,0,117.8,59c-.38-.24,0-.75.38-.39A3.86,3.86,0,0,1,118.94,60.66Zm0-2a8.4,8.4,0,0,1,1.3,1.38,12.38,12.38,0,0,1,.51,1.51c.27.73-.21,1-.51.54s-.12-1.08-.57-1.83a8.77,8.77,0,0,0-1.06-1.3C118.34,58.63,118.63,58.28,119,58.64Zm.07-5.9c.56,1,1.06,3.19,0,3.21C118.23,55.33,119.2,53.94,119,52.73Zm1.32,1.76c1.2.45,2.13.29,2.37,1.52A2.13,2.13,0,0,1,120.37,54.49Zm-.87-1.61c.81.35,2.16.07,2.16,1.34A1.92,1.92,0,0,1,119.5,52.88Zm-.75-1.69c.76.55,2,.29,2,1.54A1.79,1.79,0,0,1,118.75,51.19Zm0,4.77c-1.59.37-2.1-.47-2.49-1.88C117.57,55.27,118.29,54.71,118.78,56Zm-3.55-3.39c1.08.7,2.53.26,2.5,1.69C116.13,54.39,115.85,53.6,115.23,52.58Zm2.06-.07c-1.1-.75-.34-2-.69-3.46C117.52,50.35,118.27,51.83,117.29,52.51Zm-1.37,26.35c.12,1.5,1.28,2.17.54,2.44C115.36,81.49,115.55,79.4,115.92,78.86Zm.55-1.41c.27,1,1.57,2.34.77,2.56S116.35,79.24,116.47,77.44Zm4.35-.18c-1,1.5-2.7,3.3-3.09,2.7C117.26,79.17,119.5,78.58,120.82,77.27Zm1.22-2c-.74,1.14-3.22,3.66-3.72,3.17C117.7,77.58,119.9,77.12,122,75.29Zm-1.35,3.22a1.85,1.85,0,0,1,1.06-1.86,4.35,4.35,0,0,0-.63,1.93c-.1,1-.25,2.36-1.12,2.24A4.13,4.13,0,0,0,120.69,78.52Zm6.49-12.12c-.2-1.24,1.37-2.27,2.68-4.11C129.19,63.69,128.51,66.63,127.18,66.4Zm0-1.8c-.5-1.16,1.73-2,2.16-4C129.42,62.45,128.24,64.89,127.21,64.6Zm0-1.74c-.3-1.09,1.19-2,1.63-3.54C129.08,61.09,128.13,63.33,127.25,62.86Zm0-1.53c-.77-.17-.45-1.57.08-3.29C127.69,59.53,128,61.19,127.22,61.33Zm-.76-6.54c.13-.33.58-.14.39.12a1.51,1.51,0,0,0-.07,1.23,2.6,2.6,0,0,1,.06,1.41c-.07.38-.52.42-.39-.12a1.78,1.78,0,0,0,0-1.12A2.5,2.5,0,0,1,126.46,54.79Zm-1.13,1.39a7.37,7.37,0,0,1-.09-2.77c.12-.7.61-.24.42.3a5.68,5.68,0,0,0,.2,2.47c.47,1.79-.39,2.66-.36,3.5,0,.65-.47.8-.45-.13S125.75,57.67,125.33,56.18ZM124.08,52c-.2-.41.28-.71.43-.19a5.58,5.58,0,0,1,0,2.37,3.92,3.92,0,0,0,0,1.75c.14.84-.35.79-.43.19a5.77,5.77,0,0,1,.07-2.2A3.33,3.33,0,0,0,124.08,52ZM123,56c-.89-.67.49-4.57.6-6.16C123.76,51.1,124.18,56.49,123,56Zm-.34-7.21c.15,1.31.56,5.44-.54,5.49C121.42,53.79,122.56,50.2,122.67,48.81ZM121.26,53c-1-.88.18-3.4.23-5.36C121.65,49.43,122.44,52.66,121.26,53Zm-.93-7c.29,2.34,1.12,4.42.2,5.05C119.61,50.36,120.11,48.08,120.33,46ZM120,51.2c-1.69.07-2.6-1.7-2.92-2.91C118.35,49.81,120.15,50.06,120,51.2Zm-.42-1.54c-1.46,0-1.08-1.79-1.28-2.71C118.92,47.66,120.22,48.63,119.61,49.67Zm-1.33-5c-1.14,1.11-1.48,3.24-3.28,3.56a2.76,2.76,0,0,1-1.59-.4c-.1-.07.06-.53.37-.31a1.65,1.65,0,0,0,1.82,0,8.35,8.35,0,0,0,2.24-3.82C118.18,42.47,119,44,118.28,44.7ZM114.68,41a4.39,4.39,0,0,1,.71,1.69c.14-.27.27-.53.4-.74s.7,0,.38.41a8.86,8.86,0,0,0-.63,1c.09.44.17.91.24,1.39a24.29,24.29,0,0,0,1.15-2.19c.13-.33.66.57.14,1.06a10.24,10.24,0,0,0-1.2,1.73c.07.57.13,1.14.19,1.66,0,0-.35.29-.35.25a12.31,12.31,0,0,0-.11-1.43A8.46,8.46,0,0,0,115,47c-.12.35-.47.18-.32-.26.06-.16.42-.8.83-1.54-.07-.43-.16-.88-.26-1.31a16.11,16.11,0,0,1-1.39,2.4c-.32.42-1,.89-1.32.78-.63-.2-.22-2-.7-1.62s-2.25.85-2.33-.41c0-.69.36-.31.43-.05.12.44.32.43.57.45a1.82,1.82,0,0,0,1.2-.39.46.46,0,0,1,.79.3c0,.36-.22,1.57.61,1a8.77,8.77,0,0,0,2-3.08,3.63,3.63,0,0,0-.88-1.66C114,41.47,114.39,40.64,114.68,41Zm-1.08,3.46c-.23,0-1.07.08-1.29.06s-.14-.34,0-.36c.31-.06.83,0,1.22,0S113.75,44.43,113.6,44.43ZM113,43.22a.34.34,0,0,1-.39-.3c0-.36.36-.33.35-.26C112.94,43,113.55,42.86,113,43.22Zm.09-3c-.17.38-1.86,3.63-2.09,4s-.46.24-.28-.13,1.61-3.93,1.69-4C112.7,39.76,113.38,39.73,113.13,40.27Zm-1.78-.56c.24.74-.09.69-.35,1.2s-.47,1.58-.87,2.79a2.12,2.12,0,0,1-2.52,1.18c-.78-.14-.54-.51-.38-.49,1.25.14,2.06-.2,2.47-1,.22-.46.9-3,1.09-3.73C110.86,39.34,111.18,39.18,111.36,39.71Zm-1.78-.3a2.39,2.39,0,0,1,1.1-.18c.11,0,.14.17.06.23a2.29,2.29,0,0,1-1.08.3C109.57,39.76,109.5,39.46,109.58,39.41Zm-.26,1c.09.24.29.27.43,0s.36-.07.36.19-.48.36-.71.37a.39.39,0,0,1-.41-.36C108.95,40.35,109.21,40.17,109.32,40.4ZM106.54,38c.53.63,1.06,2.13,1.43,2.25s.22-1.11.39-1.65.59-.27.5.24c0,.17-.63,2.11-.58,2.19a15.38,15.38,0,0,1,1.08,2.56c.11.38-.35.13-.41,0a18.32,18.32,0,0,1-.81-2c-.24,1.18-.29,1.53-.55,2.54-.08.32-.55.26-.44-.3s.78-2.76.74-2.82a5.68,5.68,0,0,0-1.67-2.09C105.67,38.59,106.27,37.71,106.54,38Zm-2.12-.46c.28,0,.35.51,0,.59S104.11,37.6,104.41,37.56ZM104,39.09c.09.14.1.37.25.22s.2-.24.35-.07.21-.25.27-.53.31.08.31.52-.37.39-.79.41-.66.06-.66-.4C103.71,39.15,103.92,39,104,39.09Zm-1,4.24c.12.21,1-.19,1.11-.5a9.59,9.59,0,0,0,.13-2.18c0-.41.42-.49.4-.11a24.68,24.68,0,0,0-.05,2.47.56.56,0,0,0,1.1-.18c.08-.62.39-1.22,0-1.9-.25-.43.37-.37.71.21.24.4-.2,1.05-.18,1.56a1.13,1.13,0,0,1-1,1.23c-.39,0-.65-.48-1-.48s-.72.56-1,.54c-1.15-.08-.54-1.75-.89-1.77s-.85,1.64-1.33,1.58-1-1.36-.76-1.91.51-.63.46-.31c-.1.61,0,1.46.3,1.48s1.19-1.33,1.56-2c.23-.39.62-.46.46-.05A4.1,4.1,0,0,0,103,43.33Zm-.71-5c.19-.17.28-.44.48-.61s.28,0,.25.28-.3.38-.48.53S102.21,38.4,102.29,38.32ZM100,36.57c.15-.09.41,0,.36.12a3.42,3.42,0,0,1-1,1.1c-.11.09-.26,0-.23-.12A2.73,2.73,0,0,1,100,36.57Zm-2.25,1c.1-.21.7-.44.85-.58s.21.12.15.25a1.5,1.5,0,0,1-.84.57A.16.16,0,0,1,97.79,37.6Zm.89,1.22a1,1,0,0,1-.65,0c-.08,0-.13-.21,0-.26s.33,0,.52-.26C98.8,37.89,98.89,38.7,98.68,38.83Zm-3.15,4a3.12,3.12,0,0,0,2.12-1.42c.24-.65-.64-2-.91-2.62s.38-.79.47-.38a10.78,10.78,0,0,0,1.37,3.17,2.41,2.41,0,0,1,.92-.9c.28-.11-.77-.15-1.11-.24s-.19-.42-.09-.61,1.13-1.29,1.53-1.27.76-.09.79-.33-.52,0-.53-.42c0-.23.63-.39.89-.12a.77.77,0,0,1-.63,1.27c-.62,0-1.66.88-1.5,1.06a5.68,5.68,0,0,0,2.73.22c.58-.08.46.44-.14.51a7.9,7.9,0,0,0-1.58.17c-.49.14-.77.69-1,1.07L99.49,43c.24.4,0,.64-.54.27-.4-.28-.81-1.29-1-1.33-.36-.07-1.22,1.64-3,1.15a.29.29,0,0,1-.12-.08c-.41.49-.84.94-1.18,1.29s-.41-.35-.13-.61a12.75,12.75,0,0,0,1.12-1.08,7.82,7.82,0,0,1-.12-1.6c0-.28.29-.36.3,0A4.45,4.45,0,0,0,95,42.3a9.12,9.12,0,0,0,.78-1,.6.6,0,0,0-.15-.82c-.43-.34.12-.81.57-.48s-.12,1.6-1,2.71A.53.53,0,0,0,95.53,42.83Zm-4.18-.91-.91.56c-.25.15-.64-.21-.3-.39a9.59,9.59,0,0,0,1-.58A7.09,7.09,0,0,1,90,38.92c0-.45.68-.49.6.14a5.66,5.66,0,0,0,.9,2.17,2.85,2.85,0,0,0,1.14-1.45c.06-.26-1.13,0-1.23-.37s-.09-1.07.32-1.16c.79-.15.7.81,1.06.81a1.27,1.27,0,0,0,.86-.79c.22-.91.37-.25.66.14s.46.05.7-.37c.05-.1.18-.07.26,0s.14.25.22.31.25,0,.3-.09,0-.31.05-.52c.15-.45.37-.37.38-.09a2.27,2.27,0,0,1-.11,1.12c-.16.37-.84-.2-1,.14-.33.6-.84-.16-1.18,0A1.93,1.93,0,0,0,93.09,40a3,3,0,0,1-1.33,1.63A4.47,4.47,0,0,1,92.24,43a2.35,2.35,0,0,1-1,2,2.18,2.18,0,0,1-2.23.15,1.39,1.39,0,0,1-.35-1.39c.08-.11.44,1.21,1.22,1.2a1.93,1.93,0,0,0,2-1.53A3.32,3.32,0,0,0,91.35,41.93ZM88.8,39a.39.39,0,0,1,.55.21c.16.36-.44,1-.73,1.33-.05.06-.13-.14-.11-.22A4.41,4.41,0,0,1,89,39.5C89.06,39.36,88.45,39.46,88.8,39Zm-1.32,1.33c.15.42,1.8,2.59,2.14,3.33.24.5,0,.7-.3.35-.84-1.07-1.52-2.39-2.39-3.51C86.66,40.2,87.22,39.7,87.48,40.37ZM86,40.63c.09,0,.17.11.16.21a1.06,1.06,0,0,1-.39.61c-.08,0-.19-.09-.18-.19A1.16,1.16,0,0,1,86,40.63Zm-1.5,3.2c.07-.1,0-.48.12-.5s.41.24.62,0-.31-.49-.48-.57.13-.31.24-.28a1.21,1.21,0,0,1,.58.57c.28.78-.86.49-.77.78.15.49-.54.37-.8.22s.09-.3.17-.35S84.46,43.89,84.5,43.83Zm-.26-.91c-.2.34-.43-.48-.43-.48S84.4,42.68,84.24,42.92ZM83.78,48c.2.18.56.16.48-.36a7.5,7.5,0,0,1-.16-1.83.3.3,0,0,1,.54-.09c.22.42.94,1.3,1.22,1.3s.64-.73.6-1.07-.82-.91-1-1.26a.28.28,0,0,1,.3-.43c.39.24.8,1.28,1.24,1.52.19.11.71-.28.66-.48A3.87,3.87,0,0,0,86.5,44c-.3-.23-.09-.92.39-.52S88,44.5,88.11,45s0,1.32-.63,1.23c-1-.11-.74,1.53-1.63,1.41-.38-.08-1.14-1.17-1.31-1s.27,1.6,0,2-.82.09-1,0S83.64,47.9,83.78,48Zm-1.4-3.9c.12-.21.89.22,1,.42s-.45.86-.59,1-.45-.18-.33-.31a2.21,2.21,0,0,1,.51-.44C83.1,44.67,82.15,44.51,82.38,44.13Zm-.79,2.81c.12,1.83-.45,2.83-1.42,2.68C79.91,48.61,80.51,47.93,81.59,46.94Zm1.16,1.35c-.39,1.81-1.54,3.36-3,2.86C79.62,49.95,81.56,49.94,82.76,48.3Zm-3.2-2.48c.24,1.81.65,4.37-.09,5.19C78.6,50.56,79.23,47.21,79.56,45.81Zm-1.13,1.76c.25,1.47,1,4.78.24,5.27C77.54,52.55,78.22,49,78.43,47.58Zm-1.27,1.1c.33,1.36,1.37,5.33.51,5.69C76.55,54.07,77.23,50.25,77.16,48.68Zm-.92,1.18c.39,2.83,1.47,5.42.59,6.2C75.76,56.15,76.24,52.89,76.24,49.86Zm-.61,8.41a1.93,1.93,0,0,1,1.36-2C77.29,57.59,76.45,58.49,75.64,58.28Zm-.21-6.44c.15-.52.64-.22.43.19a3.26,3.26,0,0,0-.08,1.92,5.67,5.67,0,0,1,.07,2.2c-.08.59-.58.65-.43-.19a3.86,3.86,0,0,0,0-1.75A5.49,5.49,0,0,1,75.43,51.84Zm-1.37,4.39a5.6,5.6,0,0,0,.2-2.47c-.19-.55.31-1,.43-.3a7.25,7.25,0,0,1-.09,2.77c-.42,1.49.27,2.38.29,3.36s-.5.78-.46.14C74.46,58.88,73.58,58,74.06,56.23Zm0,4.31a2.35,2.35,0,0,0-.09.29,1.59,1.59,0,0,1,.27,0c.47,0,1.4.29,1.75,0s.19-1.23.34-1.69c.06-.26.24-.66.64,0s.81,1.29,1.22,2c.21-1.35.61-2.94.07-3.92-.1-.19.22-.69.44-.38.33.48.67,1.86.81,1.35s.17-1.53.66-1.72c.31-.11.75-.18.63.31s-.39,1.12-.09,1.17.67-.64,1.08-1,.84.16.35.57c-1.41,1.17-2.78,1.77-3.7,4a18.16,18.16,0,0,1,1.85,4,5.31,5.31,0,0,1-1.13,4.54,5.12,5.12,0,0,0-.89-2.82c-.15-.29-.4-.71-.71-1.19-.08.88-.3,1.56-1.15,1.61a2.72,2.72,0,0,1,.8-2.14l-.55-.8a1.34,1.34,0,0,1-.45,1.41c-.85-.4-.58-1.41-.27-2.4a21.86,21.86,0,0,0-2-2.39l-.05-.07A1.78,1.78,0,0,1,73,62.85c-.16-1,.2-1.27.68-1.86a.15.15,0,0,1,.09-.11C73.86,60.78,73.94,60.67,74,60.54ZM73,55c-.19-.26.26-.46.4-.12a2.48,2.48,0,0,1,0,1.52,1.74,1.74,0,0,0,0,1.12c.13.54-.33.5-.4.12a2.57,2.57,0,0,1,.06-1.41A1.49,1.49,0,0,0,73,55Zm-.42,3c.23,1.26.89,2.55.14,3.36C71.79,60.77,72.32,59.19,72.63,58Zm.11,4.88c-1.33.13-1.65-2.56-1.78-3.73C71.39,60.75,72.92,61.48,72.74,62.87Zm0,1.74c-1.39.12-2.22-2.87-2.26-4C70.93,62.16,72.92,63,72.75,64.62Zm0,1.73c-1.53.26-1.42-2.16-2.63-3.91C71.15,63.74,73,65.38,72.74,66.34Zm-2.53-.16a4.55,4.55,0,0,1,.41,1c.19.39.09.5.4.82s0,.6-.29.3-.19-.57-.48-1.06c-.16-.29-.09-.51-.34-.81S70,65.89,70.21,66.19Zm3.11,8.49c-1.1.66-2.84-2-3.31-3C71,72.87,73.52,74,73.32,74.68Zm.93,1.53c-.61.67-2.52-1.16-3.19-2.08C72.09,75,74.52,75.13,74.25,76.22Zm.61,2.37c-.43.83-2.7-1.22-3.25-2.3C73,77.5,75.22,77.77,74.86,78.58Zm-3-1.05c1.29,1.09,3.54,1.46,3.31,2.22C74.83,80.76,72.27,78.42,71.86,77.53Zm1,1.64c1.62,1.27,4.09,1.15,3.89,2.16C76.32,82.34,73.63,80.29,72.81,79.17Zm5.45,3.75c-.43,1.41-3.24-.84-4.07-1.94C76,82.35,78.5,81.92,78.27,82.92Zm-1.5.58c-.31.52-1.06-.44-2.29-1.15C75.58,82.65,76.9,83,76.77,83.51ZM75,83.9c-.23-.29,0-.23.21-.19a8.15,8.15,0,0,0,3.26,0c2-.48,3.64-1.76,5.64-2.07a5.73,5.73,0,0,1,4.18.87,13.91,13.91,0,0,1,1.3,1.25c.38.38.06.37-.47.2a4.25,4.25,0,0,0-.9-.18c.42.9.56,2-.15,1.86-.53-.1-.31-.8-.28-1.86a5,5,0,0,0-.71,0c.28.35.31.78,0,1s-.8-.21-1-.76a3.84,3.84,0,0,0-.62.26c-1.92,1.08-2.58,1.82-5.33,2.19S76.85,86.2,75,83.9Zm2.46,2.71c1.57.51,3.45.26,3.56,1.11C81.09,88.79,78.17,87.62,77.44,86.61ZM83,88.92c.07,1-3.13.43-4-.45C81.76,89,82.89,88.1,83,88.92Zm31.24,4c.52.93-.75,1.95-4,2.37-.32,0-.57.2-.26.82a3.1,3.1,0,0,0,.36.8c.19.26-.07.47-.41.21a5,5,0,0,0-4.13,0,2.14,2.14,0,0,1-1.89,0c-.37-.4-.41-1.43-1.09-1.34a39.56,39.56,0,0,1-5.75,0,1.16,1.16,0,0,0-.79,1.16c0,.61-.81.65-1.25.53-1.89-.61-3.84-1.28-5-.24-.28.27-.68-.13-.32-.43s.22-.43.39-.75c.08-.16.08-.77-.33-.75a10.93,10.93,0,0,1-2.63-.65C85.53,94,85.39,93.45,85.62,93c-1.54-.14-4.58-1.72-5-2.64,2.46,1.3,5.09,1.25,5.73,1.93l1.29-1a5.14,5.14,0,0,1-3.12-.05c1.73-.24,3-1.31,3.47-.57a.36.36,0,0,1,0,.31c.42-.35.84-.72,1.26-1.09a2.83,2.83,0,0,1-1.1-.81,9.13,9.13,0,0,0,1.86.11l.38-.35a1.17,1.17,0,0,1,1.3-.44,24.47,24.47,0,0,0,8.08,1.91,21.84,21.84,0,0,0,8.33-1.93,2.49,2.49,0,0,1,.29-.09.25.25,0,0,1-.09-.13c-.29-.74-.09-1.32.24-1.26a1.27,1.27,0,0,1,.6.55,13.68,13.68,0,0,1,.45-2c.26,1.22.92,3.18,0,3.16a.43.43,0,0,1-.24-.09l.13.12c.2.21.41.42.62.62a7.41,7.41,0,0,0,1.73-.1c-.34.22-.75.46-1.15.67q.51.48,1,.94c.45-.65,2.43.28,4,.41a9.3,9.3,0,0,1-3.25.25l1.2,1c.23-1,4.32-.93,5.66-2.06C118.75,91.47,115.48,93.08,114.21,92.92ZM116.89,89c-.18-.88,2.46.07,4-.58C120.41,89.15,117.09,90,116.89,89Zm2-.92c-.37-1.14,2-1,3.58-1.44C121.41,87.4,119.44,88.94,118.91,88Zm6-4.06c-1.86,2.3-2.39,2.93-5.1,2.61-.41-.05-.77-.12-1.09-.19-.15,1.23-1,2.22-1.7,1.75-.68-.71.66-.91,1.35-1.84a14.22,14.22,0,0,1-3.86-1.91,3.77,3.77,0,0,0-.59-.26c-.19.48-.51.84-1.1.69a.92.92,0,0,1,0-1,5,5,0,0,0-.7,0c.12,1.11.35,2.06-.38,1.93s-.35-1,.06-1.93a4.22,4.22,0,0,0-1,.19c-.53.17-.85.18-.47-.2a13.7,13.7,0,0,1,1.29-1.25,5.69,5.69,0,0,1,4.16-.87c2,.31,3.65,1.59,5.62,2.07a8.08,8.08,0,0,0,3.25,0C124.89,83.76,125.14,83.7,124.91,84ZM123,83.76c-.24-.33,1.19-1.05,2.25-1.58C124.93,82.74,123.61,83.82,123,83.76Zm-1.41-.69c-.37-1.14,3.06-.94,4.06-2.27C125.25,82.33,122.17,84,121.64,83.07Zm1.6-1.71c-.41-.94,2.4-1.09,3.84-2.21C125.88,80.87,123.4,81.92,123.24,81.35Zm1.6-1.35c-.92-1,2.3-1.31,3.26-2.7C128.15,78.17,125.1,80.31,124.84,80Zm.23-1.3c-.38-.91,1.92-1.23,3.29-2.43C127.47,77.82,125.41,79.23,125.08,78.7Zm-.45-1c-.6-1,1.44-.73,3.75-2.45C127.7,76.55,125,78.23,124.62,77.75Zm1.27-1.4c-.85-1.11,2.07-1.51,3-2.34C128.08,74.81,126.92,76.67,125.9,76.35Zm.79-1.64c-.46-1,2.52-2.1,3.12-3.14C129.73,73,127.53,74.95,126.68,74.71Z"/><polygon class="af_cls-2" points="99.55 73.47 98.81 73.47 99.32 74.99 100.47 74.99 99.55 73.47"/><polygon class="af_cls-2" points="98.46 76.49 99.81 76.51 99.32 74.99 98.17 74.99 98.46 76.49"/><path class="af_cls-2" d="M104.55,96c-.68.56,0,1.15.6.88a6.24,6.24,0,0,1,4.52-.35,1.67,1.67,0,0,1-.29-1C107.74,95.63,105.51,95.19,104.55,96Z"/><path class="af_cls-2" d="M91.91,38.66c-.08,0-.12.45,0,.52s.49.18.51.11A1,1,0,0,0,91.91,38.66Z"/><polygon class="af_cls-2" points="96.42 73.48 96.42 74.99 98.17 74.99 97.82 73.48 96.42 73.48"/><path class="af_cls-3" d="M183,0H134.23V134H183a17,17,0,0,0,17-17V17A17,17,0,0,0,183,0Z"/><path class="af_cls-4" d="M86.06,67.34a3.85,3.85,0,0,1,.66-.5,3.84,3.84,0,0,0-.66.5Z"/><path class="af_cls-4" d="M84.35,72.86l0,.07Z"/><path class="af_cls-4" d="M85.63,62.46h0Z"/><path class="af_cls-4" d="M84.22,73.05l0,0Z"/><path class="af_cls-4" d="M84.46,72.6v0Z"/><path class="af_cls-4" d="M84.4,69.82a2.33,2.33,0,0,0-.87-.64c-.29-.11-.6-.13-.87-.25a1,1,0,0,1-.37-.27,1.48,1.48,0,0,1-.2-.41,7.16,7.16,0,0,1,0,1.13c0,.39-.45,1.25-.17,1.47A24.1,24.1,0,0,1,84,73.07a.11.11,0,0,0,.14,0l0,0a.45.45,0,0,0,.1-.12l0-.07a2.42,2.42,0,0,0,.1-.23v0c.19-.52.36-1.33.52-1.91A3.44,3.44,0,0,0,84.4,69.82Z"/><path class="af_cls-5" d="M85.34,66.77a2,2,0,0,0-.8-.59,1.76,1.76,0,0,1-.79-.5,1.19,1.19,0,0,1-.24-.48,1.93,1.93,0,0,1,0-.65l-.09.08a4,4,0,0,0-1.33,2.87c0,.26,0,.51,0,.76a1.48,1.48,0,0,0,.2.41,1,1,0,0,0,.37.27c.27.12.58.14.87.25a2.33,2.33,0,0,1,.87.64,3.44,3.44,0,0,1,.58.87c0-.08.05-.2.07-.27a8.76,8.76,0,0,1,.84-2.8A3.3,3.3,0,0,0,85.34,66.77Z"/><path class="af_cls-4" d="M83.52,65.19a1.19,1.19,0,0,0,.24.48,1.76,1.76,0,0,0,.79.5,2,2,0,0,1,.8.59,3.3,3.3,0,0,1,.54.85,2.07,2.07,0,0,1,.17-.27h0a3.84,3.84,0,0,1,.66-.5,13.25,13.25,0,0,0,1.17-.76l-2.17-3.65-.09,0h0a26.87,26.87,0,0,1-2.12,2.08A1.93,1.93,0,0,0,83.52,65.19Z"/><path class="af_cls-4" d="M87.89,66.08,91,71.3v-.71L85.86,62a.66.66,0,0,1-.31.19l.17.29Z"/><path class="af_cls-4" d="M85.86,62a.66.66,0,0,0,.18-.44.67.67,0,1,0-.67.67.65.65,0,0,0,.19,0A.66.66,0,0,0,85.86,62Z"/><polygon class="af_cls-4" points="116.66 64.9 116.66 64.9 116.66 64.9 116.66 64.9"/><path class="af_cls-4" d="M114.44,62.65l0,0Z"/><path class="af_cls-4" d="M118,69.24Z"/><path class="af_cls-4" d="M118,68.47c0-.2,0-.4,0-.6a4.43,4.43,0,0,0-.31-1.48,4.43,4.43,0,0,1,.31,1.48C118,68.07,118,68.27,118,68.47Z"/><path class="af_cls-4" d="M115.69,73.35h0Z"/><path class="af_cls-4" d="M115.89,73.65a.34.34,0,0,1-.09-.09A.34.34,0,0,0,115.89,73.65Z"/><path class="af_cls-4" d="M118.16,71.35A24.66,24.66,0,0,0,116,73.64a.11.11,0,0,1-.12,0,.11.11,0,0,0,.12,0,24.64,24.64,0,0,1,2.12-2.29c.28-.23-.13-1.12-.17-1.53,0-.05,0-.11,0-.16s0,.11,0,.16C118,70.22,118.43,71.12,118.16,71.35Z"/><path class="af_cls-4" d="M115.69,73.35a1.11,1.11,0,0,0,.11.2.34.34,0,0,0,.09.09h0a.11.11,0,0,0,.12,0,24.66,24.66,0,0,1,2.13-2.29c.28-.23-.13-1.13-.18-1.53,0-.05,0-.11,0-.16s0-.28,0-.42h0c0-.19,0-.39,0-.58a1.43,1.43,0,0,1-.21.46.9.9,0,0,1-.36.26c-.26.11-.56.13-.85.24a2.42,2.42,0,0,0-.87.63,3.21,3.21,0,0,0-.58.89c.18.68.38,1.7.59,2.21Z"/><path class="af_cls-5" d="M115.68,70.24a2.42,2.42,0,0,1,.87-.63c.29-.11.59-.13.85-.24a.9.9,0,0,0,.36-.26,1.43,1.43,0,0,0,.21-.46c0-.06,0-.13,0-.19s0-.4,0-.6a4.43,4.43,0,0,0-.31-1.48,3.24,3.24,0,0,0-1-1.48h0l-.07-.06a2,2,0,0,1,0,.67,1.15,1.15,0,0,1-.24.48,1.9,1.9,0,0,1-.81.51,2.16,2.16,0,0,0-.82.57,3.06,3.06,0,0,0-.55.86c.65.91.59,2,.87,2.95l.06.24A3.21,3.21,0,0,1,115.68,70.24Z"/><path class="af_cls-4" d="M114.71,67.08a2.16,2.16,0,0,1,.82-.57,1.9,1.9,0,0,0,.81-.51,1.15,1.15,0,0,0,.24-.48,2,2,0,0,0,0-.67,23.61,23.61,0,0,1-2.13-2.18l0,0-.08,0-2.17,3.78c.35.33,1.36.81,1.83,1.31a2,2,0,0,1,.14.24A3.06,3.06,0,0,1,114.71,67.08Z"/><path class="af_cls-4" d="M114.35,62.63l.17-.3a.66.66,0,0,1-.31-.2L109,71.29V72l3.22-5.62Z"/><path class="af_cls-4" d="M114.52,62.33a.63.63,0,0,0,.19,0,.7.7,0,1,0-.67-.7.71.71,0,0,0,.18.46A.66.66,0,0,0,114.52,62.33Z"/><rect class="af_cls-4" x="106.56" y="54.66" width="2.36" height="4.53"/><rect class="af_cls-4" x="106.56" y="53.63" width="2.36" height="0.54"/><path class="af_cls-4" d="M107.73,51.19A2,2,0,0,0,106.41,53L109,53A1.82,1.82,0,0,0,107.73,51.19Z"/><polygon class="af_cls-4" points="90.56 61.6 109.27 61.63 110.81 59.97 106.02 59.91 103.69 58.29 96.18 58.26 94 59.94 89.06 59.94 90.56 61.6"/><rect class="af_cls-4" x="91.03" y="54.64" width="2.36" height="4.53"/><rect class="af_cls-4" x="91.03" y="53.62" width="2.36" height="0.54"/><path class="af_cls-4" d="M90.88,53l2.62,0a1.82,1.82,0,0,0-1.3-1.84A2,2,0,0,0,90.88,53Z"/><path class="af_cls-4" d="M96.66,56.41s0,0,.06,0a.3.3,0,0,0,0-.18,5.47,5.47,0,0,1,.1-1.83,2.69,2.69,0,0,1,1-1.52.22.22,0,0,0,.1-.13.07.07,0,0,0,0-.07.38.38,0,0,0-.34,0,2.24,2.24,0,0,0-1,1.35,4,4,0,0,0-.21,1.93,1.25,1.25,0,0,0,.14.41A.25.25,0,0,0,96.66,56.41Z"/><path class="af_cls-4" d="M96.72,58h6.46c.88-.46,1.15-1.94,1.14-2.77a3.46,3.46,0,0,0-3.43-3.67.73.73,0,0,1-.62-.45c-.17-.53-.12-.82-.31-.83s-.12.29-.26.79a.78.78,0,0,1-.63.51,3.47,3.47,0,0,0-3.46,3.66C95.64,56.59,95.79,57.38,96.72,58Zm5.16-5.49a.5.5,0,0,1,.49-.06,2.38,2.38,0,0,1,1.12,1.44,4.06,4.06,0,0,1,.21,2h0a1.45,1.45,0,0,1-.16.46.36.36,0,0,1-.23.19.23.23,0,0,1-.23-.1.44.44,0,0,1-.06-.28,5.37,5.37,0,0,0-.09-1.78A2.54,2.54,0,0,0,102,53a.37.37,0,0,1-.16-.24A.22.22,0,0,1,101.88,52.55Zm-.84.64a.5.5,0,0,1,.49-.05,2,2,0,0,1,1,1.37,4.52,4.52,0,0,1,.09,1.94c-.09.42-.31.64-.52.68a.31.31,0,0,1-.29-.11.42.42,0,0,1,0-.35,4.36,4.36,0,0,0,.08-1.66,2,2,0,0,0-.73-1.36.38.38,0,0,1-.17-.24A.25.25,0,0,1,101,53.19Zm-2.14,0a.25.25,0,0,1,.09.22.37.37,0,0,1-.17.24A2,2,0,0,0,98.1,55a4.36,4.36,0,0,0,.08,1.66.41.41,0,0,1-.05.35.29.29,0,0,1-.28.11c-.22,0-.44-.26-.52-.68a4.47,4.47,0,0,1,.09-1.93,2,2,0,0,1,1-1.38A.48.48,0,0,1,98.9,53.16Zm-2.66,2.75h0a4.08,4.08,0,0,1,.22-2,2.37,2.37,0,0,1,1.12-1.44.48.48,0,0,1,.48.06.23.23,0,0,1,.09.21A.37.37,0,0,1,98,53a2.54,2.54,0,0,0-1,1.44,5.34,5.34,0,0,0-.1,1.78.45.45,0,0,1-.06.28.21.21,0,0,1-.21.1.36.36,0,0,1-.23-.19A1.42,1.42,0,0,1,96.24,55.91Z"/><path class="af_cls-4" d="M101.2,53.52A2.13,2.13,0,0,1,102,55a4.45,4.45,0,0,1-.08,1.72.29.29,0,0,0,0,.24.14.14,0,0,0,.14.05c.13,0,.31-.18.39-.57a4.37,4.37,0,0,0-.08-1.87,1.83,1.83,0,0,0-.91-1.26.38.38,0,0,0-.34,0,.07.07,0,0,0,0,.07A.22.22,0,0,0,101.2,53.52Z"/><path class="af_cls-4" d="M102,52.87h0a2.7,2.7,0,0,1,1,1.52,5.48,5.48,0,0,1,.1,1.83.31.31,0,0,0,0,.19s0,0,.07,0,.07,0,.12-.12a1.28,1.28,0,0,0,.14-.41,3.94,3.94,0,0,0-.2-1.93,2.25,2.25,0,0,0-1-1.35.35.35,0,0,0-.33,0s0,0,0,.07A.23.23,0,0,0,102,52.87Z"/><path class="af_cls-4" d="M97.47,56.38c.08.38.27.54.4.56A.12.12,0,0,0,98,56.9a.29.29,0,0,0,0-.24,4.5,4.5,0,0,1-.09-1.71,2.13,2.13,0,0,1,.79-1.46c.08-.06.11-.11.11-.13s0,0,0-.07a.35.35,0,0,0-.33,0,1.84,1.84,0,0,0-.91,1.26A4.38,4.38,0,0,0,97.47,56.38Z"/><path class="af_cls-6" d="M96.63,56.56a.21.21,0,0,0,.21-.1.45.45,0,0,0,.06-.28A5.34,5.34,0,0,1,97,54.4,2.54,2.54,0,0,1,98,53a.37.37,0,0,0,.16-.24.23.23,0,0,0-.09-.21.48.48,0,0,0-.48-.06,2.37,2.37,0,0,0-1.12,1.44,4.08,4.08,0,0,0-.22,2h0a1.42,1.42,0,0,0,.16.46A.36.36,0,0,0,96.63,56.56Zm-.25-.68a4,4,0,0,1,.21-1.93,2.24,2.24,0,0,1,1-1.35.38.38,0,0,1,.34,0,.07.07,0,0,1,0,.07.22.22,0,0,1-.1.13,2.69,2.69,0,0,0-1,1.52,5.47,5.47,0,0,0-.1,1.83.3.3,0,0,1,0,.18s0,0-.06,0a.25.25,0,0,1-.13-.12A1.25,1.25,0,0,1,96.38,55.88Z"/><path class="af_cls-6" d="M97.42,54.48a4.47,4.47,0,0,0-.09,1.93c.08.42.31.64.52.68a.29.29,0,0,0,.28-.11.41.41,0,0,0,.05-.35A4.36,4.36,0,0,1,98.1,55a2,2,0,0,1,.73-1.35.37.37,0,0,0,.17-.24.25.25,0,0,0-.09-.22.48.48,0,0,0-.48-.05A2,2,0,0,0,97.42,54.48Zm1.06-1.23a.35.35,0,0,1,.33,0s0,0,0,.07,0,.08-.11.13a2.13,2.13,0,0,0-.79,1.46A4.5,4.5,0,0,0,98,56.66a.29.29,0,0,1,0,.24.12.12,0,0,1-.13.05c-.13,0-.32-.18-.4-.56a4.38,4.38,0,0,1,.09-1.87A1.84,1.84,0,0,1,98.48,53.25Z"/><path class="af_cls-6" d="M102,53a2.54,2.54,0,0,1,1,1.44,5.37,5.37,0,0,1,.09,1.78.44.44,0,0,0,.06.28.23.23,0,0,0,.23.1.36.36,0,0,0,.23-.19,1.45,1.45,0,0,0,.16-.46h0a4.06,4.06,0,0,0-.21-2,2.38,2.38,0,0,0-1.12-1.44.5.5,0,0,0-.49.06.22.22,0,0,0-.08.21A.37.37,0,0,0,102,53Zm0-.33a.35.35,0,0,1,.33,0,2.25,2.25,0,0,1,1,1.35,3.94,3.94,0,0,1,.2,1.93,1.28,1.28,0,0,1-.14.41c-.05.08-.1.12-.12.12s0,0-.07,0a.31.31,0,0,1,0-.19,5.48,5.48,0,0,0-.1-1.83,2.7,2.7,0,0,0-1-1.52h0a.23.23,0,0,1-.1-.13S102,52.69,102,52.67Z"/><path class="af_cls-6" d="M101.12,53.64a2,2,0,0,1,.73,1.36,4.36,4.36,0,0,1-.08,1.66.42.42,0,0,0,0,.35.31.31,0,0,0,.29.11c.22,0,.44-.26.52-.68a4.52,4.52,0,0,0-.09-1.94,2,2,0,0,0-1-1.37.5.5,0,0,0-.49.05.25.25,0,0,0-.09.22A.38.38,0,0,0,101.12,53.64Zm0-.33a.38.38,0,0,1,.34,0,1.83,1.83,0,0,1,.91,1.26,4.37,4.37,0,0,1,.08,1.87c-.08.38-.26.55-.39.57a.14.14,0,0,1-.14-.05.29.29,0,0,1,0-.24A4.45,4.45,0,0,0,102,55a2.13,2.13,0,0,0-.79-1.46.22.22,0,0,1-.1-.13A.07.07,0,0,1,101.13,53.31Z"/><polygon class="af_cls-4" points="111.36 79.05 88.57 79.05 86.08 81.08 113.84 81.08 111.36 79.05"/><rect class="af_cls-4" x="90.9" y="62.86" width="2.64" height="3.65"/><rect class="af_cls-4" x="91.05" y="68.59" width="2.55" height="0.77"/><rect class="af_cls-4" x="92" y="71.26" width="0.51" height="0.35"/><path class="af_cls-4" d="M91,72.79H93.6V69.94H91v2.85Zm1-1.55v-.94h.51v.94h.66v.38h-.66v1H92v-1h-.64v-.38Z"/><rect class="af_cls-4" x="90.81" y="73.38" width="2.85" height="1.59"/><polygon class="af_cls-4" points="91.16 67.91 93.46 67.91 93.91 67.15 90.75 67.15 91.16 67.91"/><path class="af_cls-4" d="M95.86,63.12H94.28l0,2A5.72,5.72,0,0,1,95.86,63.12Z"/><rect class="af_cls-4" x="106.37" y="62.86" width="2.59" height="3.65"/><rect class="af_cls-4" x="106.42" y="68.59" width="2.5" height="0.77"/><rect class="af_cls-4" x="107.46" y="71.25" width="0.51" height="0.35"/><path class="af_cls-4" d="M109,69.94h-2.55v2.85H109V69.94Zm-1,2.67h-.51v-1h-.64v-.38h.64V70.3H108v.94h.66v.38H108Z"/><rect class="af_cls-4" x="106.33" y="73.38" width="2.8" height="1.59"/><polygon class="af_cls-4" points="106 67.15 106.45 67.91 108.71 67.91 109.12 67.15 106 67.15"/><path class="af_cls-4" d="M105.66,65.11l0-2h-1.56A5.71,5.71,0,0,1,105.66,65.11Z"/><polygon class="af_cls-7" points="92.51 71.61 92.51 71.63 93.17 71.63 93.17 71.25 92.51 71.25 92.51 71.26 92.51 71.61"/><polygon class="af_cls-7" points="91.36 71.63 92 71.63 92 71.61 92 71.26 92 71.25 91.36 71.25 91.36 71.63"/><polygon class="af_cls-7" points="92.51 71.26 92.51 71.25 92.51 70.31 92 70.31 92 71.25 92 71.26 92.51 71.26"/><polygon class="af_cls-7" points="92 71.61 92 71.63 92 72.63 92.51 72.63 92.51 71.63 92.51 71.61 92 71.61"/><polygon class="af_cls-7" points="108.63 71.23 107.97 71.23 107.97 71.25 107.97 71.6 107.97 71.61 108.63 71.61 108.63 71.23"/><polygon class="af_cls-7" points="107.46 71.25 107.46 71.23 106.82 71.23 106.82 71.61 107.46 71.61 107.46 71.6 107.46 71.25"/><polygon class="af_cls-7" points="107.97 71.25 107.97 71.23 107.97 70.3 107.46 70.3 107.46 71.23 107.46 71.25 107.97 71.25"/><polygon class="af_cls-7" points="107.46 71.6 107.46 71.61 107.46 72.61 107.97 72.61 107.97 71.61 107.97 71.6 107.46 71.6"/><path class="af_cls-4" d="M104.83,75.74l0-1.28-.8-.5V72.7l-1.27-.54V70.94l-1.06-.31,0-1.22-1.47-.47-.74-.47,0-.81-4.71,0v-.71c0-2.36,3-4.25,5-4.31,2.29-.07,5.15,2.06,5.15,4.33l0,2.27h.34v-2.3c0-2.08-2.53-4.53-5.12-4.54l8.76,0,0-.26H90.87v.26l8.63,0c-1.45,0-5,1.66-4.94,4.52V75h1.82l0,1.49-2.52,0c-.36,0-.59-.36-.6-1H90.81a4,4,0,0,1-1.67,2.91h7.3l0-1.9h2l.4,1.76h1.67l-.7-1.78h1.56l1.18,1.79h2.38l-1.61-1.79h2.58Zm-5,.77-1.35,0L98.17,75H96.42v-1.5h1.4l.35,1.5h1.15l-.51-1.52h.74l.92,1.52H99.32Zm1.58,0L100.46,75l1.35,0,1.5,1.5Z"/><rect class="af_cls-4" x="105.07" y="70.4" width="0.32" height="2.32"/><path class="af_cls-4" d="M81.59,46.94c-1.08,1-1.69,1.67-1.42,2.68C81.14,49.78,81.71,48.77,81.59,46.94Z"/><path class="af_cls-4" d="M79.46,51c.75-.81.34-3.38.09-5.19C79.23,47.21,78.6,50.56,79.46,51Z"/><path class="af_cls-4" d="M82.76,48.3c-1.2,1.65-3.14,1.65-3,2.86C81.22,51.66,82.37,50.1,82.76,48.3Z"/><path class="af_cls-4" d="M78.67,52.84c.79-.49,0-3.8-.24-5.27C78.22,49,77.54,52.55,78.67,52.84Z"/><path class="af_cls-4" d="M79.06,52.73a1.84,1.84,0,0,0,2.13-1.52C80.34,51.86,79.12,51.51,79.06,52.73Z"/><path class="af_cls-4" d="M77.67,54.37c.86-.37-.18-4.34-.51-5.69C77.23,50.25,76.55,54.07,77.67,54.37Z"/><path class="af_cls-4" d="M80.43,52.82c-.79.54-2.06.13-2.23,1.39A1.73,1.73,0,0,0,80.43,52.82Z"/><path class="af_cls-4" d="M76.84,56.06c.88-.77-.2-3.37-.59-6.2C76.24,52.89,75.76,56.15,76.84,56.06Z"/><path class="af_cls-4" d="M77.21,55.91a2,2,0,0,0,2.39-1.44C78.29,55,77.42,54.48,77.21,55.91Z"/><path class="af_cls-4" d="M85.63,48.64c-1.29.69-2.08,1.34-1.81,2.36C84.79,51.15,85.44,50.22,85.63,48.64Z"/><path class="af_cls-4" d="M83.07,52.71c1.61.23,2.19-1,3.27-2.59C84.82,51.23,83,51.45,83.07,52.71Z"/><path class="af_cls-4" d="M82.61,52.53c1.07-.89.5-1.83.64-3.5C82.58,50.15,81.73,51.48,82.61,52.53Z"/><path class="af_cls-4" d="M84.67,52.44c-.79.57-2.55.8-2.45,1.83C84,54.63,84.4,53,84.67,52.44Z"/><path class="af_cls-4" d="M81.86,54.29c.8-.66-.21-1.76.16-3.34C81.15,52.09,80.64,54.15,81.86,54.29Z"/><path class="af_cls-4" d="M80.94,56c.91-1-.2-2,0-3.36C80.44,53.67,79.56,55.4,80.94,56Z"/><path class="af_cls-4" d="M83.64,54.13c-1.23,1-2.13.86-2.43,1.72C81.94,56.79,83.35,55.57,83.64,54.13Z"/><path class="af_cls-4" d="M116.14,50.93c.21-1.51-1-1.58-1.69-2.13C114.63,49.62,114.68,51.25,116.14,50.93Z"/><path class="af_cls-4" d="M116.94,52.69c-.05-1.56-1.73-1.21-3.18-2.5C114.16,51.54,115.56,53.19,116.94,52.69Z"/><path class="af_cls-4" d="M117.29,52.51c1-.68.23-2.16-.69-3.46C116.94,50.46,116.19,51.76,117.29,52.51Z"/><path class="af_cls-4" d="M115.23,52.58c.63,1,.91,1.82,2.5,1.69C117.76,52.83,116.31,53.28,115.23,52.58Z"/><path class="af_cls-4" d="M118.11,54.31c1.37-.43.46-2.43-.14-3.27C118.29,52.37,117.36,53.7,118.11,54.31Z"/><path class="af_cls-4" d="M118.78,56c-.49-1.25-1.21-.69-2.49-1.88C116.68,55.5,117.19,56.34,118.78,56Z"/><path class="af_cls-4" d="M119,55.94c1.11,0,.61-2.21,0-3.21C119.2,53.94,118.23,55.33,119,55.94Z"/><path class="af_cls-4" d="M121.72,57.08c.1-.19-.23-.69-.45-.38-.34.48-.68,1.86-.83,1.35s-.18-1.53-.67-1.72c-.32-.11-.77-.18-.64.31s.39,1.12.09,1.17-.68-.64-1.1-1-.85.16-.35.57c1.45,1.18,2.85,1.79,3.79,4.07l.24-.4C121.59,59.72,121.16,58.08,121.72,57.08Z"/><path class="af_cls-4" d="M119.61,49.67c.61-1-.69-2-1.28-2.71C118.53,47.87,118.14,49.68,119.61,49.67Z"/><path class="af_cls-4" d="M120.33,46c-.22,2.09-.72,4.36.2,5.05C121.45,50.41,120.62,48.33,120.33,46Z"/><path class="af_cls-4" d="M117.11,48.3c.32,1.21,1.23,3,2.92,2.91C120.15,50.06,118.35,49.81,117.11,48.3Z"/><path class="af_cls-4" d="M121.26,53c1.17-.32.38-3.55.23-5.36C121.45,49.58,120.29,52.1,121.26,53Z"/><path class="af_cls-4" d="M118.75,51.19a1.79,1.79,0,0,0,2,1.54C120.72,51.48,119.52,51.74,118.75,51.19Z"/><path class="af_cls-4" d="M122.67,48.81c-.11,1.39-1.25,5-.54,5.49C123.23,54.25,122.82,50.11,122.67,48.81Z"/><path class="af_cls-4" d="M119.5,52.88a1.92,1.92,0,0,0,2.16,1.34C121.66,53,120.31,53.24,119.5,52.88Z"/><path class="af_cls-4" d="M123,56c1.17.48.75-4.92.6-6.16C123.5,51.44,122.12,55.34,123,56Z"/><path class="af_cls-4" d="M120.37,54.49A2.13,2.13,0,0,0,122.74,56C122.5,54.78,121.56,54.94,120.37,54.49Z"/><path class="af_cls-4" d="M121.56,61.48a18.49,18.49,0,0,0-1.9,4.16A4.36,4.36,0,0,0,120.82,70l.95-2.76A6.81,6.81,0,0,1,122.4,66a11.78,11.78,0,0,1,0-1.37,4.27,4.27,0,0,0,.4.81c.19-.28.38-.56.6-.86s.22-.87.4-1.44c.06.23.12.45.18.67a24.48,24.48,0,0,1,2-2.34l0,0q0-.24-.07-.51l-.27,0c-.47,0-1.39.29-1.74,0s-.19-1.23-.34-1.69c-.06-.26-.24-.66-.64,0s-.76,1.22-1.15,1.88Z"/><path class="af_cls-4" d="M127.22,61.33c.82-.14.46-1.8.08-3.29C126.77,59.76,126.45,61.17,127.22,61.33Z"/><path class="af_cls-4" d="M127.25,62.86c.88.47,1.83-1.77,1.63-3.54C128.44,60.83,126.95,61.77,127.25,62.86Z"/><path class="af_cls-4" d="M126.93,62.82c.14-1.22-.37-1.19-1-2.35,0,.16,0,.31,0,.46s0,.35.07.51C126.17,62.27,126.46,62.87,126.93,62.82Z"/><path class="af_cls-4" d="M127.21,64.6c1,.29,2.2-2.15,2.16-4C128.94,62.65,126.72,63.44,127.21,64.6Z"/><path class="af_cls-4" d="M126.88,64.56c.41-.95-.43-.83-1-2.52C125.71,63.79,126,64.59,126.88,64.56Z"/><path class="af_cls-4" d="M129.85,62.29c-1.31,1.84-2.88,2.87-2.68,4.11C128.51,66.63,129.19,63.69,129.85,62.29Z"/><path class="af_cls-4" d="M126.87,66.3c.39-1.08-.71-1-1.29-2.64C125.67,65.71,125.94,66.45,126.87,66.3Z"/><path class="af_cls-4" d="M129.63,64.42c-.72,1.6-3,2.66-2.38,3.74C128.09,68.22,129.6,65.88,129.63,64.42Z"/><path class="af_cls-4" d="M126.63,67.89c.35-1.13-.63-1.14-1.06-2.4C125.54,67.4,125.84,68,126.63,67.89Z"/><path class="af_cls-4" d="M129.4,66.24c-.86,1.58-2.81,2.47-2.74,3.68C128.14,70.19,128.52,68.23,129.4,66.24Z"/><path class="af_cls-4" d="M126.55,69.66c.48-1-.63-1-1.23-2.55C125.29,69.27,125.67,69.9,126.55,69.66Z"/><path class="af_cls-4" d="M121.18,71.33a2.4,2.4,0,0,0-1.57-2.12,2.79,2.79,0,0,0,1,2.16l.1,0Z"/><path class="af_cls-4" d="M123.37,64.59c-.17.79-.1,1.28.38,1.65.8-.44.54-1.28.21-2.42-.06-.21-.12-.43-.18-.67C123.59,63.72,123.45,64.19,123.37,64.59Z"/><path class="af_cls-4" d="M122.4,66c.1,1.13.42,1.83,1.07,1.63.31-1-.21-1.39-.7-2.19a4.27,4.27,0,0,1-.4-.81A11.78,11.78,0,0,0,122.4,66Z"/><path class="af_cls-4" d="M124.93,65c-.49,1.45-1.69,1.8-1.08,3C124.55,68.18,125.41,66.57,124.93,65Z"/><path class="af_cls-4" d="M122.19,66.81c0,1.91.14,2.69.94,2.54C123.8,68.31,122.73,68.26,122.19,66.81Z"/><path class="af_cls-4" d="M121.87,68.67c0,2.16.33,2.62,1.26,2.47C123.64,70,122.52,70.11,121.87,68.67Z"/><path class="af_cls-4" d="M125,67.15c-.49,1.06-1.87,1-1.37,2.27A1.85,1.85,0,0,0,125,67.15Z"/><path class="af_cls-4" d="M123.47,71c.95.2,1.66-1.25,1.56-2.24C124.29,69.63,123.27,69.71,123.47,71Z"/><path class="af_cls-4" d="M129.76,68.9c.08-.36-.25-.52-.36-.37a5.3,5.3,0,0,1-2.2,1.75,18,18,0,0,1-6,1.05l-.51,0-.1,0a3.41,3.41,0,0,0-2.44,2.07c-.33.89-.56,1.66-.8,2.55,0,.14.07.26.11.37a4.86,4.86,0,0,1,1.79-1.22,1.72,1.72,0,0,0,.14-.38,2,2,0,0,1,.1.31,5.17,5.17,0,0,1,.58-.17l1.28-.27a2.81,2.81,0,0,0,.19-.24,1,1,0,0,1,0,.2c1.41-.31,3.15-.72,4.45-1.11a4.08,4.08,0,0,1,.75-1.44,6,6,0,0,0-.1,1.23,4.79,4.79,0,0,0,1.1-.48C129,71.92,129.69,69.39,129.76,68.9Z"/><path class="af_cls-4" d="M119.23,75.14c-.52,1.05-2,1.8-.82,2,.62.09,1.39-.94,1.07-2.08a2,2,0,0,0-.1-.31A1.72,1.72,0,0,1,119.23,75.14Z"/><path class="af_cls-4" d="M121.33,74.63c-.77,1-2,1.3-1.48,1.78.48.27,1.64-.91,1.66-1.82a1,1,0,0,0,0-.2A2.81,2.81,0,0,1,121.33,74.63Z"/><path class="af_cls-4" d="M122,75.29c-2.14,1.83-4.34,2.29-3.72,3.17C118.82,79,121.3,76.44,122,75.29Z"/><path class="af_cls-4" d="M117.73,80c.39.6,2-1.2,3.09-2.7C119.5,78.58,117.26,79.17,117.73,80Z"/><path class="af_cls-4" d="M117.33,76c-.6.73-.53,2.76.57,2.56.36-1-.13-1.19-.46-2.17,0-.11-.07-.24-.11-.37Z"/><path class="af_cls-4" d="M117.24,80c.8-.22-.5-1.59-.77-2.56C116.35,79.24,116.37,80.13,117.24,80Z"/><path class="af_cls-4" d="M116.46,81.3c.74-.27-.42-.95-.54-2.44C115.55,79.4,115.36,81.49,116.46,81.3Z"/><path class="af_cls-4" d="M115.35,81.61c.47-.26.28-1.48-.45-1.64C114.73,80.93,114.75,81.63,115.35,81.61Z"/><path class="af_cls-4" d="M126.72,72a4.08,4.08,0,0,0-.75,1.44c-.17.72.16,1.07.57,1a3.93,3.93,0,0,0,.08-1.23A6,6,0,0,1,126.72,72Z"/><path class="af_cls-4" d="M126.68,74.71c.85.24,3.05-1.7,3.12-3.14C129.2,72.61,126.22,73.73,126.68,74.71Z"/><path class="af_cls-4" d="M125.3,76c.58-.32.42-1.66-.11-2.11C125.08,75.18,124.29,76,125.3,76Z"/><path class="af_cls-4" d="M125.9,76.35c1,.32,2.18-1.54,3-2.34C128,74.84,125,75.24,125.9,76.35Z"/><path class="af_cls-4" d="M124.49,74c-.72,1.32-.87,3.14,0,3.23C125.2,76.8,124.54,75.88,124.49,74Z"/><path class="af_cls-4" d="M124.62,77.75c.37.49,3.07-1.2,3.75-2.45C126.06,77,124,76.79,124.62,77.75Z"/><path class="af_cls-4" d="M124.35,79.27c.67-.48-.57-1.76-.83-3.47C123.54,77.89,123.25,79.47,124.35,79.27Z"/><path class="af_cls-4" d="M125.08,78.7c.33.54,2.4-.88,3.29-2.43C127,77.47,124.69,77.79,125.08,78.7Z"/><path class="af_cls-4" d="M123,81c.75-.13.65-2,.07-3.57C122.39,79.33,122.11,81.22,123,81Z"/><path class="af_cls-4" d="M124.84,80c.26.31,3.3-1.83,3.26-2.7C127.14,78.69,123.92,79,124.84,80Z"/><path class="af_cls-4" d="M121.31,82.8c1-.42.55-2.1.75-3.9C121.24,80.66,120.28,82.43,121.31,82.8Z"/><path class="af_cls-4" d="M123.24,81.35c.16.57,2.64-.48,3.84-2.21C125.63,80.26,122.83,80.42,123.24,81.35Z"/><path class="af_cls-4" d="M121.64,83.07c.53.89,3.61-.74,4.06-2.27C124.7,82.12,121.26,81.93,121.64,83.07Z"/><path class="af_cls-4" d="M123,83.76c.57.06,1.88-1,2.25-1.58C124.24,82.71,122.81,83.43,123,83.76Z"/><path class="af_cls-4" d="M124.7,83.8a8.08,8.08,0,0,1-3.25,0c-2-.48-3.62-1.76-5.62-2.07a5.69,5.69,0,0,0-4.16.88,13.7,13.7,0,0,0-1.29,1.25c-.38.38-.06.37.47.2a4.22,4.22,0,0,1,1-.19l.28-.62c0,.21,0,.42,0,.62a5,5,0,0,1,.7,0,2.08,2.08,0,0,1,1.31-.72,4.24,4.24,0,0,1-.22,1,3.77,3.77,0,0,1,.59.26,14.22,14.22,0,0,0,3.86,1.91,1.86,1.86,0,0,0,.34-.75,3,3,0,0,1,0,.84c.33.07.68.14,1.09.19,2.71.32,3.25-.31,5.1-2.61C125.14,83.7,124.89,83.76,124.7,83.8Z"/><path class="af_cls-4" d="M109.06,87.84a.24.24,0,0,0,.09,0,3,3,0,0,1,0-.42,1.27,1.27,0,0,0-.6-.55c-.32-.06-.52.52-.24,1.26a.25.25,0,0,0,.09.13l.19-.06C108.73,88.06,108.88,87.86,109.06,87.84Z"/><path class="af_cls-4" d="M112.83,83.88a.92.92,0,0,0,0,1c.59.15.91-.2,1.1-.69a4.24,4.24,0,0,0,.22-1A2.08,2.08,0,0,0,112.83,83.88Z"/><path class="af_cls-4" d="M112.43,85.84c.17.77,2.07,0,2.44-1.11C113.51,85.52,112.18,84.66,112.43,85.84Z"/><path class="af_cls-4" d="M111.8,83.86c-.41.93-.75,1.84-.06,1.93s.5-.83.38-1.93c0-.21,0-.41,0-.62Z"/><path class="af_cls-4" d="M110.65,87.08c.95.12.35-1.7.09-2.93C110.43,85.29,109.74,87,110.65,87.08Z"/><path class="af_cls-4" d="M111.21,87.13c.12,1,2.07-.12,3.21-.76C112.91,86.6,111,86.11,111.21,87.13Z"/><path class="af_cls-4" d="M110.14,88.57c.12,1,2.07-.12,3.2-.76C111.84,88,110,87.56,110.14,88.57Z"/><path class="af_cls-4" d="M109.15,87.81a.86.86,0,0,0,.19.57l.06.06a.43.43,0,0,0,.24.09c.9,0,.24-1.93,0-3.16a13.68,13.68,0,0,0-.45,2A3,3,0,0,0,109.15,87.81Z"/><path class="af_cls-4" d="M110.72,89.75c.4-.21.81-.45,1.15-.67a7.41,7.41,0,0,1-1.73.1Z"/><path class="af_cls-4" d="M118.91,88c.53.89,2.5-.65,3.58-1.44C120.94,87.09,118.53,86.91,118.91,88Z"/><path class="af_cls-4" d="M116.89,89c.19,1,3.52.18,4-.58C119.36,89,116.71,88.09,116.89,89Z"/><path class="af_cls-4" d="M115.33,89.75c.1.56,2.65.35,3.93-.09C117.87,89.84,115.07,88.86,115.33,89.75Z"/><path class="af_cls-4" d="M114,90.42c0,.51,3,.81,4,0C116,90.69,113.8,89.18,114,90.42Z"/><path class="af_cls-4" d="M115.77,91.1c-1.58-.12-3.57-1.05-4-.41l.76.66A9.3,9.3,0,0,0,115.77,91.1Z"/><path class="af_cls-4" d="M111.61,90.25c.73.67,2.59-2.31,3.2-3.62C113.37,88.13,110.78,89.67,111.61,90.25Z"/><path class="af_cls-4" d="M113.73,89.75c.86.57,1.66-1.53,2.09-3.07C115,88,112.9,88.87,113.73,89.75Z"/><path class="af_cls-4" d="M115.4,89.17c.86.57,1.35-1.33,1.56-2.51C116.36,87.68,114.57,88.3,115.4,89.17Z"/><path class="af_cls-4" d="M118.71,85.57a1.86,1.86,0,0,1-.34.75c-.69.93-2,1.12-1.35,1.84.71.47,1.55-.52,1.7-1.75A3,3,0,0,0,118.71,85.57Z"/><path class="af_cls-4" d="M113.72,92.39l.2.18a1.42,1.42,0,0,1,.29.35c1.27.17,4.54-1.45,5.17-2.59C118,91.46,114,91.4,113.72,92.39Z"/><path class="af_cls-4" d="M82.11,57.51c.49-.41,0-.84-.35-.57s-.91,1-1.08,1,0-.69.09-1.17-.32-.42-.63-.31c-.49.19-.51,1.17-.66,1.72s-.48-.87-.81-1.35c-.21-.3-.54.2-.44.38.54,1,.15,2.58-.07,3.92l.25.42C79.33,59.28,80.7,58.67,82.11,57.51Z"/><path class="af_cls-4" d="M80.11,86.51c2.75-.36,3.4-1.11,5.33-2.19a3.84,3.84,0,0,1,.62-.26,4.39,4.39,0,0,1-.2-.76,1.41,1.41,0,0,1,1.21.51,5,5,0,0,1,.71,0,7,7,0,0,0,0-.72,3.2,3.2,0,0,1,.44.72,4.25,4.25,0,0,1,.9.18c.53.17.85.18.47-.2a13.91,13.91,0,0,0-1.3-1.25,5.73,5.73,0,0,0-4.18-.87c-2,.31-3.66,1.59-5.64,2.07a8.15,8.15,0,0,1-3.26,0c-.19,0-.44-.1-.21.19C76.85,86.2,77.38,86.83,80.11,86.51Z"/><path class="af_cls-4" d="M90.78,87.78a.24.24,0,0,0,.12,0c.35,0,.57.71.74.26.29-.74.09-1.32-.24-1.26a1.26,1.26,0,0,0-.59.51A2.42,2.42,0,0,1,90.78,87.78Z"/><path class="af_cls-4" d="M73.91,61.39a21.86,21.86,0,0,1,2,2.39c.1-.3.2-.61.27-.89.12.64.36,1.29.45,1.87l.55.8a5.46,5.46,0,0,0,.42-.71c0,.43,0,.85-.07,1.24.31.48.56.9.71,1.19a5.12,5.12,0,0,1,.89,2.82,5.31,5.31,0,0,0,1.13-4.54,18.16,18.16,0,0,0-1.85-4l-.25-.42c-.41-.69-.83-1.35-1.22-2s-.58-.22-.64,0c-.14.46,0,1.45-.34,1.69s-1.28-.06-1.75,0a1.59,1.59,0,0,0-.27,0c0,.16-.06.32-.09.49Z"/><path class="af_cls-4" d="M73.69,61l.09-.11A.15.15,0,0,0,73.69,61Z"/><path class="af_cls-4" d="M79.36,71.28c.82-.41,1-1.69,1-2.11a2.25,2.25,0,0,0-1.55,2.07l.45,0Z"/><path class="af_cls-4" d="M90.12,88.45c.37.08.58-.22.66-.66a2.42,2.42,0,0,0,0-.45,2.89,2.89,0,0,0-.72-1.87C90.51,86.91,89.39,88.22,90.12,88.45Z"/><path class="af_cls-4" d="M89.76,88.43c-.08-.85-1.72-.3-3.3-1C87.15,88.29,89.82,89.49,89.76,88.43Z"/><path class="af_cls-4" d="M85.55,86.22c.71.81,3.13,1.71,3,.68C88.48,86.05,87.14,86.74,85.55,86.22Z"/><path class="af_cls-4" d="M89,87c.93.21.78-2.11-.12-2.9C89.34,85.69,88.3,86.83,89,87Z"/><path class="af_cls-4" d="M87.77,83.78c0,1.06-.25,1.77.28,1.86.71.16.56-1,.15-1.86a3.2,3.2,0,0,0-.44-.72A7,7,0,0,1,87.77,83.78Z"/><path class="af_cls-4" d="M85,84.87c.73,1,2.61,1.82,2.51.76C87.46,84.78,86.62,85.39,85,84.87Z"/><path class="af_cls-4" d="M85.85,83.3a4.39,4.39,0,0,0,.2.76c.2.56.53,1,1,.76s.29-.67,0-1A1.41,1.41,0,0,0,85.85,83.3Z"/><path class="af_cls-4" d="M88.18,89a2.83,2.83,0,0,0,1.1.81l.76-.71A9.13,9.13,0,0,1,88.18,89Z"/><path class="af_cls-4" d="M81,87.73c-.11-.85-2-.6-3.56-1.11C78.17,87.62,81.09,88.79,81,87.73Z"/><path class="af_cls-4" d="M81.16,86.35c.11.7.94,2.24,1.63,1.83S82.15,86.61,81.16,86.35Z"/><path class="af_cls-4" d="M83,88.92c-.09-.82-1.22,0-4-.45C79.84,89.35,83,89.87,83,88.92Z"/><path class="af_cls-4" d="M84.47,89.55c-.24-.62-2.05.14-3.79.16C81.76,90.22,84.83,90.44,84.47,89.55Z"/><path class="af_cls-4" d="M85.91,90.2c-.34-.79-2.05.32-3.88.34C83.41,91,86.25,91,85.91,90.2Z"/><path class="af_cls-4" d="M88,90.63c-.43-.74-1.73.33-3.47.57a5.14,5.14,0,0,0,3.12.05l.38-.31A.36.36,0,0,0,88,90.63Z"/><path class="af_cls-4" d="M84.47,89c.65-.57-.47-1.31-1.66-2.4C83.56,87.85,83.51,89.62,84.47,89Z"/><path class="af_cls-4" d="M84,86.57c.73,1.37,1.37,3.8,2.17,3.09S85.17,87.87,84,86.57Z"/><path class="af_cls-4" d="M88.39,90.33c.54-.67-2.26-2.66-3.35-3.92C85.75,88,87.71,91.12,88.39,90.33Z"/><path class="af_cls-4" d="M86,92.59l.36-.29c-.64-.68-3.27-.63-5.73-1.93.43.92,3.48,2.51,5,2.64A1.56,1.56,0,0,1,86,92.59Z"/><path class="af_cls-4" d="M74.48,73.56c1.77.49,4.06,1,5.37,1.26a5.16,5.16,0,0,1,.5.14s0,0,0-.07l.09.1a4.88,4.88,0,0,1,2.08,1.33,2.94,2.94,0,0,0,.07-.38c-.25-.91-.48-1.69-.81-2.59a3.43,3.43,0,0,0-2.43-2.07l-.11,0-.45,0a18.28,18.28,0,0,1-6.12-1.05,5.31,5.31,0,0,1-2.21-1.75c-.12-.15-.45,0-.37.37s.8,3,2.05,3.9a5,5,0,0,0,1.16.5c.08-.27.18-.57.27-1a9.05,9.05,0,0,1,.49,1.19l.29.08c0-.13,0-.26,0-.4A4.07,4.07,0,0,0,74.48,73.56Z"/><path class="af_cls-4" d="M82.1,78.46c.64.47,1.35-1.22.53-2.82a2.4,2.4,0,0,1,0,.3,2.94,2.94,0,0,1-.07.38C82.25,77.35,81.5,77.83,82.1,78.46Z"/><path class="af_cls-4" d="M83.29,77.46c.1,1.35-1.39,2.16-.58,2.55S83.88,78.71,83.29,77.46Z"/><path class="af_cls-4" d="M83.39,81.25c.85.42,1.18-1.16.56-2.33C84,80.42,82.73,80.86,83.39,81.25Z"/><path class="af_cls-4" d="M83,81.35c.25-.82-1.42-.69-2.63-1.9C80.73,80.47,82.7,82.36,83,81.35Z"/><path class="af_cls-4" d="M82.15,79.8c.28-.71-2.18-1.64-3.4-2.85C79.29,78.2,81.76,80.81,82.15,79.8Z"/><path class="af_cls-4" d="M81.66,78.28c.29-.84-2.55-1.81-3.83-3C78.59,76.36,81.27,79.43,81.66,78.28Z"/><path class="af_cls-4" d="M80.36,75c0,1.31.19,2.22,1.21,2.18s0-.93-1.12-2.15l-.09-.1S80.36,74.94,80.36,75Z"/><path class="af_cls-4" d="M80,76.38c.41-.44-.39-.63-1.38-1.74C78.45,75.38,79.51,76.75,80,76.38Z"/><path class="af_cls-4" d="M84.56,81.37c.52.3.87-.76.23-1.72C84.63,80.69,84.08,81,84.56,81.37Z"/><path class="af_cls-4" d="M73.32,74.68c.21-.68-2.35-1.81-3.31-3C70.47,72.71,72.22,75.34,73.32,74.68Z"/><path class="af_cls-4" d="M74.25,76.22c.27-1.09-2.16-1.2-3.19-2.08C71.73,75.06,73.64,76.89,74.25,76.22Z"/><path class="af_cls-4" d="M75.29,77.59c.18-1.1-2.44-1-3.64-2.13C72.3,76.44,75.09,78.51,75.29,77.59Z"/><path class="af_cls-4" d="M74.86,78.58c.35-.82-1.86-1.09-3.25-2.3C72.16,77.36,74.43,79.41,74.86,78.58Z"/><path class="af_cls-4" d="M73.32,73.2c-.16.58-.19.94.38,1.34a1.07,1.07,0,0,0,.38-1.11,9.05,9.05,0,0,0-.49-1.19C73.5,72.63,73.4,72.94,73.32,73.2Z"/><path class="af_cls-4" d="M74.65,76c1.16.05.26-1.2-.16-2.42a4.07,4.07,0,0,1-.13-.43c0,.14,0,.27,0,.4C74.39,74.84,74.08,75.84,74.65,76Z"/><path class="af_cls-4" d="M75.43,74.21c.14,1.67-.76,2.63,0,3C76.38,77,76.12,75.75,75.43,74.21Z"/><path class="af_cls-4" d="M75.17,79.75c.23-.76-2-1.13-3.31-2.22C72.27,78.42,74.83,80.76,75.17,79.75Z"/><path class="af_cls-4" d="M76.71,81.33c.2-1-2.27-.89-3.89-2.16C73.63,80.29,76.32,82.34,76.71,81.33Z"/><path class="af_cls-4" d="M78.27,82.92c.23-1-2.29-.58-4.07-1.94C75,82.08,77.84,84.34,78.27,82.92Z"/><path class="af_cls-4" d="M75.63,79.3c.76.39,1.07-1.77.64-3.3C76.28,77.67,74.74,78.91,75.63,79.3Z"/><path class="af_cls-4" d="M76.93,81c.92.27.63-2.06-.16-3.57C76.67,78.94,76,80.37,76.93,81Z"/><path class="af_cls-4" d="M78.56,82.63c1,.06.32-2-.53-3.16C78.18,81,77.7,82.45,78.56,82.63Z"/><path class="af_cls-4" d="M76.77,83.51c.14-.48-1.18-.86-2.29-1.15C75.71,83.07,76.46,84,76.77,83.51Z"/><path class="af_cls-4" d="M75.91,63.78c-.31,1-.58,2,.27,2.4a1.34,1.34,0,0,0,.45-1.41c-.09-.58-.33-1.24-.45-1.87C76.11,63.17,76,63.47,75.91,63.78Z"/><path class="af_cls-4" d="M76.15,67.94c.35-1.34-.83-1.61-1.26-3.2C74.93,65.91,74.71,67.77,76.15,67.94Z"/><path class="af_cls-4" d="M77.17,65.56a2.72,2.72,0,0,0-.8,2.14c.84,0,1.07-.73,1.15-1.61,0-.39,0-.81.07-1.24A5.46,5.46,0,0,1,77.17,65.56Z"/><path class="af_cls-4" d="M76.32,69.41c.06-1.38-.75-1-1.65-2.3C74.89,68.56,75.38,69.49,76.32,69.41Z"/><path class="af_cls-4" d="M76.66,69.3c1.21.16,1-1.26,1-2.3C77.26,68,76.28,68.3,76.66,69.3Z"/><path class="af_cls-4" d="M76.39,70.85c.39-1.13-.82-1.36-1.62-2.15C74.87,69.62,75.45,71.21,76.39,70.85Z"/><path class="af_cls-4" d="M76.68,70.95c1.27.23,1.41-.76,1.25-2.27C77.63,69.73,76.26,70.14,76.68,70.95Z"/><path class="af_cls-4" d="M72.77,61.36c.76-.81.09-2.1-.14-3.36C72.32,59.19,71.79,60.77,72.77,61.36Z"/><path class="af_cls-4" d="M72.74,62.87c.18-1.4-1.35-2.13-1.78-3.73C71.09,60.31,71.41,63,72.74,62.87Z"/><path class="af_cls-4" d="M73,62.85a1.78,1.78,0,0,0,.84-1.53c0-.16.05-.33.09-.49a2.35,2.35,0,0,1,.09-.29c-.08.13-.17.24-.25.35l-.09.11C73.21,61.58,72.86,61.86,73,62.85Z"/><path class="af_cls-4" d="M72.75,64.62c.16-1.58-1.83-2.45-2.26-4C70.54,61.74,71.37,64.73,72.75,64.62Z"/><path class="af_cls-4" d="M73,64.57c1.31-.3,1.15-1.14,1-2.51C73.56,63.44,72.83,63.15,73,64.57Z"/><path class="af_cls-4" d="M72.74,66.34c.3-1-1.58-2.61-2.63-3.91C71.32,64.19,71.21,66.6,72.74,66.34Z"/><path class="af_cls-4" d="M73.08,66.26c1.15,0,1.27-1.7,1.2-2.41C74,64.56,72.66,65.22,73.08,66.26Z"/><path class="af_cls-4" d="M72.74,68.06c.48-1.06-.95-1.19-2.39-3.58C70.92,66.34,71.74,68.2,72.74,68.06Z"/><path class="af_cls-4" d="M73.1,67.79c1.27.23,1.41-.76,1.25-2.27C74.05,66.58,72.68,67,73.1,67.79Z"/><path class="af_cls-4" d="M73.05,69.92c.42-1.3-1.24-1.57-2.31-3.32C71.56,68.28,71.93,70.2,73.05,69.92Z"/><path class="af_cls-4" d="M73.29,69.61c1.24.32,1.41-.82,1.23-2.42C74.18,68.41,72.8,68.72,73.29,69.61Z"/><path class="af_cls-4" d="M75.64,58.28c.81.22,1.65-.69,1.36-2A1.93,1.93,0,0,0,75.64,58.28Z"/><path class="af_cls-4" d="M73.06,57.6c.07.38.54.42.4-.12a1.74,1.74,0,0,1,0-1.12,2.48,2.48,0,0,0,0-1.52c-.14-.33-.59-.14-.4.12a1.49,1.49,0,0,1,.08,1.23A2.57,2.57,0,0,0,73.06,57.6Z"/><path class="af_cls-4" d="M80.58,62.83c.33-.48,1-1,1-1.61a3,3,0,0,1,.72-1.92c.39-.24,0-.75-.4-.39a3.8,3.8,0,0,0-.78,2c0,.53-.61.94-1,1.45S80.27,63.29,80.58,62.83Z"/><path class="af_cls-4" d="M81.29,59c.34-.31,0-.66-.34-.3A8.54,8.54,0,0,0,79.6,60a12.33,12.33,0,0,0-.53,1.51c-.28.74.21,1,.53.54s.13-1.08.59-1.83A9,9,0,0,1,81.29,59Z"/><path class="af_cls-4" d="M74.89,59.59c0-1-.72-1.87-.29-3.36a7.25,7.25,0,0,0,.09-2.77c-.12-.7-.62-.24-.43.3a5.6,5.6,0,0,1-.2,2.47c-.48,1.79.4,2.65.37,3.5C74.39,60.37,74.91,60.53,74.89,59.59Z"/><path class="af_cls-4" d="M75.41,56c-.15.84.36.79.43.19a5.67,5.67,0,0,0-.07-2.2A3.26,3.26,0,0,1,75.86,52c.21-.41-.29-.71-.43-.19a5.49,5.49,0,0,0,0,2.37A3.86,3.86,0,0,1,75.41,56Z"/><path class="af_cls-4" d="M70.73,68.31c.25.3.67.1.29-.3s-.21-.43-.4-.82a4.55,4.55,0,0,0-.41-1c-.2-.3-.5,0-.3.26s.18.52.34.81C70.54,67.74,70.47,68,70.73,68.31Z"/><path class="af_cls-4" d="M79.5,80.94a5,5,0,0,1-.62-2.36,2.82,2.82,0,0,0-1.45-2.18c.34.8.9,1.25,1,2.3S78.84,80.76,79.5,80.94Z"/><path class="af_cls-4" d="M80.85,82.29a6.58,6.58,0,0,1-.37-1.78c0-.76-.81-1.15-1.37-2.17-.1.85.64,1.5.75,2.41C80,82.06,80.19,82.11,80.85,82.29Z"/><path class="af_cls-4" d="M109.12,88.78a.37.37,0,0,0-.36-.1,2.21,2.21,0,0,0-.5.13,25.37,25.37,0,0,1-8.49,1.76,22.28,22.28,0,0,1-8.23-1.84.67.67,0,0,0-.4,0,.82.82,0,0,0-.36.19,38.35,38.35,0,0,1-3.9,3.41.29.29,0,0,0,.13.45c2.75,1,5.37,2.8,13,2.73s10.35-1.84,12.83-2.67a.69.69,0,0,0,.35-.25.16.16,0,0,0,0-.14.5.5,0,0,0-.16-.22A19.39,19.39,0,0,1,109.12,88.78Zm-3.5.93,1,0,0,.61-1,0Zm-1.73,1,1,.09-.14.61-1-.09Zm-7.66.64.47.26.45-.33.56.35-.58.41-.44-.27-.43.32-.58-.35Zm-3-.48.54.53-.79.33-.54-.53Zm.2,2.58a2.07,2.07,0,0,1-.48.44,1.3,1.3,0,0,1-.53.18,2.64,2.64,0,0,1-.73,0,4.58,4.58,0,0,1-.85-.21,2.37,2.37,0,0,1-1.06-.62.49.49,0,0,1,0-.68,2.23,2.23,0,0,1,.59-.49,7.47,7.47,0,0,1,1.18-.49l.12.16c-.42.16-.7.28-.86.37a1.28,1.28,0,0,0-.38.3c-.12.15-.11.31.06.49a2.13,2.13,0,0,0,.84.48,3.28,3.28,0,0,0,1.11.21.91.91,0,0,0,.7-.21.7.7,0,0,0,.15-.29,2.57,2.57,0,0,0,.05-.52l.77-.47a2.11,2.11,0,0,1,0,.47,1.38,1.38,0,0,1-.3.5Zm7.8.87a5.09,5.09,0,0,1-.69-.06,3.2,3.2,0,0,1-.53-.14,1.76,1.76,0,0,1-.4.12,3,3,0,0,1-.51,0l-.61,0a.77.77,0,0,1-.39-.1.71.71,0,0,1-.24-.29,1.27,1.27,0,0,1-.48.27,1.6,1.6,0,0,1-.52.06l-.53,0V94l-1.43-.23v0l-.22-.05-.14,0h0l-.14,0c-.27-.07-.43-.19-.46-.36a1.35,1.35,0,0,1,.26-.86l.37-.64a.57.57,0,0,0,.1-.36.7.7,0,0,0-.11-.22l.7-.47a.86.86,0,0,1,.08.43,1.48,1.48,0,0,1-.21.55l-.26.45a1.83,1.83,0,0,0-.28.68.19.19,0,0,0,.16.21l.22.05,1.71.28a.49.49,0,0,0,0-.29,1.51,1.51,0,0,0-.17-.25l.5-.51a.86.86,0,0,1,.2.48,1.63,1.63,0,0,1-.14.65,1.31,1.31,0,0,0,.53-.11.64.64,0,0,0,.38-.55l.24,0,0,.18c0,.07,0,.14,0,.22a.22.22,0,0,0,.11.21.53.53,0,0,0,.29.09l.46,0a1.83,1.83,0,0,0,.65-.06.39.39,0,0,0,.26-.36A.14.14,0,0,1,100,93l.14-.08.15-.07a.82.82,0,0,1,0,.13c0,.05,0,.09,0,.1a1.41,1.41,0,0,1-.09.35l.3.09.14,0v0l.19,0a.39.39,0,0,0,0-.14.39.39,0,0,1-.08-.18.16.16,0,0,1,0-.1l.09-.07.34-.27a1.21,1.21,0,0,1,.12.28.93.93,0,0,1,0,.31v.11l1.28-.12a.71.71,0,0,0-.21-.26,2.2,2.2,0,0,0-.3-.19l.17-.6a1.34,1.34,0,0,1,.47.39,1.77,1.77,0,0,1,.25.65l.13.62-1.84.17Zm6-1.15-.52.12a1.62,1.62,0,0,1-.53,0,1.11,1.11,0,0,1-.47-.16,1,1,0,0,1-.45.39,2.28,2.28,0,0,1-.5.17h0l-.11,0-.24.06v0l-.15,0a.91.91,0,0,1-.69-.13,1.68,1.68,0,0,1-.52-.8l-.25-.67a.75.75,0,0,0-.23-.34l-.17-.09-.12.21-.92-.21.33-.58.7.17.07-.28a1.41,1.41,0,0,1,.73.85l.17.46a2,2,0,0,0,.36.66.34.34,0,0,0,.31.11l.34-.05.08,0a2.77,2.77,0,0,0,.4-.11,1.64,1.64,0,0,0,.27-.16,1.92,1.92,0,0,0-.29-.15.43.43,0,0,0-.24,0l-.06,0a.17.17,0,0,0,0,.08l-.16,0a.68.68,0,0,1-.1-.64.86.86,0,0,1,.6-.34,2.12,2.12,0,0,1,.83-.05A.61.61,0,0,1,106,92a.4.4,0,0,1,0,.24,1.42,1.42,0,0,1-.12.35.48.48,0,0,0,.17,0h.18l.09,0h0l2-.62a2.12,2.12,0,0,0-.21-.27.85.85,0,0,0-.27-.18.44.44,0,0,1-.14.3.8.8,0,0,1-.33.19,1,1,0,0,1-.54,0,.62.62,0,0,1-.4-.23,1.2,1.2,0,0,1-.2-.68c0-.31.07-.5.26-.55a1.36,1.36,0,0,1,1,.2,2.52,2.52,0,0,1,.92.75l.7,1-2,.61Zm2.45-.7a2.48,2.48,0,0,0-.3-.47c-.07-.09-.19-.21-.35-.37l-.5-.46q-.26-.23-.66-.53l-.18-.15a.57.57,0,0,1-.09-.26,3.35,3.35,0,0,1,0-.48l.83.68q.47.39.78.69t.43.45a1.18,1.18,0,0,1,.23.37,2.11,2.11,0,0,1,.09.51Z"/><path class="af_cls-4" d="M106.91,91.16a.21.21,0,0,0-.14.11.15.15,0,0,0,0,.16.19.19,0,0,0,.12.07.42.42,0,0,0,.19,0,.34.34,0,0,0,.13-.08.69.69,0,0,0,.12-.16,1.21,1.21,0,0,0-.26-.09A.35.35,0,0,0,106.91,91.16Z"/><path class="af_cls-4" d="M113.72,92.39l-1.2-1-.76-.66q-.52-.46-1-.94l-.58-.58c-.21-.21-.42-.41-.62-.62l-.13-.12-.06-.06a.78.78,0,0,0-.72-.21l-.19.06a2.49,2.49,0,0,0-.29.09,21.84,21.84,0,0,1-8.33,1.93,24.47,24.47,0,0,1-8.08-1.91,1.17,1.17,0,0,0-1.3.44l-.38.35-.76.71c-.42.38-.84.74-1.26,1.09l-.38.31-1.29,1-.36.29a1.56,1.56,0,0,0-.35.42c-.23.44-.09,1,1.48,1.58a10.93,10.93,0,0,0,2.63.65c.4,0,.4.59.33.75-.17.32,0,.44-.39.75s0,.7.32.43c1.21-1,3.16-.38,5,.24.45.12,1.26.09,1.25-.53a1.16,1.16,0,0,1,.79-1.16,39.56,39.56,0,0,0,5.75,0c.68-.09.72.94,1.09,1.34a2.14,2.14,0,0,0,1.89,0,5,5,0,0,1,4.13,0c.34.26.6,0,.41-.21a3.1,3.1,0,0,1-.36-.8c-.31-.62-.06-.78.26-.82,3.22-.42,4.49-1.44,4-2.37a1.42,1.42,0,0,0-.29-.35Zm-8.58,4.45c-.58.27-1.27-.32-.6-.87,1-.78,3.19-.34,4.83-.49a1.67,1.67,0,0,0,.29,1A6.24,6.24,0,0,0,105.15,96.84Zm8.14-4.18a.78.78,0,0,1-.43.32c-2.45.82-5.18,2.6-12.88,2.67S89.69,93.9,87,92.92h0a.43.43,0,0,1-.17-.71,37.76,37.76,0,0,0,3.88-3.4,1,1,0,0,1,.44-.23.75.75,0,0,1,.48,0,22.24,22.24,0,0,0,8.19,1.82,25.16,25.16,0,0,0,8.43-1.75,2.35,2.35,0,0,1,.54-.13.5.5,0,0,1,.49.17,19.43,19.43,0,0,0,3.85,3.42h0a.61.61,0,0,1,.21.28A.34.34,0,0,1,113.29,92.67Z"/><path class="af_cls-4" d="M119.32,79.58c-1.35.8-2.75,1-2.46,1.85.11.37,1.1,0,2.11-.84l0-.19A1.61,1.61,0,0,1,119.32,79.58Z"/><path class="af_cls-4" d="M119.63,80.64c.11-.92,1.1-1.81,1-2.65-.44.61-1,1.11-1.31,1.59a1.61,1.61,0,0,0-.34.82l0,.19a6.62,6.62,0,0,1-.37,1.59C119.28,82,119.45,81.95,119.63,80.64Z"/><path class="af_cls-4" d="M121.12,78.59a4.35,4.35,0,0,1,.63-1.93,1.85,1.85,0,0,0-1.06,1.86,4.13,4.13,0,0,1-.69,2.32C120.87,81,121,79.6,121.12,78.59Z"/><path class="af_cls-4" d="M124.1,56.11c.08.6.57.65.43-.19a3.92,3.92,0,0,1,0-1.75,5.58,5.58,0,0,0,0-2.37c-.15-.52-.63-.22-.43.19a3.33,3.33,0,0,1,.08,1.92A5.77,5.77,0,0,0,124.1,56.11Z"/><path class="af_cls-4" d="M125.5,59.68c0-.84.84-1.71.36-3.5a5.68,5.68,0,0,1-.2-2.47c.19-.55-.31-1-.42-.3a7.37,7.37,0,0,0,.09,2.77c.42,1.49-.26,2.38-.29,3.36S125.53,60.33,125.5,59.68Z"/><path class="af_cls-4" d="M126.45,57.43c-.13.54.32.5.39.12a2.6,2.6,0,0,0-.06-1.41,1.51,1.51,0,0,1,.07-1.23c.19-.26-.26-.46-.39-.12a2.5,2.5,0,0,0,0,1.52A1.78,1.78,0,0,1,126.45,57.43Z"/><path class="af_cls-4" d="M124,58.3c.74-.36-.4-2.1-.9-2C122.51,56.68,123.38,58.58,124,58.3Z"/><path class="af_cls-4" d="M120.29,62.07c.3.46.78.19.51-.54a12.38,12.38,0,0,0-.51-1.51,8.4,8.4,0,0,0-1.3-1.38c-.36-.36-.65,0-.32.3a8.77,8.77,0,0,1,1.06,1.3C120.16,61,120,61.59,120.29,62.07Z"/><path class="af_cls-4" d="M117.8,59a3.07,3.07,0,0,1,.69,1.92c0,.66.65,1.13,1,1.61s.92.18.45-.45-.93-.92-1-1.45a3.86,3.86,0,0,0-.75-2C117.83,58.28,117.42,58.79,117.8,59Z"/><path class="af_cls-4" d="M96.17,89.05a8.35,8.35,0,0,1-1-2.64,5.25,5.25,0,0,0-2-2.58,8.76,8.76,0,0,1,1.44,2.67A4,4,0,0,0,96.17,89.05Z"/><path class="af_cls-4" d="M92.06,83.84a8.56,8.56,0,0,1,1.1,2.64,4.28,4.28,0,0,0,1.75,2.45,9,9,0,0,1-1.2-2.58A4.6,4.6,0,0,0,92.06,83.84Z"/><path class="af_cls-4" d="M106.82,86.49A8.54,8.54,0,0,1,108,83.84a4.62,4.62,0,0,0-1.69,2.53A9.06,9.06,0,0,1,105,89,4.31,4.31,0,0,0,106.82,86.49Z"/><path class="af_cls-4" d="M105.41,86.52a8.76,8.76,0,0,1,1.47-2.68,5.28,5.28,0,0,0-2.07,2.59,8.3,8.3,0,0,1-1.07,2.65A4.05,4.05,0,0,0,105.41,86.52Z"/><path class="af_cls-4" d="M103.68,86.92a3.76,3.76,0,0,0,.12-.66.36.36,0,0,0-.24-.38c-.29-.11-.57-.19-.85-.28a.38.38,0,0,0-.5.31c0,.25,0,.47,0,.66s.06.26.21.29a2,2,0,0,1,.79.25C103.4,87.22,103.59,87.13,103.68,86.92Z"/><path class="af_cls-4" d="M100.74,87.15a2,2,0,0,1,.8-.22c.14,0,.13-.05.14-.29s0-.44,0-.69-.08-.22-.37-.21a1.77,1.77,0,0,0-.78.12.38.38,0,0,0-.2.4,5.46,5.46,0,0,1,0,.69A.23.23,0,0,0,100.74,87.15Z"/><path class="af_cls-4" d="M96.71,87.06a2,2,0,0,1,.8-.25c.15,0,.2-.05.21-.29s0-.41,0-.66a.38.38,0,0,0-.51-.31c-.29.08-.57.17-.86.28a.36.36,0,0,0-.25.38,3.65,3.65,0,0,0,.12.66A.32.32,0,0,0,96.71,87.06Z"/><path class="af_cls-4" d="M98.24,85.91c0,.25,0,.5,0,.69s0,.26.15.29a2,2,0,0,1,.8.21.23.23,0,0,0,.38-.2,6.06,6.06,0,0,1,0-.69.37.37,0,0,0-.2-.4,1.8,1.8,0,0,0-.78-.12C98.32,85.69,98.24,85.76,98.24,85.91Z"/><path class="af_cls-4" d="M97.69,89.13c0-.45-.7-.76-1.32-1.32C96.69,88.4,97,89.29,97.69,89.13Z"/><path class="af_cls-4" d="M99.82,89.19c-.14-.79-1.22-.67-2.48-1.18C98.21,88.83,98.64,89.32,99.82,89.19Z"/><path class="af_cls-4" d="M103.52,87.89c-.63.52-1.35.82-1.34,1.24C102.84,89.28,103.2,88.44,103.52,87.89Z"/><path class="af_cls-4" d="M102.64,88.05c-1.28.49-2.38.37-2.52,1.12C101.31,89.3,101.75,88.84,102.64,88.05Z"/><path class="af_cls-4" d="M109.15,75.49h-2.75a3.38,3.38,0,0,1-1,2.79h5.26A3.73,3.73,0,0,1,109.15,75.49Z"/><path class="af_cls-6" d="M113.1,92.12h0a19.43,19.43,0,0,1-3.85-3.42.5.5,0,0,0-.49-.17,2.35,2.35,0,0,0-.54.13,25.16,25.16,0,0,1-8.43,1.75,22.24,22.24,0,0,1-8.19-1.82.75.75,0,0,0-.48,0,1,1,0,0,0-.44.23,37.76,37.76,0,0,1-3.88,3.4.43.43,0,0,0,.17.71h0c2.73,1,5.39,2.8,13,2.73S110.41,93.8,112.86,93a.78.78,0,0,0,.43-.32.34.34,0,0,0,0-.27A.61.61,0,0,0,113.1,92.12Zm.05.47a.69.69,0,0,1-.35.25c-2.47.83-5.15,2.6-12.83,2.67s-10.22-1.74-13-2.73a.29.29,0,0,1-.13-.45,38.35,38.35,0,0,0,3.9-3.41.82.82,0,0,1,.36-.19.67.67,0,0,1,.4,0,22.28,22.28,0,0,0,8.23,1.84,25.37,25.37,0,0,0,8.49-1.76,2.21,2.21,0,0,1,.5-.13.37.37,0,0,1,.36.1A19.39,19.39,0,0,0,113,92.23a.5.5,0,0,1,.16.22A.16.16,0,0,1,113.15,92.59Z"/><path class="af_cls-4" d="M89.85,44.95c-.79,0-1.14-1.31-1.22-1.2A1.39,1.39,0,0,0,89,45.13,2.18,2.18,0,0,0,91.2,45a2.35,2.35,0,0,0,1-2,4.47,4.47,0,0,0-.48-1.35l-.41.27a3.32,3.32,0,0,1,.46,1.49A1.93,1.93,0,0,1,89.85,44.95Z"/><path class="af_cls-4" d="M90.64,39.06c.08-.62-.62-.59-.6-.14a7.09,7.09,0,0,0,1.1,2.59l.4-.29A5.66,5.66,0,0,1,90.64,39.06Z"/><path class="af_cls-4" d="M83.29,46.43c0-.11-.57-.11-.61,0s.15.57.36.6S83.35,46.58,83.29,46.43Z"/><path class="af_cls-4" d="M84.57,48.6c.24-.39-.24-1.8,0-2s.93.94,1.31,1c.88.12.67-1.52,1.63-1.41.65.09.72-.73.63-1.23s-.86-1.19-1.22-1.51-.69.29-.39.52a3.87,3.87,0,0,1,1.17,1.35c.05.19-.47.58-.66.48-.44-.24-.86-1.28-1.24-1.52a.28.28,0,0,0-.3.43c.17.35,1,.88,1,1.26s-.35,1.07-.6,1.07-1-.88-1.22-1.3a.3.3,0,0,0-.54.09,7.5,7.5,0,0,0,.16,1.83c.08.51-.29.54-.48.36s-.52.24-.21.51S84.39,48.9,84.57,48.6Z"/><path class="af_cls-4" d="M82.95,44.78a2.21,2.21,0,0,0-.51.44c-.11.13.26.37.33.31s.7-.76.59-1-.86-.63-1-.42C82.15,44.51,83.1,44.67,82.95,44.78Z"/><path class="af_cls-4" d="M84.24,42.92c.16-.24-.43-.48-.43-.48S84,43.26,84.24,42.92Z"/><path class="af_cls-4" d="M84,44.09c.25.15.95.27.8-.22-.09-.29,1,0,.77-.78a1.21,1.21,0,0,0-.58-.57c-.11,0-.47.17-.24.28s.66.38.48.57-.36-.09-.62,0,0,.4-.12.5-.23-.13-.3-.09S83.87,44,84,44.09Z"/><path class="af_cls-4" d="M85.77,41.46a1.06,1.06,0,0,0,.39-.61c0-.11-.07-.26-.16-.21a1.16,1.16,0,0,0-.41.64C85.59,41.37,85.69,41.5,85.77,41.46Z"/><path class="af_cls-4" d="M89.32,44c.29.36.54.15.3-.35-.34-.74-2-2.91-2.14-3.33-.26-.67-.82-.17-.55.16C87.8,41.65,88.48,43,89.32,44Z"/><path class="af_cls-4" d="M88.51,40.36c0,.08.06.28.11.22.3-.32.89-1,.73-1.33A.39.39,0,0,0,88.8,39c-.36.43.25.32.17.46A4.41,4.41,0,0,0,88.51,40.36Z"/><path class="af_cls-4" d="M116.16,42.33c.32-.45-.18-.77-.38-.41s-.26.47-.4.74c.05.21.1.44.15.67A8.86,8.86,0,0,1,116.16,42.33Z"/><path class="af_cls-4" d="M113.09,46.39c-.83.53-.58-.68-.61-1a.46.46,0,0,0-.79-.3,1.82,1.82,0,0,1-1.2.39c-.25,0-.46,0-.57-.45-.07-.26-.47-.64-.43.05.08,1.26,1.81.86,2.33.41s.06,1.42.7,1.62c.35.11,1-.36,1.32-.78a16.11,16.11,0,0,0,1.39-2.4c0-.2-.11-.4-.16-.59A8.77,8.77,0,0,1,113.09,46.39Z"/><path class="af_cls-4" d="M93.18,42c-.23.15.09.67.26.56S93.36,41.88,93.18,42Z"/><path class="af_cls-4" d="M93.65,40.89A3.65,3.65,0,0,0,94.87,40c.07-.1-.14-.31-.26-.25a3.93,3.93,0,0,0-1.17,1.08C93.38,40.87,93.56,40.93,93.65,40.89Z"/><path class="af_cls-4" d="M115.69,47.23S116,47,116,47c-.05-.52-.12-1.09-.19-1.66l-.28.48A12.31,12.31,0,0,1,115.69,47.23Z"/><path class="af_cls-4" d="M115.06,43.31c.06.19.11.39.16.59.11.43.19.88.26,1.31l.28-.49c-.07-.48-.15-.95-.24-1.39,0-.23-.09-.45-.15-.67a4.39,4.39,0,0,0-.71-1.69c-.28-.33-.7.5-.49.67A3.63,3.63,0,0,1,115.06,43.31Z"/><path class="af_cls-4" d="M99.86,40.92a7.9,7.9,0,0,1,1.58-.17c.59-.07.71-.59.14-.51A5.68,5.68,0,0,1,98.85,40c-.16-.18.88-1,1.5-1.06a.77.77,0,0,0,.63-1.27c-.26-.26-.9-.1-.89.12,0,.43.59.1.53.42s-.42.35-.79.33-1.39,1-1.53,1.27-.18.53.09.61,1.39.13,1.11.24a2.41,2.41,0,0,0-.92.9l.25.41C99.09,41.61,99.37,41.07,99.86,40.92Z"/><path class="af_cls-4" d="M96.17,39.95c-.45-.33-1,.14-.57.48a.6.6,0,0,1,.15.82,9.12,9.12,0,0,1-.78,1,.94.94,0,0,0,.2.36C96,41.55,96.73,40.37,96.17,39.95Z"/><path class="af_cls-4" d="M94.65,42.67a12.75,12.75,0,0,1-1.12,1.08c-.28.25-.09.84.13.61s.77-.8,1.18-1.29A.87.87,0,0,1,94.65,42.67Z"/><path class="af_cls-4" d="M93.09,40a1.93,1.93,0,0,1,.83-1.17c.35-.13.85.63,1.18,0,.19-.34.87.23,1-.14a2.27,2.27,0,0,0,.11-1.12c0-.28-.23-.36-.38.09-.08.21,0,.41-.05.52s-.21.16-.3.09,0-.24-.22-.31-.2-.07-.26,0c-.24.42-.37.82-.7.37s-.44-1.05-.66-.14a1.27,1.27,0,0,1-.86.79c-.36,0-.27-1-1.06-.81-.41.09-.38.87-.32,1.16s1.29.11,1.23.38a2.85,2.85,0,0,1-1.14,1.45l-.4.29a9.59,9.59,0,0,1-1,.58c-.33.18.05.54.3.39l.91-.56.41-.27A3,3,0,0,0,93.09,40Zm-1.22-.85c-.08-.07,0-.53,0-.52a1,1,0,0,1,.48.63C92.37,39.36,92,39.28,91.88,39.18Z"/><path class="af_cls-4" d="M95,42.3a4.45,4.45,0,0,1-.14-1.2c0-.38-.32-.31-.3,0a7.82,7.82,0,0,0,.12,1.6.87.87,0,0,0,.19.4.29.29,0,0,0,.12.08c1.76.49,2.62-1.22,3-1.15.2,0,.61,1,1,1.33.58.37.78.13.54-.27L98.83,42l-.25-.41a10.78,10.78,0,0,1-1.37-3.17c-.09-.41-.72-.2-.47.38s1.15,2,.91,2.62a3.12,3.12,0,0,1-2.12,1.42.53.53,0,0,1-.36-.17A.94.94,0,0,1,95,42.3Z"/><path class="af_cls-4" d="M97.95,37.84a1.5,1.5,0,0,0,.84-.57c.06-.13,0-.39-.15-.25s-.75.37-.85.58A.16.16,0,0,0,97.95,37.84Z"/><path class="af_cls-4" d="M99.44,37.8a3.42,3.42,0,0,0,1-1.1c0-.14-.22-.21-.36-.12a2.73,2.73,0,0,0-.83,1.1C99.18,37.76,99.34,37.89,99.44,37.8Z"/><path class="af_cls-4" d="M98.52,38.32c-.19.27-.33.18-.52.26s0,.23,0,.26a1,1,0,0,0,.65,0C98.89,38.7,98.8,37.89,98.52,38.32Z"/><path class="af_cls-4" d="M102.53,38.53c.18-.15.46-.33.48-.53s-.14-.39-.25-.28-.29.44-.48.61S102.38,38.64,102.53,38.53Z"/><path class="af_cls-4" d="M104.46,38.15c.3-.09.23-.62,0-.59S104.27,38.22,104.46,38.15Z"/><path class="af_cls-4" d="M104.37,39.62c.42,0,.79,0,.79-.41s-.24-.81-.31-.52-.11.73-.27.53-.09-.21-.35.07-.16-.07-.25-.22-.27.07-.27.13C103.71,39.68,103.94,39.64,104.37,39.62Z"/><path class="af_cls-4" d="M102.55,41c-.38.7-1.18,2-1.56,2s-.41-.86-.3-1.48c.05-.33-.28-.2-.46.31s.29,1.85.76,1.91.94-1.6,1.33-1.58-.26,1.69.89,1.77c.3,0,.66-.56,1-.54s.58.49,1,.48a1.13,1.13,0,0,0,1-1.23c0-.51.42-1.16.18-1.56-.34-.58-1-.64-.71-.21.41.68.09,1.29,0,1.9a.56.56,0,0,1-1.1.18,24.68,24.68,0,0,1,.05-2.47c0-.38-.35-.29-.4.11a9.59,9.59,0,0,1-.13,2.18c-.14.3-1,.71-1.11.5A4.1,4.1,0,0,1,103,41C103.17,40.56,102.78,40.63,102.55,41Z"/><path class="af_cls-4" d="M106.23,38.93A5.68,5.68,0,0,1,107.9,41c0,.07-.64,2.36-.74,2.82s.37.63.44.3c.25-1,.31-1.35.55-2.54a18.32,18.32,0,0,0,.81,2c.05.08.51.34.41,0a15.38,15.38,0,0,0-1.08-2.56c0-.08.55-2,.58-2.19.09-.51-.39-.64-.5-.24s-.15,1.73-.39,1.65-.9-1.62-1.43-2.25C106.27,37.71,105.67,38.59,106.23,38.93Z"/><path class="af_cls-4" d="M107.24,44.39c-.16,0-.4.35.38.49a2.12,2.12,0,0,0,2.52-1.18c.4-1.21.66-2.36.87-2.79s.59-.46.35-1.2c-.17-.53-.5-.37-.56-.09-.18.77-.87,3.27-1.09,3.73C109.3,44.19,108.48,44.52,107.24,44.39Z"/><path class="af_cls-4" d="M109.4,41c.23,0,.71,0,.71-.37s-.21-.49-.36-.19-.34.24-.43,0-.37-.05-.32.21A.39.39,0,0,0,109.4,41Z"/><path class="af_cls-4" d="M109.66,39.75a2.29,2.29,0,0,0,1.08-.3c.08-.05,0-.23-.06-.23a2.39,2.39,0,0,0-1.1.18C109.5,39.46,109.57,39.76,109.66,39.75Z"/><path class="af_cls-4" d="M111,44.32c.23-.41,1.92-3.67,2.09-4,.24-.55-.43-.51-.68-.12-.08.11-1.45,3.58-1.69,4S110.79,44.79,111,44.32Z"/><path class="af_cls-4" d="M113,42.66c0-.07-.37-.1-.35.26a.34.34,0,0,0,.39.3C113.55,42.86,112.94,43,113,42.66Z"/><path class="af_cls-4" d="M112.27,44.13c-.1,0-.19.34,0,.36s1.06-.08,1.29-.06.21-.29-.12-.28S112.58,44.08,112.27,44.13Z"/><path class="af_cls-4" d="M114.66,46.75c-.15.45.21.61.32.26a8.46,8.46,0,0,1,.59-1.22l.28-.48a10.24,10.24,0,0,1,1.2-1.73c.53-.49,0-1.39-.14-1.06a24.29,24.29,0,0,1-1.15,2.19l-.28.49C115.08,46,114.72,46.59,114.66,46.75Z"/><path class="af_cls-4" d="M113.77,47.55c-.3-.23-.47.24-.37.31a2.76,2.76,0,0,0,1.59.4c1.8-.32,2.15-2.44,3.28-3.56.74-.74-.1-2.23-.44-.93a8.35,8.35,0,0,1-2.24,3.82A1.65,1.65,0,0,1,113.77,47.55Z"/><path class="af_cls-4" d="M101.39,48.79c-.53-.27-.58.07-.81.12a.39.39,0,0,0-.21.63c.19.09.47.12.58-.44,0-.23.09,1.15.6.62.29-.32,1,.06,1.32-.35a.7.7,0,0,0,.12-.86c0-.12-.35-.06-.33.23s-.18.55-.43.5.07-.61-.05-.77a.14.14,0,0,0-.23,0c-.09.13.09.69-.21.76S101.55,48.87,101.39,48.79Z"/><path class="af_cls-4" d="M104.19,47.53c-.44.36-.35.36-.63.44s0,.29,0,.44a7.72,7.72,0,0,0,0,1.09c0,.11.25.12.28,0a5.84,5.84,0,0,1,.13-1.24c.09-.22.4,0,.43-.3S104.36,47.4,104.19,47.53Z"/><path class="af_cls-4" d="M102.14,47.17c0-.05-.21-.12-.23-.06a3.22,3.22,0,0,0-.06.76c0,.17.32.06.32,0C102.16,47.64,102.22,47.27,102.14,47.17Z"/><path class="af_cls-4" d="M98.66,46.93a10,10,0,0,0-1.41,1.16c-.16.17-.23.78-.39.86s-.21-.42-.52-.38-.27.63-1,.71c-.22,0,.21.48.44.49s.36-.36.53-.63.17.25.35.37a.47.47,0,0,0,.56-.29c.11-.27.1-.57.28-.79a9.29,9.29,0,0,1,1.35-1.11C99.11,47.1,98.92,46.73,98.66,46.93Z"/><path class="af_cls-4" d="M98.64,49.36c.11-.47,0-.72.11-1.2,0-.13.27-.12.35-.21a.14.14,0,0,0,0-.22.76.76,0,0,0-.8.14c-.19.12,0,.37.13.41s-.12.71-.14,1.19S98.54,49.81,98.64,49.36Z"/><path class="af_cls-4" d="M129.63,66.28a4.4,4.4,0,0,0-.72,1.67c0,.12.29.29.37.2a4.71,4.71,0,0,0,.87-1.69C130.18,66.32,129.73,66.16,129.63,66.28Z"/><path class="af_cls-4" d="M97.05,84.23a3.47,3.47,0,0,1,0,.58h.14a5.82,5.82,0,0,0,.09-.84,2.84,2.84,0,0,0,0-.51,2.73,2.73,0,0,0-.12-.47,2,2,0,0,0-.17-.38,4.45,4.45,0,0,0-.27-.37l-.27.67a4,4,0,0,1,.31.44,2.07,2.07,0,0,1,.18.4A2.77,2.77,0,0,1,97.05,84.23Z"/><path class="af_cls-4" d="M99.44,82.25h-.13c0,.27-.12.4-.37.4a.49.49,0,0,1-.3-.09,1.44,1.44,0,0,1-.29-.33l-.21.63a5.92,5.92,0,0,1,.33.51,3.31,3.31,0,0,1,.21.46l.12.31a1.67,1.67,0,0,1,.07.3,2.62,2.62,0,0,1,0,.38H99c0-.16,0-.29,0-.39a2.47,2.47,0,0,0,0-.27,2.11,2.11,0,0,0,0-.36,4.47,4.47,0,0,0-.11-.45.68.68,0,0,0,.4-.22.76.76,0,0,0,.12-.46c0-.08,0-.14,0-.2S99.44,82.33,99.44,82.25Z"/><path class="af_cls-4" d="M101.1,83.25a6.07,6.07,0,0,0,0-.62.61.61,0,0,0-.11-.29.32.32,0,0,0-.28-.11.58.58,0,0,0-.47.32,1.31,1.31,0,0,0-.21.72.38.38,0,0,0,.15.31.59.59,0,0,0,.38.12,1.35,1.35,0,0,0,.32-.05,3.75,3.75,0,0,0,0,.51,1.33,1.33,0,0,0,.11.41.41.41,0,0,0,.24.24l.16-.66a1,1,0,0,1-.25-.32A1.78,1.78,0,0,1,101.1,83.25Zm-.49-.17c-.21,0-.32,0-.32-.13s0-.06.08-.09a.32.32,0,0,1,.18-.05c.15,0,.24.08.26.25Z"/><path class="af_cls-4" d="M102.55,82.92a7.7,7.7,0,0,0,.42,1.28,1.47,1.47,0,0,0,.43.6l.08-.8a4.49,4.49,0,0,1-.35-.42,2.46,2.46,0,0,1-.27-.51,6.68,6.68,0,0,1-.26-.83h-.14a6.3,6.3,0,0,1-.15.83,2.33,2.33,0,0,1-.21.54,5,5,0,0,1-.31.45l0,.76a.93.93,0,0,0,.25-.21,1.91,1.91,0,0,0,.23-.52Q102.37,83.71,102.55,82.92Z"/><path class="af_cls-5" d="M108.45,91.53a2.52,2.52,0,0,0-.92-.75,1.36,1.36,0,0,0-1-.2c-.18.06-.27.24-.26.55a1.2,1.2,0,0,0,.2.68.62.62,0,0,0,.4.23,1,1,0,0,0,.54,0,.8.8,0,0,0,.33-.19.44.44,0,0,0,.14-.3.85.85,0,0,1,.27.18,2.12,2.12,0,0,1,.21.27l-2,.62h0l-.09,0h-.18a.48.48,0,0,1-.17,0,1.42,1.42,0,0,0,.12-.35.4.4,0,0,0,0-.24.61.61,0,0,0-.46-.28,2.12,2.12,0,0,0-.83.05.86.86,0,0,0-.6.34.68.68,0,0,0,.1.64l.16,0a.17.17,0,0,1,0-.08l.06,0a.43.43,0,0,1,.24,0,1.92,1.92,0,0,1,.29.15,1.64,1.64,0,0,1-.27.16,2.77,2.77,0,0,1-.4.11l-.08,0-.34.05a.34.34,0,0,1-.31-.11,2,2,0,0,1-.36-.66l-.17-.46a1.41,1.41,0,0,0-.73-.85l-.07.28-.7-.17-.33.58.92.21.12-.21.17.09a.75.75,0,0,1,.23.34l.25.67a1.68,1.68,0,0,0,.52.8.91.91,0,0,0,.69.13l.15,0v0l.24-.06.11,0h0a2.28,2.28,0,0,0,.5-.17,1,1,0,0,0,.45-.39,1.11,1.11,0,0,0,.47.16,1.62,1.62,0,0,0,.53,0l.52-.12,0,0,2-.61Zm-1.22-.12a.34.34,0,0,1-.13.08.42.42,0,0,1-.19,0,.19.19,0,0,1-.12-.07.15.15,0,0,1,0-.16.21.21,0,0,1,.14-.11.35.35,0,0,1,.18,0,1.21,1.21,0,0,1,.26.09A.69.69,0,0,1,107.24,91.41Z"/><path class="af_cls-5" d="M102.92,93.37a1.77,1.77,0,0,0-.25-.65,1.34,1.34,0,0,0-.47-.39l-.17.6a2.2,2.2,0,0,1,.3.19.71.71,0,0,1,.21.26l-1.28.12v-.11a.93.93,0,0,0,0-.31,1.21,1.21,0,0,0-.12-.28l-.34.27-.09.07a.16.16,0,0,0,0,.1.39.39,0,0,0,.08.18.39.39,0,0,1,0,.14l-.19,0v0l-.14,0-.3-.09a1.41,1.41,0,0,0,.09-.35s0,0,0-.1a.82.82,0,0,0,0-.12l-.15.07L100,93a.14.14,0,0,0-.06.1.39.39,0,0,1-.26.36,1.83,1.83,0,0,1-.65.06l-.46,0a.53.53,0,0,1-.29-.09.22.22,0,0,1-.11-.21c0-.08,0-.15,0-.22l0-.18-.24,0a.64.64,0,0,1-.38.55,1.31,1.31,0,0,1-.53.11,1.63,1.63,0,0,0,.14-.65.86.86,0,0,0-.2-.48l-.5.51a1.51,1.51,0,0,1,.17.25.49.49,0,0,1,0,.29L95,93.13l-.22-.05a.19.19,0,0,1-.16-.21,1.83,1.83,0,0,1,.28-.68l.26-.45a1.48,1.48,0,0,0,.21-.55.86.86,0,0,0-.08-.43l-.7.47a.7.7,0,0,1,.11.22.57.57,0,0,1-.1.36l-.37.64a1.35,1.35,0,0,0-.26.86c0,.17.19.29.46.36l.14,0h0l.14,0,.22.05v0l1.43.23v.1l.53,0a1.6,1.6,0,0,0,.52-.06,1.27,1.27,0,0,0,.48-.27.71.71,0,0,0,.24.29.77.77,0,0,0,.39.1l.61,0a3,3,0,0,0,.51,0,1.76,1.76,0,0,0,.4-.12,3.2,3.2,0,0,0,.53.14,5.09,5.09,0,0,0,.69.06v-.13l1.84-.17Z"/><path class="af_cls-5" d="M109.52,91.53q-.19-.22-.43-.45t-.78-.69l-.83-.68a3.35,3.35,0,0,0,0,.48.57.57,0,0,0,.09.26l.18.15q.4.3.66.53l.5.46c.16.16.28.28.35.37a2.48,2.48,0,0,1,.3.47l.24,0a2.11,2.11,0,0,0-.09-.51A1.18,1.18,0,0,0,109.52,91.53Z"/><path class="af_cls-5" d="M94.09,92l-.77.47a2.57,2.57,0,0,1-.05.52.7.7,0,0,1-.15.29.91.91,0,0,1-.7.21,3.28,3.28,0,0,1-1.11-.21,2.13,2.13,0,0,1-.84-.48c-.16-.18-.18-.35-.06-.49a1.28,1.28,0,0,1,.38-.3c.16-.08.45-.21.86-.37l-.12-.16a7.47,7.47,0,0,0-1.18.49,2.23,2.23,0,0,0-.59.49.49.49,0,0,0,0,.68,2.37,2.37,0,0,0,1.06.62,4.58,4.58,0,0,0,.85.21,2.64,2.64,0,0,0,.73,0,1.3,1.3,0,0,0,.53-.18,2.07,2.07,0,0,0,.48-.44l.36-.42a1.38,1.38,0,0,0,.3-.5A2.11,2.11,0,0,0,94.09,92Z"/><polygon class="af_cls-5" points="106.57 89.75 105.61 89.72 105.54 90.34 106.52 90.37 106.57 89.75"/><polygon class="af_cls-5" points="104.85 90.77 103.89 90.67 103.74 91.28 104.71 91.38 104.85 90.77"/><polygon class="af_cls-5" points="93.73 91.37 93.2 90.83 92.4 91.17 92.94 91.7 93.73 91.37"/><polygon class="af_cls-5" points="96.69 91.74 97.12 92.01 97.7 91.59 97.14 91.25 96.69 91.58 96.22 91.32 95.67 91.71 96.25 92.06 96.69 91.74"/><path class="af_cls-4" d="M95.7,46.93a10.52,10.52,0,0,1,8.25,0h0l2.88-1.43-3,1.14,1.29-1.12-1.81.89,1.44-1.69-2.29,1.48L103.2,45l-1.29,1.1.5-1.83L101,45.94l0-1.27-.67,1.23-.48-1.84-.48,1.84-.67-1.23v1.26l-1.44-1.7.5,1.83L96.47,45l.69,1.24-2.29-1.48,1.46,1.7-1.83-.9,1.31,1.11-3-1.13Z"/></g></g></svg>
