<svg xmlns="http://www.w3.org/2000/svg" viewBox="0 0 200 134"><defs><style>.ai_cls-1{fill:#21205f;}.ai_cls-2{fill:#fff;}.ai_cls-3{fill:#cb2026;}.ai_cls-4{fill:#cccc32;}.ai_cls-5{fill:#9fc9eb;}.ai_cls-6{fill:#f8991d;}</style></defs><title>Asset 8</title><g id="Layer_2" data-name="Layer 2"><g id="Layer_93" data-name="Layer 93"><path class="ai_cls-1" d="M41.21,0H17a16.94,16.94,0,0,0-4.13.53L41.21,14.7Z"/><path class="ai_cls-1" d="M183,0H100V5L77.67,16.13H100v16.8H77.67L100,44.09v5.63H88.73L58,34.36V49.73H41.21V34.36L10.49,49.73H0V117a17,17,0,0,0,17,17H183a17,17,0,0,0,17-17V17A17,17,0,0,0,183,0ZM161.45,66.18c-6.2,6.2-8.74,7.53-10.94,8.74-1.91-1-4.5-2.13-11.34-9s-8.84-15.73-8.84-40.73c3.9,1.27,5.56,2.12,10.81,1.9a16.14,16.14,0,0,0,8.81-2.58c2.67,1.21,7.12,3.06,10,2.78,3.9,0,6.12-.62,10.58-2.53C170.54,51.2,167.58,60,161.45,66.18Z"/><path class="ai_cls-1" d="M3.28,7A16.89,16.89,0,0,0,0,16.13H21.55Z"/><polygon class="ai_cls-1" points="0 32.93 0 43.7 21.55 32.93 0 32.93"/><polygon class="ai_cls-1" points="87.41 0 58.01 0 58.01 14.7 87.41 0"/><polygon class="ai_cls-2" points="21.55 32.93 0 43.7 0 49.34 32.82 32.93 21.55 32.93"/><polygon class="ai_cls-2" points="100 45.97 100 44.09 77.67 32.93 73.92 32.93 100 45.97"/><polygon class="ai_cls-2" points="58.01 32.93 58.01 34.36 88.73 49.73 100 49.73 66.41 32.93 58.01 32.93"/><polygon class="ai_cls-2" points="40.33 32.93 6.73 49.73 10.49 49.73 41.21 34.36 41.21 32.93 40.33 32.93"/><polygon class="ai_cls-2" points="58.01 16.13 58.9 16.13 91.16 0 87.41 0 58.01 14.7 58.01 16.13"/><path class="ai_cls-2" d="M25.3,16.13,4.36,5.66Q3.79,6.3,3.28,7l18.27,9.14Z"/><polygon class="ai_cls-2" points="54.65 19.49 100 19.49 100 16.13 77.67 16.13 66.41 16.13 58.9 16.13 58.01 16.13 58.01 14.7 58.01 0 54.65 0 54.65 19.49"/><path class="ai_cls-2" d="M44.57,19.49V0H41.21V16.13H0c0,.29,0,.57,0,.87v2.49Z"/><path class="ai_cls-2" d="M41.21,16.13V14.7L12.87.53A16.87,16.87,0,0,0,7,3.25L32.82,16.13Z"/><polygon class="ai_cls-2" points="98.67 0 66.41 16.13 77.67 16.13 100 4.97 100 0 98.67 0"/><polygon class="ai_cls-2" points="54.65 49.73 58.01 49.73 58.01 34.36 58.01 32.93 66.41 32.93 73.92 32.93 77.67 32.93 100 32.93 100 29.57 54.65 29.57 54.65 49.73"/><polygon class="ai_cls-2" points="0 32.93 21.55 32.93 32.82 32.93 40.33 32.93 41.21 32.93 41.21 34.36 41.21 49.73 44.57 49.73 44.57 29.57 0 29.57 0 32.93"/><polygon class="ai_cls-3" points="44.57 29.57 44.57 49.73 54.65 49.73 54.65 29.57 100 29.57 100 19.49 54.65 19.49 54.65 0 44.57 0 44.57 19.49 0 19.49 0 29.57 44.57 29.57"/><polygon class="ai_cls-3" points="40.33 32.93 32.82 32.93 0 49.34 0 49.73 6.73 49.73 40.33 32.93"/><polygon class="ai_cls-3" points="66.41 16.13 98.67 0 91.16 0 58.9 16.13 66.41 16.13"/><path class="ai_cls-3" d="M32.82,16.13,7,3.25A17,17,0,0,0,4.36,5.66L25.3,16.13Z"/><polygon class="ai_cls-3" points="66.41 32.93 100 49.73 100 45.97 73.92 32.93 66.41 32.93"/><path class="ai_cls-4" d="M149.95,24.53a16.14,16.14,0,0,1-8.81,2.58c-5.24.22-6.91-.63-10.81-1.9,0,25,2,33.87,8.84,40.73s9.43,7.93,11.34,9c2.2-1.21,4.74-2.54,10.94-8.74s9.1-15,9.1-41.39c-4.46,1.91-6.68,2.54-10.58,2.53C157.07,27.59,152.61,25.74,149.95,24.53Zm19.64,1.72c0,8.13-.37,19.05-1.68,24s-1.41,6.82-3.18,9.9l-6,0h5.93c-2.37,4-10.88,11.75-14.1,13.6-2.79-1.61-12.21-9.29-14.42-13.44H136c-1.23-2.14-1.61-3-3.25-9.16s-1.18-16.64-1.18-24.37c4.21,1.86,7.07,1.59,10.61,1.42,4.54-.18,5.5-.9,8.25-2.47a20.77,20.77,0,0,0,8.84,2.56A18.59,18.59,0,0,0,169.59,26.25Z"/><path class="ai_cls-2" d="M150.4,25.74c-2.75,1.57-3.71,2.29-8.25,2.47-3.54.17-6.4.44-10.61-1.42,0,7.73-.46,18.27,1.18,24.37s2,7,3.25,9.16h.16l-.1-.17h22.69l6,0c1.78-3.08,1.87-5,3.18-9.9s1.64-15.82,1.68-24a18.59,18.59,0,0,1-10.35,2A20.77,20.77,0,0,1,150.4,25.74Zm-7.12,29.07c-1,.06-2.15,1.88-4.84,1.08,1.33-.72,2.2-1.45,2.33-2.6-2.37-1.65-1.58-7-3.87-9.28-.6-.65-2.73-1.71-2.22-2.74,1.57.27,2.36,1.92,3.48,1.75,1-.92.66-2.94,2.44-3.51-.26,3.29-1.17,2.36-1.17,4.65s3.47,6.57,6.89,5.75c.83-.79.68-.91,0-3.28,1.91.95,1.7,1.05,2.16,2.45,1.41-.09,4.93-1.31,7.23-1,1.16.17-1.41,1.77-2.49,2.17-1.61.7-1,.87-2.57,2.5C148.58,54.9,145.84,54.72,143.27,54.81ZM163.55,45c.59.81,2.79.79,3.46,3.4-1.34-.72-2.44-1.05-3.54-.56-.27,2.79-5.48,4.9-6.35,7.94-.28.83-.13,3.11-1.32,3.22-.57-1.42.51-2.92-.22-3.75-1.34-.35-3,1-4.41-.18,3.1-1.48,2.72-.26,4.79-1.44s4.12-6.22,1.62-8.59c-1.14-.27-1.17-.08-2.95,1.69-.13-2,.07-1.93,1.09-3-.8-1.1-3.72-3.35-4.62-5.39-.44-1,2.32.24,3.23.92,1.46,1,1.29.35,3.57.81C160.9,40.57,162.14,42.91,163.55,45Zm-2.73-11.71c-1,1.14-2.95.94-3.37,1.94.3,1.3,2.3,2.06,1.89,3.8-2.82-1.92-1.51-2.17-3.57-3.36s-7.69-.57-8.73,2.65c.28,1.09.47,1,2.94,1.7-1.84,1.07-1.82.84-3.32.5-.65,1.19-1.37,4.7-2.84,6.42-.75.86-.86-2.07-.66-3.15.2-1.68-.28-1.25-.91-3.39-.84-2.81.74-5,2-7.1.48-.88-.57-2.72,1.53-4.5,0,1.46.16,2.55,1.13,3.24,2.71-1.08,7.11,2.33,10.33,1.64C158.11,33.48,160.16,32.3,160.82,33.25Z"/><path class="ai_cls-5" d="M136.13,60.32c2.21,4.15,11.63,11.83,14.42,13.44,3.22-1.86,11.73-9.64,14.1-13.6H136Z"/><path class="ai_cls-6" d="M154.33,39.15c-.91-.67-3.67-2-3.23-.92.91,2,3.82,4.29,4.63,5.39-1,1.1-1.22,1-1.09,3,1.77-1.77,1.8-2,2.95-1.69,2.5,2.38.45,7.48-1.62,8.59s-1.69,0-4.79,1.44c1.42,1.16,3.06-.17,4.41.18.73.83-.35,2.33.22,3.75,1.19-.11,1-2.39,1.32-3.22.87-3,6.08-5.15,6.35-7.94,1.1-.49,2.2-.15,3.54.56-.67-2.61-2.87-2.58-3.46-3.4-1.41-2-2.65-4.38-5.65-5C155.62,39.51,155.79,40.1,154.33,39.15ZM157.18,41a.45.45,0,1,1,.47-.45A.46.46,0,0,1,157.18,41Z"/><ellipse class="ai_cls-2" cx="157.18" cy="40.56" rx="0.48" ry="0.45"/><path class="ai_cls-6" d="M146.89,32c-1-.7-1.17-1.78-1.13-3.24-2.11,1.78-1.05,3.62-1.53,4.5-1.24,2.14-2.83,4.28-2,7.1.64,2.14,1.11,1.71.91,3.39-.2,1.08-.09,4,.66,3.15,1.47-1.72,2.19-5.23,2.84-6.42,1.5.34,1.48.57,3.32-.5-2.47-.67-2.66-.61-2.94-1.7,1-3.22,6.73-3.87,8.73-2.65s.75,1.44,3.57,3.36c.41-1.74-1.59-2.5-1.89-3.8.43-1,2.32-.8,3.37-1.94-.66-.95-2.71.24-3.61.39C154,34.33,149.59,30.92,146.89,32Zm-3.54,9.08a.49.49,0,0,1-.64-.19.44.44,0,0,1,.2-.61.49.49,0,0,1,.64.19A.44.44,0,0,1,143.34,41.08Z"/><path class="ai_cls-2" d="M142.9,40.28a.44.44,0,0,0-.2.61.49.49,0,0,0,.64.19.44.44,0,0,0,.2-.61A.49.49,0,0,0,142.9,40.28Z"/><path class="ai_cls-6" d="M153.24,50.26c1.07-.4,3.64-2,2.49-2.17-2.3-.31-5.83.92-7.23,1-.47-1.4-.25-1.51-2.16-2.45.68,2.36.83,2.48,0,3.28-3.42.82-7-3.49-6.89-5.75s.91-1.36,1.17-4.65c-1.77.56-1.43,2.59-2.44,3.51-1.12.17-1.92-1.48-3.48-1.75-.51,1,1.61,2.09,2.22,2.74,2.28,2.27,1.5,7.62,3.87,9.28-.12,1.15-1,1.88-2.33,2.6,2.69.8,3.8-1,4.84-1.08,2.56-.09,5.3.09,7.4-2C152.26,51.14,151.63,51,153.24,50.26Zm-2.32,1.84a.49.49,0,0,1-.65.16.44.44,0,0,1-.16-.62.49.49,0,0,1,.65-.16A.44.44,0,0,1,150.91,52.1Z"/><path class="ai_cls-2" d="M150.75,51.48a.49.49,0,0,0-.65.16.44.44,0,0,0,.16.62.49.49,0,0,0,.65-.16A.44.44,0,0,0,150.75,51.48Z"/></g></g></svg>
