<svg xmlns="http://www.w3.org/2000/svg" viewBox="0 0 200 134"><defs><style>.an_cls-1{fill:#fafafa;}.an_cls-2{fill:#db2c32;}.an_cls-3{fill:#272870;}.an_cls-4{fill:#fff;}</style></defs><title>Asset 34</title><g id="Layer_2" data-name="Layer 2"><g id="Layer_67" data-name="Layer 67"><path class="an_cls-1" d="M0,89.44V117a17,17,0,0,0,17,17H77.56V89.44Z"/><path class="an_cls-1" d="M122.44,134H183a17,17,0,0,0,17-17V89.44H122.44Z"/><path class="an_cls-1" d="M77.56,0H17A17,17,0,0,0,0,17V44.56H77.56Z"/><path class="an_cls-1" d="M183,0H122.44V44.56H200V17A17,17,0,0,0,183,0Z"/><rect class="an_cls-2" x="77.56" width="44.88" height="44.56"/><rect class="an_cls-2" x="77.56" y="89.44" width="44.88" height="44.56"/><path class="an_cls-3" d="M77.56,44.56H0V89.44H200V44.56H77.56ZM73.38,69l-3.3-2.4L66.79,69,68,65.1l-3.3-2.4h4.08l1.26-3.88,1.26,3.88h4.08l-3.3,2.4ZM90.91,86.5l-3.3-2.39-3.3,2.39,1.26-3.88-3.3-2.39h4.08l1.26-3.88,1.26,3.88h4.08l-3.3,2.4ZM103.3,56.58,100,54.18l-3.3,2.39L98,52.7l-3.3-2.39h4.07L100,46.43l1.26,3.88h4.07L102,52.7ZM115.69,86.5l-3.3-2.39-3.3,2.39,1.26-3.88-3.3-2.39h4.08l1.26-3.88,1.26,3.88h4.08l-3.3,2.39Zm14.23-27.67,1.26,3.88h4.07L132,65.1,133.22,69l-3.3-2.39L126.62,69l1.26-3.88-3.3-2.4h4.08Z"/><polygon class="an_cls-4" points="100 46.43 98.74 50.31 99.42 50.31 100 46.43"/><polygon class="an_cls-4" points="99.73 50.31 100.28 50.31 101.26 50.31 100 46.43 99.42 50.31 99.73 50.31"/><polygon class="an_cls-4" points="100.28 50.31 100.28 51.15 100.31 51.14 100.41 51.01 100.46 51.12 105.34 50.31 101.26 50.31 100.28 50.31"/><polygon class="an_cls-4" points="100.46 51.12 100.55 51.28 100.85 51.34 100.72 51.52 101.57 51.24 102.04 52.7 105.34 50.31 100.46 51.12"/><polygon class="an_cls-4" points="100.28 51.15 100.28 51.19 100.31 51.14 100.28 51.15"/><polygon class="an_cls-4" points="94.67 50.31 97.96 52.7 98.17 52.06 94.67 50.31"/><polygon class="an_cls-4" points="100.72 51.52 100.85 51.34 100.55 51.28 100.68 51.53 100.72 51.52"/><polygon class="an_cls-4" points="98.44 51.24 99.32 51.53 99.59 51.01 100 51.57 100.28 51.19 100.28 51.15 100.28 50.31 99.73 50.31 99.42 50.31 98.74 50.31 94.67 50.31 98.17 52.06 98.44 51.24"/><polygon class="an_cls-4" points="101.57 51.24 100.72 51.52 100.68 51.53 100.95 52.06 101.1 52.11 101.02 52.19 103.3 56.58 102.04 52.7 101.57 51.24"/><polygon class="an_cls-4" points="100.31 51.14 100.28 51.19 100 51.57 100.17 51.81 100.95 52.06 100.68 51.53 100.55 51.28 100.46 51.12 100.41 51.01 100.31 51.14"/><polygon class="an_cls-4" points="101.02 52.19 100.69 52.53 101.24 53.28 100 54.19 103.3 56.58 101.02 52.19"/><polygon class="an_cls-4" points="100 51.57 99.59 51.01 99.32 51.53 100.17 51.81 100 51.57"/><polygon class="an_cls-4" points="101.24 53.28 100.69 52.53 96.7 56.58 100 54.19 101.24 53.28"/><polygon class="an_cls-4" points="100.69 52.53 101.02 52.19 101.1 52.11 100.95 52.06 100.17 51.81 99.32 51.53 98.44 51.24 98.17 52.06 97.96 52.7 96.7 56.58 100.69 52.53"/><polygon class="an_cls-4" points="129.92 58.82 128.66 62.7 129.34 62.7 129.92 58.82"/><polygon class="an_cls-4" points="129.65 62.7 130.19 62.7 131.18 62.7 129.92 58.82 129.34 62.7 129.65 62.7"/><polygon class="an_cls-4" points="130.19 62.7 130.19 63.54 130.23 63.53 130.33 63.41 130.38 63.51 135.25 62.7 131.18 62.7 130.19 62.7"/><polygon class="an_cls-4" points="130.38 63.51 130.47 63.68 130.77 63.73 130.64 63.91 131.48 63.64 131.96 65.1 135.25 62.7 130.38 63.51"/><polygon class="an_cls-4" points="130.19 63.54 130.19 63.59 130.23 63.53 130.19 63.54"/><polygon class="an_cls-4" points="124.58 62.7 127.88 65.1 128.09 64.45 124.58 62.7"/><polygon class="an_cls-4" points="130.64 63.91 130.77 63.73 130.47 63.68 130.6 63.92 130.64 63.91"/><polygon class="an_cls-4" points="128.09 64.45 128.35 63.64 129.24 63.93 129.51 63.41 129.92 63.97 130.19 63.59 130.19 63.54 130.19 62.7 129.65 62.7 129.34 62.7 128.66 62.7 124.58 62.7 128.09 64.45"/><polygon class="an_cls-4" points="131.48 63.64 130.64 63.91 130.6 63.92 130.87 64.45 131.03 64.5 130.94 64.59 133.22 68.97 131.96 65.1 131.48 63.64"/><polygon class="an_cls-4" points="130.94 64.59 130.61 64.92 131.16 65.68 129.92 66.58 133.22 68.97 130.94 64.59"/><polygon class="an_cls-4" points="130.09 64.2 130.87 64.45 130.6 63.92 130.47 63.68 130.38 63.51 130.33 63.41 130.23 63.53 130.19 63.59 129.92 63.97 130.09 64.2"/><polygon class="an_cls-4" points="130.09 64.2 129.92 63.97 129.51 63.41 129.24 63.93 130.09 64.2"/><polygon class="an_cls-4" points="131.16 65.68 130.61 64.92 126.62 68.97 129.92 66.58 131.16 65.68"/><polygon class="an_cls-4" points="130.61 64.92 130.94 64.59 131.03 64.5 130.87 64.45 130.09 64.2 129.24 63.93 128.35 63.64 128.09 64.45 127.88 65.1 126.62 68.97 130.61 64.92"/><polygon class="an_cls-4" points="112.39 76.35 111.14 80.23 111.81 80.23 112.39 76.35"/><polygon class="an_cls-4" points="112.12 80.23 112.67 80.23 113.65 80.23 112.39 76.35 111.81 80.23 112.12 80.23"/><polygon class="an_cls-4" points="112.67 80.23 112.67 81.07 112.71 81.06 112.8 80.93 112.86 81.04 117.73 80.23 113.65 80.23 112.67 80.23"/><polygon class="an_cls-4" points="112.86 81.04 112.94 81.2 113.25 81.25 113.11 81.44 113.96 81.16 114.43 82.62 117.73 80.23 112.86 81.04"/><polygon class="an_cls-4" points="112.67 81.07 112.67 81.11 112.71 81.06 112.67 81.07"/><polygon class="an_cls-4" points="107.06 80.23 110.36 82.62 110.56 81.98 107.06 80.23"/><polygon class="an_cls-4" points="113.11 81.44 113.25 81.25 112.94 81.2 113.07 81.45 113.11 81.44"/><polygon class="an_cls-4" points="110.83 81.16 111.72 81.45 111.99 80.93 112.39 81.49 112.67 81.11 112.67 81.07 112.67 80.23 112.12 80.23 111.81 80.23 111.14 80.23 107.06 80.23 110.56 81.98 110.83 81.16"/><polygon class="an_cls-4" points="113.96 81.16 113.11 81.44 113.07 81.45 113.35 81.98 113.5 82.03 113.42 82.11 115.69 86.5 114.43 82.62 113.96 81.16"/><polygon class="an_cls-4" points="112.71 81.06 112.67 81.11 112.39 81.49 112.56 81.73 113.35 81.98 113.07 81.45 112.94 81.2 112.86 81.04 112.8 80.93 112.71 81.06"/><polygon class="an_cls-4" points="113.42 82.11 113.09 82.45 113.64 83.2 112.39 84.1 115.69 86.5 113.42 82.11"/><polygon class="an_cls-4" points="112.39 81.49 111.99 80.93 111.72 81.45 112.56 81.73 112.39 81.49"/><polygon class="an_cls-4" points="113.64 83.2 113.09 82.45 109.1 86.5 112.39 84.1 113.64 83.2"/><polygon class="an_cls-4" points="113.09 82.45 113.42 82.11 113.5 82.03 113.35 81.98 112.56 81.73 111.72 81.45 110.83 81.16 110.56 81.98 110.36 82.62 109.1 86.5 113.09 82.45"/><polygon class="an_cls-4" points="71.34 62.7 70.08 58.82 70.67 62.7 71.34 62.7"/><polygon class="an_cls-4" points="69.81 62.7 70.36 62.7 70.67 62.7 70.08 58.82 68.82 62.7 69.81 62.7"/><polygon class="an_cls-4" points="69.62 63.51 69.68 63.41 69.77 63.53 69.81 63.54 69.81 62.7 68.82 62.7 64.75 62.7 69.62 63.51"/><polygon class="an_cls-4" points="68.52 63.64 69.36 63.91 69.23 63.73 69.53 63.68 69.62 63.51 64.75 62.7 68.04 65.1 68.52 63.64"/><polygon class="an_cls-4" points="69.81 63.54 69.77 63.53 69.81 63.59 69.81 63.54"/><polygon class="an_cls-4" points="71.91 64.45 72.12 65.1 75.42 62.7 71.91 64.45"/><polygon class="an_cls-4" points="69.23 63.73 69.36 63.91 69.41 63.93 69.53 63.68 69.23 63.73"/><polygon class="an_cls-4" points="70.36 62.7 69.81 62.7 69.81 63.54 69.81 63.59 70.08 63.97 70.49 63.41 70.76 63.92 71.64 63.64 71.91 64.45 75.42 62.7 71.34 62.7 70.67 62.7 70.36 62.7"/><polygon class="an_cls-4" points="69.06 64.59 68.98 64.5 69.13 64.45 69.41 63.93 69.36 63.91 68.52 63.64 68.04 65.1 66.78 68.97 69.06 64.59"/><polygon class="an_cls-4" points="70.08 63.97 69.81 63.59 69.77 63.53 69.68 63.41 69.62 63.51 69.53 63.68 69.41 63.93 69.13 64.45 69.91 64.2 70.08 63.97"/><polygon class="an_cls-4" points="68.84 65.68 69.39 64.92 69.06 64.59 66.78 68.97 70.08 66.58 68.84 65.68"/><polygon class="an_cls-4" points="70.49 63.41 70.08 63.97 69.91 64.2 70.76 63.92 70.49 63.41"/><polygon class="an_cls-4" points="69.39 64.92 68.84 65.68 70.08 66.58 73.38 68.97 69.39 64.92"/><polygon class="an_cls-4" points="71.64 63.64 70.76 63.92 69.91 64.2 69.13 64.45 68.98 64.5 69.06 64.59 69.39 64.92 73.38 68.97 72.12 65.1 71.91 64.45 71.64 63.64"/><polygon class="an_cls-4" points="88.87 80.23 87.61 76.35 88.19 80.23 88.87 80.23"/><polygon class="an_cls-4" points="87.33 80.23 87.88 80.23 88.19 80.23 87.61 76.35 86.35 80.23 87.33 80.23"/><polygon class="an_cls-4" points="87.15 81.04 87.2 80.93 87.3 81.06 87.33 81.07 87.33 80.23 86.35 80.23 82.27 80.23 87.15 81.04"/><polygon class="an_cls-4" points="86.04 81.16 86.89 81.44 86.76 81.25 87.06 81.2 87.15 81.04 82.27 80.23 85.57 82.62 86.04 81.16"/><polygon class="an_cls-4" points="87.33 81.07 87.3 81.06 87.33 81.11 87.33 81.07"/><polygon class="an_cls-4" points="89.44 81.98 89.65 82.62 92.94 80.23 89.44 81.98"/><polygon class="an_cls-4" points="86.76 81.25 86.89 81.44 86.93 81.45 87.06 81.2 86.76 81.25"/><polygon class="an_cls-4" points="87.88 80.23 87.33 80.23 87.33 81.07 87.33 81.11 87.61 81.49 88.02 80.93 88.28 81.45 89.17 81.16 89.44 81.98 92.94 80.23 88.87 80.23 88.19 80.23 87.88 80.23"/><polygon class="an_cls-4" points="86.59 82.11 86.51 82.03 86.66 81.98 86.93 81.45 86.89 81.44 86.04 81.16 85.57 82.62 84.31 86.5 86.59 82.11"/><polygon class="an_cls-4" points="87.61 81.49 87.33 81.11 87.3 81.06 87.2 80.93 87.15 81.04 87.06 81.2 86.93 81.45 86.66 81.98 87.44 81.73 87.61 81.49"/><polygon class="an_cls-4" points="86.37 83.2 86.92 82.45 86.59 82.11 84.31 86.5 87.61 84.1 86.37 83.2"/><polygon class="an_cls-4" points="88.02 80.93 87.61 81.49 87.44 81.73 88.28 81.45 88.02 80.93"/><polygon class="an_cls-4" points="86.92 82.45 86.37 83.2 87.61 84.1 90.91 86.5 86.92 82.45"/><polygon class="an_cls-4" points="89.17 81.16 88.28 81.45 87.44 81.73 86.66 81.98 86.51 82.03 86.59 82.11 86.92 82.45 90.91 86.5 89.65 82.62 89.44 81.98 89.17 81.16"/></g></g></svg>
