<svg xmlns="http://www.w3.org/2000/svg" viewBox="0 0 200 134"><defs><style>.ar_cls-1{fill:#75aadb;}.ar_cls-2{fill:#fff;}.ar_cls-3{fill:#fbbe4a;}.ar_cls-4{fill:#84371b;}</style></defs><title>Asset 10</title><g id="Layer_2" data-name="Layer 2"><g id="Layer_92" data-name="Layer 92"><path class="ar_cls-1" d="M183,0H17A17,17,0,0,0,0,17V44.33H200V17A17,17,0,0,0,183,0Z"/><path class="ar_cls-1" d="M0,117a17,17,0,0,0,17,17H183a17,17,0,0,0,17-17V89.67H0Z"/><path class="ar_cls-2" d="M0,89.67H200V44.33H0Zm81.46-22.9,11-.42c0-.06,0-.11,0-.17-1.66-.58-2.79,0-4.91-1.12-2.5-1.28-3.21-.54-4.45-.85s-1.67-1.11-1.46-1.31.48.57,1.41.64,2.61-.6,4.65.47c1.66.87,3.24.44,5,.82l0-.13-10-4.6s-.32-.13-.23-.35.41-.08.41-.08l10.34,3.83.08-.16c-1.3-1.18-2.57-1.09-4.11-2.9-1.82-2.14-2.76-1.72-3.79-2.49s-1.12-1.67-.85-1.76.22.71,1.06,1.13,2.64.45,4.12,2.22C91,61,92.63,61.2,94.13,62.24l.09-.1-7.5-8.08s-.25-.25-.08-.41.41.08.41.08l8.08,7.5.14-.11c-.76-1.59-2-2-2.69-4.26-.86-2.67-1.89-2.65-2.55-3.75s-.4-2-.11-2-.07.74.54,1.45,2.27,1.43,3,3.62c.56,1.79,2,2.6,3,4.13l.12-.06L92.69,50s-.13-.32.08-.41.35.23.35.23l4.6,10,.17,0c-.09-1.75-1-2.59-.85-5,.23-2.8-.73-3.17-.92-4.44s.39-2,.65-1.84-.35.66-.05,1.55,1.55,2.18,1.34,4.48c-.17,1.87.83,3.16,1.17,5h.14l.42-11s0-.35.23-.35.23.35.23.35l.42,11h.17c.59-1.65,0-2.79,1.12-4.91,1.28-2.5.54-3.21.85-4.46s1.11-1.67,1.3-1.45-.57.48-.64,1.41.59,2.61-.47,4.65c-.87,1.66-.44,3.24-.82,5l.13,0,4.6-10s.13-.32.35-.23.08.41.08.41l-3.83,10.34.16.08c1.18-1.3,1.09-2.57,2.9-4.11,2.14-1.82,1.72-2.76,2.49-3.79s1.67-1.12,1.76-.84-.71.22-1.13,1.06-.45,2.64-2.21,4.12c-1.44,1.2-1.64,2.83-2.68,4.33l.1.09,8.08-7.5s.25-.25.41-.08-.08.41-.08.41l-7.5,8.08.11.14c1.59-.76,2-2,4.26-2.69,2.67-.86,2.65-1.89,3.75-2.55s2-.4,2-.11-.74-.07-1.45.54-1.43,2.27-3.62,3c-1.79.56-2.6,2-4.13,3l.06.12L117,59.69s.32-.13.41.08-.23.35-.23.35l-10,4.6,0,.17c1.75-.09,2.59-1,5-.85,2.8.23,3.17-.74,4.44-.92s2,.39,1.84.65-.66-.34-1.55-.05-2.19,1.55-4.48,1.34c-1.87-.17-3.16.83-5,1.17,0,0,0,.09,0,.14l11,.42s.35,0,.35.23-.35.23-.35.23l-11,.41c0,.06,0,.11,0,.17,1.65.59,2.79,0,4.91,1.12,2.5,1.28,3.21.54,4.45.85s1.67,1.11,1.46,1.3-.48-.57-1.41-.64-2.61.6-4.65-.47c-1.66-.87-3.24-.44-5-.82l0,.13,10,4.6s.32.13.23.35-.41.08-.41.08l-10.34-3.83-.08.16c1.31,1.17,2.57,1.09,4.11,2.9,1.82,2.14,2.76,1.72,3.79,2.49s1.12,1.67.84,1.76-.22-.71-1.06-1.13-2.64-.45-4.12-2.21c-1.2-1.44-2.82-1.64-4.33-2.68l-.09.11,7.5,8.08s.25.25.08.41-.41-.08-.41-.08l-8.08-7.5-.14.11c.76,1.59,2,2,2.69,4.26.86,2.67,1.89,2.65,2.55,3.75s.4,2,.11,2,.07-.74-.54-1.45-2.27-1.43-3-3.62c-.56-1.79-2-2.6-3-4.13l-.12.06L107.31,84s.13.32-.08.41-.35-.23-.35-.23l-4.6-10-.17,0c.09,1.75,1,2.59.85,5-.23,2.8.74,3.17.92,4.44s-.39,2-.65,1.84.35-.66.05-1.55-1.55-2.19-1.34-4.48c.17-1.87-.84-3.16-1.17-5h-.14l-.42,11s0,.35-.23.35-.23-.35-.23-.35l-.42-11h-.17c-.59,1.65,0,2.79-1.12,4.91-1.28,2.5-.54,3.21-.85,4.46s-1.11,1.67-1.3,1.45.57-.48.64-1.41-.6-2.61.47-4.65c.87-1.66.44-3.24.82-5l-.13,0-4.6,10s-.13.32-.35.23-.08-.41-.08-.41L96.52,73.7l-.16-.08c-1.18,1.31-1.09,2.57-2.9,4.11-2.14,1.82-1.72,2.76-2.49,3.79s-1.67,1.12-1.76.84.71-.22,1.13-1.06.45-2.64,2.21-4.12C94,76,94.2,74.37,95.24,72.87l-.11-.09-8.08,7.5s-.25.25-.41.08.08-.41.08-.41l7.5-8.08-.11-.14c-1.59.76-2,2-4.26,2.69-2.67.86-2.65,1.89-3.75,2.55s-2,.4-2,.11.74.07,1.45-.54,1.43-2.27,3.62-3c1.79-.56,2.6-2,4.13-3l-.06-.12L83,74.31s-.32.13-.41-.08.23-.35.23-.35l10-4.6,0-.17c-1.75.09-2.59,1-5,.85-2.8-.23-3.17.73-4.44.92s-2-.39-1.85-.65.66.35,1.55.05,2.18-1.55,4.47-1.34c1.87.17,3.16-.84,5-1.17,0,0,0-.09,0-.14l-11-.42s-.35,0-.35-.23S81.46,66.77,81.46,66.77Z"/><path class="ar_cls-3" d="M100,79.73l-.19-5.18-.46,0,.42,11s0,.35.23.35.23-.35.23-.35l.42-11-.46,0Z"/><path class="ar_cls-4" d="M100.19,74.55h-.38l.19,5.18Z"/><path class="ar_cls-3" d="M97.47,79.42c1-1.74.42-3.15.85-5.06l-.47-.12c-.38,1.79.05,3.37-.82,5-1.07,2-.4,3.71-.47,4.65s-.84,1.19-.64,1.41,1-.21,1.3-1.45-.43-2,.85-4.46c1.08-2.12.53-3.25,1.12-4.91l-.45-.07C98,76.51,98.59,78.14,97.47,79.42Z"/><path class="ar_cls-4" d="M98.73,74.44l-.41-.08c-.43,1.91.13,3.32-.85,5.06C98.59,78.14,98,76.51,98.73,74.44Z"/><path class="ar_cls-3" d="M100,54.27l.19,5.18.46,0-.42-11s0-.35-.23-.35-.23.35-.23.35l-.42,11,.46,0Z"/><path class="ar_cls-4" d="M99.81,59.45h.38L100,54.27Z"/><path class="ar_cls-3" d="M102.53,54.58c-1,1.74-.42,3.15-.85,5.06l.47.12c.38-1.79-.05-3.37.82-5,1.07-2,.4-3.71.47-4.65s.84-1.19.64-1.41-1,.21-1.3,1.45.43,2-.85,4.46c-1.08,2.12-.53,3.26-1.12,4.91l.45.07C102,57.49,101.41,55.86,102.53,54.58Z"/><path class="ar_cls-4" d="M101.27,59.56l.41.08c.43-1.91-.14-3.31.85-5.06C101.41,55.86,102,57.49,101.27,59.56Z"/><path class="ar_cls-3" d="M81.46,67.23l11,.42c0-.15,0-.3,0-.46L87.27,67l5.18-.19c0-.15,0-.31,0-.46l-11,.42s-.35,0-.35.23S81.46,67.23,81.46,67.23Z"/><path class="ar_cls-4" d="M92.45,66.81,87.27,67l5.18.19c0-.06,0-.13,0-.19S92.45,66.87,92.45,66.81Z"/><path class="ar_cls-3" d="M87.58,64.47c1.74,1,3.15.42,5.06.85,0-.16.07-.32.12-.47-1.79-.38-3.37.05-5-.82-2-1.07-3.71-.4-4.65-.47s-1.19-.84-1.41-.64.21,1,1.46,1.31,2-.43,4.45.85c2.12,1.08,3.25.53,4.91,1.12,0-.15,0-.3.07-.45C90.48,65,88.86,65.59,87.58,64.47Z"/><path class="ar_cls-4" d="M92.56,65.73c0-.14,0-.28.08-.41-1.91-.43-3.32.14-5.06-.85C88.86,65.59,90.48,65,92.56,65.73Z"/><path class="ar_cls-3" d="M112.73,67l-5.18.19c0,.15,0,.31,0,.46l11-.41s.35,0,.35-.23-.35-.23-.35-.23l-11-.42c0,.15,0,.3,0,.46Z"/><path class="ar_cls-4" d="M107.55,66.81c0,.06,0,.13,0,.19s0,.13,0,.19l5.18-.19Z"/><path class="ar_cls-3" d="M112.42,69.53c-1.74-1-3.15-.42-5.05-.85,0,.16-.08.32-.12.47,1.79.38,3.37-.05,5,.82,2,1.07,3.71.4,4.65.47s1.19.84,1.41.64-.21-1-1.46-1.3-2,.43-4.45-.85c-2.12-1.08-3.26-.53-4.91-1.12,0,.15,0,.3-.07.45C109.51,69,111.14,68.41,112.42,69.53Z"/><path class="ar_cls-4" d="M107.44,68.27c0,.14,0,.28-.08.41,1.91.43,3.31-.14,5.05.85C111.14,68.41,109.51,69,107.44,68.27Z"/><path class="ar_cls-3" d="M91,76l3.53-3.8-.31-.34-7.5,8.08s-.25.25-.08.41.41-.08.41-.08l8.08-7.5-.34-.31Z"/><path class="ar_cls-4" d="M94.79,72.47l-.27-.27L91,76Z"/><path class="ar_cls-3" d="M89.43,74c1.93-.54,2.52-1.93,4.18-3-.09-.14-.18-.27-.25-.42-1.53,1-2.34,2.42-4.13,3-2.2.69-2.91,2.34-3.62,3s-1.44.25-1.45.54.85.55,2-.11,1.08-1.69,3.75-2.55c2.27-.73,2.67-1.93,4.26-2.69-.1-.12-.18-.24-.27-.36C91.89,72.34,91.13,73.88,89.43,74Z"/><path class="ar_cls-4" d="M93.84,71.37,93.61,71c-1.65,1-2.25,2.44-4.18,3C91.13,73.88,91.89,72.34,93.84,71.37Z"/><path class="ar_cls-3" d="M109,58l-3.53,3.8.31.34,7.5-8.08s.25-.25.08-.41-.41.08-.41.08l-8.08,7.5.34.31Z"/><path class="ar_cls-4" d="M105.2,61.53l.27.27L109,58Z"/><path class="ar_cls-3" d="M110.57,60c-1.93.54-2.52,1.93-4.18,3,.09.14.18.27.25.42,1.53-1,2.34-2.42,4.13-3,2.2-.69,2.91-2.34,3.62-3s1.44-.25,1.45-.54-.85-.55-2,.11-1.08,1.69-3.75,2.55c-2.27.73-2.67,1.93-4.26,2.69l.27.36C108.11,61.65,108.87,60.12,110.57,60Z"/><path class="ar_cls-4" d="M106.16,62.63l.23.35c1.65-1,2.25-2.44,4.18-3C108.87,60.12,108.11,61.65,106.16,62.63Z"/><path class="ar_cls-3" d="M91,58l3.8,3.53.34-.31-8.08-7.5s-.25-.25-.41-.08.08.41.08.41l7.5,8.08.31-.34Z"/><path class="ar_cls-4" d="M94.53,61.8l.27-.27L91,58Z"/><path class="ar_cls-3" d="M93,56.43c.54,1.93,1.93,2.52,3,4.18l.42-.25c-1-1.53-2.42-2.34-3-4.13-.69-2.19-2.35-2.91-3-3.62s-.25-1.44-.54-1.45-.55.85.11,2,1.69,1.08,2.55,3.75c.73,2.27,1.93,2.67,2.69,4.26l.36-.27C94.65,58.89,93.12,58.13,93,56.43Z"/><path class="ar_cls-4" d="M95.63,60.84l.35-.23c-1-1.65-2.44-2.25-3-4.18C93.12,58.13,94.65,58.89,95.63,60.84Z"/><path class="ar_cls-3" d="M109,76l-3.8-3.53-.34.31,8.08,7.5s.25.25.41.08-.08-.41-.08-.41l-7.5-8.08-.31.34Z"/><path class="ar_cls-4" d="M105.47,72.2l-.27.27L109,76Z"/><path class="ar_cls-3" d="M107,77.57c-.54-1.93-1.93-2.52-3-4.18-.14.09-.27.18-.42.25,1,1.53,2.42,2.34,3,4.13.69,2.2,2.34,2.91,3,3.62s.25,1.44.54,1.45.55-.85-.11-2-1.69-1.08-2.55-3.75c-.73-2.27-1.93-2.67-2.69-4.26l-.36.27C105.35,75.11,106.88,75.87,107,77.57Z"/><path class="ar_cls-4" d="M104.37,73.16l-.35.23c1,1.65,2.44,2.25,3,4.18C106.88,75.87,105.35,75.11,104.37,73.16Z"/><path class="ar_cls-3" d="M95.13,78.76l1.81-4.86-.41-.2L92.69,84s-.13.32.08.41.35-.23.35-.23l4.6-10L97.29,74Z"/><path class="ar_cls-4" d="M97.29,74l-.35-.14-1.81,4.86Z"/><path class="ar_cls-3" d="M92.91,77.51c1.57-1.23,1.59-2.75,2.72-4.35l-.39-.29C94.2,74.37,94,76,92.56,77.2c-1.76,1.47-1.79,3.28-2.21,4.12s-1.23.78-1.13,1.06,1,.18,1.76-.84.35-2,2.49-3.79c1.81-1.54,1.73-2.8,2.9-4.11L96,73.39C94.55,75,94.44,76.75,92.91,77.51Z"/><path class="ar_cls-4" d="M92.91,77.51c1.53-.75,1.64-2.46,3.07-4.12l-.35-.23C94.51,74.76,94.49,76.27,92.91,77.51Z"/><path class="ar_cls-3" d="M104.87,55.24l-1.81,4.86.41.2L107.31,50s.13-.32-.08-.41-.35.23-.35.23l-4.6,10,.43.16Z"/><path class="ar_cls-4" d="M102.71,60l.35.14,1.81-4.86Z"/><path class="ar_cls-3" d="M107.09,56.49c-1.57,1.23-1.59,2.75-2.72,4.35l.39.29c1-1.51,1.24-3.13,2.68-4.33,1.77-1.47,1.79-3.28,2.21-4.12s1.23-.78,1.13-1.06-1-.18-1.76.84-.35,2-2.49,3.79c-1.81,1.54-1.73,2.81-2.9,4.11l.38.23C105.45,59,105.56,57.25,107.09,56.49Z"/><path class="ar_cls-4" d="M107.09,56.49c-1.52.75-1.64,2.46-3.07,4.11l.35.23C105.49,59.24,105.51,57.72,107.09,56.49Z"/><path class="ar_cls-3" d="M88.24,62.13l4.86,1.81q.09-.21.2-.41L83,59.69s-.32-.13-.41.08.23.35.23.35l10,4.6c0-.15.1-.29.16-.43Z"/><path class="ar_cls-4" d="M93,64.29l.14-.35-4.86-1.81Z"/><path class="ar_cls-3" d="M89.49,59.91c1.23,1.57,2.75,1.59,4.35,2.72.1-.13.19-.26.29-.39C92.63,61.2,91,61,89.8,59.56c-1.47-1.77-3.28-1.79-4.12-2.22s-.78-1.23-1.06-1.13-.18,1,.85,1.76,2,.35,3.79,2.49c1.54,1.81,2.81,1.73,4.11,2.9.07-.13.15-.26.23-.38C92,61.55,90.24,61.44,89.49,59.91Z"/><path class="ar_cls-4" d="M89.49,59.91c.75,1.52,2.46,1.64,4.12,3.07l.23-.35C92.24,61.51,90.72,61.49,89.49,59.91Z"/><path class="ar_cls-3" d="M111.76,71.87l-4.86-1.81c-.06.14-.13.28-.2.41L117,74.31s.32.13.41-.08-.23-.35-.23-.35l-10-4.6c0,.15-.1.29-.16.43Z"/><path class="ar_cls-4" d="M107,69.71c0,.12-.09.24-.14.35l4.86,1.81Z"/><path class="ar_cls-3" d="M110.51,74.09c-1.23-1.57-2.75-1.59-4.35-2.72-.09.13-.19.26-.29.39,1.51,1,3.13,1.24,4.33,2.68,1.47,1.77,3.28,1.79,4.12,2.21s.78,1.23,1.06,1.13.19-1-.84-1.76-2-.35-3.79-2.49c-1.54-1.81-2.8-1.73-4.11-2.9-.07.13-.15.26-.23.38C108,72.45,109.75,72.56,110.51,74.09Z"/><path class="ar_cls-4" d="M110.51,74.09c-.75-1.52-2.46-1.64-4.12-3.07l-.23.35C107.76,72.49,109.27,72.51,110.51,74.09Z"/><path class="ar_cls-3" d="M88.24,71.87,93,69.71c-.05-.14-.11-.28-.16-.43l-10,4.6s-.32.13-.23.35.41.08.41.08l10.34-3.83-.2-.41Z"/><path class="ar_cls-4" d="M93.1,70.06,93,69.71l-4.71,2.16Z"/><path class="ar_cls-3" d="M87.56,69.42c2,.24,3.07-.82,5-1.15,0-.16-.06-.32-.07-.48-1.8.33-3.09,1.34-5,1.17-2.29-.21-3.59,1.05-4.47,1.34s-1.42-.32-1.55-.05.58.83,1.85.65S85,69.74,87.78,70c2.37.19,3.21-.76,5-.85,0-.15-.08-.29-.11-.44C90.46,68.83,89.17,70,87.56,69.42Z"/><path class="ar_cls-4" d="M87.56,69.42c1.61.55,2.9-.58,5.08-.74,0-.14-.05-.27-.08-.41C90.63,68.6,89.54,69.66,87.56,69.42Z"/><path class="ar_cls-3" d="M111.76,62.13,107,64.29c.05.14.11.28.16.43l10-4.6s.32-.13.23-.35-.41-.08-.41-.08l-10.34,3.83c.07.13.14.27.2.41Z"/><path class="ar_cls-4" d="M106.9,63.94c.05.12.1.23.14.35l4.71-2.16Z"/><path class="ar_cls-3" d="M112.44,64.58c-2-.24-3.07.82-5,1.15,0,.16.06.32.07.48,1.8-.33,3.09-1.33,5-1.17,2.29.21,3.59-1.05,4.48-1.34s1.43.32,1.55.05-.58-.83-1.84-.65-1.64,1.15-4.44.92c-2.37-.19-3.21.76-5,.85,0,.15.08.29.11.44C109.54,65.17,110.83,64,112.44,64.58Z"/><path class="ar_cls-4" d="M112.44,64.58c-1.61-.54-2.9.58-5.08.74,0,.14.05.27.08.41C109.37,65.4,110.46,64.34,112.44,64.58Z"/><path class="ar_cls-3" d="M95.13,55.24,97.29,60l.43-.16-4.6-10s-.13-.32-.35-.23-.08.41-.08.41l3.83,10.34.41-.2Z"/><path class="ar_cls-4" d="M96.93,60.1l.35-.14-2.16-4.71Z"/><path class="ar_cls-3" d="M97.58,54.56c-.24,2,.82,3.07,1.15,5l.48-.07c-.33-1.8-1.33-3.09-1.17-5,.21-2.29-1.05-3.59-1.34-4.48s.31-1.42.05-1.55-.84.58-.65,1.84S97.26,52,97,54.79c-.19,2.37.76,3.21.85,5l.44-.11C98.16,57.46,97,56.17,97.58,54.56Z"/><path class="ar_cls-4" d="M97.58,54.56c-.55,1.61.58,2.9.74,5.08l.41-.08C98.4,57.63,97.34,56.54,97.58,54.56Z"/><path class="ar_cls-3" d="M104.87,78.76,102.71,74l-.43.16,4.6,10s.13.32.35.23.08-.41.08-.41L103.48,73.7l-.41.2Z"/><path class="ar_cls-4" d="M103.06,73.9l-.35.14,2.16,4.72Z"/><path class="ar_cls-3" d="M102.42,79.44c.24-2-.82-3.07-1.15-5l-.48.07c.33,1.8,1.33,3.09,1.17,5-.21,2.29,1.05,3.59,1.34,4.48s-.31,1.42-.05,1.55.84-.58.65-1.84S102.74,82,103,79.21c.19-2.37-.76-3.21-.85-5l-.44.11C101.83,76.54,103,77.83,102.42,79.44Z"/><path class="ar_cls-4" d="M102.42,79.44c.55-1.61-.58-2.9-.74-5.08l-.41.08C101.6,76.37,102.66,77.46,102.42,79.44Z"/><path class="ar_cls-3" d="M92.44,67c0,.06,0,.13,0,.19s0,.31,0,.46,0,.09,0,.14,0,.32.07.48,0,.28.08.41.07.3.11.44l0,.17c0,.15.1.29.16.43l.14.35.2.41.06.12c.08.14.17.28.25.42l.23.35c.09.12.18.24.27.36l.11.14.31.34.27.27.34.31.11.09.39.29.35.23.38.23.16.08.41.2.35.14.43.16.13,0,.47.12.41.08.45.07h.17l.46,0h.38l.46,0h.14l.48-.07.41-.08.44-.11.17,0,.43-.16.35-.14.41-.2.12-.06c.14-.08.28-.17.42-.25l.35-.23.36-.27.14-.11.34-.31.27-.27.31-.34.09-.11c.1-.13.2-.26.29-.39l.23-.35c.08-.13.16-.25.23-.38l.08-.16c.07-.14.14-.27.2-.41s.1-.23.14-.35.11-.28.16-.43l0-.13c0-.16.09-.31.12-.47s.05-.27.08-.41.05-.3.07-.45,0-.11,0-.17,0-.3,0-.46,0-.13,0-.19,0-.13,0-.19,0-.31,0-.46,0-.09,0-.14,0-.32-.07-.48,0-.28-.08-.41-.07-.3-.11-.44l0-.17c0-.15-.1-.29-.16-.43s-.09-.24-.14-.35-.13-.28-.2-.41l-.06-.12c-.08-.14-.17-.28-.25-.42l-.23-.35-.27-.36-.11-.14-.31-.34-.27-.27-.34-.31-.1-.09-.39-.29-.35-.23-.38-.23-.16-.08-.41-.2-.35-.14-.43-.16-.13,0-.47-.12-.41-.08-.45-.07h-.17l-.46,0h-.38l-.46,0h-.14l-.48.07-.41.08-.44.11-.17,0-.43.16-.35.14-.41.2-.12.06-.42.25-.35.23-.36.27-.14.11-.34.31-.27.27-.31.34-.09.1c-.1.13-.2.26-.29.39l-.23.35c-.08.13-.16.25-.23.38l-.08.16q-.11.2-.2.41l-.14.35c-.05.14-.11.28-.16.43l0,.13c0,.16-.09.31-.12.47s-.06.27-.08.41-.05.3-.07.45,0,.11,0,.17,0,.3,0,.46S92.44,66.94,92.44,67Zm4.88-2a1.55,1.55,0,0,1,1.28.46,1.5,1.5,0,0,0,.58.29c.06.06,0,.23-.12.17a3.34,3.34,0,0,1-.7-.47,1.46,1.46,0,0,0-1-.29c-1,0-1.63.87-1.74.81S96.16,65,97.32,65Zm1.24,3.47a.35.35,0,0,0,.68-.1.84.84,0,0,0,1.51,0,.35.35,0,1,0,.46-.35.52.52,0,1,1-.52.81,1.48,1.48,0,0,1-1.39,0,.52.52,0,1,1-.53-.81A.35.35,0,0,0,98.57,68.49ZM102.67,65c1.16,0,1.86.93,1.74,1s-.7-.81-1.74-.81a1.46,1.46,0,0,0-1,.29,3.33,3.33,0,0,1-.7.47c-.12.06-.18-.12-.12-.17a1.51,1.51,0,0,0,.58-.29A1.55,1.55,0,0,1,102.67,65Zm-1.4,1A1.75,1.75,0,0,1,104,66a2.51,2.51,0,0,1-1.44.46h0A1.92,1.92,0,0,1,101.28,66.07Zm-3.83.41h0A2.52,2.52,0,0,1,96,66a1.75,1.75,0,0,1,2.73.06A1.92,1.92,0,0,1,97.45,66.48Zm-1.52-.17a2.87,2.87,0,0,0,2.33.23c.46-.23.58-.35.7-.35s.12.12-.46.47A2.29,2.29,0,0,1,95.93,66.3Zm4.07,5a1,1,0,0,1,1,1,1.05,1.05,0,0,0-.16-.34l-.06-.08a1.09,1.09,0,0,0-.22-.2l-.06,0a1.05,1.05,0,0,0-.33-.12,1,1,0,0,0-.21,0,.89.89,0,0,0-.55.13l-.06,0a1,1,0,0,0-.22.2l-.06.08a1.06,1.06,0,0,0-.16.35,1,1,0,0,1,1-1c-1.28,0-.7-.7-1.92-.81.52-.35.76-.87,1.34-.87a1.53,1.53,0,0,1,.58.17,1.54,1.54,0,0,1,.58-.17c.58,0,.81.52,1.34.87C100.7,70.6,101.28,71.3,100,71.3Zm1.51-4.65c-.58-.35-.58-.47-.47-.47s.23.12.7.35a2.87,2.87,0,0,0,2.32-.23A2.29,2.29,0,0,1,101.51,66.65Zm3.25-1.28c-1.34-1.16-3-1.34-4-.46A2.45,2.45,0,0,0,101,68a.45.45,0,0,0-.23.12,4,4,0,0,1-.29-3.31A2.79,2.79,0,0,1,104.77,65.37Zm-5.23-.58a4,4,0,0,1-.29,3.31A.45.45,0,0,0,99,68a2.45,2.45,0,0,0,.18-3.08c-.93-.87-2.62-.7-4,.46A2.78,2.78,0,0,1,99.53,64.79Z"/><path class="ar_cls-3" d="M98.27,70.49a3.08,3.08,0,0,1,1.73-.11,3.09,3.09,0,0,1,1.73.11h.19a10.58,10.58,0,0,1-.93-.58c-.41-.23-.76.06-1,.06s-.58-.29-1-.06a10.59,10.59,0,0,1-.93.58Z"/><path class="ar_cls-3" d="M96.92,66a.51.51,0,0,1,.23-.42c-.38.06-.7.24-.75.42a1.41,1.41,0,0,0,.78.44A.52.52,0,0,1,96.92,66Z"/><path class="ar_cls-3" d="M97.78,65.56a.51.51,0,0,1-.1.84,1.65,1.65,0,0,0,.8-.34A1.15,1.15,0,0,0,97.78,65.56Z"/><path class="ar_cls-3" d="M102.85,65.53a.51.51,0,0,1,.23.42.52.52,0,0,1-.26.44,1.41,1.41,0,0,0,.78-.44C103.55,65.77,103.23,65.59,102.85,65.53Z"/><path class="ar_cls-3" d="M102,66a.51.51,0,0,1,.18-.39,1.15,1.15,0,0,0-.7.51,1.63,1.63,0,0,0,.8.34A.52.52,0,0,1,102,66Z"/><path class="ar_cls-3" d="M100,70.6c-.46,0-.7-.34-1.73-.12,1,0,.74.64,1.73.64s.7-.66,1.73-.64C100.7,70.26,100.46,70.6,100,70.6Z"/><path class="ar_cls-4" d="M100.46,64.79a4,4,0,0,0,.29,3.31A.45.45,0,0,1,101,68a2.45,2.45,0,0,1-.18-3.08c.93-.87,2.62-.7,4,.46A2.79,2.79,0,0,0,100.46,64.79Z"/><path class="ar_cls-4" d="M101.39,65.49a1.51,1.51,0,0,1-.58.29c-.06.06,0,.23.12.17a3.33,3.33,0,0,0,.7-.47,1.46,1.46,0,0,1,1-.29c1,0,1.63.87,1.74.81s-.58-1-1.74-1A1.55,1.55,0,0,0,101.39,65.49Z"/><path class="ar_cls-4" d="M101.51,66v.12a1.15,1.15,0,0,1,.7-.51.52.52,0,0,1,.34-.13.5.5,0,0,1,.29.1c.38.06.7.24.75.42L104,66a1.75,1.75,0,0,0-2.73.06Z"/><path class="ar_cls-4" d="M103.08,66a.51.51,0,0,0-.23-.42.5.5,0,0,0-.29-.1.52.52,0,0,0-.24,1,1.56,1.56,0,0,0,.51,0A.52.52,0,0,0,103.08,66Z"/><path class="ar_cls-4" d="M102.57,66.47h0Z"/><path class="ar_cls-4" d="M104,66,103.6,66a1.41,1.41,0,0,1-.78.44,1.56,1.56,0,0,1-.51,0,1.63,1.63,0,0,1-.8-.34V66l-.23.12a1.92,1.92,0,0,0,1.27.41h0A2.51,2.51,0,0,0,104,66Z"/><path class="ar_cls-4" d="M101.74,66.54c-.47-.23-.58-.35-.7-.35s-.12.12.47.47a2.29,2.29,0,0,0,2.56-.35A2.87,2.87,0,0,1,101.74,66.54Z"/><path class="ar_cls-4" d="M100,69a1.22,1.22,0,0,0,.7-.17.52.52,0,1,0,.52-.81.35.35,0,1,1-.46.35.86.86,0,0,1-.76.47h.12Z"/><path class="ar_cls-4" d="M100,70c.23,0,.58-.29,1-.06a10.58,10.58,0,0,0,.93.58c-.52-.35-.76-.87-1.34-.87a1.54,1.54,0,0,0-.58.17h.12Z"/><path class="ar_cls-4" d="M100,70.37h.12l-.12.23c.46,0,.7-.34,1.73-.12h0A3.09,3.09,0,0,0,100,70.37Z"/><path class="ar_cls-4" d="M101.73,70.49h0c-1,0-.74.64-1.73.64h.12l-.12.17c1.28,0,.7-.7,1.92-.81Z"/><path class="ar_cls-4" d="M99.11,72a1,1,0,0,0-.16.35A1.06,1.06,0,0,1,99.11,72Z"/><path class="ar_cls-4" d="M100.82,71.92l.06.08Z"/><path class="ar_cls-4" d="M99.17,71.92a1,1,0,0,1,.22-.2A1,1,0,0,0,99.17,71.92Z"/><path class="ar_cls-4" d="M100.6,71.72l-.06,0Z"/><path class="ar_cls-4" d="M99.45,71.67a1.05,1.05,0,0,1,.33-.12h0A1.06,1.06,0,0,0,99.45,71.67Z"/><path class="ar_cls-4" d="M100,71.54a1,1,0,0,1,.21,0A1,1,0,0,0,100,71.54Z"/><path class="ar_cls-4" d="M99.19,64.91A2.45,2.45,0,0,1,99,68a.45.45,0,0,1,.23.12,4,4,0,0,0,.29-3.31,2.78,2.78,0,0,0-4.3.58C96.57,64.21,98.26,64,99.19,64.91Z"/><path class="ar_cls-4" d="M97.32,65.2a1.46,1.46,0,0,1,1,.29,3.34,3.34,0,0,0,.7.47c.12.06.18-.12.12-.17a1.5,1.5,0,0,1-.58-.29A1.55,1.55,0,0,0,97.32,65c-1.16,0-1.86.93-1.74,1S96.28,65.2,97.32,65.2Z"/><path class="ar_cls-4" d="M97.15,65.53a.5.5,0,0,1,.29-.1.52.52,0,0,1,.34.13,1.15,1.15,0,0,1,.71.51V66l.23.12A1.75,1.75,0,0,0,96,66l.41-.06C96.45,65.77,96.77,65.59,97.15,65.53Z"/><path class="ar_cls-4" d="M97.44,66.48h0Z"/><path class="ar_cls-4" d="M98,66a.54.54,0,0,0-.52-.52.5.5,0,0,0-.29.1.51.51,0,0,0-.23.42.52.52,0,0,0,.26.44,1.56,1.56,0,0,0,.51,0A.52.52,0,0,0,98,66Z"/><path class="ar_cls-4" d="M98.72,66.07,98.49,66v.12a1.65,1.65,0,0,1-.8.34,1.56,1.56,0,0,1-.51,0,1.41,1.41,0,0,1-.78-.44L96,66a2.52,2.52,0,0,0,1.44.46h0A1.92,1.92,0,0,0,98.72,66.07Z"/><path class="ar_cls-4" d="M98.49,66.65c.58-.35.58-.47.46-.47s-.23.12-.7.35a2.87,2.87,0,0,1-2.33-.23A2.29,2.29,0,0,0,98.49,66.65Z"/><path class="ar_cls-4" d="M98.44,68.26a.52.52,0,0,0,.86.6,1.21,1.21,0,0,0,.7.17l.12-.17H100a.85.85,0,0,1-.75-.47.35.35,0,1,1-.47-.35A.53.53,0,0,0,98.44,68.26Z"/><path class="ar_cls-4" d="M99,69.91c.41-.23.76.06,1,.06l.12-.17H100a1.53,1.53,0,0,0-.58-.17c-.58,0-.81.52-1.34.87A10.59,10.59,0,0,0,99,69.91Z"/><path class="ar_cls-4" d="M100,70.6l.12-.23H100a3.08,3.08,0,0,0-1.73.11h0C99.3,70.26,99.54,70.6,100,70.6Z"/><path class="ar_cls-4" d="M100,71.13c-1,0-.7-.66-1.73-.64h-.19c1.22.12.64.81,1.92.81l.12-.17Z"/><path class="ar_cls-4" d="M99,72.35a1,1,0,0,1,.16-.35l.06-.08a1,1,0,0,1,.22-.2l.06,0a1.06,1.06,0,0,1,.3-.12h0a1.05,1.05,0,0,1,.21,0,1,1,0,0,1,.21,0,1.05,1.05,0,0,1,.33.13l.06,0a1.09,1.09,0,0,1,.22.2l.06.08a1.05,1.05,0,0,1,.16.34,1,1,0,1,0-2.09,0Z"/></g></g></svg>
