<svg xmlns="http://www.w3.org/2000/svg" viewBox="0 0 200 134"><defs><style>.au2_cls-1{fill:#1e9533;}.au2_cls-2{fill:#f6cd31;}.au2_cls-3{fill:#fff;}.au2_cls-4{fill:#349545;}.au2_cls-5{fill:#f9cf0c;}.au2_cls-6{fill:#f6c713;}.au2_cls-7{fill:#962139;}</style></defs><title>Asset 3</title><g id="Layer_2" data-name="Layer 2"><g id="Layer_98" data-name="Layer 98"><path class="au2_cls-1" d="M183,0H17A17,17,0,0,0,0,17V39.94H200V17A17,17,0,0,0,183,0Z"/><path class="au2_cls-1" d="M0,117a17,17,0,0,0,17,17H183a17,17,0,0,0,17-17V94.06H0Z"/><rect class="au2_cls-2" y="39.94" width="200" height="6.77"/><rect class="au2_cls-2" y="87.3" width="200" height="6.77"/><path class="au2_cls-3" d="M92.46,79.11c-.23-.13-.46-.27-.68-.41Z"/><path class="au2_cls-3" d="M107.08,79.35l-.54.26h0Z"/><path class="au2_cls-3" d="M92.91,79.34l.5.26h0Z"/><path class="au2_cls-3" d="M0,87.3H200V46.7H0ZM81.15,66a.24.24,0,0,1,.27,0,.2.2,0,0,1,.05.16l.51.4q0-.33,0-.67l-.54-.54c-.11,0-.16,0-.21-.05a.24.24,0,0,1,0-.27c.05-.05.16-.05.27.05s.05.11,0,.16l.49.49c0-.27,0-.54,0-.81l-.55-.59a.1.1,0,0,1-.16-.05c-.11-.05-.05-.16,0-.22s.16-.05.21,0,.05.11.05.22l.44.48c0-.26,0-.53.07-.79l-.56-.66c-.05.05-.11.05-.16-.05a.16.16,0,0,1,0-.22.24.24,0,0,1,.27,0,.16.16,0,0,1,0,.22l.47.55c0-.24,0-.47.07-.71,0-.07,0-.13,0-.2l-.52-.61a.2.2,0,0,1-.16-.05.16.16,0,0,1,0-.21.18.18,0,0,1,.27,0,.1.1,0,0,1,0,.16l.45.53c0-.22.08-.44.13-.66l-.57-.67a.2.2,0,0,1-.16-.05.17.17,0,0,1,0-.22c.05-.11.16-.05.27,0s.05.11,0,.22l.5.54c0-.21.09-.41.14-.61L82,60.59a.21.21,0,0,1-.21-.11c-.05-.05,0-.16.05-.21a.16.16,0,0,1,.21,0,.41.41,0,0,1,.05.21l.48.61c0-.16.09-.33.14-.49l-.56-.72c-.05,0-.16,0-.16-.05a.24.24,0,0,1,0-.27c.11-.05.21-.05.27.05a.1.1,0,0,1,0,.16l.51.64c.05-.18.11-.35.16-.53l-.51-.76a.1.1,0,0,1-.16-.05.13.13,0,0,1,.05-.22.17.17,0,0,1,.22,0c.05.11.05.16,0,.22l.45.68c.05-.15.11-.3.17-.45l-.52-.72a.28.28,0,0,1-.21-.11.16.16,0,0,1,.27-.16.1.1,0,0,1,0,.16l.51.7c.05-.13.09-.26.15-.39l-.49-.74a.2.2,0,0,1-.16-.05c-.05-.11-.05-.21.05-.27s.16,0,.21.05a.16.16,0,0,1,0,.21l.44.66.13-.28-.41-.81a.28.28,0,0,1-.21-.11c-.05-.05,0-.16.11-.22s.16,0,.21.05,0,.16,0,.21l.36.73.25-.52-.45-.8c-.05,0-.16,0-.16-.05s-.05-.21.05-.27.16,0,.22.05.05.16,0,.21l.4.72L84,57.3h0l-.38-.92c-.05.05-.11,0-.16-.05a.2.2,0,0,1,.11-.27.22.22,0,0,1,.21.11c.05.05,0,.16-.05.22l.37.73c.1-.19.21-.37.32-.55l-.36-.83c-.11,0-.16-.05-.16-.11s0-.22.05-.22.21,0,.21.05.05.16,0,.22l.33.75c.07-.13.14-.26.22-.38h0l-.32-.92c-.05,0-.11-.05-.16-.11a.4.4,0,0,1,.11-.21c.11,0,.21,0,.21.11s0,.16-.05.21l.3.79.34-.51-.31-.88c-.05,0-.16-.05-.16-.11a.2.2,0,0,1,.11-.27.28.28,0,0,1,.21.11c0,.11,0,.16-.05.21l.29.81.39-.56-.3-.85c-.05,0-.11-.05-.16-.11a.28.28,0,0,1,.11-.21c.11,0,.21,0,.21.11s0,.16-.05.21l.26.74.25-.34-.25-.84c-.05-.05-.11-.05-.16-.16s.05-.16.16-.22a.29.29,0,0,1,.22.16c0,.05-.05.11-.11.16l.23.78.37-.45L86.16,53c-.11,0-.16-.05-.16-.11s0-.22.11-.22.21,0,.21.11,0,.16-.05.16l.2.71.34-.41-.16-.73c-.11,0-.16-.05-.16-.11s.05-.21.11-.21.21.05.21.11,0,.16-.05.22l.13.63.36-.39-.18-.62A.11.11,0,0,1,87,52c-.05-.11,0-.21.11-.21s.21,0,.21.11,0,.16-.05.16l.12.56c.21-.22.41-.45.63-.67a.16.16,0,0,1,.21,0c.11.11.11.22,0,.27l-.26.27.36-.05c0-.05.05-.11.11-.16s.21.05.21.16-.05.16-.16.22-.11-.05-.16-.11l-.52.11-.34.35.48,0c.05-.05.11-.11.16-.11a.17.17,0,0,1,.16.16c0,.11-.05.22-.16.22s-.11-.05-.16-.11h-.61l-.37.41.44,0c.05-.05.11-.11.16-.11s.16.05.22.16a.17.17,0,0,1-.16.16c-.11,0-.16,0-.22-.11l-.53,0-.34.42.45,0c.05-.05.11-.11.16-.11s.22.05.22.16a.17.17,0,0,1-.16.16c-.11,0-.16,0-.16-.11l-.59,0c-.11.13-.22.26-.32.39h.43c0-.05.05-.11.16-.11s.16.05.16.16a.17.17,0,0,1-.16.16c-.05,0-.16-.05-.16-.11l-.54,0-.29.42.45,0c0-.05.05-.11.16-.11a.14.14,0,0,1,.16.16.17.17,0,0,1-.16.16c-.05,0-.11,0-.16-.11l-.55.08-.29.42.52-.07a.12.12,0,0,1,.11-.11c.11,0,.21.05.21.16a.17.17,0,0,1-.16.16c-.05,0-.16,0-.16-.11l-.61.09c-.11.17-.21.35-.31.52l.49-.07c.05-.11.11-.16.16-.16s.16.05.21.16a.14.14,0,0,1-.16.16.1.1,0,0,1-.16-.05l-.61.09c-.11.18-.22.37-.32.56l.55-.16c0-.05.05-.16.11-.16s.21.05.21.11-.05.22-.11.22-.16,0-.21-.05l-.63.2c-.09.17-.17.35-.26.53l.46-.13c0-.05.05-.11.11-.16s.21.05.21.16-.05.16-.11.16-.16,0-.21-.05l-.53.16-.22.48.48-.1c0-.11.05-.16.11-.16s.22.05.22.11,0,.22-.11.22-.16,0-.21-.05l-.57.17-.19.46.54-.15a.12.12,0,0,1,.11-.11c.11-.05.21,0,.21.11s0,.16-.11.22a.33.33,0,0,1-.22-.05l-.59.14-.18.49.5-.19c0-.05.05-.11.11-.16s.22.05.22.11a.24.24,0,0,1-.05.27c-.11,0-.16,0-.21-.05l-.62.19c-.08.22-.15.45-.22.68l.57-.22c0-.11.05-.16.11-.16s.21,0,.21.05,0,.22-.11.22a.1.1,0,0,1-.16,0l-.66.25q-.09.3-.16.6l.56-.26c0-.05.05-.11.11-.16a.28.28,0,0,1,.21.11c.05.11,0,.21-.11.21a.1.1,0,0,1-.16,0l-.66.25c-.06.22-.11.45-.15.67l.6-.28c0-.05,0-.16.05-.16a.24.24,0,0,1,.27.05c0,.11,0,.22-.11.27s-.16,0-.16-.05l-.68.32c-.05.27-.11.54-.15.81l.56-.37c0-.05,0-.11.11-.16a.13.13,0,0,1,.21.05c.05.05,0,.16-.05.21a.16.16,0,0,1-.22,0l-.64.43h0c0,.26-.05.52-.08.79l.62-.41c0-.05.05-.11.11-.16a.16.16,0,1,1,.16.27.16.16,0,0,1-.22,0l-.68.46c0,.27-.05.54-.06.81l.58-.46a.2.2,0,0,1,.05-.16.24.24,0,0,1,.27,0c.05.11.05.22-.05.27a.1.1,0,0,1-.16,0l-.69.51q0,.39,0,.78l.54-.42c0-.11,0-.16.11-.21a.13.13,0,0,1,.21.05.13.13,0,0,1-.05.22.2.2,0,0,1-.16.05l-.65.51c0,.24,0,.47,0,.71l.56-.51A.32.32,0,0,1,83,66a.16.16,0,0,1,.21,0c.11.11.11.21,0,.27a.1.1,0,0,1-.16,0l-.65.65c0,.19,0,.37,0,.56L83,67c-.05-.05,0-.16.05-.22a.16.16,0,0,1,.21,0,.24.24,0,0,1,0,.27.16.16,0,0,1-.21,0l-.59.59c0,.26.07.51.12.77l.48-.55c-.05-.05,0-.11,0-.16s.21-.11.27,0a.16.16,0,0,1,0,.21.2.2,0,0,1-.16.05l-.56.6c0,.24.07.47.12.71l.49-.67a.1.1,0,0,1,0-.16c.05-.11.16-.11.27-.05a.24.24,0,0,1,0,.27c0,.05-.11.05-.16.05l-.56.72c.05.24.13.48.19.73l.48-.74a.17.17,0,0,1,0-.22c0-.05.11-.11.21-.05a.24.24,0,0,1,.05.27.2.2,0,0,1-.16.05l-.55.84c.06.22.12.44.18.66l.47-.64a.1.1,0,0,1,0-.16.13.13,0,0,1,.22-.05c.11.05.11.16.05.27s-.11.05-.21.05l-.48.67c.09.28.2.56.3.85L84,71.2V71a.19.19,0,1,1,.32.22c-.05.05-.11.05-.21.05l-.5.85c.14.38.31.75.48,1.12l.29.24,1.12-2.55a15.51,15.51,0,1,1,29.11,0l1.12,2.55.29-.24c.17-.37.33-.74.48-1.11l-.5-.86c-.11,0-.16,0-.21-.05A.19.19,0,0,1,116,71v.22l.45.76c.1-.28.21-.56.3-.84l-.53-.67a.2.2,0,0,1-.16-.05c-.05-.11-.05-.21.05-.27a.13.13,0,0,1,.21.05.1.1,0,0,1,0,.16l.47.64c.07-.22.12-.44.18-.66l-.55-.84a.2.2,0,0,1-.16-.05c-.05-.11-.05-.22.05-.27s.16,0,.21.05a.16.16,0,0,1,0,.22l.48.74c.06-.24.14-.48.19-.73l-.56-.72c-.05,0-.16,0-.16-.05a.24.24,0,0,1,0-.27c.11-.05.22-.05.27.05s.05.11,0,.16l.49.67c.05-.24.08-.47.12-.71l-.56-.6a.2.2,0,0,1-.16-.05.17.17,0,0,1,0-.21c.05-.11.16-.05.22,0s.11.11.05.16l.47.55c0-.26.09-.51.12-.77l-.59-.59c-.11.05-.16.05-.22,0a.24.24,0,0,1,0-.27.17.17,0,0,1,.22,0c.05.05.11.16.05.22l.55.51c0-.19,0-.37,0-.56L117,66.3a.1.1,0,0,1-.16,0c-.11-.05-.11-.16,0-.27a.16.16,0,0,1,.21,0,.33.33,0,0,1,.05.21l.56.51c0-.24,0-.47,0-.71l-.65-.51a.41.41,0,0,1-.21-.05.16.16,0,0,1,0-.22.13.13,0,0,1,.21-.05c.05.05.11.11.05.21l.59.43q0-.39,0-.79l-.69-.51a.1.1,0,0,1-.16,0c-.11-.05-.11-.16-.05-.27a.24.24,0,0,1,.27,0,.2.2,0,0,1,.05.16l.58.46c0-.27,0-.54-.06-.81l-.74-.46a.1.1,0,0,1-.16,0,.16.16,0,0,1,.16-.27c.05.05.11.11.11.16l.61.41c0-.26,0-.52-.08-.79h0l-.64-.43a.16.16,0,0,1-.21,0c-.05-.05-.11-.16-.05-.21a.13.13,0,0,1,.22-.05c.11.05.11.11.11.16l.56.37c0-.27-.1-.54-.15-.81l-.68-.32a.2.2,0,0,1-.16.05c-.11-.05-.11-.16-.11-.27a.24.24,0,0,1,.27-.05c.05,0,.05.11.05.16l.6.28c0-.23-.1-.45-.15-.67l-.66-.25a.1.1,0,0,1-.16,0c-.11,0-.16-.11-.11-.21a.28.28,0,0,1,.22-.11c.05.05.11.11.11.16l.56.26c-.05-.2-.11-.4-.16-.6l-.66-.25c-.05.05-.11.05-.21,0s-.11-.11-.05-.22.11-.11.21-.05.11.05.11.16l.57.22c-.07-.23-.14-.45-.22-.68l-.62-.19c-.05.05-.11.05-.22.05a.24.24,0,0,1-.05-.27c0-.05.11-.11.21-.11s.11.11.11.16l.51.19c-.06-.16-.12-.33-.18-.49l-.59-.14a.32.32,0,0,1-.22.05c-.11-.05-.16-.11-.11-.22s.11-.16.21-.11a.11.11,0,0,1,.11.11l.54.15-.19-.46-.57-.17c-.05.05-.16.11-.21.05s-.16-.11-.11-.22.11-.11.21-.11.11.05.11.16l.48.1-.22-.48-.53-.16a.16.16,0,0,1-.21.05c-.05,0-.16-.11-.11-.16s.11-.16.21-.16.11.11.11.16l.46.13c-.09-.18-.17-.36-.26-.53l-.63-.2c-.05.05-.11.11-.22.05a.16.16,0,0,1-.11-.22c0-.05.11-.11.21-.11s.11.11.11.16l.55.16-.32-.56-.61-.09a.1.1,0,0,1-.16.05.14.14,0,0,1-.16-.16c.05-.11.11-.16.21-.16s.11.05.16.16l.49.07c-.1-.17-.2-.35-.31-.52l-.61-.09c0,.11-.11.11-.16.11a.17.17,0,0,1-.16-.16c0-.11.11-.16.21-.16a.12.12,0,0,1,.11.11l.52.07-.29-.42-.56-.08c-.05.11-.11.11-.16.11a.17.17,0,0,1-.16-.16.14.14,0,0,1,.16-.16c.11,0,.16.05.16.11l.45,0c-.1-.14-.19-.29-.29-.42l-.54,0c0,.05-.11.11-.16.11a.17.17,0,0,1-.16-.16c0-.11.05-.22.16-.16s.16.05.16.11h.43c-.1-.13-.21-.26-.32-.39l-.59,0c0,.11-.05.11-.16.11a.17.17,0,0,1-.16-.16c0-.11.11-.16.21-.16s.11.05.16.11l.45,0-.35-.42-.59,0c0,.11-.05.11-.16.11a.17.17,0,0,1-.16-.16c0-.11.11-.16.22-.16s.11.05.16.11l.44,0-.37-.41h-.61c-.05.05-.11.11-.16.11s-.22-.11-.16-.22a.17.17,0,0,1,.16-.16c.05,0,.11.05.16.11l.49,0-.34-.35-.53-.11c-.05.05-.11.11-.16.11s-.16-.11-.16-.22.11-.16.21-.16.11.11.11.16l.36.05-.26-.27c-.11-.05-.11-.16,0-.27a.17.17,0,0,1,.22,0c.22.22.42.45.63.67l.12-.56c-.05,0-.05-.11-.05-.16s.11-.16.21-.11.16.11.11.21a.12.12,0,0,1-.11.11l-.18.62.37.39.13-.63c-.05-.05-.11-.11-.05-.22s.11-.11.22-.11.11.11.11.21-.05.11-.16.11l-.16.72.34.41.2-.71a.1.1,0,0,1-.05-.16c0-.11.11-.16.22-.11s.11.11.11.22-.11.11-.16.11l-.22.75.37.45.23-.78c-.11-.05-.11-.11-.11-.16s.11-.16.21-.16.16.11.16.22-.11.11-.16.16l-.25.84.25.34.26-.74c-.05-.05-.11-.16-.05-.21s.11-.11.21-.11a.28.28,0,0,1,.11.21c-.05.05-.11.11-.16.11l-.3.85.39.56.29-.81c-.05-.05-.11-.11-.05-.21a.28.28,0,0,1,.21-.11.2.2,0,0,1,.11.27c-.05.05-.11.11-.16.11l-.31.88c.1.15.21.3.31.46l.33-.75c-.05-.05-.11-.16-.05-.21s.11-.11.22-.11a.41.41,0,0,1,.11.21c-.05.05-.11.11-.16.11l-.32.92h0l.22.38.33-.75c-.05-.05-.05-.11,0-.22s.11-.11.22-.05.11.11.05.22-.05.11-.16.11l-.36.83c.11.18.22.36.32.55l.37-.73c-.05-.05-.11-.16-.05-.22a.22.22,0,0,1,.22-.11.2.2,0,0,1,.11.27c-.05.05-.11.11-.16.05l-.38.92h0c.05.1.09.19.14.29l.4-.72c-.05-.05-.05-.11,0-.21s.16-.11.22-.05.11.16.05.27-.11.05-.16.05l-.45.8c.08.17.17.34.25.52l.36-.72c0-.05-.05-.16,0-.21s.16-.11.21-.05a.22.22,0,0,1,.11.22.28.28,0,0,1-.21.11l-.4.81.13.28.44-.66a.17.17,0,0,1,0-.21c.05-.05.16-.11.22-.05s.11.16.05.27a.2.2,0,0,1-.16.05l-.49.74c.05.13.1.26.14.39l.51-.7a.1.1,0,0,1,0-.16.13.13,0,0,1,.22-.05.13.13,0,0,1,.05.21.28.28,0,0,1-.21.11l-.51.72.17.45.45-.68c-.05-.05-.05-.11,0-.22a.17.17,0,0,1,.22,0,.13.13,0,0,1,.05.22c-.05.05-.11.11-.16.05l-.51.76c.06.17.11.35.17.53l.51-.64a.1.1,0,0,1,0-.16c.05-.11.16-.11.27-.05a.25.25,0,0,1,0,.27.2.2,0,0,1-.16.05l-.56.72.14.49.48-.61a.41.41,0,0,1,.05-.21.16.16,0,0,1,.21,0c.05.05.11.16.05.21a.22.22,0,0,1-.21.11l-.54.68c.05.2.1.41.14.61l.5-.54c-.05-.11-.05-.16,0-.22a.18.18,0,0,1,.27,0,.17.17,0,0,1,0,.22.2.2,0,0,1-.16.05l-.57.67c0,.22.09.44.12.66l.45-.53a.1.1,0,0,1,0-.16.18.18,0,0,1,.27,0,.16.16,0,0,1,0,.21.2.2,0,0,1-.16.05l-.52.61c0,.07,0,.13,0,.2,0,.24,0,.47.07.71l.47-.55a.16.16,0,0,1,0-.22.24.24,0,0,1,.27,0,.17.17,0,0,1,0,.22c-.05.11-.11.11-.16.05L118,64c0,.26.06.53.07.79l.44-.48c0-.11,0-.16.05-.22s.16-.11.21,0,.11.16,0,.22-.11.11-.16.05L118,65c0,.27,0,.54,0,.81l.49-.49c-.05-.05-.05-.16,0-.16s.21-.11.27-.05a.24.24,0,0,1,0,.27c-.05.05-.11.05-.22.05l-.54.54c0,.21,0,.43,0,.64l.51-.37a.2.2,0,0,1,.05-.16.18.18,0,1,1,.22.27.17.17,0,0,1-.22,0l-.57.45c0,.26,0,.52-.06.78l.53-.32c0-.11,0-.16.05-.21a.19.19,0,1,1,.21.32h-.21l-.6.36c0,.27-.08.55-.12.82l.56-.31a.16.16,0,0,1,.05-.22.24.24,0,0,1,.27.05.4.4,0,0,1-.05.27h-.21l-.64.39c0,.22-.07.44-.11.66l.54-.24c0-.11.05-.16.11-.16a.23.23,0,0,1,.27.05c0,.11,0,.22-.11.22a.16.16,0,0,1-.21,0l-.63.27c-.05.23-.12.46-.18.69l.64-.32c0-.05.05-.11.11-.16s.22,0,.22.11,0,.16-.05.22-.16,0-.21-.05l-.74.37c-.05.19-.09.37-.14.56l.67-.33c0-.05.05-.11.11-.16s.16,0,.21.11,0,.16-.05.22-.16,0-.21-.05l-.78.39c-.07.22-.15.43-.23.64l.84-.55c-.05-.05,0-.11.05-.16s.21,0,.21.05a.24.24,0,0,1,0,.27c-.11,0-.16,0-.21-.05l-1,.67c-.1.26-.19.52-.3.78l2.52-2a19.66,19.66,0,0,1-11.79,13.25v-.7H92.68v.7A19.66,19.66,0,0,1,80.88,70.66l2.52,2c-.11-.26-.21-.52-.3-.78l-1-.67c-.05.05-.11.05-.21.05a.4.4,0,0,1-.05-.27.24.24,0,0,1,.27-.05c.05.05.11.11.05.16l.84.55c-.08-.21-.16-.43-.23-.64L82,70.66c-.05.05-.11.05-.21.05s-.11-.16-.05-.22.11-.16.21-.11.11.11.11.16l.67.33c-.06-.18-.1-.37-.15-.56L81.85,70a.32.32,0,0,1-.21.05c-.05-.05-.11-.16-.05-.22s.11-.16.22-.11.11.11.11.16l.65.32c-.06-.23-.13-.46-.18-.69l-.62-.27a.17.17,0,0,1-.22,0c-.11,0-.11-.11-.11-.22a.24.24,0,0,1,.27-.05c.05,0,.11.05.11.16l.54.24c0-.22-.07-.44-.11-.66l-.64-.39h-.21a.24.24,0,0,1-.05-.27.23.23,0,0,1,.27-.05c.05.05.05.11.05.22l.56.34c0-.28-.1-.56-.13-.84l-.6-.36h-.21a.24.24,0,0,1-.05-.27.23.23,0,0,1,.27-.05c.05.05.05.11.05.21l.53.32c0-.26,0-.52-.06-.78l-.58-.45c-.11.05-.16.05-.21,0S81.1,66.14,81.15,66Z"/><path class="au2_cls-3" d="M90.85,78.06l-.27-.2Z"/><path class="au2_cls-3" d="M107.54,79.11l.67-.41C108,78.84,107.77,79,107.54,79.11Z"/><path class="au2_cls-3" d="M109.16,78.06l.26-.2Z"/><path class="au2_cls-4" d="M86.54,54.72c0,.05.11.11.16.11a.17.17,0,0,0,.16-.16c0-.11-.11-.22-.16-.16s-.16.05-.16.11h-.43l-.11.15Z"/><path class="au2_cls-4" d="M86.16,55.26c.05.11.11.11.16.11a.17.17,0,0,0,.16-.16.14.14,0,0,0-.16-.16c-.11,0-.16.05-.16.11l-.45,0-.11.16Z"/><path class="au2_cls-4" d="M85.84,55.8c0,.11.11.11.16.11a.17.17,0,0,0,.16-.16c0-.11-.11-.16-.21-.16a.12.12,0,0,0-.11.11l-.52.07-.09.13Z"/><path class="au2_cls-4" d="M85.46,56.44a.1.1,0,0,0,.16.05.14.14,0,0,0,.16-.16c-.05-.11-.11-.16-.21-.16s-.11.05-.16.16l-.49.07-.07.13Z"/><path class="au2_cls-4" d="M85.08,57c.05.05.11.11.21.05s.11-.11.11-.22-.11-.11-.21-.11-.11.11-.11.16l-.55.16-.08.15Z"/><path class="au2_cls-4" d="M84.65,57.74c.05.05.11.11.21.05s.11-.11.11-.16-.11-.16-.21-.16-.11.11-.11.16l-.46.13-.06.14Z"/><path class="au2_cls-4" d="M84.39,58.38c.05.05.16.11.21.05s.16-.11.11-.22-.11-.11-.22-.11-.11.05-.11.16l-.48.1-.08.18Z"/><path class="au2_cls-4" d="M84.17,59a.33.33,0,0,0,.22.05c.11-.05.16-.11.11-.22s-.11-.16-.21-.11a.12.12,0,0,0-.11.11l-.54.15-.05.14Z"/><path class="au2_cls-4" d="M84,59.62c.05.05.11.05.21.05a.24.24,0,0,0,.05-.27c0-.05-.11-.11-.22-.11s-.11.11-.11.16l-.5.19-.06.16Z"/><path class="au2_cls-4" d="M83.74,60.38a.1.1,0,0,0,.16,0c.11,0,.16-.11.11-.22s-.11-.11-.21-.05-.11.05-.11.16l-.57.22,0,.14Z"/><path class="au2_cls-4" d="M83.52,61.13a.1.1,0,0,0,.16,0c.11,0,.16-.11.11-.21a.28.28,0,0,0-.21-.11c-.05.05-.11.11-.11.16l-.56.26,0,.16Z"/><path class="au2_cls-4" d="M87,54.18c0,.11.05.11.16.11a.17.17,0,0,0,.16-.16c0-.11-.11-.16-.22-.16S87,54,87,54.07l-.45,0-.09.12Z"/><path class="au2_cls-4" d="M87.4,53.64c.05.11.11.11.22.11a.17.17,0,0,0,.16-.16c-.05-.11-.11-.16-.22-.16s-.11.05-.16.11l-.44,0-.09.11Z"/><path class="au2_cls-4" d="M87.94,53.16c.05.05.11.11.16.11s.16-.11.16-.22a.17.17,0,0,0-.16-.16c-.05,0-.11.05-.16.11l-.48,0-.12.13Z"/><path class="au2_cls-4" d="M88.32,52.57c.05.05.11.11.16.11s.16-.11.16-.22-.11-.16-.21-.16-.11.11-.11.16l-.36.05-.16.17Z"/><path class="au2_cls-4" d="M87.24,52.08c.05,0,.05-.11.05-.16s-.11-.16-.21-.11-.16.11-.11.21a.11.11,0,0,0,.11.11l.18.62.11-.11Z"/><path class="au2_cls-4" d="M86.75,52.51c.05-.05.11-.11.05-.22s-.11-.11-.21-.11-.11.11-.11.21.05.11.16.11l.16.73.09-.1Z"/><path class="au2_cls-4" d="M86.27,52.94c.05,0,.05-.11.05-.16s-.11-.16-.21-.11-.16.11-.11.22.05.11.16.11l.22.75.08-.1Z"/><path class="au2_cls-4" d="M85.78,53.43c.05-.05.11-.11.11-.16a.29.29,0,0,0-.22-.16c-.11.05-.16.11-.16.22s.11.11.16.16l.25.84L86,54.2Z"/><path class="au2_cls-4" d="M85.41,53.91c.05-.05.11-.16.05-.21s-.11-.11-.21-.11a.28.28,0,0,0-.11.21c.05.05.11.11.16.11l.3.85.07-.1Z"/><path class="au2_cls-4" d="M84.92,54.5c.05-.05.05-.11.05-.21a.28.28,0,0,0-.21-.11.2.2,0,0,0-.11.27c0,.05.11.11.16.11l.31.88.08-.12Z"/><path class="au2_cls-4" d="M84.49,55.15c.05-.05.11-.16.05-.21s-.11-.11-.21-.11a.4.4,0,0,0-.11.21c.05.05.11.11.16.11l.32.92h0l.07-.12Z"/><path class="au2_cls-4" d="M84.17,55.69c.05-.05.05-.11,0-.22s-.11-.11-.21-.05-.11.11-.05.22.05.11.16.11l.36.83.07-.13Z"/><path class="au2_cls-4" d="M83.74,56.39c.05-.05.11-.16.05-.22a.22.22,0,0,0-.21-.11.2.2,0,0,0-.11.27c.05.05.11.11.16.05l.38.92h0l.09-.18Z"/><path class="au2_cls-4" d="M83.47,56.87c.05-.05.05-.11,0-.21s-.16-.11-.22-.05-.11.16-.05.27.11.05.16.05l.45.8.06-.13Z"/><path class="au2_cls-4" d="M83.2,57.52c0-.05.05-.16,0-.21S83,57.2,83,57.25s-.16.16-.11.22a.28.28,0,0,0,.21.11l.41.81.06-.14Z"/><path class="au2_cls-4" d="M82.93,58a.16.16,0,0,0,0-.21c-.05-.05-.16-.11-.21-.05s-.11.16-.05.27a.2.2,0,0,0,.16.05l.49.74.05-.14Z"/><path class="au2_cls-4" d="M82.66,58.49a.1.1,0,0,0,0-.16.16.16,0,0,0-.27.16.28.28,0,0,0,.21.11l.52.72,0-.13Z"/><path class="au2_cls-4" d="M82.5,59.08c.05-.05.05-.11,0-.22a.17.17,0,0,0-.22,0,.13.13,0,0,0-.05.22.1.1,0,0,0,.16.05l.51.76.05-.14Z"/><path class="au2_cls-4" d="M82.23,59.78a.1.1,0,0,0,0-.16c-.05-.11-.16-.11-.27-.05a.24.24,0,0,0,0,.27c0,.05.11.05.16.05l.56.72.05-.18Z"/><path class="au2_cls-4" d="M82.07,60.48a.41.41,0,0,0-.05-.21.16.16,0,0,0-.21,0c-.05.05-.11.16-.05.21a.21.21,0,0,0,.21.11l.54.68.05-.18Z"/><path class="au2_cls-4" d="M81.85,61.34c.05-.11.05-.16,0-.22s-.21-.11-.27,0a.17.17,0,0,0,0,.22.2.2,0,0,0,.16.05l.57.67,0-.18Z"/><path class="au2_cls-4" d="M81.75,62.21a.1.1,0,0,0,0-.16.18.18,0,0,0-.27,0,.16.16,0,0,0,0,.21.2.2,0,0,0,.16.05l.52.61c0-.06,0-.13,0-.19Z"/><path class="au2_cls-4" d="M81.58,63.28a.16.16,0,0,0,0-.22.24.24,0,0,0-.27,0,.16.16,0,0,0,0,.22c.05.11.11.11.16.05L82,64c0-.05,0-.11,0-.16Z"/><path class="au2_cls-4" d="M81.53,64.31c0-.11,0-.16-.05-.22s-.16-.11-.21,0-.11.16,0,.22a.1.1,0,0,0,.16.05L82,65c0-.06,0-.11,0-.17Z"/><path class="au2_cls-4" d="M81.48,65.28c.05-.05,0-.16,0-.16s-.21-.11-.27-.05a.24.24,0,0,0,0,.27c.05.05.11.05.21.05l.54.54c0-.05,0-.11,0-.16Z"/><path class="au2_cls-4" d="M81.42,66.3l.58.45c0-.05,0-.11,0-.16l-.51-.4a.2.2,0,0,0-.05-.16.24.24,0,0,0-.27,0c-.05.11-.05.21.05.27S81.32,66.35,81.42,66.3Z"/><path class="au2_cls-4" d="M81.53,67.22c0-.11,0-.16-.05-.21a.23.23,0,0,0-.27.05.24.24,0,0,0,.05.27h.21l.6.36s0-.1,0-.15Z"/><path class="au2_cls-4" d="M81.64,68.19c0-.11,0-.16-.05-.22a.23.23,0,0,0-.27.05.24.24,0,0,0,.05.27h.21l.64.39,0-.16Z"/><path class="au2_cls-4" d="M81.8,69.1c0-.11-.05-.16-.11-.16a.24.24,0,0,0-.27.05c0,.11,0,.22.11.22a.17.17,0,0,0,.22,0l.62.27,0-.15Z"/><path class="au2_cls-4" d="M81.91,69.86c0-.05-.05-.11-.11-.16s-.22,0-.22.11,0,.16.05.22a.32.32,0,0,0,.21-.05l.74.37,0-.15Z"/><path class="au2_cls-4" d="M82.07,70.56c0-.05-.05-.11-.11-.16s-.16,0-.21.11,0,.16.05.22.16,0,.21-.05l.78.39-.05-.16Z"/><path class="au2_cls-4" d="M82.18,71.15c.05-.05,0-.11-.05-.16a.24.24,0,0,0-.27.05.4.4,0,0,0,.05.27c.11,0,.16,0,.21-.05l1,.67L83,71.7Z"/><path class="au2_cls-4" d="M83.36,61.88c0,.05.11.05.16.05s.11-.16.11-.27a.24.24,0,0,0-.27-.05c-.05,0-.05.11-.05.16l-.6.28,0,.15Z"/><path class="au2_cls-4" d="M83.15,62.74a.16.16,0,0,0,.22,0c.05-.05.11-.16.05-.21a.13.13,0,0,0-.21-.05c-.11.05-.11.11-.11.16l-.56.37c0,.06,0,.11,0,.16Z"/><path class="au2_cls-4" d="M83.09,63.66a.16.16,0,0,0,.22,0,.16.16,0,1,0-.16-.27c-.05.05-.11.11-.11.16l-.62.41v.15Z"/><path class="au2_cls-4" d="M83,64.58a.1.1,0,0,0,.16,0c.11-.05.11-.16.05-.27a.24.24,0,0,0-.27,0,.2.2,0,0,0-.05.16l-.58.46c0,.05,0,.1,0,.16Z"/><path class="au2_cls-4" d="M83,65.55a.2.2,0,0,0,.16-.05.13.13,0,0,0,.05-.22.13.13,0,0,0-.21-.05c-.11.05-.11.11-.11.21l-.54.42c0,.06,0,.13,0,.19Z"/><path class="au2_cls-4" d="M83,66.3a.1.1,0,0,0,.16,0c.11-.05.11-.16,0-.27A.16.16,0,0,0,83,66a.32.32,0,0,0-.05.21l-.56.51c0,.06,0,.13,0,.19Z"/><path class="au2_cls-4" d="M83,67.05a.16.16,0,0,0,.21,0,.24.24,0,0,0,0-.27.16.16,0,0,0-.21,0c-.05.05-.11.16-.05.22l-.55.51s0,.09,0,.14Z"/><path class="au2_cls-4" d="M83.15,68a.2.2,0,0,0,.16-.05.16.16,0,0,0,0-.21c-.05-.11-.16-.05-.27,0s-.05.11,0,.16l-.48.55,0,.16Z"/><path class="au2_cls-4" d="M83.31,68.72c.05,0,.16,0,.16-.05a.24.24,0,0,0,0-.27c-.11-.05-.22-.05-.27.05a.1.1,0,0,0,0,.16l-.49.67,0,.16Z"/><path class="au2_cls-4" d="M83.68,70.45c.11,0,.16,0,.21-.05s.05-.21-.05-.27a.13.13,0,0,0-.22.05.1.1,0,0,0,0,.16l-.47.64,0,.13Z"/><path class="au2_cls-4" d="M84.06,71.26c.11,0,.16,0,.21-.05A.19.19,0,1,0,84,71v.22l-.45.76.05.15Z"/><path class="au2_cls-4" d="M83.52,69.48a.2.2,0,0,0,.16-.05.24.24,0,0,0-.05-.27c-.11-.05-.21,0-.21.05a.17.17,0,0,0,0,.22l-.48.74,0,.16Z"/><path class="au2_cls-4" d="M82.06,67.53s0,.1,0,.15c0,.28.08.56.13.84l0,.16c0,.22.07.44.11.66l0,.15c.05.23.12.46.18.69l0,.15c.05.19.09.37.15.56l.05.16c.07.22.15.43.23.64l.08.23c.1.26.19.52.3.78l.64.52c-.17-.37-.33-.74-.48-1.12L83.51,72c-.11-.28-.21-.56-.3-.85l0-.13c-.07-.22-.12-.44-.18-.66l0-.16c-.06-.24-.13-.48-.19-.73l0-.16c0-.24-.08-.47-.12-.71l0-.16c0-.26-.09-.51-.12-.77,0,0,0-.09,0-.14s0-.37,0-.56,0-.13,0-.19c0-.24,0-.47,0-.71,0-.06,0-.13,0-.19q0-.39,0-.78c0-.05,0-.1,0-.16,0-.27,0-.54.06-.81V64c0-.26,0-.52.08-.79h0c0-.06,0-.11,0-.16,0-.27.1-.54.15-.81l0-.15c0-.23.1-.45.15-.67l0-.16q.08-.3.16-.6l0-.14c.07-.23.14-.45.22-.68l.06-.16.18-.49.05-.14.19-.46.08-.18.22-.48.06-.14c.09-.18.17-.36.26-.53l.08-.15c.1-.19.21-.37.32-.56l.07-.13c.1-.17.2-.35.31-.52l.09-.12.29-.42.11-.16.29-.42.11-.15c.1-.13.21-.26.32-.39l.09-.12.34-.42.09-.11.37-.41.12-.13.34-.35.16-.17.26-.27c.11-.05.11-.16,0-.27A.16.16,0,0,0,88,52c-.22.22-.42.45-.63.67l-.11.11-.36.39-.09.1-.34.41-.08.1L86,54.2l-.09.11-.25.34-.07.1-.39.56-.08.12-.34.51-.07.12c-.08.13-.15.26-.22.38l-.07.13c-.11.18-.22.36-.32.55L84,57.3l-.14.29-.06.13-.25.52-.06.14-.13.28-.05.14c-.05.13-.1.26-.15.39l0,.13c-.06.15-.12.3-.17.45l-.05.14c-.06.17-.11.35-.16.53l-.05.18c0,.16-.09.32-.14.49l-.05.18c-.05.2-.1.41-.14.61l0,.18c0,.22-.09.44-.12.66,0,.06,0,.13,0,.19s0,.13,0,.2c0,.24,0,.47-.07.71,0,.05,0,.11,0,.16,0,.26-.05.53-.07.79,0,.06,0,.11,0,.17,0,.27,0,.54,0,.81,0,.05,0,.11,0,.16q0,.33,0,.67c0,.05,0,.11,0,.16C82,67,82,67.27,82.06,67.53Z"/><path class="au2_cls-5" d="M90.58,77.86l.27.2c.3.22.62.43.94.63s.45.28.68.41l.45.23.55.26h1.75a14.81,14.81,0,1,1,9.59,0h1.75l.54-.26.46-.24c.23-.13.45-.27.67-.41s.64-.41.95-.64l.26-.2a15.78,15.78,0,0,0,5.12-7v0a15.51,15.51,0,1,0-29.11,0v0A15.78,15.78,0,0,0,90.58,77.86Z"/><path class="au2_cls-3" d="M85.57,65.6a14.43,14.43,0,1,1,17.68,14h1.55a14.81,14.81,0,1,0-9.59,0h1.55A14.36,14.36,0,0,1,85.57,65.6Z"/><path class="au2_cls-4" d="M114.43,65.6a14.43,14.43,0,1,0-17.68,14h6.49A14.36,14.36,0,0,0,114.43,65.6ZM100,79.23A13.65,13.65,0,1,1,113.68,65.6,13.65,13.65,0,0,1,100,79.23Z"/><path class="au2_cls-3" d="M100,51.92A13.65,13.65,0,1,0,113.68,65.6,13.7,13.7,0,0,0,100,51.92Zm-7.81,4.15c.05-.05.11,0,.11.11s-.06.11-.16.11-.11,0-.11-.11S92.14,56.07,92.19,56.07Zm-.32.38a.1.1,0,0,1,.16,0c.05,0,.05.05-.05.11s-.11.05-.11,0S91.82,56.5,91.87,56.44Zm-.32,0c0-.05.05-.16.11-.11s.05.05,0,.16-.05.05-.11.05S91.49,56.5,91.55,56.44Zm-.27-.16c0-.05.05-.05.11,0s.05.05,0,.11-.05.05-.11.05S91.22,56.33,91.28,56.28ZM91.06,56c.11-.05.21.05.16.11s-.05.16-.11.11A.16.16,0,0,1,91.06,56ZM91,55.8c.11.05.11.16-.05.21s-.11,0-.11-.05S90.9,55.74,91,55.8Zm0,.54c.11,0,.05.11,0,.16s-.21.11-.21,0S90.85,56.28,91,56.33Zm-3,5.39c.05,0,0,.05,0,.11s-.11.05-.11-.05S87.83,61.67,87.94,61.72Zm0,.43c-.05.05-.11-.05-.11-.11s.11-.05.11-.05A.1.1,0,0,1,87.94,62.15Zm.21-.22a.08.08,0,1,1,.11-.11c.05.05.05.05,0,.11S88.21,62,88.15,61.94Zm.16.27c-.05.05-.05.05-.11.05V62.1c.11-.05.11-.05.16,0S88.32,62.15,88.32,62.21Zm.16,0a.07.07,0,0,1,0-.11s.05-.05.05,0,.05.05.05.11S88.53,62.26,88.48,62.21Zm8,3.66c-.11.27-.16.16-.27,0s-.05-.27.11-.32.11-.11.16,0A.35.35,0,0,1,96.45,65.87Zm12.38,6.3c0,.16-.16.16-.21.43a1.3,1.3,0,0,1-.32.81,2.32,2.32,0,0,0-.48,1c0,.27-.11.32-.21.27s-.21,0-.32.11-.43,0-.43-.16a.82.82,0,0,0-.16-.38c-.16-.11,0-.27-.05-.48s0-.16.11-.27a.54.54,0,0,0,.21-.38c.05-.05.05-.16.11-.22.21-.16.11-.22-.05-.38s-.05-.16.05-.32a1.87,1.87,0,0,1,.65-.38c.21-.05.27-.11.32-.27s.05-.16.22-.27a.73.73,0,0,0,.38-.32c.05-.11.38-.27.38,0s.16.27.16.7S108.83,72,108.83,72.17Zm-2.26-3a.19.19,0,0,1,.05.11c-.05.11-.11.11-.16.11a.32.32,0,0,1-.05-.22A.1.1,0,0,1,106.57,69.15Zm-.27-.38a.25.25,0,0,1,0-.27s.16-.05.16,0,.11,0,.11.05-.11.16-.11.22S106.41,68.83,106.3,68.78Zm3.77-5.28c-.21.38-.43,1-1,1.89s-1.51,1.08-2.69,2.75c-.38.48-.16.81-.05,1.18a8.92,8.92,0,0,0,.16,1.29c.27.75-.11.32-.11.86.05.22-.05.32-.21.48a1.14,1.14,0,0,1-.7.27c-.16,0-.16.11-.21.16-.22.22-.43.11-.65.38a3.13,3.13,0,0,0-.11,1.24.54.54,0,0,1-.38.59c-.21,0-.43,0-.38.22a.94.94,0,0,1-.38.75c-.16.11-.48.27-.59.54-.38.75-.81.43-1.08.75s-.75-.22-1.13.05-.59,0-.75.05-.43,0-.38-.22-.27-.43-.21-.81a.45.45,0,0,0-.32-.48c-.27-.11-.27-.27-.27-.48a1,1,0,0,0-.11-.38,2.7,2.7,0,0,1-.05-1.13c.05-.16.05-.16-.21-.38s-.27-.38-.27-.59c-.05-.49-.38-.38-.43-1a9.21,9.21,0,0,1,.54-1.35A2.59,2.59,0,0,0,98,68.45c-.11-.11-.27-.32-.21-.48s-.43-.27-.38-.65c.05-.22-.05-.27-.32-.43s-.32-.22-.16-.38a.31.31,0,0,0,.11-.43c-.05-.11,0-.16.11-.16s.27,0,.27-.27-.16-.43-.59-.43-.65-.05-.7-.27,0-.27-.27-.43a1,1,0,0,0-.86.16c-.32.16-.38.11-.48.05s-.05,0-.22.11a.58.58,0,0,1-.59,0,1.07,1.07,0,0,0-.86-.05c-.54.16-.75.27-1.19.05s-.59-.59-1-.92-.11-.7-.48-.92,0-.32-.43-.48c-.22-.11-.32-.27-.22-.48s-.05-.65.32-1.08a1.5,1.5,0,0,0,.32-1.24,1.44,1.44,0,0,1,.64-1.4c.91-.75,1.78-1,2.48-2.32.38-.81.86-.59,1.4-.75.16-.05.21-.05.48.11s.92-.43,1.51-.22c.32.16.86-.16,1.24,0a1.49,1.49,0,0,0,.7-.05.51.51,0,0,1,.38.11c.11.11.21.16.16.32s-.22.32-.27.48-.11.16,0,.22.11.11.16.22,0,.16.21.11a.74.74,0,0,1,.65.22,1.06,1.06,0,0,0,.75.48c.49.11.49,0,.38-.21s-.05-.32.16-.27a.89.89,0,0,0,.54-.11.41.41,0,0,1,.48.05c.38.38.59.05.75.32s.27.21.38.11a1.14,1.14,0,0,1,.81-.05.49.49,0,0,1,.54.05.25.25,0,0,1,.32.05c.11-.05.22-.11.22.32s-.22.59-.59.48a1.13,1.13,0,0,1,.38.92c.49.32.27.7.59,1,.27.16.22.38.48,1.13.49,1.4.54.27.86.92s.48.21.75.86.32.49.7.43.86-.16,1.35-.22S110.23,63.12,110.07,63.5Zm.54,9.21c-.11.05-.16.05-.21,0s-.11-.05-.05-.16.11,0,.27-.05S110.66,72.6,110.61,72.71Zm.43.05c-.05,0-.16,0-.16-.11a.16.16,0,0,1,.21-.11C111.2,72.6,111.15,72.71,111,72.76Z"/><path class="au2_cls-6" d="M80.88,70.66A19.66,19.66,0,0,0,92.68,83.91v-.7H92.3V79.6h1.11l-.5-.26-.45-.23-.68-.41c-.32-.2-.63-.41-.94-.63l-.27-.2a15.78,15.78,0,0,1-5.12-7v0l-1.12,2.55L84,73.22l-.64-.52Z"/><path class="au2_cls-4" d="M113.46,54.61c0-.05-.05-.11-.16-.11s-.16.05-.16.16a.17.17,0,0,0,.16.16c.05,0,.16-.05.16-.11l.54,0-.11-.15Z"/><path class="au2_cls-4" d="M113.84,55.15c0-.05-.05-.11-.16-.11a.14.14,0,0,0-.16.16.17.17,0,0,0,.16.16c.05,0,.11,0,.16-.11l.56.08-.11-.16Z"/><path class="au2_cls-4" d="M114.16,55.69a.12.12,0,0,0-.11-.11c-.11,0-.21.05-.21.16a.17.17,0,0,0,.16.16c.05,0,.16,0,.16-.11l.61.09-.08-.12Z"/><path class="au2_cls-4" d="M114.59,56.33c-.05-.11-.11-.16-.16-.16s-.16.05-.21.16a.14.14,0,0,0,.16.16.1.1,0,0,0,.16-.05l.61.09-.07-.13Z"/><path class="au2_cls-4" d="M114.92,56.93c0-.05-.05-.16-.11-.16s-.21.05-.21.11a.16.16,0,0,0,.11.22c.11.05.16,0,.22-.05l.63.2-.08-.15Z"/><path class="au2_cls-4" d="M115.35,57.63c0-.05-.05-.11-.11-.16s-.21.05-.21.16.05.16.11.16a.16.16,0,0,0,.21-.05l.53.16-.06-.14Z"/><path class="au2_cls-4" d="M115.62,58.27c0-.11-.05-.16-.11-.16s-.21.05-.21.11,0,.22.11.22.16,0,.21-.05l.57.17-.08-.18Z"/><path class="au2_cls-4" d="M115.83,58.87a.11.11,0,0,0-.11-.11c-.11-.05-.21,0-.21.11s0,.16.11.22a.32.32,0,0,0,.22-.05l.59.14-.05-.14Z"/><path class="au2_cls-4" d="M116.1,59.46c0-.05-.05-.11-.11-.16s-.21.05-.21.11a.24.24,0,0,0,.05.27c.11,0,.16,0,.22-.05l.62.19-.06-.16Z"/><path class="au2_cls-4" d="M116.32,60.27c0-.11-.05-.16-.11-.16s-.21,0-.21.05,0,.22.05.22.16.05.21,0l.66.25,0-.14Z"/><path class="au2_cls-4" d="M116.53,61c0-.05-.05-.11-.11-.16a.28.28,0,0,0-.22.11c-.05.11,0,.21.11.21a.1.1,0,0,0,.16,0l.66.25,0-.16Z"/><path class="au2_cls-4" d="M113,54.07c-.05-.05-.11-.11-.16-.11s-.21.05-.21.16a.17.17,0,0,0,.16.16c.11,0,.16,0,.16-.11l.59,0-.09-.12Z"/><path class="au2_cls-4" d="M112.6,53.53c-.05-.05-.11-.11-.16-.11s-.22.05-.22.16a.17.17,0,0,0,.16.16c.11,0,.16,0,.16-.11l.59,0-.09-.12Z"/><path class="au2_cls-4" d="M112.06,53c-.05-.05-.11-.11-.16-.11a.17.17,0,0,0-.16.16c-.05.11.05.22.16.22s.11-.05.16-.11h.61l-.12-.13Z"/><path class="au2_cls-4" d="M111.69,52.46c0-.05-.05-.11-.11-.16s-.21.05-.21.16.05.16.16.22.11-.05.16-.11l.53.11-.16-.17Z"/><path class="au2_cls-4" d="M112.92,52.13A.12.12,0,0,0,113,52c.05-.11,0-.21-.11-.21s-.21,0-.21.11,0,.16.05.16l-.12.56.11.11Z"/><path class="au2_cls-4" d="M113.36,52.51c.11,0,.16-.05.16-.11s-.05-.21-.11-.21-.22.05-.22.11,0,.16.05.22l-.13.63.09.1Z"/><path class="au2_cls-4" d="M113.84,53c.05,0,.16-.05.16-.11s0-.22-.11-.22-.22,0-.22.11a.1.1,0,0,0,.05.16l-.2.71.08.1Z"/><path class="au2_cls-4" d="M114.33,53.48c.05-.05.11-.05.16-.16s-.05-.16-.16-.22-.16.05-.21.16,0,.11.11.16l-.23.78.09.11Z"/><path class="au2_cls-4" d="M114.7,53.91c.05,0,.11-.05.16-.11a.28.28,0,0,0-.11-.21c-.11,0-.21,0-.21.11s0,.16.05.21l-.26.74.07.1Z"/><path class="au2_cls-4" d="M115.19,54.56c.05,0,.11-.05.16-.11a.2.2,0,0,0-.11-.27.28.28,0,0,0-.21.11c-.05.11,0,.16.05.21l-.29.81.08.12Z"/><path class="au2_cls-4" d="M115.3,56.07l.32-.92c.06,0,.11-.05.16-.11a.41.41,0,0,0-.11-.21c-.11,0-.22,0-.22.11s0,.16.05.21l-.33.75.1.17Z"/><path class="au2_cls-4" d="M115.94,55.74c.11,0,.16-.05.16-.11s0-.22-.05-.22-.22,0-.22.05-.05.16,0,.22l-.33.75.08.13Z"/><path class="au2_cls-4" d="M116,57.31l.38-.92c.05.05.11,0,.16-.05a.2.2,0,0,0-.11-.27.22.22,0,0,0-.22.11c-.05.05,0,.16.05.22l-.37.73.09.18Z"/><path class="au2_cls-4" d="M116.64,56.93c.05,0,.16,0,.16-.05s.05-.21-.05-.27-.16,0-.22.05-.05.16,0,.21l-.4.72.06.13Z"/><path class="au2_cls-4" d="M116.91,57.57a.28.28,0,0,0,.21-.11.22.22,0,0,0-.11-.22c-.05-.05-.16,0-.21.05s0,.16,0,.21l-.36.72.07.14Z"/><path class="au2_cls-4" d="M117.18,58.06a.2.2,0,0,0,.16-.05c.05-.11.05-.21-.05-.27s-.16,0-.22.05a.17.17,0,0,0,0,.21l-.44.66.05.14Z"/><path class="au2_cls-4" d="M117.4,58.6a.28.28,0,0,0,.21-.11.13.13,0,0,0-.05-.21.13.13,0,0,0-.22.05.1.1,0,0,0,0,.16l-.51.7.05.13Z"/><path class="au2_cls-4" d="M117.61,59.14c.05.05.11,0,.16-.05a.13.13,0,0,0-.05-.22.17.17,0,0,0-.22,0c-.05.11-.05.16,0,.22l-.45.68.05.14Z"/><path class="au2_cls-4" d="M117.88,59.89a.2.2,0,0,0,.16-.05.25.25,0,0,0,0-.27c-.11-.05-.22-.05-.27.05a.1.1,0,0,0,0,.16l-.51.64.05.18Z"/><path class="au2_cls-4" d="M118,60.59a.22.22,0,0,0,.21-.11c.05-.05,0-.16-.05-.21a.16.16,0,0,0-.21,0,.41.41,0,0,0-.05.21l-.48.61,0,.18Z"/><path class="au2_cls-4" d="M118.26,61.4a.2.2,0,0,0,.16-.05.17.17,0,0,0,0-.22.18.18,0,0,0-.27,0c-.05.05-.05.11,0,.22l-.5.54c0,.06,0,.12,0,.18Z"/><path class="au2_cls-4" d="M118.36,62.31a.2.2,0,0,0,.16-.05.16.16,0,0,0,0-.21.18.18,0,0,0-.27,0,.1.1,0,0,0,0,.16l-.45.53c0,.06,0,.13,0,.19Z"/><path class="au2_cls-4" d="M118.53,63.34c.05.05.11.05.16-.05a.17.17,0,0,0,0-.22.24.24,0,0,0-.27,0,.16.16,0,0,0,0,.22l-.47.55,0,.16Z"/><path class="au2_cls-4" d="M118.58,64.36c.05.05.11,0,.16-.05s.05-.16,0-.22-.16-.05-.21,0-.05.11-.05.22l-.44.48c0,.06,0,.11,0,.17Z"/><path class="au2_cls-4" d="M118.58,65.38c.11,0,.16,0,.22-.05a.24.24,0,0,0,0-.27c-.05-.05-.16-.05-.27.05s-.05.11,0,.16l-.49.49c0,.05,0,.11,0,.16Z"/><path class="au2_cls-4" d="M118.58,66.3a.17.17,0,0,0,.22,0,.18.18,0,1,0-.22-.27.2.2,0,0,0-.05.16l-.51.37c0,.06,0,.13,0,.19Z"/><path class="au2_cls-4" d="M118.53,67.32h.21a.19.19,0,1,0-.21-.32c-.05.05-.05.11-.05.21l-.53.32s0,.1,0,.15Z"/><path class="au2_cls-4" d="M118.42,68.29h.21a.4.4,0,0,0,.05-.27.24.24,0,0,0-.27-.05.16.16,0,0,0-.05.22l-.56.31,0,.18Z"/><path class="au2_cls-4" d="M118.26,69.21a.16.16,0,0,0,.21,0c.11,0,.11-.11.11-.22a.23.23,0,0,0-.27-.05c-.05,0-.11.05-.11.16l-.54.24,0,.15Z"/><path class="au2_cls-4" d="M118.15,70c.05.05.11.05.21.05s.11-.16.05-.22-.11-.16-.22-.11-.11.11-.11.16l-.64.32,0,.15Z"/><path class="au2_cls-4" d="M118,70.66c.05.05.11.05.21.05s.11-.16.05-.22-.16-.16-.21-.11-.11.11-.11.16l-.67.33-.05.16Z"/><path class="au2_cls-4" d="M117.88,71.26c.05.05.11.05.21.05a.24.24,0,0,0,0-.27c0-.05-.11-.11-.21-.05s-.11.11-.05.16l-.84.55-.08.23Z"/><path class="au2_cls-4" d="M116.69,61.78c0-.05,0-.16-.05-.16a.24.24,0,0,0-.27.05c0,.11,0,.22.11.27a.2.2,0,0,0,.16-.05l.68.32,0-.15Z"/><path class="au2_cls-4" d="M116.91,62.64c0-.05,0-.11-.11-.16a.13.13,0,0,0-.22.05c-.05.05,0,.16.05.21a.16.16,0,0,0,.21,0l.64.43c0-.06,0-.11,0-.16Z"/><path class="au2_cls-4" d="M117,63.55c0-.05-.05-.11-.11-.16a.16.16,0,0,0-.16.27.1.1,0,0,0,.16,0l.74.46c0-.05,0-.11,0-.16Z"/><path class="au2_cls-4" d="M117.07,64.47a.2.2,0,0,0-.05-.16.24.24,0,0,0-.27,0c-.05.11-.05.22.05.27a.1.1,0,0,0,.16,0l.69.51c0-.05,0-.1,0-.16Z"/><path class="au2_cls-4" d="M117.07,65.44c.05-.11,0-.16-.05-.21a.13.13,0,0,0-.21.05.16.16,0,0,0,0,.22.41.41,0,0,0,.21.05l.65.51c0-.06,0-.12,0-.18Z"/><path class="au2_cls-4" d="M117.07,66.25A.33.33,0,0,0,117,66a.16.16,0,0,0-.21,0c-.11.11-.11.21,0,.27a.1.1,0,0,0,.16,0l.65.65c0-.06,0-.13,0-.19Z"/><path class="au2_cls-4" d="M117,67c.05-.05,0-.16-.05-.22a.17.17,0,0,0-.22,0,.24.24,0,0,0,0,.27c.05.05.11.05.22,0l.59.59s0-.09,0-.14Z"/><path class="au2_cls-4" d="M117,67.86c.05-.05,0-.11-.05-.16s-.16-.11-.22,0a.17.17,0,0,0,0,.21.2.2,0,0,0,.16.05l.56.6,0-.16Z"/><path class="au2_cls-4" d="M116.8,68.62c.05-.05,0-.11,0-.16s-.16-.11-.27-.05a.24.24,0,0,0,0,.27c0,.05.11.05.16.05l.56.72,0-.16Z"/><path class="au2_cls-4" d="M116.37,70.34a.1.1,0,0,0,0-.16.13.13,0,0,0-.21-.05c-.11.05-.11.16-.05.27a.2.2,0,0,0,.16.05l.53.67,0-.14Z"/><path class="au2_cls-4" d="M116,71.2V71a.19.19,0,0,0-.32.22c.05.05.11.05.21.05l.5.86.05-.15Z"/><path class="au2_cls-4" d="M116.59,69.42a.16.16,0,0,0,0-.22c-.05-.05-.16-.11-.21-.05s-.11.16-.05.27a.2.2,0,0,0,.16.05l.55.84,0-.16Z"/><path class="au2_cls-4" d="M116.9,71.92l.08-.23c.07-.21.16-.43.23-.64l.05-.16c.05-.19.09-.37.14-.56l0-.15c.06-.23.13-.46.18-.69l0-.15c0-.22.07-.44.11-.66l0-.18c0-.27.09-.55.12-.82,0,0,0-.1,0-.15,0-.26,0-.52.06-.78,0-.06,0-.13,0-.19s0-.43,0-.64c0-.05,0-.11,0-.16,0-.27,0-.54,0-.81,0-.06,0-.11,0-.17,0-.26,0-.53-.07-.79l0-.16c0-.24,0-.47-.07-.71,0-.07,0-.13,0-.2s0-.13,0-.19c0-.22-.08-.44-.12-.66,0-.06,0-.12,0-.18s-.09-.41-.14-.61l0-.18-.14-.49-.05-.18c-.05-.18-.11-.35-.17-.53l-.05-.14-.17-.45-.05-.13c0-.13-.09-.26-.14-.39l-.05-.14-.13-.28-.07-.14c-.08-.17-.16-.35-.25-.52l-.06-.13c0-.1-.09-.19-.14-.29l-.09-.18c-.1-.19-.21-.37-.32-.55l-.08-.13-.22-.38-.1-.17c-.1-.16-.21-.31-.31-.46l-.08-.12-.39-.56-.07-.1-.25-.34L114,54.2l-.37-.45-.08-.1-.34-.41-.09-.1-.37-.39-.11-.11c-.21-.22-.41-.45-.63-.67a.17.17,0,0,0-.22,0c-.11.11-.11.22,0,.27l.26.27.16.17.34.35.12.13.37.41.09.12.35.42.09.12c.1.13.22.26.32.39l.11.15c.1.14.19.28.29.42l.11.16.29.42.08.13c.11.17.21.35.31.52l.07.13.32.56.08.15c.09.17.17.35.26.53l.06.14.22.48.08.18.19.46.05.14c.06.16.12.32.18.49l.06.16c.08.22.15.45.22.68l0,.14c.06.2.11.4.16.6l0,.16c.06.22.11.45.15.67l0,.15c.05.27.11.54.15.81,0,.06,0,.11,0,.16h0c0,.26.05.52.08.79,0,.05,0,.11,0,.16,0,.27,0,.54.06.81,0,.05,0,.1,0,.16q0,.39,0,.79c0,.06,0,.12,0,.18,0,.24,0,.47,0,.71,0,.06,0,.13,0,.19s0,.37,0,.56,0,.09,0,.14c0,.26-.07.52-.12.77l0,.16c0,.24-.07.47-.12.71l0,.16c-.05.24-.12.48-.19.73l0,.16c-.06.22-.12.44-.18.66l0,.14c-.09.28-.19.56-.3.84l-.05.15c-.14.37-.31.74-.48,1.11l.64-.52C116.71,72.45,116.81,72.19,116.9,71.92Z"/><path class="au2_cls-6" d="M109.42,77.87l-.26.2c-.3.23-.62.44-.95.64l-.67.41-.46.24-.5.26h1.12v3.61h-.38v.7a19.66,19.66,0,0,0,11.79-13.25l-2.52,2-.64.52-.29.24-1.12-2.55v0A15.78,15.78,0,0,1,109.42,77.87Z"/><path class="au2_cls-3" d="M104.91,80.83a1,1,0,0,0,0,1.11,1.08,1.08,0,0,0,0-1.11Z"/><path class="au2_cls-3" d="M105.87,80.25a1.14,1.14,0,0,0-.8.34,1.34,1.34,0,0,1,0,1.59,1.13,1.13,0,0,0,.8.34,1.13,1.13,0,1,0,0-2.26Z"/><path class="au2_cls-3" d="M98.87,81.38a1.14,1.14,0,0,0,.15.55,1,1,0,0,0,0-1.11A1.14,1.14,0,0,0,98.87,81.38Z"/><path class="au2_cls-3" d="M97,81.94a1.07,1.07,0,0,0,0-1.11,1,1,0,0,0,0,1.11Z"/><path class="au2_cls-3" d="M95.24,82.16a1.15,1.15,0,0,0,1.65,0,1.43,1.43,0,0,1,0-1.56,1.15,1.15,0,0,0-1.65,0,1.42,1.42,0,0,1,0,1.56Z"/><path class="au2_cls-3" d="M97.47,81.38a1.37,1.37,0,0,1-.26.79,1.14,1.14,0,0,0,.8.34,1.21,1.21,0,0,0,.85-.34,1.34,1.34,0,0,1,0-1.58,1.21,1.21,0,0,0-.85-.34,1.14,1.14,0,0,0-.8.34A1.37,1.37,0,0,1,97.47,81.38Z"/><path class="au2_cls-3" d="M94.92,80.59a1.2,1.2,0,0,0-.85-.34,1.13,1.13,0,0,0,0,2.26,1.2,1.2,0,0,0,.85-.34,1.34,1.34,0,0,1,0-1.58Z"/><path class="au2_cls-3" d="M101,80.83a1,1,0,0,0,0,1.11,1.06,1.06,0,0,0,0-1.11Z"/><path class="au2_cls-3" d="M103,80.83a1.07,1.07,0,0,0,0,1.11,1,1,0,0,0,0-1.11Z"/><path class="au2_cls-3" d="M95.09,81.94a1,1,0,0,0,0-1.11,1.07,1.07,0,0,0,0,1.11Z"/><path class="au2_cls-3" d="M103.93,80.25a1.11,1.11,0,0,0-.83.35,1.42,1.42,0,0,1,0,1.56,1.15,1.15,0,0,0,1.65,0,1.43,1.43,0,0,1,0-1.56A1.12,1.12,0,0,0,103.93,80.25Z"/><path class="au2_cls-3" d="M101.94,80.25a1.14,1.14,0,0,0-.8.34,1.34,1.34,0,0,1,0,1.59,1.14,1.14,0,0,0,.8.34,1.21,1.21,0,0,0,.85-.34,1.35,1.35,0,0,1,0-1.58A1.21,1.21,0,0,0,101.94,80.25Z"/><path class="au2_cls-3" d="M100,80.25a1.12,1.12,0,0,0-.83.35,1.42,1.42,0,0,1,0,1.56,1.15,1.15,0,0,0,1.65,0,1.43,1.43,0,0,1,0-1.56A1.12,1.12,0,0,0,100,80.25Z"/><path class="au2_cls-3" d="M107.7,79.6H92.3v3.61h15.4Zm-1.83,3.18a1.31,1.31,0,0,1-1-.42,1.36,1.36,0,0,1-2,0,1.39,1.39,0,0,1-1,.42,1.31,1.31,0,0,1-1-.42,1.36,1.36,0,0,1-2,0,1.38,1.38,0,0,1-1,.42,1.32,1.32,0,0,1-1-.42,1.36,1.36,0,0,1-2,0,1.4,1.4,0,1,1,0-2,1.36,1.36,0,0,1,2,0A1.32,1.32,0,0,1,98,80a1.38,1.38,0,0,1,1,.42,1.36,1.36,0,0,1,2,0,1.31,1.31,0,0,1,1-.42,1.39,1.39,0,0,1,1,.42,1.36,1.36,0,0,1,2,0,1.31,1.31,0,0,1,1-.42,1.4,1.4,0,0,1,0,2.8Z"/><path class="au2_cls-7" d="M100,82.51a1.12,1.12,0,0,1-.83-.35,1.32,1.32,0,0,1-.16.2,1.36,1.36,0,0,0,2,0,1.29,1.29,0,0,1-.16-.2A1.12,1.12,0,0,1,100,82.51Z"/><path class="au2_cls-7" d="M101.14,80.59a1.12,1.12,0,0,0-.17.24,1.06,1.06,0,0,1,0,1.11,1.19,1.19,0,0,0,.17.24,1.34,1.34,0,0,0,0-1.59Z"/><path class="au2_cls-7" d="M98.6,81.38a1.37,1.37,0,0,0,.26.79,1.1,1.1,0,0,0,.17-.23,1.07,1.07,0,0,1,0-1.11,1.12,1.12,0,0,0-.17-.23A1.37,1.37,0,0,0,98.6,81.38Z"/><path class="au2_cls-7" d="M100,80.25a1.12,1.12,0,0,1,.83.35,1.43,1.43,0,0,1,.16-.2,1.36,1.36,0,0,0-2,0,1.32,1.32,0,0,1,.16.2A1.12,1.12,0,0,1,100,80.25Z"/><path class="au2_cls-7" d="M99.41,81.38a1.42,1.42,0,0,0-.23-.78,1.32,1.32,0,0,0-.16-.2A1.38,1.38,0,0,0,98,80a1.32,1.32,0,0,0-1,.42,1.36,1.36,0,0,1,.16.19,1.14,1.14,0,0,1,.8-.34,1.21,1.21,0,0,1,.85.34,1.12,1.12,0,0,1,.17.23,1,1,0,0,1,0,1.11,1.1,1.1,0,0,1-.17.23,1.21,1.21,0,0,1-.85.34,1.14,1.14,0,0,1-.8-.34,1.4,1.4,0,0,1-.16.19,1.32,1.32,0,0,0,1,.42,1.38,1.38,0,0,0,1-.42,1.32,1.32,0,0,0,.16-.2A1.42,1.42,0,0,0,99.41,81.38Z"/><path class="au2_cls-7" d="M96.66,81.38a1.43,1.43,0,0,0,.23.78,1.17,1.17,0,0,0,.15-.23,1,1,0,0,1,0-1.11,1.17,1.17,0,0,0-.15-.23A1.44,1.44,0,0,0,96.66,81.38Z"/><path class="au2_cls-7" d="M97.47,81.38a1.45,1.45,0,0,0-.42-1,1.36,1.36,0,0,0-2,0,1.32,1.32,0,0,1,.16.2,1.15,1.15,0,0,1,1.65,0,1.17,1.17,0,0,1,.15.23,1.07,1.07,0,0,1,0,1.11,1.17,1.17,0,0,1-.15.23,1.15,1.15,0,0,1-1.65,0,1.32,1.32,0,0,1-.16.2,1.39,1.39,0,0,0,2.13-.19A1.37,1.37,0,0,0,97.47,81.38Z"/><path class="au2_cls-7" d="M94.94,81.38a1.13,1.13,0,0,1,.15-.55,1,1,0,0,0-.17-.24,1.34,1.34,0,0,0,0,1.58,1.07,1.07,0,0,0,.17-.23A1.13,1.13,0,0,1,94.94,81.38Z"/><path class="au2_cls-7" d="M95.48,81.38a1.42,1.42,0,0,0-.23-.78,1.32,1.32,0,0,0-.16-.2,1.4,1.4,0,1,0,0,2,1.32,1.32,0,0,0,.16-.2A1.42,1.42,0,0,0,95.48,81.38Zm-1.4,1.13a1.13,1.13,0,0,1,0-2.26,1.2,1.2,0,0,1,.85.34,1,1,0,0,1,.17.24,1.16,1.16,0,0,1-.17,1.34A1.2,1.2,0,0,1,94.08,82.51Z"/><path class="au2_cls-7" d="M101.94,82.51a1.14,1.14,0,0,1-.8-.34,1.19,1.19,0,0,1-.17-.24,1,1,0,0,1,0-1.11,1.12,1.12,0,0,1,.17-.24,1.14,1.14,0,0,1,.8-.34,1.21,1.21,0,0,1,.85.34,1.39,1.39,0,0,1,.16-.19,1.39,1.39,0,0,0-1-.42,1.31,1.31,0,0,0-1,.42,1.43,1.43,0,0,0-.16,1.76,1.29,1.29,0,0,0,.16.2,1.31,1.31,0,0,0,1,.42,1.39,1.39,0,0,0,1-.42,1.39,1.39,0,0,1-.16-.19A1.21,1.21,0,0,1,101.94,82.51Z"/><path class="au2_cls-7" d="M103.11,80.6a1.08,1.08,0,0,0-.15.23,1,1,0,0,1,0,1.11,1.1,1.1,0,0,0,.15.23,1.42,1.42,0,0,0,0-1.56Z"/><path class="au2_cls-7" d="M105.07,80.59a1.13,1.13,0,0,0-.17.24,1.08,1.08,0,0,1,0,1.11,1.11,1.11,0,0,0,.17.24,1.34,1.34,0,0,0,0-1.59Z"/><path class="au2_cls-7" d="M104.76,82.16a1.15,1.15,0,0,1-1.65,0,1.1,1.1,0,0,1-.15-.23,1.07,1.07,0,0,1,0-1.11,1.08,1.08,0,0,1,.15-.23,1.15,1.15,0,0,1,1.65,0,1.42,1.42,0,0,1,.16-.2,1.39,1.39,0,0,0-2.13.19,1.35,1.35,0,0,0,0,1.58,1.37,1.37,0,0,0,2.13.19A1.41,1.41,0,0,1,104.76,82.16Z"/><path class="au2_cls-7" d="M105.87,80a1.31,1.31,0,0,0-1,.42,1.42,1.42,0,0,0-.16.2,1.43,1.43,0,0,0,0,1.56,1.41,1.41,0,0,0,.16.2,1.31,1.31,0,0,0,1,.42,1.4,1.4,0,0,0,0-2.8Zm0,2.53a1.13,1.13,0,0,1-.8-.34,1.11,1.11,0,0,1-.17-.24,1,1,0,0,1,0-1.11,1.05,1.05,0,0,1,1-.58,1.13,1.13,0,1,1,0,2.26Z"/><path class="au2_cls-6" d="M109.8,63.07c-.48.05-1,.16-1.35.22s-.48.16-.7-.43-.49-.21-.75-.86-.38.48-.86-.92c-.27-.75-.21-1-.48-1.13-.32-.32-.11-.7-.59-1a1.13,1.13,0,0,0-.37-.92c.38.11.59.05.59-.48s-.11-.38-.22-.32a.25.25,0,0,0-.32-.05.49.49,0,0,0-.54-.05,1.14,1.14,0,0,0-.81.05c-.11.11-.21.16-.38-.11s-.38.05-.75-.32a.41.41,0,0,0-.48-.05.89.89,0,0,1-.54.11c-.21-.05-.21.05-.16.27s.11.32-.38.21a1.06,1.06,0,0,1-.75-.48.74.74,0,0,0-.65-.22c-.21.05-.21,0-.21-.11s-.05-.16-.16-.22-.11-.11,0-.22.21-.32.27-.48-.05-.22-.16-.32a.51.51,0,0,0-.38-.11,1.49,1.49,0,0,1-.7.05c-.38-.16-.92.16-1.24,0-.59-.21-1.18.38-1.51.22s-.32-.16-.48-.11c-.54.16-1-.05-1.4.75-.7,1.35-1.56,1.56-2.48,2.32a1.44,1.44,0,0,0-.64,1.4A1.5,1.5,0,0,1,89.88,61c-.38.43-.21.86-.32,1.08s0,.38.22.48c.43.16.11.27.43.48s.11.59.48.92.54.7,1,.92.65.11,1.19-.05a1.07,1.07,0,0,1,.86.05.58.58,0,0,0,.59,0c.16-.11.16-.16.22-.11s.16.11.48-.05a1,1,0,0,1,.86-.16c.27.16.27.21.27.43s.32.32.7.27.59.16.59.43-.16.32-.27.27S97,66,97,66.08a.31.31,0,0,1-.11.43c-.16.16-.05.27.16.38s.38.21.32.43c-.05.38.38.48.38.65s.11.38.21.48a2.59,2.59,0,0,1,.11,1.67,9.21,9.21,0,0,0-.54,1.35c.05.65.38.54.43,1,0,.21-.05.43.27.59s.27.21.21.38a2.7,2.7,0,0,0,.05,1.13,1,1,0,0,1,.11.38c0,.21,0,.38.27.48a.45.45,0,0,1,.32.48c-.05.38.21.49.21.81s.16.32.38.22.38.21.75-.05.75.27,1.13-.05.7,0,1.08-.75c.11-.27.43-.43.59-.54a.94.94,0,0,0,.38-.75c-.05-.22.16-.22.38-.22a.54.54,0,0,0,.38-.59,3.13,3.13,0,0,1,.11-1.24c.22-.27.43-.16.65-.38.05-.05.05-.16.21-.16a1.14,1.14,0,0,0,.7-.27c.16-.16.27-.27.21-.48,0-.54.38-.11.11-.86a8.92,8.92,0,0,1-.16-1.29c-.11-.38-.32-.7.05-1.18,1.19-1.67,2.21-1.89,2.69-2.75s.75-1.51,1-1.89S110.34,63,109.8,63.07Z"/><path class="au2_cls-6" d="M90.9,56c.16-.05.16-.16.05-.21s-.16.05-.16.16S90.79,56.07,90.9,56Z"/><path class="au2_cls-6" d="M91,56.5c.05-.05.11-.16,0-.16s-.21,0-.21.16S90.9,56.55,91,56.5Z"/><path class="au2_cls-6" d="M91.22,56.12c.05-.05-.05-.16-.16-.11a.16.16,0,0,0,.05.22C91.17,56.28,91.22,56.23,91.22,56.12Z"/><path class="au2_cls-6" d="M91.39,56.39c.05-.05.05-.05,0-.11s-.11-.05-.11,0-.05.16,0,.16S91.39,56.44,91.39,56.39Z"/><path class="au2_cls-6" d="M91.65,56.5q.08-.16,0-.16c-.05-.05-.11.05-.11.11s-.05.11,0,.11S91.65,56.55,91.65,56.5Z"/><path class="au2_cls-6" d="M92,56.55c.11-.05.11-.11.05-.11a.1.1,0,0,0-.16,0c-.05.05-.05.05,0,.11S91.92,56.61,92,56.55Z"/><path class="au2_cls-6" d="M92.14,56.28c.11,0,.16,0,.16-.11s-.06-.16-.11-.11-.16.05-.16.11S92,56.33,92.14,56.28Z"/><path class="au2_cls-6" d="M87.94,61.83c0-.05.05-.11,0-.11s-.11,0-.11.05S87.94,61.88,87.94,61.83Z"/><path class="au2_cls-6" d="M87.83,62c0,.05.05.16.11.11a.1.1,0,0,0,0-.16S87.83,62,87.83,62Z"/><path class="au2_cls-6" d="M88.26,61.83a.08.08,0,1,0-.11.11c.05.05.05,0,.11,0S88.32,61.88,88.26,61.83Z"/><path class="au2_cls-6" d="M88.21,62.1v.16c.05,0,.05,0,.11-.05s.05,0,.05-.11S88.32,62,88.21,62.1Z"/><path class="au2_cls-6" d="M88.53,62.1c0-.05-.05,0-.05,0a.07.07,0,0,0,0,.11c.05.05.05.05.11,0S88.58,62.1,88.53,62.1Z"/><path class="au2_cls-6" d="M96.29,65.55c-.16.05-.16.16-.11.32s.16.27.27,0a.35.35,0,0,0,0-.32C96.39,65.44,96.34,65.49,96.29,65.55Z"/><path class="au2_cls-6" d="M106.57,68.56c0-.05-.05,0-.11-.05s-.16,0-.16,0a.25.25,0,0,0,0,.27c.11.05.16.05.16,0S106.57,68.67,106.57,68.56Z"/><path class="au2_cls-6" d="M106.63,69.26a.19.19,0,0,0-.05-.11.1.1,0,0,0-.16,0,.32.32,0,0,0,.05.22C106.52,69.37,106.57,69.37,106.63,69.26Z"/><path class="au2_cls-6" d="M108.62,70.93a.73.73,0,0,1-.38.32c-.16.11-.22.16-.22.27s-.11.22-.32.27a1.87,1.87,0,0,0-.65.38c-.11.16-.21.22-.05.32s.27.21.05.38c-.05.05-.05.16-.11.22a.54.54,0,0,1-.21.38c-.11.11-.16.16-.11.27s-.11.38.05.48a.82.82,0,0,1,.16.38c0,.16.32.27.43.16s.16-.11.32-.11.21,0,.21-.27a2.32,2.32,0,0,1,.48-1,1.3,1.3,0,0,0,.32-.81c.05-.27.21-.27.21-.43s.32-.11.32-.54-.16-.43-.16-.7S108.67,70.82,108.62,70.93Z"/><path class="au2_cls-6" d="M110.61,72.49c-.16.05-.16-.05-.27.05s-.05.11.05.16.11.05.21,0S110.66,72.44,110.61,72.49Z"/><path class="au2_cls-6" d="M111.09,72.55a.16.16,0,0,0-.21.11c0,.11.11.11.16.11S111.2,72.6,111.09,72.55Z"/></g></g></svg>
