<svg xmlns="http://www.w3.org/2000/svg" viewBox="0 0 200 134"><defs><style>.ba_cls-1{fill:#2c328a;}.ba_cls-2{fill:#ffd733;}.ba_cls-3{fill:#fff;}</style></defs><title>Asset 27</title><g id="Layer_2" data-name="Layer 2"><g id="Layer_74" data-name="Layer 74"><path class="ba_cls-1" d="M183,0H171.1V134H183a17,17,0,0,0,17-17V17A17,17,0,0,0,183,0Z"/><path class="ba_cls-1" d="M17.48,0l2.81,8.72L12.8,3.28,5.31,8.72,7.09,3.21A17,17,0,0,0,0,17V117a17,17,0,0,0,17,17H142.2l-7.36-5.37h9.27l2.85-8.8,2.85,8.8h9.27L151.71,134H171L37,0Zm0,11.24h9.26l2.86-8.81,2.86,8.81h9.26L34.2,16.69l2.86,8.81-7.49-5.44-7.49,5.44,2.86-8.8ZM142.31,111.86l-7.49,5.44,2.86,8.81-7.49-5.44-7.49,5.44,2.86-8.81-7.49-5.44h9.26l2.86-8.81,2.86,8.81ZM125.54,95.09,118,100.53l2.86,8.81-7.49-5.44-7.49,5.44,2.86-8.81-7.49-5.44h9.26l2.86-8.81,2.86,8.81ZM108.77,78.32l-7.49,5.44,2.86,8.81-7.49-5.44-7.49,5.44L92,83.76l-7.49-5.44h9.26l2.86-8.81,2.86,8.81ZM92,61.55,84.51,67l2.86,8.81-7.49-5.44L72.38,75.8,75.25,67l-7.49-5.44H77l2.86-8.81,2.86,8.81ZM75.23,44.78l-7.49,5.44L70.6,59l-7.49-5.44L55.62,59l2.86-8.81L51,44.78h9.26L63.11,36,66,44.78ZM58.46,28,51,33.46l2.86,8.81-7.49-5.44-7.49,5.44,2.86-8.81L34.22,28h9.26l2.86-8.81L49.2,28Z"/><polygon class="ba_cls-2" points="37.02 0 171.02 134 171.1 134 171.1 0 37.02 0"/><path class="ba_cls-3" d="M12.8,3.28l7.49,5.45L17.48,0H17A16.9,16.9,0,0,0,7.09,3.21L5.31,8.72Z"/><polygon class="ba_cls-3" points="149.81 128.63 146.95 119.82 144.1 128.63 134.83 128.63 142.19 134 151.71 134 159.07 128.63 149.81 128.63"/><polygon class="ba_cls-3" points="29.57 20.05 37.06 25.49 34.2 16.69 41.69 11.24 32.43 11.24 29.57 2.44 26.71 11.24 17.45 11.24 24.94 16.69 22.08 25.49 29.57 20.05"/><polygon class="ba_cls-3" points="43.48 28.01 34.22 28.01 41.71 33.46 38.85 42.26 46.34 36.82 53.83 42.26 50.97 33.46 58.46 28.01 49.2 28.01 46.34 19.21 43.48 28.01"/><polygon class="ba_cls-3" points="60.25 44.78 50.99 44.78 58.48 50.23 55.62 59.03 63.11 53.59 70.6 59.03 67.74 50.23 75.23 44.78 65.97 44.78 63.11 35.98 60.25 44.78"/><polygon class="ba_cls-3" points="77.02 61.55 67.76 61.55 75.25 66.99 72.39 75.8 79.88 70.36 87.37 75.8 84.51 66.99 92 61.55 82.74 61.55 79.88 52.74 77.02 61.55"/><polygon class="ba_cls-3" points="93.78 78.32 84.53 78.32 92.02 83.76 89.15 92.57 96.65 87.13 104.14 92.57 101.28 83.76 108.77 78.32 99.51 78.32 96.65 69.52 93.78 78.32"/><polygon class="ba_cls-3" points="110.56 95.09 101.3 95.09 108.78 100.53 105.92 109.34 113.42 103.9 120.91 109.34 118.05 100.53 125.53 95.09 116.28 95.09 113.42 86.28 110.56 95.09"/><polygon class="ba_cls-3" points="127.32 111.86 118.06 111.86 125.56 117.3 122.69 126.11 130.18 120.67 137.68 126.11 134.81 117.3 142.31 111.86 133.04 111.86 130.18 103.05 127.32 111.86"/></g></g></svg>
