<svg xmlns="http://www.w3.org/2000/svg" viewBox="0 0 200 134"><defs><style>.bf_cls-1{fill:#ee3031;}.bf_cls-2{fill:#209e56;}.bf_cls-3{fill:#fbd632;}</style></defs><title>Asset 30</title><g id="Layer_2" data-name="Layer 2"><g id="Layer_71" data-name="Layer 71"><path class="bf_cls-1" d="M183,0H17A17,17,0,0,0,0,17V67H88.22l-9.53-6.92H95l5-15.48,5,15.48h16.28L111.78,67H200V17A17,17,0,0,0,183,0Z"/><path class="bf_cls-2" d="M108.14,69.64l5,15.48L100,75.56,86.83,85.13l5-15.48L88.22,67H0v50a17,17,0,0,0,17,17H183a17,17,0,0,0,17-17V67H111.78Z"/><polygon class="bf_cls-3" points="111.78 67 121.31 60.08 105.03 60.08 100 44.59 94.97 60.08 78.69 60.08 88.22 67 91.86 69.64 86.83 85.13 100 75.56 113.17 85.13 108.14 69.64 111.78 67"/></g></g></svg>
