<svg xmlns="http://www.w3.org/2000/svg" viewBox="0 0 200 134"><defs><style>.bh_cls-1{fill:#ce2931;}.bh_cls-2{fill:#fafafa;}</style></defs><title>Asset 16</title><g id="Layer_2" data-name="Layer 2"><g id="Layer_85" data-name="Layer 85"><path class="bh_cls-1" d="M183,0H45.44L77.68,13,44.2,26.5,77.68,40,44.2,53.5,77.68,67,44.2,80.5,77.68,94,44.2,107.5,77.68,121,45.44,134H183a17,17,0,0,0,17-17V17A17,17,0,0,0,183,0Z"/><path class="bh_cls-2" d="M44.2,107.5,77.68,94,44.2,80.5,77.68,67,44.2,53.5,77.68,40,44.2,26.5,77.68,13,45.44,0H17A17,17,0,0,0,0,17V117a17,17,0,0,0,17,17H45.44l32.24-13Z"/></g></g></svg>
