<svg xmlns="http://www.w3.org/2000/svg" viewBox="0 0 200 134"><defs><style>.bm_cls-1{fill:#cb292e;}.bm_cls-2{fill:#21205f;}.bm_cls-3{fill:#fff;}.bm_cls-4{fill:#cb2026;}.bm_cls-5{fill:#329044;}.bm_cls-6{fill:#010101;}.bm_cls-7{fill:#d31f26;}.bm_cls-8{fill:#fffcfd;}.bm_cls-9{fill:#a91e22;}.bm_cls-10{fill:#5758a6;}.bm_cls-11{fill:#dfda4d;}.bm_cls-12{fill:#d9d34e;}.bm_cls-13{fill:#dad44b;}.bm_cls-14{fill:#48499d;}.bm_cls-15{fill:#e4cb5e;}.bm_cls-16{fill:#dcc56a;}.bm_cls-17{fill:#e2cc75;}.bm_cls-18{fill:#ddd458;}.bm_cls-19{fill:#dbd55e;}.bm_cls-20{fill:#e6dd5e;}.bm_cls-21{fill:#d8d642;}.bm_cls-22{fill:#cdcccc;}.bm_cls-23{fill:#504ea0;}.bm_cls-24{fill:#494ca0;}.bm_cls-25{fill:#794522;}.bm_cls-26{fill:#76411c;}.bm_cls-27{fill:#a15b2c;}.bm_cls-28{fill:#44b3cb;}.bm_cls-29{fill:#51aece;}.bm_cls-30{fill:#50afce;}.bm_cls-31{fill:#51abce;}.bm_cls-32{fill:#50b0ce;}.bm_cls-33{fill:#50b3cd;}.bm_cls-34{fill:#65b4d2;}.bm_cls-35{fill:#676767;}.bm_cls-36{fill:#818181;}.bm_cls-37{fill:#989898;}.bm_cls-38,.bm_cls-40{fill:none;stroke-linecap:round;stroke-linejoin:round;stroke-width:0;}.bm_cls-38{stroke:#e3d67e;}.bm_cls-39{fill:#ddd791;}.bm_cls-40{stroke:#fffcfd;}.bm_cls-41{fill:#c87237;}.bm_cls-42{fill:#d18d5f;}.bm_cls-43{fill:#5eb8d3;}.bm_cls-44{fill:#e3d67e;}.bm_cls-45{fill:#d2c55f;}.bm_cls-46{fill:#d2c75f;}.bm_cls-47{fill:#d3c960;}</style></defs><title>Asset 20</title><g id="Layer_2" data-name="Layer 2"><g id="Layer_81" data-name="Layer 81"><path class="bm_cls-1" d="M183,0H100V51.54H0V117a17,17,0,0,0,17,17H183a17,17,0,0,0,17-17V17A17,17,0,0,0,183,0Zm-8.09,68h-.26l-.06,1-2.76,3.4-3.76,2.43L151.7,83.8l-8.4-5.23-7.56-4.1-3.89-3.29-1.58-1.9L130,68h-.3V24.63h45.2Z"/><path class="bm_cls-2" d="M39,0H17a16.94,16.94,0,0,0-6.1,1.15L39,15.21Z"/><polygon class="bm_cls-2" points="100 16.7 100 5.12 76.85 16.7 100 16.7"/><polygon class="bm_cls-2" points="0 34.12 0 43.44 18.64 34.12 0 34.12"/><polygon class="bm_cls-2" points="7.17 51.54 39.03 51.54 39.03 35.61 7.17 51.54"/><polygon class="bm_cls-2" points="100 45.7 100 34.12 76.85 34.12 100 45.7"/><path class="bm_cls-2" d="M2.28,8.52A16.91,16.91,0,0,0,0,16.7H18.64Z"/><polygon class="bm_cls-2" points="86.88 0 56.45 0 56.45 15.21 86.88 0"/><polygon class="bm_cls-2" points="56.45 51.54 88.31 51.54 56.45 35.61 56.45 51.54"/><path class="bm_cls-3" d="M22.54,16.7,3.23,7.05a17.07,17.07,0,0,0-1,1.47L18.64,16.7Z"/><polygon class="bm_cls-3" points="56.45 34.12 56.45 35.61 88.31 51.54 100 51.54 65.16 34.12 56.45 34.12"/><polygon class="bm_cls-3" points="18.64 34.12 0 43.44 0 49.28 30.33 34.12 18.64 34.12"/><path class="bm_cls-3" d="M39,16.7V15.21L10.9,1.15A16.94,16.94,0,0,0,5.65,4.37L30.33,16.7Z"/><polygon class="bm_cls-3" points="56.45 16.7 57.37 16.7 90.77 0 86.88 0 56.45 15.21 56.45 16.7"/><polygon class="bm_cls-3" points="39.03 34.12 38.12 34.12 3.28 51.54 7.17 51.54 39.03 35.61 39.03 34.12"/><polygon class="bm_cls-3" points="72.95 34.12 100 47.64 100 45.7 76.85 34.12 72.95 34.12"/><polygon class="bm_cls-3" points="76.85 16.7 100 5.12 100 0 98.56 0 65.16 16.7 76.85 16.7"/><polygon class="bm_cls-3" points="52.97 20.18 100 20.18 100 16.7 76.85 16.7 65.16 16.7 57.37 16.7 56.45 16.7 56.45 15.21 56.45 0 52.97 0 52.97 20.18"/><polygon class="bm_cls-3" points="52.97 30.64 52.97 51.54 56.45 51.54 56.45 35.61 56.45 34.12 65.16 34.12 72.95 34.12 76.85 34.12 100 34.12 100 30.64 52.97 30.64"/><path class="bm_cls-3" d="M42.52,20.18V0H39V16.7H0c0,.1,0,.2,0,.3v3.18Z"/><polygon class="bm_cls-3" points="30.33 34.12 38.12 34.12 39.03 34.12 39.03 35.61 39.03 51.54 42.52 51.54 42.52 30.64 0 30.64 0 34.12 18.64 34.12 30.33 34.12"/><polygon class="bm_cls-1" points="42.52 30.64 42.52 51.54 52.97 51.54 52.97 30.64 100 30.64 100 20.18 52.97 20.18 52.97 0 42.52 0 42.52 20.18 0 20.18 0 30.64 42.52 30.64"/><polygon class="bm_cls-4" points="38.12 34.12 30.33 34.12 0 49.28 0 51.54 3.28 51.54 38.12 34.12"/><polygon class="bm_cls-4" points="65.16 34.12 100 51.54 100 47.64 72.95 34.12 65.16 34.12"/><polygon class="bm_cls-4" points="65.16 16.7 98.56 0 90.77 0 57.37 16.7 65.16 16.7"/><path class="bm_cls-4" d="M30.33,16.7,5.65,4.37A17.11,17.11,0,0,0,3.23,7.05l19.3,9.65Z"/><path class="bm_cls-3" d="M129.71,68h.3l-.23-1.17.74-.05.26-.63.16-1,.11-1.21.42-1.16.11,1.69.16,1.16.42.21.21-.26-.26-1.06v-2l.37,1.21.32,1.27.53,1,.26-.32-.21-.79.1-1.64.47,2.22.9.79v-.74l-.32-1.43.53,1.11.26,1,.53,1.16.05-.85V64.84l.42-1.37-.16,1.16.05,1.64.42,1,.32.21.16-1.11V64.74l.32-1.16.21.16-.21,2.17.42.95.32-2,.42,1.85.42-.37.16-1,.69,1,.42,0-.3-.4-.31-.5-.21-.66-.35-.59-.28-1-.44-1.7-.35-1.12-.21,1.33-.46.08-.13-.51-.29-.44-.13-.27-.32-.76-.05.05.2.56,0,.86-.32.36-.13-.15-.12-.44-.05.24-.23.21-.11-.11-.17-.43v.27l0,.54-.31.24-.05-.31-.68.7.05-.29-.18.15h-.35L134,62l.05-.35.23-.29.28-.58,0-.92,0-.94.12-.7,0-.72.2-.28.13-.32,0-.24.24-.33.05-.48-.09-.15,0-.74-.2-.43,0-.64.11-.35.43-.52.27-.05.35-.28.24,0,.6-.35.76-.38.4-.2.16.07h.31l.35-.13.6,0,.23.07h.59v-.16l-.39-.6-.52-.66L139,50l-.07.62-.24.21-.37.23-.47,0-.36-.12-.41-.27-.27-.38-.12-.86.05-.51.6-.44,0-.08v-.34l.19-.47.6-.58.66-.48,0-.2-.7-.92-.08-.28v-.56l.07-.32.36-.5-.49-.48-.12-.2-.08-.44-.21-.05-.19-.2-.2-.52v-.44l.33-.32.19-.07.39-.23.39.25.32,0,.62-.64.32-.09.17,0,.29.21.36.44h.24l.28-.33.35-.11.36,0,.52.2.31.36.29.5v.43l.17.27h.32l.57-.07.54-.07.67-.24.19-.32.08-.35.33-.16.51-.11.33-.12.15-.25-.15-.48.13-.36.18-.25.28-.28.11-.16-.36-.16-.2-.21.1-.19-.07-.09-.19-.08-.26-.19-.31-.55-.11-.52.08-.37.35-.51.52-.43L147,36h.26l.2-.08,0,.25-.33.76v.28l.08.11.17-.07.28-.52.23-.62.25-.56h-.87l-.17,0-.5-.16-.24-.2-.23-.31,0-.28.13-.31.11-.19.05-.2.21-.32.31-.2.13,0,.21.17,0,.47h.07l.42-.79-.47,0-.5-.63v-.34l.31-.21.33-.19.13.31.08.27h.12l.15-.23.29-.31.37-.36-.27-.42-.11-.48-.28-.21-.36-.46v-.33h.37l.38-.33h.28l.24-.16.41-1.16.12-.16.41.25h.62l0-.28.13-.16,0-.52.19-.37h1.11l1.06-.84.4.28.34.24.24.08.28.23h.21l.6-.21.44-.13.08.37.13.23.24.55,1-.11.44.09v1.35l.36.32.28.17s.13.27.28.29a.52.52,0,0,1,.21.08l-.27.94-.24.56-.4.27-.05.16.58.54.43,0,.43-.31.33-.19,0,.33a5.28,5.28,0,0,1-.29.78l-.19.13a2,2,0,0,0-.44.27c-.24.19-.33.13-.33.13h-.16l.05.11.11,0,.23.23.27.39.28.12.12-.25a2.88,2.88,0,0,1,.28-.4,1.49,1.49,0,0,1,.39-.13l.18,1,.19.23-.08.08V35l-.19.43-.17.39-.43.12-.46.11-.32-.11-.55-.27-.25-.29-.51-.68.34.54.16.4.18.23.17.78L158,37l.21.07v-.17l.13-.4.32-.33.52,0,.23.25-.16.25v.23l.38.48,0,.5-.33.48-.24.25-.56.15-.48-.11-.43-.17-.33-.11-.34-.68-.08.07.36.72.18.48,0,.74v.43h.11l.24-.15-.05-.62.16-.43.58.17.33.19.4.66.11.51-.08.41.38-.19.23.09.07.32.17.05.83.82.44.08,1,0,.58-.25.86-.55.47-.05.6-.29.56-.24.29-.15.59.07.21-.11.46.17.6.19.11.23-.11.11.17.24.05.38-.05.31-.23.58-.39.46.51.78.17.58.12.66-.28.46-.76.4-.09.41.05.36.16.31.51.72.23,1.14.48.63.12,1,.11.42-.41.44-.66.2-.55-.15-.41-.31-.52-.45-.36.15-.55.48-.07.2.71.23.47,0,.12-.08.39.34s.24,0,.32,0l.52.13.23-.11.24.16h.43l.28.35.29,0,.19.07.32.23.39,0L170,53l.4.5.27.67v.7l-.24.47,0,.31.11.13,0,.82.29.55.27,0,.43-.32.24.25.15.43,0,.48-.21.24.13.15v1.37l-.4,1.41-1,1.08-.35.08-.35.23-.12-.24.13-.19.12-.56.15-.66,0-.43-.18-.25-.15.8-.41.79-.47.54h-.21l-.43.17-.37-.07,0-.16.13-.54s.42-.82.48-.88a2.34,2.34,0,0,0,0-.68l-.24.09-.12.19-.05.4h-.2l-.16.29-.2,0-.35.33-.41.17-.33.16-.27,1.1-.39,1.25-.22.62.13-.06.32.11.42-.26.47-1.74.21.26-.37,1.43.26.63.21-.37.48-1.27.58-.53-.58,1.48v.58l.16.37.32.37.53-1.21-.11-1.37.37.63-.05,1.11.26.32.42-.26.53-1.16L170,63l.21.58.1.53-.1.58.21.63.32-.32-.05-.48.16-.26.05-.79.27.37.05.74-.16.79.37.53.42-.79.11-1.8.32.9-.21.79.16,1.11.79-.9.05-1.53.32,2.06.47.32.42-1.11-.16-1.37.69,1.32L174.65,68h.26V24.63h-45.2Z"/><polygon class="bm_cls-5" points="174.15 63.58 174.3 64.95 173.88 66.06 173.4 65.74 173.09 63.68 173.03 65.21 172.24 66.11 172.08 65 172.29 64.21 171.98 63.31 171.87 65.11 171.45 65.9 171.08 65.37 171.24 64.58 171.19 63.84 170.92 63.47 170.87 64.26 170.71 64.53 170.76 65 170.44 65.32 170.24 64.69 170.34 64.11 170.24 63.58 170.03 62.99 170.08 63.95 169.55 65.11 169.13 65.37 168.86 65.06 168.91 63.95 168.54 63.31 168.65 64.69 168.12 65.9 167.81 65.53 167.65 65.16 167.65 64.58 168.23 63.1 167.65 63.63 167.17 64.9 166.96 65.27 166.7 64.63 167.07 63.21 166.85 62.94 166.38 64.69 165.96 64.95 165.64 64.84 165.52 64.91 165.48 65.01 165.36 65.66 165 66.2 164.58 66.74 164.1 67.1 163.52 67.39 163.18 67.44 162.87 67.68 162.88 67.78 163.15 68.05 163.18 68.39 163.72 68.84 163.88 68.84 164.13 68.44 164.6 68.27 165.13 68.37 165.81 68.91 165.85 69.09 166.1 69.39 166.31 69.44 166.83 70.17 166.96 71.05 167.03 71.96 166.94 72.58 166.58 73.12 166.17 73.58 165.84 73.75 165.69 72.71 165.34 72.53 164.92 72.08 164.78 72.45 164.82 72.82 164.94 73.35 164.86 73.97 164.6 74.6 164.18 75.11 163.68 75.45 163.54 75.4 163.52 74.72 163.5 74.07 163.2 73.95 162.78 73.53 162.56 72.99 162.41 72.78 162.31 73.1 162.13 73.61 161.8 73.85 161.46 73.89 160.51 74.78 160.24 74.97 160.03 74.41 160.03 73.77 160.19 73.22 160.1 72.76 160.18 72.45 160.37 72.16 160.07 72.12 159.82 71.96 159.47 71.58 159.2 71.1 158.97 70.93 158.65 70.47 158.18 70.03 157.94 69.83 157.72 69.71 157.11 70.18 156.74 70.21 156.35 70.49 156.08 70.53 154.66 71.26 154.26 71.5 154.22 71.66 154.52 71.66 154.8 71.77 155.02 72.04 155.08 72.41 154.96 72.69 154.73 73.06 154.46 73.26 154.05 73.27 153.6 73.2 153.32 73.42 153.02 73.47 152.69 73.39 152.08 73.16 151.64 73.31 151.16 73.51 150.79 73.31 150.38 73.51 149.43 73.44 149 72.91 149.02 72.16 149.47 71.77 149.63 71.7 150.03 71.91 150.15 71.84 150.05 71.65 149.67 71.17 149.35 71 149.02 70.98 148.84 70.89 148.09 70.7 147.02 70.29 146.32 70.03 145.35 71.02 145.16 71.08 144.92 71.37 144.48 71.65 144.2 71.65 144.17 71.56 143.96 71.61 144.12 71.91 144.1 72.09 143.93 72.23 143.86 72.96 143.66 73.43 142.82 74.21 142.47 74.21 142.43 74.07 142.34 73.93 142.42 73.86 142.44 73.36 142.32 72.92 142.14 72.86 142.11 73.1 141.9 73.26 141.67 73.31 141.23 73.64 140.85 73.66 140.54 73.93 140.57 75.31 140.54 75.47 140.18 75.19 139.72 74.58 139.45 73.93 139.39 73.32 139.53 72.83 139.16 72.55 138.72 72.76 138.43 72.59 138.28 72.96 138.32 73.67 138.16 73.75 137.88 73.56 137.47 73.14 137.21 72.49 137.25 71.4 137.41 71.1 137.29 70.71 137.43 70.43 137.72 69.97 137.83 69.58 138.06 69.28 138.51 69.07 138.72 69.08 139.18 68.73 139.77 68.63 140.05 68.69 140.57 68.93 141.47 68.95 141.71 68.72 142.07 68.12 142.2 67.84 142.54 67.53 142.53 67.19 141.64 67.18 140.99 66.98 140.48 66.59 140.29 66.35 139.87 66.38 139.19 65.37 139.03 66.38 138.6 66.75 138.18 64.9 137.87 66.85 137.44 65.9 137.65 63.73 137.44 63.58 137.13 64.74 137.13 66.38 136.97 67.48 136.65 67.27 136.23 66.27 136.18 64.63 136.33 63.47 135.91 64.84 135.91 66.53 135.86 67.38 135.33 66.22 135.07 65.27 134.54 64.16 134.85 65.58 134.85 66.32 133.96 65.53 133.48 63.31 133.38 64.95 133.59 65.74 133.32 66.06 132.8 65.11 132.48 63.84 132.11 62.63 132.11 64.58 132.37 65.64 132.16 65.9 131.74 65.69 131.58 64.53 131.48 62.84 131.05 64 130.95 65.21 130.79 66.16 130.53 66.8 129.78 66.85 130.01 68.02 130.26 69.28 131.85 71.18 135.74 74.47 143.31 78.57 151.7 83.8 168.07 74.88 171.83 72.45 174.59 69.05 174.65 68.02 174.83 64.9 174.15 63.58"/><path class="bm_cls-6" d="M141,67l.65.2h.88v.34l-.34.31-.13.28-.36.6-.24.23h-.9l-.52-.24-.28-.07-.59.11-.45.35h-.21l-.46.21-.23.29-.11.39-.29.47-.13.28.12.39-.16.29,0,1.1.25.64.42.43.28.19.16-.08,0-.71.15-.37.3.17.44-.21.36.28-.13.5.05.6.27.66.47.6.36.28,0-.16,0-1.38.31-.27h.38l.44-.33.23-.05.21-.16,0-.24.19.07.12.44,0,.5-.08.07.09.15,0,.13h.35l.84-.78.2-.47.07-.74.18-.13v-.19l-.16-.29.21-.05,0,.09h.28l.44-.28.24-.29.19-.05,1-1,.7.25,1.07.41.75.19L149,71h.33l.32.17.38.48.11.19-.12.07-.4-.2-.16.07-.46.39v.75l.43.54,1,.07.41-.2.36.2.48-.2.44-.15.62.23.32.08.31-.05.28-.21.44.07h.42l.27-.2.23-.36.12-.28L155,72l-.23-.27-.28-.11h-.29l0-.16.4-.24,1.42-.74.27,0,.39-.28.38,0,.6-.47.23.12.24.2.47.44.32.46.23.17.27.48.35.37.25.16.29,0-.19.29-.08.31.09.45-.16.55v.64l.21.56.27-.19.95-.9.34,0,.33-.24.18-.51.11-.32.15.21.21.54.43.43.29.12,0,.64v.68l.15.05.5-.35.42-.51.27-.63.08-.62-.12-.53,0-.36.13-.37.43.46.35.17.15,1,.33-.17.4-.45.36-.55L167,72,167,71l-.13-.88-.52-.72-.21-.05-.24-.29,0-.19-.68-.54-.53-.11-.47.17-.24.4h-.16l-.55-.46,0-.33-.27-.27v-.11l.31-.24.35,0,.58-.29.48-.36.41-.54.36-.55.12-.64,0-.11.22-.62.39-1.25.27-1.1.33-.16.41-.17.35-.33.2,0,.16-.29h.2l.05-.4.12-.19.24-.09a2.34,2.34,0,0,1,0,.68c-.07.07-.48.88-.48.88l-.13.54,0,.16.38.07.43-.17h.21l.47-.54.41-.79.15-.8.18.25,0,.43-.15.66-.12.56-.13.19.12.24.35-.23.35-.08,1-1.08.4-1.41V58.44l-.13-.15.21-.24,0-.48-.15-.43-.24-.25-.43.32-.27,0-.29-.55,0-.82-.11-.13,0-.31.24-.47v-.7l-.27-.67L170,53l-.31-.11-.39,0-.32-.23-.19-.07-.29,0-.28-.35h-.43l-.24-.16-.23.11-.52-.13c-.08,0-.32,0-.32,0l-.39-.34-.12.08-.47,0-.71-.23.07-.2.55-.48.36-.15.52.45.41.31.55.15.66-.2.41-.44-.11-.42-.12-1-.48-.63-.23-1.14-.51-.72-.16-.31-.05-.36.09-.41.76-.4.28-.46-.12-.66-.17-.58-.51-.78.39-.46.23-.58.05-.31-.05-.37-.17-.24.11-.11-.11-.23-.6-.19-.46-.17-.21.11-.59-.07-.29.15-.56.24-.6.29-.47.05-.86.55-.58.25-1,0-.44-.08-.83-.82-.17-.05-.07-.32-.23-.09-.37.19.08-.41-.11-.51-.4-.66-.33-.19-.58-.17-.16.43.05.62-.24.15h-.11v-.43l0-.74-.18-.48-.36-.72.08-.07.34.68.33.11.43.17.48.11.56-.15.24-.25.33-.48,0-.5-.37-.48v-.23l.16-.25-.23-.25-.52,0-.32.33-.13.4v.17L158,37l-.15-.36-.17-.78-.18-.23-.16-.4-.34-.54.51.68.25.29.55.27.32.11.46-.11.43-.12.17-.39.19-.43v-.29l.08-.08-.19-.23-.18-1a1.49,1.49,0,0,0-.39.13,2.88,2.88,0,0,0-.28.4l-.12.25-.28-.12-.27-.39-.23-.23-.11,0-.05-.11H158s.09.05.33-.13a2,2,0,0,1,.44-.27l.19-.13a5.28,5.28,0,0,0,.29-.78l0-.33-.33.19-.43.31-.43,0-.58-.54.05-.16.4-.27.24-.56.27-.94a.52.52,0,0,0-.21-.08c-.15,0-.28-.29-.28-.29l-.28-.17-.36-.32V27.48l-.44-.09-1,.11-.24-.55-.13-.23-.08-.37-.44.13-.6.21h-.21l-.28-.23-.24-.08-.34-.24-.4-.28-1.06.84h-1.11l-.19.38,0,.52-.13.16,0,.28h-.62l-.41-.25-.12.16-.41,1.16-.24.16h-.28l-.38.33h-.37v.33l.36.46.28.21.11.48.27.42-.37.36-.29.31-.15.23h-.12l-.08-.27-.13-.31-.33.19-.31.21v.34l.5.63.47,0-.42.79h-.07l0-.47-.21-.17-.13,0-.31.2-.21.32-.05.2-.11.19-.13.31,0,.28.23.31.24.2.5.16.17,0h.87l-.25.56-.23.62-.28.52-.17.07-.08-.11V37l.33-.76,0-.25-.2.08H147l-.12-.08-.52.43-.35.51-.08.38.11.52.31.55.26.19.19.08.07.09-.1.19.2.21.36.16-.11.16-.28.28-.18.25-.13.36.15.48-.15.25-.33.12-.51.11-.33.16-.08.35-.19.32-.67.24-.54.07-.57.07h-.32l-.17-.27v-.43l-.29-.5-.31-.36-.52-.2-.36,0-.35.11-.28.33h-.24l-.36-.44-.29-.21-.17,0-.32.09-.62.64-.32,0-.39-.25-.39.23-.19.07-.33.32V42l.2.52.19.2.21.05.08.44.12.2.49.48-.36.5-.07.32v.56l.08.28.7.92,0,.2-.66.48-.6.58-.19.47v.34l0,.08-.6.44-.05.51.12.86.27.38.41.27.36.12.47,0,.38-.23.24-.21L139,50l.44.31.52.66.39.6v.16h-.59l-.23-.07-.6,0-.35.13h-.31l-.16-.07-.4.2-.76.38-.6.35-.24,0-.35.28-.27.05-.43.52-.11.35,0,.64.2.43,0,.74.09.15-.05.48-.24.33,0,.24-.13.32-.2.28,0,.72-.12.7,0,.94,0,.92-.28.58-.23.29L134,62l-.08.24h.35l.18-.15-.05.29.68-.7.05.31.31-.24,0-.54V61l.17.43.11.11.23-.21.05-.24.12.44.13.15.32-.36,0-.86-.2-.56.05-.05.32.76.13.27.29.44.13.51.46-.08.21-1.33.35,1.12.44,1.7.28,1,.35.59.21.66.31.5.3.4.18.24Zm-2.45,2.23-.17.42-.44.33C137.86,69.52,138.09,69.29,138.54,69.21Zm-.14,3.08-.14.08-.17.22v.83l-.28-.17-.3-.39-.17-.42.05-1.05.14-.44.33-.11.33.11.28.64,0,.31Zm2.16,1.22-.14.22-.08.36.05.58,0,.53-.47-.58-.39-.61,0-.61.14-.53.17-.28.39,0,.42.25.17.47Zm3.16-.5-.47.53-.53.39,0-.5-.14-.17v-.53l.11-.14v-.25l.47-.25.25.06.28.11Zm1.8-2.66-1.11.83-.36.11-.47-.28.05.67.19.3-.5-.11-.58.06-.36.3-.08.31-.14-.22L142,72l-.06-.06-.11.08.08.06,0,.55-.14.11,0,.17-.64.42-.17-.42-.22-.47-.39-.19-.42.06-.47.28.14-.39.28-.44.53-.44.53-.33.42-.17.11-.06-.14-.14-.78.22-.55.36-.58.42-.44.64-.22.17V72l-.25-.64-.08-.42-.25-.3h-.31l-.42.08.3-.53.61-.33.28-.47.5-.42.42-.08.61.08.3.17.58,0,.36,0,.44-.22.36-.66.5-.72.58-.3.69-.06.2.33.17.53.28.31,0,.17.39.33.39.61.64.53Zm5.25,2.42-.36.4-.36.14-.47-.11-.33-.32,0-.65.36-.29.44.25.11.22-.22.22-.18,0v.22l.43,0,.33-.54-.36-.87-.72-.72-1-.14L146.94,70,145.49,69l-.58-.76-.36-1.12.14-.69.26-.29.47-.33.32,0,.29.07.22.4v.36L146,67l-.36-.07-.14-.29.11-.18.07-.22-.21-.07-.4.29-.18.69.4,1,.69.72.76.54,1.05.4,1.63.58.65.32.62.87.14.69Zm-7.62-7,.27.26-.21.15h-.68l-.6-.21-.39-.27-.62-.62-.27-.38-.32-.6-.16-.66-.18-.69-.23-.65-.13-.51-.13-.36,0-.39,0-.48.1-.15.12.36.24.59.24.29v-.29l-.07-.13v-.33l-.17-.23,0-.71.23-.44.32-.38.27-.18.21,0,.72.06.24.08.53.17.25.47H143l.18.12.48.11.22-.12.38-.24.33,0,.21.17.26.44.3.81,0,3.16.1.11a3,3,0,0,0,0,.35c0,.06.12.12.12.12l0,.78-.2,0c-.06,0-.12.12-.12.12l-.31-.16-.38-.42-.29-.21-.82.15-.29.3a3.14,3.14,0,0,0-.09.36A1.39,1.39,0,0,0,143.16,65.73Zm2-14.45.13.1-.12.06-.09-.09Zm-.07-.07.09-.13.07.13Zm.05.35h.14s0,.12,0,.12l-.1.09-.1-.13Zm.16.41-.19,0v-.14h.06l.09,0Zm-.12.16.12,0,.06.13-.09.12-.16-.09Zm9,.42-1.94-4.68,2.41,4.74Zm.42,1-.26.06v-.43h.2Zm-3-5.52,1.69,4.85L153,53ZM153,53.53l0,.51h-.26l0-.43Zm-1.18-.25L151,48.34l1.11,4.85Zm0,.54v.54h-.2v-.51Zm.26-.09.26,0,0,.51-.29.09Zm.21-.59-1.05-4.79L152.64,53Zm1,.36.34-.06.06.51h-.4Zm.34-.69-1.64-4.91L154,52.75Zm.29.55.26-.11.09.46-.34.09Zm-1.59-6.09-2.38.75,0-.58,2.41-.39Zm-1.75,1.05,1.05,4.6,0,.53h-.3l-.61-3.35-.17-1.22Zm.86,5.61.06.6-.46.11,0-.63Zm.22.87,1.28-.33,1.27-.42,1.33-.31,1.5-.36.64-.06-.05.83.16.3,0,2.16-.14,1.91-.11,1-.8.22-.55.44-.72.75L154.78,62l-.67.8-1.22.5-1.11,0-.86-.25-.3-.47-.08-.61-.11-.75-.25-.47-.39-.47-.44-.31.47-2,.14-.44V57l.08-.78.42-.69.42-.39Zm6.26,1.83.06-3.13h.39l.72,1.58.64,1.16.53.61.39.55.75,1.14-.88.78-.58.33-.14.47-.33.28-.25-.36-.61-.36-.78-.17.14-1.75Zm1.32-4.25h.61l.44.2.38.38.41.23h.33V53h.33l.08.1.36.05.26-.08.08.23-.05.31-.08.23.1,1,.46,1.66.87,1.41-.33-.15-.74-.1-.23.1-.31,0-.36.33-.18,0-.15.13-.28-.38-1.07-1.43-.28-.31-.61-1.33-.84-1.81-.05-.74L158.1,52l-.1,0v-.13l.26-.1h.38l.21.56v.18Zm-1.73.53v-.4l.31-.2.06.43Zm-.09-.88-.23,0-.44.28-.33.2-.28-.05-.26-.08-.15.13h-.23l-.18.1-.38,0-.08-.15.26-.28.48-.1.38-.31.48-.31.51-.13.66.56Zm-.08,1H157l.09-.48.14.11Zm-.4-.26v.37l-.23,0v-.43Zm-.46.43-.23,0v-.37h.17Zm-.49-.31-.06.43h-.17v-.43Zm-.48.48-.29.06,0-.31.29-.11Zm-.51-.26v.37h-.17V53.1Zm-6.15.84.14,0,.1.2-.12.15-.18-.06,0-.17Zm-.23-.18v-.11l.09-.08.08,0,.06.1,0,.15-.13.07Zm.42.59.06,0,.18.08.11.18v.23s-.17.07-.17.07L149,54.7l-.08-.21Zm.3.65,0-.08.1,0,.11.11a2.48,2.48,0,0,1,.1.3s-.13.12-.13.12a2.16,2.16,0,0,0-.2-.19S149.27,55,149.27,55Zm.48.37.3.41-.22.31-.24-.22,0-.26Zm.54.16-.22.14-.21-.34.22-.32a2.49,2.49,0,0,1,.21.19S150.28,55.51,150.28,55.51Zm-.35-.44s-.17.1-.17.1l-.14-.18s-.06-.24-.06-.27a.9.9,0,0,1,.1-.18l.16,0,.19.25Zm-.41-.5-.16-.08s-.05-.19-.05-.19l0-.12.17,0,.12.24Zm-.14-.52s-.13.1-.13.1l-.12-.06,0-.13.08-.18h.07l.15.09Zm-.34-.31-.08-.17.06-.13.13.08,0,.15Zm-.1-.39-.21,0,0-.3h.15l.07.12Zm-.25-.38h-.08l-.07-.1.08-.09h.08l.07.09Zm-.14.18,0,.06,0,.13-.05.11-.13,0,0-.3ZM148,52v.14l-.17,0,0-.16Zm-.33-.14,0-.19h.17l.07.06,0,.13Zm.4.36c.07,0,0,.17,0,.17h-.17v-.16Zm0,.3h.09l.05.09,0,.1-.16,0Zm.21.3.15.15-.06.12-.09,0-.1-.16Zm0-.2,0-.18.14,0,0,.15Zm-.12-.3v-.16h.14l0,.14Zm0-.29h-.19l0-.15h.17Zm-.36-.21v-.17l.16,0a.86.86,0,0,1,0,.15S147.91,51.86,147.91,51.86Zm-.07-.29-.14-.13v-.17l-.3-.21.06-.07h.07s0,0,.06.06l.08,0,.08.15.12.09.06.16,0,.14Zm-.42-.43.09.15.07,0s0,.12,0,.12l.15.21h-.16l-.26-.4Zm.39,1.56.35.61.19.49.47.95.78,1.56.17.37,0,.63-.08.42-.11.52-.25.77-.21,1H149l-.3-.6-.12-.52-.61-2-.22-.83-.23-.59-.23-1-.4-1.39-.24-1.06-.25-1-.3-1.12.1-.09.33.44.35.6.42.73Zm-1.32,1,.15.69v.39l.26.56.17.71.35,1.49.37,1.22.19.89,0,.34-.39.13-.19.09-.24.13-.29-.37-.1-.39,0-.84-.09-.8-.16-1.24-.26-1.52L146,53.92l-.08-.73-.17-.86-.07-.59-.07-.49-.06-.7.2.63.33,1.46Zm-.88-.84.21.12-.15.12L145.5,53Zm-.18-.35.07-.09.14,0,.07.09,0,.07-.16.09Zm.39,1-.28,0,.05-.21.21,0C145.86,53.22,145.82,53.45,145.82,53.45Zm.07.32a.4.4,0,0,1-.09.13s-.16-.06-.16-.06l0-.17h.07Zm-.55.76.07,0,.17.1a1,1,0,0,0,0,.17s-.12.09-.12.09l-.15-.13Zm-.06-.19,0-.23.16,0a1,1,0,0,1,.08.18s-.09.12-.09.12Zm.39,1.21v.2l-.34.14.06-.37Zm0-1.32,0-.19h.2a1.62,1.62,0,0,1,0,.17.12.12,0,0,1-.12.12A.22.22,0,0,1,145.64,54.23Zm.08.19.13,0s.15.07.15.12,0,.21,0,.21l-.21,0-.11-.07Zm.09.39h0l.23.12v.29l-.21,0-.15-.25Zm0,.59.37,0,0,.23h-.4Zm-.31,3.79.34-.06.14.11-.11.17-.37,0Zm0-.37.06-.26.17-.09.23,0,0,.2-.2.14Zm.48-.63.14-.29.2-.14.23.06-.17.37Zm.09-.54,0-.23.26-.11.14.29Zm-.11-.46v-.34h.34l.08.34Zm.34-.57h-.37l.06-.28.17-.09.14.09Zm-.43-.46.06-.26h.23v.26Zm-.4,2.25,0-.4h.34l0,.23Zm.06,1.2.48,0v.14l-.37.09-.17-.09Zm.29.4.26-.06,0,.2-.14.26-.26,0-.06-.34Zm.2.51.2.17-.12.26h-.37l0-.11Zm.17-1.83v-.26l.2-.09.17.06v.37Zm.54.43-.17.14-.34-.09.06-.17.2-.06Zm-.17.26.2.17-.17.23h-.34l0-.26Zm.09.54.2.09v.17h-.48l-.09-.23Zm-1-7.83-.15.09-.12-.12.09-.12.08,0Zm-.25-.28v-.16h.16v.14Zm0-.47.13.15-.12,0S145.36,51.37,145.36,51.37Zm0-.21.15.13h-.13Zm0,1.93-.12.07-.14-.11.05-.12h.13Zm-.27-.49.07-.12.14.15-.13.11Zm0,.71h.09l.14,0,.09.21-.21.07s-.15-.1-.15-.1Zm.11.49h.1l.13.09-.12.16-.17-.07Zm.07,1.22.14-.06.06.17-.14.2-.17-.09Zm0,1h.2l.11.23h-.34Zm.2.31.2.29-.28.34-.12-.29Zm-.11.69h.34l.09.28h-.46Zm.26.51.14.2-.37.06,0-.31Zm7.53,15.71-.23,0-.13-.1h-.56l-.15-.23-.28.05-.41.13-.18.18-.31-.15.18-.46,0-.43-.13-.59-.38-.77-.33-.36-.59-.36-1.12-.33-1.22-.46-.89-.44-.33-.51-.13-.64.21.2-.18-.72.26.33.18,0,.51.64.41.08.1.05h.13l0-.05.38.2.43.13h.61l-.54-.13-.66-.31-.69-.38-.38-.51-.05-.23-.2,0,0-.15.15-.18.2,0,.05.15.21-.08.33.26.56.05.41.05-.36-.2-.56-.31-.56-.51-.18,0-.56-.87-.3-.84-.26-.89v-1l.33-.84.49-.77.28-.25.23.08.59-.43.41-.13.54,0,.41.13.59.18.28.36.28,0,.07.2-.15.05.2.28-.07.18.18.23,0,.33-.33.38.23.38,0,.13.28.31.26.38.44.08,1,0,.74-.08.43,0-.18-.21.31-.08.38-.08.69-.54s.54-.92.64-1a4.69,4.69,0,0,0,.31-.56l.87-.89.33-.13.77-.38h.79l.21.23.33.05.31.38.15,1-.49.33h-.41l-.28-.18-.08.15-.33-.08.43.2,0-.2.31.2a1.7,1.7,0,0,0,.44,0c.15,0,.48-.36.48-.36l.1-.69.66-1.15.48-.28.16,0,.46-.51.87-.46.41-.15.67.13.48.23.1.41.08,1.1.31.23.25-.13.23-.28.56-.21.41.05,0,.51-.18.95-.28,1-.46,1.58L164.18,65l-1.07.82-.84.54h-1.36L160.5,66l.51-.13.18-.31.05-.54-.46-.33-.46,0-.61.36-.23.31-.13.36h-.23l-.51,0-.38.26-.28.36-.08.54.13.38.28.18.51,0,.13-.1h.1l-.46.51-.59.61-.77.51-.51.15-.84.31-.61.28-.69,0-.71.64-.49.38-.33.46-.15.79v.59l.38.51ZM164.38,59v-.45l.18.09.07.21.3.29,0,.15-.47-.07,0-.15Zm-6.78,10.44-1.27.54-1.88.9-.54.4-.47.87.29.51.36.07v-.18l-.11-.14.07-.4.22-.22.43.25.11.54-.4.4-.43.07-.69-.33-.22-.36,0-.51.29-.47.58-.58.9-.51,1.3-.54,1.92-.94,1.34-1.45V66.8l-.29-.36-.36,0,.29.18,0,.29-.32.14-.44-.07v-.43l.25-.54.72,0,.32.4.22.76-.22.79-.83.69Zm3.35,4.7-.28.19-.36.25-.05-.36,0-.78.28-.39.25,0,.28.11.22.17.05.36Zm3.49.06-.69,1,.14-1.3-.14-.33v-.69l.3-.42.19.11.22.19.19.3,0,.67ZM166.69,72l-.05.44-.36.61-.25.36-.06-.31v-.5l-.14-.36.06-.69.25-.53.22-.06.17.14.17.28Zm-4-3.55.17.11.64.61.19.08L164,69l.14-.06.44-.39.5.22.58.44.55.5.28.53.08.42-.36-.11-.28,0-.22.3-.22.69-.06.61-.3-.44-.47-.91-.28-.06-.39-.19-.41-.39-.39-.22.25.44.28.28.55.36.36.5.05.67-.25,0,0-.11-.28-.28-.2-.08-.22.14-.22.58-.19.5,0,.44,0,.22-.19-.33-.36-.36-.17-.58-.14.11-.19-.28-.08-.89-.08.67.05.25,0,.89-.25.36-.3.17v-.19l-.11-.5-.28-.17-.44,0-.39.06-.08-.22.25-.36L160.4,72l-.2-.11-.47-.67-.5-.61-.14,0-.2-.36-.5-.39,0-.47L159,69l.19.06,1.47-1.52.78.17.64-.06.42.19Zm2.47-16.31h.56l.43.17.68.32.36,0,.71.08.38.3.65.18.55.16.35.3.29.53.07.56s-.06.25-.11.39a5.5,5.5,0,0,0-.09.66h.09v.63l.16.56.24.35.11,0,.42.29.15,0,.36-.48.11.23,0,.54-.11.16,0,.3.08.81-.12,1-.13.54-.5.74-.63.71-.3.21.23-.81.18-.69-.12-.53-.24-.68-.25-.69-.12,1.49-.23.77-.57.77-.33.35h-.29l-.06-.24.11-.12.39-.72.06-.66-.15-.78-.18-.62-.11.66-.21,0s-.21.63-.26.72-.24,0-.24,0l-.35.45-.29.12-.2.26h-.13l0-.17.27-.47.09-.39.15-.26.06-.32.27-.68V59l-.15,0-.18-.2-.2-.18-.22-.16.08-.18h-.15l-.45.12-.43-.21-.24-.38-.2-.29.13-.1H166l.18-.18h-.78l-.42-.17-.24-.24-.11-.23s0-.11.11-.11a2.59,2.59,0,0,1,.48.2l-.42-.36-.07-.53-.12-.09-.26.71-.18-.36L164,56l-.29-.45,0-.48-.06-.89.06-.41.13-.53.08-.42.21-.41.32-.29.27,0Zm2.54-2.45.07.61-.18.43-.65.07-.36-.18.14-.54.33,0,.22.18.14-.33-.14-.4-1,0-1,.72-1.12.94-.69,1.16L163.14,54l.18,1.59.58,1.12L165,58.05l.87.54.83.62H167l.11.14-.36.33-.43.9L165.67,63l-.54,1.92-.43,1-1,.76-1.12.54-1,.07-.65-.18-.65-.33-.36-.54-.18-.4,0-.58.4-.29.36-.07.29,0,.22.29-.11.43-.25,0h-.25v-.33l-.29.07,0,.54.14.36.54.4,1.12,0,1.3-.51,1.16-1,.36-.76.43-1.77.69-2.21.47-1-.25-.18-1.56-1-.79-1-.9-1.92,0-1.77.22-1,.69-1.12.54-.8.8-.83.76-.43.62-.07.83-.07Zm-.11-7.9-.12.51s-.14.3-.2.44-.38.32-.38.32l0-.42,0-.34-.12-.18-.14-.32,0-.38.14-.14.26,0,.3.08Zm-7.18,1,.3-.38.3-.1h1.33l.62-.22.5-.42.6-.12.14-.16.4-.08,1-.52.55.1.55,0,.48.14.18.16-.1.06-.26,0-.3.16,0,.54.24.44-.06.12-.3,0-.2-.1-.1-.18V42l-.2-.28-.16-.06h-.36l-.12.75h-.18l-.34-.3-.5-.06-.34.3.12.4.49.48h.26l.24.28,0,.22-.36-.08-.36-.08-.3-.14-.24,0-.28-.16-.28-.12-.18-.08-.12.16.4.2v.14l-.16.22-.1.42,0,.26-.48,0-.5-.18-.28-.18h-.26l-.14-.12-.24-.16-.3-.2-.32-.42-.22-.28Zm6.37-.13V43l-.36.05,0-.49Zm-11.45,1.44.24,0,.22-.1.08-.16-.1,0-.12.08-.18-.08-.1-.28.2-.18.44,0,.4.36v.52l-.54.26-.55.14-.62-.18-.38-.52-.1-.36.08-.61.1-.4.54-.4.58-.18.67-.1.77.2,1.57.6,1.05.48,1.17.61.7.32.91.44.56.2.63-.08.28,0,.55-.18.38,0,.83-1,.34-.2,0,.44-.55.62-.48.54-.2,0-.26.22-.49,0-1.15.06-.55-.18-.87-.18-1-.46-.81-.42-.4-.06-.61-.32-.38,0-.22-.16-.67-.2-.56-.2-.54-.06-.42-.06-.2.12-.2.28-.1.38Zm-1.25-.28,0,.32-.42.16-.34,0-.42,0-.46,0-.47.1h-.54l-.46,0,.22-.62-.12-1,3,0,.08.14-.2.61Zm-4.34.4.38-.22.1-.34-.08-.16-.2-.34-.16-.12-.42,0-1,.2-.93.34-.89.4-.63.48h-.32l-.24.24-.44,0-.44.3-.59.28-.74,0-.38.14-.75.08h-.83l-.4-.22-.32-.12-.4-.26-.54-.5-.06-.34.12-.16H140l.12.08.42.5.3.16.3.12.46.06.18.1,1-.08.69-.44.3,0,.59-.36.87-.4.46-.2.29-.12.26-.1.65-.44.3,0,.66-.44.24-.08.62-.16,1,0,.6.24.48.36.16.44.08.69-.28.48-.47.42-.36.22-.3,0-.34-.22-.32-.28,0-.54.24-.24h.26l.38.06.06.12-.24.2Zm-10.45-.46-.26-.48V42.21l.32-.3h.3l.22.32v.32Zm2.08-.87-.78.73-.32.14-.06-.52.36-.63.18-.18.32-.14.14,0,.22.16.06.18Zm.3,1.07.06.18-.08.14-.28.2-.32,0-.57-.4,0-.08.36-.06.32-.14.32,0Zm8.47-3.53-.12-.12.12-.24.16,0,.08.5.12.38.2.26.16,0,.14,0,0,.3.16.3.24.3.24.3-.62,0-.32-.16-.56-.3-.28-.08-.55,0-.7.06.06-.18.38-.14.34-.14.36-.16.26-.2,0-.2.2-.26Zm3.91,1.71-.3-.26,0-.85h.18l.42.46.08.24.2.12-.06.18-.22.12Zm9.46,2.2V44l.12-.24.12-.12h.46l.26.14H165V44l-.29.22-.58.16-.26.12-.2,0Zm1.83-.73L165,43l-.32-.06-.4-.3-.06-.36.22-.18h.34l.24.16.22.2.18.2.12.44-.06.3Zm.38-.36v-.73l-.22-.22.08-.55h.3l.22.24.16.32,0,.42-.2.38Zm-6.61-1.55.16-.4.16-.26.3.4.24.06.34.4v.22l-.61.79-.78-.12-.28-.22,0-.22h.16l0-.28Zm-.2-.18-.2.44-.4.32-.24.08-.26-.08-.85-.58.08-.14.28-.06h.28l.36-.06.46,0,.32-.22.2,0ZM158.08,30l0,.22-.14.3,0,.22-.16.22,0,.17-.12.14h-.19l-.12-.12h-.17l-.19.16-.24.12h-.23l-.13-.09,0-.19.07-.19.22-.32.2,0,.26-.27h.32l.42-.36Zm-9.77-.47.07-.09.15-.09h.15l.17,0,.17-.09,0-.12,0-.2.18-.32.08-.23v-.18l.26,0,.25,0,.18,0,.19.06.22-.11.18-.23.06-.4.08-.37.09-.21h.46l.16.11.13-.06.12-.06.29,0h.15a1.15,1.15,0,0,1,.17-.22,3.71,3.71,0,0,0,.29-.35l.31-.08.16,0,.22.25.18.11h.16l.38.25s.12.1.16.08l.38-.17.3,0,.32-.11.11.25a2.82,2.82,0,0,0,.21.42,3.41,3.41,0,0,1,.25.42l.15-.06a1.44,1.44,0,0,1,.28.05l.66,0,.09-.1.07.12-.09.46,0,.35.12.47.15.22h.2l.26.22v.22l-.2.07-.18-.06-.23.13-.36.21-.3.3-.26.37-.17.37-.17.12-.15-.06h-.15l-.07.18-.15.18-.13.46-.28.31-.29.14-.21.16h-.14l-.24-.23-.11-.1,0-.36-.23-.18h-.17l.25.2v.27l-.14.12-.07,0-.07-.14h-.08v.27l-.3.35-.3-.25v-.32l-.15,0v.2l-.11,0,0,0,0-.31-.06,0V32h.14v-.13h-.17l-.06.13,0,.18.07.15-.07.12-.13.07-.18.17-.12.06-.28,0-.23-.11-.23-.22a1.54,1.54,0,0,1-.11-.2l-.07-.18-.06-.15-.11-.12-.17,0-.05.21-.06.08-.14,0-.15-.13-.1-.17-.11-.22-.09-.15-.13-.19-.06-.11-.06-.26-.15-.19-.1-.16-.16-.13L149,30.2h-.2l-.13-.1-.19-.18-.14-.19-.09-.11Zm3.63,4.81h.27l.35-.12.32-.19h.17l.36.13.33.14.21.16.1.25V35l-.27,0-.22.13-.13-.16-.06.43-.23.1v.14l-.14.14-.13.14-.16,0-.35-.37,0-.35-.17-.2-.19.1-.26,0-.12-.25.07-.24Zm-.55-.52c-.27-1.05,1.31-1.34,1.33-.6A.75.75,0,0,1,151.4,33.81Zm1.86-.66a.75.75,0,0,1,1.35.66C154.41,34.18,153.37,34.05,153.26,33.14ZM147.37,33l-.27-.33-.06-.13v-.26l.24-.17.12.13-.06.13,0,.16.14.06h.15l.52-.45.13-.07.3-.3.19-.1v-.19l-.22-.33-.07-.23-.06-.22-.06-.16-.2-.23-.12-.13,0-.13-.2-.16-.06,0v-.1h.45l.23.35.2.22.2.16.17,0,.33.49v.06l.26.23.07.3,0,.1v.13l-.14.09-.17,0-.1-.07-.32.27-.2.27-.13,0-.35.38-.17.06-.27.2Zm-.68,5.4-.4-.5-.07-.57,0-.4.42-.57.31,0,.12-.12.07.09-.17.47-.17.35.14.33.4,0,.52-.8.4-.95.31-.47V35l-.28.21-.33.07-1,0-.57-.36-.09-.28,0-.26,0-.35.62-.4,0,.85.4-.33V34l.52-.69,1.25-1.11H150l.45.33.19,0,.54.52,0,.66.64.52-.38.45,0,.24.36.26.33-.09.14.87.4.24.21,0,.8-.95.36,0,.21-.47-.09-.38-.09-.21.52,0c.36-.23.51-1.17.76-1.8a1.06,1.06,0,0,1,1.42-.38l.33.09.43.33h.31l.21,0,.33,0,.59-.47,0,.5-.4.35-.83.31-.64-.38,0,.09,1.37,1.51h.12l.23.24.12-.09,0-.4.47-.43,0,.61.17.31v.59l-.45.57-.71.09-.83-.52,0-.24-.76-.87v.38l.45.92.07.36.16.17.12.28v.35l.21.5.38,0,.1-.24v-.33l.4-.4.26,0,.09.14-.12.12,0,.26V37l.33.45.09.28-.5.76-.33.09-.59-.09-.36-.24h-.19l-.54-.83-.07-.4-.73-1.16,0,.24.28.35.14.54.14,1,.43.83,0,1.54.14.16h.19l.24-.19.19-.26,0-.9H158l.45.26.33.54.12.24v.5l-.16,0-.33.35-.55.24H157l-.21-.19h-.19l-.14-.14h-.26l-.73-1,0-1.73.09-.38v-.52h-.12v.52l-.12.33,0,.47,0,1.3.78,1.25.57.28.17.19h-.26l0,.19-.21,0,0,.09-.12,0-.21-.14-.28,0-.19.09H155l-.21-.43-.17-.33-.57-.52h-.42l-.1-.31.07-.54.12-.5V37.9l-.09,1.51-.26.85-.1.07,0,1,.17.45.66.73-.45,0-.33-.14-.35.07-.54-.12-.62-.21-.4-.4-.19-.45-.07-.45-.1-.47.1-.38,0-.38-.19.43v1l-.26-.07v-.28l-.21-.28,0-.38-.07-.57,0-.92,0-.57.12-.64-.09,0-.07.8,0,1.58-.17,0-.38.52h-.85l-.33-.28.64-.69-.07-.54-.07-.64L149,37l-.73.78-.83.59Zm.56.66-.22-.14,0-.2.28-.16.54-.08.77-.73h.14l0,.28-.1.34.1.08,0,.85-.36.38-.5-.63-.22,0Zm-.36,1,.18-.36.42-.28h.3l.2.2.2.32,0,.26.28.28.34.14h.42l.63,0,.1.18-.16.26-.46.3-.71.32-.32.14-.46-.1-.79-.6-.24-.5Zm-1.39,1.55.22-.12.3-.08.54,0,.14-.12.38,0,.91.6.32.22-.44.06-.44.12-.34.1-.32.16,0,.18-.3.16-.26.1-.26.18-.26.14-.14-.14,0-.32-.26-.28Zm-7.79.89h-.1l-.12-.26-.16-.26-.06-.16.08-.32.26-.16.32-.16.24,0,.28.16.12.26.36-.34.36-.4.3-.12.38.06.42.56.4,0,.47-.34.18-.1.44.06.44.24.46.67.08.65.1.18.79-.06.83-.16.48,0v.14l.28.38,0,.4-1.41.71-.62,0-.32.3-.81.26-.36-.08.06-.2,0-.34,0-.2-.26-.14V43.4l.32-.1-.1-.14-.18,0,0-.42.08-.16,0-.1,0-.2-.08-.18-.22-.06-.63.26-.1-.1-.3.32-.16,0,0-.26-.32-.42v-.08l-.6-.1-.42.54h-.3l-.22-.16h-.18l-.2.12-.12,0Zm.57,1-.2-.28-.2-.34v-.3l.2-.16.26-.06.18.08.26.46,0,.81-.1.1Zm-.68,4.5.22-.34.58-.42.54-.34.1-.54-.18-.3-.38-.4-.22-.38,0-.62.14-.34.32-.26.26,0,.12.08,0,.32.4.42.3.2.32.36.68.34s.92.12,1,.12,1.06-.14,1.06-.14l.77-.14.84-.22.1,0,.3-.32.52,0,.42-.38.32,0,.44-.28.82-.46,1.33-.48.22,0-.42.52,0,.38.58.68.56.14.52-.08.6-.52,1.21-.1,1.07-.1h1l.48.08.5.3a1.11,1.11,0,0,0,.56,0c.3-.08.24-.12.24-.12l.52,0,.28-.3.08-.56-.32-.32,0-.18.4,0,1.07.52.71.14,1.29.6,1.22.46,1,.3,1.41.22.89-.1.76-.46.62-.62.56-.78.28-.18.2,0,.12.1.36.54.18.64,0,.52-.62.5-.52.34v.38l.12.62.6.78.24.52,0,.54-.61,0L166,49l-.68.38-.9.6-.93,1a7.16,7.16,0,0,0-.56,1l-.42.84-.82.06-.26-.06-.16,0-.22.26-.1-.2-.38-.16-.5-.4-.82-.18-.3.12,0-.2-.24-.48-.74,0-.12.18-.78-.7-.52,0-.2.26-.28.1-.46.32-.42.1-.4.42-.9-1.85-.95-2.05-.36-.46-.06-.32-.1-.18.08-.26-.22-.3-1.21.2L150.74,46l.32,0-.7-.72-.28.9.36,0,.18.36.14.4,0,.24-.95.34,0,.64.4.22.42,2.79-.24,0-.24-.26-.28-.06-.14.18-.16,0-.06-.36-.2-.22-.24-.12-.28-.28-.18,0,0-.18-.1-.68-.2-.56-.28-.7-.16-.08-.3-.06-.2-.22-.28-.68-.28-.2-.58.08-.42,0-.2.18-.52-.12-.4-.16-.4.2-.5.38-.14-.2-.24.1-.12-.1H143l.14.08.15.15.26-.18.13.17h.17l.27-.24.57-.31.49.26.13-.08.22.13.27-.16.41-.05.58-.07.3.31a1.47,1.47,0,0,1,.08.27,4.26,4.26,0,0,0,.19.49l.43.1.41.58,0,.29.22.48,0,1,.14-.13.12,0,.22.3h.17l.23.15,0,.32.25.28.2-.33.2,0,.36.33.26,0,.32,2.25-.38.33-.06,1.31-.18,0-.27-.36-.86-1.23-.66-1.23-.48-.72-1.36-2.14h-.6l-.17-.06L145.68,48l-.17-.2h-.24l-.12.1v.34l.1.9.09.27-.2.06-.34.1v.29l.14.12,0,.9.12,2.81.12,2.2.11,1.73.11,2.12-.08.17-.16-.06-.13-.27a.62.62,0,0,1-.23-.17.46.46,0,0,0-.15-.15h-.12l-.37.05-.28.25h-.22l-.07-1.1v1l-.11.16h-.21l-.3-.24-.35-.46-.06-.31v.27l-.44,0-.2-.22-.25,0,0-.89-.07-.08,0-.93.32-.61V56l.31-.47.24-.29,0-1.29-.06-.75-.65-1.45-.05-.85-.16-.16-.11-.47-.06.25-.2,0-.24-.36-.26-.87-.1-.79,0-.63.17-.24.24.08.14-.1.16.42,0-.17.07-.06.17-.15.39.13L143,47h-.14l-.6.46-.4.2-.32-.1-.2.12-.24-.12-.18.1-.22-.12-.2.28-.12.44.1.74.14.74.26.62-.36-.42-.82-.74-.58-.4-.38-.06-.4,0-.26.08-.44,0-.08-.1,0-.4ZM150.12,46l.25-.75.61.61ZM137.29,58.18l.25.5,0,.19h-.22l-.53-.75.58,1.22h.17l.17,1.16,0,.5-.14.11.2.14-.08.14-.22.14-.06-.36-.3-.55-.36-1-.39-.36-.66-1.77.25,1.36.5,1.47v.91l-.08.17-.14-.11,0-.61-.3-.69-.06,1.25-.08,0-.11-.55-.47-1.52.19,1.47v.94l-.17,0-.17-.28-.42.75-.17-.25.05.11-.33.22.08-.3.39-.61.19-.55-.14-1.05.17-1.41.2-.72.33-.83.22-.17,0-1-.06-.69-.11-.19-.14-.72,1-.89.25,0,.47-.36.69-.39h.64l.33-.28.22.11,1.38,0,.2.08.22.36.36.8.11.69-.08.55-.3,1-.58.53-.53,0-.42-.06-.36-.36-.2-.39-.08-.06v.36L139,56l.5.33.64,0,.08.08-.61.69-.36.25-.36-.08-.36-.25-.39-.69v.44l.28.33.08.39.2.14-.28.33-.36-.19-.36-.44,0-.44-.17-.39.06.91.28.8-.17.08-.5-.72Zm3,7.61-.58-1.16-.44-1-.51-2-.25-.83-.11-.76-.54-1,.22-.18L140,57.18h.11l.4-.36.69-1.3.07-.07.22-.8,0-1.37-.18-.65-.43-.72s-.14-.25,0-.22-.4-.61-.4-.61l-.65-.69v-.14l-.47-.47-.32-.18h-.25l-.11-.14-.47-.15-.22.22-.14.47v.18l.33.15.11-.07-.11-.18,0-.22.25-.18.29.22,0,.54-.22.25-.54,0-.43-.22-.18-.36-.14-.54.14-.33.22-.18.36.07.58-.14.18-.07.47.07.33.33.36.22.91,1,.25.25.47.69.58,1.3.14.9-.07.9-.47,1.3-.54.83-.76.94-1.3,1.09-.18,0-.29.36.51,1.09.79,3.33.65,1.38.94,1,.72.4.94.11.83-.22.36-.33-.14-.22-.25.25-.4-.25.18-.47.65-.11.36.54-.14.54-.51.51-.62.18-.62.07-.72,0-1-.22Z"/><path class="bm_cls-7" d="M152.73,33.21c0-.75-1.6-.46-1.33.6A.75.75,0,0,0,152.73,33.21Z"/><path class="bm_cls-7" d="M154.61,33.8a.75.75,0,0,0-1.35-.66C153.37,34.05,154.41,34.18,154.61,33.8Z"/><path class="bm_cls-7" d="M148.53,29.92l.19.18.13.1h.2l.17.13.16.13.1.16.15.19.06.26.06.11.13.19.09.15.11.22.1.17.15.13.14,0,.06-.08.05-.21.17,0,.11.12.06.15.07.18a1.54,1.54,0,0,0,.11.2l.23.22.23.11.28,0,.12-.06.18-.17.13-.07.07-.12-.07-.15,0-.18.06-.13h.17v.13h-.14v.14l.06,0,0,.31,0,0,.11,0v-.2l.15,0v.32l.3.25.3-.35v-.27h.08l.07.14.07,0,.14-.12V32l-.25-.2h.17l.23.18,0,.36.11.1.24.23h.14l.21-.16.29-.14.28-.31.13-.46.15-.18.07-.18h.15l.15.06.17-.12.17-.37.26-.37.3-.3.36-.21.23-.13.18.06.2-.07v-.22l-.26-.22h-.2l-.15-.22-.12-.47,0-.35.09-.46-.07-.12-.09.1-.66,0a1.44,1.44,0,0,0-.28-.05l-.15.06a3.41,3.41,0,0,0-.25-.42,2.82,2.82,0,0,1-.21-.42l-.11-.25-.32.11-.3,0-.38.17s-.16-.08-.16-.08l-.38-.25h-.16l-.18-.11-.22-.25-.16,0-.31.08a3.71,3.71,0,0,1-.29.35,1.15,1.15,0,0,0-.17.22H152l-.29,0-.12.06-.13.06-.16-.11h-.46l-.09.21-.08.37-.06.4-.18.23-.22.11-.19-.06-.18,0-.25,0-.26,0v.18l-.08.23-.18.32,0,.2,0,.12-.17.09-.17,0h-.15l-.15.09-.07.09,0,.1.09.11Zm1.82.44.14-.15h.23l.13-.21v-.35l.09,0,.06.06.21.17.33.22.64.16.77.06.05.05h.14l.18-.15h.22s.11.06.11.06h.17l.19-.14.57-.28.33-.17.19,0,.06.35.21.21.24.06,0,.17h-.22l-.1.14-.59.53h-.18l-.1-.13h-.2l-.24.21-.1,0,0-.27-.45-.33h-.85l-.27.41-.22.16L152,31h-1l-.06,0-.1-.12-.24-.17-.26-.24Z"/><path class="bm_cls-6" d="M150.8,30.89l.1.12.06,0h1l.12.12.22-.16.27-.41h.85l.45.33,0,.27.1,0,.24-.21h.2l.1.13h.18l.59-.53.1-.14h.22l0-.17-.24-.06-.21-.21-.06-.35-.19,0-.33.17-.57.28-.19.14h-.17s-.07-.06-.11-.06h-.22l-.18.15H153l-.05-.05-.77-.06-.64-.16-.33-.22-.21-.17-.06-.06-.09,0V30l-.13.21h-.23l-.14.15,0,.12.26.24Zm3.39-.28.07-.06.43,0,.08-.16-.08-.12-.06-.13,0-.07h.25l.29.25v.15l-.48.38-.44,0-.09-.06Zm-3.14-.51h.23l0,.09,0,.38h.44l.11.09v.12l-.21.09-.37,0-.26,0-.18-.16,0-.32Z"/><polygon class="bm_cls-8" points="151.03 30.85 151.29 30.89 151.66 30.87 151.87 30.78 151.87 30.66 151.76 30.57 151.32 30.57 151.3 30.19 151.28 30.1 151.05 30.1 150.81 30.37 150.85 30.69 151.03 30.85"/><polygon class="bm_cls-8" points="154.72 30.81 155.2 30.43 155.21 30.28 154.92 30.03 154.67 30.03 154.63 30.1 154.69 30.23 154.77 30.35 154.69 30.51 154.26 30.55 154.19 30.61 154.19 30.73 154.28 30.79 154.72 30.81"/><polygon class="bm_cls-7" points="148.08 32.81 148.25 32.75 148.59 32.38 148.72 32.35 148.92 32.08 149.24 31.8 149.34 31.87 149.52 31.9 149.66 31.82 149.67 31.69 149.65 31.59 149.57 31.28 149.31 31.05 149.31 31 148.98 30.51 148.81 30.48 148.61 30.32 148.41 30.1 148.18 29.76 147.73 29.74 147.73 29.84 147.79 29.87 147.99 30.03 148.03 30.16 148.15 30.29 148.35 30.52 148.41 30.68 148.47 30.89 148.53 31.13 148.75 31.46 148.77 31.64 148.58 31.74 148.28 32.05 148.15 32.12 147.63 32.56 147.48 32.58 147.34 32.52 147.33 32.36 147.38 32.23 147.27 32.1 147.03 32.28 147.04 32.54 147.1 32.67 147.37 33 147.8 33.01 148.08 32.81"/><polygon class="bm_cls-9" points="156.99 30.35 156.73 30.62 156.53 30.65 156.31 30.97 156.24 31.15 156.27 31.34 156.4 31.43 156.63 31.43 156.88 31.31 157.06 31.15 157.23 31.15 157.35 31.27 157.54 31.25 157.65 31.11 157.69 30.94 157.85 30.72 157.9 30.51 158.04 30.2 158.08 29.99 157.72 29.97 157.31 30.33 156.99 30.35"/><polygon class="bm_cls-7" points="151.6 34.84 151.72 35.09 151.98 35.13 152.17 35.03 152.34 35.23 152.37 35.58 152.71 35.95 152.87 35.99 153 35.85 153.15 35.7 153.16 35.56 153.39 35.46 153.45 35.03 153.58 35.19 153.79 35.06 154.07 35.03 154.07 34.67 153.97 34.42 153.75 34.27 153.42 34.12 153.06 33.99 152.88 34.01 152.57 34.19 152.22 34.31 151.95 34.32 151.68 34.6 151.6 34.84"/><path class="bm_cls-7" d="M148.23,37.8,149,37l.07,1.09.07.64.07.54-.64.69.33.28h.85l.38-.52.17,0,0-1.58.07-.8.09,0-.12.64,0,.57,0,.92.07.57,0,.38.21.28V41l.26.07V40l.19-.43,0,.38-.1.38.1.47.07.45.19.45.4.4.62.21.54.12.35-.07.33.14.45,0-.66-.73-.17-.45,0-1,.1-.07.26-.85.09-1.51v1.32l-.12.5-.07.54.1.31H154l.57.52.17.33.21.43h.5l.19-.09.28,0,.21.14.12,0,0-.09.21,0,0-.19h.26l-.17-.19-.57-.28-.78-1.25,0-1.3,0-.47.12-.33v-.52h.12v.52l-.09.38,0,1.73.73,1h.26l.14.14h.19l.21.19h.95l.55-.24.33-.35.16,0v-.5l-.12-.24-.33-.54-.45-.26h-.26l0,.9-.19.26-.24.19h-.19l-.14-.16,0-1.54-.43-.83-.14-1-.14-.54-.28-.35,0-.24.73,1.16.07.4.54.83h.19l.36.24.59.09.33-.09.5-.76-.09-.28L159,37v-.17l0-.26.12-.12-.09-.14-.26,0-.4.4v.33l-.1.24-.38,0-.21-.5v-.35l-.12-.28L157.4,36l-.07-.36-.45-.92v-.38l.76.87,0,.24.83.52.71-.09.45-.57v-.59l-.17-.31,0-.61-.47.43,0,.4-.12.09-.23-.24h-.12l-1.37-1.51,0-.09.64.38.83-.31.4-.35,0-.5-.59.47-.33,0-.21,0h-.31l-.43-.33-.33-.09a1.06,1.06,0,0,0-1.42.38c-.25.62-.4,1.57-.76,1.8l-.52,0,.09.21.09.38-.21.47-.36,0-.8.95-.21,0-.4-.24-.14-.87-.33.09-.36-.26,0-.24.38-.45-.64-.52,0-.66-.54-.52-.19,0-.45-.33h-.76L148,33.34l-.52.69v.17l-.4.33,0-.85-.62.4,0,.35,0,.26.09.28.57.36,1,0,.33-.07.28-.21v.26l-.31.47-.4.95-.52.8-.4,0-.14-.33.17-.35.17-.47-.07-.09-.12.12-.31,0-.42.57,0,.4.07.57.4.5h.71Z"/><polygon class="bm_cls-7" points="138.01 42.17 138.21 42.05 138.39 42.05 138.6 42.21 138.9 42.21 139.32 41.68 139.91 41.78 139.91 41.85 140.23 42.27 140.25 42.53 140.41 42.51 140.71 42.19 140.81 42.29 141.44 42.03 141.66 42.09 141.74 42.27 141.76 42.47 141.74 42.57 141.66 42.73 141.62 43.15 141.8 43.16 141.9 43.3 141.58 43.4 141.58 43.72 141.84 43.86 141.88 44.06 141.84 44.4 141.78 44.59 142.13 44.67 142.95 44.41 143.27 44.12 143.88 44.08 145.29 43.36 145.31 42.97 145.03 42.59 145.03 42.45 144.56 42.47 143.72 42.63 142.93 42.69 142.83 42.51 142.75 41.85 142.29 41.18 141.86 40.94 141.42 40.88 141.24 40.98 140.77 41.32 140.37 41.28 139.95 40.73 139.58 40.66 139.28 40.78 138.92 41.18 138.56 41.52 138.44 41.26 138.17 41.1 137.93 41.14 137.61 41.3 137.35 41.46 137.28 41.78 137.33 41.93 137.49 42.19 137.61 42.45 137.71 42.45 137.89 42.13 138.01 42.17"/><polygon class="bm_cls-10" points="138.76 43.7 138.78 42.89 138.53 42.43 138.35 42.35 138.09 42.41 137.89 42.57 137.89 42.87 138.09 43.2 138.29 43.48 138.66 43.8 138.76 43.7"/><polygon class="bm_cls-10" points="139.9 42.23 139.68 41.91 139.38 41.91 139.06 42.21 139.06 43.26 139.32 43.74 139.9 42.55 139.9 42.23"/><polygon class="bm_cls-10" points="141.24 42.31 141.1 42.27 140.79 42.41 140.61 42.59 140.25 43.22 140.31 43.74 140.63 43.6 141.4 42.87 141.52 42.65 141.46 42.47 141.24 42.31"/><polygon class="bm_cls-10" points="140.88 43.9 140.53 43.96 140.51 44.04 141.08 44.43 141.4 44.45 141.68 44.26 141.76 44.12 141.7 43.94 141.52 43.78 141.2 43.76 140.88 43.9"/><polygon class="bm_cls-11" points="149.87 43.64 149.49 43.58 149.24 43.58 149 43.82 148.96 44.35 149.28 44.63 149.61 44.85 149.91 44.87 150.27 44.65 150.74 44.23 151.02 43.76 150.94 43.06 150.78 42.63 150.31 42.27 149.71 42.03 148.68 42.05 148.06 42.21 147.83 42.29 147.17 42.73 146.88 42.75 146.22 43.18 145.96 43.28 145.67 43.4 145.21 43.6 144.34 44 143.74 44.35 143.44 44.4 142.75 44.83 141.76 44.91 141.58 44.81 141.12 44.75 140.83 44.63 140.53 44.47 140.11 43.98 139.99 43.9 139.62 43.9 139.5 44.06 139.56 44.4 140.09 44.89 140.49 45.15 140.81 45.27 141.2 45.48 142.04 45.48 142.79 45.41 143.17 45.27 143.9 45.25 144.5 44.97 144.93 44.67 145.37 44.65 145.6 44.41 145.92 44.41 146.56 43.94 147.45 43.54 148.38 43.2 149.4 43.01 149.81 43.02 149.97 43.15 150.17 43.48 150.25 43.64 150.15 43.98 149.77 44.2 149.69 43.96 149.93 43.76 149.87 43.64"/><polygon class="bm_cls-7" points="145.53 43.12 145.67 43.26 145.92 43.12 146.18 42.95 146.44 42.85 146.74 42.69 146.78 42.51 147.09 42.35 147.43 42.25 147.87 42.13 148.3 42.07 147.99 41.85 147.07 41.26 146.7 41.22 146.56 41.34 146.02 41.36 145.72 41.44 145.51 41.56 145.29 42.53 145.55 42.81 145.53 43.12"/><polygon class="bm_cls-7" points="147.89 41.68 148.34 41.78 148.66 41.64 149.38 41.32 149.83 41.02 149.99 40.76 149.89 40.59 149.26 40.56 148.84 40.56 148.5 40.43 148.22 40.15 148.18 39.89 147.99 39.57 147.79 39.38 147.49 39.38 147.07 39.65 146.9 40.01 146.85 40.59 147.09 41.08 147.89 41.68"/><polygon class="bm_cls-7" points="147.87 39.04 148.36 39.67 148.72 39.3 148.74 38.44 148.64 38.36 148.74 38.03 148.78 37.75 148.64 37.75 147.87 38.48 147.33 38.56 147.06 38.72 147.03 38.92 147.25 39.06 147.65 39.02 147.87 39.04"/><polygon class="bm_cls-7" points="150.07 41.1 149.81 41.3 149.46 41.46 149.12 41.6 148.74 41.73 148.68 41.91 149.38 41.85 149.93 41.9 150.21 41.97 150.76 42.27 151.08 42.43 151.69 42.39 151.46 42.09 151.22 41.8 151.06 41.5 151.02 41.2 150.88 41.24 150.72 41.2 150.53 40.94 150.41 40.56 150.33 40.07 150.17 40.05 150.05 40.29 150.17 40.41 150.29 40.65 150.09 40.9 150.07 41.1"/><polygon class="bm_cls-12" points="154.13 42.77 151.1 42.73 151.22 43.72 151 44.34 151.46 44.35 151.99 44.35 152.47 44.26 152.92 44.22 153.34 44.23 153.68 44.27 154.1 44.12 154.12 43.8 154.02 43.52 154.22 42.91 154.13 42.77"/><polygon class="bm_cls-7" points="154.57 41.99 154.63 41.81 154.43 41.7 154.35 41.46 153.94 41 153.76 41 153.78 41.85 154.08 42.11 154.35 42.11 154.57 41.99"/><polygon class="bm_cls-7" points="158.44 41.38 157.98 41.42 157.63 41.48 157.35 41.48 157.07 41.54 156.99 41.68 157.84 42.25 158.1 42.33 158.34 42.25 158.74 41.93 158.94 41.5 158.96 41.18 158.76 41.16 158.44 41.38"/><polygon class="bm_cls-7" points="158.8 42.33 158.64 42.33 158.66 42.55 158.94 42.77 159.71 42.89 160.32 42.09 160.32 41.88 159.99 41.48 159.75 41.42 159.45 41.02 159.29 41.28 159.13 41.68 158.78 42.05 158.8 42.33"/><polygon class="bm_cls-7" points="160.98 43.66 161.28 43.86 161.51 44.02 161.65 44.14 161.91 44.14 162.19 44.31 162.68 44.49 163.16 44.47 163.2 44.22 163.3 43.8 163.46 43.58 163.46 43.44 163.06 43.24 163.18 43.08 163.36 43.16 163.64 43.28 163.91 43.44 164.15 43.4 164.45 43.54 164.81 43.62 165.16 43.7 165.18 43.48 164.95 43.2 164.69 43.2 164.19 42.73 164.07 42.33 164.41 42.03 164.91 42.09 165.24 42.39 165.42 42.39 165.54 41.64 165.9 41.64 166.06 41.7 166.25 41.97 166.25 42.15 166.35 42.33 166.55 42.43 166.85 42.45 166.91 42.33 166.67 41.9 166.71 41.36 167.01 41.2 167.27 41.22 167.37 41.16 167.19 41 166.71 40.86 166.16 40.88 165.6 40.78 164.61 41.3 164.21 41.38 164.07 41.54 163.48 41.66 162.98 42.07 162.37 42.29 161.04 42.29 160.74 42.39 160.44 42.77 160.44 42.97 160.66 43.24 160.98 43.66"/><polygon class="bm_cls-13" points="155.52 42.97 155.72 42.85 156.14 42.91 156.67 42.97 157.23 43.16 157.9 43.36 158.12 43.52 158.5 43.56 159.11 43.88 159.51 43.94 160.32 44.35 161.35 44.81 162.23 44.99 162.78 45.17 163.94 45.11 164.43 45.13 164.69 44.91 164.89 44.89 165.36 44.35 165.92 43.74 165.96 43.3 165.62 43.5 164.79 44.47 164.41 44.51 163.85 44.69 163.58 44.67 162.94 44.75 162.39 44.55 161.47 44.12 160.78 43.8 159.61 43.18 158.56 42.71 156.99 42.11 156.22 41.91 155.54 42.01 154.97 42.19 154.43 42.59 154.33 42.99 154.25 43.6 154.35 43.96 154.73 44.47 155.35 44.65 155.9 44.51 156.44 44.26 156.44 43.74 156.04 43.38 155.6 43.36 155.4 43.54 155.5 43.82 155.68 43.9 155.8 43.82 155.9 43.86 155.82 44.02 155.6 44.12 155.37 44.08 155.23 43.62 155.33 43.24 155.52 42.97"/><polygon class="bm_cls-14" points="163.88 44.51 164.13 44.4 164.71 44.23 165 44.02 165 43.82 164.49 43.82 164.23 43.68 163.78 43.68 163.66 43.8 163.54 44.04 163.54 44.31 163.68 44.49 163.88 44.51"/><path class="bm_cls-14" d="M166.91,41.3l-.14.14,0,.38.14.32.12.18,0,.34,0,.42s.32-.18.38-.32.2-.44.2-.44l.12-.51-.16-.44-.3-.08Z"/><polygon class="bm_cls-14" points="166.25 42.69 166.28 42.27 166.12 41.95 165.9 41.72 165.6 41.72 165.52 42.27 165.74 42.49 165.74 43.22 166.06 43.06 166.25 42.69"/><polygon class="bm_cls-14" points="165.42 42.71 165.24 42.51 165.03 42.31 164.79 42.15 164.45 42.15 164.23 42.33 164.29 42.69 164.69 42.99 165 43.05 165.36 43.58 165.48 43.44 165.54 43.15 165.42 42.71"/><path class="bm_cls-15" d="M141.95,47.74l-.39-.13-.17.15-.07.06,0,.17-.16-.42-.14.1-.24-.08-.17.24,0,.63.1.79.26.87.24.36.2,0,.06-.25.11.47.16.16.05.85.65,1.45.06.75,0,1.29-.24.29-.31.47v.14l-.32.61,0,.93.07.08,0,.89.25,0,.2.22.44,0v-.27l.06.31.35.46.3.24h.21l.11-.16v-1l.07,1.1h.22l.28-.25.37-.05h.12a.46.46,0,0,1,.15.15.62.62,0,0,0,.23.17l.13.27.16.06.08-.17-.11-2.12-.11-1.73-.12-2.2-.12-2.81,0-.9-.14-.12v-.29l.34-.1.2-.06-.09-.27-.1-.9v-.34l.12-.1h.24l.17.2.33,1.37.17.06h.6l1.36,2.14.48.72.66,1.23.86,1.23.27.36.18,0,.06-1.31.38-.33-.32-2.25-.26,0-.36-.33-.2,0-.2.33-.25-.28,0-.32-.23-.15H149l-.22-.3-.12,0-.14.13,0-1-.22-.48,0-.29-.41-.58-.43-.1a4.26,4.26,0,0,1-.19-.49,1.47,1.47,0,0,0-.08-.27l-.3-.31-.58.07-.41.05-.27.16-.22-.13-.13.08-.49-.26-.57.31-.27.24h-.17l-.13-.17-.26.18-.15-.15L143,47h0Zm-.6,1.7-.14-.36-.09-.18v0h0l.12-.86-.11.87.09.22.14.27,0,.91Zm1,7.68-.06-1.66.14,2.16,0,.21,0,.77-.06-1Zm7.53-3.05-.26-2.85ZM144,52.53v-.77l0-1.14v-.74l-.09-.43,0-1.34.22,5.28v0l.17.31-.11.43,0,.71v.61l0,.64.09,1.6-.06-.43-.37-.94-.23.34-.06,1.91-.06-3.31.66,1.6V55.48l-.09-2.09-.11-.8-.68-.86Z"/><polygon class="bm_cls-16" points="145.78 51.19 145.59 50.56 145.65 51.26 145.72 51.75 145.78 52.34 145.96 53.19 146.03 53.92 146.24 55.16 146.5 56.68 146.66 57.91 146.75 58.71 146.79 59.55 146.89 59.94 147.18 60.31 147.42 60.18 147.61 60.09 148 59.96 147.97 59.62 147.78 58.73 147.41 57.51 147.06 56.01 146.89 55.3 146.63 54.75 146.63 54.36 146.48 53.67 146.11 52.65 145.78 51.19"/><polygon class="bm_cls-17" points="146.91 50.99 146.56 50.39 146.23 49.95 146.13 50.05 146.43 51.16 146.68 52.12 146.92 53.17 147.32 54.56 147.55 55.51 147.78 56.1 148 56.93 148.6 58.9 148.72 59.42 149.02 60.02 149.12 60.01 149.33 59 149.58 58.23 149.69 57.72 149.77 57.3 149.75 56.67 149.58 56.3 148.81 54.74 148.34 53.79 148.15 53.3 147.8 52.7 147.33 51.72 146.91 50.99"/><path class="bm_cls-18" d="M142,66.91l.72,0,.62-.07.62-.18.51-.51.14-.54-.36-.54-.65.11-.18.47.4.25.25-.25.14.22-.36.33-.83.22-.94-.11-.72-.4-.94-1-.65-1.37L139,60.26l-.51-1.09.29-.36.18,0,1.3-1.09.76-.94.54-.83.47-1.3.07-.9-.14-.9-.58-1.3-.47-.69-.25-.25-.91-1-.36-.22-.33-.33-.47-.07-.18.07-.58.14-.36-.07-.22.18-.14.33.14.54.18.36.43.22.54,0,.22-.25,0-.54-.29-.22-.25.18,0,.22.11.18-.11.07-.33-.15V50l.14-.47.22-.22.47.15.11.14h.25l.32.18.47.47v.14l.65.69s.54.65.4.61,0,.22,0,.22l.43.72.18.65,0,1.37-.22.8-.07.07-.69,1.3-.4.36H140l-1.88,1.66-.22.18.54,1,.11.76.25.83.51,2,.44,1,.58,1.16.76.9Z"/><polygon class="bm_cls-19" points="150.05 70.75 149.4 70.42 147.77 69.84 146.72 69.44 145.96 68.9 145.28 68.18 144.88 67.13 145.06 66.44 145.46 66.15 145.67 66.22 145.6 66.44 145.49 66.62 145.64 66.91 146 66.98 146.25 66.66 146.25 66.3 146.03 65.9 145.75 65.83 145.42 65.86 144.95 66.19 144.7 66.48 144.56 67.17 144.92 68.29 145.49 69.05 146.94 69.98 148.49 70.56 149.47 70.71 150.19 71.43 150.56 72.3 150.23 72.84 149.8 72.88 149.8 72.66 149.98 72.63 150.19 72.41 150.09 72.19 149.65 71.94 149.29 72.23 149.26 72.88 149.58 73.2 150.05 73.31 150.41 73.17 150.77 72.77 150.81 72.3 150.67 71.61 150.05 70.75"/><polygon class="bm_cls-20" points="159.6 67.96 159.81 67.17 159.6 66.41 159.27 66.01 158.55 66.04 158.29 66.59 158.29 67.02 158.73 67.09 159.06 66.95 159.02 66.66 158.73 66.48 159.09 66.44 159.38 66.8 159.38 67.38 158.04 68.83 156.13 69.77 154.82 70.31 153.92 70.82 153.34 71.39 153.05 71.87 153.09 72.37 153.31 72.73 153.99 73.06 154.43 72.99 154.82 72.59 154.72 72.05 154.28 71.79 154.06 72.01 153.99 72.41 154.1 72.55 154.1 72.73 153.74 72.66 153.45 72.16 153.92 71.29 154.46 70.89 156.34 69.98 157.61 69.44 158.77 68.65 159.6 67.96"/><polygon class="bm_cls-21" points="166.43 49.34 165.82 49.41 165.06 49.84 164.26 50.67 163.72 51.47 163.03 52.59 162.82 53.6 162.85 55.38 163.76 57.29 164.55 58.3 166.11 59.35 166.36 59.53 165.89 60.58 165.2 62.79 164.77 64.56 164.41 65.32 163.25 66.33 161.95 66.84 160.83 66.8 160.28 66.41 160.14 66.04 160.1 65.5 160.39 65.43 160.39 65.75 160.65 65.75 160.9 65.72 161.01 65.28 160.79 65 160.5 64.96 160.14 65.03 159.74 65.32 159.71 65.9 159.89 66.3 160.25 66.84 160.9 67.17 161.55 67.35 162.53 67.27 163.65 66.73 164.7 65.97 165.13 64.92 165.67 63.01 166.36 60.58 166.79 59.68 167.16 59.35 167.05 59.21 166.72 59.21 165.89 58.59 165.02 58.05 163.9 56.71 163.32 55.59 163.14 54 163.47 52.45 164.15 51.29 165.28 50.35 166.29 49.63 167.3 49.59 167.44 49.99 167.3 50.31 167.08 50.13 166.76 50.1 166.61 50.64 166.97 50.82 167.63 50.75 167.81 50.31 167.73 49.7 167.26 49.26 166.43 49.34"/><polygon class="bm_cls-22" points="156.41 51.4 155.93 51.71 155.54 52.02 155.06 52.12 154.8 52.4 154.88 52.55 155.26 52.58 155.44 52.48 155.67 52.48 155.82 52.35 156.08 52.42 156.36 52.48 156.69 52.27 157.13 51.99 157.35 52.02 157.59 51.84 156.92 51.27 156.41 51.4"/><polygon class="bm_cls-14" points="166.46 43.05 166.81 42.99 166.81 42.64 166.43 42.56 166.46 43.05"/><polygon class="bm_cls-22" points="158.63 51.73 158.25 51.73 157.99 51.84 157.99 51.97 158.1 51.99 158.3 52.2 158.35 52.94 159.2 54.75 159.81 56.08 160.09 56.39 161.16 57.82 161.44 58.2 161.6 58.07 161.78 58.05 162.13 57.72 162.44 57.74 162.67 57.64 163.41 57.74 163.74 57.9 162.88 56.49 162.42 54.83 162.31 53.86 162.39 53.63 162.44 53.32 162.37 53.09 162.11 53.17 161.75 53.12 161.67 53.01 161.34 53.01 161.34 53.19 161.01 53.19 160.6 52.96 160.22 52.58 159.78 52.37 159.17 52.37 158.84 52.48 158.84 52.3 158.63 51.73"/><path class="bm_cls-22" d="M152.86,72l.15-.79.33-.46.49-.38.71-.64.69,0,.61-.28.84-.31.51-.15.77-.51.59-.61.46-.51h-.1l-.13.1-.51,0-.28-.18-.13-.38.08-.54.28-.36.38-.26.51,0h.23l.13-.36.23-.31.61-.36.46,0,.46.33-.05.54-.18.31-.51.13.41.38h1.36l.84-.54,1.07-.82.44-1.12.46-1.58.28-1,.18-.95,0-.51-.41-.05-.56.21-.23.28-.25.13-.31-.23-.08-1.1-.1-.41-.48-.23-.67-.13-.41.15-.87.46-.46.51-.16,0-.48.28-.66,1.15-.1.69s-.33.33-.48.36a1.7,1.7,0,0,1-.44,0l-.31-.2,0,.2-.43-.2.33.08.08-.15.28.18h.41l.49-.33-.15-1-.31-.38-.33-.05-.21-.23h-.79l-.77.38-.33.13-.87.89a4.69,4.69,0,0,1-.31.56c-.1.13-.64,1-.64,1l-.69.54-.38.08-.31.08.18.21-.43,0-.74.08-1,0-.44-.08-.26-.38L150.2,63l0-.13-.23-.38.33-.38,0-.33-.18-.23.07-.18-.2-.28.15-.05-.07-.2-.28,0-.28-.36-.59-.18-.41-.13-.54,0-.41.13-.59.43-.23-.08-.28.25-.49.77-.33.84v1l.26.89.3.84.56.87.18,0,.56.51.56.31.36.2-.41-.05-.56-.05-.33-.26-.21.08-.05-.15-.2,0-.15.18,0,.15.2,0,.05.23.38.51.69.38.66.31.54.13h-.61L148,68.5l-.38-.2,0,.05h-.13l-.1-.05-.41-.08-.51-.64-.18,0-.26-.33.18.72-.21-.2.13.64.33.51.89.44,1.22.46,1.13.33.59.36.33.36.38.77.13.59,0,.43-.18.46.31.15.18-.18.41-.13.28-.05.15.23h.56l.13.1.23,0,.05-.15-.38-.51Zm9-10,.11-.22,0,.11,0,.59.2.23.41.13.38-.13.45-.13.38-.21,0-.13-.14,0,0-.05h.21l.27-.54.09-.45v-.36l-.11-.11-.05-.09v-.13l.14-.12.16.23,0,.65,0,0v.43l-.25.47-.54.57-.63.27-.57.07L162.1,63l-.14-.23-.09-.23Zm-5.67,2.62.27,0,.66-.75L157,64v.25l.07.21.05.22.23.3.64.09.31-.14.63-.68.48-.56.09-.25,0-.64-.32-.41-.39-.38L159,62l.36.32.21.29.16.43.07.45,0,.23h-.16l-.09.5-.25.11-.34.3-.39.41-.54.34-.38,0-.21-.2L157,65l-.12-.27,0-.52-.25.18-.09.3-.54.45-.57.05Zm-5.11-.31.63.59-.34-.11-.3-.29-.43-.77Zm.07.57-.23-.3-.36-.63-.09-.52Zm-2.26-2.12h.82l.18-.18-.21.22-.36.09a1.66,1.66,0,0,1-.43-.09l-.47-.29Zm.59,2.85-.07.18-.29-.45-.21-.43-.14-.59-.05-1.52.29.13.07.14h-.25l.07.79.2.74.18.43.31.41.3.31-.09.09Zm0,3.59-.54.27-.34.27-.88-.32.45.07.82-.25.9-.43Zm3.28,3.71-.56.13-.12-.21-.71.2-.14.18L151,73l.21-.47,0-.48-.11-.38-.25-.56-.2-.52.48.14.23.09.5.07-.38.23.48.11-.54.05a1.36,1.36,0,0,0-.32.16s-.05.29.11.27l.48-.05a3.72,3.72,0,0,1,.38.05l.18.14-.11.16-.75,0,.11.09h.61l-.59.39.72,0,.57.23Z"/><path class="bm_cls-22" d="M143.49,64.85l.82-.15.29.21.38.42.31.16s.06-.12.12-.12l.2,0,0-.78s-.11-.06-.12-.12a3,3,0,0,1,0-.35l-.1-.11,0-3.16-.3-.81-.26-.44-.21-.17-.33,0-.38.24-.22.12-.48-.11-.18-.12h-.29l-.25-.47-.53-.17-.24-.08-.72-.06-.21,0-.27.18-.32.38-.23.44,0,.71.17.23V61l.07.13v.29l-.24-.29-.24-.59-.12-.36-.1.15,0,.48,0,.39.13.36.13.51.23.65.18.69.16.66.32.6.27.38.62.62.39.27.6.21h.68l.21-.15-.27-.26a1.39,1.39,0,0,1,0-.23,3.14,3.14,0,0,1,.09-.36Zm-2.21-.38V64l.14.88Zm.84.52-.65-.9V64h0l0-.59.44.07h0l.27-.29-.25.29h0l-.41,0,0,.56Z"/><polygon class="bm_cls-8" points="164.99 59.29 164.94 59.14 164.64 58.85 164.57 58.64 164.38 58.55 164.38 59 164.49 59.06 164.52 59.21 164.99 59.29"/><path class="bm_cls-7" d="M164.4,52.11l-.32.29-.21.41-.08.42-.13.53-.06.41.06.89,0,.48L164,56l.15,0,.18.36.26-.71.12.09.07.53.42.36a2.59,2.59,0,0,0-.48-.2c-.09,0-.11.11-.11.11l.11.23.24.24.42.17h.78l-.18.18h-.54l-.13.1.2.29.24.38.43.21.45-.12h.15l-.08.18.22.16.2.18.18.2.15,0v.23l-.27.68-.06.32-.15.26-.09.39-.27.47,0,.17h.13l.2-.26.29-.12.35-.45s.2.06.24,0,.26-.72.26-.72l.21,0,.11-.66.18.62.15.78-.06.66-.39.72-.11.12.06.24h.29l.33-.35.57-.77.23-.77.12-1.49.25.69.24.68.12.53-.18.69-.23.81.3-.21.63-.71.5-.74.13-.54.12-1-.08-.81,0-.3.11-.16,0-.54-.11-.23-.36.48-.15,0-.42-.29-.11,0-.24-.35-.16-.56v-.63H170a5.5,5.5,0,0,1,.09-.66c0-.14.11-.39.11-.39l-.07-.56-.29-.53-.35-.3-.55-.16-.65-.18-.37-.3-.71-.08-.36,0-.68-.32-.43-.17h-.56l-.53-.06Z"/><polygon class="bm_cls-7" points="137.9 58.24 137.62 57.43 137.56 56.52 137.73 56.91 137.7 57.35 138.06 57.79 138.42 57.99 138.7 57.66 138.51 57.52 138.42 57.13 138.15 56.8 138.15 56.35 138.53 57.05 138.9 57.29 139.26 57.38 139.62 57.13 140.22 56.44 140.14 56.35 139.51 56.38 139.01 56.05 138.56 55.63 138.56 55.27 138.65 55.33 138.84 55.71 139.2 56.08 139.62 56.13 140.14 56.16 140.72 55.63 141.03 54.63 141.11 54.08 141 53.39 140.64 52.58 140.42 52.22 140.22 52.14 138.84 52.11 138.62 52 138.28 52.28 137.65 52.28 136.96 52.67 136.48 53.03 136.23 53 135.27 53.89 135.4 54.61 135.51 54.8 135.57 55.49 135.6 56.49 135.38 56.66 135.04 57.49 134.85 58.21 134.68 59.62 134.82 60.68 134.63 61.23 134.24 61.84 134.16 62.15 134.49 61.92 134.43 61.81 134.6 62.06 135.02 61.31 135.18 61.59 135.35 61.62 135.35 60.68 135.15 59.21 135.63 60.73 135.74 61.28 135.82 61.26 135.88 60.01 136.18 60.7 136.21 61.31 136.34 61.42 136.43 61.26 136.43 60.34 135.93 58.87 135.68 57.52 136.34 59.29 136.73 59.65 137.09 60.62 137.4 61.17 137.46 61.53 137.68 61.4 137.76 61.26 137.56 61.12 137.7 61.01 137.68 60.51 137.51 59.34 137.34 59.34 136.76 58.13 137.29 58.87 137.51 58.87 137.54 58.68 137.29 58.18 137.23 57.6 137.73 58.32 137.9 58.24"/><polygon class="bm_cls-7" points="162.04 67.61 161.4 67.66 160.62 67.49 159.15 69.02 158.96 68.96 158.44 69.41 158.41 69.88 158.9 70.27 159.1 70.63 159.24 70.6 159.74 71.21 160.21 71.87 160.4 71.98 160.54 72.29 160.29 72.65 160.38 72.87 160.76 72.81 161.21 72.84 161.48 73.01 161.59 73.51 161.59 73.7 161.9 73.54 162.15 73.17 162.18 72.29 162.12 72.04 162.2 71.37 162.29 72.26 162.48 72.54 162.62 72.43 162.78 73.01 163.15 73.37 163.34 73.7 163.37 73.48 163.34 73.04 163.53 72.54 163.76 71.96 163.98 71.82 164.17 71.9 164.45 72.18 164.42 72.29 164.67 72.26 164.62 71.6 164.25 71.1 163.7 70.74 163.42 70.46 163.17 70.02 163.56 70.24 163.98 70.63 164.37 70.82 164.64 70.88 165.11 71.79 165.42 72.23 165.47 71.62 165.69 70.93 165.92 70.63 166.19 70.6 166.56 70.71 166.47 70.29 166.19 69.77 165.64 69.27 165.06 68.82 164.56 68.6 164.12 68.99 163.98 69.05 163.73 69.27 163.53 69.19 162.9 68.57 162.73 68.46 162.45 67.8 162.04 67.61"/><polygon class="bm_cls-23" points="164.48 72.73 164.25 72.54 164.06 72.43 163.76 72.84 163.76 73.54 163.9 73.87 163.76 75.17 164.45 74.2 164.7 73.7 164.67 73.04 164.48 72.73"/><polygon class="bm_cls-23" points="166.36 70.99 166.14 71.04 165.89 71.57 165.83 72.26 165.97 72.62 165.97 73.12 166.03 73.42 166.28 73.06 166.64 72.45 166.69 72.01 166.69 71.4 166.53 71.12 166.36 70.99"/><polygon class="bm_cls-23" points="161.04 73.15 160.76 73.04 160.51 73.06 160.24 73.45 160.26 74.23 160.32 74.59 160.68 74.34 160.96 74.14 161.32 73.67 161.26 73.31 161.04 73.15"/><polygon class="bm_cls-24" points="143.19 72.09 142.72 72.34 142.72 72.59 142.61 72.73 142.61 73.26 142.75 73.42 142.72 73.92 143.25 73.54 143.72 73.01 143.72 72.26 143.44 72.15 143.19 72.09"/><polygon class="bm_cls-24" points="140.22 72.57 139.84 72.59 139.67 72.87 139.53 73.4 139.56 74.01 139.95 74.62 140.42 75.2 140.39 74.67 140.34 74.09 140.42 73.73 140.56 73.51 140.81 73.29 140.64 72.81 140.22 72.57"/><polygon class="bm_cls-24" points="138.2 70.96 137.87 70.85 137.54 70.96 137.4 71.4 137.34 72.45 137.51 72.87 137.81 73.26 138.09 73.42 138.09 72.59 138.26 72.37 138.4 72.29 138.51 71.9 138.48 71.6 138.2 70.96"/><path class="bm_cls-24" d="M138.54,69.21c-.45.07-.68.31-.61.75l.44-.33Z"/><polygon class="bm_cls-7" points="144.97 68.8 144.58 68.46 144.6 68.3 144.33 67.99 144.16 67.47 143.97 67.13 143.28 67.19 142.69 67.49 142.19 68.21 141.83 68.88 141.39 69.1 141.03 69.13 140.45 69.1 140.14 68.94 139.53 68.85 139.12 68.94 138.62 69.35 138.34 69.82 137.73 70.16 137.43 70.68 137.84 70.6 138.15 70.6 138.4 70.9 138.48 71.32 138.73 71.96 138.73 72.43 138.95 72.26 139.4 71.62 139.98 71.21 140.53 70.85 141.31 70.63 141.44 70.77 141.33 70.82 140.92 70.99 140.39 71.32 139.87 71.76 139.59 72.21 139.45 72.59 139.92 72.32 140.34 72.26 140.72 72.45 140.94 72.93 141.11 73.34 141.75 72.93 141.78 72.76 141.92 72.65 141.89 72.09 141.81 72.04 141.92 71.96 141.97 72.01 142.17 72.32 142.31 72.54 142.39 72.23 142.75 71.93 143.33 71.87 143.83 71.98 143.63 71.68 143.58 71.01 144.05 71.29 144.41 71.18 145.52 70.35 145.99 69.93 145.35 69.41 144.97 68.8"/><path class="bm_cls-25" d="M150.45,55.52l-.42.69L150,57v.58l-.14.44-.47,2,.44.31.39.47.25.47.11.75.08.61.3.47.86.25,1.11,0,1.22-.5.67-.8.58-1.05.72-.75.55-.44.8-.22.11-1,.14-1.91,0-2.16-.16-.3.05-.83-.64.06-1.5.36-1.33.31-1.27.42-1.28.33-.72.33Zm-.29,1.35.26-.43v.71l-.26.06Zm.46,5.56,4.42-1ZM150,59.72l-.46-.06,8-1.65Zm7.07-4.88.29-.14.06.57-.34,0Zm-.46,0,0,.49-.26.06,0-.43Zm-.91.37.23-.14.09.57h-.31Zm-.63,0,.23-.11.06.66h-.29Zm-.63.2.29-.14,0,.63h-.26Zm-.43.06,0,.51-.29.09,0-.48Zm-1,.17.26,0,.06.68-.31.06Zm-.63.26.29-.11,0,.63-.31.06Zm-.54.2L152,56l.11.66-.31,0Zm5.82-.31-6.5,1.71-1.17.17Zm-6.36.46.2-.11.09.63-.29.06Zm-.23.74h-.2l-.06-.63.23-.09Z"/><path class="bm_cls-25" d="M158.52,59.68l.61.36.25.36.33-.28.14-.47.58-.33.88-.78-.75-1.14-.39-.55-.53-.61L159,55.08l-.72-1.58h-.39l-.06,3.13,0,1.14-.14,1.75Zm1.86-2.41-2.45.66Z"/><polygon class="bm_cls-26" points="150.12 46.04 150.98 45.9 150.37 45.29 150.12 46.04"/><polygon class="bm_cls-27" points="149.87 48.01 152.25 47.26 152.25 47.04 149.84 47.43 149.87 48.01"/><polygon class="bm_cls-28" points="151.23 53.44 151.53 53.44 151.56 52.91 150.51 48.31 150.45 48.87 150.62 50.09 151.23 53.44"/><polygon class="bm_cls-29" points="150.95 48.34 151.78 53.27 152.06 53.19 150.95 48.34"/><polygon class="bm_cls-30" points="151.2 48.34 152.25 53.14 152.64 53 151.2 48.34"/><polygon class="bm_cls-31" points="153.31 52.91 151.62 48.06 152.97 53.03 153.31 52.91"/><polygon class="bm_cls-32" points="151.92 47.9 153.56 52.8 154 52.75 151.92 47.9"/><polygon class="bm_cls-33" points="152.23 47.87 154.17 52.55 154.64 52.61 152.23 47.87"/><path class="bm_cls-34" d="M137.63,48.87l.44,0,.26-.08.4,0,.38.06.58.4.82.74.36.42-.26-.62-.14-.74-.1-.74.12-.44.2-.28.22.12.18-.1.24.12.2-.12.32.1.4-.2.6-.46h.42l.12.1.24-.1.14.2.5-.38.4-.2.4.16.52.12.2-.18.42,0,.58-.08.28.2.28.68.2.22.3.06.16.08.28.7.2.56.1.68,0,.18.18,0,.28.28.24.12.2.22.06.36.16,0,.14-.18.28.06.24.26.24,0-.42-2.79-.4-.22,0-.64.95-.34,0-.24-.14-.4-.18-.36-.36,0,.28-.9.7.72-.32,0,.28,1.11,1.21-.2.22.3-.08.26.1.18.06.32.36.46.95,2.05.9,1.85.4-.42.42-.1.46-.32.28-.1.2-.26.52,0,.78.7.12-.18.74,0,.24.48,0,.2.3-.12.82.18.5.4.38.16.1.2.22-.26.16,0,.26.06.82-.06L163,52a7.16,7.16,0,0,1,.56-1l.93-1,.9-.6L166,49l.64-.08.61,0,0-.54-.24-.52-.6-.78-.12-.62v-.38l.52-.34.63-.5,0-.52-.18-.64-.36-.54-.12-.1-.2,0-.28.18-.56.78-.62.62-.76.46-.89.1-1.41-.22-1-.3-1.22-.46-1.29-.6-.71-.14-1.07-.52-.4,0,0,.18.32.32-.08.56-.28.3-.52,0s.06,0-.24.12a1.11,1.11,0,0,1-.56,0l-.5-.3-.48-.08h-1l-1.07.1-1.21.1-.6.52-.52.08-.56-.14-.58-.68,0-.38.42-.52-.22,0-1.33.48-.82.46-.44.28-.32,0-.42.38-.52,0-.3.32-.1,0-.84.22-.77.14s-1,.14-1.06.14-1-.12-1-.12l-.68-.34-.32-.36-.3-.2-.4-.42,0-.32L139,44l-.26,0-.32.26-.14.34,0,.62.22.38.38.4.18.3-.1.54-.54.34-.58.42-.22.34-.08.38,0,.4Z"/><polygon class="bm_cls-8" points="141.9 63.52 141.46 63.45 141.48 64.04 141.48 64.04 141.49 63.48 141.9 63.52"/><polygon class="bm_cls-8" points="142.19 63.23 141.92 63.52 141.94 63.52 142.19 63.23"/><polygon class="bm_cls-8" points="142.12 64.99 141.48 64.04 141.48 64.09 142.12 64.99"/><polygon class="bm_cls-8" points="141.92 63.52 141.9 63.52 141.92 63.52 141.92 63.52"/><polygon class="bm_cls-8" points="141.28 64.47 141.42 64.88 141.28 64 141.28 64.47"/><polygon class="bm_cls-35" points="150.93 64.58 151.16 64.88 150.48 63.43 150.57 63.95 150.93 64.58"/><polygon class="bm_cls-36" points="151.38 64.79 151.72 64.9 151.09 64.31 150.64 63.73 151.07 64.5 151.38 64.79"/><path class="bm_cls-35" d="M149.33,62.89l.36-.09.21-.22-.18.18h-.82l-.47-.25.47.29A1.66,1.66,0,0,0,149.33,62.89Z"/><polygon class="bm_cls-35" points="149.89 65.74 149.58 65.44 149.28 65.03 149.1 64.59 148.9 63.86 148.83 63.07 149.08 63.07 149.01 62.93 148.72 62.8 148.78 64.33 148.92 64.92 149.13 65.35 149.42 65.8 149.49 65.62 149.8 65.83 149.89 65.74"/><polygon class="bm_cls-36" points="156.61 64.7 156.7 64.4 156.95 64.22 156.92 64.74 157.04 65.01 157.38 65.11 157.6 65.31 157.97 65.35 158.51 65.01 158.91 64.59 159.25 64.29 159.5 64.18 159.59 63.68 159.75 63.68 159.78 63.45 159.72 63 159.55 62.57 159.34 62.28 158.98 61.96 158.82 62.03 159.21 62.41 159.53 62.82 159.55 63.47 159.46 63.72 158.98 64.27 158.35 64.95 158.04 65.1 157.4 65.01 157.17 64.7 157.11 64.49 157.04 64.27 157.04 64.02 157.13 63.84 156.47 64.59 156.2 64.61 155.5 65.2 156.07 65.15 156.61 64.7"/><polygon class="bm_cls-36" points="162.1 63 162.49 63.09 163.07 63.02 163.69 62.75 164.23 62.17 164.48 61.71 164.48 61.28 164.47 61.26 164.43 60.61 164.27 60.38 164.13 60.51 164.13 60.63 164.18 60.72 164.29 60.83 164.29 61.19 164.2 61.64 163.93 62.17 163.71 62.17 163.68 62.23 163.82 62.25 163.8 62.37 163.43 62.59 162.98 62.71 162.6 62.84 162.19 62.71 161.99 62.48 162.01 61.89 161.97 61.78 161.87 61.99 161.87 62.53 161.96 62.77 162.1 63"/><polygon class="bm_cls-35" points="148.2 69.49 147.75 69.42 148.63 69.74 148.97 69.47 149.51 69.2 149.92 68.81 149.03 69.24 148.2 69.49"/><path class="bm_cls-37" d="M151.5,72.56l.59-.39h-.61l-.11-.09.75,0,.11-.16-.18-.14a3.72,3.72,0,0,0-.38-.05l-.48.05c-.16,0-.11-.27-.11-.27a1.36,1.36,0,0,1,.32-.16l.54-.05-.48-.11.38-.23-.5-.07-.23-.09-.48-.14.2.52.25.56.11.38,0,.48L151,73l.27.18.14-.18.71-.2.13.21.56-.13v-.14l-.57-.23Z"/><polygon class="bm_cls-8" points="141.21 49.09 141.35 49.45 141.38 50.27 141.35 49.36 141.21 49.09"/><polygon class="bm_cls-8" points="141.12 48.91 141.21 49.09 141.13 48.86 141.12 48.91"/><polygon class="bm_cls-8" points="141.12 48.85 141.13 48.86 141.24 47.99 141.12 48.85"/><polygon class="bm_cls-6" points="144.23 54.87 144.21 54.16 144.32 53.73 144.15 53.41 144.15 53.39 144.23 55.48 144.23 54.87"/><polygon class="bm_cls-6" points="144.23 56.89 143.58 55.3 143.63 58.61 143.69 56.69 143.92 56.35 144.29 57.29 144.35 57.72 144.26 56.12 144.23 55.48 144.23 55.55 144.23 56.89"/><polygon class="bm_cls-6" points="144.15 53.39 143.92 48.11 143.89 49.45 143.98 49.88 143.98 50.62 144 51.76 144 52.53 143.35 51.73 144.03 52.59 144.15 53.39"/><line class="bm_cls-38" x1="149.91" y1="54.07" x2="149.65" y2="51.22"/><polygon class="bm_cls-39" points="142.38 57.12 142.46 57.63 142.32 55.47 142.38 57.12"/><polygon class="bm_cls-39" points="142.49 57.84 142.46 57.63 142.52 58.61 142.49 57.84"/><line class="bm_cls-40" x1="155.05" y1="61.43" x2="150.62" y2="62.43"/><polygon class="bm_cls-41" points="150 59.72 157.53 58.01 149.54 59.66 150 59.72"/><polygon class="bm_cls-41" points="151.14 57.55 157.64 55.84 149.97 57.72 151.14 57.55"/><polygon class="bm_cls-42" points="150.42 56.44 150.17 56.87 150.17 57.21 150.42 57.15 150.42 56.44"/><polygon class="bm_cls-42" points="150.85 57.04 151.05 57.04 151.02 56.32 150.79 56.41 150.85 57.04"/><polygon class="bm_cls-42" points="151.48 56.18 151.28 56.3 151.28 56.87 151.56 56.81 151.48 56.18"/><polygon class="bm_cls-42" points="152.02 55.98 151.82 56.15 151.82 56.67 152.13 56.64 152.02 55.98"/><polygon class="bm_cls-42" points="152.65 55.84 152.36 55.95 152.36 56.52 152.68 56.47 152.65 55.84"/><polygon class="bm_cls-42" points="153.25 55.67 152.99 55.7 152.99 56.41 153.31 56.35 153.25 55.67"/><polygon class="bm_cls-42" points="154.05 56.04 154.02 55.52 153.73 55.64 153.76 56.12 154.05 56.04"/><polygon class="bm_cls-42" points="154.73 55.33 154.45 55.47 154.45 55.95 154.7 55.95 154.73 55.33"/><polygon class="bm_cls-42" points="155.3 55.15 155.07 55.27 155.07 55.81 155.36 55.81 155.3 55.15"/><polygon class="bm_cls-42" points="155.93 55.1 155.7 55.24 155.7 55.67 156.02 55.67 155.93 55.1"/><polygon class="bm_cls-42" points="156.64 55.35 156.62 54.87 156.36 54.98 156.39 55.41 156.64 55.35"/><polygon class="bm_cls-42" points="157.36 54.7 157.07 54.84 157.07 55.3 157.41 55.27 157.36 54.7"/><polygon class="bm_cls-43" points="150.97 54.64 151.42 54.53 151.37 53.93 150.99 54.01 150.97 54.64"/><polygon class="bm_cls-43" points="151.59 54.35 151.79 54.35 151.79 53.81 151.59 53.84 151.59 54.35"/><polygon class="bm_cls-43" points="152.31 53.7 152.05 53.73 152.05 54.3 152.34 54.21 152.31 53.7"/><polygon class="bm_cls-43" points="152.93 54.04 152.96 53.53 152.65 53.61 152.68 54.04 152.93 54.04"/><polygon class="bm_cls-43" points="153.56 53.44 153.22 53.5 153.22 53.95 153.62 53.95 153.56 53.44"/><polygon class="bm_cls-43" points="154.1 53.24 153.85 53.35 153.85 53.78 154.19 53.7 154.1 53.24"/><polygon class="bm_cls-22" points="154.33 53.64 154.59 53.58 154.53 53.21 154.33 53.21 154.33 53.64"/><polygon class="bm_cls-22" points="154.76 53.44 154.93 53.44 154.93 53.07 154.76 53.1 154.76 53.44"/><polygon class="bm_cls-22" points="155.13 53.07 155.16 53.38 155.44 53.33 155.42 52.96 155.13 53.07"/><polygon class="bm_cls-22" points="155.7 53.27 155.87 53.27 155.93 52.84 155.7 52.84 155.7 53.27"/><polygon class="bm_cls-22" points="156.19 52.76 156.19 53.13 156.42 53.16 156.36 52.76 156.19 52.76"/><polygon class="bm_cls-22" points="156.64 53.07 156.87 53.1 156.87 52.73 156.64 52.64 156.64 53.07"/><polygon class="bm_cls-22" points="157.01 52.98 157.27 52.98 157.24 52.61 157.1 52.5 157.01 52.98"/><polygon class="bm_cls-22" points="157.44 52.5 157.44 52.9 157.81 52.73 157.76 52.3 157.44 52.5"/><line class="bm_cls-40" x1="157.93" y1="57.92" x2="160.38" y2="57.26"/><polygon class="bm_cls-39" points="146.09 60.98 146.2 60.72 146 60.55 145.69 60.86 145.72 60.98 146.09 60.98"/><polygon class="bm_cls-39" points="145.94 60.43 146.09 60.17 146.06 59.98 145.8 60.03 145.63 60.12 145.69 60.46 145.94 60.43"/><polygon class="bm_cls-39" points="146.83 60.2 146.83 60.03 146.63 59.95 146.26 59.98 146.34 60.2 146.83 60.2"/><polygon class="bm_cls-39" points="146.57 59.8 146.74 59.58 146.54 59.41 146.2 59.55 146.23 59.8 146.57 59.8"/><polygon class="bm_cls-39" points="145.63 59.89 146 59.8 146 59.66 145.52 59.63 145.46 59.8 145.63 59.89"/><polygon class="bm_cls-39" points="146 59.26 145.86 59.15 145.52 59.2 145.52 59.41 145.89 59.43 146 59.26"/><polygon class="bm_cls-39" points="146.26 59.03 146.2 59.2 146.54 59.29 146.72 59.15 146.46 58.98 146.26 59.03"/><polygon class="bm_cls-39" points="145.92 58.72 145.94 58.52 145.72 58.49 145.54 58.58 145.49 58.83 145.72 58.86 145.92 58.72"/><polygon class="bm_cls-39" points="146.54 58.44 146.37 58.38 146.17 58.46 146.17 58.72 146.54 58.8 146.54 58.44"/><polygon class="bm_cls-39" points="145.49 58.03 145.46 58.44 145.86 58.26 145.83 58.03 145.49 58.03"/><polygon class="bm_cls-39" points="146.54 57.84 146.31 57.78 146.12 57.92 145.97 58.21 146.37 58.21 146.54 57.84"/><polygon class="bm_cls-39" points="146.03 57.44 146.06 57.66 146.43 57.61 146.29 57.32 146.03 57.44"/><polygon class="bm_cls-39" points="145.8 57.72 145.66 57.52 145.4 57.47 145.43 57.78 145.8 57.72"/><polygon class="bm_cls-39" points="145.74 57.01 145.4 57.01 145.38 57.29 145.83 57.29 145.74 57.01"/><polygon class="bm_cls-39" points="145.94 56.87 145.94 57.21 146.37 57.21 146.29 56.87 145.94 56.87"/><polygon class="bm_cls-39" points="145.72 56.61 145.52 56.32 145.32 56.67 145.43 56.95 145.72 56.61"/><polygon class="bm_cls-39" points="145.97 56.35 145.92 56.64 146.29 56.64 146.29 56.35 146.15 56.27 145.97 56.35"/><polygon class="bm_cls-39" points="145.52 56.01 145.32 56.01 145.29 56.24 145.63 56.24 145.52 56.01"/><polygon class="bm_cls-44" points="146.15 55.92 145.92 55.92 145.86 56.18 146.15 56.18 146.15 55.92"/><polygon class="bm_cls-44" points="146.2 55.44 145.83 55.41 145.77 55.67 146.17 55.67 146.2 55.44"/><polygon class="bm_cls-44" points="145.32 55.9 145.66 55.75 145.66 55.55 145.38 55.52 145.32 55.9"/><polygon class="bm_cls-44" points="145.54 55.13 145.49 54.95 145.35 55.01 145.23 55.24 145.4 55.33 145.54 55.13"/><polygon class="bm_cls-44" points="146.08 55.21 146.09 54.93 145.86 54.81 145.82 54.82 145.73 55.01 145.87 55.26 146.08 55.21"/><path class="bm_cls-44" d="M145.4,54.87s.12,0,.12-.09a1,1,0,0,1,0-.17l-.17-.1-.07,0-.07.21Z"/><path class="bm_cls-44" d="M146,54.74s0-.16,0-.21-.15-.12-.15-.12l-.13,0,0,.23.11.07Z"/><path class="bm_cls-44" d="M145.54,54.26a1,1,0,0,0-.08-.18l-.16,0,0,.23.17,0S145.54,54.29,145.54,54.26Z"/><path class="bm_cls-44" d="M145.79,54.32a.12.12,0,0,0,.12-.12,1.62,1.62,0,0,0,0-.17h-.2l0,.19A.22.22,0,0,0,145.79,54.32Z"/><polygon class="bm_cls-44" points="145.5 53.89 145.37 53.8 145.27 53.79 145.22 53.98 145.38 54.05 145.5 53.89"/><path class="bm_cls-44" d="M145.66,53.67l0,.17s.12.08.16.06a.4.4,0,0,0,.09-.13l-.15-.1Z"/><path class="bm_cls-44" d="M145.48,53.55l-.09-.21-.14,0h-.09l0,.21s.12.11.15.1Z"/><path class="bm_cls-44" d="M145.59,53.2l-.05.21.28,0s0-.23,0-.23Z"/><polygon class="bm_cls-44" points="145.18 52.92 145.13 53.04 145.27 53.15 145.39 53.08 145.31 52.92 145.18 52.92"/><polygon class="bm_cls-44" points="145.82 52.96 145.6 52.84 145.5 53 145.67 53.07 145.82 52.96"/><polygon class="bm_cls-44" points="145.33 52.62 145.19 52.47 145.12 52.6 145.2 52.73 145.33 52.62"/><polygon class="bm_cls-44" points="145.7 52.45 145.63 52.36 145.49 52.39 145.42 52.48 145.52 52.61 145.68 52.52 145.7 52.45"/><polygon class="bm_cls-44" points="145.33 52.28 145.27 52.15 145.15 52.13 145.08 52.31 145.24 52.4 145.33 52.28"/><polygon class="bm_cls-44" points="145.46 51.97 145.37 52.09 145.5 52.21 145.65 52.12 145.54 51.99 145.46 51.97"/><polygon class="bm_cls-44" points="145.15 51.85 145.08 51.85 145.08 51.99 145.27 51.97 145.24 51.83 145.15 51.85"/><polygon class="bm_cls-44" points="145.4 51.68 145.4 51.84 145.57 51.81 145.56 51.67 145.4 51.68"/><path class="bm_cls-44" d="M145.15,51.77l.1-.09s0-.12,0-.12h-.14l-.06.08Z"/><polygon class="bm_cls-44" points="145.14 51.44 145.26 51.39 145.13 51.29 145.05 51.35 145.14 51.44"/><polygon class="bm_cls-44" points="145.15 51.08 145.06 51.21 145.22 51.21 145.15 51.08"/><polygon class="bm_cls-44" points="145.5 51.29 145.35 51.16 145.37 51.29 145.5 51.29"/><path class="bm_cls-44" d="M145.36,51.54l.13,0-.12-.15S145.33,51.54,145.36,51.54Z"/><polygon class="bm_cls-45" points="149.82 56.07 150.04 55.76 149.74 55.34 149.56 55.59 149.58 55.85 149.82 56.07"/><path class="bm_cls-46" d="M150.06,55l-.22.32.21.34.22-.14s0-.28,0-.33A2.49,2.49,0,0,0,150.06,55Z"/><path class="bm_cls-44" d="M149.65,54.54a.9.9,0,0,0-.1.18s.06.27.06.27l.14.18s.16,0,.17-.1l.07-.24-.19-.25Z"/><path class="bm_cls-47" d="M149.49,55.39s.13-.08.13-.12a2.48,2.48,0,0,0-.1-.3l-.11-.11-.1,0,0,.08s0,.2,0,.23A2.16,2.16,0,0,1,149.49,55.39Z"/><path class="bm_cls-44" d="M149.14,54.85s.17,0,.17-.07v-.23l-.11-.18-.18-.08-.06,0-.07.16.08.21Z"/><path class="bm_cls-44" d="M149.34,54.18l0,.12s0,.17.05.19l.16.08.12-.19-.12-.24Z"/><path class="bm_cls-44" d="M149.16,53.78l-.08.18,0,.13.12.06s.13-.07.13-.1v-.17l-.15-.09Z"/><polygon class="bm_cls-44" points="148.9 54.28 149.02 54.14 148.92 53.94 148.78 53.91 148.67 54.05 148.71 54.23 148.9 54.28"/><polygon class="bm_cls-44" points="148.79 53.63 148.72 53.53 148.64 53.54 148.55 53.63 148.55 53.73 148.69 53.84 148.82 53.77 148.79 53.63"/><polygon class="bm_cls-44" points="149 53.44 148.94 53.57 149.03 53.74 149.16 53.67 149.13 53.52 149 53.44"/><polygon class="bm_cls-44" points="148.75 53.08 148.72 53.38 148.93 53.35 148.98 53.19 148.9 53.07 148.75 53.08"/><path class="bm_cls-44" d="M148.43,53.46l.13,0,.05-.11,0-.13,0-.06-.15,0Z"/><polygon class="bm_cls-44" points="148.38 53.12 148.44 53 148.29 52.85 148.19 52.98 148.29 53.14 148.38 53.12"/><polygon class="bm_cls-44" points="148.61 52.77 148.53 52.86 148.6 52.96 148.68 52.97 148.76 52.87 148.69 52.78 148.61 52.77"/><polygon class="bm_cls-44" points="148.23 52.65 148.18 52.56 148.09 52.55 148.03 52.71 148.19 52.75 148.23 52.65"/><polygon class="bm_cls-44" points="148.36 52.47 148.34 52.65 148.52 52.64 148.5 52.49 148.36 52.47"/><path class="bm_cls-44" d="M148.07,52.42s.06-.18,0-.17l-.16,0v.16Z"/><polygon class="bm_cls-44" points="148.22 52.19 148.22 52.35 148.4 52.33 148.36 52.19 148.22 52.19"/><polygon class="bm_cls-44" points="147.99 52.17 147.98 52.03 147.8 52.03 147.82 52.19 147.99 52.17"/><polygon class="bm_cls-44" points="148.07 52.07 148.26 52.06 148.26 51.92 148.1 51.92 148.07 52.07"/><path class="bm_cls-44" d="M147.91,51.68v.17s.21,0,.21,0a.86.86,0,0,0,0-.15Z"/><polygon class="bm_cls-44" points="147.8 51.7 147.63 51.7 147.65 51.89 147.85 51.89 147.88 51.76 147.8 51.7"/><path class="bm_cls-44" d="M147.59,51.63h.16l-.15-.21s0-.1,0-.12l-.07,0-.09-.15-.08.08Z"/><path class="bm_cls-44" d="M147.85,51.3l-.12-.09-.08-.15-.08,0s-.06-.06-.06-.06h-.07l-.06.07.3.21v.17l.14.13.12,0,0-.14Z"/></g></g></svg>
