<svg xmlns="http://www.w3.org/2000/svg" viewBox="0 0 200 134"><defs><style>.bt_cls-1{fill:#eeb330;}.bt_cls-2{fill:#e2432d;}.bt_cls-3{fill:#fff;}.bt_cls-4{fill:#010101;}</style></defs><title>Asset 24</title><g id="Layer_2" data-name="Layer 2"><g id="Layer_77" data-name="Layer 77"><path class="bt_cls-1" d="M127.63,46.9c-.88,1.19-2.09.74-3.53.45a19.52,19.52,0,0,0,1.74,2.43l6.88-4.59-.39-.1A4.47,4.47,0,0,0,127.63,46.9Z"/><path class="bt_cls-1" d="M91,72a1.73,1.73,0,0,1-1.5.68,2.73,2.73,0,0,1-1.72-.47,1.67,1.67,0,0,1-1.07,1.09,2.13,2.13,0,0,1-1.94-.1A2.26,2.26,0,0,1,84,74.7a1.24,1.24,0,0,1-1.08.36,1.74,1.74,0,0,1-1.09,1.66,2.17,2.17,0,0,1,.19,1.43,1.12,1.12,0,0,1-.49.86.7.7,0,0,1,.1.2l9.95-6.63A2,2,0,0,1,91,72Z"/><path class="bt_cls-1" d="M123.74,46.83c1-.39.87-.83,2.73-.95,2.24-.14,1.67-2.24,3.11-2.53-4.56,1.17-5.3,0-7.86.31a7.65,7.65,0,0,0,0,1.09A9.93,9.93,0,0,1,123.74,46.83Z"/><path class="bt_cls-1" d="M125.1,22.76a2,2,0,0,0-.33.27,22.64,22.64,0,0,1,4.46,4.14,9.17,9.17,0,0,0,2-.33c-.88-.5-1.71-1.06-2.52-1.45A22.31,22.31,0,0,1,125.1,22.76Z"/><path class="bt_cls-1" d="M114.3,23.42a7.67,7.67,0,0,1,1.31.57c1.9,1.06,3.53.75,5.78,2.48C118.53,23.59,116.09,22.57,114.3,23.42Z"/><path class="bt_cls-1" d="M125.38,25a9.25,9.25,0,0,1-1.16-.89,6,6,0,0,0,.26,2.79,19.4,19.4,0,0,1,2.76.21C126.7,26.6,126.52,25.71,125.38,25Z"/><path class="bt_cls-1" d="M17,0A17,17,0,0,0,0,17V117a17,17,0,0,0,5.82,12.79L29,114.32a1.49,1.49,0,0,1-1.31-.45c3.55-.51,5-2.47,7.1-4.63,2.27-2.31,4.72-2.4,6.5-3.11l1.49-1a3.34,3.34,0,0,0,.56-.9,8.89,8.89,0,0,1-5.14,1.52c-2.22,0-4.67,3.55-7.17,2,1.45-.18,2.39-.8,3.91-2.39s3.84-.58,5.65-2.24c2.82-2.61,5.25-.43,8-3.69-.76-.36-2.39-.11-3.91.69s-3.48-.54-5.21.4c.22-2.14,4.27-.91,6.81-2.39A9.93,9.93,0,0,1,52.94,97C50.35,96.58,49,94.18,45,95c-1.89.38-3.4-2.61-5.28-1.09.06-1.12,2-2,4.06-.94s2.84-.95,6.88,1.59c1.66,1,4.52-.65,6.33.47-.23-.69-1.27-1.12-2.48-1,.59-1.2,3.64-1.35,6-.65l.18-.12a3.52,3.52,0,0,1-.46-1.71c.93.35,2.12-.06,3.27-.16l.43-.28a2.39,2.39,0,0,1-.76-1.51c1.22.41,1.85-.66,2.75-1.22-1.24-.22-2.42-.74-2.71-1.46,1.68.53,2.34-1.45,4.26-1.72a3.51,3.51,0,0,1,1.93-3.06,2.08,2.08,0,0,1-.46-1.81c.2-1.41.48-2.2,1.12-2.62l-.4-.05c-1.19-.21-4.4,1.88-5.72-.22,3,.86,4.95-3,7.6-3.57a4.29,4.29,0,0,1-.29-2.51,2.43,2.43,0,0,1,2.39-2c-.68-.81-.45-2.08,0-2.29a1.22,1.22,0,0,1,.5-1.25c-.47-.27-.82-.51-1.22-.38-.94.33-2-.74-3.11.14.05-1.52,1.92-.65,3.84-2.17a3,3,0,0,1,3.84.38,1.92,1.92,0,0,1,.43-1.86,2.26,2.26,0,0,1,3.12-.1l.08,0a2.33,2.33,0,0,1,1.21-2.86,2.86,2.86,0,0,1,2.67.36c-.13-.75.09-1.52-.5-1.91-.94-.62-1.76-1.3-1.45-2.39.49,1.25,2,1.24,3.26,1.48a3.18,3.18,0,0,1,2.25,2.19A1.52,1.52,0,0,1,90,57.94a1.71,1.71,0,0,1,1.57,1,1.51,1.51,0,0,1,1.61-.63,1.76,1.76,0,0,1,1.37,1,1.51,1.51,0,0,1,1.59-.49,2.05,2.05,0,0,1,1.1.66c.1-.7.2-1.37-.11-1.65a1.82,1.82,0,0,1-.47-2.32c0,.65.94,1.3,1.88,1.67s.4,2.24,1.88,3a1.48,1.48,0,0,1,.76,1.55,1.72,1.72,0,0,1,2-.32c1.28.56,1.54,1.59,1.14,2.13h0a2,2,0,0,1,1.73-.56l3.83-2.55c-.6-.43-1.7-1.31-2.79-.84.87-1.88,3.44-.07,4.27-1.48a5.31,5.31,0,0,1,.43-.62,2.09,2.09,0,0,1-1.26-.72,2.8,2.8,0,0,1-.3-3.18,2.09,2.09,0,0,1-2.23-.87,2.68,2.68,0,0,1-.36-2.55,5.45,5.45,0,0,1-2.17.53c-1,.07-2.28,1.12-2.61,3-1.56-3,1.27-3.66,1.52-5.65a4.65,4.65,0,0,1,.51-1.55,8.06,8.06,0,0,0-4.34,2.35c1.49-3.09,3.18-4.35,4.85-4.88a3.58,3.58,0,0,1-.07-.62,1.68,1.68,0,0,1,.62-1.6,2.18,2.18,0,0,1-.06-1.78c.26-.82.67-1.26,1.16-1.33a2.32,2.32,0,0,1,.27-1.67l.05-.09-.45.09c-2.17.58-7.53-1.77-10.71,1.09.42-2.23,3.25-2.83,7.4-2.65a8.48,8.48,0,0,1,6-2.35,2,2,0,0,1-.64-2.51c.92,2.8,4.84,1.17,7.19,2.41l.75-.23c-5.79-2.86-11.66-3.87-12.85-2.41s1.12,2.32,1.81,2c-.65,1.7-4.42.22-3.4-2.46.92-2.43,5.29-3.26,11.37-.8a4.73,4.73,0,0,1,.37-2.54,6.07,6.07,0,0,0-3.27,0c.69-.88,2.1-1,3.71-.65a2.68,2.68,0,0,1,1.14-.73c-1.82-.75-4.22-2-6.78-.7.54-1.55,2.79-1.75,4.84-1.18,1.26-1.8,5.15-1.15,8.75,1.49a5.51,5.51,0,0,1,.46-1.66,5.17,5.17,0,0,0-3.29-1.41c.92-.54,2.29-.22,3.81.61A2.64,2.64,0,0,1,124,22a9.45,9.45,0,0,0-6.07-1.78c2.5-1.7,8.54.58,10.93,3,1.47,1.51,4.58.85,6.47,3.52a5.18,5.18,0,0,1,6.28.82,1.48,1.48,0,0,1,.87-.68c1.69-.47,3.06,1,3.54,2.82l0,0a4.83,4.83,0,0,1,3.8,1.32c1.38-.71,2.33-.74,2.68,0a3.86,3.86,0,0,1,1.9-.45c1.52-2.21-.51-3.23,2.38-5.78,2.61-2.31.5-3.85,3-5.65.8-.58,2.53-1.74,2.68-2.9,1.05,2.61-3.26,3-3,7.17.16,2.26-1.11,2.45-1.93,5.19L194.18,4.21A16.91,16.91,0,0,0,183,0Z"/><path class="bt_cls-1" d="M97.23,61.13h0v0Z"/><path class="bt_cls-1" d="M122.65,40.68a5.41,5.41,0,0,0-.52.93,8.21,8.21,0,0,0-.27,1c1.65-.44,3.41-.15,4.47-1.16A10.13,10.13,0,0,1,122.65,40.68Z"/><path class="bt_cls-1" d="M143.51,38c0-.09-.07-.18-.1-.27a4.18,4.18,0,0,0-3.76,2.73l0,.1h.06Z"/><path class="bt_cls-1" d="M118,25.83a4.16,4.16,0,0,0-1.36.6,36.41,36.41,0,0,1,4.47,1.86l.19-.16A7.31,7.31,0,0,0,118,25.83Z"/><path class="bt_cls-1" d="M118.48,29.91a2.17,2.17,0,0,1,1.39-.68,14.7,14.7,0,0,0-3.69-2.1C116,28,117.25,29.07,118.48,29.91Z"/><path class="bt_cls-2" d="M152.5,41.18a8.66,8.66,0,0,1-1.41,2.53,2.15,2.15,0,0,0-.37,1,10,10,0,0,0,1.85.48A6,6,0,0,1,152.5,41.18Z"/><path class="bt_cls-2" d="M156.3,32.72a1,1,0,0,1,0,.25,5.27,5.27,0,0,1,.52-.24C156.63,32.74,156.46,32.73,156.3,32.72Z"/><path class="bt_cls-2" d="M150.86,54.64l.09.18a3.74,3.74,0,0,1,.18,1.16,3.88,3.88,0,0,1,1.09.28A5,5,0,0,1,150.86,54.64Z"/><path class="bt_cls-2" d="M141,87.73a3.42,3.42,0,0,1-.66,1.32,6.13,6.13,0,0,1,1.93-.85A1.83,1.83,0,0,1,141,87.73Z"/><path class="bt_cls-2" d="M150.49,53.72c0-.12-.09-.24-.11-.36C150.4,53.48,150.45,53.6,150.49,53.72Z"/><path class="bt_cls-2" d="M154.27,57.76a2,2,0,0,1,.47-.47,5,5,0,0,1-1.17-.26A2.64,2.64,0,0,1,154.27,57.76Z"/><path class="bt_cls-2" d="M158.37,56.26a1.78,1.78,0,0,1,0,1.5,2.3,2.3,0,0,1,2.44-1.81c-.75-.51-.71-1.35-.8-2.16A5,5,0,0,1,158.37,56.26Z"/><path class="bt_cls-2" d="M143.63,40.06a3.22,3.22,0,0,0-.11-2.07l-3.86,2.58A35.32,35.32,0,0,1,147.1,43l.37-.17c1.9-.74,1.52-1.94,2.24-2.69a4,4,0,0,1-.52-.19,4.77,4.77,0,0,1-2.81.63,1.41,1.41,0,0,0,.66-1.87,10.2,10.2,0,0,0-1.5-.64A6.78,6.78,0,0,1,143.63,40.06Z"/><path class="bt_cls-2" d="M142,43.35c1,.06,1.59,1.19,2.67,1.66a5.23,5.23,0,0,1,1.19-1.26c-1.55-.54-3.37-1.05-5.42-1.58C141,42.74,141.43,43.32,142,43.35Z"/><path class="bt_cls-2" d="M148.43,43.64l.4.22.27.15a2.94,2.94,0,0,1,.13-1A2.87,2.87,0,0,1,148.43,43.64Z"/><path class="bt_cls-2" d="M109,65.32h0c.15-.41.83-.56,1.31-.4s1.07.54,1.13,1h.11c.12-.4-.05-.95-.92-1.23-1.47-.47-2-1.41-1.63-2.28.45,1.09,2.39,1.38,3.4,1.12a3.25,3.25,0,0,1,1.46,0,3.59,3.59,0,0,1-.78-1.71,2.77,2.77,0,0,1,.19-1,3.92,3.92,0,0,1-3.3-.35l-.14-.1L106.06,63a4.21,4.21,0,0,1,.86.12C108.54,63.48,109,64.48,109,65.32Z"/><path class="bt_cls-2" d="M64.28,91.34a2.63,2.63,0,0,1-.36-.28l-.43.28A4.31,4.31,0,0,1,64.28,91.34Z"/><path class="bt_cls-2" d="M42.8,105.14l-1.49,1A3.72,3.72,0,0,0,42.8,105.14Z"/><path class="bt_cls-2" d="M60.68,93.21l-.18.12.33.1C60.78,93.36,60.73,93.29,60.68,93.21Z"/><path class="bt_cls-2" d="M157.3,29.64a5.79,5.79,0,0,0,1.6-1.34c1.52-2.32,4.74.4,7.46-1.67-.47,2.93-4.13,1.88-5.72,3.76a6.94,6.94,0,0,1-2.35,2c1.18-.11,2.22.07,3.22-.54,4.42-2.68,6.19.54,10.14-.72-1,2.53-6.88.36-9.41,2.24a15.77,15.77,0,0,1-7,2.18c.43.51-.29.91-1.13.55h0c1.5.65.78,1.41-.24,1.09h0c1,.51.79,1.07.15,1.12,2,2.66-.84,4.7-.76,7a5.31,5.31,0,0,0,1.79-.15c2.79-.8,1.53-2.9.28-3.26a2.37,2.37,0,0,1,3.3,2.75c2.64-1,1.49-3.51.15-3.33,1.45-1.12,3.46.58,3.39,2.46,4.11.36,6.17,2.43,4.55,4.34.29-3.84-5.65-3-8.74-2.17a12.91,12.91,0,0,1-7.35-.13c0,1.55.06,3.42-1.44,4.51a7.88,7.88,0,0,0,.07-4.92c0-.07,0-.13,0-.2l-.12-.06a16.08,16.08,0,0,0-1.9-.9,7.28,7.28,0,0,0-1.52,1,3.23,3.23,0,0,1,2,1.75,1.79,1.79,0,0,1-.23,2.22c1.25.93,1,3.7-.57,4,.5-1.1-.66-1.56-1.08-2.42-.56.83-1.88,1.54-1.05,2.67a2,2,0,0,1-1.18-2.84,2.91,2.91,0,0,1-3.67.74c1.32-.06,1.66-1.82,2.78-2.33a2.75,2.75,0,0,1-.82-.71,7.9,7.9,0,0,0-5.44-3.5,4.87,4.87,0,0,1-3.73.27l-6.88,4.59a4.31,4.31,0,0,0,2,1.25c2.24.65,4.63,1.45,5.87,2.75s6.59,2.17,8.18,1.81,5-1.74,6.37-.8a13,13,0,0,1,2-3.19,4.7,4.7,0,0,0,.08,1.69,5,5,0,1,1,9.89-1.41c2.6.16,2.07,3,3,3.23,1.16,1.38,1.05,3.44-.79,3.66-.62,2-2.24,3.26-4,3a3.78,3.78,0,0,1-3.69,1.3,4,4,0,0,1-2.61-.69,4.11,4.11,0,0,1-3.22-2c-1.16-.22-2.39.72-5,2.53a7,7,0,0,1-4.44.87c0,1.58,2.12,3.64.71,5.22a4,4,0,0,0-2.21-3.15c.65,1.19-1.38,2.06-.47,3.91-1.88-.47-2.68-2.86-1.48-5.5-.8,1.34-2.24,1.92-3.22,1.3a2.56,2.56,0,0,0,1.54-3.27c-1.41-.89-3.34-.43-4.8.68a17.25,17.25,0,0,1-3,11.67c-1.24,1.63-.87,2.1-2.46,3.76-.61.64-1.3,1.45-1.09,3.76a2.57,2.57,0,0,1,2.75,1.38,1.93,1.93,0,0,1,2.1.22c1.23-.58,2.24-.29,3.33.87a3.05,3.05,0,0,1,2.9,1,2,2,0,0,1,2.24-1.16,1.74,1.74,0,0,1,2.39-1.74,2.14,2.14,0,0,1,2.75-2.53,4.08,4.08,0,0,1,5.21.43c-2.32-.65-2.24,1.81-4.2,1.59.38,1.08-.25,1.82-1.14,2.32.48-.18.89-.24,1.06.07a2.41,2.41,0,0,1,2.54-.07,1.7,1.7,0,0,1,2.32,1.09A3.33,3.33,0,0,1,148.55,90c-.29-1.59-1.37-1.52-1.81-2.17-1,.36-2,.36-2.32-.29a2.47,2.47,0,0,1-1,.5l.34,0a6.19,6.19,0,1,1-4.38,1.81,2.46,2.46,0,0,1-1.16.31c.36,1-.65,2.75-1.45,3.62,1.23.65.87,2.1.58,3,1.88.29.29,2,3.55,3-1.59.51-4.7,0-5.14-2a3,3,0,0,1-2.61-3.33,2.36,2.36,0,0,1,.29-4c-1.45.43-2.25-1.88-4.35-.94-1,.47-3.8-.33-3.76-1.3-.44.72-3.08.43-3.44-.8-.87.47-2.89-.33-2.86-1.52a1.85,1.85,0,0,1-2.57-1.56,1.31,1.31,0,0,1-.51-.18c-.29,1.07-.9,2.43-2.1,2.46.91-1.59-.4-2.79.11-2.93-1.7-.62-2.79,3.15-4.89,1.16,2,.16,1.43-3.13,4.38-3.33-3-.29-2.21-1.47-3.73-1.52.42-.63,1.5-.54,2.32.09s1.51-1,3,0v0c-.62-.69-.38-1.65.08-2.55a4.76,4.76,0,0,1-2.1-.55,2.19,2.19,0,0,1-1.68.21,2.76,2.76,0,0,1-1.19-.55,2.73,2.73,0,0,1-1,.11c-2.18-.09-3.37-.58-4-1.21a2.66,2.66,0,0,1-1.15.16,5.76,5.76,0,0,1-3.16-1h0a5,5,0,0,1-3.42-1.13,3.21,3.21,0,0,1-2.61-.75,4.27,4.27,0,0,1-3.28-.23l-9.95,6.63a2.94,2.94,0,0,1-.17,1.71,4.43,4.43,0,0,0-.38,2.31c.05.12.1.25.16.37,3.84,7.85-.43,9.56.87,15.42a2.51,2.51,0,0,1,2,2.68c.81,0,1.39.79,1.1,2.24a2.51,2.51,0,0,1,2.15.65,1.89,1.89,0,0,1,3-.07c1.88-.15,2.82,1.38,2.75,3.26a5.05,5.05,0,0,1-.43,5.43,14.23,14.23,0,0,0,0-2.5c-.07-1.2-1.74-1.45-1.56-2.43a2,2,0,0,1-2-1,1.91,1.91,0,0,1-1.85.36,3.3,3.3,0,0,1,1.45,3.33,3.14,3.14,0,0,1-.22,3.15,2.07,2.07,0,0,1-.65,1.2c0,.11,0,.22,0,.34a5.63,5.63,0,1,1-11.26,0c-.15-1.16-1.61-2.3-1.43-3.28-.87-2.68.36-5.18,3.91-5.68-.25-.58.14-1.17.41-1.79a.76.76,0,0,1,.1-1.43c-1,.24-1.44-.71-.66-1.17l0,0c-1.34.36-1.71-1.25-1.06-1.54l0,0c-1.89,0-1.2,2.71-2.51,2.57.43-1-.65-1.72-.51-2.53-.76,1-2.88,1.59-3.62.69,1.81-.15,1.52-2.25,2.39-2.28,1.88-.08.76-1.48-.11-1.56s-1.12-.18-.4-.62a3.84,3.84,0,0,1,2.76.09,7.24,7.24,0,0,0,.4-3.16,2,2,0,0,1-2.07-.11,2.16,2.16,0,0,1-1.61.07c-2.19,1.76-5.3,2.55-6.28,4.84-1.06,2.49-3.33,2-6.08,5.65-1.81,2.43-4.2.8-7.24,3.26.59-2.66,2.83-1.24,5.24-4.64a5.26,5.26,0,0,1-1.18.23c-3.33.22-4.52,4.24-7.38,3.11,2.68-.51,2.68-3.55,4.78-4.49-1.52-.54-2.32,2.9-4.27,2.9s-2.9,3.11-5.28,2.9-2.64,3.79-7.42,3.84c-2.92,0-6.39,2.75-8.5,2.91L5.82,129.79A16.92,16.92,0,0,0,17,134H183a17,17,0,0,0,17-17V17a16.94,16.94,0,0,0-5.82-12.79L157.56,28.63C157.47,28.93,157.38,29.26,157.3,29.64ZM93.6,95.41a4.85,4.85,0,1,1,4.85-4.85A4.85,4.85,0,0,1,93.6,95.41Z"/><path class="bt_cls-3" d="M106.64,42.21a1,1,0,0,1-.69-.46,1.68,1.68,0,0,0-.62,1.6,3.58,3.58,0,0,0,.07.62,7.49,7.49,0,0,1,1.15-.26A9.88,9.88,0,0,1,106.64,42.21Z"/><path class="bt_cls-3" d="M106.64,42.21a11.17,11.17,0,0,1,.84-3,1,1,0,0,1-.44-.57c-.49.07-.9.51-1.16,1.33a2.18,2.18,0,0,0,.06,1.78A1,1,0,0,0,106.64,42.21Z"/><path class="bt_cls-3" d="M107.48,39.21a15.63,15.63,0,0,1,1.35-2.45,13.16,13.16,0,0,0-1.46.13l-.05.09a2.32,2.32,0,0,0-.27,1.67A1,1,0,0,0,107.48,39.21Z"/><path class="bt_cls-3" d="M111,53a21.73,21.73,0,0,1-2.6-3.44,2.54,2.54,0,0,1-.73.57,2.68,2.68,0,0,0,.36,2.55,2.09,2.09,0,0,0,2.23.87A1.58,1.58,0,0,1,111,53Z"/><path class="bt_cls-3" d="M106.94,46.29a12.5,12.5,0,0,0-2.05.22,4.65,4.65,0,0,0-.51,1.55c-.25,2-3.08,2.64-1.52,5.65.33-1.92,1.59-3,2.61-3a5.45,5.45,0,0,0,2.17-.53,2.54,2.54,0,0,0,.73-.57A13.47,13.47,0,0,1,106.94,46.29Z"/><path class="bt_cls-3" d="M113.84,56.63a19.89,19.89,0,0,0-2.43-3.14c-.16-.17-.29-.33-.44-.49a1.58,1.58,0,0,0-.74.56,2.8,2.8,0,0,0,.3,3.18,2.09,2.09,0,0,0,1.26.72A2,2,0,0,1,113.84,56.63Z"/><path class="bt_cls-3" d="M113.93,63.6a3.25,3.25,0,0,0-1.46,0c-1,.25-3,0-3.4-1.12-.36.87.16,1.81,1.63,2.28.87.28,1,.83.92,1.23,1.94.24,3.17-.23,3.81-1.15A3.37,3.37,0,0,1,113.93,63.6Z"/><path class="bt_cls-3" d="M113.34,60.86A5.14,5.14,0,0,1,115,58.7a17.64,17.64,0,0,0-1.11-2.07,2,2,0,0,0-2,.83,5.31,5.31,0,0,0-.43.62c-.83,1.41-3.4-.4-4.27,1.48,1.09-.47,2.18.41,2.79.84l.14.1A3.92,3.92,0,0,0,113.34,60.86Z"/><path class="bt_cls-3" d="M113.34,60.86a2.77,2.77,0,0,0-.19,1,3.59,3.59,0,0,0,.78,1.71,3.37,3.37,0,0,0,1.49,1.19c.95-1.35.64-3.66-.46-6.09A5.14,5.14,0,0,0,113.34,60.86Z"/><path class="bt_cls-3" d="M110.36,64.93c-.48-.16-1.15,0-1.31.4a13.9,13.9,0,0,0,2.44.59C111.44,65.47,110.81,65.08,110.36,64.93Z"/><path class="bt_cls-3" d="M104.3,63.51c.4-.54.14-1.57-1.14-2.13a1.72,1.72,0,0,0-2,.32,1.28,1.28,0,0,1-.25.58C102.07,62.67,103.2,63.09,104.3,63.51Z"/><path class="bt_cls-3" d="M107.93,64.93c.38.15.74.28,1.09.39,0-.84-.48-1.83-2.1-2.24a4.21,4.21,0,0,0-.86-.12,2,2,0,0,0-1.73.56Z"/><path class="bt_cls-3" d="M97.24,61.12v0c1.24.34,2.46.73,3.67,1.14a1.28,1.28,0,0,0,.25-.58,1.48,1.48,0,0,0-.76-1.55c-1.48-.72-.94-2.61-1.88-3s-1.84-1-1.88-1.67a1.82,1.82,0,0,0,.47,2.32c.31.28.21,1,.11,1.65A1.35,1.35,0,0,1,97.24,61.12Z"/><path class="bt_cls-3" d="M78,64.22A13.81,13.81,0,0,1,81,61.79a2.26,2.26,0,0,0-3.12.1,1.92,1.92,0,0,0-.43,1.86A5.94,5.94,0,0,1,78,64.22Z"/><path class="bt_cls-3" d="M85,59.24a2.86,2.86,0,0,0-2.67-.36,2.33,2.33,0,0,0-1.21,2.86,14,14,0,0,1,4.36-1.59A1.62,1.62,0,0,1,85,59.24Z"/><path class="bt_cls-3" d="M85.49,60.16a17.81,17.81,0,0,1,2.82-.3,1.73,1.73,0,0,1,.26-1.25,3.18,3.18,0,0,0-2.25-2.19c-1.27-.24-2.77-.24-3.26-1.48-.31,1.09.51,1.77,1.45,2.39.59.39.37,1.16.5,1.91A1.62,1.62,0,0,0,85.49,60.16Z"/><path class="bt_cls-3" d="M88.3,59.85a23.07,23.07,0,0,1,2.93.1,1.72,1.72,0,0,1,.31-1.06,1.71,1.71,0,0,0-1.57-1,1.52,1.52,0,0,0-1.41.67A1.73,1.73,0,0,0,88.3,59.85Z"/><path class="bt_cls-3" d="M91.23,60q1.44.14,2.88.43a1.73,1.73,0,0,1,.41-1.08,1.76,1.76,0,0,0-1.37-1,1.51,1.51,0,0,0-1.61.63A1.72,1.72,0,0,0,91.23,60Z"/><path class="bt_cls-3" d="M94.12,60.38c1,.2,2.08.46,3.12.74h0a1.35,1.35,0,0,0,0-1.64,2.05,2.05,0,0,0-1.1-.66,1.51,1.51,0,0,0-1.59.49A1.73,1.73,0,0,0,94.12,60.38Z"/><path class="bt_cls-3" d="M70.76,82A34.57,34.57,0,0,0,72,77.54a7.08,7.08,0,0,1-2,.11c-.64.43-.93,1.21-1.12,2.63a2.08,2.08,0,0,0,.46,1.81A1.83,1.83,0,0,1,70.76,82Z"/><path class="bt_cls-3" d="M72,77.54c0-.2.1-.39.14-.6.16-.76.33-1.48.5-2.18a1.41,1.41,0,0,1-1.16-1c-2.66.61-4.57,4.43-7.6,3.57,1.32,2.1,4.53,0,5.72.22l.4.05A7.08,7.08,0,0,0,72,77.54Z"/><path class="bt_cls-3" d="M69.26,85.37A28.47,28.47,0,0,0,70.76,82a1.83,1.83,0,0,0-1.38.13,3.51,3.51,0,0,0-1.93,3.06A3.9,3.9,0,0,1,69.26,85.37Z"/><path class="bt_cls-3" d="M44.95,107.57c2.39.22,3.33-2.9,5.28-2.9s2.75-3.44,4.27-2.9c-2.1.94-2.1,4-4.78,4.49,2.86,1.12,4.05-2.89,7.38-3.11a5.26,5.26,0,0,0,1.18-.23c.11-.16.22-.32.34-.5a15.71,15.71,0,0,1,4.56-4.71c-4.62,1.66-9.68,1.86-14.33,4.71C47,103.58,45.09,104,47.12,102S54.5,97.94,58,96.2a29.16,29.16,0,0,0,3.53-2.07,3,3,0,0,1-.67-.7l-.33-.1c-2.35-.71-5.4-.55-6,.65,1.21-.09,2.25.34,2.48,1-1.81-1.12-4.67.58-6.33-.47-4-2.54-4.85-.51-6.88-1.59s-4-.18-4.06.94C41.62,92.37,43.12,95.35,45,95c4-.79,5.33,1.61,7.93,2.06a9.93,9.93,0,0,0-6.69,1.06c-2.54,1.48-6.59.25-6.81,2.39,1.74-.94,3.69.4,5.21-.4s3.15-1,3.91-.69c-2.71,3.26-5.14,1.09-8,3.69-1.8,1.67-4.09.61-5.65,2.24s-2.46,2.21-3.91,2.39c2.5,1.59,4.94-2,7.17-2a8.89,8.89,0,0,0,5.14-1.52,3.34,3.34,0,0,1-.56.9,3.72,3.72,0,0,1-1.49,1c-1.78.71-4.23.79-6.5,3.11-2.12,2.16-3.55,4.13-7.1,4.63a1.49,1.49,0,0,0,1.31.45c2.11-.16,5.58-2.88,8.5-2.91C42.3,111.36,42.56,107.35,44.95,107.57Z"/><path class="bt_cls-3" d="M61.51,94.13a24.74,24.74,0,0,0,3.16-2.58,2.81,2.81,0,0,1-.39-.21,4.31,4.31,0,0,0-.79,0c-1.15.1-2.34.51-3.27.16a3.52,3.52,0,0,0,.46,1.71c0,.08.1.15.15.22A3,3,0,0,0,61.51,94.13Z"/><path class="bt_cls-3" d="M64.66,91.55a23.48,23.48,0,0,0,2.69-3.11,7.48,7.48,0,0,1-1.45-.12c-.9.56-1.53,1.63-2.75,1.22a2.39,2.39,0,0,0,.76,1.51,2.63,2.63,0,0,0,.36.28A2.81,2.81,0,0,0,64.66,91.55Z"/><path class="bt_cls-3" d="M69.26,85.37a3.9,3.9,0,0,0-1.81-.23c-1.91.27-2.58,2.25-4.26,1.72.3.71,1.47,1.23,2.71,1.46a7.48,7.48,0,0,0,1.45.12A24.77,24.77,0,0,0,69.26,85.37Z"/><path class="bt_cls-3" d="M72.67,74.77a32.23,32.23,0,0,1,1.7-4.94,1.84,1.84,0,0,1-.75-.51,2.43,2.43,0,0,0-2.39,2,4.29,4.29,0,0,0,.29,2.51A1.41,1.41,0,0,0,72.67,74.77Z"/><path class="bt_cls-3" d="M76.3,66.29a3.38,3.38,0,0,1-2.15-.52,1.22,1.22,0,0,0-.5,1.25c-.49.22-.71,1.48,0,2.29a1.84,1.84,0,0,0,.75.51A22,22,0,0,1,76.3,66.29Z"/><path class="bt_cls-3" d="M76.3,66.29A16.61,16.61,0,0,1,78,64.22a5.94,5.94,0,0,0-.49-.47,3,3,0,0,0-3.84-.38c-1.92,1.52-3.78.65-3.84,2.17,1.16-.89,2.17.18,3.11-.14.4-.14.75.11,1.22.38A3.38,3.38,0,0,0,76.3,66.29Z"/><path class="bt_cls-3" d="M74.89,89.84a5.71,5.71,0,0,1-.42,1.71,1.34,1.34,0,0,1-.19,2.2,2,2,0,0,0,2.07.11,9.11,9.11,0,0,0-.63-2.73A3.06,3.06,0,0,0,74.89,89.84Z"/><path class="bt_cls-3" d="M74.46,91.55a5.94,5.94,0,0,1-1.8,2.27,2.16,2.16,0,0,0,1.61-.07A1.34,1.34,0,0,0,74.46,91.55Z"/><path class="bt_cls-3" d="M74.46,91.55a5.71,5.71,0,0,0,.42-1.71c-.89-.67-2.14.44-4.89,3.46a16.22,16.22,0,0,1-6.81,4.41,15.71,15.71,0,0,0-4.56,4.71c-.11.18-.23.34-.34.5-2.41,3.4-4.65,2-5.24,4.64,3-2.46,5.43-.83,7.24-3.26,2.75-3.69,5-3.16,6.08-5.65,1-2.29,4.09-3.08,6.28-4.84A5.94,5.94,0,0,0,74.46,91.55Z"/><path class="bt_cls-3" d="M134.42,62.27a2.56,2.56,0,0,1-1.54,3.27c1,.62,2.42,0,3.22-1.3-1.2,2.64-.4,5,1.48,5.5-.91-1.85,1.12-2.72.47-3.91A4,4,0,0,1,140.26,69c1.41-1.58-.69-3.63-.71-5.22a11.89,11.89,0,0,1-5-1.44Z"/><path class="bt_cls-3" d="M115.43,82.48c-.93-.43-.69-1.33-.33-2.4-1.49-1-2.2.65-3,0s-1.9-.72-2.32-.09c1.52.06.78,1.23,3.73,1.52-3,.2-2.41,3.49-4.38,3.33,2.1,2,3.19-1.77,4.89-1.16-.51.14.8,1.34-.11,2.93,1.2,0,1.81-1.39,2.1-2.46A1.69,1.69,0,0,1,115.43,82.48Z"/><path class="bt_cls-3" d="M79.7,103.44a.76.76,0,0,0-.1,1.43A1.6,1.6,0,0,0,79.7,103.44Z"/><path class="bt_cls-3" d="M79,102.24c-.3-.48-.66-1-1.06-1.54C77.3,101,77.68,102.6,79,102.24Z"/><path class="bt_cls-3" d="M75.94,97a3.84,3.84,0,0,0-2.76-.09c-.72.43-.47.54.4.62s2,1.48.11,1.56c-.87,0-.58,2.14-2.39,2.28.74.91,2.86.31,3.62-.69-.14.81.94,1.56.51,2.53,1.3.14.61-2.54,2.51-2.57-.65-.88-1.43-1.84-2.36-2.86A5.24,5.24,0,0,0,75.94,97Z"/><path class="bt_cls-3" d="M79.7,103.44c-.18-.36-.4-.76-.66-1.17C78.26,102.73,78.72,103.69,79.7,103.44Z"/><path class="bt_cls-3" d="M150.49,53.72a6.5,6.5,0,0,0,.37.92,5,5,0,0,0,1.35,1.62,5.79,5.79,0,0,1,1.36.76,5,5,0,0,0,1.17.26,2.37,2.37,0,0,1,1.27-.47c-.9-.76-.2-2.77-1.45-3,1.74-.74,3.59,1.3,3.55,2.14a1.22,1.22,0,0,1,.26.34,5,5,0,0,0,1.69-2.47,2.12,2.12,0,0,0-1-1.82,4.82,4.82,0,0,1,1.17-.08,5,5,0,1,0-9.89,1.41s0,0,0,.07S150.45,53.6,150.49,53.72Z"/><path class="bt_cls-3" d="M122.32,47.19c1.21,3.27,4,6.43,5.88,10.35A15.64,15.64,0,0,1,129.62,63c1.46-1.11,3.39-1.57,4.8-.68l.09,0a11.89,11.89,0,0,0,5,1.44A7,7,0,0,0,144,62.9c2.61-1.81,3.84-2.75,5-2.53a4.11,4.11,0,0,0,3.22,2,4,4,0,0,0,2.61.69,3.78,3.78,0,0,0,3.69-1.3c1.74.25,3.37-1.05,4-3,1.85-.22,2-2.28.79-3.66-1-.19-.42-3.07-3-3.23a4.82,4.82,0,0,0-1.17.08,2.12,2.12,0,0,1,1,1.82c.08.82,0,1.65.8,2.16a2.3,2.3,0,0,0-2.44,1.81,1.78,1.78,0,0,0,0-1.5,1.22,1.22,0,0,0-.26-.34c0-.83-1.81-2.88-3.55-2.14,1.25.27.54,2.28,1.45,3a2.37,2.37,0,0,0-1.27.47,2,2,0,0,0-.47.47,2.64,2.64,0,0,0-.7-.73,5.79,5.79,0,0,0-1.36-.76,3.88,3.88,0,0,0-1.09-.28,3.74,3.74,0,0,0-.18-1.16l-.09-.18a6.5,6.5,0,0,1-.37-.92c0-.12-.08-.24-.11-.36s0,0,0-.07a4.7,4.7,0,0,1-.08-1.69,13,13,0,0,0-2,3.19c-1.38-.94-4.78.43-6.37.8s-6.95-.51-8.18-1.81-3.62-2.1-5.87-2.75a4.31,4.31,0,0,1-2-1.25,19.52,19.52,0,0,1-1.74-2.43A6.61,6.61,0,0,0,122.32,47.19Z"/><path class="bt_cls-3" d="M121.75,44.75a9.33,9.33,0,0,0,.57,2.43,7.11,7.11,0,0,0,1.42-.35A9.93,9.93,0,0,0,121.75,44.75Z"/><circle class="bt_cls-3" cx="93.6" cy="90.56" r="4.85"/><path class="bt_cls-3" d="M81.58,79a1.48,1.48,0,0,1-1.37.06,10.87,10.87,0,0,0,.92,4.17,4.43,4.43,0,0,1,.38-2.31,2.94,2.94,0,0,0,.17-1.71A.7.7,0,0,0,81.58,79Z"/><path class="bt_cls-3" d="M81.58,79a1.12,1.12,0,0,0,.49-.86,2.17,2.17,0,0,0-.19-1.43,2.2,2.2,0,0,1-1.43-.12,10.39,10.39,0,0,0-.24,2.47A1.48,1.48,0,0,0,81.58,79Z"/><path class="bt_cls-3" d="M81.88,76.73A1.74,1.74,0,0,0,83,75.06a2.57,2.57,0,0,1-1.54-1,9.29,9.29,0,0,0-1,2.55A2.2,2.2,0,0,0,81.88,76.73Z"/><path class="bt_cls-3" d="M83,75.06A1.24,1.24,0,0,0,84,74.7a2.26,2.26,0,0,0,.74-1.55,3.15,3.15,0,0,1-1.25-1.56,8.44,8.44,0,0,0-2.11,2.46A2.57,2.57,0,0,0,83,75.06Z"/><path class="bt_cls-3" d="M84.78,73.15a2.13,2.13,0,0,0,1.94.1,1.67,1.67,0,0,0,1.07-1.09,2.54,2.54,0,0,1-.88-2.26,9.35,9.35,0,0,0-3.38,1.69A3.15,3.15,0,0,0,84.78,73.15Z"/><path class="bt_cls-3" d="M87.79,72.16a2.73,2.73,0,0,0,1.72.47A1.73,1.73,0,0,0,91,72a3.33,3.33,0,0,1-.27-2.5,13.42,13.42,0,0,0-3.83.44A2.54,2.54,0,0,0,87.79,72.16Z"/><path class="bt_cls-3" d="M93.51,69.73a19.69,19.69,0,0,0-2.76-.27A3.33,3.33,0,0,0,91,72a2,2,0,0,0,.61.62,4.27,4.27,0,0,0,3.28.23A3.74,3.74,0,0,1,93.51,69.73Z"/><path class="bt_cls-3" d="M96.41,70.39a26.21,26.21,0,0,0-2.9-.66,3.74,3.74,0,0,0,1.39,3.09,3.21,3.21,0,0,0,2.61.75A3.25,3.25,0,0,1,96.41,70.39Z"/><path class="bt_cls-3" d="M99.71,71.37l-2.63-.79-.67-.19a3.25,3.25,0,0,0,1.1,3.19,5,5,0,0,0,3.42,1.13h0A3.25,3.25,0,0,1,99.71,71.37Z"/><path class="bt_cls-3" d="M105,72.87c-1.54-.41-3.29-.9-5.29-1.5a3.25,3.25,0,0,0,1.23,3.33,5.76,5.76,0,0,0,3.16,1,2.66,2.66,0,0,0,1.15-.16A2.25,2.25,0,0,1,105,72.87Z"/><path class="bt_cls-3" d="M109.4,73.93c-1.27-.27-2.71-.62-4.41-1.06a2.25,2.25,0,0,0,.26,2.65c.61.63,1.8,1.12,4,1.21a2.73,2.73,0,0,0,1-.11A2.42,2.42,0,0,1,109.4,73.93Z"/><path class="bt_cls-3" d="M111.92,74.41c-.76-.12-1.59-.28-2.52-.47a2.42,2.42,0,0,0,.82,2.68,2.76,2.76,0,0,0,1.19.55,2.19,2.19,0,0,0,1.68-.21A2.24,2.24,0,0,1,111.92,74.41Z"/><path class="bt_cls-3" d="M114.88,74.77c-.9-.07-1.86-.19-3-.37A2.24,2.24,0,0,0,113.09,77a4.76,4.76,0,0,0,2.1.55l.06-.12C114.52,76.66,114.67,75.79,114.88,74.77Z"/><path class="bt_cls-3" d="M85.82,115.39a2.41,2.41,0,0,0,1.05-2.17,2.82,2.82,0,0,1-.8-1.77A5.32,5.32,0,0,1,82.34,110,5.63,5.63,0,1,0,88,115.63c0-.11,0-.23,0-.34A2,2,0,0,1,85.82,115.39Z"/><path class="bt_cls-3" d="M108.83,36.76a15.63,15.63,0,0,0-1.35,2.45,11.17,11.17,0,0,0-.84,3,9.88,9.88,0,0,0-.09,1.5c2.29-.34,4.44.28,5.8-1.09a19.12,19.12,0,0,0,3.48-4.13,1.72,1.72,0,0,1,1.13-.91,12.45,12.45,0,0,1-1.25-.47A44.2,44.2,0,0,0,108.83,36.76Z"/><path class="bt_cls-3" d="M78,64.22a16.61,16.61,0,0,0-1.68,2.07,22,22,0,0,0-1.93,3.54,32.23,32.23,0,0,0-1.7,4.94c-.18.7-.35,1.42-.5,2.18,0,.21-.09.4-.14.6A34.57,34.57,0,0,1,70.76,82a28.47,28.47,0,0,1-1.49,3.41,24.77,24.77,0,0,1-1.91,3.08,23.48,23.48,0,0,1-2.69,3.11,24.74,24.74,0,0,1-3.16,2.58A29.16,29.16,0,0,1,58,96.2C54.5,97.94,49.15,100,47.12,102s-.15,1.59,1.74.43c4.65-2.85,9.71-3.05,14.33-4.71A16.22,16.22,0,0,0,70,93.31c2.75-3,4-4.13,4.89-3.46a3.06,3.06,0,0,1,.83,1.29,9.11,9.11,0,0,1,.63,2.73,7.24,7.24,0,0,1-.4,3.16,5.24,5.24,0,0,1-.37.78c.93,1,1.71,2,2.36,2.86l0,0c.4.54.76,1.06,1.06,1.54l0,0c.26.42.48.81.66,1.17a1.6,1.6,0,0,1-.1,1.43c-.27.62-.66,1.21-.41,1.79-3.55.51-4.78,3-3.91,5.68-.18,1,1.28,2.12,1.43,3.28A5.63,5.63,0,0,1,82.34,110a5.32,5.32,0,0,0,3.73,1.45,2.82,2.82,0,0,0,.8,1.77,2.41,2.41,0,0,1-1.05,2.17,2,2,0,0,0,2.14-.1,2.07,2.07,0,0,0,.65-1.2,3.14,3.14,0,0,0,.22-3.15,3.3,3.3,0,0,0-1.45-3.33,1.91,1.91,0,0,0,1.85-.36,2,2,0,0,0,2,1c-.18,1,1.49,1.23,1.56,2.43a14.23,14.23,0,0,1,0,2.5,5.05,5.05,0,0,0,.43-5.43c.07-1.88-.87-3.4-2.75-3.26a1.89,1.89,0,0,0-3,.07,2.51,2.51,0,0,0-2.15-.65c.29-1.45-.29-2.21-1.1-2.24a2.51,2.51,0,0,0-2-2.68c-1.3-5.87,3-7.57-.87-15.42-.06-.12-.11-.24-.16-.37a10.87,10.87,0,0,1-.92-4.17,10.39,10.39,0,0,1,.24-2.47,9.29,9.29,0,0,1,1-2.55,8.44,8.44,0,0,1,2.11-2.46,9.35,9.35,0,0,1,3.38-1.69,13.42,13.42,0,0,1,3.83-.44,19.69,19.69,0,0,1,2.76.27,26.21,26.21,0,0,1,2.9.66l.67.19,2.63.79c2,.59,3.75,1.09,5.29,1.5,1.69.45,3.14.8,4.41,1.06.93.2,1.76.35,2.52.47,1.1.18,2.06.29,3,.37-.21,1-.36,1.88.36,2.61l-.06.13c-.47.91-.71,1.86-.08,2.55v0c-.36,1.07-.6,2,.33,2.4a1.69,1.69,0,0,0,.58,1.7,1.31,1.31,0,0,0,.51.18,1.85,1.85,0,0,0,2.57,1.56c0,1.19,2,2,2.86,1.52.36,1.23,3,1.52,3.44.8,0,1,2.72,1.77,3.76,1.3,2.1-.94,2.9,1.38,4.35.94a2.36,2.36,0,0,0-.29,4,3,3,0,0,0,2.61,3.33c.44,2,3.55,2.46,5.14,2-3.26-1.09-1.66-2.75-3.55-3,.29-.87.65-2.32-.58-3,.79-.87,1.81-2.61,1.45-3.62a2.46,2.46,0,0,0,1.16-.31,6.15,6.15,0,0,1,.93-.76,3.42,3.42,0,0,0,.66-1.32,1.83,1.83,0,0,0,1.27.46,6.13,6.13,0,0,1,1.18-.18,2.47,2.47,0,0,0,1-.5c.29.65,1.3.65,2.32.29.44.65,1.52.58,1.81,2.17a3.33,3.33,0,0,0-1.23-4.34A1.7,1.7,0,0,0,145,84.55a2.41,2.41,0,0,0-2.54.07c-.18-.31-.58-.25-1.06-.07.88-.5,1.51-1.24,1.14-2.32,2,.22,1.88-2.24,4.2-1.59a4.08,4.08,0,0,0-5.21-.43,2.14,2.14,0,0,0-2.75,2.53,1.74,1.74,0,0,0-2.39,1.74,2,2,0,0,0-2.24,1.16,3.05,3.05,0,0,0-2.9-1c-1.09-1.16-2.1-1.45-3.33-.87a1.93,1.93,0,0,0-2.1-.22,2.57,2.57,0,0,0-2.75-1.37c-.22-2.32.47-3.13,1.09-3.76,1.59-1.67,1.22-2.13,2.46-3.76a17.25,17.25,0,0,0,3-11.67,15.64,15.64,0,0,0-1.41-5.41c-1.91-3.93-4.67-7.08-5.88-10.35h0a9.33,9.33,0,0,1-.57-2.43,7.65,7.65,0,0,1,0-1.09,11.59,11.59,0,0,0-2.21.49,4.2,4.2,0,0,1,2.34-1.52,8.21,8.21,0,0,1,.27-1,5.41,5.41,0,0,1,.52-.93c-1.84-.74-3.07-1.62-4.29-.88-3,1.81-1.66,7-9.41,6.52-.72,0-1.38,0-2,0a13.47,13.47,0,0,0,1.43,3.27A21.73,21.73,0,0,0,111,53c.15.16.28.32.44.49a19.89,19.89,0,0,1,2.43,3.14A17.64,17.64,0,0,1,115,58.7c1.1,2.43,1.4,4.74.46,6.09-.64.92-1.87,1.39-3.81,1.15h-.11a13.9,13.9,0,0,1-2.44-.59h0c-.35-.12-.71-.24-1.09-.39l-3.6-1.4h0c-1.1-.42-2.23-.84-3.38-1.23s-2.43-.8-3.67-1.14h0c-1-.29-2.07-.54-3.12-.74s-1.93-.33-2.88-.43a23.07,23.07,0,0,0-2.93-.1,17.81,17.81,0,0,0-2.82.3,14,14,0,0,0-4.36,1.59l-.08,0A13.81,13.81,0,0,0,78,64.22Z"/><path class="bt_cls-3" d="M140.36,89a6.2,6.2,0,1,0,3.45-1l-.34,0a6.23,6.23,0,0,0-3.11,1Z"/><path class="bt_cls-3" d="M111,26.55a6.07,6.07,0,0,1,3.27,0,2.73,2.73,0,0,1,.44-.65C113.07,25.6,111.67,25.67,111,26.55Z"/><path class="bt_cls-3" d="M116.18,27.14a14.7,14.7,0,0,1,3.69,2.1l.31,0a10.25,10.25,0,0,1,1-.92,36.41,36.41,0,0,0-4.47-1.86A1.15,1.15,0,0,0,116.18,27.14Z"/><path class="bt_cls-3" d="M119.12,25.58a10.83,10.83,0,0,0-1.09.25,7.31,7.31,0,0,1,3.31,2.31,6.52,6.52,0,0,1,1-.67q-.48-.53-.94-1c-2.25-1.73-3.88-1.42-5.78-2.48a7.67,7.67,0,0,0-1.31-.57,3.17,3.17,0,0,0-.72.46,2.13,2.13,0,0,1,.3-.59c-2-.56-4.3-.36-4.84,1.18,2.56-1.25,5,0,6.78.7A4.29,4.29,0,0,1,119.12,25.58Z"/><path class="bt_cls-3" d="M127.41,22.28a3.72,3.72,0,0,0-2.31.48,22.31,22.31,0,0,0,3.62,2.63c.81.39,1.64,1,2.52,1.45h0a5.41,5.41,0,0,1,3.79.06c.09-.06.19-.1.29-.16-1.89-2.67-5-2-6.47-3.52-2.39-2.46-8.43-4.74-10.93-3A9.45,9.45,0,0,1,124,22,2.63,2.63,0,0,1,127.41,22.28Z"/><path class="bt_cls-3" d="M119.81,21.7a5.17,5.17,0,0,1,3.29,1.41,3.3,3.3,0,0,1,.52-.8C122.1,21.48,120.72,21.17,119.81,21.7Z"/><path class="bt_cls-3" d="M124.77,23a2.19,2.19,0,0,0-.55,1.07,9.25,9.25,0,0,0,1.16.89c1.13.71,1.32,1.61,1.85,2.12a12.3,12.3,0,0,0,2,.06A22.64,22.64,0,0,0,124.77,23Z"/><path class="bt_cls-3" d="M113.67,34.94a2,2,0,0,1,.88-1.17c-1.73,0-3.79,0-4.9-.71a8.48,8.48,0,0,0-6,2.35q1.26.05,2.66.19C108.85,35.86,111.05,34.31,113.67,34.94Z"/><path class="bt_cls-3" d="M115.71,37.12c-1.57-.69-2.16-1.45-2-2.18-2.62-.63-4.82.91-7.4.66q-1.4-.14-2.66-.19c-4.15-.17-7,.42-7.4,2.65,3.19-2.86,8.54-.51,10.71-1.09l.45-.09a13.16,13.16,0,0,1,1.46-.13A44.2,44.2,0,0,1,115.71,37.12Z"/><path class="bt_cls-3" d="M114.3,23.42c1.79-.84,4.23.17,7.09,3.05q.47.47.94,1a4.89,4.89,0,0,1,2.15-.57,6,6,0,0,1-.26-2.79,2.19,2.19,0,0,1,.55-1.07,2,2,0,0,1,.33-.27,3.72,3.72,0,0,1,2.31-.48,2.55,2.55,0,0,0-3.8,0,3.3,3.3,0,0,0-.52.8,5.51,5.51,0,0,0-.46,1.66c-3.6-2.64-7.48-3.29-8.75-1.49a2.13,2.13,0,0,0-.3.59A3.17,3.17,0,0,1,114.3,23.42Z"/><path class="bt_cls-3" d="M119.38,31.62c-1.32-.27-1.43-1.1-.9-1.71-1.23-.84-2.45-1.88-2.3-2.78a1.15,1.15,0,0,1,.49-.71,4.16,4.16,0,0,1,1.36-.6,10.83,10.83,0,0,1,1.09-.25,4.29,4.29,0,0,0-3.3-.4,2.68,2.68,0,0,0-1.14.73,2.73,2.73,0,0,0-.44.65,4.73,4.73,0,0,0-.37,2.54c-6.08-2.46-10.45-1.63-11.37.8-1,2.68,2.75,4.16,3.4,2.46-.69.29-3-.51-1.81-2s7.06-.46,12.85,2.41a16.55,16.55,0,0,1,3.77-.54A2.77,2.77,0,0,0,119.38,31.62Z"/><path class="bt_cls-3" d="M114.55,33.77A6.57,6.57,0,0,1,116.2,33c-2.35-1.23-6.26.39-7.19-2.41a2,2,0,0,0,.64,2.51C110.76,33.79,112.82,33.78,114.55,33.77Z"/><path class="bt_cls-3" d="M154.4,35.43a5.21,5.21,0,0,0-.26.66c.85.35,1.56,0,1.13-.55A2.46,2.46,0,0,1,154.4,35.43Z"/><path class="bt_cls-3" d="M153.76,38l.27.34c.64,0,.89-.6-.15-1.12,0,.12,0,.23-.05.35A3.57,3.57,0,0,1,153.76,38Z"/><path class="bt_cls-3" d="M154.14,36.1a7,7,0,0,0-.24,1.09C154.91,37.51,155.63,36.75,154.14,36.1Z"/><path class="bt_cls-3" d="M155.7,31.3a6.42,6.42,0,0,1,1.6-1.66c.08-.37.16-.7.25-1,.81-2.73,2.08-2.93,1.93-5.19-.29-4.2,4-4.56,3-7.17-.14,1.16-1.88,2.32-2.68,2.9-2.47,1.8-.36,3.34-3,5.65-2.88,2.56-.86,3.57-2.37,5.78A1.8,1.8,0,0,1,155.7,31.3Z"/><path class="bt_cls-3" d="M155.7,31.3a2.9,2.9,0,0,1,.45.76,1.66,1.66,0,0,1,.14.66c.16,0,.33,0,.48,0a5.35,5.35,0,0,1,1.52-.35,6.94,6.94,0,0,0,2.35-2c1.59-1.88,5.25-.83,5.72-3.76-2.71,2.06-5.94-.65-7.46,1.67a5.79,5.79,0,0,1-1.6,1.34A6.42,6.42,0,0,0,155.7,31.3Z"/><path class="bt_cls-3" d="M156.26,33c-.21.71-1.19,1.07-1.86,2.46a2.46,2.46,0,0,0,.87.11,15.77,15.77,0,0,0,7-2.18c2.53-1.88,8.36.29,9.41-2.24-3.95,1.27-5.72-2-10.14.72-1,.61-2,.43-3.22.54a5.35,5.35,0,0,0-1.52.35A5.27,5.27,0,0,0,156.26,33Z"/><path class="bt_cls-3" d="M144.27,45.79a3.66,3.66,0,0,1,.4-.78c-1.07-.47-1.7-1.59-2.67-1.66-.57,0-1-.61-1.56-1.18L139,41.8c-.2.38-.4.74-.6,1.07a7.85,7.85,0,0,1,2.86,1.78C142,45.4,143.33,45.36,144.27,45.79Z"/><path class="bt_cls-3" d="M144.87,46.21a1.44,1.44,0,0,1,.21.25c1.37-.38,2.23,0,2.64.57a3.23,3.23,0,0,0-2-1.75A5.78,5.78,0,0,0,144.87,46.21Z"/><path class="bt_cls-3" d="M142.71,49.13c-1.12.5-1.45,2.26-2.78,2.33a2.91,2.91,0,0,0,3.67-.74,3.36,3.36,0,0,1,.55-1A5,5,0,0,1,142.71,49.13Z"/><path class="bt_cls-3" d="M145.75,49.88a5.56,5.56,0,0,1-1.59-.16,3.36,3.36,0,0,0-.55,1,2,2,0,0,0,1.18,2.84c-.83-1.14.49-1.84,1.05-2.67A1.42,1.42,0,0,1,145.75,49.88Z"/><path class="bt_cls-3" d="M145.75,49.88a1.42,1.42,0,0,0,.09,1c.42.86,1.58,1.33,1.08,2.42,1.53-.35,1.82-3.12.57-4l0,0A2.61,2.61,0,0,1,145.75,49.88Z"/><path class="bt_cls-3" d="M145.08,46.46a1.44,1.44,0,0,0-.21-.25,6.86,6.86,0,0,0-.69,1.19,2.55,2.55,0,0,1,.1-1.62c-.94-.42-2.28-.38-3-1.13a7.85,7.85,0,0,0-2.86-1.78,5.7,5.7,0,0,1-1.93,2,7.9,7.9,0,0,1,5.44,3.5,2.75,2.75,0,0,0,.82.71,5,5,0,0,0,1.44.59,5.56,5.56,0,0,0,1.59.16,2.61,2.61,0,0,0,1.72-.59l0,0a1.79,1.79,0,0,0,.23-2.22C147.31,46.44,146.44,46.09,145.08,46.46Z"/><path class="bt_cls-3" d="M152.57,45.23a10,10,0,0,1-1.85-.48,9,9,0,0,0-.07,1.07A12.91,12.91,0,0,0,158,46c3.08-.87,9-1.67,8.74,2.17,1.62-1.92-.44-4-4.55-4.34.08-1.88-1.94-3.58-3.39-2.46,1.34-.18,2.5,2.32-.15,3.33a2.37,2.37,0,0,0-3.3-2.75c1.25.36,2.51,2.46-.28,3.26a5.31,5.31,0,0,1-1.79.15,2.57,2.57,0,0,0,.2.94A2,2,0,0,1,152.57,45.23Z"/><path class="bt_cls-3" d="M148.82,43.86l-.4-.22c-.36.2-.77.39-1.21.62a16.08,16.08,0,0,1,1.9.9l.12.06a6.76,6.76,0,0,1-.14-1.21Z"/><path class="bt_cls-3" d="M145.86,43.75A6.46,6.46,0,0,1,147.1,43a35.32,35.32,0,0,0-7.45-2.45h-.06c-.21.44-.41.85-.61,1.24l1.45.37C142.49,42.7,144.31,43.21,145.86,43.75Z"/><path class="bt_cls-3" d="M149.23,43c.35-1,1.23-1.19,1.37-2.72a3.79,3.79,0,0,1-.88-.14c-.72.75-.34,2-2.24,2.69l-.37.17a6.46,6.46,0,0,0-1.24.73A5.23,5.23,0,0,0,144.67,45a3.66,3.66,0,0,0-.4.78,2.55,2.55,0,0,0-.1,1.62,6.86,6.86,0,0,1,.69-1.19,5.78,5.78,0,0,1,.84-.93,7.28,7.28,0,0,1,1.52-1c.44-.23.85-.42,1.21-.62A2.87,2.87,0,0,0,149.23,43Z"/><path class="bt_cls-3" d="M150.59,40.3c-.14,1.53-1,1.71-1.37,2.72a2.94,2.94,0,0,0-.13,1,6.76,6.76,0,0,0,.14,1.21c0,.07,0,.13,0,.2a7.88,7.88,0,0,1-.07,4.92c1.5-1.09,1.42-3,1.44-4.51a9,9,0,0,1,.07-1.07,2.15,2.15,0,0,1,.37-1,8.66,8.66,0,0,0,1.41-2.53,6,6,0,0,0,.07,4.05,2,2,0,0,0,.91,1,2.57,2.57,0,0,1-.2-.94c-.08-2.29,2.72-4.33.76-7l-.27-.34A3,3,0,0,1,150.59,40.3Z"/><path class="bt_cls-3" d="M143.63,40.06a6.78,6.78,0,0,0,1.92-2,6.18,6.18,0,0,0-2.14-.36c0,.08.07.17.1.27A3.22,3.22,0,0,1,143.63,40.06Z"/><path class="bt_cls-3" d="M146.38,40.6a4.77,4.77,0,0,0,2.81-.63,4.28,4.28,0,0,1-.71-.38,14.74,14.74,0,0,0-1.44-.86A1.41,1.41,0,0,1,146.38,40.6Z"/><path class="bt_cls-3" d="M108.95,46.32c7.75.45,6.44-4.71,9.41-6.52,1.22-.74,2.44.14,4.29.88a10.13,10.13,0,0,0,3.68.79c-1.06,1-2.81.72-4.47,1.16a4.2,4.2,0,0,0-2.34,1.52,11.59,11.59,0,0,1,2.21-.49c2.56-.28,3.29.86,7.86-.31-1.45.29-.87,2.39-3.11,2.53-1.86.12-1.7.56-2.73.95a7.11,7.11,0,0,1-1.42.35h0a6.61,6.61,0,0,1,1.78.16c1.44.29,2.65.74,3.53-.45a4.47,4.47,0,0,1,4.71-1.81l.39.1a4.87,4.87,0,0,0,3.73-.27,5.7,5.7,0,0,0,1.93-2c.21-.33.41-.69.6-1.07s.4-.8.61-1.24l0-.1a4.18,4.18,0,0,1,3.76-2.73,6.18,6.18,0,0,1,2.14.36,10.2,10.2,0,0,1,1.5.64,14.74,14.74,0,0,1,1.44.86,4.28,4.28,0,0,0,.71.38,4,4,0,0,0,.52.19,3.79,3.79,0,0,0,.88.14A3,3,0,0,0,153.76,38a3.57,3.57,0,0,0,.07-.42c0-.13,0-.24.05-.35h0a7,7,0,0,1,.24-1.09h0a5.21,5.21,0,0,1,.26-.66c.67-1.39,1.65-1.74,1.86-2.46a1,1,0,0,0,0-.25,1.66,1.66,0,0,0-.14-.66,2.9,2.9,0,0,0-.45-.76,1.8,1.8,0,0,0-1.27-.7,3.86,3.86,0,0,0-1.9.45c-.35-.73-1.3-.7-2.68,0a4.83,4.83,0,0,0-3.8-1.32h0a2.69,2.69,0,0,0-2,1.54c-.48-1.69,1.18-2.36,2-1.57-.48-1.86-1.84-3.29-3.54-2.82a1.48,1.48,0,0,0-.87.68,5.18,5.18,0,0,0-6.28-.82c-.1.06-.19.1-.29.16a5.41,5.41,0,0,0-3.79-.06h0a9.17,9.17,0,0,1-2,.33,12.3,12.3,0,0,1-2-.06,19.4,19.4,0,0,0-2.76-.21,4.89,4.89,0,0,0-2.15.57,6.52,6.52,0,0,0-1,.67l-.19.16a10.25,10.25,0,0,0-1,.92l-.31,0a2.17,2.17,0,0,0-1.39.68c-.53.61-.43,1.44.9,1.71a2.77,2.77,0,0,1,1.34.56,16.55,16.55,0,0,0-3.77.54l-.75.23a6.57,6.57,0,0,0-1.64.82,2,2,0,0,0-.88,1.17c-.13.72.47,1.49,2,2.18a12.45,12.45,0,0,0,1.25.47,1.72,1.72,0,0,0-1.13.91,19.12,19.12,0,0,1-3.48,4.13c-1.37,1.37-3.51.75-5.8,1.09a7.49,7.49,0,0,0-1.15.26c-1.67.53-3.36,1.79-4.85,4.88a8.06,8.06,0,0,1,4.34-2.35,12.5,12.5,0,0,1,2.05-.22C107.57,46.27,108.23,46.28,108.95,46.32Zm29.32-14.26a2.61,2.61,0,0,1,3.35,0h0l.11.1.1.09a3.3,3.3,0,0,1,.43.5l.07.11a3.88,3.88,0,0,1,.36.68l-.39.15-.15.08-.27.14-.16.1-.28.17-.15.1a10.18,10.18,0,0,0-1.89,1.68A2.29,2.29,0,0,1,138.27,32.06Zm-.94,7.31c0,1.88-1.52,3.62-4.34,3.62a4.21,4.21,0,0,1-4.42-3.84c0-1.66.87-3.4,4.27-3.4C135.59,35.75,137.33,37.49,137.33,39.37Z"/><path class="bt_cls-3" d="M128.57,39.15A4.21,4.21,0,0,0,133,43c2.82,0,4.34-1.74,4.34-3.62s-1.74-3.62-4.49-3.62C129.44,35.75,128.57,37.49,128.57,39.15Z"/><path class="bt_cls-3" d="M142.29,32.72l.07.11Z"/><path class="bt_cls-3" d="M142.72,33.5l-.39.15Z"/><path class="bt_cls-3" d="M141.76,32.13l.1.09Z"/><path class="bt_cls-3" d="M141.75,34l-.28.17Z"/><path class="bt_cls-3" d="M139.43,35.93a10.18,10.18,0,0,1,1.89-1.68l-.19.13c-1.06-1,0-2.54.49-2.35a2.61,2.61,0,0,0-3.35,0A2.29,2.29,0,0,0,139.43,35.93Z"/><path class="bt_cls-3" d="M142.18,33.74l-.27.14Z"/><path class="bt_cls-4" d="M144,31.28a2.69,2.69,0,0,1,2-1.54h0l0,0C145.19,28.92,143.53,29.59,144,31.28Z"/><path class="bt_cls-4" d="M141.13,34.38l.19-.13.15-.1.28-.17.16-.1.27-.14.15-.08.39-.15a3.88,3.88,0,0,0-.36-.68l-.07-.11a3.3,3.3,0,0,0-.43-.5l-.1-.09-.11-.1h0C141.18,31.84,140.08,33.37,141.13,34.38Z"/></g></g></svg>
