<svg xmlns="http://www.w3.org/2000/svg" viewBox="0 0 200 134"><defs><style>.by_cls-1{fill:#cb2026;}.by_cls-2{fill:#119a48;}.by_cls-3{fill:#fff;}.by_cls-4{fill:none;stroke:#cb2026;stroke-linecap:round;stroke-linejoin:round;stroke-width:0;}</style></defs><title>Asset 21</title><g id="Layer_2" data-name="Layer 2"><g id="Layer_80" data-name="Layer 80"><path class="by_cls-1" d="M183,0H28.75V89.54H200V17A17,17,0,0,0,183,0Z"/><path class="by_cls-2" d="M28.75,134H183a17,17,0,0,0,17-17V89.54H28.75Z"/><path class="by_cls-3" d="M28.75,0H19.84V2.5h1.33V5.62h1.33V8.73h1.33v3.12h1.33V15H23.82v3.12H22.49V21.2H21.17v3.12H19.84v3.12H18.51V24.31H17.19V21.2H15.86V18.08H14.54V15H13.21v3.12H11.88V21.2H10.56v3.12H9.23v3.12H7.91V24.31H6.58V21.2H5.26V18.08H3.93V15H2.6V11.85H3.93V8.73H5.26V5.62H6.58v-2A17,17,0,0,0,0,17V117a17,17,0,0,0,6.58,13.41v-2H5.26v-3.12H3.93v-3.12H2.6V119H3.93v-3.11H5.26V112.8H6.58v-3.12H7.91v-3.12H9.23v3.12h1.33v3.12h1.32v3.12h1.33V119h1.33v-3.11h1.33V112.8h1.33v-3.12h1.33v-3.12h1.33v3.12h1.33v3.12h1.33v3.12h1.33V119h1.33v3.12H23.82v3.12H22.49v3.12H21.17v3.12H19.84V134h8.91V0ZM25.14,5.62H23.82V1.88h1.33Zm0,126.5H23.82v-3.74h1.33Zm0-49.85H23.82V79.77h1.33Zm0-28H23.82V51.73h1.33ZM23.82,39.89V36.15h1.33v3.74Zm0-19.94h1.33v3.74H23.82Zm-3.33,8.71h.66V26.79h.66V24.92h2v1.87h.66v1.87h.66v2.49h-.66V33H23.8v1.87h-2V33h-.66V31.15h-.66Zm-7.27-8.71h1.33v3.74H13.21ZM9.9,28.67h.66V26.8h.66V24.93h2V26.8h1.33V24.94h2V26.8h.66v1.87h.66v2.49h-.66V33h-.66v1.87h-2V33H13.21v1.87h-2V33h-.66V31.17H9.9Zm4.64,7.48v3.74H13.21V36.15ZM2.61,19.95H3.93v3.74H2.61Zm0,8.73h.66V26.8h.66V24.93h2V26.8h.66v1.87h.66v2.49H6.58V33H5.92v1.87h-2V33H3.27V31.17H2.61Zm0,7.48H3.93v3.74H2.61Zm1.32,58v3.74H2.61V94.11Zm0,19.94H2.61v-3.74H3.93Zm3.31-8.72H6.58v1.87H5.92v1.87h-2v-1.87H3.27v-1.87H2.6v-2.49h.66V101h.66V99.09h2V101h.66v1.87h.66ZM14.54,114H13.21v-3.74h1.33Zm3.31-8.72h-.66v1.87h-.66v1.87h-2v-1.87H13.21v1.87h-2v-1.87h-.66v-1.87H9.9v-2.49h.66V101h.66V99.09h2V101h1.33V99.09h2V101h.66v1.87h.66Zm-4.64-7.48V94.11h1.33v3.74Zm6.63.62v3.12H18.51V98.47H17.19V95.35H15.86V92.24H14.54V89.12H13.21v3.12H11.89v3.12H10.56v3.12H9.24v3.12H7.91V98.47H6.58V95.35H5.26V92.24H3.93V89.12H2.6V86H3.93V82.89H5.26V79.77H6.58V76.66H7.91v3.12H9.23v3.12h1.33V86H9.23v3.74h1.33V87.25h1.33v-5h.66V79.18l-2,0V76.66H9.23V74.79H7.91V71.67H6.58v3.12H5.26v1.87H3.93v1.87H2.6V72.92H3.93V70.43H5.26V68.25H6.58V65.75H5.26V63.57H3.93V61.08H2.6V55.47H3.93v1.87H5.26v1.87H6.58v3.12H7.91V59.21H9.23V57.34h1.33V54.85l2,0V51.73h-.66v-5H10.56V44.25H9.23V48h1.33v3.12H9.23v3.12H7.91v3.12H6.58V54.22H5.26V51.11H3.93V48H2.6V44.88H3.93V41.76H5.26V38.64H6.58V35.53H7.91V32.41H9.23v3.12h1.33v3.12h1.33v3.12h1.33v3.12h1.33V41.76h1.33V38.64h1.33V35.53h1.33V32.41h1.33v3.12h1.33v3.12h1.33v3.12h1.33v3.12h1.33V48H23.82v3.12H22.49v3.12H21.17v3.12H19.84V54.23H18.51V51.11H17.19V48h1.33V44.25H17.19v2.49H15.86v5H15.2v3.12h2v2.49h1.33v1.87h1.33v3.12h1.33V59.21h1.33V57.34h1.33V55.47h1.33v5.61H23.82v2.49H22.49v2.18H21.17v2.49h1.33v2.18h1.33v2.49h1.33v5.61H23.82V76.66H22.49V74.79H21.17V71.67H19.84v3.12H18.51v1.87H17.19v2.49h-2v3.12h.66v5h1.33v2.49h1.33V86H17.19V82.89h1.33V79.77h1.33V76.66h1.33v3.12h1.33v3.12h1.33V86h1.33v3.12H23.82v3.12H22.49v3.12H21.17v3.12ZM2.61,82.27V79.77H3.93v2.49Zm0-13.4V65.13H3.93v3.74Zm0-14.64V51.73H3.93v2.49ZM25.14,65.13v3.74H23.82V65.13ZM23.8,107.21v1.87h-2v-1.87h-.66v-1.87h-.66v-2.49h.66V101h.66V99.11h2V101h.66v1.87h.66v2.49h-.66v1.87ZM25.14,114H23.82v-3.74h1.33Zm0-16.2H23.82V94.11h1.33Z"/><path class="by_cls-3" d="M10.56,2.5V5.62h1.33V8.73h1.33v3.12h1.33V8.73h1.33V5.62h1.33V2.5h1.33V0H17A16.91,16.91,0,0,0,9.24,1.89V2.5Zm2.65-.62h1.33V5.62H13.21Z"/><polygon class="by_cls-3" points="4.59 31.79 5.26 31.79 5.26 30.54 5.92 30.54 5.92 29.3 5.26 29.3 5.26 28.05 4.59 28.05 4.59 29.3 3.93 29.3 3.93 30.54 4.59 30.54 4.59 31.79"/><path class="by_cls-3" d="M6.58,11.85H5.26V15H6.58v3.12H7.91V21.2H9.23V18.08h1.33V15h1.33V11.85H10.56V8.73H9.23V5.62H7.91V8.73H6.58Zm1.33,0H9.24V15H7.91Z"/><polygon class="by_cls-3" points="22.48 31.78 23.14 31.78 23.14 30.53 23.8 30.53 23.8 29.28 23.14 29.28 23.14 28.04 22.48 28.04 22.48 29.28 21.81 29.28 21.81 30.53 22.48 30.53 22.48 31.78"/><polygon class="by_cls-3" points="15.2 31.79 15.86 31.79 15.86 30.54 16.52 30.54 16.52 29.3 15.86 29.3 15.86 28.05 15.2 28.05 15.2 29.3 14.54 29.3 14.54 30.54 15.2 30.54 15.2 31.79"/><polygon class="by_cls-3" points="11.89 31.79 12.55 31.79 12.55 30.54 13.21 30.54 13.21 29.3 12.55 29.3 12.55 28.05 11.89 28.05 11.89 29.3 11.22 29.3 11.22 30.54 11.89 30.54 11.89 31.79"/><path class="by_cls-3" d="M17.19,18.08h1.33V21.2h1.33V18.08h1.33V15h1.33V11.85H21.17V8.73H19.84V5.62H18.51V8.73H17.19v3.12H15.86V15h1.33Zm1.33-6.23h1.33V15H18.51Z"/><path class="by_cls-3" d="M14.54,75.88h.66v-3h2v-2.5h1.33V68.25h1.33V65.75H18.51V63.57H17.19V61.08h-2v-3h-.66v-1.4H13.21v1.43h-.66v2.93h-2v2.49H9.24v2.18H7.91v2.49H9.23v2.18h1.33v2.49h2v2.93h.66v1.43h1.33Zm3.31-10.75v3.74H16.53V65.13Zm-4.64-4.67h1.33v3.12H13.21ZM9.9,68.87V65.13h1.33v3.74ZM12.55,71H11.22V69.18h.66v-.93h.66V65.75h-.66v-.93h-.66V62.95h1.33V64.2h.66v.93h1.33V64.2h.66V62.95h1.33v1.87h-.66v.93H15.2v2.49h.66v.93h.66V71H15.2V69.8h-.66v-.93H13.21v.93h-.66Zm.66,2.5V70.43h1.33v3.12Z"/><polygon class="by_cls-3" points="12.55 102.21 11.89 102.21 11.89 103.45 11.22 103.45 11.22 104.7 11.89 104.7 11.89 105.95 12.55 105.95 12.55 104.7 13.21 104.7 13.21 103.45 12.55 103.45 12.55 102.21"/><polygon class="by_cls-3" points="15.86 102.21 15.2 102.21 15.2 103.45 14.54 103.45 14.54 104.7 15.2 104.7 15.2 105.95 15.86 105.95 15.86 104.7 16.52 104.7 16.52 103.45 15.86 103.45 15.86 102.21"/><path class="by_cls-3" d="M17.19,131.5v-3.12H15.86v-3.12H14.54v-3.12H13.21v3.12H11.89v3.12H10.56v3.12H9.24v.61A16.91,16.91,0,0,0,17,134h1.51v-2.5Zm-2.65.62H13.21v-3.74h1.33Z"/><path class="by_cls-3" d="M21.17,122.15h1.33V119H21.17v-3.12H19.84V112.8H18.51v3.12H17.19V119H15.86v3.12h1.33v3.12h1.33v3.12h1.33v-3.12h1.33Zm-1.33,0H18.51V119h1.33Z"/><polygon class="by_cls-3" points="5.26 102.21 4.59 102.21 4.59 103.45 3.93 103.45 3.93 104.7 4.59 104.7 4.59 105.95 5.26 105.95 5.26 104.7 5.92 104.7 5.92 103.45 5.26 103.45 5.26 102.21"/><polygon class="by_cls-3" points="23.14 102.22 22.48 102.22 22.48 103.47 21.81 103.47 21.81 104.72 22.48 104.72 22.48 105.96 23.14 105.96 23.14 104.72 23.8 104.72 23.8 103.47 23.14 103.47 23.14 102.22"/><path class="by_cls-3" d="M10.56,115.92H9.23V112.8H7.91v3.12H6.58V119H5.26v3.12H6.58v3.12H7.91v3.12H9.23v-3.12h1.33v-3.12h1.33V119H10.56Zm-1.33,6.23H7.91V119H9.23Z"/><line class="by_cls-4" x1="7.91" y1="101.58" x2="7.91" y2="101.58"/><rect class="by_cls-1" x="2.61" y="36.15" width="1.32" height="3.74"/><rect class="by_cls-1" x="2.61" y="19.95" width="1.32" height="3.74"/><rect class="by_cls-1" x="13.21" y="60.46" width="1.33" height="3.12"/><rect class="by_cls-1" x="13.21" y="36.15" width="1.33" height="3.74"/><path class="by_cls-1" d="M3.27,33h.66v1.87h2V33h.66V31.17h.66V28.67H6.58V26.8H5.92V24.94h-2V26.8H3.27v1.87H2.61v2.49h.66Zm.66-3.74h.66V28h.66V29.3h.66v1.25H5.26v1.25H4.59V30.54H3.93Z"/><polygon class="by_cls-1" points="16.52 66.98 16.52 67.02 16.52 68.87 17.85 68.87 17.85 67.02 17.85 66.98 17.85 65.13 16.52 65.13 16.52 66.98"/><polygon class="by_cls-1" points="11.22 67.02 11.22 66.98 11.22 65.13 9.9 65.13 9.9 66.98 9.9 67.02 9.9 68.87 11.22 68.87 11.22 67.02"/><polygon class="by_cls-1" points="13.21 68.87 14.54 68.87 14.54 69.8 15.2 69.8 15.2 71.05 16.52 71.05 16.52 69.18 15.86 69.18 15.86 68.25 15.2 68.25 15.2 67.02 15.2 66.98 15.2 65.75 15.86 65.75 15.86 64.82 16.52 64.82 16.52 62.95 15.2 62.95 15.2 64.19 14.54 64.19 14.54 65.13 13.21 65.13 13.21 64.19 12.55 64.19 12.55 62.95 11.22 62.95 11.22 64.82 11.89 64.82 11.89 65.75 12.55 65.75 12.55 66.98 12.55 67.02 12.55 68.25 11.89 68.25 11.89 69.18 11.22 69.18 11.22 71.05 12.55 71.05 12.55 69.8 13.21 69.8 13.21 68.87"/><rect class="by_cls-1" x="13.21" y="70.43" width="1.33" height="3.12"/><path class="by_cls-1" d="M10.56,33h.66v1.87h2V33h1.33v1.87h2V33h.66V31.17h.66V28.67h-.66V26.8h-.66V24.94h-2V26.8H13.21V24.94h-2V26.8h-.66v1.87H9.9v2.49h.66Zm4-3.74h.66V28h.66V29.3h.66v1.25h-.66v1.25H15.2V30.54h-.66Zm-3.31,0h.66V28h.66V29.3h.66v1.25h-.66v1.25h-.66V30.54h-.66Z"/><rect class="by_cls-1" x="13.21" y="1.88" width="1.33" height="3.74"/><path class="by_cls-1" d="M5.26,5.62V8.73H3.93v3.12H2.6V15H3.93v3.12H5.26V21.2H6.58v3.12H7.91v3.12H9.23V24.31h1.33V21.2h1.33V18.08h1.33V15h1.33v3.12h1.33V21.2h1.33v3.12h1.33v3.12h1.33V24.31h1.33V21.2h1.33V18.08h1.33V15h1.33V11.85H23.82V8.73H22.49V5.62H21.17V2.5H19.84V0H18.51V2.5H17.19V5.62H15.86V8.73H14.54v3.12H13.21V8.73H11.89V5.62H10.56V2.5H9.24V1.89a17,17,0,0,0-2.65,1.7v2Zm10.61,6.23h1.33V8.73h1.33V5.62h1.33V8.73h1.33v3.12h1.33V15H21.17v3.12H19.84V21.2H18.51V18.08H17.19V15H15.86Zm-8-6.23H9.23V8.73h1.33v3.12h1.33V15H10.56v3.12H9.23V21.2H7.91V18.08H6.58V15H5.26V11.85H6.58V8.73H7.91Z"/><rect class="by_cls-1" x="7.91" y="11.85" width="1.33" height="3.12"/><rect class="by_cls-1" x="2.61" y="79.77" width="1.32" height="2.49"/><rect class="by_cls-1" x="18.51" y="11.85" width="1.33" height="3.12"/><polygon class="by_cls-1" points="3.93 67.01 3.93 66.99 3.93 65.13 2.61 65.13 2.61 66.99 2.61 67.01 2.61 68.87 3.93 68.87 3.93 67.01"/><polygon class="by_cls-1" points="23.82 66.98 23.82 67.02 23.82 68.87 25.14 68.87 25.14 67.02 25.14 66.98 25.14 65.13 23.82 65.13 23.82 66.98"/><rect class="by_cls-1" x="2.61" y="51.73" width="1.32" height="2.49"/><rect class="by_cls-1" x="23.82" y="19.95" width="1.33" height="3.74"/><rect class="by_cls-1" x="13.21" y="19.95" width="1.33" height="3.74"/><rect class="by_cls-1" x="23.82" y="1.88" width="1.33" height="3.74"/><path class="by_cls-1" d="M21.15,33h.66v1.87h2V33h.66V31.15h.66V28.66h-.66V26.79H23.8V24.92h-2v1.87h-.66v1.87h-.66v2.49h.66Zm.66-3.74h.66V28h.66v1.25h.66v1.25h-.66v1.25h-.66V30.53h-.66Z"/><rect class="by_cls-1" x="23.82" y="36.15" width="1.33" height="3.74"/><rect class="by_cls-1" x="23.82" y="51.73" width="1.33" height="2.49"/><rect class="by_cls-1" x="23.82" y="79.77" width="1.33" height="2.49"/><path class="by_cls-1" d="M17.19,101h-.66V99.09h-2V101H13.21V99.09h-2V101h-.66v1.87H9.9v2.49h.66v1.87h.66v1.87h2v-1.87h1.33v1.87h2v-1.87h.66v-1.87h.66v-2.49h-.66Zm-4,3.74h-.66v1.25h-.66V104.7h-.66v-1.25h.66v-1.25h.66v1.25h.66Zm3.31,0h-.66v1.25H15.2V104.7h-.66v-1.25h.66v-1.25h.66v1.25h.66Z"/><rect class="by_cls-1" x="2.61" y="94.11" width="1.32" height="3.74"/><rect class="by_cls-1" x="23.82" y="94.11" width="1.33" height="3.74"/><path class="by_cls-1" d="M21.17,131.5v-3.12h1.33v-3.12h1.33v-3.12h1.33V119H23.82v-3.11H22.49V112.8H21.17v-3.12H19.84v-3.12H18.51v3.12H17.19v3.12H15.86v3.12H14.54V119H13.21v-3.11H11.88V112.8H10.56v-3.12H9.23v-3.12H7.91v3.12H6.58v3.12H5.26v3.12H3.93V119H2.6v3.12H3.93v3.12H5.26v3.12H6.58v2a17.07,17.07,0,0,0,2.65,1.7v-.61h1.33v-3.12h1.33v-3.12h1.33v-3.12h1.33v3.12h1.33v3.12h1.33v3.12h1.33V134h1.33v-2.5Zm-9.28-9.35H10.56v3.12H9.23v3.12H7.91v-3.12H6.58v-3.12H5.26V119H6.58v-3.12H7.91V112.8H9.23v3.12h1.33V119h1.33Zm8,6.23H18.51v-3.12H17.19v-3.12H15.86V119h1.33v-3.12h1.33V112.8h1.33v3.12h1.33V119h1.33v3.12H21.17v3.12H19.84Z"/><rect class="by_cls-1" x="2.61" y="110.31" width="1.32" height="3.74"/><rect class="by_cls-1" x="13.21" y="94.11" width="1.33" height="3.74"/><rect class="by_cls-1" x="13.21" y="110.31" width="1.33" height="3.74"/><path class="by_cls-1" d="M6.58,101H5.92V99.09h-2V101H3.27v1.87H2.6v2.49h.66v1.87h.66v1.87h2v-1.87h.66v-1.87h.66v-2.49H6.58Zm-.66,3.74H5.26v1.25H4.59V104.7H3.93v-1.25h.66v-1.25h.66v1.25h.66Z"/><rect class="by_cls-1" x="23.82" y="128.38" width="1.33" height="3.74"/><path class="by_cls-1" d="M24.46,105.34h.66v-2.49h-.66V101H23.8V99.11h-2V101h-.66v1.87h-.66v2.49h.66v1.87h.66v1.87h2v-1.87h.66Zm-.66-.62h-.66V106h-.66v-1.25h-.66v-1.25h.66v-1.25h.66v1.25h.66Z"/><path class="by_cls-1" d="M21.17,95.35h1.33V92.24h1.33V89.12h1.33V86H23.82V82.89H22.49V79.77H21.17V76.66H19.84v3.12H18.51v3.12H17.19V86h1.33v3.74H17.19V87.25H15.86v-5H15.2V79.15h2V76.66h1.33V74.79h1.33V71.67h1.33v3.12h1.33v1.87h1.33v1.87h1.33V72.92H23.82V70.43H22.49V68.25H21.17V65.75h1.33V63.57h1.33V61.08h1.33V55.47H23.82v1.87H22.49v1.87H21.17v3.12H19.84V59.21H18.51V57.34H17.19V54.85h-2V51.73h.66v-5h1.33V44.25h1.33V48H17.19v3.12h1.33v3.12h1.33v3.12h1.33V54.23h1.33V51.11h1.33V48h1.33V44.88H23.82V41.76H22.49V38.64H21.17V35.53H19.84V32.41H18.51v3.12H17.19v3.12H15.86v3.12H14.54v3.12H13.21V41.76H11.88V38.64H10.56V35.53H9.23V32.41H7.91v3.12H6.58v3.12H5.26v3.12H3.93v3.12H2.6V48H3.93v3.12H5.26v3.12H6.58v3.12H7.91V54.22H9.23V51.11h1.33V48H9.23V44.25h1.33v2.49h1.33v5h.66v3.09l-2,0v2.49H9.23v1.87H7.91v3.12H6.58V59.21H5.26V57.34H3.93V55.47H2.6v5.61H3.93v2.49H5.26v2.18H6.58v2.49H5.26v2.18H3.93v2.49H2.6v5.61H3.93V76.66H5.26V74.79H6.58V71.67H7.91v3.12H9.23v1.87h1.33v2.49l2,0v3.09h-.66v5H10.56v2.49H9.23V86h1.33V82.89H9.23V79.77H7.91V76.66H6.58v3.12H5.26v3.12H3.93V86H2.6v3.12H3.93v3.12H5.26v3.12H6.58v3.12H7.91v3.11H9.24V98.47h1.33V95.35h1.33V92.24h1.33V89.12h1.33v3.12h1.33v3.12h1.33v3.12h1.33v3.12h1.32V98.47h1.33ZM13.87,77.28h-.66V75.85h-.66V72.92h-2V70.43H9.23V68.25H7.91V65.75H9.24V63.57h1.32V61.08h2V58.15h.66V56.72h1.33v1.4h.66v3h2v2.49h1.33v2.18h1.33v2.49H18.51v2.18H17.19v2.5h-2v3h-.66v1.4Z"/><rect class="by_cls-1" x="23.82" y="110.31" width="1.33" height="3.74"/><rect class="by_cls-1" x="13.21" y="128.38" width="1.33" height="3.74"/><rect class="by_cls-1" x="18.51" y="119.03" width="1.33" height="3.12"/><rect class="by_cls-1" x="7.91" y="119.03" width="1.33" height="3.12"/></g></g></svg>
