<svg xmlns="http://www.w3.org/2000/svg" viewBox="0 0 200 134"><defs><style>.ca_cls-1{fill:#ed2224}.ca_cls-2{fill:#fafafa}</style></defs><title>Asset 32</title><g id="Layer_2" data-name="Layer 2"><g id="Layer_69" data-name="Layer 69"><path class="ca_cls-1" d="M183 0h-32.44v134H183a17 17 0 0 0 17-17V17a17 17 0 0 0-17-17zM17 0A17 17 0 0 0 0 17v100a17 17 0 0 0 17 17h32.44V0z"/><path class="ca_cls-2" d="M49.44 0v134h101.12V0zm52.86 88.62c-.56 0-1.4.53-1.39 1.2l.48 20h-3l.83-20c0-.67-.92-1.17-1.48-1.16l-18.21 2.15 1.59-5.47a2.56 2.56 0 0 0-.83-2.59L62.08 67.28l3.77-1.85c1.66-.62 1.2-1.59.6-3.94l-2.78-10.57 10.58 2.33a1.62 1.62 0 0 0 1.88-1.18l1.36-5 8.37 9.79c1.19 1.57 3.6 1.57 2.85-2.06L85.13 35l4.8 2.6c1.35.78 2.69.91 3.44-.49L100 24.18l6.63 12.91s2.1 1.27 3.44.49l4.79-2.6-3.57 19.84c-.75 3.62 1.66 3.62 2.85 2.06l8.37-9.79 1.36 5a1.62 1.62 0 0 0 1.88 1.18l10.58-2.33-2.78 10.56c-.59 2.35-1.06 3.32.6 3.94l3.77 1.85-18.22 15.46a2.56 2.56 0 0 0-.83 2.59l1.6 5.47z"/><path class="ca_cls-1" d="M119.7 82.75l18.22-15.47-3.77-1.85c-1.66-.62-1.19-1.59-.6-3.94l2.78-10.56-10.58 2.33a1.62 1.62 0 0 1-1.88-1.18l-1.36-5-8.37 9.79c-1.19 1.57-3.6 1.57-2.85-2.06L114.86 35l-4.79 2.6c-1.35.78-3.44-.49-3.44-.49L100 24.18 93.37 37.1c-.75 1.4-2.1 1.27-3.44.49L85.13 35l3.57 19.84c.75 3.62-1.66 3.62-2.85 2.06l-8.37-9.79-1.36 5a1.62 1.62 0 0 1-1.88 1.18l-10.57-2.37 2.78 10.56c.6 2.35 1.06 3.32-.6 3.94l-3.77 1.85 18.21 15.48a2.56 2.56 0 0 1 .83 2.59l-1.59 5.47 18.17-2.19c.56 0 1.48.49 1.48 1.16l-.83 20h3l-.48-20c0-.67.83-1.21 1.39-1.2l18.17 2.19-1.6-5.47a2.56 2.56 0 0 1 .87-2.55z"/></g></g></svg>
