<svg xmlns="http://www.w3.org/2000/svg" viewBox="0 0 200 134"><defs><style>.cl_cls-1{fill:#fafafa;}.cl_cls-2{fill:#23449c;}.cl_cls-3{fill:#d3362a;}.cl_cls-4{fill:#fff;}</style></defs><title>Asset 37</title><g id="Layer_2" data-name="Layer 2"><g id="Layer_64" data-name="Layer 64"><path class="cl_cls-1" d="M183,0H66.31V67H200V17A17,17,0,0,0,183,0Z"/><path class="cl_cls-2" d="M66.31,0H17A17,17,0,0,0,0,17V67H66.31ZM22.71,46.94,26.5,35.3l-9.9-7.19H28.83l3.78-11.64L36.4,28.1H48.64l-9.9,7.19,3.78,11.64-9.9-7.19Z"/><path class="cl_cls-3" d="M0,67v50a17,17,0,0,0,17,17H183a17,17,0,0,0,17-17V67H0Z"/><polygon class="cl_cls-4" points="48.64 28.1 36.4 28.1 32.62 16.46 28.83 28.1 16.59 28.1 26.5 35.3 22.71 46.94 32.62 39.74 42.52 46.94 38.74 35.3 48.64 28.1"/></g></g></svg>
