<svg xmlns="http://www.w3.org/2000/svg" viewBox="0 0 200 134"><defs><style>.cm_cls-1{fill:#197b63;}.cm_cls-2{fill:#ce2931;}.cm_cls-3{fill:#fbd632;}</style></defs><title>Asset 31</title><g id="Layer_2" data-name="Layer 2"><g id="Layer_70" data-name="Layer 70"><path class="cm_cls-1" d="M17,0A17,17,0,0,0,0,17V117a17,17,0,0,0,17,17H66.1V0Z"/><path class="cm_cls-2" d="M66.1,0V134h67.81V0ZM89.37,81.63l4.06-12.49L82.8,61.41H95.94L100,48.92l4.06,12.49H117.2l-10.63,7.72,4.06,12.5L100,73.91Z"/><path class="cm_cls-3" d="M183,0H133.91V134H183a17,17,0,0,0,17-17V17A17,17,0,0,0,183,0Z"/><polygon class="cm_cls-3" points="117.2 61.41 104.06 61.41 100 48.92 95.94 61.41 82.8 61.41 93.43 69.14 89.37 81.63 100 73.91 110.63 81.63 106.57 69.13 117.2 61.41"/></g></g></svg>
