<svg xmlns="http://www.w3.org/2000/svg" viewBox="0 0 200 134"><defs><style>.cu_cls-1{fill:#273986;}.cu_cls-2{fill:#fff;}.cu_cls-3{fill:#d02a36;}</style></defs><title>Asset 44</title><g id="Layer_2" data-name="Layer 2"><g id="Layer_57" data-name="Layer 57"><path class="cu_cls-1" d="M6.31,130.21A16.93,16.93,0,0,0,17,134H183a17,17,0,0,0,17-17v-8.19H43.37Z"/><path class="cu_cls-1" d="M183,0H17A16.93,16.93,0,0,0,6.31,3.79L41.18,23.92H200V17A17,17,0,0,0,183,0Z"/><polygon class="cu_cls-1" points="115.79 67 90.05 81.86 200 81.86 200 50.87 87.86 50.87 115.79 67"/><polygon class="cu_cls-2" points="87.86 50.87 200 50.87 200 23.92 41.18 23.92 87.86 50.87"/><polygon class="cu_cls-2" points="43.37 108.81 200 108.81 200 81.86 90.05 81.86 43.37 108.81"/><path class="cu_cls-3" d="M87.86,50.87l-46.68-27L6.31,3.79A17,17,0,0,0,0,17V117a17,17,0,0,0,6.31,13.21l37.06-21.4L90,81.86,115.79,67ZM49.92,83.34,38,74.72,26.17,83.34l4.54-14L25,65.23l-6.16-4.48H33.51L38,46.8l4.54,14H57.26l-6.84,5-5,3.66Z"/><polygon class="cu_cls-2" points="57.26 60.76 42.58 60.76 38.05 46.8 33.51 60.76 18.83 60.76 24.99 65.23 30.7 69.38 26.17 83.34 38.05 74.72 49.92 83.34 45.38 69.38 50.41 65.73 57.26 60.76"/></g></g></svg>
