<svg xmlns="http://www.w3.org/2000/svg" viewBox="0 0 200 134"><defs><style>.cy_cls-1{fill:#fafafa;}.cy_cls-2{fill:#ec8123;}.cy_cls-3{fill:#006752;}</style></defs><title>Asset 45</title><g id="Layer_2" data-name="Layer 2"><g id="Layer_56" data-name="Layer 56"><path class="cy_cls-1" d="M183,0H17A17,17,0,0,0,0,17V117a17,17,0,0,0,17,17H183a17,17,0,0,0,17-17V17A17,17,0,0,0,183,0ZM71.77,92.25c1.64-.52,6.25-.52,8.63,1.93C77.65,96.79,72.22,93.66,71.77,92.25Zm-1-7.37c2.08-.07,7.14,3.13,6.77,6C73.18,89.87,71,87.26,70.8,84.88Zm7.37-1.41c2,1.34,3.57,6.18,2.31,8.19C77.95,90.31,77.28,85.25,78.17,83.47Zm-2,13.62c2-2.08,4.17-1.34,7.51-.45C83,98.35,77.57,98.87,76.16,97.08Zm6.25-10.19c2.16,2.16,3.2,5.51,1.7,7.65C82.19,92.55,80.85,88.68,82.41,86.89ZM80.77,101.1c.6-1.49,4.46-4,7.66-2.31C88.51,99.17,84.34,102.59,80.77,101.1Zm5.51-11.53c2.08,1.56,4,5.54,2.38,7.81C86.28,95.82,85.46,91.8,86.28,89.57Zm-1,13.69a7.25,7.25,0,0,1,7.59-2C90.89,104.82,86.8,104,85.24,103.26Zm5-11.57c1.92,1.67,4.55,5.09,3,7.74C90.89,98.05,89.33,93.29,90.21,91.69Zm-.63,14.43a8.19,8.19,0,0,1,7.26-3.61C95.5,105.27,93.87,106.53,89.58,106.13ZM97.92,105a10.72,10.72,0,0,1,3.59-1.71c-2-.64-7.15-2.43-5.85-2.09s4.09,1.12,6.62,1.56l.84.16.84-.16c2.53-.45,5.21-1.19,6.62-1.56s-3.81,1.45-5.86,2.09A10.72,10.72,0,0,1,108.3,105s-3.18-.74-5.19-1.26C101.1,104.3,97.92,105,97.92,105ZM94.46,93.21c2.9,1.34,4.17,4.69,3.65,7.89C95.88,99.47,93.79,95.52,94.46,93.21Zm17.3,0c.67,2.31-1.41,6.25-3.65,7.89C107.6,97.9,108.86,94.55,111.76,93.21Zm-2.38,9.3a8.19,8.19,0,0,1,7.26,3.61C112.36,106.53,110.72,105.27,109.38,102.52ZM116,91.69c.88,1.6-.68,6.36-3,7.74C111.46,96.79,114.09,93.37,116,91.69Zm-2.62,9.56a7.25,7.25,0,0,1,7.59,2C119.43,104,115.33,104.82,113.4,101.25Zm6.55-11.68c.82,2.23,0,6.25-2.38,7.81C115.91,95.11,117.86,91.13,119.95,89.57Zm-2.16,9.23c3.2-1.71,7.07.82,7.66,2.31C121.88,102.59,117.71,99.17,117.79,98.8Zm6-11.91c1.56,1.79.22,5.66-1.7,7.65C120.62,92.4,121.66,89,123.81,86.89Zm-1.26,9.75c3.35-.89,5.51-1.64,7.51.45C128.65,98.87,123.22,98.35,122.55,96.64Zm5.51-13.17c.89,1.79.22,6.85-2.31,8.19C124.48,89.64,126,84.81,128.06,83.47Zm-2.23,10.71c2.38-2.46,7-2.46,8.63-1.93C134,93.66,128.58,96.79,125.82,94.18Zm2.83-3.27c-.37-2.9,4.69-6.1,6.77-6C135.2,87.26,133,89.87,128.65,90.91ZM155.1,23.74c-.43.32-.43,1.93-.86,2.36s-1.61.11-2.14.54-1.61,1-2.89,1.82-1.18,1.82-1.61,2.36-1.39.54-2.25,1.18a15.22,15.22,0,0,0-2.25,2.46c-1-.13-3.32,1.5-4,1.61s-1.39,1-3.32,2.68-1.29,2.89-2,3.43a2.58,2.58,0,0,1-1.93.43c-.75,0-.86-.43-2,.21s-1.45.8-1.39,1.93c-1.29.62-1.5,2.46-1.39,4.39s2.25,3.75,2.79,4.29.43,1,.75,1.61,1.5,1.18,2,1.71.11.54.43,1a8.14,8.14,0,0,0,1,1,1.84,1.84,0,0,1,.43,1.71c-.21.32.43.54.43.54s-.86,0-1.18-.54c-.91-.13-1-.11-1.39-.43s-1.39,0-2.25-.43c-.54.13-.43.43-1.29.54a4.17,4.17,0,0,1-1.18,0c-.54,0,.21.86-.43,1.29a1.44,1.44,0,0,1-1.39.32c-.54-.11-1.34-1.37-3-1.71-2.44-.05-3.8-.35-5.25,1-1.45,1-.91,3.91-1.07,5.36-.8.21-1.29,1.34-1.39,2-2.92-1-3.54,1.13-4.07,1.61-1.31.08-3.62,1-3.75,1.72a2.57,2.57,0,0,0-1.93,1,1.24,1.24,0,0,0-1.39.64,3.15,3.15,0,0,0-1.61-.21c-1.82.11.54.54-2.68,1.07-3.32-1.15-5.28.11-5.79.54s-.64-.54-2.79,1.82.16,4,.32,4.61c-2.38-.4-2.36,0-2.68-.21a2.46,2.46,0,0,0-1.18-.11,5.89,5.89,0,0,0,.11-1.29c0-.86-1.71-2.89-2.46-3.32a2.71,2.71,0,0,0-1.71-.21,4.34,4.34,0,0,1-1.07.21c-.43,0-.54-.21-1-.21s-.86.64-1.5.86a2.72,2.72,0,0,1-1.39,0,3.14,3.14,0,0,1-.86.43,6.12,6.12,0,0,1-1.5-.54c-.11-.11-1.93-.64-2.36-.86s-.75-1-1.39-1.29-1,0-1.71-.22-.11-.32-.54-.43-.43.21-1.29-.11-.75-1.07-1.39-1.39-1.42-.83-1.93-1.07c-.05-1.58-.43-1.29-.54-1.93A9.34,9.34,0,0,0,64.46,67c-.32-.64-1.93-.86-1.93-1.5a1.63,1.63,0,0,0-.75-1.39c-.32-.11.43-.53.32-1.07s-.75-1.07-.54-1.61.21-2.46-.21-2.79a5.67,5.67,0,0,1-1.29-2.36c0-.43.32-1.93.64-1.93s.54.86.54.86a3,3,0,0,0,1,.75c.75.43.83,1.23,1.61,1.29a5.35,5.35,0,0,0,1.61.11c1.15-.08,2.89-1.82,3.54-2s1.18-2.25,1.39-2.79A7,7,0,0,1,71.64,51c.21-.21.29-.05.64,0a7.82,7.82,0,0,1,3.32-1.18,5.91,5.91,0,0,1,2.79.54c2,.64,4.23,2.2,4.93,2a6,6,0,0,0,3.32-2.68c.88-1.61.75-7.5.64-7.82A4.65,4.65,0,0,1,87,39.6a30.08,30.08,0,0,0,4.18,1.5c.64,0,1,.43,1.93.53a12.48,12.48,0,0,0,2.36-.32c.64,0,.75.43,1.5.43s.75-.43,1.39-.43.54.32,1.39.75,2.09-.35,3.86.21,1.77-.08,2.68.21c1.18.54,2-.05,2.46,0a7.73,7.73,0,0,0,3.21-.32c1.07.21,2.79-.86,3.11-.86a12.27,12.27,0,0,0,2.14,0c1.39-.11,3.11-2.36,4.29-2.68s-.54.54,3.21,0,9.21-4.07,9.86-4.39,1.39-.21,2-.86,2-2.46,2-2.46a7.91,7.91,0,0,0,2.14-.11c.54-.21,1.07-.54,1.71-.86s1-.22,1.61-.64a15.17,15.17,0,0,0,1.82-1.93c.43-.43,1.5-.32,2.14-.54s0-1,1.18-.86a8,8,0,0,0,3.54-1.07C153.71,24.49,155.53,23.42,155.1,23.74Z"/><path class="cy_cls-2" d="M149.21,26c-1.18-.11-.54.64-1.18.86s-1.71.11-2.14.54a15.17,15.17,0,0,1-1.82,1.93c-.64.43-1,.32-1.61.64s-1.18.64-1.71.86a7.91,7.91,0,0,1-2.14.11s-1.39,1.82-2,2.46-1.39.54-2,.86-6.11,3.86-9.86,4.39-2-.32-3.21,0-2.89,2.57-4.29,2.68a12.27,12.27,0,0,1-2.14,0c-.32,0-2,1.07-3.11.86a7.73,7.73,0,0,1-3.21.32c-.45-.05-1.29.54-2.46,0-.91-.29-.91.35-2.68-.21s-3,.21-3.86-.21-.75-.75-1.39-.75-.64.43-1.39.43-.86-.43-1.5-.43a12.48,12.48,0,0,1-2.36.32c-1-.11-1.29-.53-1.93-.53A30.08,30.08,0,0,1,87,39.6a4.65,4.65,0,0,0,.32,2.25c.11.32.24,6.21-.64,7.82a6,6,0,0,1-3.32,2.68c-.7.16-2.89-1.39-4.93-2a5.91,5.91,0,0,0-2.79-.54A7.82,7.82,0,0,0,72.28,51c-.35-.05-.43-.21-.64,0a7,7,0,0,0-1.29,1.61c-.21.54-.75,2.57-1.39,2.79s-2.38,2-3.54,2a5.35,5.35,0,0,1-1.61-.11C63,57.22,63,56.42,62.21,56a3,3,0,0,1-1-.75s-.21-.86-.54-.86-.64,1.5-.64,1.93a5.67,5.67,0,0,0,1.29,2.36c.43.32.43,2.25.21,2.79s.43,1.07.54,1.61-.64,1-.32,1.07a1.63,1.63,0,0,1,.75,1.39c0,.64,1.61.86,1.93,1.5A9.34,9.34,0,0,1,65,69.38c.11.64.48.35.54,1.93.51.24,1.29.75,1.93,1.07s.54,1.07,1.39,1.39.86,0,1.29.11-.21.21.54.43,1.07-.11,1.71.22,1,1.07,1.39,1.29,2.25.75,2.36.86a6.12,6.12,0,0,0,1.5.54,3.14,3.14,0,0,0,.86-.43,2.72,2.72,0,0,0,1.39,0c.64-.21,1.07-.86,1.5-.86s.54.21,1,.21a4.34,4.34,0,0,0,1.07-.21,2.71,2.71,0,0,1,1.71.21c.75.43,2.46,2.46,2.46,3.32a5.89,5.89,0,0,1-.11,1.29,2.46,2.46,0,0,1,1.18.11c.32.21.29-.19,2.68.21-.16-.59-2.46-2.25-.32-4.61s2.28-1.39,2.79-1.82,2.46-1.69,5.79-.54c3.21-.54.86-1,2.68-1.07a3.15,3.15,0,0,1,1.61.21,1.24,1.24,0,0,1,1.39-.64,2.57,2.57,0,0,1,1.93-1c.13-.72,2.44-1.63,3.75-1.72.54-.48,1.15-2.62,4.07-1.61.11-.7.59-1.82,1.39-2,.16-1.45-.37-4.37,1.07-5.36,1.45-1.31,2.81-1,5.25-1,1.66.35,2.46,1.61,3,1.71a1.44,1.44,0,0,0,1.39-.32c.64-.43-.11-1.29.43-1.29a4.17,4.17,0,0,0,1.18,0c.86-.11.75-.4,1.29-.54.86.43,1.82.11,2.25.43s.48.29,1.39.43c.32.54,1.18.54,1.18.54s-.64-.22-.43-.54a1.84,1.84,0,0,0-.43-1.71,8.14,8.14,0,0,1-1-1c-.32-.43.11-.43-.43-1s-1.71-1.07-2-1.71-.21-1.07-.75-1.61-2.68-2.36-2.79-4.29.11-3.78,1.39-4.39c-.05-1.12.22-1.29,1.39-1.93s1.29-.21,2-.21a2.58,2.58,0,0,0,1.93-.43c.75-.54.11-1.71,2-3.43s2.68-2.57,3.32-2.68,3-1.74,4-1.61A15.22,15.22,0,0,1,145.35,32c.86-.64,1.82-.64,2.25-1.18s.32-1.5,1.61-2.36,2.36-1.39,2.89-1.82,1.71-.11,2.14-.54.43-2,.86-2.36-1.39.75-2.36,1.18A8,8,0,0,1,149.21,26Z"/><path class="cy_cls-3" d="M101.51,103.34A10.72,10.72,0,0,0,97.92,105s3.18-.74,5.19-1.26l-1.13-.3Z"/><path class="cy_cls-3" d="M110.57,101.25c-1.41.37-4.09,1.12-6.62,1.56l-.84.16c.58.11,1.11.23,1.61.37C106.77,102.7,111.87,100.91,110.57,101.25Z"/><path class="cy_cls-3" d="M111.76,93.21c-2.9,1.34-4.17,4.69-3.65,7.89C110.35,99.47,112.43,95.52,111.76,93.21Z"/><path class="cy_cls-3" d="M116,91.69c-1.92,1.67-4.55,5.09-3,7.74C115.33,98.05,116.9,93.29,116,91.69Z"/><path class="cy_cls-3" d="M119.95,89.57c-2.08,1.56-4,5.54-2.38,7.81C119.95,95.82,120.77,91.8,119.95,89.57Z"/><path class="cy_cls-3" d="M123.81,86.89c-2.16,2.16-3.2,5.51-1.7,7.65C124,92.55,125.38,88.68,123.81,86.89Z"/><path class="cy_cls-3" d="M128.06,83.47c-2,1.34-3.57,6.18-2.31,8.19C128.28,90.31,128.95,85.25,128.06,83.47Z"/><path class="cy_cls-3" d="M128.65,90.91c4.39-1,6.55-3.65,6.77-6C133.34,84.81,128.28,88,128.65,90.91Z"/><path class="cy_cls-3" d="M125.82,94.18c2.75,2.6,8.19-.52,8.63-1.93C132.82,91.73,128.21,91.73,125.82,94.18Z"/><path class="cy_cls-3" d="M122.55,96.64c.67,1.71,6.1,2.23,7.51.45C128.06,95,125.9,95.74,122.55,96.64Z"/><path class="cy_cls-3" d="M117.79,98.8c-.07.37,4.09,3.79,7.66,2.31C124.86,99.61,121,97.08,117.79,98.8Z"/><path class="cy_cls-3" d="M113.4,101.25c1.94,3.57,6,2.75,7.59,2A7.25,7.25,0,0,0,113.4,101.25Z"/><path class="cy_cls-3" d="M109.38,102.52c1.34,2.75,3,4,7.26,3.61A8.19,8.19,0,0,0,109.38,102.52Z"/><path class="cy_cls-3" d="M104.72,103.34c-.5-.14-1-.26-1.61-.37l-.84-.16c-2.53-.45-5.21-1.19-6.62-1.56s3.8,1.45,5.85,2.09l.47.14,1.13.3c2,.52,5.19,1.26,5.19,1.26A10.72,10.72,0,0,0,104.72,103.34Z"/><path class="cy_cls-3" d="M98.11,101.1c.52-3.2-.74-6.55-3.65-7.89C93.79,95.52,95.88,99.47,98.11,101.1Z"/><path class="cy_cls-3" d="M93.21,99.44c1.55-2.65-1.07-6.07-3-7.74C89.33,93.29,90.89,98.05,93.21,99.44Z"/><path class="cy_cls-3" d="M88.66,97.38c1.66-2.27-.3-6.25-2.38-7.81C85.46,91.8,86.28,95.82,88.66,97.38Z"/><path class="cy_cls-3" d="M82.41,86.89c-1.56,1.79-.22,5.66,1.7,7.65C85.61,92.4,84.57,89,82.41,86.89Z"/><path class="cy_cls-3" d="M78.17,83.47c-.89,1.79-.22,6.85,2.31,8.19C81.74,89.64,80.18,84.81,78.17,83.47Z"/><path class="cy_cls-3" d="M77.57,90.91c.37-2.9-4.69-6.1-6.77-6C71,87.26,73.18,89.87,77.57,90.91Z"/><path class="cy_cls-3" d="M80.4,94.18c-2.38-2.46-7-2.46-8.63-1.93C72.22,93.66,77.65,96.79,80.4,94.18Z"/><path class="cy_cls-3" d="M83.67,96.64c-3.35-.89-5.51-1.64-7.51.45C77.57,98.87,83,98.35,83.67,96.64Z"/><path class="cy_cls-3" d="M88.44,98.8c-3.2-1.71-7.07.82-7.66,2.31C84.34,102.59,88.51,99.17,88.44,98.8Z"/><path class="cy_cls-3" d="M92.83,101.25a7.25,7.25,0,0,0-7.59,2C86.8,104,90.89,104.82,92.83,101.25Z"/><path class="cy_cls-3" d="M89.58,106.13c4.29.41,5.92-.86,7.26-3.61A8.19,8.19,0,0,0,89.58,106.13Z"/></g></g></svg>
