<svg xmlns="http://www.w3.org/2000/svg" viewBox="0 0 200 134"><defs><style>.dj_cls-1{fill:#6fb2e2;}.dj_cls-2{fill:#23ad50;}.dj_cls-3{fill:#fafafa;}.dj_cls-4{fill:#ed2f31;}</style></defs><title>Asset 48</title><g id="Layer_2" data-name="Layer 2"><g id="Layer_53" data-name="Layer 53"><path class="dj_cls-1" d="M183,0H17A16.92,16.92,0,0,0,6.24,3.84l51,29.47L115.63,67H200V17A17,17,0,0,0,183,0Z"/><path class="dj_cls-2" d="M57.28,100.69l-51,29.47A16.92,16.92,0,0,0,17,134H183a17,17,0,0,0,17-17V67H115.63Z"/><path class="dj_cls-3" d="M115.63,67,57.28,33.31,6.24,3.84A17,17,0,0,0,0,17V117a17,17,0,0,0,6.24,13.16l51-29.47ZM37.83,72.15,29.9,77.9l3-9.31L25,62.84H34.8l3-9.31,3,9.31h9.79l-7.92,5.75,3,9.31Z"/><polygon class="dj_cls-4" points="50.65 62.84 40.85 62.84 37.83 53.52 34.8 62.84 25.01 62.84 32.93 68.59 29.9 77.9 37.83 72.15 45.75 77.9 42.72 68.59 50.65 62.84"/></g></g></svg>
