<svg xmlns="http://www.w3.org/2000/svg" viewBox="0 0 200 134"><defs><style>.dm_cls-1{fill:#1e9554;}.dm_cls-2{fill:#fff;}.dm_cls-3{fill:#010101;}.dm_cls-4{fill:#fed733;}.dm_cls-5{fill:#e92f49;}.dm_cls-6{fill:#069547;}.dm_cls-7{fill:none;stroke:#069547;stroke-linecap:round;stroke-linejoin:round;stroke-width:0;}.dm_cls-8{fill:#a85926;}.dm_cls-9{fill:#fecf0a;}.dm_cls-10{fill:#932e91;}.dm_cls-11{fill:#e91c39;}</style></defs><title>Asset 49</title><g id="Layer_2" data-name="Layer 2"><g id="Layer_52" data-name="Layer 52"><path class="dm_cls-1" d="M183,0H116.83V37.85a33.82,33.82,0,0,1,12.32,12.32H200V17A17,17,0,0,0,183,0Z"/><path class="dm_cls-1" d="M116.83,96.15V134H183a17,17,0,0,0,17-17V83.83H129.15A33.82,33.82,0,0,1,116.83,96.15Z"/><path class="dm_cls-1" d="M70.85,83.83H0V117a17,17,0,0,0,17,17H83.17V96.15A33.81,33.81,0,0,1,70.85,83.83ZM57.37,112.45h0Z"/><path class="dm_cls-1" d="M83.17,37.85V0H17A17,17,0,0,0,0,17V50.17H70.85A33.83,33.83,0,0,1,83.17,37.85ZM30.69,41.73l-1-3s-3.29-.1-3.29,0,2.6-2,2.6-2-1.23-3.48-1.18-3.38,2.85,2.09,2.85,2.09,2.85-2,2.8-2-1.08,3.28-1.08,3.28L35,38.6l-3.19,0S30.69,41.73,30.69,41.73Z"/><path class="dm_cls-2" d="M66.81,72.61H0V83.83H70.85A33.4,33.4,0,0,1,66.81,72.61ZM50.13,79.23h0Z"/><path class="dm_cls-2" d="M129.15,83.83H200V72.61H133.19A33.41,33.41,0,0,1,129.15,83.83Z"/><path class="dm_cls-3" d="M133.66,67a33.83,33.83,0,0,1-.47,5.61H200V61.39H133.19A33.83,33.83,0,0,1,133.66,67Z"/><path class="dm_cls-3" d="M66.34,67a33.83,33.83,0,0,1,.47-5.61H0V72.61H66.81A33.83,33.83,0,0,1,66.34,67Z"/><path class="dm_cls-4" d="M133.19,61.39H200V50.17H129.15A33.41,33.41,0,0,1,133.19,61.39Z"/><path class="dm_cls-4" d="M70.85,50.17H0V61.39H66.81A33.45,33.45,0,0,1,70.85,50.17Z"/><path class="dm_cls-4" d="M83.17,96.15V134H94.39V100.19A33.44,33.44,0,0,1,83.17,96.15Z"/><path class="dm_cls-4" d="M94.39,33.81V0H83.17V37.85A33.42,33.42,0,0,1,94.39,33.81Z"/><path class="dm_cls-3" d="M100,33.34a33.84,33.84,0,0,1,5.61.47V0H94.39V33.81A33.83,33.83,0,0,1,100,33.34Zm4.41-13.88h0Z"/><path class="dm_cls-3" d="M100,100.66a33.88,33.88,0,0,1-5.61-.47V134h11.22V100.19A33.84,33.84,0,0,1,100,100.66Zm-2.12,11.78h0Z"/><path class="dm_cls-2" d="M105.61,100.19V134h11.22V96.15A33.44,33.44,0,0,1,105.61,100.19Z"/><path class="dm_cls-2" d="M116.83,37.85V0H105.61V33.81A33.43,33.43,0,0,1,116.83,37.85Z"/><path class="dm_cls-5" d="M100,33.34a33.83,33.83,0,0,0-5.61.47,33.42,33.42,0,0,0-11.22,4A33.83,33.83,0,0,0,70.85,50.17a33.45,33.45,0,0,0-4,11.22,33.4,33.4,0,0,0,0,11.22,33.4,33.4,0,0,0,4,11.22A33.81,33.81,0,0,0,83.17,96.15a33.44,33.44,0,0,0,11.22,4,33.43,33.43,0,0,0,11.22,0,33.44,33.44,0,0,0,11.22-4,33.82,33.82,0,0,0,12.32-12.32,33.41,33.41,0,0,0,4-11.22,33.4,33.4,0,0,0,0-11.22,33.41,33.41,0,0,0-4-11.22,33.82,33.82,0,0,0-12.32-12.32,33.43,33.43,0,0,0-11.22-4A33.84,33.84,0,0,0,100,33.34Zm-1.08,7.09c0-.05,1.08-3.08,1.08-3.08l1,3s3.29.1,3.29.05-2.6,2-2.6,2,1.23,3.48,1.18,3.38S100,43.7,100,43.7s-2.85,2-2.8,2,1.08-3.28,1.08-3.28l-2.55-1.94ZM94.41,50.64h0ZM81.86,43c0,.1,2.84,2.09,2.84,2.09s2.85-2,2.8-2-1.08,3.28-1.08,3.28L89,48.3l-3.19,0s-1.08,3.08-1.08,3.08l-1-3s-3.29-.1-3.29,0,2.6-2,2.6-2S81.81,42.89,81.86,43ZM71.52,58.49l3.19,0s1.08-3.08,1.08-3.08l1,3s3.29.1,3.29,0-2.6,2-2.6,2,1.23,3.48,1.18,3.38-2.85-2.09-2.85-2.09-2.85,2-2.8,2,1.08-3.28,1.08-3.28Zm1.61,12.58c0,.1,2.85,2.09,2.85,2.09s2.85-2,2.8-2-1.08,3.28-1.08,3.28l2.55,1.94-3.19,0S76,79.51,76,79.51l-1-3s-3.29-.1-3.29,0,2.6-2,2.6-2S73.09,71,73.13,71.07ZM88,91.37c0-.1-2.85-2.09-2.85-2.09s-2.84,2-2.8,2S83.46,88,83.46,88l-2.55-1.94L84.1,86s1.08-3.08,1.08-3.08l1,3s3.29.1,3.29,0-2.6,2-2.6,2S88.07,91.47,88,91.37Zm13.05,2.28S100,96.73,100,96.73l-1-3s-3.29-.1-3.29,0,2.6-2,2.6-2-1.22-3.48-1.18-3.38S100,90.37,100,90.37s2.85-2,2.79-2-1.08,3.28-1.08,3.28l2.55,1.94Zm6.22-7.87a.51.51,0,0,1-.14,0c-.18,1-.44,1.56-.75,1.59s-.68-.55-1-1.58l-.08,0c-.34,0-.69-.36-1-1.07a1.63,1.63,0,0,1-1-.09,1.35,1.35,0,0,1-1.14,0c-.21.23-.68.23-1.2,0-.51.35-1.93-.13-2.64-1.15a46.28,46.28,0,0,1-6.86-.23A7.24,7.24,0,0,1,90.08,81c1.72-.07,1-1,1.84-1.48a2,2,0,0,1,2.47.45c.37.61.07,1.21.55,1.22l3.39-.11a3.16,3.16,0,0,1,1.19-1,3.3,3.3,0,0,1-.6-1.69s0-.08,0-.12c-.53.05-1-.83-1.17-2a4.27,4.27,0,0,1,0-1.23,3.65,3.65,0,0,1-.26-.75,13.54,13.54,0,0,1-3.74-8.57,16.43,16.43,0,0,1,1.69-8.9.72.72,0,0,1,0-.09,1,1,0,0,1,.38-.78v0a1,1,0,0,1,.47-.82s0,0,0-.06a1,1,0,0,1,.27-.65l-.34-.17a2,2,0,0,1-.59.36,1.36,1.36,0,0,1-1.46-.16,4.1,4.1,0,0,0-.52,1.14c-1.09-2.51-.4-3.57.76-3.83a4.71,4.71,0,0,1,.55-.14,2.73,2.73,0,0,1,.95-1.79,5,5,0,0,1,4.87-.27c1.36.67,3.63,3.38,5.33,4a4.15,4.15,0,0,1-1.92,0,4.64,4.64,0,0,0,2.16,1.06,3.09,3.09,0,0,1-1,.83,4.42,4.42,0,0,0,2.07,1,3,3,0,0,1-1.13.9,3.48,3.48,0,0,0,1.63.69,2.93,2.93,0,0,1-1.25,1,3.51,3.51,0,0,0,1.65.7,2.77,2.77,0,0,1-3.82.63A24.8,24.8,0,0,1,107.79,66c1.67,3.89,2.25,7.52,1.65,9.35a6.86,6.86,0,0,1,.26,2.56,8.4,8.4,0,0,1,.07,3.55c-.33-.75-.61-1.4-1-2.07,0,.64,0,1.24-.07,1.81a.28.28,0,0,1,.11.05,1.47,1.47,0,0,1,.06,1.92,1.25,1.25,0,0,1-.4.09C108.25,84.75,107.83,85.72,107.3,85.78Zm14.21-12h0Zm-3.57,17.32c0-.1-2.85-2.09-2.85-2.09s-2.85,2-2.8,2,1.08-3.28,1.08-3.28l-2.55-1.94,3.19,0c0-.05,1.08-3.08,1.08-3.08l1,3s3.29.1,3.29.05-2.6,2-2.6,2S118,91.21,117.94,91.11Zm10.34-15.52-3.19,0S124,78.72,124,78.72l-1-3s-3.29-.1-3.29,0,2.6-2,2.6-2-1.23-3.48-1.18-3.38S124,72.36,124,72.36s2.84-2,2.8-2-1.08,3.28-1.08,3.28Zm-1.59-12.52c0-.1-2.85-2.09-2.85-2.09S121,63,121,63s1.08-3.28,1.08-3.28l-2.55-1.94,3.19,0c0-.05,1.08-3.08,1.08-3.08l1,3s3.29.1,3.29.05-2.6,2-2.6,2S126.74,63.17,126.69,63.07Zm-15-20.4c.05.1,2.85,2.09,2.85,2.09s2.85-2,2.8-2S116.28,46,116.28,46L118.83,48l-3.19,0s-1.08,3.08-1.08,3.08l-1-3s-3.29-.1-3.29,0,2.6-2,2.6-2S111.67,42.56,111.72,42.66Z"/><path class="dm_cls-5" d="M103.82,83.45h0Z"/><path class="dm_cls-5" d="M100.67,79.85A.65.65,0,0,1,101,80h0a2.9,2.9,0,0,1-.21-.48A2.32,2.32,0,0,1,100.67,79.85Z"/><path class="dm_cls-6" d="M97.2,45.69s2.8-2,2.8-2,2.79,2,2.85,2.09-1.18-3.38-1.18-3.38,2.6-2,2.6-2-3.29-.05-3.29-.05l-1-3s-1.08,3-1.08,3.08l-3.19,0,2.55,1.94S97.25,45.69,97.2,45.69Z"/><path class="dm_cls-6" d="M102.79,88.39c.05,0-2.79,2-2.79,2s-2.8-2-2.85-2.09,1.18,3.38,1.18,3.38-2.6,2-2.6,2,3.29,0,3.29,0l1,3s1.08-3,1.08-3.08l3.19,0-2.55-1.94S102.75,88.39,102.79,88.39Z"/><path class="dm_cls-6" d="M113.58,48.08l1,3s1.08-3,1.08-3.08l3.19,0L116.28,46s1-3.28,1.08-3.28-2.8,2-2.8,2-2.8-2-2.85-2.09S112.9,46,112.9,46s-2.6,2-2.6,2S113.58,48.08,113.58,48.08Z"/><path class="dm_cls-6" d="M126.81,70.38s-2.8,2-2.8,2-2.8-2-2.85-2.08,1.18,3.38,1.18,3.38-2.6,2-2.6,2,3.29,0,3.29,0l1,3s1.08-3,1.08-3.08l3.19,0-2.55-1.94S126.76,70.38,126.81,70.38Z"/><path class="dm_cls-6" d="M71.71,76.43s3.29,0,3.29,0l1,3s1.08-3,1.08-3.08l3.19,0L77.7,74.44s1-3.28,1.08-3.28-2.8,2-2.8,2-2.8-2-2.85-2.09,1.18,3.38,1.18,3.38S71.71,76.48,71.71,76.43Z"/><path class="dm_cls-6" d="M32.41,36.67s1-3.28,1.08-3.28-2.8,2-2.8,2-2.8-2-2.85-2.09S29,36.67,29,36.67s-2.6,2-2.6,2,3.29,0,3.29,0l1,3s1.08-3,1.08-3.08l3.19,0Z"/><path class="dm_cls-6" d="M83.72,48.4l1,3s1.08-3,1.08-3.08l3.19,0-2.55-1.94s1-3.28,1.08-3.28-2.8,2-2.8,2-2.8-2-2.84-2.09S83,46.36,83,46.36s-2.6,2-2.6,2S83.72,48.4,83.72,48.4Z"/><path class="dm_cls-6" d="M73,63.71s2.8-2,2.8-2,2.8,2,2.85,2.09-1.18-3.38-1.18-3.38,2.6-2,2.6-2-3.29,0-3.29,0l-1-3s-1.08,3-1.08,3.08l-3.19,0,2.55,1.94S73,63.71,73,63.71Zm4.52-4h0Z"/><path class="dm_cls-6" d="M86.16,86l-1-3S84.1,86,84.1,86l-3.19.05L83.46,88s-1,3.28-1.08,3.28,2.8-2,2.8-2,2.8,2,2.85,2.09S86.84,88,86.84,88s2.6-2,2.6-2S86.16,86,86.16,86Z"/><path class="dm_cls-6" d="M128.11,57.71s-3.29-.05-3.29-.05l-1-3s-1.08,3-1.08,3.08l-3.19,0,2.55,1.94S121.09,63,121,63s2.8-2,2.8-2,2.8,2,2.85,2.09-1.18-3.38-1.18-3.38S128.11,57.66,128.11,57.71Z"/><path class="dm_cls-6" d="M119.36,85.75s-3.29-.05-3.29-.05l-1-3s-1.08,3-1.08,3.08l-3.19,0,2.55,1.94s-1,3.28-1.08,3.28,2.8-2,2.8-2,2.8,2,2.85,2.09-1.18-3.38-1.18-3.38S119.36,85.7,119.36,85.75Z"/><line class="dm_cls-7" x1="77.51" y1="59.67" x2="77.35" y2="59.67"/><line class="dm_cls-7" x1="98.04" y1="112.45" x2="97.88" y2="112.45"/><line class="dm_cls-7" x1="57.37" y1="112.45" x2="57.53" y2="112.45"/><line class="dm_cls-7" x1="49.97" y1="79.23" x2="50.13" y2="79.23"/><line class="dm_cls-7" x1="121.51" y1="73.79" x2="121.35" y2="73.79"/><line class="dm_cls-7" x1="94.41" y1="50.64" x2="94.25" y2="50.64"/><line class="dm_cls-7" x1="104.25" y1="19.46" x2="104.41" y2="19.46"/><path class="dm_cls-6" d="M104.81,83.41l-1,0h0c.42.18.8.38.81.85a.45.45,0,0,1-.34.42c.34.72.69,1.11,1,1.07l.08,0A20.79,20.79,0,0,1,104.81,83.41Z"/><path class="dm_cls-6" d="M103,79.83l.17,0a2.37,2.37,0,0,1-.05-.28C103.12,79.68,103.08,79.76,103,79.83Z"/><path class="dm_cls-6" d="M104.39,80.84a1.38,1.38,0,0,1-.23.14h.25Z"/><path class="dm_cls-6" d="M107.51,81l.47,0a1,1,0,0,1,.16,0,1.08,1.08,0,0,1,.42.09l.19,0c0-.57.06-1.17.07-1.81A17.54,17.54,0,0,0,107.4,77C107.48,78.45,107.52,79.79,107.51,81Z"/><path class="dm_cls-6" d="M108.51,83.21c-.25,0-.62.06-1.07.09a19.94,19.94,0,0,1-.28,2.46.51.51,0,0,0,.14,0C107.83,85.72,108.25,84.75,108.51,83.21Z"/><path class="dm_cls-6" d="M107.51,81c0-1.22,0-2.57-.11-4l-.53-.72a1.09,1.09,0,0,1-.27,0c0,.09,0,.18,0,.27-.09,1.23-.59,2.21-1.11,2.2a.54.54,0,0,1-.4-.25s0,.08,0,.13a3.7,3.7,0,0,1-.45,1.59.62.62,0,0,1,0,.06.6.6,0,0,1-.25.51l0,.14C105.62,81,106.71,81,107.51,81Z"/><path class="dm_cls-6" d="M107.44,83.3c-.7,0-1.6.08-2.63.11a20.79,20.79,0,0,0,.59,2.36c.33,1,.69,1.62,1,1.58s.56-.62.75-1.59A19.94,19.94,0,0,0,107.44,83.3Z"/><path class="dm_cls-8" d="M98.33,81.12l-3.39.11c-.48,0-.18-.61-.55-1.22a2,2,0,0,0-2.47-.45C91.05,80,91.8,81,90.08,81a7.24,7.24,0,0,0,1.39,2.24,46.28,46.28,0,0,0,6.86.23,2.17,2.17,0,0,1-.42-1.23A2.3,2.3,0,0,1,98.33,81.12Z"/><path class="dm_cls-8" d="M109.21,82.14a1.11,1.11,0,0,1-1.12,1.09A1.1,1.1,0,0,1,108,81l-.47,0c-.8,0-1.89,0-3.1,0h-.25c-.56.29-1.43.43-1.45,1.3,0,.72.56.93,1.08,1.15h0l1,0c1,0,1.93-.07,2.63-.11.45,0,.82-.06,1.07-.09a1.25,1.25,0,0,0,.4-.09,1.47,1.47,0,0,0-.06-1.92.28.28,0,0,0-.11-.05l-.19,0A1.1,1.1,0,0,1,109.21,82.14Z"/><path class="dm_cls-9" d="M99,82.3a2.6,2.6,0,0,1,1.21-1.94.47.47,0,0,1-.13,0,.68.68,0,0,1-.6-.3,3.16,3.16,0,0,0-1.19,1,2.3,2.3,0,0,0-.42,1.17,2.17,2.17,0,0,0,.42,1.23c.71,1,2.13,1.5,2.64,1.15A2.75,2.75,0,0,1,99,82.3Z"/><path class="dm_cls-9" d="M100.39,80.27A3.17,3.17,0,0,1,101,80a.65.65,0,0,0-.32-.13A1.15,1.15,0,0,1,100.39,80.27Z"/><path class="dm_cls-9" d="M100.25,82.26a2.56,2.56,0,0,1,1.08-1.85A1.48,1.48,0,0,1,101,80h0a3.17,3.17,0,0,0-.6.29.56.56,0,0,1-.14.1A2.6,2.6,0,0,0,99,82.3,2.75,2.75,0,0,0,101,84.66c.52.18,1,.18,1.2,0A2.75,2.75,0,0,1,100.25,82.26Z"/><path class="dm_cls-9" d="M101.38,82.27A2.8,2.8,0,0,1,103.25,80l0-.11-.17,0c-.2.34-.45.55-.7.55a.46.46,0,0,1-.21-.06.6.6,0,0,1-.36.23.56.56,0,0,1-.43-.14,2.56,2.56,0,0,0-1.08,1.85,2.75,2.75,0,0,0,1.91,2.36,1.35,1.35,0,0,0,1.14,0A2.75,2.75,0,0,1,101.38,82.27Z"/><path class="dm_cls-9" d="M104.63,84.3c0-.48-.39-.67-.81-.85h0c-.53-.23-1.1-.43-1.08-1.15,0-.87.88-1,1.45-1.3a1.38,1.38,0,0,0,.23-.14.6.6,0,0,0,.25-.51.62.62,0,0,0,0-.06c-.2.33-.44.54-.69.53s-.55-.33-.7-.81a2.8,2.8,0,0,0-1.86,2.28,2.75,2.75,0,0,0,1.92,2.36,1.63,1.63,0,0,0,1,.09A.45.45,0,0,0,104.63,84.3Z"/><path class="dm_cls-8" d="M107,82.11a1.09,1.09,0,0,0,1.07,1.13,1.11,1.11,0,0,0,.47-2.13,1.08,1.08,0,0,0-.42-.09,1,1,0,0,0-.16,0A1.1,1.1,0,0,0,107,82.11Z"/><path class="dm_cls-6" d="M101.52,78.2s0-.08,0-.12a.58.58,0,0,1-.39-.23,1.18,1.18,0,0,1-.27.45,4,4,0,0,1-.09,1.2A2.9,2.9,0,0,0,101,80a1.48,1.48,0,0,0,.34.42.56.56,0,0,0,.43.14.6.6,0,0,0,.36-.23A2.35,2.35,0,0,1,101.52,78.2Z"/><path class="dm_cls-6" d="M100.12,80.42a.47.47,0,0,0,.13,0,.56.56,0,0,0,.14-.1,1.15,1.15,0,0,0,.28-.42,2.32,2.32,0,0,0,.12-.36,4,4,0,0,0,.09-1.2.47.47,0,0,1-.24.13c-.37.06-.75-.45-1-1.23-.11.62-.37,1.05-.71,1.1h0s0,.08,0,.12a3.3,3.3,0,0,0,.6,1.69A.68.68,0,0,0,100.12,80.42Z"/><path class="dm_cls-6" d="M99.64,77.2a5.38,5.38,0,0,1-.2-1s0-.08,0-.12l-.59-.49a.51.51,0,0,1-.27.16c-.29,0-.57-.23-.8-.69a4.27,4.27,0,0,0,0,1.23c.13,1.17.65,2,1.17,2h0C99.28,78.25,99.53,77.81,99.64,77.2Z"/><path class="dm_cls-6" d="M100.8,77c-.2-.12-.52-.32-.92-.61a.79.79,0,0,1-.39-.29l0,0s0,.08,0,.12a5.38,5.38,0,0,0,.2,1c.23.78.61,1.29,1,1.23a.47.47,0,0,0,.24-.13,1.18,1.18,0,0,0,.27-.45A1.88,1.88,0,0,1,100.8,77Z"/><path class="dm_cls-6" d="M99.88,76.42l-.39-.29A.79.79,0,0,0,99.88,76.42Z"/><path class="dm_cls-6" d="M98.57,75.77a.51.51,0,0,0,.27-.16,16.77,16.77,0,0,1-1.33-1.28,3.65,3.65,0,0,0,.26.75C98,75.54,98.29,75.81,98.57,75.77Z"/><path class="dm_cls-10" d="M98.85,75.61l.59.49,0,0,.39.29c.4.29.71.49.92.61a4.07,4.07,0,0,1-.07-1.12,4.22,4.22,0,0,1,.26-1.2,4.31,4.31,0,0,1-.12-1.43c.08-1.14.52-2.06,1-2.17-.27-.53-.54-1.08-.79-1.66a17.37,17.37,0,0,1-1.64-6.88,8.6,8.6,0,0,1,0-3.46,1.06,1.06,0,0,1-1-1.07,1,1,0,0,1,.07-.32,1.35,1.35,0,0,1-.47.08,1.28,1.28,0,0,1-.78-.29,1.07,1.07,0,0,1-1.86-.65,16.43,16.43,0,0,0-1.69,8.9,13.54,13.54,0,0,0,3.74,8.57A16.77,16.77,0,0,0,98.85,75.61Z"/><path class="dm_cls-6" d="M105.08,78.68s0-.08,0-.13a2.05,2.05,0,0,1-.33-.89.55.55,0,0,1-.38.16.5.5,0,0,1-.36-.2,1.68,1.68,0,0,1-.55.8,4,4,0,0,1-.3,1.17,2.37,2.37,0,0,0,.05.28l0,.11c.15.48.39.8.7.81s.49-.2.69-.53A3.7,3.7,0,0,0,105.08,78.68Z"/><path class="dm_cls-6" d="M103.46,78.43a.48.48,0,0,1-.26.09c-.38,0-.66-.58-.75-1.39-.22.59-.55,1-.89,1h0s0,.08,0,.12a2.35,2.35,0,0,0,.61,2.11.46.46,0,0,0,.21.06c.25,0,.5-.2.7-.55,0-.07.08-.15.12-.23A4,4,0,0,0,103.46,78.43Z"/><path class="dm_cls-6" d="M101.53,78.08h0c.34,0,.68-.37.89-1a5.27,5.27,0,0,1,0-1c0-.06,0-.11,0-.16a2.85,2.85,0,0,1-.22-.84.75.75,0,0,1-.58.41c-.29,0-.52-.33-.66-.82a4.22,4.22,0,0,0-.26,1.2A4.07,4.07,0,0,0,100.8,77a1.88,1.88,0,0,0,.34.81A.58.58,0,0,0,101.53,78.08Z"/><path class="dm_cls-6" d="M103.57,76a.76.76,0,0,1-.58.42c-.22,0-.4-.19-.54-.49,0,.05,0,.11,0,.16a5.27,5.27,0,0,0,0,1c.09.81.37,1.38.75,1.39a.48.48,0,0,0,.26-.09,1.68,1.68,0,0,0,.55-.8A2.62,2.62,0,0,1,103.57,76Z"/><path class="dm_cls-6" d="M105.45,75.85a3.08,3.08,0,0,1-.7,1.81,2.05,2.05,0,0,0,.33.89.54.54,0,0,0,.4.25c.52,0,1-1,1.11-2.2,0-.09,0-.18,0-.27A2.29,2.29,0,0,1,105.45,75.85Z"/><path class="dm_cls-6" d="M105.45,75.85a7.78,7.78,0,0,1-1.38-1.34,3.64,3.64,0,0,1-.49,1.52,2.62,2.62,0,0,0,.43,1.59.5.5,0,0,0,.36.2.55.55,0,0,0,.38-.16A3.08,3.08,0,0,0,105.45,75.85Z"/><path class="dm_cls-6" d="M103,76.45a.76.76,0,0,0,.58-.42,3.64,3.64,0,0,0,.49-1.52,16.43,16.43,0,0,1-1.31-1.83,5.15,5.15,0,0,1,0,.65,3.86,3.86,0,0,1-.53,1.79,2.85,2.85,0,0,0,.22.84C102.59,76.26,102.77,76.45,103,76.45Z"/><path class="dm_cls-6" d="M101.65,75.53a.75.75,0,0,0,.58-.41,3.86,3.86,0,0,0,.53-1.79,5.15,5.15,0,0,0,0-.65c-.3-.49-.61-1-.89-1.57-.48.12-.91,1-1,2.17a4.31,4.31,0,0,0,.12,1.43C101.13,75.2,101.36,75.52,101.65,75.53Z"/><path class="dm_cls-11" d="M102.76,72.69a16.43,16.43,0,0,0,1.31,1.83,7.78,7.78,0,0,0,1.38,1.34,2.29,2.29,0,0,0,1.15.48,1.09,1.09,0,0,0,.27,0l-.23-.3c-1.76-1.12-3.89-4-5.47-7.72a24.29,24.29,0,0,1-1.72-5.73,17.37,17.37,0,0,0,1.64,6.88c.25.58.51,1.13.79,1.66S102.45,72.2,102.76,72.69Z"/><path class="dm_cls-6" d="M100.67,57.42a1,1,0,0,1-.16.11,1,1,0,0,1,.1.23,1.87,1.87,0,0,1,1.16.16,1.71,1.71,0,0,1-.16-.47,1.26,1.26,0,0,1-.45.08A1.25,1.25,0,0,1,100.67,57.42Z"/><path class="dm_cls-6" d="M100.61,55.91a1,1,0,0,1,.38.8,1,1,0,0,1-.32.72,1.25,1.25,0,0,0,.48.11,1.26,1.26,0,0,0,.45-.08.92.92,0,0,1,.12-.67,1.89,1.89,0,0,1-.53-1.21A1.12,1.12,0,0,1,100.61,55.91Z"/><path class="dm_cls-6" d="M100.47,57.8l.14,0a1,1,0,0,0-.1-.23,1,1,0,0,1-1.43-.2,1.16,1.16,0,0,1-.51.37,1,1,0,0,0-.07.32,1.06,1.06,0,0,0,1,1.07A1.76,1.76,0,0,1,100.47,57.8Z"/><path class="dm_cls-6" d="M100.67,57.42a1,1,0,0,0,.32-.72,1,1,0,0,0-.38-.8,1,1,0,0,1-.92-.16,1,1,0,0,1-.59.39.88.88,0,0,1,0,1.2,1,1,0,0,0,1.43.2A1,1,0,0,0,100.67,57.42Z"/><path class="dm_cls-6" d="M99.08,57.34a.88.88,0,0,0,0-1.2,1.09,1.09,0,0,1-.29.05,1.1,1.1,0,0,1-.74-.3l-.09.06s0,0,0,.06a1,1,0,0,1-.38.77s0,0,0,0a1.05,1.05,0,0,1-.3.7,1.28,1.28,0,0,0,.78.29,1.35,1.35,0,0,0,.47-.08A1.16,1.16,0,0,0,99.08,57.34Z"/><path class="dm_cls-6" d="M99.69,55.74a1,1,0,0,0,.92.16,1.12,1.12,0,0,0,.59-.32.91.91,0,0,1,.06-.34,2.1,2.1,0,0,1-.44-.67c-.29.06-.61.11-1,.17a1,1,0,0,1,.09.42A1,1,0,0,1,99.69,55.74Z"/><path class="dm_cls-6" d="M99.1,56.13a1,1,0,0,0,.59-.39,1,1,0,0,0,.22-.58,1,1,0,0,0-.09-.42h0a7.79,7.79,0,0,1-1.41.07,1,1,0,0,1,.06.3,1,1,0,0,1-.38.76,1.1,1.1,0,0,0,.74.3A1.09,1.09,0,0,0,99.1,56.13Z"/><path class="dm_cls-6" d="M96.51,57.85a1.08,1.08,0,0,0,.81-.35,1.05,1.05,0,0,0,.3-.7s0,0,0,0a1.1,1.1,0,0,1-.72.26A1.07,1.07,0,0,1,95.82,56a1,1,0,0,0-.38.78.72.72,0,0,0,0,.09A1.07,1.07,0,0,0,96.51,57.85Z"/><path class="dm_cls-6" d="M96.89,57a1.1,1.1,0,0,0,.72-.26A1,1,0,0,0,98,56s0,0,0-.06a1.08,1.08,0,0,1-.63.21,1.06,1.06,0,0,1-1.05-1,1,1,0,0,0-.47.82v0A1.07,1.07,0,0,0,96.89,57Z"/><path class="dm_cls-6" d="M97.35,56.15a1.08,1.08,0,0,0,.63-.21l.09-.06a1,1,0,0,0,.38-.76,1,1,0,0,0-.06-.3,5.24,5.24,0,0,1-1.84-.38,1,1,0,0,0-.27.65s0,0,0,.06A1.06,1.06,0,0,0,97.35,56.15Z"/><path class="dm_cls-6" d="M102.32,58.63a2,2,0,0,1-.55-.7,1.87,1.87,0,0,0-1.16-.16l-.14,0a1.76,1.76,0,0,0-1,1.3,8.6,8.6,0,0,0,0,3.46,24.29,24.29,0,0,0,1.72,5.73c1.59,3.69,3.72,6.6,5.47,7.72-.37-.47-.78-1-1.27-1.55a7.7,7.7,0,0,1-1.65-2.91,5,5,0,0,1-1.95-2.68c-.62-1.59-.64-3,0-3.05.28,0,.65.21,1,.63,0-.05,0-.1,0-.15a5.64,5.64,0,0,1-.63-1c-.5,0-1.26-.9-1.71-2.1s-.44-2.25.06-2.3c.31,0,.74.33,1.13.92-.23-.87-.15-1.54.24-1.59s1.14.7,1.63,1.74l.22.16a.41.41,0,0,1,.17-.11c.67-.17,1.9,1.24,2.75,3.15a9,9,0,0,1,.66,2.1,5.18,5.18,0,0,1,.74,1.22,3.06,3.06,0,0,1,.37,2.12,7.22,7.22,0,0,1,1.08,4.67l0,.05c.61-1.82,0-5.45-1.65-9.35a24.8,24.8,0,0,0-3.29-5.64A10.49,10.49,0,0,1,102.32,58.63Z"/><path class="dm_cls-6" d="M107.09,68.79a14,14,0,0,1,1.26,1.79,3.06,3.06,0,0,0-.37-2.12,5.18,5.18,0,0,0-.74-1.22A2,2,0,0,1,107.09,68.79Z"/><path class="dm_cls-6" d="M107.09,68.79a.42.42,0,0,1-.2.12c-.32.08-.77-.2-1.24-.72a4.29,4.29,0,0,1,.17,1.31,18.64,18.64,0,0,0,1.49,2.08,10.79,10.79,0,0,1,2.11,3.67,7.22,7.22,0,0,0-1.08-4.67A14,14,0,0,0,107.09,68.79Z"/><path class="dm_cls-6" d="M107.32,71.58a18.64,18.64,0,0,1-1.49-2.08c0,.43-.16.71-.42.76a.73.73,0,0,1-.46-.12,15.64,15.64,0,0,0,2.46,3.72,10.26,10.26,0,0,1,2.3,4,6.86,6.86,0,0,0-.26-2.56l0-.05A10.79,10.79,0,0,0,107.32,71.58Z"/><path class="dm_cls-6" d="M107.4,73.85a15.64,15.64,0,0,1-2.46-3.72,2.69,2.69,0,0,1-.68-.6c.28,1.14.19,2-.28,2.07a.58.58,0,0,1-.28,0,7.7,7.7,0,0,0,1.65,2.91c.49.57.9,1.08,1.27,1.55l.23.3.53.72a17.54,17.54,0,0,1,1.42,2.31c.35.67.63,1.33,1,2.07a8.4,8.4,0,0,0-.07-3.55A10.26,10.26,0,0,0,107.4,73.85Z"/><path class="dm_cls-6" d="M104.87,63.77c.56,1.18.63,2.21.13,2.3a.58.58,0,0,1-.3-.05,8.3,8.3,0,0,1,.61,1.19,7.89,7.89,0,0,1,.33,1c.47.52.92.8,1.24.72a.42.42,0,0,0,.2-.12,2,2,0,0,0,.15-1.55,9,9,0,0,0-.66-2.1c-.84-1.91-2.07-3.32-2.75-3.15a.41.41,0,0,0-.17.11A5.15,5.15,0,0,1,104.87,63.77Z"/><path class="dm_cls-6" d="M104,68.55a8,8,0,0,1,.31,1,2.69,2.69,0,0,0,.68.6.73.73,0,0,0,.46.12c.26,0,.39-.33.42-.76a4.29,4.29,0,0,0-.17-1.31,7.89,7.89,0,0,0-.33-1,8.3,8.3,0,0,0-.61-1.19,2.18,2.18,0,0,1-.75-.6c.22.87.15,1.54-.24,1.58s-.64-.24-1-.7c0,.05,0,.1,0,.15A7.28,7.28,0,0,1,104,68.55Z"/><path class="dm_cls-6" d="M104,71.6c.48-.07.56-.93.28-2.07a8,8,0,0,0-.31-1,7.28,7.28,0,0,0-1.21-2.09c-.37-.43-.74-.67-1-.63-.61.09-.6,1.46,0,3.05a5,5,0,0,0,1.95,2.68A.58.58,0,0,0,104,71.6Z"/><path class="dm_cls-6" d="M103.59,62.27c.46,1.14.48,2.11.06,2.27l.08.17a6.18,6.18,0,0,1,.23.71,2.18,2.18,0,0,0,.75.6.58.58,0,0,0,.3.05c.49-.09.43-1.12-.13-2.3a5.15,5.15,0,0,0-1.21-1.67l-.22-.16Z"/><path class="dm_cls-6" d="M103.72,67c.39,0,.47-.71.24-1.58a6.18,6.18,0,0,0-.23-.71l-.08-.17-.07,0c-.33,0-.8-.37-1.23-1,.25.95.17,1.67-.24,1.72h0a5.64,5.64,0,0,0,.63,1C103.08,66.76,103.44,67,103.72,67Z"/><path class="dm_cls-6" d="M102.17,63a5.63,5.63,0,0,1,.18.58c.42.64.89,1.06,1.23,1l.07,0c.42-.16.4-1.13-.06-2.27l-.15-.33c-.49-1-1.19-1.8-1.63-1.74s-.47.71-.24,1.59A6,6,0,0,1,102.17,63Z"/><path class="dm_cls-6" d="M102.35,63.55a5.63,5.63,0,0,0-.18-.58,6,6,0,0,0-.6-1.19c-.39-.58-.82-1-1.13-.92-.5.05-.52,1.08-.06,2.3s1.21,2.13,1.71,2.1h0C102.52,65.22,102.6,64.49,102.35,63.55Z"/><path class="dm_cls-10" d="M101.92,57a1.37,1.37,0,0,1-.2-.18.92.92,0,0,0-.12.67,1.71,1.71,0,0,0,.16.47,2,2,0,0,0,.55.7,10.49,10.49,0,0,0,2.19,1.68,2.77,2.77,0,0,0,3.82-.63,3.51,3.51,0,0,1-1.65-.7C104.64,59.75,102.39,57.4,101.92,57Z"/><path class="dm_cls-10" d="M101.42,55.38l-.15-.14a.91.91,0,0,0-.06.34,1.89,1.89,0,0,0,.53,1.21,1.37,1.37,0,0,0,.2.18c.47.42,2.72,2.78,4.75,2a2.93,2.93,0,0,0,1.25-1,3.48,3.48,0,0,1-1.63-.69C104.23,58.25,101.9,55.81,101.42,55.38Z"/><path class="dm_cls-10" d="M101.31,54.44l-.49.13a2.1,2.1,0,0,0,.44.67l.15.14c.48.43,2.81,2.87,4.88,1.95a3,3,0,0,0,1.13-.9,4.42,4.42,0,0,1-2.07-1C103.92,56.2,102.33,55.26,101.31,54.44Z"/><path class="dm_cls-10" d="M101.31,54.44c1,.82,2.61,1.76,4,1a3.09,3.09,0,0,0,1-.83,4.64,4.64,0,0,1-2.16-1.06,4.62,4.62,0,0,1-.77-.29A7.17,7.17,0,0,1,101.31,54.44Z"/><path class="dm_cls-10" d="M98.39,54.82a7.79,7.79,0,0,0,1.41-.07h0c.38-.05.71-.1,1-.17l.49-.13a7.17,7.17,0,0,0,2.09-1.17,4.62,4.62,0,0,0,.77.29,4.15,4.15,0,0,0,1.92,0c-1.7-.64-4-3.36-5.33-4a5,5,0,0,0-4.87.27,2.73,2.73,0,0,0-.95,1.79c.67-.13,1.08,0,1.21.66a.92.92,0,0,1-.15.65.73.73,0,0,1,.6.41c.11.29-.07.63-.4.9l.34.17A5.24,5.24,0,0,0,98.39,54.82Zm-.09-2.71c-.54,0-1-.27-1-.59s.45-.56,1-.55,1,.27,1,.59S98.85,52.11,98.31,52.1Z"/><path class="dm_cls-11" d="M98.33,51c-.54,0-1,.24-1,.55s.43.58,1,.59,1-.24,1-.55S98.87,51,98.33,51Zm-.06.84a.31.31,0,1,1,.36-.3A.33.33,0,0,1,98.26,51.8Z"/><path class="dm_cls-9" d="M96.61,53.36a.73.73,0,0,0-.6-.41,1.36,1.36,0,0,1-.79.59,2.38,2.38,0,0,0-1.06.93,1.36,1.36,0,0,0,1.46.16,2,2,0,0,0,.59-.36C96.54,54,96.71,53.65,96.61,53.36Z"/><ellipse class="dm_cls-3" cx="98.27" cy="51.5" rx="0.31" ry="0.35" transform="translate(44.9 148.76) rotate(-88.9)"/><path class="dm_cls-9" d="M95.22,53.53a1.36,1.36,0,0,0,.79-.59.92.92,0,0,0,.15-.65c-.12-.64-.54-.79-1.21-.66a4.71,4.71,0,0,0-.55.14c-1.16.26-1.85,1.32-.76,3.83a4.1,4.1,0,0,1,.52-1.14A2.38,2.38,0,0,1,95.22,53.53Zm-.13-1.3a.26.26,0,1,1-.23.27A.25.25,0,0,1,95.09,52.23Z"/><ellipse class="dm_cls-3" cx="95.1" cy="52.49" rx="0.25" ry="0.26" transform="translate(-2.85 5.52) rotate(-3.28)"/></g></g></svg>
