<svg xmlns="http://www.w3.org/2000/svg" viewBox="0 0 200 134"><defs><style>.do_cls-1{fill:#fff;}.do_cls-2{fill:#1e3160;}.do_cls-3{fill:#d32a40;}.do_cls-4{fill:#fecf0a;}.do_cls-5{fill:#d31f36;}.do_cls-6{fill:#21418c;}.do_cls-7{fill:#010101;}.do_cls-8{fill:#057b64;}</style></defs><title>Asset 50</title><g id="Layer_2" data-name="Layer 2"><g id="Layer_51" data-name="Layer 51"><path class="do_cls-1" d="M107.81,72.07s0-.25,0-.64l-.13.17A2.94,2.94,0,0,1,107.81,72.07Z"/><path class="do_cls-1" d="M103.92,72.74c0,.06.09-.06.16-.23h-.27Z"/><path class="do_cls-1" d="M104.92,73.47a7.49,7.49,0,0,1,.61-.94H105A5.36,5.36,0,0,0,104.92,73.47Z"/><path class="do_cls-1" d="M106.94,72.63a2,2,0,0,0,.15-.48,2.29,2.29,0,0,1-.42.24C106.77,72.57,106.87,72.73,106.94,72.63Z"/><path class="do_cls-1" d="M104.38,73.37c.07-.1.25-.48.42-.84h-.44A5.13,5.13,0,0,0,104.38,73.37Z"/><path class="do_cls-1" d="M108.23,65.51v2.64l.37.11V66.72s.58,1.83.65,2a8,8,0,0,0-.22-1.9,11.25,11.25,0,0,1-.29-1.27s.74,1.06.87,1.27a7.59,7.59,0,0,0-.73-2c-.09,0-.37.3-.54.51a.5.5,0,0,1-.11.2Z"/><path class="do_cls-1" d="M105.71,72.54v.94a7.15,7.15,0,0,0,.48-1l-.13,0Z"/><path class="do_cls-1" d="M91,66.18c-.16.16-1.13.53-1.24.68s-.92,1.05-1.13,1.37a1.88,1.88,0,0,0-.21.84h0A3.23,3.23,0,0,1,89,68a11.59,11.59,0,0,0,.92-.95l.16.79a4.4,4.4,0,0,1,.81-.47l1-.24V64.4a2.28,2.28,0,0,1-.27.53C91.52,65,91.14,66,91,66.18Z"/><path class="do_cls-1" d="M94,72.46a1.77,1.77,0,0,1-.62.82,3.64,3.64,0,0,1-.59.32,5.82,5.82,0,0,0,1,.26,1.62,1.62,0,0,1,.54.16l-1.19.37a6.74,6.74,0,0,0,1.46.05,2.64,2.64,0,0,0-.16-1,2.52,2.52,0,0,1-.22-.68,3.49,3.49,0,0,0,.7.16c.21,0,.59.05.59-.05a2.22,2.22,0,0,0-.14-.37H94.32A2,2,0,0,1,94,72.46Z"/><path class="do_cls-1" d="M91.9,67.36c-.21.19-.43.42-.43.5s-.11,1-.38,1.21-1.56,1-1.67,1.05-.21.47-.21.63a.8.8,0,0,0,.16.37,2.14,2.14,0,0,1,.38-.58,1,1,0,0,0,.16-.68,2.78,2.78,0,0,1,.54.68,7.62,7.62,0,0,1,.05,1.58,2.35,2.35,0,0,0,0,1.05,4.39,4.39,0,0,0,.4.45A.38.38,0,0,1,91,73.4a3.72,3.72,0,0,1-.39-1.54,5.49,5.49,0,0,1,.65-1.37,3.2,3.2,0,0,0,.14-.63,5.7,5.7,0,0,1,.51.69,1.79,1.79,0,0,1-.05-.42Z"/><path class="do_cls-1" d="M96.7,73a1.86,1.86,0,0,1,.17-.47H96C96.33,72.79,96.7,73.07,96.7,73Z"/><path class="do_cls-1" d="M101.94,72.61l-.36.18v-.06A3.45,3.45,0,0,0,100.06,74a3.48,3.48,0,0,0-1.51-1.23v.05l-.32-.15a3.16,3.16,0,0,0-.47-.1l.11.23a4.19,4.19,0,0,1,.07.94,2.08,2.08,0,0,1-.38.89l.08.12c.78,0,1.63,0,2.55,0s1.89.07,2.72.13a2.37,2.37,0,0,0,.21-.37,3.4,3.4,0,0,0,.23-2h-.56A3,3,0,0,0,101.94,72.61Z"/><path class="do_cls-1" d="M100.6,76.89H99.47l.55.61Z"/><path class="do_cls-1" d="M115.43,0H84.57V52.53H0V81.47H84.57V134h30.86V81.47H200V52.53H115.43Zm.46,59.89c-.14.07-.72-.28-.94-.28s-2,1.9-1.66,1.83a7.18,7.18,0,0,0,1.3-1.14s-.36.86-.22.79,1.23-.7,1.23-.7-1.59,1.41-1.37,1.41a5.71,5.71,0,0,0,1.08-.42l-1.08,1.34a4.4,4.4,0,0,1,1.19-.58,3.63,3.63,0,0,1,.9.23,9.69,9.69,0,0,0-1.23.14c-.14.07-1.23,1.62-.94,1.48a5,5,0,0,0,.87-.78l-.36.92,1.52-.92-2.09,2.18s1.44-1.13,1.66-1.06a9.63,9.63,0,0,1,1.23,1.2,14,14,0,0,0-1.44-.63,11.2,11.2,0,0,0-1.8,2.32,7.86,7.86,0,0,1,1.59-.7c.29,0,.79,1.27.65,1.27s-.79-.35-.94-.35a20.11,20.11,0,0,0-1.81,1l1.59-.28a8.11,8.11,0,0,0,1.37-.14c.29-.14,1.08-.42,1.08-.42s-.83.53-1.26.88a2.88,2.88,0,0,1-1.19.46l1.37.14s-1.88.58-2.35.76-.73.35-1,.5c.22,0,1.28-.06,1.57-.06s1.66.21,1.66.21-1.8.28-2,.28a1.12,1.12,0,0,0-.51.21l1.95.21-1.3.21,1.16.4a6.85,6.85,0,0,1,.87.51s-1.66-.35-2-.35a7.54,7.54,0,0,0-.92.09,2.9,2.9,0,0,1,1,.21.61.61,0,0,1,.32.26l-.94-.07a5.88,5.88,0,0,0,.87.56,1.34,1.34,0,0,1,.43.28l-1.44-.14,1.23.92s-1.3-.28-1.52-.28h-.22a5.93,5.93,0,0,1,.8.7A5.47,5.47,0,0,1,114,75a5.85,5.85,0,0,1-.87-.28,3.38,3.38,0,0,0-.79-.21l.65.7L111.92,75l.58.84-1.08-.35s.51.28.51.49-.22,1.2-.36,1.06-.22-.7-.36-.92a1.47,1.47,0,0,0-.36-.35,2.5,2.5,0,0,0-.74-.21c.07.14.85.63,1,.79l-1.37-.16s1.3.63,1.08.63l-1-.07a.57.57,0,0,1,.06.25,1.62,1.62,0,0,1-.08.42A4.68,4.68,0,0,1,111.2,77c.79,0,1.26.49,1.23.88a1.55,1.55,0,0,1-.19.5,3.18,3.18,0,0,1,2.57.73,9.62,9.62,0,0,0-1.55,1.62s-.51-.6-.87-.63-1.44,0-1.91-.07-1-.28-1-.6a2.56,2.56,0,0,1,.17-.61,6.77,6.77,0,0,1-1.44.4c-.61,0-1.66-.6-1.66-1,0-.12.16-.26.38-.39s.41-.24.38-.38-1.81-.46-5-.57l-.8.78h.19a.83.83,0,0,1,.53.23,2.62,2.62,0,0,1,1.26.24l-.25,1.13-.72-.35a1.1,1.1,0,0,0-.31-.07c0,.07,0,.15,0,.21s-.07.1-.14.13h0c.72.43.75.42,1.35.74l-.59.79a11.08,11.08,0,0,1-2.25-1.6,1.26,1.26,0,0,1-.48.09,1.66,1.66,0,0,1-.29,0c-.48.43-1.06,1-1.37,1.08a4.55,4.55,0,0,0-1,.35l-.79-.42c.1,0,.82-.48,1.53-1-.1,0-.17-.09-.18-.15s0-.11,0-.17a.87.87,0,0,0-.22.06l-.72.35-.25-1.13A2.73,2.73,0,0,1,97.85,78v0a.84.84,0,0,1,.54-.25,1.89,1.89,0,0,1,.69.1l-.88-.89a25.77,25.77,0,0,0-5.15.56c-.12.07-.1.2.09.31,0,0,0,0,0,0,.25.15.45.3.45.44,0,.39-1,1-1.66,1a6.79,6.79,0,0,1-1.44-.4,2.57,2.57,0,0,1,.17.61c0,.32-.58.56-1,.6s-1.55,0-1.91.07-.87.63-.87.63a9.57,9.57,0,0,0-1.55-1.62,3.19,3.19,0,0,1,2.58-.73,1.51,1.51,0,0,1-.19-.5c0-.39.43-.88,1.23-.88a4.5,4.5,0,0,1,1.36.31,1.52,1.52,0,0,1-.06-.46c0-.34.37-.72,1.11-1.07a1.8,1.8,0,0,1,.17-.38c.27-.42,1-.84.87-.84l-1.57.05a4.75,4.75,0,0,1-.92.89c-.27.1-1.46.21-1.73.37a6.05,6.05,0,0,0-.75.63s-.11-.58-.11-.74a1.33,1.33,0,0,1,.21-.47,8.81,8.81,0,0,1-1.19,0c.16-.05.21-.42.43-.68a1.84,1.84,0,0,1,.86-.68l.76-.21-.65-.31a4.23,4.23,0,0,1,.81-.32,4.81,4.81,0,0,0,.64-.12.41.41,0,0,1-.06-.2.36.36,0,0,1,0-.09,1.13,1.13,0,0,1-.27-.48c0-.21-.49.79-.86.89a7.52,7.52,0,0,1-1.51.21c-.38,0-.92.58-.92.58a2.48,2.48,0,0,1-.11-.79.54.54,0,0,1,.27-.32l-.59.05s.16-.79.22-.89l.32-.58a2.44,2.44,0,0,1-.54-.53,6.86,6.86,0,0,1-.27-.74H86a4,4,0,0,1,1,.31,2,2,0,0,1-.27-.58c0-.16-.21-.53-.11-.53a6.24,6.24,0,0,1,.86.47,4,4,0,0,0-.37-1,.34.34,0,0,1-.29.2.37.37,0,0,1-.34-.39.42.42,0,0,1,0-.17,4.53,4.53,0,0,1-1.62-.67,11.44,11.44,0,0,1-.75-2,.93.93,0,0,0-.43-.47h.86s-.11-.53-.16-.84a2,2,0,0,1,.11-.79s.38.63.59.63.54.37.54.37l.05-.37.65.84a2,2,0,0,1,.16-.68,1.44,1.44,0,0,1,.38-.21,2.52,2.52,0,0,0,.11.47,6.08,6.08,0,0,1,.38,1.05c0,.16-.11,1.89-.11,2a11.21,11.21,0,0,0,.65,1.37V67.92c0-.32-.38-1-.32-1.26s.11-.68.11-.68a3.28,3.28,0,0,0,.43.63,3.28,3.28,0,0,1,.43.63l.38-.68s-.92-.74-1-1.05a8.62,8.62,0,0,1-.22-1,4.84,4.84,0,0,1-.86-.53A19.48,19.48,0,0,1,85.7,62.3H86a3.63,3.63,0,0,1-.32-1c0-.32.05-.95.05-.95a2.45,2.45,0,0,1,.38.37c0,.05.15.09.26.12a.47.47,0,0,1,0-.07.41.41,0,0,1,.08-.25A5.92,5.92,0,0,1,86,58.88a4.37,4.37,0,0,1,.86-1.68l.43.68.86-1.26a3.14,3.14,0,0,1,.38.74V58l.65.05c.11,0,.38.21.38.21a2.3,2.3,0,0,0-.59.32c-.16.16-.32.84-.48.89a5.75,5.75,0,0,0-1,.68,2.25,2.25,0,0,0-.26.77l.12,0a.37.37,0,0,1,.34.39.38.38,0,0,1-.26.37,2.34,2.34,0,0,1,.32.6c.06.26.11.95.11.95s.27.32.48.26a.57.57,0,0,0,.38-.58c-.05-.21-.65-.74-.7-1s.05-2,.05-2l.86.47a3.5,3.5,0,0,0,.59-.74,9.7,9.7,0,0,0,.27-1l.38,1.1s.27-.47.54-.58a8.3,8.3,0,0,0,.81-.42,6.62,6.62,0,0,0-.21.74,14.52,14.52,0,0,1-.05,2.16c-.11.21-1.51,1.52-1.62,1.63a2.86,2.86,0,0,0-.11.89l1-.89s.11.47.16.74a2.94,2.94,0,0,1,.05.53,4.31,4.31,0,0,0,.7-.26c.16-.1.48.11.48.11V56l-1.81-1.77h20L108.23,56v9.51a1,1,0,0,1,.12-.17c.17-.43.44-1.42.61-1.42s.49.74.56.94l-.42-2.35.58,1.06a2.08,2.08,0,0,0,0-1,4.67,4.67,0,0,1-.22-.91s.44.56.36.42a7.17,7.17,0,0,1,0-1.27s.3.66.38.8.34.54.34.54v-.49l.38.31s-.81-1.72-1.17-1.79-.87.56-.87.56.65-1.13.87-1.13H110l-.21-1.2s1.44,2,1.37,1.69-.65-1.62-.72-2.11-.29-1.34-.29-1.34l.65.91c.14.21.58,1.06.58.92s-.07-1.76-.07-1.76l.72,1.55.52-1.45-.14.06a12.86,12.86,0,0,0-.69-2.39,3.2,3.2,0,0,0-1.06-1,1.79,1.79,0,0,1-.45,0c-.68-.18-2.17-.56-2.31-.91,0-.11.07-.37.24-.65a10.28,10.28,0,0,0-1.65-.37c-.76,0-3,.07-3.28,0s-1.16-.21-1.16-.6a3.82,3.82,0,0,1,.27-1,13.54,13.54,0,0,0-2.38-.21,11.47,11.47,0,0,0-2.28.18,3.73,3.73,0,0,1,.26,1c0,.39-.83.56-1.15.6s-2.53-.07-3.29,0a10.29,10.29,0,0,0-1.65.37c.17.29.29.54.24.65-.14.35-1.62.74-2.31.91a1.8,1.8,0,0,1-.45,0,3.19,3.19,0,0,0-1.06,1,12.69,12.69,0,0,0-.69,2.39s-.83-.35-1.12-.46-.9,0-.9-.11a25.79,25.79,0,0,1,1.28-3l.29-.63a1.33,1.33,0,0,1,1-.75,3.23,3.23,0,0,1,0-.61c0-.56,1.47-1.47,4-1.9a18.1,18.1,0,0,1,3.35-.26,1.41,1.41,0,0,1,0-.44c.15-.59,1.08-1.08,4.51-1.13,3.25,0,4.69.56,4.73,1.09a2.65,2.65,0,0,1,0,.53,18.07,18.07,0,0,1,3.35.26c2.5.43,4,1.34,4,1.9a3.24,3.24,0,0,1,0,.61,1.33,1.33,0,0,1,1,.75l.29.63a26.23,26.23,0,0,1,1.28,3c0,.07-.61,0-.9.11l-.79.32.3,1.46s.29-.85.36-1.2.29-.35.29-.35-.07,1.48-.07,1.62-.14.91-.14.91.65-1.34.79-1.62.72-.49.72-.49-.29.63-.36.84-.87,1.83-.72,1.83.72-.84,1.08-.84S116,59.82,115.89,59.89Z"/><path class="do_cls-2" d="M84.57,0H17A17,17,0,0,0,0,17V52.53H84.57Z"/><path class="do_cls-2" d="M115.43,134H183a17,17,0,0,0,17-17V81.47H115.43Z"/><path class="do_cls-3" d="M0,81.47V117a17,17,0,0,0,17,17H84.57V81.47Z"/><path class="do_cls-3" d="M183,0H115.43V52.53H200V17A17,17,0,0,0,183,0Z"/><path class="do_cls-2" d="M112.78,56.74l.79-.32c.29-.11.9,0,.9-.11a26.23,26.23,0,0,0-1.28-3l.3.66a5.65,5.65,0,0,0-2.8-.52,3.2,3.2,0,0,1,1.06,1,12.86,12.86,0,0,1,.69,2.39l.14-.06.13-.38Z"/><path class="do_cls-2" d="M113.49,54l-.3-.66-.29-.63a1.33,1.33,0,0,0-1-.75,2.36,2.36,0,0,1-.54,1.33c-.07,0,0-.49-.62-.67-.37-.11-1.53-.47-2.57-.76-.17.29-.29.54-.24.65.14.35,1.63.74,2.31.91a1.79,1.79,0,0,0,.45,0A5.65,5.65,0,0,1,113.49,54Z"/><path class="do_cls-2" d="M108.76,50.58a.28.28,0,0,0,.06-.12.23.23,0,0,0,0-.17.2.2,0,0,0-.14-.11l-.32-.09-.13.45.29.08a.34.34,0,0,0,.15,0A.18.18,0,0,0,108.76,50.58Z"/><path class="do_cls-2" d="M106.55,49.87l-.16,0-.21,0,0,.43.23,0h.13a.15.15,0,0,0,.09-.06.27.27,0,0,0,0-.12.29.29,0,0,0,0-.13A.13.13,0,0,0,106.55,49.87Z"/><path class="do_cls-2" d="M106.37,50.43l-.24,0,0,.49.26,0h.1l.08,0a.19.19,0,0,0,.06-.07.31.31,0,0,0,0-.12.29.29,0,0,0,0-.14.17.17,0,0,0-.08-.09A.36.36,0,0,0,106.37,50.43Z"/><path class="do_cls-2" d="M110.72,52.13l.21.07a.43.43,0,0,0,.16,0,.23.23,0,0,0,.12,0,.48.48,0,0,0,.14-.14,1.25,1.25,0,0,0,.12-.25.86.86,0,0,0,.07-.34.31.31,0,0,0-.07-.2.42.42,0,0,0-.16-.09l-.21-.07Z"/><path class="do_cls-2" d="M110.32,51.47l0-.41c0-.13,0-.23,0-.3a2.3,2.3,0,0,1-.15.24l-.25.36Z"/><path class="do_cls-2" d="M110.75,52.58c.62.18.54.63.62.67a2.36,2.36,0,0,0,.54-1.33,3.24,3.24,0,0,0,0-.61c0-.56-1.47-1.47-4-1.9a18.07,18.07,0,0,0-3.35-.26c-.11.66-.37,1.55-.37,1.55s-.37-.49-1.89-.78a3.82,3.82,0,0,0-.27,1c0,.39.83.56,1.16.6s2.53-.07,3.28,0a10.28,10.28,0,0,1,1.65.37C109.22,52.11,110.38,52.48,110.75,52.58Zm.62-1.57.17.08a.34.34,0,0,1,.11.15.61.61,0,0,1,0,.27,1.21,1.21,0,0,1-.07.33,1.47,1.47,0,0,1-.13.26.89.89,0,0,1-.14.17.5.5,0,0,1-.13.09.35.35,0,0,1-.14,0l-.17,0-.36-.12.49-1.35Zm-6,0-.66-.06.13-1.42H105l-.12,1.26.52,0Zm.33,0h-.14l.13-1.42h.14Zm1-.54a.44.44,0,0,1,0,.22.51.51,0,0,1,0,.18.36.36,0,0,1-.09.13.32.32,0,0,1-.12.06h-.17l-.4,0,.13-1.42.39,0a.36.36,0,0,1,.19.06.26.26,0,0,1,.1.14.4.4,0,0,1,0,.19.43.43,0,0,1-.05.17.32.32,0,0,1-.12.12A.28.28,0,0,1,106.73,50.49Zm1-.08,0,.17-.58-.09L107,51l.64.1,0,.17-.78-.12.23-1.41.76.12,0,.17-.62-.1-.07.43Zm.86,1.06-.05-.32c0-.09,0-.16,0-.22a.44.44,0,0,0,0-.11.13.13,0,0,0-.05-.05l-.07,0-.16,0-.18.61-.13,0,.4-1.37.45.12a.47.47,0,0,1,.2.09.27.27,0,0,1,.07.16.53.53,0,0,1,0,.22.43.43,0,0,1-.14.23.33.33,0,0,1-.25.07l.06.09a.94.94,0,0,1,.06.21l.07.42Zm.49.16.43-1.19-.33-.11.06-.16.79.27-.06.16-.33-.12-.43,1.19Zm.42.17.88-1.21.14,0-.08,1.49-.15-.05,0-.45-.42-.14-.26.37Z"/><path class="do_cls-2" d="M86.54,53.91l.31-.66a25.79,25.79,0,0,0-1.28,3c0,.07.61,0,.9.11s1.12.46,1.12.46a12.69,12.69,0,0,1,.69-2.39,3.19,3.19,0,0,1,1.06-1A5.66,5.66,0,0,0,86.54,53.91Z"/><path class="do_cls-2" d="M89.29,52.53c-.61.18-.54.63-.61.67a2.37,2.37,0,0,1-.54-1.33,1.33,1.33,0,0,0-1,.75l-.29.63-.31.66a5.66,5.66,0,0,1,2.8-.52,1.8,1.8,0,0,0,.45,0c.69-.18,2.17-.56,2.31-.91,0-.11-.07-.37-.24-.65C90.82,52.06,89.65,52.43,89.29,52.53Z"/><path class="do_cls-2" d="M95.82,50.77a9.33,9.33,0,0,1-.41-1.67,18.1,18.1,0,0,0-3.35.26c-2.5.43-4,1.34-4,1.9a3.23,3.23,0,0,0,0,.61,2.37,2.37,0,0,0,.54,1.33c.07,0,0-.49.61-.67.37-.1,1.53-.47,2.57-.76a10.29,10.29,0,0,1,1.65-.37c.76,0,3,.07,3.29,0s1.15-.21,1.15-.6a3.73,3.73,0,0,0-.26-1C96.13,50.19,95.82,50.77,95.82,50.77Zm-4.74.54a.5.5,0,0,1-.06.16.39.39,0,0,1-.12.11.62.62,0,0,1-.17.08l-.41.13-.45-1.36.39-.12.21,0a.39.39,0,0,1,.2,0,.62.62,0,0,1,.21.19,1.13,1.13,0,0,1,.15.31,1.2,1.2,0,0,1,.06.29A.73.73,0,0,1,91.08,51.31Zm.52.09-.16,0L91.23,50l.16,0Zm1.24-.61a.57.57,0,0,1-.17.29.52.52,0,0,1-.28.13.49.49,0,0,1-.31-.05.6.6,0,0,1-.24-.24,1,1,0,0,1-.12-.34A.85.85,0,0,1,91.8,50a.5.5,0,0,1,.38-.26.51.51,0,0,1,.31.05.59.59,0,0,1,.24.23,1,1,0,0,1,.13.37A1,1,0,0,1,92.84,50.8Zm1.18,0a.4.4,0,0,1-.14.17.47.47,0,0,1-.22.08.59.59,0,0,1-.28,0,.41.41,0,0,1-.19-.16.55.55,0,0,1-.09-.25l.15,0a.46.46,0,0,0,.07.17.29.29,0,0,0,.13.1.39.39,0,0,0,.19,0,.41.41,0,0,0,.16,0,.22.22,0,0,0,.09-.1.23.23,0,0,0,0-.12.22.22,0,0,0,0-.11.24.24,0,0,0-.12-.07l-.22-.05a1,1,0,0,1-.24-.07.35.35,0,0,1-.14-.12.4.4,0,0,1-.06-.17.43.43,0,0,1,0-.21.34.34,0,0,1,.14-.16.48.48,0,0,1,.21-.07.5.5,0,0,1,.24,0,.37.37,0,0,1,.17.14A.51.51,0,0,1,94,50l-.15,0a.31.31,0,0,0-.1-.2.29.29,0,0,0-.21-.05.3.3,0,0,0-.2.08.21.21,0,0,0-.05.16.19.19,0,0,0,.06.12.59.59,0,0,0,.25.08,1.28,1.28,0,0,1,.27.07.37.37,0,0,1,.17.13.4.4,0,0,1,.07.2A.43.43,0,0,1,94,50.84Z"/><path class="do_cls-2" d="M92.6,50.13a.42.42,0,0,0-.17-.18.35.35,0,0,0-.22,0,.37.37,0,0,0-.27.18.68.68,0,0,0-.05.47.66.66,0,0,0,.17.39.37.37,0,0,0,.31.11.35.35,0,0,0,.27-.19.69.69,0,0,0,.05-.44A.8.8,0,0,0,92.6,50.13Z"/><path class="do_cls-2" d="M90.71,50.54a.35.35,0,0,0-.19-.11.51.51,0,0,0-.2,0l-.24.07.34,1,.24-.08a.52.52,0,0,0,.17-.08.25.25,0,0,0,.08-.1.47.47,0,0,0,0-.2,1,1,0,0,0-.05-.27A.79.79,0,0,0,90.71,50.54Z"/><path class="do_cls-2" d="M101,48.53a.29.29,0,0,0,0-.13.23.23,0,0,0-.06-.17.25.25,0,0,0-.19-.07h-.37v.47h.34a.45.45,0,0,0,.17,0A.2.2,0,0,0,101,48.53Z"/><path class="do_cls-2" d="M102.75,48.31a2.29,2.29,0,0,1-.11.26l-.2.39.39.07,0-.41C102.77,48.49,102.76,48.39,102.75,48.31Z"/><path class="do_cls-2" d="M97.53,48.31h-.14l-.3.05.1.5.3-.05a.3.3,0,0,0,.2-.1.27.27,0,0,0,0-.2.3.3,0,0,0-.07-.14A.18.18,0,0,0,97.53,48.31Z"/><path class="do_cls-2" d="M98.45,48.4l-.1.43.4,0-.15-.38c0-.12-.08-.21-.11-.29A2.27,2.27,0,0,1,98.45,48.4Z"/><path class="do_cls-2" d="M104.24,50.7s.26-.89.38-1.55a2.65,2.65,0,0,0,0-.53c0-.53-1.48-1.1-4.73-1.09-3.44,0-4.36.54-4.51,1.13a1.41,1.41,0,0,0,0,.44,9.33,9.33,0,0,0,.41,1.67s.31-.58,1.87-.88a11.47,11.47,0,0,1,2.28-.18,13.54,13.54,0,0,1,2.38.21C103.88,50.22,104.24,50.7,104.24,50.7Zm-6.42-1.9a.41.41,0,0,1-.32.19l-.3.05.11.57-.15,0-.27-1.41.44-.08.18,0a.33.33,0,0,1,.16,0,.36.36,0,0,1,.12.12.48.48,0,0,1,.07.19A.49.49,0,0,1,97.83,48.81Zm1.15.56L98.81,49l-.49,0-.1.44h-.16L98.4,48h.17l.59,1.39Zm1.13-1.2h-.39v1.26h-.16V48.18h-.39V48h.94Zm1,1.26-.16-.3-.11-.2a.36.36,0,0,0-.08-.09l-.07,0h-.27v.63h-.16V48h.53a.58.58,0,0,1,.24,0,.28.28,0,0,1,.13.13.47.47,0,0,1,0,.22.4.4,0,0,1-.08.26.38.38,0,0,1-.25.13l.09.07a1.11,1.11,0,0,1,.13.19l.2.39Zm.57,0h-.15l.06-1.43h.16Zm1.23.2-.06-.45-.49-.08-.2.4-.16,0,.7-1.33.16,0,.22,1.49Z"/><polygon class="do_cls-4" points="104.97 49.53 104.83 49.52 104.7 50.94 105.36 51 105.37 50.84 104.85 50.79 104.97 49.53"/><polygon class="do_cls-4" points="105.55 51.02 105.68 51.03 105.82 49.61 105.68 49.6 105.55 51.02"/><polygon class="do_cls-4" points="107.83 49.98 107.86 49.82 107.1 49.7 106.87 51.11 107.65 51.23 107.68 51.07 107.04 50.97 107.11 50.49 107.69 50.58 107.72 50.41 107.14 50.32 107.21 49.89 107.83 49.98"/><polygon class="do_cls-4" points="109.64 50.49 109.97 50.61 110.03 50.45 109.24 50.18 109.18 50.34 109.51 50.45 109.08 51.64 109.21 51.68 109.64 50.49"/><path class="do_cls-4" d="M106.77,50.06a.4.4,0,0,0,0-.19.26.26,0,0,0-.1-.14.36.36,0,0,0-.19-.06l-.39,0-.13,1.42.4,0h.17a.32.32,0,0,0,.12-.06.36.36,0,0,0,.09-.12.51.51,0,0,0,0-.18.44.44,0,0,0,0-.22.28.28,0,0,0-.14-.14.32.32,0,0,0,.13-.12A.43.43,0,0,0,106.77,50.06Zm-.17.5a.29.29,0,0,1,0,.14.31.31,0,0,1,0,.12.19.19,0,0,1-.06.07l-.08,0h-.1l-.26,0,0-.49.24,0a.36.36,0,0,1,.15,0A.17.17,0,0,1,106.6,50.56Zm0-.37a.15.15,0,0,1-.09.06h-.13l-.23,0,0-.43.21,0,.16,0a.13.13,0,0,1,.06.08.29.29,0,0,1,0,.13A.27.27,0,0,1,106.59,50.19Z"/><path class="do_cls-4" d="M108.63,50.88l-.06-.09a.33.33,0,0,0,.25-.07.43.43,0,0,0,.14-.23.53.53,0,0,0,0-.22.27.27,0,0,0-.07-.16.47.47,0,0,0-.2-.09l-.45-.12-.4,1.37.13,0,.18-.61.16,0,.07,0a.13.13,0,0,1,.05.05.44.44,0,0,1,0,.11c0,.05,0,.12,0,.22l.05.32.17,0-.07-.42A.94.94,0,0,0,108.63,50.88Zm-.12-.26-.29-.08.13-.45.32.09a.2.2,0,0,1,.14.11.23.23,0,0,1,0,.17.28.28,0,0,1-.06.12.18.18,0,0,1-.1.06A.34.34,0,0,1,108.5,50.62Z"/><path class="do_cls-4" d="M110.53,52.24l.36.13.17,0a.35.35,0,0,0,.14,0,.5.5,0,0,0,.13-.09.89.89,0,0,0,.14-.17,1.47,1.47,0,0,0,.13-.26,1.21,1.21,0,0,0,.07-.33.61.61,0,0,0,0-.27.34.34,0,0,0-.11-.15l-.17-.08-.34-.12Zm.56-1.14.21.07a.42.42,0,0,1,.16.09.31.31,0,0,1,.07.2.86.86,0,0,1-.07.34,1.25,1.25,0,0,1-.12.25.48.48,0,0,1-.14.14.23.23,0,0,1-.12,0,.43.43,0,0,1-.16,0l-.21-.07Z"/><path class="do_cls-4" d="M110.31,51.63l0,.45.15.05.08-1.49-.14,0-.87,1.21.14,0,.26-.37Zm-.07-.63a2.3,2.3,0,0,0,.15-.24c0,.08,0,.18,0,.3l0,.41-.34-.12Z"/><polygon class="do_cls-4" points="99.18 48.18 99.56 48.18 99.56 49.44 99.72 49.44 99.72 48.18 100.11 48.18 100.11 48.01 99.18 48.01 99.18 48.18"/><rect class="do_cls-4" x="100.93" y="48.64" width="1.43" height="0.16" transform="translate(49.07 148.43) rotate(-87.81)"/><path class="do_cls-4" d="M97.68,48.18a.33.33,0,0,0-.16,0l-.18,0-.44.08.27,1.41.15,0L97.21,49l.3-.05a.41.41,0,0,0,.32-.19.49.49,0,0,0,0-.32.48.48,0,0,0-.07-.19A.36.36,0,0,0,97.68,48.18Zm0,.54a.3.3,0,0,1-.2.1l-.3.05-.1-.5.3-.05h.14a.18.18,0,0,1,.11.07.3.3,0,0,1,.07.14A.27.27,0,0,1,97.68,48.72Z"/><path class="do_cls-4" d="M98.4,48l-.34,1.46h.16l.1-.44.49,0,.17.42h.18L98.56,48Zm.35.82-.4,0,.1-.43a2.27,2.27,0,0,0,0-.28c0,.08.06.17.11.29Z"/><path class="do_cls-4" d="M101,48.86l-.09-.07a.38.38,0,0,0,.25-.13.4.4,0,0,0,.08-.26.47.47,0,0,0,0-.22A.28.28,0,0,0,101,48a.58.58,0,0,0-.24,0h-.53v1.43h.16V48.8h.27l.07,0a.36.36,0,0,1,.08.09l.11.2.16.3h.2l-.2-.39A1.11,1.11,0,0,0,101,48.86Zm-.21-.22h-.34v-.47h.37a.25.25,0,0,1,.19.07.23.23,0,0,1,.06.17.29.29,0,0,1,0,.13.2.2,0,0,1-.09.09A.45.45,0,0,1,100.77,48.64Z"/><path class="do_cls-4" d="M102.87,48.18l-.16,0-.7,1.33.16,0,.2-.4.49.08.06.45.18,0Zm-.43.78.2-.39a2.29,2.29,0,0,0,.11-.26c0,.08,0,.18,0,.31l0,.41Z"/><polygon class="do_cls-4" points="91.23 50.01 91.44 51.43 91.6 51.41 91.39 49.99 91.23 50.01"/><path class="do_cls-4" d="M93.82,50.29a1.28,1.28,0,0,0-.27-.07.59.59,0,0,1-.25-.08.19.19,0,0,1-.06-.12.21.21,0,0,1,.05-.16.3.3,0,0,1,.2-.08.29.29,0,0,1,.21.05.31.31,0,0,1,.1.2L94,50a.51.51,0,0,0-.08-.22.37.37,0,0,0-.17-.14.5.5,0,0,0-.24,0,.48.48,0,0,0-.21.07.34.34,0,0,0-.14.16.43.43,0,0,0,0,.21.4.4,0,0,0,.06.17.35.35,0,0,0,.14.12,1,1,0,0,0,.24.07l.22.05a.24.24,0,0,1,.12.07.22.22,0,0,1,0,.11.23.23,0,0,1,0,.13.22.22,0,0,1-.09.1.41.41,0,0,1-.16,0,.39.39,0,0,1-.19,0,.29.29,0,0,1-.13-.1.46.46,0,0,1-.07-.17l-.15,0a.55.55,0,0,0,.09.25.41.41,0,0,0,.19.16.59.59,0,0,0,.28,0,.47.47,0,0,0,.22-.08.4.4,0,0,0,.14-.17.43.43,0,0,0,0-.22.4.4,0,0,0-.07-.2A.37.37,0,0,0,93.82,50.29Z"/><path class="do_cls-4" d="M92.49,49.8a.51.51,0,0,0-.31-.05.5.5,0,0,0-.38.26.85.85,0,0,0-.08.57,1,1,0,0,0,.12.34.6.6,0,0,0,.24.24.49.49,0,0,0,.31.05.52.52,0,0,0,.28-.13.57.57,0,0,0,.17-.29,1,1,0,0,0,0-.4,1,1,0,0,0-.13-.37A.59.59,0,0,0,92.49,49.8Zm.15,1.06a.35.35,0,0,1-.27.19.37.37,0,0,1-.31-.11.66.66,0,0,1-.17-.39.68.68,0,0,1,.05-.47.37.37,0,0,1,.27-.18.35.35,0,0,1,.22,0,.42.42,0,0,1,.17.18.8.8,0,0,1,.09.29A.69.69,0,0,1,92.64,50.86Z"/><path class="do_cls-4" d="M90.88,50.5a.62.62,0,0,0-.21-.19.39.39,0,0,0-.2,0l-.21,0-.39.12.45,1.36.41-.13a.62.62,0,0,0,.17-.08.39.39,0,0,0,.12-.11.5.5,0,0,0,.06-.16.73.73,0,0,0,0-.22A1.2,1.2,0,0,0,91,50.8,1.13,1.13,0,0,0,90.88,50.5Zm0,.83a.25.25,0,0,1-.08.1.52.52,0,0,1-.17.08l-.24.08-.34-1,.24-.07a.51.51,0,0,1,.2,0,.35.35,0,0,1,.19.11.79.79,0,0,1,.17.31,1,1,0,0,1,.05.27A.47.47,0,0,1,90.9,51.32Z"/><path class="do_cls-1" d="M103.8,72.51h.27v0h-.28Z"/><path class="do_cls-1" d="M104.36,72.52h.44v0h-.46Z"/><path class="do_cls-1" d="M97.95,72.49h-.21l0,0a3.16,3.16,0,0,1,.47.1Z"/><path class="do_cls-1" d="M105,72.53h.5l0,0H105Z"/><polygon class="do_cls-1" points="93.71 65.42 93.71 64.83 93.71 63.65 93.71 62.47 91.9 62.47 91.9 64.4 91.9 65.42 93.71 65.42"/><path class="do_cls-1" d="M100.07,72.52s-.65-1.34-.92-1.76a10.54,10.54,0,0,1-.6-.9v2.88A3.48,3.48,0,0,1,100.06,74a3.45,3.45,0,0,1,1.51-1.24V70.59l-.67,0A11.73,11.73,0,0,1,100.07,72.52Z"/><path class="do_cls-1" d="M99,61.12l0,.05.1,0a1.62,1.62,0,0,1,.6-.06V58.93h-.61v-.59h.61v-.59h.61v.59H101v.59h-.61v1.84a1.39,1.39,0,0,1,.26-.15,4,4,0,0,1,.74-.16l.1.29.1-.09V54.22h-3v6.47Z"/><path class="do_cls-1" d="M102.18,72.49l-.24.12a3,3,0,0,1,.85-.12Z"/><path class="do_cls-1" d="M101.44,69.09c0,.24.09.47.14.68v-.64h0Z"/><path class="do_cls-1" d="M107.66,71.6l.13-.17a.21.21,0,0,1,0,0c0,.06-.1.11-.15.17Z"/><path class="do_cls-1" d="M105.71,72.49v0h.36l.13,0,0-.08a2,2,0,0,1-.41,0Z"/><polygon class="do_cls-1" points="106.51 63.55 106.51 64.73 106.51 65.42 108.23 65.42 108.23 62.47 106.51 62.47 106.51 63.55"/><path class="do_cls-1" d="M106.67,72.39a2.29,2.29,0,0,0,.42-.24l0-.09a2.57,2.57,0,0,1-.49.26Z"/><polygon class="do_cls-1" points="103.34 72.5 103.34 72.49 102.79 72.49 103.34 72.5"/><path class="do_cls-5" d="M102.05,60.2s0-.06,0-.06l1.45-1.44a.29.29,0,0,0,0,0l2-2.08.05,1.78,1-.71v4.82h1.72V56L110,54.22h-8.47v6.45A4.4,4.4,0,0,0,102.05,60.2Zm4.79-2.67-.38-.38,1.14-.54Zm-.28-2.08-.66,1-.42-.33Zm-1.25-1-.51,1.08-.46-.27Z"/><path class="do_cls-2" d="M93.71,57.76l1,.71.05-1.78,2,2.08s0,0,0,0l1.45,1.44v.07a3.69,3.69,0,0,0,.38.38V54.22H90.08L91.9,56v6.49h1.81Zm2.17-2.4-.46.27-.51-1.08Zm-1.15.86-.42.33-.66-1Zm-1,1-.38.38-.77-.92Z"/><path class="do_cls-5" d="M98.24,72.63l.32.15V69.85a3.67,3.67,0,0,1-.24-.55,12.94,12.94,0,0,1-1.57.24,3.12,3.12,0,0,1-3-2.95V65.42H91.9v1.74l.32-.08-.32.29v2.77a1.79,1.79,0,0,0,.05.42,1,1,0,0,1,.06.11,1.51,1.51,0,0,1,.52-.49,9.15,9.15,0,0,1,.54,1.37,4.48,4.48,0,0,1,.63-.79,2.64,2.64,0,0,1,.43,1.45,2.62,2.62,0,0,1-.1.26,2,2,0,0,0,.29,0h1.05c-.12-.27-.25-.58-.19-.58a6.39,6.39,0,0,1,.77.58h.92c.18-.38.43-.84.43-.84s.27.51.44.84h.21Z"/><path class="do_cls-2" d="M106.51,66.49a3.12,3.12,0,0,1-3,2.95,12.78,12.78,0,0,1-1.56-.24.16.16,0,0,1,0,.08c-.06.07-.19,0-.33-.15v.64c.1.47.19.83.19.83h-.19v2.2l.36-.18.24-.12h1.16c0-.13,0-.26,0-.41.22,0,.35.18.47.41h.29c.13-.32.29-.8.28-.54s0,.34,0,.54h.46l.32-.71-.11.71h.53l.16-.22v.22h.1a2,2,0,0,0,.41,0,2.75,2.75,0,0,0,.14-.45c.07,0,.16.14.26.32a2.57,2.57,0,0,0,.49-.26c.1-.41.2-.85.34-.77a.67.67,0,0,1,.19.27c0-.06.1-.11.15-.17a15.56,15.56,0,0,1,.09-3.34l.35.11V65.51s0,0,0,0v-.07h-1.72Z"/><path class="do_cls-4" d="M100.37,60.78V58.93H101v-.59h-.61v-.59h-.61v.59h-.61v.59h.61v2.13H100A4.39,4.39,0,0,1,100.37,60.78Z"/><polygon class="do_cls-4" points="95.88 55.36 94.91 54.55 95.42 55.63 95.88 55.36"/><path class="do_cls-5" d="M98.5,61.49a2,2,0,0,1,.56-.32l0-.05-.48-.43a3.69,3.69,0,0,1-.38-.38c0,.14,0,.51,0,1Z"/><path class="do_cls-1" d="M98.22,61.27c0-.45,0-.82,0-1v-.07L96.72,58.8,96.64,60Z"/><path class="do_cls-2" d="M95.6,59.23l1,.81.08-1.24s0,0,0,0l-2-2.08-.05,1.78.92.67Z"/><polygon class="do_cls-4" points="94.73 56.22 93.66 55.55 94.32 56.55 94.73 56.22"/><path class="do_cls-1" d="M98.19,68.83a3.28,3.28,0,0,1-.06-.59,3.09,3.09,0,0,1,.15-.85l-.36,0c-.18,0-.72-.18-.76-.53a5.71,5.71,0,0,1,0-1,3.52,3.52,0,0,1,.76,0,4.1,4.1,0,0,1,.8.3c.19-.4.39-.78.57-1.09l-.9-.36a2.43,2.43,0,0,0-1.15-.21V60.59l1.23.9h0l-.28-.22L96.64,60l-1-.81-.07,5a6.81,6.81,0,0,1-1.81-.59v1.18a2.26,2.26,0,0,0,1.81.59C95.53,68.61,96.91,68.83,98.19,68.83Z"/><path class="do_cls-5" d="M96.74,69.55a12.94,12.94,0,0,0,1.57-.24,3.1,3.1,0,0,1-.13-.48c-1.27,0-2.66-.21-2.66-3.41a2.26,2.26,0,0,1-1.81-.59V66.6A3.12,3.12,0,0,0,96.74,69.55Z"/><path class="do_cls-2" d="M95.6,59.23v-.09l-.92-.67-1-.71v5.89a6.81,6.81,0,0,0,1.81.59Z"/><path class="do_cls-5" d="M99.42,64.82a1.68,1.68,0,0,1-.09-.6l-1-2.45,0-.18h.06l0-.06,0,0-1.23-.9v3.94a2.43,2.43,0,0,1,1.15.21l.9.36.23-.39Z"/><path class="do_cls-2" d="M98.75,66.2a4.1,4.1,0,0,0-.8-.3,3.52,3.52,0,0,0-.76,0,5.71,5.71,0,0,0,0,1c0,.35.58.53.76.53l.36,0A9.1,9.1,0,0,1,98.75,66.2Z"/><polygon class="do_cls-4" points="93.76 57.26 92.62 56.71 93.39 57.63 93.76 57.26"/><polygon class="do_cls-4" points="105.31 54.45 104.34 55.25 104.8 55.52 105.31 54.45"/><path class="do_cls-5" d="M101.7,61.4l.3-.24c0-.45,0-.82,0-1a4.4,4.4,0,0,1-.48.47l-.1.09Z"/><path class="do_cls-1" d="M103.58,59.93l-.08-1.24-1.45,1.44s0,0,0,.06,0,.51,0,1Z"/><path class="do_cls-2" d="M104.62,59.12V59l.92-.67-.05-1.78-2,2.08a.29.29,0,0,1,0,0l.08,1.24Z"/><polygon class="do_cls-4" points="106.56 55.45 105.49 56.11 105.91 56.45 106.56 55.45"/><path class="do_cls-1" d="M104.62,59.12l-1,.81L102,61.16l-.3.24h0l1.25-.93v3.94a2.44,2.44,0,0,0-1.16.21l-.44.18a1.13,1.13,0,0,1-.32.5l0-.06-.09.34a5.43,5.43,0,0,0,.17.68,6.6,6.6,0,0,1,1.18-.47,3.48,3.48,0,0,1,.76,0,5.71,5.71,0,0,1,0,1c0,.35-.58.53-.76.53l-.91-.09,0,.06c.1.39.31,1,.42,1.43,1.32,0,2.85,0,2.85-3.4a2.26,2.26,0,0,0,1.81-.59V63.55a6.81,6.81,0,0,1-1.81.59Z"/><path class="do_cls-5" d="M101.84,68.72a1.7,1.7,0,0,1,.08.48,12.78,12.78,0,0,0,1.56.24,3.12,3.12,0,0,0,3-2.95V64.73a2.26,2.26,0,0,1-1.81.59C104.7,68.67,103.16,68.74,101.84,68.72Z"/><path class="do_cls-5" d="M101.56,69.12l-.15-.16,0,.13Z"/><path class="do_cls-2" d="M104.62,59.12l.07,5a6.81,6.81,0,0,0,1.81-.59v-5.9l-1,.71-.92.67Z"/><path class="do_cls-5" d="M102.34,63.68a3.28,3.28,0,0,0-.75.09l-.18.08-.12.4a.47.47,0,0,1,.13.33,1.12,1.12,0,0,1-.06.23l.44-.18a2.44,2.44,0,0,1,1.16-.21V60.49l-1.25.93.72,2h-.22l.22.12Z"/><path class="do_cls-2" d="M102.31,67.31c.18,0,.72-.18.76-.53a5.71,5.71,0,0,0,0-1,3.48,3.48,0,0,0-.76,0,6.6,6.6,0,0,0-1.18.47c.11.35.23.66.31,1Z"/><polygon class="do_cls-4" points="106.84 57.53 107.61 56.61 106.46 57.15 106.84 57.53"/><path class="do_cls-5" d="M101.84,68.72c-.12-.44-.32-1-.42-1.43l0-.06c-.08-.29-.2-.6-.31-1a5.43,5.43,0,0,1-.17-.68c-.06.26-.11.49-.14.69a12.87,12.87,0,0,1,.5,1.89c0,.23.08.5.13.78l.15.16h0c.14.13.27.22.33.15a.16.16,0,0,0,0-.08A1.7,1.7,0,0,0,101.84,68.72Z"/><path class="do_cls-5" d="M101.41,69c-.05-.28-.1-.55-.13-.78a12.87,12.87,0,0,0-.5-1.89c0,.07,0,.15,0,.21-.11.95.27,3.39.19,4l0,.09.67,0h.19s-.09-.36-.19-.83c0-.21-.1-.44-.14-.68Z"/><path class="do_cls-1" d="M100.11,70.27c-.07-1.26-.34-2.79-.34-3.45a7.75,7.75,0,0,1,.37-2.09,6.74,6.74,0,0,0-1.08,3.35,22,22,0,0,0,.08,2.68c.27.42.92,1.76.92,1.76A14.38,14.38,0,0,0,100.11,70.27Z"/><path class="do_cls-6" d="M99.07,68.08a6.74,6.74,0,0,1,1.08-3.35l.05-.19a1,1,0,0,0-.65.19l-.23.39c-.18.31-.38.69-.57,1.09a9.1,9.1,0,0,0-.47,1.19,3.09,3.09,0,0,0-.15.85,3.28,3.28,0,0,0,.06.59,3.1,3.1,0,0,0,.13.48,3.67,3.67,0,0,0,.24.55,10.54,10.54,0,0,0,.6.9A22,22,0,0,1,99.07,68.08Z"/><path class="do_cls-5" d="M100.21,64.53h0l-.05.19a7.75,7.75,0,0,0-.37,2.09c0,.66.26,2.19.34,3.45a14.38,14.38,0,0,1,0,2.25,11.73,11.73,0,0,0,.84-2l0-.09c.08-.58-.3-3-.19-4,0-.06,0-.14,0-.21s.08-.44.14-.69l.09-.34C100.92,65.08,100.63,64.55,100.21,64.53Z"/><path class="do_cls-5" d="M101.29,64.25l.12-.4-.36.18A1.11,1.11,0,0,1,101.29,64.25Z"/><path class="do_cls-5" d="M101.29,64.25a1.11,1.11,0,0,0-.24-.22l-.19.1a1.42,1.42,0,0,0-.66,0c-.3.1-.77.3-.77.3l-.1-.25a1.68,1.68,0,0,0,.09.6l.13-.1a1,1,0,0,1,.65-.19h0c.42,0,.72.55.8.73l0,.06a1.13,1.13,0,0,0,.32-.5,1.12,1.12,0,0,0,.06-.23A.47.47,0,0,0,101.29,64.25Z"/><path class="do_cls-7" d="M98.38,61.76l1,2.45.1.25s.47-.2.77-.3a1.42,1.42,0,0,1,.66,0l.19-.1.36-.18.18-.08a3.28,3.28,0,0,1,.75-.09l.07-.11-.22-.12a2.45,2.45,0,0,0-.54.08c-.24.09-.73.35-.73.35a1.4,1.4,0,0,0-.66,0c-.3.1-.77.3-.77.3l-1-2.64h-.06Z"/><path class="do_cls-1" d="M98.5,61.49h0l0,0,0,.06,1,2.64s.46-.2.77-.3a1.4,1.4,0,0,1,.66,0s.49-.26.73-.35a2.45,2.45,0,0,1,.54-.08h.22l-.72-2h0l-.23-.64-.1-.29a4,4,0,0,0-.74.16,1.39,1.39,0,0,0-.26.15,4.39,4.39,0,0,0-.37.3h-.23a1.62,1.62,0,0,0-.6.06l-.1,0A2,2,0,0,0,98.5,61.49Z"/><path class="do_cls-8" d="M99.4,79.17c-.14.25-1,.24-1.32.08-.71.49-1.43.93-1.53,1l.79.42a4.55,4.55,0,0,1,1-.35c.31,0,.89-.65,1.37-1.08a.56.56,0,0,1-.32-.13Z"/><path class="do_cls-8" d="M113.95,59.75c-.15,0,.65-1.62.72-1.83s.36-.84.36-.84-.58.21-.72.49-.79,1.62-.79,1.62.14-.77.14-.91.07-1.62.07-1.62-.22,0-.29.35-.36,1.2-.36,1.2l-.3-1.46-.06-.3-.13.38-.52,1.45-.72-1.55s.07,1.62.07,1.76-.43-.7-.58-.92l-.65-.91s.21.84.29,1.34.65,1.83.72,2.11-1.37-1.69-1.37-1.69l.21,1.2h-.29c-.21,0-.87,1.13-.87,1.13s.5-.63.87-.56S110.93,62,110.93,62l-.38-.31v.49s-.27-.4-.34-.54-.38-.8-.38-.8a7.17,7.17,0,0,0,0,1.27c.07.14-.36-.42-.36-.42a4.67,4.67,0,0,0,.22.91,2.08,2.08,0,0,1,0,1l-.58-1.06.42,2.35c-.07-.2-.38-.94-.56-.94s-.44,1-.61,1.42c.17-.21.45-.51.54-.51a7.59,7.59,0,0,1,.73,2c-.13-.21-.87-1.27-.87-1.27a11.25,11.25,0,0,0,.29,1.27,8,8,0,0,1,.22,1.9c-.07-.21-.65-2-.65-2v1.55l-.37-.11-.35-.11a15.56,15.56,0,0,0-.09,3.34.21.21,0,0,0,0,0c0,.38,0,.64,0,.64a2.94,2.94,0,0,0-.15-.47l0,0a.67.67,0,0,0-.19-.27c-.13-.09-.24.36-.34.77l0,.09a2,2,0,0,1-.15.48c-.07.1-.17-.05-.27-.24l0-.08c-.1-.18-.2-.35-.26-.32a2.75,2.75,0,0,1-.14.45l0,.08a7.15,7.15,0,0,1-.48,1v-1.2l-.16.22,0,0a7.49,7.49,0,0,0-.61.94,5.36,5.36,0,0,1,.11-.95v0l.11-.71-.32.71v0c-.17.36-.35.74-.42.84a5.13,5.13,0,0,1,0-.85v0c0-.2,0-.4,0-.54s-.15.22-.28.54v0c-.07.16-.13.29-.16.23l-.11-.23h0c-.12-.23-.24-.41-.47-.41,0,.15,0,.29,0,.41h0a3.4,3.4,0,0,1-.23,2,2.37,2.37,0,0,1-.21.37c4.32.31,6.51,1.09,6.86,1.88l1,.07c.22,0-1.08-.63-1.08-.63l1.37.16c-.11-.16-.88-.65-1-.79a2.5,2.5,0,0,1,.74.21,1.47,1.47,0,0,1,.36.35c.14.21.22.77.36.92s.36-.84.36-1.06-.51-.49-.51-.49l1.08.35-.58-.84,1.08.21-.65-.7a3.38,3.38,0,0,1,.79.21A5.85,5.85,0,0,0,114,75a5.47,5.47,0,0,0-.29-.49,5.93,5.93,0,0,0-.8-.7h.22c.22,0,1.52.28,1.52.28l-1.23-.92,1.44.14a1.34,1.34,0,0,0-.43-.28,5.88,5.88,0,0,1-.87-.56l.94.07a.61.61,0,0,0-.32-.26,2.9,2.9,0,0,0-1-.21,7.54,7.54,0,0,1,.92-.09c.36,0,2,.35,2,.35a6.85,6.85,0,0,0-.87-.51l-1.16-.4,1.3-.21-1.95-.21a1.12,1.12,0,0,1,.51-.21c.22,0,2-.28,2-.28s-1.37-.21-1.66-.21-1.35.06-1.57.06c.3-.15.61-.32,1-.5s2.35-.76,2.35-.76l-1.37-.14a2.88,2.88,0,0,0,1.19-.46c.44-.35,1.26-.88,1.26-.88s-.79.28-1.08.42a8.11,8.11,0,0,1-1.37.14l-1.59.28a20.11,20.11,0,0,1,1.81-1c.14,0,.79.35.94.35s-.36-1.27-.65-1.27a7.86,7.86,0,0,0-1.59.7,11.2,11.2,0,0,1,1.8-2.32,14,14,0,0,1,1.44.63,9.63,9.63,0,0,0-1.23-1.2c-.22-.07-1.66,1.06-1.66,1.06l2.09-2.18-1.52.92.36-.92a5,5,0,0,1-.87.78c-.29.14.79-1.41.94-1.48a9.69,9.69,0,0,1,1.23-.14,3.63,3.63,0,0,0-.9-.23,4.4,4.4,0,0,0-1.19.58l1.08-1.34a5.71,5.71,0,0,1-1.08.42c-.22,0,1.37-1.41,1.37-1.41s-1.09.63-1.23.7.22-.79.22-.79a7.18,7.18,0,0,1-1.3,1.14c-.29.07,1.44-1.83,1.66-1.83s.79.35.94.28-.51-1-.87-1S114.09,59.75,113.95,59.75Z"/><path class="do_cls-8" d="M100,77.51l.3.32.29.08a3.07,3.07,0,0,1,.82-.21l.8-.78-1.65,0Z"/><path class="do_cls-8" d="M108.23,65.51h0a.5.5,0,0,0,.11-.2,1,1,0,0,0-.12.17S108.23,65.51,108.23,65.51Z"/><path class="do_cls-8" d="M99.4,78a1.06,1.06,0,0,1,.54-.16,1.32,1.32,0,0,1,.39,0l-.3-.32-.55-.61-1.29,0,.88.89.32.11Z"/><path class="do_cls-8" d="M100.62,79.15v-.07l-.14.06a11.08,11.08,0,0,0,2.25,1.6l.59-.79c-.59-.32-.63-.31-1.35-.74h0C101.64,79.39,100.77,79.41,100.62,79.15Z"/><path class="do_cls-8" d="M97.56,74.6a2.08,2.08,0,0,0,.38-.89,4.19,4.19,0,0,0-.07-.94l-.11-.23,0,0c-.17-.34-.44-.84-.44-.84s-.25.46-.43.84a1.86,1.86,0,0,0-.17.47c0,.11-.37-.17-.75-.47a6.39,6.39,0,0,0-.77-.58c-.06,0,.07.31.19.58a2.22,2.22,0,0,1,.14.37c0,.11-.38.05-.59.05a3.49,3.49,0,0,1-.7-.16,2.52,2.52,0,0,0,.22.68,2.64,2.64,0,0,1,.16,1,6.74,6.74,0,0,1-1.46-.05L94.33,74a1.62,1.62,0,0,0-.54-.16,5.82,5.82,0,0,1-1-.26,3.64,3.64,0,0,0,.59-.32,1.77,1.77,0,0,0,.62-.82,2.62,2.62,0,0,0,.1-.26,2.64,2.64,0,0,0-.43-1.45,4.48,4.48,0,0,0-.62.79,9.15,9.15,0,0,0-.54-1.37,1.51,1.51,0,0,0-.52.49,1,1,0,0,0-.06-.11,5.7,5.7,0,0,0-.51-.69,3.2,3.2,0,0,1-.14.63,5.49,5.49,0,0,0-.65,1.37A3.72,3.72,0,0,0,91,73.4a.31.31,0,0,1,.17-.06.39.39,0,1,1-.34.39.43.43,0,0,1,0-.11,4.39,4.39,0,0,1-.4-.45,2.35,2.35,0,0,1,0-1.05,7.62,7.62,0,0,0-.05-1.58,2.78,2.78,0,0,0-.54-.68,1,1,0,0,1-.16.68,2.14,2.14,0,0,0-.38.58.8.8,0,0,1-.16-.37c0-.16.11-.58.21-.63s1.4-.84,1.67-1.05.38-1.05.38-1.21.23-.31.43-.5l.32-.29-.32.08-1,.24a4.4,4.4,0,0,0-.81.47l-.16-.79A11.59,11.59,0,0,1,89,68a3.23,3.23,0,0,0-.55,1,.39.39,0,1,1-.34.39.37.37,0,0,1,.34-.39,1.88,1.88,0,0,1,.21-.84c.22-.32,1-1.21,1.13-1.37s1.08-.53,1.24-.68.54-1.16.65-1.26a2.28,2.28,0,0,0,.27-.53s-.32-.21-.48-.11a4.31,4.31,0,0,1-.7.26,2.94,2.94,0,0,0-.05-.53c-.05-.26-.16-.74-.16-.74l-1,.89a2.86,2.86,0,0,1,.11-.89c.11-.11,1.51-1.42,1.62-1.63a14.52,14.52,0,0,0,.05-2.16,6.62,6.62,0,0,1,.21-.74,8.3,8.3,0,0,1-.81.42c-.27.11-.54.58-.54.58l-.38-1.1a9.7,9.7,0,0,1-.27,1,3.5,3.5,0,0,1-.59.74L88,59.93s-.11,1.73-.05,2,.65.79.7,1a.57.57,0,0,1-.38.58c-.21.05-.48-.26-.48-.26s-.05-.68-.11-.95a2.34,2.34,0,0,0-.32-.6l-.08,0a.37.37,0,0,1-.34-.39.39.39,0,0,1,.22-.36,2.25,2.25,0,0,1,.26-.77,5.75,5.75,0,0,1,1-.68c.16-.05.32-.74.48-.89a2.3,2.3,0,0,1,.59-.32s-.27-.21-.38-.21L88.5,58v-.68a3.14,3.14,0,0,0-.38-.74l-.86,1.26-.43-.68A4.37,4.37,0,0,0,86,58.88a5.92,5.92,0,0,0,.49,1.63.32.32,0,0,1,.26-.14.39.39,0,0,1,0,.78.35.35,0,0,1-.33-.32c-.11,0-.23-.07-.26-.12a2.45,2.45,0,0,0-.38-.37s-.05.63-.05.95a3.63,3.63,0,0,0,.32,1H85.7A19.48,19.48,0,0,0,86.78,64a4.84,4.84,0,0,0,.86.53,8.62,8.62,0,0,0,.22,1c.11.32,1,1.05,1,1.05l-.38.68a3.28,3.28,0,0,0-.43-.63,3.28,3.28,0,0,1-.43-.63s-.05.42-.11.68.32.95.32,1.26v1.26a11.21,11.21,0,0,1-.65-1.37c0-.16.11-1.89.11-2a6.08,6.08,0,0,0-.38-1.05,2.52,2.52,0,0,1-.11-.47,1.44,1.44,0,0,0-.38.21,2,2,0,0,0-.16.68l-.65-.84-.05.37s-.32-.37-.54-.37-.59-.63-.59-.63a2,2,0,0,0-.11.79c.05.32.16.84.16.84h-.86a.93.93,0,0,1,.43.47,11.44,11.44,0,0,0,.75,2,4.53,4.53,0,0,0,1.62.67.34.34,0,0,1,.3-.22.37.37,0,0,1,.34.39.44.44,0,0,1,0,.19,4,4,0,0,1,.37,1,6.24,6.24,0,0,0-.86-.47c-.11,0,.11.37.11.53a2,2,0,0,0,.27.58,4,4,0,0,0-1-.31H84.83a6.86,6.86,0,0,0,.27.74,2.44,2.44,0,0,0,.54.53l-.32.58c-.05.11-.22.89-.22.89l.59-.05a.54.54,0,0,0-.27.32,2.48,2.48,0,0,0,.11.79s.54-.58.92-.58A7.52,7.52,0,0,0,88,73.12c.38-.11.86-1.1.86-.89a1.13,1.13,0,0,0,.27.48.35.35,0,0,1,.33-.3.39.39,0,0,1,0,.78.33.33,0,0,1-.29-.19,4.81,4.81,0,0,1-.64.12,4.23,4.23,0,0,0-.81.32l.65.31-.76.21a1.84,1.84,0,0,0-.86.68c-.21.26-.27.63-.43.68a8.81,8.81,0,0,0,1.19,0,1.33,1.33,0,0,0-.21.47c0,.16.11.74.11.74a6.05,6.05,0,0,1,.75-.63c.27-.16,1.46-.26,1.73-.37a4.75,4.75,0,0,0,.92-.89l1.57-.05c.11,0-.59.42-.87.84a1.8,1.8,0,0,0-.17.38,17.17,17.17,0,0,1,6.35-1.1ZM89.27,64.13a.39.39,0,1,1-.34.39A.37.37,0,0,1,89.27,64.13Zm-.69.37a.39.39,0,1,1,.34-.39A.37.37,0,0,1,88.59,64.5Zm3.55,9.59a.39.39,0,1,1,.34-.39A.37.37,0,0,1,92.13,74.09Zm2.82.63a.39.39,0,1,1,.34-.39A.37.37,0,0,1,95,74.72Z"/><path class="do_cls-5" d="M86.72,61.15a.39.39,0,0,0,0-.78.32.32,0,0,0-.26.14.41.41,0,0,0-.08.25.47.47,0,0,0,0,.07A.35.35,0,0,0,86.72,61.15Z"/><path class="do_cls-5" d="M86.95,61.32a.37.37,0,0,0,.34.39l.08,0a.38.38,0,0,0,.26-.37.37.37,0,0,0-.34-.39l-.12,0A.39.39,0,0,0,86.95,61.32Z"/><ellipse class="do_cls-5" cx="88.59" cy="64.11" rx="0.34" ry="0.39"/><ellipse class="do_cls-5" cx="89.27" cy="64.52" rx="0.34" ry="0.39"/><path class="do_cls-5" d="M86.76,68.21a.34.34,0,0,0-.3.22.42.42,0,0,0,0,.17.37.37,0,0,0,.34.39.34.34,0,0,0,.29-.2.44.44,0,0,0,0-.19A.37.37,0,0,0,86.76,68.21Z"/><path class="do_cls-5" d="M88.4,69.08a.39.39,0,1,0,.38.38.37.37,0,0,0-.38-.38h0Z"/><path class="do_cls-5" d="M89.43,73.2a.39.39,0,0,0,0-.78.35.35,0,0,0-.33.3.36.36,0,0,0,0,.09.41.41,0,0,0,.06.2A.33.33,0,0,0,89.43,73.2Z"/><path class="do_cls-5" d="M90.89,73.62a.43.43,0,0,0,0,.11.35.35,0,1,0,.34-.39.31.31,0,0,0-.17.06A.38.38,0,0,0,90.89,73.62Z"/><ellipse class="do_cls-5" cx="92.13" cy="73.7" rx="0.34" ry="0.39"/><ellipse class="do_cls-5" cx="94.96" cy="74.33" rx="0.34" ry="0.39"/><path class="do_cls-5" d="M111.78,79.07c0-.53-.35-.81-.69-.74s-.86.3-1.48.52a2.56,2.56,0,0,0-.17.61c0,.32.58.56,1,.6s1.55,0,1.91.07.87.63.87.63a9.62,9.62,0,0,1,1.55-1.62,3.18,3.18,0,0,0-2.57-.73A2.51,2.51,0,0,1,111.78,79.07Z"/><path class="do_cls-5" d="M108.42,78.57c-.47,0-.72-.65-1.72-.55a1.19,1.19,0,0,1,.18-.16c-.21.13-.37.27-.37.39,0,.39,1,1,1.66,1a6.77,6.77,0,0,0,1.44-.4c.63-.22,1.24-.46,1.48-.52s.69.21.69.74a2.51,2.51,0,0,0,.46-.66,1.55,1.55,0,0,0,.19-.5c0-.39-.44-.88-1.23-.88a4.68,4.68,0,0,0-1.45.35A1.64,1.64,0,0,1,108.42,78.57Z"/><path class="do_cls-5" d="M88.31,79.07a2.5,2.5,0,0,1-.46-.66,3.19,3.19,0,0,0-2.58.73,9.57,9.57,0,0,1,1.55,1.62s.51-.6.87-.63,1.45,0,1.91-.07,1-.28,1-.6a2.57,2.57,0,0,0-.17-.61c-.62-.22-1.24-.46-1.49-.52S88.31,78.54,88.31,79.07Z"/><path class="do_cls-5" d="M91.53,78.64a1.74,1.74,0,0,1-1.28-1.3A4.5,4.5,0,0,0,88.89,77c-.79,0-1.26.49-1.23.88a1.51,1.51,0,0,0,.19.5,2.5,2.5,0,0,0,.46.66c0-.53.35-.81.68-.74s.86.3,1.49.52a6.79,6.79,0,0,0,1.44.4c.61,0,1.66-.6,1.66-1,0-.14-.2-.3-.45-.44C93.11,78.07,92,78.64,91.53,78.64Z"/><path class="do_cls-5" d="M108.5,76.6c0-.11,0-.2,0-.27a1.8,1.8,0,0,1-.14.2l-.24.29.29.14Z"/><path class="do_cls-5" d="M100.69,75.86a.65.65,0,0,0-.05-.29.28.28,0,0,0-.12-.14.41.41,0,0,0-.17,0h-.21v.92h.21l.15,0a.23.23,0,0,0,.09-.06.43.43,0,0,0,.07-.15A.91.91,0,0,0,100.69,75.86Z"/><path class="do_cls-5" d="M98.88,75.62l-.07-.26a2,2,0,0,1-.05.24l-.11.36H99Z"/><path class="do_cls-5" d="M101.7,75.59a.41.41,0,0,0-.1-.17.22.22,0,0,0-.15-.06.25.25,0,0,0-.21.12.69.69,0,0,0-.09.4.66.66,0,0,0,.08.35.24.24,0,0,0,.42,0,.69.69,0,0,0,.08-.37A.89.89,0,0,0,101.7,75.59Z"/><path class="do_cls-5" d="M106.5,76c0-.11,0-.2,0-.27l-.1.22-.18.34.32.07Z"/><path class="do_cls-5" d="M102.91,74.83c-.83-.06-1.73-.11-2.72-.13s-1.77,0-2.55,0a17.17,17.17,0,0,0-6.35,1.1c-.74.35-1.09.73-1.11,1.07a1.52,1.52,0,0,0,.06.46,1.74,1.74,0,0,0,1.28,1.3c.46,0,1.58-.58,1.6-.83,0,0,0,0,0,0-.19-.11-.21-.24-.09-.31a25.77,25.77,0,0,1,5.15-.56l1.29,0h1.13l1.65,0c3.21.11,5,.44,5,.57s-.18.23-.38.38a1.19,1.19,0,0,0-.18.16c1-.1,1.25.52,1.72.55a1.64,1.64,0,0,0,1.33-1.2,1.62,1.62,0,0,0,.08-.42.57.57,0,0,0-.06-.25C109.42,75.92,107.23,75.14,102.91,74.83ZM91.53,76.18a.44.44,0,0,1,.19,0,.23.23,0,0,1,.14.06.41.41,0,0,1,.11.15.37.37,0,0,1,0,.23.32.32,0,0,1-.14.19l.09,0,.16.11.28.24-.15.06L92,77l-.15-.12-.09,0h-.06l-.07,0-.14.06.21.5-.12,0-.47-1.12Zm1,.9L92.14,76l.65-.22,0,.13-.54.18.12.34.5-.17,0,.13-.5.17.13.38.56-.18,0,.13Zm.9-.27-.26-1.16.37-.08.15,0a.26.26,0,0,1,.13,0,.29.29,0,0,1,.11.1.43.43,0,0,1,.06.15.4.4,0,0,1,0,.27.34.34,0,0,1-.26.16l-.25.05.11.47Zm1.44-.21a.4.4,0,0,1-.24.09.43.43,0,0,1-.24,0,.32.32,0,0,1-.15-.16,1,1,0,0,1-.07-.3l-.06-.7h.14l.06.7a.89.89,0,0,0,0,.23.22.22,0,0,0,.1.11.26.26,0,0,0,.15,0,.26.26,0,0,0,.21-.1.52.52,0,0,0,0-.31l-.06-.7h.14l.06.7a1,1,0,0,1,0,.29A.35.35,0,0,1,94.86,76.6Zm1-.15a.25.25,0,0,1-.1.07l-.15,0-.36,0-.07-1.18.35,0a.35.35,0,0,1,.18,0,.23.23,0,0,1,.11.1.31.31,0,0,1,0,.15.3.3,0,0,1,0,.14.25.25,0,0,1-.09.12.24.24,0,0,1,.14.1.33.33,0,0,1,.06.18.42.42,0,0,1,0,.16A.26.26,0,0,1,95.87,76.45Zm.94,0h-.61V75.31h.13v1h.48Zm.25,0V75.26h.15v1.21Zm1-.06a.29.29,0,0,1-.23.11.32.32,0,0,1-.23-.08.52.52,0,0,1-.13-.24,1.21,1.21,0,0,1,0-.33,1,1,0,0,1,.05-.34.47.47,0,0,1,.15-.22.33.33,0,0,1,.21-.08.28.28,0,0,1,.22.09.52.52,0,0,1,.12.27l-.11,0a.39.39,0,0,0-.09-.2.19.19,0,0,0-.14-.06.22.22,0,0,0-.17.07.37.37,0,0,0-.09.18,1,1,0,0,0,0,.24,1.06,1.06,0,0,0,0,.28.35.35,0,0,0,.1.18.23.23,0,0,0,.15.06A.21.21,0,0,0,98,76.3a.47.47,0,0,0,.09-.24l.12,0A.64.64,0,0,1,98.11,76.41Zm.4.06h-.13l.37-1.23h.14l.39,1.23h-.14L99,76.1h-.4Zm1.86,0H100V75.26h.34l.17,0a.3.3,0,0,1,.14.09.49.49,0,0,1,.12.21,1,1,0,0,1,0,.29,1,1,0,0,1,0,.24.66.66,0,0,1-.07.18.42.42,0,0,1-.09.11l-.12.06Zm1.43-.28a.48.48,0,0,1-.15.23.34.34,0,0,1-.21.08.31.31,0,0,1-.22-.08.5.5,0,0,1-.14-.23,1,1,0,0,1,0-.31.87.87,0,0,1,.11-.48.34.34,0,0,1,.3-.17.32.32,0,0,1,.21.08.53.53,0,0,1,.15.23,1.08,1.08,0,0,1,0,.33A1,1,0,0,1,101.8,76.19Zm1.12.25v-1l-.3,1h-.12l-.3-1v1h-.13V75.31h.21l.25.8.05.17.05-.18.25-.79h.19v1.13Zm.34,0V75.34h.14V76.5Zm1,0-.46-.91v.91h-.11V75.36h.12l.46.91v-.91h.11v1.16Zm.44,0V75.41h.14v1.11Zm.71.2a.39.39,0,0,1-.24-.11.49.49,0,0,1-.12-.25,1.06,1.06,0,0,1,0-.34.94.94,0,0,1,.09-.33.49.49,0,0,1,.18-.2.39.39,0,0,1,.24-.05.32.32,0,0,1,.23.12.53.53,0,0,1,.11.28l-.13,0a.42.42,0,0,0-.08-.21.21.21,0,0,0-.15-.08.26.26,0,0,0-.19,0,.4.4,0,0,0-.12.17,1,1,0,0,0-.05.23,1.07,1.07,0,0,0,0,.28.35.35,0,0,0,.09.19.26.26,0,0,0,.16.07.23.23,0,0,0,.19-.06.45.45,0,0,0,.12-.22l.12.05a.57.57,0,0,1-.18.29A.34.34,0,0,1,105.38,76.72Zm1.19.16,0-.4-.4-.09-.18.35-.14,0,.63-1.15.14,0,.13,1.32Zm.28.1.25-1.22.13,0,.3,1.07.2-1,.12,0-.26,1.22-.13,0-.3-1.07-.2,1Zm1.66.59-.13-.06,0-.4-.36-.18-.24.3-.12-.06.82-1,.12.06Z"/><path class="do_cls-5" d="M91.72,76.69a.34.34,0,0,0,.12-.08.15.15,0,0,0,0-.1.28.28,0,0,0,0-.11.21.21,0,0,0-.1-.11.19.19,0,0,0-.16,0l-.28.12.15.37Z"/><path class="do_cls-5" d="M95.55,75.86l.12,0a.14.14,0,0,0,.07-.06.22.22,0,0,0,0-.1.21.21,0,0,0,0-.1.13.13,0,0,0-.07-.06h-.33l0,.36Z"/><path class="do_cls-5" d="M93.67,76.12a.24.24,0,0,0,.17-.09.22.22,0,0,0,0-.17.25.25,0,0,0-.06-.12.15.15,0,0,0-.1-.05h-.12l-.25.05.09.42Z"/><path class="do_cls-5" d="M95.83,76.19a.25.25,0,0,0,0-.11.16.16,0,0,0-.08-.06h-.36l0,.41h.31l.07,0a.14.14,0,0,0,0-.07A.24.24,0,0,0,95.83,76.19Z"/><polygon class="do_cls-4" points="92.6 76.91 92.47 76.53 92.97 76.37 92.92 76.24 92.42 76.4 92.31 76.06 92.84 75.89 92.8 75.75 92.14 75.97 92.53 77.08 93.2 76.86 93.16 76.73 92.6 76.91"/><path class="do_cls-4" d="M95,76.13l-.06-.7h-.14l.06.7a.52.52,0,0,1,0,.31.26.26,0,0,1-.21.1.26.26,0,0,1-.15,0,.22.22,0,0,1-.1-.11.89.89,0,0,1,0-.23l-.06-.7h-.14l.06.7a1,1,0,0,0,.07.3.32.32,0,0,0,.15.16.43.43,0,0,0,.24,0,.4.4,0,0,0,.24-.09.35.35,0,0,0,.11-.18A1,1,0,0,0,95,76.13Z"/><polygon class="do_cls-4" points="96.34 75.31 96.21 75.31 96.21 76.47 96.82 76.47 96.82 76.33 96.34 76.33 96.34 75.31"/><rect class="do_cls-4" x="97.06" y="75.26" width="0.15" height="1.21"/><path class="do_cls-4" d="M98,76.3a.21.21,0,0,1-.16.08.23.23,0,0,1-.15-.06.35.35,0,0,1-.1-.18,1.06,1.06,0,0,1,0-.28,1,1,0,0,1,0-.24.37.37,0,0,1,.09-.18.22.22,0,0,1,.17-.07.19.19,0,0,1,.14.06.39.39,0,0,1,.09.2l.11,0a.52.52,0,0,0-.12-.27.28.28,0,0,0-.22-.09.33.33,0,0,0-.21.08.47.47,0,0,0-.15.22,1,1,0,0,0-.05.34,1.21,1.21,0,0,0,0,.33.52.52,0,0,0,.13.24.32.32,0,0,0,.23.08.29.29,0,0,0,.23-.11.64.64,0,0,0,.13-.31l-.12,0A.47.47,0,0,1,98,76.3Z"/><path class="do_cls-4" d="M103.05,75.31h-.19l-.25.79-.05.18-.05-.17-.25-.8h-.21v1.13h.13v-1l.3,1h.12l.3-1v1h.13Z"/><rect class="do_cls-4" x="103.26" y="75.34" width="0.14" height="1.16"/><polygon class="do_cls-4" points="104.35 75.36 104.24 75.36 104.24 76.27 103.78 75.36 103.66 75.36 103.66 76.52 103.77 76.52 103.77 75.61 104.23 76.52 104.35 76.52 104.35 75.36"/><rect class="do_cls-4" x="104.67" y="75.41" width="0.14" height="1.11"/><path class="do_cls-4" d="M105.81,76.34l-.12-.05a.45.45,0,0,1-.12.22.23.23,0,0,1-.19.06.26.26,0,0,1-.16-.07.35.35,0,0,1-.09-.19,1.07,1.07,0,0,1,0-.28,1,1,0,0,1,.05-.23.4.4,0,0,1,.12-.17.26.26,0,0,1,.19,0,.21.21,0,0,1,.15.08.42.42,0,0,1,.08.21l.13,0a.53.53,0,0,0-.11-.28.32.32,0,0,0-.23-.12.39.39,0,0,0-.24.05.49.49,0,0,0-.18.2A.94.94,0,0,0,105,76a1.06,1.06,0,0,0,0,.34.49.49,0,0,0,.12.25.39.39,0,0,0,.24.11.34.34,0,0,0,.26-.08A.57.57,0,0,0,105.81,76.34Z"/><polygon class="do_cls-4" points="107.18 76.05 107.47 77.11 107.6 77.14 107.86 75.93 107.74 75.9 107.54 76.86 107.24 75.79 107.11 75.76 106.86 76.98 106.98 77 107.18 76.05"/><path class="do_cls-4" d="M91.61,77.47l.12,0-.21-.5.14-.06.07,0h.06l.09,0L92,77l.21.18.15-.06-.28-.24-.16-.11-.09,0a.32.32,0,0,0,.14-.19.37.37,0,0,0,0-.23.41.41,0,0,0-.11-.15.23.23,0,0,0-.14-.06.44.44,0,0,0-.19,0l-.39.17Zm0-1.17a.19.19,0,0,1,.16,0,.21.21,0,0,1,.1.11.28.28,0,0,1,0,.11.15.15,0,0,1,0,.1.34.34,0,0,1-.12.08l-.25.11-.15-.37Z"/><path class="do_cls-4" d="M93.45,76.31l.25-.05A.34.34,0,0,0,94,76.1a.4.4,0,0,0,0-.27.43.43,0,0,0-.06-.15.29.29,0,0,0-.11-.1.26.26,0,0,0-.13,0l-.15,0-.37.08.26,1.16.13,0Zm.13-.6h.12a.15.15,0,0,1,.1.05.25.25,0,0,1,.06.12.22.22,0,0,1,0,.17.24.24,0,0,1-.17.09l-.25.05-.09-.42Z"/><path class="do_cls-4" d="M96,76.18A.33.33,0,0,0,95.9,76a.24.24,0,0,0-.14-.1.25.25,0,0,0,.09-.12.3.3,0,0,0,0-.14.31.31,0,0,0,0-.15.23.23,0,0,0-.11-.1.35.35,0,0,0-.18,0l-.35,0,.07,1.18.36,0,.15,0a.25.25,0,0,0,.1-.07.26.26,0,0,0,.06-.11A.42.42,0,0,0,96,76.18Zm-.44-.67h.14a.13.13,0,0,1,.07.06.21.21,0,0,1,0,.1.22.22,0,0,1,0,.1.14.14,0,0,1-.07.06l-.12,0h-.2l0-.36Zm.26.85-.07,0h-.31l0-.41h.36a.16.16,0,0,1,.08.06.25.25,0,0,1,0,.11.24.24,0,0,1,0,.1A.14.14,0,0,1,95.77,76.36Z"/><path class="do_cls-4" d="M99,76.1l.11.37h.14l-.39-1.23h-.14l-.37,1.23h.13l.11-.37Zm-.26-.5a2,2,0,0,0,.05-.24l.07.26L99,76h-.33Z"/><path class="do_cls-4" d="M100.73,76.28a.66.66,0,0,0,.07-.18,1,1,0,0,0,0-.24,1,1,0,0,0,0-.29.49.49,0,0,0-.12-.21.3.3,0,0,0-.14-.09l-.17,0H100v1.21h.35l.16,0,.12-.06A.42.42,0,0,0,100.73,76.28Zm-.22,0-.15,0h-.21V75.4h.21a.41.41,0,0,1,.17,0,.28.28,0,0,1,.12.14.65.65,0,0,1,.05.29.91.91,0,0,1,0,.23.43.43,0,0,1-.07.15A.23.23,0,0,1,100.51,76.31Z"/><path class="do_cls-4" d="M101.8,75.52a.53.53,0,0,0-.15-.23.32.32,0,0,0-.21-.08.34.34,0,0,0-.3.17.87.87,0,0,0-.11.48,1,1,0,0,0,0,.31.5.5,0,0,0,.14.23.31.31,0,0,0,.22.08.34.34,0,0,0,.21-.08.48.48,0,0,0,.15-.23,1,1,0,0,0,.05-.34A1.08,1.08,0,0,0,101.8,75.52Zm-.15.7a.24.24,0,0,1-.42,0,.66.66,0,0,1-.08-.35.69.69,0,0,1,.09-.4.25.25,0,0,1,.21-.12.22.22,0,0,1,.15.06.41.41,0,0,1,.1.17.89.89,0,0,1,0,.26A.69.69,0,0,1,101.65,76.22Z"/><path class="do_cls-4" d="M106.58,75.59l-.14,0-.63,1.15.14,0,.18-.35.4.09,0,.4.14,0Zm-.2.34.1-.22c0,.07,0,.16,0,.27l0,.37-.32-.07Z"/><path class="do_cls-4" d="M108.53,76.18l-.82,1,.12.06.24-.3.36.18,0,.4.13.06.14-1.32Zm-.37.64.24-.29a1.8,1.8,0,0,0,.14-.2c0,.07,0,.16,0,.27l0,.36Z"/><path class="do_cls-5" d="M102.14,78.43c0,.06,0,.24,0,.44a1.1,1.1,0,0,1,.31.07l.72.35.25-1.13a2.62,2.62,0,0,0-1.26-.24h0Z"/><path class="do_cls-5" d="M97.88,78.45l0-.47a2.73,2.73,0,0,0-1.16.25l.25,1.13.72-.35a.87.87,0,0,1,.22-.06C97.87,78.72,97.88,78.51,97.88,78.45Z"/><path class="do_cls-5" d="M100.62,79V77.9l-.29-.08a1.32,1.32,0,0,0-.39,0,1.06,1.06,0,0,0-.54.16v1.13a.56.56,0,0,0,.32.13,1.66,1.66,0,0,0,.29,0,1.26,1.26,0,0,0,.48-.09l.14-.06Z"/><path class="do_cls-5" d="M102.14,78.43l0,.53a.76.76,0,0,0-.54-.25,2.07,2.07,0,0,0-.94.32v.12c.15.26,1,.23,1.36.06.08,0,.13-.08.14-.13s0-.14,0-.21S102.14,78.49,102.14,78.43Z"/><path class="do_cls-5" d="M100.62,78.4V79a2.07,2.07,0,0,1,.94-.32.76.76,0,0,1,.54.25l0-.53,0-.49h0a.83.83,0,0,0-.53-.23h-.19a3.07,3.07,0,0,0-.82.21Z"/><path class="do_cls-5" d="M99.4,79.17V79a2.07,2.07,0,0,0-.94-.32.75.75,0,0,0-.54.25l0-.53c0,.06,0,.27,0,.49,0,.06,0,.12,0,.17s.08.11.18.15C98.43,79.41,99.25,79.42,99.4,79.17Z"/><path class="do_cls-5" d="M97.92,79a.75.75,0,0,1,.54-.25,2.07,2.07,0,0,1,.94.32V77.92l-.32-.11a1.89,1.89,0,0,0-.69-.1.84.84,0,0,0-.54.25v0l0,.47Z"/></g></g></svg>
