<svg xmlns="http://www.w3.org/2000/svg" viewBox="0 0 200 134"><defs><style>.dz_cls-1{fill:#fff;}.dz_cls-2{fill:#fafafa;}.dz_cls-3{fill:#1b874c;}.dz_cls-4{fill:#ec2f36;}</style></defs><title>Asset 5</title><g id="Layer_2" data-name="Layer 2"><g id="Layer_96" data-name="Layer 96"><polygon class="dz_cls-1" points="107.33 67 100 56.91 100 77.09 107.33 67"/><path class="dz_cls-2" d="M183,0H100V32.67a34.32,34.32,0,0,1,29.73,17.16,27.47,27.47,0,0,0-29.73-9V56.91l11.86,3.85,7.33-10.09V63.15L131.05,67l-11.86,3.85V83.32l-7.33-10.09L100,77.09V93.18a27.47,27.47,0,0,0,29.73-9A34.31,34.31,0,0,1,100,101.33V134h83a17,17,0,0,0,17-17V17A17,17,0,0,0,183,0Z"/><path class="dz_cls-3" d="M17,0A17,17,0,0,0,0,17V117a17,17,0,0,0,17,17h83V101.33a34.33,34.33,0,1,1,0-68.65V0Z"/><path class="dz_cls-3" d="M86.85,84.16a27.33,27.33,0,0,0,13.15,9V40.82A27.46,27.46,0,0,0,86.85,84.16Z"/><path class="dz_cls-4" d="M70.27,49.83a34.33,34.33,0,0,0,59.46,34.33,27.46,27.46,0,1,1,0-34.33,34.34,34.34,0,0,0-59.46,0Z"/><polygon class="dz_cls-4" points="119.19 63.15 119.19 50.67 111.86 60.76 100 56.91 107.33 67 100 77.09 111.86 73.24 119.19 83.33 119.19 70.85 131.05 67 119.19 63.15"/></g></g></svg>
