<svg xmlns="http://www.w3.org/2000/svg" viewBox="0 0 200 134"><defs><style>.eg_cls-1{fill:#ce2931;}.eg_cls-2{fill:#fff;}.eg_cls-3{fill:#121212;}.eg_cls-4{fill:#fbd118;}</style></defs><title>Asset 53</title><g id="Layer_2" data-name="Layer 2"><g id="Layer_48" data-name="Layer 48"><path class="eg_cls-1" d="M183,0H17A17,17,0,0,0,0,17V44.55H200V17A17,17,0,0,0,183,0Z"/><path class="eg_cls-2" d="M0,89.45H200V44.55H0Zm85.18-7.31V46.68h30.08V82.1h0V88H85.18V82.14Z"/><path class="eg_cls-3" d="M0,117a17,17,0,0,0,17,17H183a17,17,0,0,0,17-17V89.45H0Z"/><path class="eg_cls-2" d="M100,46.72a4,4,0,0,1,.53.13l.29,0a2.3,2.3,0,0,1,.73.26,2.61,2.61,0,0,1,1,1,1.74,1.74,0,0,1,.16.33s0,.07,0,.09a5.58,5.58,0,0,1,.28,2.17c0,.39-.07.75-.09,1.12a6.82,6.82,0,0,0,0,1.11,8.16,8.16,0,0,0,.82,3,4.79,4.79,0,0,0,.36.59c0,.06.1.16.14.17h.05a10.5,10.5,0,0,0,1.19-.13,7.81,7.81,0,0,0,2-.69c.3-.15.57-.34.87-.5a10.75,10.75,0,0,1,1.92-.82,4.06,4.06,0,0,1,2.34-.09A2.57,2.57,0,0,1,114.19,57c.07,1.12.09,2.37.15,3.54.08,1.61.12,3.17.2,4.79.12,2.38.18,4.86.3,7.23.13,2.81.22,5.51.35,8.38,0,.4,0,.81.06,1.21V46.67H99.41C99.59,46.7,99.79,46.69,100,46.72Z"/><path class="eg_cls-2" d="M114.63,82h-2.88a1.53,1.53,0,0,1-.1.38s0,.07-.05.11a2,2,0,0,0,.05.24c.56,0,.77.45,1,.78a.76.76,0,0,0,.34.26,1.13,1.13,0,0,0,.2,0,2,2,0,0,1,0,.26s-.13,0-.18,0-.14.28-.18.42a1.33,1.33,0,0,1-.73,1.05,1.21,1.21,0,0,1-.51,1.21A2.78,2.78,0,0,1,111,87a36.47,36.47,0,0,1-6.8.9c-1.09.07-2.07.07-3.19.1h14.26V82.22c-.06,0-.14-.16-.22-.17A2.1,2.1,0,0,0,114.63,82Z"/><path class="eg_cls-4" d="M110.22,59.19c.07,2.13.19,4.22.27,6.33.12,2.9.25,6,.38,8.86.06,1.23.1,2.37.15,3.65a1.06,1.06,0,0,0,0,.17.56.56,0,0,0,.12.11l1.39,1.21c.14.12.31.29.47.42s0,0,0,0a1.05,1.05,0,0,0,0-.18c-.08-1.42-.13-2.84-.2-4.24-.3-6.43-.57-12.78-.87-19.21l-.45.42c-.37.33-.76.65-1.14,1-.06.06-.2.15-.21.21a2,2,0,0,0,0,.31C110.2,58.56,110.21,58.88,110.22,59.19Z"/><path class="eg_cls-2" d="M111.37,83.09a1.21,1.21,0,0,0-.17-.79.53.53,0,0,0-.15-.07l-.3-.11a.56.56,0,0,0-.14-.07,1.74,1.74,0,0,0-.45,0,3.62,3.62,0,0,0-.39.11c-.93.23-2,.43-2.9.61-.11.35-.54.41-.54.85a2.44,2.44,0,0,1-.26,0c0-.33-.26-.35-.44-.48s-.11-.13-.15-.14a.88.88,0,0,0-.22,0l-.68.06a11.07,11.07,0,0,1-2.7-.05c-.13.35-.58.46-.79.74s-.06.36-.06.6a1.92,1.92,0,0,1-.53-1.48h-.57a1.88,1.88,0,0,1-.53,1.48,1.78,1.78,0,0,0,0-.51.75.75,0,0,0-.27-.28c-.21-.15-.46-.27-.56-.53a8.35,8.35,0,0,1-1.84.1c-.58,0-1.21-.06-1.76-.13a1,1,0,0,1-.24.19c-.18.1-.36.15-.35.43a2.14,2.14,0,0,1-.26,0c0-.46-.43-.48-.53-.84-.95-.18-2-.38-2.9-.61a3.22,3.22,0,0,0-.4-.11,1.36,1.36,0,0,0-.47,0l-.55.23a1.29,1.29,0,0,0-.18.8,1.08,1.08,0,0,0-.35,0c-.26,0-.43.27-.58.45a2.2,2.2,0,0,1-.51.53,4.72,4.72,0,0,1,.29.85.89.89,0,0,0,.62.52,2.44,2.44,0,0,0,.08.82.76.76,0,0,0,.48.42c.22.08.46.13.71.19a25.64,25.64,0,0,0,3.86.62c2.18.2,4.17.3,6.54.3,1.17,0,2.3,0,3.31-.07s2.18-.13,3.26-.23a26,26,0,0,0,3.86-.62c.5-.13,1-.18,1.18-.63a2.49,2.49,0,0,0,.07-.81.85.85,0,0,0,.62-.51,5.14,5.14,0,0,1,.29-.86c-.39-.18-.57-.83-1-1A.91.91,0,0,0,111.37,83.09Zm-20.95-.28c.29-.05.58.2.39.46a.38.38,0,0,1-.51.07A.32.32,0,0,1,90.42,82.81Zm0,.67c.17,0,.29.07.27.24s-.56.24-.63,0S90.28,83.48,90.45,83.48Zm-.08,2.47c-.23-.09-.24-.54.06-.58S90.8,86.1,90.38,85.95Zm.88.18c-.21.08-.56-.07-.48-.36a.34.34,0,0,1,.34-.22.49.49,0,0,1,.14,0A.33.33,0,0,1,91.26,86.13Zm.48.15c-.23-.1-.2-.55.09-.58a.33.33,0,0,1,.4.3A.36.36,0,0,1,91.74,86.28Zm.3-.65c-.23-.07-.45-.1-.58-.26a.52.52,0,0,1-.36,0,3.84,3.84,0,0,1-.46-.15c-.2-.1-.49-.27-.47-.56s.27-.35.5-.42c.13-.42.24-.87.36-1.3l.25.07c-.14.48-.25,1-.44,1.51a1.4,1.4,0,0,0-.08.19.46.46,0,0,0,.14.33,3.8,3.8,0,0,0,.46.13s0-.09,0-.14,0-.09,0-.13a2.62,2.62,0,0,0,.09-.25c0-.14,0-.39.21-.36s.13.2.09.33l-.12.41a.86.86,0,0,0-.06.21c0,.08.2.13.3.15s.42.16.56,0a1.53,1.53,0,0,0,.2-.52s-.08.09-.12.09a.26.26,0,0,1,0-.4c.2-.09.37.09.36.32a1.73,1.73,0,0,1-.15.49A.58.58,0,0,1,92,85.63Zm4.37-.08a1.42,1.42,0,0,1-.34,1,.31.31,0,0,1-.25.09.3.3,0,0,1-.09,0,.64.64,0,0,1-.2-.06.54.54,0,0,1-.21-.48,3.27,3.27,0,0,1-.48-.33,1.7,1.7,0,0,1-1.28.11,1.16,1.16,0,0,1-.46.41,2.12,2.12,0,0,1-.12-.23.88.88,0,0,0,.36-.35.76.76,0,0,1-.1-.34c0-.15-.11-.29,0-.41s.3,0,.38.1a1,1,0,0,1,.11.26,1.26,1.26,0,0,1,0,.31,1.28,1.28,0,0,0,1-.06.68.68,0,0,1-.25-.48h-.12v-.26a.55.55,0,0,0,.16,0,.61.61,0,0,1,.75-.33.63.63,0,0,1,.34.52.37.37,0,0,0,.11,0v.27s-.1,0-.14,0a.59.59,0,0,1-.36.35,2.47,2.47,0,0,0,.47.3c0,.19,0,.39.13.44s.12,0,.17,0a.88.88,0,0,0,.22-.41,2,2,0,0,0,.05-.57V84.13h.27Zm.52.47a2.51,2.51,0,0,1-.27,0c0-.66.16-1.29.2-1.88h.25C97.1,84.77,96.94,85.39,96.93,86Zm4.78.22a.63.63,0,0,1-.31.07s-.07-.05-.12-.06-.31.05-.49.06c-.14.19-.12.53-.41.55a.41.41,0,0,1-.31-.13s-.15-.11-.16-.17,0-.09,0-.13-.13-.11-.23-.12c-.51,0-1.1.05-1.57,0a1.79,1.79,0,0,1-.7.87l-.16-.21a1.59,1.59,0,0,0,.6-.75c-.15-.14-.38-.27-.37-.55a.25.25,0,0,1,.37-.22.66.66,0,0,1,.29.4,1.24,1.24,0,0,1,0,.2.46.46,0,0,0,.25,0c.09,0,.13-.2.14-.33a.62.62,0,0,0,0-.15s-.11-.07-.13-.13a.26.26,0,0,1,.17-.36c.17,0,.23.1.24.27s.26,0,.42,0a.58.58,0,0,1,.12.06,2,2,0,0,0,.46.08,1,1,0,0,0,.7-.13c.35,0,.35.35.37.65a2.1,2.1,0,0,1,.35,0,.49.49,0,0,1,.28-.59.46.46,0,0,1,.58.5C102.05,86.06,101.88,86.16,101.7,86.23Zm.71-2.23c.35,0,.38.49.13.58S102.06,84,102.41,84Zm-.18.88c0-.15.16-.18.31-.2s.37.07.32.26S102.23,85.15,102.24,84.88ZM103,87c-.25-.09-.23-.61.07-.62S103.45,87.13,103,87Zm.86,0c-.26.09-.64-.22-.43-.49a.43.43,0,0,1,.34-.13.24.24,0,0,1,.2.09C104.12,86.61,104.09,86.93,103.91,87Zm.54-1.48c0,.28-.1.54-.33.6-.08,0-.17,0-.27,0a1.46,1.46,0,0,1-.29.06.41.41,0,0,1-.32-.14c-.12.23-.78.32-.75-.1a.82.82,0,0,1,.6-.34,3.8,3.8,0,0,0-.1-1.47l.24-.07a.39.39,0,0,1,.06.18,4,4,0,0,1,.06,1.41s.06,0,.08.08a.22.22,0,0,0,0,.13c.07.11.24,0,.34,0s.21,0,.27,0,.09-.19.1-.31a.87.87,0,0,0,0-.13s-.07-.07-.09-.09a.32.32,0,0,1-.13-.23c0-.28.45-.21.48,0A2.12,2.12,0,0,1,104.44,85.52Zm.5,1.26a1.14,1.14,0,0,1-.19-.19,2,2,0,0,0,.43-.68c-.19-.14-.47-.28-.48-.58s.06-.48.32-.4a1,1,0,0,1,.43.35.72.72,0,0,1,.06.37A2.09,2.09,0,0,1,104.95,86.78Zm5.49-1.54c0-.16.14-.2.29-.22s.39,0,.37.25S110.43,85.51,110.44,85.24Zm1-.71s-.2.14-.25.16a.76.76,0,0,1-.78,0l-.36.22a.75.75,0,0,1-1.2.26l-.29.15a.51.51,0,0,1-.77.49,1.08,1.08,0,0,1-.09-.18,7.91,7.91,0,0,1-1.08.18.81.81,0,0,1-.56.7,1.47,1.47,0,0,1-.1-.26.52.52,0,0,0,.39-.42c-.3,0-.56-.05-.58-.3a.53.53,0,0,1,.27-.43.4.4,0,0,1,.28-.12c.25,0,.3.32.31.57l.44-.06a.77.77,0,0,1,.38-.72c-.07-.3-.14-.6-.22-.9l.25-.07c.08.29.15.59.22.89a.61.61,0,0,1,.79.38l.25-.13a.42.42,0,0,1,0-.16.79.79,0,0,1,.68-.39.62.62,0,0,1,.6.23l.1-.06s.09-.05.09-.06a.91.91,0,0,0-.09-.16,2.11,2.11,0,0,1-.15-.59c0-.27,0-.65-.14-.8s-.52,0-.68.1l-.19-.18a.79.79,0,0,1,1.09-.07.72.72,0,0,1,.16.41,5.53,5.53,0,0,0,.06.71,1.06,1.06,0,0,0,.24.53.47.47,0,0,0,.54,0s-.06,0-.06-.06.1-.22.21-.26a.17.17,0,0,1,.19.09A.6.6,0,0,1,111.49,84.53Z"/><path class="eg_cls-2" d="M110.62,81.69c.06.1.23.15.34.2s.29.1.39.15.08.06.12.06a1,1,0,0,0-.94-1.27C110.68,81.09,110.48,81.45,110.62,81.69Z"/><path class="eg_cls-4" d="M110.73,85c-.15,0-.29.06-.29.22s.62.33.66,0S110.94,85,110.73,85Z"/><path class="eg_cls-4" d="M108.55,65.75c.1,2.13.18,4.26.27,6.27.06,1.27.09,2.54.16,3.83a2,2,0,0,0,0,.27s.13.16.19.21c.47.47.92.94,1.4,1.4,0,0,0,.06,0,0a1.68,1.68,0,0,0,0-.3c0-1.11-.11-2.27-.16-3.39-.13-2.77-.25-5.7-.39-8.54-.11-2.38-.22-4.88-.33-7.33h0a8.22,8.22,0,0,1-.73.65l-.56.45c-.06,0-.16.13-.17.18a1.36,1.36,0,0,0,0,.26C108.39,61.7,108.46,63.75,108.55,65.75Z"/><path class="eg_cls-2" d="M110.23,80.83a.82.82,0,0,0-.13-.18.73.73,0,0,0-.23,0l-.89.27a26,26,0,0,1-4.95.81,11.74,11.74,0,0,1-1.58,0c-.26,0-.56-.1-.76,0a.68.68,0,0,1,.14,0c-.06.15-.24.25-.23.43s.1.18.15.25a.75.75,0,0,1,.13.28,8,8,0,0,0,1.81.1c.6,0,1.18-.06,1.72-.13a1.13,1.13,0,0,1,.41-1.07.71.71,0,0,1,.81.21.92.92,0,0,1,.25.62c.89-.16,1.8-.34,2.66-.55a2.37,2.37,0,0,0,.8-.28c-.08-.15,0-.38,0-.55A.58.58,0,0,0,110.23,80.83Zm-8.14,1.55c0-.08,0-.16,0-.26a6.12,6.12,0,0,1,.65,0,1.73,1.73,0,0,1,.57.11,3.4,3.4,0,0,1,.41.34h0Zm3.1,0h-1.51s0,0,.05-.07a1.83,1.83,0,0,1,.21-.21,1.55,1.55,0,0,1,1.31,0C105.23,82.22,105.2,82.3,105.19,82.38ZM107.1,82a1.68,1.68,0,0,1-.09-.25,3.8,3.8,0,0,1,1.26-.35c0,.09,0,.18,0,.26Zm1.9-.53a2.1,2.1,0,0,1-.15-.22,1.8,1.8,0,0,1,1.11-.38c0,.08,0,.17,0,.26Z"/><path class="eg_cls-2" d="M109.06,84.86a.26.26,0,0,0,.13.2c.26.14.71-.08.67-.35a.4.4,0,0,0-.28-.09C109.42,84.62,109.07,84.71,109.06,84.86Z"/><path class="eg_cls-4" d="M108.85,81.3a2.1,2.1,0,0,0,.15.22l1-.34c0-.09,0-.18,0-.26A1.8,1.8,0,0,0,108.85,81.3Z"/><path class="eg_cls-2" d="M89.94,80.56a.92.92,0,0,1,.81-.14c.26.09.55.18.81.24.58-2.07,1.16-4.13,1.74-6.18,0,0,0,0,0,0-.46.43-.9.92-1.35,1.35,0,0,0,0,0,0,.23-5.42.47-10.8.7-16.24a9.8,9.8,0,0,0,1.34.57,2.35,2.35,0,0,0,.25,0s0,0,.08,0a3.64,3.64,0,0,0,.44,0,10.6,10.6,0,0,0,1.06-.08c.13,0,.22,0,.28-.08s0-.06.06,0,0,.08,0,.08a8.63,8.63,0,0,0,4.13-1.81,8.64,8.64,0,0,0,4.13,1.81s0-.06,0-.09.07.09.15.11a2.71,2.71,0,0,0,.44.05l.93.06a2.64,2.64,0,0,0,.35,0s0,0,.08,0a1.77,1.77,0,0,0,.24,0,10.85,10.85,0,0,0,1.33-.57c.12,2.72.23,5.42.35,8.14s.23,5.36.35,8.11c-.46-.43-.92-.94-1.39-1.38,0,0,0,0,0,0,.59,2.05,1.16,4.11,1.74,6.18.28-.07.54-.14.81-.24a.88.88,0,0,1,.65,0s.14.1.18.1a1.08,1.08,0,0,1,.84.37,1.44,1.44,0,0,1,.38.84h3l-1.32-1.19c-.05,0-.17-.12-.18-.18a1.17,1.17,0,0,1,0-.21c0-.89-.08-1.88-.12-2.83s-.09-2.05-.13-3c-.08-2-.17-4.06-.26-6.1s-.17-4.05-.25-6-.17-4.09-.25-6.09a1.81,1.81,0,0,1,.93.29c.23.12.46.26.67.4,0,0,0,0,.08,0-.1-1.1-.48-1.88-1.37-2.17a3,3,0,0,0-1.53,0,8.57,8.57,0,0,0-2.55,1c-.38.21-.74.45-1.15.63a7.74,7.74,0,0,1-2.85.68,3,3,0,0,0,.71.59.3.3,0,0,1,.09.08A6,6,0,0,1,103,57.3h0a10.57,10.57,0,0,0,.76.82s.05,0,0,0a3.83,3.83,0,0,1-2.75-1.31,9.63,9.63,0,0,0-.86,1.2,8.72,8.72,0,0,0-.87-1.2,3.79,3.79,0,0,1-2.75,1.31c.23-.25.54-.53.76-.81,0,0,.05,0,0,0a5.57,5.57,0,0,1-2.12.27l.61-.58s.07-.06.06-.09a7.73,7.73,0,0,1-2.82-.69c-.41-.19-.77-.41-1.15-.62A10.92,10.92,0,0,0,90.77,55a4.45,4.45,0,0,0-2.88-.36c-.88.3-1.26,1.08-1.36,2.18.25-.15.49-.3.76-.45a1.68,1.68,0,0,1,.92-.27c-.09,2-.16,4-.25,6.12s-.15,4-.25,6.06c0,.48,0,1-.06,1.48-.08,1.56-.15,3.08-.2,4.59-.06,2-.19,3.92-.25,5.86a1.24,1.24,0,0,1,0,.2c0,.05-.13.12-.19.17-.42.37-.82.75-1.23,1.11,0,0-.08.05-.08.08h3A1.25,1.25,0,0,1,89.94,80.56Zm20.23-22.64c0-.07.14-.15.21-.21.38-.34.77-.65,1.14-1l.45-.42c.3,6.43.57,12.79.87,19.21.07,1.41.12,2.82.2,4.24a1.05,1.05,0,0,1,0,.18s0,0,0,0-.33-.29-.47-.42l-1.39-1.21a.56.56,0,0,1-.12-.11,1.06,1.06,0,0,1,0-.17c-.06-1.28-.1-2.42-.15-3.65-.13-2.87-.26-6-.38-8.86-.08-2.11-.2-4.2-.27-6.33,0-.31,0-.63,0-1A2,2,0,0,1,110.17,57.92Zm-1.72,1.36.56-.45a8.22,8.22,0,0,0,.73-.65h0c.11,2.44.22,4.95.33,7.33.13,2.85.25,5.77.39,8.54.05,1.11.12,2.28.16,3.39a1.68,1.68,0,0,1,0,.3s0,0,0,0c-.48-.46-.93-.92-1.4-1.4-.06-.06-.18-.17-.19-.21a2,2,0,0,1,0-.27c-.07-1.29-.1-2.56-.16-3.83-.09-2-.17-4.14-.27-6.27s-.16-4.06-.25-6a1.36,1.36,0,0,1,0-.26S108.4,59.33,108.45,59.28Zm-17.77-.79a2.74,2.74,0,0,1,0-.29s0,0,0,0A13.25,13.25,0,0,0,92,59.28s.15.13.17.17a1.42,1.42,0,0,1,0,.28c0,1.29-.11,2.6-.16,3.93s-.11,2.72-.17,4.12c-.09,2.13-.16,4.23-.25,6.23,0,.59-.05,1.26-.07,1.83a1.83,1.83,0,0,1,0,.26c0,.06-.13.16-.2.22-.47.47-.94.93-1.43,1.39,0,0,0,0,0,0,.16-3.31.28-6.56.45-9.82.12-2.38.22-4.89.34-7.35C90.62,59.89,90.65,59.21,90.68,58.49ZM87.4,79.95c.32-6.93.62-14,.94-20.73,0-.48,0-1,.06-1.44s0-1,.07-1.47c.48.49,1,.94,1.59,1.41.06.06.19.15.2.21a1.92,1.92,0,0,1,0,.33c-.14,3.27-.25,6.41-.41,9.75-.12,2.53-.22,5.15-.33,7.67,0,.72-.06,1.49-.1,2.22a1.88,1.88,0,0,1,0,.31c0,.07-.19.18-.25.22l-1.7,1.5S87.41,80,87.4,79.95Z"/><path class="eg_cls-4" d="M107,81.79a1.68,1.68,0,0,0,.09.25l1.21-.34c0-.09,0-.18,0-.26A3.8,3.8,0,0,0,107,81.79Z"/><path class="eg_cls-2" d="M108,85.56a.23.23,0,0,0,.3-.15c-.1,0-.22.07-.32.12Z"/><path class="eg_cls-2" d="M107.82,84.91l.09.35a2.26,2.26,0,0,0,.38-.13A.32.32,0,0,0,107.82,84.91Z"/><path class="eg_cls-2" d="M107.39,85.41l.27-.06c0-.11-.07-.22-.09-.34A.5.5,0,0,0,107.39,85.41Z"/><path class="eg_cls-2" d="M106.58,79.24c-.4-.5-.79-1-1.19-1.51-.22.68-.45,1.37-.67,2.05-.42-.51-.84-1.07-1.25-1.59a.32.32,0,0,0-.09-.08c-.11.56-.24,1.18-.36,1.76a1.47,1.47,0,0,0-.05.25,2.23,2.23,0,0,0,.07.29l.16.74a1,1,0,0,0,0,.16s.08.07.12.1a.85.85,0,0,0,.12.1l.82,0c.17-.52.34-1.05.52-1.57.29.47.56,1,.86,1.42l.3,0,.72-1.87c.39.5.75,1,1.14,1.54.27-.06.54-.12.79-.2-.36-1.27-.72-2.56-1.08-3.84C107.22,77.68,106.9,78.46,106.58,79.24Z"/><path class="eg_cls-2" d="M106.27,81.22c.43-.06.85-.14,1.26-.23-.25-.35-.51-.71-.77-1.06C106.6,80.37,106.43,80.79,106.27,81.22Z"/><path class="eg_cls-2" d="M100.22,58.65a9.53,9.53,0,0,1-6.37,1.85,24,24,0,0,0,.49,4.25,13.75,13.75,0,0,0,2.16,5.08,14,14,0,0,0,3.72,3.53,15.23,15.23,0,0,0,2.64-2.22,12.59,12.59,0,0,0,2-2.85,14.18,14.18,0,0,0,1.25-3.61,24,24,0,0,0,.47-4.18A9.56,9.56,0,0,1,100.22,58.65Zm4.29,9.46A12.33,12.33,0,0,1,100.23,73a13.41,13.41,0,0,1-5.56-8.33,21.29,21.29,0,0,1-.57-4,12.61,12.61,0,0,0,3.45-.4A8.09,8.09,0,0,0,99,59.76a7.66,7.66,0,0,0,1.24-.78,8.92,8.92,0,0,0,6,1.74A17.79,17.79,0,0,1,104.51,68.12Z"/><path class="eg_cls-2" d="M106.45,64.37c-.05.27-.13.58-.19.85a2,2,0,0,0-.06.28,3.74,3.74,0,0,0,0,.41c.1,2,.14,3.84.23,5.73,0,.14,0,.29,0,.42a3.87,3.87,0,0,0,.11.39c.12.4.22.82.34,1.19-.06-1.54-.16-3.1-.23-4.62S106.52,65.88,106.45,64.37Z"/><path class="eg_cls-4" d="M111.27,84.14c-.12,0-.14.16-.21.26s.08,0,.06.06a.47.47,0,0,1-.54,0,1.06,1.06,0,0,1-.24-.53,5.53,5.53,0,0,1-.06-.71.72.72,0,0,0-.16-.41.79.79,0,0,0-1.09.07l.19.18c.16-.15.49-.27.68-.1s.11.52.14.8a2.11,2.11,0,0,0,.15.59.91.91,0,0,1,.09.16s-.07,0-.09.06l-.1.06a.62.62,0,0,0-.6-.23.79.79,0,0,0-.68.39.42.42,0,0,0,0,.16l-.25.13a.61.61,0,0,0-.79-.38c-.07-.3-.14-.6-.22-.89l-.25.07c.08.3.15.6.22.9a.77.77,0,0,0-.38.72l-.44.06c0-.24-.06-.55-.31-.57a.4.4,0,0,0-.28.12.53.53,0,0,0-.27.43c0,.25.28.34.58.3a.52.52,0,0,1-.39.42,1.47,1.47,0,0,0,.1.26.81.81,0,0,0,.56-.7,7.91,7.91,0,0,0,1.08-.18,1.08,1.08,0,0,0,.09.18.51.51,0,0,0,.77-.49l.29-.15a.75.75,0,0,0,1.2-.26l.36-.22a.76.76,0,0,0,.78,0c.05,0,.23-.12.25-.16a.6.6,0,0,0,0-.3A.17.17,0,0,0,111.27,84.14Zm-5.19,1.35c0-.12.19-.22.25-.28a.44.44,0,0,1,.07.33C106.3,85.52,106.11,85.57,106.08,85.49Zm1.31-.08a.5.5,0,0,1,.18-.4c0,.12.06.23.09.34Zm.43-.49a.32.32,0,0,1,.47.22,2.26,2.26,0,0,1-.37.13Zm.2.65,0,0c.1,0,.22-.07.32-.12A.23.23,0,0,1,108,85.56Zm1.16-.5a.26.26,0,0,1-.13-.2c0-.15.37-.24.51-.24a.4.4,0,0,1,.28.09C109.89,85,109.45,85.19,109.18,85.06Z"/><path class="eg_cls-2" d="M106.08,85.49c0,.08.22,0,.32,0a.44.44,0,0,0-.07-.33C106.27,85.27,106,85.38,106.08,85.49Z"/><path class="eg_cls-2" d="M106.09,81.86a.23.23,0,0,0-.18,0,1,1,0,0,0-.23.87c0,.12.18.17.27.23a.89.89,0,0,1,.24.16c.13-.24.46-.3.42-.65,0-.08,0-.16,0-.22A.6.6,0,0,0,106.09,81.86Z"/><path class="eg_cls-2" d="M106.09,71.74c-.33-1.12-.63-2.26-1-3.38-.15.3-.34.64-.53.94a1.71,1.71,0,0,0-.18.3,2.31,2.31,0,0,0,0,.41c0,.41-.08.79-.12,1.2l1.24,1.36a.88.88,0,0,0,.18.18C105.81,72.41,105.94,72.06,106.09,71.74Z"/><path class="eg_cls-4" d="M105,84.93c-.26-.07-.33.22-.32.4s.28.44.48.58a2,2,0,0,1-.43.68,1.14,1.14,0,0,0,.19.19,2.09,2.09,0,0,0,.58-1.14.72.72,0,0,0-.06-.37A1,1,0,0,0,105,84.93Zm0,.27c.14.09.31.23.27.43C105.12,85.55,104.93,85.45,105,85.2Z"/><path class="eg_cls-2" d="M105,85.2c-.06.25.13.35.27.43C105.3,85.43,105.13,85.29,105,85.2Z"/><path class="eg_cls-2" d="M104.58,81.42l.79-.08c-.16-.28-.32-.57-.5-.83C104.78,80.82,104.68,81.12,104.58,81.42Z"/><path class="eg_cls-4" d="M104,85.08a.32.32,0,0,0,.13.23s.08.06.09.09a.87.87,0,0,1,0,.13c0,.13,0,.26-.1.31s-.15,0-.27,0-.27.13-.34,0a.22.22,0,0,1,0-.13s-.06,0-.08-.08a4,4,0,0,0-.06-1.41.39.39,0,0,0-.06-.18l-.24.07a3.8,3.8,0,0,1,.1,1.47.82.82,0,0,0-.6.34c0,.42.63.33.75.1a.41.41,0,0,0,.32.14,1.46,1.46,0,0,0,.29-.06c.1,0,.19,0,.27,0,.23-.07.3-.32.33-.6a2.12,2.12,0,0,0,0-.43C104.42,84.87,104,84.8,104,85.08Zm-1.11.91s.12-.08.16-.06A.25.25,0,0,1,102.86,86Z"/><path class="eg_cls-2" d="M105.75,73.24l-1.53-1.68c-.09.88-.18,1.76-.28,2.67.34.53.69,1.05,1,1.57.22-.55.46-1.08.68-1.64l1.4,1.22s.06.07.09.06c-.32-1.09-.62-2.21-.94-3.3C106.05,72.51,105.91,72.88,105.75,73.24Z"/><path class="eg_cls-4" d="M103.94,82.11a1.83,1.83,0,0,0-.21.21s-.06.05-.05.07h1.51c0-.08,0-.16.06-.25A1.55,1.55,0,0,0,103.94,82.11Z"/><path class="eg_cls-4" d="M103.31,82.24a1.73,1.73,0,0,0-.57-.11,6.12,6.12,0,0,0-.65,0c0,.1,0,.18,0,.26l1.65.21h0A3.4,3.4,0,0,0,103.31,82.24Z"/><path class="eg_cls-4" d="M99,59.76a8.09,8.09,0,0,1-1.43.56,12.61,12.61,0,0,1-3.45.4,21.29,21.29,0,0,0,.57,4A13.41,13.41,0,0,0,100.23,73a12.33,12.33,0,0,0,4.29-4.89,17.79,17.79,0,0,0,1.67-7.39,8.92,8.92,0,0,1-6-1.74A7.66,7.66,0,0,1,99,59.76ZM102.19,71c0,.08-.15.19-.22.25a11.41,11.41,0,0,1-1.74,1.45,11,11,0,0,1-1.76-1.45c-.06-.06-.2-.17-.22-.24a2.14,2.14,0,0,1,0-.34V60.71a1.84,1.84,0,0,1,0-.33s.21-.1.26-.12a8.22,8.22,0,0,0,1.7-.93,6.83,6.83,0,0,0,2,1.07V70.65A2,2,0,0,1,102.19,71Z"/><path class="eg_cls-4" d="M103.82,86.38a.43.43,0,0,0-.34.13c-.22.28.16.58.43.49s.22-.39.11-.53A.24.24,0,0,0,103.82,86.38Z"/><path class="eg_cls-2" d="M102.41,72c.44.56.87,1.14,1.32,1.7.11-1.19.26-2.45.36-3.61A13.7,13.7,0,0,1,102.41,72Z"/><path class="eg_cls-2" d="M107.16,75.85l-.08-.08c-.43-.38-.92-.82-1.32-1.16-.24.58-.48,1.18-.74,1.75l-1-1.49c-.22.89-.44,1.78-.66,2.68-.39-.39-.79-.81-1.17-1.2,0,0-.06-.06-.08-.06.24,1,.46,2.12.7,3.17.13-.66.26-1.33.4-2,.45.55.89,1.16,1.34,1.71,0,0,0,0,0,0,.22-.69.45-1.36.67-2.05.42.51.8,1,1.23,1.55.3-.75.61-1.49.91-2.23-.06-.23-.13-.47-.2-.7C107.2,75.78,107.19,75.85,107.16,75.85Z"/><path class="eg_cls-4" d="M103.11,86.38c-.3,0-.32.54-.07.62C103.45,87.13,103.52,86.36,103.11,86.38Z"/><path class="eg_cls-2" d="M103,85.92s-.12,0-.16.06A.25.25,0,0,0,103,85.92Z"/><path class="eg_cls-2" d="M97.68,80.76s-.05-.06-.06,0c-.06.26-.12.53-.18.8.38,0,.67,0,1-.06a.74.74,0,0,1,.62.2s.1.12.15.13a1.24,1.24,0,0,0,.26,0H101a1.23,1.23,0,0,0,.27,0s.1-.1.13-.13a.76.76,0,0,1,.61-.2c.32,0,.63.05,1,.06-.06-.27-.12-.54-.18-.8-.18.15-.35.35-.53.52l-.64-.47c-.06,0-.19-.11-.21-.17a1.37,1.37,0,0,1,0-.16c-.12-.79-.23-1.61-.34-2.38s-.23-1.71-.36-2.53c.1,1.52.18,3.17.28,4.73a1.67,1.67,0,0,1,0,.32.77.77,0,0,1-.1.13l-.72.9-.61-.78a1.14,1.14,0,0,1-.2-.27,1.84,1.84,0,0,1,0-.33c.1-1.64.19-3.23.28-4.74,0,0,0,0,0,0v0c-.24,1.66-.47,3.37-.71,5.07-.28.22-.56.42-.85.63Z"/><path class="eg_cls-2" d="M102,75a1.15,1.15,0,0,0-.11.29,1.12,1.12,0,0,0,.06.27c0,.1,0,.19.06.29.38.35.76.78,1.13,1.15,0,0,.06.07.08.06.23-.89.44-1.79.67-2.68q-.54-.7-1.09-1.39Z"/><path class="eg_cls-2" d="M97.76,56.84h0a.67.67,0,0,0,.08-.17,6.86,6.86,0,0,0,.67-3c.07,0,.21,0,.27,0a7.25,7.25,0,0,1-.87,3.48s0,0-.09,0a4.83,4.83,0,0,1-.42.55s-.06.07,0,.06a2.69,2.69,0,0,0,1.93-1.33,3.87,3.87,0,0,0,.34-1.29,11.4,11.4,0,0,0,.09-1.45,2.47,2.47,0,0,1,.27,0,6.63,6.63,0,0,1-.51,2.93c.22.33.48.6.71.92.24-.31.5-.59.72-.92a6.44,6.44,0,0,1-.5-2.93c.06,0,.23,0,.26,0a12.42,12.42,0,0,0,.09,1.46,3.73,3.73,0,0,0,.35,1.28,2.7,2.7,0,0,0,1.93,1.32,7.39,7.39,0,0,1-.46-.61s0,0-.09,0a7.17,7.17,0,0,1-.87-3.48,2.19,2.19,0,0,1,.26,0,6.91,6.91,0,0,0,.76,3.18h.07a1,1,0,0,1,.18.1,3.89,3.89,0,0,0,1.55.36,6.91,6.91,0,0,1-1.77-4.16,7.12,7.12,0,0,1-.05-1.34c0-.46.1-.88.1-1.35a5.1,5.1,0,0,0-.3-1.9,2,2,0,0,0-.26-.49,1,1,0,0,0-.3-.2,1.12,1.12,0,0,0-1.18.08,6.79,6.79,0,0,1-.55.49.74.74,0,0,1-.37.14,1.45,1.45,0,0,1-.43-.07l-.12,0c-.27-.09-.42-.35-.58-.53a1.76,1.76,0,0,0-.46-.39,2.28,2.28,0,0,0-.66-.19,1.81,1.81,0,0,1-.33-.1c-.1,0-.18-.11-.28-.14a.83.83,0,0,0-.37,0,.84.84,0,0,0-.77.78.76.76,0,0,0,.24-.06,2.18,2.18,0,0,1,.81,0,2.46,2.46,0,0,1,2,1.7c-.15,0-.31-.22-.46-.18s-.29.49-.2.72c0,0,0,0,0,.05a12.16,12.16,0,0,1,.14,1.71A7.35,7.35,0,0,1,96,57.24s0,0,0,.06a3.88,3.88,0,0,0,1.6-.36C97.61,56.9,97.72,56.82,97.76,56.84Z"/><path class="eg_cls-4" d="M102.54,84.59c.26-.1.22-.63-.13-.58S102.15,84.73,102.54,84.59Z"/><path class="eg_cls-4" d="M102.87,84.94c0-.19-.13-.27-.32-.26s-.31.05-.31.2S102.82,85.16,102.87,84.94Z"/><path class="eg_cls-2" d="M101.53,85.66c-.08.07,0,.24,0,.35a.44.44,0,0,0,.3-.19C101.83,85.67,101.63,85.56,101.53,85.66Z"/><path class="eg_cls-2" d="M101.37,72.86c.15.63.28,1.28.43,1.91.27-.69.55-1.39.82-2.08l-.41-.53Z"/><path class="eg_cls-2" d="M101.32,83.23c.09-.06.29-.17.31-.28a.44.44,0,0,0-.1-.32c-.1-.16-.26-.31-.18-.56h0c-.55.13-.7,1-.47,1.53A2.06,2.06,0,0,1,101.32,83.23Z"/><path class="eg_cls-2" d="M99.32,85.68c-.05,0-.1,0-.15-.06s-.24,0-.36,0a1.52,1.52,0,0,1-.1.43c.59,0,1.39-.17,1.45.41a.47.47,0,0,0,.19.15c.07,0,.06-.11.09-.2s.16-.25.17-.37a1,1,0,0,0-.06-.36A2,2,0,0,1,99.32,85.68Z"/><path class="eg_cls-2" d="M100.55,82.61a1.29,1.29,0,0,1,.27-.51s0,0,0-.05c-.43,0-.88,0-1.29,0a1.07,1.07,0,0,1,.32.54Z"/><path class="eg_cls-2" d="M99.41,48.08c.1,0,.07-.21,0-.24a.11.11,0,0,0-.08,0C99.16,47.85,99.23,48.15,99.41,48.08Z"/><path class="eg_cls-2" d="M99.52,83.56s0,.05.05,0c.24-.56.07-1.43-.48-1.52.1.41-.3.47-.28.87C99,83.19,99.34,83.33,99.52,83.56Z"/><path class="eg_cls-2" d="M100.21,59.33a8.22,8.22,0,0,1-1.7.93c-.05,0-.24.07-.26.12a1.84,1.84,0,0,0,0,.33v9.94a2.14,2.14,0,0,0,0,.34c0,.07.15.18.22.24a11,11,0,0,0,1.76,1.45A11.41,11.41,0,0,0,102,71.23c.06-.06.2-.17.22-.25a2,2,0,0,0,0-.33V60.4A6.83,6.83,0,0,1,100.21,59.33Z"/><path class="eg_cls-2" d="M90.73,81.89c.91.24,1.89.41,2.84.6a1,1,0,0,1,.21-.58.73.73,0,0,1,.89-.23A1.21,1.21,0,0,1,95,82.73c.58,0,1.14.13,1.76.13a8.07,8.07,0,0,0,1.77-.1.79.79,0,0,1,.13-.28c.05-.08.15-.16.15-.26s-.18-.28-.22-.43a.69.69,0,0,0,.15,0,.7.7,0,0,0-.48,0l-.25,0a23.63,23.63,0,0,1-7-1c-.15,0-.3-.1-.45-.14h-.17c-.11,0-.13.09-.18.17a.69.69,0,0,0-.1.19c0,.15,0,.34,0,.5a.87.87,0,0,1,0,.15A1.74,1.74,0,0,0,90.73,81.89Zm6.95.25c.21,0,.44,0,.67,0,0,.09,0,.17,0,.26l-1.64.22s0,0,0,0,.22-.23.37-.31A1.37,1.37,0,0,1,97.67,82.14ZM96.12,82a1.9,1.9,0,0,0,.53.07c0,.07,0,.13,0,.18s.11.08.13.14c-.28,0-.72,0-1,0a.39.39,0,0,0-.21.09l-.1-.09a.44.44,0,0,1-.19,0c0-.08,0-.16-.06-.24A1.6,1.6,0,0,1,96.12,82Zm-3.94-.55a3.62,3.62,0,0,1,1.26.36,2.31,2.31,0,0,0-.1.24l-1.21-.34A1.35,1.35,0,0,1,92.18,81.44Zm-1.71-.5a0,0,0,0,1,0,0,1.89,1.89,0,0,1,1.05.32,3.27,3.27,0,0,1,.32.37s0,0,0,0l-1.45-.48C90.45,81.1,90.46,81,90.47,80.94Z"/><path class="eg_cls-2" d="M98.65,74.77q.21-1,.42-1.91c-.28-.24-.56-.46-.83-.7-.1.11-.21.27-.32.41s-.1.11-.1.14a1.1,1.1,0,0,0,.1.25C98.16,73.56,98.41,74.21,98.65,74.77Z"/><path class="eg_cls-2" d="M96.34,70.06c.06.61.13,1.2.2,1.8s.13,1.2.2,1.8c.43-.54.87-1.13,1.3-1.7A13.15,13.15,0,0,1,96.34,70.06Z"/><path class="eg_cls-2" d="M97.87,85.84a.45.45,0,0,0-.13-.18A.28.28,0,0,0,97.87,85.84Z"/><path class="eg_cls-2" d="M94.78,74.17c.22.53.45,1.06.67,1.6.3-.51.56-1,.85-1.56L97.19,77a2.63,2.63,0,0,0,.3-.29l.77-.76c0-.05.13-.12.15-.16a.58.58,0,0,0,0-.14l0-.15a1,1,0,0,0,.06-.29,1.3,1.3,0,0,0-.12-.28l-.79-2a.74.74,0,0,0-.14.16c-.31.42-.64.85-1,1.23-.11-.92-.2-1.92-.32-2.8-.52.57-1,1.14-1.55,1.69-.15-.37-.29-.74-.45-1.09-.31,1.12-.63,2.23-.94,3.35C93.79,75.08,94.29,74.58,94.78,74.17Z"/><path class="eg_cls-4" d="M101.5,85.37a.49.49,0,0,0-.28.59,2.1,2.1,0,0,0-.35,0c0-.3,0-.66-.37-.65a1,1,0,0,1-.7.13,2,2,0,0,1-.46-.08.58.58,0,0,0-.12-.06c-.16,0-.3,0-.42,0s-.07-.3-.24-.27a.26.26,0,0,0-.17.36c0,.06.12.08.13.13a.62.62,0,0,1,0,.15c0,.13-.06.3-.14.33a.46.46,0,0,1-.25,0,1.24,1.24,0,0,0,0-.2.66.66,0,0,0-.29-.4.25.25,0,0,0-.37.22c0,.27.22.41.37.55a1.59,1.59,0,0,1-.6.75l.16.21a1.79,1.79,0,0,0,.7-.87c.46.09,1.06,0,1.57,0,.1,0,.2,0,.23.12s0,.08,0,.13.12.12.16.17a.41.41,0,0,0,.31.13c.29,0,.28-.36.41-.55.18,0,.32-.1.49-.06s.07.06.12.06a.63.63,0,0,0,.31-.07c.18-.08.35-.18.38-.36A.46.46,0,0,0,101.5,85.37Zm-3.76.29a.45.45,0,0,1,.13.18A.28.28,0,0,1,97.74,85.66Zm2.7.73c0,.09,0,.15-.09.2a.47.47,0,0,1-.19-.15c-.06-.57-.86-.36-1.45-.41a1.52,1.52,0,0,0,.1-.43c.13,0,.22,0,.36,0s.1,0,.15.06a2,2,0,0,0,1.24,0,1,1,0,0,1,.06.36C100.6,86.13,100.48,86.25,100.44,86.39Zm1.06-.37c0-.11-.06-.28,0-.35s.3,0,.29.16A.44.44,0,0,1,101.51,86Z"/><path class="eg_cls-4" d="M96.71,82.6l1.64-.22c0-.09,0-.17,0-.26-.23,0-.46,0-.67,0a1.37,1.37,0,0,0-.58.14c-.14.08-.23.21-.37.31S96.7,82.59,96.71,82.6Z"/><path class="eg_cls-4" d="M96.66,86a2.51,2.51,0,0,0,.27,0c0-.63.17-1.24.18-1.88h-.25C96.83,84.72,96.69,85.34,96.66,86Z"/><path class="eg_cls-4" d="M95.44,82.38l.1.09a.39.39,0,0,1,.21-.09c.3,0,.73,0,1,0,0-.06-.11-.08-.13-.14s0-.11,0-.18a1.9,1.9,0,0,1-.53-.07,1.6,1.6,0,0,0-.93.15c0,.08,0,.16.06.24A.44.44,0,0,0,95.44,82.38Z"/><path class="eg_cls-4" d="M96.14,84.15v1.27a2,2,0,0,1-.05.57.88.88,0,0,1-.22.41c0-.06-.12,0-.17,0s-.12-.24-.13-.44a2.47,2.47,0,0,1-.47-.3.59.59,0,0,0,.36-.35s.11,0,.14,0V85a.37.37,0,0,1-.11,0,.63.63,0,0,0-.34-.52.61.61,0,0,0-.75.33.55.55,0,0,1-.16,0v.26h.12a.68.68,0,0,0,.25.48,1.28,1.28,0,0,1-1,.06,1.26,1.26,0,0,0,0-.31,1,1,0,0,0-.11-.26c-.08-.14-.28-.29-.38-.1s0,.26,0,.41a.76.76,0,0,0,.1.34.88.88,0,0,1-.36.35,2.12,2.12,0,0,0,.12.23,1.16,1.16,0,0,0,.46-.41,1.7,1.7,0,0,0,1.28-.11,3.27,3.27,0,0,0,.48.33.54.54,0,0,0,.21.48.64.64,0,0,0,.2.06.3.3,0,0,0,.09,0,.31.31,0,0,0,.25-.09,1.42,1.42,0,0,0,.34-1V84.13h-.27Zm-1.42,1.16a.39.39,0,0,1-.1-.19.34.34,0,0,1,.29-.39c.21,0,.33.18.3.39s-.19.25-.33.32A1,1,0,0,1,94.72,85.31Z"/><path class="eg_cls-2" d="M93.22,75.76c-.07.23-.13.47-.2.7.31.75.61,1.51.93,2.25.4-.51.81-1.05,1.21-1.55.23.69.45,1.36.67,2.05.47-.55.92-1.18,1.39-1.75.13.67.27,1.31.39,2,.25-1,.46-2.09.7-3.13-.41.37-.82.83-1.23,1.21-.28-.88-.55-1.77-.84-2.64-.27.51-.54,1-.81,1.51-.26-.59-.49-1.19-.75-1.77-.46.41-.91.82-1.37,1.22C93.28,75.82,93.24,75.74,93.22,75.76Z"/><path class="eg_cls-2" d="M95.07,81.34c.25,0,.54.07.79.07-.11-.3-.2-.61-.3-.9Z"/><path class="eg_cls-2" d="M95.3,68.35c-.31,1.13-.64,2.25-.95,3.39.14.31.28.68.42,1L96,71.43a1.1,1.1,0,0,1,.17-.19s0,0,.05,0a1,1,0,0,0,0-.21c-.06-.52-.11-.94-.15-1.42C95.76,69.2,95.53,68.77,95.3,68.35Z"/><path class="eg_cls-2" d="M95.22,85.12c0-.21-.09-.41-.3-.39a.34.34,0,0,0-.29.39.39.39,0,0,0,.1.19,1,1,0,0,0,.17.13C95,85.38,95.2,85.31,95.22,85.12Z"/><path class="eg_cls-2" d="M94.34,81.86a.6.6,0,0,0-.48.45,1,1,0,0,0,0,.34c0,.26.33.29.42.5.11-.14.29-.16.42-.27s.12-.5,0-.71S94.55,81.84,94.34,81.86Z"/><path class="eg_cls-2" d="M93.87,72.45a2.87,2.87,0,0,0,.12-.39c0-.14,0-.28,0-.42,0-.41,0-.83,0-1.25.07-1.49.12-3,.19-4.51a3.64,3.64,0,0,0,0-.41,2.5,2.5,0,0,0-.07-.26c-.06-.27-.13-.6-.18-.85v0c-.15,3.1-.31,6.22-.45,9.27C93.65,73.26,93.76,72.85,93.87,72.45Z"/><path class="eg_cls-4" d="M85.81,82H88.7a1.1,1.1,0,0,0,.15.48,1.62,1.62,0,0,0,0,.26c-.57,0-.78.44-1.05.77-.12.15-.28.34-.54.27,0,.09,0,.16,0,.26a.5.5,0,0,1,.19.05c.11.08.14.26.18.41.12.5.3.88.73,1a1.23,1.23,0,0,0,.51,1.21,2.48,2.48,0,0,0,.66.22l.71.18a28.11,28.11,0,0,0,3,.49,62.36,62.36,0,0,0,6.26.34H101c1.12,0,2.1,0,3.19-.1A36.47,36.47,0,0,0,111,87a2.78,2.78,0,0,0,.67-.22,1.21,1.21,0,0,0,.51-1.21,1.33,1.33,0,0,0,.73-1.05c0-.14.07-.35.18-.42s.13,0,.18,0a2,2,0,0,0,0-.26,1.13,1.13,0,0,1-.2,0,.76.76,0,0,1-.34-.26c-.28-.33-.48-.76-1-.78a2,2,0,0,1-.05-.24s0-.07.05-.11a1.53,1.53,0,0,0,.1-.38h2.88a2.1,2.1,0,0,1,.41,0c.08,0,.15.14.22.17V82.1h0c0-.4,0-.81-.06-1.21-.13-2.87-.22-5.57-.35-8.38-.12-2.37-.18-4.84-.3-7.23-.08-1.62-.12-3.18-.2-4.79-.06-1.17-.09-2.42-.15-3.54a2.57,2.57,0,0,0-1.54-2.55,4.06,4.06,0,0,0-2.34.09,10.75,10.75,0,0,0-1.92.82c-.3.16-.57.35-.87.5a7.81,7.81,0,0,1-2,.69,10.5,10.5,0,0,1-1.19.13h-.05s-.11-.11-.14-.17a4.79,4.79,0,0,1-.36-.59,8.16,8.16,0,0,1-.82-3,6.82,6.82,0,0,1,0-1.11c0-.37.08-.74.09-1.12a5.58,5.58,0,0,0-.28-2.17c.05,0,0-.07,0-.09a1.74,1.74,0,0,0-.16-.33,2.61,2.61,0,0,0-1-1,2.3,2.3,0,0,0-.73-.26l-.29,0a4,4,0,0,0-.53-.13c-.21,0-.4,0-.58-.05h-.15a1.47,1.47,0,0,0-1,.65,5.66,5.66,0,0,0-1-.28,2.5,2.5,0,0,0-.43-.19,1.2,1.2,0,0,0-.56,0,1.23,1.23,0,0,0-.86,1.34,1.53,1.53,0,0,0,0,.31s0,0,0,0l.13-.13a1,1,0,0,1,.17-.17s0,0,.05,0c.23.06.46.06.64.14a1.8,1.8,0,0,1,.46.33,2.55,2.55,0,0,1,.71.85,3.93,3.93,0,0,1,.29,1.27,10.07,10.07,0,0,1,0,1.42,6.91,6.91,0,0,1-1.78,4.44,7.66,7.66,0,0,1-3.29-.82c-.3-.16-.57-.34-.87-.5a10.6,10.6,0,0,0-1.91-.82,4,4,0,0,0-2.35-.08,2.1,2.1,0,0,0-1.31,1.42,8.89,8.89,0,0,0-.26,2.4c-.08,2.35-.21,4.79-.3,7.21s-.21,4.69-.3,7.15c-.13,3.17-.27,6.4-.41,9.55v.08c.09,0,.12-.15.22-.17A2.07,2.07,0,0,1,85.81,82Zm26,1c.45.13.63.77,1,1a5.14,5.14,0,0,0-.29.86.85.85,0,0,1-.62.51,2.49,2.49,0,0,1-.07.81c-.16.45-.68.5-1.18.63a26,26,0,0,1-3.86.62c-1.08.1-2.16.19-3.26.23s-2.14.07-3.31.07c-2.38,0-4.37-.09-6.54-.3a25.64,25.64,0,0,1-3.86-.62c-.25-.06-.49-.11-.71-.19a.76.76,0,0,1-.48-.42,2.44,2.44,0,0,1-.08-.82.89.89,0,0,1-.62-.52,4.72,4.72,0,0,0-.29-.85,2.2,2.2,0,0,0,.51-.53c.14-.18.31-.42.58-.45a1.08,1.08,0,0,1,.35,0,1.29,1.29,0,0,1,.18-.8l.55-.23a1.36,1.36,0,0,1,.47,0,3.22,3.22,0,0,1,.4.11c.92.22,1.95.43,2.9.61.1.36.54.38.53.84a2.14,2.14,0,0,0,.26,0c0-.28.17-.33.35-.43A1,1,0,0,0,95,83c.55.08,1.17.11,1.76.13a8.35,8.35,0,0,0,1.84-.1c.11.25.36.38.56.53a.75.75,0,0,1,.27.28,1.78,1.78,0,0,1,0,.51,1.88,1.88,0,0,0,.53-1.48h.57a1.92,1.92,0,0,0,.53,1.48c0-.24,0-.46.06-.6s.66-.38.79-.74a11.07,11.07,0,0,0,2.7.05l.68-.06a.88.88,0,0,1,.22,0s.1.09.15.14.47.15.44.48a2.44,2.44,0,0,0,.26,0c0-.44.43-.5.54-.85.95-.18,2-.38,2.9-.61a3.62,3.62,0,0,1,.39-.11,1.74,1.74,0,0,1,.45,0,.56.56,0,0,1,.14.07l.3.11a.53.53,0,0,1,.15.07,1.21,1.21,0,0,1,.17.79A.91.91,0,0,1,111.79,83.06Zm-22-1.37c-.06.11-.28.18-.41.23a2.35,2.35,0,0,0-.44.18,1.06,1.06,0,0,1,.9-1.28h0s0,.08,0,.12C89.8,81.18,90,81.47,89.82,81.69Zm.3-.68a.69.69,0,0,1,.1-.19c.05-.08.07-.16.18-.17h.17c.15,0,.3.1.45.14a23.63,23.63,0,0,0,7,1l.25,0a.7.7,0,0,1,.48,0,.69.69,0,0,1-.15,0c0,.15.23.25.22.43s-.1.18-.15.26a.79.79,0,0,0-.12.28,8.07,8.07,0,0,1-1.77.1c-.62,0-1.18-.08-1.76-.13a1.21,1.21,0,0,0-.37-1.05.73.73,0,0,0-.89.23,1,1,0,0,0-.21.58c-.95-.18-1.93-.36-2.84-.6a1.74,1.74,0,0,1-.62-.23.87.87,0,0,0,0-.15C90.16,81.35,90.08,81.16,90.12,81Zm20.21.65a2.37,2.37,0,0,1-.8.28c-.85.2-1.77.38-2.66.55a.92.92,0,0,0-.25-.62.71.71,0,0,0-.81-.21,1.13,1.13,0,0,0-.41,1.07c-.54.06-1.12.1-1.72.13a8,8,0,0,1-1.81-.1.75.75,0,0,0-.13-.28c-.05-.08-.14-.16-.15-.25s.17-.29.23-.43a.68.68,0,0,0-.14,0c.2-.12.5,0,.76,0a11.74,11.74,0,0,0,1.58,0,26,26,0,0,0,4.95-.81l.89-.27a.73.73,0,0,1,.23,0,.82.82,0,0,1,.13.18.58.58,0,0,1,.1.28C110.33,81.28,110.25,81.51,110.33,81.66Zm-3.72.85c0,.34-.29.4-.42.65A.89.89,0,0,0,106,83c-.1-.05-.23-.11-.27-.23a1,1,0,0,1,.23-.87.23.23,0,0,1,.18,0,.6.6,0,0,1,.49.44C106.6,82.36,106.6,82.44,106.61,82.51Zm-8.7-9.95c.1-.13.22-.29.32-.41.27.24.55.47.83.7q-.21,1-.42,1.91c-.23-.56-.48-1.21-.72-1.81a1.1,1.1,0,0,1-.1-.25S97.89,72.61,97.92,72.57Zm-1.18,1.1c-.07-.6-.13-1.21-.2-1.8s-.13-1.19-.2-1.8A13.15,13.15,0,0,0,98,72C97.61,72.54,97.17,73.13,96.74,73.67ZM99,80.59c.24-1.7.47-3.41.71-5.07v0s0,0,0,0c-.09,1.51-.18,3.1-.28,4.74a1.84,1.84,0,0,0,0,.33,1.14,1.14,0,0,0,.2.27l.61.78.72-.9a.77.77,0,0,0,.1-.13,1.67,1.67,0,0,0,0-.32c-.1-1.56-.18-3.21-.28-4.73.13.82.24,1.67.36,2.53s.22,1.59.34,2.38a1.37,1.37,0,0,0,0,.16c0,.05.15.12.21.17l.64.47c.18-.16.36-.37.53-.52.06.26.12.53.18.8-.36,0-.67,0-1-.06a.76.76,0,0,0-.61.2s-.08.12-.13.13a1.23,1.23,0,0,1-.27,0H99.45a1.24,1.24,0,0,1-.26,0c-.05,0-.11-.1-.15-.13a.74.74,0,0,0-.62-.2c-.32,0-.61,0-1,.06.06-.27.12-.53.18-.8,0,0,0,0,.06,0l.46.46C98.43,81,98.71,80.81,99,80.59Zm4.74-6.92c-.45-.56-.88-1.13-1.32-1.7a13.7,13.7,0,0,0,1.69-1.92C104,71.23,103.84,72.48,103.73,73.67Zm.17.66c-.22.89-.44,1.79-.67,2.68,0,0-.05,0-.08-.06-.37-.37-.75-.8-1.13-1.15,0-.09,0-.18-.06-.29a1.12,1.12,0,0,1-.06-.27A1.15,1.15,0,0,1,102,75l.8-2Q103.36,73.62,103.9,74.33Zm-1.28-1.64c-.27.7-.55,1.39-.82,2.08-.15-.63-.28-1.27-.43-1.91l.84-.7Zm-3.53,9.39c.55.1.72,1,.48,1.52,0,0,0,0-.05,0-.19-.23-.53-.36-.71-.61C98.79,82.55,99.19,82.49,99.09,82.08Zm.47,0c.42,0,.87,0,1.29,0,0,0,0,0,0,.05a1.29,1.29,0,0,0-.27.51h-.67A1.07,1.07,0,0,0,99.57,82.05Zm1.77,0h0c-.07.25.08.4.18.56a.44.44,0,0,1,.1.32c0,.11-.22.22-.31.28a2.06,2.06,0,0,0-.45.38C100.63,83,100.79,82.2,101.34,82.07Zm3.24-.65c.1-.3.2-.6.3-.91.18.26.33.55.5.83Zm1.69-.2c.16-.43.33-.85.49-1.28.27.35.52.7.77,1.06C107.12,81.08,106.7,81.16,106.27,81.22Zm1.56-.29c-.39-.5-.75-1-1.14-1.54L106,81.26l-.3,0c-.3-.46-.56-1-.86-1.42-.18.52-.35,1.05-.52,1.57l-.82,0a.85.85,0,0,1-.12-.1s-.1-.06-.12-.1a1,1,0,0,1,0-.16L103,80.4a2.23,2.23,0,0,1-.07-.29,1.47,1.47,0,0,1,.05-.25c.12-.58.25-1.19.36-1.76a.32.32,0,0,1,.09.08c.41.52.83,1.08,1.25,1.59.22-.68.45-1.37.67-2.05.41.49.79,1,1.19,1.51.33-.78.64-1.56,1-2.35.37,1.27.72,2.56,1.08,3.84C108.37,80.8,108.1,80.87,107.83,80.93Zm-1.32-2.22c-.42-.5-.81-1-1.23-1.55-.22.69-.45,1.37-.67,2.05,0,0,0,0,0,0-.45-.55-.88-1.15-1.34-1.71-.14.65-.27,1.32-.4,2-.25-1-.47-2.12-.7-3.17,0,0,.05,0,.08.06.38.39.78.82,1.17,1.2.22-.9.44-1.79.66-2.68l1,1.49c.26-.57.49-1.16.74-1.75.4.34.89.78,1.32,1.16l.08.08s0-.07.07-.06c.07.23.13.46.2.7C107.12,77.22,106.81,78,106.51,78.71Zm.54-3.32-1.4-1.22c-.22.55-.46,1.09-.68,1.64-.35-.52-.7-1-1-1.57.1-.91.18-1.79.28-2.67l1.53,1.68c.16-.36.3-.73.45-1.09.32,1.1.62,2.21.94,3.3C107.11,75.46,107.08,75.42,107.05,75.39Zm-2.8-4.18c0-.41.08-.79.12-1.2a2.31,2.31,0,0,1,0-.41,1.71,1.71,0,0,1,.18-.3c.19-.3.38-.64.53-.94.33,1.12.63,2.26,1,3.38-.15.33-.28.67-.42,1a.88.88,0,0,1-.18-.18Zm2.31,1.24a3.87,3.87,0,0,1-.11-.39c0-.13,0-.28,0-.42-.09-1.89-.14-3.77-.23-5.73a3.74,3.74,0,0,1,0-.41,2,2,0,0,1,.06-.28c.06-.27.14-.58.19-.85.07,1.51.16,3.07.23,4.65s.16,3.09.23,4.62C106.79,73.27,106.68,72.85,106.57,72.45Zm-.46-7.77a14.18,14.18,0,0,1-1.25,3.61,12.59,12.59,0,0,1-2,2.85,15.23,15.23,0,0,1-2.64,2.22,14,14,0,0,1-3.72-3.53,13.75,13.75,0,0,1-2.16-5.08,24,24,0,0,1-.49-4.25,9.53,9.53,0,0,0,6.37-1.85,9.56,9.56,0,0,0,6.37,1.85A24,24,0,0,1,106.11,64.69Zm-9.91,6.54s0,0-.05,0a1.1,1.1,0,0,0-.17.19l-1.21,1.32c-.14-.33-.28-.69-.42-1,.31-1.14.64-2.26.95-3.39.23.42.46.85.72,1.24,0,.48.1.91.15,1.42A1,1,0,0,1,96.21,71.23ZM94,64.38v0c.06.26.12.58.18.85a2.5,2.5,0,0,1,.07.26,3.64,3.64,0,0,1,0,.41c-.06,1.48-.11,3-.19,4.51,0,.42,0,.84,0,1.25,0,.14,0,.28,0,.42a2.87,2.87,0,0,1-.12.39c-.11.39-.22.81-.33,1.2C93.68,70.61,93.84,67.48,94,64.38Zm.24,7.77c.16.36.3.72.45,1.09.53-.56,1-1.13,1.55-1.69.12.88.21,1.88.32,2.8.31-.38.64-.82,1-1.23a.74.74,0,0,1,.14-.16l.79,2a1.3,1.3,0,0,1,.12.28,1,1,0,0,1-.06.29l0,.15a.58.58,0,0,1,0,.14s-.1.11-.15.16l-.77.76a2.63,2.63,0,0,1-.3.29l-.89-2.82c-.29.52-.56,1.06-.85,1.56-.22-.54-.45-1.07-.67-1.6-.49.41-1,.91-1.49,1.32C93.6,74.38,93.92,73.27,94.23,72.15Zm-.93,3.7c.46-.4.91-.82,1.37-1.22.26.58.49,1.18.75,1.77.27-.5.54-1,.81-1.51.29.87.56,1.76.84,2.64.41-.37.82-.83,1.23-1.21-.23,1-.45,2.1-.7,3.13-.12-.66-.27-1.31-.39-2-.47.57-.92,1.19-1.39,1.75-.22-.69-.45-1.37-.67-2.05-.4.5-.81,1-1.21,1.55-.31-.74-.62-1.5-.93-2.25.07-.23.13-.47.2-.7C93.24,75.74,93.28,75.82,93.31,75.84Zm.55,3.4c.41-.49.79-1,1.2-1.51.22.68.45,1.37.67,2,.45-.53.88-1.13,1.34-1.68.11.55.23,1.18.36,1.76a1.4,1.4,0,0,1,.05.25,1.93,1.93,0,0,1-.07.3l-.13.61a1.21,1.21,0,0,1-.07.29c0,.09-.17.11-.23.2l-.83,0c-.17-.53-.35-1-.51-1.58-.29.47-.56,1-.86,1.43l-.31,0c-.23-.63-.48-1.24-.71-1.87-.39.5-.75,1-1.14,1.54-.27-.06-.54-.12-.8-.2q.54-1.91,1.08-3.83C93.23,77.67,93.54,78.46,93.86,79.24Zm2,2.18c-.25,0-.54-.05-.79-.07l.49-.83C95.67,80.81,95.76,81.12,95.86,81.41Zm-1.69-.19c-.43-.06-.84-.15-1.26-.22a.33.33,0,0,1,.08-.13l.68-.93C93.84,80.36,94,80.79,94.17,81.22Zm.5,1.67c-.13.11-.31.13-.42.27-.09-.21-.37-.25-.42-.5a1,1,0,0,1,0-.34.6.6,0,0,1,.48-.45c.21,0,.29.15.36.32S94.84,82.75,94.67,82.89Zm15.86-2.07a1,1,0,0,1,.94,1.27s-.07,0-.12-.06-.25-.1-.39-.15-.29-.1-.34-.2S110.68,81.09,110.53,80.82Zm-11.18-33a.11.11,0,0,1,.08,0c.06,0,.1.2,0,.24S99.16,47.85,99.34,47.82ZM96,57.24a7.35,7.35,0,0,0,2.26-5.43,12.16,12.16,0,0,0-.14-1.71s0,0,0-.05c-.1-.23,0-.66.2-.72s.32.14.46.18a2.46,2.46,0,0,0-2-1.7,2.18,2.18,0,0,0-.81,0,.76.76,0,0,1-.24.06.84.84,0,0,1,.77-.78.83.83,0,0,1,.37,0c.1,0,.18.1.28.14a1.81,1.81,0,0,0,.33.1,2.28,2.28,0,0,1,.66.19,1.76,1.76,0,0,1,.46.39c.17.18.32.45.58.53l.12,0a1.45,1.45,0,0,0,.43.07.74.74,0,0,0,.37-.14,6.79,6.79,0,0,0,.55-.49,1.12,1.12,0,0,1,1.18-.08,1,1,0,0,1,.3.2,2,2,0,0,1,.26.49,5.1,5.1,0,0,1,.3,1.9c0,.46-.07.89-.1,1.35a7.12,7.12,0,0,0,.05,1.34,6.91,6.91,0,0,0,1.77,4.16,3.89,3.89,0,0,1-1.55-.36,1,1,0,0,0-.18-.1h-.07a6.91,6.91,0,0,1-.76-3.18,2.19,2.19,0,0,0-.26,0,7.17,7.17,0,0,0,.87,3.48s.05,0,.09,0a7.39,7.39,0,0,0,.46.61,2.7,2.7,0,0,1-1.93-1.32,3.73,3.73,0,0,1-.35-1.28,12.42,12.42,0,0,1-.09-1.46s-.2,0-.26,0a6.44,6.44,0,0,0,.5,2.93c-.22.33-.48.61-.72.92-.22-.32-.49-.59-.71-.92a6.63,6.63,0,0,0,.51-2.93,2.47,2.47,0,0,0-.27,0,11.4,11.4,0,0,1-.09,1.45,3.87,3.87,0,0,1-.34,1.29,2.69,2.69,0,0,1-1.93,1.33s0,0,0-.06a4.83,4.83,0,0,0,.42-.55s0,0,.09,0a7.25,7.25,0,0,0,.88-3.48c-.06,0-.2,0-.27,0a6.86,6.86,0,0,1-.67,3,.67.67,0,0,1-.08.17h0s-.16.06-.22.1a3.88,3.88,0,0,1-1.6.36S96,57.25,96,57.24ZM85.77,81.7c.41-.36.81-.73,1.23-1.11.05,0,.17-.12.19-.17a1.24,1.24,0,0,0,0-.2c.06-1.94.18-3.85.25-5.86,0-1.51.12-3,.2-4.59,0-.51,0-1,.06-1.48.1-2.07.16-4.06.25-6.06s.16-4.08.25-6.12a1.68,1.68,0,0,0-.92.27c-.26.14-.51.3-.76.45.11-1.1.48-1.89,1.36-2.18a4.45,4.45,0,0,1,2.88.36,10.92,10.92,0,0,1,1.19.58c.38.21.74.43,1.15.62a7.73,7.73,0,0,0,2.82.69s0,.06-.06.09l-.61.58a5.57,5.57,0,0,0,2.12-.27s0,0,0,0c-.22.28-.52.56-.76.81a3.79,3.79,0,0,0,2.75-1.31,8.72,8.72,0,0,1,.87,1.2,9.63,9.63,0,0,1,.86-1.2,3.83,3.83,0,0,0,2.75,1.31s0,0,0,0a10.57,10.57,0,0,1-.76-.82h0a6,6,0,0,0,2.21.27.3.3,0,0,0-.09-.08,3,3,0,0,1-.71-.59,7.74,7.74,0,0,0,2.85-.68c.41-.18.77-.42,1.15-.63a8.57,8.57,0,0,1,2.55-1,3,3,0,0,1,1.53,0c.89.29,1.27,1.07,1.37,2.17,0,0-.05,0-.08,0-.21-.14-.45-.28-.67-.4a1.81,1.81,0,0,0-.93-.29c.08,2,.17,4.05.25,6.09s.16,4.09.25,6,.18,4.09.26,6.1c0,1,.08,2,.13,3s.09,1.94.12,2.83a1.17,1.17,0,0,0,0,.21c0,.06.13.13.18.18l1.32,1.19h-3a1.44,1.44,0,0,0-.37-.84,1.08,1.08,0,0,0-.84-.37s-.13-.08-.18-.1a.88.88,0,0,0-.65,0c-.27.09-.53.16-.81.24-.58-2.07-1.16-4.13-1.74-6.18,0,0,0,0,0,0,.46.44.93,1,1.39,1.38-.12-2.74-.23-5.42-.35-8.11s-.23-5.41-.35-8.14a10.85,10.85,0,0,1-1.33.57,1.77,1.77,0,0,1-.24,0s0,0-.08,0a2.64,2.64,0,0,1-.35,0l-.93-.06a2.71,2.71,0,0,1-.44-.05c-.07,0-.09-.08-.15-.11s0,.07,0,.09a8.64,8.64,0,0,1-4.13-1.81,8.63,8.63,0,0,1-4.13,1.81s0-.05,0-.08,0,0-.06,0-.15.06-.28.08a10.6,10.6,0,0,1-1.06.08,3.64,3.64,0,0,1-.44,0s0,0-.08,0a2.35,2.35,0,0,1-.25,0,9.8,9.8,0,0,1-1.34-.57c-.23,5.45-.47,10.82-.7,16.24,0,0,0,0,0,0,.45-.43.89-.92,1.35-1.35,0,0,0,0,0,0-.59,2.05-1.16,4.11-1.74,6.18-.26-.07-.55-.15-.81-.24a.92.92,0,0,0-.81.14,1.25,1.25,0,0,0-1.24,1.21h-3S85.74,81.72,85.77,81.7Z"/><path class="eg_cls-2" d="M91.82,80.73c.26.08.53.14.8.2.39-.51.75-1,1.14-1.54.23.63.48,1.24.71,1.87l.31,0c.29-.47.56-1,.86-1.43.17.53.35,1.05.51,1.58l.83,0c.06-.08.18-.11.23-.2a1.21,1.21,0,0,0,.07-.29l.13-.61a1.93,1.93,0,0,0,.07-.3,1.4,1.4,0,0,0-.05-.25c-.12-.58-.24-1.21-.36-1.76-.46.54-.89,1.14-1.34,1.68-.23-.68-.45-1.36-.67-2-.41.49-.79,1-1.2,1.51-.32-.78-.63-1.57-1-2.34Q92.36,78.82,91.82,80.73Z"/><path class="eg_cls-2" d="M93,80.87a.33.33,0,0,0-.08.13c.42.07.82.16,1.26.22-.16-.43-.32-.86-.49-1.28Z"/><path class="eg_cls-4" d="M92.63,84.5a.26.26,0,0,0,0,.4s.09-.11.12-.09a1.53,1.53,0,0,1-.2.52c-.14.17-.35.06-.56,0s-.29-.08-.3-.15a.86.86,0,0,1,.06-.21l.13-.41c0-.12.05-.31-.09-.33s-.18.23-.21.36a2.62,2.62,0,0,1-.09.25s0,.09,0,.13,0,.1,0,.14A3.8,3.8,0,0,1,90.9,85a.46.46,0,0,1-.14-.33,1.4,1.4,0,0,1,.08-.19c.18-.46.3-1,.44-1.51L91,82.89c-.12.43-.23.88-.36,1.3-.23.07-.48.16-.5.42s.28.47.47.56a3.84,3.84,0,0,0,.46.15.52.52,0,0,0,.36,0c.14.17.35.19.58.26a.58.58,0,0,0,.8-.32,1.73,1.73,0,0,0,.15-.49C93,84.59,92.82,84.4,92.63,84.5Zm-2.12.26c-.09,0-.1-.21,0-.23A.32.32,0,0,0,90.51,84.76Z"/><path class="eg_cls-4" d="M93.44,81.8a3.62,3.62,0,0,0-1.26-.36,1.35,1.35,0,0,0,0,.26l1.21.34A2.31,2.31,0,0,1,93.44,81.8Z"/><path class="eg_cls-4" d="M89.81,77.75s0,0,0,0c.48-.46,1-.92,1.43-1.39.06-.06.19-.16.2-.22a1.83,1.83,0,0,0,0-.26c0-.58,0-1.24.07-1.83.09-2,.16-4.1.25-6.23.06-1.41.13-2.79.17-4.12s.11-2.64.16-3.93a1.42,1.42,0,0,0,0-.28s-.12-.13-.17-.17a13.25,13.25,0,0,1-1.28-1.1s0,0,0,0a2.74,2.74,0,0,0,0,.29c0,.72-.06,1.4-.09,2.1-.12,2.46-.22,5-.34,7.35C90.09,71.19,90,74.45,89.81,77.75Z"/><path class="eg_cls-4" d="M91.82,85.7c-.28,0-.32.48-.09.58a.36.36,0,0,0,.49-.27A.33.33,0,0,0,91.82,85.7Z"/><path class="eg_cls-4" d="M91.26,85.55a.49.49,0,0,0-.14,0,.34.34,0,0,0-.34.22c-.08.29.27.44.48.36A.33.33,0,0,0,91.26,85.55Z"/><path class="eg_cls-4" d="M90.73,83.72c0-.17-.11-.25-.27-.24s-.43.06-.36.29S90.7,84,90.73,83.72Z"/><path class="eg_cls-4" d="M91.85,81.61a3.27,3.27,0,0,0-.32-.37,1.89,1.89,0,0,0-1.05-.32,0,0,0,0,0,0,0c0,.08,0,.16,0,.24l1.45.48S91.86,81.63,91.85,81.61Z"/><path class="eg_cls-2" d="M90.51,84.76a.32.32,0,0,1,0-.23C90.41,84.55,90.42,84.73,90.51,84.76Z"/><path class="eg_cls-4" d="M90.81,83.27c.19-.26-.1-.51-.39-.46a.32.32,0,0,0-.12.53A.38.38,0,0,0,90.81,83.27Z"/><path class="eg_cls-4" d="M90.44,85.36c-.31,0-.29.5-.06.58C90.8,86.1,90.86,85.31,90.44,85.36Z"/><path class="eg_cls-4" d="M89.41,78.2a1.88,1.88,0,0,0,0-.31c0-.73.06-1.5.1-2.22.11-2.53.21-5.15.33-7.67.16-3.34.27-6.48.41-9.75a1.92,1.92,0,0,0,0-.33c0-.05-.14-.15-.2-.21-.54-.47-1.11-.92-1.59-1.41,0,.46-.05,1-.07,1.47s0,1-.06,1.44C88,65.94,87.73,73,87.4,79.95c0,0,0,0,.06,0l1.7-1.5C89.22,78.37,89.39,78.26,89.41,78.2Z"/><path class="eg_cls-2" d="M89.9,80.82h0A1.06,1.06,0,0,0,89,82.1a2.35,2.35,0,0,1,.44-.18c.14-.05.35-.12.41-.23s0-.51,0-.75C89.88,80.9,89.92,80.83,89.9,80.82Z"/><path class="eg_cls-2" d="M85.89,65.44c.09-2.42.22-4.86.3-7.21a8.89,8.89,0,0,1,.26-2.4,2.1,2.1,0,0,1,1.31-1.42,4,4,0,0,1,2.35.08,10.6,10.6,0,0,1,1.91.82c.3.16.57.35.87.5a7.66,7.66,0,0,0,3.29.82A6.91,6.91,0,0,0,98,52.2a10.07,10.07,0,0,0,0-1.42,3.93,3.93,0,0,0-.29-1.27,2.55,2.55,0,0,0-.71-.85,1.8,1.8,0,0,0-.46-.33c-.18-.07-.41-.07-.64-.14,0,0,0,0-.05,0a1,1,0,0,0-.17.17l-.13.13s0,0,0,0a1.53,1.53,0,0,1,0-.31,1.23,1.23,0,0,1,.86-1.34,1.2,1.2,0,0,1,.56,0,2.5,2.5,0,0,1,.43.19,5.66,5.66,0,0,1,1,.28,1.47,1.47,0,0,1,1-.65H85.18V82.14c.14-3.15.28-6.38.41-9.55C85.69,70.13,85.8,67.75,85.89,65.44Z"/><path class="eg_cls-2" d="M99.44,88h0a62.36,62.36,0,0,1-6.26-.34,28.11,28.11,0,0,1-3-.49L89.44,87a2.48,2.48,0,0,1-.66-.22,1.23,1.23,0,0,1-.51-1.21c-.44-.15-.61-.54-.73-1,0-.15-.06-.34-.18-.41a.5.5,0,0,0-.19-.05c0-.1,0-.17,0-.26.27.07.42-.12.54-.27.28-.33.48-.75,1.05-.77a1.62,1.62,0,0,1,0-.26A1.1,1.1,0,0,1,88.7,82H85.81a2.07,2.07,0,0,0-.41,0c-.09,0-.13.13-.22.17V88Z"/></g></g></svg>
