<svg xmlns="http://www.w3.org/2000/svg" viewBox="0 0 200 134"><style>.st0{fill:#007a3d}.st1{fill:#fff}.st2{fill:#c4111b}</style><path d="M0 14C0 6.3 6.3 0 14 0h172c7.7 0 14 6.3 14 14v39c0 7.7-6.3 14-14 14H14C6.3 67 0 60.7 0 53V14z"/><path class="st0" d="M0 81c0-7.7 6.3-14 14-14h172c7.7 0 14 6.3 14 14v39c0 7.7-6.3 14-14 14H14c-7.7 0-14-6.3-14-14V81z"/><path class="st1" d="M0 44.7h200v44.7H0z"/><path class="st2" d="M0 0l66.7 67L0 134V0z"/><ellipse class="st2" cx="100" cy="67" rx="13.3" ry="17.9"/><ellipse class="st1" cx="105" cy="67" rx="13.3" ry="17.9"/><path class="st2" d="M96.4 77.8l5.7-5.4 5.6 5.5-2.1-8.9 5.7-5.5-7-.1-2.1-8.9-2.2 8.9h-7l5.6 5.6-2.2 8.8z"/></svg>
