<svg xmlns="http://www.w3.org/2000/svg" viewBox="0 0 200 134"><defs><style>.er_cls-1{fill:#e92f49;}.er_cls-2{fill:#4d86c5;}.er_cls-3{fill:#23ad50;}.er_cls-4{fill:#ffc829;}</style></defs><title>Asset 56</title><g id="Layer_2" data-name="Layer 2"><g id="Layer_45" data-name="Layer 45"><path class="er_cls-1" d="M200,66.88,8,2.59A17,17,0,0,0,0,17V117a17,17,0,0,0,8,14.41L200,67.12ZM74.81,86.64C73,89.44,62.87,93.79,51.24,94c2.38.69,3.94,2.45,3.83,4.34l-11.88,0A4.68,4.68,0,0,1,47,94.12c-9.17-.38-14.43-1.9-17.21-5.37A22.26,22.26,0,0,0,22.47,86c1.83-2.18,6.15-.1,8.4,1-1.66-2.52-12.37-4.65-12.93-14.91,2,2.95,5.14,6.46,8.28,8.1-4.17-5.34-9.15-12.1-6-17.83C20.65,64.9,22,66.88,22.72,69c-2-7.94-1.82-17.47.3-19.09,1.38,2.23,1.53,6.55,1.35,9.91,1.5-3-1.37-15.78,5.53-18.15-.89,3-1,5.61-2.08,9.23.78-1.24,1.59-3,3.6-4.16,2.12-4,8.26-10.85,10.69-9.69a30.86,30.86,0,0,1-4.29,4.78c4.44-3,11.48-5.63,14.29-3.54-2.47,2.09-7.27,2.26-10.34,3.85a11.45,11.45,0,0,0,7-.43c-1,2.29-3.53,2.51-5.14,2.52-2.05,0-4.26-.19-5.31,1.35a8.15,8.15,0,0,0,4.42-.31c-.61,1.42-2.77,1.81-3.84,1.81-4.85,0-8.9,1.62-10.46,7.71,2.19-2.57,2.88-4.07,4.43-5.18,1.35,2.13-.72,5.23-2.37,6.09-2.33,1.31-4.74,4.56-4.39,6.59,1.59-1.87,1.37-2.57,2-3.34.66,2-.18,3.75-1.17,5.73s-.7,3.8-1.2,6.58c1-1.62,1.44-4.37,2.11-7,.2,2.53,1.58,5.81,1.64,7.32.08,2.07-1.31,3.15-1.34,4.63,0,1.92.53,2.42,1.05,4a15.22,15.22,0,0,0-.3-5.24c1.53,1.39,2.68,4.38,3.57,6.69.38-1,0-1.76.46-2.54,1.45,4.71,5.82,11.11,11.34,11.33,2,.18,1.8.88,4.13,1.29-.2-3.75-.49-8.08-.69-11.83-1.54,1.17-9.75,2.49-9.79-5.12,1.74,1.67,2.93,2.69,5.62,2.81C41.21,76.57,37.66,74,38,71.29c0,0,3.16,2.41,4.62,2.71-1-1.2-2.66-3.36-2.21-5,1.46.55,4.06,2.76,6.12,5.72-.2-4.08-.2-7.21-.3-10.59-3.53,1.37-6.16.18-6.62-6,1.24,1.92,2.07,2.79,2.81,2-1.56-1.86-2-5.17-1.51-8a10.73,10.73,0,0,0,3.76,5.67c-2.51-3.5-1.2-5.14.4-3.56,1.87,1.91,2,3.66,1.91,6,2.89-3.79,2.85-5.77,1.86-8.38-1.89.29-3.6-.16-5-2.7,2.22.77,3.83,1.12,4.45-.91a4.19,4.19,0,0,1-5.43-.94c1.62-1.46,4.07-.89,5.8.14a7.89,7.89,0,0,1-.26-3.92c3.69.83,3.51,4.53,1.81,6.42a46,46,0,0,0,.9,4.72C52,51.49,53.85,49.42,57,50c-1.77.77-1.87,2.71-2.46,4.08,2.28-.38,2.53-1.43,3.32-2.66,1.87,3.25-1.54,5.35-3.5,6.54a4.2,4.2,0,0,0,4-1.57c.6,3.08-2.53,4.34-4.8,4.21S49.64,59,49,61.29a22.62,22.62,0,0,0-.91,6.59c.69-3,1.55-5.55,2.74-6.79a11.41,11.41,0,0,0,.07,5.59,7,7,0,0,0,3.81-5.42c3,1.94.88,5.65-1.83,7.62,2.41.59,4.63.08,5.9-1.56.37,4.86-4.55,4.86-7.49,4.07-1.2-.22-3.75.51-2.66,3.28,1,2.56,1,5.71,1.88,8.11.54-2.94,1.06-5.26,1.91-6.42,2.26-3,3.94-1.91,2,1.73A9.59,9.59,0,0,0,58.17,74c1.34,3.34-1.41,5.41-2.95,7.4,1.42-.06,2.74-1.51,3.13-3,2,4.71-3.59,7-5.43,6.63s-2.87,4.44-2.54,6.69a39,39,0,0,1,9.18-2.93c3.59-.7,3.78-3.73,4.52-5.47s3.15-3.42,4.11-5a8,8,0,0,1-.26,3.55,5.61,5.61,0,0,0,1.92-4c0-2.22.07-2.11.83-3.14s.33-3.6-.35-4.89c-.91-1.71-.15-5.09,1.77-5.62-.55,3,1,6.78,2.49,7.9a9,9,0,0,0-1.41-6.28,14.45,14.45,0,0,1-1.59-7.1C69,56.91,65.25,52.6,67,49c3.13,1.78,2.28,5.27,5.09,5a41,41,0,0,0-3.81-5.72c-.62-.79-1.89.49-4.32.5-2.71,0-3.76-1-5.32-2.61,1.72.21,4.39.22,5.08-.14a11.68,11.68,0,0,0-8.14-1.29c-2.21.46-4.82-.89-6.5-3.18,1.22.64,2.69,1.13,3.31.7-.29-.71-1.63-1.13-2-2.08,2.89,1,4.28-.72,6-.63,2.23.11,4.31,4.06,6.39,4.19-4-3-4.33-5.22-4.74-8.08,3.64,2.33,7.29,5.59,9.34,9.52a13,13,0,0,1,4.76,6.08c0-3.56-.67-7.09-2.12-8.38,4.57-.13,5.31,9,5.59,13.34.9-.24,1.17-5.63.51-7.54,5,5.28,2.8,13.3.49,19.68.9-.23,2.93-3.34,2.69-6.16,4.71,4.87-.72,11.16-4.7,17.2,1.74-.91,5.82-4.31,7.16-8.41C83.6,78.29,73,85.19,69.39,86.83,70.89,87.12,73,85.85,74.81,86.64Z"/><path class="er_cls-2" d="M183,134a17,17,0,0,0,17-17V67.12L8,131.41A16.9,16.9,0,0,0,17,134Z"/><path class="er_cls-3" d="M200,17A17,17,0,0,0,183,0H17A16.9,16.9,0,0,0,8,2.59L200,66.88Z"/><path class="er_cls-4" d="M81.87,70.9c-1.34,4.11-5.42,7.5-7.16,8.41,4-6,9.41-12.33,4.7-17.2.24,2.82-1.79,5.93-2.69,6.16,2.31-6.38,4.51-14.4-.49-19.68.66,1.91.39,7.3-.51,7.54-.28-4.34-1-13.47-5.59-13.34,1.45,1.29,2.09,4.82,2.12,8.38a13,13,0,0,0-4.76-6.08c-2-3.93-5.69-7.18-9.34-9.52.41,2.86.75,5.12,4.74,8.08-2.08-.13-4.16-4.08-6.39-4.19-1.77-.09-3.16,1.6-6,.63.32,1,1.67,1.38,2,2.08-.62.43-2.09-.07-3.31-.7,1.68,2.29,4.29,3.64,6.5,3.18A11.68,11.68,0,0,1,63.73,46c-.69.35-3.36.35-5.08.14,1.56,1.58,2.61,2.63,5.32,2.61,2.42,0,3.69-1.29,4.32-.5a41,41,0,0,1,3.81,5.72c-2.81.31-2-3.18-5.09-5-1.76,3.64,2,7.95,4.59,9.74a14.45,14.45,0,0,0,1.59,7.1,9,9,0,0,1,1.41,6.28c-1.54-1.12-3-4.9-2.49-7.9-1.93.53-2.68,3.91-1.77,5.62.68,1.3,1.13,3.78.35,4.89s-.84.92-.83,3.14a5.61,5.61,0,0,1-1.92,4,8,8,0,0,0,.26-3.55c-1,1.62-3.36,3.3-4.11,5s-.93,4.77-4.52,5.47a39,39,0,0,0-9.18,2.93c-.33-2.26.66-7,2.54-6.69s7.43-1.92,5.43-6.63c-.39,1.48-1.71,2.93-3.13,3,1.54-2,4.28-4.06,2.95-7.4a9.59,9.59,0,0,1-3.68,4.09c1.9-3.64.22-4.73-2-1.73-.85,1.16-1.37,3.47-1.91,6.42-.89-2.39-.83-5.55-1.88-8.11-1.1-2.77,1.46-3.5,2.66-3.28,2.94.79,7.86.79,7.49-4.07-1.27,1.64-3.5,2.15-5.9,1.56,2.7-2,4.84-5.68,1.83-7.62a7,7,0,0,1-3.81,5.42,11.41,11.41,0,0,1-.07-5.59c-1.19,1.25-2.05,3.84-2.74,6.79A22.62,22.62,0,0,1,49,61.29c.62-2.29,2.16-.8,4.52-.63s5.4-1.13,4.8-4.21a4.2,4.2,0,0,1-4,1.57c2-1.19,5.37-3.3,3.5-6.54-.79,1.23-1,2.28-3.32,2.66.6-1.37.7-3.31,2.46-4.08-3.15-.63-5,1.44-5.87,4.68a46,46,0,0,1-.9-4.72c1.71-1.89,1.88-5.6-1.81-6.42a7.89,7.89,0,0,0,.26,3.92c-1.73-1-4.17-1.6-5.8-.14a4.19,4.19,0,0,0,5.43.94c-.62,2-2.23,1.68-4.45.91,1.36,2.55,3.07,3,5,2.7,1,2.61,1,4.59-1.86,8.38.13-2.36,0-4.12-1.91-6-1.61-1.57-2.91.07-.4,3.56a10.73,10.73,0,0,1-3.76-5.67c-.5,2.81,0,6.12,1.51,8-.74.79-1.57-.08-2.81-2,.47,6.16,3.09,7.34,6.62,6,.1,3.38.1,6.51.3,10.59-2.06-3-4.67-5.17-6.12-5.72-.45,1.66,1.25,3.81,2.21,5-1.45-.3-4.62-2.71-4.62-2.71-.32,2.74,3.23,5.29,5.52,6.42-2.69-.12-3.88-1.14-5.62-2.81,0,7.61,8.25,6.29,9.79,5.12.2,3.75.49,8.08.69,11.83-2.32-.41-2.14-1.1-4.13-1.29-5.51-.21-9.89-6.62-11.34-11.33-.41.78-.08,1.59-.46,2.54-.9-2.31-2-5.3-3.57-6.69a15.22,15.22,0,0,1,.3,5.24c-.53-1.63-1-2.13-1.05-4,0-1.47,1.42-2.56,1.34-4.63-.06-1.51-1.43-4.79-1.64-7.32-.67,2.61-1.09,5.36-2.11,7,.51-2.79.34-4.71,1.2-6.58S28.73,61,28.07,59c-.63.77-.42,1.47-2,3.34-.35-2,2.06-5.29,4.39-6.59,1.65-.87,3.72-4,2.37-6.09-1.55,1.11-2.24,2.61-4.43,5.18C30,48.72,34,47.12,38.86,47.1c1.07,0,3.24-.39,3.84-1.81a8.15,8.15,0,0,1-4.42.31c1-1.54,3.25-1.34,5.31-1.35,1.61,0,4.13-.23,5.14-2.52a11.45,11.45,0,0,1-7,.43c3.07-1.59,7.88-1.76,10.34-3.85-2.81-2.1-9.85.49-14.29,3.54a30.86,30.86,0,0,0,4.29-4.78c-2.43-1.16-8.57,5.64-10.69,9.69-2,1.14-2.81,2.92-3.6,4.16,1.07-3.62,1.18-6.25,2.08-9.23-6.89,2.37-4,15.11-5.53,18.15.18-3.36,0-7.68-1.35-9.91-2.12,1.62-2.29,11.15-.3,19.09-.72-2.12-2.08-4.11-2.51-6.69-3.14,5.73,1.84,12.49,6,17.83C23.08,78.51,20,75,17.94,72.05,18.5,82.31,29.21,84.44,30.88,87c-2.25-1.05-6.57-3.13-8.4-1a22.26,22.26,0,0,1,7.27,2.74c2.78,3.47,8,5,17.21,5.37a4.68,4.68,0,0,0-3.76,4.3l11.88,0c.11-1.9-1.45-3.65-3.83-4.34,11.63-.24,21.73-4.6,23.57-7.39-1.82-.79-3.92.48-5.42.19C73,85.19,83.6,78.29,81.87,70.9Z"/></g></g></svg>
