<svg xmlns="http://www.w3.org/2000/svg" viewBox="0 0 200 134"><defs><style>.fo_cls-1{fill:#fafafa;}.fo_cls-2{fill:#2272b9;}.fo_cls-3{fill:#ee2e2f;}</style></defs><title>Asset 59</title><g id="Layer_2" data-name="Layer 2"><g id="Layer_42" data-name="Layer 42"><path class="fo_cls-1" d="M183,0H82.19V50.18H200V17A17,17,0,0,0,183,0Z"/><path class="fo_cls-1" d="M48.54,0H17A17,17,0,0,0,0,17V50.18H48.54Z"/><path class="fo_cls-1" d="M0,83.82V117a17,17,0,0,0,17,17H48.54V83.82Z"/><path class="fo_cls-1" d="M82.19,134H183a17,17,0,0,0,17-17V83.82H82.19Z"/><polygon class="fo_cls-2" points="48.54 50.18 0 50.18 0 58.59 56.95 58.59 56.95 50.18 56.95 0 48.54 0 48.54 50.18"/><polygon class="fo_cls-2" points="73.78 83.82 73.78 134 82.19 134 82.19 83.82 200 83.82 200 75.41 73.78 75.41 73.78 83.82"/><polygon class="fo_cls-2" points="0 83.82 48.54 83.82 48.54 134 56.95 134 56.95 83.82 56.95 75.41 0 75.41 0 83.82"/><polygon class="fo_cls-2" points="82.19 50.18 82.19 0 73.78 0 73.78 50.18 73.78 58.59 200 58.59 200 50.18 82.19 50.18"/><polygon class="fo_cls-3" points="73.78 58.59 73.78 50.18 73.78 0 56.95 0 56.95 50.18 56.95 58.59 0 58.59 0 75.41 56.95 75.41 56.95 83.82 56.95 134 73.78 134 73.78 83.82 73.78 75.41 200 75.41 200 58.59 73.78 58.59"/></g></g></svg>
