<svg xmlns="http://www.w3.org/2000/svg" viewBox="0 0 200 134"><defs><style>.gaza_cls-1{fill:#1f997e;}.gaza_cls-2{fill:#fafafa;}.gaza_cls-3{fill:#ce2931;}.gaza_cls-4{fill:#121212;}</style></defs><title>Asset 64</title><g id="Layer_2" data-name="Layer 2"><g id="Layer_37" data-name="Layer 37"><path class="gaza_cls-1" d="M183,0H17A16.91,16.91,0,0,0,5.87,4.17L66.41,44.53H200V17A17,17,0,0,0,183,0Z"/><rect class="gaza_cls-2" x="66.41" y="44.53" width="133.59" height="44.94"/><path class="gaza_cls-3" d="M5.87,129.83A16.92,16.92,0,0,0,17,134H183a17,17,0,0,0,17-17V89.47H66.41Z"/><path class="gaza_cls-4" d="M66.41,44.53,5.87,4.17A16.94,16.94,0,0,0,0,17V117a17,17,0,0,0,5.87,12.83L66.41,89.47Z"/></g></g></svg>
