<svg xmlns="http://www.w3.org/2000/svg" viewBox="0 0 200 134"><defs><style>.gg_cls-1{fill:#fafafa;}.gg_cls-2{fill:#e71d2f;}.gg_cls-3{fill:#f8dd11;}</style></defs><title>Asset 72</title><g id="Layer_2" data-name="Layer 2"><g id="Layer_28" data-name="Layer 28"><path class="gg_cls-1" d="M183,0H17A17,17,0,0,0,0,17V117a17,17,0,0,0,17,17H183a17,17,0,0,0,17-17V17A17,17,0,0,0,183,0ZM150.38,78.2l-5.59-5.6H105.6v39.2l5.6,5.6H88.81l5.59-5.6V72.6H55.22l-5.6,5.6V55.8l5.6,5.6H94.4V22.2l-5.59-5.6H111.2l-5.6,5.6V61.4h39.19l5.59-5.6Z"/><polygon class="gg_cls-2" points="103 134 97 134 97 70 0 70 0 64 97 64 97 0 103 0 103 64 200 64 200 70 103 70 103 134"/><polygon class="gg_cls-3" points="105.6 61.4 105.6 22.2 111.19 16.6 88.81 16.6 94.4 22.2 94.4 61.4 55.22 61.4 49.62 55.8 49.62 78.2 55.22 72.6 94.4 72.6 94.4 111.8 88.81 117.41 111.19 117.41 105.6 111.8 105.6 72.6 144.78 72.6 150.38 78.2 150.38 55.8 144.78 61.4 105.6 61.4"/></g></g></svg>
