<svg xmlns="http://www.w3.org/2000/svg" viewBox="0 0 200 134"><defs><style>.gi_cls-1{fill:#fff;}.gi_cls-2{fill:#fafafa;}.gi_cls-3{fill:#d92b32;}.gi_cls-4{fill:#f7d80f;}.gi_cls-5{fill:#010101;}.gi_cls-6{fill:#d91f26;}.gi_cls-7{fill:none;stroke:#d91f26;stroke-linecap:round;stroke-linejoin:round;stroke-width:0;}</style></defs><title>Asset 68</title><g id="Layer_2" data-name="Layer 2"><g id="Layer_33" data-name="Layer 33"><rect class="gi_cls-1" x="68.26" y="48.75" width="8.12" height="0.02"/><rect class="gi_cls-1" x="123.63" y="48.75" width="8.12" height="0.02"/><path class="gi_cls-1" d="M101.49,88.94l0,0a2.21,2.21,0,0,1-1,.24,2.11,2.11,0,0,1-1.68-.82h-.08a2,2,0,0,0,0,.34v1.2h2.75Z"/><path class="gi_cls-1" d="M101.59,88.88a2,2,0,0,0,.63-.55h0A2,2,0,0,1,101.59,88.88Z"/><path class="gi_cls-2" d="M183,0H17A17,17,0,0,0,0,17V89.88H97.82v-1.2a3.36,3.36,0,0,1,0-.34H82.91V86.78H66.07V83.6l4-3h0V51.14H68.26V48.77H66V43.28h2.21v3H72v-3h2.67V24.72h-1V22.21H71.9V17.39H75v2.45h3V17.39h4.58v2.45h3V17.39H88v4.82H87v2.51h-.89V43.28h.46v3h4.16v-3h1.3V19.86h15.84V43.28h1.3v3h4.16v-3h.46V24.72H113V22.21h-1V17.39h2.48v2.45h3V17.39H122v2.45h3V17.39h3.05v4.82h-1.72v2.51h-1V43.28H128v3h3.7v-3H134v5.49h-2.21v2.37H130V80.59h0l4,3v3.18H117.09v1.56h-14.7a3.4,3.4,0,0,1,0,.34v1.2H200V17A17,17,0,0,0,183,0ZM111.13,16.49h-1.77v3.34H90.63V16.49H88.87V12.61h2.8v2.14h3.16V12.61h3.6v2.14h3.16V12.61h3.6v2.14h3.16V12.61h2.8Z"/><path class="gi_cls-3" d="M99.79,100.53l4.88-3.24-2.49-1.66a2.22,2.22,0,0,1-2,1.46H100a2.29,2.29,0,0,1-2.09-1.82l-3,2Z"/><polygon class="gi_cls-3" points="101.49 92.92 101.49 89.88 98.74 89.88 98.74 92.49 99.79 91.79 101.49 92.92"/><path class="gi_cls-3" d="M98.76,94.73A1.37,1.37,0,0,0,100,96h.17a1.3,1.3,0,0,0,1.19-.92L99.79,94Z"/><path class="gi_cls-3" d="M102.41,93.53l-.15-.1,4.06,2.7h1.28v2.33h-1.28L100.94,102V132.1H98.65v-2.67H90.72v-4.24H93v2.12h3.14v-2.12h2.48V123.6H96.17v-2.12H93v2.12H90.72v-4.22h7.93V102l-5.38-3.58H92V96.13h1.28l4.56-3V89.88H0V117a17,17,0,0,0,17,17H183a17,17,0,0,0,17-17V89.88H102.41Z"/><polygon class="gi_cls-4" points="90.72 119.37 90.72 123.6 93.03 123.6 93.03 121.48 96.17 121.48 96.17 123.6 98.65 123.6 98.65 119.37 90.72 119.37"/><polygon class="gi_cls-4" points="96.17 125.19 96.17 127.31 93.03 127.31 93.03 125.19 90.72 125.19 90.72 129.43 98.65 129.43 98.65 125.19 96.17 125.19"/><path class="gi_cls-5" d="M124.21,72.82c0-2.92-2.07-5.51-4.69-5.51s-4.69,2.47-4.69,5.51v7.77h9.38Z"/><path class="gi_cls-5" d="M87.46,80.59h-2.3V72.82c0-3-2.11-5.51-4.69-5.51s-4.69,2.58-4.69,5.51v7.77H87.46Z"/><path class="gi_cls-5" d="M106.64,81.3l-.28.17-1,.69H112v0h-5.38Z"/><path class="gi_cls-5" d="M93.36,81.23v.91H88v0h7.07C94.48,81.82,93.91,81.51,93.36,81.23Z"/><path class="gi_cls-5" d="M102.32,82.16l.18-.15c1-.78,2.13-1.55,3.09-2.15.38-.24.73-.45,1.05-.64V71.44c0-5-3.08-7.41-6.64-7.41s-6.64,2.37-6.64,7.41v7.77a42.57,42.57,0,0,1,5.05,2.95h3.91Z"/><polygon class="gi_cls-6" points="82.93 84.63 82.91 84.63 82.93 84.63 84.79 83.6 66.07 83.6 66.07 86.78 82.91 86.78 82.91 84.64 82.93 84.63"/><polygon class="gi_cls-6" points="84.79 83.6 87.41 82.16 87.98 82.16 87.98 82.14 87.47 82.14 87.47 80.61 72.72 80.61 70.05 80.61 66.07 83.6 84.79 83.6"/><polygon class="gi_cls-6" points="115.22 83.6 117.07 84.63 117.09 84.63 117.07 84.63 117.09 84.64 117.09 86.78 133.93 86.78 133.93 83.6 115.22 83.6"/><polygon class="gi_cls-6" points="112.54 82.14 112.02 82.14 112.02 82.16 112.6 82.16 115.22 83.6 133.93 83.6 129.95 80.61 127.28 80.61 112.54 80.61 112.54 82.14"/><line class="gi_cls-7" x1="133.93" y1="83.6" x2="115.21" y2="83.6"/><line class="gi_cls-7" x1="66.07" y1="83.6" x2="84.79" y2="83.6"/><path class="gi_cls-6" d="M99.29,87.43l.09-.07Z"/><path class="gi_cls-6" d="M99.66,87.22l.15,0Z"/><path class="gi_cls-6" d="M98.34,87a3.44,3.44,0,0,1,0-.34,1.9,1.9,0,0,1,.49-1.27c.1-.13.26-.27.37-.41l0,0-.38-.29H82.91v3.7H97.85A2.9,2.9,0,0,1,98.36,87Z"/><path class="gi_cls-6" d="M99.11,87.6v0Z"/><polygon class="gi_cls-6" points="100.94 87.22 100.93 87.22 100.94 87.22 100.94 87.22"/><path class="gi_cls-6" d="M100.51,86l0,.05h0l.05,0h0l.23.24-.29-.31Z"/><ellipse class="gi_cls-6" cx="101.01" cy="87.12" rx="0.01" transform="translate(-15.72 151.68) rotate(-69.72)"/><path class="gi_cls-6" d="M98.82,88.3l0,0h0l0,.07h.08Z"/><path class="gi_cls-6" d="M100.12,87.2v0l0,0h0l.07,0a1,1,0,0,0,.24,0l.23,0a1.15,1.15,0,0,0-.55-.15h-.11l0,0Z"/><path class="gi_cls-6" d="M103.39,83.54c-.5.38-.9.73-1.31,1.09h15l-1.86-1-2.62-1.45h-7.28C104.69,82.59,104,83.05,103.39,83.54Z"/><path class="gi_cls-6" d="M97.87,83.93c-.88-.61-1.85-1.22-2.81-1.77H87.41L84.79,83.6l-1.86,1H98.84C98.53,84.4,98.21,84.17,97.87,83.93Z"/><path class="gi_cls-6" d="M102.32,82.16H98.41l.29.2c.66.46,1.27.91,1.81,1.35C101.07,83.19,101.66,82.67,102.32,82.16Z"/><path class="gi_cls-6" d="M117.07,84.63h-15l-.28.24a5.18,5.18,0,0,1,.46.54,1.94,1.94,0,0,1,.46,1.23,2.86,2.86,0,0,1-.45,1.63l-.06.07h0l.06-.07.07-.13h0c0,.06,0,.13,0,.2h14.7v-3.7Z"/><path class="gi_cls-4" d="M100.51,86l-.16-.16c-.31-.29-.69-.61-1.13-.95l0,0c-.12.14-.27.28-.37.41a1.9,1.9,0,0,0-.49,1.27,3.44,3.44,0,0,0,0,.34h0a2.13,2.13,0,0,1,1.34-.89h.77l0-.05Z"/><path class="gi_cls-4" d="M101.8,84.87l.28-.24h-.52Z"/><path class="gi_cls-4" d="M103.39,83.54c.63-.48,1.29-1,1.93-1.38l1-.69.28-.17V79.22c-.33.19-.67.4-1.05.64-1,.61-2.05,1.37-3.09,2.15l-.18.15c-.66.52-1.25,1-1.81,1.54.31.25.61.5.86.74l.19.19h.52C102.49,84.27,102.89,83.92,103.39,83.54Z"/><line class="gi_cls-7" x1="102.08" y1="84.63" x2="117.07" y2="84.63"/><line class="gi_cls-7" x1="117.07" y1="84.63" x2="117.09" y2="84.63"/><line class="gi_cls-7" x1="82.91" y1="84.63" x2="82.93" y2="84.63"/><line class="gi_cls-7" x1="82.93" y1="84.63" x2="98.84" y2="84.63"/><line class="gi_cls-7" x1="102.08" y1="84.63" x2="101.56" y2="84.63"/><path class="gi_cls-6" d="M75.79,72.82c0-2.92,2.07-5.51,4.69-5.51s4.69,2.47,4.69,5.51v7.77h2.3v-27H84.74V51.14H70V80.59h5.74Z"/><path class="gi_cls-5" d="M83.5,43.28v-5.1a3.36,3.36,0,0,0-3.11-3.57h-.16c-1.64.09-2.82,1.66-2.82,3.57V46.3h6.08v-3Z"/><rect class="gi_cls-5" x="76.37" y="48.75" width="7.12" height="0.02"/><polygon class="gi_cls-6" points="83.49 48.77 76.37 48.77 68.26 48.77 68.26 51.14 70.05 51.14 83.49 51.14 83.49 48.77"/><polygon class="gi_cls-6" points="76.37 48.75 83.49 48.75 83.49 46.3 77.41 46.3 77.41 43.28 74.63 43.28 71.95 43.28 71.95 46.3 68.26 46.3 68.26 43.28 66.05 43.28 66.05 48.77 68.26 48.77 68.26 48.75 76.37 48.75"/><path class="gi_cls-6" d="M77.41,43.28v-5.1c0-1.91,1.18-3.47,2.82-3.57h.16a3.36,3.36,0,0,1,3.11,3.57v5.1h2.65V24.72H74.63V43.28Z"/><polygon class="gi_cls-5" points="100.66 30.51 100.66 22.48 100 22.48 99.34 22.48 99.34 30.51 100 30.51 100.66 30.51"/><path class="gi_cls-5" d="M100,32.51a3.57,3.57,0,0,0-3.64,3.83v10h7.29v-10A3.57,3.57,0,0,0,100,32.51Z"/><polygon class="gi_cls-5" points="106.49 19.86 106.49 19.84 93.03 19.84 93.03 19.86 100 19.86 106.49 19.86"/><rect class="gi_cls-5" x="103.12" y="24.06" width="1.33" height="5.87"/><rect class="gi_cls-5" x="95.55" y="24.06" width="1.33" height="5.87"/><path class="gi_cls-6" d="M96.36,43.28V36.34a3.65,3.65,0,1,1,7.29,0v6.94h4.28V19.86H92.08V43.28Zm6.76-19.22h1.33v5.87h-1.33Zm-3.77-1.58h1.32v8H99.34Zm-3.79,1.58h1.33v5.87H95.55Z"/><polygon class="gi_cls-6" points="90.64 16.48 90.64 19.82 100 19.82 109.37 19.82 109.37 16.48 100 16.48 90.64 16.48"/><polygon class="gi_cls-6" points="108.34 14.74 105.18 14.74 105.18 12.61 101.58 12.61 101.58 14.74 100 14.74 98.42 14.74 98.42 12.61 94.82 12.61 94.82 14.74 91.67 14.74 91.67 12.61 88.87 12.61 88.87 16.48 90.64 16.48 100 16.48 109.37 16.48 111.13 16.48 111.13 12.61 108.34 12.61 108.34 14.74"/><polygon class="gi_cls-6" points="87.05 24.72 87.05 22.21 73.62 22.21 73.62 24.72 74.63 24.72 86.16 24.72 87.05 24.72"/><polygon class="gi_cls-6" points="88.01 22.21 88.01 17.39 85.53 17.39 85.53 19.84 82.53 19.84 82.53 17.39 77.95 17.39 77.95 19.84 74.95 19.84 74.95 17.39 71.9 17.39 71.9 22.21 73.62 22.21 87.05 22.21 88.01 22.21"/><polygon class="gi_cls-4" points="98.65 102.04 98.65 104.18 100.94 104.18 100.94 102.04 99.79 102.8 98.65 102.04"/><rect class="gi_cls-4" x="98.65" y="130.51" width="2.29" height="1.59"/><path class="gi_cls-4" d="M101.49,92.92l-1.7-1.13-1.05.7v2a1.68,1.68,0,0,0,0,.25l1-.69,1.6,1.06h0l.79.54h0l2.49,1.66-4.88,3.24L94.92,97.3l3-2a3,3,0,0,1-.12-.79V93.1l-4.56,3H92v2.33h1.28L98.65,102l1.14.76,1.15-.76,5.38-3.58h1.28V96.13h-1.28l-4.06-2.7-.77-.51Z"/><path class="gi_cls-4" d="M98.82,88.3l0,0a2.11,2.11,0,0,0,1.68.82,2.21,2.21,0,0,0,1-.24l.05,0a2,2,0,0,0,.63-.55l.06-.07a2.86,2.86,0,0,0,.45-1.63,1.94,1.94,0,0,0-.46-1.23,5.18,5.18,0,0,0-.46-.54l-.24-.24-.19-.19c-.26-.24-.55-.49-.86-.74-.54-.44-1.14-.89-1.81-1.35l-.29-.2a42.57,42.57,0,0,0-5.05-2.95v2c.55.28,1.12.6,1.7.93,1,.56,1.94,1.17,2.81,1.77.34.24.66.47,1,.7l.38.29c.43.34.82.66,1.13.95l.16.16.29.31a2.72,2.72,0,0,1,.21.25l0,.07v0l0,.07a1.74,1.74,0,0,1-.06.33v0h0l0,0v0l0,0h0l0,0-.1,0h0l-.23,0a1,1,0,0,1-.24,0l-.07,0h0l0,0v0l0,0H100l-.22,0-.15,0a1.12,1.12,0,0,0-.28.14l-.09.07a1.27,1.27,0,0,0-.16.16v0a1.61,1.61,0,0,0-.32.67h0Z"/><path class="gi_cls-4" d="M102.35,88.14l-.07.13-.06.07a2,2,0,0,1-.63.55l-.05,0,0,0v4h0l.77.51.15.1V88.68a3.4,3.4,0,0,0,0-.34c0-.07,0-.13,0-.2Z"/><path class="gi_cls-4" d="M97.82,94.48a3,3,0,0,0,.12.79A2.29,2.29,0,0,0,100,97.1h.17a2.22,2.22,0,0,0,2-1.46h0l-.79-.54h0a1.3,1.3,0,0,1-1.19.92H100a1.37,1.37,0,0,1-1.27-1.3,1.68,1.68,0,0,1,0-.25v-5.8a2,2,0,0,1,0-.34l0-.07a1.61,1.61,0,0,1,.32-.67v0a1.27,1.27,0,0,1,.16-.16l.09-.07a1.12,1.12,0,0,1,.28-.14l.15,0,.22,0h.17a1.15,1.15,0,0,1,.55.15h0l.1,0,0,0h0l0,0v0l0,0h0v0a1.74,1.74,0,0,0,.06-.33l0-.07v0l0-.07a2.72,2.72,0,0,0-.21-.25l-.23-.24h0l-.05,0h-.8a2.13,2.13,0,0,0-1.34.89,2.9,2.9,0,0,0-.51,1.36,3.36,3.36,0,0,0,0,.34v5.8Z"/><path class="gi_cls-6" d="M115.7,51.14h-.43v2.42h-2.73v27h2.3V72.82c0-3,2.11-5.51,4.69-5.51s4.69,2.58,4.69,5.51v7.77H130V51.14H115.7Z"/><polygon class="gi_cls-6" points="100 53.55 112.54 53.55 115.27 53.55 115.27 51.14 111.46 51.14 100 51.14 88.54 51.14 84.74 51.14 84.74 53.55 87.47 53.55 100 53.55"/><rect class="gi_cls-5" x="116.51" y="48.75" width="7.12" height="0.02"/><path class="gi_cls-5" d="M122.59,43.28v-5.1c0-1.91-1.17-3.47-2.82-3.57h-.16a3.36,3.36,0,0,0-3.12,3.57v5.1h0v3h6.08Z"/><polygon class="gi_cls-6" points="122.59 43.28 122.59 46.3 116.51 46.3 116.51 48.75 123.63 48.75 131.75 48.75 131.75 48.77 133.96 48.77 133.96 43.28 131.75 43.28 131.75 46.3 128.04 46.3 128.04 43.28 125.38 43.28 122.59 43.28"/><polygon class="gi_cls-6" points="116.51 48.77 116.51 51.14 129.95 51.14 131.75 51.14 131.75 48.77 123.63 48.77 116.51 48.77"/><path class="gi_cls-6" d="M116.5,43.28v-5.1a3.36,3.36,0,0,1,3.12-3.57h.16c1.64.09,2.82,1.66,2.82,3.57v5.1h2.79V24.72H113.84V43.28Z"/><polygon class="gi_cls-6" points="83.5 43.28 83.49 43.28 83.49 46.3 83.49 48.75 83.49 48.77 83.49 51.14 84.31 51.14 84.74 51.14 88.54 51.14 100 51.14 111.46 51.14 115.27 51.14 115.69 51.14 116.51 51.14 116.51 48.77 116.51 48.75 116.51 46.3 116.51 43.28 116.5 43.28 113.84 43.28 113.39 43.28 113.39 46.3 109.22 46.3 109.22 43.28 107.92 43.28 103.64 43.28 103.64 43.3 103.64 46.3 100 46.3 96.36 46.3 96.36 43.3 96.36 43.28 92.08 43.28 90.78 43.28 90.78 46.3 86.62 46.3 86.62 43.28 86.16 43.28 83.5 43.28"/><polygon class="gi_cls-6" points="126.38 24.72 126.38 22.21 112.95 22.21 112.95 24.72 113.84 24.72 125.38 24.72 126.38 24.72"/><polygon class="gi_cls-6" points="128.1 22.21 128.1 17.39 125.05 17.39 125.05 19.84 122.05 19.84 122.05 17.39 117.47 17.39 117.47 19.84 114.47 19.84 114.47 17.39 111.99 17.39 111.99 22.21 112.95 22.21 126.38 22.21 128.1 22.21"/><polygon class="gi_cls-4" points="98.65 119.37 98.65 123.6 98.65 125.19 98.65 129.43 98.65 130.51 100.94 130.51 100.94 104.18 98.65 104.18 98.65 119.37"/><path class="gi_cls-6" d="M93.36,81.23V71.44c0-5,2.94-7.41,6.64-7.41s6.64,2.37,6.64,7.41v10.7h5.89V80.61h0v-27H87.46v27h0v1.53h5.89Z"/></g></g></svg>
