<svg xmlns="http://www.w3.org/2000/svg" viewBox="0 0 200 134"><defs><style>.gw_cls-1{fill:#ce2931;}.gw_cls-2{fill:#fbd632;}.gw_cls-3{fill:#209e56;}.gw_cls-4{fill:#121212;}</style></defs><title>Asset 74</title><g id="Layer_2" data-name="Layer 2"><g id="Layer_26" data-name="Layer 26"><path class="gw_cls-1" d="M88.91,0H17A17,17,0,0,0,0,17V117a17,17,0,0,0,17,17H88.91V0ZM57.17,85.19,44,75.59l-13.21,9.6,5-15.53-13.21-9.6H38.91l5-15.53,5,15.53H65.34l-13.21,9.6Z"/><path class="gw_cls-2" d="M183,0H88.91V67H200V17A17,17,0,0,0,183,0Z"/><path class="gw_cls-3" d="M88.91,134H183a17,17,0,0,0,17-17V67H88.91Z"/><polygon class="gw_cls-4" points="65.34 60.05 49 60.05 43.96 44.52 38.91 60.05 22.58 60.05 35.79 69.65 30.74 85.19 43.96 75.58 57.17 85.19 52.12 69.65 65.34 60.05"/></g></g></svg>
