<svg xmlns="http://www.w3.org/2000/svg" viewBox="0 0 200 134"><defs><style>.gy_cls-1{fill:#209e56;}.gy_cls-2{fill:#fff;}.gy_cls-3{fill:#fbd632;}.gy_cls-4{fill:#121212;}.gy_cls-5{fill:#ce2931;}</style></defs><title>Asset 75</title><g id="Layer_2" data-name="Layer 2"><g id="Layer_25" data-name="Layer 25"><path class="gy_cls-1" d="M17,134H183a17,17,0,0,0,17-17V67L8,131.39A16.89,16.89,0,0,0,17,134Z"/><path class="gy_cls-1" d="M183,0H17A16.9,16.9,0,0,0,8,2.61L200,67V17A17,17,0,0,0,183,0Z"/><path class="gy_cls-2" d="M6,4l11.28,7.56L182.68,67,17.32,122.42,6,130A17,17,0,0,0,8,131.39L200,67V67L8,2.61A17,17,0,0,0,6,4Z"/><polygon class="gy_cls-3" points="17.32 122.42 182.68 67 17.32 11.57 100 67 17.32 122.42"/><path class="gy_cls-4" d="M100,67,17.32,11.58,6,4A17.05,17.05,0,0,0,2,9.1L88.33,67,2,124.9A17.07,17.07,0,0,0,6,130l11.28-7.56Z"/><path class="gy_cls-5" d="M2,9.1A16.91,16.91,0,0,0,0,17V117a16.9,16.9,0,0,0,2,7.9L88.33,67Z"/></g></g></svg>
