<svg xmlns="http://www.w3.org/2000/svg" viewBox="0 0 200 134"><defs><style>.hn_cls-1{fill:#fff;}.hn_cls-2{fill:#2c51a3;}</style></defs><title>Asset 77</title><g id="Layer_2" data-name="Layer 2"><g id="Layer_23" data-name="Layer 23"><path class="hn_cls-1" d="M0,89.39H200V44.61H0Zm67.07-5.16L62.69,81,58.3,84.23,60,79.07l-4.38-3.19H61l1.68-5.16,1.68,5.16h5.42L65.4,79.07Zm70.24-35.89L139,53.5h5.42L140,56.69l1.68,5.16-4.39-3.19-4.39,3.19,1.68-5.16-4.39-3.19h5.42Zm-1.68,27.54,1.68-5.16L139,75.89h5.42L140,79.07l1.68,5.16L137.31,81l-4.39,3.19,1.68-5.16-4.39-3.19ZM100,59.54l1.68,5.16h5.42l-4.38,3.19L104.38,73,100,69.85,95.61,73l1.67-5.16L92.9,64.69h5.42ZM62.69,48.34l1.68,5.16h5.42L65.4,56.69l1.68,5.16-4.39-3.19L58.3,61.84,60,56.69,55.59,53.5H61Z"/><polygon class="hn_cls-2" points="100 59.54 98.32 64.69 99.22 64.69 100 59.54"/><polygon class="hn_cls-2" points="99.64 64.69 100.36 64.69 101.67 64.69 100 59.54 99.22 64.69 99.64 64.69"/><polygon class="hn_cls-2" points="100.36 64.69 100.36 65.81 100.42 65.8 100.54 65.63 100.61 65.77 107.1 64.69 101.67 64.69 100.36 64.69"/><polygon class="hn_cls-2" points="100.61 65.77 100.73 66 101.13 66.06 100.95 66.31 102.08 65.94 102.71 67.88 107.1 64.69 100.61 65.77"/><polygon class="hn_cls-2" points="100.36 65.81 100.36 65.87 100.42 65.8 100.36 65.81"/><polygon class="hn_cls-2" points="92.9 64.69 97.29 67.88 97.57 67.03 92.9 64.69"/><polygon class="hn_cls-2" points="100.95 66.31 101.13 66.06 100.73 66 100.9 66.32 100.95 66.31"/><polygon class="hn_cls-2" points="97.57 67.03 97.92 65.94 99.1 66.32 99.46 65.63 100 66.38 100.36 65.87 100.36 65.81 100.36 64.69 99.64 64.69 99.22 64.69 98.32 64.69 92.9 64.69 97.57 67.03"/><polygon class="hn_cls-2" points="102.08 65.94 100.95 66.31 100.9 66.32 101.26 67.03 101.47 67.09 101.36 67.21 104.39 73.04 102.71 67.88 102.08 65.94"/><polygon class="hn_cls-2" points="101.36 67.21 100.92 67.65 101.65 68.65 100 69.85 104.39 73.04 101.36 67.21"/><polygon class="hn_cls-2" points="100.22 66.69 101.26 67.03 100.9 66.32 100.73 66 100.61 65.77 100.54 65.63 100.42 65.8 100.36 65.87 100 66.38 100.22 66.69"/><polygon class="hn_cls-2" points="100.22 66.69 100 66.38 99.46 65.63 99.1 66.32 100.22 66.69"/><polygon class="hn_cls-2" points="101.65 68.65 100.92 67.65 95.61 73.04 100 69.85 101.65 68.65"/><polygon class="hn_cls-2" points="100.92 67.65 101.36 67.21 101.47 67.09 101.26 67.03 100.22 66.69 99.1 66.32 97.92 65.94 97.57 67.03 97.29 67.88 95.61 73.04 100.92 67.65"/><polygon class="hn_cls-2" points="137.31 70.73 135.63 75.89 136.53 75.89 137.31 70.73"/><polygon class="hn_cls-2" points="136.94 75.89 137.68 75.89 138.99 75.89 137.31 70.73 136.53 75.89 136.94 75.89"/><polygon class="hn_cls-2" points="137.68 75.89 137.68 77.01 137.73 77 137.85 76.83 137.93 76.96 144.41 75.89 138.99 75.89 137.68 75.89"/><polygon class="hn_cls-2" points="137.93 76.96 138.04 77.19 138.44 77.25 138.27 77.5 139.39 77.13 140.02 79.08 144.41 75.89 137.93 76.96"/><polygon class="hn_cls-2" points="137.68 77.01 137.68 77.07 137.73 77 137.68 77.01"/><polygon class="hn_cls-2" points="134.88 78.22 130.21 75.89 134.6 79.08 134.88 78.22"/><polygon class="hn_cls-2" points="138.27 77.5 138.44 77.25 138.04 77.19 138.21 77.52 138.27 77.5"/><polygon class="hn_cls-2" points="135.23 77.13 136.41 77.52 136.77 76.83 137.31 77.57 137.68 77.07 137.68 77.01 137.68 75.89 136.94 75.89 136.53 75.89 135.63 75.89 130.21 75.89 134.88 78.22 135.23 77.13"/><polygon class="hn_cls-2" points="139.39 77.13 138.27 77.5 138.21 77.52 138.58 78.22 138.78 78.29 138.67 78.4 141.7 84.23 140.02 79.08 139.39 77.13"/><polygon class="hn_cls-2" points="138.67 78.4 138.23 78.84 138.96 79.84 137.31 81.04 141.7 84.23 138.67 78.4"/><polygon class="hn_cls-2" points="137.53 77.88 138.58 78.22 138.21 77.52 138.04 77.19 137.93 76.96 137.85 76.83 137.73 77 137.68 77.07 137.31 77.57 137.53 77.88"/><polygon class="hn_cls-2" points="137.53 77.88 137.31 77.57 136.77 76.83 136.41 77.52 137.53 77.88"/><polygon class="hn_cls-2" points="138.96 79.84 138.23 78.84 132.92 84.23 137.31 81.04 138.96 79.84"/><polygon class="hn_cls-2" points="138.23 78.84 138.67 78.4 138.78 78.29 138.58 78.22 137.53 77.88 136.41 77.52 135.23 77.13 134.88 78.22 134.6 79.08 132.92 84.23 138.23 78.84"/><polygon class="hn_cls-2" points="137.31 48.34 135.63 53.5 136.53 53.5 137.31 48.34"/><polygon class="hn_cls-2" points="136.94 53.5 137.68 53.5 138.99 53.5 137.31 48.34 136.53 53.5 136.94 53.5"/><polygon class="hn_cls-2" points="137.68 53.5 137.68 54.62 137.73 54.61 137.85 54.44 137.92 54.58 144.41 53.5 138.99 53.5 137.68 53.5"/><polygon class="hn_cls-2" points="137.92 54.58 138.04 54.8 138.44 54.87 138.27 55.11 139.39 54.75 140.02 56.69 144.41 53.5 137.92 54.58"/><polygon class="hn_cls-2" points="137.68 54.62 137.68 54.68 137.73 54.61 137.68 54.62"/><polygon class="hn_cls-2" points="130.21 53.5 134.6 56.69 134.88 55.83 130.21 53.5"/><polygon class="hn_cls-2" points="138.27 55.11 138.44 54.87 138.04 54.8 138.21 55.13 138.27 55.11"/><polygon class="hn_cls-2" points="134.88 55.83 135.23 54.75 136.41 55.13 136.77 54.44 137.31 55.19 137.68 54.68 137.68 54.62 137.68 53.5 136.94 53.5 136.53 53.5 135.63 53.5 130.21 53.5 134.88 55.83"/><polygon class="hn_cls-2" points="139.39 54.75 138.27 55.11 138.21 55.13 138.58 55.83 138.78 55.9 138.67 56.01 141.7 61.84 140.02 56.69 139.39 54.75"/><polygon class="hn_cls-2" points="138.67 56.01 138.23 56.45 138.96 57.46 137.31 58.66 141.7 61.84 138.67 56.01"/><polygon class="hn_cls-2" points="137.53 55.5 138.58 55.83 138.21 55.13 138.04 54.8 137.92 54.58 137.85 54.44 137.73 54.61 137.68 54.68 137.31 55.19 137.53 55.5"/><polygon class="hn_cls-2" points="137.53 55.5 137.31 55.19 136.77 54.44 136.41 55.13 137.53 55.5"/><polygon class="hn_cls-2" points="138.96 57.46 138.23 56.45 132.92 61.84 137.31 58.66 138.96 57.46"/><polygon class="hn_cls-2" points="138.23 56.45 138.67 56.01 138.78 55.9 138.58 55.83 137.53 55.5 136.41 55.13 135.23 54.75 134.88 55.83 134.6 56.69 132.92 61.84 138.23 56.45"/><polygon class="hn_cls-2" points="62.69 70.73 61.01 75.89 61.91 75.89 62.69 70.73"/><polygon class="hn_cls-2" points="62.32 75.89 63.05 75.89 64.36 75.89 62.69 70.73 61.91 75.89 62.32 75.89"/><polygon class="hn_cls-2" points="63.05 75.89 63.05 77.01 63.1 77 63.23 76.83 63.3 76.96 69.78 75.89 64.36 75.89 63.05 75.89"/><polygon class="hn_cls-2" points="63.3 76.96 63.42 77.19 63.82 77.25 63.65 77.5 64.77 77.13 65.4 79.07 69.78 75.89 63.3 76.96"/><polygon class="hn_cls-2" points="63.05 77.01 63.05 77.07 63.1 77 63.05 77.01"/><polygon class="hn_cls-2" points="55.59 75.89 59.98 79.07 60.25 78.22 55.59 75.89"/><polygon class="hn_cls-2" points="63.65 77.5 63.82 77.25 63.42 77.19 63.59 77.52 63.65 77.5"/><polygon class="hn_cls-2" points="60.61 77.13 61.79 77.52 62.15 76.83 62.69 77.57 63.05 77.07 63.05 77.01 63.05 75.89 62.32 75.89 61.91 75.89 61.01 75.89 55.59 75.89 60.25 78.22 60.61 77.13"/><polygon class="hn_cls-2" points="64.77 77.13 63.65 77.5 63.59 77.52 63.95 78.22 64.16 78.29 64.05 78.4 67.07 84.23 65.4 79.07 64.77 77.13"/><polygon class="hn_cls-2" points="63.1 77 63.05 77.07 62.69 77.57 62.91 77.88 63.95 78.22 63.59 77.52 63.42 77.19 63.3 76.96 63.23 76.83 63.1 77"/><polygon class="hn_cls-2" points="64.05 78.4 63.61 78.84 64.34 79.84 62.69 81.04 67.07 84.23 64.05 78.4"/><polygon class="hn_cls-2" points="62.69 77.57 62.15 76.83 61.79 77.52 62.91 77.88 62.69 77.57"/><polygon class="hn_cls-2" points="64.34 79.84 63.61 78.84 58.3 84.23 62.69 81.04 64.34 79.84"/><polygon class="hn_cls-2" points="63.61 78.84 64.05 78.4 64.16 78.29 63.95 78.22 62.91 77.88 61.79 77.52 60.61 77.13 60.25 78.22 59.98 79.07 58.3 84.23 63.61 78.84"/><polygon class="hn_cls-2" points="62.69 48.34 61.01 53.5 61.91 53.5 62.69 48.34"/><polygon class="hn_cls-2" points="62.32 53.5 63.05 53.5 64.36 53.5 62.69 48.34 61.91 53.5 62.32 53.5"/><polygon class="hn_cls-2" points="63.05 53.5 63.05 54.62 63.1 54.61 63.23 54.44 63.3 54.58 69.78 53.5 64.36 53.5 63.05 53.5"/><polygon class="hn_cls-2" points="63.3 54.58 63.42 54.8 63.82 54.87 63.65 55.11 64.77 54.75 65.4 56.69 69.78 53.5 63.3 54.58"/><polygon class="hn_cls-2" points="63.05 54.62 63.05 54.68 63.1 54.61 63.05 54.62"/><polygon class="hn_cls-2" points="55.59 53.5 59.98 56.69 60.25 55.83 55.59 53.5"/><polygon class="hn_cls-2" points="63.65 55.11 63.82 54.87 63.42 54.8 63.59 55.13 63.65 55.11"/><polygon class="hn_cls-2" points="60.25 55.83 60.61 54.75 61.79 55.13 62.15 54.44 62.69 55.19 63.05 54.68 63.05 54.62 63.05 53.5 62.32 53.5 61.91 53.5 61.01 53.5 55.59 53.5 60.25 55.83"/><polygon class="hn_cls-2" points="64.77 54.75 63.65 55.11 63.59 55.13 63.95 55.83 64.16 55.9 64.05 56.01 67.07 61.84 65.4 56.69 64.77 54.75"/><polygon class="hn_cls-2" points="64.05 56.01 63.61 56.45 64.34 57.46 62.69 58.66 67.07 61.84 64.05 56.01"/><polygon class="hn_cls-2" points="62.91 55.5 63.95 55.83 63.59 55.13 63.42 54.8 63.3 54.58 63.23 54.44 63.1 54.61 63.05 54.68 62.69 55.19 62.91 55.5"/><polygon class="hn_cls-2" points="62.91 55.5 62.69 55.19 62.15 54.44 61.79 55.13 62.91 55.5"/><polygon class="hn_cls-2" points="64.34 57.46 63.61 56.45 58.3 61.84 62.69 58.66 64.34 57.46"/><polygon class="hn_cls-2" points="63.61 56.45 64.05 56.01 64.16 55.9 63.95 55.83 62.91 55.5 61.79 55.13 60.61 54.75 60.25 55.83 59.98 56.69 58.3 61.84 63.61 56.45"/><path class="hn_cls-2" d="M183,0H17A17,17,0,0,0,0,17V44.61H200V17A17,17,0,0,0,183,0Z"/><path class="hn_cls-2" d="M0,117a17,17,0,0,0,17,17H183a17,17,0,0,0,17-17V89.39H0Z"/></g></g></svg>
