<svg xmlns="http://www.w3.org/2000/svg" viewBox="0 0 200 134"><defs><style>.hr_cls-1{fill:none;}.hr_cls-2{fill:#fff;}.hr_cls-3{fill:#262a6a;}.hr_cls-4{fill:#d62b31;}.hr_cls-5{fill:#00a7bd;}.hr_cls-6{fill:#f4eb26;}.hr_cls-7{fill:#554c21;}.hr_cls-8{fill:#7a6b3a;}.hr_cls-9{fill:#7b6c3b;}.hr_cls-10{fill:#252969;}.hr_cls-11{fill:#a02421;}.hr_cls-12{fill:#010101;}.hr_cls-13{fill:#f4eb27;}.hr_cls-14{fill:#fdfdfe;}.hr_cls-15{fill:#e41e26;}.hr_cls-16{fill:#f4eb22;}.hr_cls-17{fill:#ffc60a;}.hr_cls-18{fill:#fdc711;}.hr_cls-19{fill:#d62027;}</style></defs><title>Asset 43</title><g id="Layer_2" data-name="Layer 2"><g id="Layer_58" data-name="Layer 58"><path class="hr_cls-1" d="M77.94,88.87H0v.53H78.31Z"/><path class="hr_cls-1" d="M121.86,89.4H200v-.53H122.23Z"/><path class="hr_cls-2" d="M74,78l.11-33.32h52.14V78.07a23.62,23.62,0,0,1-4,10.8H200V44.6H0V88.87H77.94A22.07,22.07,0,0,1,74,78Z"/><path class="hr_cls-3" d="M121.86,89.4c-4.92,6.94-13.17,11.4-20.92,11.35-8.41.37-17.43-4.21-22.63-11.35H0V117a17,17,0,0,0,17,17H183a17,17,0,0,0,17-17V89.4Z"/><path class="hr_cls-4" d="M200,17A17,17,0,0,0,183,0H17A17,17,0,0,0,0,17V44.6H200ZM71.5,22.44,79.91,26l5.6-6.66,7.69,4.44,6.58-5.27,7,5.35,7.45-4.5s5.8,6.39,5.87,6.39,8.4-3.42,8.4-3.42l4.67,8.13-6.64,13.4a78.51,78.51,0,0,0-26.81-4.56,79.51,79.51,0,0,0-26.08,4.5L67,30.5Z"/><path class="hr_cls-2" d="M99.72,39.33a78.51,78.51,0,0,1,26.81,4.56l6.64-13.4-4.67-8.13s-8.33,3.42-8.4,3.42-5.87-6.39-5.87-6.39l-7.45,4.5-7-5.35L93.2,23.82l-7.69-4.44L79.91,26l-8.4-3.59L67,30.5l6.64,13.32A79.51,79.51,0,0,1,99.72,39.33Zm28.44-16,4.29,7.21-2.12,4.34h0L129,37.72l-2.66,5.45a54.05,54.05,0,0,0-10.08-3.06L120,26.67Zm-21.34,1.32,7.39-4.26,5.72,6.2-3.81,13.45a70,70,0,0,0-10.5-1.43ZM100,19.59l6.76,5.13-1.2,13.95a102.38,102.38,0,0,0-10.76,0L93.49,24.73Zm-14.15.78,7.55,4.31h.05s.29,3.44.29,3.47h0L94,31.52h0l.32,3.55h0l.33,3.6A93,93,0,0,0,84,40.1L80.41,26.91ZM72,23.35,80.32,27l3.53,13.17a52.69,52.69,0,0,0-9.89,3l-6-12.76Z"/><path class="hr_cls-5" d="M126.29,43.17,129,37.72l-1.74,3.52c-1.75-.66-3.47-1.2-5.2-1.76s-3.41-1.05-5.15-1.59l1.89-6.72a58.65,58.65,0,0,1,6,1.57c1.92.62,3.76,1.36,5.63,2.17l2.12-4.34-4.29-7.21L120,26.67l-3.8,13.45A54.05,54.05,0,0,1,126.29,43.17Zm-2.09-16.3,1.64.51h0l1.24-1v0c0,.06.27,1.49.26,1.5l1.14.42.49.17h0l-1.25,1.07.15,1.55-1.11-.36-.29-.09-1.2,1.12-.35-1.61-1.73-.53,1.34-1.19Z"/><path class="hr_cls-5" d="M105.53,38.67l1.2-13.95L100,19.59l-6.47,5.15,1.28,13.92A102.38,102.38,0,0,1,105.53,38.67Zm-4.78-10.93.45-.1V27l.35-.09h0l0-.35-.46-.6v-.29h.24l.44.17.25.37.24-.07,0-.4.51-.35.55.27v.4l0,0h.36l-.08-.29v-.15l.34,0,.25-.21h.34l0,.2-.36.5,0,.43.32.15.11.65.5.5,0,.37.18.24.07.29-.28,0,0,.6H105l-.06.54-.64,0v.34l-.16.25-1.2.14-.34-.11H102l0-.19-.44-.31-.47-.08-.08-.42-.3,0-.11-.32,0-.06-.1-.13s.16-.41.15-.43l-.19-.18Zm-.25,3.33v.4l0,0h.36l-.08-.29v-.15l.33,0,.25-.21h.34l0,.2-.36.5,0,.43.32.15.11.65.5.49,0,.37.18.24.07.29-.28,0,0,.6h-.34l-.06.54-.64,0v.34l-.16.25L100,36l-.34-.11h-.5l0-.19-.44-.31-.48-.08-.08-.42-.3,0-.11-.32,0-.06-.1-.13s.16-.41.14-.43l-.19-.18.31-.58.45-.1v-.66l.35-.09h0l0-.34-.46-.6v-.29h.24l.44.16.25.37.24-.07,0-.4.51-.35Zm-6-1.94s.16-.41.15-.43l-.19-.18.31-.58.45-.1v-.66l.35-.09h0l0-.35-.46-.6v-.29h.24l.44.17.25.37.25-.07,0-.4.51-.35.55.27v.4l0,0h.36L97.7,26v-.15l.34,0,.25-.21h.34l0,.2-.36.5,0,.43.32.15.11.65.5.49,0,.37.18.24.07.29-.28,0,0,.61H99l-.06.54-.64,0,0,.34-.16.25-1.2.14-.34-.11H96l0-.19-.44-.31-.47-.08L95,29.68l-.3,0-.11-.32,0-.05Z"/><path class="hr_cls-5" d="M83.85,40.16,80.32,27,72,23.35l-4,7,6,12.76A52.69,52.69,0,0,1,83.85,40.16ZM73.38,29.54h0L73.66,28v0c.08,0,1.18,1,1.18,1L76,28.58l.48-.18h0L76.25,30l1.13,1.09-1.09.43-.28.11-.18,1.62-1.33-1L72.84,33l.24-1.76-1.3-1Zm-1.29,6.55A9.75,9.75,0,0,0,77,36a7.08,7.08,0,0,0,3.42-2.86A4.1,4.1,0,0,1,78.12,38,4.59,4.59,0,0,1,72.09,36.09Z"/><path class="hr_cls-2" d="M78.12,38a4.1,4.1,0,0,0,2.34-4.85A7.08,7.08,0,0,1,77,36a9.75,9.75,0,0,1-5,.07A4.59,4.59,0,0,0,78.12,38Z"/><path class="hr_cls-6" d="M101.92,26.92l-.2.2v.15l0,.15.13.17-.24,0s0,.53,0,.53l.14.09s0,.2,0,.2l.27.12,0,.21.28.16s.08.36.09.36l.17,0h0l0,0,.27-.15v-.3l-.26-.06-.1-.1.29,0,.36,0,.12-.06c0,.13-.09.12-.1.12l-.2.1v.29l.6.08s0,.12,0,.12l-.63-.14-.34.2,0,.25.24.23h.41s.21-.27.22-.27.14-.45.14-.45l.23-.22,0-.48.37-.06,0-.85-.15-.08v-.31l-.33-.48.33,0,.08-.09.3.15.14.66.52.48v.21l-.52.06-.38.51v.78l.22.38h-.18l-.2-.33-.49.26.09.45.22.2-.36,0-.21-.33-.26.1-.08.26-.11-.2-.28,0a1.94,1.94,0,0,0-.12.18h-.48l0-.11.1-.09-.08-.69-.41,0,0,.34-.17-.07,0-.86-.18-.15-.1-.47-.48,0,.16.31-.19.47,0-.1.11.32.3,0,.08.42.47.08.44.31,0,.19h.5l.34.11,1.2-.14.16-.25v-.34l.64,0,.06-.54h.34l0-.6.28,0-.07-.29-.18-.24,0-.37-.5-.5-.11-.65-.32-.15,0-.43.36-.5,0-.2h-.34l-.25.21-.34,0v.15l.08.29h-.38l-1.06,0V26l.4,0,0-.16h.12L103,26l.39.07v-.38l-.55-.27-.51.35,0,.4-.24.07-.25-.37-.44-.17h-.24v.29l.46.6,0,.35h0ZM101,29.47l-.21-.11.44-.45Zm2.34-3.79H103l0-.2Zm-.63-.18,0,.2-.37.06Zm1,.22.31,0,.26-.23.23,0-.69.52Zm-.81,1.88v-.49a1.48,1.48,0,0,1-.24-.1c.06,0,.56,0,.56,0l-.22.15v.42h.9l.31-.08-.36.27-.23.4-.12,0-.35-.46h-.4s-.22.53-.22.54l-.16,0-.42-.45s-.13-.22-.11-.22Zm-1.68-1.9.25,0,.29.13.21.3h-.31Z"/><path class="hr_cls-6" d="M100.48,28.93l.1.13-.07-.15.16-.47h0l-.17-.15.33-.51.41-.13s0-.63,0-.63l.31-.13-.35.09v.66l-.45.1-.31.58.19.18S100.48,28.93,100.48,28.93Z"/><path class="hr_cls-7" d="M101.21,27.66l-.41.13-.33.51.17.15h0l.48,0,.1.47.18.15,0,.86.17.07,0-.34.41,0,.08.69-.1.09,0,.11h.48a1.94,1.94,0,0,1,.12-.18l.28,0,.11.2.08-.26.26-.1.21.33.36,0-.22-.2-.09-.45.49-.26.2.33h.18l-.22-.38v-.78l.38-.51.52-.06v-.21l-.52-.48-.14-.66-.3-.15-.08.09-.33,0,.33.48v.31l.15.08,0,.85-.37.06,0,.48-.23.22s-.13.45-.14.45-.22.27-.22.27h-.41l-.24-.23,0-.25,0,0,0-.1h0l-.17,0s-.09-.36-.09-.36l-.28-.16,0-.21-.27-.12s0-.19,0-.2l-.14-.09s0-.53,0-.53l.24,0-.13-.17,0-.15v-.15l.2-.2-.36,0h0l-.31.13S101.21,27.66,101.21,27.66Z"/><path class="hr_cls-7" d="M103.65,29.36s0-.12,0-.12l-.6-.08v-.29l.2-.1s0,0,.1-.12l-.12.06-.36,0-.29,0,.1.1.26.06v.3l-.27.15,0,0,0,.1,0,0,.34-.2Z"/><path class="hr_cls-7" d="M102,27.82l.42.45.16,0s.22-.54.22-.54h.4l.35.46.12,0,.23-.4.36-.27-.31.08H103v-.42l.22-.15s-.51,0-.56,0a1.48,1.48,0,0,0,.24.1v.49h-1S102,27.82,102,27.82Zm1.45-.06a.07.07,0,0,1,.07-.08h.09a.07.07,0,0,1,.08.08v.08a.07.07,0,0,1-.08.07h-.09a.07.07,0,0,1-.07-.07Zm-1.13,0a.07.07,0,0,1,.08-.07h.09a.07.07,0,0,1,.07.07v.08a.07.07,0,0,1-.07.07h-.09a.08.08,0,0,1-.08-.07Z"/><path class="hr_cls-8" d="M102.39,27.74h.09a.07.07,0,0,1,.07.07v.08a.08.08,0,0,1-.08.08h-.09a.07.07,0,0,1-.07-.07v-.08a.07.07,0,0,1,.07-.07Z"/><path class="hr_cls-9" d="M103.52,27.69h.08a.08.08,0,0,1,.08.08v.08a.07.07,0,0,1-.07.07h-.09a.07.07,0,0,1-.07-.07v-.08a.08.08,0,0,1,.08-.08Z"/><polygon class="hr_cls-7" points="101.99 26.17 101.78 25.87 101.49 25.74 101.25 25.71 101.68 26.17 101.99 26.17"/><polygon class="hr_cls-7" points="104.53 25.47 104.31 25.44 104.05 25.68 103.74 25.72 103.84 26 104.53 25.47"/><path class="hr_cls-7" d="M103,26l-.09-.15h-.12l0,.16-.4,0v.12l1.06,0h0l0,0v0Z"/><polygon class="hr_cls-7" points="103.37 25.68 102.97 25.49 103 25.7 103.37 25.68"/><polygon class="hr_cls-7" points="102.74 25.5 102.34 25.76 102.71 25.7 102.74 25.5"/><polygon class="hr_cls-7" points="100.85 28.75 100.68 28.44 100.68 28.43 100.68 28.44 100.51 28.91 100.59 29.06 100.61 29.12 100.66 29.22 100.85 28.75"/><polygon class="hr_cls-7" points="101.04 29.47 101.27 28.92 100.83 29.37 101.04 29.47"/><path class="hr_cls-6" d="M95.91,27.11l-.2.19v.16l0,.15.13.17-.24,0s0,.54,0,.54l.14.09a1.67,1.67,0,0,1,0,.2l.27.12,0,.21.28.16s.08.36.09.36l.17,0h0l0,0,.27-.16V29L96.68,29l-.1-.1.29,0,.36,0,.12-.06c0,.13-.09.12-.1.12l-.2.1v.29l.6.08s0,.12,0,.12L97,29.42l-.34.2,0,.25.24.23h.41s.21-.27.22-.27.14-.45.14-.45l.23-.22s0-.47,0-.48l.37-.06,0-.86-.15-.08v-.31l-.33-.48.33,0,.08-.09.3.15.14.66.53.48v.21l-.53.06-.38.51v.78l.22.38h-.18l-.2-.33-.5.26.09.45.22.2-.36,0-.21-.33-.26.1-.08.26s-.11-.19-.11-.2l-.28,0a2.17,2.17,0,0,0-.12.18h-.49l0-.11.1-.09-.08-.69-.41,0,0,.34-.17-.07,0-.85-.18-.16-.1-.47-.48,0,.16.31-.19.47,0-.1.11.32.3,0,.08.42.47.08.44.31,0,.19h.51l.34.11,1.2-.14.16-.25,0-.34.64,0,.06-.54h.34l0-.61.28,0-.07-.29-.18-.24,0-.37-.5-.49-.11-.65-.32-.15,0-.43.36-.5,0-.2h-.34l-.25.21-.34,0V26l.09.29H97.4l-1.06,0v-.12l.4,0,0-.16s.12,0,.12,0l.09.15.39.07v-.38l-.55-.27-.51.35,0,.4-.25.07L95.8,26l-.44-.17h-.24v.29l.46.6,0,.35h0ZM95,29.67l-.21-.11.44-.45Zm2.34-3.79H97l0-.21Zm-.63-.18,0,.2-.37.06Zm1,.22.31,0,.26-.23.23,0-.69.53Zm-.81,1.88v-.49a1.37,1.37,0,0,1-.24-.1c.06,0,.56,0,.56,0l-.22.15v.42h.9l.31-.08-.36.27-.23.4-.12,0-.35-.46h-.39l-.22.54a.84.84,0,0,1-.16,0L96,28s-.13-.22-.11-.22Zm-1.68-1.89.25,0,.29.13.21.3h-.31Z"/><path class="hr_cls-6" d="M94.67,28.64h0l-.17-.15.32-.51.41-.13s0-.63,0-.63l.31-.13-.35.09v.66l-.45.1-.31.58.19.18s-.15.43-.15.43l.1.14-.07-.15Z"/><path class="hr_cls-7" d="M95.2,27.85l-.41.13-.32.51.17.15h0l.48,0,.1.47.18.16,0,.85.17.07,0-.34.41,0,.08.69-.1.09,0,.11h.49a2.17,2.17,0,0,1,.12-.18l.28,0s.11.2.11.2l.08-.26.26-.1.21.33.36,0-.22-.2-.09-.45.5-.26.2.33h.18l-.22-.38v-.78l.38-.51.53-.06v-.21l-.53-.48-.14-.66-.3-.15-.08.09-.33,0,.33.48v.31l.15.08,0,.86-.37.06s0,.48,0,.48l-.23.22s-.13.45-.14.45-.22.27-.22.27h-.41l-.24-.23,0-.25,0,0,0-.1h0l-.17,0s-.09-.36-.09-.36L96.13,29l0-.21-.27-.12a1.67,1.67,0,0,0,0-.2l-.14-.09s0-.54,0-.54l.24,0-.13-.17,0-.15v-.16l.2-.19-.35,0h0l-.31.13S95.2,27.85,95.2,27.85Z"/><path class="hr_cls-7" d="M97.64,29.55s0-.12,0-.12l-.6-.08v-.29l.2-.1s0,0,.1-.12l-.12.06-.36,0-.29,0,.1.1.26.06v.3l-.27.16,0,0,0,.1,0,0,.34-.2Z"/><path class="hr_cls-7" d="M96,28l.42.45a.84.84,0,0,0,.16,0l.22-.54h.39l.35.46.12,0,.23-.4.36-.27-.31.08H97v-.42l.22-.15s-.5,0-.56,0a1.37,1.37,0,0,0,.24.1v.49h-1S96,28,96,28ZM97.43,28a.08.08,0,0,1,.08-.07h.09a.07.07,0,0,1,.08.07V28a.07.07,0,0,1-.08.08h-.09a.08.08,0,0,1-.08-.08Zm-1.13,0a.07.07,0,0,1,.08-.07h.09a.08.08,0,0,1,.08.07v.08a.07.07,0,0,1-.08.07h-.09a.07.07,0,0,1-.08-.07Z"/><path class="hr_cls-8" d="M96.38,27.93h.09a.07.07,0,0,1,.07.07v.08a.08.08,0,0,1-.08.08h-.09a.07.07,0,0,1-.07-.07V28A.08.08,0,0,1,96.38,27.93Z"/><path class="hr_cls-9" d="M97.51,27.88h.09a.07.07,0,0,1,.07.07V28a.08.08,0,0,1-.08.08h-.09a.08.08,0,0,1-.08-.08V28A.08.08,0,0,1,97.51,27.88Z"/><polygon class="hr_cls-7" points="95.98 26.36 95.77 26.07 95.48 25.94 95.23 25.91 95.67 26.36 95.98 26.36"/><polygon class="hr_cls-7" points="98.52 25.67 98.29 25.64 98.04 25.87 97.73 25.92 97.83 26.19 98.52 25.67"/><path class="hr_cls-7" d="M97,26.16,96.91,26s-.12,0-.12,0l0,.16-.4,0v.12l1.06,0h0l0,0v0Z"/><polygon class="hr_cls-7" points="97.36 25.88 96.96 25.68 96.99 25.89 97.36 25.88"/><polygon class="hr_cls-7" points="96.73 25.7 96.33 25.96 96.7 25.9 96.73 25.7"/><polygon class="hr_cls-7" points="94.65 29.41 94.84 28.95 94.67 28.64 94.67 28.63 94.67 28.64 94.5 29.11 94.58 29.26 94.6 29.31 94.65 29.41"/><polygon class="hr_cls-7" points="95.03 29.67 95.25 29.11 94.82 29.56 95.03 29.67"/><path class="hr_cls-10" d="M116.13,40.08l3.81-13.45-5.72-6.2-7.39,4.26-1.2,14A70,70,0,0,1,116.13,40.08ZM110,37.65c0,.1-.08.14-.33.2H109v-.34l.31-.29.77.13C110.06,37.53,110.08,37.53,110,37.65Zm3-.85c-.08.13,0,.12-.29.18l-.73,0v-.28l.36-.36.74.18C113,36.65,113.07,36.67,113,36.8Zm2.14.71a.41.41,0,0,1-.33.22l-.77-.07v-.35l.41-.35.74.25C115.16,37.38,115.2,37.39,115.13,37.51Zm-4.86-10.33a5.17,5.17,0,0,1,1.61-.15c.34,0,.32.18.66.18s.76.28,1.25.33a1.4,1.4,0,0,0,1.11-.23h.27v.17a2,2,0,0,1-.74.46,2.65,2.65,0,0,1-1.46.14l.06.14a12.46,12.46,0,0,0,1.37.5,3.74,3.74,0,0,0,1.61-.11h.29v.14a4.28,4.28,0,0,1-1.49.59,6.14,6.14,0,0,1-2-.21c-.35-.06-.63-.3-1-.4-.22-.06-.79-.2-1.06,0l-1.46-1A1.85,1.85,0,0,1,110.26,27.18Zm-1.81,5.92c-.21.07-.27,0-.3-.14s.09-.22.2-.34c-.29,0-.28-.2-.13-.4s.58-.57.76-.78a.5.5,0,0,1-.36-.07c0-.06,0-.17.09-.26-.15,0-.2,0-.22-.1s0-.25.08-.35a5.34,5.34,0,0,1-.91,0c-.17-.07-.13-.31-.12-.43s.22-.41.32-.66a3.52,3.52,0,0,0,.22-.66,1.85,1.85,0,0,1-.57-.61.41.41,0,0,1,.14-.49l.93.47a1.27,1.27,0,0,1,.61-.43l1.52,1,1.07,0c-.23.52-.55.74-1.31,1a3,3,0,0,0,.89,1.07l.29.08a1.78,1.78,0,0,1,.86.14,1.78,1.78,0,0,1,.85-.16.82.82,0,0,0,.36,0,1.36,1.36,0,0,0,.34-.16h.32a.86.86,0,0,0,.69,0h.53a1.19,1.19,0,0,0,.73,0l.42-.31c.08-.09.18-.17.26-.16s.15.15.17.24v.82l-.09.16a.62.62,0,0,0-.14.26c0,.07.07.12.11.2l0,.33c-.07.18-.5.56-.49.87s-.08.63,0,.77-.09.11-.14.17a2.25,2.25,0,0,0,0,.52c0,.11.08.07.16.13s0,.55,0,.56a3.17,3.17,0,0,0-.88.89l0,.5-.46.35-.72-.26.05-.12L115,36a2.82,2.82,0,0,0,.08-1,.78.78,0,0,0-.54-.41,6.23,6.23,0,0,1-.89.87c0,.1,0,.29-.12.38a.84.84,0,0,1-.35.19l-.12.3-.71-.17c0-.1.13-.15.18-.25s0-.18,0-.28l.63-1a1.89,1.89,0,0,1-.56.05c-.11,0-.14-.1-.2-.17a1,1,0,0,1-.36.19c-.09,0-.2,0-.24-.15a.69.69,0,0,1-.24.19c-.09,0-.17,0-.38,0,0,.47-.61.82-.71,1.25l-.06.91c-.05.09-.26.12-.39.34l-.76-.2c.11-.65.35-.66.39-.87v-.87a2.9,2.9,0,0,1,.26-.79c-.15-.08-.24-.16-.38-.16a1,1,0,0,0-.46.16,7.65,7.65,0,0,1-.62,1,1.12,1.12,0,0,1,0,.39c0,.12-.14.19-.17.31l-.85-.21c.13-.57.37-.64.49-.91s.17-.41.38-.53a1.88,1.88,0,0,1,.09-.68A1.39,1.39,0,0,1,108.45,33.1Zm-1,3,.83.18c0,.17,0,.23,0,.36s-.11.19-.36.24h-.77l0-.36Z"/><path class="hr_cls-6" d="M97.78,33.85h0l-.17-.15.33-.51.41-.13s0-.63,0-.63l.31-.13-.35.09v.66l-.45.1-.31.58.19.18s-.15.43-.14.43l.1.13-.07-.15Z"/><path class="hr_cls-6" d="M99.42,31.55l-.24.07-.25-.37-.44-.16h-.24v.29l.46.6,0,.34h0l.36,0-.2.19v.16l0,.15L99,33l-.24,0s0,.53,0,.53l.14.09a1.46,1.46,0,0,1,0,.2l.27.12,0,.21.28.16s.08.36.09.36l.17,0h0l0,0,.27-.16v-.3l-.26-.06-.1-.1.29,0,.36,0,.12-.06c0,.13-.09.12-.1.12l-.2.1v.29l.61.08s0,.12,0,.12l-.63-.14-.34.21,0,.25.24.23h.41s.21-.27.22-.27.14-.45.14-.45l.23-.22,0-.48.37-.06,0-.85-.13-.07-.35.27-.23.4-.12,0-.35-.46h-.4l-.22.54-.16,0-.42-.45S99,33,99,33h1v-.49a1.3,1.3,0,0,1-.24-.1c.06,0,.56,0,.56,0l-.22.14V33h.9l.31-.08h0v-.31l-.33-.47.33,0,.08-.09.3.15.14.66.53.48v.21l-.53.06-.38.51v.78l.22.38h-.18l-.2-.33-.5.26.09.45.22.2-.36,0s-.21-.32-.21-.33l-.26.1-.08.26s-.11-.19-.11-.2l-.28,0a1.79,1.79,0,0,0-.12.18h-.49l0-.11.1-.09L99.2,35l-.41,0-.05.34-.17-.07,0-.86-.18-.16-.1-.47-.48,0,.17.31-.19.47,0-.1.11.32.3,0,.08.42.48.08.44.31,0,.19h.5L100,36l1.2-.14.16-.25v-.34l.64,0,.06-.54h.34l0-.6.28,0-.07-.29-.18-.24,0-.37-.5-.49-.11-.65-.32-.15,0-.43.36-.5,0-.2h-.34l-.25.21-.33,0v.15l.08.29h-.38l-1.06,0v-.12l.4,0,0-.16H100s.09.15.09.15l.39.07v-.38L100,30.8l-.51.35Zm-.63,0-.44-.46.25,0,.29.13.21.3Zm-.64,3.3-.21-.11.44-.45Zm2.7-3.75.31,0,.26-.23.23,0-.69.52Zm-.37,0h-.37l0-.2Zm-.63-.18,0,.2-.37.06Z"/><path class="hr_cls-7" d="M98.31,33.07l-.41.13-.33.51.17.15h0l.48,0,.1.47.18.16,0,.86.17.07L98.8,35l.41,0,.08.69-.1.09,0,.11h.49a1.79,1.79,0,0,1,.12-.18l.28,0s.11.2.11.2l.08-.26.26-.1s.21.33.21.33l.36,0-.22-.2-.09-.45.5-.26.2.33h.18l-.22-.38v-.78l.38-.51.53-.06v-.21l-.53-.48-.14-.66-.3-.15-.08.09-.33,0,.33.47v.31h0l.13.07,0,.85-.37.06,0,.48-.23.22s-.13.45-.14.45-.22.27-.22.27h-.41l-.24-.23,0-.25,0,0,0-.1h0l-.17,0s-.09-.36-.09-.36l-.28-.16,0-.21L99,33.86a1.46,1.46,0,0,0,0-.2l-.14-.09s0-.53,0-.53L99,33l-.13-.17,0-.15v-.16l.2-.19-.36,0h0l-.31.13S98.31,33.07,98.31,33.07Z"/><path class="hr_cls-7" d="M99.79,34.84l.34-.21.63.14s0-.12,0-.12l-.61-.08v-.29l.2-.1s0,0,.1-.12l-.12.06-.36,0-.29,0,.1.1.26.06v.3l-.27.16,0,0,0,.1Z"/><path class="hr_cls-7" d="M101.34,32.91,101,33h-.9v-.42l.22-.14s-.51,0-.56,0a1.3,1.3,0,0,0,.24.1V33H99s.11.22.11.22l.42.45.16,0,.22-.54h.4l.35.46.12,0,.23-.4.35-.27h0Zm-1.68.39a.08.08,0,0,1-.08.07H99.5a.08.08,0,0,1-.08-.07v-.08a.08.08,0,0,1,.08-.08h.09a.08.08,0,0,1,.08.08Zm1.13,0a.08.08,0,0,1-.08.07h-.08a.07.07,0,0,1-.08-.07v-.08a.07.07,0,0,1,.08-.07h.08a.08.08,0,0,1,.08.07Z"/><path class="hr_cls-8" d="M99.5,33.15h.09a.07.07,0,0,1,.07.07v.08a.08.08,0,0,1-.08.08h-.09a.08.08,0,0,1-.08-.08v-.08A.08.08,0,0,1,99.5,33.15Z"/><path class="hr_cls-9" d="M100.63,33.1h.09a.07.07,0,0,1,.07.07v.08a.08.08,0,0,1-.08.08h-.09a.07.07,0,0,1-.07-.07v-.08A.08.08,0,0,1,100.63,33.1Z"/><polygon class="hr_cls-7" points="98.6 31.16 98.35 31.13 98.79 31.58 99.09 31.58 98.89 31.28 98.6 31.16"/><polygon class="hr_cls-7" points="101.64 30.88 101.41 30.85 101.15 31.09 100.85 31.14 100.94 31.41 101.64 30.88"/><path class="hr_cls-7" d="M100.11,31.38s-.09-.14-.09-.15h-.12l0,.16-.4,0v.12l1.06,0h0l0,0v0Z"/><polygon class="hr_cls-7" points="100.48 31.1 100.07 30.9 100.1 31.11 100.48 31.1"/><polygon class="hr_cls-7" points="99.84 30.91 99.45 31.17 99.82 31.12 99.84 30.91"/><polygon class="hr_cls-7" points="97.96 34.17 97.79 33.85 97.79 33.84 97.78 33.85 97.62 34.32 97.69 34.48 97.72 34.53 97.77 34.63 97.96 34.17"/><polygon class="hr_cls-7" points="98.14 34.88 98.37 34.33 97.94 34.78 98.14 34.88"/><path class="hr_cls-11" d="M107.89,36.93c.25-.06.31-.14.36-.24s0-.19,0-.36l-.83-.18-.37.43,0,.36Z"/><path class="hr_cls-11" d="M109,37.53v.34h.68c.25-.06.28-.1.33-.2s.05-.12.07-.29l-.77-.13Z"/><path class="hr_cls-11" d="M112,36.67v.28l.73,0c.25-.06.21,0,.29-.18s.05-.15.07-.31l-.74-.18Z"/><path class="hr_cls-11" d="M114,37.31v.35l.77.07a.41.41,0,0,0,.33-.22c.08-.12,0-.13.06-.3l-.74-.25Z"/><path class="hr_cls-11" d="M111.79,28.75c.4.1.68.34,1,.4a6.14,6.14,0,0,0,2,.21,4.28,4.28,0,0,0,1.49-.59v-.14H116a3.74,3.74,0,0,1-1.61.11,12.46,12.46,0,0,1-1.37-.5l-.06-.14a2.65,2.65,0,0,0,1.46-.14,2,2,0,0,0,.74-.46v-.17h-.27a1.4,1.4,0,0,1-1.11.23c-.49,0-.92-.33-1.25-.33s-.33-.16-.66-.18a5.17,5.17,0,0,0-1.61.15,1.85,1.85,0,0,0-1,.63l1.46,1C111,28.55,111.56,28.69,111.79,28.75Zm3.47.06,0,.35-.11.06,0-.41Zm-1-1.14h.09v.25a.32.32,0,0,1-.13,0Zm-.91,0a1.9,1.9,0,0,1,0,.44c-.08,0-.1-.34-.15-.5C113.26,27.57,113.29,27.58,113.33,27.66Zm.95,1.11a.38.38,0,0,1,.15.26.43.43,0,0,1-.09.29h-.13c.07-.15.1-.19.09-.29a.88.88,0,0,0-.16-.29Zm-1.13,0a1,1,0,0,0,0-.41.77.77,0,0,1,.08.44c0,.11-.16.14-.3.24A.45.45,0,0,0,113.14,28.72Zm-.79-1.5-.07.65-.06-.7Zm-.28,1.07a.41.41,0,0,1-.14.33.93.93,0,0,0,0-.34,2.26,2.26,0,0,0-.09-.34A1,1,0,0,1,112.07,28.29ZM110,27.73a1.54,1.54,0,0,0-.41-.14l.21-.16a1.93,1.93,0,0,1,.31.25.25.25,0,0,1,.09.2A1.35,1.35,0,0,0,110,27.73Zm1.2-.64c0,.13.09.23.11.36s0,.27,0,.39a2.74,2.74,0,0,0-.07-.4,1.75,1.75,0,0,0-.16-.33Zm-.68.89a.49.49,0,0,1,.27.19.68.68,0,0,1,.11.39l-.09.07a.82.82,0,0,0-.11-.34A1.21,1.21,0,0,0,110.48,28Z"/><path class="hr_cls-12" d="M109.76,27.44l-.21.16a1.54,1.54,0,0,1,.41.14,1.35,1.35,0,0,1,.21.15.25.25,0,0,0-.09-.2A1.93,1.93,0,0,0,109.76,27.44Z"/><path class="hr_cls-12" d="M110.86,28.57a.68.68,0,0,0-.11-.39.49.49,0,0,0-.27-.19,1.21,1.21,0,0,1,.18.31.82.82,0,0,1,.11.34Z"/><path class="hr_cls-12" d="M111.27,27.85c0-.12,0-.27,0-.39s-.09-.23-.11-.36l-.12,0a1.75,1.75,0,0,1,.16.33A2.74,2.74,0,0,1,111.27,27.85Z"/><polygon class="hr_cls-12" points="112.35 27.23 112.22 27.18 112.28 27.88 112.35 27.23"/><path class="hr_cls-12" d="M111.94,28.62a.41.41,0,0,0,.14-.33,1,1,0,0,0-.22-.35,2.26,2.26,0,0,1,.09.34A.93.93,0,0,1,111.94,28.62Z"/><path class="hr_cls-12" d="M113.25,28.76a.77.77,0,0,0-.08-.44,1,1,0,0,1,0,.41.45.45,0,0,1-.19.27C113.08,28.9,113.2,28.86,113.25,28.76Z"/><path class="hr_cls-12" d="M113.37,28.09a1.9,1.9,0,0,0,0-.44c0-.08-.07-.09-.11-.07C113.27,27.76,113.29,28.11,113.37,28.09Z"/><path class="hr_cls-12" d="M114.33,27.66h-.09l0,.29a.32.32,0,0,0,.13,0Z"/><path class="hr_cls-12" d="M114.21,29.31h.13a.43.43,0,0,0,.09-.29.38.38,0,0,0-.15-.26l-.14,0a.88.88,0,0,1,.16.29C114.31,29.12,114.28,29.17,114.21,29.31Z"/><polygon class="hr_cls-12" points="115.29 29.15 115.26 28.81 115.14 28.81 115.18 29.21 115.29 29.15"/><path class="hr_cls-13" d="M108,35.14c-.13.27-.36.34-.49.91l.85.21c0-.12.14-.19.17-.31a1.12,1.12,0,0,0,0-.39,7.65,7.65,0,0,0,.62-1,1,1,0,0,1,.46-.16c.14,0,.23.08.38.16a2.9,2.9,0,0,0-.26.79v.87c0,.22-.28.22-.39.87l.76.2c.13-.22.34-.25.39-.34l.06-.91c.1-.43.7-.78.71-1.25.22,0,.3,0,.38,0a.69.69,0,0,0,.24-.19c0,.14.14.15.24.15a1,1,0,0,0,.36-.19c.05.08.08.15.2.17a1.89,1.89,0,0,0,.56-.05l-.63,1c0,.1,0,.16,0,.28s-.14.15-.18.25l.71.17.12-.3a.84.84,0,0,0,.35-.19c.08-.1.08-.28.12-.38a6.23,6.23,0,0,0,.89-.87.78.78,0,0,1,.54.41,2.82,2.82,0,0,1-.08,1l-.46.72-.05.12.72.26.46-.35,0-.5a3.17,3.17,0,0,1,.88-.89s0-.54,0-.56-.13,0-.16-.13a2.25,2.25,0,0,1,0-.52c0-.06.14-.12.14-.17s-.09-.49,0-.77.42-.69.49-.87l0-.33c0-.08-.11-.13-.11-.2a.62.62,0,0,1,.14-.26l.09-.16v-.82c0-.09-.1-.23-.17-.24s-.18.07-.26.16l-.42.31a1.19,1.19,0,0,1-.73,0h-.53a.86.86,0,0,1-.69,0H114a1.36,1.36,0,0,1-.34.16.82.82,0,0,1-.36,0,1.78,1.78,0,0,0-.85.16,1.78,1.78,0,0,0-.86-.14l-.29-.08a3,3,0,0,1-.89-1.07c.76-.22,1.08-.44,1.31-1l-1.07,0-1.52-1a1.27,1.27,0,0,0-.61.43l-.93-.47a.41.41,0,0,0-.14.49,1.85,1.85,0,0,0,.57.61,3.52,3.52,0,0,1-.22.66c-.1.25-.32.56-.32.66s0,.36.12.43a5.34,5.34,0,0,0,.91,0c0,.1-.1.27-.08.35s.07.1.22.1c0,.09-.14.21-.09.26a.5.5,0,0,0,.36.07c-.18.21-.62.6-.76.78s-.16.43.13.4c-.11.12-.21.24-.2.34s.09.21.3.14a1.39,1.39,0,0,0,0,.83,1.88,1.88,0,0,0-.09.68C108.15,34.73,108.12,34.89,108,35.14Zm8.92-4.31c.05.11,0,.25-.08.42s-.16.06-.3.05a.21.21,0,0,1-.08-.17A.51.51,0,0,1,116.91,30.83Zm-1.32,2.1a3.67,3.67,0,0,0,.59.58s-.34,0-.44,0-.09.07-.15.11-.07-.54-.16-.87-.22-.6-.18-.57A3.53,3.53,0,0,0,115.58,32.93Zm-.46.88c.07-.08.07-.17.11-.2-.09.21.14.52.27.77.09,0,.16,0,.2.07s-.09,0-.08.13l.22.44a.67.67,0,0,0,.29.1s0,.06,0,.08a.35.35,0,0,1-.24.07,10.17,10.17,0,0,0-.63-1.21c-.08-.11-.27-.1-.26-.14S115.06,33.88,115.13,33.81Zm-.66-2c0,.13.09.64.16,1a0,0,0,0,1-.07,0s0-.25-.08-.49a2.9,2.9,0,0,1-.15-.55S114.41,31.77,114.46,31.82Zm-.92.34a.17.17,0,0,1,0,.16,2.74,2.74,0,0,1-.42-.67A3.65,3.65,0,0,1,113.55,32.16Zm-.47,1.14c0-.14.06-.4.12-.73a2,2,0,0,1-.23,1.31S113.07,33.39,113.08,33.3Zm-.46-.3a2.82,2.82,0,0,1-.13.65c0,.08-.21.3-.34.5,0,0-.16.08-.16,0a5.86,5.86,0,0,1,.33-.61C112.47,33.27,112.6,33,112.62,33Zm-.82-1.16s.17.23.21.35a5.28,5.28,0,0,1,.12.54s-.14,0-.16-.07S111.76,31.87,111.79,31.84ZM111,32c0,.09.1.31.2.51s.11.18.08.25-.11,0-.17,0-.14-.59-.2-.77S111,32,111,32Zm-1.74.77a2.74,2.74,0,0,0-.22-.89,2.76,2.76,0,0,1,.28.87A0,0,0,0,1,109.29,32.82Zm1.11-3.71a4.08,4.08,0,0,1,.89-.12l-.34.27c-.23.08-.23.19-.39.2a1,1,0,0,1-.43-.17C110.15,29.24,110.19,29.15,110.4,29.1Zm-.52,4.15a.73.73,0,0,1,.3.42,3.25,3.25,0,0,1,0,.6c-.14,0-.19,0-.33,0C109.88,33.91,109.88,33.5,109.88,33.25Zm-1.08-4a2.42,2.42,0,0,1,.48-.13c.18,0,.23.1.39.13l-.28.15s-.08.08-.13.08a.29.29,0,0,1-.16-.1Z"/><path class="hr_cls-12" d="M109.26,29.44s.09,0,.13-.08l.28-.15c-.17,0-.22-.13-.39-.13a2.42,2.42,0,0,0-.48.13l.3.13A.29.29,0,0,0,109.26,29.44Z"/><path class="hr_cls-12" d="M111,29.26l.34-.27a4.08,4.08,0,0,0-.89.12c-.2.05-.25.14-.26.19a1,1,0,0,0,.43.17C110.72,29.45,110.72,29.33,111,29.26Z"/><path class="hr_cls-12" d="M109.29,32.82a0,0,0,0,0,.06,0,2.76,2.76,0,0,0-.28-.87A2.74,2.74,0,0,1,109.29,32.82Z"/><path class="hr_cls-12" d="M110.22,34.27a3.25,3.25,0,0,0,0-.6.73.73,0,0,0-.3-.42c0,.26,0,.67,0,1C110,34.26,110.09,34.28,110.22,34.27Z"/><path class="hr_cls-12" d="M111.31,32.82c0-.08-.05-.16-.08-.25s-.16-.42-.2-.51-.09,0-.08,0,.16.7.2.77S111.29,32.86,111.31,32.82Z"/><path class="hr_cls-12" d="M112.12,32.73a5.28,5.28,0,0,0-.12-.54c0-.12-.17-.37-.21-.35s.16.73.17.82S112.13,32.77,112.12,32.73Z"/><path class="hr_cls-12" d="M112.14,34.15c.13-.21.3-.42.34-.5a2.82,2.82,0,0,0,.13-.65s-.14.28-.3.57a5.86,5.86,0,0,0-.33.61S112.1,34.18,112.14,34.15Z"/><path class="hr_cls-12" d="M113.2,32.57c-.06.33-.09.59-.12.73s-.16.6-.11.58A2,2,0,0,0,113.2,32.57Z"/><path class="hr_cls-12" d="M113.56,32.31a.17.17,0,0,0,0-.16,3.65,3.65,0,0,0-.4-.52A2.74,2.74,0,0,0,113.56,32.31Z"/><path class="hr_cls-12" d="M114.55,32.83a0,0,0,0,0,.07,0c-.07-.33-.13-.84-.16-1s-.12-.06-.14,0a2.9,2.9,0,0,0,.15.55C114.53,32.59,114.51,32.81,114.55,32.83Z"/><path class="hr_cls-12" d="M115.58,33.64c.06,0,.05-.09.15-.11s.46,0,.44,0a3.67,3.67,0,0,1-.59-.58,3.53,3.53,0,0,1-.35-.72s.09.24.18.57S115.56,33.69,115.58,33.64Z"/><path class="hr_cls-12" d="M115.21,34.05a10.17,10.17,0,0,1,.63,1.21.35.35,0,0,0,.24-.07s.07-.06,0-.08a.67.67,0,0,1-.29-.1l-.22-.44c0-.09.09-.1.08-.13s-.11,0-.2-.07c-.13-.25-.36-.57-.27-.77,0,0,0,.13-.11.2s-.16.05-.17.11S115.13,33.94,115.21,34.05Z"/><path class="hr_cls-12" d="M116.83,31.25c.08-.17.13-.31.08-.42a.51.51,0,0,0-.46.3.21.21,0,0,0,.08.17C116.67,31.3,116.79,31.32,116.83,31.25Z"/><path class="hr_cls-14" d="M118.75,31.17l-1.89,6.72c1.75.54,3.43,1,5.15,1.59s3.45,1.09,5.2,1.76L129,37.72l1.39-2.81h0c-1.87-.8-3.7-1.55-5.63-2.17A58.65,58.65,0,0,0,118.75,31.17Zm9.12,8.74c-1.7-.68-3.49-1.31-5.26-1.88s-3.54-1.12-5.35-1.54l1.07-3.83s2.91.65,5.74,1.56,5.58,2.07,5.57,2.07S127.87,39.91,127.87,39.91Z"/><path class="hr_cls-15" d="M118.34,32.66l-1.07,3.83c1.81.42,3.58,1,5.35,1.54s3.56,1.2,5.26,1.88c0,0,1.75-3.61,1.78-3.61s-2.75-1.17-5.57-2.07S118.34,32.66,118.34,32.66Zm7.22,3.51a7.53,7.53,0,0,0,1.38.32,14.94,14.94,0,0,0,1.52.12c.22.08.22.2.12.31a1.16,1.16,0,0,1-.94.34c-.69,0-1.46-.38-1.8-.33a1.37,1.37,0,0,0,.78.81v1l-.19.17-.2-.13a.85.85,0,0,0,0-.74c-.15-.22-.17-.31-.46-.33a2.33,2.33,0,0,1-1-.45l-.16,0a.78.78,0,0,1-.4.38l-.44,0s-1-.22-1-.23,0-.16,0-.17a3.34,3.34,0,0,1,.37,0,3.19,3.19,0,0,0,.66.06V36.9a3.61,3.61,0,0,1-1-.16c-.21-.09-.5-.21-1.1-.43a5.2,5.2,0,0,0-1.83.07c-.27,0-.65.16-.82.16l-.2-.05c-.13,0-.13-.08-.08-.19a2.81,2.81,0,0,0,1.23-.25.38.38,0,0,0-.13-.26c-.53,0-1,0-1.1,0a3.22,3.22,0,0,1-.53-.19,1.45,1.45,0,0,1,0-.21l.36.09a2.81,2.81,0,0,0,1.13,0v-.29a.41.41,0,0,0-.13-.26,6.68,6.68,0,0,0-.78-.08c-.32-.06-.27-.22-.28-.38.29-.16.48-.2.64-.47h1v.38c.25.12.4.25.65.38s.61.23.87.35l2.22.19a3.25,3.25,0,0,1,1,.32A1.48,1.48,0,0,1,125.55,36.17Z"/><path class="hr_cls-12" d="M121.78,35.07c-.25-.12-.61-.23-.87-.35s-.4-.26-.65-.38V34h-1c-.16.26-.35.31-.64.47,0,.16,0,.32.28.38a6.68,6.68,0,0,1,.78.08.41.41,0,0,1,.13.26v.29a2.81,2.81,0,0,1-1.13,0l-.36-.09a1.45,1.45,0,0,0,0,.21,3.22,3.22,0,0,0,.53.19c.15,0,.57,0,1.1,0a.38.38,0,0,1,.13.26,2.81,2.81,0,0,1-1.23.25c-.05.12-.05.16.08.19l.2.05c.17,0,.55-.13.82-.16a5.2,5.2,0,0,1,1.83-.07l0-.27,2-.05c.62.1.67.4.81.87l-.68,0v.38a3.19,3.19,0,0,1-.66-.06,3.34,3.34,0,0,0-.37,0s0,.16,0,.17,1,.23,1,.23l.44,0a.78.78,0,0,0,.4-.38l.16,0a2.33,2.33,0,0,0,1,.45c.29,0,.3.1.46.33a.85.85,0,0,1,0,.74l.2.13.19-.17v-1a1.37,1.37,0,0,1-.78-.81c.34-.05,1.12.33,1.8.33a1.16,1.16,0,0,0,.94-.34c.11-.12.11-.23-.12-.31a14.94,14.94,0,0,1-1.52-.12,7.53,7.53,0,0,1-1.38-.32,1.48,1.48,0,0,0-.56-.58,3.25,3.25,0,0,0-1-.32Z"/><path class="hr_cls-2" d="M123.69,36l-2,.05,0,.27c.6.22.89.34,1.1.43a3.61,3.61,0,0,0,1,.16l.68,0C124.36,36.39,124.31,36.09,123.69,36Z"/><path class="hr_cls-10" d="M94.67,38.67l-.33-3.6c-1.82.12-3.81.27-5.68.54a53.2,53.2,0,0,0-5.61,1.08s-1-3.64-1-3.64A30.85,30.85,0,0,1,88,31.67,33,33,0,0,1,94,31.52l-.31-3.38a41.23,41.23,0,0,0-6.19.38,23.93,23.93,0,0,0-6.26,1.52L80.44,27A21.67,21.67,0,0,1,86.79,25a45.55,45.55,0,0,1,6.57-.33l-7.55-4.31-5.4,6.54L84,40.1A93,93,0,0,1,94.67,38.67Z"/><path class="hr_cls-16" d="M72.84,33l1.67-.69,1.33,1L76,31.65h0l-1.33-1s1.19,2.51,1.18,2.5l-1.31-1,.12-1.54s-1.77,2.23-1.77,2.21.26-1.75.26-1.75l-1.31-1,5.55.9-1.08.44,1.09-.43L76.25,30l.25-1.61h0s-1.7,2-1.82,2.18c0,0,.2-1.58.18-1.59s.69-.24,1.17-.42L74.85,29s-1.1-.93-1.18-1l1,2.61-1.28-1.09-1.59.64,1.3,1Z"/><path class="hr_cls-17" d="M71.81,30.19l1.31,1s-.26,1.74-.26,1.75,1.77-2.21,1.77-2.21l-.12,1.54,1.31,1s-1.18-2.5-1.18-2.5l1.33,1h0l.28-.11,1.08-.44Z"/><polygon class="hr_cls-17" points="73.67 28.01 73.66 27.97 73.37 29.53 73.38 29.54 74.66 30.62 73.67 28.01"/><path class="hr_cls-17" d="M74.66,30.6c.13-.17,1.8-2.14,1.82-2.18h0l-.48.18c-.48.18-1.15.43-1.17.42S74.65,30.6,74.66,30.6Z"/><path class="hr_cls-16" d="M124.92,30.18l.35,1.61,1.2-1.12h0L126,29.09s-.74,2.68-.75,2.66-.35-1.51-.36-1.57l1.1-1.1s-2.82.58-2.81.57l1.35-1.18-.36-1.58,3.65,4.21-1.11-.34,1.11.36-.15-1.55L129,28.5h0c-.08,0-2.62.47-2.83.52,0,0,1.19-1.08,1.19-1.1s.67.25,1.16.41l-1.14-.42s-.23-1.44-.26-1.5l-1,2.63-.26-1.65-1.64-.51.33,1.59-1.34,1.19Z"/><path class="hr_cls-17" d="M124.22,26.9l.36,1.58-1.35,1.18s2.81-.57,2.81-.57l-1.1,1.1c0,.06.36,1.55.36,1.57s.75-2.66.75-2.66l.39,1.57h0l.29.09,1.11.34Z"/><polygon class="hr_cls-18" points="127.07 26.4 127.08 26.36 125.84 27.38 125.84 27.38 126.11 29.03 127.07 26.4"/><path class="hr_cls-18" d="M126.12,29c.21,0,2.75-.49,2.83-.52h0l-.49-.17c-.48-.17-1.15-.4-1.16-.41S126.11,29,126.12,29Z"/><path class="hr_cls-15" d="M80.44,27l.82,3.09a23.93,23.93,0,0,1,6.26-1.52,41.23,41.23,0,0,1,6.19-.38h0s-.29-3.47-.29-3.47h-.05a45.55,45.55,0,0,0-6.57.33A21.67,21.67,0,0,0,80.44,27Z"/><path class="hr_cls-15" d="M88,31.67a30.85,30.85,0,0,0-5.87,1.38s1,3.64,1,3.64a53.2,53.2,0,0,1,5.61-1.08c1.87-.26,3.86-.41,5.68-.54h0L94,31.52h0A33,33,0,0,0,88,31.67Z"/><path class="hr_cls-19" d="M126.21,78.07V44.64H74.08L74,78a22.07,22.07,0,0,0,4,10.91l.37.53c5.2,7.14,14.22,11.72,22.63,11.35,7.75,0,16-4.41,20.92-11.35l.37-.53A23.62,23.62,0,0,0,126.21,78.07ZM85.05,95.16l0-5.75H95L95,99.6A28.72,28.72,0,0,1,85.05,95.16Zm20.13,4.54V89.41h10l0,5.76A26.51,26.51,0,0,1,105.19,99.7Zm20.11-32H115.5V78.58h9.67A24.6,24.6,0,0,1,121,89.3h-5.75V78.7h-10v-11h10V56.85H125.3ZM95,78.52h10.08V89.36H95ZM105.13,46h10.08V56.8H105.13V67.64H95V56.8h10.08ZM85,45.65H95V56.48H85Zm-10,32.94h9.82V67.68H74.88V56.85H85V67.68H95v11H84.91V89.3H79.1A22,22,0,0,1,74.93,78.58Z"/><polygon class="hr_cls-2" points="84.91 78.7 95 78.7 95 67.68 84.96 67.68 84.75 67.68 84.75 78.58 84.91 78.58 84.91 78.7"/><path class="hr_cls-2" d="M105.25,67.68v11h10v-.12h.23V67.68H105.25Z"/><rect class="hr_cls-2" x="84.96" y="45.65" width="10.08" height="10.84"/><path class="hr_cls-2" d="M115.27,78.7V89.3H121a24.6,24.6,0,0,0,4.14-10.72h-9.9Z"/><path class="hr_cls-2" d="M105.19,89.41V99.7a26.51,26.51,0,0,0,10-4.54l0-5.76Z"/><path class="hr_cls-2" d="M85,89.41l0,5.75A28.72,28.72,0,0,0,95,99.6l0-10.19Z"/><path class="hr_cls-2" d="M84.91,89.3V78.58h-10A22,22,0,0,0,79.1,89.29Z"/><polygon class="hr_cls-2" points="84.96 56.85 74.88 56.85 74.88 67.68 84.75 67.68 84.96 67.68 84.96 56.85"/><rect class="hr_cls-2" x="95.05" y="56.8" width="10.08" height="10.84"/><rect class="hr_cls-2" x="105.13" y="45.96" width="10.08" height="10.84"/><polygon class="hr_cls-2" points="115.21 67.68 115.5 67.68 125.3 67.68 125.3 56.85 115.21 56.85 115.21 67.68"/><rect class="hr_cls-2" x="95.05" y="78.52" width="10.08" height="10.84"/></g></g></svg>
