<svg xmlns="http://www.w3.org/2000/svg" viewBox="0 0 200 134"><defs><style>.ls_cls-1{fill:#fafafa;}.ls_cls-2{fill:#069547;}.ls_cls-3{fill:#283890;}.ls_cls-4{fill:#010101;}.ls_cls-5{fill:#fff;}</style></defs><title>Asset 1</title><g id="Layer_2" data-name="Layer 2"><g id="Layer_100" data-name="Layer 100"><path class="ls_cls-1" d="M0,93.88H200V40.12H0ZM84.18,79.19l13.7-18.45,0-5.2H95.59l2.86-3-.07-9.06a1.82,1.82,0,0,1,3.06-.06l0,9,3.15,3h-2.32l0,5.35,13.88,18.36,1.79-.78,3.66,7.46s-7.58,5.42-21.53,5.59A42.84,42.84,0,0,1,78.61,86l3.54-7.55Z"/><path class="ls_cls-2" d="M0,117a17,17,0,0,0,17,17H183a17,17,0,0,0,17-17V93.88H0Z"/><path class="ls_cls-3" d="M183,0H17A17,17,0,0,0,0,17V40.12H200V17A17,17,0,0,0,183,0Z"/><path class="ls_cls-4" d="M100.08,91.38c13.95-.17,21.53-5.59,21.53-5.59L118,78.34l-1.79.78L102.28,60.76l0-5.35h2.32l-3.15-3,0-9a1.82,1.82,0,0,0-3.06.06l.07,9.06-2.86,3H97.9l0,5.2L84.18,79.19l-2-.7L78.61,86A42.84,42.84,0,0,0,100.08,91.38Zm18.36-6.54-2,.67-.15-.93,1.13-1.7Zm-2.07-4,.57.82L115.34,84l-1.65-2.12Zm-1.7,5.68-3.2.83-.62-1.08,2.32-1.76Zm-2.84-3.92.83.88-2.43,1.91-1.5-1.86Zm-2.27,5.21-3.87.62-.77-1.24,2.89-1.45Zm-3.15-4.08.77,1.13-2.89,1.39-1.24-2.12Zm-4.54,2.43,1.7,2.53L99,88.82l-.78-1.34Zm-1-1.91.41,1-3.67,1.34L96.13,84ZM96.7,88.71l-3.92-.57-.41-1.08,2.68-.93Zm-3.1-4.9L94.43,85,91.9,86l-1.19-2.84Zm-2.89,4L87.36,87,87,85.77,89.37,85Zm-2.43-5.32L89,84l-2.53.72-1-3Zm-3.82,2,.41,1.65-2.48-1Zm-1.14-2.94L84,83.65l-2,.41S83.18,81.79,83.33,81.59Z"/><path class="ls_cls-5" d="M84,83.65l-.67-2.07c-.15.21-1.29,2.48-1.29,2.48Z"/><polygon class="ls_cls-5" points="84.88 86.18 84.47 84.53 82.4 85.2 84.88 86.18"/><polygon class="ls_cls-5" points="88.96 83.96 88.29 82.52 85.4 81.64 86.43 84.69 88.96 83.96"/><polygon class="ls_cls-5" points="87.36 87.01 90.72 87.84 89.37 84.99 87 85.77 87.36 87.01"/><polygon class="ls_cls-5" points="94.43 85.05 93.61 83.81 90.72 83.19 91.9 86.03 94.43 85.05"/><polygon class="ls_cls-5" points="92.78 88.14 96.7 88.71 95.05 86.13 92.37 87.06 92.78 88.14"/><polygon class="ls_cls-5" points="101.25 85.2 100.83 84.22 96.14 84.01 97.58 86.55 101.25 85.2"/><polygon class="ls_cls-5" points="99.03 88.82 103.57 88.66 101.86 86.13 98.25 87.47 99.03 88.82"/><polygon class="ls_cls-5" points="107.18 84.84 106.41 83.7 103.06 84.12 104.29 86.23 107.18 84.84"/><polygon class="ls_cls-5" points="105.69 88.4 109.56 87.78 107.81 85.72 104.91 87.16 105.69 88.4"/><polygon class="ls_cls-5" points="112.66 83.45 111.83 82.57 108.73 83.5 110.23 85.36 112.66 83.45"/><polygon class="ls_cls-5" points="111.47 87.32 114.67 86.49 113.17 84.48 110.85 86.23 111.47 87.32"/><polygon class="ls_cls-5" points="116.94 81.64 116.37 80.81 113.69 81.9 115.34 84.01 116.94 81.64"/><polygon class="ls_cls-5" points="116.48 85.51 118.44 84.84 117.46 82.88 116.32 84.58 116.48 85.51"/></g></g></svg>
