<svg xmlns="http://www.w3.org/2000/svg" viewBox="0 0 200 134"><defs><style>.ma_cls-1{fill:#e52e34;}.ma_cls-2{fill:#1b8549;}</style></defs><title>Asset 23</title><g id="Layer_2" data-name="Layer 2"><g id="Layer_78" data-name="Layer 78"><path class="ma_cls-1" d="M183,0H17A17,17,0,0,0,0,17V117a17,17,0,0,0,17,17H183a17,17,0,0,0,17-17V17A17,17,0,0,0,183,0ZM91.47,57.47l-1.73,5.85-8.32,0L99.63,77.93l-4.5,3.6-30-24Zm17,5.85h1L121,102.22,99.62,85.15l4.52-3.61,6.75,5.37-3.18-10.78.61,2.06-30,24.05,8.13-27.66,4.52,3.62-2.55,8.73L106.6,72.35l-2.66-9H95.32l-2.66,9-4.5-3.61,11.46-38.9,8.18,27.64h-5.59l-2.59-8.71-2.87,9.74.3-1h37.12L112.83,74.59l-1.72-5.85,6.72-5.41Z"/><polygon class="ma_cls-2" points="99.63 77.93 81.42 63.35 89.74 63.32 91.47 57.47 65.09 57.5 95.13 81.53 99.63 77.93"/><polygon class="ma_cls-2" points="96.75 58.51 99.62 48.77 102.21 57.48 107.8 57.48 99.62 29.84 88.16 68.74 92.66 72.35 95.32 63.32 95.32 63.32 96.75 58.51"/><polygon class="ma_cls-2" points="112.83 74.59 134.17 57.48 97.05 57.49 96.75 58.51 95.32 63.32 95.32 63.32 103.94 63.33 103.94 63.32 108.52 63.33 117.83 63.33 111.11 68.73 112.83 74.59"/><polygon class="ma_cls-2" points="103.94 63.33 106.6 72.35 106.6 72.35 107.71 76.12 110.89 86.91 104.15 81.54 99.62 85.15 120.98 102.22 109.5 63.33 108.52 63.33 103.94 63.32 103.94 63.33"/><polygon class="ma_cls-2" points="106.6 72.35 88.39 86.92 90.94 78.19 86.42 74.57 78.29 102.23 108.32 78.18 107.71 76.12 106.6 72.35 106.6 72.35"/></g></g></svg>
