<svg xmlns="http://www.w3.org/2000/svg" viewBox="0 0 200 134"><defs><style>.mk_cls-1{fill:#cf2932;}.mk_cls-2{fill:#f9da32;}.mk_cls-3{fill:#d12028;}.mk_cls-4{fill:#f9d615;}</style></defs><title>Asset 9</title><g id="Layer_2" data-name="Layer 2"><g id="Layer_92" data-name="Layer 92"><path class="mk_cls-1" d="M96.32,47.22,87.54,0H17a17,17,0,0,0-3.7.42L84.75,55.29A18.7,18.7,0,0,1,96.32,47.22Z"/><path class="mk_cls-1" d="M81.33,69,0,77.75V117a17,17,0,0,0,.38,3.55L83.23,76A21.12,21.12,0,0,1,81.33,69Z"/><path class="mk_cls-1" d="M83.23,58,.38,13.45A17,17,0,0,0,0,17V56.25L81.33,65A21.18,21.18,0,0,1,83.23,58Z"/><path class="mk_cls-1" d="M103.68,86.78,112.46,134H183a17,17,0,0,0,3.7-.42L115.25,78.71A18.7,18.7,0,0,1,103.68,86.78Z"/><path class="mk_cls-1" d="M118.67,65,200,56.25V17a17,17,0,0,0-.38-3.55L116.77,58A21.07,21.07,0,0,1,118.67,65Z"/><path class="mk_cls-1" d="M116.77,76l82.86,44.54A17.07,17.07,0,0,0,200,117V77.75L118.67,69A21.15,21.15,0,0,1,116.77,76Z"/><path class="mk_cls-1" d="M84.74,78.71,13.3,133.58A17,17,0,0,0,17,134H87.54l8.78-47.22A18.7,18.7,0,0,1,84.74,78.71Z"/><path class="mk_cls-1" d="M115.25,55.29,186.7.42A17,17,0,0,0,183,0H112.46l-8.79,47.22A18.7,18.7,0,0,1,115.25,55.29Z"/><path class="mk_cls-2" d="M84.75,55.29,13.3.42a17,17,0,0,0-12.92,13L83.23,58A20.56,20.56,0,0,1,84.75,55.29Z"/><path class="mk_cls-2" d="M115.25,78.71l71.45,54.87a17,17,0,0,0,12.92-13L116.77,76A20.18,20.18,0,0,1,115.25,78.71Z"/><path class="mk_cls-2" d="M100,87.17a17.59,17.59,0,0,1-3.68-.39L87.54,134h24.93l-8.78-47.22A17.64,17.64,0,0,1,100,87.17Z"/><path class="mk_cls-2" d="M100,46.83a17.61,17.61,0,0,1,3.68.39L112.46,0H87.54l8.78,47.22A17.59,17.59,0,0,1,100,46.83Z"/><path class="mk_cls-2" d="M83.23,76,.38,120.55a17,17,0,0,0,12.92,13L84.74,78.71A20.45,20.45,0,0,1,83.23,76Z"/><path class="mk_cls-2" d="M186.7.42,115.25,55.29a20.55,20.55,0,0,1,1.51,2.7l82.86-44.54A17,17,0,0,0,186.7.42Z"/><path class="mk_cls-2" d="M118.76,67c0,.68,0,1.35-.09,2L200,77.75V56.25L118.67,65C118.73,65.65,118.76,66.32,118.76,67Z"/><path class="mk_cls-2" d="M81.24,67c0-.68,0-1.35.09-2L0,56.25v21.5L81.33,69C81.27,68.35,81.24,67.68,81.24,67Z"/><path class="mk_cls-3" d="M103.68,47.22a17.43,17.43,0,0,0-7.36,0,18.7,18.7,0,0,0-11.57,8.06A20.56,20.56,0,0,0,83.23,58a21.18,21.18,0,0,0-1.9,7c-.06.66-.09,1.33-.09,2s0,1.35.09,2a21.12,21.12,0,0,0,1.9,7,20.45,20.45,0,0,0,1.51,2.7,18.7,18.7,0,0,0,11.58,8.06,17.44,17.44,0,0,0,7.36,0,18.7,18.7,0,0,0,11.57-8.07,20.18,20.18,0,0,0,1.51-2.7,21.15,21.15,0,0,0,1.9-7c.06-.66.09-1.33.09-2s0-1.35-.1-2a21.07,21.07,0,0,0-1.9-7,20.55,20.55,0,0,0-1.51-2.7A18.7,18.7,0,0,0,103.68,47.22Zm12,19.78c0,9.28-7,16.81-15.64,16.81S84.36,76.28,84.36,67s7-16.81,15.63-16.81S115.63,57.72,115.63,67Z"/><ellipse class="mk_cls-4" cx="100" cy="67" rx="15.64" ry="16.81"/></g></g></svg>
