<svg xmlns="http://www.w3.org/2000/svg" viewBox="0 0 200 134"><defs><style>.mn_cls-1{fill:#db2c32;}.mn_cls-2{fill:#48aecf;}.mn_cls-3{fill:#fae90a;}.mn_cls-4{fill:#db1f26;}</style></defs><title>Asset 20</title><g id="Layer_2" data-name="Layer 2"><g id="Layer_81" data-name="Layer 81"><path class="mn_cls-1" d="M17,0A17,17,0,0,0,0,17V117a17,17,0,0,0,17,17H66.53V0Z"/><path class="mn_cls-1" d="M183,0H133.47V134H183a17,17,0,0,0,17-17V17A17,17,0,0,0,183,0Z"/><path class="mn_cls-2" d="M66.53,0V134h66.95V0ZM88.84,108.85h-9.3V64.21h9.3Zm11.16,0-9.3-5.58h18.6Zm9.3-7.44H90.7V97.69h18.6ZM100,95.83a9.3,9.3,0,1,1,9.3-9.3A9.3,9.3,0,0,1,100,95.83Zm9.3-20.46H90.7V71.65h18.6ZM100,69.79l-9.3-5.58h18.6Zm0-7.44A10.23,10.23,0,0,1,89.77,52.12c0-.06,0-.12,0-.18a11.16,11.16,0,0,1,5.93-14.77,4.66,4.66,0,0,1-.36-1.79c0-1.86,1.16-2.09,1.16-2.79s-.7-1.63.7-2.79c-.7,1.16.46,1.39.46,2.56s-.46,1.16-.46,2.09a.93.93,0,0,0,1.86,0c0-.93-.7-1.16-.7-2.56s.93-2.09.93-3.26-.7-3,.7-3.49c-.93.93.23,1.86.93,3a4.67,4.67,0,0,1,.93,3c0,1.4-.93,2.33-.93,3.26a.93.93,0,0,0,1.86,0c0-.93-.46-.93-.46-2.09s1.16-1.4.46-2.56c1.39,1.16.7,2.09.7,2.79s1.16.93,1.16,2.79a4.62,4.62,0,0,1-.36,1.79,11.15,11.15,0,0,1,5.93,14.77c0,.06,0,.12,0,.18A10.23,10.23,0,0,1,100,62.35Zm11.16,46.5V64.21h9.3v44.64Z"/><path class="mn_cls-3" d="M100,58.63a11.16,11.16,0,0,1-10.22-6.69c0,.06,0,.12,0,.18a10.23,10.23,0,0,0,20.46,0c0-.06,0-.12,0-.18A11.16,11.16,0,0,1,100,58.63Z"/><path class="mn_cls-4" d="M100,58.63a11.16,11.16,0,0,0,4.29-21.46,4.65,4.65,0,0,1-8.58,0A11.16,11.16,0,0,0,100,58.63Zm7.44-9.3A7.44,7.44,0,1,1,100,41.89,7.44,7.44,0,0,1,107.44,49.33Z"/><path class="mn_cls-3" d="M100,40a4.65,4.65,0,0,0,4.65-4.65c0-1.86-1.16-2.09-1.16-2.79s.7-1.63-.7-2.79c.7,1.16-.46,1.39-.46,2.56s.46,1.16.46,2.09a.93.93,0,0,1-1.86,0c0-.93.93-1.86.93-3.26a4.67,4.67,0,0,0-.93-3c-.7-1.16-1.86-2.09-.93-3-1.39.47-.7,2.33-.7,3.49s-.93,1.86-.93,3.26.7,1.63.7,2.56a.93.93,0,0,1-1.86,0c0-.93.46-.93.46-2.09s-1.16-1.4-.46-2.56c-1.4,1.16-.7,2.09-.7,2.79s-1.16.93-1.16,2.79A4.65,4.65,0,0,0,100,40Z"/><circle class="mn_cls-3" cx="100" cy="49.33" r="7.44"/><path class="mn_cls-3" d="M100,77.23a9.3,9.3,0,1,0,9.3,9.3A9.3,9.3,0,0,0,100,77.23Zm0,16.09a1.86,1.86,0,1,1,1.86-1.86A1.86,1.86,0,0,1,100,93.32Zm0-9.86a1.86,1.86,0,1,1,1.86-1.86A1.86,1.86,0,0,1,100,83.46Z"/><rect class="mn_cls-3" x="90.7" y="97.69" width="18.6" height="3.72"/><rect class="mn_cls-3" x="90.7" y="71.65" width="18.6" height="3.72"/><rect class="mn_cls-3" x="79.54" y="64.21" width="9.3" height="44.64"/><polygon class="mn_cls-3" points="100 108.85 109.3 103.27 90.7 103.27 100 108.85"/><rect class="mn_cls-3" x="111.16" y="64.21" width="9.3" height="44.64"/><polygon class="mn_cls-3" points="100 69.79 109.3 64.21 90.7 64.21 100 69.79"/><circle class="mn_cls-4" cx="100" cy="81.6" r="1.86"/><circle class="mn_cls-4" cx="100" cy="91.46" r="1.86"/></g></g></svg>
