<svg xmlns="http://www.w3.org/2000/svg" viewBox="0 0 200 134"><defs><style>.na_cls-1{fill:#233c7b;}.na_cls-2{fill:#069547;}.na_cls-3{fill:#fecf0a;}.na_cls-4{fill:#fff;}.na_cls-5{fill:#d31f36;}</style></defs><title>Asset 26</title><g id="Layer_2" data-name="Layer 2"><g id="Layer_75" data-name="Layer 75"><path class="na_cls-1" d="M17,0A17,17,0,0,0,0,17v89.57L159.66,0ZM50.74,56.25,43,49.82l-3.49,9.44L36,49.82,28.3,56.25,30,46.34h0L20.09,48l6.43-7.74-9.44-3.48,9.44-3.49-6.43-7.74L30,27.3l-1.7-9.92L36,23.81l3.49-9.44L43,23.81l7.74-6.43L49,27.3,59,25.59l-6.43,7.74L62,36.82,52.53,40.3,59,48,49,46.34h0Z"/><path class="na_cls-2" d="M183,134a17,17,0,0,0,17-17V27.49L40.12,134Z"/><path class="na_cls-3" d="M39.52,50.28A13.42,13.42,0,0,1,30,46.34l-1.7,9.91L36,49.82l3.49,9.44L43,49.82l7.74,6.43L49,46.34A13.42,13.42,0,0,1,39.52,50.28Z"/><path class="na_cls-3" d="M39.52,23.35a13.46,13.46,0,0,1,9.52,23L59,48,52.53,40.3,62,36.82l-9.43-3.49L59,25.59,49,27.3l1.7-9.92L43,23.81l-3.49-9.44L36,23.81,28.3,17.38,30,27.3l-9.91-1.7,6.43,7.74-9.44,3.49,9.44,3.48L20.09,48,30,46.34a13.46,13.46,0,0,1,9.52-23Z"/><path class="na_cls-1" d="M53,36.82a13.46,13.46,0,1,0-23,9.52h0a13.46,13.46,0,0,0,19,0h0A13.42,13.42,0,0,0,53,36.82ZM39.52,48A11.22,11.22,0,1,1,50.74,36.82,11.22,11.22,0,0,1,39.52,48Z"/><circle class="na_cls-3" cx="39.52" cy="36.82" r="11.22"/><polygon class="na_cls-4" points="159.66 0 0 106.57 0 113.47 169.76 0 159.66 0"/><polygon class="na_cls-4" points="40.12 134 200 27.49 200 20.53 29.57 134 40.12 134"/><path class="na_cls-5" d="M169.76,0,0,113.47V117a17,17,0,0,0,17,17H29.58L200,20.53V17A17,17,0,0,0,183,0Z"/></g></g></svg>
