<svg xmlns="http://www.w3.org/2000/svg" viewBox="0 0 200 134"><defs><style>.ne_cls-1{fill:#fafafa;}.ne_cls-2{fill:#df5a2d;}.ne_cls-3{fill:#23b154;}</style></defs><title>Asset 30</title><g id="Layer_2" data-name="Layer 2"><g id="Layer_71" data-name="Layer 71"><path class="ne_cls-1" d="M0,89.45H200V44.55H0ZM100,47.92A19.08,19.08,0,1,1,80.92,67,19.08,19.08,0,0,1,100,47.92Z"/><path class="ne_cls-2" d="M183,0H17A17,17,0,0,0,0,17V44.55H200V17A17,17,0,0,0,183,0Z"/><path class="ne_cls-3" d="M0,117a17,17,0,0,0,17,17H183a17,17,0,0,0,17-17V89.45H0Z"/><circle class="ne_cls-2" cx="100" cy="67" r="19.08"/></g></g></svg>
