<svg xmlns="http://www.w3.org/2000/svg" viewBox="0 0 200 134"><defs><style>.no_cls-1{fill:#ee2e2f;}.no_cls-2{fill:#fff;}.no_cls-3{fill:#213065;}</style></defs><title>Asset 36</title><g id="Layer_2" data-name="Layer 2"><g id="Layer_65" data-name="Layer 65"><path class="no_cls-1" d="M50.28,0H17A17,17,0,0,0,0,17V50.16H50.28Z"/><path class="no_cls-1" d="M0,83.84V117a17,17,0,0,0,17,17H50.28V83.84Z"/><path class="no_cls-1" d="M84,134h99a17,17,0,0,0,17-17V83.84H84Z"/><path class="no_cls-1" d="M183,0H84V50.16H200V17A17,17,0,0,0,183,0Z"/><rect class="no_cls-2" x="50.28" y="83.84" width="8.42" height="50.16"/><rect class="no_cls-2" x="75.54" y="83.84" width="8.42" height="50.16"/><rect class="no_cls-2" x="50.28" width="8.42" height="50.16"/><rect class="no_cls-2" x="75.54" width="8.42" height="50.16"/><polygon class="no_cls-2" points="58.7 58.58 58.7 50.16 50.28 50.16 0 50.16 0 58.58 58.7 58.58"/><polygon class="no_cls-2" points="75.54 75.42 75.54 83.84 83.96 83.84 200 83.84 200 75.42 75.54 75.42"/><polygon class="no_cls-2" points="58.7 83.84 58.7 75.42 0 75.42 0 83.84 50.28 83.84 58.7 83.84"/><polygon class="no_cls-2" points="75.54 50.16 75.54 58.58 200 58.58 200 50.16 83.96 50.16 75.54 50.16"/><polygon class="no_cls-3" points="75.54 58.58 75.54 50.16 75.54 0 58.7 0 58.7 50.16 58.7 58.58 0 58.58 0 75.42 58.7 75.42 58.7 83.84 58.7 134 75.54 134 75.54 83.84 75.54 75.42 200 75.42 200 58.58 75.54 58.58"/></g></g></svg>
