<svg xmlns="http://www.w3.org/2000/svg" viewBox="0 0 200 134"><defs><style>.nu_cls-1{fill:#f6e331;}.nu_cls-2{fill:#273476;}.nu_cls-3{fill:#fff;}.nu_cls-4{fill:#d0202d;}.nu_cls-5{fill:#ce2028;}.nu_cls-6{fill:#263779;}.nu_cls-7{fill:#f6e012;}</style></defs><title>Asset 33</title><g id="Layer_2" data-name="Layer 2"><g id="Layer_68" data-name="Layer 68"><path class="nu_cls-1" d="M183,0H100V50.05H0V117a17,17,0,0,0,17,17H183a17,17,0,0,0,17-17V17A17,17,0,0,0,183,0Z"/><path class="nu_cls-2" d="M3.1,7.23A16.9,16.9,0,0,0,0,16.5H21.65Z"/><polygon class="nu_cls-2" points="10.6 50.05 41.28 50.05 41.28 34.71 10.6 50.05"/><polygon class="nu_cls-2" points="0 33.28 0 44.1 21.64 33.28 0 33.28"/><polygon class="nu_cls-2" points="58.06 50.05 88.75 50.05 58.06 34.71 58.06 50.05"/><path class="nu_cls-2" d="M41.29,0H17a17,17,0,0,0-4.57.64L41.29,15.07Z"/><polygon class="nu_cls-2" points="100 44.43 100 33.28 77.7 33.28 100 44.43"/><polygon class="nu_cls-2" points="100 16.5 100 5.35 77.7 16.5 100 16.5"/><polygon class="nu_cls-2" points="88.2 0 58.06 0 58.06 15.07 88.2 0"/><polygon class="nu_cls-3" points="41.28 33.28 40.4 33.28 6.85 50.05 10.6 50.05 41.28 34.71 41.28 33.28"/><polygon class="nu_cls-3" points="21.64 33.28 0 44.1 0 49.73 32.9 33.28 21.64 33.28"/><polygon class="nu_cls-3" points="77.7 16.5 100 5.35 100 0 99.45 0 66.45 16.5 77.7 16.5"/><polygon class="nu_cls-3" points="58.06 16.5 58.95 16.5 91.95 0 88.2 0 58.06 15.07 58.06 16.5"/><polygon class="nu_cls-3" points="73.95 33.28 100 46.3 100 44.43 77.7 33.28 73.95 33.28"/><polygon class="nu_cls-3" points="58.06 33.28 58.06 34.71 88.75 50.05 100 50.05 66.45 33.28 58.06 33.28"/><path class="nu_cls-3" d="M41.29,16.5V15.07L12.43.64a16.91,16.91,0,0,0-5.65,2.8L32.9,16.5Z"/><path class="nu_cls-3" d="M25.4,16.5,4.16,5.88A17,17,0,0,0,3.1,7.23L21.65,16.5Z"/><polygon class="nu_cls-3" points="58.06 16.5 58.06 15.07 58.06 0 54.71 0 54.71 16.5 58.06 16.5"/><polygon class="nu_cls-3" points="41.28 33.28 41.28 34.71 41.28 50.05 44.64 50.05 44.64 33.28 41.28 33.28"/><polygon class="nu_cls-3" points="41.28 16.5 44.64 16.5 44.64 0 41.28 0 41.28 15.07 41.28 16.5"/><polygon class="nu_cls-3" points="58.06 33.28 54.71 33.28 54.71 50.05 58.06 50.05 58.06 34.71 58.06 33.28"/><path class="nu_cls-3" d="M32.9,33.28H44.64V31.59A8.45,8.45,0,0,1,43,29.92H0v3.36H32.9Z"/><path class="nu_cls-3" d="M66.45,16.5H54.71v1.69a8.44,8.44,0,0,1,1.67,1.67H100V16.5H66.45Z"/><path class="nu_cls-3" d="M56.37,29.92a8.45,8.45,0,0,1-1.67,1.67v1.69H100V29.92Z"/><path class="nu_cls-3" d="M43,19.86a8.44,8.44,0,0,1,1.67-1.67V16.5H0c0,.17,0,.33,0,.5v2.86Z"/><path class="nu_cls-4" d="M56.37,19.86a8.36,8.36,0,0,1,1.28,2.44h0a8.35,8.35,0,0,1-1.28,7.62H100V19.86Zm21.53,4L79,20.34l1.13,3.48h3.66l-3,2.15L82,29.44l-3-2.15-3,2.15L77.2,26l-3-2.15Z"/><path class="nu_cls-4" d="M43,29.92A8.35,8.35,0,0,1,41.7,22.3h0A8.36,8.36,0,0,1,43,19.86H0V29.92Zm-19.7-.48-3-2.15-3,2.15L18.49,26l-3-2.15h3.66l1.13-3.48,1.13,3.48H25.1l-3,2.15Z"/><path class="nu_cls-5" d="M44.64,18.19a8.35,8.35,0,0,1,10.07,0V0H44.64V18.19ZM48.54,7l1.13-3.48L50.8,7h3.66l-3,2.15,1.13,3.48-3-2.15-3,2.15,1.13-3.48L44.89,7Z"/><path class="nu_cls-5" d="M54.71,31.59l-.11.08h0a8.35,8.35,0,0,1-9.85,0h0l-.11-.08V50.05H54.71V31.59ZM52.63,46.22l-3-2.15-3,2.15,1.13-3.48-3-2.15h3.66l1.13-3.48,1.13,3.48h3.66l-3,2.15Z"/><polygon class="nu_cls-4" points="40.4 33.28 32.9 33.28 0 49.73 0 50.05 6.85 50.05 40.4 33.28"/><polygon class="nu_cls-4" points="66.45 16.5 99.45 0 91.95 0 58.95 16.5 66.45 16.5"/><polygon class="nu_cls-4" points="66.45 33.28 100 50.05 100 46.3 73.95 33.28 66.45 33.28"/><path class="nu_cls-4" d="M32.9,16.5,6.78,3.44A17.13,17.13,0,0,0,4.16,5.88L25.4,16.5Z"/><path class="nu_cls-6" d="M47.79,22.3l1.88-5.79a8.35,8.35,0,0,0-5,1.69A8.44,8.44,0,0,0,41.7,22.3Z"/><path class="nu_cls-6" d="M52.72,25.88l1.88,5.79.11-.08a8.45,8.45,0,0,0,1.67-1.67,8.35,8.35,0,0,0,1.28-7.62Z"/><path class="nu_cls-6" d="M51.56,22.3h6.09a8.42,8.42,0,0,0-8-5.79Z"/><path class="nu_cls-6" d="M46.63,25.88,41.7,22.3a8.4,8.4,0,0,0,2.94,9.29l.11.08Z"/><path class="nu_cls-6" d="M49.67,28.09l-4.92,3.58a8.35,8.35,0,0,0,9.85,0Z"/><polygon class="nu_cls-7" points="46.63 25.88 44.75 31.67 44.74 31.68 44.75 31.67 49.67 28.09 54.6 31.67 54.6 31.68 54.6 31.67 52.72 25.88 57.65 22.3 57.65 22.3 57.65 22.3 51.56 22.3 49.67 16.5 47.79 22.3 41.7 22.3 41.7 22.3 41.7 22.3 46.63 25.88"/><polygon class="nu_cls-7" points="50.8 40.59 49.67 37.12 48.54 40.59 44.89 40.59 47.84 42.74 46.72 46.22 49.67 44.07 52.63 46.22 51.5 42.74 54.46 40.59 50.8 40.59"/><polygon class="nu_cls-7" points="46.72 12.67 49.67 10.52 52.63 12.67 51.5 9.19 54.46 7.04 50.8 7.04 49.67 3.56 48.54 7.04 44.89 7.04 47.84 9.19 46.72 12.67"/><polygon class="nu_cls-7" points="21.44 23.82 20.32 20.34 19.18 23.82 15.53 23.82 18.49 25.96 17.36 29.44 20.32 27.29 23.27 29.44 22.14 25.96 25.1 23.82 21.44 23.82"/><polygon class="nu_cls-7" points="76.07 29.44 79.03 27.29 81.99 29.44 80.86 25.96 83.82 23.82 80.16 23.82 79.03 20.34 77.9 23.82 74.24 23.82 77.2 25.96 76.07 29.44"/></g></g></svg>
