<svg xmlns="http://www.w3.org/2000/svg" viewBox="0 0 200 134"><defs><style>.pk_cls-1{fill:#fafafa;}.pk_cls-2{fill:#fff;}.pk_cls-3{fill:#166734;}</style></defs><title>Asset 38</title><g id="Layer_2" data-name="Layer 2"><g id="Layer_62" data-name="Layer 62"><path class="pk_cls-1" d="M17,0A17,17,0,0,0,0,17V117a17,17,0,0,0,17,17H49.66V0Z"/><path class="pk_cls-2" d="M160,85.44a36.91,36.91,0,0,1-49-55.18c.64-.57,1.3-1.1,2-1.62a40.27,40.27,0,1,0,48.91,55C161.23,84.28,160.63,84.87,160,85.44Z"/><path class="pk_cls-3" d="M183,0H49.66V134H183a17,17,0,0,0,17-17V17A17,17,0,0,0,183,0ZM139.85,36.87l6.48,7.29,8.93-3.91-4.93,8.41L156.82,56l-9.53-2.09-4.93,8.41-1-9.71-9.53-2.09,8.94-3.91Zm-14.69,70.4a40.27,40.27,0,0,1-12.26-78.63c-.67.52-1.33,1.05-2,1.62a36.91,36.91,0,0,0,49,55.18c.64-.57,1.24-1.16,1.83-1.76A40.27,40.27,0,0,1,125.17,107.27Z"/><polygon class="pk_cls-1" points="158.2 56.7 150.9 48.22 156.72 38.66 146.4 42.97 139.1 34.49 140.02 45.65 129.69 49.97 140.58 52.54 141.5 63.69 147.31 54.13 158.2 56.7"/></g></g></svg>
