<svg xmlns="http://www.w3.org/2000/svg" viewBox="0 0 200 134"><defs><style>.pr_cls-1{fill:#ec2f36;}.pr_cls-2{fill:#fafafa;}.pr_cls-3{fill:#3d5eab;}.pr_cls-4{fill:#fff;}</style></defs><title>Asset 46</title><g id="Layer_2" data-name="Layer 2"><g id="Layer_55" data-name="Layer 55"><path class="pr_cls-1" d="M42.82,109,6.24,130.16A16.93,16.93,0,0,0,17,134H183a17,17,0,0,0,17-17v-8Z"/><polygon class="pr_cls-1" points="115.63 67 89.8 81.92 200 81.92 200 52.9 91.2 52.9 115.63 67"/><path class="pr_cls-1" d="M200,25.78V17A17,17,0,0,0,183,0H17A16.93,16.93,0,0,0,6.24,3.84l38,21.94Z"/><polygon class="pr_cls-2" points="91.2 52.9 200 52.9 200 25.78 44.23 25.78 91.2 52.9"/><polygon class="pr_cls-2" points="42.82 109.03 200 109.03 200 81.92 89.8 81.92 42.82 109.03"/><path class="pr_cls-3" d="M89.8,81.92,115.63,67,91.2,52.9l-47-27.12L6.24,3.84A17,17,0,0,0,0,17V117a17,17,0,0,0,6.24,13.16L42.82,109ZM15.85,60H32.27L37.34,44.4,42.42,60H58.84L45.55,69.67l5.07,15.62L37.34,75.63,24.06,85.28l5.07-15.62Z"/><polygon class="pr_cls-4" points="58.84 60.02 42.41 60.02 37.34 44.4 32.27 60.02 15.85 60.02 29.13 69.67 24.06 85.28 37.34 75.63 50.62 85.28 45.55 69.67 58.84 60.02"/></g></g></svg>
