<svg xmlns="http://www.w3.org/2000/svg" viewBox="0 0 200 134"><defs><style>.py_cls-1{fill:#fafafa;}.py_cls-2{fill:#1f449b;}.py_cls-3{fill:#ce2931;}.py_cls-4{fill:#fff;}.py_cls-5{fill:#ce2028;}.py_cls-6{fill:#166835;}.py_cls-7{fill:#3665b0;}.py_cls-8{fill:#fecf0a;}.py_cls-9{fill:#fee600;}</style></defs><title>Asset 41</title><g id="Layer_2" data-name="Layer 2"><g id="Layer_60" data-name="Layer 60"><path class="py_cls-1" d="M0,89.48H200v-45H0Zm100-39.6A17.13,17.13,0,1,1,82.87,67,17.13,17.13,0,0,1,100,49.87Z"/><path class="py_cls-2" d="M0,117a17,17,0,0,0,17,17H183a17,17,0,0,0,17-17V89.48H0Z"/><path class="py_cls-3" d="M183,0H17A17,17,0,0,0,0,17V44.52H200V17A17,17,0,0,0,183,0Z"/><path class="py_cls-4" d="M100,84.13A17.13,17.13,0,1,0,82.87,67,17.13,17.13,0,0,0,100,84.13Zm0-31.81A14.68,14.68,0,1,1,85.31,67,14.69,14.69,0,0,1,100,52.31Z"/><path class="py_cls-5" d="M110,58.93a.35.35,0,0,0,.22,0,.46.46,0,0,0,.21-.09.38.38,0,0,0,.16-.26.48.48,0,0,0-.12-.35l-.41-.54-.64.49.38.49A.83.83,0,0,0,110,58.93Z"/><path class="py_cls-5" d="M108.41,56.7c.09-.2.16-.36.22-.48a3.61,3.61,0,0,1-.4.27l-.65.37.54.49Z"/><path class="py_cls-5" d="M111.51,60.66l.37-.38a3.28,3.28,0,0,1-.46.13l-.74.14.36.64Z"/><path class="py_cls-5" d="M87,69a.32.32,0,0,0-.18-.13.45.45,0,0,0-.23,0,.39.39,0,0,0-.25.17.49.49,0,0,0,0,.37l.15.67.79-.17-.13-.6A.86.86,0,0,0,87,69Z"/><path class="py_cls-5" d="M107,55.89a.44.44,0,0,0,.25-.24.46.46,0,0,0,.06-.26.31.31,0,0,0-.09-.21,1,1,0,0,0-.23-.14l-.49-.25-.4.77.49.26A.55.55,0,0,0,107,55.89Z"/><path class="py_cls-5" d="M113.7,68a3.53,3.53,0,0,1-.45-.16l-.69-.31-.08.73.7-.15Z"/><path class="py_cls-5" d="M100,81.68A14.68,14.68,0,1,0,85.31,67,14.69,14.69,0,0,0,100,81.68ZM85.8,66.07h.29v1.28h.75V66.15h.29v1.19H88V66h.29l0,1.61-2.44,0Zm.46,4.3-.21-.94A1.13,1.13,0,0,1,86,69a.5.5,0,0,1,.17-.29.78.78,0,0,1,.34-.17.65.65,0,0,1,.46.05.72.72,0,0,1,.32.4.76.76,0,0,1,.08-.2,1.66,1.66,0,0,1,.27-.3l.57-.51.08.35-.43.39-.29.27a.64.64,0,0,0-.12.18.39.39,0,0,0,0,.14.68.68,0,0,0,0,.16l.07.32,1.06-.23.06.28Zm13.67,7.68A11.09,11.09,0,1,1,111,67,11.09,11.09,0,0,1,99.93,78.05Zm13.72-8-.84.14-.46.06.32.37.53.64-.11.31-1-1.29-1-.36.1-.27,1,.36,1.61-.29Zm.29-1.85-2.51.62,0-.32.76-.17.09-.9-.71-.31,0-.3L114,67.87Zm-.15-3.37-1.4.15a1.57,1.57,0,0,0-.46.1.44.44,0,0,0-.21.2.67.67,0,0,0,.16.75,1,1,0,0,0,.63.06l1.4-.15,0,.28-1.4.15a1.83,1.83,0,0,1-.59,0,.69.69,0,0,1-.38-.23.85.85,0,0,1-.19-.48,1,1,0,0,1,.06-.51.65.65,0,0,1,.31-.31,1.81,1.81,0,0,1,.6-.15l1.39-.15ZM112.67,62a1,1,0,0,1,.52.28,1.07,1.07,0,0,1,.26.53.94.94,0,0,1,0,.43.71.71,0,0,1-.17.34,1.17,1.17,0,0,1-.36.24l-.13-.24a.94.94,0,0,0,.26-.18.48.48,0,0,0,.13-.23.66.66,0,0,0,0-.3.8.8,0,0,0-.13-.32.65.65,0,0,0-.22-.19,1,1,0,0,0-.26-.09,1.44,1.44,0,0,0-.5,0,1.3,1.3,0,0,0-.51.21.67.67,0,0,0-.26.35.81.81,0,0,0,0,.42.88.88,0,0,0,.15.34.91.91,0,0,0,.22.23l.44-.09-.12-.62.28-.06.19.89-.88.18a1.58,1.58,0,0,1-.37-.37,1.18,1.18,0,0,1-.18-.43,1.14,1.14,0,0,1,0-.6.94.94,0,0,1,.36-.47A1.59,1.59,0,0,1,112,62,1.68,1.68,0,0,1,112.67,62Zm-.49-1.68-1.69,2-.16-.28.52-.58-.44-.79-.76.15-.15-.27L112,60Zm-1.47-2.19a1.16,1.16,0,0,1,.21.39.5.5,0,0,1,0,.33.77.77,0,0,1-.24.29.66.66,0,0,1-.44.15.72.72,0,0,1-.46-.23.67.67,0,0,1,0,.21,1.67,1.67,0,0,1-.11.38l-.3.7-.22-.29.23-.54a3.68,3.68,0,0,0,.14-.37.61.61,0,0,0,0-.21.38.38,0,0,0,0-.14l-.09-.13-.2-.26-.86.66-.17-.23,1.93-1.48Zm-1.78-2-1,2.4-.24-.22.3-.72-.67-.6-.67.39-.22-.2,2.24-1.26Zm-2.59-1.75.72.38a1.82,1.82,0,0,1,.28.17.62.62,0,0,1,.18.23.56.56,0,0,1,0,.29.86.86,0,0,1-.1.32.81.81,0,0,1-.4.39.79.79,0,0,1-.66-.1l-.49-.26-.46.88-.25-.13ZM102.18,53l.28.05-.37,2.11,1,.18,0,.28-1.33-.23Zm-2.79-.2h1.56v.29H99.67v.75h1.19v.29H99.67v.83H101v.29H99.38ZM97.59,53A1.68,1.68,0,0,1,98,53a.73.73,0,0,1,.35.11,1,1,0,0,1,.33.36,1.79,1.79,0,0,1,.2.55,1.94,1.94,0,0,1,0,.49,1.25,1.25,0,0,1-.07.38.79.79,0,0,1-.15.26.74.74,0,0,1-.23.17,1.23,1.23,0,0,1-.33.11l-.76.15-.48-2.39ZM93,54.53l2,1.59-.28.17-.6-.49-.77.48.19.75-.26.16-.59-2.5Zm-2.21,1.85a1,1,0,0,1,.3-.45.82.82,0,0,1,.54-.21,1,1,0,0,1,.57.2l-.17.24a.75.75,0,0,0-.42-.15.53.53,0,0,0-.35.14.63.63,0,0,0-.23.37.68.68,0,0,0,.06.43,1.67,1.67,0,0,0,.25.4,1.64,1.64,0,0,0,.41.36.65.65,0,0,0,.41.1.64.64,0,0,0,.35-.15.58.58,0,0,0,.21-.38.81.81,0,0,0-.13-.5l.27-.12a1.12,1.12,0,0,1,.15.67.83.83,0,0,1-.3.53.93.93,0,0,1-.54.25,1,1,0,0,1-.55-.14,1.89,1.89,0,0,1-.51-.42,1.58,1.58,0,0,1-.33-.59A1,1,0,0,1,90.82,56.38Zm-.82.69,1.81,1.63-.19.21-1.81-1.63ZM88.7,58.58l1.7,1.31L91,59l.23.18-.82,1.07L88.52,58.8Zm-.91,1.26a.89.89,0,0,1,.28-.29.51.51,0,0,1,.32-.07.64.64,0,0,1,.31.11.62.62,0,0,1,.2.22.56.56,0,0,1,.06.31.56.56,0,0,1,.35-.13.64.64,0,0,1,.37.12.84.84,0,0,1,.23.23.61.61,0,0,1,.1.26.64.64,0,0,1,0,.26,1.29,1.29,0,0,1-.16.31l-.46.68-2-1.35Zm-1.37,2.94,1.31.52a1.57,1.57,0,0,0,.45.12.44.44,0,0,0,.28-.08.57.57,0,0,0,.19-.26.55.55,0,0,0,0-.48,1,1,0,0,0-.53-.35l-1.3-.52.1-.27,1.31.52a1.84,1.84,0,0,1,.51.28.69.69,0,0,1,.23.38.86.86,0,0,1-.06.52,1,1,0,0,1-.29.42.66.66,0,0,1-.42.13,1.81,1.81,0,0,1-.6-.15L86.31,63ZM86,64.44a1.73,1.73,0,0,1,.05-.32.61.61,0,0,1,.14-.26.59.59,0,0,1,.25-.15.85.85,0,0,1,.34,0,.81.81,0,0,1,.51.22.79.79,0,0,1,.16.65l0,.55,1,.09,0,.28-2.42-.21Z"/><path class="py_cls-5" d="M93.44,55.17c-.17-.14-.3-.25-.4-.35a3.48,3.48,0,0,1,.15.46l.18.73.62-.39Z"/><path class="py_cls-5" d="M86.74,64a.47.47,0,0,0-.27,0,.32.32,0,0,0-.16.17,1.15,1.15,0,0,0,0,.26l0,.55.87.07,0-.55a.54.54,0,0,0-.08-.4A.45.45,0,0,0,86.74,64Z"/><path class="py_cls-5" d="M88.73,60.21a.31.31,0,0,0,0-.2.42.42,0,0,0-.15-.17.43.43,0,0,0-.21-.07.25.25,0,0,0-.19.05,1,1,0,0,0-.21.25l-.24.36.61.41.26-.39A.91.91,0,0,0,88.73,60.21Z"/><path class="py_cls-5" d="M89.67,60.85a.45.45,0,0,0,0-.17.35.35,0,0,0-.05-.17.46.46,0,0,0-.15-.15.43.43,0,0,0-.23-.08.32.32,0,0,0-.21.06.86.86,0,0,0-.21.24l-.28.41.7.46.3-.45A1,1,0,0,0,89.67,60.85Z"/><path class="py_cls-5" d="M98,55.15a1,1,0,0,0,.32-.11.51.51,0,0,0,.17-.16.78.78,0,0,0,.09-.33,1.63,1.63,0,0,0,0-.47,1.23,1.23,0,0,0-.23-.55A.59.59,0,0,0,98,53.3a1,1,0,0,0-.37,0l-.45.09.37,1.82Z"/><path class="py_cls-4" d="M107.24,69a3.35,3.35,0,0,1,.28-.44l-.25-.11A4.4,4.4,0,0,1,107.24,69Z"/><path class="py_cls-4" d="M106.93,66.14a1.67,1.67,0,0,1,.31.44,4,4,0,0,1,0-.51A.86.86,0,0,1,106.93,66.14Z"/><path class="py_cls-4" d="M91.59,66.36l.1.29.07.1Z"/><path class="py_cls-4" d="M97.21,60.1c.33.13.7.26,1,.38l-.82-.34-.13,0Z"/><path class="py_cls-4" d="M103.53,72.26a4.43,4.43,0,0,1-.54,1,4.44,4.44,0,0,1,.93-.25c0-.14-.1-.29-.14-.39A1.59,1.59,0,0,0,103.53,72.26Z"/><path class="py_cls-4" d="M106.26,71.15l0,0,.08.07Z"/><path class="py_cls-4" d="M97.27,74l-.59.22.74-.19-.1,0Z"/><path class="py_cls-4" d="M94.62,70.46l0,.06-.06-.16Z"/><path class="py_cls-4" d="M105.95,60.77l-.09.1-.17.27,0,0a3.19,3.19,0,0,1,.36.31C105.94,61.12,105.88,60.85,105.95,60.77Z"/><path class="py_cls-4" d="M107.64,66a3.5,3.5,0,0,1,.11.46,3.48,3.48,0,0,1,.12-.43v0Z"/><path class="py_cls-4" d="M105.57,70.88l0,.14.12-.11Z"/><path class="py_cls-4" d="M107.87,65.9a1.57,1.57,0,0,1-.37-.21.68.68,0,0,1,.12.22h.25Z"/><polygon class="py_cls-4" points="94.3 60.89 94.29 60.9 94.29 60.9 94.3 60.89"/><path class="py_cls-4" d="M107.14,63.35l-.32.06a2.25,2.25,0,0,1,.44.51,3,3,0,0,1-.06-.45Z"/><path class="py_cls-4" d="M106.2,71.23l-.1.15.16-.09Z"/><path class="py_cls-4" d="M99.93,55.87A11.09,11.09,0,1,0,111,67,11.09,11.09,0,0,0,99.93,55.87ZM100,60.8a5.53,5.53,0,1,1-5.53,5.53A5.53,5.53,0,0,1,100,60.8Zm8.21,5.91c.23-.49.46-.8.57-.73s.06.32,0,.68c.25-.29.46-.45.53-.37s-.12.76-.52,1.39a3.08,3.08,0,0,1-.74.87l.23,0c.19,0,.3-.26.5-.3a1.28,1.28,0,0,1,.67,0c.17.07,0,.26-.22.33a4,4,0,0,1-.9,0l-.46.07a3.84,3.84,0,0,1-.19.86c.42-.46.77-.71.87-.6s0,.38-.24.74c.37-.23.65-.34.71-.21s-.38.79-1,1.35a3.39,3.39,0,0,1-1.1.7l.26,0c.22,0,.42-.18.65-.16a1.5,1.5,0,0,1,.73.27c.15.14,0,.3-.35.29s-.79-.3-1-.33l-.35-.06a5.09,5.09,0,0,1-.56.57c.65-.19,1.13-.23,1.16-.06s-.22.33-.62.56c.48,0,.79.07.78.21s-.8.54-1.73.69a4,4,0,0,1-1.42,0l.21.18c.19.16.5.08.71.23a1.72,1.72,0,0,1,.55.67c.08.22-.21.26-.5.07s-.6-.75-.77-.89l-.27-.23-.42.22a4.25,4.25,0,0,1-.41.25c.73,0,1.27.23,1.27.46s-.78.51-1.74.52a2.64,2.64,0,0,1-1.69-.36c-.17.1-.38.24-.6.4a2.74,2.74,0,0,0,.46.3c.85.47,1.39.11,2.28-.13a1.62,1.62,0,0,1-1.69,1,7.07,7.07,0,0,1-1.48-.87,3.3,3.3,0,0,1-2.08.87,1.13,1.13,0,0,1-1.1-1.14,6,6,0,0,0,1.32.57c.33.07.8-.21,1.42-.58-.38-.25-.77-.48-1.14-.68l0,0H98.4c-.74.33-1.56.74-2.13,1,.35-.27.79-.57,1.2-.88-.68.21-1.37.44-1.87.62.41-.23.92-.49,1.38-.76h-.8l-1.11.45c.37-.24.84-.52,1.26-.8-.69.16-1.4.35-1.91.49.42-.2,1-.43,1.44-.66l-1.05-.07,1-.18-.25-.06h-.08c-.66.1-1.34.22-1.83.3l1.18-.42-.44-.08-1.3,0c.46-.11,1-.21,1.55-.33L94.16,73l-1.44,0,.94-.19-.09,0h.2l-.68-.17h.24l-1.13-.23,1.59,0L92,72.12l1.5,0c-.68-.24-1.38-.48-1.9-.65l1.44.23-.88-.44.64.14-1.46-.64c.5.12,1.11.29,1.66.41-.68-.37-1.41-.73-1.94-1l.49.15L90.93,70l1.44.52c-.59-.45-1.21-.9-1.67-1.23.53.26,1.18.62,1.75.88l-.19-.22c-.57-.44-1.16-.87-1.59-1.19.4.2.88.46,1.34.7l-.33-.36-1.16-1c.43.24.94.57,1.43.84-.53-.44-1.06-.88-1.46-1.2l1.35.79c-.52-.56-1.08-1.13-1.48-1.54.34.25.73.56,1.11.85v-.11c-.39-.54-.79-1.06-1.09-1.46l.86.86L91.14,67l0,.05L90.36,66c.3.3.65.67,1,1l0-.2-.05-.15c-.29-.6-.59-1.19-.82-1.63l.46.68c-.17-.44-.33-.86-.46-1.2.23.42.5.93.76,1.41l-.06-.51-.5-1.12.16.26L90.61,64c.28.42.6,1,.91,1.44-.29-.65-.58-1.3-.81-1.79.27.43.59,1,.9,1.44-.25-.78-.54-1.59-.74-2.18.17.33.35.72.54,1.11-.15-.53-.3-1-.42-1.45.19.41.39.92.6,1.4-.13-.67-.27-1.32-.37-1.82.18.5.37,1.12.57,1.68-.05-.6-.11-1.22-.17-1.75l0-.2,0,.07c0-.14,0-.28,0-.4.08.33.17.71.26,1.1l.21.69c-.12-.72-.27-1.44-.37-2,.15.43.31.95.47,1.45v-.07c0-.64-.09-1.28-.13-1.76.11.47.21,1,.33,1.57l0-.11c0-.63-.1-1.25-.14-1.73.09.38.18.84.27,1.28.1-.68.18-1.36.24-1.87,0,.59,0,1.32,0,2l.14-.55v.12l0-.06c.09-.63.17-1.26.23-1.74,0,.58,0,1.3,0,1.94.17-.86.33-1.78.45-2.44,0,.55-.07,1.22-.09,1.84.24-.64.47-1.3.63-1.78-.09.48-.23,1.08-.34,1.62.19-.62.37-1.25.51-1.72-.05.37-.13.81-.19,1.25v0c.1-.51.2-1,.27-1.38,0,.39-.06.86-.08,1.32l.12-.14c.14-.56.28-1.12.38-1.55,0,.38-.09.83-.14,1.27L94.8,60l-.13.25c0,.11,0,.21,0,.32.22-.58.44-1.18.6-1.62-.08.39-.2.86-.29,1.31.29-.57.57-1.16.78-1.59-.13.41-.3.89-.45,1.36l.19-.23c.2-.47.39-.93.54-1.29-.07.29-.17.63-.26,1l.12-.14-.16.29-.08.33c.37-.59.75-1.24,1-1.71-.2.49-.49,1.11-.69,1.65h0c.23-.52.46-1.08.63-1.48-.08.33-.18.72-.27,1.1.21-.39.42-.78.58-1.08-.09.27-.21.59-.32.91l.12-.11-.15.21,0,.08c.3-.41.61-.84.83-1.16-.16.33-.38.74-.55,1.11l.3-.23.59-.79-.31.58,0,0-.08.1-.17.34.07,0c.27-.29.54-.6.73-.83-.15.25-.36.55-.53.84l0,0,.83-.86-.52.72.24-.11.33-.19-.13.1.82-.38c-.3.19-.7.41-1,.63l-.19.14.81-.21-.66.28h.1l.56-.14-.26.14h.06l1.24-.16-.53.14.67,0-1.55.26-.08,0,.86,0-.85.09.75.35-1-.31-.28,0-.11,0c.44.15,1,.26,1.5.38L98,60.17l.56.18-.62-.12.5.31.13,0-.08,0h0L98,60.48l.23.08L97,60.33c.35.09.71.17,1,.25L97,60.48c.36.07.73.13,1,.19l-.68,0,.36.07c-.48,0-1.13,0-1.73,0h0c.48,0,1,0,1.45,0l-1.24.17L97,61l-1.51.13c.44,0,.9,0,1.29,0l-1,.2c.35,0,.7-.07,1-.08l-1.69.43c.47-.06,1-.14,1.37-.18l-1.21.37c.32,0,.63,0,.91,0l-.32.07-.56.22.52,0L95,62.2l-.87.36,1-.27.05,0,0,0,.48-.13-.74.34.36-.1-.61.29-.14.11.46-.25-.16.13.08-.05-1,1c.27-.16.53-.32.77-.45l0,0h0l-.61.63L92.9,65.32c.35-.45.71-1,1-1.34l-.61,1.1c.21-.27.41-.53.59-.75l-.67,1.15c.25-.31.5-.62.72-.87l-.35.58.12-.13-.4.59-.28.46c.24-.34.49-.68.71-1l-.15.29-.31.9c.11-.23.21-.44.32-.64l-.13.38c-.12.57-.27,1.28-.41,2,.16-.6.3-1.25.44-1.77,0,.29-.07.61-.11,1,0-.2.1-.4.15-.58-.06.56-.15,1.29-.23,2,.11-.54.21-1.09.32-1.55,0,.28,0,.6-.07.93,0-.15.06-.3.09-.43,0,.61-.1,1.41-.14,2.18.07-.63.12-1.3.19-1.85,0,.3,0,.65,0,1,0-.32,0-.62,0-.9,0,.56.1,1.29.16,2,0-.55,0-1.12,0-1.59,0,.22.06.47.09.73,0-.09,0-.19,0-.27.12.6.26,1.39.41,2.15-.06-.4-.12-.82-.19-1.21l0-.13,0,.08c0-.2-.06-.4-.09-.58l.27.92h0c0-.2-.06-.41-.09-.6l.19.68c.29.52.64,1.19,1,1.82-.27-.57-.59-1.17-.83-1.68l.72,1.08,1.08,1.2c-.4-.49-.84-1-1.19-1.43l1.28,1.18c-.22-.27-.44-.54-.63-.79l1.57,1.51c-.44-.46-.92-.93-1.29-1.34.79.62,1.93,1.57,2.79,2.16a9.51,9.51,0,0,1,1.38.85c.28-.16.58-.33.91-.48a3.84,3.84,0,0,1,.78-1.46,3.74,3.74,0,0,1,1.2-1.1c-.06-.3,0-.42.16-.34A1.2,1.2,0,0,1,104,72c.11.33-.1.46-.08.58a3.35,3.35,0,0,0,.1.34h0a4,4,0,0,1,.43-1.37,5.75,5.75,0,0,1,.7-1.14c0-.11,0-.18.08-.19h.08c.11-.11.21-.17.29-.16s.11.12.1.29a1,1,0,0,1,.22.13.5.5,0,0,1,.08.1l.14-.1c0-.17-.05-.37-.07-.57-.07-.86,0-1.62.22-1.69s.27.25.37.72a4.66,4.66,0,0,1,.21-.58.76.76,0,0,1-.28-.07c-.28-.14-.31-.28-.19-.33a.88.88,0,0,1,.64,0l0,0a.12.12,0,0,1,.08,0c.07,0,.12.13.13.33l0,0,.27.13h0a2.86,2.86,0,0,1-.56-1,2.44,2.44,0,0,1-.24-1.41c-.18,0-.23-.12-.15-.2a.92.92,0,0,1,.6-.23.38.38,0,0,1,.15,0s0-.07.07-.08h0a4.39,4.39,0,0,1-.48-.41c-.51-.52-.86-1.06-.78-1.22s.32,0,.64.25a2.08,2.08,0,0,1-.23-.8,1.24,1.24,0,0,1-.51.25c-.31,0-.42,0-.34-.16a1,1,0,0,1,.55-.34c.26,0,.34.13.43.13l.3-.05a2.73,2.73,0,0,1-1-.47c-.6-.4-1-.87-1-1s.32-.05.68.13a3.08,3.08,0,0,1-.31-.56l-.15.09c-.1.06-.15.22-.36.32s-.29.06-.25,0a.7.7,0,0,1,.32-.34c.17-.09.25,0,.31,0l.12-.06v0a2.13,2.13,0,0,1-.67-.1c-.47-.14-.84-.35-.83-.47s.2-.1.47-.06c-.26-.21-.42-.41-.38-.48s.19,0,.4.07l-.31-.22a2.29,2.29,0,0,1-1,0c-.6-.08-1.1-.24-1.12-.37s.37-.15.88-.1c-.47-.26-.81-.52-.75-.61s.4,0,.84.21c-.32-.32-.5-.59-.4-.64s.56.21,1,.61.71.77.59.83h0v0l.31.2c-.11-.17-.16-.29-.11-.34s.29.07.56.31c-.13-.33-.18-.59-.09-.62s.19.1.32.29c0-.26,0-.44.07-.45s.32.38.44.86a2.05,2.05,0,0,1,.08.77l.09-.14c.08-.12,0-.28.09-.4a1,1,0,0,1,.33-.36c.11-.06.14.09.06.26a1.48,1.48,0,0,1-.32.38c.11,0,.38.24.66.69-.07-.53,0-.92.08-.93s.23.21.35.54c0-.37.14-.61.25-.59s.31.68.32,1.43a3.25,3.25,0,0,1-.13,1.13l.16-.15c.14-.13.12-.39.25-.54a1.35,1.35,0,0,1,.57-.37c.18,0,.17.19,0,.4s-.63.39-.76.52l-.35.33a2.29,2.29,0,0,1,.43.77c0-.54.12-.91.25-.89s.19.25.25.6c.12-.36.25-.58.35-.53s.18.73.06,1.47a3.39,3.39,0,0,1-.34,1.09l.18-.12c.17-.1.18-.36.34-.48a1.32,1.32,0,0,1,.63-.25c.18,0,.13.22-.07.39s-.69.27-.84.37l-.41.26,0,0A3.22,3.22,0,0,1,108.23,66.71Z"/><path class="py_cls-4" d="M93.47,65.69c-.26.49-.55,1-.82,1.55v0C92.94,66.79,93.21,66.2,93.47,65.69Z"/><path class="py_cls-4" d="M94.09,60.71h0v0Z"/><path class="py_cls-6" d="M107.2,63.34h-.07l.06.13A1.06,1.06,0,0,1,107.2,63.34Z"/><path class="py_cls-6" d="M107.87,66v0h0Z"/><path class="py_cls-6" d="M107.19,63.28h0Z"/><path class="py_cls-6" d="M105.68,61.15l0,0,0,0Z"/><path class="py_cls-6" d="M103.95,73.78l.42-.22-.06-.05A2.62,2.62,0,0,1,103.95,73.78Z"/><path class="py_cls-6" d="M101.33,74.54h0a.14.14,0,0,1,0,0,.2.2,0,0,1,0-.15.28.28,0,0,1,0,0c-.33.16-.63.32-.91.48l.37.27c.22-.15.42-.3.6-.4A.18.18,0,0,1,101.33,74.54Z"/><path class="py_cls-6" d="M98.49,75.66a6,6,0,0,1-1.32-.57,1.13,1.13,0,0,0,1.1,1.14,3.3,3.3,0,0,0,2.08-.87l-.43-.28C99.3,75.45,98.82,75.73,98.49,75.66Z"/><path class="py_cls-6" d="M104.45,60.19l-.31-.2h-.06l.31.22.15.07Z"/><path class="py_cls-6" d="M107.89,65.91h0Z"/><path class="py_cls-6" d="M105.68,61.1l0-.08a2.05,2.05,0,0,0-.08-.77c-.12-.48-.32-.87-.44-.86s-.1.19-.07.45a3.33,3.33,0,0,1,.29.48A2.23,2.23,0,0,1,105.68,61.1Z"/><path class="py_cls-6" d="M105.65,61.13h0l0,0a2.23,2.23,0,0,0-.26-.79,3.33,3.33,0,0,0-.29-.48c-.14-.19-.26-.31-.32-.29s0,.29.09.62l.24.22A2,2,0,0,1,105.65,61.13Z"/><path class="py_cls-6" d="M105.36,61.22a2.35,2.35,0,0,1-.7-.34l-.3-.22c-.27,0-.47,0-.47.06s.36.33.83.47a2.13,2.13,0,0,0,.67.1Z"/><path class="py_cls-6" d="M105.36,61.22a.22.22,0,0,1,0-.1,3.16,3.16,0,0,1-.52-.45,3.48,3.48,0,0,1-.31-.37l-.15-.07c-.21-.09-.37-.13-.4-.07s.12.27.38.48l.3.22A2.35,2.35,0,0,0,105.36,61.22Z"/><path class="py_cls-6" d="M104.85,60.68a3.16,3.16,0,0,0,.52.45s0-.06,0-.08.15,0,.28.08a2,2,0,0,0-.52-.75l-.24-.22c-.27-.24-.5-.37-.56-.31s0,.17.11.34l.09.12A3.48,3.48,0,0,0,104.85,60.68Z"/><path class="py_cls-6" d="M105.29,61.38c-.06,0-.14-.08-.31,0a.7.7,0,0,0-.32.34c0,.09,0,.13.25,0s.26-.26.36-.32l.15-.09v0Z"/><path class="py_cls-6" d="M105.65,61.14l0,0h0l.17-.27.09-.1s0,0,0,0h0a1.48,1.48,0,0,0,.32-.38c.08-.17.05-.32-.06-.26a1,1,0,0,0-.33.36c-.07.13,0,.28-.09.4l-.09.14,0,.08Z"/><path class="py_cls-6" d="M107.4,63.13l.1-.1a3.25,3.25,0,0,0,.13-1.12c0-.75-.16-1.39-.32-1.43s-.2.21-.25.59a5.88,5.88,0,0,1,.24.83A3.62,3.62,0,0,1,107.4,63.13Z"/><path class="py_cls-6" d="M107.35,63.18l.05-.05a3.62,3.62,0,0,0-.1-1.24,5.88,5.88,0,0,0-.24-.83c-.12-.33-.26-.54-.35-.54s-.16.39-.08.93c.08.13.17.28.25.43A3.22,3.22,0,0,1,107.35,63.18Z"/><path class="py_cls-6" d="M107.19,63.28h0l-.07,0c-.12.1-.59-.27-1.08-.86-.13-.15-.24-.31-.34-.45-.36-.18-.64-.24-.68-.12s.38.64,1,1a2.73,2.73,0,0,0,1,.47Z"/><path class="py_cls-6" d="M107.15,63.22a3.78,3.78,0,0,1-.76-1.06,6.12,6.12,0,0,1-.31-.67,3.19,3.19,0,0,0-.36-.31l0,0,0,0h0c-.13-.09-.24-.13-.28-.08s0,.05,0,.08a.22.22,0,0,0,0,.1l0,.07v.06a3.08,3.08,0,0,0,.31.56c.1.14.21.3.34.45C106.56,63,107,63.32,107.15,63.22Z"/><path class="py_cls-6" d="M105.95,60.77c-.07.07,0,.35.13.72a6.12,6.12,0,0,0,.31.67,3.78,3.78,0,0,0,.76,1.06l.07,0s0-.08.05-.08a.07.07,0,0,1,.06,0h0a3.22,3.22,0,0,0-.47-1.31c-.08-.16-.17-.3-.25-.43-.29-.45-.55-.73-.66-.69h0S106,60.77,105.95,60.77Z"/><path class="py_cls-6" d="M106.82,63.41l.32-.06h.07v-.07h0l-.13,0-.3.05c-.09,0-.16-.17-.43-.12a1,1,0,0,0-.55.34c-.08.11,0,.21.34.16a1.24,1.24,0,0,0,.51-.25c0-.05,0-.1,0-.12S106.74,63.36,106.82,63.41Z"/><path class="py_cls-6" d="M107.35,63.18h0l0,0,.35-.33c.13-.13.56-.26.76-.52s.18-.44,0-.4a1.35,1.35,0,0,0-.57.37c-.14.15-.11.4-.25.54l-.16.15-.1.1Z"/><path class="py_cls-6" d="M108.26,65.8l.12-.08a3.39,3.39,0,0,0,.34-1.09c.12-.74.1-1.4-.06-1.47s-.24.17-.35.53a5.85,5.85,0,0,1,.09.86A3.65,3.65,0,0,1,108.26,65.8Z"/><path class="py_cls-6" d="M108.21,65.83l.05,0a3.65,3.65,0,0,0,.13-1.25,5.85,5.85,0,0,0-.09-.86c-.06-.35-.15-.59-.25-.6s-.22.36-.25.89c.06.15.12.31.17.48A3.57,3.57,0,0,1,108.21,65.83Z"/><path class="py_cls-6" d="M108.22,65.88l0,0,0,0h0Z"/><path class="py_cls-6" d="M107.5,65.69a1.57,1.57,0,0,0,.37.21h0l0-.07c-.17,0-.51-.44-.84-1-.1-.18-.18-.35-.25-.51-.32-.25-.58-.37-.64-.25s.26.71.78,1.22a4.39,4.39,0,0,0,.48.41Z"/><path class="py_cls-6" d="M107.94,65.84l0,0a4.36,4.36,0,0,1-.52-1.15,6.23,6.23,0,0,1-.19-.73,2.25,2.25,0,0,0-.44-.51c-.07-.05-.13-.08-.17-.05s0,.07,0,.12a2.08,2.08,0,0,0,.23.8c.07.16.15.33.25.51C107.43,65.4,107.78,65.81,107.94,65.84Z"/><path class="py_cls-6" d="M107.34,63.18a.07.07,0,0,0-.06,0s0,0-.05.08h0v.07a1.06,1.06,0,0,0,0,.14,3,3,0,0,0,.06.45,6.23,6.23,0,0,0,.19.73,4.36,4.36,0,0,0,.52,1.15s.06-.07.09-.07.07,0,.1.13l.05,0a3.57,3.57,0,0,0-.23-1.37c-.05-.17-.11-.33-.17-.48a2.29,2.29,0,0,0-.43-.77Z"/><path class="py_cls-6" d="M108.17,65.92l0,0,0,0Z"/><path class="py_cls-6" d="M106.93,66.14a.86.86,0,0,0,.34-.07,1.09,1.09,0,0,1,.08-.34.38.38,0,0,0-.15,0,.92.92,0,0,0-.6.23c-.08.08,0,.17.15.2,0,0,0,0,0,0S106.86,66.09,106.93,66.14Z"/><path class="py_cls-6" d="M107.87,65.91h-.25l0,.06h.24l0-.05h0Z"/><path class="py_cls-6" d="M108.21,65.83l-.05,0v0l0,0,0,0,.41-.26c.15-.1.59-.15.84-.37s.25-.39.07-.39a1.32,1.32,0,0,0-.63.25c-.16.12-.18.38-.34.48l-.18.12-.12.08Z"/><path class="py_cls-6" d="M107.93,68.58l.13,0a3.08,3.08,0,0,0,.74-.87c.4-.64.63-1.26.52-1.39s-.29.07-.53.37a5.9,5.9,0,0,1-.25.82A3.69,3.69,0,0,1,107.93,68.58Z"/><path class="py_cls-6" d="M107.87,68.59h.06a3.69,3.69,0,0,0,.6-1.1,5.9,5.9,0,0,0,.25-.82c.08-.36.1-.63,0-.68s-.34.24-.57.73c0,.16,0,.33,0,.52A3.68,3.68,0,0,1,107.87,68.59Z"/><path class="py_cls-6" d="M107.6,68.48a3,3,0,0,1-.33-1.31c0-.2,0-.4,0-.58a1.67,1.67,0,0,0-.31-.44c-.07-.06-.13-.09-.17-.06s0,0,0,0a2.44,2.44,0,0,0,.24,1.41,2.86,2.86,0,0,0,.56,1Z"/><path class="py_cls-6" d="M107.24,66.59c0,.18,0,.38,0,.58a3,3,0,0,0,.33,1.31l.05-.05a4.81,4.81,0,0,1,0-1.25,6.93,6.93,0,0,1,.12-.76,3.5,3.5,0,0,0-.11-.46l0-.06a.68.68,0,0,0-.12-.22l0,0h0s0,0-.07.08a1.09,1.09,0,0,0-.08.34A4,4,0,0,0,107.24,66.59Z"/><path class="py_cls-6" d="M108.17,65.92v0c0-.08-.06-.13-.1-.13s-.06,0-.09.07l0,0,0,.07,0,.05v0a3.48,3.48,0,0,0-.12.43,6.93,6.93,0,0,0-.12.76,4.81,4.81,0,0,0,0,1.25c.06-.05.12-.08.15-.06s.07.1.06.23h0a3.68,3.68,0,0,0,.33-1.37c0-.18,0-.35,0-.52a3.22,3.22,0,0,0-.06-.79h0Z"/><path class="py_cls-6" d="M107.52,68.57l0,0-.27-.13,0,0s0,.07,0,.1Z"/><path class="py_cls-6" d="M107,68a.88.88,0,0,0-.64,0c-.13,0-.1.19.19.33a.76.76,0,0,0,.28.07,1,1,0,0,1,.21-.34Z"/><path class="py_cls-6" d="M107.87,68.59h0s0,0,0,0l.46-.07a4,4,0,0,0,.9,0c.26-.08.39-.26.22-.33a1.28,1.28,0,0,0-.67,0c-.19,0-.3.28-.5.3l-.23,0-.13,0Z"/><path class="py_cls-6" d="M107,71.28a1.18,1.18,0,0,1-.12.2h0a3.39,3.39,0,0,0,1.1-.7c.65-.56,1.11-1.16,1-1.35s-.34,0-.71.21a6.41,6.41,0,0,1-.54.81A5.66,5.66,0,0,1,107,71.28Z"/><path class="py_cls-6" d="M107,71.07l0,0s0,.1,0,.19a5.66,5.66,0,0,0,.77-.83,6.41,6.41,0,0,0,.54-.81c.21-.37.31-.66.24-.74s-.45.14-.87.6c-.06.18-.12.37-.21.56A6.64,6.64,0,0,1,107,71.07Z"/><path class="py_cls-6" d="M106.26,71.15l.05.11h0l.07,0a.62.62,0,0,1-.05-.2Z"/><path class="py_cls-6" d="M106.46,69.66c0-.24.1-.46.16-.66-.1-.47-.23-.77-.37-.72S106,69.11,106,70c0,.21,0,.4.07.57a1.28,1.28,0,0,1,.25-.14A6.73,6.73,0,0,1,106.46,69.66Z"/><path class="py_cls-6" d="M106.35,70.4a.22.22,0,0,1,.18,0c.1.06,0,.31-.19.64a.62.62,0,0,0,.05.2l.07,0a5.45,5.45,0,0,1,.4-1.39,7.66,7.66,0,0,1,.38-.8,4.4,4.4,0,0,0,0-.55s0-.07,0-.1c0-.2-.06-.32-.13-.33a.12.12,0,0,0-.08,0,1,1,0,0,0-.21.34,4.66,4.66,0,0,0-.21.58c-.06.2-.11.42-.16.66A6.73,6.73,0,0,0,106.35,70.4Z"/><path class="py_cls-6" d="M107.87,68.59c0-.12,0-.21-.06-.23s-.09,0-.15.06l-.05.05,0,.05h0l0,0a3.35,3.35,0,0,0-.28.44,7.66,7.66,0,0,0-.38.8,5.45,5.45,0,0,0-.4,1.39.79.79,0,0,1,.5-.12,6.64,6.64,0,0,0,.51-1c.08-.19.15-.38.21-.56a3.84,3.84,0,0,0,.19-.86S107.87,68.61,107.87,68.59Z"/><path class="py_cls-6" d="M105.57,70.88l.07,0,.32-.27a.5.5,0,0,0-.08-.1,1,1,0,0,0-.22-.13A2.25,2.25,0,0,1,105.57,70.88Z"/><path class="py_cls-6" d="M105.28,70.28h-.08c-.1,0-.13.08-.08.19Z"/><path class="py_cls-6" d="M106.24,71.19l0,0,.06.06.05,0h0Z"/><path class="py_cls-6" d="M106.82,71.53l.35.06c.2,0,.62.33,1,.33s.51-.15.35-.29a1.5,1.5,0,0,0-.73-.27c-.23,0-.43.19-.65.16l-.26,0h0Z"/><path class="py_cls-6" d="M104.38,73.42l0,0,.08.07a4,4,0,0,0,1.42,0c.93-.15,1.71-.46,1.73-.69s-.3-.22-.78-.21a7.35,7.35,0,0,1-1,.46A5.11,5.11,0,0,1,104.38,73.42Z"/><path class="py_cls-6" d="M104.47,73.3l-.09.12a5.11,5.11,0,0,0,1.43-.37,7.35,7.35,0,0,0,1-.46c.39-.23.64-.44.62-.56s-.51-.13-1.16.06c-.15.13-.32.28-.5.41A6.2,6.2,0,0,1,104.47,73.3Z"/><path class="py_cls-6" d="M105,71.55c.17-.2.35-.37.51-.53l0-.14a2.25,2.25,0,0,0,.09-.47c0-.16,0-.27-.1-.29s-.17,0-.29.16l-.16.18a5.75,5.75,0,0,0-.7,1.14A4,4,0,0,0,104,73h.1A4,4,0,0,1,105,71.55Z"/><path class="py_cls-6" d="M105.52,71c-.17.16-.34.34-.51.53a4,4,0,0,0-.92,1.41h.12a6,6,0,0,1,1.11-1,8.22,8.22,0,0,1,.79-.54l.1-.15,0,0,0,0,.08-.12c.2-.33.29-.57.19-.64a.22.22,0,0,0-.18,0,1.28,1.28,0,0,0-.25.14l-.14.1-.32.27Z"/><path class="py_cls-6" d="M106.86,71.48a1.18,1.18,0,0,0,.13-.2c0-.08.05-.15,0-.19l0,0a.79.79,0,0,0-.5.12l-.07,0-.07,0-.05,0-.16.09a8.22,8.22,0,0,0-.79.54,6,6,0,0,0-1.11,1c.16,0,.28,0,.31.13a.25.25,0,0,1,0,.2,6.2,6.2,0,0,0,1.28-.79c.18-.14.35-.28.5-.41a5.09,5.09,0,0,0,.56-.57Z"/><path class="py_cls-6" d="M103.56,71.72c.09.08.06.28,0,.53a1.59,1.59,0,0,1,.25.32c0,.11.1.25.14.39H104a3.35,3.35,0,0,1-.1-.34c0-.11.19-.25.08-.58a1.2,1.2,0,0,0-.51-.66c-.14-.07-.22,0-.16.34C103.41,71.69,103.51,71.68,103.56,71.72Z"/><path class="py_cls-6" d="M104.34,73.46l0,0,.06.05.27.23c.18.14.42.67.77.89s.57.15.5-.07a1.72,1.72,0,0,0-.55-.67c-.21-.15-.52-.06-.71-.23l-.21-.18Z"/><path class="py_cls-6" d="M101.33,74.53h0a.18.18,0,0,0,0,.11,2.64,2.64,0,0,0,1.69.36c1,0,1.74-.25,1.74-.52s-.54-.41-1.27-.46l-.45.22C102.26,74.6,101.52,74.72,101.33,74.53Z"/><path class="py_cls-6" d="M101.31,74.34a3,3,0,0,1,1.42-1l.26-.11a4.43,4.43,0,0,0,.54-1c.09-.26.12-.46,0-.53s-.15,0-.27,0a3.74,3.74,0,0,0-1.2,1.1,3.84,3.84,0,0,0-.78,1.46A.28.28,0,0,0,101.31,74.34Z"/><path class="py_cls-6" d="M104.34,73.46l0,0,.09-.12a.25.25,0,0,0,0-.2c0-.08-.15-.12-.31-.13h-.29a4.44,4.44,0,0,0-.93.25l-.26.11a3,3,0,0,0-1.42,1,.2.2,0,0,0,0,.15.14.14,0,0,0,0,0c.19.18.93.07,1.75-.28l.45-.22a4.25,4.25,0,0,0,.41-.25,2.62,2.62,0,0,0,.35-.28Z"/><path class="py_cls-6" d="M104.12,59.93l0,0h0c.11-.06-.15-.43-.59-.83s-.89-.67-1-.61.08.32.4.64l.28.13A2.55,2.55,0,0,1,104.12,59.93Z"/><path class="py_cls-6" d="M103,59.67l-.16-.09c-.52-.05-.9,0-.88.1s.53.29,1.12.37a2.29,2.29,0,0,0,1,0h0A2.42,2.42,0,0,1,103,59.67Z"/><path class="py_cls-6" d="M104.12,59.93a.07.07,0,0,1,0,0h0Z"/><path class="py_cls-6" d="M104.09,60h.05v0h0a.07.07,0,0,0,0,0,2.55,2.55,0,0,0-.88-.62l-.28-.13c-.44-.19-.79-.29-.84-.21s.28.35.75.61l.16.09A2.42,2.42,0,0,0,104.09,60Z"/><path class="py_cls-6" d="M99,73.93l.22.15-.31.13-.16.18c.37.2.76.43,1.14.68l.43.28a7.07,7.07,0,0,0,1.48.87,1.62,1.62,0,0,0,1.69-1c-.89.24-1.43.6-2.28.13a2.74,2.74,0,0,1-.46-.3l-.37-.27A9.51,9.51,0,0,0,99,73.93Z"/><path class="py_cls-6" d="M98.63,59.29l-.56.14h.29Z"/><path class="py_cls-6" d="M97,59.58h0l0,0h0Z"/><path class="py_cls-6" d="M97.09,59.48h0Z"/><path class="py_cls-6" d="M97.69,58.38l-.59.79.28-.21Z"/><path class="py_cls-6" d="M97.17,59.36l.17-.34-.36.43Z"/><path class="py_cls-6" d="M98.55,60.58l-.13,0,.05,0Z"/><path class="py_cls-6" d="M97.21,60.1h-.16l0,0c.33.13.69.25,1,.37l.45.08-.21-.09C97.92,60.36,97.54,60.24,97.21,60.1Z"/><path class="py_cls-6" d="M97.82,59.37l.19-.14-.22.15Z"/><path class="py_cls-6" d="M96.79,59.41c.17-.37.39-.78.55-1.11-.22.32-.53.75-.83,1.16l-.07.22Z"/><path class="py_cls-6" d="M97,60.12l-.29.12.32.09,1.21.24L98,60.48C97.7,60.37,97.34,60.25,97,60.12Z"/><path class="py_cls-6" d="M97.46,59.88l.07,0,.11,0Z"/><path class="py_cls-6" d="M96.7,60.08l.07-.06h0l-.18.17.17.06.29-.12,0,0Z"/><path class="py_cls-6" d="M96.57,59.27c.11-.31.23-.63.32-.91-.16.3-.36.69-.58,1.08l0,.07Z"/><path class="py_cls-6" d="M96.22,59.83l.21-.16.07-.22,0-.08-.3.41Z"/><path class="py_cls-6" d="M96.72,60.24l-.17-.06-.17.16c.19.05.4.1.62.14l1.05.1c-.3-.09-.67-.16-1-.25Z"/><path class="py_cls-6" d="M96.22,59.83v0l.76-.41.36-.43.08-.1,0,0-.28.21-.3.23-.35.26Z"/><path class="py_cls-6" d="M96.29,59.52l0-.07c.09-.38.2-.77.27-1.1-.16.4-.39,1-.62,1.48Z"/><path class="py_cls-6" d="M96.38,60.34l-.13.12c.36.08.75.13,1.11.2l.68,0c-.31-.07-.68-.12-1-.19S96.58,60.39,96.38,60.34Z"/><path class="py_cls-6" d="M96.22,59.87v-.09l-.09.13Z"/><path class="py_cls-6" d="M96,60.72Z"/><path class="py_cls-6" d="M97,59.59h0l0,0Z"/><path class="py_cls-6" d="M96.73,60l-.16,0-.49.42.18.05.13-.12.17-.16Z"/><path class="py_cls-6" d="M95.93,59.77l-.14.2.15-.13c.2-.54.49-1.15.69-1.65-.27.46-.65,1.11-1,1.71l-.05.22Z"/><path class="py_cls-6" d="M96.07,60.41l-.33.28.24,0h0c.6,0,1.25,0,1.73,0l-.36-.07c-.36-.06-.75-.12-1.11-.2Z"/><path class="py_cls-6" d="M96.22,59.87l-.08,0-.28.38.59-.32h0l.14-.07h0l.23-.23.2-.05,0,0h-.05l.14-.06h0l.14-.16-.07,0-.19.1Z"/><path class="py_cls-6" d="M95.57,60.11l.05-.22.08-.33-.46.85Z"/><path class="py_cls-6" d="M96,58.45c-.15.36-.34.82-.54,1.29l.27-.33C95.83,59.08,95.93,58.74,96,58.45Z"/><path class="py_cls-6" d="M95.75,60.69l-.21.18.68.06,1.24-.17c-.43,0-1,0-1.45,0h0Z"/><path class="py_cls-6" d="M95.41,60.54l.46-.25.28-.38.09-.12.3-.41.15-.21-.12.11-.27.25-.34.3h0l-.15.13Z"/><path class="py_cls-6" d="M95.29,59.86l-.1.21.08-.1c.14-.46.32-.95.45-1.36-.21.44-.49,1-.78,1.59l0,.14Z"/><path class="py_cls-6" d="M95.24,61.13h.29L97,61l-.82-.06-.68-.06Z"/><path class="py_cls-6" d="M95.07,61l.66-.43-.52.53h0l.3-.26.21-.18.33-.28.49-.42-.11,0-.59.32-.46.25Z"/><path class="py_cls-6" d="M94.87,60.31l-.2.36.25-.32,0-.14c.09-.45.21-.92.29-1.31-.16.44-.37,1-.6,1.62v.07Z"/><path class="py_cls-6" d="M95.24,61.13h0l-.19.2c.25,0,.52,0,.79,0l1-.2c-.38,0-.85,0-1.29,0Z"/><path class="py_cls-6" d="M94.86,60.77l.38-.35.46-.85.16-.29-.12.14-.27.33-.19.23-.08.1Z"/><path class="py_cls-6" d="M94.29,60.9s0,.06,0,.09l.34-.39v-.07c0-.11,0-.21,0-.32l-.37.69Z"/><path class="py_cls-6" d="M94.81,58.83c-.1.43-.24,1-.38,1.55l.24-.28C94.72,59.66,94.78,59.21,94.81,58.83Z"/><path class="py_cls-6" d="M95,61.33l-.34.34.44,0,1.69-.43c-.3,0-.65.05-1,.08S95.27,61.32,95,61.33Z"/><path class="py_cls-6" d="M94.6,61.34l.47-.3.34-.5.39-.56.14-.2-.37.34-.33.3-.38.35Z"/><path class="py_cls-6" d="M94.09,60.71v.08l.23-.27c0-.45.06-.92.08-1.32-.07.38-.17.88-.27,1.38l.05-.08Z"/><path class="py_cls-6" d="M94.29,61s0-.06,0-.09h0l-.12.23Z"/><path class="py_cls-6" d="M94.51,61.85c.25,0,.51,0,.77,0l1.21-.37c-.41,0-.9.13-1.37.18l-.44,0Z"/><path class="py_cls-6" d="M94.21,61.5l.31-.3-.23.35.31-.2.27-.57.33-.7.1-.21-.37.49-.25.32Z"/><path class="py_cls-6" d="M94.11,60.62c.06-.43.14-.87.19-1.25-.13.47-.32,1.1-.51,1.72v0Z"/><path class="py_cls-6" d="M94.08,60.79v-.07l0,.11Z"/><path class="py_cls-6" d="M94.51,61.85l-.16.17.53,0c.37-.08.74-.17,1.05-.23l-.06,0,.32-.07c-.27,0-.59,0-.91,0S94.76,61.85,94.51,61.85Z"/><path class="py_cls-6" d="M95.73,60.61l-.66.43-.47.3-.31.2L94,62l.35,0,.16-.17.18-.18.34-.34.19-.2Z"/><path class="py_cls-6" d="M95.82,62.09l-.52,0L95,62.2Z"/><path class="py_cls-6" d="M93.52,61.39l0,.08.25-.29,0-.05v0c.1-.55.24-1.14.34-1.62-.17.49-.4,1.15-.63,1.78,0,.07,0,.15,0,.22Z"/><path class="py_cls-6" d="M94,62l-.17.26A10.16,10.16,0,0,0,94.87,62l-.53,0Z"/><path class="py_cls-6" d="M94,60.83l-.29.77.42-.48.12-.23h0l.37-.69L94.8,60l-.12.15-.24.28-.12.14-.23.27Z"/><path class="py_cls-6" d="M93.48,61.61l.27-.43-.25.29v.05S93.48,61.59,93.48,61.61Z"/><path class="py_cls-6" d="M94.87,62a10.16,10.16,0,0,1-1.05.19l-.15.23-.11.2.54-.12L95,62.2l.34-.13.56-.22.06,0C95.61,61.87,95.24,62,94.87,62Z"/><path class="py_cls-6" d="M93.14,62.15l0,0,.32-.65c0-.07,0-.15,0-.22,0-.62.07-1.29.09-1.84-.11.66-.28,1.59-.45,2.44C93.14,61.95,93.14,62.05,93.14,62.15Z"/><path class="py_cls-6" d="M93.45,61.66l0-.05s0-.05,0-.08Z"/><path class="py_cls-6" d="M94.21,61.5l.46-.83.2-.36-.24.28-.34.39-.12.14-.42.48-.21.54Z"/><path class="py_cls-6" d="M93.53,62.68h0l.11-.2Z"/><path class="py_cls-6" d="M93,62.33l.12-.18c0-.1,0-.2,0-.3,0-.64,0-1.37,0-1.94-.06.48-.14,1.11-.23,1.74l.22-.83S93.08,61.58,93,62.33Z"/><path class="py_cls-6" d="M94.85,62.48l.74-.34-.48.13-.27.21Z"/><path class="py_cls-6" d="M93.53,62.68l-.14.21c.38-.09.8-.22,1.19-.33l.5-.28-1,.27-.54.12Z"/><path class="py_cls-6" d="M93.75,61.18l-.27.43,0,.05-.21.79.31-.31.21-.54.29-.77,0-.11h0l.08-.2-.05.08v0l-.32.52Z"/><path class="py_cls-6" d="M93.17,62.11l0,0-.12.18s0,0,0,.07Z"/><path class="py_cls-6" d="M92.76,62.13c0-.65,0-1.38,0-2-.06.51-.14,1.19-.24,1.87,0,.19.09.38.13.56Z"/><path class="py_cls-6" d="M94.6,62.67l.61-.29-.36.1h0Z"/><path class="py_cls-6" d="M93.24,63.12l-.07.2c.45-.2.94-.49,1.41-.76-.39.12-.8.24-1.19.33Z"/><path class="py_cls-6" d="M93.11,62.94l.5-.8-.37,1,.15-.23.14-.21.14-.21.15-.23L94,62l.29-.44.23-.35-.31.3-.66.65-.31.31Z"/><path class="py_cls-6" d="M92.47,63.06l0,.09,0-.09h0l.12-.46c0-.19-.09-.37-.13-.56-.1-.45-.18-.9-.27-1.28,0,.48.09,1.1.14,1.73l.06-.37Z"/><path class="py_cls-6" d="M93.17,63.32l-.08.21c.44-.21.92-.49,1.36-.74l.14-.11.23-.18.27-.21,0,0-.05,0-.5.28C94.11,62.83,93.61,63.12,93.17,63.32Z"/><path class="py_cls-6" d="M92.83,62.79,93,62.4s0,0,0-.07c.05-.76.1-1.52.1-1.52l-.22.83,0,.06Z"/><polygon class="py_cls-6" points="92.52 63.06 92.52 63.07 92.52 63.07 92.52 63.06"/><path class="py_cls-6" d="M92.19,63l.07.21.09-.57c-.12-.54-.22-1.1-.33-1.57,0,.48.09,1.12.13,1.76v-.11S92.18,62.78,92.19,63Z"/><path class="py_cls-6" d="M93,63.9c.58-.35,1.24-.87,1.8-1.24l.16-.13-.46.25c-.45.25-.92.53-1.36.74Z"/><path class="py_cls-6" d="M92.49,63.16l0-.09v.16Z"/><path class="py_cls-6" d="M92.89,63l0,.39.26-.41.13-.48.21-.79,0-.13v-.05l0-.08,0,.07-.32.65L93,62.4l-.19.38c0,.14,0,.29,0,.43Z"/><path class="py_cls-6" d="M92.15,62.84c-.17-.5-.33-1-.47-1.45.1.54.24,1.26.37,2l0,.08Z"/><path class="py_cls-6" d="M92.19,63c0,.13,0,.3,0,.49l0-.28Z"/><path class="py_cls-6" d="M93,63.9l-.08.22c.31-.16.64-.36,1-.55l1-1-.08.05C94.2,63,93.54,63.55,93,63.9Z"/><path class="py_cls-6" d="M92.52,63.06h0l.21-.7-.16,1.42.13-.21.11-.36c0-.15,0-.29,0-.43l.05-1.08v-.12l-.14.55-.12.47Z"/><path class="py_cls-6" d="M91.58,61.6c0,.13,0,.26,0,.4s.14.45.21.7C91.74,62.31,91.66,61.93,91.58,61.6Z"/><path class="py_cls-6" d="M92,64.16c-.12-.72-.25-1.46-.35-2,.05.53.12,1.14.17,1.75l.16.45Z"/><path class="py_cls-6" d="M92.87,64.13l-.13.36h0a7.64,7.64,0,0,0,.66-.45c.3-.24.59-.49.86-.68l-.07.07.39-.3,0,0c-.24.13-.5.29-.77.45S93.18,64,92.87,64.13Z"/><path class="py_cls-7" d="M94.49,66.32A5.53,5.53,0,1,0,100,60.8,5.53,5.53,0,0,0,94.49,66.32Zm5.52-4.9,1.12,3.32h3.37l-2.62,2.07L103,70.13l-3-2.07-3,2.07,1.13-3.32-2.62-2.07h3.37Z"/><path class="py_cls-6" d="M93.24,63.12l.37-1-.5.8-.26.41-.12,1.14.13-.36L93,63.9l.14-.38.08-.21Z"/><path class="py_cls-6" d="M92.53,64.15l.17-.56-.13.21C92.56,63.91,92.54,64,92.53,64.15Z"/><path class="py_cls-6" d="M94,63.69l-.33.42.41-.43-.06.09.61-.63h0l-.39.3Z"/><path class="py_cls-6" d="M92.07,63.46l0-.08-.21-.69c-.07-.24-.14-.48-.21-.7l0-.07,0,.2c.1.58.23,1.32.35,2Z"/><path class="py_cls-6" d="M93.39,64.05a7.64,7.64,0,0,1-.66.45v.06C92.94,64.41,93.17,64.23,93.39,64.05Z"/><path class="py_cls-6" d="M92.21,63.44c0,.16,0,.33,0,.51l.23-.73v-.16l0-1-.06.37,0,.11-.09.57Z"/><path class="py_cls-6" d="M91.57,63.38l.31,1.07v-.34l.06.35,0-.15-.16-.45c-.2-.57-.39-1.19-.57-1.68.11.5.24,1.16.37,1.82l0,.08Z"/><path class="py_cls-6" d="M92.72,64.57l0,.25c.47-.41,1-.94,1.4-1.32l-.15.19.23-.25.07-.07c-.26.2-.56.44-.86.68S92.94,64.41,92.72,64.57Z"/><path class="py_cls-6" d="M92.53,64.15c0-.12,0-.23,0-.35l.16-1.42-.21.7h0l0,.09,0,.06-.23.73c0,.32,0,.65.06.95Z"/><path class="py_cls-6" d="M91.63,64.08l0-.08c-.21-.48-.41-1-.6-1.4.12.41.27.92.42,1.45l.26.52Z"/><path class="py_cls-6" d="M94.1,63.49c-.43.38-.93.9-1.4,1.32l0,.29c.32-.3.65-.67,1-1l.33-.42Z"/><path class="py_cls-6" d="M92,64.16l0,.15,0,.15.11.59v0l.12-1.27L92.29,65l0-.06c0-.3,0-.63-.06-.95s0-.35,0-.51,0-.36,0-.49,0-.29,0-.29v.18l-.08.62Z"/><path class="py_cls-6" d="M91.68,64.58l-.26-.52c-.19-.39-.37-.78-.54-1.11.2.59.49,1.4.74,2.18l.13.21Z"/><path class="py_cls-6" d="M93.63,64.11c-.31.33-.64.7-1,1l-.06.56.29-.35L94,63.77l.06-.09Z"/><path class="py_cls-6" d="M92.46,64.38l-.11,1.23c0,.1,0,.2,0,.3l.23-.25.06-.56,0-.29,0-.25V64.5h0l.12-1.14,0-.39-.08.27-.11.36-.17.56-.23.75,0,.06a.11.11,0,0,0,0,0Z"/><path class="py_cls-6" d="M91.75,65.33l-.13-.21c-.31-.49-.62-1-.9-1.44.22.49.52,1.14.81,1.79l.28.42Z"/><path class="py_cls-6" d="M92.38,65.92l0,.24c.3-.31.61-.7.91-1.09l.61-1.1c-.32.39-.67.89-1,1.34l-.29.35Z"/><path class="py_cls-6" d="M92.05,65.06v0Z"/><path class="py_cls-6" d="M91.87,64.45l-.31-1.07.07.7,0,.49.07.76.05.56.06.07Z"/><path class="py_cls-6" d="M91.11,64.87l.06.19c.23.38.46.77.69,1.1V66l-.06-.07-.28-.42c-.32-.48-.63-1-.91-1.44l.22.46.29.47Z"/><path class="py_cls-6" d="M92.41,66.16c0,.09,0,.17,0,.24.26-.27.54-.59.81-.92l.67-1.15c-.19.22-.39.48-.59.75S92.7,65.85,92.41,66.16Z"/><path class="py_cls-6" d="M92.35,65.62c0,.11,0,.22,0,.34l.11.45h0c0-.07,0-.15,0-.24l0-.24C92.37,65.82,92.36,65.72,92.35,65.62Z"/><path class="py_cls-6" d="M92.14,65.51l.15-.53a.11.11,0,0,1,0,0l-.12-1.16-.12,1.27h0Z"/><path class="py_cls-6" d="M92.3,66.27l0,.12,0-.41C92.31,66.07,92.3,66.17,92.3,66.27Z"/><path class="py_cls-6" d="M93.06,66.1l.28-.46-.63.93Z"/><path class="py_cls-6" d="M91.77,66.78l0-.14-.21-.8.26.52v-.21c-.23-.33-.46-.72-.69-1.1l.42,1.29.16.39Z"/><path class="py_cls-6" d="M91.12,65l-.29-.47-.16-.26.5,1.12Z"/><path class="py_cls-6" d="M92.43,66.4h0v0c.4-.4.8-.88,1.17-1.26l.35-.58c-.22.25-.47.57-.72.88S92.7,66.13,92.43,66.4Z"/><path class="py_cls-6" d="M91.86,66.37l0,0,.13-.47-.12-.79.19.53,0-.17-.08-.44v0l-.11-.59-.06-.35v2.26Z"/><path class="py_cls-6" d="M91.77,66.78l0,0-.07-.1.06.19h0Z"/><path class="py_cls-6" d="M91.28,66.63l.05.15v-.05Z"/><path class="py_cls-6" d="M91.22,65.88c-.26-.48-.53-1-.76-1.41.13.34.29.76.46,1.2l.33.49Z"/><path class="py_cls-6" d="M92.44,66.45l.08.36.18-.23.63-.93.4-.59-.12.13C93.24,65.57,92.84,66,92.44,66.45Z"/><path class="py_cls-6" d="M92.3,66.27c0-.1,0-.2,0-.3v0h0c0-.11,0-.22,0-.34l.11-1.23-.17.6-.15.53,0,.17Z"/><path class="py_cls-6" d="M91.81,66.65l0,.14,0,.06.16.19Z"/><path class="py_cls-6" d="M92.17,67,92,65.94l-.13.47Z"/><path class="py_cls-6" d="M91.26,66.16l-.33-.49L90.46,65c.23.45.52,1,.82,1.63l0,.1Z"/><path class="py_cls-6" d="M92.52,66.81l.07.28.06.16c.27-.53.56-1.06.82-1.55l.16-.32,0,0,.15-.29c-.22.28-.46.62-.71,1l-.36.48Z"/><path class="py_cls-6" d="M92,67.46,91.91,67l-.16-.19h0l.1.3Z"/><path class="py_cls-6" d="M91.45,67.76v.11l.14.1Z"/><path class="py_cls-6" d="M92,67.53l-.14-.45,0,0-.1-.3-.06-.19-.1-.29-.42-1.29-.06-.19V65l0,.38.06.51,0,.29.07.56v.05l0,.2C91.56,67.17,91.76,67.36,92,67.53Z"/><path class="py_cls-6" d="M93.47,65.69c-.26.51-.53,1.09-.81,1.6l.07.2c.2-.37.39-.78.58-1.16l.31-.9,0,0Z"/><path class="py_cls-6" d="M91.47,67.41q.32.31.62.55L92,67.53c-.2-.17-.4-.36-.6-.57s-.69-.72-1-1l.83,1.13Z"/><path class="py_cls-6" d="M92.7,67.55l0-.07-.07-.2v0l-.06-.16Z"/><path class="py_cls-6" d="M92.17,67l.21.42,0-1,0-.12-.21-.59-.19-.53.12.79Z"/><path class="py_cls-6" d="M91.7,68l-.48-.89-.86-.86c.3.4.7.92,1.09,1.46l.15.21Z"/><path class="py_cls-6" d="M91.47,67.41l.69.8L92.09,68Q91.79,67.72,91.47,67.41Z"/><path class="py_cls-6" d="M92.7,67.55l.1.42c.26-.65.49-1.44.72-2l0,.12.13-.38c-.1.19-.21.41-.32.64-.19.38-.38.79-.58,1.16Z"/><path class="py_cls-6" d="M92.4,67.94l0-.11,0,.05,0-.46L92.17,67l-.29-.6,0,0-.26-.52.21.8.1.39.11.43.38.69Z"/><path class="py_cls-6" d="M91.85,68.32,91.7,68,91.6,68l-.14-.1c-.38-.29-.78-.6-1.11-.85.41.41,1,1,1.48,1.54l.18.1Z"/><path class="py_cls-6" d="M92.8,68l.14.59c.05-.17.1-.34.15-.52.14-.7.29-1.4.41-2l0-.12C93.29,66.54,93.06,67.32,92.8,68Z"/><path class="py_cls-6" d="M92.32,66h0v0l0,.41,0,1,0,.46.44,1c0-.1.07-.2.1-.3L92.8,68l-.1-.42-.11-.46-.07-.28-.08-.36v0Z"/><path class="py_cls-6" d="M92.4,67.94v.21l.07.13Z"/><path class="py_cls-6" d="M92,68.66l-.18-.1-1.35-.79c.4.33.94.76,1.46,1.2l.3.17Z"/><path class="py_cls-6" d="M92.94,68.56c0,.11-.07.21-.1.3l.09.2c.18-.55.34-1.22.49-1.83,0-.35.08-.67.11-1-.14.52-.28,1.17-.44,1.77C93,68.22,93,68.39,92.94,68.56Z"/><path class="py_cls-6" d="M91.7,68l.15.28-.19-.4.71.9-.19-.61-.69-.8-.29-.33,0-.05.07.12Z"/><path class="py_cls-6" d="M92.45,69.57l-.21-.42-.3-.17c-.49-.28-1-.6-1.43-.84l1.16,1-.15-.17Z"/><path class="py_cls-6" d="M92.93,69.06l.09.19.12.22c.07-.26.14-.54.2-.83.08-.71.17-1.43.23-2-.05.18-.1.38-.15.58C93.27,67.84,93.11,68.51,92.93,69.06Z"/><path class="py_cls-6" d="M92.7,69.26l-.23-1-.07-.13L92,67.46l-.18-.33,0,0,.14.45.13.43.08.24.19.61Z"/><path class="py_cls-6" d="M93.13,69.51v0L93,69.25Z"/><path class="py_cls-6" d="M92.74,70.26,92,69.46c-.46-.23-.93-.5-1.34-.7.44.32,1,.75,1.59,1.19l-.07-.07Z"/><path class="py_cls-6" d="M93.14,69.47v0l.11.24c.13-.55.24-1.17.35-1.72,0-.34.05-.65.07-.93-.11.46-.21,1-.32,1.55C93.28,68.94,93.21,69.21,93.14,69.47Z"/><path class="py_cls-6" d="M92.18,68.88l.6.7-.07-.32-.35-.44-.71-.9.19.4.17.35.23.48.21.42.16.11Z"/><path class="py_cls-6" d="M92.45,70.17c-.58-.26-1.23-.63-1.75-.88.46.33,1.08.78,1.67,1.23l.54.17Z"/><path class="py_cls-6" d="M93.24,69.75l.23.5c0-.15,0-.31.06-.47,0-.77.11-1.57.14-2.18,0,.13-.06.29-.09.43C93.48,68.58,93.37,69.2,93.24,69.75Z"/><path class="py_cls-6" d="M92.39,67.88l0-.05,0,.11.08.34.23,1,.07.32.25.29-.16-.31.57.68,0,0v0l-.23-.5-.11-.24L93,69.25l-.09-.19-.09-.2Z"/><path class="py_cls-6" d="M93,70.8l-.1-.12-.54-.17L90.93,70l.67.37C92.06,70.52,92.56,70.69,93,70.8Z"/><path class="py_cls-6" d="M93.47,70.25v0l.2.13c0-.46.07-1,.09-1.46s0-.72,0-1c-.07.55-.12,1.22-.19,1.85C93.51,69.94,93.49,70.09,93.47,70.25Z"/><path class="py_cls-6" d="M93.06,70.49l-.45-.81-.16-.11-.93-.64.15.17.33.36.73.81Z"/><path class="py_cls-6" d="M93.43,70.24l.22.26v-.1l-.2-.13Z"/><path class="py_cls-6" d="M93.17,71.24l-.41-.33.61.3L93,70.8c-.45-.11-1-.28-1.42-.43l-.49-.15c.53.26,1.25.63,1.94,1Z"/><path class="py_cls-6" d="M93.65,70.5l.28.34q0-.38,0-.8c-.06-.71-.11-1.44-.16-2,0,.28,0,.58,0,.9,0,.5,0,1-.09,1.46Z"/><path class="py_cls-6" d="M93,69.87l-.25-.29-.6-.7.44.8.45.81.47.34Z"/><path class="py_cls-6" d="M93.17,71.24l-.12,0c-.56-.12-1.17-.3-1.66-.41l1.46.64.78.17Z"/><path class="py_cls-6" d="M93.93,70.84l.24.28c0-.63-.08-1.33-.11-1.94,0-.26-.06-.51-.09-.73,0,.47,0,1,0,1.59Q94,70.46,93.93,70.84Z"/><path class="py_cls-6" d="M93,70.8l.35.4.49.24,0-.05-.24-.23.17.11-.23-.43-.47-.34-.32-.23-.54-.39.07.07.19.22.46.52Z"/><path class="py_cls-6" d="M93.44,71.91l-.36-.18-1.44-.23c.52.17,1.22.4,1.9.65h.33Z"/><path class="py_cls-6" d="M94.51,71.53c0-.15,0-.31-.06-.47-.15-.76-.29-1.55-.41-2.15,0,.08,0,.18,0,.27,0,.61.1,1.31.11,1.94Z"/><path class="py_cls-6" d="M94.53,71.73c0-.07,0-.13,0-.2l-.34-.41-.24-.28-.28-.34-.22-.26-.57-.68.16.31.51,1,.23.43Z"/><path class="py_cls-6" d="M93.92,71.47l-.09-.08,0,.05Z"/><path class="py_cls-6" d="M94.18,72.47l-.63-.31.58.14-.26-.15h-.33l-1.5,0,1.76.35Z"/><path class="py_cls-6" d="M94.17,69.21c0,.18.05.38.09.58l.18.33Z"/><path class="py_cls-6" d="M94.51,71.53c0,.07,0,.13,0,.2l.15.09c0-.44-.12-.92-.2-1.39l-.22-.59c.06.4.13.81.19,1.21C94.48,71.22,94.5,71.38,94.51,71.53Z"/><path class="py_cls-6" d="M93.06,71.7l1,.29-.47-.38-.78-.17-.64-.14.88.44.36.18Z"/><path class="py_cls-6" d="M94.59,70.36l-.09-.25,0,.09-.19-.68c0,.19.05.39.09.6l.18.34Z"/><path class="py_cls-6" d="M94.55,72.65l-.38-.19h-.39l-1.59,0,1.13.23h1.22Z"/><path class="py_cls-6" d="M94.86,71.93l.2.1c-.16-.51-.37-1.06-.58-1.59.07.47.15.95.2,1.39Z"/><path class="py_cls-6" d="M94.61,72.13l-.69-.66-.06,0-.49-.24-.61-.3.41.33.45.37.47.38Z"/><path class="py_cls-6" d="M94.86,71.93l.21.13v0Z"/><path class="py_cls-6" d="M92.73,73l1.44,0-.5-.15Z"/><path class="py_cls-6" d="M93.77,72.83h0Z"/><path class="py_cls-6" d="M94.54,72.66h0Z"/><path class="py_cls-6" d="M95.06,72v0l.21.13c-.19-.54-.43-1.12-.63-1.66l0-.06-.18-.34h0l-.18-.33,0-.08,0,.13.22.59C94.69,71,94.91,71.52,95.06,72Z"/><path class="py_cls-6" d="M94.81,72.46l-.39-.23.44.15-.25-.24L94.1,72l-1-.29.38.21.42.24.26.15Z"/><path class="py_cls-6" d="M95.18,73.3l-.59-.18c-.52.12-1.09.23-1.55.33l1.3,0-.21,0Z"/><path class="py_cls-6" d="M94.59,70.36l.06.16c.2.53.45,1.12.63,1.66l.45.27L95.54,72c-.35-.64-.7-1.3-1-1.82l0-.09Z"/><path class="py_cls-6" d="M93.92,71.47l.69.66.25.24.81.27h.13l-.08-.19-.45-.27-.21-.13-.21-.13-.18-.11-.15-.09-.76-.46-.17-.11.24.23Z"/><path class="py_cls-6" d="M93.59,73.9c.5-.09,1.17-.21,1.83-.3l-.65-.11Z"/><path class="py_cls-6" d="M95.73,72.45l.08.19h.08l.13.1.27.06c-.39-.6-.87-1.24-1.22-1.78l.37.42-.72-1.08c.23.51.55,1.1.83,1.68Z"/><path class="py_cls-6" d="M95.41,73.28l-1-.29-.66-.16h-.21l.09,0,.5.15.42.12.59.18Z"/><path class="py_cls-6" d="M99.82,59.39l-.67,0-.88.24Z"/><path class="py_cls-6" d="M97.82,59.51l.61-.08H98Z"/><path class="py_cls-6" d="M98,59.08l-.24.11,0,0Z"/><path class="py_cls-6" d="M97.48,59.32l0,0,0,0Z"/><path class="py_cls-6" d="M98.94,60.14l-.75-.35-.27,0Z"/><path class="py_cls-6" d="M97.08,59.49h0l-.14.06H97Z"/><path class="py_cls-6" d="M97.62,59.42h0l.17,0,.22-.15c.33-.21.72-.44,1-.62l-.82.38Z"/><path class="py_cls-6" d="M97.82,59.51l-.05,0,.59-.08-.5.21h.34l.08,0,.88-.24.53-.14-1.24.16Z"/><path class="py_cls-6" d="M96.77,60l-.07.06.36,0h.25Z"/><path class="py_cls-6" d="M97.46,59.88h-.07l.27.18.31.1,1.06.11c-.45-.12-1.05-.23-1.5-.38Z"/><path class="py_cls-6" d="M97.38,59.44l.37-.21,0,0,.52-.72-.83.86-.06.06Z"/><polygon class="py_cls-6" points="97.62 59.42 97.62 59.43 97.62 59.43 97.62 59.42"/><path class="py_cls-6" d="M97.85,59.66l-.48.21,0,0h.07l.18,0,.28,0,.27,0L99,59.7l-.86,0Z"/><path class="py_cls-6" d="M96.57,60l.16,0h0l.54.09.13,0L97.08,60,97,60l-.3-.12v0h-.17l-.14.07h0Z"/><path class="py_cls-6" d="M97.92,60.23l.62.12L98,60.17l-.31-.1Z"/><path class="py_cls-6" d="M97.38,59.44l0,.05.26-.07h0l.59-.43.13-.1-.33.19-.27.15Z"/><path class="py_cls-6" d="M97.62,59.43h0l-.26.07,0,.1.46-.06.05,0,.16-.07.66-.28-.81.21h0Z"/><path class="py_cls-6" d="M96.72,59.9l0,0h0l.08-.08.09-.14h0l.05,0h0l-.2.05-.23.23h.2Z"/><path class="py_cls-6" d="M97.09,59.48h0l-.08.08h0l-.05,0,.37-.05,0-.1,0-.05,0-.06,0,0c.17-.29.37-.59.53-.84-.2.23-.47.54-.73.83Z"/><path class="py_cls-6" d="M97.66,60.07l-.27-.18,0,0-.29.13.36.14.82.34.21.09h0l-.05,0-.5-.31Z"/><path class="py_cls-6" d="M96.79,59.79l-.08.08h0Z"/><path class="py_cls-6" d="M96.89,59.65l-.09.14-.06.09,0,0v0L97,60l.08,0,.29-.13.48-.21.5-.21-.59.08-.46.06-.37.05Z"/><path class="py_cls-6" d="M95.85,72.71l.15,0-.12-.1h-.21Z"/><path class="py_cls-6" d="M94.44,73,94,72.87l.66,0-.15-.06.48.08h.08l-.55-.27H93.09l.68.17h0Z"/><path class="py_cls-6" d="M95.85,72.71l.46.15,0-.06L96,72.74Z"/><path class="py_cls-6" d="M95.63,73l-.21-.11.08,0-.69-.41-.69-.16-.58-.14.63.31.38.19h0l.55.27Z"/><path class="py_cls-6" d="M94.7,72.9l-.66,0,.41.13,1,.29h.18Z"/><path class="py_cls-6" d="M95.8,73.05,95.71,73l-.08,0-.52,0H95Z"/><path class="py_cls-6" d="M95.85,73.92c-.48.23-1,.45-1.44.66.52-.14,1.22-.32,1.91-.49l.19-.13Z"/><path class="py_cls-6" d="M96.28,72.8l0,.06.5.16-.3-.39-1.08-1.2L95.06,71C95.41,71.56,95.89,72.2,96.28,72.8Z"/><path class="py_cls-6" d="M95.85,72.71l-.18-.06-.81-.27-.44-.15.39.23.69.41,1.2.31.21,0h0l-.1-.14-.5-.16Z"/><path class="py_cls-6" d="M95.8,73.05h0L95.71,73Z"/><path class="py_cls-6" d="M96.69,74.24l.59-.22L96.52,74l-.19.13c-.43.28-.89.55-1.26.8l1.11-.45h-.26Z"/><path class="py_cls-6" d="M96.81,73l.1.14.13.09.28,0c-.22-.3-.47-.61-.72-.91L95.32,71.2c.35.44.79.94,1.19,1.43Z"/><path class="py_cls-6" d="M97.27,74h.05l-1.57-.36-1,.18,1.05.07.67,0Z"/><path class="py_cls-6" d="M95.08,73.51h1.08l-.57-.23h-.18l-.23,0-1.05.07.21,0,.44.08.65.11h.08Z"/><path class="py_cls-6" d="M96.7,73.18l.18,0,.16,0-.13-.09h0Z"/><path class="py_cls-6" d="M95.83,73.05h0L95,72.92l-.48-.08.15.06.89.36.57.23h.53Z"/><path class="py_cls-6" d="M96.88,73.23l.48.12,0-.05-.28,0Z"/><path class="py_cls-6" d="M97.33,74l.1,0,.24-.07-1-.49H95.08l.42.1.25.06Z"/><path class="py_cls-6" d="M97,74.44c-.46.27-1,.52-1.38.76.51-.17,1.2-.41,1.87-.62l.18-.14Z"/><path class="py_cls-6" d="M97.32,73.29l0,.05.51.13-.33-.37L96,71.6c.19.24.41.51.63.79S97.09,73,97.32,73.29Z"/><path class="py_cls-6" d="M97.87,73.47l-.51-.13-.48-.12-.18,0-1.2-.31-.08,0,.21.11.08,0,.12.06.87.44,1,.49.5-.14Z"/><path class="py_cls-6" d="M97.64,74.44l-.18.14c-.4.31-.85.61-1.2.88.57-.28,1.39-.69,2.13-1Z"/><path class="py_cls-6" d="M97.87,73.47l.3.37.37-.11.56.29-.17.19.31-.13L99,73.93c-.86-.59-2-1.54-2.79-2.16.38.41.86.88,1.29,1.34Z"/><path class="py_cls-6" d="M99.11,74l-.56-.29-.37.11-.5.14-.24.07-.74.19-.77.2h2.82l0,0,.16-.18Z"/><polygon class="py_cls-8" points="98.13 66.81 97 70.13 100.01 68.06 103 70.13 101.88 66.81 104.5 64.74 101.13 64.74 100.01 61.42 98.88 64.74 95.51 64.74 98.13 66.81"/><path class="py_cls-9" d="M111.2,69.63l-.1.27,1,.36,1,1.29.11-.31-.53-.64-.32-.37.46-.06.84-.14.12-.33-1.61.29Z"/><path class="py_cls-9" d="M111.76,64.82a.65.65,0,0,0-.31.31,1,1,0,0,0-.06.51.85.85,0,0,0,.19.48.69.69,0,0,0,.38.23,1.83,1.83,0,0,0,.59,0l1.4-.15,0-.28-1.4.15a1,1,0,0,1-.63-.06.67.67,0,0,1-.16-.75.44.44,0,0,1,.21-.2,1.57,1.57,0,0,1,.46-.1l1.4-.15,0-.28-1.39.15A1.81,1.81,0,0,0,111.76,64.82Z"/><path class="py_cls-9" d="M111.38,62.24a.94.94,0,0,0-.36.47,1.14,1.14,0,0,0,0,.6,1.18,1.18,0,0,0,.18.43,1.58,1.58,0,0,0,.37.37l.88-.18-.19-.89-.28.06.13.62-.44.09a.91.91,0,0,1-.22-.23.88.88,0,0,1-.15-.34.81.81,0,0,1,0-.42.67.67,0,0,1,.26-.35,1.3,1.3,0,0,1,.51-.21,1.44,1.44,0,0,1,.5,0,1,1,0,0,1,.26.09.65.65,0,0,1,.22.19.8.8,0,0,1,.13.32.66.66,0,0,1,0,.3.48.48,0,0,1-.12.23.94.94,0,0,1-.26.18l.13.24a1.17,1.17,0,0,0,.36-.24.71.71,0,0,0,.17-.34.94.94,0,0,0,0-.43,1.07,1.07,0,0,0-.26-.53,1,1,0,0,0-.52-.28,1.68,1.68,0,0,0-.68,0A1.59,1.59,0,0,0,111.38,62.24Z"/><polygon class="py_cls-9" points="103.13 55.34 102.08 55.16 102.45 53.05 102.18 53 101.75 55.4 103.08 55.63 103.13 55.34"/><polygon class="py_cls-9" points="100.99 54.95 99.67 54.95 99.67 54.12 100.86 54.12 100.86 53.83 99.67 53.83 99.67 53.09 100.94 53.09 100.94 52.8 99.38 52.8 99.38 55.23 100.99 55.23 100.99 54.95"/><path class="py_cls-9" d="M91.16,57.53a1.89,1.89,0,0,0,.51.42,1,1,0,0,0,.55.14.93.93,0,0,0,.54-.25.83.83,0,0,0,.3-.53,1.12,1.12,0,0,0-.15-.67l-.27.13a.81.81,0,0,1,.13.5.58.58,0,0,1-.21.38.64.64,0,0,1-.35.15.65.65,0,0,1-.41-.1,1.64,1.64,0,0,1-.41-.36,1.67,1.67,0,0,1-.25-.4.68.68,0,0,1-.06-.43.63.63,0,0,1,.23-.37.53.53,0,0,1,.35-.14.75.75,0,0,1,.42.15l.17-.24a1,1,0,0,0-.57-.2.82.82,0,0,0-.54.21,1,1,0,0,0-.3.45,1,1,0,0,0,0,.56A1.58,1.58,0,0,0,91.16,57.53Z"/><rect class="py_cls-9" x="90.67" y="56.77" width="0.29" height="2.43" transform="translate(-13 86.84) rotate(-48.09)"/><polygon class="py_cls-9" points="91.27 59.22 91.05 59.04 90.4 59.88 88.69 58.58 88.52 58.8 90.45 60.29 91.27 59.22"/><path class="py_cls-9" d="M88.22,63.7a.66.66,0,0,0,.42-.13,1,1,0,0,0,.29-.42.86.86,0,0,0,.06-.52.69.69,0,0,0-.23-.38,1.84,1.84,0,0,0-.51-.28l-1.31-.52-.1.27,1.3.52a1,1,0,0,1,.53.35.55.55,0,0,1,0,.48.57.57,0,0,1-.19.26.44.44,0,0,1-.28.08,1.57,1.57,0,0,1-.45-.12l-1.31-.52-.1.27,1.31.52A1.81,1.81,0,0,0,88.22,63.7Z"/><polygon class="py_cls-9" points="88.24 66 87.95 66 87.96 67.33 87.14 67.34 87.13 66.14 86.84 66.15 86.85 67.34 86.1 67.35 86.09 66.07 85.81 66.07 85.82 67.63 88.25 67.61 88.24 66"/><path class="py_cls-9" d="M98.11,55.42a1.23,1.23,0,0,0,.33-.11.74.74,0,0,0,.23-.17.79.79,0,0,0,.15-.26,1.25,1.25,0,0,0,.07-.38,1.94,1.94,0,0,0,0-.49,1.79,1.79,0,0,0-.2-.55,1,1,0,0,0-.33-.36A.73.73,0,0,0,98,53a1.68,1.68,0,0,0-.38,0l-.73.15.48,2.39Zm-.46-2.1a1,1,0,0,1,.37,0,.59.59,0,0,1,.32.22,1.23,1.23,0,0,1,.23.55,1.63,1.63,0,0,1,0,.47.78.78,0,0,1-.09.33.51.51,0,0,1-.17.16,1,1,0,0,1-.32.11l-.45.09-.37-1.82Z"/><path class="py_cls-9" d="M105.92,55.8l.49.26a.79.79,0,0,0,.66.1.81.81,0,0,0,.4-.39.86.86,0,0,0,.1-.32.56.56,0,0,0,0-.29.62.62,0,0,0-.18-.23,1.82,1.82,0,0,0-.28-.17l-.72-.38-1.13,2.16.25.13Zm.54-1,.49.25a1,1,0,0,1,.23.14.31.31,0,0,1,.09.21.46.46,0,0,1-.06.26.44.44,0,0,1-.25.24.55.55,0,0,1-.4-.08l-.49-.26Z"/><path class="py_cls-9" d="M106.68,57.39l.67-.39.67.6-.3.72.24.22,1-2.4-.23-.21-2.24,1.26Zm1.56-.9a3.61,3.61,0,0,0,.4-.27c-.06.12-.14.28-.22.48l-.28.65-.54-.49Z"/><path class="py_cls-9" d="M108.37,59.05l.86-.66.2.26.09.13a.38.38,0,0,1,0,.14.61.61,0,0,1,0,.21,3.68,3.68,0,0,1-.14.37l-.23.54.22.29.3-.7a1.67,1.67,0,0,0,.11-.38.67.67,0,0,0,0-.21.72.72,0,0,0,.46.23.66.66,0,0,0,.44-.15.77.77,0,0,0,.24-.29.5.5,0,0,0,0-.33,1.16,1.16,0,0,0-.21-.39l-.58-.76-1.93,1.48Zm1.72-1.32.41.54a.48.48,0,0,1,.13.35.38.38,0,0,1-.16.26.46.46,0,0,1-.21.09.35.35,0,0,1-.22,0,.83.83,0,0,1-.22-.21l-.37-.49Z"/><path class="py_cls-9" d="M109.64,60.76l.76-.15.44.79-.52.58.16.28,1.69-2L112,60l-2.53.46Zm1.77-.35a3.28,3.28,0,0,0,.46-.12l-.37.38-.48.53-.36-.64Z"/><path class="py_cls-9" d="M111.61,67.09l.71.31-.09.9-.76.17,0,.32,2.51-.62,0-.31-2.33-1.08Zm1,.42.69.31a3.53,3.53,0,0,0,.45.16l-.52.1-.7.15Z"/><path class="py_cls-9" d="M87.52,69.8l-.07-.32a.68.68,0,0,1,0-.16.39.39,0,0,1,0-.14.64.64,0,0,1,.13-.18l.29-.27.43-.39L88.23,68l-.57.51a1.66,1.66,0,0,0-.27.3.76.76,0,0,0-.08.2.72.72,0,0,0-.32-.4.65.65,0,0,0-.46-.05.78.78,0,0,0-.34.17A.5.5,0,0,0,86,69a1.13,1.13,0,0,0,0,.44l.21.94,2.38-.53-.06-.28ZM86.46,70l-.15-.67a.49.49,0,0,1,0-.37.39.39,0,0,1,.25-.17.45.45,0,0,1,.23,0A.32.32,0,0,1,87,69a.86.86,0,0,1,.11.29l.13.6Z"/><path class="py_cls-9" d="M88.36,65.17l-1-.09,0-.55a.79.79,0,0,0-.16-.65.81.81,0,0,0-.51-.22.85.85,0,0,0-.34,0,.59.59,0,0,0-.25.15.61.61,0,0,0-.14.26,1.73,1.73,0,0,0-.05.32l-.07.81,2.42.21Zm-1.27-.11L86.23,65l0-.55a1.15,1.15,0,0,1,0-.26.32.32,0,0,1,.16-.17.47.47,0,0,1,.27,0,.45.45,0,0,1,.32.14.54.54,0,0,1,.08.4Z"/><path class="py_cls-9" d="M89.81,61.17a1.29,1.29,0,0,0,.16-.31.64.64,0,0,0,0-.26.61.61,0,0,0-.1-.26.84.84,0,0,0-.23-.23.64.64,0,0,0-.37-.12.56.56,0,0,0-.35.13.56.56,0,0,0-.06-.31.62.62,0,0,0-.2-.22.64.64,0,0,0-.31-.11.51.51,0,0,0-.32.07.89.89,0,0,0-.28.29l-.45.67,2,1.35Zm-2.08-.74.24-.36a1,1,0,0,1,.21-.25.25.25,0,0,1,.19-.05.43.43,0,0,1,.21.07.42.42,0,0,1,.15.17.31.31,0,0,1,0,.2.91.91,0,0,1-.13.24l-.26.39Zm.85.57.28-.41a.86.86,0,0,1,.21-.24.32.32,0,0,1,.21-.06.43.43,0,0,1,.23.08.46.46,0,0,1,.15.15.35.35,0,0,1,.05.17.45.45,0,0,1,0,.17,1,1,0,0,1-.1.17l-.3.45Z"/><path class="py_cls-9" d="M93.62,57l-.19-.75.77-.48.6.49.28-.17-2-1.59-.26.16.59,2.5Zm-.44-1.75a3.48,3.48,0,0,0-.15-.46c.1.1.23.21.4.35l.55.45-.62.39Z"/></g></g></svg>
