<svg xmlns="http://www.w3.org/2000/svg" viewBox="0 0 200 134"><defs><style>.qa_cls-1{fill:#6e2240;}.qa_cls-2{fill:#fafafa;}</style></defs><title>Asset 47</title><g id="Layer_2" data-name="Layer 2"><g id="Layer_54" data-name="Layer 54"><path class="qa_cls-1" d="M183,0H37.83L61,7.07,36.45,14.56,61,22.05,36.45,29.54,61,37,36.45,44.52,61,52,36.45,59.51,61,67,36.45,74.49,61,82,36.45,89.47,61,97l-24.52,7.49L61,111.95l-24.52,7.49L61,126.93,37.83,134H183a17,17,0,0,0,17-17V17A17,17,0,0,0,183,0Z"/><path class="qa_cls-2" d="M36.45,119.44,61,111.95l-24.52-7.49L61,97,36.45,89.47,61,82,36.45,74.49,61,67,36.45,59.51,61,52,36.45,44.52,61,37,36.45,29.54,61,22.05,36.45,14.56,61,7.07,37.83,0H17A17,17,0,0,0,0,17V117a17,17,0,0,0,17,17H37.83L61,126.93Z"/></g></g></svg>
