<svg xmlns="http://www.w3.org/2000/svg" viewBox="0 0 200 134"><defs><style>.rw_cls-1{fill:#288ec7;}.rw_cls-2{fill:#f9da32;}.rw_cls-3{fill:#197d5f;}.rw_cls-4{fill:#e9b42f;}</style></defs><title>Asset 52</title><g id="Layer_2" data-name="Layer 2"><g id="Layer_49" data-name="Layer 49"><path class="rw_cls-1" d="M183,0H17A17,17,0,0,0,0,17V67H200V17A17,17,0,0,0,183,0Zm10.73,37.1-13-1.71,10.4,8-12.12-5,8,10.41-10.4-8,5,12.12-8-10.4,1.71,13-5-12.11-1.72,13-1.72-13-5,12.11,1.71-13-8,10.4,5-12.12-10.41,8,8-10.41-12.12,5,10.4-8-13,1.71,12.12-5-13-1.71,13-1.72-12.12-5,13,1.71-10.4-8,12.12,5-8-10.41,10.41,8-5-12.12,8,10.4-1.71-13,5,12.12,1.72-13,1.72,13,5-12.12-1.71,13,8-10.4-5,12.12,10.4-8-8,10.41,12.12-5-10.4,8,13-1.71-12.11,5,13,1.72-13,1.71Z"/><rect class="rw_cls-2" y="67" width="200" height="33.54"/><path class="rw_cls-3" d="M0,117a17,17,0,0,0,17,17H183a17,17,0,0,0,17-17V100.54H0Z"/><polygon class="rw_cls-4" points="181.62 32.07 194.62 30.36 181.62 28.64 193.73 23.62 180.73 25.33 191.13 17.34 179.01 22.36 187 11.95 176.59 19.93 181.6 7.81 173.62 18.21 175.32 5.21 170.3 17.33 168.59 4.33 166.87 17.33 161.85 5.21 163.56 18.21 155.57 7.81 160.59 19.93 150.18 11.95 158.16 22.36 146.04 17.34 156.44 25.33 143.44 23.62 155.56 28.64 142.55 30.36 155.56 32.07 143.44 37.1 156.44 35.39 146.04 43.38 158.16 38.36 150.18 48.77 160.59 40.79 155.57 52.9 163.56 42.5 161.85 55.51 166.87 43.39 168.59 56.39 170.3 43.39 175.32 55.51 173.62 42.5 181.6 52.9 176.59 40.79 187 48.77 179.01 38.36 191.13 43.38 180.73 35.39 193.73 37.1 181.62 32.07"/></g></g></svg>
