<svg xmlns="http://www.w3.org/2000/svg" viewBox="0 0 200 134"><defs><style>.sa_cls-1{fill:#1e9551;}.sa_cls-2{fill:#fff;}</style></defs><title>Asset 53</title><g id="Layer_2" data-name="Layer 2"><g id="Layer_48" data-name="Layer 48"><path class="sa_cls-1" d="M102.19,50.32c-1-.6-1.4-.6-1.34.07.07.4.07.8.2,1.34.47-.13.94-.2,1.47-.34C103.93,51.05,103.13,50.92,102.19,50.32Z"/><path class="sa_cls-1" d="M183,0H17A17,17,0,0,0,0,17V117a17,17,0,0,0,17,17H183a17,17,0,0,0,17-17V17A17,17,0,0,0,183,0ZM143.15,36.25c.34-.47.54-1,1.14.47a8.8,8.8,0,0,1,.47,4.42c-.2,1.07-.6,1.21-.6.07a7.8,7.8,0,0,0-.87-3.42C142.82,37.05,142.75,36.92,143.15,36.25ZM128,43.75a.52.52,0,0,1,.94-.4,12.38,12.38,0,0,1,1.27,2.48c.27.54.4.4.4-.33a14.5,14.5,0,0,1-.13-2.28,1.9,1.9,0,0,1,.67-1.07c.47-.34.73-.4.94.2s.54.6.33,1.07c-.27.67-.87-.67-1.27.27a26,26,0,0,0-.07,3.22c0,.6-.27,1.47-.74.47a9.66,9.66,0,0,0-1.47-2.48c-.13.6-.94.6-.87-.07A5.57,5.57,0,0,0,128,43.75Zm4.31,9.85c-.54-.3-.33-.6-.06-1s.67-.55,1.2.15a2.87,2.87,0,0,1,.47,3.09c-.6,1-.8.45-.6-.25C133.67,54.69,132.87,53.9,132.33,53.6Zm1.18-3.21a26.9,26.9,0,0,0-3.28,2c-.67.54-1.54,1.21-1.54.74s.2-.6,1-1.27,2.54-1.88,3.15-2.48,1.07-1.14,1.2-.4S134.25,50,133.51,50.38ZM122.41,34.71c.74-1.14.87-1.21,1.34.13a17,17,0,0,0,1.74,4.22c.74,1.14-.27.87-1.21.4l-.2-.13c.2,3.28,1.27,11.46,1.61,14.54.2,2,1.47,5.09-.4,8.64-.47.87-.74.67-.54-.07.54-2.35.2-3.75-.07-5.9-.27-1.94-1.2-9.25-2.14-16.41C122.27,38.12,121.27,36.45,122.41,34.71Zm-5,.87c.34-.4.67-.6,1.14-1.21s.6-.27.94.87.6,2.34.94,3.35-.27,1-.8.54c-.2,4.69,1,8.44,1.14,17.15.13,5-.6,7.1-2.08,8.71-2.54,3-3,3.08-6.16,3.28-2.14.13-1.61-.47-.2-.87,1.14-.27,2.68-.94,5.22-3.69,2.34-2.55,1.81-4.29,1.61-8a158.79,158.79,0,0,0-1.74-18.36A1.49,1.49,0,0,1,117.45,35.58Zm-1.61,6.3c.2-.87.47-1.34.6-.4a3,3,0,0,1-.07,1.68.61.61,0,0,1-1,.2c-.47-.4-.6-.4-.94-.07-.73.67-1,.2-1.14-.74s.2-1.14.33-.6c.27.8.6,1.21.8.2s.4-1.14.54-.2S115.71,42.75,115.85,41.88Zm-2.74-7.5c.33-.54.67-.74,1.21.2a4.94,4.94,0,0,1,.47,4.15c-.6,1.34-.8.6-.6-.33a2.66,2.66,0,0,0-1-2.68C112.63,35.31,112.83,34.91,113.1,34.37Zm-9.3-.47A44.78,44.78,0,0,1,107.08,37c1,1.07.33,1.41-.8.94.74,1.14,1.67,2.48,2.41,3.55a36.63,36.63,0,0,1-.4-4c-.6-.87-.54-1.14-.07-2.41.33-1.07,1.07-.87,1.34-.14a32.82,32.82,0,0,1,1.74,4.56c.2.87-.2,1.27-.8.6q0,2.11.2,4.62c4.08,6.3,6.83,11.12,7.43,14.14.4,2.28-.13,1.94-.74.4-1.14-2.88-3.68-7-6.49-11.39.2,1.88.27,3.89.47,5.49.54,4.09.6,6.7-.2,9.45s-1.41,1.94-.87.13c.67-2.41-.13-8-.67-12.26-.2-1.81-.6-4-.8-6-1.61-2.41-3.35-4.76-5.09-7-.87-.33-1.07-.74-1-1.34a9,9,0,0,0-.07-1.88C102.53,33.64,102.93,33.1,103.8,33.9Zm-12.45.47c.27-.4.67-.13,1,.87a8.39,8.39,0,0,1,.13,3.88c-.33,1.21-.47.54-.4-.13a5.14,5.14,0,0,0-.8-3.49C90.89,34.91,90.89,34.84,91.35,34.37ZM82.25,37c.47-1.21.6-.74.33.34a10.09,10.09,0,0,0,.4,5.36c.67,1.27,1.61,1.81,2.07.27a28.42,28.42,0,0,1,3.15-6.5c.6-.87,1-1.14,1.47-.4s.13.87,0,2.21a26.15,26.15,0,0,0-.13,4.62c0,1.47,1.14,2.68,3.28,1.41s2.27-3.35,1.27-8c-.2-.94-.47-1.07-.2-1.54s.33-.8.6-1.27.47-.4.94.74a18.32,18.32,0,0,1,.74,5.09c.07,1.61,1.14,5.23,2.81,4.89s.74-4.69-.4-7.64c-.33-.74-.4-.94,0-1.34s.33-.47.6-.94.4-.8,1.07-.2A5.61,5.61,0,0,1,102,36.65c.4,1.34-.4,1.07-.87.6s-.67-.4-.33.4a15,15,0,0,1,.8,4.56c-.33,3.89-3,5.76-6,1.74-1,2-3.88,4-5.75,2.81s-1.74-4.15-1.54-6c.07-.94-.27-1.14-.67-.13s-.8,2.48-1.4,4-1.47,2.21-2.74.8C81.25,42.88,81.18,40,82.25,37ZM95.64,50.65c-.4-.47-.54-.4-.74.2a.67.67,0,0,1-1.2.13,2.61,2.61,0,0,1-.4-2c.13-1,.27-.47.4.2.4,1.54,1.07,1.34,1.07-.2.07-.8.33-.8.54-.2.6,1.61,1.14,1.61,1.14-.07,0-1.07.13-1.27.47-.33C97.64,50.72,96.1,51.12,95.64,50.65Zm-12,3.42c-.6-1.21-1.07-2.08-1.27-2.61-1.21-.47-.87-1.14-.33-2.28s.73-1.41,1.8-.13c1.54,1.81,1.74,2.61.67,2.48,1.67,4.29,1.27,6.5-1.34,9a15.73,15.73,0,0,1-3.95,3.08c-.13,1.14.34,2.28,2.48,1.94,2.81-.4,6-4.09,7.3-6.9-.6-2.34-1.94-6.56-2.75-8.71-.4-1.07,0-1.54.33-2.41s.6-1.41,1.07-.2a35.31,35.31,0,0,1,2.61,7.44c.73,3.42.6,6.37,2.34,8a6.56,6.56,0,0,0,2.88,1.47c-.8-2.28.87-4,3.08-4.82-1.34-1.27-3.41-1.07-5.75-1.21-1.74-.07-1.54-.27-1.07-1.81s1-1.74,2.28-2.28c1.74-.67,3.48-1.34,5.29-1.88-1.14-1.68-.4-2.88.47-4.15,1.07-1.54,2.81-1.07,4.82.34s1.21,3.62-.74,4.76a11.89,11.89,0,0,1-1.81.8c.2.47-.07.6-.67.2a41.43,41.43,0,0,0-5.62,2.34c1.94.13,10,0,11.58-.2s1.34.13.87,1.54-1,1.21-2.34,1.41a43.82,43.82,0,0,0-7.56,2.28c-2.28.94-1.47,2.61.87,3.48,1.8.47,1.61.67,1.27,1.74s-.27,1.27-2.48.94c-5.42-.87-7.36-3.89-8.23-6.23-3.34,4.76-6.63,7.37-9.7,6.57-1.54-.33-2.28-1.74-2.41-3.48A53.92,53.92,0,0,1,69.8,67.4c-.74.27-1.34-.07-.33-.54A67.33,67.33,0,0,0,77.7,62,20.19,20.19,0,0,1,79.17,58c.34-.74.54-.47.54.13s-.13,1.67-.07,2.55c.47-.4,1.14-.8,1.47-1.14C83,57.82,85.06,56.75,83.66,54.07ZM103.4,64.92c-.94.4-.87,0-.54-.2a10.58,10.58,0,0,1,1.54-.94c.54-.27.94-.2.54.94-.4,1.34-.2,1.74.67,1.41s1.27-.6,1.94-.87,1.27-.27.34.47a8.4,8.4,0,0,1-2.41,1.54c-1.34.34-2-.2-1.74-1.27S104.2,64.59,103.4,64.92Zm-27.77-7.5c-.94.4-1.27-.34-1-1s.4-.94,1.07-.67.6.47.67,1.14a4.11,4.11,0,0,1-.47,2.68c-.4.74-.67.47-.4-.13A4.12,4.12,0,0,0,75.63,57.42Zm-2.07-15A18.49,18.49,0,0,0,78.44,38a2.37,2.37,0,0,1-.54-2.75c.8-2.08,3.48-1.81,2.74.87a5.72,5.72,0,0,1-.54,1.47c.4.54.2,1.21-.6,1.07a11.71,11.71,0,0,1-5.42,4.22C72.75,43.48,72.55,43,73.55,42.41ZM79,44.62c.8-.87,1-.74.54.34S77.77,46.57,77.17,46c-1.14-.87-.54-2.34.27-3.35s1.27-.87.47.34C76.7,44.76,77.84,45.9,79,44.62ZM61.44,34.1c.33-.87.54-.27.54.47s.67,1.07,1.14.07c.27-.67.47-1.21.47-.2s.87,1.27,1,.4c.13-.54.13-.67.33-.2a1.32,1.32,0,0,1-.13,1.14c-.2.4-.87.54-1.07.13s-.33-.47-.67-.07a.9.9,0,0,1-1.34-.13A1.71,1.71,0,0,1,61.44,34.1Zm-9.24,0c.67-.87,1.54-1.14,1.74.34a6.58,6.58,0,0,1-1.14,3.21c.67-1.87.73-3.55-.07-2.95S51.67,34.71,52.21,34.1ZM49.8,38.59c.27-.94.47-.8.47,0-.07,1.67.2,4.89,1,6.16.47.8.94.74,1.2.2a8.29,8.29,0,0,0,.6-2.68,9.57,9.57,0,0,1,1.61-4.76c.47-.74,1.2-1.21,1.74-.8s.27,1.94-.07,2.95a5.83,5.83,0,0,0,.2,4.22,1.93,1.93,0,0,0,1.81,1.41c-.2-2.34-.4-5-.47-6-.2-1.47-.67-2.28-.4-2.81-.33-.67-.67-1-.2-1.81s.74-1.34,1.41-.07c.94,1.67,1.54,3.21.4,3.62.13,2.14.47,4.82.67,6.83a3.32,3.32,0,0,0,1.34-2.55c-.2-.87-.4-2.14-.74-3.62a4.87,4.87,0,0,1,.13-2.48c.2-.54.27-.74,1.07.33a3.77,3.77,0,0,1,.54,2.88,10.44,10.44,0,0,0,.54,3.42,2,2,0,0,0,2.14,1.81c.73,0,1.14-.27.94-1.34a20.72,20.72,0,0,0-1.47-5c-.27-.67-.27-.94-.07-1.21s.54-.6.8-1,.67-.07,1,.34a5.61,5.61,0,0,1,.94,1.27c.47.8.2,1.41-.54,1.27.87,3.21,1.74,6.16-.27,7.57s-3.75.47-4.15-1.14c-.2-.8-.33-.87-.87.13a4.67,4.67,0,0,1-1.2,1.47c.27,3,.34,5.23.47,6.56a6.38,6.38,0,0,1-.27,3.08c-.4.87-.6,1.34-.67-.27s-.67-6-.87-8.44c-3.81.07-3.95-4.29-3.48-7,.2-1,0-2.28-.54-.6-.94,2.68-.54,4.29-1.54,6.1-.67,1.21-1.61,1.54-2.34.07A12.72,12.72,0,0,1,49.8,38.59Zm.74,15.68a13,13,0,0,1,5.69-4c.8-.27,1.21-.6,1.21.2s0,.8-.67,1a24.74,24.74,0,0,0-5.82,2.81C50.4,54.74,49.73,55.21,50.53,54.27Zm3,10.32c-.07,2.88-2.81,3.08-3,.67-.34-3.82.54-4.42.8-5.69.2-.87.47-1.54.6-1.07A13.35,13.35,0,0,1,52,59.9a8.86,8.86,0,0,1-.4,1.54c-.8,2.88.4,4.29,1.07,3.21S53.61,63.72,53.54,64.59Zm1.87.94c-1.54-3.08-.94-6.83-.47-8.44s.74-1.94.8-.27c0,.87-.27,1.27-.27,1.88-.07,4,1,6.9,5.62,6.23A13.52,13.52,0,0,0,67,62.38c1.21-.94,2.54-1.94,2.41-5.36-.07-1.07.07-2.41,0-3.48-.34.13-.8.47-1.07.6,0,.4.07.94.07,1.54.13,3.15-2.68,5.43-5.55,6.7s-4.69.4-5.82-1.54c-.8-1.41-.6-4.22,0-6.17.2-.6.74-1.34.47.34a6,6,0,0,0,1.07,4.76c1.67,1.94,5.49-.2,8-3.15a2.46,2.46,0,0,0,.34-1.94c-.67.27-1.34.47-1.81.6a2.4,2.4,0,0,1-1.94,0c-1-.34-.74-.8-.8-2.08a3.62,3.62,0,0,1,.8-3c1-1.47,2-1.41,3.21-.2a7,7,0,0,1,1.54,2.08c.4-.2,1-.6,1.4-.8-.27-4.42-.8-7.91-1-9.58a21.93,21.93,0,0,1-.33-4.62c-.4-.94-.54-1.14.27-2.08s1.07-1.21,1.41-.13,1,3,1.4,3.88c.54,1.14-.2,2.28-1,1.27.33,4,.54,7.37.74,10.32a10.22,10.22,0,0,0,.94-.8c.34-.4,1-.74.94.33-.27,3.62,2.48,3,3.41-.13.2-.74.47-1.34.6.27.27,2.61,2.48,2.81,2.21.27-.07-.67-.6-.74.07-1.27s.8-.54.94.4a6.89,6.89,0,0,1-.27,3.42c-.54,1.21-2.61.94-3.21.07-.4-.6-.4-.54-.87,0-.87,1.14-3.68,1.67-4.28-.27-.07.07-.13.2-.27.27.07,1.14.13,2.21.13,3.22.2,3.82-.27,7.64-4.42,9.65S57,68.61,55.42,65.53Zm80.17,34.64a1.56,1.56,0,0,1-1.37-.79l-3.45,0a.78.78,0,0,1-.74.67,1,1,0,0,1-.68-.41l0,0a.4.4,0,0,1,0-.14l-3.21.07a1.45,1.45,0,0,1-.27.4c-.15.26-.28.52-.47.55s-.34-.11-.6-.49c-.6-.87-.74-1,.13-2l0-.95c-23.76.62-41.13.66-47,.55-6.62-.07-13.52.2-15.66-3.35,19.4.23,42.12.46,62.59.2l0-.8c-.87-1-.74-1.14-.2-2,.23-.37.41-.52.55-.55a.29.29,0,0,1,.16,0l.07,0a2.83,2.83,0,0,1,.36.41c.6.87.67,1-.13,2l0,.87c2.7,0,5.35-.09,7.95-.14s3.54.34,3.74,2.48C137.39,98.62,136.86,100.1,135.59,100.16Zm2.13-33.44s-1.58,1.08-2.42.84c-.45-.12-.36-.51-.21-.76.32-.29.54-.45.85-.74a.58.58,0,0,0,0-.87c-.33-.21-.65-.18-.68-.71.05-.35.15-.48.44-.54a3.76,3.76,0,0,1,1.21,0c.47.16.58.35.45.64a2.68,2.68,0,0,1-.35.68c-.21.38-.13.66,0,.66s.69-.09.88.12A.61.61,0,0,1,137.71,66.72Zm-3.33-3.47a4.5,4.5,0,0,1-3.28-1.94c-.4-.47-.4-1.21-1.21-.27-1,1.21-1.47,3.35-3.21,5.76-.87,1.27-1.4,1.14-3.08-.34-1.34-1.07-2.07-2.14-.87-7.1.47-2,.67-1,.67.27a9.62,9.62,0,0,0,.87,4.69c.87,1.61,1.81.54,2.34-.67A44.81,44.81,0,0,1,129,59.16c1.14-1.88,1.67-2.28,3.14-.13.8,1.21,1.67,1.81,2.54,1.47s1.4-1.21,1.47-2.81A131.83,131.83,0,0,0,135.45,44c-1.41-1.81-2.88-3.75-4.42-5.63-.8-.94-.8-1.47-.67-2a17.68,17.68,0,0,0,0-1.88c0-.67.54-.67,1.14.07a26.64,26.64,0,0,0,2.41,2.34c.67.6.2,1.14-.4.8.47.74,1,1.54,1.61,2.34-.07-.87-.2-1.88-.27-2.81-.6-1.07-.4-1.88.33-3,.47-.67.67-.67,1,.2s1.07,2.81,1.34,3.75.07,1-.54.54c.07,1.47.2,2.95.27,4.42.94,1.27,1.94,2.68,3,4.15A79.52,79.52,0,0,1,139,36.25c-.33-.67,0-1.07.47-1.94s.94-1.07,1.27-.13.94,3.35,1.21,4.22-.13,1.41-.67.87c0,2.28.47,6.57.8,10.59,1.07,1.54,2.14,3.15,3.35,4.89A8.17,8.17,0,0,1,147,58.42c.2,2.88-.27,1.67-1.07.27-.74-1.14-1.81-2.75-3.62-5.16a27.75,27.75,0,0,1,.07,5.23c-.47,2.28-.94,2.28-.8.07a30.87,30.87,0,0,0-.6-7c-.94-1.34-2.14-3-3.48-4.89.27,4.09.47,7.91.6,10.72C138.33,62.31,135.79,63.52,134.38,63.25ZM143,67.13c-3.55.87-1.87-.27-.4-1.27,4.55-3,5.69-5.63,5.42-10.32-.13-3.22-.74-8.78-2-19.43-.27-.47-.2-1.07.47-1.88s.74-1.07,1.27.07,1,2.28,1.54,3.42.07,1.34-.67.67c-.27,3.28.87,7.1,1.21,15.81C150.18,63.92,146.43,66.26,143,67.13Z"/><path class="sa_cls-1" d="M64.92,51.52c-.8-.34-.87-.13-.94.6s.13,1.21,1.34.87c.2-.07.47-.2.73-.27A3.31,3.31,0,0,0,64.92,51.52Z"/><path class="sa_cls-1" d="M79,35.65c-.2.47-.27.8.13,1.07a4.7,4.7,0,0,0,.34-.87C79.64,35.44,79.31,35,79,35.65Z"/><path class="sa_cls-1" d="M125.6,97.06l0,.9a4.25,4.25,0,0,1,.61.8l3.07-.07c0-.4.47-.66.74-.66a1,1,0,0,1,.72.5.38.38,0,0,1,0,.09l3.15,0a3.53,3.53,0,0,1,.13-1.76Z"/><path class="sa_cls-2" d="M133.51,94.33c-2.6.05-5.25.11-7.95.14l0-.87c.8-1,.74-1.14.13-2a2.83,2.83,0,0,0-.36-.41l-.07,0a.29.29,0,0,0-.16,0c-.14,0-.32.18-.55.55-.54.87-.67,1,.2,2l0,.8c-20.47.26-43.19,0-62.59-.2,2.14,3.55,9,3.28,15.66,3.35,5.89.12,23.25.08,47-.55l0,.95c-.87,1-.74,1.13-.13,2,.26.38.45.51.6.49s.32-.29.47-.55a1.45,1.45,0,0,0,.27-.4l3.21-.07a.4.4,0,0,0,0,.14l0,0a1,1,0,0,0,.68.41.78.78,0,0,0,.74-.67l3.45,0a1.56,1.56,0,0,0,1.37.79c1.27-.07,1.8-1.54,1.67-3.35C137.06,94.67,136,94.26,133.51,94.33Zm.4,4.25-3.15,0a.38.38,0,0,0,0-.09A1,1,0,0,0,130,98c-.27,0-.74.26-.74.66l-3.07.07a4.25,4.25,0,0,0-.61-.8l0-.9,8.45-.24A3.53,3.53,0,0,0,133.92,98.58Z"/><path class="sa_cls-2" d="M52.74,34.71c.8-.6.74,1.07.07,2.95a6.58,6.58,0,0,0,1.14-3.21c-.2-1.47-1.07-1.21-1.74-.34C51.67,34.71,52.07,35.24,52.74,34.71Z"/><path class="sa_cls-2" d="M53,46.7c1-1.81.6-3.42,1.54-6.1.54-1.68.74-.4.54.6-.47,2.68-.34,7,3.48,7,.2,2.41.87,6.9.87,8.44s.27,1.14.67.27a6.38,6.38,0,0,0,.27-3.08c-.13-1.34-.2-3.55-.47-6.56a4.67,4.67,0,0,0,1.2-1.47c.54-1,.67-.94.87-.13.4,1.61,2,2.68,4.15,1.14s1.14-4.35.27-7.57c.74.13,1-.47.54-1.27A5.61,5.61,0,0,0,66,36.65c-.33-.4-.67-.74-1-.34s-.6.74-.8,1-.2.54.07,1.21a20.72,20.72,0,0,1,1.47,5c.2,1.07-.2,1.34-.94,1.34a2,2,0,0,1-2.14-1.81,10.44,10.44,0,0,1-.54-3.42,3.77,3.77,0,0,0-.54-2.88c-.8-1.07-.87-.87-1.07-.33a4.87,4.87,0,0,0-.13,2.48c.34,1.47.54,2.75.74,3.62a3.32,3.32,0,0,1-1.34,2.55c-.2-2-.54-4.69-.67-6.83,1.14-.4.54-1.94-.4-3.62-.67-1.27-.94-.74-1.41.07s-.13,1.14.2,1.81c-.27.54.2,1.34.4,2.81.07.94.27,3.62.47,6a1.93,1.93,0,0,1-1.81-1.41,5.83,5.83,0,0,1-.2-4.22c.33-1,.67-2.55.07-2.95s-1.27.07-1.74.8a9.57,9.57,0,0,0-1.61,4.76,8.29,8.29,0,0,1-.6,2.68c-.27.54-.74.6-1.2-.2-.8-1.27-1.07-4.49-1-6.16,0-.8-.2-.94-.47,0a12.72,12.72,0,0,0,.87,8.17C51.4,48.24,52.34,47.91,53,46.7Z"/><path class="sa_cls-2" d="M63,35.85c.33-.4.33-.47.67.07s.87.27,1.07-.13a1.32,1.32,0,0,0,.13-1.14c-.2-.47-.2-.34-.33.2-.13.87-.94.67-1-.4s-.2-.47-.47.2c-.47,1-1.14.8-1.14-.07s-.2-1.34-.54-.47a1.71,1.71,0,0,0,.27,1.61A.9.9,0,0,0,63,35.85Z"/><path class="sa_cls-2" d="M56.76,51.52c.67-.2.74-.27.67-1s-.4-.47-1.21-.2a13,13,0,0,0-5.69,4c-.8.94-.13.47.4.07A24.74,24.74,0,0,1,56.76,51.52Z"/><path class="sa_cls-2" d="M52.67,64.65c-.67,1.07-1.87-.34-1.07-3.21A8.86,8.86,0,0,0,52,59.9a13.35,13.35,0,0,0-.07-1.41c-.13-.47-.4.2-.6,1.07-.27,1.27-1.14,1.88-.8,5.69.2,2.41,2.94,2.21,3-.67C53.61,63.72,53.28,63.58,52.67,64.65Z"/><path class="sa_cls-2" d="M71.08,56.08c0-1-.07-2.08-.13-3.22.13-.07.2-.2.27-.27.6,1.94,3.41,1.41,4.28.27.47-.54.47-.6.87,0,.6.87,2.68,1.14,3.21-.07a6.89,6.89,0,0,0,.27-3.42c-.13-.94-.33-.87-.94-.4s-.13.6-.07,1.27c.27,2.55-1.94,2.35-2.21-.27-.13-1.61-.4-1-.6-.27-.94,3.15-3.68,3.75-3.41.13.07-1.07-.6-.74-.94-.33a10.22,10.22,0,0,1-.94.8c-.2-2.95-.4-6.3-.74-10.32.8,1,1.54-.13,1-1.27-.4-.87-1-2.81-1.4-3.88s-.54-.74-1.41.13-.67,1.14-.27,2.08a21.93,21.93,0,0,0,.33,4.62c.2,1.68.74,5.16,1,9.58-.4.2-1,.6-1.4.8A7,7,0,0,0,66.33,50c-1.21-1.21-2.21-1.27-3.21.2a3.62,3.62,0,0,0-.8,3c.07,1.27-.2,1.74.8,2.08a2.4,2.4,0,0,0,1.94,0c.47-.13,1.14-.34,1.81-.6a2.46,2.46,0,0,1-.34,1.94c-2.47,2.95-6.29,5.09-8,3.15A6,6,0,0,1,57.49,55c.27-1.68-.27-.94-.47-.34-.6,1.94-.8,4.76,0,6.17,1.14,1.94,2.95,2.81,5.82,1.54s5.69-3.55,5.55-6.7c0-.6-.07-1.14-.07-1.54.27-.13.73-.47,1.07-.6.07,1.07-.07,2.41,0,3.48.13,3.42-1.21,4.42-2.41,5.36a13.52,13.52,0,0,1-5.89,2.55c-4.62.67-5.69-2.28-5.62-6.23,0-.6.27-1,.27-1.87-.07-1.68-.27-1.41-.8.27s-1.07,5.36.47,8.44,7,2.21,11.24.2S71.28,59.9,71.08,56.08ZM65.32,53c-1.2.34-1.41-.13-1.34-.87s.13-.94.94-.6a3.31,3.31,0,0,1,1.14,1.21C65.79,52.8,65.52,52.93,65.32,53Z"/><path class="sa_cls-2" d="M75.89,59.56a4.11,4.11,0,0,0,.47-2.68c-.07-.67-.07-.87-.67-1.14s-.87.13-1.07.67.07,1.41,1,1a4.12,4.12,0,0,1-.13,2C75.23,60,75.49,60.3,75.89,59.56Z"/><path class="sa_cls-2" d="M77.43,42.68c-.8,1-1.4,2.48-.27,3.35.6.54,1.87-.07,2.34-1.07s.27-1.21-.54-.34c-1.14,1.27-2.28.13-1.07-1.61C78.71,41.81,78.24,41.54,77.43,42.68Z"/><path class="sa_cls-2" d="M74.09,42.88a11.71,11.71,0,0,0,5.42-4.22c.8.14,1-.54.6-1.07a5.72,5.72,0,0,0,.54-1.47c.74-2.68-1.94-2.95-2.74-.87A2.37,2.37,0,0,0,78.44,38a18.49,18.49,0,0,1-4.88,4.42C72.55,43,72.75,43.48,74.09,42.88Zm5-7.24c.27-.6.6-.2.47.2a4.7,4.7,0,0,1-.34.87C78.77,36.45,78.84,36.11,79,35.65Z"/><path class="sa_cls-2" d="M86.2,44.56c.6-1.47,1-2.95,1.4-4s.74-.8.67.13c-.2,1.88-.33,4.89,1.54,6S94.57,46,95.57,44c3,4,5.69,2.14,6-1.74a15,15,0,0,0-.8-4.56c-.33-.8-.13-.8.33-.4s1.27.74.87-.6A5.61,5.61,0,0,0,100.25,34c-.67-.6-.8-.27-1.07.2s-.2.6-.6.94-.33.6,0,1.34c1.14,2.95,2.21,7.24.4,7.64s-2.74-3.28-2.81-4.89a18.32,18.32,0,0,0-.74-5.09c-.47-1.14-.6-1.34-.94-.74s-.33.8-.6,1.27,0,.6.2,1.54c1,4.69.87,6.83-1.27,8s-3.28.07-3.28-1.41a26.15,26.15,0,0,1,.13-4.62c.13-1.34.47-1.54,0-2.21s-.87-.47-1.47.4a28.42,28.42,0,0,0-3.15,6.5c-.47,1.54-1.4,1-2.07-.27a10.09,10.09,0,0,1-.4-5.36c.27-1.07.13-1.54-.33-.34-1.07,3-1,5.9,1.21,8.38C84.73,46.77,85.67,46.1,86.2,44.56Z"/><path class="sa_cls-2" d="M92.09,39c-.07.67.07,1.34.4.13a8.39,8.39,0,0,0-.13-3.88c-.34-1-.74-1.27-1-.87-.47.47-.47.54-.07,1.14A5.14,5.14,0,0,1,92.09,39Z"/><path class="sa_cls-2" d="M81.12,59.5c-.34.34-1,.74-1.47,1.14-.07-.87.07-2.08.07-2.55s-.2-.87-.54-.13A20.19,20.19,0,0,0,77.7,62a67.33,67.33,0,0,1-8.23,4.82c-1,.47-.4.8.33.54a53.92,53.92,0,0,0,7.83-2.81c.13,1.74.87,3.15,2.41,3.48,3.08.8,6.36-1.81,9.7-6.57.87,2.34,2.81,5.36,8.23,6.23,2.21.33,2.21.07,2.48-.94s.53-1.27-1.27-1.74c-2.34-.87-3.15-2.55-.87-3.48a43.82,43.82,0,0,1,7.56-2.28c1.34-.2,1.87-.07,2.34-1.41s.74-1.67-.87-1.54-9.64.34-11.58.2a41.43,41.43,0,0,1,5.62-2.34c.6.4.87.27.67-.2a11.89,11.89,0,0,0,1.81-.8c1.94-1.14,2.74-3.35.74-4.76s-3.75-1.88-4.82-.34c-.87,1.27-1.61,2.48-.47,4.15-1.81.54-3.55,1.21-5.29,1.88-1.27.54-1.81.74-2.28,2.28s-.67,1.74,1.07,1.81c2.34.13,4.42-.07,5.75,1.21-2.21.8-3.88,2.55-3.08,4.82a6.56,6.56,0,0,1-2.88-1.47c-1.74-1.61-1.61-4.56-2.34-8a35.31,35.31,0,0,0-2.61-7.44c-.47-1.21-.67-.67-1.07.2s-.74,1.34-.33,2.41c.8,2.14,2.14,6.36,2.75,8.71-1.34,2.81-4.49,6.5-7.3,6.9-2.14.33-2.61-.8-2.48-1.94a15.73,15.73,0,0,0,3.95-3.08c2.61-2.55,3-4.76,1.34-9,1.07.13.87-.67-.67-2.48-1.07-1.27-1.27-1-1.8.13s-.87,1.81.33,2.28c.2.54.67,1.41,1.27,2.61C85.06,56.75,83,57.82,81.12,59.5Zm19.74-9.11c-.07-.67.33-.67,1.34-.07s1.74.74.34,1.07c-.54.13-1,.2-1.47.34C100.92,51.19,100.92,50.79,100.86,50.38Z"/><path class="sa_cls-2" d="M96.44,48.71c0,1.67-.54,1.67-1.14.07-.2-.6-.47-.6-.54.2,0,1.54-.67,1.74-1.07.2-.13-.67-.27-1.21-.4-.2a2.61,2.61,0,0,0,.4,2,.67.67,0,0,0,1.2-.13c.2-.6.33-.67.74-.2s2,.07,1.27-2.28C96.57,47.44,96.44,47.64,96.44,48.71Z"/><path class="sa_cls-2" d="M113.17,35.71a2.66,2.66,0,0,1,1,2.68c-.2.94,0,1.67.6.33a4.94,4.94,0,0,0-.47-4.15c-.54-.94-.87-.74-1.21-.2S112.63,35.31,113.17,35.71Z"/><path class="sa_cls-2" d="M102.73,36.25c-.07.6.13,1,1,1.34,1.74,2.28,3.48,4.62,5.09,7,.2,2,.6,4.22.8,6,.53,4.29,1.34,9.85.67,12.26-.54,1.81,0,2.61.87-.13s.74-5.36.2-9.45c-.2-1.61-.27-3.62-.47-5.49,2.81,4.35,5.35,8.51,6.49,11.39.6,1.54,1.14,1.88.74-.4-.6-3-3.35-7.84-7.43-14.14q-.2-2.51-.2-4.62c.6.67,1,.27.8-.6a32.82,32.82,0,0,0-1.74-4.56c-.27-.74-1-.94-1.34.14-.47,1.27-.54,1.54.07,2.41a36.63,36.63,0,0,0,.4,4c-.74-1.07-1.67-2.41-2.41-3.55,1.14.47,1.81.13.8-.94a44.78,44.78,0,0,0-3.28-3.08c-.87-.8-1.27-.27-1.14.47A9,9,0,0,1,102.73,36.25Z"/><path class="sa_cls-2" d="M114.44,42.14c-.2,1-.53.6-.8-.2-.13-.54-.4-.2-.33.6s.4,1.41,1.14.74c.34-.33.47-.33.94.07a.61.61,0,0,0,1-.2,3,3,0,0,0,.07-1.68c-.13-.94-.4-.47-.6.4s-.67,1-.87.07S114.58,41.27,114.44,42.14Z"/><path class="sa_cls-2" d="M105.47,67.27a8.4,8.4,0,0,0,2.41-1.54c.94-.74.27-.74-.34-.47s-1.14.6-1.94.87-1.07-.07-.67-1.41c.4-1.14,0-1.21-.54-.94a10.58,10.58,0,0,0-1.54.94c-.33.2-.4.6.54.2s.6.07.33,1.07S104.14,67.6,105.47,67.27Z"/><path class="sa_cls-2" d="M119.19,55.68c.2,3.75.74,5.49-1.61,8-2.54,2.75-4.08,3.42-5.22,3.69-1.41.4-1.94,1,.2.87,3.14-.2,3.61-.27,6.16-3.28,1.47-1.61,2.21-3.75,2.08-8.71-.13-8.71-1.34-12.46-1.14-17.15.54.47,1.14.47.8-.54s-.6-2.21-.94-3.35-.54-1.41-.94-.87-.8.8-1.14,1.21a1.49,1.49,0,0,0,0,1.74A158.79,158.79,0,0,1,119.19,55.68Z"/><path class="sa_cls-2" d="M124.68,56.55c.27,2.14.6,3.55.07,5.9-.2.74.07.94.54.07,1.88-3.55.6-6.63.4-8.64-.33-3.08-1.4-11.26-1.61-14.54l.2.13c.94.47,1.94.74,1.21-.4a17,17,0,0,1-1.74-4.22c-.47-1.34-.6-1.27-1.34-.13-1.14,1.74-.13,3.42.13,5.43C123.48,47.3,124.41,54.61,124.68,56.55Z"/><path class="sa_cls-2" d="M128.9,44.89a9.66,9.66,0,0,1,1.47,2.48c.47,1,.74.13.74-.47a26,26,0,0,1,.07-3.22c.4-.94,1,.4,1.27-.27.2-.47-.2-.54-.33-1.07s-.47-.54-.94-.2a1.9,1.9,0,0,0-.67,1.07,14.5,14.5,0,0,0,.13,2.28c0,.74-.13.87-.4.33A12.38,12.38,0,0,0,129,43.35a.52.52,0,0,0-.94.4,5.57,5.57,0,0,1,0,1.07C128,45.49,128.76,45.49,128.9,44.89Z"/><path class="sa_cls-2" d="M132.84,49.38c-.6.6-2.48,1.94-3.15,2.48s-1,.8-1,1.27.87-.2,1.54-.74a26.9,26.9,0,0,1,3.28-2c.73-.4.6-.67.53-1.41S133.45,48.78,132.84,49.38Z"/><path class="sa_cls-2" d="M137.53,46.9c1.34,1.88,2.54,3.55,3.48,4.89a30.87,30.87,0,0,1,.6,7c-.13,2.21.33,2.21.8-.07a27.75,27.75,0,0,0-.07-5.23c1.81,2.41,2.88,4,3.62,5.16.8,1.41,1.27,2.61,1.07-.27a8.17,8.17,0,0,0-1.61-3.69c-1.21-1.74-2.28-3.35-3.35-4.89-.33-4-.8-8.31-.8-10.59.54.54.94,0,.67-.87s-.8-3.22-1.21-4.22-.74-.74-1.27.13-.8,1.27-.47,1.94a79.52,79.52,0,0,0,1.27,11.05c-1.07-1.47-2.07-2.88-3-4.15-.07-1.47-.2-2.95-.27-4.42.6.47.87.34.54-.54s-1-2.88-1.34-3.75-.54-.87-1-.2c-.74,1.14-.94,1.94-.33,3,.07.94.2,1.94.27,2.81-.6-.8-1.14-1.61-1.61-2.34.6.33,1.07-.2.4-.8a26.64,26.64,0,0,1-2.41-2.34c-.6-.74-1.14-.74-1.14-.07a17.68,17.68,0,0,1,0,1.88c-.13.54-.13,1.07.67,2,1.54,1.88,3,3.82,4.42,5.63a131.83,131.83,0,0,1,.74,13.67c-.07,1.61-.6,2.55-1.47,2.81S133,60.23,132.17,59c-1.47-2.14-2-1.74-3.14.13a44.81,44.81,0,0,0-2.41,4.49c-.54,1.21-1.47,2.28-2.34.67a9.62,9.62,0,0,1-.87-4.69c0-1.27-.2-2.28-.67-.27-1.2,5-.47,6,.87,7.1,1.67,1.47,2.21,1.61,3.08.34,1.74-2.41,2.21-4.56,3.21-5.76.8-.94.8-.2,1.21.27a4.5,4.5,0,0,0,3.28,1.94c1.4.27,3.95-.94,3.75-5.63C138,54.81,137.8,51,137.53,46.9Z"/><path class="sa_cls-2" d="M144.15,41.21c0,1.14.4,1,.6-.07a8.8,8.8,0,0,0-.47-4.42c-.6-1.47-.8-.94-1.14-.47-.4.67-.33.8.13,1.54A7.8,7.8,0,0,1,144.15,41.21Z"/><path class="sa_cls-2" d="M148.57,38.39c.74.67,1.14.47.67-.67s-1.07-2.35-1.54-3.42-.67-.87-1.27-.07-.74,1.41-.47,1.88c1.27,10.65,1.87,16.21,2,19.43.27,4.69-.87,7.3-5.42,10.32-1.47,1-3.14,2.14.4,1.27s7.23-3.22,6.82-12.93C149.44,45.49,148.3,41.67,148.57,38.39Z"/><path class="sa_cls-2" d="M133.94,55.84a2.87,2.87,0,0,0-.47-3.09c-.54-.7-.87-.55-1.2-.15s-.47.7.06,1,1.34,1.09,1,2C133.14,56.29,133.34,56.83,133.94,55.84Z"/><path class="sa_cls-2" d="M137,65.92c-.13,0-.21-.28,0-.66a2.68,2.68,0,0,0,.35-.68c.13-.29,0-.48-.45-.64a3.76,3.76,0,0,0-1.21,0c-.29.06-.39.19-.44.54,0,.53.34.5.68.71a.58.58,0,0,1,0,.87c-.31.29-.54.45-.85.74-.15.25-.24.64.21.76.84.24,2.42-.81,2.42-.84a.61.61,0,0,0,.18-.68C137.71,65.83,137.3,66,137,65.92Z"/></g></g></svg>
