<svg xmlns="http://www.w3.org/2000/svg" viewBox="0 0 200 134"><style>.st0{fill:#41479b}.st1{fill:#73af00}.st2{fill:#ffe15a}.st3{fill:#f5f5f5}</style><path class="st0" d="M185.1 0H14.9C6.7 0 0 6.9 0 15.3v103.4c0 8.5 6.7 15.3 15 15.3h170c8.3 0 15-6.9 15-15.3V15.3C200 6.9 193.3 0 185.1 0z"/><path class="st1" d="M194.6 3.6L5.4 130.4c2.6 2.2 6 3.6 9.6 3.6h170c8.3 0 15-6.9 15-15.3V15.3c0-4.7-2.1-8.9-5.4-11.7z"/><path class="st2" d="M200 3.5c0-1.9-1.5-3.5-3.4-3.5h-6L0 127.7v2.8c0 1.9 1.5 3.5 3.4 3.5h6L200 6.3V3.5z"/><path class="st3" d="M17.4 11l-1.8 5.7H9.8c-.6 0-.8.7-.3 1.1l4.7 3.5-1.9 5.7c-.2.5.4 1 .9.7l4.7-3.5 4.7 3.5c.5.3 1.1-.1.9-.7l-1.8-5.7 4.7-3.5c.5-.3.2-1.1-.3-1.1h-5.8L18.5 11c-.2-.6-1-.6-1.1 0zM61.8 11L60 16.6h-5.8c-.6 0-.8.7-.3 1.1l4.7 3.5-1.9 5.8c-.2.5.4 1 .9.7l4.7-3.5 4.7 3.5c.5.3 1.1-.1.9-.7l-1.8-5.7 4.7-3.5c.4-.3.2-1.1-.3-1.1h-5.8L62.9 11c-.2-.6-.9-.6-1.1 0zM39.6 31.2l-1.8 5.7H32c-.6 0-.8.7-.3 1.1l4.7 3.5-1.8 5.7c-.2.5.4 1 .9.7l4.7-3.5 4.7 3.5c.5.3 1.1-.1.9-.7L44 41.6l4.7-3.5c.4-.3.2-1.1-.3-1.1h-5.8l-1.8-5.7c-.3-.6-1-.6-1.2-.1zM17.4 51.5l-1.8 5.7H9.8c-.6 0-.8.7-.3 1.1l4.7 3.5-1.8 5.7c-.2.5.4 1 .9.7l4.7-3.5 4.7 3.5c.5.3 1.1-.1.9-.7l-1.8-5.7 4.7-3.5c.5-.3.2-1.1-.3-1.1h-5.8l-1.8-5.7c-.3-.6-1.1-.6-1.2 0zM61.8 51.5L60 57.2h-5.8c-.6 0-.8.7-.3 1.1l4.7 3.5-1.8 5.7c-.2.5.4 1 .9.7l4.7-3.5 4.7 3.5c.5.3 1.1-.1.9-.7l-1.8-5.7 4.7-3.5c.4-.3.2-1.1-.3-1.1h-5.8L63 51.5c-.3-.6-1-.6-1.2 0z"/></svg>
