<svg xmlns="http://www.w3.org/2000/svg" viewBox="0 0 200 134"><defs><style>.si_cls-1{fill:#fafafa;}.si_cls-2{fill:#ee3130;}.si_cls-3{fill:#3a53a4;}.si_cls-4{fill:#ee2524;}.si_cls-5{fill:#fee600;}.si_cls-6{fill:#fff;}.si_cls-7{fill:none;stroke:#fff;stroke-linecap:round;stroke-linejoin:round;stroke-width:0;}</style></defs><title>Asset 64</title><g id="Layer_2" data-name="Layer 2"><g id="Layer_37" data-name="Layer 37"><path class="si_cls-1" d="M183,0H17A17,17,0,0,0,0,17V44.59H48.9L47.74,26.18,49,25.61a40.45,40.45,0,0,1,32.63,0h0l1.23.57L81.67,44.59H200V17A17,17,0,0,0,183,0Z"/><polygon class="si_cls-1" points="80.4 44.59 80.41 44.59 81.6 25.61 81.6 25.61 80.4 44.59"/><path class="si_cls-2" d="M0,117a17,17,0,0,0,17,17H183a17,17,0,0,0,17-17V89.41H0Z"/><path class="si_cls-3" d="M81.55,46.52A22.89,22.89,0,0,1,65.29,67,22.89,22.89,0,0,1,49,46.52l-.12-1.93H0V89.41H200V44.59H81.67Z"/><path class="si_cls-3" d="M80.29,46.43a21.62,21.62,0,0,1-5,12.48,21.65,21.65,0,0,0,5-12.48l.12-1.84h0Z"/><polygon class="si_cls-4" points="81.6 25.61 81.6 25.61 81.6 25.61 81.6 25.61"/><path class="si_cls-4" d="M55.68,61.26A22.88,22.88,0,0,0,65.29,67,22.89,22.89,0,0,0,81.55,46.52l.12-1.93,1.16-18.41-1.23-.57-1.2,19-.12,1.84a21.65,21.65,0,0,1-5,12.48q-.63.76-1.33,1.46a21.62,21.62,0,0,1-8.71,5.31,21.62,21.62,0,0,1-15-19.24L49,25.61l-1.23.57L48.9,44.59,49,46.52A22.89,22.89,0,0,0,55.68,61.26Z"/><path class="si_cls-3" d="M50.29,46.43a21.62,21.62,0,0,0,15,19.24A21.62,21.62,0,0,0,74,60.37q.7-.7,1.33-1.46a21.62,21.62,0,0,0,5-12.48l.12-1.84,1.2-19h0a40.45,40.45,0,0,0-32.63,0Zm22.81,13a20.37,20.37,0,0,1-7.81,4.87,20.35,20.35,0,0,1-7.81-4.87,20,20,0,0,1-1.66-1.88,4.37,4.37,0,0,0,1.83-.09,4.45,4.45,0,0,0,1.06-.44h0a4.41,4.41,0,0,1,2.19-.59h0a4.4,4.4,0,0,1,2.19.59,4.39,4.39,0,0,0,3.33.44,4.48,4.48,0,0,0,1.06-.44h0a4.4,4.4,0,0,1,2.19-.59h0a4.4,4.4,0,0,1,2.19.59,4.38,4.38,0,0,0,2.89.53h0A20.23,20.23,0,0,1,73.1,59.47ZM75.9,56a4.44,4.44,0,0,1-.7.25,4.39,4.39,0,0,1-3.33-.44,4.38,4.38,0,0,0-4.39,0h0a4.46,4.46,0,0,1-1.06.44,4.4,4.4,0,0,1-3.33-.44,4.38,4.38,0,0,0-4.39,0h0a4.39,4.39,0,0,1-4,.19q-.54-.85-1-1.75h0a4.37,4.37,0,0,1,.63.3,4.39,4.39,0,0,0,3.33.44,4.31,4.31,0,0,0,1.06-.44h0a4.38,4.38,0,0,1,4.39,0,4.39,4.39,0,0,0,3.33.44,4.34,4.34,0,0,0,1.06-.44h0a4.39,4.39,0,0,1,2.19-.59h0a4.39,4.39,0,0,1,2.19.59,4.4,4.4,0,0,0,4.39,0h0a4.62,4.62,0,0,1,.64-.3Q76.44,55.13,75.9,56Zm-7.71-31.2,1.22.13.49-1.12.49,1.12,1.21-.13-.72,1,.72,1-1.21-.13-.49,1.12-.49-1.12-1.22.13.72-1Zm-4.61,6.14,1.21.13.49-1.12.49,1.12L67,30.93l-.72,1,.72,1-1.22-.13-.49,1.12-.49-1.12-1.21.13.72-1ZM59,24.78l1.22.13.49-1.12.49,1.12,1.21-.13-.72,1,.72,1-1.21-.13-.49,1.12-.49-1.12L59,26.76l.72-1ZM61.34,44.2l3.95-7.9,3.95,7.9,2.63-3.51,6.58,8.77a4.39,4.39,0,0,1-6.58,3.8s0,0,0,0a4.39,4.39,0,0,0-4.39,0,4.39,4.39,0,0,1-4.39,0,4.39,4.39,0,0,0-4.39,0s0,0,0,0a4.39,4.39,0,0,1-6.58-3.8l6.58-8.77Z"/><polygon class="si_cls-5" points="64.79 32.77 65.29 33.89 65.78 32.77 67 32.9 66.27 31.91 67 30.93 65.78 31.06 65.29 29.94 64.79 31.06 63.58 30.93 64.3 31.91 63.58 32.9 64.79 32.77"/><polygon class="si_cls-5" points="60.19 26.63 60.68 27.74 61.17 26.63 62.39 26.76 61.67 25.77 62.39 24.78 61.17 24.92 60.68 23.8 60.19 24.92 58.97 24.78 59.69 25.77 58.97 26.76 60.19 26.63"/><polygon class="si_cls-5" points="69.4 26.63 69.89 27.74 70.39 26.63 71.6 26.76 70.88 25.77 71.6 24.78 70.39 24.92 69.89 23.8 69.4 24.92 68.18 24.78 68.91 25.77 68.18 26.76 69.4 26.63"/><path class="si_cls-6" d="M52.12,49.46a4.39,4.39,0,0,0,6.58,3.8s0,0,0,0a4.39,4.39,0,0,1,4.39,0,4.39,4.39,0,0,0,4.39,0,4.39,4.39,0,0,1,4.39,0s0,0,0,0a4.39,4.39,0,0,0,6.58-3.8l-6.58-8.77L69.24,44.2l-3.95-7.9-3.95,7.9L58.7,40.69Z"/><polygon class="si_cls-6" points="69.67 53.94 69.67 53.94 69.67 53.94 69.67 53.94"/><polygon class="si_cls-6" points="53.68 54.23 53.68 54.23 53.68 54.23 53.68 54.23"/><path class="si_cls-6" d="M76.26,54.53a4.4,4.4,0,0,1-4.39,0,4.38,4.38,0,0,0-4.39,0h0a4.34,4.34,0,0,1-1.06.44,4.39,4.39,0,0,1-3.33-.44,4.38,4.38,0,0,0-4.39,0h0a4.31,4.31,0,0,1-1.06.44,4.39,4.39,0,0,1-3.33-.44,4.27,4.27,0,0,0-.63-.3q.45.9,1,1.75a4.39,4.39,0,0,0,4-.19h0a4.38,4.38,0,0,1,4.39,0,4.4,4.4,0,0,0,3.33.44,4.46,4.46,0,0,0,1.06-.44h0a4.38,4.38,0,0,1,4.39,0,4.39,4.39,0,0,0,3.33.44,4.44,4.44,0,0,0,.7-.25q.54-.85,1-1.75a4.62,4.62,0,0,0-.64.3Z"/><path class="si_cls-7" d="M74.76,57.59h0"/><polygon class="si_cls-6" points="60.9 56.48 60.9 56.48 60.9 56.48 60.9 56.48"/><path class="si_cls-6" d="M71.87,57.06a4.38,4.38,0,0,0-4.39,0h0a4.48,4.48,0,0,1-1.06.44,4.39,4.39,0,0,1-3.33-.44,4.38,4.38,0,0,0-4.39,0h0a4.45,4.45,0,0,1-1.06.44,4.37,4.37,0,0,1-1.83.09,20,20,0,0,0,1.66,1.88,20.35,20.35,0,0,0,7.81,4.87,20.4,20.4,0,0,0,9.47-6.75A4.38,4.38,0,0,1,71.87,57.06Z"/><polygon class="si_cls-6" points="69.67 56.48 69.67 56.48 69.67 56.48 69.67 56.48"/></g></g></svg>
