<svg xmlns="http://www.w3.org/2000/svg" viewBox="0 0 200 134"><defs><style>.sk_cls-1{fill:#fafafa;}.sk_cls-2{fill:#1f449b;}.sk_cls-3{fill:#ce2931;}.sk_cls-4{fill:#fff;}.sk_cls-5{fill:#ce2028;}.sk_cls-6{fill:#1d439b;}</style></defs><title>Asset 63</title><g id="Layer_2" data-name="Layer 2"><g id="Layer_38" data-name="Layer 38"><path class="sk_cls-1" d="M183,0H17A17,17,0,0,0,0,17V44.54H31c.18-2.63.38-5.26.58-7.87.34-1.87-.43-5.16,2.29-5.37H85c2.66-.2,2.39,2.93,2.53,4.73.21,2.82.44,5.66.63,8.51H200V17A17,17,0,0,0,183,0Z"/><path class="sk_cls-2" d="M85.89,75.4A39.66,39.66,0,0,1,78,89.46H200V44.54H88.13C88.83,54.91,89,65.39,85.89,75.4Z"/><path class="sk_cls-2" d="M33.24,75.4C30.1,65.39,30.3,54.91,31,44.54H0V89.46H41.09A39.62,39.62,0,0,1,33.24,75.4Z"/><path class="sk_cls-3" d="M66.7,99.08c-2.31,1.31-4.58,2.92-7.14,3.64-2.45-.66-4.6-2.21-6.82-3.44a47.42,47.42,0,0,1-11.66-9.81H0V117a17,17,0,0,0,17,17H183a17,17,0,0,0,17-17V89.46H78A47.13,47.13,0,0,1,66.7,99.08Z"/><path class="sk_cls-4" d="M33.24,75.4a39.62,39.62,0,0,0,7.86,14.07,47.42,47.42,0,0,0,11.66,9.81c2.21,1.23,4.37,2.78,6.82,3.44,2.56-.72,4.83-2.33,7.14-3.64A47.13,47.13,0,0,0,78,89.46,39.66,39.66,0,0,0,85.89,75.4c3.14-10,2.93-20.49,2.23-30.86-.19-2.85-.42-5.69-.63-8.51-.14-1.8.13-4.93-2.53-4.73H33.87c-2.72.21-1.95,3.5-2.29,5.37-.19,2.61-.4,5.24-.58,7.88C30.3,54.91,30.1,65.39,33.24,75.4ZM59.57,33.3h25.7C87.11,57.78,90,80.42,68.1,95.72l0,0-1.14.78q-.8.53-1.65,1.05l-.63.38q-1.08.65-2.23,1.27l-.15.08c-.88.47-1.78.94-2.73,1.4-1-.47-1.91-1-2.82-1.45h0c-.81-.44-1.59-.89-2.34-1.34l-.51-.3Q53,97,52.14,96.48l-1-.69-.33-.24C29.13,80.25,32,57.69,33.87,33.3Z"/><path class="sk_cls-5" d="M50.78,95.55A45,45,0,0,1,43.37,89l-.28-.32-.6-.69A37.25,37.25,0,0,1,40,84.76a6.41,6.41,0,0,1-.08-.82,6.69,6.69,0,0,1,11.5-4.62,8.52,8.52,0,0,1,5.27-5.46V64.06H53.1a51.3,51.3,0,0,0-9.84,1.23,12,12,0,0,0,0-8.16,51.38,51.38,0,0,0,9.84,1.23h3.61V51.79h-.78A51.35,51.35,0,0,0,46.09,53a12,12,0,0,0,0-8.16,51.21,51.21,0,0,0,9.84,1.24h.78v-.42a50.6,50.6,0,0,0-1.24-9.79,12.17,12.17,0,0,0,8.19,0,50.68,50.68,0,0,0-1.24,9.79v.42h.78A51.22,51.22,0,0,0,73,44.87,12,12,0,0,0,73,53a51.36,51.36,0,0,0-9.84-1.23h-.78v6.58H66a51.34,51.34,0,0,0,9.84-1.23,12,12,0,0,0,0,8.16A51.26,51.26,0,0,0,66,64.06H62.42v9.79a8.52,8.52,0,0,1,5.27,5.47A6.7,6.7,0,0,1,79.2,83.94a6.81,6.81,0,0,1-.08.8A37.2,37.2,0,0,1,76.62,88l-.55.64-.3.34a45.13,45.13,0,0,1-7.66,6.73C90,80.42,87.11,57.78,85.27,33.3H33.87C32,57.69,29.13,80.25,50.78,95.55Z"/><path class="sk_cls-5" d="M52.14,96.48l-1-.69Z"/><path class="sk_cls-5" d="M54.4,97.91l-.51-.3Z"/><path class="sk_cls-5" d="M68.08,95.74l-1.14.78Z"/><path class="sk_cls-5" d="M56.74,99.25Z"/><path class="sk_cls-5" d="M62.44,99.22l-.15.08Z"/><path class="sk_cls-5" d="M65.29,97.57l-.63.38Z"/><path class="sk_cls-4" d="M55.93,46.1a51.21,51.21,0,0,1-9.84-1.24,12,12,0,0,1,0,8.16,51.35,51.35,0,0,1,9.84-1.23h.78V46.1Z"/><path class="sk_cls-4" d="M63.2,51.79A51.36,51.36,0,0,1,73,53a12,12,0,0,1,0-8.16A51.22,51.22,0,0,1,63.2,46.1h-.78v5.69Z"/><path class="sk_cls-4" d="M53.1,58.37a51.38,51.38,0,0,1-9.84-1.23,12,12,0,0,1,0,8.16,51.3,51.3,0,0,1,9.84-1.23h3.61V58.37Z"/><path class="sk_cls-4" d="M66,64.06a51.26,51.26,0,0,1,9.84,1.23,12,12,0,0,1,0-8.16A51.34,51.34,0,0,1,66,58.37H62.42v5.69Z"/><path class="sk_cls-4" d="M62.42,73.86V45.68a50.68,50.68,0,0,1,1.24-9.79,12.17,12.17,0,0,1-8.19,0,50.6,50.6,0,0,1,1.24,9.79V73.86a8.39,8.39,0,0,1,5.71,0Z"/><path class="sk_cls-6" d="M43.37,89l-.28-.32Z"/><path class="sk_cls-6" d="M52.29,86.21a8.41,8.41,0,0,1-.85-6.88,6.69,6.69,0,0,0-11.5,4.62,6.41,6.41,0,0,0,.08.82A37.25,37.25,0,0,0,42.49,88c-.49-.59-1-1.18-1.42-1.78Z"/><path class="sk_cls-6" d="M52.29,86.21H66.22a6.59,6.59,0,0,1,1.47-6.88,8.5,8.5,0,0,0-16.63,2.51A8.38,8.38,0,0,0,52.29,86.21Z"/><path class="sk_cls-6" d="M76.07,88.65l-.3.34Z"/><path class="sk_cls-6" d="M66.22,86.21H78.06c-.46.61-.94,1.21-1.44,1.8a37.2,37.2,0,0,0,2.5-3.27,6.81,6.81,0,0,0,.08-.8,6.69,6.69,0,1,0-13,2.27Z"/><path class="sk_cls-6" d="M75.76,89l.3-.34.55-.64c.5-.6,1-1.2,1.44-1.8h-37c.45.6.92,1.19,1.42,1.78l.6.69.28.32a45,45,0,0,0,7.42,6.55l.33.24,1,.69Q53,97,53.89,97.6l.51.3c.76.45,1.54.9,2.34,1.34h0c.91.49,1.84,1,2.82,1.45.94-.46,1.85-.92,2.73-1.4l.15-.08q1.15-.63,2.23-1.27l.63-.38q.85-.52,1.65-1.05l1.14-.78,0,0A45.13,45.13,0,0,0,75.76,89Z"/></g></g></svg>
