<svg xmlns="http://www.w3.org/2000/svg" viewBox="0 0 200 134"><defs><style>.sm_cls-1{fill:none;}.sm_cls-2{fill:#2783c4;}.sm_cls-3{fill:#fafafa;}.sm_cls-4{fill:#0fab4b;}.sm_cls-5{fill:#2381c4;}.sm_cls-6{fill:#fff;}.sm_cls-7{fill:#010101;}.sm_cls-8{fill:#d31f36;}.sm_cls-9{fill:#9b4f23;}.sm_cls-10{fill:#fade4b;}</style></defs><title>Asset 57</title><g id="Layer_2" data-name="Layer 2"><g id="Layer_44" data-name="Layer 44"><path class="sm_cls-1" d="M.64,12.43A17,17,0,0,0,0,17V117a17,17,0,0,0,.64,4.57V12.43Z"/><path class="sm_cls-1" d="M199.36,12.43V121.57A17,17,0,0,0,200,117V17A17,17,0,0,0,199.36,12.43Z"/><path class="sm_cls-2" d="M99.4,89.28h0l-.2-.07Z"/><path class="sm_cls-2" d="M84.89,82a2.22,2.22,0,0,0,1,.83,4,4,0,0,0,1.67,2.07l.31.11a10,10,0,0,1-1-2.18C86.62,82.15,85.79,82,84.89,82Z"/><path class="sm_cls-2" d="M88.72,86.15a2.19,2.19,0,0,0-1.13-.27c-.33,0-.6,0-.94-.67a.76.76,0,0,0-.33-.33,4.42,4.42,0,0,0,0,1.33c0,.47.13,1.47-.33,2l-.23.26a10.31,10.31,0,0,0,2.76,1c-.6-.6-.27-1,.27-1.54a3,3,0,0,1,2.87-.4l.38.1-.25-.17A20.71,20.71,0,0,0,88.72,86.15Z"/><path class="sm_cls-2" d="M79.81,73.91a4,4,0,0,1,.13.46,6.24,6.24,0,0,1,.06-.73A.43.43,0,0,1,79.81,73.91Z"/><path class="sm_cls-2" d="M75.85,86.68a3,3,0,0,1,.76-.63l-.31.05A1.86,1.86,0,0,0,75.85,86.68Z"/><path class="sm_cls-2" d="M86.17,77.7c0,.25-.08.48-.12.64a6.38,6.38,0,0,0-.11,3.16l.23,0a.5.5,0,1,1,.36.07c.82.22,1.14.77,1.38,1.75a4.07,4.07,0,0,0,2,2.29,33.82,33.82,0,0,1,4.57,2.26h.18a11.48,11.48,0,0,1,3.36.87C94,87.13,89.8,84.31,86.17,77.7Z"/><path class="sm_cls-2" d="M99.5,92.05l-.27,0,.13.14Z"/><path class="sm_cls-2" d="M86.32,84.88a1.35,1.35,0,0,0-1,.07,1.49,1.49,0,0,1-1.13-.13.93.93,0,0,0-.65,0,.5.5,0,1,1-.75.22.58.58,0,0,1-.33,0c-.17-.12-.6.06-1.05.16a1.4,1.4,0,0,0,.72-.16,11,11,0,0,0-1.86,1.57,6.68,6.68,0,0,0,2.66,1,5.15,5.15,0,0,1,1.35.19c.29-.54.61-.86.72-1.19A2.65,2.65,0,0,1,86.32,84.88Z"/><path class="sm_cls-2" d="M117.35,67.8c-.27.2-.53.47-.33.8s.13.8-.33,1.13a2.71,2.71,0,0,0-.8,2.2c0,.75.12,2.58.18,3.48l.21-.07c.27-.07.67.27.33.6s-.26.67.07,1a.8.8,0,0,1,.27.93,1.17,1.17,0,0,0-.27.8,1.13,1.13,0,0,1,0,.52,2.89,2.89,0,0,0,.35-.66,11.27,11.27,0,0,1,.53-1.67,6,6,0,0,1-.07-1.54,1.26,1.26,0,0,0-.34-1.2c-.33-.33-.46-.67-.27-1s.13-.53-.13-.8a.81.81,0,0,1-.07-1.07c.33-.53.6-.6.73-.27-.53-1.4.4-1.8.87-1.6s.4.6.13.93a3.13,3.13,0,0,0-.47,1.27,1.2,1.2,0,0,1,.58-.5l0,0a6.73,6.73,0,0,0,.87-1.67,2.51,2.51,0,0,0,0-1.4,2.63,2.63,0,0,1-.18-1h-1.55A.92.92,0,0,1,117.35,67.8Z"/><path class="sm_cls-2" d="M76.88,69.77A8.45,8.45,0,0,1,77.45,67H76.39a3.41,3.41,0,0,0-.12.62A7.42,7.42,0,0,1,76.88,69.77Z"/><path class="sm_cls-2" d="M78.19,72.9a4.2,4.2,0,0,1,.52-1.49,2.25,2.25,0,0,0,.28.93c.13-.73.28-1.41.32-1.6a.71.71,0,0,0-.13-.8c-.2-.27-.2-.13-.2-.47s.06-1,.13-1.54A1.51,1.51,0,0,0,79,67H77.61C79.38,70.88,77.52,70.92,78.19,72.9Z"/><path class="sm_cls-2" d="M79.45,69a.82.82,0,0,0,.53.93,13.49,13.49,0,0,0-.35,3.16.45.45,0,0,1,.38.44,4.21,4.21,0,0,1,.5-1.46,7.14,7.14,0,0,0,1.2,3,2.51,2.51,0,0,1,.26.71,6.54,6.54,0,0,1,.16-.85c-.68-1.78-2.34-4.73-1.68-7.2.2.78,1.15,1.82,1.57,2.93,0-.31.09-.62.14-.92-.2-.79-.63-1.65-.92-2.75H79.82c-.09.3-.19.59-.3.87A7.73,7.73,0,0,0,79.45,69Z"/><path class="sm_cls-2" d="M120.21,68.8c0,.4-.53,1.2-.67,2a1.62,1.62,0,0,0,.53.73c.47,0,.67.07.54.4.73.87.13,1.27-.73.73-.33.07-.46-.33-.2-.8a2.3,2.3,0,0,0-.4-.6s0,.08-.08.11a1,1,0,0,1-.26.49,2.2,2.2,0,0,0-.17.23c0,.08-.08.16-.11.25s.07.18.27.18c.4-.07.4.27,0,.74s.07,1.2-.6,1.8a.87.87,0,0,0-.16.26,9.08,9.08,0,0,1-.24,1.34,2.77,2.77,0,0,1,0,.73c.8-.6,1.53-.6,1.93-1.27s.4-1.07.8-1.33a3.74,3.74,0,0,0,.94-2,1.93,1.93,0,0,0-.2-1.2,1,1,0,0,1,.06-1.27c.33-.4.4-.53.07-.87s-.27-.53,0-.8.34-.4.2-.67-.07-.53.2-.87L122,67h-.88a2,2,0,0,1-.35.53A2,2,0,0,0,120.21,68.8Z"/><path class="sm_cls-2" d="M120.4,67H120c0,.28,0,.54,0,.73A4.67,4.67,0,0,0,120.4,67Z"/><path class="sm_cls-2" d="M82.63,67.14a6,6,0,0,1-.2,5.48,12,12,0,0,1,0,1.4,4.59,4.59,0,0,1,.68-1.14c-.2,1.73.87,3.47.53,4.2A5.8,5.8,0,0,0,83,79.78c.48.44.93.81,1.14,1a7.18,7.18,0,0,0,.35.69l.9,0a6,6,0,0,1-.85-4.87c.2-.34.38-.67.54-1A20.18,20.18,0,0,1,83.27,67h-.64S82.63,67.09,82.63,67.14Zm1,12.47a.5.5,0,1,1,0-1A.5.5,0,0,1,83.59,79.61Z"/><path class="sm_cls-2" d="M109.61,84c-.47-.33-.13-.8.13-1a1.08,1.08,0,0,0,.33-.84,23.53,23.53,0,0,1-1.72,1.9,4.46,4.46,0,0,1-.21,1.34c.59-.05,1.35-.75,2.21-1.3A1,1,0,0,1,109.61,84Z"/><path class="sm_cls-2" d="M114.62,81.29h0a1.75,1.75,0,0,1-.27-.41A.71.71,0,0,0,114.62,81.29Z"/><path class="sm_cls-2" d="M114.14,77.28c-.33.4-.33,1.07.6,1.87,0,.65-.43.74-.52,1.23l0,.07a1.11,1.11,0,0,1,.28-.63,1.84,1.84,0,0,0,.07-1.6c-.2-.67.07-1.4.67-1.07-.13-.27-.2-.53-.33-.73-.33-.4.2-.33.07-.73s-.07-.8.33-.47a1,1,0,0,0,.23.17c-.11-.92-.25-2.24-.37-2.93a22.49,22.49,0,0,1-1,2.94A1.3,1.3,0,0,1,114.14,77.28Z"/><path class="sm_cls-2" d="M113.71,80.1h0Z"/><path class="sm_cls-2" d="M112,80.61a.67.67,0,0,0,.73-.33.63.63,0,0,1,.51-.22,3,3,0,0,1-.88-1.2q-.54.91-1.1,1.71A1.44,1.44,0,0,1,112,80.61Z"/><path class="sm_cls-2" d="M114,80.21l-.07,0Z"/><path class="sm_cls-2" d="M78.7,85.37h0a2.32,2.32,0,0,1,.44-.18l-.08,0Z"/><path class="sm_cls-2" d="M125.18,67a1.42,1.42,0,0,0,.24.67c.2.27-.07.67-.47.87s-.4.47-.13.8,0,.8-.47,1.07a1.45,1.45,0,0,0-.73,1.07,1.29,1.29,0,0,1-.35.66c.52-.22,1.06-.41,1.51-.56a4,4,0,0,0,.71-2.57.89.89,0,0,1,.73.07c.33-1,.53-2.2,1.6-1.13a2.9,2.9,0,0,1,2.07-.6c.44,0,.58.71.26,1.3a.5.5,0,0,1,.21.1c.47.4.2.8-.13,1.2s-.6.53-.4,1c1.67-.07,1.67,1,1.2,1.07s-.4.33-.53.6a.83.83,0,0,1-1,.27,2.5,2.5,0,0,0-1.6.4c-.53.33-1.67-.13-2.6-.74a2.88,2.88,0,0,0-2.85.33,2.51,2.51,0,0,1-.36.2c-.47,1.8-.67,2.2-1.07,2.47a1.47,1.47,0,0,0-.6.74,3.51,3.51,0,0,1-.87.87.55.55,0,0,0,.53.2c.27-.07.67.2.54.47.73,1.2-.2,1.13-.8.67-.4.13-.6-.4-.47-.6a.32.32,0,0,0-.07-.47,2.85,2.85,0,0,1-1.2.4,13.42,13.42,0,0,1-.73,1.67c.6-.33,2.07.4,3.87-.53a1,1,0,0,1,.38-.19,1.69,1.69,0,0,1,1.09-.88c.27,0,.4-.07.47-.27a.75.75,0,0,1,.94-.33c.4.2.6.13.6-.13s.4-.73,1.54-.33,1.63.73.28,1.73a1.28,1.28,0,0,0,.72.07,1,1,0,0,1,1.07.47c.4.47.4.73-.27,1.2a2.76,2.76,0,0,1-.33.2c.43,1.24-.42,1.13-.8,1a.59.59,0,0,0-.73,0,.76.76,0,0,1-1-.2.8.8,0,0,0-1,0c-.33.2-.8-.27-1.2-.8a2.18,2.18,0,0,0-1.87-.87,7.18,7.18,0,0,1-2.47.47,1.8,1.8,0,0,0-1.27.33c-.33.27-1,.53-1.67,1.07h0a1.94,1.94,0,0,0,.21.6,1,1,0,0,1,0,1.07c-.2.33-.4.53-.27.93a.42.42,0,0,1-.1.47c.25,0,.49.1.72.16a1.74,1.74,0,0,0,.78-.5,5,5,0,0,0,1.4-1.8.92.92,0,0,1,.6-.87.74.74,0,0,0,.6-.47c.07-.2.33-.47.93-.47s1,.27.73.73a4.07,4.07,0,0,0-.47.88c.29.14.46.11.68-.47a1.05,1.05,0,0,1,1.6-.53c.53.47.53.87.13,1.2s-.6.53-.27.67.2.47-.07.6l-.42.31.28.16a.35.35,0,0,0,.47-.13c.13-.13.6-.53.8-.13,1.13-.07,1.8.93.13,1.13a.47.47,0,0,1-.8.07c-.2-.2-.33-.4-.54-.4a1.94,1.94,0,0,1-.69-.39.88.88,0,0,0-.18.26c-.13.33-.27.33-.53.26s-.4,0-.6.2-.27.4-.67.33-.94.27-1.47.27l-.3,0a5.6,5.6,0,0,0,2.1.36l.25,0a11.29,11.29,0,0,1,4-.37c.6.07.73.4.6.47s-.2.4.47.6,1.13.74.73,1.14-.6.6-1.07.4l-.05,0a1.44,1.44,0,0,0,.85.62c.47.13.33.8.07,1.13s-.47.67-.33.87a.55.55,0,0,1-.13.73c-.27.2-.6.4-.87.13a.88.88,0,0,1-.2-1.07c.27-.4,0-.67-.33-.4s-.47.47-.73-.07c-.18-.37,0-.81.1-1.39a.83.83,0,0,1-.6-.32c.1.29.07.55-.17.65a.63.63,0,0,1-.28,0c0,.38-.08.68-.26.76-.33.07-.33.33-.2.73s-.93.53-1,.2-.33-.47-.67-.27a.39.39,0,0,1-.6-.4c.07-.27-.06-.47-.26-.27s-.47-.07-.4-.33-.07-.47-.27-.87a2.11,2.11,0,0,1,.67-1.86c.07-.26.1-.44-.46-.54a4.11,4.11,0,0,1-1.87-.6,7.59,7.59,0,0,0-2.55-.68l-.38.15c-.53.2-1.4-.13-1.93-.2-.36-.09-.53-.16-.61-.34-.69.12-1.38.13-1.72.47a3.24,3.24,0,0,1-.85.67,2.52,2.52,0,0,0,.64-.2,1.26,1.26,0,0,1,1.07-.13,1,1,0,0,0,.73.07c.33-.13.87.27,1,.6a.56.56,0,0,0,.93.07,1.09,1.09,0,0,1,1.13-.33c.47.07.8.33.67.6a1.11,1.11,0,0,0-.17.67l.7-.41a3.69,3.69,0,0,1,3.13-.4,4,4,0,0,1-1.33.4c-.6.07-.93.34-1.6,1s-1.6.6-2.6,1.6a3.17,3.17,0,0,1,1.93-.73,3.41,3.41,0,0,0,1.73-.54,2.21,2.21,0,0,1,1.87-.6,4.14,4.14,0,0,1-2.14,2,4.44,4.44,0,0,0-1.93,1.07,7.94,7.94,0,0,1-2.8,1.6c-2.07.8-2.87,2.74-3.47,3.94s-1.47,1.94-2.54,1.14-.33-1.6-1-2.4a2.34,2.34,0,0,1-2.13-.53c-.6-.67-.4-1.53-.73-2.27a6.24,6.24,0,0,1-2,.22c-.21.16-.45.37-.69.6a17.64,17.64,0,0,0,1.92,1.72,2.31,2.31,0,0,1,1.2,1.33,3.36,3.36,0,0,0,1.2,1.54c.67.53.67,1.47.54,2.87a5.19,5.19,0,0,1-1.47-2,6.21,6.21,0,0,0-1.47-1.8,6.35,6.35,0,0,1-1.46-1.74,6.62,6.62,0,0,0-1-1.35,7.34,7.34,0,0,0-.72.88,3.08,3.08,0,0,1-1.2,1.27,2.8,2.8,0,0,0-1,1.13,1.23,1.23,0,0,1-.74.87,4,4,0,0,0-1.33,1.47,2.72,2.72,0,0,1-.6,1,1.46,1.46,0,0,1-.13-2,11.9,11.9,0,0,1,1.33-1.2c.07-.4.33-.47,1.13-1.2s1.07-.87,1.07-1.13.53-.74,1.13-1.27l.47-.41L98.06,92l-.17-.16c-.59-.09-1.19-.2-1.76-.31a5.87,5.87,0,0,0-.87,2.33c-.2,1.2-1.07,1.2-2.54.8-.2.53-.27,1.27-.6,2.2s-1.13,1.33-2.2.53a5.78,5.78,0,0,1-1.87-3.34c-.4-1.27-1-1.27-2.4-1.87a3.12,3.12,0,0,1-1.93-1.4c-.4-.67-1.4-.73-2.54-.6a3.21,3.21,0,0,1-2.33-.47,19.73,19.73,0,0,0-2.07-1.33c.87.4,3,.47,5.34.27a8.29,8.29,0,0,1-2.53-1.79l-.14.05A3.42,3.42,0,0,0,77.25,88a7.36,7.36,0,0,1,.18-.78c-1,1.09-2.12,2.21-3.11,2.18.57-.32.9-1.3,1.1-2a3.91,3.91,0,0,1-4.77,2.16c.44-.1.87-.62,1.42-1.23a16.36,16.36,0,0,0-3.35.77,6.51,6.51,0,0,1,5.81-2.74l.46-.17a8.74,8.74,0,0,1-2.4-.29c.6,0,2.8-1.64,5.25-1.45a2.85,2.85,0,0,0-1.31-.69c2.37-.87,3.52.47,5.41.76a13.78,13.78,0,0,1,1.6-.33.5.5,0,1,1,.33,0l.19,0c1.34.33,1.13-.2,2-.06-.27-.33-.8-.73-1.27-1.34-.15-.2-.35-.52-.61-.89l-.39,0c-.7,0-1.86,0-2.91-.12a.5.5,0,1,1-1-.09c-.34,0-.64-.08-.86-.12l-.31,0a.5.5,0,1,1-.5,0l-.14,0a9.48,9.48,0,0,1-2.86,1.55c-1.07.47-2.6.13-4,1.07.49-.34.69-1.11,1-1.79a27.2,27.2,0,0,0-2.8-.15,6.13,6.13,0,0,1,3.63-1.56,17.47,17.47,0,0,1-2.23-1.78c3-.19,3.49.33,5.59,2.12l.08,0h0l1.5.09.19-.1a7,7,0,0,0-.79-1.14h0c-1.47-1.67-5.07-.93-5.74-3.07a4.87,4.87,0,0,0,2.8.6,3.62,3.62,0,0,1,.74.06C74,75.9,70.8,76.53,70,74.07c.73.8,1.79.34,2.92.53a15.58,15.58,0,0,0-1.85-1.73c-.67-.47-1.27-.8-2.2-4.07.67,1,2.4.8,2.87,2.8a7.73,7.73,0,0,0,.7,1.69,4.29,4.29,0,0,1-.17-2.75c2.92,3,2.21,4,2.53,5.71a11.85,11.85,0,0,1,.83,1.59,3.13,3.13,0,0,1,.63.39,4.87,4.87,0,0,1,0-3.88c.68,1.18,1.92,3.33,1.39,5.19.31.42.7,1,1.14,1.55.68.1,3,.23,4.86.32a6.08,6.08,0,0,0-1.53-1.32A2.24,2.24,0,0,1,81,78.5a1.09,1.09,0,0,1-.21-.16,5.48,5.48,0,0,0-1.67-1.07,5,5,0,0,1-2.67-4.4,9.63,9.63,0,0,0,2.07,2.21A4,4,0,0,1,78.18,73a8.83,8.83,0,0,0-2.4-2,3.69,3.69,0,0,1-2.07-3.07c.27.6,1.6,1.13,2.33,1.54l.28.16c-.1-.26-.21-.52-.32-.76a.5.5,0,0,1-.36.13.46.46,0,0,1-.07-.92,4.1,4.1,0,0,0-.79-.95,1.63,1.63,0,0,1-.14-.13H.64v54.57A17,17,0,0,0,17,134H183a17,17,0,0,0,16.36-12.43V67ZM76.85,80.08a.5.5,0,0,1,0,1A.5.5,0,0,1,76.85,80.08Zm-5.2-6.54a.5.5,0,1,1,0,1A.5.5,0,1,1,71.64,73.54Zm7.4,6.4a.5.5,0,1,1,0,1A.5.5,0,0,1,79,79.94Z"/><path class="sm_cls-2" d="M110.47,89a9.67,9.67,0,0,1,1.8-.54l.23-.06a.79.79,0,0,1-.56-.61c-.07-.27-.13-.53-.6-.4s-.73,0-.73-.4-.4-1-.8-.93a4,4,0,0,1-1,0c-.58.2-.86.66-1.64,1.32l-.36.29,1.23-.29C109.41,86.95,110.81,87.75,110.47,89Z"/><path class="sm_cls-2" d="M102.27,88.55a21.93,21.93,0,0,0,2.39-.44l.14-.1c1.23-.88,2.41-1.4,2.54-3a21.47,21.47,0,0,1-5.93,3.65A7.2,7.2,0,0,1,102.27,88.55Z"/><path class="sm_cls-2" d="M123.15,68.4c.34.06.8.13.67-.27a1.81,1.81,0,0,1,.05-1.13h-.57A1.22,1.22,0,0,1,123.15,68.4Z"/><path class="sm_cls-3" d="M93.13,45c-1.62.06-3.73,1.37-2.41,4a1.06,1.06,0,0,1,.07-.16,3.12,3.12,0,0,1,2.67,1.27,3,3,0,0,1-.34-2.47,3.4,3.4,0,0,1,2.74,1.73,2.29,2.29,0,0,1,.07-2.87,3.24,3.24,0,0,1,2.4,2.47,4.6,4.6,0,0,1,.47-2.13,5.64,5.64,0,0,1-1.09-3.14A13.48,13.48,0,0,1,93.13,45Z"/><path class="sm_cls-3" d="M99.08,58.54c0-.6.13-.54.52-.54s.49-.06.52.54a1.25,1.25,0,0,1,.44.22c.9-.53,2.24-1.31,3.26-1.84a34.55,34.55,0,0,1-4,.21,32.63,32.63,0,0,1-4.53-.28c1,.53,2.44,1.35,3.37,1.9A1.28,1.28,0,0,1,99.08,58.54Z"/><path class="sm_cls-3" d="M106.47,45a13.49,13.49,0,0,1-4.58-1.33,5.64,5.64,0,0,1-1.09,3.14,4.6,4.6,0,0,1,.47,2.13,3.24,3.24,0,0,1,2.4-2.47,2.29,2.29,0,0,1,.07,2.87,3.4,3.4,0,0,1,2.73-1.73,3,3,0,0,1-.33,2.47,3.12,3.12,0,0,1,2.67-1.27,1,1,0,0,1,.07.16C110.2,46.35,108.09,45,106.47,45Z"/><path class="sm_cls-3" d="M92.13,55.93,92,56h.2l0,0Z"/><path class="sm_cls-3" d="M74.64,67c-.65-.63-1.09-2.18-1.46-4.6.15.45.87.93,1.52,1.59a7.46,7.46,0,0,1,1.08-4.39c-.18.7.21,1.55.49,2.82a5.4,5.4,0,0,1,1.18-1.75c-.53.8-.27,2.13-.2,3.34.11,1.82-.56,2-.86,3h1.06l.06-.2.09.2H79a3,3,0,0,1-.53-2.07,3.41,3.41,0,0,1,.71-1.71,7.14,7.14,0,0,1,.08-2.11c-.73-2.15-.78-3.62-.39-4.46a6.76,6.76,0,0,0,.93-2.33,9.51,9.51,0,0,1,.3,4.69c.08-.13.17-.26.27-.4a11.69,11.69,0,0,0,.5-2.42,6.08,6.08,0,0,1,2.6-3.2,10.34,10.34,0,0,1-2.13,4.52,13,13,0,0,1,2.87-2c-1,.8-.47,2.27-3.27,4.47-1.15.94-1.48,1.3-1.31,2.7a7.17,7.17,0,0,0,.77-1.3A15.51,15.51,0,0,1,79.82,67h1.43a8.08,8.08,0,0,1,.14-4.54,7.76,7.76,0,0,1,1,2.56,4.4,4.4,0,0,1,.34-.92,12.26,12.26,0,0,1,1.2-5.31c-.13.26.13,2-.12,3.8L84,62.4A25.08,25.08,0,0,1,82.63,67h.64c.13-5.1,2.66-9.34,7.59-10.87a4.55,4.55,0,0,1,1-.16c-.38,0-.47-.5-.28-.8,0-.21-.07-.45-.16-.84a4.29,4.29,0,0,0-.51-1.07l-.15.07c-.3.12-.7-.4-.3-.75a12.27,12.27,0,0,0-2.1-2.31,1.82,1.82,0,0,1,.51-.09l-.2-.33a.64.64,0,0,1-.32.08.7.7,0,0,1-.26-1.35,5.64,5.64,0,0,1-.24-.87.76.76,0,0,1,0-1.5A2.66,2.66,0,0,1,88.42,45a.63.63,0,0,1,.57-.93.56.56,0,0,1,.41.17,6.19,6.19,0,0,1,.9-.37.63.63,0,0,1,.56-.87.6.6,0,0,1,.64.55l1-.19a.54.54,0,0,1,.42-.89.54.54,0,0,1,.49.74l.67-.11A.47.47,0,1,1,95,43l.66-.14a.42.42,0,0,1,.39-.25.44.44,0,0,1,.25.08l.33-.11a.66.66,0,0,1-.38-.24c-.4-.47.07-.67.53-.47s.73-.33.93-1,.37-1.33,1-1.44a1.3,1.3,0,0,1,.22-.2,1.39,1.39,0,0,1,.29-2.42v-.67h-1V35h1V33.84h1.07V35h1v1.13h-1v.67a1.39,1.39,0,0,1,.29,2.42,1.35,1.35,0,0,1,.22.21c.66.11.9.83,1,1.44s.46,1.2.93,1,.93,0,.53.47a.66.66,0,0,1-.38.23l.33.11a.43.43,0,0,1,.25-.08.42.42,0,0,1,.39.25l.66.14a.47.47,0,1,1,.92.17l.67.11a.54.54,0,0,1,.49-.74.54.54,0,0,1,.42.89l1,.19a.6.6,0,0,1,.64-.55.62.62,0,0,1,.56.87,6.08,6.08,0,0,1,.9.37.56.56,0,0,1,.41-.17.63.63,0,0,1,.57.93,2.67,2.67,0,0,1,.59,1.16.76.76,0,0,1,0,1.5,5.87,5.87,0,0,1-.24.87.7.7,0,0,1-.27,1.35.64.64,0,0,1-.32-.08l-.2.33a1.77,1.77,0,0,1,.51.09,12.24,12.24,0,0,0-2.1,2.32c.4.35,0,.87-.3.75l-.15-.07a4.27,4.27,0,0,0-.51,1.07c-.1.39-.12.63-.16.84.23.36,0,1-.57.76h0l-.06,0a4.6,4.6,0,0,1,.93.16,10.19,10.19,0,0,1,5.93,4.66c.5-.3.84,0,1.08.27s.33.4.67-.13.87-.33.67.27.4.67.27,1.34a1,1,0,0,1-.2,1.8c-.33.27.27,1.27-.2,1.73a1.06,1.06,0,0,1,1.14.93h1.55a2.08,2.08,0,0,1,0-.33,7.29,7.29,0,0,0,.07-2.4c-.27-.2-.33-.13-.53,0s-.67-.33-.33-.74c-.33-.4-.67-1-.4-1.2s.6.13.87.73c.07-.07.2,0,.2.13s.2.2.2,0a14.63,14.63,0,0,0-.2-1.47c-.13-.94-1.07-1.07-1.47-1.27s-.4-.54.13-.67a2.84,2.84,0,0,0-1.07-.27c-.87-.07-.73-.73-.47-1.07s0-.33-.53-.27c-1.2.13-.67-.93-.2-1.27s1-.33,1.13,0,.27.47.8.4c.36-.09.57.16.67.48.21-.39.31-.62.07-.75s-.54-.6-.4-.8c-.6.13-.8-.4-.53-.67s.33-.6,0-.87-.13-.87.33-1a.72.72,0,0,1,1,.47c.06.34.27.53.73.73s.87.47.47,1.4c-.2.53-.2.67.13.73a1.13,1.13,0,0,1,.4,1.27c-.06.18-.13.46-.21.78a1.2,1.2,0,0,1,.15-.24,3.09,3.09,0,0,0,.2-2.4.6.6,0,0,1,.94-.6c.27.13.33,0,.53-.33a.84.84,0,0,1,1.47-.33.67.67,0,0,1-.4,1,.65.65,0,0,0-.2.94c.2.27.13.6-.07.67a.34.34,0,0,0-.33.4c0,.2-.33.33-.8.33-.8.13-1.47,1.67-1.74,2.54h0a1.61,1.61,0,0,1,0,.68c0,1.76,0,3.93.1,5.27h.42a1.82,1.82,0,0,0,.15-.67,1.88,1.88,0,0,1,.4-1.34c-.2-.46.2-1-.07-1.53s.27-.6.67-.47.34-.27,0-.33-.47-.27-.67-.53a.75.75,0,0,1,.4-1c.47-.13.4-.27.4-.54a1.29,1.29,0,0,1,.8-1.07c.6-.27.73,0,.6.27s-.2.4,0,.53a1.08,1.08,0,0,1,.16.2,3,3,0,0,1,2.85-1c.53.13.47.13.27.33s0,.4.4.6.6.87.4,1.07-.4.33-.73,0-.33-.13-.33.13.13.47-.33.4a2.36,2.36,0,0,0-.93-.07c-.27.07-.47,0-.47-.4s-.35-.43-.84-.23c.1.18,0,.49-.42.77a.43.43,0,0,0,.07.8c.34.2.07.67-.33.93a6.34,6.34,0,0,0-1.4,1.54,4.8,4.8,0,0,1-.25,1.6H122c.33-.44.48-.63,1-.27a1,1,0,0,1,.28.27h.57a1.3,1.3,0,0,1,.35-.53c.6-.53,1.2-.2,1,.07a1,1,0,0,0,0,.47h74.18V12.43A17,17,0,0,0,183,0H17A17,17,0,0,0,.64,12.43V67Z"/><path class="sm_cls-4" d="M114.36,80.88a.92.92,0,0,1-.1-.43l0-.07a.26.26,0,0,0,0,0,1,1,0,0,0-.23-.2l-.07,0a.88.88,0,0,0-.21-.08h0a2.08,2.08,0,0,0-.4,0l0,0a.63.63,0,0,0-.51.22.67.67,0,0,1-.73.33,1.44,1.44,0,0,0-.74-.05c-.4.57-.8,1.11-1.2,1.61a1.08,1.08,0,0,1-.33.84c-.27.2-.6.67-.13,1a1,1,0,0,0,.74.1,5.9,5.9,0,0,1,.66-.37,24,24,0,0,0,3.61-2.46A.71.71,0,0,1,114.36,80.88Z"/><path class="sm_cls-4" d="M113.15,83.93c.53,0,1.18-.29,1.12-.85l0-.18C113.88,83.27,113.5,83.64,113.15,83.93Z"/><path class="sm_cls-4" d="M115.31,72.09l.57-.15a2.71,2.71,0,0,1,.8-2.2c.46-.33.6-.73.33-1.13s.06-.6.33-.8a.92.92,0,0,0,.34-.8,1.06,1.06,0,0,0-1.14-.93c.47-.47-.13-1.47.2-1.73a1,1,0,0,0,.2-1.8c.13-.67-.46-.73-.27-1.34s-.27-.73-.67-.27-.4.4-.67.13-.58-.58-1.08-.27C116,63.83,116.4,67.88,115.31,72.09Z"/><path class="sm_cls-4" d="M113.25,80.05l0,0a2.08,2.08,0,0,1,.4,0h0a.88.88,0,0,1,.21.08l.07,0a1,1,0,0,1,.23.2.26.26,0,0,1,0,0c.09-.49.52-.58.52-1.23-.93-.8-.93-1.47-.6-1.87a1.3,1.3,0,0,0,0-1.88c-.21.5-.44,1-.7,1.48-.36.7-.73,1.35-1.11,2A3,3,0,0,0,113.25,80.05Z"/><path class="sm_cls-4" d="M108.78,86a4,4,0,0,0,1,0c.4-.07.8.47.8.93s.27.47.73.4.53.13.6.4a.79.79,0,0,0,.56.61A18,18,0,0,0,115.44,87a1.11,1.11,0,0,1,.17-.67c.13-.27-.2-.53-.67-.6a1.09,1.09,0,0,0-1.13.33.56.56,0,0,1-.93-.07c-.13-.33-.67-.73-1-.6a1,1,0,0,1-.73-.07,1.26,1.26,0,0,0-1.07.13,2.52,2.52,0,0,1-.64.2l-.62.33Z"/><path class="sm_cls-5" d="M100.13,60.32c0,.86-.1.74-.53.74s-.51.11-.53-.74a1.14,1.14,0,0,1-.2-.09c-.93.52-2.51,1.37-3.94,2.22a3.08,3.08,0,0,1-4-.52c-3.42,4.23-3.4,9.83-1.37,14.88a12.49,12.49,0,0,1,.64-1.2.56.56,0,0,1,.66-.31c.28-2.12.75-6.54.87-7.1-.2-.33-.53-.6-.67-.8l.4-.27.13.4h.27l.13-.4h.33v.33l.27.05c0-.21,0-.51,0-.81a1.19,1.19,0,0,1-.83-.91c-.13-.67,0-2.07,1-2.07a1.61,1.61,0,0,1,1,2.47,1,1,0,0,1-.8.55v.38h.33l.07.4h.4l.2-.27.47.2-.4.8c.06,2.2.19,5.26.31,7a.91.91,0,0,1,.36.2c.33.33.53.73.8,2,.33.2.6.4.87.53.2-.8.46-1.4.6-1.93s.07-.67.6-.53l.15,0c.26-2.22.45-5.74.65-7.43a6.18,6.18,0,0,1-.33-.6c.2-.13.4-.27.53-.33a2.77,2.77,0,0,0,.33.4.52.52,0,0,0,.2.07l.12-.36c0-.2,0-.44,0-.69a1.67,1.67,0,0,1-.75-2,1.2,1.2,0,0,1,2.34-.07,1.75,1.75,0,0,1-1.21,2.11c0,.21,0,.46,0,.73l.13.22.27-.07.13-.4h.2l.13.47.13.13.27-.33.4.2c-.2.27-.27.4-.4.6a13.58,13.58,0,0,0,.07,2.87c.11.81.43,2.84.58,3.89.17,0,.3.18.42.51.33.8.4,1.67.67,2.07.07,0,.07.07.13.13.33-.47.67-.87.6-1.27s-.13-.47.2-.93a1.45,1.45,0,0,1,.45-.41c.21-2.2.55-5.85.55-6.53l-.27-.6.74-.4.33.4.27-.06.07-.47.23,0c0-.2,0-.41,0-.62a1.84,1.84,0,0,1-.71-.63c-.73-.93-.27-2.34.8-2.34s1.53,1,1.2,2.14c-.18.55-.46.83-.77.9,0,.33,0,.68,0,1h.07l.27-.34.4.07-.13.33.27.2.2-.26.27.26-.34.47c.06,1.92.27,5.29.37,6.58a.57.57,0,0,1,.24.23,11.58,11.58,0,0,0,1.4,1.86c2.58-5.61,2.9-11.82-1.13-15.34a3.08,3.08,0,0,1-4,.52c-1.44-.86-3-1.7-3.94-2.22A1.28,1.28,0,0,1,100.13,60.32Z"/><path class="sm_cls-6" d="M99.53,65c0,.4,0,.83.06,1.65a1.75,1.75,0,0,0,1.21-2.11,1.2,1.2,0,0,0-2.34.07,1.67,1.67,0,0,0,.75,2c0-.39-.05-.83-.08-1.28C98.33,64.4,99.6,64.33,99.53,65Z"/><path class="sm_cls-6" d="M99.53,67.27l.07.11c0-.27,0-.52,0-.73,0-.82-.06-1.25-.06-1.65.07-.67-1.2-.6-.4.33,0,.45.06.89.08,1.28s0,.5,0,.69v0Z"/><path class="sm_cls-6" d="M98.68,75.54c0-1.53,0-2.67.72-2.67s.63.92.65,2.49a1,1,0,0,1,.55.18c.39-.39.68-.61.92-.58-.16-1.05-.48-3.09-.58-3.89a13.58,13.58,0,0,1-.07-2.87c.13-.2.2-.33.4-.6l-.4-.2-.27.33-.13-.13-.13-.47h-.2l-.13.4-.27.07-.13-.22-.07-.11h-.27v0l-.12.36a.52.52,0,0,1-.2-.07,2.77,2.77,0,0,1-.33-.4c-.13.07-.33.2-.53.33a6.18,6.18,0,0,0,.33.6c-.19,1.69-.39,5.22-.65,7.43A2.17,2.17,0,0,0,98.68,75.54Z"/><path class="sm_cls-6" d="M92.59,65.73c-.87-.4-.33-1,0-1s.4.53.4.87v1.15a1,1,0,0,0,.8-.55,1.61,1.61,0,0,0-1-2.47c-1,0-1.13,1.4-1,2.07a1.19,1.19,0,0,0,.83.91A7.08,7.08,0,0,0,92.59,65.73Z"/><path class="sm_cls-6" d="M92.8,67.13H93V65.6c0-.33-.13-.87-.4-.87s-.87.6,0,1a7.08,7.08,0,0,1,0,1c0,.3,0,.6,0,.81h.06Z"/><path class="sm_cls-6" d="M93.19,75.27a2.23,2.23,0,0,1,1.18,0c-.12-1.75-.25-4.81-.31-7l.4-.8-.47-.2-.2.27h-.4l-.07-.4H92.8l-.13.4H92.6l-.27-.05v-.33H92l-.13.4h-.27l-.13-.4-.4.27c.13.2.47.47.67.8-.12.56-.59,5-.87,7.1a.6.6,0,0,1,.2.11A10.83,10.83,0,0,0,93.19,75.27Zm0-5.94c.33,0,.27.6.07.6S92.93,69.34,93.19,69.34Zm-.87.07c.33,0,.27.67-.07.67S91.93,69.4,92.33,69.4Z"/><path class="sm_cls-6" d="M105.67,64.87c.4,0,.67.67.67,1.07,0,.19,0,.56,0,1,.31-.07.59-.34.77-.9.33-1.13-.27-2.14-1.2-2.14s-1.54,1.4-.8,2.34a1.84,1.84,0,0,0,.71.63c0-.45-.08-.87-.11-1C104.8,65.47,105.21,64.87,105.67,64.87Z"/><path class="sm_cls-6" d="M106.14,67.87h.26c0-.29,0-.64,0-1s0-.77,0-1c0-.4-.27-1.07-.67-1.07s-.87.6.07.93c0,.15.07.58.11,1,0,.21,0,.42,0,.62l.1,0Z"/><path class="sm_cls-6" d="M104.4,75.14a1.78,1.78,0,0,0,.72.34c0-1.26,0-2.41.62-2.41.49,0,.63,1,.66,2.34.57-.24,1.06-.4,1.38-.23-.1-1.29-.31-4.66-.37-6.58l.34-.47-.27-.26-.2.26-.27-.2.13-.33-.4-.07-.27.34h-.33l-.13-.4-.1,0-.23,0-.07.47-.27.06-.33-.4-.74.4.27.6c0,.67-.34,4.33-.55,6.53A.43.43,0,0,1,104.4,75.14Z"/><path class="sm_cls-7" d="M92.26,70.07c.33,0,.4-.67.07-.67S91.93,70.07,92.26,70.07Z"/><path class="sm_cls-7" d="M93.26,69.94c.2,0,.27-.6-.07-.6S93,69.94,93.26,69.94Z"/><path class="sm_cls-7" d="M99.4,72.87c-.74,0-.69,1.14-.72,2.67l.26-.07a2.7,2.7,0,0,1,1.12-.12C100,73.79,100.12,72.93,99.4,72.87Z"/><path class="sm_cls-7" d="M105.74,73.07c-.65,0-.64,1.15-.62,2.41a3.32,3.32,0,0,0,.81.13l.46-.2C106.36,74.11,106.23,73.07,105.74,73.07Z"/><path class="sm_cls-4" d="M107.77,75.18c-.32-.17-.81,0-1.37.23l-.46.2a3.32,3.32,0,0,1-.81-.13,1.78,1.78,0,0,1-.72-.34.43.43,0,0,0-.41-.08,1.45,1.45,0,0,0-.45.41c-.33.47-.27.47-.2.93s-.27.8-.6,1.27c-.06-.07-.06-.13-.13-.13-.27-.4-.33-1.27-.67-2.07-.11-.33-.25-.49-.42-.51s-.53.19-.92.58a1,1,0,0,0-.55-.18,2.7,2.7,0,0,0-1.12.12l-.26.07a2.17,2.17,0,0,1-.93,0l-.15,0c-.53-.13-.47,0-.6.53s-.4,1.13-.6,1.93c-.27-.13-.54-.33-.87-.53-.27-1.27-.47-1.67-.8-2a.91.91,0,0,0-.36-.2,2.23,2.23,0,0,0-1.18,0,10.83,10.83,0,0,1-2.13.13.6.6,0,0,0-.2-.11.56.56,0,0,0-.66.31,12.49,12.49,0,0,0-.64,1.2,21.85,21.85,0,0,0,10,11.27c4-2,7.68-6.2,9.8-10.82a11.58,11.58,0,0,1-1.4-1.86A.57.57,0,0,0,107.77,75.18Z"/><path class="sm_cls-8" d="M71.64,74.54a.5.5,0,1,0,0-1A.5.5,0,1,0,71.64,74.54Z"/><path class="sm_cls-8" d="M76.85,81.08a.5.5,0,0,0,0-1A.5.5,0,0,0,76.85,81.08Z"/><path class="sm_cls-8" d="M78.24,81.69a.5.5,0,1,0,.5,0A2.57,2.57,0,0,0,78.24,81.69Z"/><path class="sm_cls-8" d="M80.38,82.41a.48.48,0,0,0,.5-.53l-1-.09A.48.48,0,0,0,80.38,82.41Z"/><path class="sm_cls-8" d="M86.46,80.61a.5.5,0,0,0-.27.92l.36.07A.5.5,0,0,0,86.46,80.61Z"/><path class="sm_cls-8" d="M83.25,85.68a.5.5,0,0,0,.28-.91,1.22,1.22,0,0,0-.21,0,1.61,1.61,0,0,1-.53.18A.5.5,0,0,0,83.25,85.68Z"/><path class="sm_cls-8" d="M83.86,84.25a.5.5,0,1,0-.33,0A1.8,1.8,0,0,1,83.86,84.25Z"/><path class="sm_cls-8" d="M75.65,69a.5.5,0,0,0,.36-.13,7.61,7.61,0,0,0-.43-.79A.46.46,0,0,0,75.65,69Z"/><path class="sm_cls-4" d="M86.06,78.34c0-.16.08-.39.12-.64-.15-.27-.3-.54-.45-.83s-.41-.85-.6-1.28c-.16.34-.34.67-.54,1a6,6,0,0,0,.85,4.87h0l.49,0A6.38,6.38,0,0,1,86.06,78.34Z"/><path class="sm_cls-4" d="M86.32,86.21a4.42,4.42,0,0,1,0-1.33h0A2.65,2.65,0,0,0,85,86.55c-.11.33-.43.64-.72,1.19a4.1,4.1,0,0,1,1.32.61l.17.12.23-.26C86.46,87.68,86.32,86.68,86.32,86.21Z"/><path class="sm_cls-9" d="M79.64,73.09A13.49,13.49,0,0,1,80,69.94a.82.82,0,0,1-.53-.93,7.73,7.73,0,0,1,.07-1.13l-.4.06c-.07.53-.13,1.2-.13,1.54s0,.2.2.47a.71.71,0,0,1,.13.8c0,.19-.2.87-.32,1.6.12.25.26.5.41.76l.12,0Z"/><path class="sm_cls-9" d="M84.19,80.74c-.21-.15-.66-.53-1.14-1a2.4,2.4,0,0,0,.07.49A3.52,3.52,0,0,1,82.9,80l0,0a7.5,7.5,0,0,1-1.46-1.34A1.06,1.06,0,0,1,81,78.5a2.24,2.24,0,0,0,1.19,1.58,6.08,6.08,0,0,1,1.53,1.32l.82,0A7.18,7.18,0,0,1,84.19,80.74Z"/><path class="sm_cls-9" d="M99.23,92c-.44,0-.88-.09-1.33-.16l.17.16.67.66.62-.51Z"/><path class="sm_cls-9" d="M99.32,93.27a6.62,6.62,0,0,1,1,1.35,6.35,6.35,0,0,0,1.46,1.74,6.21,6.21,0,0,1,1.47,1.8,5.19,5.19,0,0,0,1.47,2,2,2,0,0,1-.54-2.87,3.36,3.36,0,0,1-1.2-1.54,2.31,2.31,0,0,0-1.2-1.33,17.64,17.64,0,0,1-1.92-1.72C99.69,92.88,99.5,93.07,99.32,93.27Z"/><path class="sm_cls-9" d="M81.13,85.1h.27c.46-.09.88-.27,1.05-.16a.58.58,0,0,0,.33,0,1.61,1.61,0,0,0,.53-.18,1.22,1.22,0,0,1,.21,0,.93.93,0,0,1,.65,0,1.49,1.49,0,0,0,1.13.13,1.35,1.35,0,0,1,1-.07h0a.76.76,0,0,1,.33.33c.33.67.6.67.94.67a2.19,2.19,0,0,1,1.13.27,20.71,20.71,0,0,1,3.07,1.33l.25.17a7.85,7.85,0,0,0,2.44.24,33.82,33.82,0,0,0-4.57-2.26l.35.18-1.94-.27a2.77,2.77,0,0,1-.49-.55l-.31-.11a4,4,0,0,1-1.67-2.07,2.22,2.22,0,0,1-1-.83h-.71c.26.37.46.69.61.89.46.6,1,1,1.27,1.34-.87-.13-.67.4-2,.06l-.19,0a1.8,1.8,0,0,0-.33,0,13.78,13.78,0,0,0-1.6.33l.39,0A6.77,6.77,0,0,1,81.13,85.1Z"/><path class="sm_cls-10" d="M104.74,100.16c.13-1.4.13-2.34-.54-2.87A2,2,0,0,0,104.74,100.16Z"/><path class="sm_cls-9" d="M84.89,82c.89,0,1.73.17,2,.83a10,10,0,0,0,1,2.18,2.77,2.77,0,0,0,.49.55l1.94.27-.35-.18a4.07,4.07,0,0,1-2-2.29c-.25-1-.57-1.53-1.38-1.75l-.36-.07-.23,0-.49,0h0l-.9,0-.82,0c-1.84-.09-4.18-.22-4.86-.32-.44-.55-.83-1.13-1.14-1.55l0,.09.17.19-.45.26a7,7,0,0,1,.79,1.14l-.19.1.52,0a4.05,4.05,0,0,1-.41.38l.14,0a2.57,2.57,0,0,1,.5,0l.31,0c.22,0,.52.08.86.12l1,.09c1,.08,2.2.13,2.91.13l.39,0Z"/><path class="sm_cls-9" d="M116.06,75.41c-.07-.9-.18-2.73-.18-3.48l-.57.15c0,.12-.07.24-.11.36.12.69.26,2,.37,2.93A.63.63,0,0,0,116.06,75.41Z"/><path class="sm_cls-9" d="M120.68,74.81c-.4.27-.4.67-.8,1.33s-1.13.67-1.93,1.27a2.77,2.77,0,0,0,0-.73l-.4.2a11.27,11.27,0,0,0-.53,1.67,2.89,2.89,0,0,1-.35.66.93.93,0,0,1-.32.48c-.4.34-.34.87-.74,1.27a3,3,0,0,0,.06.54h0c.67-.54,1.34-.8,1.67-1.07a1.8,1.8,0,0,1,1.27-.33,7.18,7.18,0,0,0,2.47-.47c0-.13.2-.47.13-.67-1.8.93-3.27.2-3.87.53a13.42,13.42,0,0,0,.73-1.67,2.85,2.85,0,0,0,1.2-.4.32.32,0,0,1,.07.47c-.13.2.07.73.47.6.06-.33.33-.53.8-.67.13-.27-.27-.53-.54-.47a.55.55,0,0,1-.53-.2,3.51,3.51,0,0,0,.87-.87,1.47,1.47,0,0,1,.6-.74c.4-.27.6-.67,1.07-2.47a2.16,2.16,0,0,0-.47-.27A3.74,3.74,0,0,1,120.68,74.81Z"/><path class="sm_cls-9" d="M119.42,68a2.51,2.51,0,0,1,0,1.4,6.73,6.73,0,0,1-.87,1.67l0,0a.59.59,0,0,1,.48,0,.3.3,0,0,1,.19.31s0-.08.08-.11a2.3,2.3,0,0,1,.4.6c-.27.47-.13.87.2.8a.77.77,0,0,1,.73-.73c.13-.33-.07-.4-.54-.4a1.62,1.62,0,0,1-.53-.73c.13-.8.67-1.6.67-2a2,2,0,0,1,.6-1.27,2,2,0,0,0,.35-.53,4.8,4.8,0,0,0,.25-1.6l-.47-.4a1.88,1.88,0,0,0-.4,1.34,1.82,1.82,0,0,1-.15.67,4.67,4.67,0,0,1-.38.73c0-.2,0-.45,0-.73-.05-1.34-.1-3.5-.1-5.27a2.63,2.63,0,0,0-.73,0,14.63,14.63,0,0,1,.2,1.47c0,.2-.2.07-.2,0s-.13-.2-.2-.13a.79.79,0,0,1-.47.46c-.33.4.07.87.33.74s.27-.2.53,0a7.29,7.29,0,0,1-.07,2.4,2.08,2.08,0,0,0,0,.33A2.63,2.63,0,0,0,119.42,68Z"/><path class="sm_cls-9" d="M99.5,92.05l-.14.11-.62.51-.47.41c-.6.53-1.07.93-1.13,1.27s-.2.4-1.07,1.13-1.07.8-1.13,1.2a11.9,11.9,0,0,0-1.33,1.2,1.41,1.41,0,0,1,.13,2,2.72,2.72,0,0,0,.6-1,4,4,0,0,1,1.33-1.47,1.23,1.23,0,0,0,.74-.87,2.8,2.8,0,0,1,1-1.13,3.08,3.08,0,0,0,1.2-1.27,7.34,7.34,0,0,1,.72-.88c.19-.2.38-.39.57-.57s.48-.43.69-.6C100.23,92.1,99.87,92.08,99.5,92.05Z"/><path class="sm_cls-9" d="M117.95,76.68a9.08,9.08,0,0,0,.24-1.34A3.78,3.78,0,0,0,117.95,76.68Z"/><path class="sm_cls-9" d="M118.67,72.36c0-.09.07-.17.11-.25A.6.6,0,0,0,118.67,72.36Z"/><path class="sm_cls-9" d="M112.88,83.88a1,1,0,0,0,.28.05c.34-.29.72-.67,1.09-1-.09-.43-.06-.57.17-.69s.54-.67.27-.87l0-.06h0A24,24,0,0,1,111,83.75a5.9,5.9,0,0,0-.66.37c-.86.55-1.62,1.24-2.21,1.3a4.46,4.46,0,0,0,.21-1.34c-.33.33-.67.64-1,.93-.13,1.61-1.31,2.13-2.54,3l-.14.1,2.12-.48.36-.29c.79-.66,1.06-1.12,1.64-1.32h0l.62-.33a3.24,3.24,0,0,0,.85-.67c.34-.34,1-.35,1.72-.47a.8.8,0,0,1-.06-.33C112.28,83.88,112.41,83.68,112.88,83.88Z"/><path class="sm_cls-10" d="M93.59,97.89a1.46,1.46,0,0,0,.13,2A1.41,1.41,0,0,0,93.59,97.89Z"/><path class="sm_cls-9" d="M122.82,84.68c.2,0,.33.2.54.4a.47.47,0,0,0,.8-.07,1,1,0,0,1-.13-1.13c-.2-.4-.67,0-.8.13a.35.35,0,0,1-.47.13l-.28-.16a2.62,2.62,0,0,0-.34.3A1.94,1.94,0,0,0,122.82,84.68Z"/><path class="sm_cls-10" d="M124.15,85c1.67-.2,1-1.2-.13-1.13A1,1,0,0,0,124.15,85Z"/><path class="sm_cls-10" d="M119.82,78.47c.6.47,1.53.54.8-.67C120.15,77.94,119.88,78.14,119.82,78.47Z"/><path class="sm_cls-10" d="M120.62,71.94a.77.77,0,0,0-.73.73C120.75,73.21,121.35,72.8,120.62,71.94Z"/><path class="sm_cls-10" d="M118.95,63.06c-.27-.6-.67-.87-.87-.73s.07.8.4,1.2A.79.79,0,0,0,118.95,63.06Z"/><path class="sm_cls-4" d="M74.52,86.41a6.51,6.51,0,0,0-5.81,2.74,16.36,16.36,0,0,1,3.35-.77A7.21,7.21,0,0,1,74.52,86.41Z"/><path class="sm_cls-4" d="M75.85,86.68a1.86,1.86,0,0,1,.45-.58,9.16,9.16,0,0,1-1.32.13l-.46.17a7.21,7.21,0,0,0-2.46,2c-.54.62-1,1.13-1.42,1.23a3.91,3.91,0,0,0,4.77-2.16l0-.1A2.21,2.21,0,0,1,75.85,86.68Z"/><path class="sm_cls-4" d="M78.74,85.37h0a9.39,9.39,0,0,1-2.08.68,3,3,0,0,0-.76.63,2.21,2.21,0,0,0-.41.67l0,.1c-.2.67-.53,1.65-1.1,2,1,0,2.13-1.09,3.11-2.18A2.82,2.82,0,0,1,78.74,85.37Z"/><path class="sm_cls-4" d="M76.31,86.1l.31-.05a9.39,9.39,0,0,0,2.08-.68l.41-.21a4.33,4.33,0,0,1-1.28-.66c-2.46-.19-4.65,1.45-5.25,1.45a8.74,8.74,0,0,0,2.4.29A9.16,9.16,0,0,0,76.31,86.1Z"/><path class="sm_cls-4" d="M80.26,86.52a11,11,0,0,1,1.86-1.57,1.4,1.4,0,0,1-.72.16h-.27a3.49,3.49,0,0,1-1.95.08,2.32,2.32,0,0,0-.44.18,2.82,2.82,0,0,0-1.32,1.87,7.36,7.36,0,0,0-.18.78,3.42,3.42,0,0,1,2.2-1.07l.14-.05a3.72,3.72,0,0,1-.47-.68A2.76,2.76,0,0,1,80.26,86.52Z"/><path class="sm_cls-4" d="M79.19,85.18a3.49,3.49,0,0,0,1.95-.08,6.77,6.77,0,0,0,1.19-.49l-.39,0c-1.89-.28-3-1.63-5.41-.76a2.85,2.85,0,0,1,1.31.69,4.33,4.33,0,0,0,1.28.66Z"/><path class="sm_cls-4" d="M76.43,81.19c-2.1-1.78-2.58-2.3-5.59-2.12a17.47,17.47,0,0,0,2.23,1.78A9.82,9.82,0,0,1,76.43,81.19Z"/><path class="sm_cls-4" d="M78,81.31l-1.5-.09a7.57,7.57,0,0,1-4.25,1.33c-.31.68-.51,1.45-1,1.79,1.4-.94,2.94-.6,4-1.07a9.48,9.48,0,0,0,2.86-1.55,4.05,4.05,0,0,0,.41-.38Z"/><path class="sm_cls-4" d="M76.49,81.22h0l-.08,0a9.82,9.82,0,0,0-3.36-.34,6.13,6.13,0,0,0-3.63,1.56,27.2,27.2,0,0,1,2.8.15A7.57,7.57,0,0,0,76.49,81.22Z"/><path class="sm_cls-4" d="M83.92,58.79a12.26,12.26,0,0,0-1.2,5.31,6,6,0,0,1,1.08-1.52C84,60.82,83.79,59.05,83.92,58.79Z"/><path class="sm_cls-4" d="M84,62.4l-.18.19a6,6,0,0,0-1.08,1.52,4.4,4.4,0,0,0-.34.92,11.42,11.42,0,0,1,.25,2A25.08,25.08,0,0,0,84,62.4Z"/><path class="sm_cls-4" d="M82.52,66.93c0,.06.07.14.11.2s0-.09,0-.14h0a11.42,11.42,0,0,0-.25-2,7.76,7.76,0,0,0-1-2.56A8.08,8.08,0,0,0,81.25,67c.28,1.09.72,2,.92,2.75A10.35,10.35,0,0,0,82.52,66.93Z"/><path class="sm_cls-4" d="M82.42,72.62a6,6,0,0,0,.2-5.48c0-.07-.07-.14-.11-.2a10.35,10.35,0,0,1-.36,2.81c-.05.3-.1.61-.14.92l0,.07A7.23,7.23,0,0,1,82.42,72.62Z"/><path class="sm_cls-4" d="M82.42,72.62a7.23,7.23,0,0,0-.37-1.88l0-.07c-.42-1.11-1.37-2.14-1.57-2.93-.66,2.47,1,5.42,1.68,7.2a5.66,5.66,0,0,1,.31-.91A12,12,0,0,0,82.42,72.62Z"/><path class="sm_cls-4" d="M73.18,74.67a7.6,7.6,0,0,1-.7-1.38,7.73,7.73,0,0,1-.7-1.69c-.47-2-2.2-1.8-2.87-2.8.93,3.27,1.54,3.6,2.2,4.07A15.58,15.58,0,0,1,73,74.6h0A1.42,1.42,0,0,1,73.18,74.67Z"/><path class="sm_cls-4" d="M74.84,76.25c-.32-1.68.4-2.67-2.53-5.71a4.29,4.29,0,0,0,.17,2.75,7.6,7.6,0,0,0,.7,1.38A3.62,3.62,0,0,1,74.84,76.25Z"/><path class="sm_cls-4" d="M74.84,76.25a3.62,3.62,0,0,0-1.66-1.58,1.42,1.42,0,0,0-.2-.07h0c-1.13-.19-2.19.27-2.92-.53.76,2.46,3.95,1.82,5.14,3.6a2.35,2.35,0,0,1,.49.17A11.85,11.85,0,0,0,74.84,76.25Z"/><path class="sm_cls-4" d="M77.68,79.62l0-.09c.52-1.85-.71-4-1.39-5.19a4.87,4.87,0,0,0,0,3.88A10.2,10.2,0,0,1,77.68,79.62Z"/><path class="sm_cls-4" d="M77.68,79.62a10.2,10.2,0,0,0-1.38-1.39,3.13,3.13,0,0,0-.63-.39,2.35,2.35,0,0,0-.49-.17,3.62,3.62,0,0,0-.74-.06,4.87,4.87,0,0,1-2.8-.6c.67,2.13,4.27,1.4,5.74,3.07h0l.45-.26Z"/><path class="sm_cls-4" d="M76.27,62.42c-.28-1.27-.66-2.12-.49-2.82A7.46,7.46,0,0,0,74.7,64a3.72,3.72,0,0,1,1,1.63A7.46,7.46,0,0,1,76.27,62.42Z"/><path class="sm_cls-4" d="M75.7,65.62a2.7,2.7,0,0,1,.08.31,6.09,6.09,0,0,0,.49,1.69,3.41,3.41,0,0,1,.12-.62c.3-1,1-1.18.86-3-.07-1.2-.33-2.54.2-3.34a5.4,5.4,0,0,0-1.18,1.75A7.46,7.46,0,0,0,75.7,65.62Z"/><path class="sm_cls-4" d="M76.9,70.17c0-.14,0-.27,0-.4a7.42,7.42,0,0,0-.61-2.15,6.09,6.09,0,0,1-.49-1.69,2.7,2.7,0,0,0-.08-.31,3.72,3.72,0,0,0-1-1.63c-.65-.66-1.37-1.14-1.52-1.59.38,2.43.81,4,1.46,4.6a1.63,1.63,0,0,0,.14.13,4.1,4.1,0,0,1,.79.95,7.61,7.61,0,0,1,.43.79c.12.24.22.49.32.76A2.5,2.5,0,0,1,76.9,70.17Z"/><path class="sm_cls-4" d="M76.88,69.77c0,.13,0,.27,0,.4a9.63,9.63,0,0,1,1.29,2.74h0c-.67-2,1.19-2-.59-5.9l-.09-.2-.06.2A8.45,8.45,0,0,0,76.88,69.77Z"/><path class="sm_cls-4" d="M78.19,72.91a9.63,9.63,0,0,0-1.29-2.74,2.5,2.5,0,0,0-.58-.54L76,69.47c-.73-.4-2.07-.93-2.33-1.54A3.69,3.69,0,0,0,75.78,71a8.83,8.83,0,0,1,2.4,2Z"/><path class="sm_cls-4" d="M80.39,76.89a6.45,6.45,0,0,1-.45-2.51,4,4,0,0,0-.13-.46.5.5,0,0,1-.29.09.46.46,0,0,1-.12-.91c-.15-.26-.29-.51-.41-.76a2.25,2.25,0,0,1-.28-.93,4.2,4.2,0,0,0-.52,1.49h0V73a4,4,0,0,0,.33,2.08C79.14,75.65,79.81,76.27,80.39,76.89Z"/><path class="sm_cls-4" d="M80.39,76.89c-.58-.62-1.25-1.24-1.88-1.81a9.63,9.63,0,0,1-2.07-2.21,5,5,0,0,0,2.67,4.4,5.48,5.48,0,0,1,1.67,1.07,1.09,1.09,0,0,0,.21.16,1.06,1.06,0,0,0,.47.18A6.61,6.61,0,0,1,80.39,76.89Z"/><path class="sm_cls-4" d="M82,75.78a2.51,2.51,0,0,0-.26-.71,7.14,7.14,0,0,1-1.2-3,4.21,4.21,0,0,0-.5,1.46.55.55,0,0,1,0,.11,6.24,6.24,0,0,0-.06.73,6.45,6.45,0,0,0,.45,2.51,6.61,6.61,0,0,0,1.07,1.78A7.5,7.5,0,0,0,82.92,80l0,0A6.49,6.49,0,0,1,82,75.78Z"/><path class="sm_cls-4" d="M83.65,77.07c.33-.73-.73-2.47-.53-4.2A4.59,4.59,0,0,0,82.44,74a5.66,5.66,0,0,0-.31.91,6.56,6.56,0,0,0,.77,5,3.52,3.52,0,0,0,.22.31,2.4,2.4,0,0,1-.07-.49A5.8,5.8,0,0,1,83.65,77.07Z"/><path class="sm_cls-4" d="M81.32,57.5A10.34,10.34,0,0,0,83.45,53a6.08,6.08,0,0,0-2.6,3.2,11.69,11.69,0,0,1-.5,2.42A8,8,0,0,1,81.32,57.5Z"/><path class="sm_cls-4" d="M80.08,59a9.51,9.51,0,0,0-.3-4.69,6.76,6.76,0,0,1-.93,2.33c-.39.84-.33,2.31.39,4.46a6.15,6.15,0,0,1,.47-1.45C79.82,59.46,79.94,59.24,80.08,59Z"/><path class="sm_cls-4" d="M80.92,59.93c2.8-2.2,2.27-3.67,3.27-4.47a13,13,0,0,0-2.87,2,8,8,0,0,0-1,1.11c-.1.14-.19.27-.27.4s-.27.45-.37.65a6.15,6.15,0,0,0-.47,1.45,7.14,7.14,0,0,0-.08,2.11l.45-.59C79.43,61.23,79.76,60.86,80.92,59.93Z"/><path class="sm_cls-4" d="M79.12,67.93l.4-.06c.11-.28.21-.57.3-.87a15.51,15.51,0,0,0,.56-5.67,7.17,7.17,0,0,1-.77,1.3l-.45.59a3.41,3.41,0,0,0-.71,1.71A3,3,0,0,0,79,67,1.51,1.51,0,0,1,79.12,67.93Z"/><path class="sm_cls-4" d="M124.69,88.28a.78.78,0,0,1-.83.41c-.12.59-.29,1-.1,1.39.27.54.46.4.73.07s.6,0,.33.4a.88.88,0,0,0,.2,1.07c.27.27.6.07.87-.13a.55.55,0,0,0,.13-.73c-.13-.2,0-.53.33-.87s.4-1-.07-1.13a1.44,1.44,0,0,1-.85-.62C125,87.94,124.81,87.83,124.69,88.28Z"/><path class="sm_cls-4" d="M123.08,86.61c.4.47.33.74.13.8s-.33.2-.13.6a1.44,1.44,0,0,1,.17.36.83.83,0,0,0,.6.32.78.78,0,0,0,.83-.41c.13-.45.27-.34.75-.16l.05,0c.47.2.73,0,1.07-.4s-.13-.87-.73-1.14-.67-.53-.47-.6,0-.4-.6-.47a11.29,11.29,0,0,0-4,.37A2.26,2.26,0,0,1,123.08,86.61Z"/><path class="sm_cls-4" d="M122.35,88.68c-.07-.27-.2-.33-.54-.07s-.73-.2-.67-.6a.68.68,0,0,0-.07-.73c-.07-.2-.4-.13-.33.2s-.13.6-.46.47a.94.94,0,0,1-.54-.93,2.67,2.67,0,0,1,.06-.26,2.11,2.11,0,0,0-.67,1.86c.2.4.33.6.27.87s.13.53.4.33.33,0,.26.27a.39.39,0,0,0,.6.4c.33-.2.6-.07.67.27s1.13.27,1-.2-.13-.67.2-.73c.18-.09.26-.39.26-.76C122.56,89,122.35,88.88,122.35,88.68Z"/><path class="sm_cls-4" d="M118.15,84.48c.47-.47.73-.67,1-.4s.67.07.67-.6.2-1.67.73-1.4l.26.14a4.07,4.07,0,0,1,.47-.87c.27-.47-.2-.8-.73-.73s-.87.27-.93.47a.74.74,0,0,1-.6.47.92.92,0,0,0-.6.87,5,5,0,0,1-1.4,1.8,1.74,1.74,0,0,1-.78.5A7.27,7.27,0,0,1,117,85,2,2,0,0,0,118.15,84.48Z"/><path class="sm_cls-4" d="M119.82,83.48c0,.67-.4.87-.67.6s-.53-.07-1,.4A2,2,0,0,1,117,85a5,5,0,0,1,.83.39,4.29,4.29,0,0,0,.57.24l.3,0c.53,0,1.14-.27,1.47-.27s.47-.13.67-.33.27-.33.6-.2.4.07.53-.26a.88.88,0,0,1,.18-.26,2.62,2.62,0,0,1,.34-.3l.42-.31c.27-.13.33-.47.07-.6s-.13-.4.27-.67.4-.73-.13-1.2a1.05,1.05,0,0,0-1.6.53c-.21.58-.38.62-.68.47l-.26-.14C120,81.81,119.75,82.81,119.82,83.48Z"/><path class="sm_cls-4" d="M117.48,85.62a4.11,4.11,0,0,0,1.87.6c.56.1.54.28.46.54a2.67,2.67,0,0,0-.06.26.94.94,0,0,0,.54.93c.33.13.53-.13.46-.47s.27-.4.33-.2a.68.68,0,0,1,.07.73c-.07.4.33.87.67.6s.47-.2.54.07.21.35.46.37a.63.63,0,0,0,.28,0c.24-.1.27-.36.17-.65a1.44,1.44,0,0,0-.17-.36c-.2-.4-.07-.53.13-.6s.27-.33-.13-.8a2.26,2.26,0,0,0-2.35-.69l-.25,0a5.6,5.6,0,0,1-2.1-.36,4.29,4.29,0,0,1-.57-.24A5,5,0,0,0,117,85a7.27,7.27,0,0,0-.75-.24c-.23-.06-.47-.11-.72-.16a1.68,1.68,0,0,1-.59.38A7.59,7.59,0,0,1,117.48,85.62Z"/><path class="sm_cls-4" d="M114.68,81.34c.27.2.07.67-.27.87s-.26.25-.17.69l0,.18c.06.56-.6.88-1.12.85a1,1,0,0,1-.28-.05c-.47-.2-.6,0-.94.33a.8.8,0,0,0,.06.33c.08.18.25.25.61.34.54.07,1.4.4,1.93.2l.38-.15a1.68,1.68,0,0,0,.59-.38.42.42,0,0,0,.1-.47c-.13-.4.07-.6.27-.93a1,1,0,0,0,0-1.07,1.94,1.94,0,0,1-.21-.6,3,3,0,0,1-.06-.54A1.72,1.72,0,0,1,114.68,81.34Z"/><path class="sm_cls-4" d="M119.87,61h0c.27-.87.94-2.4,1.74-2.54.47,0,.8-.13.8-.33a.34.34,0,0,1,.33-.4c.2-.07.27-.4.07-.67a.65.65,0,0,1,.2-.94.67.67,0,0,0,.4-1,.84.84,0,0,0-1.47.33c-.2.33-.27.47-.53.33a.6.6,0,0,0-.94.6,3.09,3.09,0,0,1-.2,2.4,1.2,1.2,0,0,0-.15.24c-.14.58-.29,1.28-.35,1.73A1.35,1.35,0,0,1,119.87,61Z"/><path class="sm_cls-4" d="M118.62,58.73c.27-.07.47.33.53.67,0,.75.43,1,.64,1.44.06-.46.21-1.15.35-1.73.08-.32.15-.6.21-.78a1.13,1.13,0,0,0-.4-1.27c-.33-.07-.33-.2-.13-.73.4-.93,0-1.2-.47-1.4s-.67-.4-.73-.73a.72.72,0,0,0-1-.47c-.47.13-.67.73-.33,1s.2.6,0,.87-.07.8.53.67c-.13.2.13.6.4.8s.15.36-.07.75a1.59,1.59,0,0,1,.07.46C118.21,58.66,118.28,58.73,118.62,58.73Z"/><path class="sm_cls-4" d="M119.88,61.73a1.61,1.61,0,0,0,0-.68,1.35,1.35,0,0,0-.08-.21c-.21-.43-.59-.69-.64-1.44-.06-.33-.27-.73-.53-.67s-.4-.07-.4-.47a1.59,1.59,0,0,0-.07-.46c-.1-.32-.3-.57-.67-.48-.54.07-.67-.07-.8-.4s-.73-.4-1.13,0-1,1.4.2,1.27c.53-.07.8,0,.53.27s-.4,1,.47,1.07a2.84,2.84,0,0,1,1.07.27c-.53.13-.53.47-.13.67s1.33.33,1.47,1.27A2.63,2.63,0,0,1,119.88,61.73Z"/><path class="sm_cls-4" d="M123.22,60.79c-.13.2,0,.33.2.47a.23.23,0,0,1,.09.1c.49-.2.84,0,.84.23s.2.47.47.4a2.36,2.36,0,0,1,.93.07c.47.07.33-.07.33-.4s.07-.47.33-.13.6.2.73,0-.06-.8-.4-1.07-.53-.4-.4-.6.27-.2-.27-.33a3,3,0,0,0-2.85,1A.2.2,0,0,1,123.22,60.79Z"/><path class="sm_cls-4" d="M122.82,63.86c.4-.27.67-.73.33-.93a.43.43,0,0,1-.07-.8c.38-.28.53-.59.42-.77a.23.23,0,0,0-.09-.1c-.2-.13-.33-.27-.2-.47a.2.2,0,0,0,0-.27,1.08,1.08,0,0,0-.16-.2c-.2-.13-.13-.33,0-.53s0-.53-.6-.27a1.29,1.29,0,0,0-.8,1.07c0,.27.07.4-.4.54a.75.75,0,0,0-.4,1c.2.27.33.47.67.53s.4.47,0,.33-.87-.06-.67.47-.13,1.07.07,1.53l.47.4A6.34,6.34,0,0,1,122.82,63.86Z"/><path class="sm_cls-4" d="M126.89,69.87c.33-.6.8-.53.67-.07s.07.47.6-.2a2.4,2.4,0,0,1,2-1c.32-.59.19-1.3-.26-1.3a2.9,2.9,0,0,0-2.07.6c-1.07-1.07-1.27.13-1.6,1.13a.89.89,0,0,0-.73-.07,4,4,0,0,1-.71,2.57l.71-.24C126.15,71.14,126.55,70.4,126.89,69.87Z"/><path class="sm_cls-4" d="M122.44,72.87a2.88,2.88,0,0,1,2.85-.33c.93.6,2.07,1.07,2.6.74a2.5,2.5,0,0,1,1.6-.4.83.83,0,0,0,1-.27c.13-.27.13-.47.53-.6s.47-1.13-1.2-1.07c-.2-.47.07-.6.4-1s.6-.8.13-1.2a.5.5,0,0,0-.21-.1,2.4,2.4,0,0,0-2,1c-.53.67-.67.73-.6.2s-.33-.54-.67.07-.73,1.27-1.4,1.47l-.71.24c-.45.15-1,.35-1.51.56A3.91,3.91,0,0,1,122.44,72.87Z"/><path class="sm_cls-4" d="M125.22,66.53c.2-.27-.4-.6-1-.07a1.3,1.3,0,0,0-.35.53,1.81,1.81,0,0,0-.05,1.13c.13.4-.33.33-.67.27a1.22,1.22,0,0,0,.14-1.4,1,1,0,0,0-.28-.27c-.49-.37-.64-.17-1,.27l-.1.13c-.27.33-.33.67-.2.87s.07.46-.2.67-.33.53,0,.8.27.47-.07.87a1,1,0,0,0-.06,1.27,1.93,1.93,0,0,1,.2,1.2,2.16,2.16,0,0,1,.47.27,2.51,2.51,0,0,0,.36-.2,3.91,3.91,0,0,0,.83-.73,1.29,1.29,0,0,0,.35-.66,1.45,1.45,0,0,1,.73-1.07c.47-.27.73-.8.47-1.07s-.27-.67.13-.8.67-.6.47-.87a1.42,1.42,0,0,1-.24-.67A1,1,0,0,1,125.22,66.53Z"/><path class="sm_cls-4" d="M118.35,75.07c.67-.6.13-1.4.6-1.8s.4-.8,0-.74c-.2,0-.28-.07-.27-.18a.6.6,0,0,1,.11-.25,2.2,2.2,0,0,1,.17-.23,1,1,0,0,0,.26-.49.3.3,0,0,0-.19-.31.59.59,0,0,0-.48,0,1.2,1.2,0,0,0-.58.5,3.13,3.13,0,0,1,.47-1.27c.27-.33.27-.8-.13-.93s-1.4.2-.87,1.6c-.13-.33-.4-.27-.73.27a.81.81,0,0,0,.07,1.07c.27.27.33.53.13.8s-.07.67.27,1a1.26,1.26,0,0,1,.34,1.2,6,6,0,0,0,.07,1.54l.4-.2a3.78,3.78,0,0,1,.24-1.34A.87.87,0,0,1,118.35,75.07Z"/><path class="sm_cls-4" d="M116.68,78.68a1.17,1.17,0,0,1,.27-.8.8.8,0,0,0-.27-.93c-.33-.33-.4-.67-.07-1s-.07-.67-.33-.6l-.21.07a.63.63,0,0,1-.49,0,1,1,0,0,1-.23-.17c-.4-.33-.53.13-.33.47s-.4.33-.07.73c.13.2.2.47.33.73-.6-.33-.87.4-.67,1.07a1.84,1.84,0,0,1-.07,1.6,1.11,1.11,0,0,0-.28.63.92.92,0,0,0,.1.43,1.75,1.75,0,0,0,.27.41l0,.06a1.72,1.72,0,0,0,.93-.4c.4-.4.33-.93.74-1.27a.93.93,0,0,0,.32-.48A1.13,1.13,0,0,0,116.68,78.68Z"/><path class="sm_cls-4" d="M126.82,80.28c-.4-.47-.74-.6-.74-.07s-.47.53-1.07.2a4.27,4.27,0,0,0-3.94-.8,2.18,2.18,0,0,1,1.87.87c.4.54.87,1,1.2.8a.8.8,0,0,1,1,0,.76.76,0,0,0,1,.2.59.59,0,0,1,.73,0c.38.13,1.22.24.8-1C127.33,80.65,127.13,80.59,126.82,80.28Z"/><path class="sm_cls-4" d="M122.08,78.74a2.06,2.06,0,0,0,.87-.33.92.92,0,0,1,1-.07,1.21,1.21,0,0,0,1.07-.07.9.9,0,0,1,1.13,0,.89.89,0,0,0,.35.27c1.34-1,.76-1.28-.28-1.73s-1.47,0-1.54.33-.2.33-.6.13a.75.75,0,0,0-.94.33c-.07.2-.2.27-.47.27a1.69,1.69,0,0,0-1.09.88A.85.85,0,0,1,122.08,78.74Z"/><path class="sm_cls-4" d="M121.08,79.61a4.27,4.27,0,0,1,3.94.8c.6.33,1.07.27,1.07-.2s.33-.4.74.07c.31.31.51.37.86.2a2.76,2.76,0,0,0,.33-.2c.67-.47.67-.73.27-1.2a1,1,0,0,0-1.07-.47,1.28,1.28,0,0,1-.72-.07.89.89,0,0,1-.35-.27.9.9,0,0,0-1.13,0,1.21,1.21,0,0,1-1.07.07.92.92,0,0,0-1,.07,2.06,2.06,0,0,1-.87.33.85.85,0,0,0-.49,0,1,1,0,0,0-.37.19C121.28,79.14,121.08,79.48,121.08,79.61Z"/><path class="sm_cls-8" d="M80,73.65a.55.55,0,0,0,0-.11.45.45,0,0,0-.38-.44l-.12,0-.12,0a.46.46,0,0,0,.12.91.5.5,0,0,0,.29-.09A.43.43,0,0,0,80,73.65Z"/><path class="sm_cls-8" d="M79,80.94a.5.5,0,1,0,0-1A.5.5,0,0,0,79,80.94Z"/><path class="sm_cls-8" d="M83.59,79.61a.5.5,0,0,0,0-1A.5.5,0,1,0,83.59,79.61Z"/><path class="sm_cls-6" d="M112.28,88.42a9.67,9.67,0,0,0-1.8.54c.33-1.2-1.07-2-2.47-1.6l-1.23.29-2.12.48a21.93,21.93,0,0,1-2.39.44,7.2,7.2,0,0,0-.85.11c-.61.26-1.22.48-1.82.69l-.19-.07h0l-.19-.07L98,88.76a11.48,11.48,0,0,0-3.36-.87h-.18A7.85,7.85,0,0,1,92,87.65l-.38-.1a3,3,0,0,0-2.87.4c-.53.54-.87.93-.27,1.54a10.31,10.31,0,0,1-2.76-1l-.17-.12a4.1,4.1,0,0,0-1.32-.61,5.15,5.15,0,0,0-1.35-.19,6.68,6.68,0,0,1-2.66-1,2.76,2.76,0,0,0-1.14-.31,3.72,3.72,0,0,0,.47.68,8.29,8.29,0,0,0,2.53,1.79c-2.34.2-4.47.14-5.34-.27a19.73,19.73,0,0,1,2.07,1.33,3.21,3.21,0,0,0,2.33.47c1.14-.13,2.14-.07,2.54.6a3.12,3.12,0,0,0,1.93,1.4c1.4.6,2,.6,2.4,1.87a5.78,5.78,0,0,0,1.87,3.34c1.07.8,1.87.47,2.2-.53s.4-1.67.6-2.2c1.47.4,2.34.4,2.54-.8a5.87,5.87,0,0,1,.87-2.33c.58.12,1.17.22,1.76.31s.9.12,1.33.16l.27,0c.37,0,.73.05,1.08.05a6.24,6.24,0,0,0,2-.22c.33.73.13,1.6.73,2.27a2.34,2.34,0,0,0,2.13.53c.67.8-.06,1.6,1,2.4s1.93.06,2.54-1.14,1.4-3.13,3.47-3.94a7.94,7.94,0,0,0,2.8-1.6,4.44,4.44,0,0,1,1.93-1.07,4.14,4.14,0,0,0,2.14-2,2.21,2.21,0,0,0-1.87.6,3.41,3.41,0,0,1-1.73.54,3.17,3.17,0,0,0-1.93.73c1-1,1.87-.87,2.6-1.6s1-.93,1.6-1a4,4,0,0,0,1.33-.4,3.69,3.69,0,0,0-3.13.4l-.7.41a18,18,0,0,1-2.94,1.33ZM92.26,90a.37.37,0,0,1-.33.2,4.68,4.68,0,0,0-1,.07c-.27,0-.2-.2-.07-.27s.07-.13.07-.2a8.54,8.54,0,0,0-.13-1.2c0-.13-.07-.13-.07-.13-.27.07-.2-.2-.07-.27a1.64,1.64,0,0,1,.6-.13c.2,0,.2.2.07.27s-.13.07-.07.2.13,1,.13,1.13,0,.27.2.27.33.07.46-.27.27-.13.27-.07S92.26,89.88,92.26,90Zm1.07.27c-.2,0-.27-.07-.47-.07s-.13-.2-.06-.2.06-.13.06-.27V88.55c0-.13-.06-.13-.2-.2s0-.2.13-.2a1.42,1.42,0,0,1,.53.07c.2,0,.14.13.07.2s-.07.07-.07.13v1.13c0,.13-.06.2.07.27A.14.14,0,0,1,93.33,90.22Zm2.6.4a1,1,0,0,1-.87.13c-.2-.07-.67-.27-1-.4s-.07-.2.07-.27.07-.13.07-.27a6.7,6.7,0,0,1,.13-.87.35.35,0,0,0-.13-.27c-.2-.13-.13-.33.13-.27A2.71,2.71,0,0,1,95.8,89a.58.58,0,0,1-.07.87A.66.66,0,0,1,95.93,90.62Zm2.2.8a.3.3,0,0,1-.33,0,12.52,12.52,0,0,0-1.33-.33c-.27-.07-.13-.33.06-.33s.13-.07.2-.2a5.08,5.08,0,0,1,.2-.87.2.2,0,0,0-.07-.27c-.13-.13,0-.47.33-.33a4.46,4.46,0,0,0,.8.4c.13,0,.2.07.33,0s.13.13.2.2v.4c0,.13-.14.2-.2,0s-.13-.13-.13-.2-.07-.07-.13-.13a4.28,4.28,0,0,0-.47-.13c-.07-.07-.13-.07-.13,0s0,.27-.07.27-.07.13.07.13a.12.12,0,0,0,.2,0c.07-.13.2,0,.2.07a.72.72,0,0,1,.13.4c0,.13-.13.13-.2.07l-.2-.2c0-.07-.07-.07-.13-.07s-.13-.07-.2,0-.07.33-.07.4-.13.2,0,.27a4.14,4.14,0,0,1,.73.2c.13.07.2-.07.33-.13s.27.13.2.2S98.27,91.35,98.13,91.42Zm2.27,0a6.25,6.25,0,0,1-.4-.73c-.07-.13-.13-.13-.2-.13h-.2c-.07,0-.2-.07-.2.07v.67c0,.07.06.07.2.13s.07.2-.07.2a1.63,1.63,0,0,0-.6-.07c-.2,0-.13-.27,0-.27s.07-.07.07-.13c0-.27.07-.8.07-1.07V90c0-.07-.07-.07-.13-.07s-.2-.33.07-.33.67-.07,1-.07a.58.58,0,0,1,.6.4.63.63,0,0,1-.33.67c.07.07.27.47.33.53s.06.2.33.27.07.2,0,.2h-.33C100.53,91.55,100.47,91.55,100.4,91.42Zm2.27-.2a3.45,3.45,0,0,0-.74.13c-.2.07-.2-.13-.06-.2a.37.37,0,0,0,.13-.33v-1c0-.13-.07-.13-.13-.13a.41.41,0,0,0-.27.07c-.06.07-.13.2-.2.27s-.27,0-.13-.2a.51.51,0,0,1,.13-.33.35.35,0,0,1,.27-.13,3.32,3.32,0,0,0,1-.2.46.46,0,0,1,.47.07c0,.07.13.2.13.27s.07.27,0,.33a.36.36,0,0,1-.27-.2.37.37,0,0,0-.33-.13c-.13.07-.27.07-.27.2v1.07c0,.2.13.2.27.27S102.8,91.22,102.67,91.22Zm3.73-.93c-.13,0-.53.07-.67.07s-.07-.13,0-.2V90l-.2-.2c-.07-.07-.07-.07-.2-.07s-.13.07-.27.07-.27.07-.33.13-.2,0-.27.2,0,.27.07.27.13.2,0,.2-.47.13-.67.2-.2-.2,0-.27.27-.07.27-.2.27-1,.33-1.07-.07-.13-.07-.13-.13.07-.2.2-.2.13-.2-.07a.47.47,0,0,1,.27-.33c.4-.13.87-.33,1.07-.4a.51.51,0,0,1,.6.13c.13.2,0,.27-.2.14s-.2,0-.34,0a.13.13,0,0,0,0,.2c.27.33.47.67.67.93s.2.07.33.13S106.54,90.29,106.4,90.29Zm2.47-1.87a2.16,2.16,0,0,0-.2.4c-.07.13-.27.06-.27,0s-.07-.14-.13-.2-.4-.07-.47.07-.06.27.4.33a.58.58,0,0,1,.33.93c-.27.4-.94.27-1.14.13s-.13,0-.33.13-.2,0-.2-.07a2.17,2.17,0,0,1,.13-.53c.07-.2.2-.2.27-.07s.07.27.27.27.6.13.67-.13.07-.47-.4-.4-.73-.33-.6-.67.67-.4,1-.33.27.07.33,0S108.94,88.28,108.87,88.42Z"/><path class="sm_cls-6" d="M94.73,89.68V90a.4.4,0,0,0-.07.27c.4.2.87.33.93.13S95.46,89.82,94.73,89.68Z"/><path class="sm_cls-6" d="M104.8,89.28c-.07.4-.2.4.13.33s.54-.07.27-.27S104.94,89,104.8,89.28Z"/><path class="sm_cls-6" d="M99.46,89.82v.47c.34.07.73.07.8-.2S99.87,89.82,99.46,89.82Z"/><path class="sm_cls-6" d="M95.4,89.55c.27,0,.33-.27.13-.47a1.87,1.87,0,0,0-.73-.27V89a.72.72,0,0,1-.07.33C94.93,89.42,95.26,89.48,95.4,89.55Z"/><path class="sm_cls-7" d="M92.06,89.62c-.13.33-.33.27-.46.27s-.2-.13-.2-.27-.13-.93-.13-1.13,0-.13.07-.2.13-.27-.07-.27a1.64,1.64,0,0,0-.6.13c-.13.07-.2.34.07.27,0,0,.07,0,.07.13a8.54,8.54,0,0,1,.13,1.2c0,.07,0,.2-.07.2s-.2.27.07.27a4.68,4.68,0,0,1,1-.07.37.37,0,0,0,.33-.2c0-.07.07-.27.07-.4S92.13,89.42,92.06,89.62Z"/><path class="sm_cls-7" d="M93.33,89.68V88.55c0-.07,0-.13.07-.13s.13-.2-.07-.2a1.42,1.42,0,0,0-.53-.07c-.13,0-.27.07-.13.2s.2.07.2.2v1.13c0,.13.07.2-.06.27s-.13.27.06.2.27.07.47.07a.14.14,0,0,0,.07-.27C93.26,89.88,93.33,89.82,93.33,89.68Z"/><path class="sm_cls-7" d="M95.73,89.82A.58.58,0,0,0,95.8,89a2.71,2.71,0,0,0-1.47-.54c-.27-.07-.34.13-.13.27a.35.35,0,0,1,.13.27,6.7,6.7,0,0,0-.13.87c0,.13,0,.2-.07.27s-.27.27-.07.27.8.33,1,.4a1,1,0,0,0,.87-.13A.66.66,0,0,0,95.73,89.82Zm-.93-1a1.87,1.87,0,0,1,.73.27c.2.2.13.47-.13.47s-.47-.13-.67-.2A.72.72,0,0,0,94.8,89Zm.8,1.53c-.06.2-.53.07-.93-.13a.4.4,0,0,1,.07-.27v-.27C95.46,89.82,95.73,90.08,95.6,90.35Z"/><path class="sm_cls-7" d="M98.27,91c-.13.07-.2.2-.33.13a4.14,4.14,0,0,0-.73-.2c-.13-.07-.07-.13,0-.27s.07-.33.07-.4.07-.07.2,0,.13,0,.13.07l.2.2c.07.07.2.07.2-.07a.72.72,0,0,0-.13-.4c0-.07-.13-.2-.2-.07a.12.12,0,0,1-.2,0c-.13,0-.07-.07-.07-.13s.07-.2.07-.27.07-.07.13,0a4.28,4.28,0,0,1,.47.13c.07.07.13.07.13.13s.07.13.13.2.2.13.2,0v-.4c-.07-.07-.14-.2-.2-.2s-.2,0-.33,0a4.46,4.46,0,0,1-.8-.4c-.33-.13-.46.2-.33.33a.2.2,0,0,1,.07.27,5.08,5.08,0,0,0-.2.87c-.07.13-.07.2-.2.2s-.33.27-.06.33a12.52,12.52,0,0,1,1.33.33.3.3,0,0,0,.33,0c.13-.07.2-.13.33-.2S98.4,90.88,98.27,91Z"/><path class="sm_cls-7" d="M100.93,91.55c.07,0,.13-.2,0-.2s-.33-.13-.33-.27-.27-.47-.33-.53a.63.63,0,0,0,.33-.67.58.58,0,0,0-.6-.4c-.33,0-.8.07-1,.07s-.27.33-.07.33.13,0,.13.07v.13c0,.27-.07.8-.07,1.07,0,.07,0,.13-.07.13s-.2.27,0,.27a1.63,1.63,0,0,1,.6.07c.13,0,.13-.2.07-.2s-.2-.07-.2-.13v-.67c0-.13.13-.07.2-.07h.2c.06,0,.13,0,.2.13a6.25,6.25,0,0,0,.4.73c.07.13.13.13.2.13Zm-1.47-1.27v-.47c.4,0,.8,0,.8.27S99.8,90.35,99.46,90.29Z"/><path class="sm_cls-7" d="M102.67,91c-.13-.07-.27-.07-.27-.27V89.68c0-.13.13-.13.27-.2a.37.37,0,0,1,.33.13.36.36,0,0,0,.27.2c.07-.07.13-.13,0-.33s-.13-.2-.13-.27a.46.46,0,0,0-.47-.07,3.32,3.32,0,0,1-1,.2.35.35,0,0,0-.27.13.51.51,0,0,0-.13.33c-.13.2.07.33.13.2s.13-.2.2-.27a.41.41,0,0,1,.27-.07c.06,0,.13,0,.13.13v1a.37.37,0,0,1-.13.33c-.13.07-.13.27.06.2a3.45,3.45,0,0,1,.74-.13C102.8,91.22,102.87,91.09,102.67,91Z"/><path class="sm_cls-7" d="M106.4,90.08c-.13-.07-.2,0-.33-.13s-.4-.6-.67-.93a.13.13,0,0,1,0-.2c.13,0,.13-.07.34,0s.33.06.2-.14a.51.51,0,0,0-.6-.13c-.2.07-.67.27-1.07.4a.47.47,0,0,0-.27.33c0,.2.13.27.2.07s.13-.13.2-.2.07,0,.07.13-.27.93-.33,1.07-.2.13-.27.2-.2.27,0,.27.54-.13.67-.2.07-.13,0-.2-.13-.13-.07-.27.13-.2.27-.2.2-.07.33-.13.2-.07.27-.07.13,0,.2.07l.2.2v.13c-.07.07-.07.2,0,.2s.53-.07.67-.07S106.61,90.15,106.4,90.08Zm-1.47-.47c-.33.07-.2.07-.13-.33s.13-.27.4.07S105.27,89.55,104.94,89.62Z"/><path class="sm_cls-7" d="M108.54,88.28c-.07.07-.13.07-.33,0s-.87,0-1,.33.13.67.6.67.47.27.4.4-.47.2-.67.13-.13-.07-.27-.27-.2-.13-.27.07a2.17,2.17,0,0,0-.13.53c0,.07.07.2.2.07s.2-.2.33-.13.87.27,1.14-.13a.58.58,0,0,0-.33-.93c-.47-.07-.47-.27-.4-.33s.27-.13.47-.07.13.07.13.2.2.13.27,0a2.16,2.16,0,0,1,.2-.4C108.94,88.28,108.74,88.08,108.54,88.28Z"/><path class="sm_cls-10" d="M100.56,58.76a.85.85,0,0,1-.24,1.47c.93.52,2.5,1.37,3.94,2.22a3.59,3.59,0,0,1-.14-5.57l-.3,0C102.8,57.45,101.46,58.23,100.56,58.76Z"/><path class="sm_cls-10" d="M98.64,58.75c-.92-.55-2.33-1.37-3.37-1.9l-.3,0a3.58,3.58,0,0,1,0,5.65c1.44-.86,3-1.7,3.94-2.22A.85.85,0,0,1,98.64,58.75Z"/><path class="sm_cls-10" d="M100.13,59.53c0,.34,0,.58,0,.79a1.28,1.28,0,0,0,.2-.09.85.85,0,0,0,.24-1.47,1.25,1.25,0,0,0-.44-.22C100.13,58.76,100.13,59.07,100.13,59.53Z"/><path class="sm_cls-10" d="M99.07,59.53c0-.45,0-.77,0-1a1.28,1.28,0,0,0-.44.22.85.85,0,0,0,.23,1.47,1.14,1.14,0,0,0,.2.09C99.07,60.11,99.07,59.87,99.07,59.53Z"/><path class="sm_cls-10" d="M100.13,59.53c0-.45,0-.77,0-1,0-.61-.13-.54-.52-.54s-.49-.06-.52.54c0,.23,0,.54,0,1s0,.58,0,.79c0,.86.1.74.53.74s.51.11.53-.74C100.13,60.11,100.13,59.87,100.13,59.53Z"/><path class="sm_cls-10" d="M85.12,75.6c.19.43.38.85.6,1.28s.3.55.45.83C89.8,84.31,94,87.13,98,88.76l1.19.46.2.07.19.07c.6-.21,1.21-.44,1.82-.69A21.47,21.47,0,0,0,107.35,85c.34-.29.67-.6,1-.93a23.53,23.53,0,0,0,1.72-1.9c.4-.5.8-1,1.2-1.61s.74-1.11,1.1-1.71.75-1.27,1.11-2c.25-.49.48-1,.7-1.48a22.49,22.49,0,0,0,1-2.94c0-.12.07-.24.11-.36,1.09-4.22.73-8.26-1-11.3a10.19,10.19,0,0,0-5.93-4.66,4.6,4.6,0,0,0-.93-.16,8.76,8.76,0,0,1-3.29.92,3.59,3.59,0,0,0,.14,5.57,3.08,3.08,0,0,0,4-.52c4,3.52,3.71,9.72,1.13,15.34-2.12,4.62-5.77,8.83-9.8,10.82a21.85,21.85,0,0,1-10-11.27c-2-5-2-10.65,1.38-14.88a3.08,3.08,0,0,0,4,.52,3.58,3.58,0,0,0,0-5.65,7.78,7.78,0,0,1-2.81-.86h-.33a4.55,4.55,0,0,0-1,.16C85.93,57.66,83.39,61.9,83.27,67A20.18,20.18,0,0,0,85.12,75.6Z"/><path class="sm_cls-10" d="M91.06,50.92a2.41,2.41,0,0,1-.34-2c-1.32-2.6.79-3.91,2.41-4a13.48,13.48,0,0,0,4.58-1.33,4.79,4.79,0,0,1,.1-1.24,1.84,1.84,0,0,1-1.17.14l-.33.11a.47.47,0,0,1-.25.86.46.46,0,0,1-.39-.69L95,43a.48.48,0,0,1-.48.61.44.44,0,0,1-.44-.44l-.67.11a.49.49,0,0,1-.49.33.53.53,0,0,1-.42-.18l-1,.19a.61.61,0,0,1-.64.72.56.56,0,0,1-.56-.4,6.19,6.19,0,0,0-.9.37.64.64,0,0,1-.41,1.1.6.6,0,0,1-.57-.34,2.66,2.66,0,0,0-.59,1.16l.09,0a.77.77,0,0,1,0,1.54l-.1,0a5.64,5.64,0,0,0,.24.87.74.74,0,0,1,.26-.05.71.71,0,0,1,.32,1.32l.2.33A3.49,3.49,0,0,1,91.06,50.92Z"/><path class="sm_cls-10" d="M101.78,42.41a4.71,4.71,0,0,1,.1,1.24A13.49,13.49,0,0,0,106.47,45c1.62.06,3.72,1.37,2.41,4a2.41,2.41,0,0,1-.34,2,3.49,3.49,0,0,1,2.22-.75l.2-.33a.71.71,0,0,1,.32-1.32.75.75,0,0,1,.27.05,5.87,5.87,0,0,0,.24-.87l-.1,0a.77.77,0,0,1,0-1.54l.09,0a2.67,2.67,0,0,0-.59-1.16.6.6,0,0,1-.57.34.64.64,0,0,1-.41-1.1,6.08,6.08,0,0,0-.9-.37.56.56,0,0,1-.56.4.61.61,0,0,1-.64-.72l-1-.19a.53.53,0,0,1-.42.18.48.48,0,0,1-.49-.33l-.67-.11a.44.44,0,0,1-.44.44.48.48,0,0,1-.48-.61l-.66-.14a.46.46,0,0,1-.39.69.47.47,0,0,1-.25-.86l-.33-.11A1.84,1.84,0,0,1,101.78,42.41Z"/><path class="sm_cls-7" d="M99.8,41c0-1,.06-1.67.87-1.67l.18,0a1.35,1.35,0,0,0-.22-.21,1.24,1.24,0,0,1-1.65,0,1.3,1.3,0,0,0-.22.2l.17,0C99.73,39.38,99.8,40,99.8,41Z"/><path class="sm_cls-7" d="M100.73,42.12h0a.33.33,0,0,1,.07-.33c.27-.54.07-.87-.2-.87s-.4.47-.2.8,0,.87-.6.87a1,1,0,0,1,.78,1.61.84.84,0,0,1-.26.87.71.71,0,0,1-.09.88l.13.15A6.9,6.9,0,0,0,100.73,42.12Z"/><path class="sm_cls-7" d="M99.27,45.06a.84.84,0,0,1-.26-.87,1,1,0,0,1,.79-1.61c-.6,0-.87-.53-.6-.87s.07-.8-.2-.8-.47.33-.2.87a.33.33,0,0,1,.06.33,6.9,6.9,0,0,0,.37,4l.13-.15A.7.7,0,0,1,99.27,45.06Z"/><path class="sm_cls-10" d="M100.63,39.2a1.39,1.39,0,0,0-.29-2.42v-.67h1V35h-1V33.84H99.27V35h-1v1.13h1v.67A1.39,1.39,0,0,0,99,39.2a1.24,1.24,0,0,0,1.65,0Z"/><path class="sm_cls-10" d="M98.87,42.12a.29.29,0,0,1-.53-.07,1.53,1.53,0,0,1-.52.37,4.79,4.79,0,0,0-.1,1.24,5.64,5.64,0,0,0,1.09,3.14,3.61,3.61,0,0,1,.43-.69A6.9,6.9,0,0,1,98.87,42.12Z"/><path class="sm_cls-10" d="M101.78,42.41a1.54,1.54,0,0,1-.52-.37.29.29,0,0,1-.54.07h0a6.9,6.9,0,0,1-.36,4,3.64,3.64,0,0,1,.43.69,5.64,5.64,0,0,0,1.09-3.14A4.71,4.71,0,0,0,101.78,42.41Z"/><path class="sm_cls-10" d="M97.81,42.41a1.53,1.53,0,0,0,.52-.37.29.29,0,0,0,.53.07.33.33,0,0,0-.06-.33c-.27-.54-.07-.87.2-.87s.4.47.2.8,0,.87.6.87.87-.53.6-.87-.07-.8.2-.8.47.33.2.87a.33.33,0,0,0-.07.33.29.29,0,0,0,.54-.07,1.54,1.54,0,0,0,.52.37,1.84,1.84,0,0,0,1.18.13.66.66,0,0,0,.38-.23c.4-.47-.07-.67-.53-.47s-.73-.33-.93-1-.37-1.33-1-1.44l-.18,0c-.8,0-.87.67-.87,1.67,0-1-.07-1.67-.87-1.67l-.17,0c-.66.11-.9.83-1,1.44s-.47,1.2-.93,1-.93,0-.53.47a.66.66,0,0,0,.38.24A1.84,1.84,0,0,0,97.81,42.41Z"/><path class="sm_cls-10" d="M99,44.19a.81.81,0,0,1,1.57,0,1,1,0,1,0-1.57,0Z"/><path class="sm_cls-6" d="M96.06,43.52a.47.47,0,0,0,.25-.86.44.44,0,0,0-.25-.08.42.42,0,0,0-.39.25A.46.46,0,0,0,96.06,43.52Z"/><path class="sm_cls-6" d="M94.53,43.58A.48.48,0,0,0,95,43a.47.47,0,1,0-.92.17A.44.44,0,0,0,94.53,43.58Z"/><path class="sm_cls-6" d="M92.93,43.58a.49.49,0,0,0,.49-.33.54.54,0,0,0-.49-.74.53.53,0,1,0,0,1.07Z"/><path class="sm_cls-6" d="M90.86,44.32a.61.61,0,0,0,.64-.72.6.6,0,0,0-.64-.55.63.63,0,0,0-.56.87A.56.56,0,0,0,90.86,44.32Z"/><path class="sm_cls-6" d="M89,45.38a.64.64,0,0,0,.41-1.1.56.56,0,0,0-.41-.17.63.63,0,0,0-.57.93A.6.6,0,0,0,89,45.38Z"/><path class="sm_cls-6" d="M87.92,46.18l-.09,0a.76.76,0,0,0,0,1.5l.1,0A.77.77,0,0,0,87.92,46.18Z"/><path class="sm_cls-6" d="M88.32,48.52a.74.74,0,0,0-.26.05.7.7,0,0,0,.26,1.35.64.64,0,0,0,.32-.08A.71.71,0,0,0,88.32,48.52Z"/><path class="sm_cls-6" d="M103.54,43.52a.46.46,0,0,0,.39-.69.42.42,0,0,0-.39-.25.43.43,0,0,0-.25.08A.47.47,0,0,0,103.54,43.52Z"/><path class="sm_cls-6" d="M105.07,43.58a.44.44,0,0,0,.44-.44.47.47,0,1,0-.92-.17A.48.48,0,0,0,105.07,43.58Z"/><path class="sm_cls-6" d="M106.67,43.58a.53.53,0,1,0,0-1.07.54.54,0,0,0-.49.74A.48.48,0,0,0,106.67,43.58Z"/><path class="sm_cls-6" d="M108.74,44.32a.56.56,0,0,0,.56-.4.62.62,0,0,0-.56-.87.6.6,0,0,0-.64.55A.61.61,0,0,0,108.74,44.32Z"/><path class="sm_cls-6" d="M110.61,45.38a.6.6,0,0,0,.57-.34.63.63,0,0,0-.57-.93.56.56,0,0,0-.41.17A.64.64,0,0,0,110.61,45.38Z"/><path class="sm_cls-6" d="M111.68,47.72l.1,0a.76.76,0,0,0,0-1.5l-.09,0A.77.77,0,0,0,111.68,47.72Z"/><path class="sm_cls-6" d="M111,49.84a.64.64,0,0,0,.32.08.7.7,0,0,0,.27-1.35.75.75,0,0,0-.27-.05A.71.71,0,0,0,111,49.84Z"/><path class="sm_cls-10" d="M99.8,43.58a.78.78,0,0,0-.79.61.84.84,0,0,0,.26.87.64.64,0,0,1,1.06,0,.84.84,0,0,0,.26-.87A.78.78,0,0,0,99.8,43.58Z"/><path class="sm_cls-10" d="M100.33,45.06a.64.64,0,0,0-1.06,0,.7.7,0,0,0,.09.88,1.93,1.93,0,0,1,.44-.36,1.93,1.93,0,0,1,.43.36A.71.71,0,0,0,100.33,45.06Z"/><path class="sm_cls-10" d="M91.73,55a18.39,18.39,0,0,1,16.15,0,.51.51,0,0,1,.17.17c0-.21.07-.45.16-.84a4.27,4.27,0,0,1,.51-1.07A22.26,22.26,0,0,0,99.8,51a22.27,22.27,0,0,0-8.92,2.26,4.29,4.29,0,0,1,.51,1.07c.1.39.12.63.16.84A.49.49,0,0,1,91.73,55Zm15.88-1.4a.3.3,0,1,1,0,.6A.3.3,0,1,1,107.61,53.59Zm-1.54-.87c.4.13.87.47.73.67-.2.4-.67.27-1.13.13s-.8-.4-.67-.67C105.14,52.39,105.67,52.52,106.07,52.72Zm-1.8-.4a.34.34,0,0,1,0,.67A.34.34,0,0,1,104.27,52.32Zm-.93-.73a.3.3,0,0,1,0,.6A.3.3,0,1,1,103.34,51.59Zm-.27,1c.4,0,.47.67,0,.67A.33.33,0,0,1,103.07,52.59Zm-.87-.73a.3.3,0,0,1,0,.6A.3.3,0,1,1,102.2,51.86Zm-2.4-.33c.73,0,1.33,0,1.33.47s-.67.47-1.33.47-1.34,0-1.34-.47S99.07,51.52,99.8,51.52Zm-2.4.33a.3.3,0,1,1,0,.6A.3.3,0,1,1,97.4,51.86Zm-.87,1.4c-.47,0-.4-.67,0-.67A.33.33,0,0,1,96.53,53.26Zm-.27-1.67a.3.3,0,1,1,0,.6A.3.3,0,0,1,96.26,51.59Zm-.93.73a.34.34,0,0,1,0,.67A.34.34,0,0,1,95.33,52.32Zm-1.8.4c.4-.2.94-.33,1.07.13.13.27-.33.54-.67.67s-.93.27-1.13-.13C92.66,53.19,93.13,52.86,93.53,52.72ZM92,53.59a.3.3,0,1,1,0,.6A.3.3,0,0,1,92,53.59Z"/><path class="sm_cls-10" d="M92.13,55.92l0,0A7.78,7.78,0,0,0,95,56.8l.3,0a32.63,32.63,0,0,0,4.53.28,34.55,34.55,0,0,0,4-.21l.3,0a8.76,8.76,0,0,0,3.29-.92l.06,0a17.83,17.83,0,0,0-15.34,0Z"/><path class="sm_cls-10" d="M99.8,50.05a23.35,23.35,0,0,1,9.21,2.4.75.75,0,0,1,.17.12,12.24,12.24,0,0,1,2.1-2.32,1.77,1.77,0,0,0-.51-.09,3.49,3.49,0,0,0-2.22.75,2.41,2.41,0,0,0,.34-2,1,1,0,0,0-.07-.16,3.12,3.12,0,0,0-2.67,1.27,3,3,0,0,0,.33-2.47,3.4,3.4,0,0,0-2.73,1.73,2.29,2.29,0,0,0-.07-2.87,3.24,3.24,0,0,0-2.4,2.47,4.6,4.6,0,0,0-.47-2.13,3.64,3.64,0,0,0-.43-.69l-.13-.15a1.93,1.93,0,0,0-.43-.36,1.93,1.93,0,0,0-.44.36l-.13.15a3.61,3.61,0,0,0-.43.69,4.6,4.6,0,0,0-.47,2.13,3.24,3.24,0,0,0-2.4-2.47,2.29,2.29,0,0,0-.07,2.87,3.4,3.4,0,0,0-2.74-1.73,3,3,0,0,0,.34,2.47,3.12,3.12,0,0,0-2.67-1.27,1.06,1.06,0,0,0-.07.16,2.41,2.41,0,0,0,.34,2,3.49,3.49,0,0,0-2.22-.75,1.82,1.82,0,0,0-.51.09,12.27,12.27,0,0,1,2.1,2.31.86.86,0,0,1,.16-.11A23.36,23.36,0,0,1,99.8,50.05Z"/><path class="sm_cls-10" d="M108.72,53.25l.15.07c.3.12.7-.4.3-.75a.75.75,0,0,0-.17-.12,23.35,23.35,0,0,0-9.21-2.4,23.36,23.36,0,0,0-9.21,2.4.86.86,0,0,0-.16.11c-.4.35,0,.88.3.75l.15-.07A22.27,22.27,0,0,1,99.8,51,22.26,22.26,0,0,1,108.72,53.25Z"/><path class="sm_cls-10" d="M92,56l.16,0h0a17.83,17.83,0,0,1,15.34,0h0c.62.22.81-.4.57-.76a.51.51,0,0,0-.17-.17,18.39,18.39,0,0,0-16.15,0,.49.49,0,0,0-.17.17c-.19.3-.1.76.28.8Z"/><path class="sm_cls-10" d="M96.53,53.26a.33.33,0,0,0,0-.67C96.13,52.59,96.06,53.26,96.53,53.26Z"/><path class="sm_cls-10" d="M97.4,52.46a.3.3,0,1,0,0-.6A.3.3,0,1,0,97.4,52.46Z"/><path class="sm_cls-10" d="M96.26,52.19a.3.3,0,1,0,0-.6A.3.3,0,0,0,96.26,52.19Z"/><path class="sm_cls-10" d="M95.33,53a.34.34,0,0,0,0-.67A.34.34,0,0,0,95.33,53Z"/><path class="sm_cls-10" d="M92,54.19a.3.3,0,1,0,0-.6A.3.3,0,0,0,92,54.19Z"/><path class="sm_cls-10" d="M103.07,53.26c.47,0,.4-.67,0-.67A.33.33,0,0,0,103.07,53.26Z"/><path class="sm_cls-10" d="M102.2,52.46a.3.3,0,0,0,0-.6A.3.3,0,1,0,102.2,52.46Z"/><path class="sm_cls-10" d="M103.34,52.19a.3.3,0,0,0,0-.6A.3.3,0,1,0,103.34,52.19Z"/><path class="sm_cls-10" d="M104.27,53a.34.34,0,0,0,0-.67A.34.34,0,0,0,104.27,53Z"/><path class="sm_cls-10" d="M107.61,54.19a.3.3,0,1,0,0-.6A.3.3,0,1,0,107.61,54.19Z"/><path class="sm_cls-8" d="M93.93,53.52c.33-.13.8-.4.67-.67-.13-.47-.67-.33-1.07-.13s-.87.47-.73.67C93,53.79,93.46,53.66,93.93,53.52Z"/><path class="sm_cls-8" d="M105.67,53.52c.47.13.93.27,1.13-.13.13-.2-.33-.54-.73-.67s-.93-.33-1.06.13C104.87,53.12,105.34,53.39,105.67,53.52Z"/><path class="sm_cls-4" d="M99.8,52.46c.67,0,1.33,0,1.33-.47s-.6-.47-1.33-.47-1.34,0-1.34.47S99.13,52.46,99.8,52.46Z"/></g></g></svg>
