<svg xmlns="http://www.w3.org/2000/svg" viewBox="0 0 200 134"><defs><style>.sn_cls-1{fill:#1b864e;}.sn_cls-2{fill:#fbef46;}.sn_cls-3{fill:#e22d34;}</style></defs><title>Asset 59</title><g id="Layer_2" data-name="Layer 2"><g id="Layer_42" data-name="Layer 42"><path class="sn_cls-1" d="M17,0A17,17,0,0,0,0,17V117a17,17,0,0,0,17,17H66.38V0Z"/><path class="sn_cls-2" d="M66.38,0V134h67.25V0ZM100,75.56,86.82,85.14l5-15.49L78.68,60.07H95l5-15.49,5,15.49h16.29l-13.18,9.57,5,15.49Z"/><path class="sn_cls-3" d="M183,0H133.62V134H183a17,17,0,0,0,17-17V17A17,17,0,0,0,183,0Z"/><polygon class="sn_cls-1" points="121.32 60.07 105.03 60.07 100 44.59 94.97 60.07 78.68 60.07 91.86 69.65 86.82 85.14 100 75.56 113.18 85.14 108.14 69.65 121.32 60.07"/></g></g></svg>
