<svg xmlns="http://www.w3.org/2000/svg" viewBox="0 0 200 134"><style>.st0{fill:#464655}.st1{fill:#73af00}.st2{fill:#ff4b55}.st3{fill:#f5f5f5}.st4{fill:#41479b}.st5{fill:#ffe15a}</style><path class="st0" d="M185 0H15C6.7 0 0 6.9 0 15.3v29.3h200V15.3C200 6.9 193.3 0 185 0z"/><path class="st1" d="M200 89.3H0v29.3c0 8.5 6.7 15.3 15 15.3h170c8.3 0 15-6.9 15-15.3V89.3z"/><path class="st2" d="M0 44.7h200v44.7H0z"/><path class="st3" d="M37.3 57.9l2 4.5 4.8-1.2c.3-.1.5.2.4.5l-2.2 4.5 3.9 3.1c.2.2.2.6-.1.6l-4.8 1 .1 5c0 .3-.4.5-.6.3L37 73l-3.8 3.2c-.2.2-.6 0-.6-.3l.1-5-4.8-1c-.3-.1-.4-.5-.1-.6l3.9-3.1-2.2-4.5c-.1-.3.1-.6.4-.5l4.8 1.2 2-4.5c0-.3.4-.3.6 0zM0 42.3h200v6H0zM0 85.7h200v6H0z"/><path class="st4" d="M91.1 65.6L5.1 3.8C2 6.6 0 10.7 0 15.3v103.4c0 4.6 2 8.7 5.1 11.5l86-61.7c1-.8 1-2.2 0-2.9z"/><path class="st5" d="M28.7 50.6l7.7 8.1 10-4.9c1.3-.6 2.6.8 2 2.1l-5.1 10 7.6 8.2c1 1.1.1 2.8-1.3 2.6l-10.9-1.9-5.3 10c-.7 1.3-2.6.9-2.8-.5L29 73l-10.9-2c-1.4-.3-1.7-2.2-.4-2.9l9.9-5-1.4-11.2c-.2-1.5 1.5-2.4 2.5-1.3z"/></svg>
