<svg xmlns="http://www.w3.org/2000/svg" viewBox="0 0 200 134"><defs><style>.sy_cls-1{fill:#fafafa;}.sy_cls-2{fill:#ce2931;}.sy_cls-3{fill:#019e60;}.sy_cls-4{fill:#121212;}</style></defs><title>Asset 56</title><g id="Layer_2" data-name="Layer 2"><g id="Layer_45" data-name="Layer 45"><path class="sy_cls-1" d="M0,89.36H200V44.65H0ZM137,62.51l3.26-10,3.26,10h10.56l-8.54,6.21,3.26,10-8.54-6.21-8.54,6.21,3.26-10-8.54-6.21Zm-77.22-10,3.26,10H73.58L65,68.72l3.26,10-8.54-6.21-8.54,6.21,3.26-10-8.54-6.21H56.5Z"/><path class="sy_cls-2" d="M183,0H17A17,17,0,0,0,0,17V44.65H200V17A17,17,0,0,0,183,0Z"/><polygon class="sy_cls-3" points="131.69 78.76 140.24 72.55 148.78 78.76 145.52 68.72 154.06 62.51 143.5 62.51 140.24 52.47 136.98 62.51 126.42 62.51 134.96 68.72 131.69 78.76"/><polygon class="sy_cls-3" points="54.48 68.72 51.22 78.76 59.76 72.55 68.3 78.76 65.04 68.72 73.58 62.51 63.02 62.51 59.76 52.47 56.5 62.51 45.94 62.51 54.48 68.72"/><path class="sy_cls-4" d="M0,117a17,17,0,0,0,17,17H183a17,17,0,0,0,17-17V89.36H0Z"/></g></g></svg>
