<svg xmlns="http://www.w3.org/2000/svg" viewBox="0 0 200 134"><defs><style>.tg_cls-1{fill:#016b4f;}.tg_cls-2{fill:#fecf0a;}.tg_cls-3{fill:#d31f36;}.tg_cls-4{fill:#fff;}</style></defs><title>Asset 82</title><g id="Layer_2" data-name="Layer 2"><g id="Layer_19" data-name="Layer 19"><rect class="tg_cls-1" x="79.58" y="53.57" width="120.42" height="26.86"/><path class="tg_cls-1" d="M0,117a17,17,0,0,0,17,17H183a17,17,0,0,0,17-17v-9.71H0Z"/><path class="tg_cls-1" d="M183,0H79.58V26.71H200V17A17,17,0,0,0,183,0Z"/><rect class="tg_cls-2" x="79.58" y="26.71" width="120.42" height="26.86"/><polygon class="tg_cls-2" points="0 80.43 0 107.29 200 107.29 200 80.43 79.58 80.43 0 80.43"/><path class="tg_cls-3" d="M79.58,53.57V0H17A17,17,0,0,0,0,17V80.43H79.58ZM24.29,60.79,30,43.15,15,32.26H33.56l5.73-17.63L45,32.26H63.56l-15,10.89,5.73,17.63-15-10.9Z"/><polygon class="tg_cls-4" points="63.56 32.26 45.02 32.26 39.29 14.63 33.56 32.26 15.02 32.26 30.02 43.15 24.29 60.78 39.29 49.89 54.29 60.78 48.56 43.15 63.56 32.26"/></g></g></svg>
