<svg xmlns="http://www.w3.org/2000/svg" viewBox="0 0 200 134"><defs><style>.tj_cls-1{fill:#5fbb46;}.tj_cls-2{fill:#fafafa;}.tj_cls-3{fill:#e42e4c;}.tj_cls-4{fill:#d8b628;}</style></defs><title>Asset 76</title><g id="Layer_2" data-name="Layer 2"><g id="Layer_25" data-name="Layer 25"><path class="tj_cls-1" d="M0,117a17,17,0,0,0,17,17H183a17,17,0,0,0,17-17V95.85H0Z"/><path class="tj_cls-2" d="M0,95.85H200V38.15H0ZM109.89,90c-1.69-1.89-4.95-3.69-10.06-3.69S91.46,88.1,89.76,90l-1.45-1.54c1.3-1.59,3-2.14,3.49-4.13a2.67,2.67,0,0,0-.48-2.41l-.06-.08.06.08a6.34,6.34,0,0,0,5,1.91c2.19,0,3.54-2.44,3.54-2.44s1.35,2.44,3.54,2.44a6.34,6.34,0,0,0,5-1.91l.06-.08-.06.08a2.67,2.67,0,0,0-.48,2.41c.45,2,2.19,2.54,3.49,4.13Zm18.75-18.5-2.54,1.85,1,3-2.54-1.85L122,76.33l1-3-2.54-1.85h3.14l1-3,1,3Zm-8.37-12.26,1-3,1,3h3.14l-2.54,1.85,1,3-2.54-1.85-2.54,1.85,1-3-2.54-1.85Zm-9-9,1-3,1,3h3.14l-2.54,1.85,1,3-2.54-1.85-2.54,1.85,1-3-2.54-1.85ZM99,47l1-3,1,3h3.14l-2.54,1.85,1,3L100,50l-2.54,1.85,1-3L95.89,47Zm.8,9.4c3.59,0,7.17,3.35,7.17,4.53l-5.58,5.48,0,10.91c.85.9,4.68,2.59,7,.7,2.34,3.14,4.63,4.54,8.87,5.13-3.89,2.84-8.23.18-8.77-1.44-3.49,1.74-7.55.34-8.67-1h0c-1.11,1.35-5.17,2.75-8.66,1-.54,1.62-4.88,4.28-8.77,1.44,4.23-.6,6.53-2,8.87-5.13,2.34,1.89,6.18.2,7-.7l0-10.91L92.65,60.9C92.65,59.72,96.24,56.37,99.83,56.37ZM86.77,50.26l1-3,1,3h3.14L89.31,52.1l1,3-2.54-1.85L85.2,55.09l1-3-2.54-1.85Zm-9,9,1-3,1,3h3.14l-2.54,1.85,1,3-2.54-1.85-2.54,1.85,1-3-2.54-1.85ZM75.48,68.5l1,3h3.14l-2.54,1.85,1,3-2.54-1.85-2.54,1.85,1-3-2.54-1.85h3.14Z"/><path class="tj_cls-2" d="M99.81,64.49a8.38,8.38,0,0,1,4.25-3.29,5,5,0,0,0-8.47,0A8.36,8.36,0,0,1,99.81,64.49Z"/><path class="tj_cls-3" d="M183,0H17A17,17,0,0,0,0,17V38.15H200V17A17,17,0,0,0,183,0Z"/><path class="tj_cls-4" d="M98.28,77.29c-.85.9-4.68,2.59-7,.7-2.34,3.14-4.63,4.54-8.87,5.13,3.88,2.84,8.23.18,8.77-1.44,3.49,1.74,7.55.34,8.66-1h0c1.11,1.35,5.18,2.75,8.67,1,.54,1.62,4.88,4.28,8.77,1.44-4.24-.6-6.53-2-8.87-5.13-2.34,1.89-6.18.2-7-.7l0-10.91L107,60.9c0-1.18-3.58-4.53-7.17-4.53s-7.18,3.35-7.18,4.53l5.58,5.48Zm1.55-18.44a5.29,5.29,0,0,1,4.23,2.34,8.38,8.38,0,0,0-4.25,3.29,8.36,8.36,0,0,0-4.23-3.29A5.33,5.33,0,0,1,99.83,58.85Z"/><path class="tj_cls-4" d="M107.85,84.31a2.67,2.67,0,0,1,.48-2.41,6.34,6.34,0,0,1-5,1.91c-2.19,0-3.54-2.44-3.54-2.44s-1.35,2.44-3.54,2.44a6.34,6.34,0,0,1-5-1.91,2.67,2.67,0,0,1,.48,2.41c-.45,2-2.19,2.54-3.49,4.13L89.76,90c1.7-1.89,4.95-3.69,10.06-3.69S108.2,88.1,109.89,90l1.45-1.54C110,86.85,108.3,86.31,107.85,84.31Z"/><path class="tj_cls-4" d="M108.33,81.9l.06-.08Z"/><path class="tj_cls-4" d="M91.32,81.9l-.06-.08Z"/><polygon class="tj_cls-4" points="123.55 71.49 120.41 71.49 122.95 73.34 121.98 76.33 124.52 74.48 127.06 76.33 126.09 73.34 128.64 71.49 125.49 71.49 124.52 68.5 123.55 71.49"/><polygon class="tj_cls-4" points="118.69 64.07 121.23 62.22 123.78 64.07 122.81 61.08 125.35 59.23 122.2 59.23 121.23 56.24 120.27 59.23 117.12 59.23 119.66 61.08 118.69 64.07"/><polygon class="tj_cls-4" points="109.72 55.09 112.26 53.24 114.8 55.09 113.83 52.1 116.37 50.26 113.23 50.26 112.26 47.27 111.29 50.26 108.15 50.26 110.69 52.1 109.72 55.09"/><polygon class="tj_cls-4" points="97.46 51.81 100 49.96 102.54 51.81 101.57 48.82 104.11 46.97 100.97 46.97 100 43.98 99.03 46.97 95.89 46.97 98.43 48.82 97.46 51.81"/><polygon class="tj_cls-4" points="85.2 55.09 87.74 53.24 90.28 55.09 89.31 52.1 91.85 50.26 88.71 50.26 87.74 47.27 86.77 50.26 83.63 50.26 86.17 52.1 85.2 55.09"/><polygon class="tj_cls-4" points="76.22 64.07 78.76 62.22 81.31 64.07 80.33 61.08 82.88 59.23 79.73 59.23 78.76 56.24 77.79 59.23 74.65 59.23 77.19 61.08 76.22 64.07"/><polygon class="tj_cls-4" points="73.91 73.34 72.94 76.33 75.48 74.48 78.02 76.33 77.05 73.34 79.59 71.49 76.45 71.49 75.48 68.5 74.51 71.49 71.36 71.49 73.91 73.34"/></g></g></svg>
