<svg xmlns="http://www.w3.org/2000/svg" viewBox="0 0 200 134"><defs><style>.tn_cls-1{fill:#e52e34;}.tn_cls-2{fill:#fff;}</style></defs><title>Asset 85</title><g id="Layer_2" data-name="Layer 2"><g id="Layer_16" data-name="Layer 16"><path class="tn_cls-1" d="M183,0H17A17,17,0,0,0,0,17V117a17,17,0,0,0,17,17H183a17,17,0,0,0,17-17V17A17,17,0,0,0,183,0ZM100,100.69A33.69,33.69,0,1,1,133.69,67,33.69,33.69,0,0,1,100,100.69Z"/><path class="tn_cls-2" d="M100,33.31A33.69,33.69,0,1,0,133.69,67,33.69,33.69,0,0,0,100,33.31Zm0,59A25.27,25.27,0,1,1,120.47,52.2a20.22,20.22,0,1,0,0,29.6A25.23,25.23,0,0,1,100,92.27Zm19-16.36-10.48-3.4-6.48,8.91v-11L91.58,67l10.47-3.4v-11l6.48,8.91L119,58.09,112.53,67Z"/><path class="tn_cls-1" d="M86.52,67a20.19,20.19,0,0,1,34-14.8,25.27,25.27,0,1,0,0,29.6,20.19,20.19,0,0,1-34-14.8Z"/><polygon class="tn_cls-1" points="108.53 61.49 102.05 52.58 102.05 63.6 91.58 67 102.05 70.4 102.05 81.42 108.53 72.51 119 75.91 112.53 67 119 58.09 108.53 61.49"/></g></g></svg>
