<svg xmlns="http://www.w3.org/2000/svg" viewBox="0 0 200 134"><defs><style>.to_cls-1{fill:#c0262c;}.to_cls-2{fill:#fafafa;}.to_cls-3{fill:#c02026;}</style></defs><title>Asset 83</title><g id="Layer_2" data-name="Layer 2"><g id="Layer_18" data-name="Layer 18"><path class="to_cls-1" d="M183,0H110.13V67H0v50a17,17,0,0,0,17,17H183a17,17,0,0,0,17-17V17A17,17,0,0,0,183,0Z"/><path class="to_cls-2" d="M110.13,0H17A17,17,0,0,0,0,17V67H110.13ZM79.3,41.77H62.48V58.59H45.66V41.77H28.84V25H45.66V8.13H62.48V25H79.3Z"/><polygon class="to_cls-3" points="62.48 24.95 62.48 8.13 45.66 8.13 45.66 24.95 28.84 24.95 28.84 41.77 45.66 41.77 45.66 58.59 62.48 58.59 62.48 41.77 79.3 41.77 79.3 24.95 62.48 24.95"/></g></g></svg>
