<svg xmlns="http://www.w3.org/2000/svg" viewBox="0 0 200 134"><defs><style>.tt_cls-1{fill:#ce2931;}.tt_cls-2{fill:#fafafa;}.tt_cls-3{fill:#121212;}</style></defs><title>Asset 84</title><g id="Layer_2" data-name="Layer 2"><g id="Layer_17" data-name="Layer 17"><path class="tt_cls-1" d="M0,17V117a17,17,0,0,0,17,17H143.28L1.08,11.09A16.93,16.93,0,0,0,0,17Z"/><path class="tt_cls-1" d="M183,0H56.73l142.2,122.91A16.92,16.92,0,0,0,200,117V17A17,17,0,0,0,183,0Z"/><path class="tt_cls-2" d="M45.31,0,194.81,129.22a17,17,0,0,0,4.12-6.31L56.73,0Z"/><path class="tt_cls-2" d="M1.08,11.09,143.28,134h11.41L5.19,4.78A17,17,0,0,0,1.08,11.09Z"/><path class="tt_cls-3" d="M17,0A16.93,16.93,0,0,0,5.19,4.78L154.69,134H183a16.93,16.93,0,0,0,11.81-4.78L45.31,0Z"/></g></g></svg>
