<svg xmlns="http://www.w3.org/2000/svg" viewBox="0 0 200 134"><defs><style>.ug_cls-1{fill:#121212;}.ug_cls-2{fill:#feeb33;}.ug_cls-3{fill:#dd422c;}.ug_cls-4{fill:#fffefe;}.ug_cls-5{fill:#de3726;}.ug_cls-6{fill:#fee600;}.ug_cls-7{fill:#010101;}.ug_cls-8{fill:#9ca69c;}.ug_cls-9{fill:#fff;}</style></defs><title>Asset 87</title><g id="Layer_2" data-name="Layer 2"><g id="Layer_14" data-name="Layer 14"><path class="ug_cls-1" d="M183,0H17A17,17,0,0,0,0,17v5.16H200V17A17,17,0,0,0,183,0Z"/><path class="ug_cls-1" d="M100,87.94A20.94,20.94,0,0,1,79.06,67H0V89.42H200V67H120.94A20.94,20.94,0,0,1,100,87.94Z"/><rect class="ug_cls-2" y="22.16" width="200" height="22.42"/><path class="ug_cls-3" d="M0,67H79.06a20.94,20.94,0,0,1,41.88,0H200V44.58H0Z"/><rect class="ug_cls-2" y="89.42" width="200" height="22.42"/><path class="ug_cls-3" d="M0,117a17,17,0,0,0,17,17H183a17,17,0,0,0,17-17v-5.16H0Z"/><path class="ug_cls-4" d="M100,87.94A20.94,20.94,0,1,0,79.06,67,20.94,20.94,0,0,0,100,87.94ZM95.83,57.05l0-.23-.05,0c-1.36-.52,0-2,.29-2.17l.06.06v-.08s-2.82.5-3.31.22l-.1,0,.09,0c-.05,0-.08-.07-.07-.12.12-.53,3.13-1.34,3.13-1.34A2,2,0,0,1,96.28,51l0,0h0l-1.36-2.5a3.82,3.82,0,0,1,2.81-.93c0,.09-.14,2.74-.14,2.74h0l.19-2.75s2.81-.17,4.34,1.67l0,0a4.44,4.44,0,0,1,1.41,2.66s-2.15.54-2.19.52l0,.07c.07,0,.29,1.84-1.79,3.55-1.72,2-.86,6-.86,6l.06.08c.22-.11.56-.1,1.15.18,1.26.6,7.08,3.53,7.92,3.67.09,0,.16.14.22.33,9.95,3.62,3.5,13,.45,13.31A8.41,8.41,0,0,1,110,77.68c-1.48,1.29-1.65.81-1.65.81s0-.36.67-.86c-2.27,1.1-2,.67-2,.67l.57-.57s-.24.07-.6-.24c3.36-1.76,2-5.37,2-5.37a2.87,2.87,0,0,1-1.14,3.08,2.35,2.35,0,0,0,.19-2,4.33,4.33,0,0,1-.1.73,10.06,10.06,0,0,0-2.42-3.25l1.66,2.13s-3-.67-3.53-.24.79,2.62,1.24,3.2a1,1,0,0,1-.45,1.48,11.05,11.05,0,0,0-3.12,0c-.6.29.17,6.08.17,6.08s2.46-.14,3.22,1.1A8.84,8.84,0,0,0,97,86.74c-.5-.83,1.12-2.27,1.12-2.27a10.69,10.69,0,0,0-2.94-.12c.21-.86,3.63-1.33,5.06-1,.21-.53-.45-6.13-.45-6.13a22.42,22.42,0,0,1-3.41-.17c-2-.24-2,2.63-2.34,2.39s-.48-1.86-.48-1.86A4.39,4.39,0,0,0,93,80.07c-.57-.5-.5-1.91-.5-1.91l-.86,2c-.6-3.89,1.79-3.77,2.41-4a27.38,27.38,0,0,1,5.77,0c.33-.56,0-3.37,0-3.49s-.15-.05-1.64-1.59c-1.93-.5-3.77-2.77-3.77-2.77a1.09,1.09,0,0,1-.17.24C89,63.25,95.83,57.05,95.83,57.05Z"/><path class="ug_cls-4" d="M100.73,51.21l0,0,.3-.47Z"/><path class="ug_cls-5" d="M97.62,50.25s.14-2.65.14-2.74a3.82,3.82,0,0,0-2.81.93l1.36,2.5h0a3.06,3.06,0,0,1,1.28-.67Z"/><path class="ug_cls-6" d="M100.73,51.21l.32-.45,1-1.6,0,.06,0,0c-1.53-1.84-4.34-1.67-4.34-1.67l-.19,2.75A3.26,3.26,0,0,1,100.73,51.21Z"/><path class="ug_cls-5" d="M101,50.76l-.3.47a2.44,2.44,0,0,1,.6,1.17s2.21-.5,2.19-.52a4.44,4.44,0,0,0-1.41-2.66l0-.06Z"/><path class="ug_cls-7" d="M94.4,68.38s1.84,2.27,3.77,2.77c1.49,1.54,1.64,1.61,1.64,1.59s.35,2.94,0,3.49a27.38,27.38,0,0,0-5.77,0c-.62.19-3,.07-2.41,4l.86-2s-.07,1.41.5,1.91a4.39,4.39,0,0,1,.55-2.48s.12,1.62.48,1.86.36-2.62,2.34-2.39a22.42,22.42,0,0,0,3.41.17s.67,5.61.45,6.13c-1.43-.33-4.84.14-5.06,1a10.69,10.69,0,0,1,2.94.12S96.5,85.91,97,86.74a8.84,8.84,0,0,1,7.66-2.34c-.76-1.24-3.22-1.1-3.22-1.1s-.76-5.79-.17-6.08a11.05,11.05,0,0,1,3.12,0,1,1,0,0,0,.45-1.48c-.45-.57-1.79-2.77-1.24-3.2s3.53.24,3.53.24l-1.66-2.13a8.45,8.45,0,0,0-3.68-2,4.67,4.67,0,0,1-3.46-6,1.11,1.11,0,0,1,.45-.61L98.71,62s-.86-4.05.86-6c2.08-1.72,1.86-3.58,1.79-3.55l0-.07a2.44,2.44,0,0,0-.6-1.17l0,0a3.26,3.26,0,0,0-3.11-.95h0a3.06,3.06,0,0,0-1.28.67l0,0a2,2,0,0,0-.38,2.43s-3,.81-3.12,1.34c0,.05,0,.09.07.12a19.21,19.21,0,0,1,3-.55l-3,.55c.49.28,3.31-.22,3.31-.22v.08c.36.36,1,.55,1,1.16-.31.3.05.56-1.28.94l0,.23s-6.82,6.2-1.6,11.57A1.09,1.09,0,0,0,94.4,68.38ZM98.86,55c-.4.09-.69.19-.81-.33s.55-.6.71-.72c1-.55.76-2.43.76-2.43C101.17,52.47,99.93,54.76,98.86,55Zm-2-1.86a.41.41,0,1,1,.4.41A.4.4,0,0,1,96.88,53.09Zm.92,3.07c-.64,2.25-2,4.35-.56,6.88L96.46,63c-.11,0,.22.89.22.89l-1-.11.39.73-.67-.17a3.59,3.59,0,0,1,.22,1c0,.1-.49-.32-.56-.39s0,.35-.13.92C92.84,61.63,97.8,56.16,97.8,56.16Zm4.78,20.11a3.54,3.54,0,0,1-1.36,0l-.07-2.67C102.55,74.41,103,76.11,102.58,76.28Zm-1.29-5.85c-.41-.26-1-.4-2.15.1a3.69,3.69,0,0,1,0-2.34A9.83,9.83,0,0,0,101.29,70.43Z"/><path class="ug_cls-8" d="M95.11,64.9c.07.07.61.48.56.39a3.59,3.59,0,0,0-.22-1l.67.17-.39-.73,1,.11s-.34-.89-.22-.89l.78.06c-1.41-2.54-.08-4.64.56-6.88,0,0-5,5.47-2.82,9.66C95.09,65.25,95,64.89,95.11,64.9Z"/><path class="ug_cls-8" d="M99.53,51.47s.26,1.88-.76,2.43c-.17.12-.81.33-.71.72s.41.43.81.33C99.93,54.76,101.17,52.47,99.53,51.47Z"/><circle class="ug_cls-9" cx="97.28" cy="53.09" r="0.41"/><path class="ug_cls-5" d="M97.14,55.88c0-.61-.63-.79-1-1.16l-.06-.06c-.26.21-1.65,1.65-.29,2.17l.05,0C97.19,56.45,96.83,56.19,97.14,55.88Z"/><path class="ug_cls-8" d="M99.14,70.53c1.19-.5,1.74-.36,2.15-.1a9.83,9.83,0,0,1-2.2-2.24A3.69,3.69,0,0,0,99.14,70.53Z"/><path class="ug_cls-9" d="M101.22,76.28a3.54,3.54,0,0,0,1.36,0c.43-.17,0-1.86-1.43-2.67Z"/><path class="ug_cls-8" d="M104.55,68.09l.32-.24c-.28-.06-.57-.12-.88-.17Z"/><path class="ug_cls-8" d="M105.42,66.81a4.35,4.35,0,0,1,.38.35L106,67A3,3,0,0,0,105.42,66.81Z"/><path class="ug_cls-8" d="M98.33,62.73a4.67,4.67,0,0,0,3.46,6,8.45,8.45,0,0,1,3.68,2,10.06,10.06,0,0,1,2.42,3.25,4.33,4.33,0,0,0,.1-.73c-.74-2.34-4.33-4.46-4.27-4.49l.13-.1h-.08A21.2,21.2,0,0,0,101.89,67a8.88,8.88,0,0,1-1.46-.79c-.62-.31-1.19-2.46,1.1-1.84,2.36,1.12,2.7,1.22,2.7,1.22l2.61.82,0,0-.57-.6a18.1,18.1,0,0,1,1.77.54c-.06-.19-.13-.31-.22-.33-.84-.14-6.65-3.08-7.92-3.67-.59-.28-.93-.29-1.15-.18A1.11,1.11,0,0,0,98.33,62.73Z"/><path class="ug_cls-5" d="M106.87,66.35l0,0,.21.07,1.62,1.81S106.94,67.41,106,67l-.2.15a5.73,5.73,0,0,1,.86,1.17c-.62-.18-1.19-.34-1.79-.48l-.32.24c.38.28.56.44.63.65a5.43,5.43,0,0,0-1.32-.12l-.13.1c-.06,0,3.54,2.15,4.27,4.49a2.35,2.35,0,0,1-.19,2,2.87,2.87,0,0,0,1.14-3.08s1.38,3.6-2,5.37c.36.31.6.24.6.24l-.57.57s-.26.43,2-.67c-.62.5-.67.86-.67.86s.17.48,1.65-.81a8.41,8.41,0,0,0-1.46,1.93c3.05-.27,9.5-9.69-.45-13.31a18.1,18.1,0,0,0-1.77-.54Z"/><path class="ug_cls-9" d="M105.18,68.74c-.07-.21-.24-.37-.63-.65l-.56-.4c.31,0,.6.1.88.17.6.13,1.17.3,1.79.48a5.73,5.73,0,0,0-.86-1.17,4.35,4.35,0,0,0-.38-.35,3,3,0,0,1,.58.2c.95.4,2.67,1.25,2.67,1.25L107,66.45l-.21-.07-2.61-.82s-.33-.1-2.7-1.22c-2.29-.62-1.72,1.53-1.1,1.84a8.88,8.88,0,0,0,1.46.79,21.2,21.2,0,0,1,1.88,1.65h.08A5.43,5.43,0,0,1,105.18,68.74Z"/><path class="ug_cls-7" d="M92.85,54.86l-.09,0,.1,0,3-.55A19.21,19.21,0,0,0,92.85,54.86Z"/></g></g></svg>
