<svg xmlns="http://www.w3.org/2000/svg" viewBox="0 0 200 134"><defs><style>.uz_cls-1{fill:#249eb5;}.uz_cls-2{fill:#ce2028;}.uz_cls-3{fill:#fafafa;}.uz_cls-4{fill:#2ab34b;}.uz_cls-5{fill:#fff;}</style></defs><title>Asset 93</title><g id="Layer_2" data-name="Layer 2"><g id="Layer_8" data-name="Layer 8"><path class="uz_cls-1" d="M49.76,32.19l-.55.38h.43Z"/><rect class="uz_cls-2" y="42.79" width="200" height="2.69"/><rect class="uz_cls-3" y="45.48" width="200" height="43.04"/><rect class="uz_cls-2" y="88.52" width="200" height="2.69"/><path class="uz_cls-4" d="M0,117a17,17,0,0,0,17,17H183a17,17,0,0,0,17-17V91.21H0Z"/><path class="uz_cls-5" d="M28.47,21.27A13.45,13.45,0,0,1,41.92,7.82,13.61,13.61,0,0,1,43.78,8a16.14,16.14,0,1,0,0,26.61A13.36,13.36,0,0,1,28.47,21.27Z"/><path class="uz_cls-1" d="M183,0H17A17,17,0,0,0,0,17V42.79H200V17A17,17,0,0,0,183,0ZM100.64,7.36l.73-2.23.73,2.23h2.34l-1.9,1.38.72,2.23-1.9-1.38L99.47,11l.73-2.23L98.3,7.36Zm-12.91,0,.72-2.23.73,2.23h2.34l-1.9,1.38L90.36,11l-1.9-1.38L86.56,11l.72-2.23-1.9-1.38Zm-12.91,0,.73-2.23.72,2.23h2.34l-1.9,1.38L77.44,11l-1.9-1.38L73.65,11l.73-2.23-1.9-1.38Zm-40.16,30A16.14,16.14,0,1,1,43.78,8a13.61,13.61,0,0,0-1.86-.14,13.45,13.45,0,1,0,1.86,26.76A16.06,16.06,0,0,1,34.66,37.41Zm17.6-1.24-1.9-1.38-1.9,1.38.72-2.23-1-.76-.86-.62h1.92l.55-.38.6-1.85.36,1.1.37,1.13h2.34l-1.9,1.38Zm12.14-.12-1.9-1.38-1.9,1.38.72-2.23-1.9-1.38h2.35l.73-2.23.72,2.23h2.35l-1.9,1.38Zm-.59-14.4.72,2.23-1.9-1.38-1.9,1.38.72-2.23-1.9-1.38h2.34L62.63,18l.73,2.23H65.7ZM77.35,35.88l-1.9-1.38-1.9,1.38.72-2.23-1.9-1.38h2.34L75.45,30l.73,2.23h2.34l-1.9,1.38Zm-.59-14.4.72,2.23-1.9-1.38-1.9,1.38.73-2.23-1.9-1.38h2.34l.72-2.23.73,2.23h2.35Zm13.5,14.4-1.9-1.38-1.9,1.38.72-2.23-1.9-1.38h2.34L88.36,30l.73,2.23h2.34l-1.9,1.38Zm-.59-14.4.72,2.23-1.9-1.38-1.9,1.38.72-2.23-1.9-1.38h2.35l.73-2.23.72,2.23h2.34Zm13.5,14.4-1.9-1.38-1.9,1.38.72-2.23-1.9-1.38h2.35l.72-2.23.73,2.23h2.34l-1.9,1.38Zm-.59-14.4.72,2.23-1.9-1.38-1.9,1.38.72-2.23-1.9-1.38h2.34l.72-2.23.72,2.23h2.35Z"/><polygon class="uz_cls-5" points="75.55 5.13 74.82 7.36 75.21 7.36 75.55 5.13"/><polygon class="uz_cls-5" points="75.39 7.36 75.7 7.36 76.27 7.36 75.55 5.13 75.21 7.36 75.39 7.36"/><polygon class="uz_cls-5" points="75.7 7.36 75.7 7.85 75.73 7.84 75.78 7.77 75.81 7.83 78.61 7.36 76.27 7.36 75.7 7.36"/><polygon class="uz_cls-5" points="75.81 7.83 75.86 7.92 76.04 7.95 75.96 8.06 76.44 7.9 76.72 8.74 78.61 7.36 75.81 7.83"/><polygon class="uz_cls-5" points="75.7 7.85 75.7 7.87 75.73 7.84 75.7 7.85"/><polygon class="uz_cls-5" points="72.47 7.36 74.37 8.74 74.49 8.37 72.47 7.36"/><polygon class="uz_cls-5" points="75.96 8.06 76.04 7.95 75.86 7.92 75.93 8.07 75.96 8.06"/><polygon class="uz_cls-5" points="74.49 8.37 74.65 7.9 75.16 8.07 75.31 7.77 75.55 8.09 75.7 7.87 75.7 7.85 75.7 7.36 75.39 7.36 75.21 7.36 74.82 7.36 72.47 7.36 74.49 8.37"/><polygon class="uz_cls-5" points="76.44 7.9 75.96 8.06 75.93 8.07 76.09 8.37 76.18 8.4 76.13 8.45 77.44 10.97 76.72 8.74 76.44 7.9"/><polygon class="uz_cls-5" points="76.13 8.45 75.94 8.64 76.26 9.07 75.55 9.59 77.44 10.97 76.13 8.45"/><polygon class="uz_cls-5" points="75.64 8.23 76.09 8.37 75.93 8.07 75.86 7.92 75.81 7.83 75.78 7.77 75.73 7.84 75.7 7.87 75.55 8.09 75.64 8.23"/><polygon class="uz_cls-5" points="75.64 8.23 75.55 8.09 75.31 7.77 75.16 8.07 75.64 8.23"/><polygon class="uz_cls-5" points="76.26 9.07 75.94 8.64 73.65 10.97 75.55 9.59 76.26 9.07"/><polygon class="uz_cls-5" points="75.94 8.64 76.13 8.45 76.18 8.4 76.09 8.37 75.64 8.23 75.16 8.07 74.65 7.9 74.49 8.37 74.37 8.74 73.65 10.97 75.94 8.64"/><polygon class="uz_cls-5" points="88.46 5.13 87.73 7.36 88.12 7.36 88.46 5.13"/><polygon class="uz_cls-5" points="88.3 7.36 88.61 7.36 89.18 7.36 88.46 5.13 88.12 7.36 88.3 7.36"/><polygon class="uz_cls-5" points="88.61 7.36 88.61 7.85 88.64 7.84 88.69 7.77 88.72 7.83 91.53 7.36 89.18 7.36 88.61 7.36"/><polygon class="uz_cls-5" points="88.72 7.83 88.77 7.92 88.95 7.95 88.87 8.06 89.36 7.9 89.63 8.74 91.53 7.36 88.72 7.83"/><polygon class="uz_cls-5" points="88.61 7.85 88.61 7.87 88.64 7.84 88.61 7.85"/><polygon class="uz_cls-5" points="85.39 7.36 87.28 8.74 87.4 8.37 85.39 7.36"/><polygon class="uz_cls-5" points="88.87 8.06 88.95 7.95 88.77 7.92 88.85 8.07 88.87 8.06"/><polygon class="uz_cls-5" points="87.4 8.37 87.56 7.9 88.07 8.07 88.22 7.77 88.46 8.09 88.61 7.87 88.61 7.85 88.61 7.36 88.3 7.36 88.12 7.36 87.73 7.36 85.39 7.36 87.4 8.37"/><polygon class="uz_cls-5" points="89.36 7.9 88.87 8.06 88.85 8.07 89 8.37 89.09 8.4 89.05 8.45 90.36 10.97 89.63 8.74 89.36 7.9"/><polygon class="uz_cls-5" points="89.05 8.45 88.86 8.64 89.17 9.07 88.46 9.59 90.36 10.97 89.05 8.45"/><polygon class="uz_cls-5" points="88.56 8.23 89 8.37 88.85 8.07 88.77 7.92 88.72 7.83 88.69 7.77 88.64 7.84 88.61 7.87 88.46 8.09 88.56 8.23"/><polygon class="uz_cls-5" points="88.56 8.23 88.46 8.09 88.22 7.77 88.07 8.07 88.56 8.23"/><polygon class="uz_cls-5" points="89.17 9.07 88.86 8.64 86.56 10.97 88.46 9.59 89.17 9.07"/><polygon class="uz_cls-5" points="88.86 8.64 89.05 8.45 89.09 8.4 89 8.37 88.56 8.23 88.07 8.07 87.56 7.9 87.4 8.37 87.28 8.74 86.56 10.97 88.86 8.64"/><polygon class="uz_cls-5" points="101.37 5.13 100.64 7.36 101.03 7.36 101.37 5.13"/><polygon class="uz_cls-5" points="101.21 7.36 101.53 7.36 102.09 7.36 101.37 5.13 101.03 7.36 101.21 7.36"/><polygon class="uz_cls-5" points="101.53 7.36 101.53 7.85 101.55 7.84 101.6 7.77 101.64 7.83 104.44 7.36 102.09 7.36 101.53 7.36"/><polygon class="uz_cls-5" points="101.64 7.83 101.68 7.92 101.86 7.95 101.78 8.06 102.27 7.9 102.54 8.74 104.44 7.36 101.64 7.83"/><polygon class="uz_cls-5" points="101.53 7.85 101.53 7.87 101.55 7.84 101.53 7.85"/><polygon class="uz_cls-5" points="98.3 7.36 100.2 8.74 100.32 8.37 98.3 7.36"/><polygon class="uz_cls-5" points="101.78 8.06 101.86 7.95 101.68 7.92 101.76 8.07 101.78 8.06"/><polygon class="uz_cls-5" points="100.32 8.37 100.47 7.9 100.98 8.07 101.14 7.77 101.37 8.09 101.53 7.87 101.53 7.85 101.53 7.36 101.21 7.36 101.03 7.36 100.64 7.36 98.3 7.36 100.32 8.37"/><polygon class="uz_cls-5" points="102.27 7.9 101.78 8.06 101.76 8.07 101.92 8.37 102 8.4 101.96 8.45 103.27 10.97 102.54 8.74 102.27 7.9"/><polygon class="uz_cls-5" points="101.96 8.45 101.77 8.64 102.08 9.07 101.37 9.59 103.27 10.97 101.96 8.45"/><polygon class="uz_cls-5" points="101.47 8.23 101.92 8.37 101.76 8.07 101.68 7.92 101.64 7.83 101.6 7.77 101.55 7.84 101.53 7.87 101.37 8.09 101.47 8.23"/><polygon class="uz_cls-5" points="101.47 8.23 101.37 8.09 101.14 7.77 100.98 8.07 101.47 8.23"/><polygon class="uz_cls-5" points="102.08 9.07 101.77 8.64 99.47 10.97 101.37 9.59 102.08 9.07"/><polygon class="uz_cls-5" points="101.77 8.64 101.96 8.45 102 8.4 101.92 8.37 101.47 8.23 100.98 8.07 100.47 7.9 100.32 8.37 100.2 8.74 99.47 10.97 101.77 8.64"/><polygon class="uz_cls-5" points="62.63 18.04 61.91 20.27 62.3 20.27 62.63 18.04"/><polygon class="uz_cls-5" points="62.48 20.27 62.79 20.27 63.36 20.27 62.63 18.04 62.3 20.27 62.48 20.27"/><polygon class="uz_cls-5" points="62.79 20.27 62.79 20.76 62.81 20.75 62.87 20.68 62.9 20.74 65.7 20.27 63.36 20.27 62.79 20.27"/><polygon class="uz_cls-5" points="62.9 20.74 62.95 20.84 63.13 20.86 63.05 20.97 63.53 20.81 63.81 21.65 65.7 20.27 62.9 20.74"/><polygon class="uz_cls-5" points="62.81 20.75 62.79 20.76 62.79 20.78 62.81 20.75"/><polygon class="uz_cls-5" points="59.56 20.27 61.46 21.65 61.58 21.28 59.56 20.27"/><polygon class="uz_cls-5" points="63.05 20.97 63.13 20.86 62.95 20.84 63.02 20.98 63.05 20.97"/><polygon class="uz_cls-5" points="61.73 20.81 62.24 20.98 62.4 20.68 62.63 21 62.79 20.78 62.79 20.76 62.79 20.27 62.48 20.27 62.3 20.27 61.91 20.27 59.56 20.27 61.58 21.28 61.73 20.81"/><polygon class="uz_cls-5" points="63.53 20.81 63.05 20.97 63.02 20.98 63.18 21.28 63.27 21.31 63.22 21.36 64.53 23.88 63.81 21.65 63.53 20.81"/><polygon class="uz_cls-5" points="62.63 21 62.73 21.14 63.18 21.28 63.02 20.98 62.95 20.84 62.9 20.74 62.87 20.68 62.81 20.75 62.79 20.78 62.63 21"/><polygon class="uz_cls-5" points="63.22 21.36 63.03 21.55 63.35 21.99 62.63 22.5 64.53 23.88 63.22 21.36"/><polygon class="uz_cls-5" points="62.63 21 62.4 20.68 62.24 20.98 62.73 21.14 62.63 21"/><polygon class="uz_cls-5" points="63.35 21.99 63.03 21.55 60.74 23.88 62.63 22.5 63.35 21.99"/><polygon class="uz_cls-5" points="63.03 21.55 63.22 21.36 63.27 21.31 63.18 21.28 62.73 21.14 62.24 20.98 61.73 20.81 61.58 21.28 61.46 21.65 60.74 23.88 63.03 21.55"/><polygon class="uz_cls-5" points="75.58 17.87 74.86 20.1 75.25 20.1 75.58 17.87"/><polygon class="uz_cls-5" points="75.43 20.1 75.74 20.1 76.31 20.1 75.58 17.87 75.25 20.1 75.43 20.1"/><polygon class="uz_cls-5" points="75.74 20.1 75.74 20.58 75.76 20.58 75.82 20.51 75.85 20.57 78.65 20.1 76.31 20.1 75.74 20.1"/><polygon class="uz_cls-5" points="75.85 20.57 75.9 20.66 76.07 20.69 76 20.8 76.48 20.64 76.76 21.48 78.65 20.1 75.85 20.57"/><polygon class="uz_cls-5" points="75.76 20.58 75.74 20.58 75.74 20.61 75.76 20.58"/><polygon class="uz_cls-5" points="72.51 20.1 74.41 21.48 74.53 21.11 72.51 20.1"/><polygon class="uz_cls-5" points="76 20.8 76.07 20.69 75.9 20.66 75.97 20.8 76 20.8"/><polygon class="uz_cls-5" points="74.68 20.64 75.19 20.8 75.35 20.51 75.58 20.83 75.74 20.61 75.74 20.58 75.74 20.1 75.43 20.1 75.25 20.1 74.86 20.1 72.51 20.1 74.53 21.11 74.68 20.64"/><polygon class="uz_cls-5" points="76.48 20.64 76 20.8 75.97 20.8 76.13 21.11 76.22 21.14 76.17 21.19 77.48 23.71 76.76 21.48 76.48 20.64"/><polygon class="uz_cls-5" points="75.58 20.83 75.68 20.96 76.13 21.11 75.97 20.8 75.9 20.66 75.85 20.57 75.82 20.51 75.76 20.58 75.74 20.61 75.58 20.83"/><polygon class="uz_cls-5" points="76.17 21.19 75.98 21.38 76.3 21.81 75.58 22.33 77.48 23.71 76.17 21.19"/><polygon class="uz_cls-5" points="75.58 20.83 75.35 20.51 75.19 20.8 75.68 20.96 75.58 20.83"/><polygon class="uz_cls-5" points="76.3 21.81 75.98 21.38 73.69 23.71 75.58 22.33 76.3 21.81"/><polygon class="uz_cls-5" points="75.98 21.38 76.17 21.19 76.22 21.14 76.13 21.11 75.68 20.96 75.19 20.8 74.68 20.64 74.53 21.11 74.41 21.48 73.69 23.71 75.98 21.38"/><polygon class="uz_cls-5" points="88.5 17.87 87.77 20.1 88.16 20.1 88.5 17.87"/><polygon class="uz_cls-5" points="88.34 20.1 88.65 20.1 89.22 20.1 88.5 17.87 88.16 20.1 88.34 20.1"/><polygon class="uz_cls-5" points="88.65 20.1 88.65 20.58 88.68 20.58 88.73 20.51 88.76 20.57 91.56 20.1 89.22 20.1 88.65 20.1"/><polygon class="uz_cls-5" points="88.76 20.57 88.81 20.66 88.99 20.69 88.91 20.8 89.4 20.64 89.67 21.48 91.56 20.1 88.76 20.57"/><polygon class="uz_cls-5" points="88.68 20.58 88.65 20.58 88.65 20.61 88.68 20.58"/><polygon class="uz_cls-5" points="85.42 20.1 87.32 21.48 87.44 21.11 85.42 20.1"/><polygon class="uz_cls-5" points="88.91 20.8 88.99 20.69 88.81 20.66 88.89 20.8 88.91 20.8"/><polygon class="uz_cls-5" points="87.6 20.64 88.1 20.8 88.26 20.51 88.5 20.83 88.65 20.61 88.65 20.58 88.65 20.1 88.34 20.1 88.16 20.1 87.77 20.1 85.42 20.1 87.44 21.11 87.6 20.64"/><polygon class="uz_cls-5" points="89.4 20.64 88.91 20.8 88.89 20.8 89.04 21.11 89.13 21.14 89.08 21.18 90.39 23.71 89.67 21.48 89.4 20.64"/><polygon class="uz_cls-5" points="88.5 20.83 88.59 20.96 89.04 21.11 88.89 20.8 88.81 20.66 88.76 20.57 88.73 20.51 88.68 20.58 88.65 20.61 88.5 20.83"/><polygon class="uz_cls-5" points="89.08 21.18 88.89 21.38 89.21 21.81 88.49 22.33 90.39 23.71 89.08 21.18"/><polygon class="uz_cls-5" points="88.5 20.83 88.26 20.51 88.1 20.8 88.59 20.96 88.5 20.83"/><polygon class="uz_cls-5" points="89.21 21.81 88.89 21.38 86.6 23.71 88.49 22.33 89.21 21.81"/><polygon class="uz_cls-5" points="88.89 21.38 89.08 21.18 89.13 21.14 89.04 21.11 88.59 20.96 88.1 20.8 87.6 20.64 87.44 21.11 87.32 21.48 86.6 23.71 88.89 21.38"/><polygon class="uz_cls-5" points="101.41 17.87 100.68 20.1 101.07 20.1 101.41 17.87"/><polygon class="uz_cls-5" points="101.25 20.1 101.56 20.1 102.13 20.1 101.41 17.87 101.07 20.1 101.25 20.1"/><polygon class="uz_cls-5" points="101.56 20.1 101.56 20.58 101.59 20.58 101.64 20.51 101.67 20.57 104.48 20.1 102.13 20.1 101.56 20.1"/><polygon class="uz_cls-5" points="101.67 20.57 101.72 20.66 101.9 20.69 101.82 20.8 102.31 20.64 102.58 21.48 104.48 20.1 101.67 20.57"/><polygon class="uz_cls-5" points="101.59 20.58 101.56 20.58 101.56 20.61 101.59 20.58"/><polygon class="uz_cls-5" points="98.34 20.1 100.23 21.48 100.35 21.11 98.34 20.1"/><polygon class="uz_cls-5" points="101.82 20.8 101.9 20.69 101.72 20.66 101.8 20.8 101.82 20.8"/><polygon class="uz_cls-5" points="100.51 20.64 101.02 20.8 101.17 20.51 101.41 20.83 101.56 20.61 101.56 20.58 101.56 20.1 101.25 20.1 101.07 20.1 100.68 20.1 98.34 20.1 100.35 21.11 100.51 20.64"/><polygon class="uz_cls-5" points="102.31 20.64 101.82 20.8 101.8 20.8 101.95 21.11 102.04 21.14 102 21.19 103.3 23.71 102.58 21.48 102.31 20.64"/><polygon class="uz_cls-5" points="101.41 20.83 101.5 20.96 101.95 21.11 101.8 20.8 101.72 20.66 101.67 20.57 101.64 20.51 101.59 20.58 101.56 20.61 101.41 20.83"/><polygon class="uz_cls-5" points="102 21.19 101.81 21.38 102.12 21.81 101.41 22.33 103.3 23.71 102 21.19"/><polygon class="uz_cls-5" points="101.41 20.83 101.17 20.51 101.02 20.8 101.5 20.96 101.41 20.83"/><polygon class="uz_cls-5" points="102.12 21.81 101.81 21.38 99.51 23.71 101.41 22.33 102.12 21.81"/><polygon class="uz_cls-5" points="101.81 21.38 102 21.19 102.04 21.14 101.95 21.11 101.5 20.96 101.02 20.8 100.51 20.64 100.35 21.11 100.23 21.48 99.51 23.71 101.81 21.38"/><polygon class="uz_cls-5" points="62.5 30.21 61.77 32.44 62.16 32.44 62.5 30.21"/><polygon class="uz_cls-5" points="62.34 32.44 62.66 32.44 63.22 32.44 62.5 30.21 62.16 32.44 62.34 32.44"/><polygon class="uz_cls-5" points="62.66 32.44 62.66 32.93 62.68 32.92 62.73 32.85 62.77 32.91 65.57 32.44 63.22 32.44 62.66 32.44"/><polygon class="uz_cls-5" points="62.77 32.91 62.81 33.01 62.99 33.03 62.91 33.14 63.4 32.98 63.67 33.82 65.57 32.44 62.77 32.91"/><polygon class="uz_cls-5" points="62.66 32.93 62.66 32.95 62.68 32.92 62.66 32.93"/><polygon class="uz_cls-5" points="59.43 32.44 61.33 33.82 61.45 33.45 59.43 32.44"/><polygon class="uz_cls-5" points="62.91 33.14 62.99 33.03 62.81 33.01 62.89 33.15 62.91 33.14"/><polygon class="uz_cls-5" points="61.6 32.98 62.11 33.15 62.27 32.85 62.5 33.17 62.66 32.95 62.66 32.93 62.66 32.44 62.34 32.44 62.16 32.44 61.77 32.44 59.43 32.44 61.45 33.45 61.6 32.98"/><polygon class="uz_cls-5" points="63.4 32.98 62.91 33.14 62.89 33.15 63.05 33.45 63.13 33.48 63.09 33.53 64.4 36.05 63.67 33.82 63.4 32.98"/><polygon class="uz_cls-5" points="62.68 32.92 62.66 32.95 62.5 33.17 62.6 33.31 63.05 33.45 62.89 33.15 62.81 33.01 62.77 32.91 62.73 32.85 62.68 32.92"/><polygon class="uz_cls-5" points="63.09 33.53 62.9 33.72 63.21 34.15 62.5 34.67 64.4 36.05 63.09 33.53"/><polygon class="uz_cls-5" points="62.5 33.17 62.27 32.85 62.11 33.15 62.6 33.31 62.5 33.17"/><polygon class="uz_cls-5" points="63.21 34.15 62.9 33.72 60.6 36.05 62.5 34.67 63.21 34.15"/><polygon class="uz_cls-5" points="62.9 33.72 63.09 33.53 63.13 33.48 63.05 33.45 62.6 33.31 62.11 33.15 61.6 32.98 61.45 33.45 61.33 33.82 60.6 36.05 62.9 33.72"/><polygon class="uz_cls-5" points="75.45 30.04 74.72 32.27 75.11 32.27 75.45 30.04"/><polygon class="uz_cls-5" points="75.29 32.27 75.61 32.27 76.17 32.27 75.45 30.04 75.11 32.27 75.29 32.27"/><polygon class="uz_cls-5" points="75.61 32.27 75.61 32.75 75.63 32.75 75.68 32.67 75.72 32.73 78.52 32.27 76.17 32.27 75.61 32.27"/><polygon class="uz_cls-5" points="75.72 32.73 75.77 32.83 75.94 32.86 75.86 32.96 76.35 32.81 76.62 33.65 78.52 32.27 75.72 32.73"/><polygon class="uz_cls-5" points="75.61 32.75 75.61 32.78 75.63 32.75 75.61 32.75"/><polygon class="uz_cls-5" points="72.38 32.27 74.27 33.65 74.39 33.27 72.38 32.27"/><polygon class="uz_cls-5" points="75.86 32.96 75.94 32.86 75.77 32.83 75.84 32.97 75.86 32.96"/><polygon class="uz_cls-5" points="74.55 32.81 75.06 32.97 75.21 32.67 75.45 33 75.61 32.78 75.61 32.75 75.61 32.27 75.29 32.27 75.11 32.27 74.72 32.27 72.38 32.27 74.39 33.27 74.55 32.81"/><polygon class="uz_cls-5" points="76.35 32.81 75.86 32.96 75.84 32.97 76 33.28 76.08 33.3 76.04 33.35 77.35 35.88 76.62 33.65 76.35 32.81"/><polygon class="uz_cls-5" points="75.63 32.75 75.61 32.78 75.45 33 75.54 33.13 76 33.28 75.84 32.97 75.77 32.83 75.72 32.73 75.68 32.67 75.63 32.75"/><polygon class="uz_cls-5" points="76.04 33.35 75.85 33.55 76.16 33.98 75.45 34.5 77.35 35.88 76.04 33.35"/><polygon class="uz_cls-5" points="75.45 33 75.21 32.67 75.06 32.97 75.54 33.13 75.45 33"/><polygon class="uz_cls-5" points="76.16 33.98 75.85 33.55 73.55 35.88 75.45 34.5 76.16 33.98"/><polygon class="uz_cls-5" points="75.85 33.55 76.04 33.35 76.08 33.3 76 33.28 75.54 33.13 75.06 32.97 74.55 32.81 74.39 33.27 74.27 33.65 73.55 35.88 75.85 33.55"/><polygon class="uz_cls-5" points="88.36 30.04 87.63 32.27 88.03 32.27 88.36 30.04"/><polygon class="uz_cls-5" points="88.2 32.27 88.52 32.27 89.08 32.27 88.36 30.04 88.03 32.27 88.2 32.27"/><polygon class="uz_cls-5" points="88.52 32.27 88.52 32.75 88.54 32.75 88.59 32.67 88.63 32.73 91.43 32.27 89.08 32.27 88.52 32.27"/><polygon class="uz_cls-5" points="88.63 32.73 88.68 32.83 88.85 32.86 88.77 32.96 89.26 32.81 89.53 33.65 91.43 32.27 88.63 32.73"/><polygon class="uz_cls-5" points="88.52 32.75 88.52 32.78 88.54 32.75 88.52 32.75"/><polygon class="uz_cls-5" points="85.29 32.27 87.19 33.65 87.31 33.27 85.29 32.27"/><polygon class="uz_cls-5" points="88.77 32.96 88.85 32.86 88.68 32.83 88.75 32.97 88.77 32.96"/><polygon class="uz_cls-5" points="87.46 32.81 87.97 32.97 88.13 32.67 88.36 33 88.52 32.78 88.52 32.75 88.52 32.27 88.2 32.27 88.03 32.27 87.63 32.27 85.29 32.27 87.31 33.27 87.46 32.81"/><polygon class="uz_cls-5" points="89.26 32.81 88.77 32.96 88.75 32.97 88.91 33.28 89 33.3 88.95 33.35 90.26 35.88 89.53 33.65 89.26 32.81"/><polygon class="uz_cls-5" points="88.54 32.75 88.52 32.78 88.36 33 88.46 33.13 88.91 33.28 88.75 32.97 88.68 32.83 88.63 32.73 88.59 32.67 88.54 32.75"/><polygon class="uz_cls-5" points="88.95 33.35 88.76 33.55 89.07 33.98 88.36 34.5 90.26 35.88 88.95 33.35"/><polygon class="uz_cls-5" points="88.36 33 88.13 32.67 87.97 32.97 88.46 33.13 88.36 33"/><polygon class="uz_cls-5" points="89.07 33.98 88.76 33.55 86.46 35.88 88.36 34.5 89.07 33.98"/><polygon class="uz_cls-5" points="88.76 33.55 88.95 33.35 89 33.3 88.91 33.28 88.46 33.13 87.97 32.97 87.46 32.81 87.31 33.27 87.19 33.65 86.46 35.88 88.76 33.55"/><polygon class="uz_cls-5" points="101.27 30.04 100.55 32.27 100.94 32.27 101.27 30.04"/><polygon class="uz_cls-5" points="101.11 32.27 101.43 32.27 102 32.27 101.27 30.04 100.94 32.27 101.11 32.27"/><polygon class="uz_cls-5" points="101.43 32.27 101.43 32.75 101.45 32.75 101.51 32.67 101.54 32.73 104.34 32.27 102 32.27 101.43 32.27"/><polygon class="uz_cls-5" points="101.54 32.73 101.59 32.83 101.76 32.86 101.69 32.96 102.17 32.81 102.44 33.65 104.34 32.27 101.54 32.73"/><polygon class="uz_cls-5" points="101.43 32.75 101.43 32.78 101.45 32.75 101.43 32.75"/><polygon class="uz_cls-5" points="98.2 32.27 100.1 33.65 100.22 33.27 98.2 32.27"/><polygon class="uz_cls-5" points="101.69 32.96 101.76 32.86 101.59 32.83 101.66 32.97 101.69 32.96"/><polygon class="uz_cls-5" points="100.37 32.81 100.88 32.97 101.04 32.67 101.27 33 101.43 32.78 101.43 32.75 101.43 32.27 101.11 32.27 100.94 32.27 100.55 32.27 98.2 32.27 100.22 33.27 100.37 32.81"/><polygon class="uz_cls-5" points="102.17 32.81 101.69 32.96 101.66 32.97 101.82 33.28 101.91 33.3 101.86 33.35 103.17 35.88 102.44 33.65 102.17 32.81"/><polygon class="uz_cls-5" points="101.45 32.75 101.43 32.78 101.27 33 101.37 33.13 101.82 33.28 101.66 32.97 101.59 32.83 101.54 32.73 101.51 32.67 101.45 32.75"/><polygon class="uz_cls-5" points="101.86 33.35 101.67 33.55 101.99 33.98 101.27 34.5 103.17 35.88 101.86 33.35"/><polygon class="uz_cls-5" points="101.27 33 101.04 32.67 100.88 32.97 101.37 33.13 101.27 33"/><polygon class="uz_cls-5" points="101.99 33.98 101.67 33.55 99.38 35.88 101.27 34.5 101.99 33.98"/><polygon class="uz_cls-5" points="101.67 33.55 101.86 33.35 101.91 33.3 101.82 33.28 101.37 33.13 100.88 32.97 100.37 32.81 100.22 33.27 100.1 33.65 99.38 35.88 101.67 33.55"/><polygon class="uz_cls-5" points="49.64 32.57 50.02 32.57 50.36 30.34 49.76 32.19 49.64 32.57"/><polygon class="uz_cls-5" points="50.36 30.34 50.02 32.57 50.2 32.57 50.52 32.57 51.09 32.57 50.72 31.43 50.36 30.34"/><polygon class="uz_cls-5" points="50.52 32.57 50.52 33.05 50.54 33.05 50.6 32.97 50.63 33.03 53.43 32.57 51.09 32.57 50.52 32.57"/><polygon class="uz_cls-5" points="50.63 33.03 50.68 33.13 50.85 33.16 50.77 33.26 51.26 33.1 51.53 33.94 53.43 32.57 50.63 33.03"/><polygon class="uz_cls-5" points="50.54 33.05 50.52 33.05 50.52 33.08 50.54 33.05"/><polygon class="uz_cls-5" points="47.29 32.57 48.15 33.19 49.19 33.95 49.31 33.58 47.29 32.57"/><polygon class="uz_cls-5" points="50.77 33.26 50.85 33.16 50.68 33.13 50.75 33.27 50.77 33.26"/><polygon class="uz_cls-5" points="49.21 32.57 47.29 32.57 49.31 33.58 49.46 33.1 49.97 33.27 50.13 32.97 50.36 33.3 50.52 33.08 50.52 33.05 50.52 32.57 50.2 32.57 50.02 32.57 49.64 32.57 49.21 32.57"/><polygon class="uz_cls-5" points="51.26 33.1 50.77 33.26 50.75 33.27 50.91 33.58 51 33.6 50.95 33.65 52.26 36.17 51.53 33.94 51.26 33.1"/><polygon class="uz_cls-5" points="50.36 33.3 50.46 33.43 50.91 33.58 50.75 33.27 50.68 33.13 50.63 33.03 50.6 32.97 50.54 33.05 50.52 33.08 50.36 33.3"/><polygon class="uz_cls-5" points="50.95 33.65 50.76 33.84 51.08 34.28 50.36 34.8 52.26 36.17 50.95 33.65"/><polygon class="uz_cls-5" points="50.36 33.3 50.13 32.97 49.97 33.27 50.46 33.43 50.36 33.3"/><polygon class="uz_cls-5" points="51.08 34.28 50.76 33.84 48.46 36.17 50.36 34.8 51.08 34.28"/><polygon class="uz_cls-5" points="50.76 33.84 50.95 33.65 51 33.6 50.91 33.58 50.46 33.43 49.97 33.27 49.46 33.1 49.31 33.58 49.19 33.95 48.46 36.17 50.76 33.84"/></g></g></svg>
