<svg xmlns="http://www.w3.org/2000/svg" viewBox="0 0 200 134"><defs><style>.vc_cls-1{fill:none;}.vc_cls-2{fill:#fbd632;}.vc_cls-3{fill:#2573b9;}.vc_cls-4{fill:#209e6c;}.vc_cls-5{fill:#019e60;}</style></defs><title>Asset 70</title><g id="Layer_2" data-name="Layer 2"><g id="Layer_32" data-name="Layer 32"><path class="vc_cls-1" d="M150.75.12H185A17.07,17.07,0,0,0,183,0H150.75Z"/><path class="vc_cls-2" d="M150.75,0H50.15V134h100.6V0ZM75.13,66.89l11.2-22.07,11.2,22.07L86.33,89.18Zm25.2,50.3L89.13,94.89l11.2-21.62,11,21.62Zm14.12-28-11.32-22.4L114.23,45l11.09,22Z"/><path class="vc_cls-3" d="M17,0A17,17,0,0,0,0,17V117a17,17,0,0,0,17,17H50.15V0Z"/><path class="vc_cls-4" d="M150.75,134H183a17,17,0,0,0,17-17V17A17,17,0,0,0,185,.12H150.75Z"/><polygon class="vc_cls-5" points="86.33 44.82 75.13 66.89 86.33 89.18 97.54 66.89 86.33 44.82"/><polygon class="vc_cls-5" points="103.14 66.78 114.45 89.18 125.32 67 114.23 45.04 103.14 66.78"/><polygon class="vc_cls-5" points="89.14 94.89 100.34 117.19 111.31 94.89 100.34 73.27 89.14 94.89"/></g></g></svg>
