<svg xmlns="http://www.w3.org/2000/svg" viewBox="0 0 200 134"><defs><style>.vn_cls-1{fill:#ce2931;}.vn_cls-2{fill:#fbd632;}</style></defs><title>Asset 96</title><g id="Layer_2" data-name="Layer 2"><g id="Layer_5" data-name="Layer 5"><path class="vn_cls-1" d="M183,0H17A17,17,0,0,0,0,17V117a17,17,0,0,0,17,17H183a17,17,0,0,0,17-17V17A17,17,0,0,0,183,0ZM126.31,103.21,100,84.1,73.69,103.21l10-30.93L57.43,53.17H90l10-30.93,10,30.93h32.52L116.26,72.28Z"/><polygon class="vn_cls-2" points="110.05 53.17 100 22.24 89.95 53.17 57.43 53.17 83.74 72.28 73.69 103.21 100 84.1 126.31 103.21 116.26 72.28 142.57 53.17 110.05 53.17"/></g></g></svg>
