<svg xmlns="http://www.w3.org/2000/svg" viewBox="0 0 200 134"><defs><style>.vu_cls-1{fill:#d32a40;}.vu_cls-2{fill:#1e9554;}.vu_cls-3{fill:#fed733;}.vu_cls-4{fill:#121212;}.vu_cls-5{fill:#fdcf16;}</style></defs><title>Asset 94</title><g id="Layer_2" data-name="Layer 2"><g id="Layer_7" data-name="Layer 7"><path class="vu_cls-1" d="M183,0H17A16.9,16.9,0,0,0,6.68,3.52L106.4,54.93H200V17A17,17,0,0,0,183,0Z"/><path class="vu_cls-2" d="M6.68,130.48A16.9,16.9,0,0,0,17,134H183a17,17,0,0,0,17-17V79.07H106.41Z"/><path class="vu_cls-3" d="M104.34,63.45,87.81,54.93,1.35,10.35A17,17,0,0,0,0,17v.65L95.73,67,0,116.35V117a17,17,0,0,0,1.35,6.64L87.81,79.07l16.52-8.52H200v-7.1Z"/><path class="vu_cls-4" d="M28.14,62.46l0-.14-.08,0Z"/><path class="vu_cls-4" d="M27.21,61.82l-.05,0,.05,0,.05,0Z"/><path class="vu_cls-4" d="M28.69,63l.46.49a8.65,8.65,0,0,1-.22-1.58,1,1,0,0,1-.25.18A8,8,0,0,1,28.69,63Z"/><path class="vu_cls-4" d="M25.28,63.5l.46-.48a7.55,7.55,0,0,1,0-.92,1,1,0,0,1-.25-.18A8.8,8.8,0,0,1,25.28,63.5Z"/><path class="vu_cls-4" d="M26.4,62.35l-.08,0,0,.14Z"/><path class="vu_cls-4" d="M26.77,61.76c0-.09,0-.2,0-.32l0,0h-.27c0,.09,0,.18,0,.27Z"/><path class="vu_cls-4" d="M27.65,61.43c0,.12,0,.23,0,.33l.32-.08c0-.09,0-.18,0-.27h-.26Z"/><path class="vu_cls-4" d="M26.13,62.88,26,63l-.26.27c.13,0,.65-.21,1.09-.3,0-.06.16-.07.33-.06s.3,0,.33.06c.44.09,1,.26,1.09.3L28.37,63l0,0-.24-.23s-.41-.05-.88-.14c-.48.09-.87.14-.88.14Z"/><path class="vu_cls-4" d="M106.4,54.93,6.68,3.52a17,17,0,0,0-5.33,6.84L87.81,54.93l16.52,8.52H200V54.93Z"/><path class="vu_cls-4" d="M87.81,79.07,1.35,123.64a17,17,0,0,0,5.33,6.84l99.73-51.41H200V70.55H104.34Z"/><path class="vu_cls-4" d="M0,17.65v98.71L95.73,67ZM26.33,87.59V79.9c8.06,0,13.12-8.19,13.12-14.62S34.2,52.47,27,52.47,15.71,59.16,15.71,64.16,20,74.22,26.76,74.22s10.06-6.06,10.06-8.93C37.88,75.4,28.51,77.65,26,77.65S10.83,76.4,10.83,62.91,23.77,46.41,28,46.41,46.13,49.47,46.13,66,33,87.59,26.33,87.59Zm6.08-19.45S30,67.6,29.83,66.85s2,.58,2.25.71l-.17-.26-.18-.25s-2.25-.73-2.46-1.41,1.48.3,1.82.5l-.4-.52s-2.29-.54-2.62-1.34,2,.61,2,.61l-.68-.82a5.54,5.54,0,0,1-2.2-.74,5.53,5.53,0,0,1-2.2.74l-.68.82s2.34-1.41,2-.61-2.61,1.33-2.62,1.34l-.4.52c.35-.2,2-1.11,1.82-.5s-2.46,1.41-2.46,1.41l-.18.24-.18.26c.22-.13,2.45-1.43,2.25-.71S22,68.14,22,68.14l-.3.47S24,67.3,24,67.93s-2.39,1.19-2.67,1.26c-.33.6-.5,1-.5,1l-.4-.26c.27-.44.54-.85.81-1.27-.06-.13-.94-2-.11-2.88s.52,2,.47,2.33l.37-.52c0-.2-.55-2.46.07-3s.33,2.37.33,2.37l.4-.52s-.42-2.39.21-2.84.23,2.25.23,2.25l0,0,.43-.53c0-.18-.31-2.26.43-2.78s.11,2.08.1,2.15l.51-.58c0-.16-.21-2.08.42-2.52.15-.1.23-.06.28.07a.63.63,0,0,1,.35,0c0-.07,0-.14,0-.21-.69-.06-1.52-.21-1.69-.56-.31-.63,1.78-.09,1.78-.09l-.52-.42s-2.08,0-2.37-.45,1.78,0,1.84,0l-.05,0-.43-.3s-2.11.12-2.37-.42,1.67,0,1.84,0l-.32-.23-.17-.11s-3.19-.33-2.93-.84,2.39.49,2.39.49l-.59-.33s-1.76-.82-1.41-1.38S22.24,58,22.24,58l.07,0,.49.27c-.15-.18-1.27-1.53-.67-1.42s1.34,1.74,1.39,1.85L24,59c-.22-.32-1.32-2-.68-1.76s1.22,2.08,1.24,2.14l.47.34c-.15-.25-1.13-1.95-.44-1.73s1,2,1,2.15l.48.39c-.12-.26-.92-2.18-.29-2s.82,2.23.84,2.44l.22.19c0-.13,0-.26.05-.4-.2-.61-.36-1.34.13-1.11a.72.72,0,0,1,.24.19.74.74,0,0,1,.24-.19c.49-.23.33.5.13,1.11,0,.14,0,.27.05.4l.22-.19c0-.22.2-2.24.84-2.44s-.18,1.72-.29,2l.48-.39c0-.13.28-1.93,1-2.16s-.29,1.48-.44,1.73l.47-.34c0-.06.55-1.94,1.24-2.14s-.47,1.45-.68,1.76l.43-.28c.05-.11.79-1.74,1.39-1.85s-.53,1.25-.67,1.42L32.1,58l.09-.05s1-1.83,1.36-1.26-1.41,1.38-1.41,1.38l-.57.32h0s2.13-1,2.38-.49-2.93.84-2.93.84l-.14.09-.34.25c.19,0,2.09-.55,1.84,0s-2.37.42-2.37.42l-.42.3-.06.05c.07,0,2.12-.5,1.84,0s-2.36.45-2.36.45l-.06,0-.46.38s2.09-.54,1.78.09c-.17.36-1,.5-1.69.56,0,.07,0,.13,0,.21a.62.62,0,0,1,.35,0c0-.13.13-.17.28-.07.63.45.44,2.38.43,2.53l.51.58c0-.07-.67-2.68.1-2.15s.45,2.6.43,2.78l.43.53,0,0s-.4-2.69.23-2.25.21,2.84.21,2.84L32,67s-.33-2.88.33-2.37.12,2.76.08,3l.37.52c0-.33-.34-3.17.47-2.33s0,2.75-.11,2.88c.27.41.54.83.81,1.27l-.4.26s-.16-.37-.49-1c-.28-.07-2.69-.66-2.67-1.26s2.32.68,2.32.68Z"/><path class="vu_cls-5" d="M46.13,66c0-16.5-14-19.56-18.18-19.56s-17.12,3-17.12,16.49S23.52,77.65,26,77.65,37.88,75.4,36.82,65.28c0,2.87-3.25,8.93-10.06,8.93S15.71,69.16,15.71,64.16,19.83,52.47,27,52.47s12.43,6.37,12.43,12.81S34.39,79.9,26.33,79.9v7.68C33,87.59,46.13,82.46,46.13,66Z"/><path class="vu_cls-5" d="M25.27,63.52l.47-.49h0l-.46.48Z"/><path class="vu_cls-5" d="M23.72,65.29l-.43.53.43-.5Z"/><path class="vu_cls-5" d="M24.76,64.11v0l-.51.58h0Z"/><path class="vu_cls-5" d="M26.33,62.68l-.2.2.2-.2Z"/><path class="vu_cls-5" d="M26.29,62.46v0l.15-.14h0Z"/><path class="vu_cls-5" d="M25.76,63.24h0L26,63Z"/><path class="vu_cls-5" d="M23.26,66.2l.07,0,.4-.52h0Z"/><polygon class="vu_cls-5" points="31.56 58.44 31.56 58.43 31.55 58.44 31.56 58.44"/><path class="vu_cls-5" d="M29.53,59.87l.06-.05-.08.05Z"/><path class="vu_cls-5" d="M30.53,59.13l.34-.25-.38.26Z"/><path class="vu_cls-5" d="M29.91,59.42h0l-.47.34,0,.05Z"/><path class="vu_cls-5" d="M28.94,60.34l.06,0h0Z"/><path class="vu_cls-5" d="M28.88,60.2v0l-.48.39v0Z"/><path class="vu_cls-5" d="M32.1,58l-.47.27,0,0Z"/><path class="vu_cls-5" d="M30.9,58.77v0l-.43.28,0,.07Z"/><path class="vu_cls-5" d="M27.65,61.42v0l0,0Z"/><path class="vu_cls-5" d="M27.18,61.79l-.07.06h0l.05,0Z"/><path class="vu_cls-5" d="M27.85,61.06s0,0,0,0l-.22.19v0Z"/><path class="vu_cls-5" d="M21.29,68.66v0c-.27.41-.54.83-.81,1.27l.4.26s.16-.37.5-1h0Z"/><path class="vu_cls-5" d="M22.34,67.57l.18-.26-.2.27Z"/><path class="vu_cls-5" d="M22,67.58v0l-.37.52v0Z"/><path class="vu_cls-5" d="M26.85,60.82c0,.14,0,.27-.05.4l.3.26C27.05,61.37,26.95,61.11,26.85,60.82Z"/><path class="vu_cls-5" d="M27.58,60.81c.2-.6.36-1.34-.13-1.11a.74.74,0,0,0-.24.19A2,2,0,0,1,27.58,60.81Z"/><path class="vu_cls-5" d="M26.49,61.41l-.64,0c0,.07,0,.13,0,.21a3.82,3.82,0,0,1,.65.1C26.47,61.59,26.48,61.5,26.49,61.41Z"/><path class="vu_cls-5" d="M27.21,62.88l.33.06C27.51,62.87,27.39,62.86,27.21,62.88Z"/><path class="vu_cls-5" d="M27.66,62l.37.35.08,0c0-.15-.09-.39-.13-.64l-.32.08C27.66,61.89,27.66,62,27.66,62Z"/><path class="vu_cls-5" d="M28.93,61.92a1,1,0,0,1,0-.3.62.62,0,0,0-.35,0,4.82,4.82,0,0,1,.06.52A1,1,0,0,0,28.93,61.92Z"/><path class="vu_cls-5" d="M27.21,61.89l.11,0-.06-.05Z"/><path class="vu_cls-5" d="M26.88,62.93c-.44.09-1,.26-1.09.3h0L26,63l.08-.08.2-.2h0s.4-.05.88-.14c-.25,0-.53-.11-.79-.18l-.15.14v0l0-.14a3.21,3.21,0,0,1-.57-.22,7.55,7.55,0,0,0,0,.92h0l-.47.49v0a8.8,8.8,0,0,0,.22-1.58.36.36,0,0,1-.09-.13.13.13,0,0,1,.05-.17c0-.13-.13-.17-.28-.07-.63.45-.44,2.37-.42,2.52v0l-.52.56h0c0-.07.67-2.68-.1-2.15s-.45,2.6-.43,2.78v0l-.43.5,0,0s.4-2.69-.23-2.25-.21,2.84-.21,2.84l-.4.52s.33-2.88-.33-2.37-.12,2.76-.07,3v0l-.37.54v0c0-.36.34-3.16-.47-2.33s0,2.75.11,2.88v0l0,.54h0c.28-.07,2.69-.66,2.67-1.26s-2.32.68-2.32.68l.3-.47s2.37-.54,2.58-1.29-2,.58-2.25.71h0l.2-.27.18-.24s2.25-.73,2.46-1.41-1.47.3-1.82.5l-.07,0,.47-.56h0s2.3-.54,2.62-1.34-2,.61-2,.61l.68-.82a5.53,5.53,0,0,0,2.2-.74,2,2,0,0,1-.21-.17C26.88,63.05,26.86,63,26.88,62.93Z"/><path class="vu_cls-5" d="M27.64,61.25c0,.06,0,.11,0,.17h.28c-.07-.52-.06-1,.26-.77a1.22,1.22,0,0,1,.38.73c.69-.06,1.52-.21,1.69-.56.3-.63-1.78-.09-1.78-.09l.46-.38.05,0h0s2.08,0,2.36-.45-1.77,0-1.84,0h0l.08-.05.42-.3s2.11.12,2.37-.42-1.65,0-1.84,0h0l.38-.26.14-.09s3.19-.33,2.93-.84-2.35.47-2.38.49h0l.57-.32s1.76-.82,1.41-1.38S32.18,58,32.18,58L32.1,58l-.5.3,0,0c.14-.17,1.27-1.53.67-1.42S31,58.64,30.91,58.75v0l-.47.33,0-.07c.21-.31,1.32-2,.68-1.76s-1.22,2.08-1.24,2.14h0l-.49.38,0-.05c.15-.25,1.13-1.95.44-1.73s-1,2-1,2.16v0l-.49.4v0c.12-.26.92-2.18.29-2s-.82,2.22-.84,2.44c0,0,0,0,0,0Z"/><path class="vu_cls-5" d="M26.78,61.43c0,.12,0,.23,0,.32l.35.1.07-.06Z"/><path class="vu_cls-5" d="M23.58,58.91l.32.23h0Z"/><path class="vu_cls-5" d="M26,60.6v0l-.48-.39v0Z"/><path class="vu_cls-5" d="M28,62.35,27.66,62v0l.49.47v0Z"/><path class="vu_cls-5" d="M24.85,59.82l.05,0h0Z"/><path class="vu_cls-5" d="M22.8,58.31,22.31,58l.52.31Z"/><path class="vu_cls-5" d="M24,59.1,24,59l-.43-.28v0Z"/><path class="vu_cls-5" d="M25,59.8l0-.05-.47-.34h0Z"/><path class="vu_cls-5" d="M30.18,64.67h0l-.51-.58v0Z"/><path class="vu_cls-5" d="M31.13,65.83l-.43-.53v0Z"/><path class="vu_cls-5" d="M28.1,62.68h0l.24.23Z"/><path class="vu_cls-5" d="M28.68,63l.47.49v0L28.69,63Z"/><path class="vu_cls-5" d="M28.66,63.24,28.37,63l.26.28Z"/><path class="vu_cls-5" d="M27.12,61.53l0-.05-.3-.26L26.57,61v0Z"/><path class="vu_cls-5" d="M30.7,65.63h0l.4.52.07,0Z"/><path class="vu_cls-5" d="M32.79,68.12v0l-.37-.52v0Z"/><path class="vu_cls-5" d="M31.91,67.31l.17.26h0Z"/><path class="vu_cls-5" d="M33.09,69.19h0c.33.6.49,1,.49,1l.4-.26c-.27-.44-.54-.85-.81-1.27v0Z"/><path class="vu_cls-5" d="M27.18,61.79l0,0,.05,0,.06.05.1,0-.59-.54h-.08l0,0Z"/><path class="vu_cls-5" d="M33.25,65.75c-.82-.84-.51,2-.47,2.33v0l-.37-.54v0c0-.2.55-2.46-.08-3S32,67,32,67l-.4-.52s.42-2.39-.21-2.84-.23,2.25-.23,2.25l0,0-.43-.5v0c0-.18.31-2.26-.43-2.78s-.12,2.08-.1,2.15h0l-.51-.56v0c0-.15.2-2.08-.43-2.53-.15-.1-.23-.06-.28.07a1,1,0,0,0,0,.3,8.65,8.65,0,0,0,.22,1.58v0L28.68,63h0a8,8,0,0,0,0-.92,4.82,4.82,0,0,0-.06-.52c0-.07,0-.14,0-.21a1.22,1.22,0,0,0-.38-.73c-.32-.22-.33.25-.26.77,0,.09,0,.18,0,.27,0,.25.09.49.13.64l0,.14v0L27.65,62v0s0-.11,0-.24,0-.2,0-.33h0c0-.06,0-.12,0-.17v0c0-.13,0-.26-.05-.4a2,2,0,0,0-.37-.92.72.72,0,0,0-.24-.19c-.49-.23-.32.51-.12,1.11.1.29.2.55.24.66l0,.05-.54-.47v0c0-.21-.2-2.24-.84-2.44s.18,1.72.29,2v0l-.49-.4v0c0-.13-.28-1.93-1-2.15s.29,1.48.44,1.73l0,.05-.49-.37h0c0-.07-.55-1.94-1.24-2.14s.46,1.44.68,1.76l0,.07-.47-.33v0c-.05-.12-.78-1.74-1.39-1.85s.53,1.24.67,1.42l0,0L22.31,58l-.07,0s-1-1.83-1.36-1.26,1.41,1.38,1.41,1.38l.59.33s-2.13-1-2.39-.49,2.93.84,2.93.84l.17.11.35.24h0c-.17,0-2.09-.55-1.84,0s2.37.42,2.37.42l.43.3.06,0h0c-.06,0-2.12-.5-1.84,0s2.37.45,2.37.45l.52.42s-2.09-.54-1.78.09c.17.36,1,.5,1.69.56l.64,0h.34l.59.54-.1,0-.11,0-.05,0h0l-.35-.1-.32-.08a3.82,3.82,0,0,0-.65-.1.63.63,0,0,0-.35,0,.13.13,0,0,0-.05.17.36.36,0,0,0,.09.13,1,1,0,0,0,.25.18,3.21,3.21,0,0,0,.57.22l.08,0h0c.26.07.53.13.79.18.47.09.86.14.88.14h0l.23.23,0,0,.29.29h0c-.12,0-.65-.21-1.09-.3l-.33-.06c-.17,0-.3,0-.33.06s0,.12.12.24a2,2,0,0,0,.21.17,5.54,5.54,0,0,0,2.2.74l.68.82s-2.34-1.41-2-.61,2.61,1.33,2.62,1.34h0l.47.56-.07,0c-.35-.2-2-1.11-1.82-.5s2.46,1.41,2.46,1.41l.18.25.2.27h0c-.22-.13-2.45-1.43-2.25-.71s2.58,1.29,2.58,1.29l.3.47s-2.3-1.31-2.32-.68,2.39,1.19,2.67,1.26h0l0-.54v0C33.21,68.51,34.09,66.61,33.25,65.75Z"/></g></g></svg>
