<svg xmlns="http://www.w3.org/2000/svg" viewBox="0 0 200 134"><defs><style>.ws_cls-1{fill:#ed2f31;}.ws_cls-2{fill:#2b3187;}.ws_cls-3{fill:#fff;}</style></defs><title>Asset 77</title><g id="Layer_2" data-name="Layer 2"><g id="Layer_24" data-name="Layer 24"><path class="ws_cls-1" d="M183,0H100V67H0v50a17,17,0,0,0,17,17H183a17,17,0,0,0,17-17V17A17,17,0,0,0,183,0Z"/><path class="ws_cls-2" d="M100,0H17A17,17,0,0,0,0,17V67H100ZM71.4,46,60.14,43q-.48.53-1,1l3,11.26L53.95,47a13.68,13.68,0,0,1-1.39.37l-3,11.25-3-11.25A13.65,13.65,0,0,1,45.17,47L37,55.22,40,44q-.53-.48-1-1L27.72,46,36,37.76c-.14-.45-.27-.92-.37-1.39l-11.25-3,11.25-3A14.17,14.17,0,0,1,36,29l-8.24-8.22,11.26,3q.48-.53,1-1L37,11.53l8.22,8.24a13.92,13.92,0,0,1,1.39-.37l3-11.25,3,11.25a14.06,14.06,0,0,1,1.39.37l8.22-8.24-3,11.26q.53.48,1,1l11.26-3L63.16,29a13.66,13.66,0,0,1,.37,1.39l11.25,3-11.25,3a13.79,13.79,0,0,1-.37,1.39Z"/><path class="ws_cls-3" d="M52.56,19.4l-3-11.25-3,11.25a14.17,14.17,0,0,1,6,0Z"/><path class="ws_cls-3" d="M63.53,36.38l11.25-3-11.25-3a14.12,14.12,0,0,1,0,6Z"/><path class="ws_cls-3" d="M35.59,30.38l-11.25,3,11.25,3a14.21,14.21,0,0,1,0-6Z"/><path class="ws_cls-3" d="M46.56,47.34l3,11.25,3-11.25a14.11,14.11,0,0,1-6,0Z"/><path class="ws_cls-3" d="M62.17,11.53l-8.22,8.24a14.25,14.25,0,0,1,5.19,3Z"/><path class="ws_cls-3" d="M27.72,20.76,36,29a14.27,14.27,0,0,1,3-5.19Z"/><path class="ws_cls-3" d="M71.4,46l-8.24-8.22a14.25,14.25,0,0,1-3,5.19Z"/><path class="ws_cls-3" d="M37,55.22,45.17,47A14.25,14.25,0,0,1,40,44Z"/><path class="ws_cls-3" d="M62.17,55.22,59.14,44a14.25,14.25,0,0,1-5.19,3Z"/><path class="ws_cls-3" d="M27.72,46,39,43a14.25,14.25,0,0,1-3-5.19Z"/><path class="ws_cls-3" d="M71.4,20.76l-11.26,3a14.29,14.29,0,0,1,3,5.19Z"/><path class="ws_cls-3" d="M37,11.53l3,11.26a14.24,14.24,0,0,1,5.19-3Z"/><path class="ws_cls-2" d="M63.85,33.37a14.29,14.29,0,0,0-.32-3A13.66,13.66,0,0,0,63.16,29a14.29,14.29,0,0,0-3-5.19q-.48-.53-1-1a14.25,14.25,0,0,0-5.19-3,14.06,14.06,0,0,0-1.39-.37,14.17,14.17,0,0,0-6,0,13.92,13.92,0,0,0-1.39.37,14.24,14.24,0,0,0-5.19,3q-.53.48-1,1a14.23,14.23,0,0,0-3.39,12.58c.1.47.23.93.37,1.39A14.25,14.25,0,0,0,39,43q.48.53,1,1a14.25,14.25,0,0,0,5.19,3,13.65,13.65,0,0,0,1.39.37,14.11,14.11,0,0,0,6,0A13.68,13.68,0,0,0,53.95,47a14.25,14.25,0,0,0,5.19-3q.53-.48,1-1a14.25,14.25,0,0,0,3-5.19,13.79,13.79,0,0,0,.37-1.39A14.33,14.33,0,0,0,63.85,33.37Zm-26.9,0A12.61,12.61,0,1,1,49.56,46,12.61,12.61,0,0,1,37,33.37Z"/><circle class="ws_cls-3" cx="49.56" cy="33.37" r="12.61"/></g></g></svg>
