<svg xmlns="http://www.w3.org/2000/svg" viewBox="0 0 200 134"><defs><style>.zm_cls-1{fill:none;}.zm_cls-2{fill:#228c43;}.zm_cls-3{fill:#ee8530;}.zm_cls-4{fill:#121212;}.zm_cls-5{fill:#dd2d2c;}.zm_cls-6{fill:#ee7e22;}.zm_cls-7{fill:#010101;}</style></defs><title>Asset 99</title><g id="Layer_2" data-name="Layer 2"><g id="Layer_2-2" data-name="Layer 2"><path class="zm_cls-1" d="M183,0H17a17.1,17.1,0,0,0-1.79.09H184.79A17.13,17.13,0,0,0,183,0Z"/><path class="zm_cls-1" d="M153.28,133.9H15.21A16.83,16.83,0,0,0,17,134H183a16.86,16.86,0,0,0,1.79-.1Z"/><path class="zm_cls-2" d="M129.26,48.18h24v-.05H176.8v0H200V17A17,17,0,0,0,184.79.09H15.21A17,17,0,0,0,0,17V117a17,17,0,0,0,15.21,16.9h114Z"/><path class="zm_cls-2" d="M176.8,133.88H153.28v0H176.8Z"/><path class="zm_cls-3" d="M176.8,133.88h0v0h8A17,17,0,0,0,200,117V48.17H176.8Z"/><polygon class="zm_cls-4" points="153.28 133.88 176.8 133.88 176.81 133.88 176.81 48.17 176.81 48.13 153.28 48.13 153.28 48.18 153.28 48.18 153.28 133.88"/><polygon class="zm_cls-5" points="153.28 48.18 153.28 48.18 129.26 48.18 129.26 133.9 153.28 133.9 153.28 133.88 153.28 48.18"/><path class="zm_cls-6" d="M183.77,16.11s8.87-3.79,9.72-4.57c.39.47-3.55,5.23-11.21,7,6.95-1.64,12.89-6.79,14.1-6.64.35.08.27,5-15.66,9.33,11-2.89,17.42-8.2,17.34-7.62.08.12-1.09,4.18-10.74,7.34,2.69-.62,10-5.08,9.92-4.22.23.35-7.07,9.72-20.27,6.68,10.54,2.73,17.38-3.87,18.35-3.75.2,0-2,5.78-15.23,6.13,6.37-.66,4.53,0,4.53,0a8.54,8.54,0,0,1-8.28.94c3.55,1,3.94,1,4,1.33-.23.39-3.16,1-6-.55,2.27.94,4.3,1.09,4.34,1.45a3,3,0,0,1-2.77.35c-1.29-.59-13.16-7.89-13.16-7.89L183,15.84Z"/><path class="zm_cls-7" d="M177,30.1a3,3,0,0,1-1.26-.26c-1.31-.6-12.74-7.62-13.23-7.92a.62.62,0,0,1,.16-1.13l20.23-5.55a.62.62,0,0,1,.38,0l.51.19a93.77,93.77,0,0,0,9.32-4.36.62.62,0,0,1,.46-.16.63.63,0,0,1,.44.22.79.79,0,0,1,.15.68,1.84,1.84,0,0,1-.22.52,5.76,5.76,0,0,1,2.42-1.08h.14a.75.75,0,0,1,.61.68,2.75,2.75,0,0,1-.46,1.66c.87-.52,1.13-.67,1.41-.67a.7.7,0,0,1,.5.23.67.67,0,0,1,.14.28.79.79,0,0,1,0,.38,5.37,5.37,0,0,1-1.35,2.2.72.72,0,0,1,.36.21.76.76,0,0,1,.15.3.69.69,0,0,1,0,.41,7.63,7.63,0,0,1-2,2.43.65.65,0,0,1,.09.34c0,.73-2.11,4.79-10.55,6.21a.94.94,0,0,1-.48.38A9.59,9.59,0,0,1,181,27.9a.62.62,0,0,1-.08.44,2.23,2.23,0,0,1-1.56.68.59.59,0,0,1,0,.1C179.15,29.65,177.88,30.1,177,30.1Zm-2.57-3.25a.64.64,0,0,1,.24,0,20.55,20.55,0,0,0,2.89.91l.3,0a8.83,8.83,0,0,1-1.72-.56.62.62,0,0,1,.42-1.17l2.37.64.71,0a7.89,7.89,0,0,0,2.57-.44c-.66,0-1.35.08-2.06.1h0a.63.63,0,0,1-.06-1.25c1.94-.2,3.33-.31,4.12-.31,4.91-.64,7.6-2.13,9-3.36-.46.26-1,.55-1.56.84A20.23,20.23,0,0,1,187.45,24a20.35,20.35,0,0,1-10.63,0,.62.62,0,0,1-.45-.75.63.63,0,0,1,.75-.46,22.4,22.4,0,0,0,5,.59h0a19.5,19.5,0,0,0,5-.64,21.75,21.75,0,0,0,4-1.53,18.11,18.11,0,0,0,4.6-3.4c-.56.26-1.14.56-1.47.72a28,28,0,0,1-5,2.4,11.48,11.48,0,0,1-1.77.62.63.63,0,0,1-.34-1.2q.88-.29,1.66-.58c1.2-.51,2.72-1.27,4.07-2l.79-.4a12.88,12.88,0,0,0,2.73-2.21c-1.15.69-2.81,1.65-4.88,2.67a45.63,45.63,0,0,1-8.26,3.28q-1.13.35-2.34.67a.63.63,0,0,1-.32-1.21q1.21-.33,2.3-.66a56.58,56.58,0,0,0,8.08-3.21c3.07-1.66,4.29-3.14,4.71-4-.53.29-1.31.77-2,1.21a60.81,60.81,0,0,1-5.54,3.1,24,24,0,0,1-5.65,2.06.63.63,0,0,1-.28-1.22,26.65,26.65,0,0,0,5.39-2,18.48,18.48,0,0,0,3.73-2.51c-2.6,1.24-6.25,2.81-7.25,3.24a.62.62,0,0,1-.46,0l-.55-.2L164.36,21.6c2.63,1.61,6.78,4.14,9.44,5.71a.62.62,0,0,1,.61-.47Z"/><path class="zm_cls-6" d="M160,35.86a1.68,1.68,0,0,0-1.83,1.58s-.15.12,0,.88a4.45,4.45,0,0,1,.44-.69,2.59,2.59,0,0,0,2.3-.73c-1.18,1.22-.47,1.68-.47,1.68s-.28,1,.62,1.16a.75.75,0,0,1-.12-.73,1.42,1.42,0,0,0,1.18-1.66c0,1.39.8,1.73.8,1.73a.84.84,0,0,0,.81.83,1.17,1.17,0,0,1-.34-1,1.42,1.42,0,0,0,.16-2.07,3.38,3.38,0,0,0,1-1.17,6.52,6.52,0,0,1-1.08-.57,10,10,0,0,1,0-2.22l-.44-2.43-1.26,3.79C161.74,33.69,161.77,35.86,160,35.86Z"/><path class="zm_cls-7" d="M163.68,40.54h0a1.44,1.44,0,0,1-1.34-1.1,2,2,0,0,1-.27-.29,2,2,0,0,1-.46.31.62.62,0,0,1-.69.9,1.4,1.4,0,0,1-.95-.65,1.6,1.6,0,0,1-.2-.93,1.22,1.22,0,0,1-.17-.49v0a2.79,2.79,0,0,1-.71.06l-.19.32a.63.63,0,0,1-1.17-.23,2.36,2.36,0,0,1,.05-1.15,2.3,2.3,0,0,1,2.44-2,1.09,1.09,0,0,0,1.07-1,.47.47,0,0,1,0-.08.68.68,0,0,1,0-.19l1.24-3.74a.63.63,0,0,1,1.21.09l.44,2.43a.63.63,0,0,1,0,.16,14.54,14.54,0,0,0,0,1.79,7.34,7.34,0,0,0,.76.38A.63.63,0,0,1,165,36a4.69,4.69,0,0,1-.74,1,2,2,0,0,1-.33,2.19.44.44,0,0,0,.13.25.62.62,0,0,1-.42,1.09Zm-1.61-3.78a.6.6,0,0,1,.62.56,1.85,1.85,0,0,0,.31,1.06c.17-.15.44-.52,0-1.18a.63.63,0,0,1,.2-.89,1.54,1.54,0,0,0,.38-.37,4,4,0,0,1-.55-.34.62.62,0,0,1-.18-.22,6.09,6.09,0,0,1-.09-2.34l-.43,1.29a2.48,2.48,0,0,1-1.36,2,.61.61,0,0,1,.36.2.62.62,0,0,1,0,.85,1.59,1.59,0,0,0-.51.78.62.62,0,0,1,.16.23c.21-.08.5-.3.48-.93a.65.65,0,0,1,.6-.67Zm-3.18.31a2.52,2.52,0,0,0,1.53-.61,2.65,2.65,0,0,1-.43,0A1.1,1.1,0,0,0,158.89,37.06Z"/><path class="zm_cls-6" d="M168.78,30.4s1.33,1.48,2.58,1.41c.47-.39-1-1.25-1-1.45.51.47,2.65,2.3,4,1.64.54-.78-1-.66-2.66-2.77,1.17.78,4.1,2.5,5.47,1.83.59-.62-3-2.58-4.26-4.1l-3.12-1.6-4.26,3.48Z"/><path class="zm_cls-7" d="M173.74,32.77a4.11,4.11,0,0,1-1.89-.57l-.09.09a.64.64,0,0,1-.36.14h-.14a4.49,4.49,0,0,1-2.85-1.52l-3.1-1.51a.63.63,0,0,1-.12-1l4.26-3.48a.62.62,0,0,1,.68-.07l3.12,1.6a.61.61,0,0,1,.2.17,14.33,14.33,0,0,0,2.26,2c1.4,1.06,2.14,1.65,2.19,2.3a.86.86,0,0,1-.23.66.64.64,0,0,1-.18.13,3.39,3.39,0,0,1-2.35,0,1.08,1.08,0,0,1-.22.74.63.63,0,0,1-.24.21A2.13,2.13,0,0,1,173.74,32.77Zm-3.36-3a.63.63,0,0,1,.42.17,7.07,7.07,0,0,0,2.47,1.55,8.21,8.21,0,0,1-2-1.83.63.63,0,0,1,.84-.91,11.18,11.18,0,0,0,4.19,1.87c-.37-.33-.92-.75-1.33-1.06a15.84,15.84,0,0,1-2.39-2.06l-2.64-1.36-3.18,2.6L169,29.84a.62.62,0,0,1,.16.11,6,6,0,0,0,.55.51.74.74,0,0,1,0-.11.63.63,0,0,1,.38-.57A.64.64,0,0,1,170.38,29.74Z"/><path class="zm_cls-6" d="M164,18.53s1.45-.86,7.22-.43c.63.08,3.94-1.13,5-1.48,1.68-.31,7-1.48,8.47-2.58,1-.12-.27,1.87-1.56,2.34-1.37.63-6.33,2.34-8.08,2.11,2.11,0,.94,1.76-2.58.94,1.68.94,1.05,1.09,1.05,1.09s-3,.16-3.75-.51c2,.74,1.17,1,1.17,1a7.92,7.92,0,0,1-3-.23c1.45.43.7.7.7.7a4.92,4.92,0,0,1-2.15-.16C165.54,21,164.05,18.53,164,18.53Z"/><path class="zm_cls-7" d="M167.88,22.18a4.68,4.68,0,0,1-1.58-.25c-.85-.31-1.76-1.53-2.55-2.66l-.2-.28a.63.63,0,0,1,.11-1c.18-.11,1.24-.64,4.57-.64.92,0,1.93,0,3,.12h0a28.72,28.72,0,0,0,4-1.2L176,16c2.23-.42,7.06-1.55,8.29-2.48a.63.63,0,0,1,.3-.12h.16a.86.86,0,0,1,.89.71c.17.93-1.21,2.44-2.32,2.85a34.65,34.65,0,0,1-6.62,2c-.06.77-1,1.26-2.46,1.27a.77.77,0,0,1-.58.85l-.12,0a17.18,17.18,0,0,1-1.87,0,.89.89,0,0,1-.54.5l-.14,0s-.49,0-1.1,0h-.51a1,1,0,0,1-.49.4l-.11,0A5.77,5.77,0,0,1,167.88,22.18ZM165,18.87a6.78,6.78,0,0,0,1.73,1.89,2.88,2.88,0,0,0,.61.14.62.62,0,0,1,.79-.7l.44.15a4.79,4.79,0,0,0,.71.09.63.63,0,0,1,.68-1c.31.12.56.22.76.32a8.1,8.1,0,0,0,1.3.15.62.62,0,0,1,.55-1.08,6.82,6.82,0,0,0,2.08.18.62.62,0,0,1-.26-.56.66.66,0,0,1,.63-.58l.39,0c1.79,0,6-1.45,7.42-2.08a2.7,2.7,0,0,0,.88-.58,49.49,49.49,0,0,1-7.42,2l-.65.23a22.72,22.72,0,0,1-4.4,1.27h-.14c-1-.08-2-.12-2.9-.12A16,16,0,0,0,165,18.87Z"/><path class="zm_cls-6" d="M166.29,31.21,166.5,35a2.81,2.81,0,0,1-.21.31c-.1.11-2.71-.41-2.35,1.58,0,.82,0,1,.57,1.48a2.56,2.56,0,0,1-.1-.91s.73.44,1.45-.77c-.49,1.19-.15,1.62,0,1.65.12.21-.2,1.17.79,1.16a.89.89,0,0,1-.2-.88s1-.16.67-2c.38-.37.52,0,.52,0s.12,1.11,1,.88c.41.23-.07.83-.07.83a.9.9,0,0,0,.85-.54c.2-.56.42-1.55-.65-2-.13-.39.42-.42.42-.42a2,2,0,0,1,.88.57c.2.34.13-.9-.72-1-1,0-1.11-.24-1.11-.29s-.18-2.78-.26-3.56Z"/><path class="zm_cls-7" d="M166.59,40.16c-.6,0-1.32-.26-1.35-1.48a1.14,1.14,0,0,1-.11-.18.63.63,0,0,1-1,.39,2,2,0,0,1-.8-1.91,1.82,1.82,0,0,1,.34-1.52,2.68,2.68,0,0,1,2.11-.72h.09l-.19-3.48a.63.63,0,0,1,.58-.66l1.68-.12a.64.64,0,0,1,.67.56c.06.57.19,2.44.24,3.25a4.09,4.09,0,0,0,.53,0A1.68,1.68,0,0,1,170.77,36a.73.73,0,0,1-.6.64A2.83,2.83,0,0,1,170,38a1.48,1.48,0,0,1-1.43,1,.63.63,0,0,1-.58-.87,1.27,1.27,0,0,1-.25-.12,1.91,1.91,0,0,1-.3.69,1.55,1.55,0,0,1-.4.4l0,0a.63.63,0,0,1-.42,1.08Zm-.35-2.26a.63.63,0,0,1,.11.12c.13-.08.28-.46.14-1.22a.63.63,0,0,1,0,.16A1.9,1.9,0,0,0,166.24,37.9Zm-1.68-1,.17.07c.14,0,.36-.15.59-.55a.7.7,0,0,0,1.32-.22,1.06,1.06,0,0,1,.75-.35.87.87,0,0,1,.79.54.66.66,0,0,1,0,.17.65.65,0,0,0,.14.35.89.89,0,0,1,.55,0h0a.52.52,0,0,0-.41-.54.63.63,0,0,1-.37-.39.91.91,0,0,1,0-.63.78.78,0,0,1-.56-.74c0-.11-.12-1.84-.21-2.89l-.46,0,.18,3.2a.61.61,0,0,1-.09.35,3.71,3.71,0,0,1-.27.4.78.78,0,0,1-.64.24h-.36c-.76,0-1,.15-1.15.27a.69.69,0,0,0-.06.56Z"/><path class="zm_cls-6" d="M169.92,34.47c0-.18-1.78-2.59-1.33-2.9.46.09,1.2,1.19,1.81.84-.18-.43-.72-.19-1.34-1.28s-.71-3.1-2.85-5.13c1.39,2.15,4.54,3.41,4.68,2.78s-2.78-3-2.63-3.57c.58,1.17,3.5,3.79,5.65,3.57.15-.5-1.76-1.52-2.26-2.46-1.37-.92-5.06-4.1-5.13-4.83A8.6,8.6,0,0,0,164,18.7a1,1,0,0,1-.22-.46c-.83-2,.27-2.6.91-2.69s.68,0,1.07-.17l-1.36-.52c.59.43,2.1.05,1.77,1.3.66-.25,2.07-1.92-1.59-2.3-1.19-1.36-6.08-2.15-7.3,3.81a4.19,4.19,0,0,0,.46.38c-1.55-.75-5.71-1.33-7.21-1.57-4.06-1.17-8.27-4-8.68-3.64s2.45,3,2.3,3.09a69.33,69.33,0,0,0-7.17-3.56c-1.55-.58-3.11-1.93-3.28-1.67-.57,1.18,2.49,4.16,3.06,4.51s5,2.41,5,2.44c-6.74-3.06-7.87-3.62-8.21-4-.59-.13-2-2.09-2.44-2-.22.22.22,3.3,3.44,4.69.52.38,6.89,2.67,6.83,2.85s-7.3-3-7.58-3.11c-1.4-.55-3.12-2.48-3.45-2.26s.79,2.29,2.21,2.94c.74.33,3.6,1.74,6.17,2.64.16.06-4.62-1.81-6.92-2.78-1-.58-1.53-1.3-1.69-1.14s.38,3.24,7.77,5c.19.08,2.6-.57,2.48-.48s-2.39.53-2.62.52a6.43,6.43,0,0,0-1.52.22c-.08.21.47,1.31,4.28,1.08.49,0,3.13-1,2.91-.76s-3.6,1.24-3.87,1.26a5.94,5.94,0,0,0-1.5.29c-.06.18.91,1,3,1.09,1.82.1,5.26-1.11,5.19-1s-3.32,1.19-3.41,1.26-1.31.13-1.35.22,1.72,1.93,7.09.11c-.54.73-3.14,1.23-3.14,1.36a2.38,2.38,0,0,0,1.48.86,4.76,4.76,0,0,0,1.65,0,6.74,6.74,0,0,0,3.47-1.87c.16.4-3.42,2.21-3.25,2.38.78.72,3.36-.09,3.53-.19s5-2.8,5-3.12c.08.4-6.19,3.8-6.12,3.94.4.64,2.54,0,2.64-.09l2.8-1.52c.07,0-3.09,1.85-2.8,2.14-.14,1.23,4.94-.85,5.33-1.11.2-.13-2.44,1.16-2.44,1.77.85,1.44,3.57,1,4,.66.21-.16-.25,1.07-.1,1a4.65,4.65,0,0,0,.8-1.12c-.06.4-.36,1-.54,1.76s-.23,1.54-.46,2.41c-.05.38,1.68-.75,1.42-3.44.15,1.4-.55,4-.37,4.16.37.27,1.37-1.31,1.47-2.37a5.44,5.44,0,0,0,1.46,1.92A4.65,4.65,0,0,0,164,32.2c.14-1.06.16-2.54.19-4.2,1.46,2.8,2,4,1.64,6.14.44.18,1.13-1.5,1.08-2.36A3.48,3.48,0,0,0,169.92,34.47Z"/><path class="zm_cls-7" d="M169.88,35h0a4.07,4.07,0,0,1-2.79-1.61,3.15,3.15,0,0,1-.56,1,.86.86,0,0,1-.63.31.9.9,0,0,1-.26-.05.5.5,0,0,1-.3-.56,5.69,5.69,0,0,0-.69-4c0,.81-.06,1.54-.14,2.15a3.7,3.7,0,0,1,.2,1.13c0,.09,0,.19,0,.32a.5.5,0,0,1-.47.67h0a.5.5,0,0,1-.22,0,3.15,3.15,0,0,1-1.09-1.13c-.36.84-1,1.66-1.53,1.66a.65.65,0,0,1-.39-.13c-.2-.15-.25-.33-.22-.72a.68.68,0,0,1-.9,0,.64.64,0,0,1-.13-.45A13.24,13.24,0,0,0,160,32c.06-.36.11-.71.19-1v0a.52.52,0,0,1-.21-.16.6.6,0,0,1-.09-.54,5.75,5.75,0,0,1-1.07.1,3,3,0,0,1-2.74-1.24.51.51,0,0,1-.07-.26.79.79,0,0,1,0-.11c-1.22.36-2.29.49-2.7,0a.77.77,0,0,1-.2-.51,6,6,0,0,1-1.35.19,1.33,1.33,0,0,1-1.21-.51l-.08-.17a5.86,5.86,0,0,1-.78.06,2,2,0,0,1-1.42-.43.53.53,0,0,1-.16-.33,4.67,4.67,0,0,1-1.47,0c-.81-.18-1.94-.82-1.87-1.41l-.68,0c-1.95,0-2.9-.66-3.16-1.05a.66.66,0,0,1-.12-.34,4.65,4.65,0,0,1-3.27-1.2.6.6,0,0,1-.1-.54.53.53,0,0,1,.17-.25,2.73,2.73,0,0,1-1.85-.93.78.78,0,0,1-.13-.72.35.35,0,0,1,.07-.12c-5.56-1.74-6.18-4.27-6.23-4.58a.69.69,0,0,1,.24-.77.73.73,0,0,1,.29-.1,2.62,2.62,0,0,1-.33-.94.65.65,0,0,1,.28-.62.75.75,0,0,1,.33-.1,1,1,0,0,1,.54.19,5.2,5.2,0,0,1-.34-1.09c-.13-.73,0-1,.15-1.1a.5.5,0,0,1,.2-.12l.19,0c.41,0,.8.37,1.51,1.09a5.88,5.88,0,0,0,1,.9.47.47,0,0,1,.24.14,3.09,3.09,0,0,0,.66.41c-.92-1.07-1.72-2.37-1.3-3.26a.65.65,0,0,1,.52-.32c.29,0,.61.19,1.28.61a12.19,12.19,0,0,0,2.1,1.13c1.53.67,3.11,1.39,4.78,2.24-.52-.64-.69-1-.63-1.32a.6.6,0,0,1,.29-.41.67.67,0,0,1,.37-.1,8.12,8.12,0,0,1,2.55,1.06A37.31,37.31,0,0,0,150.63,16l.61.09a47.83,47.83,0,0,1,5.6,1.11c1-4.33,3.9-4.81,5.11-4.81a4.24,4.24,0,0,1,2.84,1c1.66.2,2.56.72,2.67,1.55a1.78,1.78,0,0,1-1.14,1.69.49.49,0,0,1-.51-.09.5.5,0,0,1-.15-.5l0-.09a2.06,2.06,0,0,1-.57.08l-.38,0a.92.92,0,0,0-.65.43,1.87,1.87,0,0,0,.14,1.57l0,.1a.59.59,0,0,0,.07.18,10.11,10.11,0,0,1,2.64,2.87.5.5,0,0,1,.08.23c.19.58,3.39,3.45,4.91,4.47a.5.5,0,0,1,.16.18,5.22,5.22,0,0,0,1.18,1.19c.71.6,1.28,1.07,1.11,1.64a.5.5,0,0,1-.43.36,4.77,4.77,0,0,1-2.58-.63.71.71,0,0,1,0,.24.73.73,0,0,1-.81.56,4.5,4.5,0,0,1-1.82-.59c.14.36.25.69.36,1a8.52,8.52,0,0,0,.41,1.06,1.51,1.51,0,0,0,.75.74,1.12,1.12,0,0,1,.6.57.5.5,0,0,1-.21.63,1.17,1.17,0,0,1-1.14,0c.17.3.35.58.46.75.38.6.47.74.45,1a.51.51,0,0,1-.06.19A.58.58,0,0,1,169.88,35Zm-3-3.7a.5.5,0,0,1,.49.39,2.92,2.92,0,0,0,1.42,1.93c-.67-1.1-1.13-2-.51-2.44a.49.49,0,0,1,.19-.08c-.13-.3-.23-.6-.34-.92A9.21,9.21,0,0,0,167,27.6a6.71,6.71,0,0,1-1.17-1.34.5.5,0,0,1,.76-.63,9.43,9.43,0,0,1,1.15,1.3,7.28,7.28,0,0,0,2.45,1.42c-.27-.31-.69-.76-1-1.07-1-1.12-1.54-1.68-1.4-2.2a.5.5,0,0,1,.93-.09,8.35,8.35,0,0,0,4.06,3.16l-.12-.1a6.41,6.41,0,0,1-1.37-1.39c-1-.7-4.75-3.74-5.21-5a9.3,9.3,0,0,0-2.36-2.56.51.51,0,0,1-.13-.11,1.47,1.47,0,0,1-.31-.62A2.7,2.7,0,0,1,163.2,16a1.86,1.86,0,0,1,.83-.76.5.5,0,0,1-.09-.6.49.49,0,0,1,.62-.22l.7.22a1.89,1.89,0,0,1,1.2.53.26.26,0,0,0,0-.09c0-.19-.47-.55-2-.71a.5.5,0,0,1-.33-.17,3.12,3.12,0,0,0-2.23-.79c-1,0-3.28.41-4.15,4.1l.21.16a.5.5,0,0,1-.52.85,32.14,32.14,0,0,0-6.4-1.42l-.68-.11A37.8,37.8,0,0,1,144,14.27l-1.23-.61c.34.4.76.85,1,1.11.77.82.88.95.81,1.26a.52.52,0,0,1-.31.36.5.5,0,0,1-.43,0,68.3,68.3,0,0,0-7.12-3.53,13.16,13.16,0,0,1-2.25-1.2l-.37-.23A11.25,11.25,0,0,0,137,14.78c.26.16,1.65.82,2.76,1.35s1.71.81,2,1l.12.05h0c.31.19.3.28.3.46a.5.5,0,0,1-.71.44c-6.67-3-7.82-3.59-8.27-4A5,5,0,0,1,131.89,13l-.23-.23a5.4,5.4,0,0,0,3,3.18l.1.06a4.43,4.43,0,0,0,.49.23l.65.27,2.22.88c3.83,1.49,3.83,1.49,3.65,2a.5.5,0,0,1-.47.34c-.16,0-.21,0-5.79-2.33l-.66-.28-1.32-.54a9.44,9.44,0,0,1-2.22-1.46,3.91,3.91,0,0,0,1.38,1.22l.69.32c.63.3,1.55.73,2.59,1.17l2.2.87.54.22.11,0h0c.34.16.39.28.33.56a.5.5,0,0,1-.12.24l.36-.08a5.39,5.39,0,0,1,.9-.18.52.52,0,0,1,.49.34.51.51,0,0,1-.18.56c-.09.06-.16.11-1.79.43-.32.07-.62.13-.8.15l-.33,0-.47,0a8.31,8.31,0,0,0,3.21.27c.19,0,1-.27,1.56-.43a6.63,6.63,0,0,1,1.38-.36.51.51,0,0,1,.35.9,36.7,36.7,0,0,1-4.16,1.39l-.15,0-.17,0a6.14,6.14,0,0,0,1.76.34h.18a19.1,19.1,0,0,0,4.38-.9,2.3,2.3,0,0,1,.59-.14.5.5,0,0,1,.38.84c-.11.13-.12.13-2.14.85-.58.21-1.31.46-1.41.51a.59.59,0,0,1-.19.07,5.63,5.63,0,0,0,1.38.15,13.3,13.3,0,0,0,4.15-.8.5.5,0,0,1,.56.77,5.24,5.24,0,0,1-2.52,1.24,2.66,2.66,0,0,0,.58.2,4.32,4.32,0,0,0,1.46,0,6.21,6.21,0,0,0,3.21-1.75.5.5,0,0,1,.8.18c.24.59-.38,1-2.2,2.12l-.4.25a7.68,7.68,0,0,0,2.2-.43,45.64,45.64,0,0,0,4.73-2.89.5.5,0,0,1,.94.13c.09.49,0,.68-4.32,3.2l-1,.57a6.6,6.6,0,0,0,1.09-.27l1.54-.84,1.23-.67a.51.51,0,0,1,.42,0,.5.5,0,0,1,.3.3.55.55,0,0,1-.22.6h0a22.2,22.2,0,0,0-2.33,1.57,15.94,15.94,0,0,0,4-1.22c.52-.27.57-.27.68-.27a.5.5,0,0,1,.48.36.52.52,0,0,1-.22.57,4.67,4.67,0,0,1-.54.26,7.48,7.48,0,0,0-1.58,1,2.49,2.49,0,0,0,1.72.54,3.55,3.55,0,0,0,1.38-.23.65.65,0,0,1,.58,0,.5.5,0,0,1,.91.36s0,.1,0,.15a.5.5,0,0,1,.46.45c0,.07,0,.15,0,.22a5.76,5.76,0,0,1,0,1.06c0,.52-.13,1.09-.21,1.59a3.41,3.41,0,0,0,.34-1.08.5.5,0,0,1,.4-.44.49.49,0,0,1,.54.25l.3.52c.13-1,.15-2.31.18-3.85V28a.5.5,0,0,1,.39-.48.49.49,0,0,1,.56.25,14.16,14.16,0,0,1,1.76,4.31,1.51,1.51,0,0,0,0-.28.5.5,0,0,1,.43-.53Zm-35.5-14.21c1,.93,2.9,2.11,6.5,3l.16,0,.4-.08c-.84-.29-1.81-.68-2.89-1.15-1.38-.55-3-1.19-4-1.63Z"/><path class="zm_cls-6" d="M162.93,14c0-.1-.43-1-2,.13C161.76,14.16,162.61,14.65,162.93,14Z"/><path class="zm_cls-7" d="M162.33,14.83h0a3.83,3.83,0,0,1-.78-.11,4.5,4.5,0,0,0-.67-.11l-1.4-.08,1.14-.82a2.91,2.91,0,0,1,1.64-.67,1.12,1.12,0,0,1,1.18.94v.12l-.05.1A1.09,1.09,0,0,1,162.33,14.83Z"/></g></g></svg>
